<svg xmlns="http://www.w3.org/2000/svg" width="301.5" height="323.379" viewBox="0 0 301.5 323.379">
  <g id="CIEKAWOSTKA" transform="translate(-597.973 -80.711)">
    <path id="Path_1283" d="M610.246,95.817c18.5-23.108,261.75-16.94,275.563,0s19.981,269.569,4.865,290.332-266.355,23.8-280.428,7.558S591.742,118.926,610.246,95.817Z" transform="translate(0 0)" fill="#e5a34c"/>
    <g id="CIEKAWOSTKA-2" transform="translate(685.131 105.982)">
      <g id="Group_451" data-name="Group 451">
        <path id="Path_2619" data-name="Path 2619" d="M702.3,122.31a6.388,6.388,0,0,1-3.475-3.475,5.941,5.941,0,0,1-.521-2.519,6.232,6.232,0,0,1,.521-2.519,6.388,6.388,0,0,1,3.475-3.475,6.106,6.106,0,0,1,5.126.087,6.554,6.554,0,0,1,2.259,1.824l-1.216,1.216a4.726,4.726,0,0,0-3.736-1.824,4.33,4.33,0,0,0-3.3,1.39,5.705,5.705,0,0,0-1.042,1.477,4.029,4.029,0,0,0-.348,1.824,4.272,4.272,0,0,0,.348,1.824,4.542,4.542,0,0,0,1.042,1.477,5.705,5.705,0,0,0,1.477,1.042,4.272,4.272,0,0,0,1.824.347,4.853,4.853,0,0,0,3.736-1.824l1.3,1.129a7.8,7.8,0,0,1-2.346,1.824,5.821,5.821,0,0,1-2.693.608A5.762,5.762,0,0,1,702.3,122.31Z" transform="translate(-698.3 -109.8)" fill="#2e3c4b"/>
        <path id="Path_2620" data-name="Path 2620" d="M714,122.77V110h1.564v12.684H714Z" transform="translate(-700.361 -109.826)" fill="#2e3c4b"/>
        <path id="Path_2621" data-name="Path 2621" d="M718.6,122.77V110h6.95v1.737h-5.3v3.822h3.562v1.564h-3.562v3.822h5.3v1.737H718.6Z" transform="translate(-700.965 -109.826)" fill="#2e3c4b"/>
        <path id="Path_2622" data-name="Path 2622" d="M735.134,122.784l-4.083-4.691v4.691H729.4V110.1h1.651v4.865l4-4.865h2.259l-5.386,6.429,5.473,6.255Z" transform="translate(-702.382 -109.839)" fill="#2e3c4b"/>
        <path id="Path_2623" data-name="Path 2623" d="M748.748,122.784l-1.564-4.431h-4l-1.564,4.431H739.8l4.431-12.684h1.911l4.431,12.684Zm-3.562-10.251-1.477,4.17h2.867Z" transform="translate(-703.747 -109.839)" fill="#2e3c4b"/>
        <path id="Path_2624" data-name="Path 2624" d="M763.489,122.77h-1.737l-2-5.386-1.911,5.386H756.1L751.5,110h1.824l3.562,9.99,1.824-5.212L756.973,110H758.8l1.651,4.691,1.911,5.3,3.475-9.99h1.824Z" transform="translate(-705.283 -109.826)" fill="#2e3c4b"/>
        <path id="Path_2625" data-name="Path 2625" d="M775.409,122.336a5.51,5.51,0,0,1-2-1.39,6.741,6.741,0,0,1-1.39-2.085,5.937,5.937,0,0,1,0-4.865,6.743,6.743,0,0,1,1.39-2.085,7.54,7.54,0,0,1,2-1.39,5.936,5.936,0,0,1,4.865,0A6.388,6.388,0,0,1,783.749,114a5.936,5.936,0,0,1,0,4.865,6.388,6.388,0,0,1-3.475,3.475,5.936,5.936,0,0,1-4.865,0Zm.7-10.164a4.542,4.542,0,0,0-1.477,1.042,5.707,5.707,0,0,0-1.043,1.477,4.274,4.274,0,0,0-.347,1.824,4.537,4.537,0,0,0,.347,1.824,6.185,6.185,0,0,0,.956,1.477,5.706,5.706,0,0,0,1.477,1.042,4.272,4.272,0,0,0,1.824.347,4.33,4.33,0,0,0,3.3-1.39,3.923,3.923,0,0,0,.956-1.477,4.535,4.535,0,0,0-1.043-5.126,5.705,5.705,0,0,0-1.477-1.042,4.029,4.029,0,0,0-1.824-.347A3.764,3.764,0,0,0,776.1,112.172Z" transform="translate(-707.909 -109.826)" fill="#2e3c4b"/>
        <path id="Path_2626" data-name="Path 2626" d="M794.6,112.68a2.464,2.464,0,0,0-.869-.782,2.9,2.9,0,0,0-1.3-.261,2.543,2.543,0,0,0-1.824.521,1.91,1.91,0,0,0-.521,1.477,2.569,2.569,0,0,0,.174.869.89.89,0,0,0,.434.521,4.291,4.291,0,0,0,1.477.434q1.042.13,1.824.261a10.111,10.111,0,0,1,1.3.521,2.976,2.976,0,0,1,1.39,2.78,3.6,3.6,0,0,1-.261,1.39,3.306,3.306,0,0,1-.782,1.129,3.187,3.187,0,0,1-1.477.869,5.6,5.6,0,0,1-1.737.261,4.277,4.277,0,0,1-3.214-1.129,4.138,4.138,0,0,1-1.216-2.78h1.651a2.157,2.157,0,0,0,.695,1.477,2.932,2.932,0,0,0,2,.695,3.121,3.121,0,0,0,1.911-.521,1.814,1.814,0,0,0,.7-1.39,1.694,1.694,0,0,0-.087-.695,1.158,1.158,0,0,0-.434-.521A4.622,4.622,0,0,0,792,117.2a4.48,4.48,0,0,1-2.78-1.042,3.476,3.476,0,0,1-.956-2.519,3.6,3.6,0,0,1,1.043-2.693,4.087,4.087,0,0,1,2.954-1.042,4.254,4.254,0,0,1,3.127,1.216,5.456,5.456,0,0,1,1.216,2.78h-1.737A1.939,1.939,0,0,0,794.6,112.68Z" transform="translate(-710.074 -109.813)" fill="#2e3c4b"/>
        <path id="Path_2627" data-name="Path 2627" d="M804.091,111.651v11.12h-1.651v-11.12H799.4V110h7.819v1.651Z" transform="translate(-711.571 -109.826)" fill="#2e3c4b"/>
        <path id="Path_2628" data-name="Path 2628" d="M816.634,122.784l-4.083-4.691v4.691H810.9V110.1h1.651v4.865l4-4.865h2.259l-5.386,6.429,5.473,6.255Z" transform="translate(-713.08 -109.839)" fill="#2e3c4b"/>
        <path id="Path_2629" data-name="Path 2629" d="M830.248,122.784l-1.564-4.431h-4l-1.564,4.431H821.3l4.431-12.684h1.911l4.43,12.684Zm-3.562-10.251-1.477,4.17h2.867Z" transform="translate(-714.445 -109.839)" fill="#2e3c4b"/>
      </g>
    </g>
    <rect id="Rectangle_45" width="10.859" height="2.172" transform="translate(738.037 125.789)" fill="#ae4426"/>
    <g id="Group_181" transform="translate(665.487 144.335)">
      <path id="Path_1327" d="M686.471,194.824c4.778-13.118,16.072-40.136,37.964-40.57s81.922-2.606,97.212,15.724,17.983,32.578,15.724,61.42-9.99,45.609-19.112,60.9-47.954,27.191-82.878,25.8-60.29-22.066-59.682-50.387,12.857-32.143,10.772-44.392S681.693,207.942,686.471,194.824Z" transform="translate(-675.688 -153.948)" fill="#f2edeb"/>
    </g>
    <g id="gdansk_port" transform="translate(713.712 152.202)">
      <path id="Path_1944" d="M758.149,318.28c-9.469,0-19.981-.087-20.589-.348-1.043-.521-1.043-9.73-.782-13.465.261-3.214.608-3.3.782-3.388.869-.261,14.421-.521,26.67-.695,5.994-.087,25.541-.261,26.062.174.608.521.956,7.645.956,8.514.087,1.824.347,7.905-.261,8.514-.521.521-18.765.695-26.583.695Zm-20.415-16.94c-.521.434-.869,7.124-.608,12.249.174,3.736.608,4,.608,4,.608.261,12.249.347,26.5.347,15.29-.087,25.975-.347,26.583-.608.608-.695,0-15.637-.7-16.506C788.815,300.3,739.471,300.818,737.734,301.339Z" transform="translate(-731.913 -181.023)" fill="#2e3c4b"/>
      <path id="Path_1945" d="M744.647,312.362c-.608,0-1.477,0-2.606-.087a22.761,22.761,0,0,0-2.432-.087h-.174c-.261-.174-.434-2.172-.434-5.907v-.087c.348-.869,6.255-.782,6.863-.521.174.087.348.347.521,1.39.174,1.477.087,4.691-.434,5.039A3.851,3.851,0,0,1,744.647,312.362Zm-4.6-.608a19.991,19.991,0,0,1,2,.087,12.834,12.834,0,0,0,3.649,0c.261-.261.521-2.867.348-4.778-.087-.956-.261-1.043-.261-1.043-.7-.347-5.994-.174-6.429.348a28.9,28.9,0,0,0,.261,5.473.651.651,0,0,1,.434-.087Z" transform="translate(-732.224 -181.708)" fill="#2e3c4b"/>
      <path id="Path_1946" d="M754.045,312.162a34.118,34.118,0,0,1-4.778-.261c-.434-.174-.087-5.821-.087-5.907s.174-.174.261-.174a19.96,19.96,0,0,1,3.909-.434c2.085-.174,3.3-.087,3.475.087.608.521-.261,6.081-.434,6.342S755.261,312.162,754.045,312.162Zm-4.6-.521a34.367,34.367,0,0,0,6.689,0c.174-.347.782-5.473.434-5.907a29.046,29.046,0,0,0-7.124.434C749.354,306.776,749.354,310.946,749.441,311.641Z" transform="translate(-733.543 -181.681)" fill="#2e3c4b"/>
      <path id="Path_1947" d="M764.591,312.376a14.778,14.778,0,0,1-4-.261c-.174-.261-.521-4.517-.695-6.255v-.174h.174c.174,0,4.778-.087,7.819-.087,7.732,0,7.819.174,7.906.261h0a21.121,21.121,0,0,1,0,5.734c-.087.174-.174.261-1.477.434C772.844,312.2,768.066,312.376,764.591,312.376Zm-3.736-.434c1.216.261,13.726.087,14.595-.434a27.891,27.891,0,0,0,0-5.386c-1.129-.174-13.552-.174-15.2-.087.174,2.085.521,5.386.608,5.907Z" transform="translate(-734.967 -181.722)" fill="#2e3c4b"/>
      <path id="Path_1948" d="M783.677,312.514a9.992,9.992,0,0,1-2.78-.174c-.434-.347-1.564-5.386-1.3-6.342.087-.261.174-.347.261-.347v0c.087,0,7.124-.782,7.471.087.261.608.608,5.907-.087,6.429C787.065,312.427,785.328,312.514,783.677,312.514ZM780.029,306c-.174.434.608,5.473,1.216,6.081.434.261,5.56.261,5.994-.174.434-.347.261-5.3-.087-5.994-.434-.434-5.647-.174-7.124.087Z" transform="translate(-737.547 -181.686)" fill="#2e3c4b"/>
      <path id="Path_1949" d="M791.877,312.337h-.261c-.782,0-.869-.087-.956-.174-.174-.347-.434-5.473-.087-6.255,0-.087.087-.174.174-.261h0c.087,0,4.691-.782,5.734,0s.348,5.56,0,6.081S793.007,312.337,791.877,312.337Zm-.956-.434c.608.174,4.952,0,5.3-.348.348-.434.782-4.952,0-5.56s-4.778-.087-5.386,0a27.076,27.076,0,0,0,.087,5.907Z" transform="translate(-738.971 -181.682)" fill="#2e3c4b"/>
      <path id="Path_1950" d="M772.5,290.065c-.434-22.674-1.39-65.85-1.824-67.5-.782-.521-11.728-.869-13.726-.521l.956,68.022h-.348l-.956-68.283h.174c1.129-.261,13.639-.087,14.247.608.434.608,1.651,56.468,1.824,67.675Z" transform="translate(-734.534 -170.704)" fill="#2e3c4b"/>
      <path id="Path_1951" d="M769.844,218.009v-.347c2.519-.087,3.649-.347,3.909-.869.608-.869,4.17-26.062,4-27.539-.869-.521-13.379-2.606-14.074-2.606-1.042,0-13.552.695-14.334,1.3-.348,1.824,3.041,27.539,3.736,28.408.695.608.869.695,2.954.782v.347c-2.085-.087-2.346-.174-3.127-.869s-4.344-27.018-3.909-28.755c.261-.869,14.508-1.564,14.682-1.564.087,0,13.987,2.085,14.421,2.78.434.608-3.388,27.018-4,27.973C773.753,217.661,772.537,217.922,769.844,218.009Z" transform="translate(-733.531 -166.062)" fill="#2e3c4b"/>
      <path id="Path_1952" d="M780.387,189.01h-1.129v-.347h1.564a3.127,3.127,0,0,0-.087-2c-.7-.434-15.724-2.346-17.722-2.606-1.3-.174-18.157,1.3-18.765,1.477v.521a4.277,4.277,0,0,0,.521,1.477,17.955,17.955,0,0,0,3.736-.174l.087.347c-.434.087-3.562.434-4,.174a3.8,3.8,0,0,1-.695-2.172.4.4,0,0,1,.261-.434c.434-.174,17.462-1.651,18.938-1.477.174,0,17.549,2.172,17.983,2.693a3.348,3.348,0,0,1,.174,2.259.465.465,0,0,1-.261.347A1.7,1.7,0,0,0,780.387,189.01Z" transform="translate(-732.867 -165.732)" fill="#2e3c4b"/>
      <path id="Path_1953" d="M772.432,183.081h-.348c.261-4,.521-10.6.174-11.12-.782-.434-16.072-.782-17.114-.347-.174.608.174,7.124.434,11.12h-.348c-.087-1.824-.695-10.772-.348-11.38.087-.087.174-.174.521-.174,2.085-.261,16.419-.174,17.114.434C773.041,172.222,772.606,180.561,772.432,183.081Z" transform="translate(-734.295 -164.059)" fill="#2e3c4b"/>
      <path id="Path_1954" d="M772.743,171.7l-.347-.087a17.362,17.362,0,0,0,.434-2.259c-1.39-.261-16.767-.782-17.983-.608a10.954,10.954,0,0,0,.348,2.432l-.348.087c-.348-1.651-.434-2.606-.261-2.78.087-.087.261-.261,8.861.087,4,.087,8.861.347,9.469.521a.187.187,0,0,1,.174.174A11.727,11.727,0,0,1,772.743,171.7Z" transform="translate(-734.258 -163.707)" fill="#2e3c4b"/>
      <rect id="Rectangle_149" width="0.347" height="2.259" transform="matrix(0.994, -0.111, 0.111, 0.994, 21.61, 4.921)" fill="#2e3c4b"/>
      <rect id="Rectangle_150" width="0.347" height="2.259" transform="translate(23.63 4.948)" fill="#2e3c4b"/>
      <rect id="Rectangle_151" width="2.172" height="0.347" transform="translate(28.086 7.187) rotate(-80.206)" fill="#2e3c4b"/>
      <rect id="Rectangle_152" width="2.172" height="0.347" transform="matrix(0.073, -0.997, 0.997, 0.073, 29.91, 7.237)" fill="#2e3c4b"/>
      <rect id="Rectangle_153" width="0.347" height="2.085" transform="translate(31.448 5.122)" fill="#2e3c4b"/>
      <rect id="Rectangle_154" width="2.085" height="0.347" transform="translate(34.71 7.329) rotate(-85.122)" fill="#2e3c4b"/>
      <rect id="Rectangle_155" width="2.172" height="0.347" transform="translate(36.478 7.522) rotate(-85.298)" fill="#2e3c4b"/>
      <path id="Path_1955" d="M763.573,164.912h-5.386v-.174c-.087-.434-.174-1.39.087-1.651s5.3.174,5.3.174c.087.087.261.174.087,1.477Zm-5.126-.347h4.778a3.9,3.9,0,0,0,.087-.956,46.34,46.34,0,0,0-4.865-.174A2.472,2.472,0,0,0,758.448,164.564Z" transform="translate(-734.731 -163.004)" fill="#2e3c4b"/>
      <rect id="Rectangle_156" width="0.347" height="1.477" transform="translate(25.28 0.17)" fill="#2e3c4b"/>
      <rect id="Rectangle_157" width="0.347" height="1.477" transform="translate(26.496 0.257)" fill="#2e3c4b"/>
      <path id="Path_1956" d="M779.591,197l-2.432-.869c-.608,0-9.556-.434-13.379-.695-4-.261-14.16.695-14.247.695l-2.346.782-.087-.347,2.432-.782c.174,0,10.338-.956,14.334-.695s13.379.695,13.465.695h.087l2.432.956Z" transform="translate(-733.287 -167.21)" fill="#2e3c4b"/>
      <path id="Path_1957" d="M748.487,204.451l-.087-.347,2-.434c.087,0,10.512-.869,13.2-.869,2.78,0,12.684.521,12.77.521l2.085.174v.347l-2.085-.174c-.087,0-9.99-.521-12.77-.521-2.693,0-13.031.869-13.2.869Z" transform="translate(-733.458 -168.228)" fill="#2e3c4b"/>
      <rect id="Rectangle_158" width="0.347" height="6.863" transform="translate(20.937 28.317)" fill="#2e3c4b"/>
      <rect id="Rectangle_159" width="0.347" height="6.863" transform="translate(25.28 28.057)" fill="#2e3c4b"/>
      <rect id="Rectangle_160" width="0.347" height="6.776" transform="translate(33.587 28.159) rotate(-3.327)" fill="#2e3c4b"/>
      <path id="Path_1958" d="M775.447,202.2H775.1c.087-1.477.347-6.429.434-6.6l.348.087-.174-.087.174.087C775.795,195.947,775.534,199.683,775.447,202.2Z" transform="translate(-736.962 -167.283)" fill="#2e3c4b"/>
      <path id="Path_1959" d="M777.278,211.782l-1.564-.434c-.521,0-9.73.174-11.815.087-2.172-.087-12.162,0-12.249,0l-1.651.174v-.347l1.651-.174c.087,0,10.164-.087,12.249,0S775.628,211,775.715,211h0l1.651.434Z" transform="translate(-733.668 -169.304)" fill="#2e3c4b"/>
      <path id="Path_1960" d="M776.441,216.954h-1.3c-.087,0-9.9-.695-11.207-.608s-11.207,0-11.641,0l-1.3.347-.087-.347,1.3-.347h11.641c1.3-.087,10.772.608,11.207.608h1.3Z" transform="translate(-733.786 -169.959)" fill="#2e3c4b"/>
      <path id="Path_1961" d="M777.044,213.1l-1.564-.261h0c-.261,0-9.99-.087-11.728,0s-11.9,0-11.989,0l-1.477.174-.087-.347,1.564-.174h11.989c1.737-.087,11.641,0,11.728,0l1.564.261Z" transform="translate(-733.694 -169.495)" fill="#2e3c4b"/>
      <rect id="Rectangle_161" width="0.347" height="4.257" transform="translate(21.176 41.968) rotate(-3.037)" fill="#2e3c4b"/>
      <rect id="Rectangle_162" width="0.347" height="4.257" transform="translate(25.343 41.983) rotate(-3.84)" fill="#2e3c4b"/>
      <path id="Path_1962" d="M765.948,217.185H765.6l.087-4.865v-4.257l.087-7.124.434-13.639h.348l-.434,13.639-.087,7.124v4.257Z" transform="translate(-735.715 -166.193)" fill="#2e3c4b"/>
      <rect id="Rectangle_163" width="0.347" height="4.344" transform="translate(33.794 41.956)" fill="#2e3c4b"/>
      <rect id="Rectangle_164" width="4.604" height="0.347" transform="matrix(0.073, -0.997, 0.997, 0.073, 37.781, 46.622)" fill="#2e3c4b"/>
      <path id="Path_1963" d="M761.082,181.567l-.782-11.12V164.8h1.477l.261,3.388v2.172h-.261v-2.172l-.261-3.127h-.782v5.3l.782,11.12Z" transform="translate(-735.02 -163.24)" fill="#2e3c4b"/>
      <path id="Path_1964" d="M769.047,182.2H768.7l.434-11.12.174-2.085h.348l-.174,2.085Z" transform="translate(-736.122 -163.791)" fill="#2e3c4b"/>
      <path id="Path_1965" d="M772.475,179.169c-.869-.261-11.728-.434-17.375-.521V178.3c.7,0,16.245.261,17.375.521Z" transform="translate(-734.337 -165.012)" fill="#2e3c4b"/>
      <path id="Path_1966" d="M772.462,173.582c-.608-.174-12.857-.347-17.462-.434V172.8c.7,0,16.854.261,17.549.434Z" transform="translate(-734.324 -164.29)" fill="#2e3c4b"/>
      <rect id="Rectangle_165" width="6.776" height="0.347" transform="translate(7.037 125.181)" fill="#2e3c4b"/>
      <rect id="Rectangle_166" width="7.558" height="0.347" transform="translate(15.623 125.073) rotate(-1.089)" fill="#2e3c4b"/>
      <rect id="Rectangle_167" width="0.347" height="15.55" transform="translate(25.217 125.427) rotate(-89.324)" fill="#2e3c4b"/>
      <rect id="Rectangle_168" width="7.645" height="0.347" transform="translate(42.207 125.149) rotate(-2.128)" fill="#2e3c4b"/>
      <rect id="Rectangle_169" width="6.255" height="0.347" transform="translate(51.516 124.921)" fill="#2e3c4b"/>
      <rect id="Rectangle_170" width="0.347" height="6.429" transform="translate(10.244 123.967) rotate(-0.172)" fill="#2e3c4b"/>
      <rect id="Rectangle_171" width="6.342" height="0.347" transform="translate(19.285 130.306) rotate(-89.823)" fill="#2e3c4b"/>
      <rect id="Rectangle_172" width="0.347" height="6.342" transform="translate(32.766 124.066) rotate(-4.024)" fill="#2e3c4b"/>
      <rect id="Rectangle_173" width="0.347" height="6.255" transform="translate(36.814 124.137) rotate(-3.094)" fill="#2e3c4b"/>
      <rect id="Rectangle_174" width="0.347" height="6.255" transform="translate(28.632 124.172) rotate(-5.682)" fill="#2e3c4b"/>
      <rect id="Rectangle_175" width="0.347" height="6.776" transform="matrix(0.995, -0.099, 0.099, 0.995, 45.886, 123.998)" fill="#2e3c4b"/>
      <rect id="Rectangle_176" width="0.347" height="6.602" transform="translate(54.564 123.793) rotate(-2.522)" fill="#2e3c4b"/>
      <path id="Path_1967" d="M753.206,217.3a6.258,6.258,0,0,1-2.085-.869c-.7-.695-4.952-23.543-5.821-28.147l.348-.087c2,10.859,5.212,27.278,5.734,27.973a8.866,8.866,0,0,0,1.911.782Z" transform="translate(-733.051 -166.311)" fill="#2e3c4b"/>
      <path id="Path_1968" d="M776.487,218.239l-.087-.347a9.518,9.518,0,0,0,2.259-.521c.348-.608,3.475-16.332,5.56-26.67l.348.087c-1.564,7.992-5.3,26.5-5.647,26.931A7.129,7.129,0,0,1,776.487,218.239Z" transform="translate(-737.133 -166.64)" fill="#2e3c4b"/>
      <path id="Path_1969" d="M791.587,196.119l-.087-.347,8.948-2.172.087.347Z" transform="translate(-739.115 -167.02)" fill="#2e3c4b"/>
      <path id="Path_1970" d="M800.645,201.329c-3.3-.174-7.037-.261-7.384,0l-.261-.261c.347-.347,5.473-.174,7.645-.087Z" transform="translate(-739.312 -167.973)" fill="#2e3c4b"/>
      <rect id="Rectangle_177" width="0.347" height="3.649" transform="translate(53.829 38.286) rotate(-60.949)" fill="#2e3c4b"/>
      <path id="Path_1971" d="M739.334,196.29a31.741,31.741,0,0,1-5.734-1.042l.087-.347a30.812,30.812,0,0,0,5.647,1.042Z" transform="translate(-731.515 -167.191)" fill="#2e3c4b"/>
      <path id="Path_1972" d="M731.2,201.324v-.347c.261,0,6.429-.347,7.905,0l-.087.347C737.542,200.977,731.2,201.324,731.2,201.324Z" transform="translate(-731.2 -167.968)" fill="#2e3c4b"/>
      <path id="Path_1973" d="M733.687,208.472l-.087-.347,5.734-1.824.087.347Z" transform="translate(-731.515 -168.687)" fill="#2e3c4b"/>
    </g>
    <g id="Group_452" data-name="Group 452" transform="translate(664.194 320.386)">
      <path id="Path_2630" data-name="Path 2630" d="M679.673,368.272v.608H674.2V357.5h.608v10.772Z" transform="translate(-674.2 -356.718)" fill="#2e3c4b"/>
      <path id="Path_2631" data-name="Path 2631" d="M689.958,361.661v7.732h-.521l-.087-2a3.418,3.418,0,0,1-3.214,2.085,3.774,3.774,0,0,1-3.736-4,3.839,3.839,0,0,1,3.649-4.083,3.463,3.463,0,0,1,3.214,2.085l.087-1.911h.608Zm-.608,3.822a3.184,3.184,0,1,0-6.342,0,3.325,3.325,0,0,0,3.214,3.475A3.207,3.207,0,0,0,689.35,365.483Z" transform="translate(-675.276 -357.23)" fill="#2e3c4b"/>
      <path id="Path_2632" data-name="Path 2632" d="M697.736,361.867h-2v7.211h-.608v-7.211H694v-.521h1.129V359h.608v2.346h2Z" transform="translate(-676.799 -356.915)" fill="#2e3c4b"/>
      <path id="Path_2633" data-name="Path 2633" d="M707.658,361.661v7.732h-.521l-.087-2a3.418,3.418,0,0,1-3.214,2.085,3.774,3.774,0,0,1-3.736-4,3.839,3.839,0,0,1,3.649-4.083,3.463,3.463,0,0,1,3.214,2.085l.087-1.911h.608Zm-.521,3.822a3.184,3.184,0,1,0-6.342,0,3.325,3.325,0,0,0,3.214,3.475A3.26,3.26,0,0,0,707.137,365.483Z" transform="translate(-677.6 -357.23)" fill="#2e3c4b"/>
      <path id="Path_2634" data-name="Path 2634" d="M715.514,361.487l-.087.608c-.174,0-.348-.087-.521-.087-1.216,0-2,.956-2,2.432v4.865H712.3v-7.732h.521l.087,1.564a2.32,2.32,0,0,1,2.172-1.737A3.761,3.761,0,0,1,715.514,361.487Z" transform="translate(-679.201 -357.23)" fill="#2e3c4b"/>
      <path id="Path_2635" data-name="Path 2635" d="M724.455,364.775v4.517h-.608v-4.431c0-2-1.043-2.954-2.432-2.954a2.629,2.629,0,0,0-2.606,2.693v4.691H718.2v-7.732h.521l.087,1.651A2.82,2.82,0,0,1,721.5,361.3C722.891,361.387,724.455,362.169,724.455,364.775Z" transform="translate(-679.976 -357.217)" fill="#2e3c4b"/>
      <path id="Path_2636" data-name="Path 2636" d="M728.7,358.608a.608.608,0,1,1,.608.608A.594.594,0,0,1,728.7,358.608Zm.261,2.606h.608v7.732h-.608Z" transform="translate(-681.354 -356.784)" fill="#2e3c4b"/>
      <path id="Path_2637" data-name="Path 2637" d="M740.458,361.661v7.732h-.521l-.087-2a3.418,3.418,0,0,1-3.214,2.085,3.774,3.774,0,0,1-3.736-4,3.839,3.839,0,0,1,3.649-4.083,3.463,3.463,0,0,1,3.214,2.085l.087-1.911h.608Zm-.521,3.822a3.184,3.184,0,1,0-6.342,0,3.325,3.325,0,0,0,3.214,3.475A3.26,3.26,0,0,0,739.937,365.483Z" transform="translate(-681.905 -357.23)" fill="#2e3c4b"/>
      <path id="Path_2638" data-name="Path 2638" d="M761.094,361.7l-2.954,7.732h-.521l-2.172-6.95-2.172,6.95h-.521L749.8,361.7h.7l2.519,6.95,2.172-6.95h.521l2.172,6.863L760.4,361.7Z" transform="translate(-684.124 -357.269)" fill="#2e3c4b"/>
      <path id="Path_2639" data-name="Path 2639" d="M778.158,361.647v7.211c0,2.78-1.129,4.17-3.562,4.17a5.258,5.258,0,0,1-1.3-.174l.174-.521a4.4,4.4,0,0,0,1.129.174c2.172,0,2.954-1.216,2.954-3.562v-1.651a3.418,3.418,0,0,1-3.214,2.085,3.774,3.774,0,0,1-3.736-4,3.839,3.839,0,0,1,3.649-4.083,3.409,3.409,0,0,1,3.214,2.172l.087-1.911h.608Zm-.521,3.822a3.184,3.184,0,1,0-6.342,0,3.325,3.325,0,0,0,3.214,3.475A3.207,3.207,0,0,0,777.637,365.47Z" transform="translate(-686.854 -357.217)" fill="#2e3c4b"/>
      <path id="Path_2640" data-name="Path 2640" d="M789.758,356.687v12.075h-.521l-.087-2a3.418,3.418,0,0,1-3.214,2.085,3.774,3.774,0,0,1-3.736-4,3.839,3.839,0,0,1,3.649-4.083,3.557,3.557,0,0,1,3.214,2.085V356.6h.695Zm-.521,8.166a3.184,3.184,0,1,0-6.342,0,3.325,3.325,0,0,0,3.214,3.475A3.26,3.26,0,0,0,789.237,364.853Z" transform="translate(-688.376 -356.6)" fill="#2e3c4b"/>
      <path id="Path_2641" data-name="Path 2641" d="M801.258,361.661v7.732h-.521l-.087-2a3.418,3.418,0,0,1-3.214,2.085,3.774,3.774,0,0,1-3.736-4,3.839,3.839,0,0,1,3.649-4.083,3.463,3.463,0,0,1,3.214,2.085l.087-1.911h.608Zm-.521,3.822a3.184,3.184,0,1,0-3.127,3.475C799.521,368.958,800.737,367.481,800.737,365.483Z" transform="translate(-689.886 -357.23)" fill="#2e3c4b"/>
      <path id="Path_2642" data-name="Path 2642" d="M812.055,364.224v4.517h-.608v-4.431c0-2-1.043-2.954-2.432-2.954a2.629,2.629,0,0,0-2.606,2.693v4.691H805.8v-7.732h.521l.087,1.651a2.82,2.82,0,0,1,2.693-1.911C810.491,360.836,812.055,361.617,812.055,364.224Zm-3.909-4.6h-.261l2.259-2.519.608.087-1.824,1.824C808.58,359.532,808.406,359.619,808.146,359.619Z" transform="translate(-691.474 -356.666)" fill="#2e3c4b"/>
      <path id="Path_2643" data-name="Path 2643" d="M816.121,367.829a2.462,2.462,0,0,0,2.172,1.129c1.216,0,2-.608,2-1.651,0-2.432-4.257-.956-4.344-3.822,0-1.3.956-2.085,2.432-2.085a3.2,3.2,0,0,1,2.259.869l-.348.434a2.265,2.265,0,0,0-1.911-.695c-1.129,0-1.824.608-1.824,1.564,0,2.346,4.344.869,4.344,3.822,0,1.39-1.129,2.172-2.693,2.172a3.253,3.253,0,0,1-2.606-1.216Z" transform="translate(-692.761 -357.23)" fill="#2e3c4b"/>
      <path id="Path_2644" data-name="Path 2644" d="M829.812,368.775l-4.6-4.17v4.17H824.6V356.7h.608v7.732l4.083-3.388h.869l-4.17,3.475,4.691,4.257Z" transform="translate(-693.942 -356.613)" fill="#2e3c4b"/>
      <path id="Path_2645" data-name="Path 2645" d="M833.8,358.608a.608.608,0,1,1,.608.608A.594.594,0,0,1,833.8,358.608Zm.261,2.606h.608v7.732h-.608Z" transform="translate(-695.15 -356.784)" fill="#2e3c4b"/>
      <path id="Path_2646" data-name="Path 2646" d="M849.286,364.8v4.6h-.608v-4.6c0-1.737-.695-2.78-2.172-2.78-1.3,0-2.172,1.042-2.259,2.867V369.4h-.608v-4.691c0-1.564-.782-2.693-2.172-2.693-1.216,0-2.085,1.042-2.259,2.78v4.6H838.6v-7.732h.521l.087,1.651a2.474,2.474,0,0,1,2.432-1.824,2.648,2.648,0,0,1,2.519,2,2.528,2.528,0,0,1,2.606-2C847.9,361.412,849.286,362.194,849.286,364.8Z" transform="translate(-695.78 -357.242)" fill="#2e3c4b"/>
    </g>
    <g id="Group_453" data-name="Group 453" transform="translate(679.05 341.236)">
      <path id="Path_2647" data-name="Path 2647" d="M697.468,384.627a3.194,3.194,0,0,1-3.475,3.127h-2.085v5.126H691.3V381.5h2.693C695.731,381.5,697.468,382.456,697.468,384.627Zm-.608,0c0-1.651-1.216-2.606-3.041-2.606h-1.911v5.126h1.824C695.557,387.147,696.86,386.278,696.86,384.627Z" transform="translate(-691.3 -380.718)" fill="#2e3c4b"/>
      <path id="Path_2648" data-name="Path 2648" d="M700.5,389.483a4,4,0,1,1,7.992,0,4,4,0,1,1-7.992,0Zm7.384,0a3.389,3.389,0,1,0-3.388,3.475A3.358,3.358,0,0,0,707.884,389.483Z" transform="translate(-692.508 -381.23)" fill="#2e3c4b"/>
      <path id="Path_2649" data-name="Path 2649" d="M716.014,385.487l-.087.608c-.174,0-.348-.087-.521-.087-1.216,0-2,.956-2,2.432v4.865H712.8v-7.732h.521l.087,1.564a2.32,2.32,0,0,1,2.172-1.737A3.761,3.761,0,0,0,716.014,385.487Z" transform="translate(-694.122 -381.23)" fill="#2e3c4b"/>
      <path id="Path_2650" data-name="Path 2650" d="M717.8,389.5a3.859,3.859,0,0,1,3.909-4,4.2,4.2,0,0,1,2.519.869l-.347.434a2.818,2.818,0,0,0-2.085-.782,3.288,3.288,0,0,0-3.3,3.475,3.193,3.193,0,0,0,3.3,3.475,2.818,2.818,0,0,0,2.085-.782l.347.434a4.2,4.2,0,0,1-2.519.869A3.81,3.81,0,0,1,717.8,389.5Z" transform="translate(-694.778 -381.243)" fill="#2e3c4b"/>
      <path id="Path_2651" data-name="Path 2651" d="M727.9,382.608a.608.608,0,1,1,.608.608A.594.594,0,0,1,727.9,382.608Zm.174,2.606h.608v7.732h-.608Z" transform="translate(-696.104 -380.784)" fill="#2e3c4b"/>
      <path id="Path_2652" data-name="Path 2652" d="M732.7,389.3h0c0,2.085,1.216,3.649,3.3,3.649a3.03,3.03,0,0,0,2.519-1.129l.434.348a4.248,4.248,0,0,1-3.041,1.216,3.857,3.857,0,0,1-3.909-4.17,3.749,3.749,0,0,1,3.736-3.909,3.522,3.522,0,0,1,3.562,3.562v.348h-6.6Zm.087-.434h5.994a2.857,2.857,0,0,0-2.954-2.867A2.987,2.987,0,0,0,732.782,388.862Z" transform="translate(-696.642 -381.217)" fill="#2e3c4b"/>
      <path id="Path_2653" data-name="Path 2653" d="M755.968,384.627a3.194,3.194,0,0,1-3.475,3.127h-2.085v5.126H749.8V381.5h2.693C754.231,381.5,755.968,382.456,755.968,384.627Zm-.608,0c0-1.651-1.216-2.606-3.041-2.606H750.5v5.126h1.824C754.057,387.147,755.36,386.278,755.36,384.627Z" transform="translate(-698.979 -380.718)" fill="#2e3c4b"/>
      <path id="Path_2654" data-name="Path 2654" d="M759,388.919a4,4,0,1,1,7.992,0,4,4,0,1,1-7.992,0Zm7.384,0A3.389,3.389,0,1,0,763,392.394,3.358,3.358,0,0,0,766.384,388.919Zm-4.17-5.3h-.261l2.259-2.519.608.087L763,383.011C762.649,383.532,762.475,383.619,762.214,383.619Z" transform="translate(-700.187 -380.666)" fill="#2e3c4b"/>
      <path id="Path_2655" data-name="Path 2655" d="M772.88,385.812l-1.129.869v5.994h-.608v-5.56l-1.042.869v-.521l1.042-.869V380.6h.608v5.473l1.129-.869Z" transform="translate(-701.644 -380.6)" fill="#2e3c4b"/>
      <path id="Path_2656" data-name="Path 2656" d="M781.655,388.775v4.517h-.608v-4.431c0-2-1.042-2.954-2.432-2.954a2.629,2.629,0,0,0-2.606,2.693v4.691H775.4v-7.732h.521l.087,1.651A2.82,2.82,0,0,1,778.7,385.3C780.091,385.387,781.655,386.169,781.655,388.775Z" transform="translate(-702.339 -381.217)" fill="#2e3c4b"/>
      <path id="Path_2657" data-name="Path 2657" d="M785.4,389.483a4.005,4.005,0,0,1,4-4.083,4.04,4.04,0,1,1-4,4.083Zm7.384,0a3.389,3.389,0,1,0-3.388,3.475A3.358,3.358,0,0,0,792.784,389.483Z" transform="translate(-703.652 -381.23)" fill="#2e3c4b"/>
      <path id="Path_2658" data-name="Path 2658" d="M797.1,389.5a3.859,3.859,0,0,1,3.909-4,4.2,4.2,0,0,1,2.519.869l-.347.434a2.818,2.818,0,0,0-2.085-.782,3.288,3.288,0,0,0-3.3,3.475,3.193,3.193,0,0,0,3.3,3.475,2.818,2.818,0,0,0,2.085-.782l.347.434a4.2,4.2,0,0,1-2.519.869A3.81,3.81,0,0,1,797.1,389.5Z" transform="translate(-705.188 -381.243)" fill="#2e3c4b"/>
      <path id="Path_2659" data-name="Path 2659" d="M813.355,388.775v4.517h-.608v-4.431c0-2-1.042-2.954-2.432-2.954a2.629,2.629,0,0,0-2.606,2.693v4.691H807.1v-7.732h.521l.087,1.651A2.82,2.82,0,0,1,810.4,385.3C811.791,385.387,813.355,386.169,813.355,388.775Z" transform="translate(-706.5 -381.217)" fill="#2e3c4b"/>
      <path id="Path_2660" data-name="Path 2660" d="M823.8,385.7l-5.039,11.467h-.695l1.737-3.909-3.3-7.471h.695l2.867,6.863,2.954-6.863h.782Z" transform="translate(-707.734 -381.269)" fill="#2e3c4b"/>
      <path id="Path_2661" data-name="Path 2661" d="M838.086,388.8v4.6h-.608v-4.6c0-1.737-.695-2.78-2.172-2.78-1.3,0-2.172,1.042-2.259,2.867V393.4h-.608v-4.691c0-1.564-.782-2.693-2.172-2.693-1.216,0-2.085,1.042-2.259,2.78v4.6H827.4v-7.732h.521l.087,1.651a2.475,2.475,0,0,1,2.432-1.824,2.648,2.648,0,0,1,2.519,2,2.528,2.528,0,0,1,2.606-2C836.7,385.412,838.086,386.194,838.086,388.8Z" transform="translate(-709.165 -381.242)" fill="#2e3c4b"/>
    </g>
    <g id="Group_454" data-name="Group 454" transform="translate(637.958 362.085)">
      <path id="Path_2662" data-name="Path 2662" d="M644,420.595v-.521c1.477.174,2-.521,2-1.824v-9.035h.608v9.035C646.606,420.334,645.3,420.769,644,420.595Zm1.737-13.987a.608.608,0,1,1,.608.608A.594.594,0,0,1,645.737,406.608Z" transform="translate(-644 -404.784)" fill="#2e3c4b"/>
      <path id="Path_2663" data-name="Path 2663" d="M657.758,409.661v7.732h-.521l-.087-2a3.418,3.418,0,0,1-3.214,2.085,3.774,3.774,0,0,1-3.736-4,3.839,3.839,0,0,1,3.649-4.083,3.463,3.463,0,0,1,3.214,2.085l.087-1.911h.608Zm-.608,3.822a3.184,3.184,0,1,0-6.342,0,3.325,3.325,0,0,0,3.214,3.475A3.207,3.207,0,0,0,657.15,413.483Z" transform="translate(-644.814 -405.23)" fill="#2e3c4b"/>
      <path id="Path_2664" data-name="Path 2664" d="M667.512,416.775l-4.6-4.17v4.17H662.3V404.7h.608v7.732l4.083-3.388h.869l-4.17,3.475,4.691,4.257Z" transform="translate(-646.402 -404.613)" fill="#2e3c4b"/>
      <path id="Path_2665" data-name="Path 2665" d="M670.9,413.483a4,4,0,1,1,7.992,0,4,4,0,1,1-7.992,0Zm7.471,0a3.389,3.389,0,1,0-3.388,3.475A3.358,3.358,0,0,0,678.371,413.483Z" transform="translate(-647.531 -405.23)" fill="#2e3c4b"/>
      <path id="Path_2666" data-name="Path 2666" d="M687.4,420.595v-.521c1.477.174,2-.521,2-1.824v-9.035h.608v9.035C690.006,420.334,688.79,420.769,687.4,420.595Zm1.737-13.987a.608.608,0,1,1,.608.608A.594.594,0,0,1,689.137,406.608Z" transform="translate(-649.697 -404.784)" fill="#2e3c4b"/>
      <path id="Path_2667" data-name="Path 2667" d="M694.295,413.3h0c0,2.085,1.216,3.649,3.3,3.649a3.029,3.029,0,0,0,2.519-1.129l.434.348a4.248,4.248,0,0,1-3.041,1.216,3.857,3.857,0,0,1-3.909-4.17,3.749,3.749,0,0,1,3.736-3.909,3.522,3.522,0,0,1,3.562,3.562v.347h-6.6Zm0-.434h5.994a2.857,2.857,0,0,0-2.954-2.867A3.044,3.044,0,0,0,694.295,412.862Z" transform="translate(-650.511 -405.217)" fill="#2e3c4b"/>
      <path id="Path_2668" data-name="Path 2668" d="M711.958,404.687v12.075h-.521l-.087-2a3.418,3.418,0,0,1-3.214,2.085,3.774,3.774,0,0,1-3.736-4,3.839,3.839,0,0,1,3.649-4.083,3.556,3.556,0,0,1,3.214,2.085V404.6h.695Zm-.521,8.166a3.184,3.184,0,1,0-6.342,0,3.325,3.325,0,0,0,3.214,3.475A3.207,3.207,0,0,0,711.437,412.853Z" transform="translate(-651.928 -404.6)" fill="#2e3c4b"/>
      <path id="Path_2669" data-name="Path 2669" d="M722.7,409.7l-5.039,11.467h-.7l1.737-3.909-3.3-7.471h.7l2.867,6.863,2.954-6.863h.782Z" transform="translate(-653.372 -405.269)" fill="#2e3c4b"/>
      <path id="Path_2670" data-name="Path 2670" d="M732.355,412.775v4.517h-.608v-4.431c0-2-1.042-2.954-2.432-2.954a2.629,2.629,0,0,0-2.606,2.693v4.691H726.1v-7.732h.521l.087,1.651A2.82,2.82,0,0,1,729.4,409.3C730.791,409.387,732.355,410.169,732.355,412.775Z" transform="translate(-654.777 -405.217)" fill="#2e3c4b"/>
      <path id="Path_2671" data-name="Path 2671" d="M743.658,409.661v7.732h-.521l-.087-2a3.418,3.418,0,0,1-3.214,2.085,3.774,3.774,0,0,1-3.736-4,3.839,3.839,0,0,1,3.649-4.083,3.463,3.463,0,0,1,3.214,2.085l.087-1.911h.608Zm-.521,3.822a3.184,3.184,0,1,0-6.342,0,3.325,3.325,0,0,0,3.214,3.475A3.26,3.26,0,0,0,743.137,413.483Z" transform="translate(-656.089 -405.23)" fill="#2e3c4b"/>
      <path id="Path_2672" data-name="Path 2672" d="M761.558,413.483a3.709,3.709,0,0,1-3.649,4,3.557,3.557,0,0,1-3.214-2.085v5.734H754V409.661h.521l.087,1.911a3.5,3.5,0,0,1,3.214-2.172A3.8,3.8,0,0,1,761.558,413.483Zm-.695,0a3.184,3.184,0,1,0-3.127,3.475A3.207,3.207,0,0,0,760.863,413.483Z" transform="translate(-658.439 -405.23)" fill="#2e3c4b"/>
      <path id="Path_2673" data-name="Path 2673" d="M765.1,413.483a4,4,0,1,1,7.992,0,4,4,0,1,1-7.992,0Zm7.384,0a3.389,3.389,0,1,0-3.388,3.475A3.358,3.358,0,0,0,772.484,413.483Z" transform="translate(-659.896 -405.23)" fill="#2e3c4b"/>
      <path id="Path_2674" data-name="Path 2674" d="M777.021,415.829a2.462,2.462,0,0,0,2.172,1.129c1.216,0,2-.608,2-1.651,0-2.432-4.257-.956-4.344-3.822,0-1.3.956-2.085,2.432-2.085a3.2,3.2,0,0,1,2.259.869l-.347.434a2.266,2.266,0,0,0-1.911-.695c-1.129,0-1.824.608-1.824,1.564,0,2.346,4.344.869,4.344,3.822,0,1.39-1.129,2.172-2.693,2.172a3.254,3.254,0,0,1-2.606-1.216Z" transform="translate(-661.392 -405.23)" fill="#2e3c4b"/>
      <path id="Path_2675" data-name="Path 2675" d="M785.6,406.608a.608.608,0,1,1,.608.608A.594.594,0,0,1,785.6,406.608Zm.261,2.606h.608v7.732h-.608Z" transform="translate(-662.587 -404.784)" fill="#2e3c4b"/>
      <path id="Path_2676" data-name="Path 2676" d="M797.358,409.661v7.732h-.521l-.087-2a3.418,3.418,0,0,1-3.214,2.085,3.774,3.774,0,0,1-3.736-4,3.839,3.839,0,0,1,3.649-4.083,3.463,3.463,0,0,1,3.214,2.085l.087-1.911h.608Zm-.608,3.822a3.184,3.184,0,1,0-3.127,3.475C795.534,416.958,796.75,415.481,796.75,413.483Z" transform="translate(-663.138 -405.23)" fill="#2e3c4b"/>
      <path id="Path_2677" data-name="Path 2677" d="M808.858,404.687v12.075h-.521l-.087-2a3.418,3.418,0,0,1-3.214,2.085,3.774,3.774,0,0,1-3.736-4,3.839,3.839,0,0,1,3.649-4.083,3.556,3.556,0,0,1,3.214,2.085V404.6h.695Zm-.521,8.166a3.184,3.184,0,1,0-6.342,0,3.325,3.325,0,0,0,3.214,3.475A3.207,3.207,0,0,0,808.337,412.853Z" transform="translate(-664.648 -404.6)" fill="#2e3c4b"/>
      <path id="Path_2678" data-name="Path 2678" d="M820.458,409.661v7.732h-.521l-.087-2a3.418,3.418,0,0,1-3.214,2.085,3.774,3.774,0,0,1-3.736-4,3.839,3.839,0,0,1,3.649-4.083,3.463,3.463,0,0,1,3.214,2.085l.087-1.911h.608Zm-.521,3.822a3.184,3.184,0,1,0-3.127,3.475C818.721,416.958,819.937,415.481,819.937,413.483Z" transform="translate(-666.17 -405.23)" fill="#2e3c4b"/>
    </g>
    <g id="Group_455" data-name="Group 455" transform="translate(799.283 362.172)">
      <path id="Path_2679" data-name="Path 2679" d="M842.644,409.2l-3.041,8.166h-1.737l-1.651-5.647-1.737,5.647h-1.737L829.7,409.2h2.259l1.737,5.473,1.651-5.473h1.737l1.651,5.473,1.737-5.473Z" transform="translate(-829.7 -405.291)" fill="#2e3c4b"/>
      <path id="Path_2680" data-name="Path 2680" d="M846.6,406.016a1.242,1.242,0,0,1,1.216-1.216,1.188,1.188,0,0,1,1.216,1.216,1.216,1.216,0,0,1-2.432,0Zm.261,2.606h2.085v8.166h-2.085Z" transform="translate(-831.918 -404.713)" fill="#2e3c4b"/>
      <path id="Path_2681" data-name="Path 2681" d="M860.145,412.213v5.039H858.06v-4.517c0-1.216-.521-2-1.651-2a1.807,1.807,0,0,0-1.824,1.824v4.778H852.5v-8.166h1.824l.261.956A3.029,3.029,0,0,1,857.1,409C858.494,408.912,860.145,409.781,860.145,412.213Z" transform="translate(-832.693 -405.264)" fill="#2e3c4b"/>
      <path id="Path_2682" data-name="Path 2682" d="M872.127,404.7v12.075h-1.737l-.261-1.042a3.584,3.584,0,0,1-2.693,1.216c-2.085,0-3.736-1.564-3.736-4.257s1.651-4.257,3.736-4.257a3.591,3.591,0,0,1,2.606,1.043V404.7Zm-1.911,7.992a2.234,2.234,0,1,0-2.259,2.519A2.36,2.36,0,0,0,870.216,412.692Z" transform="translate(-834.163 -404.7)" fill="#2e3c4b"/>
      <path id="Path_2683" data-name="Path 2683" d="M884.24,413.765h-6.168a2.245,2.245,0,0,0,2.346,2.172,2.617,2.617,0,0,0,2-.782l1.39,1.129a4.06,4.06,0,0,1-2.085,1.129l-.174.087c-1.911.956-1.564,2.606.261,1.911l.348.956c-1.129.695-2.606.434-3.041-.521a1.954,1.954,0,0,1,.869-2.346,4.165,4.165,0,0,1-4.083-4.257,4.229,4.229,0,0,1,4.257-4.344,3.924,3.924,0,0,1,4.083,4.257Zm-6.081-1.39h4.083a1.928,1.928,0,0,0-2-1.824A1.953,1.953,0,0,0,878.159,412.375Z" transform="translate(-835.764 -405.251)" fill="#2e3c4b"/>
    </g>
    <path id="Path_1974" d="M764.523,265.432a2.975,2.975,0,0,1-1.911-.434c-.956-.956-1.737-12.423-.869-13.292.695-.695,5.386-.956,6.342,0,.869.869,1.737,11.467,1.043,13.031a.324.324,0,0,1-.348.261c-.174,0-.7.087-1.129.087A12.79,12.79,0,0,1,764.523,265.432Zm.695-13.9c-1.39,0-2.867.174-3.214.521-.7.695,0,11.989.869,12.77.608.608,3.3.261,4.778.087a7.1,7.1,0,0,1,1.216-.087,4.778,4.778,0,0,0,.174-1.911c.087-3.822-.608-10.251-1.216-10.772a3.131,3.131,0,0,0-2.606-.608Z" transform="translate(-21.448 -22.364)" fill="#2e3c4b"/>
    <path id="Path_1975" d="M765.406,252.047l-.869-18.678-1.477,1.477-.261-.261,1.911-2.085.087.087h0v.087l1.564,1.737-.261.261-1.3-1.477.869,18.852Z" transform="translate(-21.636 -19.924)" fill="#2e3c4b"/>
    <path id="Path_1976" d="M765.651,284.347l-.087-.087h0v-.087L764,282.435l.261-.261,1.3,1.477L764.7,264.8h.348l.869,18.678L767.388,282l.261.261Z" transform="translate(-21.793 -24.164)" fill="#2e3c4b"/>
  </g>
</svg>
