<svg xmlns="http://www.w3.org/2000/svg" width="300.761" height="343.272" viewBox="0 0 300.761 343.272">
  <g id="CIEKAWOSTKA_czolp" data-name="CIEKAWOSTKA czolp" transform="translate(-1072.137 -81.504)">
    <path id="Path_1283" data-name="Path 1283" d="M1084.371,97.533c18.487-24.532,261.127-17.963,274.9,0s19.939,286.1,4.86,308.177S1098.345,431,1084.367,413.723,1065.884,122.065,1084.371,97.533Z" fill="#e5a34c"/>
    <g id="CIEKAWOSTKA-2" transform="translate(1167.963 103.808)" style="isolation: isolate">
      <path id="Path_2193" data-name="Path 2193" d="M6.732.072A5.86,5.86,0,0,1,4.41-.4,5.911,5.911,0,0,1,2.484-1.71a6.052,6.052,0,0,1-1.3-1.926A5.905,5.905,0,0,1,.72-5.976a6.005,6.005,0,0,1,.459-2.34,5.994,5.994,0,0,1,1.3-1.944,6.052,6.052,0,0,1,1.926-1.3,5.86,5.86,0,0,1,2.322-.468,5.857,5.857,0,0,1,2.556.576,6.459,6.459,0,0,1,2.16,1.71L10.224-8.694a4.5,4.5,0,0,0-3.492-1.692,4.242,4.242,0,0,0-1.683.342,4.452,4.452,0,0,0-1.413.954,4.452,4.452,0,0,0-.954,1.413,4.286,4.286,0,0,0-.342,1.7,4.286,4.286,0,0,0,.342,1.7,4.452,4.452,0,0,0,.954,1.413,4.452,4.452,0,0,0,1.413.954,4.242,4.242,0,0,0,1.683.342,4.5,4.5,0,0,0,3.492-1.692l1.224,1.044A6.671,6.671,0,0,1,9.279-.5,5.8,5.8,0,0,1,6.732.072ZM13.518,0V-11.97H15.03V0ZM17.28,0V-11.97h6.552v1.62H18.846v3.636h3.348v1.476H18.846V-1.62h4.986V0ZM31.536,0l-3.87-4.41V0H26.082V-11.952h1.584V-7.4l3.8-4.554h2.088L28.494-5.886,33.678,0ZM43.074,0,41.6-4.212H37.854L36.378,0h-1.71l4.158-11.952h1.8L44.784,0ZM39.726-9.63,38.358-5.724h2.718ZM55.44,0h-1.6L51.984-5.094,50.2,0h-1.62L44.244-11.988H45.99L49.374-2.61,51.1-7.524l-1.62-4.464h1.746L52.812-7.6,54.63-2.61l3.276-9.378h1.746ZM66.546.09a5.894,5.894,0,0,1-2.313-.459,5.819,5.819,0,0,1-1.917-1.305,6.025,6.025,0,0,1-1.3-1.935,5.925,5.925,0,0,1-.468-2.331,5.894,5.894,0,0,1,.459-2.313,6.02,6.02,0,0,1,1.305-1.935,6.08,6.08,0,0,1,1.917-1.3,5.8,5.8,0,0,1,2.313-.468,5.86,5.86,0,0,1,2.322.468,6.052,6.052,0,0,1,1.926,1.3,6.052,6.052,0,0,1,1.3,1.926,5.86,5.86,0,0,1,.468,2.322,5.925,5.925,0,0,1-.468,2.331,6.025,6.025,0,0,1-1.3,1.935,6.052,6.052,0,0,1-1.926,1.3A5.86,5.86,0,0,1,66.546.09Zm0-10.4a4.341,4.341,0,0,0-1.683.333,4.33,4.33,0,0,0-1.413.945,4.33,4.33,0,0,0-.945,1.413,4.341,4.341,0,0,0-.333,1.683,4.417,4.417,0,0,0,.342,1.719,4.337,4.337,0,0,0,.936,1.413,4.33,4.33,0,0,0,1.413.945,4.341,4.341,0,0,0,1.683.333,4.341,4.341,0,0,0,1.683-.333,4.33,4.33,0,0,0,1.413-.945,4.337,4.337,0,0,0,.936-1.413A4.417,4.417,0,0,0,70.92-5.94a4.341,4.341,0,0,0-.333-1.683,4.33,4.33,0,0,0-.945-1.413,4.33,4.33,0,0,0-1.413-.945A4.341,4.341,0,0,0,66.546-10.314ZM80.658-8.28a2.775,2.775,0,0,0-.378-1.152,1.968,1.968,0,0,0-.8-.711,2.853,2.853,0,0,0-1.215-.225,2.276,2.276,0,0,0-1.71.522,1.828,1.828,0,0,0-.468,1.35,1.984,1.984,0,0,0,.144.819,1.235,1.235,0,0,0,.432.513,3.012,3.012,0,0,0,1.422.4,9.938,9.938,0,0,1,1.7.279A4.573,4.573,0,0,1,81-5.976a2.842,2.842,0,0,1,1.314,2.592,3.175,3.175,0,0,1-.27,1.3,3.594,3.594,0,0,1-.756,1.1,3.624,3.624,0,0,1-1.359.828A4.962,4.962,0,0,1,78.3.108a4.228,4.228,0,0,1-3.042-1.08,4.272,4.272,0,0,1-1.17-2.592l.036-.018h1.584a2.355,2.355,0,0,0,.648,1.422,2.677,2.677,0,0,0,1.89.648,2.842,2.842,0,0,0,1.8-.522,1.638,1.638,0,0,0,.666-1.35,1.966,1.966,0,0,0-.1-.657,1.111,1.111,0,0,0-.369-.5,4.559,4.559,0,0,0-2.286-.594,4.132,4.132,0,0,1-2.592-.99A3.137,3.137,0,0,1,74.484-8.5a3.383,3.383,0,0,1,.954-2.5,3.8,3.8,0,0,1,2.808-1.008,3.766,3.766,0,0,1,2.916,1.134A4.511,4.511,0,0,1,82.278-8.28Zm7.128-2.16V0H86.2V-10.44H83.3v-1.53h7.38v1.53ZM98.208,0l-3.87-4.41V0H92.754V-11.952h1.584V-7.4l3.8-4.554h2.088L95.166-5.886,100.35,0Zm11.538,0L108.27-4.212h-3.744L103.05,0h-1.71L105.5-11.952h1.8L111.456,0ZM106.4-9.63,105.03-5.724h2.718Z" transform="translate(0 14)" fill="#2e3c4b"/>
    </g>
    <rect id="Rectangle_45" data-name="Rectangle 45" width="10.336" height="2.068" transform="translate(1219.039 124.479)" fill="#ae4426"/>
    <g id="Group_181" data-name="Group 181" transform="translate(1149.917 142.055)">
      <path id="Path_1327" data-name="Path 1327" d="M1176.364,193.648c4.567-12.491,15.3-38.241,36.15-38.7s78.092-2.484,92.636,14.946,17.115,31.022,14.97,58.51-9.522,43.449-18.216,58.073-45.705,25.894-78.969,24.6-57.493-21.017-56.848-48.009,12.279-30.6,10.273-42.326S1171.8,206.139,1176.364,193.648Z" transform="translate(-1166.075 -154.634)" fill="#f2edeb"/>
    </g>
    <path id="Path_2192" data-name="Path 2192" d="M-103.482-.522v-9.927h-.588V0h5.012V-.522ZM-91.1-7.1l-.1,1.763A3.186,3.186,0,0,0-94.167-7.3a3.469,3.469,0,0,0-3.4,3.722A3.458,3.458,0,0,0-94.151.131,3.163,3.163,0,0,0-91.2-1.829L-91.1,0h.473V-7.1ZM-94.053-.359a3.006,3.006,0,0,1-2.922-3.216,3.018,3.018,0,0,1,2.906-3.233,3.013,3.013,0,0,1,2.939,3.233A3.006,3.006,0,0,1-94.053-.359Zm9.2-6.743H-86.7V-9.225h-.571V-7.1H-88.3v.473h1.029V0h.571V-6.629h1.845Zm7.943,0-.1,1.763A3.186,3.186,0,0,0-79.98-7.3a3.469,3.469,0,0,0-3.4,3.722A3.458,3.458,0,0,0-79.963.131a3.163,3.163,0,0,0,2.955-1.959L-76.91,0h.473V-7.1ZM-79.865-.359a3.006,3.006,0,0,1-2.922-3.216,3.018,3.018,0,0,1,2.906-3.233,3.013,3.013,0,0,1,2.939,3.233A3.006,3.006,0,0,1-79.865-.359ZM-71.139-7.3a2.165,2.165,0,0,0-2.008,1.616l-.082-1.42h-.49V0h.571V-4.473c.033-1.388.784-2.269,1.878-2.269a2.377,2.377,0,0,1,.506.065l.114-.571A2.061,2.061,0,0,0-71.139-7.3Zm5.331,0A2.587,2.587,0,0,0-68.29-5.551L-68.339-7.1h-.506V0h.571V-4.359a2.4,2.4,0,0,1,2.367-2.449c1.29,0,2.22.833,2.22,2.71V0h.555V-4.2C-63.131-6.645-64.567-7.3-65.808-7.3Zm5.837-1.633a.516.516,0,0,0,.522-.522.516.516,0,0,0-.522-.522.516.516,0,0,0-.522.522A.516.516,0,0,0-59.971-8.931ZM-60.265,0h.571V-7.1h-.571Zm9.608-7.1-.1,1.763A3.186,3.186,0,0,0-53.727-7.3a3.469,3.469,0,0,0-3.4,3.722A3.458,3.458,0,0,0-53.71.131a3.163,3.163,0,0,0,2.955-1.959l.1,1.829h.473V-7.1ZM-53.612-.359a3.006,3.006,0,0,1-2.922-3.216,3.018,3.018,0,0,1,2.906-3.233A3.013,3.013,0,0,1-50.69-3.576,3.006,3.006,0,0,1-53.612-.359ZM-37.678.18a5.551,5.551,0,0,0,3.02-.849l-.327-.457a4.734,4.734,0,0,1-2.694.767,4.7,4.7,0,0,1-4.686-4.882,4.7,4.7,0,0,1,4.686-4.865,4.617,4.617,0,0,1,2.694.784l.327-.473a5.542,5.542,0,0,0-3.02-.833,5.243,5.243,0,0,0-5.306,5.388A5.261,5.261,0,0,0-37.678.18Zm5.8-.686,4.7-6.155V-7.1H-32.38v.49h4.522L-32.624-.441V0h5.682V-.506Zm10.555.637a3.633,3.633,0,0,0,3.706-3.706A3.646,3.646,0,0,0-21.318-7.3a3.646,3.646,0,0,0-3.706,3.722A3.633,3.633,0,0,0-21.318.131Zm0-.49a3.1,3.1,0,0,1-3.1-3.216,3.1,3.1,0,0,1,3.1-3.216,3.1,3.1,0,0,1,3.1,3.216A3.1,3.1,0,0,1-21.318-.359Zm7.7-6.5-1.029.8V-11.1h-.571v5.486l-1,.767v.506l1-.767V0h.571V-5.551l1.029-.8Zm5.3-.441A3.2,3.2,0,0,0-11.31-5.306l-.049-1.8h-.506l.016,10.531h.555V-1.829A3.163,3.163,0,0,0-8.339.131a3.445,3.445,0,0,0,3.4-3.706A3.457,3.457,0,0,0-8.322-7.3ZM-8.437-.359a3.006,3.006,0,0,1-2.922-3.216A3.013,3.013,0,0,1-8.42-6.808,3.018,3.018,0,0,1-5.514-3.576,3.006,3.006,0,0,1-8.437-.359ZM-2.11-8.931a.516.516,0,0,0,.522-.522.516.516,0,0,0-.522-.522.516.516,0,0,0-.522.522A.516.516,0,0,0-2.11-8.931ZM-2.4,0h.571V-7.1H-2.4ZM4.167-7.3A2.587,2.587,0,0,0,1.686-5.551L1.637-7.1H1.131V0H1.7V-4.359A2.4,2.4,0,0,1,4.069-6.808c1.29,0,2.22.833,2.22,2.71V0h.555V-4.2C6.845-6.645,5.408-7.3,4.167-7.3ZM12.829.131a3.633,3.633,0,0,0,3.706-3.706A3.646,3.646,0,0,0,12.829-7.3,3.646,3.646,0,0,0,9.122-3.576,3.633,3.633,0,0,0,12.829.131Zm0-.49a3.1,3.1,0,0,1-3.1-3.216,3.1,3.1,0,0,1,3.1-3.216,3.1,3.1,0,0,1,3.1,3.216A3.1,3.1,0,0,1,12.829-.359ZM27.049-7.3a3.2,3.2,0,0,0-2.988,1.992l-.049-1.8h-.506l.016,10.531h.555V-1.829A3.163,3.163,0,0,0,27.033.131a3.445,3.445,0,0,0,3.4-3.706A3.457,3.457,0,0,0,27.049-7.3ZM26.935-.359a3.006,3.006,0,0,1-2.922-3.216,3.013,3.013,0,0,1,2.939-3.233,3.018,3.018,0,0,1,2.906,3.233A3.006,3.006,0,0,1,26.935-.359Zm9.151.49a3.633,3.633,0,0,0,3.706-3.706A3.646,3.646,0,0,0,36.086-7.3,3.646,3.646,0,0,0,32.38-3.576,3.633,3.633,0,0,0,36.086.131Zm0-.49a3.1,3.1,0,0,1-3.1-3.216,3.1,3.1,0,0,1,3.1-3.216,3.1,3.1,0,0,1,3.1,3.216A3.1,3.1,0,0,1,36.086-.359Zm6.947-8.571a.516.516,0,0,0,.522-.522.516.516,0,0,0-.522-.522.516.516,0,0,0-.522.522A.516.516,0,0,0,43.033-8.931Zm.294,10.188V-7.1h-.571V1.241c0,1.224-.522,1.812-1.845,1.682V3.4C42.167,3.559,43.327,3.151,43.327,1.257ZM52.363-7.1l-.1,1.763A3.186,3.186,0,0,0,49.294-7.3a3.469,3.469,0,0,0-3.4,3.722A3.458,3.458,0,0,0,49.31.131a3.163,3.163,0,0,0,2.955-1.959L52.363,0h.473V-7.1ZM49.408-.359a3.006,3.006,0,0,1-2.922-3.216,3.018,3.018,0,0,1,2.906-3.233,3.013,3.013,0,0,1,2.939,3.233A3.006,3.006,0,0,1,49.408-.359ZM64.567-7.1,62.216-.767,60.225-7.1h-.473L57.743-.735,55.408-7.1h-.6L57.531,0h.457L59.98-6.433,61.988,0h.457l2.71-7.1Zm3.061-1.829a.516.516,0,0,0,.522-.522.516.516,0,0,0-.522-.522.516.516,0,0,0-.522.522A.516.516,0,0,0,67.629-8.931ZM67.335,0h.571V-7.1h-.571Zm5.2-6.857-1.029.8V-11.1h-.571v5.486l-1,.767v.506l1-.767V0h.571V-5.551l1.029-.8ZM80.363-7.1l-.1,1.763A3.186,3.186,0,0,0,77.294-7.3a3.469,3.469,0,0,0-3.4,3.722A3.458,3.458,0,0,0,77.31.131a3.163,3.163,0,0,0,2.955-1.959L80.363,0h.473V-7.1ZM77.408-.359a3.006,3.006,0,0,1-2.922-3.216,3.018,3.018,0,0,1,2.906-3.233,3.013,3.013,0,0,1,2.939,3.233A3.006,3.006,0,0,1,77.408-.359Zm10.237-.653A2.914,2.914,0,0,0,90.061.131c1.437,0,2.465-.751,2.465-2.008,0-2.694-3.951-1.355-3.967-3.51-.016-.865.637-1.4,1.649-1.4a2.32,2.32,0,0,1,1.747.669l.359-.376a2.959,2.959,0,0,0-2.106-.8,1.976,1.976,0,0,0-2.237,1.943c.033,2.629,3.967,1.29,3.967,3.51,0,.914-.718,1.486-1.878,1.486a2.326,2.326,0,0,1-1.976-1.012Zm7.714-7.918a.516.516,0,0,0,.522-.522.516.516,0,0,0-.522-.522.516.516,0,0,0-.522.522A.516.516,0,0,0,95.359-8.931ZM95.065,0h.571V-7.1h-.571Zm9.869-3.706V-4a3.22,3.22,0,0,0-3.265-3.3,3.471,3.471,0,0,0-3.461,3.624,3.563,3.563,0,0,0,3.624,3.8h.261c-.9.6-1.176,1.339-.914,1.878a1.207,1.207,0,0,0,1.731.31l-.114-.343c-1.306.62-1.894-.8-.294-1.78l.261-.163a3.572,3.572,0,0,0,1.845-1.061l-.424-.343a3,3,0,0,1-2.351,1.012,3.009,3.009,0,0,1-3.02-3.3v-.049Zm-3.265-3.086a2.669,2.669,0,0,1,2.71,2.645H98.845A2.835,2.835,0,0,1,101.669-6.792ZM-68.2,11.9l-2.351,6.335L-72.539,11.9h-.473l-2.008,6.367L-77.355,11.9h-.6l2.727,7.1h.457l1.992-6.433L-70.775,19h.457l2.71-7.1ZM-55.4,19l-4.294-3.9,3.837-3.2h-.767l-3.788,3.151V7.9h-.571V19h.571V15.163L-56.2,19Zm5.053.131a3.633,3.633,0,0,0,3.706-3.706A3.646,3.646,0,0,0-50.343,11.7a3.646,3.646,0,0,0-3.706,3.722A3.633,3.633,0,0,0-50.343,19.131Zm0-.49a3.1,3.1,0,0,1-3.1-3.216,3.1,3.1,0,0,1,3.1-3.216,3.1,3.1,0,0,1,3.1,3.216A3.1,3.1,0,0,1-50.343,18.641Zm13.51-6.939A2.321,2.321,0,0,0-39.2,13.58,2.361,2.361,0,0,0-41.535,11.7a2.288,2.288,0,0,0-2.2,1.714L-43.8,11.9h-.506V19h.571V14.722c.131-1.535.947-2.531,2.09-2.531,1.273,0,2.024,1.029,2.024,2.5V19h.571V14.853c.114-1.714.9-2.661,2.106-2.661,1.4,0,2.041,1.029,2.041,2.6V19h.555V14.788C-34.351,12.371-35.657,11.7-36.833,11.7Zm11.469,3.592V15a3.22,3.22,0,0,0-3.265-3.3,3.471,3.471,0,0,0-3.461,3.624,3.563,3.563,0,0,0,3.624,3.8,3.741,3.741,0,0,0,2.776-1.159l-.424-.343a3,3,0,0,1-2.351,1.012,3.009,3.009,0,0,1-3.02-3.3v-.049Zm-3.265-3.086a2.669,2.669,0,0,1,2.71,2.645h-5.535A2.835,2.835,0,0,1-28.629,12.208ZM-17.061,7.9v5.731A3.176,3.176,0,0,0-20.016,11.7a3.469,3.469,0,0,0-3.4,3.722A3.458,3.458,0,0,0-20,19.131a3.163,3.163,0,0,0,2.955-1.959L-16.963,19h.473V7.9ZM-19.9,18.641a3.006,3.006,0,0,1-2.922-3.216,3.018,3.018,0,0,1,2.906-3.233,3.013,3.013,0,0,1,2.939,3.233A3.006,3.006,0,0,1-19.9,18.641Zm6.62-8.571a.516.516,0,0,0,.522-.522.516.516,0,0,0-.522-.522.516.516,0,0,0-.522.522A.516.516,0,0,0-13.282,10.069ZM-13.576,19H-13V11.9h-.571Zm4.024-8.931a.516.516,0,0,0,.522-.522.516.516,0,0,0-.522-.522.516.516,0,0,0-.522.522A.516.516,0,0,0-9.551,10.069ZM-9.845,19h.571V11.9h-.571Zm9.078-.522L5.518,8.992V8.551H-1.257v.522H4.767L-1.5,18.559V19H5.8v-.522ZM13.69,11.9l-.1,1.763A3.186,3.186,0,0,0,10.62,11.7a3.469,3.469,0,0,0-3.4,3.722,3.458,3.458,0,0,0,3.412,3.706,3.163,3.163,0,0,0,2.955-1.959L13.69,19h.473V11.9Zm-2.955,6.743a3.006,3.006,0,0,1-2.922-3.216,3.018,3.018,0,0,1,2.906-3.233,3.013,3.013,0,0,1,2.939,3.233A3.006,3.006,0,0,1,10.735,18.641ZM22.465,19l-4.294-3.9,3.837-3.2h-.767l-3.788,3.151V7.9h-.571V19h.571V15.163L21.665,19Zm5.053.131a3.714,3.714,0,1,0-3.706-3.706A3.633,3.633,0,0,0,27.518,19.131Zm0-.49a3.1,3.1,0,0,1-3.1-3.216,3.1,3.1,0,1,1,6.2,0A3.1,3.1,0,0,1,27.518,18.641Zm9.233.49a3.651,3.651,0,0,0,2.286-.784l-.359-.408a2.814,2.814,0,0,1-1.927.7,2.978,2.978,0,0,1-3-3.233,2.973,2.973,0,0,1,3-3.216,2.814,2.814,0,0,1,1.927.7l.359-.408a3.651,3.651,0,0,0-2.286-.784,3.529,3.529,0,0,0-3.592,3.706A3.524,3.524,0,0,0,36.751,19.131ZM44.237,11.7a2.536,2.536,0,0,0-2.465,1.747V7.9H41.2V19h.571V14.918c.049-1.714,1.045-2.727,2.384-2.727,1.29,0,2.2.833,2.2,2.71V19h.571V14.8C46.931,12.355,45.478,11.7,44.237,11.7Zm11.42.2-.1,1.763A3.186,3.186,0,0,0,52.588,11.7a3.469,3.469,0,0,0-3.4,3.722A3.458,3.458,0,0,0,52.6,19.131a3.163,3.163,0,0,0,2.955-1.959l.1,1.829h.473V11.9ZM52.7,18.641a3.006,3.006,0,0,1-2.922-3.216,2.937,2.937,0,1,1,5.845,0A3.006,3.006,0,0,1,52.7,18.641ZM61.886,11.7A2.587,2.587,0,0,0,59.4,13.449L59.355,11.9h-.506V19h.571V14.641a2.4,2.4,0,0,1,2.367-2.449c1.29,0,2.22.833,2.22,2.71V19h.555V14.8C64.563,12.355,63.127,11.7,61.886,11.7Zm5.837-1.633a.522.522,0,1,0-.522-.522A.516.516,0,0,0,67.722,10.069ZM67.429,19H68V11.9h-.571Zm3.747,1.812a2.063,2.063,0,0,0,1.29-1.747c.065-.571-.2-1.045-.653-1.045a.51.51,0,0,0-.555.539.529.529,0,0,0,.767.441,1.765,1.765,0,0,1-.98,1.5ZM-72.171,30.9l-2.351,6.335L-76.514,30.9h-.473L-79,37.265-81.331,30.9h-.6l2.727,7.1h.457l1.992-6.433L-74.751,38h.457l2.71-7.1Zm12.8,7.1-4.294-3.9,3.837-3.2H-60.6l-3.788,3.151V26.9h-.571V38h.571V34.163L-60.171,38Zm4.792-7.1h-1.845V28.775H-57V30.9h-1.029v.473H-57V38h.571V31.371h1.845Zm5.233-1.845,1.649-1.714-.571-.114-2.106,2.351h.229C-49.935,29.575-49.771,29.51-49.347,29.053Zm-.049,9.078a3.633,3.633,0,0,0,3.706-3.706A3.646,3.646,0,0,0-49.4,30.7,3.646,3.646,0,0,0-53.1,34.424,3.633,3.633,0,0,0-49.4,38.131Zm0-.49a3.1,3.1,0,0,1-3.1-3.216,3.1,3.1,0,0,1,3.1-3.216,3.1,3.1,0,0,1,3.1,3.216A3.1,3.1,0,0,1-49.4,37.641Zm8.612-6.939a2.165,2.165,0,0,0-2.008,1.616l-.082-1.42h-.49V38h.571V33.527c.033-1.388.784-2.269,1.878-2.269a2.377,2.377,0,0,1,.506.065l.114-.571A2.061,2.061,0,0,0-40.784,30.7Zm8.3,3.592V34a3.22,3.22,0,0,0-3.265-3.3,3.471,3.471,0,0,0-3.461,3.624,3.563,3.563,0,0,0,3.624,3.8,3.741,3.741,0,0,0,2.776-1.159l-.424-.343a3,3,0,0,1-2.351,1.012,3.009,3.009,0,0,1-3.02-3.3v-.049Zm-3.265-3.086a2.669,2.669,0,0,1,2.71,2.645h-5.535A2.835,2.835,0,0,1-35.747,31.208Zm6.522-2.139a.516.516,0,0,0,.522-.522.516.516,0,0,0-.522-.522.516.516,0,0,0-.522.522A.516.516,0,0,0-29.224,29.069Zm.294,10.188V30.9H-29.5v8.343c0,1.224-.522,1.812-1.845,1.682V41.4C-30.09,41.559-28.931,41.151-28.931,39.257ZM-16.18,38.18a5.551,5.551,0,0,0,3.02-.849l-.327-.457a4.734,4.734,0,0,1-2.694.767,4.7,4.7,0,0,1-4.686-4.882,4.7,4.7,0,0,1,4.686-4.865,4.617,4.617,0,0,1,2.694.784l.327-.473a5.542,5.542,0,0,0-3.02-.833,5.243,5.243,0,0,0-5.306,5.388A5.261,5.261,0,0,0-16.18,38.18Zm11.42-3.886V34a3.22,3.22,0,0,0-3.265-3.3,3.471,3.471,0,0,0-3.461,3.624,3.563,3.563,0,0,0,3.624,3.8,3.741,3.741,0,0,0,2.776-1.159l-.424-.343a3,3,0,0,1-2.351,1.012,3.009,3.009,0,0,1-3.02-3.3v-.049Zm-3.265-3.086a2.669,2.669,0,0,1,2.71,2.645h-5.535A2.835,2.835,0,0,1-8.024,31.208Zm6,6.286,4.7-6.155V30.9H-2.531v.49H1.992l-4.767,6.171V38H2.906v-.506ZM11.29,30.9l-.1,1.763A3.186,3.186,0,0,0,8.22,30.7a3.469,3.469,0,0,0-3.4,3.722,3.458,3.458,0,0,0,3.412,3.706,3.163,3.163,0,0,0,2.955-1.959L11.29,38h.473V30.9ZM8.335,37.641a3.006,3.006,0,0,1-2.922-3.216,3.018,3.018,0,0,1,2.906-3.233,3.013,3.013,0,0,1,2.939,3.233A3.006,3.006,0,0,1,8.335,37.641ZM17.061,30.7a2.165,2.165,0,0,0-2.008,1.616l-.082-1.42h-.49V38h.571V33.527c.033-1.388.784-2.269,1.878-2.269a2.377,2.377,0,0,1,.506.065l.114-.571A2.061,2.061,0,0,0,17.061,30.7Zm7.812.2-2.743,6.286L19.453,30.9h-.62l3.02,6.922-1.584,3.608h.6l4.6-10.531Zm10.139-3.347H32.5V38h.588V33.265h1.927a2.874,2.874,0,1,0,0-5.714ZM34.8,32.776H33.086V28.041H34.8c1.633,0,2.776.833,2.776,2.367S36.433,32.776,34.8,32.776ZM46.3,30.9l-.1,1.763A3.186,3.186,0,0,0,43.233,30.7a3.469,3.469,0,0,0-3.4,3.722,3.458,3.458,0,0,0,3.412,3.706A3.163,3.163,0,0,0,46.2,36.171L46.3,38h.473V30.9Zm-2.955,6.743a3.006,3.006,0,0,1-2.922-3.216,2.937,2.937,0,1,1,5.845,0A3.006,3.006,0,0,1,43.347,37.641Zm6.539-.147,4.7-6.155V30.9H49.38v.49H53.9l-4.767,6.171V38h5.682v-.506Zm10.049.7c1.29,0,2.841-.669,2.841-3.069V30.9H62.22v4.229c0,1.584-.816,2.58-2.286,2.58-1.486,0-2.3-1-2.3-2.58V30.9h-.571v4.229C57.061,37.527,58.612,38.2,59.935,38.2Zm8.09-7.494a2.165,2.165,0,0,0-2.008,1.616l-.082-1.42h-.49V38h.571V33.527c.033-1.388.784-2.269,1.878-2.269a2.377,2.377,0,0,1,.506.065l.114-.571A2.061,2.061,0,0,0,68.024,30.7Zm8.041.2-.1,1.763A3.186,3.186,0,0,0,73,30.7a3.469,3.469,0,0,0-3.4,3.722,3.458,3.458,0,0,0,3.412,3.706,3.163,3.163,0,0,0,2.955-1.959l.1,1.829h.473V30.9ZM73.11,37.641a3.006,3.006,0,0,1-2.922-3.216,2.937,2.937,0,1,1,5.845,0A3.006,3.006,0,0,1,73.11,37.641ZM-42.408,49.506l-.229.963a3.1,3.1,0,0,0-2.514-1.143c-1.943,0-3.478,1.437-3.478,3.886s1.535,3.886,3.478,3.886a3.147,3.147,0,0,0,2.4-1c-.016,1.747-.473,2.727-2.008,2.727a3.1,3.1,0,0,1-1.257-.261l-.408,1.584a5.8,5.8,0,0,0,1.78.278c2.5,0,3.837-1.388,3.837-4.2V49.506Zm-2.237,5.976a2.059,2.059,0,0,1-2.008-2.269,2.074,2.074,0,0,1,2.008-2.286,2.094,2.094,0,0,1,2.073,2.286A2.08,2.08,0,0,1-44.645,55.482Zm10.114-6.171a2.493,2.493,0,0,0-1.992,1.241l-.229-1.045h-1.7V57h1.943V53.294c0-1.322.669-2.122,1.812-2.122a2.257,2.257,0,0,1,.7.114l.294-1.861A2.838,2.838,0,0,0-34.531,49.31Zm7.829.2-.245.963a3.069,3.069,0,0,0-2.514-1.159c-1.943,0-3.478,1.469-3.478,3.935s1.535,3.918,3.478,3.918a3.083,3.083,0,0,0,2.5-1.127l.245.963h1.6V49.506Zm-2.253,6.025a2.065,2.065,0,0,1-2.008-2.286,2.079,2.079,0,0,1,2.008-2.3,2.1,2.1,0,0,1,2.073,2.3A2.085,2.085,0,0,1-28.955,55.531ZM-18.343,57H-16.4V45.9h-1.943Zm10.212-7.494-.245.963A3.069,3.069,0,0,0-10.89,49.31c-1.943,0-3.478,1.469-3.478,3.935s1.535,3.918,3.478,3.918a3.083,3.083,0,0,0,2.5-1.127l.245.963h1.6V49.506Zm-2.253,6.025a2.065,2.065,0,0,1-2.008-2.286,2.079,2.079,0,0,1,2.008-2.3,2.1,2.1,0,0,1,2.073,2.3A2.085,2.085,0,0,1-10.384,55.531ZM.351,49.506H-1.494V47.351H-3.42v2.155H-4.563v1.5H-3.42V57h1.927V51.008H.351Zm7.42,0-.245.963A3.069,3.069,0,0,0,5.012,49.31c-1.943,0-3.478,1.469-3.478,3.935s1.535,3.918,3.478,3.918a3.083,3.083,0,0,0,2.5-1.127L7.755,57h1.6V49.506ZM5.518,55.531a2.314,2.314,0,0,1,0-4.588,2.306,2.306,0,0,1,0,4.588Zm10.131-6.22a2.493,2.493,0,0,0-1.992,1.241l-.229-1.045h-1.7V57h1.943V53.294c0-1.322.669-2.122,1.812-2.122a2.257,2.257,0,0,1,.7.114l.294-1.861A2.838,2.838,0,0,0,15.649,49.31Zm6.49,0a2.749,2.749,0,0,0-2.3,1.078l-.245-.882h-1.7V57h1.943V52.624a1.611,1.611,0,0,1,1.649-1.665c1.029,0,1.486.718,1.486,1.878V57H24.9V52.331A2.679,2.679,0,0,0,22.139,49.31Zm6.2-1.045a1.127,1.127,0,1,0-1.143-1.127A1.147,1.147,0,0,0,28.335,48.265ZM27.388,57h1.943V49.506H27.388Zm12.041,0-3.837-4.082,3.38-3.412H36.506l-2.629,2.776V45.9H31.935V57h1.943V53.588L36.931,57Zm7.208-7.494-.245.963a3.069,3.069,0,0,0-2.514-1.159c-1.943,0-3.478,1.469-3.478,3.935s1.535,3.918,3.478,3.918a3.083,3.083,0,0,0,2.5-1.127L46.62,57h1.6V49.506Zm-2.253,6.025a2.314,2.314,0,0,1,0-4.588,2.306,2.306,0,0,1,0,4.588Z" transform="translate(1220.952 334.398)" fill="#2e3c4b"/>
    <g id="czołpino" transform="translate(1186.135 156.318)">
      <path id="Path_1977" data-name="Path 1977" d="M1239.229,304.819c-7.091,0-21.5-1.322-23.442-3.029a.65.65,0,0,1-.252-.44h0c-.059-.988,1.408-25.57,2.7-47.259.994-16.644,1.932-32.366,1.9-32.822a13.3,13.3,0,0,0-1.933-1.689c-.133-.1-.248-.193-.334-.263-.22-.176-.369-.726-.441-1.633-.107-1.345-.02-3.468.421-3.952.676-.744,16.881-.326,21.9-.057,3.059.164,8.047.046,12.447-.059,6.666-.156,8.37-.157,8.566.137.3.455-.055,2.212-.686,4.709l-.031.121a2.636,2.636,0,0,1-1.143,1.426,4.23,4.23,0,0,0-1.216,1.277c.451,3.924,8.969,78.385,7.18,80.753-1.408,1.864-10.466,2.194-17.743,2.459-2.125.078-4.133.151-5.6.255C1240.911,304.8,1240.129,304.819,1239.229,304.819Zm-14.285-91.153c-3.69,0-6.533.089-6.842.31a8.527,8.527,0,0,0-.322,3.682c.075.96.23,1.323.31,1.387s.2.158.332.261c1.264.989,1.966,1.584,2.058,1.894.05.171-.382,7.565-1.894,32.913-1.294,21.679-2.76,46.25-2.7,47.217a.331.331,0,0,0,.133.2c1.969,1.727,19.536,3.3,25.493,2.876,1.469-.1,3.479-.178,5.607-.255,6.824-.249,16.169-.59,17.477-2.321,1.423-1.884-4.754-58.79-7.253-80.557l-.007-.055.027-.048a4.486,4.486,0,0,1,1.335-1.434,2.339,2.339,0,0,0,1.018-1.235l.031-.122c.672-2.661.918-4.151.734-4.428a81.057,81.057,0,0,0-8.267.019c-4.407.1-9.4.223-12.475.058C1235.775,213.813,1229.665,213.666,1224.944,213.666Z" transform="translate(-1210.8 -178.989)" fill="#2e3c4b"/>
      <path id="Path_1978" data-name="Path 1978" d="M1241.916,184.735c-3.216,0-12.454-.283-12.949-1.325h0a.469.469,0,0,1,.089-.43c1.08-1.627,10.854-8.022,13.333-8.022h.06c2.324.105,11.455,6.032,12.367,8.027a.544.544,0,0,1-.01.592c-.781.989-5.44,1.1-10.991,1.142-.51,0-1,.007-1.451.012Zm-12.624-1.461c.436.619,7.912,1.159,13.066,1.109.455-.006.942-.009,1.453-.012,3.973-.028,9.977-.071,10.719-1.008.028-.036.015-.122-.035-.229-.857-1.875-9.876-7.724-12.064-7.823-1.009-.051-3.859,1.332-7.428,3.6C1231.374,181.209,1229.375,182.905,1229.292,183.275Z" transform="translate(-1213.106 -172.392)" fill="#2e3c4b"/>
      <rect id="Rectangle_178" data-name="Rectangle 178" width="0.35" height="14.969" transform="translate(16.062 11.123) rotate(-0.656)" fill="#2e3c4b"/>
      <rect id="Rectangle_179" data-name="Rectangle 179" width="0.35" height="14.852" transform="matrix(1, -0.012, 0.012, 1, 41.386, 11.081)" fill="#2e3c4b"/>
      <path id="Path_1979" data-name="Path 1979" d="M1261.241,213.115l-.344-.064a8.714,8.714,0,0,0,.221-3.341c-.435-.151-7.411-.072-12.5-.014-3.449.039-6.429.073-7.54.046-.576-.015-1.774-.057-3.333-.113-5.48-.194-18.239-.646-19.181-.313a16.72,16.72,0,0,0,.038,3.752l-.348.031c-.051-.572-.286-3.451.022-3.989.193-.339,3.259-.4,19.483.171,1.556.055,2.752.1,3.329.112,1.1.026,4.081-.007,7.526-.046,8.731-.1,12.425-.11,12.7.074C1261.8,209.746,1261.425,212.112,1261.241,213.115Z" transform="translate(-1211.244 -178.222)" fill="#2e3c4b"/>
      <path id="Path_1980" data-name="Path 1980" d="M1227.6,223.593h-2.453l0-.177c0-.029.026-2.87-.907-3.815a.87.87,0,0,0-.639-.284c-1.61,0-2.154,2.841-2.159,2.87l-.344-.064c.023-.129.6-3.156,2.5-3.156a1.216,1.216,0,0,1,.888.388c.9.912,1,3.223,1.008,3.887h1.94c.076-.806.508-4.231,2.414-4.5a1.261,1.261,0,0,1,1.042.311c1,.867,1.134,3.265,1.153,3.955l1.906-.094c-.08-.638-.269-2.663.429-3.478a.989.989,0,0,1,.782-.362c1.566,0,2.166,2.849,2.288,3.533l1.367.075c.026-.645.186-2.784,1.138-3.633a1.355,1.355,0,0,1,1.079-.352c1,.1,1,2.82.979,3.7l2.413.241c.061-.8.411-3.875,2.207-3.981a1.278,1.278,0,0,1,.979.364c.958.893,1.119,3.2,1.145,3.856h1.2c.072-.857.431-4.128,1.7-4.22s1.952,3.227,2.1,4.055l1.986.023c.044-1.379.231-4.162,1-4.162h0c1.4.011,1.848,3.192,1.894,3.555l-.347.044c-.115-.9-.619-3.241-1.549-3.248h0c-.259,0-.595,1.706-.656,3.994l0,.172-2.621-.031-.025-.144c-.259-1.541-.945-3.971-1.758-3.908s-1.287,2.52-1.393,4.057l-.012.163h-1.866l0-.172c0-.029-.049-2.855-1.039-3.777a.935.935,0,0,0-.719-.271c-1.709.1-1.888,3.794-1.89,3.831l-.008.185-3.106-.31.007-.165c.058-1.42-.109-3.447-.66-3.5a1.012,1.012,0,0,0-.81.264c-.988.882-1.026,3.531-1.026,3.558l0,.183-2.011-.108-.021-.141c-.141-.94-.768-3.377-1.965-3.377a.643.643,0,0,0-.515.24c-.713.831-.328,3.364-.324,3.39l.03.192-2.655.129V223.2c0-.03-.012-2.982-1.036-3.873a.918.918,0,0,0-.763-.229c-1.836.255-2.124,4.295-2.126,4.336l-.011.163Z" transform="translate(-1211.757 -179.895)" fill="#2e3c4b"/>
      <path id="Path_1981" data-name="Path 1981" d="M1240.44,321.431c-.023-.28-.548-6.872,1.783-9.25a2.715,2.715,0,0,1,2.194-.837c1.986.127,3.4,1.894,4.076,5.109a23.027,23.027,0,0,1,.436,4.791l-.35-.012c0-.093.241-9.257-4.185-9.539a2.376,2.376,0,0,0-1.921.733c-2.22,2.265-1.689,8.909-1.684,8.975Z" transform="translate(-1215.073 -195.85)" fill="#2e3c4b"/>
      <path id="Path_1982" data-name="Path 1982" d="M1230.708,292.147h-3.689l-.015-.158c-.012-.125-.287-3.078.765-4.339a1.5,1.5,0,0,1,1.061-.566,1.263,1.263,0,0,1,1.04.382c1.12,1.121.863,4.382.851,4.52Zm-3.367-.35h3.042c.037-.665.116-3.207-.76-4.084a.921.921,0,0,0-.764-.28,1.157,1.157,0,0,0-.821.441C1227.208,288.869,1227.3,291.173,1227.341,291.8Z" transform="translate(-1212.766 -191.677)" fill="#2e3c4b"/>
      <path id="Path_1983" data-name="Path 1983" d="M1264.522,299.327h-3.859l-.007-.167c-.023-.584-.171-5.7,1.831-5.822a1.062,1.062,0,0,1,.821.318c1.229,1.167,1.216,5.322,1.215,5.5Zm-3.521-.349h3.171c-.012-.8-.118-4.131-1.105-5.067a.731.731,0,0,0-.559-.223C1261.151,293.766,1260.96,297.382,1261,298.977Z" transform="translate(-1218.559 -192.753)" fill="#2e3c4b"/>
      <path id="Path_1984" data-name="Path 1984" d="M1231.144,245.886h-4.325l0-.179c.005-.2.128-4.871,1.371-6.01a.914.914,0,0,1,.7-.268c1.842.118,2.2,5.644,2.237,6.273Zm-3.964-.35h3.594c-.118-1.739-.645-5.678-1.9-5.758a.593.593,0,0,0-.443.177C1227.424,240.878,1227.215,244.664,1227.179,245.536Z" transform="translate(-1212.741 -183.481)" fill="#2e3c4b"/>
      <path id="Path_1985" data-name="Path 1985" d="M1261.463,252.5h-3.613l-.017-.155c-.021-.186-.506-4.566.74-5.742a1.078,1.078,0,0,1,.975-.285c2.352.406,1.947,5.792,1.928,6.021Zm-3.3-.349h2.972c.049-.891.187-5.171-1.649-5.488a.737.737,0,0,0-.675.2C1257.815,247.8,1258.091,251.358,1258.165,252.147Z" transform="translate(-1218.057 -184.662)" fill="#2e3c4b"/>
      <rect id="Rectangle_180" data-name="Rectangle 180" width="0.35" height="14.047" transform="translate(18.611 11.732) rotate(-2.556)" fill="#2e3c4b"/>
      <rect id="Rectangle_181" data-name="Rectangle 181" width="13.765" height="0.351" transform="translate(22.564 26.039) rotate(-88.552)" fill="#2e3c4b"/>
      <rect id="Rectangle_182" data-name="Rectangle 182" width="0.351" height="13.822" transform="translate(26.921 12.175) rotate(-1.838)" fill="#2e3c4b"/>
      <rect id="Rectangle_183" data-name="Rectangle 183" width="0.35" height="13.588" transform="translate(32.02 12.169)" fill="#2e3c4b"/>
      <rect id="Rectangle_184" data-name="Rectangle 184" width="0.35" height="13.642" transform="translate(34.916 12.013) rotate(-1.244)" fill="#2e3c4b"/>
      <rect id="Rectangle_185" data-name="Rectangle 185" width="0.35" height="13.736" transform="translate(37.406 11.966) rotate(-4.442)" fill="#2e3c4b"/>
      <path id="Path_1986" data-name="Path 1986" d="M1244.513,174.825a.825.825,0,0,1-.513-.142c-.3-.221-.363-.654-.441-1.344a1.358,1.358,0,0,1,1.3-1.477l.024,0,.023,0c.792.124,1.612.252,1.612,1.283,0,.927-.473,1.43-1.534,1.627A2.609,2.609,0,0,1,1244.513,174.825Zm.364-2.612c-.16.025-1.071.2-.971,1.086.066.58.123.97.3,1.1.121.089.34.1.712.029.9-.167,1.247-.527,1.247-1.283C1246.167,172.521,1245.86,172.368,1244.877,172.213Z" transform="translate(-1215.618 -171.859)" fill="#2e3c4b"/>
      <path id="Path_1987" data-name="Path 1987" d="M1270.1,185.676l-.094-.337,8.217-2.293.094.337Z" transform="translate(-1220.168 -173.783)" fill="#2e3c4b"/>
      <rect id="Rectangle_186" data-name="Rectangle 186" width="4.831" height="0.35" transform="translate(53.266 17.529)" fill="#2e3c4b"/>
      <rect id="Rectangle_187" data-name="Rectangle 187" width="0.35" height="5.237" transform="translate(50.941 22.579) rotate(-62.876)" fill="#2e3c4b"/>
      <path id="Path_1988" data-name="Path 1988" d="M1218.2,185.77c-.751-.614-5.852-2.975-5.9-3l.147-.318a66.678,66.678,0,0,1,5.979,3.045Z" transform="translate(-1210.243 -173.681)" fill="#2e3c4b"/>
      <path id="Path_1989" data-name="Path 1989" d="M1211.119,192.852l-.015-.35,6.416-.278.015.35Z" transform="translate(-1210.038 -175.362)" fill="#2e3c4b"/>
      <rect id="Rectangle_188" data-name="Rectangle 188" width="5.554" height="0.35" transform="matrix(0.904, -0.427, 0.427, 0.904, 0, 25.828)" fill="#2e3c4b"/>
      <path id="Path_1990" data-name="Path 1990" d="M1255.506,212.106h0a.175.175,0,0,1-.172-.179c.077-3.158.086-8.042-.2-8.554-.406-.521-7.378-.5-12.88-.125a69.407,69.407,0,0,1-7.118-.069c-2.45-.105-5.228-.224-5.447.149-.558.951-.172,6.318.023,8.306a.176.176,0,0,1-.156.191.174.174,0,0,1-.192-.157c-.029-.3-.706-7.273.023-8.517.312-.531,2.192-.475,5.765-.321a69.148,69.148,0,0,0,7.079.069c.126-.008,12.6-.777,13.21.3.426.76.266,7.92.247,8.734A.175.175,0,0,1,1255.506,212.106Z" transform="translate(-1213.124 -177.151)"/>
    </g>
    <g id="Group_290" data-name="Group 290" transform="translate(1231.578 193.5)">
      <g id="Group_276" data-name="Group 276" transform="translate(0 20.816)">
        <path id="Path_1991" data-name="Path 1991" d="M1273.279,242.124c-1.7.488-7.915,28.188-8.375,28.889s36.832,14.589,38.758,13.861,11.73-32.025,11.031-33.448S1275.112,241.6,1273.279,242.124Z" transform="translate(-1264.734 -241.94)" fill="#f2edeb"/>
        <path id="Path_1992" data-name="Path 1992" d="M1303.437,285.027c-2.289,0-15.457-4.722-19.595-6.227-8.858-3.223-18.559-7-19.087-7.663a.2.2,0,0,1-.024-.249c.132-.227.838-3.064,1.654-6.35,2.914-11.719,5.626-22.266,6.814-22.607l.046.159-.046-.159c.985-.276,11.417,1.759,21.212,3.918,4.658,1.027,19.9,4.457,20.394,5.469.6,1.216-5.235,20.252-8.651,28.918-1.588,4.028-2.17,4.645-2.47,4.759A.742.742,0,0,1,1303.437,285.027Zm-38.382-14.057c.763.629,9.259,4.012,18.892,7.516,10.98,3.994,18.864,6.489,19.622,6.2.168-.064.726-.637,2.278-4.571,3.767-9.558,9.127-27.7,8.661-28.649-.38-.583-8.718-2.77-20.271-5.315-10.953-2.413-20.145-4.133-20.947-3.9h0c-1.1.315-4.8,15.209-6.583,22.367C1265.755,268.453,1265.247,270.478,1265.055,270.97Zm-.046.1Zm0,0Z" transform="translate(-1264.7 -241.907)" fill="#2e3c4b"/>
      </g>
      <path id="Path_1993" data-name="Path 1993" d="M1318.691,247.341a1.314,1.314,0,0,1-.562-.123c-.744-.347-8.844-6.377-16.885-12.66-7.221-5.64-15.849-12.607-15.949-13.77h0c-.066-.76,3.385-3.43,4.849-3.928.445-.152.745-.12.883.1.192.267,3.7,3.05,7.772,6.273,16.229,12.86,24.385,19.551,23.927,20.438C1322.182,244.716,1320.284,247.341,1318.691,247.341Zm-33.067-26.58c.068.79,5.983,5.851,15.823,13.537,7.812,6.1,16.1,12.283,16.822,12.621,1.263.593,3.383-1.9,4.161-3.4-.023-1.156-15.516-13.432-23.839-20.028-5.175-4.1-7.671-6.084-7.844-6.353-.026-.039-.157-.075-.484.035C1288.7,217.693,1285.59,220.3,1285.624,220.76Z" transform="translate(-1268.242 -216.766)" fill="#2e3c4b"/>
      <g id="Group_277" data-name="Group 277" transform="translate(19.453 4.378)">
        <line id="Line_1005" data-name="Line 1005" y1="1.98" x2="8.366" transform="translate(0.039 0.157)" fill="#f2edeb"/>
        <rect id="Rectangle_189" data-name="Rectangle 189" width="8.598" height="0.331" transform="translate(0 1.972) rotate(-13.257)" fill="#2e3c4b"/>
      </g>
      <g id="Group_278" data-name="Group 278" transform="translate(23.647 8.358)">
        <line id="Line_1006" data-name="Line 1006" y1="1.589" x2="9.215" transform="translate(0.028 0.167)" fill="#f2edeb"/>
        <rect id="Rectangle_190" data-name="Rectangle 190" width="9.351" height="0.332" transform="translate(0 1.596) rotate(-9.83)" fill="#2e3c4b"/>
      </g>
      <g id="Group_279" data-name="Group 279" transform="translate(30.026 12.375)">
        <line id="Line_1007" data-name="Line 1007" y1="2.752" x2="7.847" transform="translate(0.054 0.159)" fill="#f2edeb"/>
        <rect id="Rectangle_191" data-name="Rectangle 191" width="8.316" height="0.332" transform="translate(0 2.757) rotate(-19.363)" fill="#2e3c4b"/>
      </g>
      <g id="Group_280" data-name="Group 280" transform="translate(34.917 16.416)">
        <line id="Line_1008" data-name="Line 1008" y1="2.543" x2="7.975" transform="translate(0.052 0.154)" fill="#f2edeb"/>
        <rect id="Rectangle_192" data-name="Rectangle 192" width="8.371" height="0.331" transform="translate(0 2.536) rotate(-17.638)" fill="#2e3c4b"/>
      </g>
      <g id="Group_281" data-name="Group 281" transform="translate(40.545 20.134)">
        <line id="Line_1009" data-name="Line 1009" y1="3.166" x2="6.847" transform="translate(0.07 0.15)" fill="#f2edeb"/>
        <rect id="Rectangle_193" data-name="Rectangle 193" width="7.544" height="0.331" transform="translate(0 3.166) rotate(-24.814)" fill="#2e3c4b"/>
      </g>
      <g id="Group_282" data-name="Group 282" transform="translate(45.596 23.849)">
        <line id="Line_1010" data-name="Line 1010" y1="3.259" x2="6.098" transform="translate(0.078 0.146)" fill="#f2edeb"/>
        <path id="Path_1994" data-name="Path 1994" d="M1319.924,249.12l-.157-.292,6.1-3.259.157.292Z" transform="translate(-1319.768 -245.569)" fill="#2e3c4b"/>
      </g>
      <g id="Group_283" data-name="Group 283" transform="translate(8.098 21.854)">
        <line id="Line_1011" data-name="Line 1011" y1="5.041" x2="7.434" transform="translate(0.094 0.139)" fill="#f2edeb"/>
        <path id="Path_1995" data-name="Path 1995" d="M1274.668,248.479l-.188-.277,7.434-5.041.188.277Z" transform="translate(-1274.48 -243.16)" fill="#2e3c4b"/>
      </g>
      <g id="Group_284" data-name="Group 284" transform="translate(14.598 23.301)">
        <line id="Line_1012" data-name="Line 1012" y1="5.08" x2="7.753" transform="translate(0.092 0.14)" fill="#f2edeb"/>
        <path id="Path_1996" data-name="Path 1996" d="M1282.514,250.268l-.184-.281,7.753-5.08.184.281Z" transform="translate(-1282.33 -244.907)" fill="#2e3c4b"/>
      </g>
      <g id="Group_285" data-name="Group 285" transform="translate(22.053 24.547)">
        <line id="Line_1013" data-name="Line 1013" y1="5.388" x2="6.136" transform="translate(0.11 0.126)" fill="#f2edeb"/>
        <rect id="Rectangle_194" data-name="Rectangle 194" width="8.166" height="0.336" transform="translate(0 5.389) rotate(-41.29)" fill="#2e3c4b"/>
      </g>
      <g id="Group_286" data-name="Group 286" transform="translate(28.055 26.069)">
        <line id="Line_1014" data-name="Line 1014" y1="5.255" x2="6.593" transform="translate(0.105 0.129)" fill="#f2edeb"/>
        <rect id="Rectangle_195" data-name="Rectangle 195" width="8.432" height="0.335" transform="translate(0 5.252) rotate(-38.53)" fill="#2e3c4b"/>
      </g>
      <g id="Group_287" data-name="Group 287" transform="translate(35.085 27.33)">
        <line id="Line_1015" data-name="Line 1015" y1="5.721" x2="5.161" transform="translate(0.125 0.111)" fill="#f2edeb"/>
        <rect id="Rectangle_196" data-name="Rectangle 196" width="7.705" height="0.335" transform="matrix(0.67, -0.742, 0.742, 0.67, 0, 5.72)" fill="#2e3c4b"/>
      </g>
      <g id="Group_288" data-name="Group 288" transform="translate(40.298 28.701)">
        <line id="Line_1016" data-name="Line 1016" y1="5.596" x2="5.118" transform="translate(0.124 0.112)" fill="#f2edeb"/>
        <rect id="Rectangle_197" data-name="Rectangle 197" width="7.583" height="0.335" transform="translate(0 5.594) rotate(-47.54)" fill="#2e3c4b"/>
      </g>
      <g id="Group_289" data-name="Group 289" transform="translate(6.25 26.435)">
        <line id="Line_1017" data-name="Line 1017" x2="42.436" y2="9.711" transform="translate(0.037 0.163)" fill="#f2edeb"/>
        <path id="Path_1997" data-name="Path 1997" d="M1314.684,258.73l-42.436-9.711.074-.327,42.436,9.711Z" transform="translate(-1272.248 -248.692)" fill="#2e3c4b"/>
      </g>
      <path id="Path_1998" data-name="Path 1998" d="M1303.958,266.561l-22.848-5.816.082-.321,22.848,5.816Z" transform="translate(-1267.522 -224.275)" fill="#2e3c4b"/>
      <path id="Path_1999" data-name="Path 1999" d="M1300.443,275.916l-21.416-6.172.092-.319,21.416,6.172Z" transform="translate(-1267.164 -225.824)" fill="#2e3c4b"/>
      <rect id="Rectangle_198" data-name="Rectangle 198" width="0.331" height="21.72" transform="translate(11.852 47.003) rotate(-69.657)" fill="#2e3c4b"/>
    </g>
  </g>
</svg>
