<svg xmlns="http://www.w3.org/2000/svg" width="303.766" height="376.475" viewBox="0 0 303.766 376.475">
  <g id="CIEKAWOSTKA" transform="translate(-1510.48 -77.28)">
    <path id="Path_1283" data-name="Path 1283" d="M1522.836,94.86c18.672-26.9,263.735-19.7,277.642,0s20.138,313.77,4.909,337.985-268.437,27.737-282.554,8.789S1504.165,121.765,1522.836,94.86Z" fill="#e5a34c"/>
    <g id="CIEKAWOSTKA-2" transform="translate(1599.194 103.182)" style="isolation: isolate">
      <text id="CIEKAWOSTKA-2-2" data-name="CIEKAWOSTKA" transform="translate(0 17)" fill="#2e3c4b" font-size="21" font-family="SulphurPoint-Bold, Sulphur Point" font-weight="700" letter-spacing="0.025em" style="isolation: isolate"><tspan x="0" y="0">CIEKAWOSTKA</tspan></text>
    </g>
    <rect id="Rectangle_45" data-name="Rectangle 45" width="12.003" height="2.401" transform="translate(1658.508 127.188)" fill="#ae4426"/>
    <g id="Group_181" data-name="Group 181" transform="translate(1578.238 147.598)">
      <path id="Path_1327" data-name="Path 1327" d="M1592.9,195.717c5.3-14.506,17.773-44.409,41.981-44.946s90.689-2.885,107.579,17.357,19.875,36.026,17.385,67.948-11.058,50.458-21.154,67.441-53.078,30.071-91.707,28.566-66.767-24.406-66.017-55.752,14.26-35.535,11.93-49.154S1587.591,210.223,1592.9,195.717Z" transform="translate(-1580.947 -150.41)" fill="#f2edeb"/>
    </g>
    <text id="W_latarni_Rozewie_znajduje_się_Muzeum_Latarnictwa" data-name="W latarni Rozewie
znajduje się
Muzeum Latarnictwa" transform="translate(1663.364 364.677)" fill="#2e3c4b" font-size="19" font-family="ClarikaProGeo-Th, Clarika Pro Geometric" letter-spacing="0.025em" style="isolation: isolate"><tspan x="-75.554" y="0">W latarni Rozewie</tspan><tspan x="-49.395" y="23">znajduje się</tspan><tspan font-family="ClarikaProGeo-Dm, Clarika Pro Geometric"><tspan x="-94.152" y="46">Muzeum Latarnictwa</tspan></tspan></text>
    <g id="rozewie" transform="translate(1642.224 164.15)">
      <g id="Group_291" data-name="Group 291" transform="translate(15.008 28.115)">
        <circle id="Ellipse_66" data-name="Ellipse 66" cx="0.987" cy="0.987" r="0.987" transform="translate(4.828)" fill="#2e3c4b"/>
        <circle id="Ellipse_67" data-name="Ellipse 67" cx="0.987" cy="0.987" r="0.987" transform="translate(5.267 11.411)" fill="#2e3c4b"/>
        <circle id="Ellipse_68" data-name="Ellipse 68" cx="0.987" cy="0.987" r="0.987" transform="translate(4.828 24.578)" fill="#2e3c4b"/>
        <circle id="Ellipse_69" data-name="Ellipse 69" cx="0.987" cy="0.987" r="0.987" transform="translate(11.411 49.155)" fill="#2e3c4b"/>
        <circle id="Ellipse_70" data-name="Ellipse 70" cx="0.987" cy="0.987" r="0.987" transform="translate(0 55.3)" fill="#2e3c4b"/>
        <circle id="Ellipse_71" data-name="Ellipse 71" cx="0.987" cy="0.987" r="0.987" transform="translate(0.878 43.889)" fill="#2e3c4b"/>
      </g>
      <g id="rozewie-2" data-name="rozewie" transform="translate(0 0)">
        <path id="Path_2000" data-name="Path 2000" d="M1656.5,262.092c-.557-1.112,1.278-12.311,1.3-12.423.087-.525.21-1.346.357-2.332.835-5.606,1.641-10.7,2.338-11.392.329-.328,1.7-.3,4.553-.159.985.049,1.914.094,2.625.094,7.409,0,8.671.242,8.933.5.3.3,1.1,3.893,2.674,11.336.426,2.008.761,3.593.894,4.128a77.816,77.816,0,0,1,1.5,10.2l-.438-.006a77.4,77.4,0,0,0-1.488-10.092c-.137-.541-.472-2.131-.9-4.143-.844-3.99-2.258-10.67-2.566-11.128-.223-.156-1.914-.362-8.612-.362-.721,0-1.657-.046-2.646-.1-1.568-.078-3.94-.194-4.223.033-.649.649-1.7,7.738-2.213,11.144-.147.989-.27,1.813-.358,2.339-.626,3.757-1.7,11.433-1.337,12.155Z" transform="translate(-1647.834 -170.24)" fill="#2e3c4b"/>
        <path id="Path_2001" data-name="Path 2001" d="M1676.76,234.939l-.311-.311c.222-.493.375-7.846.375-19.156,0-3.182-.452-23.134-.855-24.042-.137-.274-1.361-.557-6.416-.345-.4.016-.7.029-.849.029-.26,0-.92-.081-1.835-.193-1.658-.2-5.541-.68-5.91-.31-.314.766.441,15.266.941,21.772.165,2.13.2,5.535.249,9.139.061,5.059.144,11.987.714,12.444l-.239.367c-.689-.443-.813-4.436-.914-12.806-.043-3.6-.084-7-.246-9.111-.139-1.8-1.441-21.49-.815-22.117.441-.439,2.46-.283,6.273.185.831.1,1.548.19,1.782.19.146,0,.44-.013.831-.029,3.952-.164,6.47-.125,6.827.588.491.983.9,22.572.9,24.237C1677.263,234.436,1676.9,234.8,1676.76,234.939Z" transform="translate(-1647.991 -168.486)" fill="#2e3c4b"/>
        <path id="Path_2002" data-name="Path 2002" d="M1676.824,179.4a14.955,14.955,0,0,1-2.164-.281,13.681,13.681,0,0,0-2.962-.313c-1.032.1-3,.151-4.582.188-1.124.027-2.1.05-2.448.086-.525.054-1.772.033-2.871.013-.706-.012-1.373-.023-1.54-.006-.036,0-3.307.011-3.386-.759-.062-.609,7.7-7.788,10.219-9.727,1.32-1.014,1.625-1.027,1.807-.958,1.433.543,8.666,10.274,8.762,11.217a.42.42,0,0,1-.13.358A1.032,1.032,0,0,1,1676.824,179.4Zm-4.788-1.048a17.756,17.756,0,0,1,2.7.335,7.044,7.044,0,0,0,2.5.211c-.125-.856-7.185-10.294-8.474-10.837-.382.024-2.371,1.528-5.985,4.858a71.81,71.81,0,0,0-5.439,5.387,9.98,9.98,0,0,0,2.88.346c.185-.019.725-.011,1.592,0,1.035.017,2.321.039,2.818-.012.37-.038,1.349-.061,2.483-.088,1.574-.038,3.534-.084,4.548-.187A3.666,3.666,0,0,1,1672.036,178.356Z" transform="translate(-1647.852 -167.624)" fill="#2e3c4b"/>
        <path id="Path_2003" data-name="Path 2003" d="M1666.048,190.058l-.435-.048c0-.04.437-3.959.437-5.682v-5.266h.438v5.266C1666.488,186.077,1666.066,189.9,1666.048,190.058Z" transform="translate(-1648.188 -168.063)" fill="#2e3c4b"/>
        <path id="Path_2004" data-name="Path 2004" d="M1670.615,190.717c-.018-.242-.439-5.953-.439-7.7a13.009,13.009,0,0,1,.279-2.537,6.918,6.918,0,0,0,.161-1.194h.438a7.23,7.23,0,0,1-.167,1.276,12.557,12.557,0,0,0-.272,2.455c0,1.727.435,7.6.438,7.664Z" transform="translate(-1648.364 -168.072)" fill="#2e3c4b"/>
        <path id="Path_2005" data-name="Path 2005" d="M1675.177,190.49h-.438c0-.442.842-10.56.879-10.991l.437.037C1675.751,183.176,1675.177,190.15,1675.177,190.49Z" transform="translate(-1648.539 -168.08)" fill="#2e3c4b"/>
        <rect id="Rectangle_199" data-name="Rectangle 199" width="0.439" height="10.533" transform="translate(13.473 11.437)" fill="#2e3c4b"/>
        <path id="Path_2006" data-name="Path 2006" d="M1669.63,280.144a4.069,4.069,0,0,1-1.964-.34.534.534,0,0,1-.267-.476c.01-.257-.074-1.33-.171-2.574-.32-4.066-.558-7.481-.224-8.084h0c.224-.4.776-.658,1.64-.76,1.338-.158,3.2.1,3.556.488.5.541,1.135,8.591.7,10.669-.081.39-.2.6-.373.679A9.175,9.175,0,0,1,1669.63,280.144Zm-2.242-11.262c-.3.538.076,5.286.277,7.838.107,1.361.185,2.343.172,2.627,0,.028.024.059.076.094.648.44,3.66.253,4.439-.1.621-.534-.034-9.931-.486-10.662a6.629,6.629,0,0,0-3.171-.338c-.7.083-1.162.273-1.308.538Z" transform="translate(-1648.235 -171.477)" fill="#2e3c4b"/>
        <path id="Path_2007" data-name="Path 2007" d="M1670.693,296.4a4.839,4.839,0,0,1-2.085-.4c-.587-.326-.881-3.314-1.025-5.764-.106-1.81-.217-5.39.116-5.991h0c.33-.59,3.034-.2,4.616.08l.165.03.015.167c.148,1.7.86,10.253.376,11.125-.342.617-1.416.734-2.026.747C1670.794,296.4,1670.743,296.4,1670.693,296.4Zm-2.614-11.93c-.534,1.019.109,10.669.745,11.153a4.663,4.663,0,0,0,2.01.337c.852-.02,1.486-.219,1.653-.521.318-.574-.08-6.8-.415-10.707C1670.312,284.431,1668.337,284.256,1668.079,284.474Z" transform="translate(-1648.26 -172.096)" fill="#2e3c4b"/>
        <path id="Path_2008" data-name="Path 2008" d="M1670.192,311.753a1.3,1.3,0,0,1-.925-.221c-.352-.385-1.048-10.706-.389-11.31h0a4.231,4.231,0,0,1,3.782-.317c1.025.569,1.7,10.3,1.444,11.2a.286.286,0,0,1-.281.247,7.381,7.381,0,0,0-.949.118A20.894,20.894,0,0,1,1670.192,311.753Zm-1-11.22c-.337.71.019,10.043.412,10.717.255.22,2.4-.092,3.21-.211.433-.063.714-.1.888-.118a34.047,34.047,0,0,0-.263-5.346c-.347-3.379-.758-5.11-.992-5.288A3.915,3.915,0,0,0,1669.188,300.533Z" transform="translate(-1648.303 -172.698)" fill="#2e3c4b"/>
        <path id="Path_2009" data-name="Path 2009" d="M1676.8,236.518l-.2-.392c.733-.366,2.262-4.018,2.344-4.994-1.222-.6-18.13-.938-19.744-.4a13.191,13.191,0,0,0,1.278,3.893,4.723,4.723,0,0,1,.475,1.26h-.219l-.219,0a7.842,7.842,0,0,0-.437-1.084,12.656,12.656,0,0,1-1.318-4.185c0-.261,0-.586,7.244-.586,3.069,0,6.351.076,8.779.2,4.6.243,4.6.55,4.6.82C1679.391,232,1677.786,236.025,1676.8,236.518Z" transform="translate(-1647.925 -170.023)" fill="#2e3c4b"/>
        <path id="Path_2010" data-name="Path 2010" d="M1664.9,235.961c-.513-.741-.121-4.889-.038-5.713l.437.044c-.187,1.845-.362,4.948-.037,5.419Z" transform="translate(-1648.151 -170.031)" fill="#2e3c4b"/>
        <path id="Path_2011" data-name="Path 2011" d="M1674.07,235.946l-.428-.1c.141-.629.226-3.835.251-5.441l.439.007C1674.329,230.605,1674.257,235.115,1674.07,235.946Z" transform="translate(-1648.497 -170.037)" fill="#2e3c4b"/>
        <path id="Path_2012" data-name="Path 2012" d="M1668.562,236.116l-.21-.1c-.358-.4-.042-3.7.177-5.634l.437.049a26.037,26.037,0,0,0-.276,5.3.156.156,0,0,0-.128-.062Z" transform="translate(-1648.287 -170.037)" fill="#2e3c4b"/>
        <path id="Path_2013" data-name="Path 2013" d="M1676.109,190.945l-.438-.01a4.574,4.574,0,0,1,.617-1.344c.547-1.018,1.462-2.721,1.3-3.229-.013-.044-.032-.053-.042-.058-.75-.358-16.848-.8-18.113-.125a20.818,20.818,0,0,0,1.3,3.792l-.4.172a19.9,19.9,0,0,1-1.335-4.037.325.325,0,0,1,.176-.279c1.3-.807,17.767-.321,18.575.083a.525.525,0,0,1,.264.319c.2.632-.486,1.989-1.334,3.568A8.862,8.862,0,0,0,1676.109,190.945Z" transform="translate(-1647.934 -168.307)" fill="#2e3c4b"/>
        <path id="Path_2014" data-name="Path 2014" d="M1678.607,314.13c-11.922,0-28.029-.662-29.331-1.833-1.187-1.068-.858-15.821-.555-24.521.385-11.034,1.138-23.434,1.688-24.228h0c.077-.113.243-.207.8-.306,4.792-.85,32.719-.932,34.395.251,1.32.932,3.871,20.772,4.369,24.74,1.1,8.792,2.776,23.947,2.046,24.98-.125.176-.468.381-2.067.561C1687.809,314.015,1683.57,314.13,1678.607,314.13Zm-27.845-50.319c-.391.744-1.157,11.113-1.6,24.043-.485,13.99-.323,23.456.411,24.118,1.412,1.27,27.505,2.152,38.105,1.545,3.5-.2,3.936-.5,3.986-.557.454-.73-.481-11.59-2.13-24.721-1.937-15.419-3.569-23.939-4.181-24.386C1683.856,262.8,1652.318,262.766,1650.762,263.811Z" transform="translate(-1647.528 -171.275)" fill="#2e3c4b"/>
        <rect id="Rectangle_200" data-name="Rectangle 200" width="3.033" height="0.439" transform="translate(33.894 10.45) rotate(-18.46)" fill="#2e3c4b"/>
        <rect id="Rectangle_201" data-name="Rectangle 201" width="4.733" height="0.439" transform="translate(34.706 14.654)" fill="#2e3c4b"/>
        <rect id="Rectangle_202" data-name="Rectangle 202" width="0.439" height="2.333" transform="translate(33.216 19.599) rotate(-63.534)" fill="#2e3c4b"/>
        <path id="Path_2015" data-name="Path 2015" d="M1651.495,179.714a18.583,18.583,0,0,1-2.756-1.2l.2-.391a18.364,18.364,0,0,0,2.626,1.159Z" transform="translate(-1647.54 -168.027)" fill="#2e3c4b"/>
        <rect id="Rectangle_203" data-name="Rectangle 203" width="3.372" height="0.439" transform="translate(0 14.226)" fill="#2e3c4b"/>
        <path id="Path_2016" data-name="Path 2016" d="M1648.911,188.02l-.143-.415,2.691-.928.142.415Z" transform="translate(-1647.541 -168.356)" fill="#2e3c4b"/>
      </g>
    </g>
    <g id="Group_294" data-name="Group 294" transform="translate(1664.789 200.29)">
      <path id="Path_2017" data-name="Path 2017" d="M1715.342,261.687a1,1,0,0,1-.415-.083h0c-1.187-.538-19.537-25.465-19.833-26.943a1.157,1.157,0,0,1,.331-.949,5.706,5.706,0,0,1,3.112-1.721c.158,0,.637,0,11.554,12.136,4.353,4.84,10.857,12.19,10.994,12.6.183.552-1.586,2.3-2.284,2.933C1717.908,260.46,1716.377,261.687,1715.342,261.687ZM1698.5,232.37a5.532,5.532,0,0,0-2.774,1.586.861.861,0,0,0-.252.63c.4,1.51,18.547,26.185,19.614,26.668h0c.347.158.994-.062,1.833-.607,1.818-1.186,3.8-3.419,3.8-3.816-.182-.339-4.861-5.718-10.837-12.363C1703.446,237.314,1698.978,232.566,1698.5,232.37Z" transform="translate(-1671.886 -206.238)" fill="#2e3c4b"/>
      <g id="Group_292" data-name="Group 292">
        <path id="Path_2018" data-name="Path 2018" d="M1675.259,209.541c5.6-5.625,16.257-6,22.56,1.975s4.033,15.393-2.66,21.749-13.857,2.5-19.9-3.039S1670.389,214.43,1675.259,209.541Z" transform="translate(-1670.967 -205.216)" fill="#f2edeb"/>
        <path id="Path_2019" data-name="Path 2019" d="M1687.691,236.735c-3.767,0-7.931-2.121-12.565-6.375a13.439,13.439,0,0,1-4.164-9.753,15.794,15.794,0,0,1,4.152-11.21,14.72,14.72,0,0,1,11.308-4.163,15.763,15.763,0,0,1,11.54,6.154c5.829,7.379,4.929,14.783-2.678,22.008A10.849,10.849,0,0,1,1687.691,236.735Zm-12.3-27.067h0a15.4,15.4,0,0,0-4.039,10.93,13.051,13.051,0,0,0,4.039,9.478c7.814,7.174,14.237,8.166,19.633,3.041,7.439-7.065,8.327-14.3,2.641-21.491a15.38,15.38,0,0,0-11.259-6.008,14.518,14.518,0,0,0-11.015,4.049Z" transform="translate(-1670.959 -205.209)" fill="#2e3c4b"/>
      </g>
      <g id="Group_293" data-name="Group 293" transform="translate(2.483 2.546)">
        <path id="Path_2020" data-name="Path 2020" d="M1677.148,211.489a12.72,12.72,0,0,1,18.918,1.656c5.286,6.69,3.382,12.907-2.231,18.238s-11.62,2.1-16.683-2.548S1673.063,215.59,1677.148,211.489Z" transform="translate(-1673.548 -207.863)" fill="#f2edeb"/>
        <path id="Path_2021" data-name="Path 2021" d="M1687.572,234.293c-3.159,0-6.65-1.779-10.536-5.345a11.266,11.266,0,0,1-3.491-8.179,13.242,13.242,0,0,1,3.482-9.4h0a12.327,12.327,0,0,1,9.481-3.491,13.217,13.217,0,0,1,9.678,5.161c4.888,6.188,4.132,12.4-2.246,18.455A9.1,9.1,0,0,1,1687.572,234.293Zm-1.793-26.113a12.126,12.126,0,0,0-8.523,3.416h0a12.912,12.912,0,0,0-3.389,9.165,10.947,10.947,0,0,0,3.386,7.948c6.553,6.015,11.937,6.851,16.464,2.551,6.237-5.924,6.981-11.988,2.214-18.021a12.9,12.9,0,0,0-9.443-5.039C1686.253,208.187,1686.015,208.18,1685.779,208.18Z" transform="translate(-1673.542 -207.857)" fill="#2e3c4b"/>
      </g>
      <path id="Path_2022" data-name="Path 2022" d="M1680.216,209.442l3.39-1.175.643,25.181-2.9-1.5Z" transform="translate(-1671.315 -205.326)" fill="#2e3c4b"/>
      <path id="Path_2023" data-name="Path 2023" d="M1675.712,227.829s14.251-.425,14.352,0-2.236,7.065-2.236,7.065l-2.522-.3s2.044-3.666,1.215-4.289-8.519-.021-8.519-.021Z" transform="translate(-1671.142 -206.071)" fill="#2e3c4b"/>
    </g>
  </g>
</svg>
