<svg xmlns="http://www.w3.org/2000/svg" width="301.5" height="344.108" viewBox="0 0 301.5 344.108">
  <g id="CIEKAWOSTKA" transform="translate(-1072.131 -81.55)">
    <path id="Path_1283" d="M1084.39,97.611c18.51-24.569,261.792-18.012,275.571,0s20,286.776,4.9,308.938-266.44,25.316-280.468,8.051S1065.88,122.18,1084.39,97.611Z" fill="#e5a34c"/>
    <g id="CIEKAWOSTKA-2" transform="translate(1168.887 105.662)">
      <g id="Group_430" data-name="Group 430" transform="translate(0)">
        <path id="Path_2309" data-name="Path 2309" d="M1192.518,122.552a6.1,6.1,0,0,1-3.32-3.32,5.676,5.676,0,0,1-.5-2.407,5.954,5.954,0,0,1,.5-2.407,6.1,6.1,0,0,1,3.32-3.32,5.834,5.834,0,0,1,4.9.083,6.262,6.262,0,0,1,2.158,1.743L1198.328,114a4.516,4.516,0,0,0-3.569-1.743,4.137,4.137,0,0,0-3.154,1.328,5.453,5.453,0,0,0-1,1.411,3.851,3.851,0,0,0-.332,1.743,4.082,4.082,0,0,0,.332,1.743,4.342,4.342,0,0,0,1,1.411,5.451,5.451,0,0,0,1.411,1,4.082,4.082,0,0,0,1.743.332,4.637,4.637,0,0,0,3.569-1.743l1.245,1.079a7.447,7.447,0,0,1-2.241,1.743,5.561,5.561,0,0,1-2.573.581A5.269,5.269,0,0,1,1192.518,122.552Z" transform="translate(-1188.7 -110.6)" fill="#2e3c4b"/>
        <path id="Path_2310" data-name="Path 2310" d="M1204.4,122.918V110.8h1.494v12.118Z" transform="translate(-1191.369 -110.634)" fill="#2e3c4b"/>
        <path id="Path_2311" data-name="Path 2311" d="M1209,122.918V110.8h6.64v1.66h-5.063v3.652h3.4v1.494h-3.4v3.652h5.063v1.66H1209Z" transform="translate(-1192.15 -110.634)" fill="#2e3c4b"/>
        <path id="Path_2312" data-name="Path 2312" d="M1225.278,122.918l-3.9-4.482v4.482H1219.8V110.8h1.577v4.648l3.818-4.648h2.158l-5.146,6.142,5.229,5.976Z" transform="translate(-1193.986 -110.634)" fill="#2e3c4b"/>
        <path id="Path_2313" data-name="Path 2313" d="M1238.749,122.918l-1.494-4.233h-3.818l-1.494,4.233H1230.2l4.233-12.118h1.826l4.233,12.118Zm-3.4-9.711-1.411,3.984h2.739Z" transform="translate(-1195.754 -110.634)" fill="#2e3c4b"/>
        <path id="Path_2314" data-name="Path 2314" d="M1253.254,122.9h-1.66l-1.909-5.146-1.826,5.146h-1.66l-4.4-12.2h1.743l3.4,9.545,1.743-4.98-1.66-4.565h1.743l1.577,4.482,1.826,5.063,3.32-9.545h1.743Z" transform="translate(-1197.725 -110.617)" fill="#2e3c4b"/>
        <path id="Path_2315" data-name="Path 2315" d="M1265.635,122.586a5.266,5.266,0,0,1-1.909-1.328,6.442,6.442,0,0,1-1.328-1.992,5.672,5.672,0,0,1,0-4.648,6.442,6.442,0,0,1,1.328-1.992,7.2,7.2,0,0,1,1.909-1.328,5.672,5.672,0,0,1,4.648,0,6.1,6.1,0,0,1,3.32,3.32,5.673,5.673,0,0,1,0,4.648,6.1,6.1,0,0,1-3.32,3.32,5.672,5.672,0,0,1-4.648,0Zm.581-9.794a4.341,4.341,0,0,0-1.411,1,5.449,5.449,0,0,0-1,1.411,4.082,4.082,0,0,0-.332,1.743,4.334,4.334,0,0,0,.332,1.743,5.909,5.909,0,0,0,.913,1.411,5.454,5.454,0,0,0,1.411,1,4.082,4.082,0,0,0,1.743.332,4.137,4.137,0,0,0,3.154-1.328,3.749,3.749,0,0,0,.913-1.411,4.333,4.333,0,0,0-1-4.9,5.45,5.45,0,0,0-1.411-1,3.849,3.849,0,0,0-1.743-.332A6.721,6.721,0,0,0,1266.216,112.792Z" transform="translate(-1201.142 -110.634)" fill="#2e3c4b"/>
        <path id="Path_2316" data-name="Path 2316" d="M1284.708,113.356a2.354,2.354,0,0,0-.83-.747,2.772,2.772,0,0,0-1.245-.249,2.43,2.43,0,0,0-1.743.5,1.825,1.825,0,0,0-.5,1.411,2.456,2.456,0,0,0,.166.83.85.85,0,0,0,.415.5,4.1,4.1,0,0,0,1.411.415q1,.125,1.743.249a9.667,9.667,0,0,1,1.245.5,2.843,2.843,0,0,1,1.328,2.656,3.439,3.439,0,0,1-.249,1.328,3.157,3.157,0,0,1-.747,1.079,3.045,3.045,0,0,1-1.411.83,5.351,5.351,0,0,1-1.66.249,4.087,4.087,0,0,1-3.071-1.079,3.953,3.953,0,0,1-1.162-2.656h1.577a2.06,2.06,0,0,0,.664,1.411,2.8,2.8,0,0,0,1.909.664,2.982,2.982,0,0,0,1.826-.5,1.733,1.733,0,0,0,.664-1.328,1.618,1.618,0,0,0-.083-.664,1.106,1.106,0,0,0-.415-.5,4.415,4.415,0,0,0-2.324-.581,4.28,4.28,0,0,1-2.656-1,3.321,3.321,0,0,1-.913-2.407,3.439,3.439,0,0,1,1-2.573,3.905,3.905,0,0,1,2.822-1,4.065,4.065,0,0,1,2.988,1.162,5.214,5.214,0,0,1,1.162,2.656h-1.66A1.736,1.736,0,0,0,1284.708,113.356Z" transform="translate(-1203.946 -110.617)" fill="#2e3c4b"/>
        <path id="Path_2317" data-name="Path 2317" d="M1294.282,112.377V123h-1.577V112.377H1289.8V110.8h7.47v1.577Z" transform="translate(-1205.884 -110.634)" fill="#2e3c4b"/>
        <path id="Path_2318" data-name="Path 2318" d="M1306.778,122.918l-3.9-4.482v4.482H1301.3V110.8h1.577v4.648l3.818-4.648h2.158l-5.146,6.142,5.229,5.976Z" transform="translate(-1207.839 -110.634)" fill="#2e3c4b"/>
        <path id="Path_2319" data-name="Path 2319" d="M1320.249,122.918l-1.494-4.233h-3.818l-1.494,4.233H1311.7l4.233-12.118h1.826l4.233,12.118Zm-3.4-9.711-1.411,3.984h2.739Z" transform="translate(-1209.606 -110.634)" fill="#2e3c4b"/>
      </g>
    </g>
    <rect id="Rectangle_45" width="10.375" height="2.075" transform="translate(1219.436 124.587)" fill="#ae4426"/>
    <g id="Group_181" transform="translate(1150.118 142.307)">
      <path id="Path_1327" d="M1176.39,193.8c4.565-12.533,15.356-38.347,36.272-38.762s78.272-2.49,92.881,15.024,17.182,31.126,15.024,58.683-9.545,43.577-18.261,58.185-45.818,25.98-79.185,24.652-57.6-21.083-57.023-48.142,12.285-30.711,10.292-42.415S1171.825,206.253,1176.39,193.8Z" transform="translate(-1166.088 -154.748)" fill="#f2edeb"/>
    </g>
    <g id="Group_431" data-name="Group 431" transform="translate(1116.595 324.044)">
      <path id="Path_2320" data-name="Path 2320" d="M1130.929,384.892v.581H1125.7V374.6h.581v10.292Z" transform="translate(-1125.7 -373.853)" fill="#2e3c4b"/>
      <path id="Path_2321" data-name="Path 2321" d="M1141.121,378.649v7.387h-.5l-.083-1.909a3.266,3.266,0,0,1-3.071,1.992,3.606,3.606,0,0,1-3.569-3.818,3.668,3.668,0,0,1,3.486-3.9,3.309,3.309,0,0,1,3.071,1.992l.083-1.826h.581Zm-.581,3.652a3.042,3.042,0,1,0-6.059,0,3.177,3.177,0,0,0,3.071,3.32C1139.3,385.7,1140.54,384.21,1140.54,382.3Z" transform="translate(-1127.094 -374.499)" fill="#2e3c4b"/>
      <path id="Path_2322" data-name="Path 2322" d="M1149.069,378.739h-1.909v6.889h-.581v-6.889H1145.5v-.5h1.079V376h.581v2.241h1.909Z" transform="translate(-1129.065 -374.091)" fill="#2e3c4b"/>
      <path id="Path_2323" data-name="Path 2323" d="M1158.821,378.649v7.387h-.5l-.083-1.909a3.266,3.266,0,0,1-3.071,1.992,3.606,3.606,0,0,1-3.569-3.818,3.668,3.668,0,0,1,3.486-3.9,3.309,3.309,0,0,1,3.071,1.992l.083-1.826h.581Zm-.5,3.652a3.042,3.042,0,1,0-6.059,0,3.177,3.177,0,0,0,3.071,3.32A3.066,3.066,0,0,0,1158.323,382.3Z" transform="translate(-1130.102 -374.499)" fill="#2e3c4b"/>
      <path id="Path_2324" data-name="Path 2324" d="M1166.871,378.583l-.083.581c-.166,0-.332-.083-.5-.083-1.162,0-1.909.913-1.909,2.324v4.648h-.581v-7.387h.5l.083,1.494a2.216,2.216,0,0,1,2.075-1.66A.748.748,0,0,1,1166.871,378.583Z" transform="translate(-1132.176 -374.516)" fill="#2e3c4b"/>
      <path id="Path_2325" data-name="Path 2325" d="M1175.676,381.72v4.316h-.581V381.8c0-1.909-1-2.822-2.324-2.822a2.511,2.511,0,0,0-2.49,2.573v4.482h-.581v-7.387h.5l.083,1.577a2.694,2.694,0,0,1,2.573-1.826C1174.182,378.483,1175.676,379.147,1175.676,381.72Z" transform="translate(-1133.179 -374.499)" fill="#2e3c4b"/>
      <path id="Path_2326" data-name="Path 2326" d="M1180.2,375.681a.581.581,0,1,1,.581.581A.567.567,0,0,1,1180.2,375.681Zm.249,2.407h.581v7.387h-.581Z" transform="translate(-1134.963 -373.938)" fill="#2e3c4b"/>
      <path id="Path_2327" data-name="Path 2327" d="M1191.621,378.649v7.387h-.5l-.083-1.909a3.266,3.266,0,0,1-3.071,1.992,3.606,3.606,0,0,1-3.569-3.818,3.668,3.668,0,0,1,3.486-3.9,3.309,3.309,0,0,1,3.071,1.992l.083-1.826h.581Zm-.5,3.652a3.042,3.042,0,1,0-6.059,0,3.177,3.177,0,0,0,3.071,3.32A3.066,3.066,0,0,0,1191.123,382.3Z" transform="translate(-1135.677 -374.499)" fill="#2e3c4b"/>
      <path id="Path_2328" data-name="Path 2328" d="M1202.1,379.961a5.39,5.39,0,0,1,5.478-5.561,6.605,6.605,0,0,1,3.154.83l-.332.5a5.036,5.036,0,1,0-2.822,9.3,5.144,5.144,0,0,0,2.822-.83l.332.5a5.641,5.641,0,0,1-3.154.913A5.561,5.561,0,0,1,1202.1,379.961Z" transform="translate(-1138.686 -373.819)" fill="#2e3c4b"/>
      <path id="Path_2329" data-name="Path 2329" d="M1220.993,385.589v.5H1215.1v-.5l4.98-6.391h-4.731v-.5h5.4v.5l-4.9,6.391Z" transform="translate(-1140.895 -374.55)" fill="#2e3c4b"/>
      <path id="Path_2330" data-name="Path 2330" d="M1224.6,382.3a3.819,3.819,0,1,1,7.636,0,3.818,3.818,0,1,1-7.636,0Zm7.055,0a3.238,3.238,0,1,0-3.237,3.32A3.161,3.161,0,0,0,1231.655,382.3Z" transform="translate(-1142.51 -374.499)" fill="#2e3c4b"/>
      <path id="Path_2331" data-name="Path 2331" d="M1238.256,378.68l-1.079.83v5.727h-.581v-5.312l-1,.83v-.5l1-.83V373.7h.581v5.229l1.079-.83Z" transform="translate(-1144.38 -373.7)" fill="#2e3c4b"/>
      <path id="Path_2332" data-name="Path 2332" d="M1248.238,382.3a3.543,3.543,0,0,1-3.486,3.818,3.4,3.4,0,0,1-3.071-1.992v5.478h-.581V378.649h.5l.083,1.826a3.341,3.341,0,0,1,3.071-2.075A3.72,3.72,0,0,1,1248.238,382.3Zm-.664,0a3.042,3.042,0,1,0-2.988,3.32C1246.329,385.7,1247.574,384.21,1247.574,382.3Z" transform="translate(-1145.314 -374.499)" fill="#2e3c4b"/>
      <path id="Path_2333" data-name="Path 2333" d="M1252.6,375.681a.581.581,0,1,1,.581.581A.567.567,0,0,1,1252.6,375.681Zm.166,2.407h.581v7.387h-.581Z" transform="translate(-1147.269 -373.938)" fill="#2e3c4b"/>
      <path id="Path_2334" data-name="Path 2334" d="M1263.176,381.72v4.316h-.581V381.8c0-1.909-1-2.822-2.324-2.822a2.511,2.511,0,0,0-2.49,2.573v4.482h-.581v-7.387h.5l.083,1.577a2.694,2.694,0,0,1,2.573-1.826C1261.682,378.483,1263.176,379.147,1263.176,381.72Z" transform="translate(-1148.051 -374.499)" fill="#2e3c4b"/>
      <path id="Path_2335" data-name="Path 2335" d="M1267.2,382.3a3.827,3.827,0,0,1,3.818-3.9,3.86,3.86,0,0,1,0,7.719A3.707,3.707,0,0,1,1267.2,382.3Zm7.138,0a3.238,3.238,0,1,0-3.237,3.32A3.161,3.161,0,0,0,1274.338,382.3Z" transform="translate(-1149.75 -374.499)" fill="#2e3c4b"/>
      <path id="Path_2336" data-name="Path 2336" d="M1292.438,382.3a3.543,3.543,0,0,1-3.486,3.818,3.4,3.4,0,0,1-3.071-1.992v5.478h-.581V378.649h.5l.083,1.826a3.341,3.341,0,0,1,3.071-2.075A3.72,3.72,0,0,1,1292.438,382.3Zm-.581,0a3.064,3.064,0,0,0-2.988-3.32,3.128,3.128,0,0,0-3.071,3.32,3.079,3.079,0,0,0,3.071,3.32A3.017,3.017,0,0,0,1291.857,382.3Z" transform="translate(-1152.827 -374.499)" fill="#2e3c4b"/>
      <path id="Path_2337" data-name="Path 2337" d="M1296.3,382.3a3.827,3.827,0,0,1,3.818-3.9,3.86,3.86,0,0,1,0,7.719A3.708,3.708,0,0,1,1296.3,382.3Zm7.055,0a3.238,3.238,0,1,0-3.237,3.32A3.161,3.161,0,0,0,1303.355,382.3Z" transform="translate(-1154.697 -374.499)" fill="#2e3c4b"/>
      <path id="Path_2338" data-name="Path 2338" d="M1307,389.045v-.5c1.411.166,1.909-.5,1.909-1.743v-8.632h.581V386.8A1.988,1.988,0,0,1,1307,389.045Zm1.66-13.363a.581.581,0,1,1,.581.581A.567.567,0,0,1,1308.66,375.681Z" transform="translate(-1156.515 -373.938)" fill="#2e3c4b"/>
      <path id="Path_2339" data-name="Path 2339" d="M1320.421,378.649v7.387h-.5l-.083-1.909a3.266,3.266,0,0,1-3.071,1.992,3.606,3.606,0,0,1-3.569-3.818,3.668,3.668,0,0,1,3.486-3.9,3.309,3.309,0,0,1,3.071,1.992l.083-1.826h.581Zm-.5,3.652a3.042,3.042,0,1,0-2.988,3.32A3.017,3.017,0,0,0,1319.923,382.3Z" transform="translate(-1157.569 -374.499)" fill="#2e3c4b"/>
      <path id="Path_2340" data-name="Path 2340" d="M1335.09,378.7l-2.822,7.387h-.5l-2.075-6.64-2.075,6.64h-.5L1324.3,378.7h.664l2.407,6.64,2.075-6.64h.5l2.075,6.557,2.407-6.557Z" transform="translate(-1159.456 -374.55)" fill="#2e3c4b"/>
      <path id="Path_2341" data-name="Path 2341" d="M1339.7,375.681a.581.581,0,1,1,.581.581A.567.567,0,0,1,1339.7,375.681Zm.249,2.407h.581v7.387h-.581Z" transform="translate(-1162.073 -373.938)" fill="#2e3c4b"/>
      <path id="Path_2342" data-name="Path 2342" d="M1345.956,378.68l-1.079.83v5.727h-.581v-5.312l-1,.83v-.5l1-.83V373.7h.581v5.229l1.079-.83Z" transform="translate(-1162.685 -373.7)" fill="#2e3c4b"/>
      <path id="Path_2343" data-name="Path 2343" d="M1355.421,378.649v7.387h-.5l-.083-1.909a3.266,3.266,0,0,1-3.071,1.992,3.606,3.606,0,0,1-3.569-3.818,3.668,3.668,0,0,1,3.486-3.9,3.309,3.309,0,0,1,3.071,1.992l.083-1.826h.581Zm-.5,3.652a3.042,3.042,0,1,0-6.059,0,3.177,3.177,0,0,0,3.071,3.32A3.066,3.066,0,0,0,1354.923,382.3Z" transform="translate(-1163.518 -374.499)" fill="#2e3c4b"/>
      <path id="Path_2344" data-name="Path 2344" d="M1365.9,384.642a2.352,2.352,0,0,0,2.075,1.079c1.162,0,1.909-.581,1.909-1.577,0-2.324-4.067-.913-4.15-3.652,0-1.245.913-1.992,2.324-1.992a3.057,3.057,0,0,1,2.158.83l-.332.415a2.164,2.164,0,0,0-1.826-.664c-1.079,0-1.743.581-1.743,1.494,0,2.241,4.15.83,4.15,3.652,0,1.328-1.079,2.075-2.573,2.075a3.109,3.109,0,0,1-2.49-1.162Z" transform="translate(-1166.441 -374.516)" fill="#2e3c4b"/>
      <path id="Path_2345" data-name="Path 2345" d="M1374.4,375.681a.581.581,0,1,1,.581.581A.567.567,0,0,1,1374.4,375.681Zm.249,2.407h.581v7.387h-.581Z" transform="translate(-1167.971 -373.938)" fill="#2e3c4b"/>
      <path id="Path_2346" data-name="Path 2346" d="M1379.264,382.218h0c0,1.992,1.162,3.486,3.154,3.486a2.894,2.894,0,0,0,2.407-1.079l.415.332a3.622,3.622,0,0,1-1.909,1.079l-.249.166c-1.66,1-1.079,2.49.332,1.826l.083.332a1.3,1.3,0,0,1-1.826-.332c-.249-.581,0-1.328.913-1.909h-.249a3.685,3.685,0,0,1-3.735-3.984,3.582,3.582,0,0,1,3.569-3.735,3.365,3.365,0,0,1,3.4,3.4v.332h-6.308Zm0-.5h5.727a2.73,2.73,0,0,0-2.822-2.739A2.971,2.971,0,0,0,1379.264,381.72Z" transform="translate(-1168.685 -374.499)" fill="#2e3c4b"/>
    </g>
    <g id="Group_432" data-name="Group 432" transform="translate(1143.654 343.882)">
      <path id="Path_2347" data-name="Path 2347" d="M1169.09,402.7l-2.822,7.387h-.5l-2.075-6.64-2.075,6.64h-.5L1158.3,402.7h.664l2.407,6.64,2.075-6.64h.5l2.075,6.557,2.407-6.557Z" transform="translate(-1158.3 -398.467)" fill="#2e3c4b"/>
      <path id="Path_2348" data-name="Path 2348" d="M1184.58,409.237l-4.4-3.984v3.984h-.581V397.7h.581v7.387l3.9-3.237h.83l-3.984,3.32,4.482,4.067Z" transform="translate(-1161.92 -397.617)" fill="#2e3c4b"/>
      <path id="Path_2349" data-name="Path 2349" d="M1188.3,406.3a3.819,3.819,0,1,1,7.636,0,3.818,3.818,0,1,1-7.636,0Zm7.055,0a3.238,3.238,0,1,0-3.237,3.32A3.161,3.161,0,0,0,1195.355,406.3Z" transform="translate(-1163.399 -398.416)" fill="#2e3c4b"/>
      <path id="Path_2350" data-name="Path 2350" d="M1210.809,405.654v4.4h-.581v-4.4c0-1.66-.664-2.656-2.075-2.656-1.245,0-2.075,1-2.158,2.739v4.316h-.581v-4.482c0-1.494-.747-2.573-2.075-2.573-1.162,0-1.992,1-2.158,2.656v4.4h-.581v-7.387h.5l.083,1.577a2.364,2.364,0,0,1,2.324-1.743,2.53,2.53,0,0,1,2.407,1.909,2.34,2.34,0,0,1,2.49-1.909C1209.481,402.5,1210.809,403.164,1210.809,405.654Z" transform="translate(-1165.49 -398.433)" fill="#2e3c4b"/>
      <path id="Path_2351" data-name="Path 2351" d="M1216.364,406.218h0c0,1.992,1.162,3.486,3.154,3.486a2.894,2.894,0,0,0,2.407-1.079l.415.332a4.059,4.059,0,0,1-2.905,1.162,3.685,3.685,0,0,1-3.735-3.984,3.582,3.582,0,0,1,3.569-3.735,3.365,3.365,0,0,1,3.4,3.4v.332h-6.308Zm0-.5h5.727a2.73,2.73,0,0,0-2.822-2.739A2.971,2.971,0,0,0,1216.364,405.72Z" transform="translate(-1168.056 -398.416)" fill="#2e3c4b"/>
      <path id="Path_2352" data-name="Path 2352" d="M1233.721,397.683V409.22h-.5l-.083-1.909a3.266,3.266,0,0,1-3.071,1.992,3.606,3.606,0,0,1-3.569-3.818,3.668,3.668,0,0,1,3.486-3.9,3.4,3.4,0,0,1,3.071,1.992V397.6h.664Zm-.5,7.8a3.042,3.042,0,1,0-6.059,0,3.177,3.177,0,0,0,3.071,3.32C1231.978,408.888,1233.223,407.394,1233.223,405.485Z" transform="translate(-1169.892 -397.6)" fill="#2e3c4b"/>
      <path id="Path_2353" data-name="Path 2353" d="M1238.6,399.681a.581.581,0,1,1,.581.581A.567.567,0,0,1,1238.6,399.681Zm.249,2.407h.581v7.387h-.581Z" transform="translate(-1171.948 -397.855)" fill="#2e3c4b"/>
      <path id="Path_2354" data-name="Path 2354" d="M1243.3,399.681a.581.581,0,1,1,.581.581A.567.567,0,0,1,1243.3,399.681Zm.166,2.407h.581v7.387h-.581Z" transform="translate(-1172.747 -397.855)" fill="#2e3c4b"/>
      <path id="Path_2355" data-name="Path 2355" d="M1261.553,408.875v.581H1254v-.5l6.474-9.877h-6.225V398.5h7.055v.5l-6.557,9.877Z" transform="translate(-1174.566 -397.753)" fill="#2e3c4b"/>
      <path id="Path_2356" data-name="Path 2356" d="M1272.021,402.649v7.387h-.5l-.083-1.909a3.266,3.266,0,0,1-3.071,1.992,3.606,3.606,0,0,1-3.569-3.818,3.668,3.668,0,0,1,3.486-3.9,3.309,3.309,0,0,1,3.071,1.992l.083-1.826h.581Zm-.5,3.652a3.042,3.042,0,1,0-2.988,3.32A3.017,3.017,0,0,0,1271.523,406.3Z" transform="translate(-1176.402 -398.416)" fill="#2e3c4b"/>
      <path id="Path_2357" data-name="Path 2357" d="M1281.88,409.237l-4.4-3.984v3.984h-.581V397.7h.581v7.387l3.9-3.237h.83l-3.984,3.32,4.482,4.067Z" transform="translate(-1178.458 -397.617)" fill="#2e3c4b"/>
      <path id="Path_2358" data-name="Path 2358" d="M1285.6,406.3a3.827,3.827,0,0,1,3.818-3.9,3.86,3.86,0,0,1,0,7.719A3.707,3.707,0,0,1,1285.6,406.3Zm7.055,0a3.238,3.238,0,1,0-3.237,3.32A3.161,3.161,0,0,0,1292.655,406.3Z" transform="translate(-1179.937 -398.416)" fill="#2e3c4b"/>
      <path id="Path_2359" data-name="Path 2359" d="M1297.3,406.318a3.64,3.64,0,0,1,3.735-3.818,4.017,4.017,0,0,1,2.407.83l-.332.415a2.692,2.692,0,0,0-1.992-.747,3.142,3.142,0,0,0-3.154,3.32,3.051,3.051,0,0,0,3.154,3.32,2.692,2.692,0,0,0,1.992-.747l.332.415a4.017,4.017,0,0,1-2.407.83A3.551,3.551,0,0,1,1297.3,406.318Z" transform="translate(-1181.926 -398.433)" fill="#2e3c4b"/>
      <path id="Path_2360" data-name="Path 2360" d="M1313.276,404.921v4.316h-.581V405c0-1.909-.913-2.822-2.324-2.822s-2.407,1.079-2.49,2.822v4.233h-.581V397.7h.581v5.727a2.619,2.619,0,0,1,2.573-1.826C1311.782,401.684,1313.276,402.348,1313.276,404.921Z" transform="translate(-1183.625 -397.617)" fill="#2e3c4b"/>
      <path id="Path_2361" data-name="Path 2361" d="M1324.521,402.649v7.387h-.5l-.083-1.909a3.266,3.266,0,0,1-3.071,1.992,3.606,3.606,0,0,1-3.569-3.818,3.668,3.668,0,0,1,3.486-3.9,3.309,3.309,0,0,1,3.071,1.992l.083-1.826h.581Zm-.5,3.652a3.042,3.042,0,1,0-2.988,3.32A3.017,3.017,0,0,0,1324.023,406.3Z" transform="translate(-1185.325 -398.416)" fill="#2e3c4b"/>
      <path id="Path_2362" data-name="Path 2362" d="M1335.276,405.72v4.316h-.581V405.8c0-1.909-1-2.822-2.324-2.822a2.511,2.511,0,0,0-2.49,2.573v4.482h-.581v-7.387h.5l.083,1.577a2.694,2.694,0,0,1,2.573-1.826C1333.865,402.483,1335.276,403.147,1335.276,405.72Z" transform="translate(-1187.365 -398.416)" fill="#2e3c4b"/>
      <path id="Path_2363" data-name="Path 2363" d="M1339.8,399.681a.581.581,0,1,1,.581.581A.567.567,0,0,1,1339.8,399.681Zm.249,2.407h.581v7.387h-.581Z" transform="translate(-1189.149 -397.855)" fill="#2e3c4b"/>
      <path id="Path_2364" data-name="Path 2364" d="M1344.7,412.956a1.822,1.822,0,0,0,1-1.577.592.592,0,0,1-.83-.5.524.524,0,0,1,.581-.581c.5,0,.747.5.664,1.079a2.215,2.215,0,0,1-1.328,1.826Z" transform="translate(-1189.982 -399.759)" fill="#2e3c4b"/>
    </g>
    <g id="Group_433" data-name="Group 433" transform="translate(1139.587 363.885)">
      <path id="Path_2365" data-name="Path 2365" d="M1164.19,426.7l-2.822,7.387h-.5l-2.075-6.64-2.075,6.64h-.5L1153.4,426.7h.664l2.407,6.64,2.075-6.64h.5l2.075,6.557,2.407-6.557Z" transform="translate(-1153.4 -422.55)" fill="#2e3c4b"/>
      <path id="Path_2366" data-name="Path 2366" d="M1179.58,433.237l-4.4-3.984v3.984h-.581V421.7h.581v7.387l3.9-3.237h.83l-3.984,3.32,4.482,4.067Z" transform="translate(-1157.003 -421.7)" fill="#2e3c4b"/>
      <path id="Path_2367" data-name="Path 2367" d="M1186.869,426.739h-1.909v6.889h-.581v-6.889H1183.3v-.5h1.079V424h.581v2.241h1.909Z" transform="translate(-1158.482 -422.091)" fill="#2e3c4b"/>
      <path id="Path_2368" data-name="Path 2368" d="M1189.5,429.587a3.819,3.819,0,1,1,7.636,0,3.818,3.818,0,1,1-7.636,0Zm7.055,0a3.238,3.238,0,1,0-3.237,3.32A3.161,3.161,0,0,0,1196.555,429.587Zm-3.984-4.98h-.249l2.158-2.407.581.083-1.743,1.743C1192.9,424.524,1192.737,424.607,1192.571,424.607Z" transform="translate(-1159.536 -421.785)" fill="#2e3c4b"/>
      <path id="Path_2369" data-name="Path 2369" d="M1204.871,426.583l-.083.581c-.166,0-.332-.083-.5-.083-1.162,0-1.909.913-1.909,2.324v4.648h-.581v-7.387h.5l.083,1.494a2.217,2.217,0,0,1,2.075-1.66A.9.9,0,0,1,1204.871,426.583Z" transform="translate(-1161.626 -422.516)" fill="#2e3c4b"/>
      <path id="Path_2370" data-name="Path 2370" d="M1207.464,430.218h0c0,1.992,1.162,3.486,3.154,3.486a2.894,2.894,0,0,0,2.407-1.079l.415.332a4.059,4.059,0,0,1-2.905,1.162,3.685,3.685,0,0,1-3.735-3.984,3.582,3.582,0,0,1,3.569-3.735,3.365,3.365,0,0,1,3.4,3.4v.332h-6.308Zm0-.5h5.727a2.73,2.73,0,0,0-2.822-2.739A2.971,2.971,0,0,0,1207.464,429.72Z" transform="translate(-1162.476 -422.499)" fill="#2e3c4b"/>
      <path id="Path_2371" data-name="Path 2371" d="M1216.7,437.045v-.5c1.411.166,1.909-.5,1.909-1.743v-8.632h.581V434.8A2.011,2.011,0,0,1,1216.7,437.045Zm1.66-13.364a.581.581,0,1,1,.581.581A.567.567,0,0,1,1218.36,423.681Z" transform="translate(-1164.159 -421.938)" fill="#2e3c4b"/>
      <path id="Path_2372" data-name="Path 2372" d="M1229,427.961a5.39,5.39,0,0,1,5.478-5.561,6.6,6.6,0,0,1,3.154.83l-.332.5a5.036,5.036,0,1,0-2.822,9.3,5.144,5.144,0,0,0,2.822-.83l.332.5a5.641,5.641,0,0,1-3.154.913A5.562,5.562,0,0,1,1229,427.961Z" transform="translate(-1166.25 -421.819)" fill="#2e3c4b"/>
      <path id="Path_2373" data-name="Path 2373" d="M1242.064,430.218h0c0,1.992,1.162,3.486,3.154,3.486a2.894,2.894,0,0,0,2.407-1.079l.415.332a4.059,4.059,0,0,1-2.905,1.162,3.685,3.685,0,0,1-3.735-3.984,3.582,3.582,0,0,1,3.569-3.735,3.365,3.365,0,0,1,3.4,3.4v.332h-6.308Zm.083-.5h5.727a2.73,2.73,0,0,0-2.822-2.739A2.912,2.912,0,0,0,1242.147,429.72Z" transform="translate(-1168.357 -422.499)" fill="#2e3c4b"/>
      <path id="Path_2374" data-name="Path 2374" d="M1258.293,433.589v.5H1252.4v-.5l4.98-6.391h-4.731v-.5h5.4v.5l-4.9,6.391Z" transform="translate(-1170.227 -422.55)" fill="#2e3c4b"/>
      <path id="Path_2375" data-name="Path 2375" d="M1269.021,426.649v7.387h-.5l-.083-1.909a3.266,3.266,0,0,1-3.071,1.992,3.606,3.606,0,0,1-3.569-3.818,3.668,3.668,0,0,1,3.486-3.9,3.309,3.309,0,0,1,3.071,1.992l.083-1.826h.581Zm-.5,3.652a3.042,3.042,0,1,0-6.059,0,3.177,3.177,0,0,0,3.071,3.32C1267.278,433.7,1268.523,432.21,1268.523,430.3Z" transform="translate(-1171.825 -422.499)" fill="#2e3c4b"/>
      <path id="Path_2376" data-name="Path 2376" d="M1277.171,426.583l-.083.581c-.166,0-.332-.083-.5-.083-1.162,0-1.909.913-1.909,2.324v4.648h-.581v-7.387h.5l.083,1.494a2.217,2.217,0,0,1,2.075-1.66A.9.9,0,0,1,1277.171,426.583Z" transform="translate(-1173.915 -422.516)" fill="#2e3c4b"/>
      <path id="Path_2377" data-name="Path 2377" d="M1286.272,426.7l-4.814,10.956h-.664l1.66-3.735L1279.3,426.7h.664l2.739,6.557,2.822-6.557Z" transform="translate(-1174.799 -422.55)" fill="#2e3c4b"/>
      <path id="Path_2378" data-name="Path 2378" d="M1302.393,425.488a3.052,3.052,0,0,1-3.32,2.988h-1.992v4.9h-.581V422.5h2.573C1300.65,422.583,1302.393,423.5,1302.393,425.488Zm-.664,0c0-1.577-1.162-2.49-2.905-2.49h-1.743v4.9h1.743C1300.567,427.978,1301.729,427.065,1301.729,425.488Z" transform="translate(-1177.722 -421.836)" fill="#2e3c4b"/>
      <path id="Path_2379" data-name="Path 2379" d="M1312.821,426.649v7.387h-.5l-.083-1.909a3.266,3.266,0,0,1-3.071,1.992,3.606,3.606,0,0,1-3.569-3.818,3.668,3.668,0,0,1,3.486-3.9,3.309,3.309,0,0,1,3.071,1.992l.083-1.826h.581Zm-.5,3.652a3.042,3.042,0,1,0-2.988,3.32A3.017,3.017,0,0,0,1312.323,430.3Z" transform="translate(-1179.269 -422.499)" fill="#2e3c4b"/>
      <path id="Path_2380" data-name="Path 2380" d="M1323.193,433.589v.5H1317.3v-.5l4.98-6.391h-4.731v-.5h5.4v.5l-4.9,6.391Z" transform="translate(-1181.258 -422.55)" fill="#2e3c4b"/>
      <path id="Path_2381" data-name="Path 2381" d="M1327.2,431.1v-4.4h.581v4.4c0,1.66.83,2.656,2.407,2.656a2.341,2.341,0,0,0,2.407-2.656v-4.4h.581v4.4c0,2.49-1.577,3.154-2.905,3.154C1328.777,434.336,1327.2,433.589,1327.2,431.1Z" transform="translate(-1182.94 -422.55)" fill="#2e3c4b"/>
      <path id="Path_2382" data-name="Path 2382" d="M1340.871,426.583l-.083.581c-.166,0-.332-.083-.5-.083-1.162,0-1.909.913-1.909,2.324v4.648h-.581v-7.387h.5l.083,1.494a2.217,2.217,0,0,1,2.075-1.66A.9.9,0,0,1,1340.871,426.583Z" transform="translate(-1184.742 -422.516)" fill="#2e3c4b"/>
      <path id="Path_2383" data-name="Path 2383" d="M1350.021,426.649v7.387h-.5l-.083-1.909a3.266,3.266,0,0,1-3.071,1.992,3.606,3.606,0,0,1-3.569-3.818,3.668,3.668,0,0,1,3.486-3.9,3.309,3.309,0,0,1,3.071,1.992l.083-1.826h.581Zm-.5,3.652a3.042,3.042,0,1,0-6.059,0,3.177,3.177,0,0,0,3.071,3.32A3.066,3.066,0,0,0,1349.523,430.3Z" transform="translate(-1185.592 -422.499)" fill="#2e3c4b"/>
    </g>
    <g id="Group_434" data-name="Group 434" transform="translate(1174.199 383.806)">
      <path id="Path_2384" data-name="Path 2384" d="M1203.151,450.132V457.1c0,2.905-1.411,4.316-3.984,4.316a6.073,6.073,0,0,1-1.826-.249l.415-1.66a3.759,3.759,0,0,0,1.328.249c1.577,0,2.075-1,2.075-2.822a3.132,3.132,0,0,1-2.49,1c-1.992,0-3.569-1.494-3.569-4.067s1.577-4.067,3.569-4.067a3.292,3.292,0,0,1,2.573,1.162l.249-1h1.66Zm-1.826,3.9a2.134,2.134,0,1,0-4.233,0,2.079,2.079,0,0,0,2.075,2.324A2.138,2.138,0,0,0,1201.325,454.033Z" transform="translate(-1195.1 -446.397)" fill="#2e3c4b"/>
      <path id="Path_2385" data-name="Path 2385" d="M1212.68,450.066l-.332,1.909a2.061,2.061,0,0,0-.747-.083c-1.162,0-1.909.83-1.909,2.241v3.818H1207.7v-7.8h1.743l.249,1.079a2.6,2.6,0,0,1,2.075-1.328A5.423,5.423,0,0,0,1212.68,450.066Z" transform="translate(-1197.242 -446.414)" fill="#2e3c4b"/>
      <path id="Path_2386" data-name="Path 2386" d="M1222.751,450.166v7.8h-1.66l-.249-1a3.052,3.052,0,0,1-2.573,1.162c-1.992,0-3.569-1.494-3.569-4.067s1.577-4.067,3.569-4.067a3.292,3.292,0,0,1,2.573,1.162l.249-1h1.66Zm-1.826,3.9a2.134,2.134,0,1,0-2.158,2.407A2.165,2.165,0,0,0,1220.925,454.067Z" transform="translate(-1198.431 -446.431)" fill="#2e3c4b"/>
      <path id="Path_2387" data-name="Path 2387" d="M1232.9,445.7h1.992v11.537H1232.9Z" transform="translate(-1201.525 -445.7)" fill="#2e3c4b"/>
      <path id="Path_2388" data-name="Path 2388" d="M1246.051,450.166v7.8h-1.66l-.249-1a3.052,3.052,0,0,1-2.573,1.162c-1.992,0-3.569-1.494-3.569-4.067s1.577-4.067,3.569-4.067a3.292,3.292,0,0,1,2.573,1.162l.249-1h1.66Zm-1.826,3.9a2.134,2.134,0,1,0-2.158,2.407A2.211,2.211,0,0,0,1244.225,454.067Z" transform="translate(-1202.392 -446.431)" fill="#2e3c4b"/>
      <path id="Path_2389" data-name="Path 2389" d="M1255.263,451.318h-1.909v6.225h-1.992v-6.225H1250.2v-1.577h1.162V447.5h1.992v2.241h1.909Z" transform="translate(-1204.465 -446.006)" fill="#2e3c4b"/>
      <path id="Path_2390" data-name="Path 2390" d="M1265.851,450.166v7.8h-1.66l-.249-1a3.052,3.052,0,0,1-2.573,1.162c-1.992,0-3.569-1.494-3.569-4.067s1.577-4.067,3.569-4.067a3.292,3.292,0,0,1,2.573,1.162l.249-1h1.66Zm-1.826,3.9a2.134,2.134,0,1,0-2.158,2.407A2.165,2.165,0,0,0,1264.025,454.067Z" transform="translate(-1205.757 -446.431)" fill="#2e3c4b"/>
      <path id="Path_2391" data-name="Path 2391" d="M1275.38,450.066l-.332,1.909a2.061,2.061,0,0,0-.747-.083c-1.162,0-1.909.83-1.909,2.241v3.818H1270.4v-7.8h1.743l.249,1.079a2.6,2.6,0,0,1,2.075-1.328C1274.965,449.983,1275.214,450.066,1275.38,450.066Z" transform="translate(-1207.899 -446.414)" fill="#2e3c4b"/>
      <path id="Path_2392" data-name="Path 2392" d="M1285.5,453.17v4.814h-1.992v-4.316c0-1.162-.5-1.909-1.577-1.909a1.726,1.726,0,0,0-1.743,1.743v4.565H1278.2v-7.8h1.743l.249.913a2.894,2.894,0,0,1,2.407-1.079C1283.927,450.016,1285.5,450.763,1285.5,453.17Z" transform="translate(-1209.224 -446.447)" fill="#2e3c4b"/>
      <path id="Path_2393" data-name="Path 2393" d="M1289.8,447.062a1.187,1.187,0,0,1,1.162-1.162,1.135,1.135,0,0,1,1.162,1.162,1.162,1.162,0,1,1-2.324,0Zm.249,2.407h1.992v7.8h-1.992Z" transform="translate(-1211.196 -445.734)" fill="#2e3c4b"/>
      <path id="Path_2394" data-name="Path 2394" d="M1300.946,457.237l-3.154-3.569v3.569H1295.8V445.7h1.992v6.64l2.739-2.905h2.573L1299.618,453l3.984,4.233Z" transform="translate(-1212.216 -445.7)" fill="#2e3c4b"/>
      <path id="Path_2395" data-name="Path 2395" d="M1314.451,450.166v7.8h-1.66l-.249-1a3.052,3.052,0,0,1-2.573,1.162c-1.992,0-3.569-1.494-3.569-4.067s1.577-4.067,3.569-4.067a3.292,3.292,0,0,1,2.573,1.162l.249-1h1.66Zm-1.826,3.9a2.134,2.134,0,1,0-2.158,2.407A2.165,2.165,0,0,0,1312.625,454.067Z" transform="translate(-1214.017 -446.431)" fill="#2e3c4b"/>
    </g>
    <g id="czołpino" transform="translate(1186.42 156.46)">
      <path id="Path_1977" d="M1239.338,305.017c-7.138,0-21.581-1.328-23.49-3.071a.457.457,0,0,1-.249-.415h0c-.083-1,1.411-25.648,2.739-47.395,1-16.684,1.909-32.454,1.909-32.869a11.9,11.9,0,0,0-1.909-1.66,1.148,1.148,0,0,1-.332-.249c-.249-.166-.332-.747-.415-1.66-.083-1.328,0-3.486.415-3.984.664-.747,16.933-.332,22-.083,3.071.166,8.051.083,12.45-.083,6.723-.166,8.383-.166,8.549.166.332.415-.083,2.241-.664,4.731v.083a2.414,2.414,0,0,1-1.162,1.411,4.446,4.446,0,0,0-1.245,1.245c.415,3.9,8.964,78.6,7.221,80.928-1.411,1.909-10.458,2.158-17.763,2.49-2.158.083-4.15.166-5.644.249A11.346,11.346,0,0,1,1239.338,305.017Zm-14.359-91.387c-3.735,0-6.557.083-6.889.332a9.829,9.829,0,0,0-.332,3.652c.083,1,.249,1.328.332,1.411a1.146,1.146,0,0,0,.332.249c1.245,1,1.992,1.577,2.075,1.909.083.166-.415,7.553-1.909,33.035-1.328,21.747-2.739,46.4-2.739,47.312a.178.178,0,0,0,.166.166c1.992,1.743,19.589,3.32,25.565,2.905,1.494-.083,3.486-.166,5.644-.249,6.806-.249,16.186-.581,17.514-2.324,1.411-1.909-4.731-58.932-7.3-80.762V221.1a4.344,4.344,0,0,1,1.328-1.411,2.12,2.12,0,0,0,1-1.245v-.083c.664-2.656.913-4.15.747-4.4a82.691,82.691,0,0,0-8.3,0c-4.4.083-9.462.249-12.533.083C1235.852,213.8,1229.71,213.63,1224.979,213.63Z" transform="translate(-1210.804 -178.852)" fill="#2e3c4b"/>
      <path id="Path_1978" d="M1241.941,184.794c-3.237,0-12.45-.249-12.948-1.328h0a.365.365,0,0,1,.083-.415c1.079-1.66,10.873-8.051,13.364-8.051h.083c2.324.083,11.454,6.059,12.367,8.051a.709.709,0,0,1,0,.581c-.747,1-5.478,1.079-11.039,1.162h-1.909Zm-12.616-1.494c.415.581,7.968,1.162,13.115,1.079h1.494c3.984,0,10.043-.083,10.707-1v-.249c-.83-1.909-9.877-7.719-12.118-7.8-1-.083-3.9,1.328-7.47,3.569C1231.4,181.225,1229.408,182.968,1229.325,183.3Z" transform="translate(-1213.076 -172.344)" fill="#2e3c4b"/>
      <rect id="Rectangle_178" width="0.332" height="15.024" transform="translate(16.045 11.202) rotate(-0.656)" fill="#2e3c4b"/>
      <rect id="Rectangle_179" width="0.332" height="14.858" transform="translate(41.446 11.12) rotate(-0.688)" fill="#2e3c4b"/>
      <path id="Path_1979" d="M1261.352,213.131l-.332-.083a8.561,8.561,0,0,0,.249-3.32c-.415-.166-7.387-.083-12.533,0-3.486,0-6.474.083-7.553.083-.581,0-1.743-.083-3.32-.083-5.478-.166-18.261-.664-19.257-.332a18.721,18.721,0,0,0,0,3.735h-.332a15.988,15.988,0,0,1,0-3.984c.166-.332,3.237-.415,19.506.166,1.577.083,2.739.083,3.32.083,1.079,0,4.067,0,7.553-.083,8.715-.083,12.45-.083,12.7.083C1261.933,209.728,1261.518,212.135,1261.352,213.131Z" transform="translate(-1211.237 -178.104)" fill="#2e3c4b"/>
      <path id="Path_1980" d="M1227.557,223.627h-2.49v-.166s0-2.905-.913-3.818a.942.942,0,0,0-.664-.249c-1.577,0-2.158,2.822-2.158,2.905l-.332-.083c0-.166.581-3.154,2.49-3.154a1.332,1.332,0,0,1,.913.415c.913.913,1,3.237,1,3.9h1.909c.083-.83.5-4.233,2.407-4.482a1.307,1.307,0,0,1,1.079.332c1,.83,1.162,3.237,1.162,3.984l1.909-.083c-.083-.664-.249-2.656.415-3.486a.9.9,0,0,1,.747-.332c1.577,0,2.158,2.822,2.324,3.569l1.411.083c0-.664.166-2.822,1.162-3.652a1.307,1.307,0,0,1,1.079-.332c1,.083,1,2.822,1,3.735l2.407.249c.083-.83.415-3.9,2.241-3.984a1.448,1.448,0,0,1,1,.332c1,.913,1.162,3.237,1.162,3.9h1.162c.083-.83.415-4.15,1.743-4.233,1.245-.083,1.992,3.237,2.075,4.067h1.992c.083-1.411.249-4.15,1-4.15h0c1.411,0,1.826,3.237,1.909,3.569l-.332.083c-.083-.913-.581-3.237-1.577-3.237h0c-.249,0-.581,1.743-.664,3.984v.166h-2.656v-.166c-.249-1.577-.913-3.984-1.743-3.9s-1.328,2.49-1.411,4.067v.166h-1.909v-.5s-.083-2.822-1.079-3.818a1.015,1.015,0,0,0-.747-.249c-1.743.083-1.909,3.818-1.909,3.818v.166l-3.154-.332v-.166c.083-1.411-.083-3.486-.664-3.486a1.4,1.4,0,0,0-.83.249c-1,.913-1,3.569-1,3.569v.166l-1.992-.083V222.8c-.166-.913-.747-3.4-1.992-3.4a.592.592,0,0,0-.5.249c-.747.83-.332,3.4-.332,3.4v.166l-2.656.166v-.166s0-2.988-1.079-3.9a1.158,1.158,0,0,0-.747-.249c-1.826.249-2.158,4.316-2.158,4.316v.249Z" transform="translate(-1211.723 -179.801)" fill="#2e3c4b"/>
      <path id="Path_1981" d="M1240.487,321.424c0-.249-.581-6.889,1.826-9.3a2.817,2.817,0,0,1,2.241-.83c1.992.166,3.4,1.909,4.067,5.146a18.581,18.581,0,0,1,.415,4.814h-.332c0-.083.249-9.3-4.233-9.545a2.336,2.336,0,0,0-1.909.747c-2.241,2.241-1.66,8.964-1.66,8.964Z" transform="translate(-1215.025 -195.508)" fill="#2e3c4b"/>
      <path id="Path_1982" d="M1230.729,292.163h-3.735V292c0-.166-.249-3.071.747-4.316a1.736,1.736,0,0,1,1.079-.581,1.375,1.375,0,0,1,1.079.415c1.162,1.162.83,4.4.83,4.565Zm-3.4-.332h3.071c0-.664.083-3.237-.747-4.067a.837.837,0,0,0-.747-.249,1.152,1.152,0,0,0-.83.415C1227.243,288.843,1227.326,291.167,1227.326,291.831Z" transform="translate(-1212.737 -191.397)" fill="#2e3c4b"/>
      <path id="Path_1983" d="M1264.5,299.376h-3.9v-.166c0-.581-.166-5.727,1.826-5.81a1.066,1.066,0,0,1,.83.332c1.245,1.162,1.245,5.312,1.245,5.478Zm-3.486-.415h3.154c0-.83-.083-4.15-1.079-5.063a.753.753,0,0,0-.581-.249c-1.328.166-1.577,3.735-1.494,5.312Z" transform="translate(-1218.453 -192.468)" fill="#2e3c4b"/>
      <path id="Path_1984" d="M1231.116,245.874H1226.8v-.166c0-.166.166-4.9,1.411-6.059a.943.943,0,0,1,.664-.249c1.826.083,2.241,5.644,2.241,6.308Zm-3.9-.332h3.569c-.083-1.743-.664-5.727-1.909-5.81a.634.634,0,0,0-.415.166c-1,1-1.245,4.814-1.245,5.644Z" transform="translate(-1212.709 -183.29)" fill="#2e3c4b"/>
      <path id="Path_1985" d="M1261.432,252.536h-3.652v-.166c0-.166-.5-4.565.747-5.727a1.091,1.091,0,0,1,1-.249c2.324.415,1.992,5.81,1.909,6.059Zm-3.237-.332h2.988c.083-.913.166-5.146-1.66-5.478a.646.646,0,0,0-.664.166C1257.78,247.8,1258.112,251.374,1258.195,252.2Z" transform="translate(-1217.958 -184.473)" fill="#2e3c4b"/>
      <rect id="Rectangle_180" width="0.332" height="14.111" transform="translate(18.669 11.795) rotate(-2.556)" fill="#2e3c4b"/>
      <rect id="Rectangle_181" width="13.779" height="0.332" transform="translate(22.625 26.114) rotate(-88.552)" fill="#2e3c4b"/>
      <rect id="Rectangle_182" width="0.332" height="13.862" transform="translate(26.999 12.3) rotate(-1.838)" fill="#2e3c4b"/>
      <rect id="Rectangle_183" width="0.332" height="13.613" transform="translate(32.103 12.284)" fill="#2e3c4b"/>
      <rect id="Rectangle_184" width="0.332" height="13.696" transform="translate(35.063 12.129) rotate(-1.244)" fill="#2e3c4b"/>
      <rect id="Rectangle_185" width="0.332" height="13.779" transform="matrix(0.997, -0.077, 0.077, 0.997, 37.469, 12.072)" fill="#2e3c4b"/>
      <path id="Path_1986" d="M1244.511,174.788a.61.61,0,0,1-.5-.166c-.332-.249-.332-.664-.415-1.328a1.385,1.385,0,0,1,1.245-1.494h.083c.83.083,1.577.249,1.577,1.328,0,.913-.5,1.411-1.577,1.66Zm.415-2.573a1,1,0,0,0-1,1.079c.083.581.083,1,.332,1.079q.125.125.747,0c.913-.166,1.245-.5,1.245-1.328C1246.172,172.547,1245.839,172.381,1244.926,172.215Z" transform="translate(-1215.563 -171.8)" fill="#2e3c4b"/>
      <path id="Path_1987" d="M1270.083,185.656l-.083-.332,8.217-2.324.083.332Z" transform="translate(-1220.052 -173.704)" fill="#2e3c4b"/>
      <rect id="Rectangle_186" width="4.814" height="0.332" transform="translate(53.352 17.597)" fill="#2e3c4b"/>
      <rect id="Rectangle_187" width="0.332" height="5.229" transform="matrix(0.456, -0.89, 0.89, 0.456, 51.009, 22.726)" fill="#2e3c4b"/>
      <path id="Path_1988" d="M1218.193,185.82c-.747-.581-5.893-2.988-5.893-2.988l.166-.332a50.653,50.653,0,0,1,5.976,3.071Z" transform="translate(-1210.244 -173.619)" fill="#2e3c4b"/>
      <path id="Path_1989" d="M1211.1,192.881v-.332l6.391-.249v.332Z" transform="translate(-1210.04 -175.284)" fill="#2e3c4b"/>
      <rect id="Rectangle_188" width="5.561" height="0.332" transform="matrix(0.904, -0.427, 0.427, 0.904, 0, 25.932)" fill="#2e3c4b"/>
      <path id="Path_1990" d="M1255.561,212.145h0a.179.179,0,0,1-.166-.166h0c.083-3.154.083-8.051-.166-8.549-.415-.5-7.387-.5-12.948-.166a68.265,68.265,0,0,1-7.138-.083c-2.49-.083-5.229-.249-5.478.166-.581.913-.166,6.308,0,8.3a.166.166,0,1,1-.332,0h0c0-.332-.747-7.3,0-8.549.332-.5,2.158-.5,5.81-.332a68.005,68.005,0,0,0,7.138.083c.166,0,12.616-.747,13.281.332.415.747.249,7.968.249,8.715q-.125.249-.249.249Z" transform="translate(-1213.083 -177.034)"/>
    </g>
    <g id="Group_290" transform="translate(1231.907 193.887)">
      <g id="Group_276" transform="translate(0 20.737)">
        <path id="Path_1991" d="M1273.283,242.1c-1.743.5-7.968,28.221-8.383,28.968s36.936,14.609,38.846,13.862,11.786-32.122,11.039-33.533S1275.109,241.6,1273.283,242.1Z" transform="translate(-1264.671 -241.909)" fill="#f2edeb"/>
        <path id="Path_1992" d="M1303.533,285.14c-2.324,0-15.521-4.731-19.672-6.225-8.881-3.237-18.593-7.055-19.174-7.719a.156.156,0,0,1,0-.249c.166-.249.83-3.071,1.66-6.391,2.905-11.786,5.644-22.328,6.806-22.66l.083.166-.083-.166c1-.249,11.454,1.743,21.249,3.9,4.648,1,19.921,4.482,20.419,5.478.581,1.245-5.229,20.336-8.632,28.968-1.577,4.067-2.158,4.648-2.49,4.731C1303.7,285.14,1303.616,285.14,1303.533,285.14Zm-38.513-14.111c.747.664,9.3,3.984,18.925,7.553,11.04,3.984,18.925,6.474,19.672,6.225.166-.083.747-.664,2.324-4.565,3.818-9.545,9.13-27.806,8.715-28.719-.415-.581-8.715-2.739-20.336-5.312-10.956-2.407-20.17-4.15-21-3.9h0c-1.079.332-4.814,15.273-6.64,22.411A59.415,59.415,0,0,1,1265.019,271.03Z" transform="translate(-1264.625 -241.875)" fill="#2e3c4b"/>
      </g>
      <path id="Path_1993" d="M1318.733,247.444a1.413,1.413,0,0,1-.581-.083c-.747-.332-8.881-6.391-16.933-12.7-7.221-5.644-15.854-12.616-16.02-13.779h0c-.083-.747,3.4-3.4,4.9-3.9a.838.838,0,0,1,.913.083c.166.249,3.735,3.071,7.8,6.308,16.269,12.866,24.486,19.589,23.988,20.5C1322.219,244.788,1320.393,247.444,1318.733,247.444ZM1285.615,220.8c.083.83,5.976,5.893,15.854,13.53,7.8,6.142,16.1,12.284,16.85,12.616,1.245.581,3.4-1.909,4.15-3.4,0-1.162-15.521-13.447-23.9-20.087-5.146-4.15-7.719-6.059-7.885-6.391a.772.772,0,0,0-.5,0c-1.494.664-4.565,3.237-4.565,3.735Z" transform="translate(-1268.122 -216.891)" fill="#2e3c4b"/>
      <g id="Group_277" transform="translate(19.568 4.281)">
        <line id="Line_1005" y1="1.992" x2="8.383" transform="translate(0 0.126)" fill="none"/>
        <rect id="Rectangle_189" width="8.632" height="0.332" transform="translate(0.035 1.979) rotate(-13.255)" fill="#2e3c4b"/>
      </g>
      <g id="Group_278" transform="translate(23.731 8.282)">
        <line id="Line_1006" y1="1.577" x2="9.213" transform="translate(0.07 0.192)" fill="none"/>
        <rect id="Rectangle_190" width="9.379" height="0.332" transform="translate(0 1.601) rotate(-9.829)" fill="#2e3c4b"/>
      </g>
      <g id="Group_279" transform="translate(30.105 12.294)">
        <line id="Line_1007" y1="2.739" x2="7.885" transform="translate(0.087 0.164)" fill="none"/>
        <rect id="Rectangle_191" width="8.3" height="0.332" transform="translate(0 2.752) rotate(-19.366)" fill="#2e3c4b"/>
      </g>
      <g id="Group_280" transform="translate(35.077 16.346)">
        <line id="Line_1008" y1="2.573" x2="8.051" transform="translate(0.013 0.179)" fill="none"/>
        <rect id="Rectangle_192" width="8.383" height="0.332" transform="translate(0 2.54) rotate(-17.638)" fill="#2e3c4b"/>
      </g>
      <g id="Group_281" transform="translate(40.725 20.089)">
        <line id="Line_1009" y1="3.154" x2="6.806" transform="translate(0.092 0.171)" fill="none"/>
        <rect id="Rectangle_193" width="7.553" height="0.332" transform="matrix(0.908, -0.42, 0.42, 0.908, 0, 3.17)" fill="#2e3c4b"/>
      </g>
      <g id="Group_282" transform="translate(45.797 23.829)">
        <line id="Line_1010" y1="3.32" x2="6.059" transform="translate(0.083 0.083)" fill="none"/>
        <path id="Path_1994" d="M1319.966,249.169l-.166-.332,6.142-3.237.166.332Z" transform="translate(-1319.8 -245.6)" fill="#2e3c4b"/>
      </g>
      <g id="Group_283" transform="translate(8.196 21.837)">
        <line id="Line_1011" y1="5.063" x2="7.47" transform="translate(0.083 0.083)" fill="none"/>
        <path id="Path_1995" d="M1274.666,248.512l-.166-.249,7.47-5.063.166.249Z" transform="translate(-1274.5 -243.2)" fill="#2e3c4b"/>
      </g>
      <g id="Group_284" transform="translate(14.754 23.331)">
        <line id="Line_1012" y1="5.063" x2="7.802" transform="translate(0 0.083)" fill="none"/>
        <path id="Path_1996" d="M1282.566,250.312l-.166-.249,7.8-5.063.166.249Z" transform="translate(-1282.4 -245)" fill="#2e3c4b"/>
      </g>
      <g id="Group_285" transform="translate(22.163 24.469)">
        <line id="Line_1013" y1="5.395" x2="6.142" transform="translate(0.144 0.191)" fill="none"/>
        <rect id="Rectangle_194" width="8.217" height="0.332" transform="matrix(0.751, -0.66, 0.66, 0.751, 0, 5.423)" fill="#2e3c4b"/>
      </g>
      <g id="Group_286" transform="translate(28.211 26.065)">
        <line id="Line_1014" y1="5.312" x2="6.64" transform="translate(0.072 0.089)" fill="none"/>
        <rect id="Rectangle_195" width="8.466" height="0.332" transform="matrix(0.782, -0.623, 0.623, 0.782, 0, 5.274)" fill="#2e3c4b"/>
      </g>
      <g id="Group_287" transform="translate(35.285 27.316)">
        <line id="Line_1015" y1="5.727" x2="5.229" transform="translate(0.053 0.083)" fill="none"/>
        <rect id="Rectangle_196" width="7.719" height="0.332" transform="matrix(0.67, -0.742, 0.742, 0.67, 0, 5.729)" fill="#2e3c4b"/>
      </g>
      <g id="Group_288" transform="translate(40.433 28.696)">
        <line id="Line_1016" y1="5.561" x2="5.146" transform="translate(0.135 0.113)" fill="none"/>
        <rect id="Rectangle_197" width="7.636" height="0.332" transform="matrix(0.675, -0.738, 0.738, 0.675, 0, 5.633)" fill="#2e3c4b"/>
      </g>
      <g id="Group_289" transform="translate(6.287 26.403)">
        <line id="Line_1017" x2="42.498" y2="9.711" transform="translate(0.083 0.166)" fill="none"/>
        <path id="Path_1997" d="M1314.781,258.743l-42.581-9.711.083-.332,42.581,9.711Z" transform="translate(-1272.2 -248.7)" fill="#2e3c4b"/>
      </g>
      <path id="Path_1998" d="M1304.009,266.542l-22.909-5.81.083-.332,22.909,5.81Z" transform="translate(-1267.425 -224.286)" fill="#2e3c4b"/>
      <path id="Path_1999" d="M1300.5,275.957l-21.5-6.225.083-.332,21.5,6.225Z" transform="translate(-1267.068 -225.816)" fill="#2e3c4b"/>
      <rect id="Rectangle_198" width="0.332" height="21.747" transform="translate(11.909 47.025) rotate(-69.659)" fill="#2e3c4b"/>
    </g>
  </g>
</svg>
