<svg xmlns="http://www.w3.org/2000/svg" width="304.426" height="297.427" viewBox="0 0 304.426 297.427">
  <g id="CIEKAWOSTKA" transform="translate(-44.613 -1552.45)">
    <path id="Path_1283" d="M56.977,1566.331c18.725-21.249,264.349-15.55,278.271,0s20.19,247.9,4.885,267.036-269.071,21.9-283.156,6.92S38.252,1587.58,56.977,1566.331Z" fill="#e5a34c"/>
    <g id="Group_425" data-name="Group 425" transform="translate(136.274 1576.1)">
      <path id="Path_2186" data-name="Path 2186" d="M160.945,1593.224a5.988,5.988,0,0,1-3.257-3.257,5.568,5.568,0,0,1-.488-2.361,5.839,5.839,0,0,1,.488-2.361,5.986,5.986,0,0,1,3.257-3.257,5.723,5.723,0,0,1,4.8.081,6.142,6.142,0,0,1,2.117,1.71l-1.221,1.058a4.43,4.43,0,0,0-3.5-1.71,4.057,4.057,0,0,0-3.094,1.3,5.346,5.346,0,0,0-.977,1.384,3.775,3.775,0,0,0-.326,1.709,4,4,0,0,0,.326,1.71,4.257,4.257,0,0,0,.977,1.384,5.348,5.348,0,0,0,1.384.977,4,4,0,0,0,1.71.326,4.548,4.548,0,0,0,3.5-1.709l1.221,1.058a7.308,7.308,0,0,1-2.2,1.71,5.456,5.456,0,0,1-2.524.57A4.275,4.275,0,0,1,160.945,1593.224Z" transform="translate(-157.2 -1581.5)" fill="#2e3c4b"/>
      <path id="Path_2187" data-name="Path 2187" d="M173,1593.687V1581.8h1.465v11.886Z" transform="translate(-160.137 -1581.556)" fill="#2e3c4b"/>
      <path id="Path_2188" data-name="Path 2188" d="M177.6,1593.687V1581.8h6.513v1.628h-4.966v3.582h3.338v1.466h-3.338v3.582h4.966v1.628Z" transform="translate(-160.992 -1581.556)" fill="#2e3c4b"/>
      <path id="Path_2189" data-name="Path 2189" d="M193.773,1593.687l-3.826-4.4v4.4H188.4V1581.8h1.547v4.559l3.745-4.559h2.117l-5.048,6.025,5.129,5.862Z" transform="translate(-162.999 -1581.556)" fill="#2e3c4b"/>
      <path id="Path_2190" data-name="Path 2190" d="M207.186,1593.687l-1.465-4.152h-3.745l-1.465,4.152H198.8l4.152-11.886h1.791l4.152,11.886Zm-3.338-9.607-1.384,3.908h2.687Z" transform="translate(-164.932 -1581.556)" fill="#2e3c4b"/>
      <path id="Path_2191" data-name="Path 2191" d="M221.635,1593.668h-1.628l-1.873-5.048-1.791,5.048h-1.628L210.4,1581.7h1.71l3.338,9.363,1.71-4.885-1.628-4.478h1.71l1.547,4.4,1.791,4.966,3.257-9.363h1.71Z" transform="translate(-167.088 -1581.537)" fill="#2e3c4b"/>
      <path id="Path_2192" data-name="Path 2192" d="M234.064,1593.261a5.164,5.164,0,0,1-1.872-1.3,6.316,6.316,0,0,1-1.3-1.954,5.564,5.564,0,0,1,0-4.559,6.319,6.319,0,0,1,1.3-1.954,7.063,7.063,0,0,1,1.872-1.3,5.563,5.563,0,0,1,4.559,0,5.986,5.986,0,0,1,3.257,3.256,5.564,5.564,0,0,1,0,4.559,5.987,5.987,0,0,1-3.257,3.257,5.462,5.462,0,0,1-2.28.488A5.746,5.746,0,0,1,234.064,1593.261Zm.651-9.525a4.257,4.257,0,0,0-1.384.977,5.349,5.349,0,0,0-.977,1.384,4,4,0,0,0-.326,1.71,4.251,4.251,0,0,0,.326,1.71,5.8,5.8,0,0,0,.9,1.384,5.348,5.348,0,0,0,1.384.977,4,4,0,0,0,1.71.326,4.058,4.058,0,0,0,3.094-1.3,3.678,3.678,0,0,0,.9-1.384,4.25,4.25,0,0,0-.977-4.8,5.346,5.346,0,0,0-1.384-.977,3.776,3.776,0,0,0-1.71-.326A4.053,4.053,0,0,0,234.715,1583.735Z" transform="translate(-170.805 -1581.537)" fill="#2e3c4b"/>
      <path id="Path_2193" data-name="Path 2193" d="M253.187,1584.205a2.31,2.31,0,0,0-.814-.733,2.72,2.72,0,0,0-1.221-.244,2.383,2.383,0,0,0-1.71.489,1.79,1.79,0,0,0-.488,1.384,2.41,2.41,0,0,0,.163.814.834.834,0,0,0,.407.488,4.021,4.021,0,0,0,1.384.407q.977.122,1.71.244a9.477,9.477,0,0,1,1.221.488,2.789,2.789,0,0,1,1.3,2.605,3.375,3.375,0,0,1-.244,1.3,3.1,3.1,0,0,1-.733,1.058,2.987,2.987,0,0,1-1.384.814,5.252,5.252,0,0,1-1.628.244,4.008,4.008,0,0,1-3.012-1.058A3.877,3.877,0,0,1,247,1589.9h1.547a2.02,2.02,0,0,0,.651,1.384,2.747,2.747,0,0,0,1.873.651,2.925,2.925,0,0,0,1.791-.488,1.7,1.7,0,0,0,.651-1.3,1.587,1.587,0,0,0-.081-.651,1.085,1.085,0,0,0-.407-.488,4.331,4.331,0,0,0-2.28-.57,4.2,4.2,0,0,1-2.605-.977,3.257,3.257,0,0,1-.9-2.361,3.373,3.373,0,0,1,.977-2.524,3.83,3.83,0,0,1,2.768-.977,3.988,3.988,0,0,1,2.931,1.14,5.114,5.114,0,0,1,1.14,2.605h-1.628A1.817,1.817,0,0,0,253.187,1584.205Z" transform="translate(-173.891 -1581.519)" fill="#2e3c4b"/>
      <path id="Path_2194" data-name="Path 2194" d="M262.7,1583.247v10.421h-1.547v-10.421H258.3V1581.7h7.327v1.547Z" transform="translate(-175.991 -1581.537)" fill="#2e3c4b"/>
      <path id="Path_2195" data-name="Path 2195" d="M275.273,1593.687l-3.826-4.4v4.4H269.9V1581.8h1.547v4.559l3.745-4.559h2.117l-5.048,6.025,5.129,5.862Z" transform="translate(-178.147 -1581.556)" fill="#2e3c4b"/>
      <path id="Path_2196" data-name="Path 2196" d="M288.686,1593.687l-1.465-4.152h-3.745l-1.465,4.152H280.3l4.152-11.886h1.791l4.152,11.886Zm-3.338-9.607-1.384,3.908h2.687Z" transform="translate(-180.08 -1581.556)" fill="#2e3c4b"/>
    </g>
    <rect id="Rectangle_45" width="10.177" height="2.035" transform="translate(185.855 1594.663)" fill="#ae4426"/>
    <g id="Group_426" data-name="Group 426" transform="translate(103.383 1777.029)">
      <path id="Path_2197" data-name="Path 2197" d="M121.929,1842.3v.57H116.8V1832.2h.57v10.1Z" transform="translate(-116.8 -1829.025)" fill="#2e3c4b"/>
      <path id="Path_2198" data-name="Path 2198" d="M131.983,1836.344v7.246h-.488l-.081-1.873a3.2,3.2,0,0,1-3.012,1.954,3.537,3.537,0,0,1-3.5-3.745,3.6,3.6,0,0,1,3.419-3.826,3.245,3.245,0,0,1,3.012,1.954l.081-1.791h.57Zm-.488,3.582a2.984,2.984,0,1,0-2.931,3.256A2.959,2.959,0,0,0,131.494,1839.927Z" transform="translate(-118.306 -1829.75)" fill="#2e3c4b"/>
      <path id="Path_2199" data-name="Path 2199" d="M140,1836.387h-1.873v6.757h-.57v-6.757H136.5v-.489h1.058v-2.2h.57v2.2H140Z" transform="translate(-120.462 -1829.304)" fill="#2e3c4b"/>
      <path id="Path_2200" data-name="Path 2200" d="M149.783,1836.344v7.246h-.488l-.081-1.873a3.2,3.2,0,0,1-3.012,1.954,3.537,3.537,0,0,1-3.5-3.745,3.6,3.6,0,0,1,3.419-3.826,3.245,3.245,0,0,1,3.012,1.954l.081-1.791h.57Zm-.57,3.582a2.984,2.984,0,1,0-2.931,3.256A2.959,2.959,0,0,0,149.213,1839.927Z" transform="translate(-121.614 -1829.75)" fill="#2e3c4b"/>
      <path id="Path_2201" data-name="Path 2201" d="M157.912,1836.181l-.081.57c-.163,0-.326-.081-.488-.081-1.14,0-1.873.9-1.873,2.28v4.559h-.57v-7.246h.488l.081,1.465a2.174,2.174,0,0,1,2.035-1.628A.61.61,0,0,0,157.912,1836.181Z" transform="translate(-123.881 -1829.75)" fill="#2e3c4b"/>
      <path id="Path_2202" data-name="Path 2202" d="M166.662,1839.257v4.233h-.57v-4.152c0-1.873-.977-2.768-2.28-2.768a2.463,2.463,0,0,0-2.442,2.524v4.4h-.57v-7.246h.488l.081,1.547a2.643,2.643,0,0,1,2.524-1.791A2.888,2.888,0,0,1,166.662,1839.257Z" transform="translate(-124.978 -1829.731)" fill="#2e3c4b"/>
      <path id="Path_2203" data-name="Path 2203" d="M171.3,1833.37a.57.57,0,1,1,.57.57A.612.612,0,0,1,171.3,1833.37Zm.244,2.361h.57v7.246h-.57Z" transform="translate(-126.93 -1829.136)" fill="#2e3c4b"/>
      <path id="Path_2204" data-name="Path 2204" d="M182.583,1836.344v7.246h-.488l-.081-1.873a3.2,3.2,0,0,1-3.012,1.954,3.537,3.537,0,0,1-3.5-3.745,3.6,3.6,0,0,1,3.419-3.826,3.245,3.245,0,0,1,3.012,1.954l.081-1.791h.57Zm-.57,3.582a2.984,2.984,0,1,0-5.943,0,3.116,3.116,0,0,0,3.012,3.256A3.006,3.006,0,0,0,182.013,1839.927Z" transform="translate(-127.71 -1829.75)" fill="#2e3c4b"/>
      <path id="Path_2205" data-name="Path 2205" d="M202.984,1836.4l-2.768,7.246h-.488l-2.035-6.513-2.035,6.513h-.488L192.4,1836.4h.651l2.361,6.513,2.035-6.513h.488l2.035,6.432,2.361-6.432Z" transform="translate(-130.851 -1829.805)" fill="#2e3c4b"/>
      <path id="Path_2206" data-name="Path 2206" d="M213.3,1840.838l.488-.407a3.156,3.156,0,0,0,2.768,1.3,2.267,2.267,0,0,0,2.524-2.117c0-1.384-.977-1.954-2.361-2.687-1.384-.651-2.931-1.3-2.931-3.094a2.605,2.605,0,0,1,2.768-2.605,3.667,3.667,0,0,1,2.768,1.14l-.488.407a3.172,3.172,0,0,0-2.361-.977,1.988,1.988,0,0,0-2.117,2.035c0,1.384,1.3,1.954,2.605,2.605,1.465.733,2.687,1.547,2.687,3.094,0,1.71-1.465,2.605-3.094,2.605A3.352,3.352,0,0,1,213.3,1840.838Zm2.605-10.177h-.244l2.117-2.361.57.081-1.71,1.71C216.231,1830.58,216.068,1830.661,215.905,1830.661Z" transform="translate(-134.736 -1828.3)" fill="#2e3c4b"/>
      <path id="Path_2207" data-name="Path 2207" d="M234.1,1836.4l-2.768,7.246h-.488l-2.035-6.513-2.035,6.513h-.407L223.6,1836.4h.651l2.361,6.513,2.035-6.513h.488l2.035,6.432,2.361-6.432Z" transform="translate(-136.65 -1829.805)" fill="#2e3c4b"/>
      <path id="Path_2208" data-name="Path 2208" d="M239,1833.37a.57.57,0,1,1,.57.57A.612.612,0,0,1,239,1833.37Zm.244,2.361h.57v7.246h-.57Z" transform="translate(-139.513 -1829.136)" fill="#2e3c4b"/>
      <path id="Path_2209" data-name="Path 2209" d="M249.462,1839.257v4.233h-.57v-4.152c0-1.873-.977-2.768-2.28-2.768a2.463,2.463,0,0,0-2.442,2.524v4.4h-.57v-7.246h.488l.081,1.547a2.643,2.643,0,0,1,2.524-1.791A2.888,2.888,0,0,1,249.462,1839.257Z" transform="translate(-140.368 -1829.731)" fill="#2e3c4b"/>
      <path id="Path_2210" data-name="Path 2210" d="M253.7,1839.927a3.753,3.753,0,0,1,3.745-3.826,3.786,3.786,0,0,1,0,7.571A3.591,3.591,0,0,1,253.7,1839.927Zm6.92,0a3.176,3.176,0,1,0-3.175,3.256A3.1,3.1,0,0,0,260.62,1839.927Z" transform="translate(-142.245 -1829.75)" fill="#2e3c4b"/>
      <path id="Path_2211" data-name="Path 2211" d="M265.8,1840.715V1836.4h.57v4.315c0,1.628.814,2.605,2.361,2.605a2.3,2.3,0,0,0,2.361-2.605V1836.4h.57v4.315c0,2.443-1.547,3.094-2.849,3.094A2.751,2.751,0,0,1,265.8,1840.715Z" transform="translate(-144.494 -1829.805)" fill="#2e3c4b"/>
      <path id="Path_2212" data-name="Path 2212" d="M274.7,1846.4v-.489c1.384.163,1.872-.488,1.872-1.709v-8.467h.57v8.467C277.142,1846.152,276,1846.559,274.7,1846.4Zm1.628-13.026a.57.57,0,1,1,.57.57A.612.612,0,0,1,276.328,1833.37Z" transform="translate(-146.148 -1829.136)" fill="#2e3c4b"/>
      <path id="Path_2213" data-name="Path 2213" d="M281.188,1841.425a2.307,2.307,0,0,0,2.035,1.058c1.14,0,1.872-.57,1.872-1.547,0-2.28-3.989-.9-4.071-3.582,0-1.221.9-1.954,2.28-1.954a3,3,0,0,1,2.117.814l-.326.407a2.123,2.123,0,0,0-1.791-.651c-1.058,0-1.71.57-1.71,1.465,0,2.2,4.071.814,4.071,3.582,0,1.3-1.058,2.035-2.524,2.035a3.049,3.049,0,0,1-2.442-1.14Zm1.465-7.164h-.244l2.117-2.361.57.081-1.71,1.71C283.061,1834.18,282.9,1834.261,282.654,1834.261Z" transform="translate(-147.263 -1828.969)" fill="#2e3c4b"/>
      <path id="Path_2214" data-name="Path 2214" d="M289.3,1839.945a3.616,3.616,0,0,1,3.664-3.745,3.941,3.941,0,0,1,2.361.814l-.326.407a2.641,2.641,0,0,0-1.954-.733,3.081,3.081,0,0,0-3.094,3.257,2.993,2.993,0,0,0,3.094,3.257,2.642,2.642,0,0,0,1.954-.733l.326.407a3.94,3.94,0,0,1-2.361.814A3.526,3.526,0,0,1,289.3,1839.945Z" transform="translate(-148.862 -1829.768)" fill="#2e3c4b"/>
      <path id="Path_2215" data-name="Path 2215" d="M299.3,1833.37a.57.57,0,1,1,.57.57A.612.612,0,0,1,299.3,1833.37Zm.244,2.361h.57v7.246h-.57Z" transform="translate(-150.721 -1829.136)" fill="#2e3c4b"/>
      <path id="Path_2216" data-name="Path 2216" d="M303.9,1840.715V1836.4h.57v4.315c0,1.628.814,2.605,2.361,2.605a2.3,2.3,0,0,0,2.361-2.605V1836.4h.57v4.315c0,2.443-1.547,3.094-2.849,3.094A2.784,2.784,0,0,1,303.9,1840.715Z" transform="translate(-151.576 -1829.805)" fill="#2e3c4b"/>
      <path id="Path_2217" data-name="Path 2217" d="M318.7,1846.4v-.489c1.384.163,1.872-.488,1.872-1.709v-8.467h.57v8.467C321.142,1846.152,320,1846.559,318.7,1846.4Zm1.628-13.026a.57.57,0,1,1,.57.57A.612.612,0,0,1,320.328,1833.37Z" transform="translate(-154.326 -1829.136)" fill="#2e3c4b"/>
      <path id="Path_2218" data-name="Path 2218" d="M325.551,1839.845h0c0,1.954,1.14,3.419,3.094,3.419a2.839,2.839,0,0,0,2.361-1.058l.407.326a3.981,3.981,0,0,1-2.849,1.14,3.614,3.614,0,0,1-3.664-3.908,3.514,3.514,0,0,1,3.5-3.664,3.3,3.3,0,0,1,3.338,3.338v.326h-6.187Zm0-.488h5.617a2.678,2.678,0,0,0-2.768-2.687A2.91,2.91,0,0,0,325.551,1839.357Z" transform="translate(-155.479 -1829.75)" fill="#2e3c4b"/>
      <path id="Path_2219" data-name="Path 2219" d="M335.988,1842.224a2.307,2.307,0,0,0,2.035,1.058c1.14,0,1.872-.57,1.872-1.547,0-2.28-3.989-.9-4.071-3.582,0-1.221.9-1.954,2.28-1.954a3,3,0,0,1,2.117.814l-.326.407a2.123,2.123,0,0,0-1.791-.651c-1.058,0-1.71.57-1.71,1.465,0,2.2,4.071.814,4.071,3.582,0,1.3-1.058,2.035-2.524,2.035a3.049,3.049,0,0,1-2.442-1.14Z" transform="translate(-157.449 -1829.768)" fill="#2e3c4b"/>
      <path id="Path_2220" data-name="Path 2220" d="M347.6,1836.387h-1.872v6.757h-.57v-6.757H344.1v-.489h1.058v-2.2h.57v2.2H347.6Z" transform="translate(-159.047 -1829.304)" fill="#2e3c4b"/>
    </g>
    <g id="Group_427" data-name="Group 427" transform="translate(82.867 1794.37)">
      <path id="Path_2221" data-name="Path 2221" d="M98.764,1856.811v4.722H96.81V1857.3c0-1.14-.488-1.873-1.547-1.873a1.693,1.693,0,0,0-1.71,1.71v4.478H91.6v-7.653h1.71l.244.9a2.839,2.839,0,0,1,2.361-1.058C97.218,1853.717,98.764,1854.45,98.764,1856.811Z" transform="translate(-91.6 -1850.379)" fill="#2e3c4b"/>
      <path id="Path_2222" data-name="Path 2222" d="M110.7,1853.863v7.653h-1.628l-.244-.977a2.993,2.993,0,0,1-2.524,1.14c-1.954,0-3.5-1.465-3.5-3.989s1.547-3.989,3.5-3.989a3.229,3.229,0,0,1,2.524,1.14l.244-.977H110.7Zm-1.791,3.826a2.093,2.093,0,1,0-2.117,2.361A2.123,2.123,0,0,0,108.906,1857.689Z" transform="translate(-93.682 -1850.362)" fill="#2e3c4b"/>
      <path id="Path_2223" data-name="Path 2223" d="M114,1864.173v-1.547c1.384.244,1.873-.326,1.873-1.628v-7.979h1.954v8.06C117.826,1864.01,115.954,1864.58,114,1864.173Zm1.628-13.433a1.164,1.164,0,0,1,1.14-1.14,1.113,1.113,0,0,1,1.14,1.14,1.164,1.164,0,0,1-1.14,1.14A1.226,1.226,0,0,1,115.628,1850.74Z" transform="translate(-95.763 -1849.6)" fill="#2e3c4b"/>
      <path id="Path_2224" data-name="Path 2224" d="M133.231,1853.9l-2.849,7.653h-1.628l-1.547-5.292-1.628,5.292h-1.628L121.1,1853.9h2.117l1.628,5.129,1.547-5.129h1.628l1.547,5.129,1.628-5.129Z" transform="translate(-97.083 -1850.399)" fill="#2e3c4b"/>
      <path id="Path_2225" data-name="Path 2225" d="M145.686,1853.9l-4.8,11.072h-2.035l1.628-3.664L137.3,1853.9h2.117l2.035,5.129,2.117-5.129Z" transform="translate(-100.094 -1850.399)" fill="#2e3c4b"/>
      <path id="Path_2226" data-name="Path 2226" d="M155.857,1859.125v1.628H149.1v-1.384l3.908-4.64h-3.664V1853.1h6.269v1.384l-3.989,4.641Zm-4.478-8.467a1.058,1.058,0,1,1,1.058,1.058A1.078,1.078,0,0,1,151.38,1850.658Z" transform="translate(-102.287 -1849.6)" fill="#2e3c4b"/>
      <path id="Path_2227" data-name="Path 2227" d="M160.158,1859.236a2.413,2.413,0,0,0,1.954.977c.814,0,1.3-.326,1.3-.814,0-1.465-3.745-.407-3.745-3.257,0-1.465,1.14-2.442,3.012-2.442a4.314,4.314,0,0,1,2.768.977l-.977,1.221a2.42,2.42,0,0,0-1.628-.651c-.733,0-1.14.326-1.14.814,0,1.547,3.826.57,3.826,3.338,0,1.384-1.14,2.361-3.094,2.361a4.356,4.356,0,0,1-3.338-1.221Z" transform="translate(-104.146 -1850.362)" fill="#2e3c4b"/>
      <path id="Path_2228" data-name="Path 2228" d="M175.757,1859.925v1.628H169v-1.384l3.908-4.641h-3.664V1853.9h6.269v1.384l-3.989,4.641Z" transform="translate(-105.986 -1850.399)" fill="#2e3c4b"/>
      <path id="Path_2229" data-name="Path 2229" d="M186.79,1863.47l.326.9a2,2,0,0,1-2.849-.489c-.407-.9.163-1.791,1.3-2.442l-.244-.9a2.993,2.993,0,0,1-2.524,1.14c-1.954,0-3.5-1.465-3.5-3.989s1.547-3.989,3.5-3.989a3.229,3.229,0,0,1,2.524,1.14l.244-.977H187.2v7.653h-.326l-.326.163C184.755,1862.574,185.162,1864.2,186.79,1863.47Zm-1.384-5.78a2.093,2.093,0,1,0-2.117,2.361A2.123,2.123,0,0,0,185.406,1857.689Z" transform="translate(-107.9 -1850.362)" fill="#2e3c4b"/>
    </g>
    <g id="Group_428" data-name="Group 428" transform="translate(169.165 1794.125)">
      <path id="Path_2230" data-name="Path 2230" d="M203.38,1861.157v.489H197.6v-.489l4.885-6.269h-4.641v-.489h5.292v.489l-4.8,6.269Z" transform="translate(-197.6 -1850.248)" fill="#2e3c4b"/>
      <path id="Path_2231" data-name="Path 2231" d="M207.651,1857.845h0c0,1.954,1.14,3.419,3.094,3.419a2.839,2.839,0,0,0,2.361-1.058l.407.326a3.981,3.981,0,0,1-2.849,1.14,3.614,3.614,0,0,1-3.664-3.908,3.514,3.514,0,0,1,3.5-3.664,3.3,3.3,0,0,1,3.338,3.338v.326h-6.187Zm.081-.489h5.618a2.678,2.678,0,0,0-2.768-2.687A2.8,2.8,0,0,0,207.733,1857.356Z" transform="translate(-199.347 -1850.192)" fill="#2e3c4b"/>
      <path id="Path_2232" data-name="Path 2232" d="M233.784,1854.4l-2.768,7.246h-.488l-2.035-6.513-2.035,6.513h-.488L223.2,1854.4h.651l2.361,6.513,2.035-6.513h.488l2.035,6.432,2.361-6.432Z" transform="translate(-202.358 -1850.248)" fill="#2e3c4b"/>
      <path id="Path_2233" data-name="Path 2233" d="M238.388,1860.225a2.307,2.307,0,0,0,2.035,1.058c1.14,0,1.873-.57,1.873-1.547,0-2.28-3.989-.9-4.071-3.582,0-1.221.9-1.954,2.28-1.954a3,3,0,0,1,2.117.814l-.326.407a2.124,2.124,0,0,0-1.791-.651c-1.058,0-1.71.57-1.71,1.466,0,2.2,4.071.814,4.071,3.582,0,1.3-1.058,2.035-2.524,2.035a3.049,3.049,0,0,1-2.442-1.14Z" transform="translate(-205.09 -1850.211)" fill="#2e3c4b"/>
      <path id="Path_2234" data-name="Path 2234" d="M252.38,1861.157v.489H246.6v-.489l4.885-6.269h-4.641v-.489h5.292v.489l-4.8,6.269Z" transform="translate(-206.707 -1850.248)" fill="#2e3c4b"/>
      <path id="Path_2235" data-name="Path 2235" d="M262.239,1854.4l-4.722,10.747h-.651l1.628-3.664-3.094-7h.651l2.687,6.432,2.768-6.432h.733Z" transform="translate(-208.343 -1850.248)" fill="#2e3c4b"/>
      <path id="Path_2236" data-name="Path 2236" d="M265.888,1860.225a2.307,2.307,0,0,0,2.035,1.058c1.14,0,1.872-.57,1.872-1.547,0-2.28-3.989-.9-4.071-3.582,0-1.221.9-1.954,2.28-1.954a3,3,0,0,1,2.117.814l-.326.407a2.124,2.124,0,0,0-1.791-.651c-1.058,0-1.71.57-1.71,1.466,0,2.2,4.071.814,4.071,3.582,0,1.3-1.058,2.035-2.524,2.035a2.927,2.927,0,0,1-2.442-1.14Z" transform="translate(-210.202 -1850.211)" fill="#2e3c4b"/>
      <path id="Path_2237" data-name="Path 2237" d="M277.5,1854.387h-1.872v6.757h-.57v-6.757H274v-.489h1.058v-2.2h.57v2.2H277.5Z" transform="translate(-211.8 -1849.746)" fill="#2e3c4b"/>
      <path id="Path_2238" data-name="Path 2238" d="M285.885,1860.717l-4.315-3.908v3.908H281V1849.4h.57v7.246l3.826-3.175h.814l-3.908,3.257,4.4,3.989Z" transform="translate(-213.101 -1849.318)" fill="#2e3c4b"/>
      <path id="Path_2239" data-name="Path 2239" d="M290.2,1851.37a.57.57,0,1,1,.57.57A.612.612,0,0,1,290.2,1851.37Zm.244,2.361h.57v7.246h-.57Z" transform="translate(-214.811 -1849.579)" fill="#2e3c4b"/>
      <path id="Path_2240" data-name="Path 2240" d="M294.4,1857.945a3.616,3.616,0,0,1,3.664-3.745,3.939,3.939,0,0,1,2.361.814l-.326.407a2.641,2.641,0,0,0-1.954-.733,3.081,3.081,0,0,0-3.094,3.257,2.993,2.993,0,0,0,3.094,3.257,2.641,2.641,0,0,0,1.954-.733l.326.407a3.94,3.94,0,0,1-2.361.814A3.483,3.483,0,0,1,294.4,1857.945Z" transform="translate(-215.592 -1850.211)" fill="#2e3c4b"/>
      <path id="Path_2241" data-name="Path 2241" d="M310.262,1856.383v4.233h-.57v-4.152c0-1.873-.9-2.768-2.28-2.768s-2.361,1.058-2.442,2.768v4.152h-.57V1849.3h.57v5.617a2.569,2.569,0,0,1,2.524-1.791A2.888,2.888,0,0,1,310.262,1856.383Z" transform="translate(-217.45 -1849.3)" fill="#2e3c4b"/>
      <path id="Path_2242" data-name="Path 2242" d="M320.8,1849.4h.57v11.317h-.57Z" transform="translate(-220.499 -1849.318)" fill="#2e3c4b"/>
      <path id="Path_2243" data-name="Path 2243" d="M331.583,1854.344v7.246h-.488l-.081-1.873a3.2,3.2,0,0,1-3.012,1.954,3.537,3.537,0,0,1-3.5-3.745,3.6,3.6,0,0,1,3.419-3.826,3.246,3.246,0,0,1,3.012,1.954l.081-1.791h.57Zm-.488,3.582a2.984,2.984,0,1,0-2.931,3.257A2.959,2.959,0,0,0,331.094,1857.927Z" transform="translate(-221.186 -1850.192)" fill="#2e3c4b"/>
      <path id="Path_2244" data-name="Path 2244" d="M339.6,1854.387h-1.872v6.757h-.57v-6.757H336.1v-.489h1.058v-2.2h.57v2.2H339.6Z" transform="translate(-223.342 -1849.746)" fill="#2e3c4b"/>
      <path id="Path_2245" data-name="Path 2245" d="M349.283,1854.344v7.246h-.488l-.081-1.873a3.2,3.2,0,0,1-3.012,1.954,3.537,3.537,0,0,1-3.5-3.745,3.6,3.6,0,0,1,3.419-3.826,3.246,3.246,0,0,1,3.012,1.954l.081-1.791h.57Zm-.488,3.582a2.984,2.984,0,1,0-2.931,3.257A2.959,2.959,0,0,0,348.794,1857.927Z" transform="translate(-224.476 -1850.192)" fill="#2e3c4b"/>
      <path id="Path_2246" data-name="Path 2246" d="M357.512,1854.181l-.081.57c-.163,0-.326-.081-.488-.081-1.14,0-1.872.9-1.872,2.28v4.559h-.57v-7.246h.488l.081,1.466a2.174,2.174,0,0,1,2.035-1.628A.61.61,0,0,0,357.512,1854.181Z" transform="translate(-226.762 -1850.192)" fill="#2e3c4b"/>
      <path id="Path_2247" data-name="Path 2247" d="M366.262,1857.257v4.233h-.57v-4.152c0-1.872-.977-2.768-2.28-2.768a2.463,2.463,0,0,0-2.442,2.524v4.4h-.57v-7.246h.488l.081,1.547a2.643,2.643,0,0,1,2.524-1.791A2.888,2.888,0,0,1,366.262,1857.257Z" transform="translate(-227.859 -1850.173)" fill="#2e3c4b"/>
      <path id="Path_2248" data-name="Path 2248" d="M370.8,1851.37a.57.57,0,1,1,.57.57A.612.612,0,0,1,370.8,1851.37Zm.244,2.361h.57v7.246h-.57Z" transform="translate(-229.792 -1849.579)" fill="#2e3c4b"/>
    </g>
    <g id="Group_429" data-name="Group 429" transform="translate(124.55 1808.861)">
      <path id="Path_2249" data-name="Path 2249" d="M148.662,1875.257v4.233h-.57v-4.152c0-1.872-.977-2.768-2.28-2.768a2.463,2.463,0,0,0-2.442,2.524v4.4h-.57v-7.246h.488l.081,1.547a2.643,2.643,0,0,1,2.524-1.791A2.888,2.888,0,0,1,148.662,1875.257Z" transform="translate(-142.8 -1868.255)" fill="#2e3c4b"/>
      <path id="Path_2250" data-name="Path 2250" d="M159.983,1872.344v7.246h-.488l-.081-1.873a3.2,3.2,0,0,1-3.012,1.954,3.537,3.537,0,0,1-3.5-3.745,3.6,3.6,0,0,1,3.419-3.826,3.246,3.246,0,0,1,3.012,1.954l.081-1.791h.57Zm-.57,3.582a2.984,2.984,0,1,0-5.943,0,3.117,3.117,0,0,0,3.012,3.257A3.006,3.006,0,0,0,159.413,1875.927Z" transform="translate(-144.677 -1868.274)" fill="#2e3c4b"/>
      <path id="Path_2251" data-name="Path 2251" d="M177.8,1875.926a3.475,3.475,0,0,1-3.419,3.745,3.333,3.333,0,0,1-3.012-1.954v5.373h-.57v-10.747h.488l.081,1.791a3.277,3.277,0,0,1,3.012-2.035A3.6,3.6,0,0,1,177.8,1875.926Zm-.57,0a2.984,2.984,0,1,0-2.931,3.257A3.055,3.055,0,0,0,177.232,1875.926Z" transform="translate(-148.004 -1868.274)" fill="#2e3c4b"/>
      <path id="Path_2252" data-name="Path 2252" d="M181.9,1875.927a3.746,3.746,0,1,1,7.49,0,3.745,3.745,0,0,1-7.49,0Zm6.92,0a3.176,3.176,0,1,0-3.175,3.257A3.1,3.1,0,0,0,188.82,1875.927Z" transform="translate(-150.067 -1868.274)" fill="#2e3c4b"/>
      <path id="Path_2253" data-name="Path 2253" d="M194.1,1867.4h.57v11.317h-.57Z" transform="translate(-152.335 -1867.4)" fill="#2e3c4b"/>
      <path id="Path_2254" data-name="Path 2254" d="M198.088,1878.225a2.307,2.307,0,0,0,2.035,1.058c1.14,0,1.872-.57,1.872-1.547,0-2.28-3.989-.9-4.071-3.582,0-1.221.9-1.954,2.28-1.954a3,3,0,0,1,2.117.814l-.326.407a2.124,2.124,0,0,0-1.791-.651c-1.058,0-1.71.57-1.71,1.466,0,2.2,4.071.814,4.071,3.582,0,1.3-1.058,2.035-2.524,2.035a2.927,2.927,0,0,1-2.442-1.14Z" transform="translate(-152.985 -1868.292)" fill="#2e3c4b"/>
      <path id="Path_2255" data-name="Path 2255" d="M211.485,1878.717l-4.315-3.908v3.908h-.57V1867.4h.57v7.246l3.826-3.175h.814l-3.908,3.257,4.4,3.989Z" transform="translate(-154.658 -1867.4)" fill="#2e3c4b"/>
      <path id="Path_2256" data-name="Path 2256" d="M215.7,1869.37a.57.57,0,1,1,.57.57A.612.612,0,0,1,215.7,1869.37Zm.244,2.361h.57v7.246h-.57Z" transform="translate(-156.35 -1867.66)" fill="#2e3c4b"/>
      <path id="Path_2257" data-name="Path 2257" d="M230.614,1875.294v4.315h-.57v-4.315c0-1.628-.651-2.605-2.035-2.605-1.221,0-2.035.977-2.117,2.687v4.234h-.57v-4.4c0-1.465-.733-2.524-2.035-2.524-1.14,0-1.954.977-2.117,2.605v4.315h-.57v-7.246h.488l.081,1.547a2.319,2.319,0,0,1,2.28-1.71,2.481,2.481,0,0,1,2.361,1.873,2.369,2.369,0,0,1,2.442-1.873C229.311,1872.2,230.614,1872.851,230.614,1875.294Z" transform="translate(-157.26 -1868.292)" fill="#2e3c4b"/>
      <path id="Path_2258" data-name="Path 2258" d="M251.584,1872.4l-2.768,7.246h-.488l-2.035-6.513-2.035,6.513h-.488L241,1872.4h.651l2.361,6.513,2.035-6.513h.488l2.035,6.432,2.361-6.432Z" transform="translate(-161.052 -1868.329)" fill="#2e3c4b"/>
      <path id="Path_2259" data-name="Path 2259" d="M262.639,1872.4l-4.722,10.747h-.651l1.628-3.664-3.094-7h.651l2.687,6.432,2.768-6.432h.733Z" transform="translate(-163.803 -1868.329)" fill="#2e3c4b"/>
      <path id="Path_2260" data-name="Path 2260" d="M273.6,1875.053a3.475,3.475,0,0,1-3.419,3.745,3.246,3.246,0,0,1-3.012-1.954l-.081,1.873H266.6V1867.4h.57v5.862a3.333,3.333,0,0,1,3.012-1.954A3.523,3.523,0,0,1,273.6,1875.053Zm-.651,0a3.006,3.006,0,0,0-2.931-3.256,3.068,3.068,0,0,0-3.012,3.256,2.984,2.984,0,1,0,5.943,0Z" transform="translate(-165.81 -1867.4)" fill="#2e3c4b"/>
      <path id="Path_2261" data-name="Path 2261" d="M281.212,1872.181l-.081.57c-.163,0-.326-.081-.488-.081-1.14,0-1.872.9-1.872,2.28v4.559h-.57v-7.246h.488l.081,1.466a2.174,2.174,0,0,1,2.035-1.628A.734.734,0,0,0,281.212,1872.181Z" transform="translate(-167.966 -1868.274)" fill="#2e3c4b"/>
      <path id="Path_2262" data-name="Path 2262" d="M289.48,1879.157v.489H283.7v-.489l4.885-6.269h-4.641v-.488h5.292v.488l-4.8,6.269Z" transform="translate(-168.989 -1868.329)" fill="#2e3c4b"/>
      <path id="Path_2263" data-name="Path 2263" d="M293.851,1875.845h0c0,1.954,1.14,3.419,3.094,3.419a2.839,2.839,0,0,0,2.361-1.058l.407.326a3.981,3.981,0,0,1-2.849,1.14,3.614,3.614,0,0,1-3.664-3.908,3.514,3.514,0,0,1,3.5-3.664,3.3,3.3,0,0,1,3.338,3.338v.326h-6.187Zm0-.489h5.617a2.678,2.678,0,0,0-2.768-2.687A2.91,2.91,0,0,0,293.851,1875.356Z" transform="translate(-170.754 -1868.274)" fill="#2e3c4b"/>
      <path id="Path_2264" data-name="Path 2264" d="M309.88,1878.507V1879H304.1v-.489l4.885-6.269h-4.641v-.488h5.292v.488l-4.8,6.269Zm-3.419-9.037a.556.556,0,0,1,.57-.57.612.612,0,0,1,.57.57.57.57,0,1,1-1.14,0Z" transform="translate(-172.78 -1867.679)" fill="#2e3c4b"/>
      <path id="Path_2265" data-name="Path 2265" d="M314,1876.715V1872.4h.57v4.315c0,1.628.814,2.605,2.361,2.605a2.3,2.3,0,0,0,2.361-2.605V1872.4h.57v4.315c0,2.442-1.547,3.094-2.849,3.094A2.784,2.784,0,0,1,314,1876.715Z" transform="translate(-174.62 -1868.329)" fill="#2e3c4b"/>
    </g>
    <g id="Group_181" transform="translate(117.904 1612.003)">
      <path id="Path_1327" d="M10.092,38.355C14.57,26.061,25.154.742,45.67.335s76.773-2.442,91.1,14.736S153.624,45.6,151.507,72.63,142.145,115.372,133.6,129.7s-44.94,25.482-77.668,24.18S-.654,133.2,0,106.661s12.049-30.123,10.1-41.6S5.615,50.648,10.092,38.355Z" transform="translate(0.016 -0.048)" fill="#f2edeb"/>
      <g id="swinoujscie" transform="translate(25.215 11.196)">
        <path id="Path_2266" data-name="Path 2266" d="M26.354,140.4h-.57v-17.1c.081-3.012-.57-11.561-.57-11.642,0-.651.081-2.524.163-4.722a76.2,76.2,0,0,0,.163-8.141,9.16,9.16,0,0,0-.977-1.71,14.056,14.056,0,0,1-.57-4.4.436.436,0,0,1,.244-.326,3.027,3.027,0,0,1,1.873-.407c.081,0,13.677-.163,15.713-.163a9.715,9.715,0,0,1,3.012.488l.081.081c.488.407-.244,4.152-.244,4.152a6.239,6.239,0,0,0-.814,1.873v.814c.163,10.747.081,11.8-.081,12.049l-.488-.244.244.163-.244-.081c.081-.244.163-2.524,0-11.8v-.977a7.169,7.169,0,0,1,.9-1.954,21.212,21.212,0,0,0,.326-3.419,10.236,10.236,0,0,0-2.687-.407c-2.035,0-15.55.163-15.713.163a2.546,2.546,0,0,0-1.547.326,16.224,16.224,0,0,0,.488,3.989,12.58,12.58,0,0,1,.977,1.791c.163.407.163,2.849-.163,8.386-.081,2.2-.163,4.071-.163,4.641,0,.081.651,8.63.57,11.724V140.4Z" transform="translate(-4.163 -16.655)" fill="#2e3c4b"/>
        <path id="Path_2267" data-name="Path 2267" d="M28.27,78.634l-.57-.081c.814-10.909,2.2-51.046,1.954-53a6.427,6.427,0,0,1-1.14-1.873c-.163-.651-.57-3.908,0-4.4.9-.814,10.991-.488,13.189-.163a1.274,1.274,0,0,1,.814.326,5.571,5.571,0,0,1,0,2.849,5.6,5.6,0,0,0-.163,1.058v.081a9.991,9.991,0,0,1-.977,2.117c-.081,1.791.9,41.765,1.465,52.919h-.57c-.488-9.363-1.628-52.593-1.465-53.163a11.6,11.6,0,0,0,.977-2.035,5.6,5.6,0,0,1,.163-1.058,5.048,5.048,0,0,0,.081-2.442c-1.384-.651-12.619-.488-13.108-.081A10.212,10.212,0,0,0,29,23.517a4.649,4.649,0,0,0,1.058,1.71C30.631,25.959,28.921,70.411,28.27,78.634Z" transform="translate(-4.858 -3.082)" fill="#2e3c4b"/>
        <path id="Path_2268" data-name="Path 2268" d="M41.6,18.159h-.57a17.6,17.6,0,0,0-.407-4.641,25.8,25.8,0,0,0-7.083,0c-.244.244-.163,2.2.163,4.315l-.57.081c-.244-1.628-.57-4.478.163-4.885s7.083-.407,7.734,0C41.52,13.519,41.6,16.45,41.6,18.159Z" transform="translate(-5.815 -1.958)" fill="#2e3c4b"/>
        <path id="Path_2269" data-name="Path 2269" d="M26.007,111.025l-.407-.407c2.361-2.035,4.8-4.641,4.885-5.129v-2.768a41.734,41.734,0,0,0-.163-5.455c-.651-1.3-.814-4.8-.814-4.966h.57s.163,3.582.733,4.722c.244.57.244,2.442.244,5.7v2.768C31.055,106.385,27.228,109.967,26.007,111.025Z" transform="translate(-4.468 -16.748)" fill="#2e3c4b"/>
        <path id="Path_2270" data-name="Path 2270" d="M46.413,111.332c-1.058-.733-6.513-4.315-6.513-5.862a50.636,50.636,0,0,1,.814-8.548,31.143,31.143,0,0,0,.57-4.722h.57a30.978,30.978,0,0,1-.57,4.8,41.817,41.817,0,0,0-.814,8.386c0,.977,3.826,3.826,6.269,5.373Z" transform="translate(-7.125 -16.73)" fill="#2e3c4b"/>
        <path id="Path_2271" data-name="Path 2271" d="M36.661,68.563H34.3v-.326c0-.977.081-3.257.977-3.338s1.221,2.035,1.3,3.257Zm-1.791-.57h1.14a4.91,4.91,0,0,0-.733-2.442A5.023,5.023,0,0,0,34.87,67.993Z" transform="translate(-6.085 -11.655)" fill="#2e3c4b"/>
        <path id="Path_2272" data-name="Path 2272" d="M36.991,106.387H35.2v-.244c0-.407-.081-2.361.9-2.442a1.157,1.157,0,0,1,.488.163c.488.488.488,1.954.488,2.2Zm-1.3-.57h.733a2.736,2.736,0,0,0-.326-1.547h0C35.851,104.27,35.688,105.084,35.688,105.817Z" transform="translate(-6.252 -18.867)" fill="#2e3c4b"/>
        <path id="Path_2273" data-name="Path 2273" d="M38.391,125.741h-2.2V125.5c-.081-1.3-.081-4.315,1.058-4.4a.6.6,0,0,1,.488.163c.733.651.651,3.664.651,4.234Zm-1.628-.57h1.058c0-1.954-.244-3.5-.488-3.582C37.007,121.588,36.681,123.3,36.763,125.171Z" transform="translate(-6.431 -22.101)" fill="#2e3c4b"/>
        <path id="Path_2274" data-name="Path 2274" d="M42,42.915H39.965v-.244c-.081-.57-.407-3.257.244-3.908a.687.687,0,0,1,.57-.163c1.221.244,1.3,3.175,1.3,4.071Zm-1.547-.57h1.058c-.081-1.547-.407-3.094-.9-3.175C40.209,39.5,40.209,41.042,40.453,42.345Z" transform="translate(-7.109 -6.767)" fill="#2e3c4b"/>
        <path id="Path_2275" data-name="Path 2275" d="M33.041,26.106H31.249l-.081-.163c-.244-.407-1.384-2.605-.9-3.419a.669.669,0,0,1,.488-.326c1.3-.163,2.035,2.931,2.2,3.5Zm-1.465-.57h.733c-.326-1.3-.977-2.768-1.465-2.768-.081,0-.081,0-.081.081A5.158,5.158,0,0,0,31.575,25.537Z" transform="translate(-5.314 -3.718)" fill="#2e3c4b"/>
        <path id="Path_2276" data-name="Path 2276" d="M36.046,26.289l-1.791-.081v-.244c-.244-1.547-.407-3.5.407-3.664a.821.821,0,0,1,.651.244,6.514,6.514,0,0,1,.814,3.419Zm-1.221-.57h.814a5.736,5.736,0,0,0-.733-2.687l-.081-.081A5.768,5.768,0,0,0,34.825,25.719Z" transform="translate(-6.039 -3.738)" fill="#2e3c4b"/>
        <path id="Path_2277" data-name="Path 2277" d="M39.391,26.263H37.6l.081-.326c.163-1.058.57-3.419,1.547-3.338a.448.448,0,0,1,.407.244c.488.651-.081,2.768-.163,3.257Zm-1.14-.57h.733c.326-1.221.407-2.442.163-2.524C38.9,23.169,38.5,24.228,38.251,25.693Z" transform="translate(-6.698 -3.793)" fill="#2e3c4b"/>
        <path id="Path_2278" data-name="Path 2278" d="M42.835,26.182H40.8l.081-.407c.326-.977,1.14-3.257,2.035-3.175a.448.448,0,0,1,.407.244c.407.651-.326,2.524-.488,3.094Zm-1.221-.57h.814a5,5,0,0,0,.488-2.442h0C42.673,23.169,42.1,24.228,41.614,25.612Z" transform="translate(-7.293 -3.793)" fill="#2e3c4b"/>
        <path id="Path_2279" data-name="Path 2279" d="M29.867,98.826H27.751l-.081-.163c-.163-.407-.9-2.687-.407-3.419A.492.492,0,0,1,27.751,95c1.058-.081,1.791,2.687,2.035,3.582Zm-1.71-.57h.977c-.407-1.547-.977-2.768-1.3-2.768C27.588,95.814,27.832,97.116,28.158,98.256Z" transform="translate(-4.746 -17.25)" fill="#2e3c4b"/>
        <path id="Path_2280" data-name="Path 2280" d="M35.65,98.738H33.614l-.081-.244c-.163-.651-.57-2.768,0-3.338a.5.5,0,0,1,.57-.163c.9.163,1.3,1.221,1.465,1.791,0,0,.488,1.465.081,1.873ZM34.1,98.086h1.221a4.275,4.275,0,0,0-.57-1.954,1.328,1.328,0,0,0-.733-.651A5.391,5.391,0,0,0,34.1,98.086Z" transform="translate(-5.888 -17.243)" fill="#2e3c4b"/>
        <path id="Path_2281" data-name="Path 2281" d="M39.471,98.745h-2.28V98.5c0-.244-.244-2.361.488-3.175A.884.884,0,0,1,38.412,95c.651,0,.814.977.977,1.872.081.814.081,1.628.081,1.628Zm-1.791-.57H38.9c0-1.3-.244-2.524-.488-2.605a.423.423,0,0,0-.326.163A4.848,4.848,0,0,0,37.68,98.175Z" transform="translate(-6.615 -17.25)" fill="#2e3c4b"/>
        <path id="Path_2282" data-name="Path 2282" d="M45.8,98.645H43.6l.081-.326c.163-1.058.733-3.5,1.71-3.419a.448.448,0,0,1,.407.244c.488.733.081,2.849,0,3.257Zm-1.547-.57H45.31a5.444,5.444,0,0,0,0-2.605C45.065,95.469,44.577,96.609,44.251,98.075Z" transform="translate(-7.813 -17.231)" fill="#2e3c4b"/>
        <path id="Path_2283" data-name="Path 2283" d="M42.53,19.3l-.488-.326a14.14,14.14,0,0,0,.977-1.954c-1.547-.163-13.352-.488-14.654-.081a8.726,8.726,0,0,0,.57,2.035l-.488.244a5.394,5.394,0,0,1-.651-2.442c.081-.326.163-.651,7.734-.488,3.582.081,7.409.244,7.734.244.163,0,.244.081.326.244C43.751,17.1,43.1,18.325,42.53,19.3Z" transform="translate(-4.871 -2.613)" fill="#2e3c4b"/>
        <path id="Path_2284" data-name="Path 2284" d="M32.981,12.25,32.9,5.9h8.467l-.57,6.106-.57-.081L40.8,6.47H33.47l.081,5.78Z" transform="translate(-5.824 -0.69)" fill="#2e3c4b"/>
        <path id="Path_2285" data-name="Path 2285" d="M33.158,5.615,32.1,5.452V5.126c.081-.488,2.768-3.908,4.071-3.826,1.14.081,4.966,3.094,5.129,3.826l.081.244-.244.163-.244-.488c-.163.081-.163.163-.163.244-.244-.57-3.664-3.338-4.641-3.419h0c-.814,0-2.768,2.28-3.338,3.094l.407.081Z" transform="translate(-5.676 0.166)" fill="#2e3c4b"/>
        <path id="Path_2286" data-name="Path 2286" d="M36.433,1.617a.6.6,0,0,1-.488-.163A1,1,0,0,1,35.7.721a1.571,1.571,0,0,1,.244-.814A1.322,1.322,0,0,1,36.677-.5h0c.733.081,1.058.407,1.058.9,0,.326-.163.814-1.058,1.058C36.758,1.617,36.6,1.617,36.433,1.617ZM36.758.233A.423.423,0,0,0,36.433.4.622.622,0,0,0,36.27.8c0,.163,0,.244.081.244,0,0,.081.081.407,0C37,.965,37.41.8,37.41.558A.728.728,0,0,0,36.758.233Z" transform="translate(-6.345 0.5)" fill="#2e3c4b"/>
        <path id="Path_2287" data-name="Path 2287" d="M42.525,148.037c-15.794,0-38.834-.407-39.893-1.547-1.465-1.465-1.14-15.143-1.14-16.69h.57c-.163,6.025,0,15.306.977,16.283.651.488,9.363,1.058,27.518,1.3,13.922.163,26.378.081,27.518-.326.488-.977.57-10.909.57-17.015h.57c0,3.908,0,16.608-.651,17.422-.081.163-.244.244-3.257.407C52.783,148.037,48.143,148.037,42.525,148.037Z" transform="translate(0.019 -23.718)" fill="#2e3c4b"/>
        <path id="Path_1306" d="M25.4,115.4" transform="translate(-4.43 -21.042)" fill="none" stroke="#2e3c4b" stroke-miterlimit="10" stroke-width="0.7"/>
        <path id="Path_2288" data-name="Path 2288" d="M48.27,145.034H47.7l.57-16.446L47.7,115.4h.57l.57,13.189Z" transform="translate(-8.575 -21.042)" fill="#2e3c4b"/>
        <path id="Path_2289" data-name="Path 2289" d="M7.156,138.808a1.033,1.033,0,0,1-.488-.081c-.244-.081-.407-.244-.407-.326-.163-.407-.9-4.071-.488-4.885a.436.436,0,0,1,.326-.244h0c.163,0,3.012-.326,3.419.081.326.326.407,2.849.326,3.908-.081.488-.163.814-.326.9A5.044,5.044,0,0,1,7.156,138.808Zm-.9-4.966c-.244.57.326,3.745.57,4.4a4.12,4.12,0,0,0,2.28-.407,11.044,11.044,0,0,0-.081-3.989A7.889,7.889,0,0,0,6.261,133.842Z" transform="translate(-0.76 -24.341)" fill="#2e3c4b"/>
        <path id="Path_2290" data-name="Path 2290" d="M16.742,138.742c-.57,0-1.058-.081-1.221-.326v-.081a25.058,25.058,0,0,1-.326-4.966v-.081c.081-.326.488-.488,1.3-.488,0,0,2.035-.081,2.28.488a16.71,16.71,0,0,1,.081,4.966q-.122.244-.244.244A6.782,6.782,0,0,1,16.742,138.742Zm-.733-.651a7.943,7.943,0,0,0,2.361-.081,16.559,16.559,0,0,0-.081-4.478,6.591,6.591,0,0,0-2.524-.081A22.2,22.2,0,0,0,16.009,138.091Zm2.28-4.559Z" transform="translate(-2.53 -24.275)" fill="#2e3c4b"/>
        <path id="Path_2291" data-name="Path 2291" d="M8.753,146.406a13.319,13.319,0,0,1-1.628-.081H6.8c-.163,0-.488,0-.814-2.849-.163-1.628,0-2.035.326-2.117h0c.081,0,2.931-.407,3.338,0l.081.081v.244a7.739,7.739,0,0,0,.081,1.14c.163,2.442.163,3.175-.163,3.419C9.568,146.325,9.323,146.406,8.753,146.406Zm-1.71-.733h.163c1.547.163,2.035.081,2.117,0a19.278,19.278,0,0,0-.081-2.931c0-.488-.081-.9-.081-1.058a14.888,14.888,0,0,0-2.687.163A15.547,15.547,0,0,0,7.044,145.674Z" transform="translate(-0.81 -25.833)" fill="#2e3c4b"/>
        <path id="Path_2292" data-name="Path 2292" d="M17.324,146.545a6.285,6.285,0,0,1-1.221-.163h-.081c-.163-.081-.326-.244-.488-1.221-.081-.57-.57-3.338-.081-3.908l.081-.081h.081a7.008,7.008,0,0,1,2.605,0,.763.763,0,0,1,.407.733c.163.814.326,4.152,0,4.478l-.081.081C18.138,146.464,17.731,146.545,17.324,146.545Zm-.977-.733a3.647,3.647,0,0,0,1.873,0,17.025,17.025,0,0,0-.244-4.152,9.2,9.2,0,0,0-2.117,0A11.647,11.647,0,0,0,16.347,145.813Z" transform="translate(-2.541 -25.809)" fill="#2e3c4b"/>
        <rect id="Rectangle_271" data-name="Rectangle 271" width="3.419" height="0.57" transform="translate(5.257 111.211)" fill="#2e3c4b"/>
        <rect id="Rectangle_272" data-name="Rectangle 272" width="0.57" height="4.885" transform="translate(6.695 109.11) rotate(-2.584)" fill="#2e3c4b"/>
        <rect id="Rectangle_273" data-name="Rectangle 273" width="0.57" height="4.641" transform="translate(6.885 115.607)" fill="#2e3c4b"/>
        <rect id="Rectangle_274" data-name="Rectangle 274" width="0.57" height="3.257" transform="translate(5.455 118.121) rotate(-87.525)" fill="#2e3c4b"/>
        <rect id="Rectangle_275" data-name="Rectangle 275" width="0.57" height="3.338" transform="translate(12.852 111.568) rotate(-86.689)" fill="#2e3c4b"/>
        <rect id="Rectangle_276" data-name="Rectangle 276" width="0.57" height="5.373" transform="translate(14.034 108.776) rotate(-2.068)" fill="#2e3c4b"/>
        <rect id="Rectangle_277" data-name="Rectangle 277" width="0.57" height="4.803" transform="matrix(0.999, -0.045, 0.045, 0.999, 14.269, 115.541)" fill="#2e3c4b"/>
        <rect id="Rectangle_278" data-name="Rectangle 278" width="0.57" height="2.931" transform="translate(13.045 118.076) rotate(-83.523)" fill="#2e3c4b"/>
        <path id="Path_2293" data-name="Path 2293" d="M65.922,146.809a2.243,2.243,0,0,1-1.3-.244c-.326-.326-.407-2.849-.326-3.908.081-.488.163-.814.326-.9a4.85,4.85,0,0,1,2.687-.57c.244.081.407.244.407.326.163.407.9,4.071.488,4.885a.436.436,0,0,1-.326.244h0A7.332,7.332,0,0,1,65.922,146.809Zm-.9-.57a10.7,10.7,0,0,0,2.768-.081c.244-.57-.326-3.745-.57-4.4a3.63,3.63,0,0,0-2.28.488A13.28,13.28,0,0,0,65.026,146.239Z" transform="translate(-11.654 -25.829)" fill="#2e3c4b"/>
        <path id="Path_2294" data-name="Path 2294" d="M57.38,147.145c-.57,0-1.873-.081-2.035-.488a16.709,16.709,0,0,1-.081-4.966q.122-.244.244-.244c.244-.081,2.768-.57,3.094.163v.081a25.058,25.058,0,0,1,.326,4.966v.081c-.081.326-.488.488-1.3.488C57.624,147.145,57.543,147.145,57.38,147.145Zm-1.547-.733a6.591,6.591,0,0,0,2.524.081,22.2,22.2,0,0,0-.244-4.641,7.943,7.943,0,0,0-2.361.081A20.683,20.683,0,0,0,55.833,146.413Zm0,0Z" transform="translate(-9.951 -25.839)" fill="#2e3c4b"/>
        <path id="Path_2295" data-name="Path 2295" d="M65.4,138.9a2.516,2.516,0,0,1-1.058-.163l-.081-.081v-.244a7.74,7.74,0,0,0-.081-1.14c-.163-2.442-.163-3.175.163-3.419.244-.244.977-.244,2.605-.081h.326c.163,0,.488,0,.814,2.768.163,1.71,0,2.035-.326,2.117h0A10.043,10.043,0,0,1,65.4,138.9Zm-.57-.651a14.89,14.89,0,0,0,2.687-.163,13,13,0,0,0-.488-3.826h-.163c-1.547-.163-2.035-.081-2.117,0a19.279,19.279,0,0,0,.081,2.931A4.223,4.223,0,0,0,64.827,138.252Z" transform="translate(-11.618 -24.436)" fill="#2e3c4b"/>
        <path id="Path_2296" data-name="Path 2296" d="M57.259,138.945a7,7,0,0,1-1.3-.081c-.244-.081-.326-.326-.407-.733-.163-.651-.407-4.152,0-4.478l.081-.081a5.763,5.763,0,0,1,2.361,0h.081c.163.081.326.244.488,1.221.081.57.488,3.338.081,3.908l-.081.081H58.48A3.165,3.165,0,0,1,57.259,138.945Zm-1.14-.651a9.2,9.2,0,0,0,2.117,0,11.871,11.871,0,0,0-.488-4.152,3.647,3.647,0,0,0-1.873,0A22.348,22.348,0,0,0,56.119,138.294Z" transform="translate(-9.993 -24.397)" fill="#2e3c4b"/>
        <rect id="Rectangle_279" data-name="Rectangle 279" width="3.419" height="0.57" transform="translate(52.884 118.049)" fill="#2e3c4b"/>
        <rect id="Rectangle_280" data-name="Rectangle 280" width="0.57" height="4.885" transform="translate(54.16 115.869) rotate(-2.579)" fill="#2e3c4b"/>
        <rect id="Rectangle_281" data-name="Rectangle 281" width="0.57" height="4.641" transform="translate(54.186 109.501)" fill="#2e3c4b"/>
        <path id="Path_2297" data-name="Path 2297" d="M67.857,137.233,64.6,137.07v-.57l3.338.163Z" transform="translate(-11.716 -24.964)" fill="#2e3c4b"/>
        <rect id="Rectangle_282" data-name="Rectangle 282" width="0.57" height="3.338" transform="translate(45.443 118.584) rotate(-86.689)" fill="#2e3c4b"/>
        <rect id="Rectangle_283" data-name="Rectangle 283" width="0.57" height="5.373" transform="matrix(0.999, -0.036, 0.036, 0.999, 46.758, 115.615)" fill="#2e3c4b"/>
        <rect id="Rectangle_284" data-name="Rectangle 284" width="0.57" height="4.803" transform="translate(46.59 109.518) rotate(-2.576)" fill="#2e3c4b"/>
        <rect id="Rectangle_285" data-name="Rectangle 285" width="0.57" height="2.931" transform="matrix(0.113, -0.994, 0.994, 0.113, 45.565, 111.922)" fill="#2e3c4b"/>
        <rect id="Rectangle_286" data-name="Rectangle 286" width="0.57" height="5.536" transform="translate(29.795 5.552) rotate(-2.694)" fill="#2e3c4b"/>
        <rect id="Rectangle_287" data-name="Rectangle 287" width="5.618" height="0.57" transform="translate(33.077 11.12) rotate(-86.643)" fill="#2e3c4b"/>
        <rect id="Rectangle_288" data-name="Rectangle 288" width="3.582" height="0.57" transform="matrix(0.928, -0.373, 0.373, 0.928, 40.058, 4.772)" fill="#2e3c4b"/>
        <rect id="Rectangle_289" data-name="Rectangle 289" width="3.908" height="0.57" transform="translate(41.226 7.949) rotate(-3.92)" fill="#2e3c4b"/>
        <rect id="Rectangle_290" data-name="Rectangle 290" width="0.57" height="2.768" transform="matrix(0.449, -0.894, 0.894, 0.449, 40.624, 11.35)" fill="#2e3c4b"/>
        <rect id="Rectangle_291" data-name="Rectangle 291" width="0.57" height="2.524" transform="matrix(0.425, -0.905, 0.905, 0.425, 19.473, 3.94)" fill="#2e3c4b"/>
        <rect id="Rectangle_292" data-name="Rectangle 292" width="3.826" height="0.57" transform="translate(16.971 7.727) rotate(-2.24)" fill="#2e3c4b"/>
        <rect id="Rectangle_293" data-name="Rectangle 293" width="2.605" height="0.57" transform="translate(17.64 12.552) rotate(-25.632)" fill="#2e3c4b"/>
        <path id="Path_2298" data-name="Path 2298" d="M10.843,127.708c-5.129,0-10.258-.244-11.072-.9-.163-.081-.326-.326.57-5.373.244-1.14.9-5.048,1.221-5.455.244-.407,2.605-.57,12.375-.977,3.338-.163,6.432-.244,7-.407l.081.57c-.651.081-3.664.244-7.083.407-4.478.163-11.154.488-11.968.733A67.008,67.008,0,0,0,.178,126.4c.57.326,3.582.651,10.421.651a76.89,76.89,0,0,0,10.909-.407l.163.57C20.775,127.545,15.809,127.708,10.843,127.708Z" transform="translate(0.357 -20.893)" fill="#2e3c4b"/>
        <path id="Path_2299" data-name="Path 2299" d="M58.765,127.941a90.708,90.708,0,0,1-10.177-.326l.163-.57c1.628.407,18.562.488,19.865-.163.326-1.058-1.3-9.688-1.954-10.258-1.14-.326-17.585-1.3-18.481-1.058L48.1,115c.9-.163,17.585.814,18.806,1.14a1.173,1.173,0,0,1,.488.57c.814,1.791,2.2,9.607,1.791,10.5-.081.244-.326.651-9.932.733Z" transform="translate(-8.65 -20.963)" fill="#2e3c4b"/>
        <path id="Path_2300" data-name="Path 2300" d="M38.3,144.24l-2.605-.081v-.244c0-.081-.163-4.4,1.3-4.722a.5.5,0,0,1,.57.163c.814.733.733,3.989.733,4.641Zm-2.117-.651,1.547.081c0-1.465-.081-3.5-.57-3.908h-.081C36.35,139.844,36.187,142.612,36.187,143.589Z" transform="translate(-6.344 -25.458)" fill="#2e3c4b"/>
      </g>
      <rect id="Rectangle_294" data-name="Rectangle 294" width="1.384" height="0.57" transform="translate(94.64 12.24) rotate(-25.099)" fill="#2e3c4b"/>
      <path id="Path_2301" data-name="Path 2301" d="M119.582,138.318l-1.547-1.547.407-.407.488.488C118.605,130.34,116,82.224,116,71.4c0-11.561,1.3-56.419,1.3-56.827V14l2.117,1.547-.326.488-1.221-.9c-.163,5.21-1.3,45.429-1.3,56.257,0,11.561,2.931,65.619,2.931,66.189Z" transform="translate(-21.547 -2.641)" fill="#2e3c4b"/>
      <rect id="Rectangle_295" data-name="Rectangle 295" width="1.71" height="0.57" transform="translate(97.478 134.704) rotate(-43.529)" fill="#2e3c4b"/>
      <path id="Path_2302" data-name="Path 2302" d="M129.324,91.312a2.168,2.168,0,0,1-.977-.244,5,5,0,0,1-2.035-1.873,10.026,10.026,0,0,1-2.117-5.455,6.389,6.389,0,0,1,2.2-5.373,4.645,4.645,0,0,1,5.7-.081l-.326.488a3.926,3.926,0,0,0-4.966.081,5.876,5.876,0,0,0-2.035,4.885,20.822,20.822,0,0,0,.407,2.2A3.469,3.469,0,0,1,129,85.206a4.642,4.642,0,0,1,2.524,3.257,2.764,2.764,0,0,1-.326,2.117A3.372,3.372,0,0,1,129.324,91.312Zm-3.989-4.966A7.881,7.881,0,0,0,126.8,88.87a4.28,4.28,0,0,0,1.791,1.628,1.724,1.724,0,0,0,2.035-.407,1.918,1.918,0,0,0,.244-1.628,3.635,3.635,0,0,0-2.2-2.849,2.879,2.879,0,0,0-3.257.733Z" transform="translate(-23.067 -14.416)" fill="#2e3c4b"/>
      <path id="Path_2303" data-name="Path 2303" d="M138.854,91.322l-.57-.163a37.495,37.495,0,0,1,2.605-6.513c.488-.977.977-2.035,1.465-3.012a5.342,5.342,0,0,0,.651-2.931c0-.081,0-.081-.081-.163h-.081l-5.943-.57.081-.57,5.943.57a.622.622,0,0,1,.407.163.739.739,0,0,1,.244.57,7.253,7.253,0,0,1-.733,3.175c-.407.977-.977,2.035-1.465,3.012A32.929,32.929,0,0,0,138.854,91.322Z" transform="translate(-25.432 -14.425)" fill="#2e3c4b"/>
      <path id="Path_2304" data-name="Path 2304" d="M140.7,86.751h-1.3v-.57a17.572,17.572,0,0,0,3.582-.081l.081.57C142.249,86.67,141.435,86.751,140.7,86.751Z" transform="translate(-25.897 -16.042)" fill="#2e3c4b"/>
      <path id="Path_2305" data-name="Path 2305" d="M144.888,97.449l-.488-.244a14.052,14.052,0,0,0,.9-2.605l.57.163C145.54,95.658,145.3,96.554,144.888,97.449Z" transform="translate(-26.826 -17.622)" fill="#2e3c4b"/>
      <path id="Path_2306" data-name="Path 2306" d="M155.815,92.669l-.57-.081A46.6,46.6,0,0,1,158.827,80.7a6.434,6.434,0,0,0,.814-2.687L151.5,77.77V77.2l8.711.244v.244a6.527,6.527,0,0,1-.9,3.257A45.272,45.272,0,0,0,155.815,92.669Z" transform="translate(-28.146 -14.388)" fill="#2e3c4b"/>
      <path id="Path_2307" data-name="Path 2307" d="M157.047,85.751H155.5v-.57a36.741,36.741,0,0,0,4.233-.081l.081.57C158.919,85.751,158.024,85.751,157.047,85.751Z" transform="translate(-28.889 -15.856)" fill="#2e3c4b"/>
      <path id="Path_2308" data-name="Path 2308" d="M164.665,95.894c-.163,0-.733,0-1.465-6.513l.57-.081a36.414,36.414,0,0,0,.814,5.048,7.3,7.3,0,0,1,.163-1.954,4.613,4.613,0,0,1,1.791-2.768l.163-.081.163.081a3.926,3.926,0,0,1,1.71,2.361,5.185,5.185,0,0,0,.163-.57,3.359,3.359,0,0,1,2.117-1.954,1.588,1.588,0,0,1,1.221,0,2.572,2.572,0,0,1,1.14,1.14,5.72,5.72,0,0,1,.488,2.605,6.2,6.2,0,0,0,.244,1.71l-.57.163a13.522,13.522,0,0,1-.244-1.791,5.948,5.948,0,0,0-.488-2.442,1.587,1.587,0,0,0-.814-.814,1.665,1.665,0,0,0-.9,0,2.744,2.744,0,0,0-1.791,1.628,4.809,4.809,0,0,0-.326,2.117.734.734,0,0,0,.081.407l-.57.081c0-.163-.081-.244-.081-.407-.244-1.384-.57-2.931-1.628-3.664a4.28,4.28,0,0,0-1.465,2.28,6.689,6.689,0,0,0-.163,1.872c0,.9,0,1.221-.163,1.384l-.081.081Z" transform="translate(-30.32 -16.637)" fill="#2e3c4b"/>
    </g>
  </g>
</svg>
