<svg xmlns="http://www.w3.org/2000/svg" width="300.761" height="343.272" viewBox="0 0 300.761 343.272">
  <g id="CIEKAWOSTKA" transform="translate(-1072.137 -81.504)">
    <path id="Path_1283" data-name="Path 1283" d="M1084.371,97.533c18.487-24.532,261.127-17.963,274.9,0s19.939,286.1,4.86,308.177S1098.345,431,1084.367,413.723,1065.884,122.065,1084.371,97.533Z" fill="#e5a34c"/>
    <g id="CIEKAWOSTKA-2" transform="translate(1167.963 103.808)" style="isolation: isolate">
      <text id="CIEKAWOSTKA-2-2" data-name="CIEKAWOSTKA" transform="translate(0 14)" fill="#2e3c4b" font-size="18" font-family="SulphurPoint-Bold, Sulphur Point" font-weight="700" letter-spacing="0.025em" style="isolation: isolate"><tspan x="0" y="0">CIEKAWOSTKA</tspan></text>
    </g>
    <rect id="Rectangle_45" data-name="Rectangle 45" width="10.336" height="2.068" transform="translate(1219.039 124.479)" fill="#ae4426"/>
    <g id="Group_181" data-name="Group 181" transform="translate(1149.917 142.055)">
      <path id="Path_1327" data-name="Path 1327" d="M1176.364,193.648c4.567-12.491,15.3-38.241,36.15-38.7s78.092-2.484,92.636,14.946,17.115,31.022,14.97,58.51-9.522,43.449-18.216,58.073-45.705,25.894-78.969,24.6-57.493-21.017-56.848-48.009,12.279-30.6,10.273-42.326S1171.8,206.139,1176.364,193.648Z" transform="translate(-1166.075 -154.634)" fill="#f2edeb"/>
    </g>
    <text id="Latarnia_Czołpino_pojawiła_się_w_komedii_Zakochani_w_której_Cezary_Pazura_gra_latarnika" data-name="Latarnia Czołpino pojawiła się
w komedii Zakochani, 
w której Cezary Pazura 
gra latarnika" transform="translate(1220.952 334.398)" fill="#2e3c4b" font-size="16" font-family="ClarikaProGeo-Th, Clarika Pro Geometric" letter-spacing="0.025em" style="isolation: isolate"><tspan x="-105.718" y="0">Latarnia Czołpino pojawiła się</tspan><tspan x="-78.367" y="19">w komedii Zakochani, </tspan><tspan x="-82.343" y="38">w której Cezary Pazura </tspan><tspan font-family="ClarikaProGeo-Dm, Clarika Pro Geometric"><tspan x="-49.216" y="57">gra latarnika</tspan></tspan></text>
    <g id="czołpino" transform="translate(1186.135 156.318)">
      <path id="Path_1977" data-name="Path 1977" d="M1239.229,304.819c-7.091,0-21.5-1.322-23.442-3.029a.65.65,0,0,1-.252-.44h0c-.059-.988,1.408-25.57,2.7-47.259.994-16.644,1.932-32.366,1.9-32.822a13.3,13.3,0,0,0-1.933-1.689c-.133-.1-.248-.193-.334-.263-.22-.176-.369-.726-.441-1.633-.107-1.345-.02-3.468.421-3.952.676-.744,16.881-.326,21.9-.057,3.059.164,8.047.046,12.447-.059,6.666-.156,8.37-.157,8.566.137.3.455-.055,2.212-.686,4.709l-.031.121a2.636,2.636,0,0,1-1.143,1.426,4.23,4.23,0,0,0-1.216,1.277c.451,3.924,8.969,78.385,7.18,80.753-1.408,1.864-10.466,2.194-17.743,2.459-2.125.078-4.133.151-5.6.255C1240.911,304.8,1240.129,304.819,1239.229,304.819Zm-14.285-91.153c-3.69,0-6.533.089-6.842.31a8.527,8.527,0,0,0-.322,3.682c.075.96.23,1.323.31,1.387s.2.158.332.261c1.264.989,1.966,1.584,2.058,1.894.05.171-.382,7.565-1.894,32.913-1.294,21.679-2.76,46.25-2.7,47.217a.331.331,0,0,0,.133.2c1.969,1.727,19.536,3.3,25.493,2.876,1.469-.1,3.479-.178,5.607-.255,6.824-.249,16.169-.59,17.477-2.321,1.423-1.884-4.754-58.79-7.253-80.557l-.007-.055.027-.048a4.486,4.486,0,0,1,1.335-1.434,2.339,2.339,0,0,0,1.018-1.235l.031-.122c.672-2.661.918-4.151.734-4.428a81.057,81.057,0,0,0-8.267.019c-4.407.1-9.4.223-12.475.058C1235.775,213.813,1229.665,213.666,1224.944,213.666Z" transform="translate(-1210.8 -178.989)" fill="#2e3c4b"/>
      <path id="Path_1978" data-name="Path 1978" d="M1241.916,184.735c-3.216,0-12.454-.283-12.949-1.325h0a.469.469,0,0,1,.089-.43c1.08-1.627,10.854-8.022,13.333-8.022h.06c2.324.105,11.455,6.032,12.367,8.027a.544.544,0,0,1-.01.592c-.781.989-5.44,1.1-10.991,1.142-.51,0-1,.007-1.451.012Zm-12.624-1.461c.436.619,7.912,1.159,13.066,1.109.455-.006.942-.009,1.453-.012,3.973-.028,9.977-.071,10.719-1.008.028-.036.015-.122-.035-.229-.857-1.875-9.876-7.724-12.064-7.823-1.009-.051-3.859,1.332-7.428,3.6C1231.374,181.209,1229.375,182.905,1229.292,183.275Z" transform="translate(-1213.106 -172.392)" fill="#2e3c4b"/>
      <rect id="Rectangle_178" data-name="Rectangle 178" width="0.35" height="14.969" transform="translate(16.062 11.123) rotate(-0.656)" fill="#2e3c4b"/>
      <rect id="Rectangle_179" data-name="Rectangle 179" width="0.35" height="14.852" transform="matrix(1, -0.012, 0.012, 1, 41.386, 11.081)" fill="#2e3c4b"/>
      <path id="Path_1979" data-name="Path 1979" d="M1261.241,213.115l-.344-.064a8.714,8.714,0,0,0,.221-3.341c-.435-.151-7.411-.072-12.5-.014-3.449.039-6.429.073-7.54.046-.576-.015-1.774-.057-3.333-.113-5.48-.194-18.239-.646-19.181-.313a16.72,16.72,0,0,0,.038,3.752l-.348.031c-.051-.572-.286-3.451.022-3.989.193-.339,3.259-.4,19.483.171,1.556.055,2.752.1,3.329.112,1.1.026,4.081-.007,7.526-.046,8.731-.1,12.425-.11,12.7.074C1261.8,209.746,1261.425,212.112,1261.241,213.115Z" transform="translate(-1211.244 -178.222)" fill="#2e3c4b"/>
      <path id="Path_1980" data-name="Path 1980" d="M1227.6,223.593h-2.453l0-.177c0-.029.026-2.87-.907-3.815a.87.87,0,0,0-.639-.284c-1.61,0-2.154,2.841-2.159,2.87l-.344-.064c.023-.129.6-3.156,2.5-3.156a1.216,1.216,0,0,1,.888.388c.9.912,1,3.223,1.008,3.887h1.94c.076-.806.508-4.231,2.414-4.5a1.261,1.261,0,0,1,1.042.311c1,.867,1.134,3.265,1.153,3.955l1.906-.094c-.08-.638-.269-2.663.429-3.478a.989.989,0,0,1,.782-.362c1.566,0,2.166,2.849,2.288,3.533l1.367.075c.026-.645.186-2.784,1.138-3.633a1.355,1.355,0,0,1,1.079-.352c1,.1,1,2.82.979,3.7l2.413.241c.061-.8.411-3.875,2.207-3.981a1.278,1.278,0,0,1,.979.364c.958.893,1.119,3.2,1.145,3.856h1.2c.072-.857.431-4.128,1.7-4.22s1.952,3.227,2.1,4.055l1.986.023c.044-1.379.231-4.162,1-4.162h0c1.4.011,1.848,3.192,1.894,3.555l-.347.044c-.115-.9-.619-3.241-1.549-3.248h0c-.259,0-.595,1.706-.656,3.994l0,.172-2.621-.031-.025-.144c-.259-1.541-.945-3.971-1.758-3.908s-1.287,2.52-1.393,4.057l-.012.163h-1.866l0-.172c0-.029-.049-2.855-1.039-3.777a.935.935,0,0,0-.719-.271c-1.709.1-1.888,3.794-1.89,3.831l-.008.185-3.106-.31.007-.165c.058-1.42-.109-3.447-.66-3.5a1.012,1.012,0,0,0-.81.264c-.988.882-1.026,3.531-1.026,3.558l0,.183-2.011-.108-.021-.141c-.141-.94-.768-3.377-1.965-3.377a.643.643,0,0,0-.515.24c-.713.831-.328,3.364-.324,3.39l.03.192-2.655.129V223.2c0-.03-.012-2.982-1.036-3.873a.918.918,0,0,0-.763-.229c-1.836.255-2.124,4.295-2.126,4.336l-.011.163Z" transform="translate(-1211.757 -179.895)" fill="#2e3c4b"/>
      <path id="Path_1981" data-name="Path 1981" d="M1240.44,321.431c-.023-.28-.548-6.872,1.783-9.25a2.715,2.715,0,0,1,2.194-.837c1.986.127,3.4,1.894,4.076,5.109a23.027,23.027,0,0,1,.436,4.791l-.35-.012c0-.093.241-9.257-4.185-9.539a2.376,2.376,0,0,0-1.921.733c-2.22,2.265-1.689,8.909-1.684,8.975Z" transform="translate(-1215.073 -195.85)" fill="#2e3c4b"/>
      <path id="Path_1982" data-name="Path 1982" d="M1230.708,292.147h-3.689l-.015-.158c-.012-.125-.287-3.078.765-4.339a1.5,1.5,0,0,1,1.061-.566,1.263,1.263,0,0,1,1.04.382c1.12,1.121.863,4.382.851,4.52Zm-3.367-.35h3.042c.037-.665.116-3.207-.76-4.084a.921.921,0,0,0-.764-.28,1.157,1.157,0,0,0-.821.441C1227.208,288.869,1227.3,291.173,1227.341,291.8Z" transform="translate(-1212.766 -191.677)" fill="#2e3c4b"/>
      <path id="Path_1983" data-name="Path 1983" d="M1264.522,299.327h-3.859l-.007-.167c-.023-.584-.171-5.7,1.831-5.822a1.062,1.062,0,0,1,.821.318c1.229,1.167,1.216,5.322,1.215,5.5Zm-3.521-.349h3.171c-.012-.8-.118-4.131-1.105-5.067a.731.731,0,0,0-.559-.223C1261.151,293.766,1260.96,297.382,1261,298.977Z" transform="translate(-1218.559 -192.753)" fill="#2e3c4b"/>
      <path id="Path_1984" data-name="Path 1984" d="M1231.144,245.886h-4.325l0-.179c.005-.2.128-4.871,1.371-6.01a.914.914,0,0,1,.7-.268c1.842.118,2.2,5.644,2.237,6.273Zm-3.964-.35h3.594c-.118-1.739-.645-5.678-1.9-5.758a.593.593,0,0,0-.443.177C1227.424,240.878,1227.215,244.664,1227.179,245.536Z" transform="translate(-1212.741 -183.481)" fill="#2e3c4b"/>
      <path id="Path_1985" data-name="Path 1985" d="M1261.463,252.5h-3.613l-.017-.155c-.021-.186-.506-4.566.74-5.742a1.078,1.078,0,0,1,.975-.285c2.352.406,1.947,5.792,1.928,6.021Zm-3.3-.349h2.972c.049-.891.187-5.171-1.649-5.488a.737.737,0,0,0-.675.2C1257.815,247.8,1258.091,251.358,1258.165,252.147Z" transform="translate(-1218.057 -184.662)" fill="#2e3c4b"/>
      <rect id="Rectangle_180" data-name="Rectangle 180" width="0.35" height="14.047" transform="translate(18.611 11.732) rotate(-2.556)" fill="#2e3c4b"/>
      <rect id="Rectangle_181" data-name="Rectangle 181" width="13.765" height="0.351" transform="translate(22.564 26.039) rotate(-88.552)" fill="#2e3c4b"/>
      <rect id="Rectangle_182" data-name="Rectangle 182" width="0.351" height="13.822" transform="translate(26.921 12.175) rotate(-1.838)" fill="#2e3c4b"/>
      <rect id="Rectangle_183" data-name="Rectangle 183" width="0.35" height="13.588" transform="translate(32.02 12.169)" fill="#2e3c4b"/>
      <rect id="Rectangle_184" data-name="Rectangle 184" width="0.35" height="13.642" transform="translate(34.916 12.013) rotate(-1.244)" fill="#2e3c4b"/>
      <rect id="Rectangle_185" data-name="Rectangle 185" width="0.35" height="13.736" transform="translate(37.406 11.966) rotate(-4.442)" fill="#2e3c4b"/>
      <path id="Path_1986" data-name="Path 1986" d="M1244.513,174.825a.825.825,0,0,1-.513-.142c-.3-.221-.363-.654-.441-1.344a1.358,1.358,0,0,1,1.3-1.477l.024,0,.023,0c.792.124,1.612.252,1.612,1.283,0,.927-.473,1.43-1.534,1.627A2.609,2.609,0,0,1,1244.513,174.825Zm.364-2.612c-.16.025-1.071.2-.971,1.086.066.58.123.97.3,1.1.121.089.34.1.712.029.9-.167,1.247-.527,1.247-1.283C1246.167,172.521,1245.86,172.368,1244.877,172.213Z" transform="translate(-1215.618 -171.859)" fill="#2e3c4b"/>
      <path id="Path_1987" data-name="Path 1987" d="M1270.1,185.676l-.094-.337,8.217-2.293.094.337Z" transform="translate(-1220.168 -173.783)" fill="#2e3c4b"/>
      <rect id="Rectangle_186" data-name="Rectangle 186" width="4.831" height="0.35" transform="translate(53.266 17.529)" fill="#2e3c4b"/>
      <rect id="Rectangle_187" data-name="Rectangle 187" width="0.35" height="5.237" transform="translate(50.941 22.579) rotate(-62.876)" fill="#2e3c4b"/>
      <path id="Path_1988" data-name="Path 1988" d="M1218.2,185.77c-.751-.614-5.852-2.975-5.9-3l.147-.318a66.678,66.678,0,0,1,5.979,3.045Z" transform="translate(-1210.243 -173.681)" fill="#2e3c4b"/>
      <path id="Path_1989" data-name="Path 1989" d="M1211.119,192.852l-.015-.35,6.416-.278.015.35Z" transform="translate(-1210.038 -175.362)" fill="#2e3c4b"/>
      <rect id="Rectangle_188" data-name="Rectangle 188" width="5.554" height="0.35" transform="matrix(0.904, -0.427, 0.427, 0.904, 0, 25.828)" fill="#2e3c4b"/>
      <path id="Path_1990" data-name="Path 1990" d="M1255.506,212.106h0a.175.175,0,0,1-.172-.179c.077-3.158.086-8.042-.2-8.554-.406-.521-7.378-.5-12.88-.125a69.407,69.407,0,0,1-7.118-.069c-2.45-.105-5.228-.224-5.447.149-.558.951-.172,6.318.023,8.306a.176.176,0,0,1-.156.191.174.174,0,0,1-.192-.157c-.029-.3-.706-7.273.023-8.517.312-.531,2.192-.475,5.765-.321a69.148,69.148,0,0,0,7.079.069c.126-.008,12.6-.777,13.21.3.426.76.266,7.92.247,8.734A.175.175,0,0,1,1255.506,212.106Z" transform="translate(-1213.124 -177.151)"/>
    </g>
    <g id="Group_290" data-name="Group 290" transform="translate(1231.578 193.5)">
      <g id="Group_276" data-name="Group 276" transform="translate(0 20.816)">
        <path id="Path_1991" data-name="Path 1991" d="M1273.279,242.124c-1.7.488-7.915,28.188-8.375,28.889s36.832,14.589,38.758,13.861,11.73-32.025,11.031-33.448S1275.112,241.6,1273.279,242.124Z" transform="translate(-1264.734 -241.94)" fill="#f2edeb"/>
        <path id="Path_1992" data-name="Path 1992" d="M1303.437,285.027c-2.289,0-15.457-4.722-19.595-6.227-8.858-3.223-18.559-7-19.087-7.663a.2.2,0,0,1-.024-.249c.132-.227.838-3.064,1.654-6.35,2.914-11.719,5.626-22.266,6.814-22.607l.046.159-.046-.159c.985-.276,11.417,1.759,21.212,3.918,4.658,1.027,19.9,4.457,20.394,5.469.6,1.216-5.235,20.252-8.651,28.918-1.588,4.028-2.17,4.645-2.47,4.759A.742.742,0,0,1,1303.437,285.027Zm-38.382-14.057c.763.629,9.259,4.012,18.892,7.516,10.98,3.994,18.864,6.489,19.622,6.2.168-.064.726-.637,2.278-4.571,3.767-9.558,9.127-27.7,8.661-28.649-.38-.583-8.718-2.77-20.271-5.315-10.953-2.413-20.145-4.133-20.947-3.9h0c-1.1.315-4.8,15.209-6.583,22.367C1265.755,268.453,1265.247,270.478,1265.055,270.97Zm-.046.1Zm0,0Z" transform="translate(-1264.7 -241.907)" fill="#2e3c4b"/>
      </g>
      <path id="Path_1993" data-name="Path 1993" d="M1318.691,247.341a1.314,1.314,0,0,1-.562-.123c-.744-.347-8.844-6.377-16.885-12.66-7.221-5.64-15.849-12.607-15.949-13.77h0c-.066-.76,3.385-3.43,4.849-3.928.445-.152.745-.12.883.1.192.267,3.7,3.05,7.772,6.273,16.229,12.86,24.385,19.551,23.927,20.438C1322.182,244.716,1320.284,247.341,1318.691,247.341Zm-33.067-26.58c.068.79,5.983,5.851,15.823,13.537,7.812,6.1,16.1,12.283,16.822,12.621,1.263.593,3.383-1.9,4.161-3.4-.023-1.156-15.516-13.432-23.839-20.028-5.175-4.1-7.671-6.084-7.844-6.353-.026-.039-.157-.075-.484.035C1288.7,217.693,1285.59,220.3,1285.624,220.76Z" transform="translate(-1268.242 -216.766)" fill="#2e3c4b"/>
      <g id="Group_277" data-name="Group 277" transform="translate(19.453 4.378)">
        <line id="Line_1005" data-name="Line 1005" y1="1.98" x2="8.366" transform="translate(0.039 0.157)" fill="#f2edeb"/>
        <rect id="Rectangle_189" data-name="Rectangle 189" width="8.598" height="0.331" transform="translate(0 1.972) rotate(-13.257)" fill="#2e3c4b"/>
      </g>
      <g id="Group_278" data-name="Group 278" transform="translate(23.647 8.358)">
        <line id="Line_1006" data-name="Line 1006" y1="1.589" x2="9.215" transform="translate(0.028 0.167)" fill="#f2edeb"/>
        <rect id="Rectangle_190" data-name="Rectangle 190" width="9.351" height="0.332" transform="translate(0 1.596) rotate(-9.83)" fill="#2e3c4b"/>
      </g>
      <g id="Group_279" data-name="Group 279" transform="translate(30.026 12.375)">
        <line id="Line_1007" data-name="Line 1007" y1="2.752" x2="7.847" transform="translate(0.054 0.159)" fill="#f2edeb"/>
        <rect id="Rectangle_191" data-name="Rectangle 191" width="8.316" height="0.332" transform="translate(0 2.757) rotate(-19.363)" fill="#2e3c4b"/>
      </g>
      <g id="Group_280" data-name="Group 280" transform="translate(34.917 16.416)">
        <line id="Line_1008" data-name="Line 1008" y1="2.543" x2="7.975" transform="translate(0.052 0.154)" fill="#f2edeb"/>
        <rect id="Rectangle_192" data-name="Rectangle 192" width="8.371" height="0.331" transform="translate(0 2.536) rotate(-17.638)" fill="#2e3c4b"/>
      </g>
      <g id="Group_281" data-name="Group 281" transform="translate(40.545 20.134)">
        <line id="Line_1009" data-name="Line 1009" y1="3.166" x2="6.847" transform="translate(0.07 0.15)" fill="#f2edeb"/>
        <rect id="Rectangle_193" data-name="Rectangle 193" width="7.544" height="0.331" transform="translate(0 3.166) rotate(-24.814)" fill="#2e3c4b"/>
      </g>
      <g id="Group_282" data-name="Group 282" transform="translate(45.596 23.849)">
        <line id="Line_1010" data-name="Line 1010" y1="3.259" x2="6.098" transform="translate(0.078 0.146)" fill="#f2edeb"/>
        <path id="Path_1994" data-name="Path 1994" d="M1319.924,249.12l-.157-.292,6.1-3.259.157.292Z" transform="translate(-1319.768 -245.569)" fill="#2e3c4b"/>
      </g>
      <g id="Group_283" data-name="Group 283" transform="translate(8.098 21.854)">
        <line id="Line_1011" data-name="Line 1011" y1="5.041" x2="7.434" transform="translate(0.094 0.139)" fill="#f2edeb"/>
        <path id="Path_1995" data-name="Path 1995" d="M1274.668,248.479l-.188-.277,7.434-5.041.188.277Z" transform="translate(-1274.48 -243.16)" fill="#2e3c4b"/>
      </g>
      <g id="Group_284" data-name="Group 284" transform="translate(14.598 23.301)">
        <line id="Line_1012" data-name="Line 1012" y1="5.08" x2="7.753" transform="translate(0.092 0.14)" fill="#f2edeb"/>
        <path id="Path_1996" data-name="Path 1996" d="M1282.514,250.268l-.184-.281,7.753-5.08.184.281Z" transform="translate(-1282.33 -244.907)" fill="#2e3c4b"/>
      </g>
      <g id="Group_285" data-name="Group 285" transform="translate(22.053 24.547)">
        <line id="Line_1013" data-name="Line 1013" y1="5.388" x2="6.136" transform="translate(0.11 0.126)" fill="#f2edeb"/>
        <rect id="Rectangle_194" data-name="Rectangle 194" width="8.166" height="0.336" transform="translate(0 5.389) rotate(-41.29)" fill="#2e3c4b"/>
      </g>
      <g id="Group_286" data-name="Group 286" transform="translate(28.055 26.069)">
        <line id="Line_1014" data-name="Line 1014" y1="5.255" x2="6.593" transform="translate(0.105 0.129)" fill="#f2edeb"/>
        <rect id="Rectangle_195" data-name="Rectangle 195" width="8.432" height="0.335" transform="translate(0 5.252) rotate(-38.53)" fill="#2e3c4b"/>
      </g>
      <g id="Group_287" data-name="Group 287" transform="translate(35.085 27.33)">
        <line id="Line_1015" data-name="Line 1015" y1="5.721" x2="5.161" transform="translate(0.125 0.111)" fill="#f2edeb"/>
        <rect id="Rectangle_196" data-name="Rectangle 196" width="7.705" height="0.335" transform="matrix(0.67, -0.742, 0.742, 0.67, 0, 5.72)" fill="#2e3c4b"/>
      </g>
      <g id="Group_288" data-name="Group 288" transform="translate(40.298 28.701)">
        <line id="Line_1016" data-name="Line 1016" y1="5.596" x2="5.118" transform="translate(0.124 0.112)" fill="#f2edeb"/>
        <rect id="Rectangle_197" data-name="Rectangle 197" width="7.583" height="0.335" transform="translate(0 5.594) rotate(-47.54)" fill="#2e3c4b"/>
      </g>
      <g id="Group_289" data-name="Group 289" transform="translate(6.25 26.435)">
        <line id="Line_1017" data-name="Line 1017" x2="42.436" y2="9.711" transform="translate(0.037 0.163)" fill="#f2edeb"/>
        <path id="Path_1997" data-name="Path 1997" d="M1314.684,258.73l-42.436-9.711.074-.327,42.436,9.711Z" transform="translate(-1272.248 -248.692)" fill="#2e3c4b"/>
      </g>
      <path id="Path_1998" data-name="Path 1998" d="M1303.958,266.561l-22.848-5.816.082-.321,22.848,5.816Z" transform="translate(-1267.522 -224.275)" fill="#2e3c4b"/>
      <path id="Path_1999" data-name="Path 1999" d="M1300.443,275.916l-21.416-6.172.092-.319,21.416,6.172Z" transform="translate(-1267.164 -225.824)" fill="#2e3c4b"/>
      <rect id="Rectangle_198" data-name="Rectangle 198" width="0.331" height="21.72" transform="translate(11.852 47.003) rotate(-69.657)" fill="#2e3c4b"/>
    </g>
  </g>
</svg>
