<svg xmlns="http://www.w3.org/2000/svg" width="301.509" height="323.472" viewBox="0 0 301.509 323.472">
  <g id="CIEKAWOSTKA" transform="translate(-598 -80.724)">
    <path id="Path_1283" data-name="Path 1283" d="M610.264,95.829c18.533-23.116,261.776-16.926,275.58,0s19.988,269.6,4.873,290.4-266.443,23.832-280.455,7.551S591.732,118.946,610.264,95.829Z" fill="#e5a34c"/>
    <g id="CIEKAWOSTKA-2" transform="translate(684.449 104.13)" style="isolation: isolate">
      <text id="CIEKAWOSTKA-2-2" data-name="CIEKAWOSTKA" transform="translate(0 15)" fill="#2e3c4b" font-size="19" font-family="SulphurPoint-Bold, Sulphur Point" font-weight="700" letter-spacing="0.025em" style="isolation: isolate"><tspan x="0" y="0">CIEKAWOSTKA</tspan></text>
    </g>
    <rect id="Rectangle_45" data-name="Rectangle 45" width="10.847" height="2.17" transform="translate(738.048 125.823)" fill="#ae4426"/>
    <g id="Group_181" data-name="Group 181" transform="translate(665.512 144.268)">
      <path id="Path_1327" data-name="Path 1327" d="M686.495,194.8c4.793-13.108,16.061-40.13,37.936-40.614s81.951-2.607,97.213,15.684,17.96,32.554,15.71,61.4-9.992,45.6-19.116,60.942-47.964,27.173-82.871,25.813-60.333-22.055-59.656-50.381,12.886-32.11,10.78-44.417S681.7,207.9,686.495,194.8Z" transform="translate(-675.698 -153.855)" fill="#f2edeb"/>
    </g>
    <g id="gdansk_port" data-name="gdansk port" transform="translate(713.676 152.214)">
      <path id="Path_1944" data-name="Path 1944" d="M758.122,318.278c-9.5,0-20-.091-20.566-.372-1.031-.515-1.024-9.727-.745-13.478.239-3.218.6-3.335.769-3.39.862-.282,14.434-.56,26.68-.7,5.982-.069,25.542-.259,26.052.167.581.484.923,7.685.959,8.5.084,1.853.312,7.944-.268,8.524-.558.559-18.8.7-26.618.732C762.439,318.273,760.307,318.278,758.122,318.278Zm-20.425-16.9c-.547.4-.878,7.136-.6,12.244.2,3.7.6,3.959.619,3.968.6.24,12.241.381,26.5.322,15.274-.064,25.944-.323,26.553-.644.634-.68.024-15.645-.693-16.492C788.823,300.291,739.457,300.837,737.7,301.375Z" transform="translate(-731.853 -180.991)" fill="#2e3c4b"/>
      <path id="Path_1945" data-name="Path 1945" d="M744.608,312.322c-.646,0-1.518-.042-2.593-.1a17.139,17.139,0,0,0-2.449-.05.208.208,0,0,1-.212,0c-.284-.162-.428-2.145-.428-5.9l.016-.073c.38-.854,6.277-.812,6.881-.543.17.076.38.306.494,1.422.149,1.477.055,4.71-.462,5.08A2.746,2.746,0,0,1,744.608,312.322Zm-4.563-.537c.415,0,1.05.03,1.989.081a16.8,16.8,0,0,0,3.612,0c.255-.223.513-2.9.308-4.811-.1-.967-.275-1.072-.277-1.073-.683-.3-5.972-.145-6.393.341a39.535,39.535,0,0,0,.25,5.489A3.046,3.046,0,0,1,740.045,311.785Z" transform="translate(-732.151 -181.68)" fill="#2e3c4b"/>
      <path id="Path_1946" data-name="Path 1946" d="M754,312.15c-2.08,0-4.776-.2-4.811-.221-.393-.176-.113-5.821-.1-5.873.033-.123.16-.171.276-.207a26.813,26.813,0,0,1,3.895-.455c2.1-.134,3.289-.1,3.519.1.582.508-.229,6.049-.417,6.362A4.852,4.852,0,0,1,754,312.15Zm-4.6-.534c.818.138,6.244.3,6.684.028.185-.359.8-5.458.458-5.882-.429-.268-6.354.1-7.115.44C749.354,306.815,749.3,310.971,749.4,311.616Z" transform="translate(-733.469 -181.657)" fill="#2e3c4b"/>
      <path id="Path_1947" data-name="Path 1947" d="M764.545,312.38a15.888,15.888,0,0,1-3.97-.226c-.155-.262-.544-4.486-.7-6.289l-.014-.153.149-.036c.167-.041,4.812-.056,7.863-.046,7.772.024,7.83.14,7.9.287h0a24.964,24.964,0,0,1,.008,5.721c-.051.153-.2.291-1.455.426C772.86,312.218,768.064,312.38,764.545,312.38Zm-3.674-.456c1.185.223,13.74.108,14.574-.429a28.337,28.337,0,0,0,.017-5.36c-1.124-.174-13.515-.194-15.22-.12C760.433,308.147,760.749,311.383,760.871,311.924Zm14.59-.441Z" transform="translate(-734.895 -181.698)" fill="#2e3c4b"/>
      <path id="Path_1948" data-name="Path 1948" d="M783.712,312.526a10.237,10.237,0,0,1-2.744-.217c-.469-.3-1.541-5.422-1.334-6.368.053-.242.177-.31.272-.323l.026.176-.026-.176c.07-.01,7.116-.8,7.515.1.285.645.586,5.925-.052,6.436A11.132,11.132,0,0,1,783.712,312.526ZM780,305.965c-.183.462.627,5.456,1.179,6.054.452.227,5.525.219,5.97-.139.4-.345.26-5.309-.052-6.014C786.757,305.429,781.545,305.748,780,305.965Z" transform="translate(-737.484 -181.654)" fill="#2e3c4b"/>
      <path id="Path_1949" data-name="Path 1949" d="M791.833,312.3c-.112,0-.205,0-.275,0-.772-.021-.873-.094-.932-.193-.213-.359-.459-5.438-.106-6.272a.332.332,0,0,1,.217-.218h0c.044-.01,4.729-.813,5.744.036s.357,5.571.035,6.055S792.995,312.3,791.833,312.3Zm-.906-.41c.619.18,4.941-.043,5.3-.389.306-.461.823-4.911.029-5.575-.773-.646-4.792-.1-5.4.029C790.555,306.451,790.765,311.23,790.927,311.892Zm-.039-.014" transform="translate(-738.892 -181.65)" fill="#2e3c4b"/>
      <path id="Path_1950" data-name="Path 1950" d="M772.518,290.11c-.461-22.717-1.423-65.829-1.788-67.517-.792-.479-11.7-.885-13.7-.525L758,290.1l-.357.005-.974-68.322.136-.036c1.153-.3,13.645-.127,14.222.629.465.609,1.622,56.52,1.849,67.722Z" transform="translate(-734.477 -170.684)" fill="#2e3c4b"/>
      <path id="Path_1951" data-name="Path 1951" d="M769.883,218.032l-.016-.357c2.486-.11,3.63-.361,3.95-.86.575-.9,4.211-26.035,3.994-27.566-.857-.52-13.419-2.643-14.114-2.643-1.082,0-13.536.716-14.335,1.293-.38,1.8,3.041,27.543,3.78,28.4.708.573.907.685,2.938.768l-.015.357c-2.049-.085-2.356-.207-3.154-.854-.818-.663-4.377-27.038-3.886-28.8.252-.906,14.53-1.525,14.672-1.525.126,0,13.965,2.109,14.422,2.8.394.6-3.383,26.986-4,27.956C773.718,217.634,772.57,217.912,769.883,218.032ZM749.346,187.91Z" transform="translate(-733.469 -166.048)" fill="#2e3c4b"/>
      <path id="Path_1952" data-name="Path 1952" d="M780.357,188.989c-.432,0-.947-.021-1.094-.028l.015-.357a14.979,14.979,0,0,0,1.549.013,3.169,3.169,0,0,0-.054-2c-.67-.423-15.769-2.359-17.762-2.58-1.293-.136-18.144,1.312-18.745,1.482a1.935,1.935,0,0,0,.009.5,3.693,3.693,0,0,0,.482,1.486,19.517,19.517,0,0,0,3.746-.2l.055.354c-.393.06-3.581.4-3.991.145a3.687,3.687,0,0,1-.663-2.192c.019-.228.1-.371.238-.427.428-.17,17.461-1.667,18.909-1.5.174.019,17.526,2.142,18,2.707a3.381,3.381,0,0,1,.147,2.258c-.038.123-.1.268-.236.307A3.289,3.289,0,0,1,780.357,188.989Z" transform="translate(-732.803 -165.71)" fill="#2e3c4b"/>
      <path id="Path_1953" data-name="Path 1953" d="M772.419,183.078l-.357-.023c.257-4.034.539-10.618.2-11.109-.773-.469-16.033-.748-17.1-.306-.172.646.168,7.121.428,11.118l-.357.023c-.116-1.8-.685-10.8-.373-11.344.062-.108.2-.161.562-.209,2.112-.283,16.465-.161,17.1.471C773.064,172.244,772.58,180.547,772.419,183.078Z" transform="translate(-734.228 -164.06)" fill="#2e3c4b"/>
      <path id="Path_1954" data-name="Path 1954" d="M772.705,171.735l-.348-.077a18.622,18.622,0,0,0,.4-2.237c-1.367-.243-16.811-.762-18.01-.6a12.392,12.392,0,0,0,.327,2.473l-.35.071c-.342-1.679-.416-2.628-.222-2.824.062-.061.224-.222,8.9.054,3.984.127,8.864.333,9.505.494a.236.236,0,0,1,.189.149A11.878,11.878,0,0,1,772.705,171.735Z" transform="translate(-734.179 -163.713)" fill="#2e3c4b"/>
      <rect id="Rectangle_149" data-name="Rectangle 149" width="0.357" height="2.302" transform="translate(21.686 4.921) rotate(-6.352)" fill="#2e3c4b"/>
      <rect id="Rectangle_150" data-name="Rectangle 150" width="0.357" height="2.267" transform="translate(23.668 4.923)" fill="#2e3c4b"/>
      <rect id="Rectangle_151" data-name="Rectangle 151" width="2.177" height="0.358" transform="matrix(0.17, -0.985, 0.985, 0.17, 28.173, 7.159)" fill="#2e3c4b"/>
      <rect id="Rectangle_152" data-name="Rectangle 152" width="2.144" height="0.357" transform="translate(29.973 7.222) rotate(-85.826)" fill="#2e3c4b"/>
      <rect id="Rectangle_153" data-name="Rectangle 153" width="0.357" height="2.128" transform="translate(31.513 5.145)" fill="#2e3c4b"/>
      <rect id="Rectangle_154" data-name="Rectangle 154" width="2.046" height="0.357" transform="matrix(0.085, -0.996, 0.996, 0.085, 34.741, 7.311)" fill="#2e3c4b"/>
      <rect id="Rectangle_155" data-name="Rectangle 155" width="2.147" height="0.357" transform="matrix(0.082, -0.997, 0.997, 0.082, 36.574, 7.513)" fill="#2e3c4b"/>
      <path id="Path_1955" data-name="Path 1955" d="M763.522,164.9h-5.4l-.025-.148c-.073-.419-.215-1.422.05-1.686.222-.223,5.28.149,5.314.169.083.048.3.175.088,1.515Zm-5.1-.356h4.794a3.8,3.8,0,0,0,.046-.992c-.574-.078-4.331-.228-4.883-.2A3.755,3.755,0,0,0,758.422,164.548Z" transform="translate(-734.65 -163)" fill="#2e3c4b"/>
      <rect id="Rectangle_156" data-name="Rectangle 156" width="0.357" height="1.514" transform="translate(25.367 0.213)" fill="#2e3c4b"/>
      <rect id="Rectangle_157" data-name="Rectangle 157" width="0.357" height="1.464" transform="translate(26.528 0.261)" fill="#2e3c4b"/>
      <path id="Path_1956" data-name="Path 1956" d="M779.555,197.029l-2.4-.9c-.572-.028-9.532-.466-13.417-.684-3.982-.222-14.126.676-14.228.685l-2.363.786-.111-.34,2.4-.793c.142-.017,10.315-.917,14.32-.693s13.349.679,13.443.685l.054.011,2.423.914Z" transform="translate(-733.215 -167.202)" fill="#2e3c4b"/>
      <path id="Path_1957" data-name="Path 1957" d="M748.5,204.467l-.074-.349,2.041-.431c.127-.012,10.526-.848,13.233-.848,2.776,0,12.7.481,12.8.486l2.056.195-.033.355-2.048-.194c-.091,0-10.011-.485-12.778-.485-2.693,0-13.077.835-13.181.844Z" transform="translate(-733.397 -168.223)" fill="#2e3c4b"/>
      <rect id="Rectangle_158" data-name="Rectangle 158" width="0.357" height="6.843" transform="translate(21.006 28.359)" fill="#2e3c4b"/>
      <rect id="Rectangle_159" data-name="Rectangle 159" width="0.357" height="6.864" transform="translate(25.367 28.061)" fill="#2e3c4b"/>
      <rect id="Rectangle_160" data-name="Rectangle 160" width="0.358" height="6.787" transform="translate(33.639 28.159) rotate(-3.327)" fill="#2e3c4b"/>
      <path id="Path_1958" data-name="Path 1958" d="M775.419,202.2l-.357-.018c.078-1.5.341-6.393.408-6.611l.341.107-.17-.053.173.045C775.763,195.911,775.549,199.709,775.419,202.2Z" transform="translate(-736.888 -167.271)" fill="#2e3c4b"/>
      <path id="Path_1959" data-name="Path 1959" d="M777.246,211.79l-1.583-.4c-.538.007-9.753.137-11.851.043-2.14-.1-12.149,0-12.251,0l-1.61.136-.03-.355,1.623-.138c.114,0,10.134-.1,12.285,0s11.755-.043,11.852-.044h.024l1.629.416Z" transform="translate(-733.593 -169.296)" fill="#2e3c4b"/>
      <path id="Path_1960" data-name="Path 1960" d="M776.479,216.957h-1.343c-.111-.007-9.876-.707-11.167-.635-1.31.068-11.2,0-11.62,0l-1.292.31-.082-.348,1.334-.315c.09,0,4.59.026,8,.026,1.743,0,3.2-.008,3.641-.03,1.316-.07,10.8.607,11.2.636h1.33Z" transform="translate(-733.731 -169.943)" fill="#2e3c4b"/>
      <path id="Path_1961" data-name="Path 1961" d="M777.068,213.116l-1.565-.248H775.5c-.251,0-9.954-.074-11.708-.022-1.777.054-11.907,0-12.01,0l-1.5.208-.049-.354,1.524-.209c.057,0,4.566.022,8.1.022,1.788,0,3.331-.005,3.927-.023,1.779-.052,11.653.023,11.754.024l1.591.249Z" transform="translate(-733.633 -169.486)" fill="#2e3c4b"/>
      <rect id="Rectangle_161" data-name="Rectangle 161" width="0.357" height="4.251" transform="matrix(0.999, -0.053, 0.053, 0.999, 21.232, 41.959)" fill="#2e3c4b"/>
      <rect id="Rectangle_162" data-name="Rectangle 162" width="0.357" height="4.255" transform="matrix(0.998, -0.067, 0.067, 0.998, 25.367, 41.962)" fill="#2e3c4b"/>
      <path id="Path_1962" data-name="Path 1962" d="M765.928,217.219l-.357-.009.123-4.824v-4.241l.078-7.161.445-13.646.357.011-.445,13.643-.078,7.155v4.244Z" transform="translate(-735.644 -166.191)" fill="#2e3c4b"/>
      <rect id="Rectangle_163" data-name="Rectangle 163" width="0.357" height="4.364" transform="translate(33.836 41.989)" fill="#2e3c4b"/>
      <rect id="Rectangle_164" data-name="Rectangle 164" width="4.63" height="0.357" transform="translate(37.836 46.593) rotate(-85.826)" fill="#2e3c4b"/>
      <path id="Path_1963" data-name="Path 1963" d="M761.081,181.567l-.757-11.131V164.78h1.5l.3,3.432v2.211h-.357v-2.2l-.268-3.09h-.819v5.287l.757,11.118Z" transform="translate(-734.956 -163.234)" fill="#2e3c4b"/>
      <path id="Path_1964" data-name="Path 1964" d="M769.062,182.221l-.357-.013.419-11.1.145-2.12.356.024-.145,2.114Z" transform="translate(-736.055 -163.785)" fill="#2e3c4b"/>
      <path id="Path_1965" data-name="Path 1965" d="M772.494,179.162c-.906-.219-11.739-.426-17.341-.5l.006-.357c.662.009,16.248.231,17.419.514Z" transform="translate(-734.279 -165.006)" fill="#2e3c4b"/>
      <path id="Path_1966" data-name="Path 1966" d="M772.471,173.612c-.568-.136-12.824-.328-17.5-.392l0-.357c.688.01,16.854.229,17.577.4Z" transform="translate(-734.255 -164.293)" fill="#2e3c4b"/>
      <rect id="Rectangle_165" data-name="Rectangle 165" width="6.741" height="0.357" transform="translate(7.113 125.22)" fill="#2e3c4b"/>
      <rect id="Rectangle_166" data-name="Rectangle 166" width="7.6" height="0.357" transform="matrix(1, -0.019, 0.019, 1, 15.739, 125.107)" fill="#2e3c4b"/>
      <rect id="Rectangle_167" data-name="Rectangle 167" width="0.357" height="15.575" transform="translate(25.248 125.394) rotate(-89.324)" fill="#2e3c4b"/>
      <rect id="Rectangle_168" data-name="Rectangle 168" width="7.662" height="0.357" transform="translate(42.288 125.218) rotate(-2.128)" fill="#2e3c4b"/>
      <rect id="Rectangle_169" data-name="Rectangle 169" width="6.243" height="0.357" transform="translate(51.63 124.932)" fill="#2e3c4b"/>
      <rect id="Rectangle_170" data-name="Rectangle 170" width="0.357" height="6.408" transform="matrix(1, -0.003, 0.003, 1, 10.305, 123.99)" fill="#2e3c4b"/>
      <rect id="Rectangle_171" data-name="Rectangle 171" width="6.37" height="0.357" transform="translate(19.342 130.302) rotate(-89.823)" fill="#2e3c4b"/>
      <rect id="Rectangle_172" data-name="Rectangle 172" width="0.357" height="6.306" transform="translate(32.859 124.12) rotate(-4.024)" fill="#2e3c4b"/>
      <rect id="Rectangle_173" data-name="Rectangle 173" width="0.357" height="6.266" transform="matrix(0.999, -0.054, 0.054, 0.999, 36.872, 124.15)" fill="#2e3c4b"/>
      <rect id="Rectangle_174" data-name="Rectangle 174" width="0.358" height="6.288" transform="matrix(0.995, -0.099, 0.099, 0.995, 28.657, 124.158)" fill="#2e3c4b"/>
      <rect id="Rectangle_175" data-name="Rectangle 175" width="0.358" height="6.746" transform="translate(45.945 123.992) rotate(-5.673)" fill="#2e3c4b"/>
      <rect id="Rectangle_176" data-name="Rectangle 176" width="0.357" height="6.612" transform="matrix(0.999, -0.044, 0.044, 0.999, 54.614, 123.8)" fill="#2e3c4b"/>
      <path id="Path_1967" data-name="Path 1967" d="M753.207,217.358a8.333,8.333,0,0,1-2.095-.839c-.732-.687-4.994-23.577-5.842-28.159l.351-.065c2.009,10.867,5.2,27.283,5.74,27.969a8.1,8.1,0,0,0,1.943.751Z" transform="translate(-732.983 -166.316)" fill="#2e3c4b"/>
      <path id="Path_1968" data-name="Path 1968" d="M776.506,218.274l-.045-.354a7.2,7.2,0,0,0,2.27-.562c.311-.583,3.485-16.293,5.538-26.7l.35.07c-1.571,7.968-5.266,26.539-5.644,26.894A7.151,7.151,0,0,1,776.506,218.274Z" transform="translate(-737.072 -166.626)" fill="#2e3c4b"/>
      <path id="Path_1969" data-name="Path 1969" d="M791.6,196.08l-.083-.348,8.929-2.143.083.348Z" transform="translate(-739.045 -167.01)" fill="#2e3c4b"/>
      <path id="Path_1970" data-name="Path 1970" d="M800.679,201.315a47.874,47.874,0,0,0-7.379-.041l-.239-.263c.374-.373,5.465-.161,7.636-.052Z" transform="translate(-739.248 -167.956)" fill="#2e3c4b"/>
      <rect id="Rectangle_177" data-name="Rectangle 177" width="0.357" height="3.677" transform="translate(53.853 38.338) rotate(-60.947)" fill="#2e3c4b"/>
      <path id="Path_1971" data-name="Path 1971" d="M739.314,196.246a32.15,32.15,0,0,1-5.761-1.077l.094-.345a32.588,32.588,0,0,0,5.667,1.065Z" transform="translate(-731.447 -167.172)" fill="#2e3c4b"/>
      <path id="Path_1972" data-name="Path 1972" d="M731.149,201.315l-.02-.356c.263-.015,6.472-.355,7.91.005l-.087.346C737.565,200.964,731.212,201.312,731.149,201.315Z" transform="translate(-731.129 -167.956)" fill="#2e3c4b"/>
      <path id="Path_1973" data-name="Path 1973" d="M733.652,208.462l-.106-.341,5.714-1.786.106.341Z" transform="translate(-731.446 -168.681)" fill="#2e3c4b"/>
    </g>
    <text id="Latarnia_w_gdańskim_Porcie_Północnym_jako_jedyna_posiada_windę" data-name="Latarnia w gdańskim 
Porcie Północnym
jako jedyna posiada windę" transform="translate(741.107 332.18)" fill="#2e3c4b" font-size="17" font-family="ClarikaProGeo-Th, Clarika Pro Geometric" letter-spacing="0.025em" style="isolation: isolate"><tspan x="-79.002" y="0">Latarnia w gdańskim </tspan><tspan x="-64.526" y="20">Porcie Północnym</tspan><tspan x="-102.954" y="40">jako jedyna posiada </tspan><tspan y="40" font-family="ClarikaProGeo-Dm, Clarika Pro Geometric">windę</tspan></text>
    <path id="Path_1974" data-name="Path 1974" d="M764.555,265.479a2.853,2.853,0,0,1-1.886-.434c-.991-.992-1.739-12.41-.869-13.28.665-.664,5.351-.977,6.329,0,.854.856,1.717,11.476,1.06,13.062-.092.222-.222.269-.314.269-.207,0-.654.056-1.173.121A27.1,27.1,0,0,1,764.555,265.479Zm.7-13.98a7.139,7.139,0,0,0-3.2.512c-.725.724.039,11.958.869,12.787.591.593,3.292.255,4.742.073.527-.065.947-.118,1.183-.123a4.71,4.71,0,0,0,.216-1.926c.06-3.813-.642-10.279-1.175-10.81A4.609,4.609,0,0,0,765.25,251.5Z" transform="translate(-21.423 -22.341)" fill="#2e3c4b"/>
    <path id="Path_1975" data-name="Path 1975" d="M765.414,252.051l-.851-18.723-1.459,1.459-.253-.238,1.875-2.1.108.121.041-.041,0,.091,1.578,1.766-.259.232-1.294-1.448.857,18.869Z" transform="translate(-21.611 -19.89)" fill="#2e3c4b"/>
    <path id="Path_1976" data-name="Path 1976" d="M765.657,284.3l-.109-.121-.041.041,0-.091-1.578-1.765.259-.232,1.294,1.448-.857-18.869.347-.016.851,18.723,1.459-1.46.253.238Z" transform="translate(-21.752 -24.118)" fill="#2e3c4b"/>
  </g>
</svg>
