<svg xmlns="http://www.w3.org/2000/svg" width="303.278" height="325.37" viewBox="0 0 303.278 325.37">
  <g id="CIEKAWOSTKA_jaro" data-name="CIEKAWOSTKA jaro" transform="translate(-1070.847 -555.866)">
    <g id="CIEKAWOSTKA" transform="translate(1070.847 555.866)">
      <path id="Path_1283" data-name="Path 1283" d="M1083.183,571.06c18.641-23.253,263.313-17.026,277.2,0s20.106,271.177,4.9,292.1-268.007,23.972-282.1,7.6S1064.542,594.312,1083.183,571.06Z" transform="translate(-1070.847 -555.866)" fill="#e5a34c"/>
      <g id="CIEKAWOSTKA-2" transform="translate(86.956 23.543)" style="isolation: isolate">
        <path id="Path_2191" data-name="Path 2191" d="M7.106.076A6.186,6.186,0,0,1,4.655-.418,6.239,6.239,0,0,1,2.622-1.8,6.388,6.388,0,0,1,1.254-3.838,6.233,6.233,0,0,1,.76-6.308a6.339,6.339,0,0,1,.484-2.47A6.327,6.327,0,0,1,2.622-10.83,6.388,6.388,0,0,1,4.655-12.2a6.186,6.186,0,0,1,2.451-.494,6.182,6.182,0,0,1,2.7.608,6.818,6.818,0,0,1,2.28,1.8l-1.292,1.1a4.748,4.748,0,0,0-3.686-1.786,4.478,4.478,0,0,0-1.777.361A4.7,4.7,0,0,0,3.838-9.6,4.7,4.7,0,0,0,2.831-8.1a4.524,4.524,0,0,0-.361,1.8,4.524,4.524,0,0,0,.361,1.8A4.7,4.7,0,0,0,3.838-3.021,4.7,4.7,0,0,0,5.329-2.014a4.478,4.478,0,0,0,1.777.361,4.748,4.748,0,0,0,3.686-1.786l1.292,1.1A7.042,7.042,0,0,1,9.795-.532,6.121,6.121,0,0,1,7.106.076ZM14.269,0V-12.635h1.6V0ZM18.24,0V-12.635h6.916v1.71H19.893v3.838h3.534v1.558H19.893V-1.71h5.263V0ZM33.288,0,29.2-4.655V0H27.531V-12.616H29.2v4.807l4.009-4.807h2.2l-5.339,6.4L35.549,0ZM45.467,0,43.909-4.446H39.957L38.4,0H36.594l4.389-12.616h1.9L47.272,0ZM41.933-10.165,40.489-6.042h2.869ZM58.52,0H56.829L54.872-5.377,52.991,0h-1.71L46.7-12.654h1.843l3.572,9.9,1.824-5.187-1.71-4.712h1.843l1.672,4.636,1.919,5.263,3.458-9.9h1.843ZM70.243.095A6.221,6.221,0,0,1,67.8-.39a6.142,6.142,0,0,1-2.023-1.378A6.36,6.36,0,0,1,64.41-3.809a6.255,6.255,0,0,1-.494-2.461A6.221,6.221,0,0,1,64.4-8.712a6.355,6.355,0,0,1,1.378-2.042A6.417,6.417,0,0,1,67.8-12.122a6.118,6.118,0,0,1,2.441-.494,6.186,6.186,0,0,1,2.451.494,6.388,6.388,0,0,1,2.033,1.368A6.388,6.388,0,0,1,76.1-8.721a6.186,6.186,0,0,1,.494,2.451A6.255,6.255,0,0,1,76.1-3.809a6.36,6.36,0,0,1-1.368,2.042A6.388,6.388,0,0,1,72.694-.4,6.186,6.186,0,0,1,70.243.095Zm0-10.982a4.582,4.582,0,0,0-1.776.352,4.57,4.57,0,0,0-1.492,1,4.57,4.57,0,0,0-1,1.491,4.582,4.582,0,0,0-.352,1.776,4.662,4.662,0,0,0,.361,1.815,4.578,4.578,0,0,0,.988,1.492,4.57,4.57,0,0,0,1.492,1,4.582,4.582,0,0,0,1.776.352,4.582,4.582,0,0,0,1.777-.352,4.57,4.57,0,0,0,1.492-1A4.578,4.578,0,0,0,74.5-4.456,4.662,4.662,0,0,0,74.86-6.27a4.582,4.582,0,0,0-.352-1.776,4.57,4.57,0,0,0-1-1.491,4.57,4.57,0,0,0-1.492-1A4.582,4.582,0,0,0,70.243-10.887Zm14.9,2.147a2.929,2.929,0,0,0-.4-1.216,2.078,2.078,0,0,0-.845-.751,3.012,3.012,0,0,0-1.283-.237,2.4,2.4,0,0,0-1.805.551,1.929,1.929,0,0,0-.494,1.425,2.1,2.1,0,0,0,.152.865,1.3,1.3,0,0,0,.456.541,3.179,3.179,0,0,0,1.5.418,10.49,10.49,0,0,1,1.8.294,4.827,4.827,0,0,1,1.283.542,3,3,0,0,1,1.387,2.736A3.352,3.352,0,0,1,86.6-2.2a3.794,3.794,0,0,1-.8,1.159,3.826,3.826,0,0,1-1.435.874A5.238,5.238,0,0,1,82.65.114a4.463,4.463,0,0,1-3.211-1.14A4.51,4.51,0,0,1,78.2-3.762l.038-.019h1.672a2.485,2.485,0,0,0,.684,1.5,2.826,2.826,0,0,0,2,.684,3,3,0,0,0,1.9-.551,1.729,1.729,0,0,0,.7-1.425,2.075,2.075,0,0,0-.1-.694,1.172,1.172,0,0,0-.389-.523,4.812,4.812,0,0,0-2.413-.627A4.361,4.361,0,0,1,79.553-6.46a3.311,3.311,0,0,1-.931-2.508,3.571,3.571,0,0,1,1.007-2.641,4.006,4.006,0,0,1,2.964-1.064,3.975,3.975,0,0,1,3.078,1.2A4.761,4.761,0,0,1,86.849-8.74Zm7.524-2.28V0H90.991V-11.02H87.932v-1.615h7.79v1.615Zm11,11.02L99.579-4.655V0H97.907V-12.616h1.672v4.807l4.009-4.807h2.2l-5.339,6.4L105.925,0Zm12.179,0-1.558-4.446h-3.952L108.775,0H106.97l4.389-12.616h1.9L117.648,0Zm-3.534-10.165-1.444,4.123h2.869Z" transform="translate(0 15)" fill="#2e3c4b"/>
      </g>
      <rect id="Rectangle_45" data-name="Rectangle 45" width="10.91" height="2.182" transform="translate(140.87 45.364)" fill="#ae4426"/>
      <g id="Group_181" data-name="Group 181" transform="translate(67.908 63.916)">
        <path id="Path_1327" data-name="Path 1327" d="M1159.405,670.177c4.821-13.185,16.155-40.366,38.159-40.853S1280,626.7,1295.348,645.1s18.066,32.745,15.8,61.761-10.051,45.863-19.228,61.3-48.245,27.333-83.357,25.965-60.687-22.185-60.006-50.676,12.961-32.3,10.844-44.677S1154.584,683.362,1159.405,670.177Z" transform="translate(-1148.545 -628.996)" fill="#f2edeb"/>
      </g>
      <path id="Path_2190" data-name="Path 2190" d="M-79.432-.555V-11.1h-.624V0h5.326V-.555Zm13.158-6.991-.1,1.873a3.385,3.385,0,0,0-3.157-2.082A3.686,3.686,0,0,0-73.143-3.8,3.674,3.674,0,0,0-69.518.139a3.361,3.361,0,0,0,3.14-2.082l.1,1.943h.5V-7.546Zm-3.14,7.164A3.193,3.193,0,0,1-72.519-3.8a3.206,3.206,0,0,1,3.088-3.435A3.2,3.2,0,0,1-66.309-3.8,3.193,3.193,0,0,1-69.414-.382Zm9.775-7.164H-61.6V-9.8h-.607v2.255H-63.3v.5h1.093V0h.607V-7.043h1.96Zm8.439,0-.1,1.873a3.385,3.385,0,0,0-3.157-2.082A3.686,3.686,0,0,0-58.069-3.8,3.674,3.674,0,0,0-54.443.139,3.361,3.361,0,0,0-51.3-1.943L-51.2,0h.5V-7.546Zm-3.14,7.164A3.193,3.193,0,0,1-57.444-3.8a3.206,3.206,0,0,1,3.088-3.435A3.2,3.2,0,0,1-51.234-3.8,3.193,3.193,0,0,1-54.339-.382Zm9.272-7.372A2.3,2.3,0,0,0-47.2-6.037l-.087-1.509h-.52V0h.607V-4.753c.035-1.474.833-2.411,1.995-2.411a2.526,2.526,0,0,1,.538.069l.121-.607A2.189,2.189,0,0,0-45.067-7.754Zm5.664,0A2.749,2.749,0,0,0-42.04-5.9l-.052-1.648h-.538V0h.607V-4.632a2.544,2.544,0,0,1,2.515-2.6c1.37,0,2.359.885,2.359,2.88V0h.59V-4.458C-36.559-7.06-38.085-7.754-39.4-7.754Zm6.2-1.735a.548.548,0,0,0,.555-.555A.548.548,0,0,0-33.2-10.6a.548.548,0,0,0-.555.555A.548.548,0,0,0-33.2-9.489ZM-33.514,0h.607V-7.546h-.607Zm10.209-7.546-.1,1.873a3.385,3.385,0,0,0-3.157-2.082A3.686,3.686,0,0,0-30.175-3.8,3.674,3.674,0,0,0-26.549.139a3.361,3.361,0,0,0,3.14-2.082l.1,1.943h.5V-7.546Zm-3.14,7.164A3.193,3.193,0,0,1-29.551-3.8a3.206,3.206,0,0,1,3.088-3.435A3.2,3.2,0,0,1-23.34-3.8,3.193,3.193,0,0,1-26.445-.382ZM-5.4-7.546-7.9-.815l-2.116-6.731h-.5L-12.655-.781l-2.481-6.765h-.642L-12.88,0h.486l2.116-6.835L-8.144,0h.486l2.88-7.546ZM3.825.139c1.44,0,2.429-.919,2.429-2.845v-8.4H5.629v8.5c0,1.37-.677,2.186-1.821,2.186a1.94,1.94,0,0,1-1.683-.85L1.743-.8A2.583,2.583,0,0,0,3.825.139ZM15.647-7.546l-.1,1.873a3.385,3.385,0,0,0-3.157-2.082A3.686,3.686,0,0,0,8.778-3.8,3.674,3.674,0,0,0,12.4.139a3.361,3.361,0,0,0,3.14-2.082L15.647,0h.5V-7.546ZM12.507-.382A3.193,3.193,0,0,1,9.4-3.8,3.206,3.206,0,0,1,12.49-7.234,3.2,3.2,0,0,1,15.612-3.8,3.193,3.193,0,0,1,12.507-.382Zm9.272-7.372a2.3,2.3,0,0,0-2.134,1.717l-.087-1.509h-.52V0h.607V-4.753c.035-1.474.833-2.411,1.995-2.411a2.526,2.526,0,0,1,.538.069L22.3-7.7A2.189,2.189,0,0,0,21.779-7.754ZM27.391.139A3.86,3.86,0,0,0,31.329-3.8a3.874,3.874,0,0,0-3.938-3.955A3.874,3.874,0,0,0,23.453-3.8,3.86,3.86,0,0,0,27.391.139Zm0-.52a3.291,3.291,0,0,1-3.3-3.417,3.291,3.291,0,0,1,3.3-3.417,3.291,3.291,0,0,1,3.3,3.417A3.291,3.291,0,0,1,27.391-.382Zm5.82-.694A3.1,3.1,0,0,0,35.778.139c1.527,0,2.619-.8,2.619-2.134,0-2.862-4.2-1.44-4.215-3.73-.017-.919.677-1.492,1.752-1.492a2.465,2.465,0,0,1,1.856.711l.382-.4a3.144,3.144,0,0,0-2.238-.85A2.1,2.1,0,0,0,33.558-5.69c.035,2.793,4.215,1.37,4.215,3.73,0,.971-.763,1.579-1.995,1.579a2.471,2.471,0,0,1-2.1-1.076Zm9.445-6.21-1.093.85V-11.8h-.607v5.829L39.9-5.152v.538l1.058-.815V0h.607V-5.9l1.093-.85Zm8.318-.26-.1,1.873a3.385,3.385,0,0,0-3.157-2.082A3.686,3.686,0,0,0,44.1-3.8,3.674,3.674,0,0,0,47.73.139a3.361,3.361,0,0,0,3.14-2.082L50.974,0h.5V-7.546ZM47.834-.382A3.193,3.193,0,0,1,44.729-3.8a3.206,3.206,0,0,1,3.088-3.435A3.2,3.2,0,0,1,50.939-3.8,3.193,3.193,0,0,1,47.834-.382ZM63.941-7.546l-2.5,6.731L59.327-7.546h-.5L56.69-.781,54.209-7.546h-.642L56.464,0h.486l2.116-6.835L61.2,0h.486l2.88-7.546ZM69.9.139a3.88,3.88,0,0,0,2.429-.833l-.382-.434A2.989,2.989,0,0,1,69.9-.382a3.164,3.164,0,0,1-3.192-3.435A3.159,3.159,0,0,1,69.9-7.234a2.989,2.989,0,0,1,2.047.746l.382-.434A3.88,3.88,0,0,0,69.9-7.754a3.75,3.75,0,0,0-3.816,3.938A3.745,3.745,0,0,0,69.9.139ZM77.61.208c1.37,0,3.018-.711,3.018-3.261V-7.546h-.59v4.493c0,1.683-.867,2.741-2.429,2.741-1.579,0-2.446-1.058-2.446-2.741V-7.546h-.607v4.493C74.557-.5,76.205.208,77.61.208Zm-171.553,10.3a.548.548,0,0,0,.555-.555.548.548,0,0,0-.555-.555.548.548,0,0,0-.555.555A.548.548,0,0,0-93.942,10.511Zm.312,10.825V12.454h-.607v8.864c0,1.3-.555,1.926-1.96,1.787v.5C-94.862,23.782-93.63,23.348-93.63,21.336Zm9.879-5.273V15.75a3.421,3.421,0,0,0-3.469-3.5A3.688,3.688,0,0,0-90.9,16.1a3.785,3.785,0,0,0,3.851,4.042A3.975,3.975,0,0,0-84.1,18.907l-.451-.364a3.189,3.189,0,0,1-2.5,1.076,3.2,3.2,0,0,1-3.209-3.5v-.052Zm-3.469-3.279a2.836,2.836,0,0,1,2.88,2.81h-5.881A3.013,3.013,0,0,1-87.22,12.784Zm5.369,6.141a3.1,3.1,0,0,0,2.567,1.214c1.527,0,2.619-.8,2.619-2.134,0-2.862-4.2-1.44-4.215-3.73-.017-.919.677-1.492,1.752-1.492a2.465,2.465,0,0,1,1.856.711l.382-.4a3.144,3.144,0,0,0-2.238-.85A2.1,2.1,0,0,0-81.5,14.31c.035,2.793,4.215,1.37,4.215,3.73,0,.971-.763,1.579-1.995,1.579a2.471,2.471,0,0,1-2.1-1.076Zm10.92-6.47h-1.96V10.2H-73.5v2.255h-1.093v.5H-73.5V20h.607V12.957h1.96Zm10.009-.208a2.3,2.3,0,0,0-2.134,1.717l-.087-1.509h-.52V20h.607V15.247c.035-1.474.833-2.411,1.995-2.411a2.526,2.526,0,0,1,.538.069l.121-.607A2.189,2.189,0,0,0-60.922,12.246Zm5.664-1.752,1.752-1.821-.607-.121-2.238,2.5h.243C-55.883,11.049-55.71,10.98-55.259,10.494Zm-.052,9.645A3.86,3.86,0,0,0-51.373,16.2a3.874,3.874,0,0,0-3.938-3.955A3.874,3.874,0,0,0-59.248,16.2,3.86,3.86,0,0,0-55.311,20.139Zm0-.52a3.291,3.291,0,0,1-3.3-3.417,3.291,3.291,0,0,1,3.3-3.417,3.291,3.291,0,0,1,3.3,3.417A3.291,3.291,0,0,1-55.311,19.618ZM-39.5,12.454-42,19.185l-2.116-6.731h-.5l-2.134,6.765-2.481-6.765h-.642l2.9,7.546h.486l2.116-6.835L-42.24,20h.486l2.88-7.546Zm5.959-.208A2.749,2.749,0,0,0-36.177,14.1l-.052-1.648h-.538V20h.607V15.368a2.544,2.544,0,0,1,2.515-2.6c1.37,0,2.359.885,2.359,2.88V20h.59V15.542C-30.7,12.94-32.222,12.246-33.54,12.246Zm6.2-1.735a.548.548,0,0,0,.555-.555.548.548,0,0,0-.555-.555.548.548,0,0,0-.555.555A.548.548,0,0,0-27.339,10.511ZM-27.651,20h.607V12.454h-.607Zm10.486-3.938V15.75a3.421,3.421,0,0,0-3.469-3.5A3.688,3.688,0,0,0-24.312,16.1a3.785,3.785,0,0,0,3.851,4.042,3.975,3.975,0,0,0,2.949-1.232l-.451-.364a3.189,3.189,0,0,1-2.5,1.076,3.2,3.2,0,0,1-3.209-3.5v-.052Zm-3.469-3.279a2.836,2.836,0,0,1,2.88,2.81h-5.881A3.013,3.013,0,0,1-20.634,12.784Zm8.613-2.151a.559.559,0,0,0,.555-.555.559.559,0,0,0-.555-.555.563.563,0,0,0-.572.555A.563.563,0,0,0-12.021,10.633Zm-2.238,8.83,5-6.54v-.468H-14.8v.52h4.805l-5.065,6.557V20H-9.02v-.538ZM1.11,12.246a2.3,2.3,0,0,0-2.134,1.717l-.087-1.509h-.52V20h.607V15.247c.035-1.474.833-2.411,1.995-2.411a2.526,2.526,0,0,1,.538.069l.121-.607A2.189,2.189,0,0,0,1.11,12.246Zm8.543.208-.1,1.873a3.385,3.385,0,0,0-3.157-2.082A3.686,3.686,0,0,0,2.784,16.2,3.674,3.674,0,0,0,6.41,20.139a3.361,3.361,0,0,0,3.14-2.082L9.654,20h.5V12.454Zm-3.14,7.164A3.193,3.193,0,0,1,3.409,16.2,3.206,3.206,0,0,1,6.5,12.766,3.2,3.2,0,0,1,9.619,16.2,3.193,3.193,0,0,1,6.514,19.618ZM19.377,8.2v6.089a3.375,3.375,0,0,0-3.14-2.047A3.686,3.686,0,0,0,12.629,16.2a3.674,3.674,0,0,0,3.626,3.938,3.361,3.361,0,0,0,3.14-2.082L19.481,20h.5V8.2ZM16.358,19.618A3.193,3.193,0,0,1,13.253,16.2a3.206,3.206,0,0,1,3.088-3.435A3.2,3.2,0,0,1,19.463,16.2,3.193,3.193,0,0,1,16.358,19.618Zm7.034-9.107a.555.555,0,1,0-.555-.555A.548.548,0,0,0,23.392,10.511ZM23.08,20h.607V12.454H23.08Zm7.277.139A3.946,3.946,0,1,0,26.419,16.2,3.86,3.86,0,0,0,30.357,20.139Zm0-.52a3.291,3.291,0,0,1-3.3-3.417,3.3,3.3,0,1,1,6.592,0A3.291,3.291,0,0,1,30.357,19.618ZM36.836,20h.607V8.2h-.607Zm10.018-7.546-.1,1.873a3.385,3.385,0,0,0-3.157-2.082A3.686,3.686,0,0,0,39.985,16.2a3.674,3.674,0,0,0,3.626,3.938,3.361,3.361,0,0,0,3.14-2.082l.1,1.943h.5V12.454Zm-3.14,7.164A3.193,3.193,0,0,1,40.609,16.2a3.121,3.121,0,1,1,6.21,0A3.193,3.193,0,0,1,43.714,19.618Zm9.775-7.164h-1.96V10.2h-.607v2.255H49.829v.5h1.093V20h.607V12.957h1.96Zm8.439,0-.1,1.873a3.385,3.385,0,0,0-3.157-2.082A3.686,3.686,0,0,0,55.059,16.2a3.674,3.674,0,0,0,3.626,3.938,3.361,3.361,0,0,0,3.14-2.082l.1,1.943h.5V12.454Zm-3.14,7.164A3.193,3.193,0,0,1,55.684,16.2a3.121,3.121,0,1,1,6.21,0A3.193,3.193,0,0,1,58.789,19.618Zm9.272-7.372a2.3,2.3,0,0,0-2.134,1.717l-.087-1.509h-.52V20h.607V15.247c.035-1.474.833-2.411,1.995-2.411a2.526,2.526,0,0,1,.538.069l.121-.607A2.189,2.189,0,0,0,68.061,12.246Zm5.664,0A2.749,2.749,0,0,0,71.088,14.1l-.052-1.648H70.5V20h.607V15.368a2.544,2.544,0,0,1,2.515-2.6c1.37,0,2.359.885,2.359,2.88V20h.59V15.542C76.569,12.94,75.043,12.246,73.724,12.246Zm6.2-1.735a.555.555,0,1,0-.555-.555A.548.548,0,0,0,79.926,10.511ZM79.614,20h.607V12.454h-.607Zm10.694,2.1c-1.388.659-2.012-.85-.312-1.891L90.308,20h.017V12.454h-.5l-.1,1.873a3.385,3.385,0,0,0-3.157-2.082A3.686,3.686,0,0,0,82.953,16.2a3.674,3.674,0,0,0,3.626,3.938,3.361,3.361,0,0,0,3.14-2.082l.1,1.908c-1.162.677-1.527,1.561-1.232,2.168a1.283,1.283,0,0,0,1.839.33Zm-3.626-2.481A3.193,3.193,0,0,1,83.578,16.2a3.121,3.121,0,1,1,6.21,0A3.193,3.193,0,0,1,86.683,19.618Zm6.757,2.307a2.192,2.192,0,0,0,1.37-1.856c.069-.607-.208-1.11-.694-1.11a.542.542,0,0,0-.59.572.562.562,0,0,0,.815.468A1.875,1.875,0,0,1,93.3,21.6ZM-72.567,36.062V35.75a3.421,3.421,0,0,0-3.469-3.5A3.688,3.688,0,0,0-79.714,36.1a3.785,3.785,0,0,0,3.851,4.042,3.975,3.975,0,0,0,2.949-1.232l-.451-.364a3.189,3.189,0,0,1-2.5,1.076,3.2,3.2,0,0,1-3.209-3.5v-.052Zm-3.469-3.279a2.836,2.836,0,0,1,2.88,2.81h-5.881A3.013,3.013,0,0,1-76.036,32.784Zm13.9-.538a2.466,2.466,0,0,0-2.515,1.995,2.508,2.508,0,0,0-2.481-1.995,2.431,2.431,0,0,0-2.342,1.821l-.069-1.613h-.538V40h.607V35.455c.139-1.631,1.006-2.689,2.22-2.689,1.353,0,2.151,1.093,2.151,2.654V40h.607V35.594c.121-1.821.954-2.828,2.238-2.828,1.492,0,2.168,1.093,2.168,2.758V40h.59V35.524C-59.5,32.957-60.883,32.246-62.132,32.246Zm5.976-1.735a.548.548,0,0,0,.555-.555.548.548,0,0,0-.555-.555.548.548,0,0,0-.555.555A.548.548,0,0,0-56.156,30.511ZM-56.469,40h.607V32.454h-.607Zm7-7.546h-1.96V30.2h-.607v2.255h-1.093v.5h1.093V40h.607V32.957h1.96Zm5.317,7.754c1.37,0,3.018-.711,3.018-3.261V32.454h-.59v4.493c0,1.683-.867,2.741-2.429,2.741-1.579,0-2.446-1.058-2.446-2.741V32.454h-.607v4.493C-47.205,39.5-45.557,40.208-44.152,40.208Zm6.826-9.7a.548.548,0,0,0,.555-.555.548.548,0,0,0-.555-.555.548.548,0,0,0-.555.555A.548.548,0,0,0-37.326,30.511Zm.312,10.825V32.454h-.607v8.864c0,1.3-.555,1.926-1.96,1.787v.5C-38.246,43.782-37.014,43.348-37.014,41.336Zm9.879-5.273V35.75a3.421,3.421,0,0,0-3.469-3.5A3.688,3.688,0,0,0-34.282,36.1a3.785,3.785,0,0,0,3.851,4.042,3.975,3.975,0,0,0,2.949-1.232l-.451-.364a3.189,3.189,0,0,1-2.5,1.076,3.2,3.2,0,0,1-3.209-3.5v-.052ZM-30.6,32.784a2.836,2.836,0,0,1,2.88,2.81h-5.881A3.013,3.013,0,0,1-30.6,32.784Zm14.554-3.157a2.315,2.315,0,0,1,1.041.295l.642-1.474a3.689,3.689,0,0,0-2.03-.572c-1.457,0-2.723,1.006-2.723,3.105v1.058h-1.2v1.6h1.2V40h2.047V33.634H-15.1v-1.6h-1.978V30.823C-17.074,30.112-16.761,29.627-16.05,29.627Zm9.012,2.411-.26,1.023A3.261,3.261,0,0,0-9.97,31.83c-2.064,0-3.695,1.561-3.695,4.181s1.631,4.163,3.695,4.163a3.276,3.276,0,0,0,2.654-1.2L-7.056,40h1.7V32.038Zm-2.394,6.4a2.194,2.194,0,0,1-2.134-2.429,2.209,2.209,0,0,1,2.134-2.446,2.23,2.23,0,0,1,2.2,2.446A2.215,2.215,0,0,1-9.432,38.439ZM-2.763,40H-.7V28.2H-2.763ZM9.684,35.958A3.871,3.871,0,0,0,5.659,31.83a4.2,4.2,0,1,0,.243,8.4,4.476,4.476,0,0,0,3.279-1.232L7.793,37.866a2.471,2.471,0,0,1-1.926.8,2.18,2.18,0,0,1-2.255-2.134H9.684ZM5.659,33.391a1.915,1.915,0,0,1,1.995,1.821H3.665A2.02,2.02,0,0,1,5.659,33.391ZM20.543,31.83a2.649,2.649,0,0,0-2.116,1.318l-.243-1.11h-1.8V40h2.064V36.062c0-1.405.711-2.255,1.926-2.255a2.4,2.4,0,0,1,.746.121l.312-1.978A3.016,3.016,0,0,0,20.543,31.83Zm8.318.208-.26,1.023a3.261,3.261,0,0,0-2.671-1.232c-2.064,0-3.695,1.561-3.695,4.181s1.631,4.163,3.695,4.163a3.276,3.276,0,0,0,2.654-1.2L28.844,40h1.7V32.038Zm-2.394,6.4a2.194,2.194,0,0,1-2.134-2.429,2.184,2.184,0,1,1,4.337,0A2.215,2.215,0,0,1,26.467,38.439ZM38.861,28.2V32.87a3.343,3.343,0,0,0-2.515-1.041c-2.064,0-3.695,1.561-3.695,4.181s1.631,4.163,3.695,4.163A3.367,3.367,0,0,0,39,38.994L39.226,40h1.683V28.2ZM36.884,38.439A2.194,2.194,0,0,1,34.75,36.01a2.184,2.184,0,1,1,4.337,0A2.215,2.215,0,0,1,36.884,38.439Zm7.763-7.719a1.2,1.2,0,1,0-1.214-1.2A1.218,1.218,0,0,0,44.647,30.719ZM43.641,40H45.7V32.038H43.641Zm8.752.243a4.209,4.209,0,1,0-4.337-4.2A4.13,4.13,0,0,0,52.392,40.243Zm0-1.752a2.263,2.263,0,0,1-2.22-2.446,2.232,2.232,0,1,1,4.441,0A2.263,2.263,0,0,1,52.392,38.491ZM68.36,32.038l-1.7,5.326-1.613-5.326H63.364l-1.613,5.343-1.7-5.343h-2.2L60.831,40h1.717l1.665-5.568L65.862,40h1.717l2.984-7.962ZM79.9,35.958A3.871,3.871,0,0,0,75.88,31.83a4.2,4.2,0,1,0,.243,8.4A4.476,4.476,0,0,0,79.4,38.994l-1.388-1.128a2.471,2.471,0,0,1-1.926.8,2.18,2.18,0,0,1-2.255-2.134H79.9ZM75.88,33.391a1.915,1.915,0,0,1,1.995,1.821h-3.99A2.02,2.02,0,0,1,75.88,33.391Z" transform="translate(143.334 252.831)" fill="#2e3c4b"/>
    </g>
    <g id="jarosławiec" transform="translate(1195.189 641.888)">
      <path id="Path_2155" data-name="Path 2155" d="M1234.343,795.229c-2.836,0-5.119-.288-5.618-1.285h0c-.52-1.041-1.115-7.6-1.729-14.8-.081-.953-.156-1.819-.22-2.542-.794-8.965-.782-14.092.036-15.236s5.011-1.118,8.364-1.089c1.267.011,2.362.022,3.021-.038,2.111-.192,10.525-.364,11.689.567,1.232.986,1.294,10.915,1.294,12.9,0,.685.053,2.168.119,4.043.267,7.606.477,15.124-.144,16.211-.7,1.224-4.449,1.176-8.225,1.021-.615-.025-1.133-.046-1.488-.046-.371,0-1.038.042-1.883.094C1237.794,795.133,1235.977,795.229,1234.343,795.229Zm-5.273-1.457c.737,1.474,7.307,1.063,10.464.866.85-.053,1.523-.1,1.906-.1.358,0,.882.021,1.5.046,2.528.1,7.235.3,7.876-.827.619-1.082.277-10.79.093-16.006-.065-1.88-.118-3.365-.118-4.057,0-4.692-.306-11.92-1.15-12.594-.951-.76-8.676-.733-11.413-.485-.677.062-1.78.052-3.059.04-2.921-.028-7.336-.067-8.047.927-.429.6-1,3.347.035,14.978.064.725.138,1.591.219,2.544.434,5.087,1.161,13.6,1.691,14.662Z" transform="translate(-1214.762 -667.619)" fill="#2e3c4b"/>
      <path id="Path_2156" data-name="Path 2156" d="M1227.627,756.9c-.193-.721-.6-7.169-.8-13.664-.183-5.858-.248-13.093.473-14.294.821-1.368,12.288-1.817,17.57-1.458,3.456.234,3.66.711,3.737.891.75,1.748,1.486,27.037.821,28.187l-.334-.193c.589-1.043-.173-26.282-.841-27.841-.019-.045-.279-.446-3.409-.658-6.979-.472-16.679.381-17.214,1.272-.517.863-.67,6-.418,14.085.2,6.358.607,12.888.791,13.576Z" transform="translate(-1214.827 -663.497)" fill="#2e3c4b"/>
      <path id="Path_2157" data-name="Path 2157" d="M1228.328,725.2c-.415-.823.1-9.409.271-12.021.343-5.3.871-11.49,1.224-12.546a.67.67,0,0,1,.424-.367c2.342-.969,15.524-.148,16.329.255,1.025.513,1.467,23.844,1.448,24.068l-.384-.031c.038-1.274-.541-22.813-1.266-23.713-.726-.356-13.788-1.127-15.978-.224-.184.076-.207.133-.208.133-.716,2.149-2.034,23.245-1.516,24.272Z" transform="translate(-1215.012 -660.025)" fill="#2e3c4b"/>
      <path id="Path_2158" data-name="Path 2158" d="M1246.5,697.848l-.383-.044c.176-1.532-.374-18.132-1.948-19.116-1.905-1.19-11.033-1.663-11.533-.914-.84,1.26-1.73,18.29-1.472,19.662l-.378.071c-.276-1.461.62-18.58,1.53-19.946.756-1.138,10.376-.249,12.057.8C1246.239,679.529,1246.661,696.419,1246.5,697.848Z" transform="translate(-1215.335 -657.154)" fill="#2e3c4b"/>
      <path id="Path_2159" data-name="Path 2159" d="M1244.525,678.321l-.308-.232a38.523,38.523,0,0,1,2.789-3.43c.211-.149.109-1.589-.043-2.023-1.149-.219-16.3-.2-17.1.028a3.7,3.7,0,0,0,.062,1.185,4.328,4.328,0,0,1,.057.515,20.786,20.786,0,0,0,2.34,2.865l-.286.26c-.911-1-2.439-2.735-2.439-3.125a4.231,4.231,0,0,0-.053-.461c-.113-.794-.17-1.37.139-1.577.423-.281,16.374-.33,17.416-.053a.266.266,0,0,1,.18.128c.168.335.448,2.254-.068,2.584A39.981,39.981,0,0,0,1244.525,678.321Z" transform="translate(-1215.174 -656.532)" fill="#2e3c4b"/>
      <path id="Path_2160" data-name="Path 2160" d="M1244.45,673.573l-.374-.094c.181-.718.5-8.407-.29-9.077-.927-.784-9.2-.282-9.651.244a73.528,73.528,0,0,0-.129,8.648l-.384.049c-.009-.072-.2-8.268.187-8.9.089-.144.324-.314,1.4-.487,2.394-.382,7.988-.551,8.822.155C1245.105,665.013,1244.545,673.2,1244.45,673.573Z" transform="translate(-1215.692 -655.465)" fill="#2e3c4b"/>
      <path id="Path_2161" data-name="Path 2161" d="M1232.683,664.008a.917.917,0,0,1-.714-.206.288.288,0,0,1-.008-.29c.3-.7,5.4-6.575,6.217-6.666h.02c.907,0,7.521,5.849,7.8,6.341l.064.109-.064.148c-.066.091-.221.3-2.98-.085l.054-.383a20.6,20.6,0,0,0,2.452.226c-1.007-1.107-6.664-5.893-7.321-5.97-.557.152-5.38,5.4-5.865,6.368a4.349,4.349,0,0,0,1.387-.1l.076.378A6.173,6.173,0,0,1,1232.683,664.008Z" transform="translate(-1215.485 -654.611)" fill="#2e3c4b"/>
      <path id="Path_2162" data-name="Path 2162" d="M1238.687,656.968a.767.767,0,0,1-.324-.078,1.907,1.907,0,0,1-.951-1.257,1.357,1.357,0,0,1,.385-1.134.787.787,0,0,1,.728-.187h0a1.523,1.523,0,0,1,1.337,1.293.918.918,0,0,1-.618,1.128c-.081.045-.166.09-.25.144A.558.558,0,0,1,1238.687,656.968Zm-.359-2.293a.392.392,0,0,0-.273.112.98.98,0,0,0-.261.8,1.535,1.535,0,0,0,.731.957.267.267,0,0,0,.26.015c.093-.06.186-.111.276-.16.341-.184.512-.277.423-.712-.119-.584-.384-.835-1.049-.995h0A.463.463,0,0,0,1238.327,654.674Z" transform="translate(-1216.175 -654.289)" fill="#2e3c4b"/>
      <path id="Path_2163" data-name="Path 2163" d="M1247.084,675.3c-.981-.4-12.774-.455-17.243-.444v-.385c.655,0,16.137-.043,17.391.473Z" transform="translate(-1215.222 -656.832)" fill="#2e3c4b"/>
      <path id="Path_2164" data-name="Path 2164" d="M1230.946,674.6c-.2,0-.289,0-.413-2.13l.385-.023a14.528,14.528,0,0,0,.184,1.857l-.156.063Z" transform="translate(-1215.31 -656.577)" fill="#2e3c4b"/>
      <path id="Path_2165" data-name="Path 2165" d="M1231.922,674.442a15.576,15.576,0,0,1,0-1.992l.385.019a14.714,14.714,0,0,0,0,1.9Z" transform="translate(-1215.48 -656.577)" fill="#2e3c4b"/>
      <rect id="Rectangle_243" data-name="Rectangle 243" width="0.385" height="1.956" transform="translate(18.769 15.882)" fill="#2e3c4b"/>
      <rect id="Rectangle_244" data-name="Rectangle 244" width="1.974" height="0.385" transform="matrix(0.108, -0.994, 0.994, 0.108, 19.789, 17.824)" fill="#2e3c4b"/>
      <rect id="Rectangle_245" data-name="Rectangle 245" width="0.385" height="2.308" transform="translate(22.279 15.753)" fill="#2e3c4b"/>
      <rect id="Rectangle_246" data-name="Rectangle 246" width="0.385" height="2.078" transform="translate(23.331 15.753)" fill="#2e3c4b"/>
      <rect id="Rectangle_247" data-name="Rectangle 247" width="0.385" height="2.169" transform="translate(25.846 15.756)" fill="#2e3c4b"/>
      <rect id="Rectangle_248" data-name="Rectangle 248" width="0.385" height="2.297" transform="translate(27.079 15.763)" fill="#2e3c4b"/>
      <rect id="Rectangle_249" data-name="Rectangle 249" width="0.385" height="2.178" transform="translate(29.599 15.882)" fill="#2e3c4b"/>
      <rect id="Rectangle_250" data-name="Rectangle 250" width="0.385" height="2.408" transform="translate(30.778 15.882)" fill="#2e3c4b"/>
      <path id="Path_2166" data-name="Path 2166" d="M1237.428,673.4l-.382-.057.312-2.1-.313-7.162.385-.016.312,7.2Z" transform="translate(-1216.13 -655.521)" fill="#2e3c4b"/>
      <rect id="Rectangle_251" data-name="Rectangle 251" width="0.385" height="9.506" transform="translate(24.666 8.554)" fill="#2e3c4b"/>
      <path id="Path_2167" data-name="Path 2167" d="M1219.726,796.207a5.988,5.988,0,0,1-1.269-.107.95.95,0,0,1-.7-.423c-.563-1.145-1.818-27-1.343-27.667s8.264-1.252,8.739-1.1a.222.222,0,0,1,.174.212l-.385,0,.193,0-.1.155c-.517-.169-7.668.531-8.3.956-.33,1.438.912,26.353,1.365,27.275.02.039.1.14.44.218,2.033.469,8.5-.78,8.991-1.162l.237.305C1227.243,795.278,1222.448,796.207,1219.726,796.207Z" transform="translate(-1213.518 -668.476)" fill="#2e3c4b"/>
      <path id="Path_2168" data-name="Path 2168" d="M1215.036,766.605c-.827,0-1.756-.118-1.91-.63-.137-.458.981-3.667,1.943-6.279a63.264,63.264,0,0,1,2.456-6.054c.449-.524,6.269-.769,8.043-.832l.013.385c-3.556.126-7.435.423-7.767.7-.378.459-4.458,11.16-4.317,11.971.1.33,1.453.418,2.653.287l.042.384A11.4,11.4,0,0,1,1215.036,766.605Z" transform="translate(-1213.115 -666.703)" fill="#2e3c4b"/>
      <path id="Path_2169" data-name="Path 2169" d="M1220.059,782.746a.976.976,0,0,1-.389-.052l-.089-.048-.011-.1c-.793-7.123-.656-7.329-.613-7.4.06-.089.2-.3,4.228-.443l.184-.007.016.182c.06.639.573,6.256.5,6.765-.027.192-.228.315-.378.39A11.058,11.058,0,0,1,1220.059,782.746Zm-.121-.378c.633.06,3.364-.457,3.569-.8.044-.324-.263-3.983-.49-6.474a32.015,32.015,0,0,0-3.724.286C1219.269,776.015,1219.662,779.878,1219.938,782.368Z" transform="translate(-1213.846 -669.46)" fill="#2e3c4b"/>
      <path id="Path_2170" data-name="Path 2170" d="M1218.919,774.885a4.259,4.259,0,0,1,.425-2.811,1.438,1.438,0,0,1,1.066-.56c1.953-.154,2.917,2.8,2.958,2.923l-.368.116c-.01-.028-.9-2.785-2.56-2.653a1.053,1.053,0,0,0-.792.412,3.971,3.971,0,0,0-.349,2.508Z" transform="translate(-1213.837 -669.058)" fill="#2e3c4b"/>
      <rect id="Rectangle_252" data-name="Rectangle 252" width="0.386" height="7.475" transform="translate(7.084 105.453) rotate(-4.836)" fill="#2e3c4b"/>
      <rect id="Rectangle_253" data-name="Rectangle 253" width="4.15" height="0.386" transform="matrix(0.999, -0.048, 0.048, 0.999, 5.507, 109.076)" fill="#2e3c4b"/>
      <path id="Path_2171" data-name="Path 2171" d="M1241.453,791.148a4.755,4.755,0,0,1-1.659-.193h0c-.328-.242-.077-2.7.321-3.9.287-.87.671-1.312,1.141-1.312a.938.938,0,0,1,.782.527,9.7,9.7,0,0,1,.739,4.613.409.409,0,0,1-.292.187A5.174,5.174,0,0,1,1241.453,791.148Zm-1.4-.493a7.971,7.971,0,0,0,2.381.031c.052-.4-.06-3.361-.8-4.318-.263-.343-.554-.319-.824.08A9.014,9.014,0,0,0,1240.055,790.655Z" transform="translate(-1216.458 -670.852)" fill="#2e3c4b"/>
      <path id="Path_2172" data-name="Path 2172" d="M1241.669,776.285c-.819,0-1.8-.093-1.809-.1h0c-.117-.032-.362-.1-.038-2.114.207-1.294.695-3.451,1.636-3.451h.031c.3.015.563.243.766.677a11.585,11.585,0,0,1,.507,4.818C1242.664,776.246,1242.2,776.285,1241.669,776.285Zm.76-.356Zm-2.376-.1a15.213,15.213,0,0,0,2.389.03c.064-.577-.019-3.738-.681-4.647a.417.417,0,0,0-.292-.2c-.1-.007-.234.078-.363.247C1240.349,772.258,1239.995,775.263,1240.052,775.831Z" transform="translate(-1216.459 -668.947)" fill="#2e3c4b"/>
      <path id="Path_2173" data-name="Path 2173" d="M1239.214,743.653a9.709,9.709,0,0,1-1.549-.1c-.312-.164-.376-2.872-.094-4.026.2-.836.573-1.259,1.1-1.259.452,0,.822.319,1.1.947a9.075,9.075,0,0,1,.481,4.295A2.106,2.106,0,0,1,1239.214,743.653Zm.721-.356Zm-2.036-.085a12.087,12.087,0,0,0,2.047.023c.06-.506-.009-3.264-.752-4.263-.307-.412-.7-.437-.972-.046C1237.572,739.876,1237.785,742.673,1237.9,743.213Z" transform="translate(-1216.174 -664.87)" fill="#2e3c4b"/>
      <path id="Path_2174" data-name="Path 2174" d="M1238.408,717.43a5.673,5.673,0,0,1-1.4-.131h0c-.324-.192.019-2.693.192-3.486.277-1.273.65-1.916,1.141-1.967.2-.02.463.047.706.475a10.557,10.557,0,0,1,.585,4.884C1239.5,717.375,1238.965,717.43,1238.408,717.43Zm-1.149-.452a7.631,7.631,0,0,0,2.054-.011c.089-.472-.042-3.773-.7-4.6-.121-.153-.206-.144-.236-.141-.121.012-.233.144-.305.253C1237.423,713.457,1237.2,716.41,1237.259,716.979Z" transform="translate(-1216.108 -661.541)" fill="#2e3c4b"/>
      <path id="Path_2175" data-name="Path 2175" d="M1238.984,694.887a3.273,3.273,0,0,1-.5-.032c-.306-.048-.491-.146-.566-.3a5.729,5.729,0,0,1,.614-3.2.763.763,0,0,1,.683-.423c.277.018.492.222.639.6a6.065,6.065,0,0,1,.067,3.162h0A1.686,1.686,0,0,1,1238.984,694.887Zm.2-3.565c-.092,0-.188.066-.286.2a5.734,5.734,0,0,0-.627,2.868,2.487,2.487,0,0,0,1.364.046,6.168,6.168,0,0,0-.227-2.945c-.1-.161-.184-.166-.212-.168Z" transform="translate(-1216.233 -658.906)" fill="#2e3c4b"/>
      <path id="Path_2176" data-name="Path 2176" d="M1239.35,687.212c-.4,0-1.349-.025-1.47-.256a7,7,0,0,1,.493-3.566.924.924,0,0,1,.835-.5.891.891,0,0,1,.714.429c.653.985.294,3.406.209,3.633h0c-.073.2-.344.238-.6.254C1239.527,687.21,1239.459,687.212,1239.35,687.212Zm-1.124-.478a4.63,4.63,0,0,0,1.553.052c.1-.385.326-2.5-.185-3.258a.494.494,0,0,0-.4-.249.484.484,0,0,0-.4.2C1238.186,684.184,1238.188,686.273,1238.226,686.734Zm-.065-.021" transform="translate(-1216.229 -657.893)" fill="#2e3c4b"/>
      <rect id="Rectangle_254" data-name="Rectangle 254" width="3.432" height="0.386" transform="matrix(0.927, -0.375, 0.375, 0.927, 36.338, 7.657)" fill="#2e3c4b"/>
      <rect id="Rectangle_255" data-name="Rectangle 255" width="4.345" height="0.386" transform="translate(38.001 11.19)" fill="#2e3c4b"/>
      <rect id="Rectangle_256" data-name="Rectangle 256" width="0.386" height="2.542" transform="matrix(0.539, -0.843, 0.843, 0.539, 37.347, 15.585)" fill="#2e3c4b"/>
      <rect id="Rectangle_257" data-name="Rectangle 257" width="0.386" height="3.3" transform="translate(9.282 5.99) rotate(-65.324)" fill="#2e3c4b"/>
      <rect id="Rectangle_258" data-name="Rectangle 258" width="3.519" height="0.386" transform="translate(7.343 10.211)" fill="#2e3c4b"/>
      <rect id="Rectangle_259" data-name="Rectangle 259" width="2.285" height="0.386" transform="translate(8.194 15.24) rotate(-20.317)" fill="#2e3c4b"/>
      <path id="Path_2177" data-name="Path 2177" d="M1243.866,682.493l-.165-.819c-.2-.982-.549-1.9-.736-1.934-.306.1-.813.9-1.074,1.449l-.318.662-.048-.733c0-.016-.114-1.576-1.029-1.585h-.011a.615.615,0,0,0-.485.194,1.616,1.616,0,0,0-.232,1.07l-.38.065c-.09-.407-.469-1.578-1.012-1.609h-.024c-.531,0-.99,1.021-1.109,1.384l-.26.786-.115-.82c0-.015-.22-1.45-1.01-1.344-.726.089-1.327,1.21-1.5,1.634l-.424,1.058.052-1.139c.022-.486-.066-1.505-.482-1.554-.382-.052-.9,1.134-1.123,1.947l-.371-.1c.108-.389.687-2.331,1.539-2.227.529.062.723.682.791,1.21a2.3,2.3,0,0,1,1.468-1.21c.737-.088,1.116.57,1.294,1.089.246-.5.7-1.122,1.293-1.1.51.03.858.542,1.076,1.03a1.209,1.209,0,0,1,.24-.427,1.019,1.019,0,0,1,.788-.323c.826.008,1.171.794,1.314,1.365.26-.448.657-1.023,1.04-1.141a.4.4,0,0,1,.323.044,2.89,2.89,0,0,1,.732,1.472c.258-.78.64-1.6,1.1-1.479l-.09.375h0c-.19.019-.594.926-.849,1.9Z" transform="translate(-1215.496 -657.386)" fill="#2e3c4b"/>
    </g>
    <g id="Group_354" data-name="Group 354" transform="translate(1169.911 635.727)">
      <path id="Path_2178" data-name="Path 2178" d="M1267.429,674.57l-.258-.236c1.583-1.735,2.289-4.283,2.222-8.015-.024-1.332-.205-3.2-1.488-4.076l.2-.288c1.417.961,1.616,2.947,1.642,4.357C1269.811,670.14,1269.076,672.764,1267.429,674.57Z" transform="translate(-1194.647 -649.094)" fill="#2e3c4b"/>
      <path id="Path_2179" data-name="Path 2179" d="M1288.15,686.2l-.219-.273c5.274-4.2,6.757-15.327,6.884-19.261.275-8.585-1.359-14.867-5-19.2l.267-.225c3.7,4.4,5.357,10.761,5.079,19.437C1295.037,670.655,1293.526,681.919,1288.15,686.2Z" transform="translate(-1197.263 -647.24)" fill="#2e3c4b"/>
      <path id="Path_2180" data-name="Path 2180" d="M1277.27,680.634l-.3-.176c.115-.2.315-.482.568-.841a24.338,24.338,0,0,0,4.952-12.933,16.542,16.542,0,0,0-4.015-11.836l.248-.247a16.915,16.915,0,0,1,4.117,12.1,24.681,24.681,0,0,1-5.017,13.118C1277.574,680.171,1277.378,680.449,1277.27,680.634Z" transform="translate(-1195.881 -648.168)" fill="#2e3c4b"/>
      <path id="Path_2181" data-name="Path 2181" d="M1211.961,676.558c-1.418-.962-1.615-2.948-1.641-4.357-.07-3.828.665-6.452,2.314-8.258l.258.236c-1.584,1.736-2.289,4.283-2.221,8.015.024,1.332.2,3.2,1.488,4.076Z" transform="translate(-1187.483 -649.345)" fill="#2e3c4b"/>
      <path id="Path_2182" data-name="Path 2182" d="M1189.3,687.475c-3.7-4.4-5.358-10.762-5.079-19.438.128-3.978,1.638-15.242,7.015-19.522l.219.273c-5.274,4.2-6.757,15.326-6.884,19.26-.275,8.585,1.359,14.867,5,19.2Z" transform="translate(-1184.192 -647.401)" fill="#2e3c4b"/>
      <path id="Path_2183" data-name="Path 2183" d="M1200.862,681.977a16.908,16.908,0,0,1-4.116-12.1,24.67,24.67,0,0,1,5.018-13.12c.247-.35.443-.628.551-.813l.3.176c-.115.2-.316.481-.568.838a24.356,24.356,0,0,0-4.953,12.935,16.544,16.544,0,0,0,4.014,11.836Z" transform="translate(-1185.771 -648.337)" fill="#2e3c4b"/>
    </g>
  </g>
</svg>
