<svg xmlns="http://www.w3.org/2000/svg" width="310.383" height="332.991" viewBox="0 0 310.383 332.991">
  <g id="CIEKAWOSTKA_jasta" data-name="CIEKAWOSTKA jasta" transform="translate(-638.21 -538.593)">
    <g id="Group_296" data-name="Group 296" transform="translate(638.21 538.593)">
      <g id="CIEKAWOSTKA">
        <path id="Path_1283" data-name="Path 1283" d="M650.835,554.143c19.078-23.8,269.48-17.425,283.69,0S955.1,831.671,939.54,853.09s-274.284,24.534-288.708,7.773S631.756,577.939,650.835,554.143Z" transform="translate(-638.21 -538.593)" fill="#e5a34c"/>
        <g id="CIEKAWOSTKA-2" transform="translate(88.993 24.095)" style="isolation: isolate">
          <path id="Path_2197" data-name="Path 2197" d="M7.106.076A6.186,6.186,0,0,1,4.655-.418,6.239,6.239,0,0,1,2.622-1.8,6.388,6.388,0,0,1,1.254-3.838,6.233,6.233,0,0,1,.76-6.308a6.339,6.339,0,0,1,.484-2.47A6.327,6.327,0,0,1,2.622-10.83,6.388,6.388,0,0,1,4.655-12.2a6.186,6.186,0,0,1,2.451-.494,6.182,6.182,0,0,1,2.7.608,6.818,6.818,0,0,1,2.28,1.8l-1.292,1.1a4.748,4.748,0,0,0-3.686-1.786,4.478,4.478,0,0,0-1.777.361A4.7,4.7,0,0,0,3.838-9.6,4.7,4.7,0,0,0,2.831-8.1a4.524,4.524,0,0,0-.361,1.8,4.524,4.524,0,0,0,.361,1.8A4.7,4.7,0,0,0,3.838-3.021,4.7,4.7,0,0,0,5.329-2.014a4.478,4.478,0,0,0,1.777.361,4.748,4.748,0,0,0,3.686-1.786l1.292,1.1A7.042,7.042,0,0,1,9.795-.532,6.121,6.121,0,0,1,7.106.076ZM14.269,0V-12.635h1.6V0ZM18.24,0V-12.635h6.916v1.71H19.893v3.838h3.534v1.558H19.893V-1.71h5.263V0ZM33.288,0,29.2-4.655V0H27.531V-12.616H29.2v4.807l4.009-4.807h2.2l-5.339,6.4L35.549,0ZM45.467,0,43.909-4.446H39.957L38.4,0H36.594l4.389-12.616h1.9L47.272,0ZM41.933-10.165,40.489-6.042h2.869ZM58.52,0H56.829L54.872-5.377,52.991,0h-1.71L46.7-12.654h1.843l3.572,9.9,1.824-5.187-1.71-4.712h1.843l1.672,4.636,1.919,5.263,3.458-9.9h1.843ZM70.243.095A6.221,6.221,0,0,1,67.8-.39a6.142,6.142,0,0,1-2.023-1.378A6.36,6.36,0,0,1,64.41-3.809a6.255,6.255,0,0,1-.494-2.461A6.221,6.221,0,0,1,64.4-8.712a6.355,6.355,0,0,1,1.378-2.042A6.417,6.417,0,0,1,67.8-12.122a6.118,6.118,0,0,1,2.441-.494,6.186,6.186,0,0,1,2.451.494,6.388,6.388,0,0,1,2.033,1.368A6.388,6.388,0,0,1,76.1-8.721a6.186,6.186,0,0,1,.494,2.451A6.255,6.255,0,0,1,76.1-3.809a6.36,6.36,0,0,1-1.368,2.042A6.388,6.388,0,0,1,72.694-.4,6.186,6.186,0,0,1,70.243.095Zm0-10.982a4.582,4.582,0,0,0-1.776.352,4.57,4.57,0,0,0-1.492,1,4.57,4.57,0,0,0-1,1.491,4.582,4.582,0,0,0-.352,1.776,4.662,4.662,0,0,0,.361,1.815,4.578,4.578,0,0,0,.988,1.492,4.57,4.57,0,0,0,1.492,1,4.582,4.582,0,0,0,1.776.352,4.582,4.582,0,0,0,1.777-.352,4.57,4.57,0,0,0,1.492-1A4.578,4.578,0,0,0,74.5-4.456,4.662,4.662,0,0,0,74.86-6.27a4.582,4.582,0,0,0-.352-1.776,4.57,4.57,0,0,0-1-1.491,4.57,4.57,0,0,0-1.492-1A4.582,4.582,0,0,0,70.243-10.887Zm14.9,2.147a2.929,2.929,0,0,0-.4-1.216,2.078,2.078,0,0,0-.845-.751,3.012,3.012,0,0,0-1.283-.237,2.4,2.4,0,0,0-1.805.551,1.929,1.929,0,0,0-.494,1.425,2.1,2.1,0,0,0,.152.865,1.3,1.3,0,0,0,.456.541,3.179,3.179,0,0,0,1.5.418,10.49,10.49,0,0,1,1.8.294,4.827,4.827,0,0,1,1.283.542,3,3,0,0,1,1.387,2.736A3.352,3.352,0,0,1,86.6-2.2a3.794,3.794,0,0,1-.8,1.159,3.826,3.826,0,0,1-1.435.874A5.238,5.238,0,0,1,82.65.114a4.463,4.463,0,0,1-3.211-1.14A4.51,4.51,0,0,1,78.2-3.762l.038-.019h1.672a2.485,2.485,0,0,0,.684,1.5,2.826,2.826,0,0,0,2,.684,3,3,0,0,0,1.9-.551,1.729,1.729,0,0,0,.7-1.425,2.075,2.075,0,0,0-.1-.694,1.172,1.172,0,0,0-.389-.523,4.812,4.812,0,0,0-2.413-.627A4.361,4.361,0,0,1,79.553-6.46a3.311,3.311,0,0,1-.931-2.508,3.571,3.571,0,0,1,1.007-2.641,4.006,4.006,0,0,1,2.964-1.064,3.975,3.975,0,0,1,3.078,1.2A4.761,4.761,0,0,1,86.849-8.74Zm7.524-2.28V0H90.991V-11.02H87.932v-1.615h7.79v1.615Zm11,11.02L99.579-4.655V0H97.907V-12.616h1.672v4.807l4.009-4.807h2.2l-5.339,6.4L105.925,0Zm12.179,0-1.558-4.446h-3.952L108.775,0H106.97l4.389-12.616h1.9L117.648,0Zm-3.534-10.165-1.444,4.123h2.869Z" transform="translate(0 15)" fill="#2e3c4b"/>
        </g>
        <rect id="Rectangle_45" data-name="Rectangle 45" width="11.166" height="2.234" transform="translate(144.17 46.426)" fill="#ae4426"/>
        <g id="Group_181" data-name="Group 181" transform="translate(69.499 65.413)">
          <path id="Path_1327" data-name="Path 1327" d="M727.023,653.869c4.934-13.494,16.534-41.311,39.053-41.81s84.362-2.683,100.074,16.146,18.489,33.511,16.172,63.208-10.286,46.938-19.678,62.736-49.375,27.973-85.31,26.573-62.109-22.7-61.412-51.863,13.265-33.055,11.1-45.724S722.089,667.363,727.023,653.869Z" transform="translate(-715.908 -611.723)" fill="#f2edeb"/>
        </g>
        <path id="Path_2196" data-name="Path 2196" d="M-67.323-.555V-11.1h-.624V0h5.326V-.555Zm13.158-6.991-.1,1.873a3.385,3.385,0,0,0-3.157-2.082A3.686,3.686,0,0,0-61.035-3.8,3.674,3.674,0,0,0-57.41.139a3.361,3.361,0,0,0,3.14-2.082l.1,1.943h.5V-7.546Zm-3.14,7.164A3.193,3.193,0,0,1-60.411-3.8a3.206,3.206,0,0,1,3.088-3.435A3.2,3.2,0,0,1-54.2-3.8,3.193,3.193,0,0,1-57.306-.382Zm9.775-7.164h-1.96V-9.8H-50.1v2.255h-1.093v.5H-50.1V0h.607V-7.043h1.96Zm8.439,0-.1,1.873a3.385,3.385,0,0,0-3.157-2.082A3.686,3.686,0,0,0-45.961-3.8,3.674,3.674,0,0,0-42.335.139,3.361,3.361,0,0,0-39.2-1.943l.1,1.943h.5V-7.546Zm-3.14,7.164A3.193,3.193,0,0,1-45.336-3.8a3.206,3.206,0,0,1,3.088-3.435A3.2,3.2,0,0,1-39.126-3.8,3.193,3.193,0,0,1-42.231-.382Zm9.272-7.372a2.3,2.3,0,0,0-2.134,1.717l-.087-1.509h-.52V0h.607V-4.753c.035-1.474.833-2.411,1.995-2.411a2.526,2.526,0,0,1,.538.069l.121-.607A2.189,2.189,0,0,0-32.959-7.754Zm5.664,0A2.749,2.749,0,0,0-29.932-5.9l-.052-1.648h-.538V0h.607V-4.632a2.544,2.544,0,0,1,2.515-2.6c1.37,0,2.359.885,2.359,2.88V0h.59V-4.458C-24.45-7.06-25.977-7.754-27.3-7.754Zm6.2-1.735a.548.548,0,0,0,.555-.555.548.548,0,0,0-.555-.555.548.548,0,0,0-.555.555A.548.548,0,0,0-21.094-9.489ZM-21.406,0h.607V-7.546h-.607ZM-11.2-7.546l-.1,1.873a3.385,3.385,0,0,0-3.157-2.082A3.686,3.686,0,0,0-18.067-3.8,3.674,3.674,0,0,0-14.441.139,3.361,3.361,0,0,0-11.3-1.943L-11.2,0h.5V-7.546Zm-3.14,7.164A3.193,3.193,0,0,1-17.442-3.8a3.206,3.206,0,0,1,3.088-3.435A3.2,3.2,0,0,1-11.232-3.8,3.193,3.193,0,0,1-14.337-.382ZM6.7-7.546,4.207-.815,2.09-7.546h-.5L-.546-.781-3.027-7.546h-.642L-.772,0h.486L1.83-6.835,3.964,0H4.45l2.88-7.546ZM15.933.139c1.44,0,2.429-.919,2.429-2.845v-8.4h-.624v8.5c0,1.37-.677,2.186-1.821,2.186a1.94,1.94,0,0,1-1.683-.85L13.852-.8A2.583,2.583,0,0,0,15.933.139ZM27.755-7.546l-.1,1.873a3.385,3.385,0,0,0-3.157-2.082A3.686,3.686,0,0,0,20.886-3.8,3.674,3.674,0,0,0,24.511.139a3.361,3.361,0,0,0,3.14-2.082L27.755,0h.5V-7.546ZM24.615-.382A3.193,3.193,0,0,1,21.51-3.8,3.206,3.206,0,0,1,24.6-7.234,3.2,3.2,0,0,1,27.72-3.8,3.193,3.193,0,0,1,24.615-.382Zm5.941-.694A3.1,3.1,0,0,0,33.124.139c1.527,0,2.619-.8,2.619-2.134,0-2.862-4.2-1.44-4.215-3.73-.017-.919.677-1.492,1.752-1.492a2.465,2.465,0,0,1,1.856.711l.382-.4a3.144,3.144,0,0,0-2.238-.85A2.1,2.1,0,0,0,30.9-5.69c.035,2.793,4.215,1.37,4.215,3.73,0,.971-.763,1.579-1.995,1.579a2.471,2.471,0,0,1-2.1-1.076Zm10.92-6.47h-1.96V-9.8h-.607v2.255H37.816v.5h1.093V0h.607V-7.043h1.96Zm8.439,0-.1,1.873a3.385,3.385,0,0,0-3.157-2.082A3.686,3.686,0,0,0,43.046-3.8,3.674,3.674,0,0,0,46.672.139a3.361,3.361,0,0,0,3.14-2.082L49.916,0h.5V-7.546ZM46.776-.382A3.193,3.193,0,0,1,43.671-3.8a3.206,3.206,0,0,1,3.088-3.435A3.2,3.2,0,0,1,49.881-3.8,3.193,3.193,0,0,1,46.776-.382Zm9.272-7.372a2.3,2.3,0,0,0-2.134,1.717l-.087-1.509h-.52V0h.607V-4.753c.035-1.474.833-2.411,1.995-2.411a2.526,2.526,0,0,1,.538.069l.121-.607A2.189,2.189,0,0,0,56.048-7.754Zm5.664,0A2.749,2.749,0,0,0,59.075-5.9l-.052-1.648h-.538V0h.607V-4.632a2.544,2.544,0,0,1,2.515-2.6c1.37,0,2.359.885,2.359,2.88V0h.59V-4.458C64.557-7.06,63.03-7.754,61.712-7.754Zm6.2-1.735a.548.548,0,0,0,.555-.555.548.548,0,0,0-.555-.555.548.548,0,0,0-.555.555A.548.548,0,0,0,67.913-9.489ZM67.6,0h.607V-7.546H67.6ZM-103.6,10.511a.548.548,0,0,0,.555-.555A.548.548,0,0,0-103.6,9.4a.548.548,0,0,0-.555.555A.548.548,0,0,0-103.6,10.511Zm.312,10.825V12.454h-.607v8.864c0,1.3-.555,1.926-1.96,1.787v.5C-104.52,23.782-103.288,23.348-103.288,21.336Zm9.879-5.273V15.75a3.421,3.421,0,0,0-3.469-3.5,3.688,3.688,0,0,0-3.678,3.851A3.785,3.785,0,0,0-96.7,20.139a3.975,3.975,0,0,0,2.949-1.232l-.451-.364a3.189,3.189,0,0,1-2.5,1.076,3.2,3.2,0,0,1-3.209-3.5v-.052Zm-3.469-3.279A2.836,2.836,0,0,1-94,15.594h-5.881A3.013,3.013,0,0,1-96.878,12.784Zm5.369,6.141a3.1,3.1,0,0,0,2.567,1.214c1.527,0,2.619-.8,2.619-2.134,0-2.862-4.2-1.44-4.215-3.73-.017-.919.677-1.492,1.752-1.492a2.465,2.465,0,0,1,1.856.711l.382-.4a3.144,3.144,0,0,0-2.238-.85,2.1,2.1,0,0,0-2.377,2.064c.035,2.793,4.215,1.37,4.215,3.73,0,.971-.763,1.579-1.995,1.579a2.471,2.471,0,0,1-2.1-1.076Zm10.92-6.47h-1.96V10.2h-.607v2.255H-84.25v.5h1.093V20h.607V12.957h1.96ZM-69,11.83a2.921,2.921,0,0,0-2.446,1.145l-.26-.937h-1.8V20h2.064V15.351A1.712,1.712,0,0,1-69.7,13.582c1.093,0,1.579.763,1.579,1.995V20h2.047V15.039C-66.07,12.61-67.649,11.83-69,11.83Zm11.579.208-.26,1.023a3.261,3.261,0,0,0-2.671-1.232c-2.064,0-3.695,1.561-3.695,4.181s1.631,4.163,3.695,4.163a3.276,3.276,0,0,0,2.654-1.2L-57.44,20h1.7V12.038Zm-2.394,6.4A2.194,2.194,0,0,1-61.95,16.01a2.209,2.209,0,0,1,2.134-2.446,2.23,2.23,0,0,1,2.2,2.446A2.215,2.215,0,0,1-59.817,18.439Zm8.283-7.719a1.218,1.218,0,0,0,1.232-1.2,1.218,1.218,0,0,0-1.232-1.2,1.214,1.214,0,0,0-1.214,1.2A1.214,1.214,0,0,0-51.533,10.719Zm1.023,9.732V12.038h-2.047v8.309c0,1.284-.538,1.891-1.943,1.665v1.579C-52.453,23.972-50.51,23.383-50.51,20.451Zm7.294-8.621a2.921,2.921,0,0,0-2.446,1.145l-.26-.937h-1.8V20h2.064V15.351a1.712,1.712,0,0,1,1.752-1.769c1.093,0,1.579.763,1.579,1.995V20h2.047V15.039C-40.284,12.61-41.862,11.83-43.216,11.83Zm6.583-1.11a1.218,1.218,0,0,0,1.232-1.2,1.218,1.218,0,0,0-1.232-1.2,1.214,1.214,0,0,0-1.214,1.2A1.214,1.214,0,0,0-36.632,10.719ZM-37.639,20h2.064V12.038h-2.064Zm7.988-9.4a1.137,1.137,0,0,0,1.145-1.11A1.14,1.14,0,0,0-29.65,8.36,1.14,1.14,0,0,0-30.8,9.488,1.137,1.137,0,0,0-29.65,10.6Zm-.885,7.685,4.129-4.805v-1.44h-6.522v1.735h3.851l-4.111,4.822V20h7.078V18.283Zm5.872.659a4.493,4.493,0,0,0,3.469,1.3c2.03,0,3.209-1.023,3.209-2.463,0-2.9-3.955-1.856-3.955-3.452,0-.538.4-.885,1.18-.885a2.523,2.523,0,0,1,1.665.677l1.041-1.284a4.3,4.3,0,0,0-2.862-1.006c-1.995,0-3.157,1.041-3.157,2.55,0,2.966,3.886,1.926,3.886,3.417,0,.52-.451.867-1.318.867a2.509,2.509,0,0,1-2.03-1.023Zm11.076-.659,4.129-4.805v-1.44h-6.522v1.735h3.851l-4.111,4.822V20h7.078V18.283ZM-.915,12.038l-.26,1.023A3.261,3.261,0,0,0-3.847,11.83c-2.064,0-3.695,1.561-3.695,4.181s1.631,4.163,3.695,4.163a3.276,3.276,0,0,0,2.654-1.2L-.932,20h1.7V12.038Zm-2.394,6.4A2.194,2.194,0,0,1-5.443,16.01a2.209,2.209,0,0,1,2.134-2.446,2.23,2.23,0,0,1,2.2,2.446A2.215,2.215,0,0,1-3.309,18.439ZM8.5,19.462l5-6.54v-.468H7.967v.52h4.805L7.706,19.532V20h6.037v-.538Zm14.424-3.4V15.75a3.421,3.421,0,0,0-3.469-3.5A3.688,3.688,0,0,0,15.781,16.1a3.785,3.785,0,0,0,3.851,4.042,3.975,3.975,0,0,0,2.949-1.232l-.451-.364a3.284,3.284,0,0,1-5.707-2.429v-.052Zm-3.469-3.279a2.836,2.836,0,0,1,2.88,2.81H16.458A3.013,3.013,0,0,1,19.459,12.784Zm20.469-.33-2.5,6.731-2.116-6.731h-.5l-2.134,6.765L30.2,12.454h-.642L32.452,20h.486l2.116-6.835L37.188,20h.486l2.88-7.546Zm2.142,6.47a3.1,3.1,0,0,0,2.567,1.214c1.527,0,2.619-.8,2.619-2.134,0-2.862-4.2-1.44-4.215-3.73-.017-.919.677-1.492,1.752-1.492a2.465,2.465,0,0,1,1.856.711l.382-.4a3.144,3.144,0,0,0-2.238-.85,2.1,2.1,0,0,0-2.377,2.064c.035,2.793,4.215,1.37,4.215,3.73,0,.971-.763,1.579-1.995,1.579a2.471,2.471,0,0,1-2.1-1.076Zm8.092.538,5-6.54v-.468H49.625v.52H54.43l-5.065,6.557V20H55.4v-.538Zm13.21-7.008-2.914,6.679-2.845-6.679h-.659l3.209,7.355-1.683,3.834h.642l4.892-11.189Zm2.056,6.47A3.1,3.1,0,0,0,68,20.139c1.527,0,2.619-.8,2.619-2.134,0-2.862-4.2-1.44-4.215-3.73-.017-.919.677-1.492,1.752-1.492a2.465,2.465,0,0,1,1.856.711l.382-.4a3.144,3.144,0,0,0-2.238-.85,2.1,2.1,0,0,0-2.377,2.064c.035,2.793,4.215,1.37,4.215,3.73,0,.971-.763,1.579-1.995,1.579a2.471,2.471,0,0,1-2.1-1.076Zm10.92-6.47h-1.96V10.2h-.607v2.255H72.688v.5h1.093V20h.607V12.957h1.96ZM84.614,20l-4.562-4.146,4.077-3.4h-.815L79.289,15.8V8.2h-.607V20h.607V15.923L83.764,20Zm2.368-9.489a.555.555,0,1,0-.555-.555A.548.548,0,0,0,86.982,10.511ZM86.67,20h.607V12.454H86.67Zm7.156.139a3.88,3.88,0,0,0,2.429-.833l-.382-.434a2.989,2.989,0,0,1-2.047.746,3.164,3.164,0,0,1-3.192-3.435,3.159,3.159,0,0,1,3.192-3.417,2.989,2.989,0,0,1,2.047.746l.382-.434a3.88,3.88,0,0,0-2.429-.833,3.75,3.75,0,0,0-3.816,3.938A3.745,3.745,0,0,0,93.825,20.139Zm7.954-7.893A2.7,2.7,0,0,0,99.159,14.1V8.2h-.607V20h.607V15.663c.052-1.821,1.11-2.9,2.533-2.9,1.37,0,2.342.885,2.342,2.88V20h.607V15.542C104.641,12.94,103.1,12.246,101.779,12.246ZM-101.436,40h.607V28.2h-.607Zm10.018-7.546-.1,1.873a3.385,3.385,0,0,0-3.157-2.082A3.686,3.686,0,0,0-98.288,36.2a3.674,3.674,0,0,0,3.626,3.938,3.361,3.361,0,0,0,3.14-2.082l.1,1.943h.5V32.454Zm-3.14,7.164A3.193,3.193,0,0,1-97.663,36.2a3.206,3.206,0,0,1,3.088-3.435A3.2,3.2,0,0,1-91.453,36.2,3.193,3.193,0,0,1-94.558,39.618Zm9.775-7.164h-1.96V30.2h-.607v2.255h-1.093v.5h1.093V40h.607V32.957h1.96Zm8.439,0-.1,1.873a3.385,3.385,0,0,0-3.157-2.082A3.686,3.686,0,0,0-83.213,36.2a3.674,3.674,0,0,0,3.626,3.938,3.361,3.361,0,0,0,3.14-2.082l.1,1.943h.5V32.454Zm-3.14,7.164A3.193,3.193,0,0,1-82.589,36.2,3.206,3.206,0,0,1-79.5,32.766,3.2,3.2,0,0,1-76.379,36.2,3.193,3.193,0,0,1-79.484,39.618Zm9.272-7.372a2.3,2.3,0,0,0-2.134,1.717l-.087-1.509h-.52V40h.607V35.247c.035-1.474.833-2.411,1.995-2.411a2.526,2.526,0,0,1,.538.069l.121-.607A2.19,2.19,0,0,0-70.212,32.246Zm5.664,0A2.749,2.749,0,0,0-67.185,34.1l-.052-1.648h-.538V40h.607V35.368a2.544,2.544,0,0,1,2.515-2.6c1.37,0,2.359.885,2.359,2.88V40h.59V35.542C-61.7,32.94-63.23,32.246-64.548,32.246Zm6.2-1.735a.548.548,0,0,0,.555-.555.548.548,0,0,0-.555-.555.548.548,0,0,0-.555.555A.548.548,0,0,0-58.346,30.511ZM-58.659,40h.607V32.454h-.607Zm11.917-7.754A2.749,2.749,0,0,0-49.378,34.1l-.052-1.648h-.538V40h.607V35.368a2.544,2.544,0,0,1,2.515-2.6c1.37,0,2.359.885,2.359,2.88V40h.59V35.542C-43.9,32.94-45.423,32.246-46.741,32.246Zm12.134.208-.1,1.873a3.385,3.385,0,0,0-3.157-2.082A3.686,3.686,0,0,0-41.477,36.2a3.674,3.674,0,0,0,3.626,3.938,3.361,3.361,0,0,0,3.14-2.082l.1,1.943h.5V32.454Zm-3.14,7.164A3.193,3.193,0,0,1-40.852,36.2a3.206,3.206,0,0,1,3.088-3.435A3.2,3.2,0,0,1-34.642,36.2,3.193,3.193,0,0,1-37.747,39.618Zm15.231-7.372a3.4,3.4,0,0,0-3.174,2.116l-.052-1.908h-.538l.017,11.189h.59V38.057a3.361,3.361,0,0,0,3.14,2.082A3.661,3.661,0,0,0-18.925,36.2,3.673,3.673,0,0,0-22.516,32.246Zm-.121,7.372A3.193,3.193,0,0,1-25.743,36.2a3.2,3.2,0,0,1,3.122-3.435A3.206,3.206,0,0,1-19.533,36.2,3.193,3.193,0,0,1-22.638,39.618Zm9.723.52A3.86,3.86,0,0,0-8.977,36.2a3.874,3.874,0,0,0-3.938-3.955A3.874,3.874,0,0,0-16.853,36.2,3.86,3.86,0,0,0-12.915,40.139Zm0-.52a3.291,3.291,0,0,1-3.3-3.417,3.291,3.291,0,0,1,3.3-3.417,3.291,3.291,0,0,1,3.3,3.417A3.291,3.291,0,0,1-12.915,39.618ZM-6.436,40h.607V28.2h-.607Zm2.975-1.076A3.1,3.1,0,0,0-.893,40.139c1.527,0,2.619-.8,2.619-2.134,0-2.862-4.2-1.44-4.215-3.73-.017-.919.677-1.492,1.752-1.492a2.465,2.465,0,0,1,1.856.711l.382-.4a3.144,3.144,0,0,0-2.238-.85A2.1,2.1,0,0,0-3.114,34.31C-3.079,37.1,1.1,35.681,1.1,38.04c0,.971-.763,1.579-1.995,1.579a2.471,2.471,0,0,1-2.1-1.076ZM10.148,40,5.586,35.854l4.077-3.4H8.847L4.822,35.8V28.2H4.215V40h.607V35.923L9.3,40Zm2.368-9.489a.555.555,0,1,0-.555-.555A.548.548,0,0,0,12.516,30.511ZM12.2,40h.607V32.454H12.2Zm11.7-7.754a2.466,2.466,0,0,0-2.515,1.995,2.508,2.508,0,0,0-2.481-1.995,2.431,2.431,0,0,0-2.342,1.821L16.5,32.454h-.538V40h.607V35.455c.139-1.631,1.006-2.689,2.22-2.689,1.353,0,2.151,1.093,2.151,2.654V40h.607V35.594c.121-1.821.954-2.828,2.238-2.828,1.492,0,2.168,1.093,2.168,2.758V40h.59V35.524C26.541,32.957,25.153,32.246,23.9,32.246Zm19.966.208-2.5,6.731-2.116-6.731h-.5l-2.134,6.765-2.481-6.765H33.5L36.394,40h.486L39,33.165,41.13,40h.486l2.88-7.546Zm8.6,0-2.914,6.679-2.845-6.679h-.659l3.209,7.355-1.683,3.834h.642l4.892-11.189Zm6.41-.208a3.4,3.4,0,0,0-3.157,2.047V28.2h-.607V40h.5l.087-1.943a3.368,3.368,0,0,0,3.157,2.082A3.661,3.661,0,0,0,62.466,36.2,3.673,3.673,0,0,0,58.876,32.246Zm-.139,7.372A3.191,3.191,0,0,1,55.649,36.2a3.113,3.113,0,1,1,6.193,0A3.183,3.183,0,0,1,58.737,39.618Zm8.942-7.372a2.3,2.3,0,0,0-2.134,1.717l-.087-1.509h-.52V40h.607V35.247c.035-1.474.833-2.411,1.995-2.411a2.526,2.526,0,0,1,.538.069L68.2,32.3A2.19,2.19,0,0,0,67.679,32.246Zm2.854,7.216,5-6.54v-.468H69.995v.52H74.8l-5.065,6.557V40h6.037v-.538Zm14.424-3.4V35.75a3.421,3.421,0,0,0-3.469-3.5A3.688,3.688,0,0,0,77.81,36.1a3.785,3.785,0,0,0,3.851,4.042,3.975,3.975,0,0,0,2.949-1.232l-.451-.364a3.284,3.284,0,0,1-5.707-2.429v-.052Zm-3.469-3.279a2.836,2.836,0,0,1,2.88,2.81H78.486A3.013,3.013,0,0,1,81.487,32.784ZM90.1,30.633a.555.555,0,1,0-.572-.555A.559.559,0,0,0,90.1,30.633Zm-2.238,8.83,5-6.54v-.468H87.325v.52H92.13l-5.065,6.557V40H93.1v-.538Zm10.677.746c1.37,0,3.018-.711,3.018-3.261V32.454h-.59v4.493c0,1.683-.867,2.741-2.429,2.741-1.579,0-2.446-1.058-2.446-2.741V32.454h-.607v4.493C95.486,39.5,97.134,40.208,98.539,40.208Z" transform="translate(143.709 258.355)" fill="#2e3c4b"/>
      </g>
      <g id="jastarnia" transform="translate(131.175 85.711)">
        <path id="Path_2024" data-name="Path 2024" d="M803.369,767.367c-3.613,0-7.954-.136-9.015-.754-.427-.25-.634-2.794-.618-7.564a58.018,58.018,0,0,1,.372-7.872l.341.126c-.41,1.1-.56,14.358.1,15,2.174,1.266,20.11.519,21.275.165a124.628,124.628,0,0,0,.191-14.995l.356-.071c.173.867.263,14.783-.285,15.332-.319.319-6.894.558-10.177.609C805.15,767.359,804.283,767.367,803.369,767.367Z" transform="translate(-785.797 -646.736)" fill="#2e3c4b"/>
        <path id="Path_2025" data-name="Path 2025" d="M812.467,739.9l-.363,0c0-.3.364-29.969-.006-43.681s-.379-33.737-.379-33.937h.363c0,.2.008,20.215.379,33.927S812.47,739.6,812.467,739.9Z" transform="translate(-787.695 -637.355)" fill="#2e3c4b"/>
        <path id="Path_2026" data-name="Path 2026" d="M799.44,740.161l-.363-.013c0-.106.361-10.747-.009-24.826-.354-13.459-.932-51.259-.544-53.2l.355.072c-.364,1.821.154,38,.552,53.118C799.8,729.4,799.443,740.055,799.44,740.161Z" transform="translate(-786.289 -637.339)" fill="#2e3c4b"/>
        <path id="Path_2027" data-name="Path 2027" d="M798.5,660.294c-.1-.57-.131-2.578-.164-4.7-.028-1.708-.055-3.473-.12-4.6a58.945,58.945,0,0,1,.066-6.827l.344.113a62.133,62.133,0,0,0-.048,6.693c.064,1.131.093,2.9.12,4.612.034,2.111.066,4.1.159,4.647Z" transform="translate(-786.262 -635.444)" fill="#2e3c4b"/>
        <path id="Path_2028" data-name="Path 2028" d="M812.078,660.259l-.362-.025c.432-6.2,1.026-15.6.9-16.125l.346-.108C813.16,644.632,812.189,658.661,812.078,660.259Z" transform="translate(-787.694 -635.427)" fill="#2e3c4b"/>
        <path id="Path_2029" data-name="Path 2029" d="M810.234,663.406l-.132-.338c1.27-.5,3.354-1.472,3.539-1.963a47.453,47.453,0,0,0,.9-7.985c-1.352-.17-18.964-.012-19.954.185-.3.621.155,6.939.31,7.541a19.6,19.6,0,0,0,3.345,1.773l-.15.331c-1.565-.714-3.452-1.643-3.547-2.013-.018-.07-.819-7.547-.156-7.944.608-.365,20.215-.25,20.336-.2.69.272-.712,8.365-.741,8.441C813.686,662.018,810.809,663.181,810.234,663.406Z" transform="translate(-785.838 -636.348)" fill="#2e3c4b"/>
        <path id="Path_2030" data-name="Path 2030" d="M803.741,657.837c-2.777,0-8.965-.677-9.243-.708l.039-.361c.072.008,7.216.791,9.655.7.072-.006,7.993-.606,10.354-.7l.014.362c-2.354.093-10.268.693-10.347.7Q804,657.837,803.741,657.837Z" transform="translate(-785.877 -636.774)" fill="#2e3c4b"/>
        <path id="Path_2031" data-name="Path 2031" d="M803.323,662.432a38.317,38.317,0,0,1-5.065-.2c-2.253-.441-3.745-.75-3.745-.75l.073-.355s1.492.31,3.741.75c1.1.216,5.276.251,11.754.1,2.174-.051,3.765-.1,3.766-.1l.012.363s-1.593.053-3.769.1S805.451,662.432,803.323,662.432Z" transform="translate(-785.879 -637.234)" fill="#2e3c4b"/>
        <path id="Path_2032" data-name="Path 2032" d="M801.783,643.438c-2.121,0-4.552-.089-5.1-.416-.1-.059-.2-.191-.129-.479.39-1.506,6.269-8.075,8-8.128h0c.112.007.309-.007,4.005,3.853,1.751,1.83,3.773,4.012,4.07,4.477a.257.257,0,0,1,.043.256c-.091.183-.292.233-4.554.291-1.33.018-2.586.035-3.223.076C804.365,643.4,803.136,643.438,801.783,643.438Zm2.745-8.658c-1.2.112-4.888,3.88-6.706,6.329-.992,1.337-.933,1.617-.929,1.629.672.386,6.014.394,7.98.267.646-.041,1.906-.058,3.242-.077,1.5-.021,3.486-.047,4.117-.122C811.315,641.6,805.173,635.186,804.528,634.781Z" transform="translate(-786.092 -634.415)" fill="#2e3c4b"/>
        <path id="Path_2033" data-name="Path 2033" d="M805.928,716.53a2.5,2.5,0,0,1-2.155-1.187c-.3-.969,1.483-1.674,1.688-1.752l.064-.012a1,1,0,0,1,.761.386,2.742,2.742,0,0,1,.495,2.01.7.7,0,0,1-.732.551C806.01,716.528,805.969,716.53,805.928,716.53Zm-.371-2.587c-.461.181-1.6.758-1.437,1.292a2.208,2.208,0,0,0,1.9.928c.242-.017.376-.1.4-.246a2.378,2.378,0,0,0-.412-1.717A.651.651,0,0,0,805.556,713.943Z" transform="translate(-786.852 -642.769)" fill="#2e3c4b"/>
        <path id="Path_2034" data-name="Path 2034" d="M802.437,767.921l-.363-.01c.009-.328.215-8.066.426-8.88.065-.253.364-.432.941-.566,1.336-.309,4.571-.324,5,.176s.782,7.175.881,9.209l-.362.018c-.159-3.259-.517-8.584-.8-8.994-.266-.281-3.271-.408-4.734-.032-.534.137-.575.274-.576.28C802.69,759.741,802.51,765.148,802.437,767.921Z" transform="translate(-786.677 -647.482)" fill="#2e3c4b"/>
        <path id="Path_2035" data-name="Path 2035" d="M800.056,771.594c-4.681,0-7.126-.124-7.286-.372-.4-.615.987-2.518,1.422-3.087l.289.22c-.794,1.039-1.532,2.319-1.42,2.641,1.214.435,23.624.159,24.581-.309a.109.109,0,0,0,.066-.1c.02-.416-1.14-1.446-1.969-2.045l.212-.294c.36.26,2.156,1.595,2.119,2.356a.471.471,0,0,1-.248.4c-.677.394-12.182.547-12.671.554Q802.272,771.594,800.056,771.594Z" transform="translate(-785.688 -648.526)" fill="#2e3c4b"/>
        <path id="Path_2036" data-name="Path 2036" d="M800.886,652.17c-.106-.577.584-7.007.663-7.739l.361.039c-.308,2.851-.741,7.237-.667,7.634Z" transform="translate(-786.55 -635.472)" fill="#2e3c4b"/>
        <path id="Path_2037" data-name="Path 2037" d="M806.041,652.036l-.353-.086c.1-.422.044-4.852-.021-7.725l.363-.008C806.046,644.954,806.187,651.431,806.041,652.036Z" transform="translate(-787.056 -635.449)" fill="#2e3c4b"/>
        <path id="Path_2038" data-name="Path 2038" d="M810.137,652.038l-.351-.091c.093-.373-.4-4.919-.726-7.7l.361-.043C809.564,645.421,810.277,651.5,810.137,652.038Z" transform="translate(-787.414 -635.448)" fill="#2e3c4b"/>
        <path id="Path_2039" data-name="Path 2039" d="M809.228,751.593c-7.25,0-16.656-.217-17.165-.538a1.013,1.013,0,0,1-.485-.642,1.253,1.253,0,0,1,.165-.863c.3-.5,2.745-.539,8.1-.435,1.179.023,2.2.043,2.781.03s1.848-.068,3.436-.137c6.867-.3,10.423-.413,10.8-.207a2.57,2.57,0,0,1,.975,1.727.868.868,0,0,1-.253.791C817.354,751.51,813.7,751.593,809.228,751.593Zm-17.176-1.852a.9.9,0,0,0-.119.6.669.669,0,0,0,.322.411c.911.433,24.157.691,25.12.276a.58.58,0,0,0,.1-.463,2.219,2.219,0,0,0-.788-1.444c-.47-.189-7.065.1-10.608.252-1.589.07-2.844.124-3.444.138s-1.614-.007-2.8-.03c-2.593-.05-7.419-.146-7.787.258l0,.005Z" transform="translate(-785.567 -646.474)" fill="#2e3c4b"/>
        <rect id="Rectangle_204" data-name="Rectangle 204" width="3.735" height="0.363" transform="translate(31.076 7.441) rotate(-24.584)" fill="#2e3c4b"/>
        <path id="Path_2040" data-name="Path 2040" d="M820.917,646.719l-.018-.362,4.432-.23.018.362Z" transform="translate(-788.663 -635.651)" fill="#2e3c4b"/>
        <rect id="Rectangle_205" data-name="Rectangle 205" width="0.363" height="2.986" transform="translate(31.704 13.813) rotate(-63.68)" fill="#2e3c4b"/>
        <rect id="Rectangle_206" data-name="Rectangle 206" width="0.363" height="3.88" transform="translate(1.501 5.934) rotate(-69.144)" fill="#2e3c4b"/>
        <rect id="Rectangle_207" data-name="Rectangle 207" width="0.363" height="3.864" transform="matrix(0.06, -0.998, 0.998, 0.06, 0, 10.608)" fill="#2e3c4b"/>
        <rect id="Rectangle_208" data-name="Rectangle 208" width="3.297" height="0.363" transform="translate(0.798 15.788) rotate(-24.764)" fill="#2e3c4b"/>
      </g>
      <path id="Path_2041" data-name="Path 2041" d="M806.782,706.459c-3.475,0-7.5-.047-7.559-.048l0-.358c.091,0,9.145.111,11.8,0l.014.358C810.147,706.447,808.534,706.459,806.782,706.459Z" transform="translate(-655.201 -556.264)" fill="#2e3c4b"/>
      <path id="Path_2042" data-name="Path 2042" d="M807.661,729.207c-3.354,0-7.694-.079-7.969-.084l.006-.358c.1,0,10.2.185,11.637,0l.046.354C810.88,729.185,809.4,729.207,807.661,729.207Z" transform="translate(-655.25 -558.661)" fill="#2e3c4b"/>
      <path id="Path_2043" data-name="Path 2043" d="M806.938,683.533c-3.429,0-7.777-.079-8.051-.084l.006-.358c.1,0,10.2.187,11.906,0l.038.356C810.249,683.512,808.717,683.533,806.938,683.533Z" transform="translate(-655.165 -553.841)" fill="#2e3c4b"/>
      <path id="Path_2044" data-name="Path 2044" d="M842.962,757.61H842.6V636.53l-2.529,2.649-.263-.243,2.972-3.318.093.107.084-.088v.184l2.828,3.247-.27.236-2.559-2.938Z" transform="translate(-659.484 -548.831)" fill="#2e3c4b"/>
      <path id="Path_2045" data-name="Path 2045" d="M842.855,772.268l-2.352-4.056.309-.18,2.08,3.587,2.693-3.6.286.215Z" transform="translate(-659.557 -562.802)" fill="#2e3c4b"/>
      <g id="Group_295" data-name="Group 295" transform="translate(187.829 132.357)">
        <path id="Path_2046" data-name="Path 2046" d="M850.932,701.3l-.1-8.847a44.362,44.362,0,0,0-.206-4.523,1.865,1.865,0,0,0-.211-.767l-1.89,4.486-.329-.14,2.081-4.94.182.128a1.59,1.59,0,0,1,.522,1.192,44.385,44.385,0,0,1,.208,4.559l.1,8.848Z" transform="translate(-848.198 -686.564)" fill="#2e3c4b"/>
        <path id="Path_2047" data-name="Path 2047" d="M857.5,702.154a35.623,35.623,0,0,1,1.051-8.991c.074-.3.152-.6.231-.9a14.308,14.308,0,0,0,.685-4.539.469.469,0,0,0-.079-.288.439.439,0,0,0-.281-.066l-5.193-.19.013-.359,5.194.19a.735.735,0,0,1,.519.171.758.758,0,0,1,.184.519,14.6,14.6,0,0,1-.7,4.654c-.078.3-.156.595-.23.892a35.336,35.336,0,0,0-1.04,8.9Z" transform="translate(-848.801 -686.591)" fill="#2e3c4b"/>
        <path id="Path_2048" data-name="Path 2048" d="M856.013,695.761l-.018-.358a46.824,46.824,0,0,0,4.682-.46l.052.355C859.174,695.53,857.587,695.685,856.013,695.761Z" transform="translate(-849.021 -687.448)" fill="#2e3c4b"/>
        <path id="Path_2049" data-name="Path 2049" d="M866.292,702.772l-1-6.233.353-.056.759,4.717a14.524,14.524,0,0,1,1.615-3.956.579.579,0,0,1,.28-.3c.251-.1.509.081.657.454a21.807,21.807,0,0,1,1.067,3.548,11.65,11.65,0,0,0,.871-2.63l.022-.1a2.8,2.8,0,0,1,.4-1.131.646.646,0,0,1,.378-.28c.252-.055.493.088.72.422a8.669,8.669,0,0,1,1.465,4.191l-.356.028a8.323,8.323,0,0,0-1.4-4.018c-.133-.2-.259-.3-.349-.274a.323.323,0,0,0-.165.141,2.564,2.564,0,0,0-.341.99l-.021.106a12.07,12.07,0,0,1-1.136,3.191l-.241.457-.094-.508a21.525,21.525,0,0,0-1.151-4c-.071-.177-.162-.264-.195-.253s-.073.092-.094.131c-.8,1.506-1.8,3.384-1.685,5.32Z" transform="translate(-850.002 -687.611)" fill="#2e3c4b"/>
      </g>
    </g>
  </g>
</svg>
