<svg xmlns="http://www.w3.org/2000/svg" width="302.5" height="324.452" viewBox="0 0 302.5 324.452">
  <g id="Group_297" transform="translate(-638.173 -538.611)">
    <g id="Group_296" transform="translate(638.173 538.611)">
      <g id="CIEKAWOSTKA">
        <path id="Path_1283" d="M650.486,553.768c18.565-23.185,262.618-17,276.477,0s20.047,270.463,4.881,291.294-267.238,23.882-281.358,7.583S631.921,576.953,650.486,553.768Z" transform="translate(-638.173 -538.611)" fill="#e5a34c"/>
        <g id="CIEKAWOSTKA-2" transform="translate(87.447 25.267)">
          <g id="Group_440" data-name="Group 440">
            <path id="Path_2469" data-name="Path 2469" d="M742.509,580.151a6.41,6.41,0,0,1-3.487-3.487,5.961,5.961,0,0,1-.523-2.528,6.254,6.254,0,0,1,.523-2.528,6.41,6.41,0,0,1,3.487-3.486,6.126,6.126,0,0,1,5.142.087,6.576,6.576,0,0,1,2.266,1.83l-1.307,1.133a4.742,4.742,0,0,0-3.748-1.83,4.345,4.345,0,0,0-3.312,1.395,5.725,5.725,0,0,0-1.046,1.482,4.043,4.043,0,0,0-.349,1.83,4.286,4.286,0,0,0,.349,1.83,4.559,4.559,0,0,0,1.046,1.482,5.727,5.727,0,0,0,1.482,1.046,4.287,4.287,0,0,0,1.83.349,4.869,4.869,0,0,0,3.748-1.83l1.307,1.133a7.822,7.822,0,0,1-2.353,1.83,5.84,5.84,0,0,1-2.7.61A3.742,3.742,0,0,1,742.509,580.151Z" transform="translate(-738.5 -567.6)" fill="#2e3c4b"/>
            <path id="Path_2470" data-name="Path 2470" d="M754.2,580.626V567.9h1.569v12.726Z" transform="translate(-740.516 -567.638)" fill="#2e3c4b"/>
            <path id="Path_2471" data-name="Path 2471" d="M758.8,580.626V567.9h6.973v1.743h-5.317v3.835h3.574v1.569h-3.574v3.835h5.317v1.743H758.8Z" transform="translate(-741.106 -567.638)" fill="#2e3c4b"/>
            <path id="Path_2472" data-name="Path 2472" d="M775.353,580.626l-4.1-4.707v4.707H769.6V567.9h1.656v4.881l4.009-4.881h2.266l-5.4,6.45,5.491,6.276h-2.266Z" transform="translate(-742.493 -567.638)" fill="#2e3c4b"/>
            <path id="Path_2473" data-name="Path 2473" d="M788.99,580.626l-1.569-4.445H783.5l-1.569,4.445H780.1l4.445-12.726h1.918l4.445,12.726Zm-3.486-10.2-1.482,4.184H786.9Z" transform="translate(-743.841 -567.638)" fill="#2e3c4b"/>
            <path id="Path_2474" data-name="Path 2474" d="M803.728,580.613h-1.743l-2-5.4-1.918,5.4H796.32L791.7,567.8h1.83l3.574,10.024,1.83-5.23-1.743-4.794h1.83l1.656,4.707,1.918,5.317,3.487-10.024h1.83Z" transform="translate(-745.33 -567.626)" fill="#2e3c4b"/>
            <path id="Path_2475" data-name="Path 2475" d="M815.622,580.277a5.528,5.528,0,0,1-2-1.395,6.762,6.762,0,0,1-1.395-2.092,5.956,5.956,0,0,1,0-4.881,6.764,6.764,0,0,1,1.395-2.092,7.564,7.564,0,0,1,2-1.395,5.956,5.956,0,0,1,4.881,0,6.409,6.409,0,0,1,3.486,3.486,5.956,5.956,0,0,1,0,4.881,6.409,6.409,0,0,1-3.486,3.486,5.848,5.848,0,0,1-2.44.523A7.628,7.628,0,0,1,815.622,580.277Zm.7-10.285a4.557,4.557,0,0,0-1.482,1.046,5.725,5.725,0,0,0-1.046,1.482,4.287,4.287,0,0,0-.349,1.83,4.551,4.551,0,0,0,.349,1.83,6.206,6.206,0,0,0,.959,1.482,5.725,5.725,0,0,0,1.482,1.046,4.287,4.287,0,0,0,1.83.349,4.345,4.345,0,0,0,3.312-1.395,3.937,3.937,0,0,0,.959-1.482,4.55,4.55,0,0,0-1.046-5.142,5.724,5.724,0,0,0-1.482-1.046,4.043,4.043,0,0,0-1.83-.349A5.627,5.627,0,0,0,816.32,569.992Z" transform="translate(-747.898 -567.638)" fill="#2e3c4b"/>
            <path id="Path_2476" data-name="Path 2476" d="M834.824,570.589a2.472,2.472,0,0,0-.872-.784,2.911,2.911,0,0,0-1.307-.261,2.552,2.552,0,0,0-1.83.523,1.916,1.916,0,0,0-.523,1.482,2.579,2.579,0,0,0,.174.872.893.893,0,0,0,.436.523,4.307,4.307,0,0,0,1.482.436q1.046.131,1.83.261a10.156,10.156,0,0,1,1.307.523,2.986,2.986,0,0,1,1.395,2.789,3.614,3.614,0,0,1-.261,1.395,3.317,3.317,0,0,1-.784,1.133,3.2,3.2,0,0,1-1.482.872,5.62,5.62,0,0,1-1.743.261,4.292,4.292,0,0,1-3.225-1.133,4.151,4.151,0,0,1-1.22-2.789h1.656a2.163,2.163,0,0,0,.7,1.482,2.941,2.941,0,0,0,2,.7,3.132,3.132,0,0,0,1.918-.523,1.82,1.82,0,0,0,.7-1.395,1.7,1.7,0,0,0-.087-.7,1.161,1.161,0,0,0-.436-.523,4.637,4.637,0,0,0-2.441-.61,4.5,4.5,0,0,1-2.789-1.046,3.487,3.487,0,0,1-.959-2.528,3.611,3.611,0,0,1,1.046-2.7,4.1,4.1,0,0,1,2.964-1.046,4.269,4.269,0,0,1,3.138,1.22,5.475,5.475,0,0,1,1.22,2.789h-1.743A1.442,1.442,0,0,0,834.824,570.589Z" transform="translate(-750.016 -567.626)" fill="#2e3c4b"/>
            <path id="Path_2477" data-name="Path 2477" d="M844.307,569.556v11.157h-1.656V569.556H839.6V567.9h7.845v1.656Z" transform="translate(-751.479 -567.638)" fill="#2e3c4b"/>
            <path id="Path_2478" data-name="Path 2478" d="M856.853,580.626l-4.1-4.707v4.707H851.1V567.9h1.656v4.881l4.009-4.881h2.266l-5.4,6.45,5.491,6.276h-2.266Z" transform="translate(-752.956 -567.638)" fill="#2e3c4b"/>
            <path id="Path_2479" data-name="Path 2479" d="M870.478,580.626l-1.569-4.445H864.9l-1.569,4.445H861.5l4.445-12.726h1.918l4.445,12.726Zm-3.574-10.2-1.482,4.184H868.3Z" transform="translate(-754.291 -567.638)" fill="#2e3c4b"/>
          </g>
        </g>
        <rect id="Rectangle_45" width="10.895" height="2.179" transform="translate(140.528 45.227)" fill="#ae4426"/>
        <g id="Group_181" transform="translate(67.737 63.747)">
          <path id="Path_1327" d="M726.706,652.759c4.794-13.161,16.125-40.269,38.09-40.7s82.193-2.615,97.534,15.776,18.043,32.686,15.776,61.623-10.024,45.76-19.176,61.1-48.113,27.282-83.152,25.887-60.49-22.139-59.88-50.554,12.9-32.25,10.808-44.54S721.913,665.921,726.706,652.759Z" transform="translate(-715.888 -611.748)" fill="#f2edeb"/>
        </g>
        <g id="Group_441" data-name="Group 441" transform="translate(76.029 241.167)">
          <path id="Path_2480" data-name="Path 2480" d="M730.891,826.208v.61H725.4V815.4h.61v10.808Z" transform="translate(-725.4 -815.313)" fill="#2e3c4b"/>
          <path id="Path_2481" data-name="Path 2481" d="M741.083,819.461v7.757h-.523l-.087-2a3.429,3.429,0,0,1-3.225,2.092A3.787,3.787,0,0,1,733.5,823.3a3.852,3.852,0,0,1,3.661-4.1,3.475,3.475,0,0,1,3.225,2.092l.087-1.918h.61Zm-.523,3.922a3.195,3.195,0,1,0-6.363,0,3.195,3.195,0,1,0,6.363,0Z" transform="translate(-726.44 -815.801)" fill="#2e3c4b"/>
          <path id="Path_2482" data-name="Path 2482" d="M748.848,819.676h-2v7.234h-.61v-7.234H745.1v-.523h1.133V816.8h.61v2.353h2Z" transform="translate(-727.929 -815.493)" fill="#2e3c4b"/>
          <path id="Path_2483" data-name="Path 2483" d="M758.883,819.461v7.757h-.523l-.087-2a3.429,3.429,0,0,1-3.225,2.092A3.787,3.787,0,0,1,751.3,823.3a3.852,3.852,0,0,1,3.661-4.1,3.475,3.475,0,0,1,3.225,2.092l.087-1.918h.61Zm-.61,3.922a3.195,3.195,0,1,0-6.363,0,3.336,3.336,0,0,0,3.225,3.486A3.268,3.268,0,0,0,758.273,823.384Z" transform="translate(-728.725 -815.801)" fill="#2e3c4b"/>
          <path id="Path_2484" data-name="Path 2484" d="M766.725,819.387l-.087.61c-.174,0-.349-.087-.523-.087-1.22,0-2,.959-2,2.441v4.881h-.61v-7.757h.523l.087,1.569a2.328,2.328,0,0,1,2.179-1.743A.786.786,0,0,1,766.725,819.387Z" transform="translate(-730.291 -815.814)" fill="#2e3c4b"/>
          <path id="Path_2485" data-name="Path 2485" d="M775.676,822.686v4.532h-.61v-4.445c0-2-1.046-2.964-2.44-2.964a2.637,2.637,0,0,0-2.615,2.7v4.707h-.61v-7.757h.523l.087,1.656a2.829,2.829,0,0,1,2.7-1.918C774.107,819.287,775.676,819.984,775.676,822.686Z" transform="translate(-731.049 -815.801)" fill="#2e3c4b"/>
          <path id="Path_2486" data-name="Path 2486" d="M779.9,816.51a.61.61,0,1,1,.61.61A.6.6,0,0,1,779.9,816.51Zm.261,2.528h.61V826.8h-.61Z" transform="translate(-732.397 -815.377)" fill="#2e3c4b"/>
          <path id="Path_2487" data-name="Path 2487" d="M791.683,819.461v7.757h-.523l-.087-2a3.429,3.429,0,0,1-3.225,2.092A3.787,3.787,0,0,1,784.1,823.3a3.852,3.852,0,0,1,3.661-4.1,3.475,3.475,0,0,1,3.225,2.092l.087-1.918h.61Zm-.523,3.922a3.195,3.195,0,1,0-3.138,3.486A3.215,3.215,0,0,0,791.16,823.384Z" transform="translate(-732.936 -815.801)" fill="#2e3c4b"/>
          <path id="Path_2488" data-name="Path 2488" d="M812.331,819.5l-2.964,7.757h-.523l-2.179-6.973-2.179,6.973h-.523L801,819.5h.7l2.528,6.973L806.4,819.5h.523l2.179,6.886,2.528-6.886Z" transform="translate(-735.106 -815.839)" fill="#2e3c4b"/>
          <path id="Path_2489" data-name="Path 2489" d="M821.7,825.934l.349-.523a1.936,1.936,0,0,0,1.743.872c1.133,0,1.83-.872,1.83-2.266V815.3h.61v8.629c0,2-1.046,2.876-2.528,2.876A2.3,2.3,0,0,1,821.7,825.934Z" transform="translate(-737.763 -815.3)" fill="#2e3c4b"/>
          <path id="Path_2490" data-name="Path 2490" d="M837.483,819.461v7.757h-.523l-.087-2a3.429,3.429,0,0,1-3.225,2.092A3.787,3.787,0,0,1,829.9,823.3a3.852,3.852,0,0,1,3.661-4.1,3.475,3.475,0,0,1,3.225,2.092l.087-1.918h.61Zm-.523,3.922a3.195,3.195,0,1,0-6.363,0,3.195,3.195,0,1,0,6.363,0Z" transform="translate(-738.816 -815.801)" fill="#2e3c4b"/>
          <path id="Path_2491" data-name="Path 2491" d="M841.823,825.75A2.47,2.47,0,0,0,844,826.883c1.22,0,2-.61,2-1.656,0-2.44-4.271-.959-4.358-3.835,0-1.307.959-2.092,2.44-2.092a3.21,3.21,0,0,1,2.266.872l-.349.436a2.273,2.273,0,0,0-1.918-.7c-1.133,0-1.83.61-1.83,1.569,0,2.353,4.358.872,4.358,3.835,0,1.395-1.133,2.179-2.7,2.179a3.134,3.134,0,0,1-2.615-1.22Z" transform="translate(-740.28 -815.814)" fill="#2e3c4b"/>
          <path id="Path_2492" data-name="Path 2492" d="M853.648,819.676h-2v7.234h-.61v-7.234H849.9v-.523h1.133V816.8h.61v2.353h2Z" transform="translate(-741.384 -815.493)" fill="#2e3c4b"/>
          <path id="Path_2493" data-name="Path 2493" d="M863.583,819.461v7.757h-.523l-.087-2a3.43,3.43,0,0,1-3.225,2.092A3.787,3.787,0,0,1,856,823.3a3.852,3.852,0,0,1,3.661-4.1,3.475,3.475,0,0,1,3.225,2.092l.087-1.918h.61Zm-.61,3.922a3.195,3.195,0,1,0-6.363,0,3.336,3.336,0,0,0,3.225,3.486A3.268,3.268,0,0,0,862.973,823.384Z" transform="translate(-742.167 -815.801)" fill="#2e3c4b"/>
          <path id="Path_2494" data-name="Path 2494" d="M871.425,819.387l-.087.61c-.174,0-.349-.087-.523-.087-1.22,0-2,.959-2,2.441v4.881h-.61v-7.757h.523l.087,1.569a2.328,2.328,0,0,1,2.179-1.743A.786.786,0,0,1,871.425,819.387Z" transform="translate(-743.733 -815.814)" fill="#2e3c4b"/>
          <path id="Path_2495" data-name="Path 2495" d="M880.376,822.686v4.532h-.61v-4.445c0-2-1.046-2.964-2.441-2.964a2.637,2.637,0,0,0-2.615,2.7v4.707h-.61v-7.757h.523l.087,1.656a2.829,2.829,0,0,1,2.7-1.918C878.807,819.287,880.376,819.984,880.376,822.686Z" transform="translate(-744.491 -815.801)" fill="#2e3c4b"/>
          <path id="Path_2496" data-name="Path 2496" d="M884.6,816.51a.61.61,0,1,1,.61.61A.6.6,0,0,1,884.6,816.51Zm.262,2.528h.61V826.8h-.61Z" transform="translate(-745.839 -815.377)" fill="#2e3c4b"/>
        </g>
        <g id="Group_442" data-name="Group 442" transform="translate(37.154 262.608)">
          <path id="Path_2497" data-name="Path 2497" d="M680.8,854.543v-.523c1.482.174,2-.523,2-1.83v-9.065h.61v9.065C683.5,854.282,682.195,854.718,680.8,854.543Zm1.743-14.033a.61.61,0,1,1,.61.61A.6.6,0,0,1,682.543,840.51Z" transform="translate(-680.8 -839.9)" fill="#2e3c4b"/>
          <path id="Path_2498" data-name="Path 2498" d="M687.7,847.209h0c0,2.092,1.22,3.661,3.312,3.661a3.04,3.04,0,0,0,2.528-1.133l.436.349a4.262,4.262,0,0,1-3.051,1.22A3.869,3.869,0,0,1,687,847.122a3.762,3.762,0,0,1,3.748-3.922,3.534,3.534,0,0,1,3.574,3.574v.349H687.7Zm.087-.523H693.8a2.867,2.867,0,0,0-2.964-2.876A3.058,3.058,0,0,0,687.784,846.686Z" transform="translate(-681.596 -840.324)" fill="#2e3c4b"/>
          <path id="Path_2499" data-name="Path 2499" d="M698.223,849.75a2.47,2.47,0,0,0,2.179,1.133c1.22,0,2-.61,2-1.656,0-2.44-4.271-.959-4.358-3.835,0-1.307.959-2.092,2.44-2.092a3.21,3.21,0,0,1,2.266.872l-.349.436a2.273,2.273,0,0,0-1.918-.7c-1.133,0-1.83.61-1.83,1.569,0,2.353,4.358.872,4.358,3.835,0,1.395-1.133,2.179-2.7,2.179a3.134,3.134,0,0,1-2.615-1.22Z" transform="translate(-682.97 -840.336)" fill="#2e3c4b"/>
          <path id="Path_2500" data-name="Path 2500" d="M710.048,843.676h-2v7.234h-.61v-7.234H706.3v-.523h1.133V840.8h.61v2.353h2Z" transform="translate(-684.074 -840.016)" fill="#2e3c4b"/>
        </g>
        <g id="Group_443" data-name="Group 443" transform="translate(70.276 261.563)">
          <path id="Path_2501" data-name="Path 2501" d="M726.47,846.124v5.055h-2.092v-4.532c0-1.22-.523-2-1.656-2a1.813,1.813,0,0,0-1.83,1.83v4.794H718.8v-8.193h1.83l.261.959a3.039,3.039,0,0,1,2.528-1.133C724.9,842.812,726.47,843.6,726.47,846.124Z" transform="translate(-718.8 -839.238)" fill="#2e3c4b"/>
          <path id="Path_2502" data-name="Path 2502" d="M738.555,843.074v8.193h-1.743l-.261-1.046a3.2,3.2,0,0,1-2.7,1.22c-2.092,0-3.748-1.569-3.748-4.271s1.656-4.271,3.748-4.271a3.457,3.457,0,0,1,2.7,1.22l.261-1.046Zm-1.918,4.009a2.241,2.241,0,1,0-2.266,2.528A2.322,2.322,0,0,0,736.637,847.084Z" transform="translate(-720.251 -839.239)" fill="#2e3c4b"/>
          <path id="Path_2503" data-name="Path 2503" d="M741.3,854.3v-1.656c1.482.261,2-.349,2-1.743v-8.542H745.4v8.629C745.309,854.128,743.392,854.738,741.3,854.3Zm1.743-14.382a1.247,1.247,0,0,1,1.22-1.22,1.192,1.192,0,0,1,1.22,1.22,1.22,1.22,0,0,1-2.441,0Z" transform="translate(-721.689 -838.7)" fill="#2e3c4b"/>
          <path id="Path_2504" data-name="Path 2504" d="M756.87,846.124v5.055h-2.092v-4.532c0-1.22-.523-2-1.656-2a1.813,1.813,0,0,0-1.83,1.83v4.794H749.2v-8.193h1.83l.261.959a3.039,3.039,0,0,1,2.528-1.133C755.214,842.812,756.87,843.6,756.87,846.124Z" transform="translate(-722.703 -839.238)" fill="#2e3c4b"/>
          <path id="Path_2505" data-name="Path 2505" d="M760.8,839.92a1.247,1.247,0,0,1,1.22-1.22,1.192,1.192,0,0,1,1.22,1.22,1.22,1.22,0,0,1-2.441,0Zm.261,2.615h2.092v8.193h-2.092Z" transform="translate(-724.192 -838.7)" fill="#2e3c4b"/>
          <path id="Path_2506" data-name="Path 2506" d="M773.534,848.911v1.743H766.3v-1.482l4.184-4.968h-3.922v-1.743h6.711v1.482L769,848.911Zm-4.794-8.978a1.133,1.133,0,1,1,1.133,1.133A1.154,1.154,0,0,1,768.741,839.933Z" transform="translate(-724.898 -838.713)" fill="#2e3c4b"/>
          <path id="Path_2507" data-name="Path 2507" d="M777.533,848.727a2.584,2.584,0,0,0,2.092,1.046c.872,0,1.395-.349,1.395-.872,0-1.569-4.009-.436-4.009-3.486,0-1.569,1.22-2.615,3.225-2.615a4.619,4.619,0,0,1,2.964,1.046l-1.046,1.307a2.591,2.591,0,0,0-1.743-.7c-.785,0-1.22.349-1.22.872,0,1.656,4.1.61,4.1,3.574,0,1.482-1.22,2.528-3.312,2.528a4.663,4.663,0,0,1-3.574-1.307Z" transform="translate(-726.195 -839.226)" fill="#2e3c4b"/>
          <path id="Path_2508" data-name="Path 2508" d="M793.534,849.45v1.743H786.3v-1.482l4.184-4.968h-3.922V843h6.711v1.482L789,849.45Z" transform="translate(-727.466 -839.252)" fill="#2e3c4b"/>
          <path id="Path_2509" data-name="Path 2509" d="M805.055,843.074v8.193h-1.743l-.261-1.046a3.2,3.2,0,0,1-2.7,1.22c-2.092,0-3.748-1.569-3.748-4.271s1.656-4.271,3.748-4.271a3.457,3.457,0,0,1,2.7,1.22l.261-1.046Zm-1.918,4.009a2.241,2.241,0,1,0-2.266,2.528A2.322,2.322,0,0,0,803.137,847.084Z" transform="translate(-728.788 -839.239)" fill="#2e3c4b"/>
        </g>
        <g id="Group_444" data-name="Group 444" transform="translate(153.602 261.388)">
          <path id="Path_2510" data-name="Path 2510" d="M820.589,850.734v.523H814.4v-.523l5.23-6.711h-4.968V843.5h5.666v.523l-5.143,6.711Z" transform="translate(-814.4 -839.142)" fill="#2e3c4b"/>
          <path id="Path_2511" data-name="Path 2511" d="M824.6,847.209h0c0,2.092,1.22,3.661,3.312,3.661a3.04,3.04,0,0,0,2.528-1.133l.436.349a4.262,4.262,0,0,1-3.051,1.22,3.869,3.869,0,0,1-3.922-4.184,3.762,3.762,0,0,1,3.748-3.922,3.534,3.534,0,0,1,3.574,3.574v.349H824.6Zm0-.523h6.014a2.867,2.867,0,0,0-2.964-2.876A3.186,3.186,0,0,0,824.6,846.686Z" transform="translate(-815.62 -839.103)" fill="#2e3c4b"/>
          <path id="Path_2512" data-name="Path 2512" d="M851.431,843.5l-2.964,7.757h-.523l-2.179-6.973-2.179,6.973h-.523L840.1,843.5h.7l2.528,6.973L845.5,843.5h.523l2.179,6.886,2.528-6.886Z" transform="translate(-817.699 -839.142)" fill="#2e3c4b"/>
          <path id="Path_2513" data-name="Path 2513" d="M855.323,849.75a2.47,2.47,0,0,0,2.179,1.133c1.22,0,2-.61,2-1.656,0-2.44-4.271-.959-4.358-3.835,0-1.307.959-2.092,2.44-2.092a3.21,3.21,0,0,1,2.266.872l-.349.436a2.273,2.273,0,0,0-1.918-.7c-1.133,0-1.83.61-1.83,1.569,0,2.353,4.358.872,4.358,3.835,0,1.395-1.133,2.179-2.7,2.179a3.134,3.134,0,0,1-2.615-1.22Z" transform="translate(-819.587 -839.116)" fill="#2e3c4b"/>
          <path id="Path_2514" data-name="Path 2514" d="M869.588,850.734v.523H863.4v-.523l5.23-6.711h-4.968V843.5h5.665v.523l-5.143,6.711Z" transform="translate(-820.691 -839.142)" fill="#2e3c4b"/>
          <path id="Path_2515" data-name="Path 2515" d="M879.622,843.5l-5.055,11.505h-.7l1.743-3.922-3.312-7.5h.7l2.876,6.886,2.964-6.886h.784Z" transform="translate(-821.833 -839.142)" fill="#2e3c4b"/>
          <path id="Path_2516" data-name="Path 2516" d="M882.823,849.75A2.47,2.47,0,0,0,885,850.883c1.22,0,2-.61,2-1.656,0-2.44-4.271-.959-4.358-3.835,0-1.307.959-2.092,2.44-2.092a3.21,3.21,0,0,1,2.266.872l-.349.436a2.273,2.273,0,0,0-1.918-.7c-1.133,0-1.83.61-1.83,1.569,0,2.353,4.358.872,4.358,3.835,0,1.395-1.133,2.179-2.7,2.179a3.264,3.264,0,0,1-2.615-1.22Z" transform="translate(-823.117 -839.116)" fill="#2e3c4b"/>
          <path id="Path_2517" data-name="Path 2517" d="M894.648,843.676h-2v7.234h-.61v-7.234H890.9v-.523h1.133V840.8h.61v2.353h2Z" transform="translate(-824.221 -838.795)" fill="#2e3c4b"/>
          <path id="Path_2518" data-name="Path 2518" d="M903.13,850.615l-4.62-4.184v4.184h-.61V838.5h.61v7.757l4.1-3.4h.872l-4.184,3.486L904,850.615Z" transform="translate(-825.12 -838.5)" fill="#2e3c4b"/>
          <path id="Path_2519" data-name="Path 2519" d="M907,840.51a.61.61,0,1,1,.61.61A.6.6,0,0,1,907,840.51Zm.261,2.528h.61V850.8h-.61Z" transform="translate(-826.288 -838.68)" fill="#2e3c4b"/>
          <path id="Path_2520" data-name="Path 2520" d="M911.3,847.309a3.872,3.872,0,0,1,3.922-4.009,4.218,4.218,0,0,1,2.528.872l-.349.436a2.827,2.827,0,0,0-2.092-.784A3.3,3.3,0,0,0,912,847.309a3.2,3.2,0,0,0,3.312,3.486,2.827,2.827,0,0,0,2.092-.784l.349.436a4.218,4.218,0,0,1-2.528.872A3.729,3.729,0,0,1,911.3,847.309Z" transform="translate(-826.84 -839.116)" fill="#2e3c4b"/>
          <path id="Path_2521" data-name="Path 2521" d="M927.576,846.083v4.532h-.61V846.17c0-2-.959-2.964-2.44-2.964S922,844.34,921.91,846.17v4.445h-.61V838.5h.61v6.014a2.75,2.75,0,0,1,2.7-1.918C926.007,842.684,927.576,843.381,927.576,846.083Z" transform="translate(-828.124 -838.5)" fill="#2e3c4b"/>
        </g>
        <g id="Group_445" data-name="Group 445" transform="translate(41.687 282.307)">
          <path id="Path_2522" data-name="Path 2522" d="M686,862.5h.61v12.115H686Z" transform="translate(-686 -862.5)" fill="#2e3c4b"/>
          <path id="Path_2523" data-name="Path 2523" d="M697.283,867.461v7.757h-.523l-.087-2a3.429,3.429,0,0,1-3.225,2.092A3.787,3.787,0,0,1,689.7,871.3a3.852,3.852,0,0,1,3.661-4.1,3.475,3.475,0,0,1,3.225,2.092l.087-1.918h.61Zm-.523,3.922a3.195,3.195,0,1,0-6.363,0,3.195,3.195,0,1,0,6.363,0Z" transform="translate(-686.475 -863.103)" fill="#2e3c4b"/>
          <path id="Path_2524" data-name="Path 2524" d="M705.048,867.676h-2v7.234h-.61v-7.234H701.3v-.523h1.133V864.8h.61v2.353h2Z" transform="translate(-687.964 -862.795)" fill="#2e3c4b"/>
          <path id="Path_2525" data-name="Path 2525" d="M714.983,867.461v7.757h-.523l-.087-2a3.429,3.429,0,0,1-3.225,2.092A3.787,3.787,0,0,1,707.4,871.3a3.852,3.852,0,0,1,3.661-4.1,3.475,3.475,0,0,1,3.225,2.092l.087-1.918h.61Zm-.523,3.922a3.195,3.195,0,1,0-6.363,0,3.336,3.336,0,0,0,3.225,3.487A3.268,3.268,0,0,0,714.46,871.384Z" transform="translate(-688.747 -863.103)" fill="#2e3c4b"/>
          <path id="Path_2526" data-name="Path 2526" d="M722.925,867.387l-.087.61c-.174,0-.349-.087-.523-.087-1.22,0-2,.959-2,2.44v4.881h-.61v-7.757h.523l.087,1.569a2.328,2.328,0,0,1,2.179-1.743A.947.947,0,0,1,722.925,867.387Z" transform="translate(-690.326 -863.116)" fill="#2e3c4b"/>
          <path id="Path_2527" data-name="Path 2527" d="M731.876,870.686v4.532h-.61v-4.445c0-2-1.046-2.964-2.44-2.964a2.637,2.637,0,0,0-2.615,2.7v4.707h-.61v-7.757h.523l.087,1.656a2.829,2.829,0,0,1,2.7-1.918C730.307,867.287,731.876,867.984,731.876,870.686Z" transform="translate(-691.084 -863.103)" fill="#2e3c4b"/>
          <path id="Path_2528" data-name="Path 2528" d="M736.1,864.51a.61.61,0,1,1,.61.61A.6.6,0,0,1,736.1,864.51Zm.262,2.528h.61V874.8h-.61Z" transform="translate(-692.432 -862.68)" fill="#2e3c4b"/>
          <path id="Path_2529" data-name="Path 2529" d="M752.776,870.686v4.532h-.61v-4.445c0-2-1.046-2.964-2.441-2.964a2.637,2.637,0,0,0-2.615,2.7v4.707h-.61v-7.757h.523l.087,1.656a2.829,2.829,0,0,1,2.7-1.918C751.207,867.287,752.776,867.984,752.776,870.686Z" transform="translate(-693.767 -863.103)" fill="#2e3c4b"/>
          <path id="Path_2530" data-name="Path 2530" d="M764.083,867.461v7.757h-.523l-.087-2a3.429,3.429,0,0,1-3.225,2.092A3.787,3.787,0,0,1,756.5,871.3a3.852,3.852,0,0,1,3.661-4.1,3.475,3.475,0,0,1,3.225,2.092l.087-1.918h.61Zm-.523,3.922a3.195,3.195,0,1,0-6.363,0,3.336,3.336,0,0,0,3.225,3.487A3.268,3.268,0,0,0,763.56,871.384Z" transform="translate(-695.051 -863.103)" fill="#2e3c4b"/>
          <path id="Path_2531" data-name="Path 2531" d="M782,871.4a3.721,3.721,0,0,1-3.661,4.009,3.568,3.568,0,0,1-3.225-2.092v5.753h-.61V867.561h.523l.087,1.918a3.508,3.508,0,0,1,3.225-2.179A3.8,3.8,0,0,1,782,871.4Zm-.61,0a3.195,3.195,0,1,0-3.138,3.487A3.324,3.324,0,0,0,781.386,871.4Z" transform="translate(-697.362 -863.116)" fill="#2e3c4b"/>
          <path id="Path_2532" data-name="Path 2532" d="M785.5,871.4a4.01,4.01,0,1,1,8.019,0,3.945,3.945,0,0,1-4.009,4.009A4,4,0,0,1,785.5,871.4Zm7.409,0a3.4,3.4,0,1,0-3.4,3.487A3.369,3.369,0,0,0,792.909,871.4Z" transform="translate(-698.774 -863.116)" fill="#2e3c4b"/>
          <path id="Path_2533" data-name="Path 2533" d="M797.8,862.5h.61v12.115h-.61Z" transform="translate(-700.353 -862.5)" fill="#2e3c4b"/>
          <path id="Path_2534" data-name="Path 2534" d="M801.723,873.75a2.47,2.47,0,0,0,2.179,1.133c1.22,0,2-.61,2-1.656,0-2.44-4.271-.959-4.358-3.835,0-1.307.959-2.092,2.441-2.092a3.21,3.21,0,0,1,2.266.872l-.349.436a2.273,2.273,0,0,0-1.918-.7c-1.133,0-1.83.61-1.83,1.569,0,2.353,4.358.872,4.358,3.835,0,1.395-1.133,2.179-2.7,2.179a3.133,3.133,0,0,1-2.615-1.22Z" transform="translate(-700.79 -863.116)" fill="#2e3c4b"/>
          <path id="Path_2535" data-name="Path 2535" d="M815.53,874.615l-4.62-4.184v4.184h-.61V862.5h.61v7.757l4.1-3.4h.872l-4.184,3.486,4.707,4.271Z" transform="translate(-701.958 -862.5)" fill="#2e3c4b"/>
          <path id="Path_2536" data-name="Path 2536" d="M819.4,864.51a.61.61,0,1,1,.61.61A.6.6,0,0,1,819.4,864.51Zm.261,2.528h.61V874.8h-.61Z" transform="translate(-703.126 -862.68)" fill="#2e3c4b"/>
          <path id="Path_2537" data-name="Path 2537" d="M835.008,870.7v4.62h-.61V870.7c0-1.743-.7-2.789-2.179-2.789-1.307,0-2.179,1.046-2.266,2.876v4.532h-.7v-4.794c0-1.569-.784-2.7-2.179-2.7-1.22,0-2.092,1.046-2.266,2.789v4.62h-.61v-7.757h.523l.087,1.656a2.483,2.483,0,0,1,2.44-1.83,2.657,2.657,0,0,1,2.528,2,2.536,2.536,0,0,1,2.615-2C833.613,867.3,835.008,868,835.008,870.7Z" transform="translate(-703.742 -863.116)" fill="#2e3c4b"/>
          <path id="Path_2538" data-name="Path 2538" d="M856.031,867.5l-2.964,7.757h-.523l-2.179-6.973-2.179,6.973h-.523L844.7,867.5h.7l2.528,6.973L850.1,867.5h.523l2.179,6.886,2.528-6.886Z" transform="translate(-706.374 -863.142)" fill="#2e3c4b"/>
          <path id="Path_2539" data-name="Path 2539" d="M866.722,867.5l-5.055,11.505h-.7l1.743-3.922-3.312-7.5h.7l2.876,6.886,2.964-6.886h.784Z" transform="translate(-708.262 -863.142)" fill="#2e3c4b"/>
          <path id="Path_2540" data-name="Path 2540" d="M877.8,870.793a3.721,3.721,0,0,1-3.661,4.009,3.475,3.475,0,0,1-3.225-2.092l-.087,2H870.3V862.6h.61v6.276a3.568,3.568,0,0,1,3.225-2.092C876.14,866.7,877.8,868.353,877.8,870.793Zm-.7,0a3.218,3.218,0,0,0-3.138-3.486,3.284,3.284,0,0,0-3.225,3.486,3.218,3.218,0,0,0,3.138,3.487A3.282,3.282,0,0,0,877.1,870.793Z" transform="translate(-709.661 -862.513)" fill="#2e3c4b"/>
          <path id="Path_2541" data-name="Path 2541" d="M885.125,867.387l-.087.61c-.174,0-.349-.087-.523-.087-1.22,0-2,.959-2,2.44v4.881h-.61v-7.757h.523l.087,1.569a2.328,2.328,0,0,1,2.179-1.743A.785.785,0,0,1,885.125,867.387Z" transform="translate(-711.15 -863.116)" fill="#2e3c4b"/>
          <path id="Path_2542" data-name="Path 2542" d="M893.588,874.734v.523H887.4v-.523l5.23-6.711h-4.968V867.5h5.665v.523l-5.143,6.711Z" transform="translate(-711.856 -863.142)" fill="#2e3c4b"/>
          <path id="Path_2543" data-name="Path 2543" d="M897.6,871.209h0c0,2.092,1.22,3.661,3.312,3.661a3.04,3.04,0,0,0,2.528-1.133l.436.349a4.263,4.263,0,0,1-3.051,1.22,3.869,3.869,0,0,1-3.922-4.184,3.762,3.762,0,0,1,3.748-3.922,3.534,3.534,0,0,1,3.574,3.574v.349H897.6Zm0-.523h6.014a2.867,2.867,0,0,0-2.964-2.876A3.12,3.12,0,0,0,897.6,870.686Z" transform="translate(-713.076 -863.103)" fill="#2e3c4b"/>
          <path id="Path_2544" data-name="Path 2544" d="M913.988,874.3v.523H907.8V874.3l5.23-6.711h-4.968v-.523h5.665v.523l-5.143,6.711Zm-3.661-9.588a.6.6,0,0,1,.61-.61.655.655,0,0,1,.61.61.6.6,0,0,1-.61.61A.734.734,0,0,1,910.328,864.71Z" transform="translate(-714.475 -862.705)" fill="#2e3c4b"/>
          <path id="Path_2545" data-name="Path 2545" d="M917.7,872.12V867.5h.61v4.62c0,1.743.872,2.789,2.528,2.789,1.569,0,2.528-1.046,2.528-2.789V867.5h.61v4.62c0,2.615-1.656,3.312-3.051,3.312C919.356,875.519,917.7,874.734,917.7,872.12Z" transform="translate(-715.746 -863.142)" fill="#2e3c4b"/>
        </g>
      </g>
      <g id="jastarnia" transform="translate(127.817 83.491)">
        <path id="Path_2024" d="M803.11,766.976c-3.486,0-7.757-.174-8.8-.7-.436-.261-.61-2.7-.61-7.409a56.49,56.49,0,0,1,.349-7.67l.349.087c-.436,1.046-.523,14.033.087,14.643,2.092,1.22,19.611.523,20.745.174a135.394,135.394,0,0,0,.174-14.643l.349-.087c.174.872.261,14.382-.261,14.9-.349.349-6.711.523-9.936.61A21.262,21.262,0,0,1,803.11,766.976Z" transform="translate(-785.953 -649.395)" fill="#2e3c4b"/>
        <path id="Path_2025" d="M812.5,737.969h-.349c0-.261.349-29.2,0-42.535s-.349-32.86-.349-33.034h.349c0,.174,0,19.7.349,33.034S812.5,737.621,812.5,737.969Z" transform="translate(-788.28 -637.995)" fill="#2e3c4b"/>
        <path id="Path_2026" d="M799.455,738.192h-.349c0-.087.349-10.459,0-24.231-.349-13.074-.872-49.944-.523-51.861l.349.087c-.349,1.743.174,37.044.523,51.774C799.8,727.646,799.455,738.018,799.455,738.192Z" transform="translate(-786.569 -637.956)" fill="#2e3c4b"/>
        <path id="Path_2027" d="M798.453,659.889c-.087-.523-.087-2.528-.174-4.62,0-1.656-.087-3.4-.087-4.445a56,56,0,0,1,.087-6.624l.349.087a54.541,54.541,0,0,0-.087,6.537c.087,1.133.087,2.789.087,4.532a43.446,43.446,0,0,0,.174,4.532Z" transform="translate(-786.526 -635.658)" fill="#2e3c4b"/>
        <path id="Path_2028" d="M812.049,659.876H811.7c.436-6.014.959-15.166.872-15.689l.349-.087C813.095,644.623,812.136,658.307,812.049,659.876Z" transform="translate(-788.268 -635.645)" fill="#2e3c4b"/>
        <path id="Path_2029" d="M809.781,663.161l-.087-.349c1.22-.523,3.312-1.395,3.486-1.918a45.956,45.956,0,0,0,.872-7.757c-1.307-.174-18.478,0-19.437.174-.261.61.174,6.8.261,7.322a23.038,23.038,0,0,0,3.225,1.743l-.174.349c-1.569-.7-3.4-1.569-3.486-2,0-.087-.784-7.322-.174-7.757.61-.349,19.7-.261,19.786-.174.7.261-.7,8.193-.7,8.193C813.18,661.766,810.391,662.9,809.781,663.161Z" transform="translate(-786 -636.751)" fill="#2e3c4b"/>
        <path id="Path_2030" d="M803.478,657.846c-2.7,0-8.716-.7-8.978-.7V656.8c.087,0,7.06.784,9.413.7.087,0,7.757-.61,10.111-.7v.349c-2.266.087-10.024.7-10.111.7Z" transform="translate(-786.059 -637.276)" fill="#2e3c4b"/>
        <path id="Path_2031" d="M803.129,662.42a31.574,31.574,0,0,1-4.968-.174c-2.179-.436-3.661-.7-3.661-.7l.087-.349s1.482.261,3.661.7a98.765,98.765,0,0,0,11.418.087c2.092-.087,3.661-.087,3.661-.087v.349s-1.569.087-3.661.087S805.134,662.42,803.129,662.42Z" transform="translate(-786.059 -637.841)" fill="#2e3c4b"/>
        <path id="Path_2032" d="M801.65,643.2c-2.092,0-4.445-.087-4.968-.436a.346.346,0,0,1-.087-.436c.349-1.482,6.1-7.845,7.757-7.932h0c.087,0,.261,0,3.922,3.748a47.381,47.381,0,0,1,3.922,4.358.163.163,0,0,1,0,.261c-.087.174-.261.261-4.445.261a30.035,30.035,0,0,0-3.138.087A24.742,24.742,0,0,1,801.65,643.2Zm2.7-8.455c-1.133.087-4.794,3.748-6.537,6.188-.959,1.307-.872,1.569-.872,1.569.7.349,5.84.349,7.757.261.61,0,1.83-.087,3.138-.087,1.482,0,3.4-.087,4.009-.087-.872-1.22-6.886-7.409-7.5-7.845Z" transform="translate(-786.324 -634.4)" fill="#2e3c4b"/>
        <path id="Path_2033" d="M805.888,716.476a2.452,2.452,0,0,1-2.092-1.133c-.261-.959,1.482-1.656,1.656-1.743h.087a1.567,1.567,0,0,1,.784.349,2.594,2.594,0,0,1,.523,1.917.663.663,0,0,1-.7.523A.675.675,0,0,1,805.888,716.476Zm-.349-2.528c-.436.174-1.569.7-1.395,1.22a1.985,1.985,0,0,0,1.83.872c.261,0,.349-.087.349-.261a2.185,2.185,0,0,0-.436-1.656c0-.087-.174-.174-.349-.174Z" transform="translate(-787.249 -644.568)" fill="#2e3c4b"/>
        <path id="Path_2034" d="M802.449,767.721H802.1c0-.349.174-7.845.436-8.629.087-.261.349-.436.959-.523,1.307-.261,4.445-.349,4.881.174s.784,6.973.872,8.978H808.9c-.174-3.138-.523-8.368-.784-8.8a10,10,0,0,0-4.62,0c-.523.174-.523.261-.523.261C802.71,759.7,802.536,765.019,802.449,767.721Z" transform="translate(-787.035 -650.315)" fill="#2e3c4b"/>
        <path id="Path_2035" d="M799.852,771.5c-4.532,0-6.973-.087-7.06-.349-.349-.61.959-2.44,1.395-3.051l.261.174a6.286,6.286,0,0,0-1.395,2.615c1.22.436,23.011.174,23.969-.261l.087-.087c0-.436-1.133-1.395-1.918-2l.174-.261c.349.261,2.092,1.569,2.092,2.266,0,.174-.087.349-.261.349-.7.349-11.854.523-12.377.523C802.989,771.5,801.333,771.5,799.852,771.5Z" transform="translate(-785.833 -651.565)" fill="#2e3c4b"/>
        <path id="Path_2036" d="M800.9,651.983c-.087-.523.61-6.8.61-7.583h.349c-.261,2.789-.7,7.06-.61,7.409Z" transform="translate(-786.88 -635.684)" fill="#2e3c4b"/>
        <path id="Path_2037" d="M806.049,651.883l-.349-.087c.087-.436,0-4.707,0-7.5h.349C806.049,644.91,806.136,651.273,806.049,651.883Z" transform="translate(-787.497 -635.671)" fill="#2e3c4b"/>
        <path id="Path_2038" d="M810.146,651.883l-.349-.087c.087-.349-.349-4.794-.7-7.5h.349C809.536,645.433,810.233,651.36,810.146,651.883Z" transform="translate(-787.934 -635.671)" fill="#2e3c4b"/>
        <path id="Path_2039" d="M808.766,751.47c-7.06,0-16.212-.174-16.735-.523-.261-.174-.436-.349-.436-.61a1.073,1.073,0,0,1,.174-.872c.261-.523,2.7-.523,7.932-.436h2.7c.523,0,1.83-.087,3.312-.174,6.711-.261,10.2-.436,10.547-.174a2.714,2.714,0,0,1,.959,1.656.7.7,0,0,1-.261.785C816.7,751.383,813.124,751.47,808.766,751.47Zm-16.735-1.743a.716.716,0,0,0-.087.61.87.87,0,0,0,.349.436c.872.436,23.534.7,24.492.261a.383.383,0,0,0,.087-.436,2.264,2.264,0,0,0-.784-1.395c-.436-.174-6.886.087-10.372.261-1.569.087-2.789.087-3.312.174s-1.569,0-2.7,0c-2.615-.261-7.322-.349-7.67.087Z" transform="translate(-785.682 -649.055)" fill="#2e3c4b"/>
        <rect id="Rectangle_204" width="3.661" height="0.349" transform="translate(30.324 7.272) rotate(-24.581)" fill="#2e3c4b"/>
        <path id="Path_2040" d="M820.9,646.71v-.349l4.358-.261v.349Z" transform="translate(-789.449 -635.902)" fill="#2e3c4b"/>
        <rect id="Rectangle_205" width="0.349" height="2.876" transform="translate(30.894 13.478) rotate(-63.678)" fill="#2e3c4b"/>
        <rect id="Rectangle_206" width="0.349" height="3.748" transform="translate(1.519 5.808) rotate(-69.146)" fill="#2e3c4b"/>
        <rect id="Rectangle_207" width="0.349" height="3.748" transform="translate(0 10.367) rotate(-86.56)" fill="#2e3c4b"/>
        <rect id="Rectangle_208" width="3.225" height="0.349" transform="translate(0.833 15.37) rotate(-24.766)" fill="#2e3c4b"/>
      </g>
      <path id="Path_2041" d="M806.609,706.436c-3.4,0-7.322-.087-7.409-.087V706c.087,0,8.891.087,11.505,0v.349C809.834,706.436,808.265,706.436,806.609,706.436Z" transform="translate(-658.846 -560.101)" fill="#2e3c4b"/>
      <path id="Path_2042" d="M807.457,729.236c-3.312,0-7.5-.087-7.757-.087V728.8c.087,0,9.936.174,11.331,0l.087.349C810.6,729.149,809.113,729.236,807.457,729.236Z" transform="translate(-658.91 -563.028)" fill="#2e3c4b"/>
      <path id="Path_2043" d="M806.745,683.536c-3.312,0-7.583-.087-7.845-.087V683.1c.087,0,9.936.174,11.593,0v.349C809.969,683.536,808.488,683.536,806.745,683.536Z" transform="translate(-658.808 -557.161)" fill="#2e3c4b"/>
      <path id="Path_2044" d="M842.851,754.489H842.5V636.472l-2.44,2.615-.261-.261,2.876-3.225.087.087.087-.087v.174l2.789,3.138-.261.261-2.528-2.876Z" transform="translate(-664.058 -551.063)" fill="#2e3c4b"/>
      <path id="Path_2045" d="M842.766,772.2l-2.266-3.922.261-.174,2,3.486,2.615-3.486.261.174Z" transform="translate(-664.148 -568.074)" fill="#2e3c4b"/>
      <g id="Group_295" transform="translate(183.15 128.815)">
        <path id="Path_2046" d="M850.915,700.869l-.087-8.629c0-1.482-.087-2.964-.174-4.445a2.546,2.546,0,0,0-.174-.784l-1.83,4.358-.349-.174,2-4.794.174.087A1.406,1.406,0,0,1,851,687.62a37.906,37.906,0,0,1,.174,4.445l.087,8.629Z" transform="translate(-848.3 -686.4)" fill="#2e3c4b"/>
        <path id="Path_2047" d="M857.4,701.792a37.414,37.414,0,0,1,1.046-8.8c.087-.261.174-.61.261-.872a15.28,15.28,0,0,0,.7-4.445.308.308,0,0,0-.349-.349L854,687.149V686.8l5.055.174a.616.616,0,0,1,.7.7,13.322,13.322,0,0,1-.7,4.532c-.087.261-.174.61-.261.872a36.69,36.69,0,0,0-1.046,8.716H857.4Z" transform="translate(-849.032 -686.451)" fill="#2e3c4b"/>
        <path id="Path_2048" d="M856,695.784v-.349c1.569-.087,3.051-.261,4.532-.436l.087.349C859.051,695.523,857.569,695.7,856,695.784Z" transform="translate(-849.289 -687.504)" fill="#2e3c4b"/>
        <path id="Path_2049" d="M866.259,702.589l-.959-6.1.349-.087.7,4.62a14.8,14.8,0,0,1,1.569-3.835c.087-.087.174-.261.261-.261.261-.087.523.087.61.436a23.027,23.027,0,0,1,1.046,3.486,12.367,12.367,0,0,0,.872-2.528v-.087a5.636,5.636,0,0,1,.349-1.133c.087-.174.174-.261.349-.261.261-.087.523.087.7.436a8.525,8.525,0,0,1,1.395,4.1h-.349a7.9,7.9,0,0,0-1.395-3.922.467.467,0,0,0-.349-.261c-.087,0-.087.087-.174.174a3.124,3.124,0,0,0-.349.959v.087a15.124,15.124,0,0,1-1.133,3.138l-.261.436-.087-.523a22.162,22.162,0,0,0-1.133-3.922,1.077,1.077,0,0,0-.174-.261l-.087.087c-.784,1.482-1.743,3.312-1.656,5.143Z" transform="translate(-850.482 -687.684)" fill="#2e3c4b"/>
      </g>
    </g>
  </g>
</svg>
