<svg xmlns="http://www.w3.org/2000/svg" width="302.926" height="324.909" viewBox="0 0 302.926 324.909">
  <g id="Group_353" transform="translate(-577.473 -524.911)">
    <g id="CIEKAWOSTKA" transform="translate(577.473 524.911)">
      <path id="Path_1283" d="M589.8,540.089c18.592-23.218,262.988-17.02,276.866,0s20.075,270.844,4.888,291.7S603.944,855.71,589.8,839.388,571.212,563.307,589.8,540.089Z" transform="translate(-577.473 -524.911)" fill="#e5a34c"/>
      <g id="CIEKAWOSTKA-2" transform="translate(87.57 25.39)">
        <g id="Group_446" data-name="Group 446">
          <path id="Path_2546" data-name="Path 2546" d="M681.815,566.569a6.419,6.419,0,0,1-3.491-3.491,5.969,5.969,0,0,1-.524-2.531,6.262,6.262,0,0,1,.524-2.531,6.419,6.419,0,0,1,3.491-3.491,6.135,6.135,0,0,1,5.15.087,6.585,6.585,0,0,1,2.269,1.833l-1.309,1.135a4.749,4.749,0,0,0-3.753-1.833,4.35,4.35,0,0,0-3.317,1.4,5.733,5.733,0,0,0-1.047,1.484,4.048,4.048,0,0,0-.349,1.833,4.292,4.292,0,0,0,.349,1.833,4.563,4.563,0,0,0,1.047,1.484,5.732,5.732,0,0,0,1.484,1.047,4.293,4.293,0,0,0,1.833.349,4.876,4.876,0,0,0,3.753-1.833l1.309,1.135a7.834,7.834,0,0,1-2.357,1.833,5.849,5.849,0,0,1-2.706.611A5.541,5.541,0,0,1,681.815,566.569Z" transform="translate(-677.8 -554)" fill="#2e3c4b"/>
          <path id="Path_2547" data-name="Path 2547" d="M693.5,566.944V554.2h1.571v12.744Z" transform="translate(-679.796 -554.025)" fill="#2e3c4b"/>
          <path id="Path_2548" data-name="Path 2548" d="M698.1,566.944V554.2h6.983v1.746h-5.324v3.841h3.579v1.571h-3.579V565.2h5.324v1.746H698.1Z" transform="translate(-680.381 -554.025)" fill="#2e3c4b"/>
          <path id="Path_2549" data-name="Path 2549" d="M714.661,566.944l-4.1-4.713v4.713H708.9V554.2h1.658v4.888l4.015-4.888h2.269l-5.412,6.459,5.5,6.284h-2.269Z" transform="translate(-681.755 -554.025)" fill="#2e3c4b"/>
          <path id="Path_2550" data-name="Path 2550" d="M728.29,566.944l-1.571-4.451H722.7l-1.571,4.451H719.3l4.451-12.744h1.92l4.451,12.744Zm-3.579-10.212-1.484,4.19h2.88Z" transform="translate(-683.077 -554.025)" fill="#2e3c4b"/>
          <path id="Path_2551" data-name="Path 2551" d="M742.945,566.931H741.2l-2.008-5.412-1.92,5.412h-1.746L730.9,554.1h1.833l3.579,10.038,1.833-5.237-1.746-4.8h1.833l1.658,4.713,1.92,5.324L745.3,554.1h1.833Z" transform="translate(-684.552 -554.013)" fill="#2e3c4b"/>
          <path id="Path_2552" data-name="Path 2552" d="M754.928,566.594a5.536,5.536,0,0,1-2.008-1.4,6.772,6.772,0,0,1-1.4-2.095,5.965,5.965,0,0,1,0-4.888,6.773,6.773,0,0,1,1.4-2.095,7.573,7.573,0,0,1,2.008-1.4,5.965,5.965,0,0,1,4.888,0,6.418,6.418,0,0,1,3.491,3.491,5.965,5.965,0,0,1,0,4.888,6.419,6.419,0,0,1-3.491,3.491,5.858,5.858,0,0,1-2.444.524A7.643,7.643,0,0,1,754.928,566.594Zm.611-10.3a4.565,4.565,0,0,0-1.484,1.047,5.733,5.733,0,0,0-1.047,1.484,4.293,4.293,0,0,0-.349,1.833,4.556,4.556,0,0,0,.349,1.833,6.213,6.213,0,0,0,.96,1.484,5.732,5.732,0,0,0,1.484,1.047,4.293,4.293,0,0,0,1.833.349,4.35,4.35,0,0,0,3.317-1.4,3.942,3.942,0,0,0,.96-1.484,4.556,4.556,0,0,0-1.047-5.15,5.733,5.733,0,0,0-1.484-1.047,4.049,4.049,0,0,0-1.833-.349A7.071,7.071,0,0,0,755.539,556.295Z" transform="translate(-687.108 -554.025)" fill="#2e3c4b"/>
          <path id="Path_2553" data-name="Path 2553" d="M774.134,556.893a2.476,2.476,0,0,0-.873-.786,2.915,2.915,0,0,0-1.309-.262,2.556,2.556,0,0,0-1.833.524,1.919,1.919,0,0,0-.524,1.484,2.581,2.581,0,0,0,.175.873.894.894,0,0,0,.436.524,4.313,4.313,0,0,0,1.484.436q1.047.131,1.833.262a10.173,10.173,0,0,1,1.309.524,2.99,2.99,0,0,1,1.4,2.793,3.617,3.617,0,0,1-.262,1.4,3.32,3.32,0,0,1-.786,1.135,3.2,3.2,0,0,1-1.484.873,5.628,5.628,0,0,1-1.746.262,4.3,4.3,0,0,1-3.23-1.135A4.157,4.157,0,0,1,767.5,563h1.658a2.167,2.167,0,0,0,.7,1.484,2.945,2.945,0,0,0,2.008.7,3.136,3.136,0,0,0,1.92-.524,1.822,1.822,0,0,0,.7-1.4,1.7,1.7,0,0,0-.087-.7,1.163,1.163,0,0,0-.436-.524,4.643,4.643,0,0,0-2.444-.611,4.5,4.5,0,0,1-2.793-1.047,3.492,3.492,0,0,1-.96-2.531,3.617,3.617,0,0,1,1.047-2.706,4.107,4.107,0,0,1,2.968-1.047,4.275,4.275,0,0,1,3.142,1.222,5.483,5.483,0,0,1,1.222,2.793H774.4A1.826,1.826,0,0,0,774.134,556.893Z" transform="translate(-689.206 -554.013)" fill="#2e3c4b"/>
          <path id="Path_2554" data-name="Path 2554" d="M783.613,555.858v11.172h-1.658V555.858H778.9V554.2h7.856v1.658Z" transform="translate(-690.655 -554.025)" fill="#2e3c4b"/>
          <path id="Path_2555" data-name="Path 2555" d="M796.161,566.944l-4.1-4.713v4.713H790.4V554.2h1.658v4.888l4.015-4.888h2.269l-5.412,6.459,5.5,6.284h-2.269Z" transform="translate(-692.118 -554.025)" fill="#2e3c4b"/>
          <path id="Path_2556" data-name="Path 2556" d="M809.79,566.944l-1.571-4.451H804.2l-1.571,4.451H800.8l4.451-12.744h1.92l4.451,12.744Zm-3.579-10.212-1.484,4.19h2.88Z" transform="translate(-693.44 -554.025)" fill="#2e3c4b"/>
        </g>
      </g>
      <rect id="Rectangle_45" width="10.911" height="2.182" transform="translate(140.726 45.291)" fill="#ae4426"/>
      <g id="Group_181" transform="translate(67.745 63.837)">
        <path id="Path_1327" d="M666.009,639.117c4.8-13.18,16.148-40.325,38.143-40.762s82.309-2.619,97.671,15.8,18.068,32.732,15.8,61.71-10.038,45.824-19.2,61.186-48.268,27.233-83.357,25.924S654.487,740.8,655.1,712.349s12.918-32.3,10.823-44.6S661.208,652.3,666.009,639.117Z" transform="translate(-655.088 -598.048)" fill="#f2edeb"/>
      </g>
      <g id="Group_447" data-name="Group 447" transform="translate(55.886 240.808)">
        <path id="Path_2557" data-name="Path 2557" d="M647.7,804.742a3.209,3.209,0,0,1-3.491,3.142h-2.095v5.15H641.5V801.6h2.706C645.951,801.687,647.7,802.647,647.7,804.742Zm-.7,0c0-1.658-1.222-2.619-3.055-2.619h-1.833v5.15h1.833C645.777,807.361,647,806.488,647,804.742Z" transform="translate(-641.5 -800.902)" fill="#2e3c4b"/>
        <path id="Path_2558" data-name="Path 2558" d="M654.93,805.687l-.087.611c-.175,0-.349-.087-.524-.087-1.222,0-2.008.96-2.008,2.444v4.888H651.7v-7.768h.524l.087,1.571a2.331,2.331,0,0,1,2.182-1.746A.786.786,0,0,1,654.93,805.687Z" transform="translate(-642.797 -801.41)" fill="#2e3c4b"/>
        <path id="Path_2559" data-name="Path 2559" d="M663.4,813.045v.524h-6.2v-.524l5.237-6.721h-4.975V805.8h5.674v.524l-5.15,6.721Z" transform="translate(-643.496 -801.436)" fill="#2e3c4b"/>
        <path id="Path_2560" data-name="Path 2560" d="M673.332,805.9l-5.062,11.522h-.7l1.746-3.928L666,805.987h.7l2.88,6.9,2.968-6.9h.786Z" transform="translate(-644.615 -801.448)" fill="#2e3c4b"/>
        <path id="Path_2561" data-name="Path 2561" d="M682.7,800.9h.611v12.133H682.7Z" transform="translate(-646.739 -800.813)" fill="#2e3c4b"/>
        <path id="Path_2562" data-name="Path 2562" d="M693.994,805.862v7.768h-.524l-.087-2.008a3.434,3.434,0,0,1-3.23,2.095A3.792,3.792,0,0,1,686.4,809.7a3.857,3.857,0,0,1,3.666-4.1,3.48,3.48,0,0,1,3.229,2.095l.087-1.92h.611Zm-.611,3.841a3.2,3.2,0,1,0-6.372,0,3.341,3.341,0,0,0,3.23,3.491A3.273,3.273,0,0,0,693.383,809.7Z" transform="translate(-647.209 -801.41)" fill="#2e3c4b"/>
        <path id="Path_2563" data-name="Path 2563" d="M701.753,805.98h-2.008v7.245h-.611V805.98H698v-.524h1.135V803.1h.611v2.357h2.008Z" transform="translate(-648.684 -801.093)" fill="#2e3c4b"/>
        <path id="Path_2564" data-name="Path 2564" d="M711.694,805.862v7.768h-.524l-.087-2.008a3.434,3.434,0,0,1-3.23,2.095A3.792,3.792,0,0,1,704.1,809.7a3.857,3.857,0,0,1,3.666-4.1,3.48,3.48,0,0,1,3.23,2.095l.087-1.92h.611Zm-.524,3.841a3.2,3.2,0,1,0-6.372,0,3.2,3.2,0,1,0,6.372,0Z" transform="translate(-649.46 -801.41)" fill="#2e3c4b"/>
        <path id="Path_2565" data-name="Path 2565" d="M719.53,805.687l-.087.611c-.175,0-.349-.087-.524-.087-1.222,0-2.008.96-2.008,2.444v4.888H716.3v-7.768h.524l.087,1.571a2.331,2.331,0,0,1,2.182-1.746A.787.787,0,0,1,719.53,805.687Z" transform="translate(-651.011 -801.41)" fill="#2e3c4b"/>
        <path id="Path_2566" data-name="Path 2566" d="M728.484,808.991v4.539h-.611v-4.451c0-2.008-1.047-2.968-2.444-2.968a2.641,2.641,0,0,0-2.619,2.706v4.713H722.2v-7.768h.524l.087,1.658a2.833,2.833,0,0,1,2.706-1.92C726.913,805.587,728.484,806.286,728.484,808.991Z" transform="translate(-651.761 -801.398)" fill="#2e3c4b"/>
        <path id="Path_2567" data-name="Path 2567" d="M732.7,802.811a.611.611,0,1,1,.611.611A.6.6,0,0,1,732.7,802.811Zm.262,2.619h.611V813.2h-.611Z" transform="translate(-653.096 -800.978)" fill="#2e3c4b"/>
        <path id="Path_2568" data-name="Path 2568" d="M753.547,805.9l-2.968,7.768h-.524l-2.182-6.983-2.182,6.983h-.524L742.2,805.9h.7l2.531,6.983,2.182-6.983h.524l2.182,6.9,2.531-6.9Z" transform="translate(-654.304 -801.448)" fill="#2e3c4b"/>
        <path id="Path_2569" data-name="Path 2569" d="M773.365,801.7v11.434h-.611l-7.943-10.387v10.387H764.2V801.7h.611l7.943,10.387V801.7Z" transform="translate(-657.102 -800.914)" fill="#2e3c4b"/>
        <path id="Path_2570" data-name="Path 2570" d="M778.5,802.811a.611.611,0,1,1,.611.611A.6.6,0,0,1,778.5,802.811Zm.262,2.619h.611V813.2h-.611Z" transform="translate(-658.92 -800.978)" fill="#2e3c4b"/>
        <path id="Path_2571" data-name="Path 2571" d="M783.3,809.515h0c0,2.095,1.222,3.666,3.317,3.666a3.044,3.044,0,0,0,2.531-1.135l.436.349a4.268,4.268,0,0,1-3.055,1.222,3.875,3.875,0,0,1-3.928-4.19,3.767,3.767,0,0,1,3.753-3.928,3.539,3.539,0,0,1,3.579,3.579v.349H783.3Zm.087-.524h6.023a2.871,2.871,0,0,0-2.968-2.88A3.124,3.124,0,0,0,783.386,808.991Z" transform="translate(-659.442 -801.398)" fill="#2e3c4b"/>
        <path id="Path_2572" data-name="Path 2572" d="M793.5,809.615a3.877,3.877,0,0,1,3.928-4.015,4.224,4.224,0,0,1,2.531.873l-.349.436a2.831,2.831,0,0,0-2.095-.786,3.3,3.3,0,0,0-3.317,3.491,3.208,3.208,0,0,0,3.317,3.491,2.831,2.831,0,0,0,2.095-.786l.349.436a4.224,4.224,0,0,1-2.531.873A3.78,3.78,0,0,1,793.5,809.615Z" transform="translate(-660.828 -801.41)" fill="#2e3c4b"/>
        <path id="Path_2573" data-name="Path 2573" d="M809.784,808.394v4.539h-.611v-4.451c0-2.008-.96-2.968-2.444-2.968s-2.531,1.135-2.619,2.968v4.451H803.5V800.8h.611v6.023a2.833,2.833,0,0,1,2.706-1.92C808.213,804.99,809.784,805.688,809.784,808.394Z" transform="translate(-662.099 -800.8)" fill="#2e3c4b"/>
        <path id="Path_2574" data-name="Path 2574" d="M813.6,809.7a4.024,4.024,0,0,1,4.015-4.1,4.059,4.059,0,0,1,0,8.117A3.9,3.9,0,0,1,813.6,809.7Zm7.419,0a3.405,3.405,0,1,0-3.4,3.491A3.374,3.374,0,0,0,821.019,809.7Z" transform="translate(-663.383 -801.41)" fill="#2e3c4b"/>
        <path id="Path_2575" data-name="Path 2575" d="M829.13,805.687l-.087.611c-.175,0-.349-.087-.524-.087-1.222,0-2.008.96-2.008,2.444v4.888H825.9v-7.768h.524l.087,1.571a2.331,2.331,0,0,1,2.182-1.746A.948.948,0,0,1,829.13,805.687Z" transform="translate(-664.947 -801.41)" fill="#2e3c4b"/>
        <path id="Path_2576" data-name="Path 2576" d="M837.6,813.045v.524h-6.2v-.524l5.237-6.721h-4.975V805.8h5.674v.524l-5.15,6.721Z" transform="translate(-665.647 -801.436)" fill="#2e3c4b"/>
        <path id="Path_2577" data-name="Path 2577" d="M841.3,810.426V805.8h.611v4.626c0,1.746.873,2.793,2.531,2.793,1.571,0,2.531-1.047,2.531-2.793V805.8h.611v4.626c0,2.619-1.658,3.317-3.055,3.317C842.958,813.83,841.3,813.045,841.3,810.426Z" transform="translate(-666.906 -801.436)" fill="#2e3c4b"/>
      </g>
      <g id="Group_448" data-name="Group 448" transform="translate(78.056 261.757)">
        <path id="Path_2578" data-name="Path 2578" d="M677.636,833.016v4.626h-.611v-4.626c0-1.746-.7-2.793-2.182-2.793-1.309,0-2.182,1.047-2.269,2.88v4.539h-.611v-4.713c0-1.571-.786-2.706-2.182-2.706-1.222,0-2.095,1.047-2.269,2.793v4.626H666.9v-7.768h.524l.087,1.658a2.486,2.486,0,0,1,2.444-1.833,2.66,2.66,0,0,1,2.531,2.008A2.54,2.54,0,0,1,675.1,829.7C676.152,829.612,677.636,830.31,677.636,833.016Z" transform="translate(-666.9 -825.422)" fill="#2e3c4b"/>
        <path id="Path_2579" data-name="Path 2579" d="M682,833.7a4.016,4.016,0,1,1,8.03,0,4.015,4.015,0,0,1-8.03,0Zm7.419,0a3.405,3.405,0,1,0-3.4,3.491A3.374,3.374,0,0,0,689.419,833.7Z" transform="translate(-668.82 -825.41)" fill="#2e3c4b"/>
        <path id="Path_2580" data-name="Path 2580" d="M699.9,836.612v.524h-6.2v-.524l5.237-6.721h-4.975v-.524h5.673v.524l-5.15,6.721Zm-3.666-9.6a.6.6,0,0,1,.611-.611.656.656,0,0,1,.611.611.6.6,0,0,1-.611.611A.735.735,0,0,1,696.231,827.011Z" transform="translate(-670.308 -825.004)" fill="#2e3c4b"/>
        <path id="Path_2581" data-name="Path 2581" d="M709.885,832.991v4.539h-.611v-4.451c0-2.008-1.047-2.968-2.444-2.968a2.641,2.641,0,0,0-2.619,2.706v4.713H703.6v-7.768h.524l.087,1.658a2.833,2.833,0,0,1,2.706-1.92C708.4,829.587,709.885,830.286,709.885,832.991Z" transform="translate(-671.567 -825.398)" fill="#2e3c4b"/>
        <path id="Path_2582" data-name="Path 2582" d="M721.294,829.862v7.768h-.524l-.087-2.008a3.434,3.434,0,0,1-3.23,2.095A3.792,3.792,0,0,1,713.7,833.7a3.857,3.857,0,0,1,3.666-4.1,3.48,3.48,0,0,1,3.23,2.095l.087-1.92h.611Zm-.611,3.84a3.2,3.2,0,1,0-6.372,0,3.341,3.341,0,0,0,3.23,3.491A3.273,3.273,0,0,0,720.683,833.7Z" transform="translate(-672.851 -825.411)" fill="#2e3c4b"/>
        <path id="Path_2583" data-name="Path 2583" d="M731.1,833.7a4.016,4.016,0,1,1,8.03,0,4.015,4.015,0,1,1-8.03,0Zm7.419,0a3.405,3.405,0,1,0-3.4,3.491A3.374,3.374,0,0,0,738.519,833.7Z" transform="translate(-675.063 -825.41)" fill="#2e3c4b"/>
        <path id="Path_2584" data-name="Path 2584" d="M750.294,824.887V837.02h-.524l-.087-2.008a3.434,3.434,0,0,1-3.23,2.095,3.792,3.792,0,0,1-3.753-4.015,3.857,3.857,0,0,1,3.666-4.1,3.573,3.573,0,0,1,3.23,2.095V824.8h.7Zm-.524,8.2a3.2,3.2,0,1,0-6.372,0,3.341,3.341,0,0,0,3.23,3.491A3.273,3.273,0,0,0,749.77,833.092Z" transform="translate(-676.538 -824.8)" fill="#2e3c4b"/>
        <path id="Path_2585" data-name="Path 2585" d="M765.147,829.9l-2.968,7.768h-.524l-2.182-6.983-2.182,6.983h-.524L753.8,829.9h.7l2.531,6.983,2.182-6.983h.524l2.182,6.9,2.531-6.9Z" transform="translate(-677.95 -825.449)" fill="#2e3c4b"/>
        <path id="Path_2586" data-name="Path 2586" d="M769.3,826.811a.611.611,0,1,1,.611.611A.6.6,0,0,1,769.3,826.811Zm.175,2.619h.611V837.2h-.611Z" transform="translate(-679.921 -824.978)" fill="#2e3c4b"/>
        <path id="Path_2587" data-name="Path 2587" d="M774.1,833.515h0c0,2.095,1.222,3.666,3.317,3.666a3.044,3.044,0,0,0,2.531-1.135l.436.349a4.268,4.268,0,0,1-3.055,1.222,3.875,3.875,0,0,1-3.928-4.19,3.767,3.767,0,0,1,3.753-3.928,3.539,3.539,0,0,1,3.579,3.579v.349H774.1Zm.087-.524h6.023a2.871,2.871,0,0,0-2.968-2.88A3.062,3.062,0,0,0,774.186,832.991Z" transform="translate(-680.442 -825.398)" fill="#2e3c4b"/>
        <path id="Path_2588" data-name="Path 2588" d="M791.894,824.887V837.02h-.524l-.087-2.008a3.434,3.434,0,0,1-3.229,2.095,3.792,3.792,0,0,1-3.753-4.015,3.857,3.857,0,0,1,3.666-4.1,3.573,3.573,0,0,1,3.23,2.095V824.8h.7Zm-.524,8.2a3.2,3.2,0,1,0-6.372,0,3.2,3.2,0,1,0,6.372,0Z" transform="translate(-681.828 -824.8)" fill="#2e3c4b"/>
        <path id="Path_2589" data-name="Path 2589" d="M802.1,837.045v.524h-6.2v-.524l5.237-6.721h-4.975V829.8h5.674v.524l-5.15,6.721Z" transform="translate(-683.303 -825.436)" fill="#2e3c4b"/>
        <path id="Path_2590" data-name="Path 2590" d="M805.9,826.811a.611.611,0,1,1,.611.611A.6.6,0,0,1,805.9,826.811Zm.262,2.619h.611V837.2h-.611Z" transform="translate(-684.575 -824.978)" fill="#2e3c4b"/>
        <path id="Path_2591" data-name="Path 2591" d="M810.1,833.068a3.877,3.877,0,0,1,3.928-4.015,4.224,4.224,0,0,1,2.531.873l-.349.436a2.831,2.831,0,0,0-2.095-.786,3.3,3.3,0,0,0-3.317,3.491,3.208,3.208,0,0,0,3.317,3.491,2.831,2.831,0,0,0,2.095-.786l.349.436a4.224,4.224,0,0,1-2.531.873A3.734,3.734,0,0,1,810.1,833.068Zm2.793-5.237h-.262L814.9,825.3l.611.087-1.833,1.833C813.33,827.744,813.155,827.831,812.893,827.831Z" transform="translate(-685.109 -824.864)" fill="#2e3c4b"/>
      </g>
      <g id="Group_449" data-name="Group 449" transform="translate(19.75 282.705)">
        <path id="Path_2592" data-name="Path 2592" d="M608.217,853.279a3.654,3.654,0,0,1-3.841,3.579h-2.008v4.277H600.1V849.7h4.277A3.6,3.6,0,0,1,608.217,853.279Zm-2.357,0c0-1.222-.786-1.833-2.269-1.833h-1.309v3.666h1.309C605.075,855.112,605.861,854.413,605.861,853.279Z" transform="translate(-600.1 -848.914)" fill="#2e3c4b"/>
        <path id="Path_2593" data-name="Path 2593" d="M619.467,853.375v8.2h-1.746l-.262-1.047a3.209,3.209,0,0,1-2.706,1.222c-2.095,0-3.753-1.571-3.753-4.277s1.658-4.277,3.753-4.277a3.462,3.462,0,0,1,2.706,1.222l.262-1.047Zm-1.92,4.015a2.244,2.244,0,1,0-2.269,2.531A2.276,2.276,0,0,0,617.546,857.39Z" transform="translate(-601.486 -849.36)" fill="#2e3c4b"/>
        <path id="Path_2594" data-name="Path 2594" d="M628.837,853.282l-.349,2.008a2.167,2.167,0,0,0-.786-.087c-1.222,0-2.008.873-2.008,2.357v4.015H623.6v-8.2h1.833l.262,1.135a2.648,2.648,0,0,1,2.182-1.309A1.452,1.452,0,0,1,628.837,853.282Z" transform="translate(-603.088 -849.354)" fill="#2e3c4b"/>
        <path id="Path_2595" data-name="Path 2595" d="M636.912,860.933l-3.317-3.753v3.753H631.5V848.8h2.095v6.983l2.88-3.055h2.706l-3.666,3.753,4.19,4.452Z" transform="translate(-604.093 -848.8)" fill="#2e3c4b"/>
        <path id="Path_2596" data-name="Path 2596" d="M660.358,849.7v11.434h-2.182v-7.856l-3.841,5.063-3.753-5.062v7.856H648.4V849.7h2.008l3.928,5.586,3.928-5.586Z" transform="translate(-606.242 -848.914)" fill="#2e3c4b"/>
        <path id="Path_2597" data-name="Path 2597" d="M665.3,850.222A1.248,1.248,0,0,1,666.522,849a1.193,1.193,0,0,1,1.222,1.222,1.222,1.222,0,0,1-2.444,0Zm.262,2.619h2.095v8.2h-2.095Z" transform="translate(-608.391 -848.826)" fill="#2e3c4b"/>
        <path id="Path_2598" data-name="Path 2598" d="M678.881,856.429v5.062h-2.095v-4.539c0-1.222-.524-2.008-1.658-2.008a1.815,1.815,0,0,0-1.833,1.833v4.8H671.2v-8.2h1.833l.262.96a3.044,3.044,0,0,1,2.531-1.135C677.31,853.112,678.881,853.9,678.881,856.429Z" transform="translate(-609.141 -849.359)" fill="#2e3c4b"/>
        <path id="Path_2599" data-name="Path 2599" d="M682.9,850.222A1.248,1.248,0,0,1,684.122,849a1.193,1.193,0,0,1,1.222,1.222,1.248,1.248,0,0,1-1.222,1.222A1.193,1.193,0,0,1,682.9,850.222Zm.175,2.619h2.095v8.2h-2.095Z" transform="translate(-610.628 -848.826)" fill="#2e3c4b"/>
        <path id="Path_2600" data-name="Path 2600" d="M696.867,853.375v8.2h-1.746l-.262-1.047a3.209,3.209,0,0,1-2.706,1.222c-2.095,0-3.753-1.571-3.753-4.277s1.658-4.277,3.753-4.277a3.462,3.462,0,0,1,2.706,1.222l.262-1.047Zm-1.92,4.015a2.244,2.244,0,1,0-2.269,2.531A2.276,2.276,0,0,0,694.946,857.39Z" transform="translate(-611.328 -849.36)" fill="#2e3c4b"/>
        <path id="Path_2601" data-name="Path 2601" d="M705.924,854.615h-2.008v6.546h-2.095v-6.546H700.6v-1.658h1.222V850.6h2.095v2.357h2.008Z" transform="translate(-612.879 -849.029)" fill="#2e3c4b"/>
        <path id="Path_2602" data-name="Path 2602" d="M708.9,857.939V853.4h2.095v4.626c0,1.222.611,2.008,1.658,2.008,1.135,0,1.746-.786,1.746-2.008V853.4h2.095v4.539c0,3.055-1.92,3.841-3.841,3.841C710.82,861.779,708.9,860.994,708.9,857.939Z" transform="translate(-613.935 -849.385)" fill="#2e3c4b"/>
        <path id="Path_2603" data-name="Path 2603" d="M725.737,853.282l-.349,2.008a2.167,2.167,0,0,0-.786-.087c-1.222,0-2.008.873-2.008,2.357v4.015H720.5v-8.2h1.833l.262,1.135a2.648,2.648,0,0,1,2.182-1.309A1.646,1.646,0,0,1,725.737,853.282Z" transform="translate(-615.409 -849.354)" fill="#2e3c4b"/>
      </g>
      <g id="Group_450" data-name="Group 450" transform="translate(136.886 282.705)">
        <path id="Path_2604" data-name="Path 2604" d="M741.2,859.114v1.92h-6.9V849.6h2.269v9.514H741.2Z" transform="translate(-734.3 -848.902)" fill="#2e3c4b"/>
        <path id="Path_2605" data-name="Path 2605" d="M752.367,853.375v8.2h-1.746l-.262-1.047a3.209,3.209,0,0,1-2.706,1.222c-2.095,0-3.753-1.571-3.753-4.277s1.658-4.277,3.753-4.277a3.462,3.462,0,0,1,2.706,1.222l.262-1.047Zm-2.008,4.015a2.244,2.244,0,1,0-2.269,2.531A2.276,2.276,0,0,0,750.359,857.39Z" transform="translate(-735.521 -849.36)" fill="#2e3c4b"/>
        <path id="Path_2606" data-name="Path 2606" d="M761.412,854.615H759.4v6.546h-2.095v-6.546H756v-1.658h1.222V850.6h2.095v2.357h2.008v1.658Z" transform="translate(-737.059 -849.029)" fill="#2e3c4b"/>
        <path id="Path_2607" data-name="Path 2607" d="M772.167,853.375v8.2h-1.746l-.262-1.047a3.209,3.209,0,0,1-2.706,1.222c-2.095,0-3.753-1.571-3.753-4.277s1.658-4.277,3.753-4.277a3.462,3.462,0,0,1,2.706,1.222l.262-1.047Zm-1.92,4.015a2.244,2.244,0,1,0-2.269,2.531A2.276,2.276,0,0,0,770.246,857.39Z" transform="translate(-738.038 -849.36)" fill="#2e3c4b"/>
        <path id="Path_2608" data-name="Path 2608" d="M781.537,853.282l-.349,2.008a2.167,2.167,0,0,0-.786-.087c-1.222,0-2.008.873-2.008,2.357v4.015H776.3v-8.2h1.833l.262,1.135a2.648,2.648,0,0,1,2.182-1.309A1.551,1.551,0,0,1,781.537,853.282Z" transform="translate(-739.641 -849.354)" fill="#2e3c4b"/>
        <path id="Path_2609" data-name="Path 2609" d="M791.781,856.429v5.062h-2.095v-4.539c0-1.222-.524-2.008-1.658-2.008a1.815,1.815,0,0,0-1.833,1.833v4.8H784.1v-8.2h1.833l.262.96a3.044,3.044,0,0,1,2.531-1.135C790.123,853.112,791.781,853.9,791.781,856.429Z" transform="translate(-740.632 -849.359)" fill="#2e3c4b"/>
        <path id="Path_2610" data-name="Path 2610" d="M795.7,850.222A1.248,1.248,0,0,1,796.922,849a1.193,1.193,0,0,1,1.222,1.222,1.222,1.222,0,0,1-2.444,0Zm.262,2.619h2.095v8.2h-2.095Z" transform="translate(-742.107 -848.826)" fill="#2e3c4b"/>
        <path id="Path_2611" data-name="Path 2611" d="M819.458,849.7v11.434h-2.182v-7.856l-3.841,5.063-3.753-5.062v7.856H807.5V849.7h2.008l3.928,5.586,3.928-5.586Z" transform="translate(-743.608 -848.914)" fill="#2e3c4b"/>
        <path id="Path_2612" data-name="Path 2612" d="M823.9,857.464a4.29,4.29,0,0,1,4.451-4.364,4.323,4.323,0,1,1,0,8.641A4.172,4.172,0,0,1,823.9,857.464Zm6.721,0A2.283,2.283,0,1,0,828.352,860,2.376,2.376,0,0,0,830.621,857.464Z" transform="translate(-745.693 -849.347)" fill="#2e3c4b"/>
        <path id="Path_2613" data-name="Path 2613" d="M841.737,853.282l-.349,2.008a2.167,2.167,0,0,0-.786-.087c-1.222,0-2.008.873-2.008,2.357v4.015H836.5v-8.2h1.833l.262,1.135a2.648,2.648,0,0,1,2.182-1.309A1.646,1.646,0,0,1,841.737,853.282Z" transform="translate(-747.295 -849.354)" fill="#2e3c4b"/>
        <path id="Path_2614" data-name="Path 2614" d="M844.735,859.135a2.588,2.588,0,0,0,2.095,1.047c.873,0,1.4-.349,1.4-.873,0-1.571-4.015-.436-4.015-3.491,0-1.571,1.222-2.619,3.23-2.619a4.625,4.625,0,0,1,2.968,1.047l-1.047,1.309a2.6,2.6,0,0,0-1.746-.7c-.786,0-1.222.349-1.222.873,0,1.658,4.1.611,4.1,3.579,0,1.484-1.222,2.531-3.317,2.531a4.67,4.67,0,0,1-3.579-1.309Z" transform="translate(-748.198 -849.36)" fill="#2e3c4b"/>
        <path id="Path_2615" data-name="Path 2615" d="M859.312,860.933l-3.317-3.753v3.753H853.9V848.8h2.095v6.983l2.88-3.055h2.706l-3.666,3.753,4.19,4.452Z" transform="translate(-749.508 -848.8)" fill="#2e3c4b"/>
        <path id="Path_2616" data-name="Path 2616" d="M865,850.222A1.248,1.248,0,0,1,866.222,849a1.193,1.193,0,0,1,1.222,1.222,1.248,1.248,0,0,1-1.222,1.222A1.193,1.193,0,0,1,865,850.222Zm.175,2.619h2.095v8.2h-2.095Z" transform="translate(-750.919 -848.826)" fill="#2e3c4b"/>
        <path id="Path_2617" data-name="Path 2617" d="M870.4,857.464a4.269,4.269,0,0,1,4.364-4.364,4.908,4.908,0,0,1,2.88.873l-1.222,1.571a2.3,2.3,0,0,0-1.658-.611,2.546,2.546,0,0,0,0,5.063,2.755,2.755,0,0,0,1.658-.611l1.135,1.571a4.364,4.364,0,0,1-2.88.873A4.3,4.3,0,0,1,870.4,857.464Z" transform="translate(-751.606 -849.347)" fill="#2e3c4b"/>
        <path id="Path_2618" data-name="Path 2618" d="M888.594,855.883v5.062H886.5v-4.539c0-1.222-.524-2.008-1.571-2.008a1.815,1.815,0,0,0-1.833,1.833v4.8H881V848.9h2.095v4.888a3.044,3.044,0,0,1,2.531-1.135C886.935,852.566,888.594,853.352,888.594,855.883Z" transform="translate(-752.954 -848.813)" fill="#2e3c4b"/>
      </g>
    </g>
    <g id="Group_298" transform="translate(696.987 637.935)">
      <g id="niechorze">
        <rect id="Rectangle_211" width="2.706" height="0.262" transform="matrix(0.842, -0.539, 0.539, 0.842, 35.983, 7.425)" fill="#2e3c4b"/>
        <rect id="Rectangle_212" width="1.484" height="0.262" transform="translate(37.971 10.561)" fill="#2e3c4b"/>
        <rect id="Rectangle_213" width="0.262" height="2.182" transform="matrix(0.318, -0.948, 0.948, 0.318, 36.619, 13.366)" fill="#2e3c4b"/>
        <rect id="Rectangle_214" width="0.262" height="1.746" transform="translate(18.505 6.868) rotate(-65.613)" fill="#2e3c4b"/>
        <rect id="Rectangle_215" width="2.357" height="0.262" transform="translate(16.935 10.3)" fill="#2e3c4b"/>
        <rect id="Rectangle_216" width="1.571" height="0.262" transform="translate(16.966 13.868) rotate(-12.973)" fill="#2e3c4b"/>
        <path id="Path_2050" d="M744.913,724.95h-.175c-.087,0-6.023-.087-6.284-.786-.611-1.309-.175-41.024,0-43.38,0-.175.087-.611,4.452-.786.087,0,8.03-.175,8.2.786.175,1.135.524,20.512.524,22.432v2.531c.175,13.18.087,18.417-.436,18.679C750.674,724.862,747.532,724.95,744.913,724.95Zm-6.2-43.991c-.349,3.666-.524,42.071,0,43.206.262.349,4.452.611,6.023.611h.175c4.975,0,5.935-.349,6.2-.436.524-.611.349-13.616.262-18.5V703.3c0-2.531-.349-21.3-.524-22.345-.175-.262-2.531-.524-6.11-.524h-.087c-3.491-.087-5.761.262-5.935.524Z" transform="translate(-717.417 -657.653)" fill="#2e3c4b"/>
        <path id="Path_2051" d="M747.532,735.388c-4.015,0-9.339-.262-10.387-.611a1.207,1.207,0,0,1-.349-.262c-.262-.786,1.309-3.666,1.484-4.015l.262.175c-.611,1.222-1.571,3.317-1.484,3.753.175.175,2.793.524,7.419.611a44.53,44.53,0,0,0,7.506-.175c.436-.262-.349-2.531-1.047-4.015l.262-.087c.262.611,1.746,3.84.96,4.364A20.6,20.6,0,0,1,747.532,735.388Z" transform="translate(-717.242 -664.076)" fill="#2e3c4b"/>
        <path id="Path_2052" d="M724.612,746.253c-4.8,0-9.689-.087-10.038-.175h0c-.087,0-.175-.087-.175-.262-.087-.873,3.23-5.237,3.841-5.674.873-.524,15.275-1.222,15.973-1.047.7.262,1.135,3.666,1.047,5.324,0,1.047-.262,1.571-.611,1.658C734.126,746.253,729.413,746.253,724.612,746.253Zm-9.95-.436c.96.262,18.941.262,19.9,0,.175,0,.349-.436.349-1.4.087-2.182-.524-4.888-.873-5.062-.873-.262-15.1.611-15.711.96-.96.786-3.753,5.063-3.666,5.5Z" transform="translate(-714.398 -665.166)" fill="#2e3c4b"/>
        <path id="Path_2053" d="M757.668,746.587c-2.269,0-3.666-.087-4.015-.349-.7-.524-.96-2.968-.96-3.753-.087-1.047-.087-2.793.262-3.142h0c.524-.524,15.188-.524,15.973,0,.524.349,3.84,6.372,3.579,6.808a.321.321,0,0,1-.262.087h0c-.262-.087-2.793,0-5.586.087C763.167,746.5,760.025,746.587,757.668,746.587Zm-4.539-6.983a8.394,8.394,0,0,0-.175,2.968c.175,1.833.436,3.23.873,3.491.611.436,7.943.175,12.744.087,3.4-.087,5.063-.175,5.586-.087-.262-.96-2.793-5.935-3.4-6.372C768.142,739.168,753.828,739.168,753.129,739.6Z" transform="translate(-719.261 -665.151)" fill="#2e3c4b"/>
        <path id="Path_2054" d="M726.411,764.033a69.649,69.649,0,0,1-9.514-.611c-.786-.262-1.222-11.522-1.4-16.322h.262c.175,5.935.7,15.624,1.222,16.148a72.162,72.162,0,0,0,10.736.436,110.666,110.666,0,0,1,13.18,0c1.4.262,12.918-.262,14.315-.524,1.571-.087,3.142-.087,4.713-.087,2.619,0,6.284.087,6.546-.175s.175-3.142.175-4.975a18.85,18.85,0,0,1,.087-3.841c.262-1.222-.524-6.546-.524-6.634h.262A60.29,60.29,0,0,1,767,754.17a26.951,26.951,0,0,0,0,3.753c.087,3.055.087,4.888-.262,5.237-.262.262-2.182.262-6.721.262a28.345,28.345,0,0,0-4.713.087c-1.309.262-12.918.7-14.4.524a107.756,107.756,0,0,0-13.005,0Z" transform="translate(-714.538 -666.187)" fill="#2e3c4b"/>
        <path id="Path_2055" d="M738,751.107c0-.262-.262-7.157,2.968-10.561a5.538,5.538,0,0,1,4.1-1.746c6.983,0,7.07,10.911,7.07,11h-.262c0-.087-.087-10.736-6.808-10.736a5.214,5.214,0,0,0-3.928,1.658c-3.142,3.23-2.88,10.212-2.88,10.3Z" transform="translate(-717.398 -665.132)" fill="#2e3c4b"/>
        <path id="Path_2056" d="M751.007,680.334l-.175-.175a9.348,9.348,0,0,0,1.309-1.92,5.135,5.135,0,0,0-.087-2.357c-.349-.349-4.277-.524-7.768-.524h-.524c-5.062-.087-5.935.262-6.023.436a11.438,11.438,0,0,0,0,2.444,12.131,12.131,0,0,0,.96,1.833l-.262.175a8.215,8.215,0,0,1-1.047-1.92,13.126,13.126,0,0,1,0-2.619c.175-.524,2.008-.7,6.284-.611h.436c1.222,0,7.419,0,7.943.524.262.262.262,1.135.175,2.531A5.911,5.911,0,0,1,751.007,680.334Z" transform="translate(-717.313 -657.029)" fill="#2e3c4b"/>
        <rect id="Rectangle_217" width="0.262" height="26.622" transform="translate(20.601 70.7)" fill="#2e3c4b"/>
        <path id="Path_2057" d="M754.093,762.26c0-.349-.436-8.03-.436-8.99v-7.332c-1.222-1.4-.96-9.689-.96-10.038h.262c-.087,2.968,0,8.9.96,9.863h0v7.506c0,.96.349,8.9.436,8.99Z" transform="translate(-719.265 -664.763)" fill="#2e3c4b"/>
        <path id="Path_2058" d="M745.262,657.368c0-.087-.262-2.706-.262-2.968h.262c0,.175.175,2.008.262,2.968Z" transform="translate(-718.289 -654.4)" fill="#2e3c4b"/>
        <path id="Path_2059" d="M743.362,670.8l-.175-.175a57.6,57.6,0,0,0-.087-6.721h.262C743.536,666.344,743.624,670.534,743.362,670.8Z" transform="translate(-718.048 -655.608)" fill="#2e3c4b"/>
        <path id="Path_2060" d="M747.276,670.783c-.262-.262-.175-4.539,0-6.983h.262a44.321,44.321,0,0,0,0,6.808Z" transform="translate(-718.558 -655.595)" fill="#2e3c4b"/>
        <path id="Path_2061" d="M745.672,749.8a1.617,1.617,0,0,1-.611-.175c-.087,0-.175-.087-.262-.087a.3.3,0,0,1-.175-.087,10.357,10.357,0,0,1-.436-4.015h0c.175-.349,1.135-.524,1.484-.436q.262.131.262.262a1.966,1.966,0,0,0,.087.611,14.453,14.453,0,0,1,.175,3.666A.622.622,0,0,1,745.672,749.8Zm-.786-.524c.087,0,.175.087.262.087.349.087.611.175.786,0a15.625,15.625,0,0,0-.175-3.491,3.1,3.1,0,0,0-.087-.611,2.417,2.417,0,0,0-.786.087,3.661,3.661,0,0,0-.436.175,10.812,10.812,0,0,0,.436,3.753Z" transform="translate(-718.176 -665.917)" fill="#2e3c4b"/>
        <path id="Path_2062" d="M746.618,761.213c-1.833,0-1.833-.262-1.833-.349v-.436c-.175-3.055-.087-3.666,0-3.841h.349c.611-.087,1.047-.175,1.309.087a15.479,15.479,0,0,1,.349,4.539C746.793,761.126,746.706,761.213,746.618,761.213Zm-1.571-.436a4.578,4.578,0,0,0,1.484.175,16.922,16.922,0,0,0-.262-4.19,4.06,4.06,0,0,0-1.047,0h-.262a16.231,16.231,0,0,0,.087,3.579v.436Z" transform="translate(-718.249 -667.383)" fill="#2e3c4b"/>
        <path id="Path_2063" d="M721.817,754.763a2.578,2.578,0,0,1-1.135-.175c-.262-.262-.087-2.793.436-4.015.262-.611.524-.873.96-.873a1.073,1.073,0,0,1,.96.611,7.846,7.846,0,0,1,.7,4.015,1.344,1.344,0,0,1-.873.436Zm-.873-.349a3.585,3.585,0,0,0,1.92,0c.436-.087.524-.175.611-.262a8.352,8.352,0,0,0-.7-3.841.777.777,0,0,0-.7-.436c-.175,0-.349.175-.524.436A8.282,8.282,0,0,0,720.944,754.413Z" transform="translate(-715.182 -666.518)" fill="#2e3c4b"/>
        <path id="Path_2064" d="M730.126,755.012a1.922,1.922,0,0,1-.7-.087c-.175,0-.262-.087-.349-.262-.175-.349-.349-3.491.437-4.626a.89.89,0,0,1,.7-.436h0c.436,0,.786.436,1.047,1.222a11.03,11.03,0,0,1,.611,3.841A3.909,3.909,0,0,1,730.126,755.012Zm.087-5.062a.48.48,0,0,0-.436.262c-.7,1.047-.524,4.015-.436,4.364a.085.085,0,0,0,.087.087,6.045,6.045,0,0,0,2.182-.087,10.449,10.449,0,0,0-1.047-4.364c0-.175-.087-.262-.349-.262Z" transform="translate(-716.246 -666.505)" fill="#2e3c4b"/>
        <path id="Path_2065" d="M722.1,762.475a1.92,1.92,0,0,1-1.222-.175,7.154,7.154,0,0,1,.175-3.841,1.423,1.423,0,0,1,1.135-.96h0a1.073,1.073,0,0,1,.96.611,7.845,7.845,0,0,1,.7,4.015c-.087.087-.175.175-.786.262A2.982,2.982,0,0,1,722.1,762.475Zm.087-4.626a1,1,0,0,0-.786.524,6.941,6.941,0,0,0-.349,3.753,6.194,6.194,0,0,0,2.531-.087,7.431,7.431,0,0,0-.786-3.841.883.883,0,0,0-.611-.349Z" transform="translate(-715.199 -667.51)" fill="#2e3c4b"/>
        <path id="Path_2066" d="M730.922,762.3a2.419,2.419,0,0,1-.786-.087c-.175-.087-.262-.087-.349-.262-.087-.262-.262-3.142.436-4.1a.659.659,0,0,1,.611-.349h0c.349,0,.611.436.96,1.222a9.868,9.868,0,0,1,.611,3.317A2.175,2.175,0,0,1,730.922,762.3Zm0-4.451a.48.48,0,0,0-.436.262c-.611.873-.524,3.579-.436,3.841a3.727,3.727,0,0,0,2.182-.087,10.1,10.1,0,0,0-1.047-3.841c-.087-.087-.175-.175-.262-.175Z" transform="translate(-716.344 -667.51)" fill="#2e3c4b"/>
        <path id="Path_2067" d="M759.917,754.862a2.578,2.578,0,0,1-1.135-.175h0c-.262-.262-.087-2.793.436-4.015.262-.611.524-.873.96-.873a1.073,1.073,0,0,1,.96.611,7.846,7.846,0,0,1,.7,4.015,1.343,1.343,0,0,1-.873.436A4.141,4.141,0,0,0,759.917,754.862Zm-.96-.436a3.585,3.585,0,0,0,1.92,0c.436-.087.524-.175.611-.262a8.35,8.35,0,0,0-.7-3.841.777.777,0,0,0-.7-.436c-.175,0-.349.175-.524.436a9.406,9.406,0,0,0-.611,4.1Z" transform="translate(-720.026 -666.531)" fill="#2e3c4b"/>
        <path id="Path_2068" d="M768.226,755.012a1.922,1.922,0,0,1-.7-.087c-.175,0-.262-.087-.349-.262-.175-.349-.349-3.491.436-4.626a.89.89,0,0,1,.7-.436h0q.655,0,1.047,1.309a11.033,11.033,0,0,1,.611,3.841A3.072,3.072,0,0,1,768.226,755.012Zm.087-5.062a.48.48,0,0,0-.436.262c-.7,1.047-.524,4.015-.436,4.364a.085.085,0,0,0,.087.087,6.045,6.045,0,0,0,2.182-.087,10.448,10.448,0,0,0-1.047-4.364c0-.175-.175-.262-.349-.262Z" transform="translate(-721.09 -666.505)" fill="#2e3c4b"/>
        <path id="Path_2069" d="M760.2,762.575a1.92,1.92,0,0,1-1.222-.175,7.153,7.153,0,0,1,.175-3.841,1.423,1.423,0,0,1,1.135-.96h0a1.073,1.073,0,0,1,.96.611,7.845,7.845,0,0,1,.7,4.015c-.087.087-.175.175-.786.262C760.894,762.488,760.545,762.575,760.2,762.575Zm0-4.713h0a1,1,0,0,0-.786.524,6.942,6.942,0,0,0-.349,3.753,6.242,6.242,0,0,0,2.531-.087,7.433,7.433,0,0,0-.786-3.841c-.087-.175-.349-.262-.611-.349Z" transform="translate(-720.043 -667.522)" fill="#2e3c4b"/>
        <path id="Path_2070" d="M768.922,762.4a2.416,2.416,0,0,1-.786-.087c-.175-.087-.262-.087-.349-.262-.087-.262-.262-3.142.436-4.1a.708.708,0,0,1,.7-.349c.349,0,.611.436.96,1.222a9.866,9.866,0,0,1,.611,3.317A4.941,4.941,0,0,1,768.922,762.4Zm0-4.539a.48.48,0,0,0-.436.262c-.611.873-.524,3.579-.436,3.841a3.727,3.727,0,0,0,2.182-.087,10.1,10.1,0,0,0-1.047-3.841c0-.087-.174-.175-.262-.175Z" transform="translate(-721.176 -667.522)" fill="#2e3c4b"/>
        <path id="Path_2071" d="M740.462,663.186H740.2a7.561,7.561,0,0,1,.524-2.793,4.035,4.035,0,0,1,3.841-2.793c4.277,0,5.324,5.237,5.324,5.324l-.262.087c0-.087-1.047-5.062-5.062-5.062a3.745,3.745,0,0,0-3.579,2.619A13.909,13.909,0,0,0,740.462,663.186Z" transform="translate(-717.679 -654.807)" fill="#2e3c4b"/>
        <path id="Path_2072" d="M750.221,674.068v-3.317h0a59.756,59.756,0,0,0-.611-6.808c-.611-.175-8.728,0-9.165.436a59.084,59.084,0,0,0,.087,6.808l-.087,2.706h-.262l.087-2.706c-.087-1.047-.349-6.459-.087-6.983.087-.087.175-.175.786-.262,1.92-.349,8.554-.524,8.816-.262a38.684,38.684,0,0,1,.611,7.07h0v3.317Z" transform="translate(-717.662 -655.564)" fill="#2e3c4b"/>
        <path id="Path_2073" d="M750.338,671.941c-2.182-.262-9.95-.087-10.038-.087v-.262c.349,0,7.943-.175,10.125.087Z" transform="translate(-717.692 -656.579)" fill="#2e3c4b"/>
        <path id="Path_2074" d="M752.229,675.669l-.262-.175c.349-.611.7-1.484.436-1.571-.524-.262-13.616-.349-14.751-.175v1.833h-.262a7.728,7.728,0,0,1,0-2.008v-.087h.087c.436-.087,4.8-.087,7.594-.087a67.345,67.345,0,0,1,7.419.262C753.1,674.011,752.316,675.408,752.229,675.669Z" transform="translate(-717.313 -656.816)" fill="#2e3c4b"/>
        <path id="Path_2075" d="M746.1,708.017h-1.4v-.175c0-.262-.087-2.619.436-3.055.087-.087.175-.087.349-.087.786.175.7,2.619.611,3.142Zm-1.135-.262h.873c.087-1.135,0-2.619-.436-2.706h-.087a6.945,6.945,0,0,0-.349,2.706Z" transform="translate(-718.25 -660.796)" fill="#2e3c4b"/>
      </g>
      <path id="Path_2076" d="M740.8,722.638l-.7-40.238h.262l.7,40.238Z" transform="translate(-717.666 -657.96)" fill="#2e3c4b"/>
      <rect id="Rectangle_218" width="0.262" height="40.238" transform="translate(24.965 24.44)" fill="#2e3c4b"/>
      <rect id="Rectangle_219" width="0.262" height="40.238" transform="translate(28.893 24.44)" fill="#2e3c4b"/>
      <rect id="Rectangle_220" width="0.262" height="39.802" transform="translate(31.424 24.44)" fill="#2e3c4b"/>
    </g>
    <g id="rozewie" transform="translate(752.677 611.051)">
      <g id="Group_305" transform="translate(7.506 14.14)">
        <g id="Group_299" transform="translate(2.444)">
          <circle id="Ellipse_72" cx="0.524" cy="0.524" r="0.524" transform="translate(0.087 0.175)" fill="#2e3c4b"/>
          <path id="Path_2077" d="M790.211,641.022a.611.611,0,1,1,.611-.611A.735.735,0,0,1,790.211,641.022Zm0-.96a.436.436,0,1,0,.436.436h0c-.087-.262-.262-.436-.436-.436Z" transform="translate(-789.6 -639.8)" fill="#2e3c4b"/>
        </g>
        <g id="Group_300" transform="translate(2.619 5.761)">
          <circle id="Ellipse_73" cx="0.524" cy="0.524" r="0.524" transform="translate(0.087 0.175)" fill="#2e3c4b"/>
          <path id="Path_2078" d="M790.411,647.622a.611.611,0,1,1,.611-.611A.6.6,0,0,1,790.411,647.622Zm0-.96a.436.436,0,1,0,.436.436h0A.412.412,0,0,0,790.411,646.662Z" transform="translate(-789.8 -646.4)" fill="#2e3c4b"/>
        </g>
        <g id="Group_301" transform="translate(2.444 12.394)">
          <circle id="Ellipse_74" cx="0.524" cy="0.524" r="0.524" transform="translate(0.087 0.175)" fill="#2e3c4b"/>
          <path id="Path_2079" d="M790.211,655.222a.611.611,0,1,1,.611-.611A.735.735,0,0,1,790.211,655.222Zm0-.96a.436.436,0,1,0,.436.436c-.087-.262-.262-.436-.436-.436Z" transform="translate(-789.6 -654)" fill="#2e3c4b"/>
        </g>
        <g id="Group_302" transform="translate(5.761 24.789)">
          <circle id="Ellipse_75" cx="0.524" cy="0.524" r="0.524" transform="translate(0.087 0.087)" fill="#2e3c4b"/>
          <path id="Path_2080" d="M794.011,669.422a.611.611,0,1,1,.611-.611A.735.735,0,0,1,794.011,669.422Zm0-.96a.436.436,0,1,0,.436.436h0c-.087-.262-.262-.436-.436-.436Z" transform="translate(-793.4 -668.2)" fill="#2e3c4b"/>
        </g>
        <g id="Group_303" transform="translate(0 27.931)">
          <circle id="Ellipse_76" cx="0.524" cy="0.524" r="0.524" transform="translate(0.087 0.087)" fill="#2e3c4b"/>
          <path id="Path_2081" d="M787.411,673.022a.611.611,0,1,1,.611-.611A.6.6,0,0,1,787.411,673.022Zm0-1.047a.436.436,0,1,0,.436.436h0a.468.468,0,0,0-.436-.436Z" transform="translate(-786.8 -671.8)" fill="#2e3c4b"/>
        </g>
        <g id="Group_304" transform="translate(0.436 22.17)">
          <circle id="Ellipse_77" cx="0.524" cy="0.524" r="0.524" transform="translate(0.087 0.087)" fill="#2e3c4b"/>
          <path id="Path_2082" d="M787.911,666.422a.611.611,0,1,1,.611-.611A.6.6,0,0,1,787.911,666.422Zm0-1.047a.436.436,0,1,0,.436.436h0A.468.468,0,0,0,787.911,665.375Z" transform="translate(-787.3 -665.2)" fill="#2e3c4b"/>
        </g>
      </g>
      <g id="rozewie-2">
        <g id="Group_306" transform="translate(4.288 33.111)">
          <path id="Path_2083" d="M783.293,674.859c-.262-.524.611-6.2.611-6.284a7.259,7.259,0,0,1,.175-1.135c.436-2.793.786-5.412,1.135-5.761.175-.175.873-.175,2.269-.087.524,0,.96.087,1.309.087,3.753,0,4.364.087,4.539.262a31.47,31.47,0,0,1,1.309,5.674,18.875,18.875,0,0,0,.436,2.095,48.739,48.739,0,0,1,.786,5.15H795.6a32.192,32.192,0,0,0-.786-5.062,18.892,18.892,0,0,1-.436-2.095c-.436-2.008-1.135-5.412-1.309-5.586-.087-.087-.96-.175-4.364-.175a7.061,7.061,0,0,1-1.309-.087,8.413,8.413,0,0,0-2.095,0c-.349.349-.873,3.928-1.135,5.586a9.168,9.168,0,0,0-.175,1.135,35.495,35.495,0,0,0-.7,6.11Z" transform="translate(-783.129 -661.534)" fill="#2e3c4b"/>
          <path id="Path_2084" d="M783.189,674.946h0c-.349-.7.611-6.372.611-6.372a7.26,7.26,0,0,1,.175-1.135h0c.524-3.491.873-5.412,1.222-5.761.175-.175.7-.175,2.357-.087h0c.436,0,.96.087,1.309.087,3.928,0,4.452.175,4.539.262a51.16,51.16,0,0,1,1.4,5.761v.087a13.258,13.258,0,0,0,.437,1.92,48.739,48.739,0,0,1,.786,5.15v.087h-.436v-.087a32.185,32.185,0,0,0-.786-5.062c-.087-.262-.262-1.135-.436-2.095-.349-1.746-1.135-5.237-1.309-5.586a23.394,23.394,0,0,0-4.277-.175h-1.309a8.418,8.418,0,0,0-2.095,0,33.841,33.841,0,0,0-1.047,5.586,8.137,8.137,0,0,0-.175,1.222c-.349,2.269-.873,5.761-.7,6.11v.087Zm12.569-.175h0a33.609,33.609,0,0,0-.7-5.062c-.087-.262-.262-1.047-.436-2.008v-.087c-.349-1.92-.786-3.841-1.309-5.674-.175-.175-1.571-.262-4.451-.262a7.538,7.538,0,0,1-1.309-.087h0a6.7,6.7,0,0,0-2.269.087c-.349.349-.873,3.579-1.135,5.674h0a7.259,7.259,0,0,0-.175,1.135c-.175,1.135-.873,5.324-.7,6.11h0a48.507,48.507,0,0,1,.7-6.11c.087-.262.087-.7.175-1.135a32.692,32.692,0,0,1,1.135-5.674,4.612,4.612,0,0,1,2.182,0h1.309a24.026,24.026,0,0,1,4.364.175h0c.175.262.7,2.793,1.309,5.586.175.96.349,1.833.436,2.095A22.646,22.646,0,0,1,795.758,674.772Z" transform="translate(-783.112 -661.534)" fill="#2e3c4b"/>
        </g>
        <g id="Group_307" transform="translate(6.307 10.84)">
          <path id="Path_2085" d="M793.7,658.784l-.175-.175c.087-.262.175-3.928.175-9.689,0-1.571-.262-11.609-.436-12.133-.087-.175-.7-.262-3.229-.175h-.436a5.184,5.184,0,0,1-.96-.087,12.983,12.983,0,0,0-2.968-.175c-.175.349.262,7.681.436,11,.087,1.047.087,2.793.087,4.626,0,2.531.087,6.023.349,6.284l-.087.175c-.349-.262-.436-2.269-.436-6.459,0-1.833,0-3.491-.087-4.626-.087-.873-.7-10.823-.436-11.172.262-.262,1.222-.175,3.142.087a4.481,4.481,0,0,0,.873.087h.436c2.008-.087,3.23-.087,3.4.262.262.524.436,11.347.436,12.22C793.87,658.522,793.7,658.7,793.7,658.784Z" transform="translate(-785.426 -636.019)" fill="#2e3c4b"/>
          <path id="Path_2086" d="M793.711,658.984l-.262-.262v-.087c.087-.175.175-3.317.175-9.6,0-1.92-.262-11.7-.436-12.045,0,0-.349-.262-3.142-.087h-.436a4.009,4.009,0,0,1-.873-.087h0a10.669,10.669,0,0,0-2.88-.175c-.087.524.175,7.419.524,10.911.087,1.047.087,2.793.087,4.539h0c0,2.269.087,5.935.349,6.2l.087.087v.087l-.175.262-.087-.087c-.349-.262-.436-1.746-.524-6.546h0c0-1.833,0-3.491-.087-4.539,0-.087-.786-10.823-.349-11.172.262-.262.96-.175,3.23.087a4.481,4.481,0,0,0,.873.087h.349c2.444-.087,3.317,0,3.491.349.262.524.436,11.783.436,12.22-.087,9.514-.262,9.689-.349,9.863Zm-.087-.349h0a84.062,84.062,0,0,0,.262-9.6c0-1.135-.175-11.7-.436-12.133-.175-.349-2.269-.262-3.317-.262h-.349a4.478,4.478,0,0,1-.873-.087c-1.484-.175-2.88-.349-3.142-.087-.262.436.262,9.078.436,11.085.087,1.047.087,2.793.087,4.539h0c0,3.491.087,5.848.349,6.284h0c-.262-.436-.262-2.531-.349-6.284h0c0-1.833,0-3.491-.087-4.539-.262-2.88-.611-10.561-.436-11h0c.175-.175.96-.087,3.055.087h0a4.478,4.478,0,0,0,.873.087h.436c3.142-.175,3.23.087,3.317.262.175.524.436,10.649.436,12.133-.087,4.19-.175,8.9-.262,9.514Z" transform="translate(-785.442 -636.044)" fill="#2e3c4b"/>
        </g>
        <g id="Group_308" transform="translate(4.539)">
          <path id="Path_2087" d="M793.538,629.723a4.379,4.379,0,0,1-1.047-.175,8.6,8.6,0,0,0-1.484-.175,17.575,17.575,0,0,1-2.269.087h-3.491s-1.658,0-1.746-.349c0-.349,3.841-3.928,5.15-4.888.7-.524.786-.524.873-.524.7.262,4.364,5.15,4.451,5.674,0,.087,0,.175-.087.175A.348.348,0,0,1,793.538,629.723Zm-2.444-.524a8.7,8.7,0,0,1,1.4.175,3,3,0,0,0,1.222.087c-.087-.436-3.579-5.15-4.277-5.5a16.327,16.327,0,0,0-3.055,2.444c-.96.873-1.833,1.746-2.706,2.706a7.691,7.691,0,0,0,1.484.175h2.182a7.679,7.679,0,0,0,1.222-.087,17.563,17.563,0,0,0,2.269-.087c.174.087.174.087.262.087Z" transform="translate(-783.413 -623.613)" fill="#2e3c4b"/>
          <path id="Path_2088" d="M793.525,629.8a6.007,6.007,0,0,1-1.135-.175,8.6,8.6,0,0,0-1.484-.175,17.563,17.563,0,0,1-2.269.087h-3.4s-1.746,0-1.833-.436c0-.436,4.1-4.1,5.15-4.975.7-.524.873-.524.96-.524.786.262,4.452,5.15,4.452,5.761a.321.321,0,0,1-.087.262A.349.349,0,0,1,793.525,629.8Zm-2.444-.524a6.739,6.739,0,0,1,1.309.175,2.645,2.645,0,0,0,1.4.087v-.087c0-.436-3.666-5.324-4.364-5.586,0,0-.175-.087-.786.436a50.2,50.2,0,0,0-5.15,4.8c0,.175,1.135.262,1.571.262h3.4a17.562,17.562,0,0,0,2.269-.087Zm2.444.262a4.382,4.382,0,0,1-1.047-.175h0a8.6,8.6,0,0,0-1.484-.175,17.563,17.563,0,0,1-2.269.087h-3.4a7.687,7.687,0,0,1-1.484-.175l-.087-.087.087-.087a27.411,27.411,0,0,1,2.793-2.706,16.332,16.332,0,0,1,3.055-2.444h0c.7.262,4.277,5.062,4.277,5.5h0c-.262.262-.349.349-.437.262Zm-2.444-.436a6.734,6.734,0,0,1,1.309.175h0c.349.087.786.087,1.135.175-.262-.7-3.491-4.975-4.19-5.324a15.794,15.794,0,0,0-2.968,2.444,34.721,34.721,0,0,0-2.619,2.619,3.328,3.328,0,0,0,1.309.087h3.491a17.563,17.563,0,0,0,2.269-.087.321.321,0,0,1,.262-.087Z" transform="translate(-783.4 -623.6)" fill="#2e3c4b"/>
        </g>
        <g id="Group_309" transform="translate(8.641 5.586)">
          <path id="Path_2089" d="M788.562,635.7H788.3s.262-2.008.262-2.88V630.2h.262v2.619C788.736,633.691,788.562,635.612,788.562,635.7Z" transform="translate(-788.125 -630.026)" fill="#2e3c4b"/>
          <path id="Path_2090" d="M788.536,635.761H788.1v-.087c0-.175.262-2.008.262-2.88V630h.436v2.706a20.791,20.791,0,0,1-.262,3.055Zm-.175-.174h0a21.8,21.8,0,0,0,.262-2.793v-2.531h-.087v2.531a13.252,13.252,0,0,1-.175,2.793Z" transform="translate(-788.1 -630)" fill="#2e3c4b"/>
        </g>
        <g id="Group_310" transform="translate(10.911 5.761)">
          <path id="Path_2091" d="M791.062,636.061c0-.087-.262-2.968-.262-3.841a6.733,6.733,0,0,1,.175-1.309,1.486,1.486,0,0,0,.087-.611h.262a1.486,1.486,0,0,1-.087.611,5.894,5.894,0,0,0-.175,1.222c0,.873.262,3.841.262,3.841Z" transform="translate(-790.713 -630.213)" fill="#2e3c4b"/>
          <path id="Path_2092" d="M790.962,636.135h0l.087-.087h-.087c0-.524-.262-3.055-.262-3.841a6.733,6.733,0,0,1,.175-1.309c0-.175.087-.349.087-.611V630.2h.436v.087a1.922,1.922,0,0,1-.087.7c-.087.436-.087.786-.175,1.222a34.372,34.372,0,0,0,.262,3.841v.087Zm.175-5.761a1.107,1.107,0,0,1-.087.524,6.853,6.853,0,0,0-.175,1.222c0,.786.175,3.23.175,3.753h.087c0-.524-.175-2.968-.175-3.753a5.149,5.149,0,0,1,.175-1.222v-.524Z" transform="translate(-790.7 -630.2)" fill="#2e3c4b"/>
        </g>
        <g id="Group_311" transform="translate(13.093 5.761)">
          <path id="Path_2093" d="M793.562,635.9H793.3c0-.262.436-5.324.436-5.5H794C793.911,632.233,793.562,635.724,793.562,635.9Z" transform="translate(-793.213 -630.225)" fill="#2e3c4b"/>
          <path id="Path_2094" d="M793.636,635.961H793.2v-.087c0-.175.262-3.491.436-5.412V630.2h.436v.087c-.175,2.531-.436,5.324-.436,5.5Zm-.175-.175h0c.087-.7.436-4.539.436-5.324h0v.087c-.262,2.968-.436,4.8-.436,5.237Z" transform="translate(-793.2 -630.2)" fill="#2e3c4b"/>
        </g>
        <g id="Group_312" transform="translate(6.721 5.848)">
          <rect id="Rectangle_221" width="0.262" height="5.324" transform="translate(0.087 0.087)" fill="#2e3c4b"/>
          <path id="Path_2095" d="M786.336,635.8H785.9v-5.5h.436Zm-.262-.174h0l.087-5.15h-.087Z" transform="translate(-785.9 -630.3)" fill="#2e3c4b"/>
        </g>
        <g id="Group_313" transform="translate(9.332 48.585)">
          <path id="Path_2096" d="M790.4,685.592a1.726,1.726,0,0,1-.96-.175c-.087-.087-.175-.175-.175-.262a10,10,0,0,0-.087-1.309,16.054,16.054,0,0,1-.087-4.1h0a.841.841,0,0,1,.786-.349,3.37,3.37,0,0,1,1.833.262,18.656,18.656,0,0,1,.349,5.412.453.453,0,0,1-.175.349A8.6,8.6,0,0,1,790.4,685.592Zm-1.135-5.673a19.747,19.747,0,0,0,.175,3.928,10.846,10.846,0,0,1,.087,1.309v.087a4.05,4.05,0,0,0,2.269-.087c.349-.262,0-4.975-.262-5.412a3.248,3.248,0,0,0-1.571-.175c-.349.087-.611.175-.7.349Z" transform="translate(-788.904 -679.275)" fill="#2e3c4b"/>
          <path id="Path_2097" d="M790.383,685.667a2.214,2.214,0,0,1-1.047-.175.454.454,0,0,1-.175-.349,9.994,9.994,0,0,0-.087-1.309c-.175-2.444-.262-3.753-.087-4.1h0a1.074,1.074,0,0,1,.873-.436,3.259,3.259,0,0,1,1.833.262,17.441,17.441,0,0,1,.349,5.412c-.087.262-.087.349-.262.436A3.323,3.323,0,0,1,790.383,685.667Zm-1.222-5.848h0a20.591,20.591,0,0,0,.087,4.015,9.994,9.994,0,0,1,.087,1.309c0,.087,0,.087.087.175a3.138,3.138,0,0,0,.96.175,6.78,6.78,0,0,0,1.4-.175c.087,0,.087-.087.175-.262a21.875,21.875,0,0,0-.349-5.324,2.4,2.4,0,0,0-1.746-.175.723.723,0,0,0-.7.262Zm1.222,5.586a1.879,1.879,0,0,1-.96-.175.085.085,0,0,1-.087-.087,9.269,9.269,0,0,0-.087-1.309,15.468,15.468,0,0,1-.087-4.015h0c.087-.175.436-.262.7-.349a3.608,3.608,0,0,1,1.658.175c.175.262.611,5.15.262,5.5h0a2.662,2.662,0,0,1-1.4.262Zm-.786-.262a3.442,3.442,0,0,0,2.095-.087,17.621,17.621,0,0,0-.262-5.237,2.914,2.914,0,0,0-1.484-.087c-.349,0-.524.087-.611.262h0a19.748,19.748,0,0,0,.175,3.928c0,.524.087,1.047.087,1.222Z" transform="translate(-788.891 -679.262)" fill="#2e3c4b"/>
        </g>
        <g id="Group_314" transform="translate(9.631 56.433)">
          <path id="Path_2098" d="M790.963,694.59a4.376,4.376,0,0,1-1.047-.175c-.262-.175-.436-1.658-.524-2.88a11.945,11.945,0,0,1,.087-3.055h0c.175-.262,1.571-.087,2.357,0h.087v.087c.087.873.436,5.15.175,5.586-.175.349-.786.437-1.135.437Zm-1.309-6.023a19.246,19.246,0,0,0,.349,5.586,2.213,2.213,0,0,0,1.047.175c.436,0,.786-.087.873-.262a37.39,37.39,0,0,0-.175-5.412,8.6,8.6,0,0,0-2.095-.087Z" transform="translate(-789.247 -688.265)" fill="#2e3c4b"/>
          <path id="Path_2099" d="M790.95,694.666a5.1,5.1,0,0,1-1.135-.175c-.087-.087-.436-.262-.524-2.968a11.944,11.944,0,0,1,.087-3.055c.087-.087.262-.436,2.444,0H792v.175c.087,1.222.436,5.237.175,5.674a1.847,1.847,0,0,1-1.222.349Zm-.873-6.284a1.267,1.267,0,0,0-.524.087,11.272,11.272,0,0,0-.087,2.968c.175,2.444.436,2.793.436,2.793a2.214,2.214,0,0,0,1.047.175h.087c.524,0,.873-.175.96-.349a39.833,39.833,0,0,0-.175-5.586h0c-.611,0-1.222-.087-1.746-.087Zm.873,6.023a3.135,3.135,0,0,1-.96-.175c-.349-.262-.7-5.15-.436-5.761h0a7.875,7.875,0,0,1,2.095.087h.087v.087c0,.087.436,5.063.175,5.412-.087.262-.436.349-.96.349Zm-1.222-5.761a18.849,18.849,0,0,0,.349,5.5,3.1,3.1,0,0,0,.873.175h.087a1.256,1.256,0,0,0,.786-.175,35.023,35.023,0,0,0-.175-5.237,3.8,3.8,0,0,0-1.92-.262Z" transform="translate(-789.234 -688.254)" fill="#2e3c4b"/>
        </g>
        <g id="Group_315" transform="translate(10.155 63.915)">
          <path id="Path_2100" d="M790.789,703.113a.654.654,0,0,1-.436-.087c-.175-.175-.524-5.412-.175-5.674h0a2.15,2.15,0,0,1,1.92-.175c.524.262.873,5.15.7,5.673,0,.087-.087.087-.175.087a.654.654,0,0,0-.436.087C791.662,703.026,791.226,703.113,790.789,703.113Zm-.524-5.673a28.07,28.07,0,0,0,.175,5.412,11.138,11.138,0,0,0,1.658-.087,3.775,3.775,0,0,0,.436-.087,14.1,14.1,0,0,0-.175-2.706,6.68,6.68,0,0,0-.524-2.619,1.991,1.991,0,0,0-1.571.087Z" transform="translate(-789.859 -696.851)" fill="#2e3c4b"/>
          <path id="Path_2101" d="M790.765,703.175a.641.641,0,0,1-.524-.175c-.175-.96-.262-1.92-.349-2.88a9.419,9.419,0,0,1,.087-2.968,2.312,2.312,0,0,1,2.008-.175c.611.349.873,5.412.786,5.761,0,.087-.087.175-.262.175h-.524A2.787,2.787,0,0,1,790.765,703.175Zm.436-6.11a2.073,2.073,0,0,0-1.047.262,9.993,9.993,0,0,0-.087,2.793,15.121,15.121,0,0,0,.262,2.793s.087.087.436.087a6.738,6.738,0,0,0,1.309-.175h.524l.087-.087c0-.96,0-1.92-.087-2.88a8.082,8.082,0,0,0-.524-2.706,3.273,3.273,0,0,0-.873-.087ZM790.677,703c-.175,0-.262,0-.349-.087h0a23.213,23.213,0,0,1-.175-5.5h0a2.4,2.4,0,0,1,1.746-.175,7.449,7.449,0,0,1,.524,2.706c.087.873.175,1.833.175,2.706v.087h-.087a.949.949,0,0,0-.436.087c-.436.087-.873.087-1.4.175Zm-.175-.262a9.487,9.487,0,0,0,1.571-.087c.175,0,.262,0,.349-.087a13.209,13.209,0,0,0-.175-2.619,9.142,9.142,0,0,0-.436-2.619,2.147,2.147,0,0,0-1.484.087,35.81,35.81,0,0,0,.175,5.324Z" transform="translate(-789.834 -696.826)" fill="#2e3c4b"/>
        </g>
        <g id="Group_316" transform="translate(5.412 30.375)">
          <path id="Path_2102" d="M793.565,661.73l-.087-.175a6.227,6.227,0,0,0,1.222-2.531,62.774,62.774,0,0,0-9.95-.175,7.055,7.055,0,0,0,.611,1.92c.087.175.175.436.262.611h-.262l-.262-.524a9.841,9.841,0,0,1-.7-2.095c0-.175,0-.262,3.666-.262,1.571,0,3.23,0,4.452.087,2.357.087,2.357.262,2.357.436C794.874,659.373,794.089,661.468,793.565,661.73Z" transform="translate(-784.4 -658.413)" fill="#2e3c4b"/>
          <path id="Path_2103" d="M793.578,661.8l-.175-.349h.087a5.917,5.917,0,0,0,1.135-2.357,60.769,60.769,0,0,0-9.776-.175,6.476,6.476,0,0,0,.611,1.833,6.025,6.025,0,0,1,.262.7v.087h-.349v-.087c-.087-.175-.087-.349-.175-.524a6.391,6.391,0,0,1-.7-2.182c0-.262,0-.349,3.753-.349,1.571,0,3.23,0,4.451.087,2.444.087,2.444.262,2.444.524-.174.437-.96,2.444-1.571,2.793Zm0-.262h0a5.592,5.592,0,0,0,1.222-2.619c0-.087-.262-.262-2.269-.349-1.222-.087-2.88-.087-4.452-.087-2.793,0-3.491.087-3.579.175a6.586,6.586,0,0,0,.7,2.095,3.437,3.437,0,0,1,.175.524h.087a3.427,3.427,0,0,0-.175-.524,5.372,5.372,0,0,1-.611-2.008v-.087h.087a63.881,63.881,0,0,1,10.038.175h.087v.087A9.209,9.209,0,0,1,793.578,661.542Z" transform="translate(-784.413 -658.4)" fill="#2e3c4b"/>
        </g>
        <g id="Group_317" transform="translate(8.258 30.462)">
          <path id="Path_2104" d="M787.88,661.38a7.983,7.983,0,0,1,0-2.88h.262a7.056,7.056,0,0,0,0,2.706Z" transform="translate(-787.671 -658.5)" fill="#2e3c4b"/>
          <path id="Path_2105" d="M787.87,661.555h0c-.349-.436-.175-2.444-.087-2.968V658.5h.436v.087a7.049,7.049,0,0,0,0,2.706l.087.087Zm.087-2.968a8.776,8.776,0,0,0,0,2.619h0a13.126,13.126,0,0,1,0-2.619Z" transform="translate(-787.661 -658.5)" fill="#2e3c4b"/>
        </g>
        <g id="Group_318" transform="translate(12.656 30.462)">
          <path id="Path_2106" d="M792.975,661.393l-.175-.087a23.8,23.8,0,0,0,.087-2.706h.262C793.149,658.687,793.062,660.957,792.975,661.393Z" transform="translate(-792.713 -658.513)" fill="#2e3c4b"/>
          <path id="Path_2107" d="M793.049,661.468l-.349-.087v-.087a21.457,21.457,0,0,0,.087-2.706V658.5h.436v.087a25.139,25.139,0,0,1-.175,2.793Zm-.175-.175h0a16.547,16.547,0,0,0,.175-2.619h-.087C792.962,659.46,792.875,660.857,792.875,661.293Z" transform="translate(-792.7 -658.5)" fill="#2e3c4b"/>
        </g>
        <g id="Group_319" transform="translate(10.003 30.55)">
          <path id="Path_2108" d="M789.979,661.48l-.087-.087a9.893,9.893,0,0,1,.087-2.793h.262a13.656,13.656,0,0,0-.175,2.706h-.087Z" transform="translate(-789.683 -658.6)" fill="#2e3c4b"/>
          <path id="Path_2109" d="M790.044,661.655l-.262-.087c-.087-.087-.262-.262.087-2.88V658.6l.437.087v.087a13.2,13.2,0,0,0-.175,2.619h-.087Zm-.087-2.968a23,23,0,0,0-.175,2.444h0a21.458,21.458,0,0,0,.175-2.444Z" transform="translate(-789.661 -658.6)" fill="#2e3c4b"/>
        </g>
        <g id="Group_320" transform="translate(5.412 8.729)">
          <path id="Path_2110" d="M793.254,636.484h-.262a2.612,2.612,0,0,1,.349-.7,7.593,7.593,0,0,0,.7-1.658h0c-.349-.175-8.467-.436-9.078-.087a12.361,12.361,0,0,0,.611,1.92l-.175.087a13.579,13.579,0,0,1-.7-2.008c0-.087,0-.087.087-.175.7-.436,8.9-.175,9.339,0,.087,0,.087.087.175.175.087.349-.262.96-.7,1.833A1.406,1.406,0,0,0,793.254,636.484Z" transform="translate(-784.438 -633.603)" fill="#2e3c4b"/>
          <path id="Path_2111" d="M793.216,636.568h-.349v-.087a1.754,1.754,0,0,1,.349-.7,4.227,4.227,0,0,0,.611-1.571,61.146,61.146,0,0,0-8.99-.087,15.038,15.038,0,0,0,.611,1.833v.087l-.349.175v-.087a19.657,19.657,0,0,1-.7-2.095.3.3,0,0,1,.087-.175c.436-.262,3.491-.262,4.8-.262a41.094,41.094,0,0,1,4.626.262c.087.087.175.087.175.175a3.71,3.71,0,0,1-.7,1.833.94.94,0,0,1-.175.7Zm-.087-.175h0a5.167,5.167,0,0,0,.349-.524c.436-.786.786-1.484.7-1.746a.085.085,0,0,0-.087-.087c-.349-.175-8.641-.436-9.252-.087a.085.085,0,0,0-.087.087,12.361,12.361,0,0,0,.611,1.92h0a15.042,15.042,0,0,1-.611-1.833v-.087h.087c.7-.349,8.816-.087,9.165.087l.087.087c.087.262-.262.96-.7,1.658a.754.754,0,0,0-.262.524Z" transform="translate(-784.4 -633.6)" fill="#2e3c4b"/>
        </g>
        <g id="Group_321" transform="translate(0.395 46.086)">
          <path id="Path_2112" d="M793.989,702.415c-6.023,0-14.14-.349-14.751-.96-.611-.524-.436-7.943-.262-12.307.175-5.586.611-11.783.873-12.22h0c0-.087.087-.087.436-.175,2.444-.436,16.5-.436,17.282.087.7.436,1.92,10.474,2.182,12.482.524,4.451,1.4,12.045,1.047,12.569-.087.087-.262.175-1.047.262A46.1,46.1,0,0,1,793.989,702.415ZM779.936,677.1a105.226,105.226,0,0,0-.786,12.133c-.262,7.07-.175,11.783.175,12.133.7.611,13.878,1.047,19.2.786a5.788,5.788,0,0,0,2.008-.262c.262-.349-.262-5.848-1.047-12.482-.96-7.768-1.833-12.045-2.095-12.307-.785-.524-16.671-.524-17.457,0Z" transform="translate(-778.673 -676.405)" fill="#2e3c4b"/>
          <path id="Path_2113" d="M793.969,702.5c-5.586,0-14.14-.262-14.838-.96-.611-.524-.524-7.07-.349-12.394.175-4.8.524-11.783.873-12.22a.513.513,0,0,1,.436-.175c3.055-.262,6.2-.349,9.252-.349,1.746,0,7.506.087,8.117.436.7.436,1.92,9.688,2.269,12.482.175,1.222,1.484,11.958,1.047,12.656a1.936,1.936,0,0,1-1.135.349C798.682,702.411,796.587,702.5,793.969,702.5Zm-4.888-25.923a75.918,75.918,0,0,0-8.9.349.9.9,0,0,0-.349.087c-.262.349-.611,5.935-.873,12.133-.262,7.419-.175,11.871.262,12.307.611.524,8.2.873,14.751.873,2.619,0,4.713-.087,5.673-.175a2.082,2.082,0,0,0,.96-.262c.349-.436-.349-6.808-1.047-12.482-.786-5.935-1.746-12.045-2.182-12.394-.349-.349-4.277-.436-8.292-.436Zm4.888,25.749c-6.023,0-14.14-.349-14.751-.873s-.349-9.514-.262-12.22a120.478,120.478,0,0,1,.786-12.133h0c.873-.524,16.759-.524,17.544,0,.349.262,1.222,5.237,2.182,12.307.7,5.761,1.309,12.045,1.047,12.482a5.868,5.868,0,0,1-2.095.349c-1.047,0-2.619.087-4.452.087ZM780,677.1q-.655,6.023-.786,12.045c-.262,7.943-.087,11.783.175,12.045.611.611,13.529,1.047,19.115.786a6.807,6.807,0,0,0,1.92-.262c.175-.262-.175-5.15-1.135-12.394-1.047-8.554-1.833-12.045-2.095-12.22C796.587,676.662,780.963,676.662,780,677.1Z" transform="translate(-778.653 -676.4)" fill="#2e3c4b"/>
        </g>
        <g id="Group_322" transform="translate(17.02 4.888)">
          <rect id="Rectangle_222" width="1.571" height="0.262" transform="translate(0.027 0.517) rotate(-18.459)" fill="#2e3c4b"/>
          <path id="Path_2114" d="M797.787,630.073l-.087-.349,1.571-.524.087.349Zm.087-.262h0l1.309-.349h0Z" transform="translate(-797.7 -629.2)" fill="#2e3c4b"/>
        </g>
        <g id="Group_323" transform="translate(17.457 7.419)">
          <rect id="Rectangle_223" width="2.357" height="0.262" transform="translate(0.087 0.087)" fill="#2e3c4b"/>
          <path id="Path_2115" d="M800.731,632.536H798.2V632.1h2.531Zm-2.357-.175h2.182v-.087l-2.182.087Z" transform="translate(-798.2 -632.1)" fill="#2e3c4b"/>
        </g>
        <g id="Group_324" transform="translate(16.671 9.689)">
          <rect id="Rectangle_224" width="0.262" height="1.135" transform="translate(0.098 0.399) rotate(-63.532)" fill="#2e3c4b"/>
          <path id="Path_2116" d="M798.522,635.66l-1.222-.611.175-.349,1.222.611Zm-.96-.611.873.437h0l-.873-.437Z" transform="translate(-797.3 -634.7)" fill="#2e3c4b"/>
        </g>
        <g id="Group_325" transform="translate(0.524 5.15)">
          <path id="Path_2117" d="M780.3,630.386a9.7,9.7,0,0,1-1.4-.611l.087-.175a8.812,8.812,0,0,0,1.309.611Z" transform="translate(-778.813 -629.513)" fill="#2e3c4b"/>
          <path id="Path_2118" d="M780.371,630.46h0a5.838,5.838,0,0,1-1.484-.611H778.8l.175-.349h.087a8.816,8.816,0,0,0,1.309.611h.087Zm-1.309-.7c.349.175.786.349,1.222.524V630.2a5.046,5.046,0,0,1-1.222-.436Z" transform="translate(-778.8 -629.5)" fill="#2e3c4b"/>
        </g>
        <g id="Group_326" transform="translate(0 7.245)">
          <rect id="Rectangle_225" width="1.658" height="0.262" transform="translate(0.087 0.087)" fill="#2e3c4b"/>
          <path id="Path_2119" d="M780.033,632.336H778.2V631.9h1.833Zm-1.658-.175h1.484v-.087l-1.484.087Z" transform="translate(-778.2 -631.9)" fill="#2e3c4b"/>
        </g>
        <g id="Group_327" transform="translate(0.611 9.339)">
          <path id="Path_2120" d="M778.987,635.011l-.087-.175,1.4-.436.087.175Z" transform="translate(-778.9 -634.313)" fill="#2e3c4b"/>
          <path id="Path_2121" d="M778.987,635.173l-.087-.349,1.484-.524.087.349Zm.087-.262h0l1.222-.349v-.087Z" transform="translate(-778.9 -634.3)" fill="#2e3c4b"/>
        </g>
      </g>
    </g>
    <g id="czopino" transform="translate(672.955 615.328)">
      <g id="Group_328" transform="translate(2.388 16.993)">
        <path id="Path_2122" d="M701.483,693.559c-3.491,0-10.649-.7-11.7-1.484a.321.321,0,0,1-.087-.262h0c0-.524.7-12.744,1.309-23.48.524-8.292.96-16.06.96-16.322a4.575,4.575,0,0,0-.96-.873l-.175-.175a1.909,1.909,0,0,1-.262-.786,5.238,5.238,0,0,1,.175-2.008c.349-.349,8.379-.175,10.911,0,1.484.087,4.015,0,6.2,0,3.317-.087,4.19-.087,4.277.087.175.262,0,1.135-.349,2.357v.087a1.167,1.167,0,0,1-.611.7,2.039,2.039,0,0,0-.611.611c.262,1.92,4.451,39.016,3.579,40.151-.7.96-5.237,1.047-8.816,1.222-1.047,0-2.095.087-2.793.087A3.594,3.594,0,0,1,701.483,693.559Zm-7.157-45.3a14.859,14.859,0,0,0-3.4.175,4.384,4.384,0,0,0-.175,1.833c0,.436.087.7.175.7l.175.087a6.241,6.241,0,0,1,1.047.96c0,.087-.175,3.753-.96,16.409-.611,10.823-1.4,23.043-1.309,23.48a.085.085,0,0,0,.087.087c.96.873,9.689,1.658,12.656,1.4a26.312,26.312,0,0,1,2.793-.087c3.4-.087,8.03-.262,8.728-1.135.7-.96-2.357-29.24-3.579-40.064h0a2.656,2.656,0,0,1,.7-.7,1.174,1.174,0,0,0,.524-.611V650.7a6.344,6.344,0,0,0,.349-2.182,32.17,32.17,0,0,0-4.1,0c-2.182.087-4.713.087-6.2,0-2.095-.174-5.15-.262-7.507-.262Z" transform="translate(-689.613 -647.969)" fill="#2e3c4b"/>
        <path id="Path_2123" d="M701.471,693.652c-3.4,0-10.736-.611-11.7-1.571-.087-.087-.175-.175-.175-.262,0-.524.7-12.656,1.309-23.392v-.175c.436-7.768.96-15.8.96-16.235-.262-.262-.611-.524-.873-.786h-.087l-.087-.087c-.087-.087-.175-.262-.262-.873a3.889,3.889,0,0,1,.262-2.008c.436-.436,9.427-.175,11-.087,1.484.087,3.928,0,6.11,0h.087c3.666-.087,4.19-.087,4.364.087.175.262.087.873-.349,2.444v.087a1.393,1.393,0,0,1-.611.786,2.04,2.04,0,0,0-.611.611c.262,1.92,4.451,39.016,3.579,40.238-.7.96-5.062,1.135-8.9,1.222-.96,0-2.008.087-2.793.087A5.761,5.761,0,0,0,701.471,693.652Zm-11.609-1.571c.873.611,4.888,1.135,8.467,1.309C694.837,693.216,690.735,692.6,689.862,692.081Zm.087-.262h0c.436.436,2.619.786,5.586,1.135a63.915,63.915,0,0,0,7.07.349,27.167,27.167,0,0,1,2.793-.087c3.23-.087,8.03-.262,8.641-1.135.611-.786-1.92-24.963-3.666-39.976v-.174a2.657,2.657,0,0,1,.7-.7c.262-.087.349-.349.436-.611v-.087a5.868,5.868,0,0,0,.349-2.095c-.262-.087-2.357,0-4.015,0-2.182.087-4.713.087-6.2,0-1.92-.087-4.975-.175-7.332-.175-2.88,0-3.317.087-3.317.175a3.941,3.941,0,0,0-.087,1.746,1.486,1.486,0,0,0,.087.611l.175.087h0c.786.611,1.047.786,1.047.96,0,.087-.087,1.746-.96,16.409-.611,10.387-1.4,23.13-1.309,23.567Zm24.178.349Zm-3.491-39.016c.611,4.975,2.88,25.836,3.491,34.914C713.6,680.3,711.858,663.626,710.636,653.152Zm-18.592-1.135c0,.175-.087,2.269-.262,5.5.174-3.928.262-5.412.262-5.5Zm19.639-1.222c-.087.087-.087.175-.262.262q.131,0,.262-.262Zm.436-1.92a14.186,14.186,0,0,1-.349,1.658c.087-.524.262-1.135.349-1.658Zm-7.507-.524h0Zm-13.7,0Z" transform="translate(-689.6 -647.975)" fill="#2e3c4b"/>
      </g>
      <g id="Group_329" transform="translate(7.887 1.309)">
        <path id="Path_2124" d="M702.459,634.888c-1.571,0-6.2-.175-6.459-.7h0c0-.087,0-.175.087-.175.524-.786,5.412-4.015,6.634-4.015h0c1.135.087,5.673,2.968,6.11,4.015a.164.164,0,0,1,0,.262c-.349.524-2.706.524-5.5.611h-.873Zm-6.284-.786c.175.349,3.928.611,6.459.524h.7c2.008,0,4.975,0,5.324-.524v-.087c-.436-.96-4.888-3.841-6.023-3.928a12.091,12.091,0,0,0-3.666,1.746A14.413,14.413,0,0,0,696.175,634.1Z" transform="translate(-695.913 -630)" fill="#2e3c4b"/>
        <path id="Path_2125" d="M702.446,634.975c-.087,0-6.2,0-6.546-.7a.321.321,0,0,1,.087-.262c.524-.873,5.5-4.015,6.721-4.015h0c1.135.087,5.761,3.055,6.2,4.015a.266.266,0,0,1,0,.349c-.436.524-2.619.611-5.5.611h-.96Zm4.626-.349c-.96.087-2.357.087-3.753.087h0c1.222,0,2.706,0,3.753-.087Zm-9.078-.087a28.38,28.38,0,0,0,2.88.175C699.915,634.713,698.868,634.626,697.995,634.539Zm-1.746-.436a31.407,31.407,0,0,0,6.372.524h.7c1.833,0,4.888,0,5.237-.436h0c-.436-.96-4.888-3.753-5.935-3.841h0a10.517,10.517,0,0,0-3.579,1.746A12.6,12.6,0,0,0,696.249,634.1Zm6.546-4.015c1.222.175,5.412,2.88,5.935,3.841-.524-.96-4.713-3.666-5.935-3.841Zm-3.579,1.571c-.436.262-.873.611-1.309.873.349-.262.7-.436,1.047-.7Zm3.4-1.571Z" transform="translate(-695.9 -630)" fill="#2e3c4b"/>
      </g>
      <g id="Group_330" transform="translate(7.974 5.499)">
        <rect id="Rectangle_226" width="0.175" height="7.419" transform="translate(0.112 0.069) rotate(-0.656)" fill="#2e3c4b"/>
        <path id="Path_2126" d="M696.087,642.394h0L696,634.8h.349v.087l.087,7.506Z" transform="translate(-696 -634.8)" fill="#2e3c4b"/>
      </g>
      <g id="Group_331" transform="translate(20.63 5.412)">
        <rect id="Rectangle_227" width="0.175" height="7.419" transform="translate(0.026 0.073) rotate(-0.688)" fill="#2e3c4b"/>
        <path id="Path_2127" d="M710.587,642.294h0L710.5,634.7h.349v.087l.087,7.506Z" transform="translate(-710.5 -634.7)" fill="#2e3c4b"/>
      </g>
      <g id="Group_332" transform="translate(3.37 15.022)">
        <path id="Path_2128" d="M712.375,648.077H712.2a3.565,3.565,0,0,0,.087-1.658c-.175-.087-3.666,0-6.2,0h-3.753a14.551,14.551,0,0,1-1.658-.087c-2.706-.087-9.078-.349-9.514-.175a6.448,6.448,0,0,0,0,1.833h-.175a7.729,7.729,0,0,1,0-2.008c.087-.175,1.658-.175,9.688.087.786,0,1.4.087,1.658.087h3.753q3.142-.131,6.285,0C712.637,646.419,712.462,647.553,712.375,648.077Z" transform="translate(-690.751 -645.73)" fill="#2e3c4b"/>
        <path id="Path_2129" d="M712.35,648.145l-.349-.087v-.087a9.624,9.624,0,0,0,.175-1.571c-.436-.087-3.841,0-6.11,0h-3.84a11.412,11.412,0,0,1-1.484-.087h-.175c-2.444-.087-8.728-.349-9.427-.175v1.833h-.349v-.087a7.721,7.721,0,0,1,0-2.008c.087-.175.611-.262,9.776,0,.786,0,1.4.087,1.658.087h3.753c5.062-.087,6.2-.087,6.372.087s.175.786,0,1.92Zm-.087-.175h0c.087-.437.087-.786.175-1.222-.087.437-.087.786-.175,1.222Zm-21.3-1.833h0a5.856,5.856,0,0,0,0,1.746v-1.746Zm8.728.087h0Z" transform="translate(-690.725 -645.711)" fill="#2e3c4b"/>
      </g>
      <g id="Group_333" transform="translate(4.657 18.941)">
        <path id="Path_2130" d="M695.53,652.993h-1.222v-.087a4.017,4.017,0,0,0-.436-1.92.454.454,0,0,0-.349-.175c-.786,0-1.047,1.4-1.047,1.4H692.3c0-.087.262-1.571,1.222-1.571a.666.666,0,0,1,.436.175,3.737,3.737,0,0,1,.524,1.92h.96c0-.436.262-2.095,1.222-2.269a.641.641,0,0,1,.524.175,3.4,3.4,0,0,1,.611,2.008l.96-.087a3.859,3.859,0,0,1,.175-1.746.662.662,0,0,1,.349-.175c.786,0,1.047,1.4,1.135,1.746h.7a3.435,3.435,0,0,1,.524-1.833.641.641,0,0,1,.524-.175c.524.087.524,1.4.524,1.833l1.222.087c0-.436.175-1.92,1.135-2.008a1.24,1.24,0,0,1,.524.175,3.58,3.58,0,0,1,.611,1.92h.611c0-.436.175-2.095.873-2.095s.96,1.571,1.047,2.008h.96c0-.7.087-2.095.524-2.095h0c.7,0,.96,1.571.96,1.746h-.175c-.087-.436-.349-1.571-.786-1.658h0a5.121,5.121,0,0,0-.349,2.008v.087h-1.309v-.087c-.087-.786-.436-2.008-.873-1.92s-.611,1.222-.7,2.008v.087H706v-.087a3.46,3.46,0,0,0-.524-1.92.662.662,0,0,0-.349-.175c-.873.087-.96,1.92-.96,1.92v.087l-1.571-.175v-.087c0-.7-.087-1.746-.349-1.746a.48.48,0,0,0-.436.175c-.524.436-.524,1.746-.524,1.746v.087l-.96-.087v-.087c-.087-.436-.349-1.658-.96-1.658a.321.321,0,0,0-.262.087c-.349.436-.175,1.658-.175,1.658v.087l-1.309.087v-.087s0-1.484-.524-1.92c-.087-.087-.262-.175-.349-.087-.96.611-1.135,2.619-1.222,2.706Z" transform="translate(-692.213 -650.2)" fill="#2e3c4b"/>
        <path id="Path_2131" d="M695.691,653.106h-1.484v-.175a3.356,3.356,0,0,0-.436-1.833.321.321,0,0,0-.262-.087c-.7,0-.96,1.309-.96,1.4v.087l-.349-.087v-.087c0-.087.262-1.658,1.309-1.658a.754.754,0,0,1,.524.262,3.738,3.738,0,0,1,.524,1.92h.786c.087-.611.349-2.095,1.309-2.269a.831.831,0,0,1,.611.175,2.975,2.975,0,0,1,.611,1.92h.786a2.966,2.966,0,0,1,.262-1.746c.087-.175.262-.175.436-.175.786,0,1.135,1.309,1.222,1.746h.524a2.516,2.516,0,0,1,.611-1.746.54.54,0,0,1,.611-.175c.524.087.611,1.135.611,1.833l1.047.087c.087-.524.262-1.92,1.135-2.008a.935.935,0,0,1,.524.175,3.58,3.58,0,0,1,.611,1.92h.436c.087-.7.262-2.095.96-2.095h0c.611,0,.96,1.4,1.047,2.008h.873c.087-1.4.262-2.095.611-2.095.786,0,.96,1.571,1.047,1.833v.087l-.349.087v-.087c-.087-.611-.349-1.484-.7-1.571a6.807,6.807,0,0,0-.262,1.92v.175h-1.484v-.175c-.175-.873-.524-1.833-.786-1.833h0c-.262,0-.524,1.047-.611,1.92v.175H705.9v-.175s0-1.4-.524-1.833a.321.321,0,0,0-.262-.087c-.786,0-.873,1.746-.873,1.833v.175l-1.746-.175v-.175c0-.873-.087-1.658-.262-1.658a.525.525,0,0,0-.349.087,3.424,3.424,0,0,0-.524,1.746v.175l-1.135-.087v-.175c-.087-.611-.436-1.571-.873-1.571-.087,0-.175,0-.175.087-.262.349-.175,1.309-.175,1.571v.175l-1.484.087v-.175c0-.436-.087-1.484-.524-1.833-.087-.087-.175-.087-.349-.087-.873.087-.96,2.095-.96,2.095Zm-.175-.175Zm-1.135,0h0v0Zm3.23-.087Zm1.135-.087Zm7.943,0Zm-.786,0Zm1.135-1.658a5.1,5.1,0,0,0-.349,1.571h0a10.15,10.15,0,0,1,.349-1.571Zm2.531,1.571Zm-1.135,0Zm-2.88-1.746a3.973,3.973,0,0,1,.436,1.746,6.4,6.4,0,0,0-.436-1.746Zm-4.364,1.746Zm2.793,0Zm5.761-1.4a6.608,6.608,0,0,0-.087,1.309h0a3.43,3.43,0,0,1,.087-1.309Zm-9.427,1.4Zm3.753-.873a2.169,2.169,0,0,0-.087.7c0-.175.087-.437.087-.7Zm-4.539-.873c.524.262.7,1.222.786,1.571-.087-.262-.262-1.309-.786-1.571Zm2.968.349a4.978,4.978,0,0,1,.087,1.135,4.612,4.612,0,0,0-.087-1.135Zm8.03-.175a5.653,5.653,0,0,1,.349,1.135h0a4.323,4.323,0,0,0-.349-1.135Zm-9.165.436c0,.175-.087.262-.087.437a.786.786,0,0,1,.087-.437Zm-2.269-.611a.085.085,0,0,0-.087.087.085.085,0,0,1,.087-.087Zm10.911-.262h0Z" transform="translate(-692.2 -650.226)" fill="#2e3c4b"/>
      </g>
      <g id="Group_334" transform="translate(12.574 57.411)">
        <path id="Path_2132" d="M701.4,699.362c0-.175-.262-3.4.873-4.626a1.659,1.659,0,0,1,1.135-.436c.96.087,1.658.96,2.008,2.531a7.177,7.177,0,0,1,.175,2.357h-.175c0-.087.087-4.626-2.095-4.713a1.313,1.313,0,0,0-.96.349c-1.135,1.135-.873,4.452-.873,4.452Z" transform="translate(-701.283 -694.278)" fill="#2e3c4b"/>
        <path id="Path_2133" d="M701.3,699.447h0c0-.262-.262-3.579.873-4.713a1.136,1.136,0,0,1,1.135-.436q1.571.131,2.095,2.619a10.835,10.835,0,0,1,.262,2.357v.087h-.349v-.087c0-.087.087-4.539-2.008-4.626a1.012,1.012,0,0,0-.873.349c-1.047,1.135-.786,4.364-.786,4.364v.087Zm.873-4.364c-.786,1.135-.7,3.491-.7,4.1,0-.611-.087-2.968.7-4.1Z" transform="translate(-701.27 -694.275)" fill="#2e3c4b"/>
      </g>
      <g id="Group_335" transform="translate(7.071 47.395)">
        <path id="Path_2134" d="M696.928,685.431H695.1v-.087a3.857,3.857,0,0,1,.349-2.182.622.622,0,0,1,.524-.262,1.24,1.24,0,0,1,.524.175,4.365,4.365,0,0,1,.436,2.357Zm-1.658-.175h1.484c0-.349.087-1.571-.349-2.008a.662.662,0,0,0-.349-.175.48.48,0,0,0-.436.262,2.84,2.84,0,0,0-.349,1.92Z" transform="translate(-694.978 -682.813)" fill="#2e3c4b"/>
        <path id="Path_2135" d="M697,685.506H695v-.175a3.115,3.115,0,0,1,.436-2.182,1.407,1.407,0,0,1,.611-.349,1.617,1.617,0,0,1,.611.175c.611.611.436,2.269.436,2.357Zm-1.658-1.92a5.371,5.371,0,0,0-.175,1.658h0A3.608,3.608,0,0,1,695.345,683.586Zm0,1.571h1.309a3.035,3.035,0,0,0-.349-1.92c-.087-.087-.175-.087-.349-.087a.453.453,0,0,0-.349.175,3.37,3.37,0,0,0-.262,1.833Zm1.309-1.658a3.618,3.618,0,0,1,.175,1.4,3.849,3.849,0,0,0-.175-1.4Zm-.436-.524Z" transform="translate(-694.965 -682.8)" fill="#2e3c4b"/>
      </g>
      <g id="Group_336" transform="translate(20.977 50.014)">
        <path id="Path_2136" d="M712.92,688.868H711v-.087c0-.262-.087-2.88.873-2.88.175,0,.262.087.436.175.611.611.611,2.619.611,2.706Zm-1.833-.175h1.571a5.289,5.289,0,0,0-.524-2.531.321.321,0,0,0-.262-.087c-.7,0-.786,1.833-.786,2.619Z" transform="translate(-710.911 -685.813)" fill="#2e3c4b"/>
        <path id="Path_2137" d="M712.995,688.942H710.9v-.175c0-.524-.087-2.968.96-2.968a.666.666,0,0,1,.436.175c.611.611.611,2.706.611,2.793Zm-1.4-2.88c-.524.349-.611,1.658-.611,2.531,0-.436.087-2.182.611-2.531Zm-.436,2.531h1.4a3.763,3.763,0,0,0-.524-2.357.27.27,0,0,0-.175-.087c-.524,0-.7,1.4-.7,2.444Zm1.484-1.484a7.687,7.687,0,0,1,.175,1.484c-.087-.524-.087-1.047-.175-1.484Z" transform="translate(-710.898 -685.8)" fill="#2e3c4b"/>
      </g>
      <g id="Group_337" transform="translate(7.014 27.756)">
        <path id="Path_2138" d="M697.182,663.63H695v-.087c0-.087.087-2.444.7-2.968a.661.661,0,0,1,.349-.175c.873.087,1.135,2.793,1.135,3.142Zm-2.008-.174h1.746c-.087-.873-.349-2.793-.96-2.88a.321.321,0,0,0-.262.087c-.436.436-.524,2.357-.524,2.793Z" transform="translate(-694.913 -660.313)" fill="#2e3c4b"/>
        <path id="Path_2139" d="M697.257,663.7H694.9v-.175c0-.087.087-2.444.7-3.055a.667.667,0,0,1,.436-.175c.96.087,1.135,2.706,1.222,3.23Zm-2.008-.349h1.571c-.087-1.309-.436-2.619-.873-2.706-.087,0-.087,0-.175.087a7.521,7.521,0,0,0-.524,2.619Zm1.135-2.531a8.27,8.27,0,0,1,.611,2.531,5.166,5.166,0,0,0-.611-2.531Zm-.436-.349c-.087,0-.087,0-.175.087.087-.087.087-.087.175-.087Z" transform="translate(-694.9 -660.3)" fill="#2e3c4b"/>
      </g>
      <g id="Group_338" transform="translate(19.789 30.55)">
        <path id="Path_2140" d="M711.425,666.742h-1.833v-.087c0-.087-.262-2.269.349-2.88a.936.936,0,0,1,.524-.175c1.135.262.96,2.968.96,3.142Zm-1.658-.175h1.484c0-.436.087-2.531-.786-2.706a.525.525,0,0,0-.349.087c-.524.436-.349,2.182-.349,2.619Z" transform="translate(-709.536 -663.513)" fill="#2e3c4b"/>
        <path id="Path_2141" d="M711.513,666.817h-1.92v-.175c0-.262-.262-2.357.436-2.968a.641.641,0,0,1,.524-.175c1.222.175,1.047,2.793,1.047,3.055Zm-.175-1.222v.96h0v-.96Zm-1.658,0a3.58,3.58,0,0,0,.087.96h0A2.715,2.715,0,0,1,709.68,665.595Zm.175.873h1.309c.087-1.135-.087-2.444-.786-2.531a.321.321,0,0,0-.262.087C709.768,664.286,709.768,665.508,709.855,666.468Zm.524-2.706a.321.321,0,0,0-.262.087.321.321,0,0,1,.262-.087Z" transform="translate(-709.537 -663.5)" fill="#2e3c4b"/>
      </g>
      <g id="Group_339" transform="translate(9.196 5.761)">
        <rect id="Rectangle_228" width="0.175" height="6.983" transform="translate(0.105 0.091) rotate(-2.556)" fill="#2e3c4b"/>
        <path id="Path_2142" d="M697.749,642.257h0L697.4,635.1h.349v.087l.349,7.07Z" transform="translate(-697.4 -635.1)" fill="#2e3c4b"/>
      </g>
      <g id="Group_340" transform="translate(11.256 6.088)">
        <rect id="Rectangle_229" width="6.808" height="0.175" transform="translate(0.106 6.88) rotate(-88.552)" fill="#2e3c4b"/>
        <rect id="Rectangle_230" width="6.983" height="0.349" transform="translate(0 6.981) rotate(-88.625)" fill="#2e3c4b"/>
      </g>
      <g id="Group_341" transform="translate(13.385 5.935)">
        <rect id="Rectangle_231" width="0.175" height="6.895" transform="translate(0.072 0.19) rotate(-1.838)" fill="#2e3c4b"/>
        <path id="Path_2143" d="M702.462,642.37h0l-.262-7.07h.349v.087l.262,6.983Z" transform="translate(-702.2 -635.3)" fill="#2e3c4b"/>
      </g>
      <g id="Group_342" transform="translate(15.917 6.023)">
        <rect id="Rectangle_232" width="0.175" height="6.721" transform="translate(0.087 0.087)" fill="#2e3c4b"/>
        <rect id="Rectangle_233" width="0.349" height="6.895" fill="#2e3c4b"/>
      </g>
      <g id="Group_343" transform="translate(17.313 5.935)">
        <rect id="Rectangle_234" width="0.175" height="6.808" transform="translate(0.123 0.111) rotate(-1.244)" fill="#2e3c4b"/>
        <path id="Path_2144" d="M706.875,642.283h0L706.7,635.3h.349v.087l.175,6.9Z" transform="translate(-706.7 -635.3)" fill="#2e3c4b"/>
      </g>
      <g id="Group_344" transform="translate(18.615 5.85)">
        <rect id="Rectangle_235" width="0.175" height="6.808" transform="matrix(0.997, -0.077, 0.077, 0.997, 0.093, 0.104)" fill="#2e3c4b"/>
        <rect id="Rectangle_236" width="0.349" height="6.983" transform="translate(0 0.027) rotate(-4.445)" fill="#2e3c4b"/>
      </g>
      <g id="Group_345" transform="translate(13.822)">
        <path id="Path_2145" d="M703.324,629.984a.321.321,0,0,1-.262-.087c-.175-.087-.175-.349-.262-.7a.675.675,0,0,1,.611-.7h0c.436.087.786.087.786.611q0,.655-.786.786C703.5,629.984,703.411,629.984,703.324,629.984Zm.175-1.309a.54.54,0,0,0-.524.524c0,.262.087.524.175.524s.175.087.349,0c.436-.087.611-.262.611-.611C704.2,628.849,704.022,628.762,703.5,628.675Z" transform="translate(-702.713 -628.5)" fill="#2e3c4b"/>
        <path id="Path_2146" d="M703.311,630.071a.66.66,0,0,1-.349-.087c-.175-.175-.175-.349-.262-.7a.713.713,0,0,1,.7-.786h0c.436.087.873.175.873.7s-.262.786-.873.873Zm.175-1.309a.454.454,0,0,0-.436.436c0,.175.087.436.087.524h.262c.436-.087.524-.262.524-.524C704.1,628.936,704.009,628.849,703.486,628.762Zm-.524.873v.087c.087,0,.087-.087,0-.087Z" transform="translate(-702.7 -628.5)" fill="#2e3c4b"/>
      </g>
      <g id="Group_346" transform="translate(24.732 4.539)">
        <path id="Path_2147" d="M715.387,635.109l-.087-.175,4.1-1.135.087.175Z" transform="translate(-715.213 -633.713)" fill="#2e3c4b"/>
        <path id="Path_2148" d="M715.287,635.184l-.087-.349h.087l4.19-1.135.087.349h-.087Z" transform="translate(-715.2 -633.7)" fill="#2e3c4b"/>
      </g>
      <g id="Group_347" transform="translate(26.478 8.641)">
        <rect id="Rectangle_237" width="2.444" height="0.175" transform="translate(0.087 0.087)" fill="#2e3c4b"/>
        <rect id="Rectangle_238" width="2.619" height="0.349" fill="#2e3c4b"/>
      </g>
      <g id="Group_348" transform="translate(25.344 10.979)">
        <rect id="Rectangle_239" width="0.175" height="2.619" transform="matrix(0.456, -0.89, 0.89, 0.456, 0.071, 0.257)" fill="#2e3c4b"/>
        <rect id="Rectangle_240" width="0.349" height="2.793" transform="matrix(0.456, -0.89, 0.89, 0.456, 0, 0.311)" fill="#2e3c4b"/>
      </g>
      <g id="Group_349" transform="translate(0.991 4.277)">
        <path id="Path_2149" d="M691.068,635.158a31.162,31.162,0,0,0-2.968-1.484l.087-.175a31.351,31.351,0,0,1,2.968,1.484Z" transform="translate(-688.013 -633.413)" fill="#2e3c4b"/>
        <path id="Path_2150" d="M691.055,635.32h0a33.1,33.1,0,0,0-2.968-1.571H688v-.087l.087-.262.087.087a31.351,31.351,0,0,1,2.968,1.484l.087.087Z" transform="translate(-688 -633.4)" fill="#2e3c4b"/>
      </g>
      <g id="Group_350" transform="translate(0.555 8.292)">
        <path id="Path_2151" d="M687.6,638.449v-.175l3.229-.175v.175Z" transform="translate(-687.513 -638.013)" fill="#2e3c4b"/>
        <path id="Path_2152" d="M687.5,638.524v-.349h.087L690.9,638v.349h-.087Zm.175-.175,3.055-.175Z" transform="translate(-687.5 -638)" fill="#2e3c4b"/>
      </g>
      <g id="Group_351" transform="translate(0 11.573)">
        <rect id="Rectangle_241" width="2.793" height="0.175" transform="matrix(0.904, -0.427, 0.427, 0.904, 0.133, 1.307)" fill="#2e3c4b"/>
        <rect id="Rectangle_242" width="2.968" height="0.349" transform="translate(0 1.27) rotate(-25.335)" fill="#2e3c4b"/>
      </g>
      <g id="Group_352" transform="translate(7.906 12.63)">
        <path id="Path_2153" d="M709.183,647.8h0a35.768,35.768,0,0,0-.175-4.364c-.175-.262-3.666-.262-6.372-.087-1.222.087-2.357,0-3.579,0a7.461,7.461,0,0,0-2.706.087c-.262.436-.087,3.142,0,4.1,0,.087,0,.087-.087.087s-.087,0-.087-.087c0-.175-.349-3.579,0-4.277.175-.262,1.047-.262,2.88-.175a23.31,23.31,0,0,0,3.491,0c.087,0,6.284-.349,6.546.175a24.311,24.311,0,0,1,.087,4.364C709.27,647.709,709.27,647.8,709.183,647.8Z" transform="translate(-695.935 -642.969)"/>
        <path id="Path_2154" d="M709.17,647.893h0c-.087,0-.087,0-.087-.087l-.087-.087a22.421,22.421,0,0,0-.087-4.19,26.706,26.706,0,0,0-6.284,0c-1.222.087-2.357,0-3.579,0a13.126,13.126,0,0,0-2.619,0c-.262.436-.087,2.706,0,4.1v.087a.164.164,0,0,1-.262,0l-.087-.087c0-.349-.349-3.666,0-4.277.175-.349,1.047-.262,2.968-.175a23.31,23.31,0,0,0,3.491,0c1.92-.087,6.372-.349,6.634.175a37.226,37.226,0,0,1,.175,4.364A.188.188,0,0,1,709.17,647.893Zm0-.175ZM696.077,645.1a18.582,18.582,0,0,0,.175,2.357C696.252,647.194,696.165,646.147,696.077,645.1Zm13.093-.262v0Zm-.087-1.484a2.417,2.417,0,0,1,.087.786,2.417,2.417,0,0,0-.087-.786Zm-11.522-.175h0Z" transform="translate(-695.922 -642.978)" fill="#2e3c4b"/>
      </g>
    </g>
  </g>
</svg>
