<svg xmlns="http://www.w3.org/2000/svg" width="300.059" height="321.916" viewBox="0 0 300.059 321.916">
  <g id="Group_388" data-name="Group 388" transform="translate(-577.475 -524.898)">
    <g id="CIEKAWOSTKA" transform="translate(577.475 524.898)">
      <path id="Path_1283" data-name="Path 1283" d="M589.68,539.93c18.444-23.006,260.518-16.846,274.255,0s19.892,268.3,4.849,289-265.162,23.718-279.106,7.514S571.237,562.935,589.68,539.93Z" transform="translate(-577.475 -524.898)" fill="#e5a34c"/>
      <g id="CIEKAWOSTKA-2" transform="translate(86.033 23.293)" style="isolation: isolate">
        <text id="CIEKAWOSTKA-2-2" data-name="CIEKAWOSTKA" transform="translate(0 15)" fill="#2e3c4b" font-size="19" font-family="SulphurPoint-Bold, Sulphur Point" font-weight="700" letter-spacing="0.025em" style="isolation: isolate"><tspan x="0" y="0">CIEKAWOSTKA</tspan></text>
      </g>
      <rect id="Rectangle_45" data-name="Rectangle 45" width="10.794" height="2.159" transform="translate(139.375 44.882)" fill="#ae4426"/>
      <g id="Group_181" data-name="Group 181" transform="translate(67.187 63.238)">
        <path id="Path_1327" data-name="Path 1327" d="M665.918,638.772c4.77-13.045,15.984-39.937,37.754-40.419s81.557-2.594,96.745,15.609,17.874,32.4,15.634,61.106-9.944,45.376-19.024,60.649-47.733,27.043-82.472,25.689-60.043-21.949-59.369-50.139,12.824-31.956,10.729-44.2S661.148,651.817,665.918,638.772Z" transform="translate(-655.173 -598.028)" fill="#f2edeb"/>
      </g>
      <text id="Przy_latarni_w_Niechorzu_można_odwiedzić_Park_Miniatur_Latarni_Morskich" data-name="Przy latarni w Niechorzu
można odwiedzić 
Park Miniatur Latarni Morskich" transform="translate(142.295 250.328)" fill="#2e3c4b" font-size="17" font-family="ClarikaProGeo-Th, Clarika Pro Geometric" letter-spacing="0.025em" style="isolation: isolate"><tspan x="-89.419" y="0">Przy latarni w Niechorzu</tspan><tspan x="-67.458" y="20">można odwiedzić </tspan><tspan font-family="ClarikaProGeo-Dm, Clarika Pro Geometric"><tspan x="-124.26" y="40">Park Miniatur</tspan><tspan y="40" font-family="ClarikaProGeo-Md, Clarika Pro Geometric" font-weight="500"> </tspan><tspan y="40">Latarni Morskich</tspan></tspan></text>
    </g>
    <g id="Group_298" data-name="Group 298" transform="translate(695.859 636.904)">
      <g id="niechorze">
        <rect id="Rectangle_211" data-name="Rectangle 211" width="2.704" height="0.276" transform="translate(35.724 7.296) rotate(-32.646)" fill="#2e3c4b"/>
        <rect id="Rectangle_212" data-name="Rectangle 212" width="1.46" height="0.276" transform="translate(37.608 10.427)" fill="#2e3c4b"/>
        <rect id="Rectangle_213" data-name="Rectangle 213" width="0.276" height="2.186" transform="translate(36.222 13.269) rotate(-71.434)" fill="#2e3c4b"/>
        <rect id="Rectangle_214" data-name="Rectangle 214" width="0.276" height="1.766" transform="matrix(0.413, -0.911, 0.911, 0.413, 18.286, 6.809)" fill="#2e3c4b"/>
        <rect id="Rectangle_215" data-name="Rectangle 215" width="2.322" height="0.276" transform="translate(16.826 10.194)" fill="#2e3c4b"/>
        <rect id="Rectangle_216" data-name="Rectangle 216" width="1.557" height="0.276" transform="translate(16.795 13.701) rotate(-12.971)" fill="#2e3c4b"/>
        <path id="Path_2050" data-name="Path 2050" d="M744.894,724.589h-.2c-.059,0-5.935-.079-6.233-.741-.581-1.3-.187-40.626.02-42.952.013-.154.054-.623,4.394-.756.08,0,7.974-.2,8.116.747.174,1.154.542,20.3.542,22.213,0,.387.013,1.27.032,2.465.2,13.017.091,18.213-.389,18.534C750.57,724.5,747.45,724.589,744.894,724.589Zm-6.14-43.661c-.32,3.66-.536,41.707-.042,42.807.254.346,4.378.578,5.981.578h.2c4.925,0,5.923-.31,6.124-.444.539-.605.341-13.46.266-18.3-.018-1.2-.031-2.081-.031-2.47,0-2.54-.379-21.106-.54-22.172-.151-.256-2.493-.54-6.015-.54h-.073C741.16,680.393,738.925,680.666,738.753,680.928Z" transform="translate(-717.595 -657.902)" fill="#2e3c4b"/>
        <path id="Path_2051" data-name="Path 2051" d="M747.474,735.361c-3.967,0-9.259-.246-10.332-.614-.182-.062-.277-.132-.308-.227-.257-.769,1.272-3.647,1.447-3.973l.243.131c-.639,1.189-1.593,3.261-1.428,3.755.2.214,2.781.5,7.316.613,4.24.1,7.146-.022,7.406-.2.438-.291-.337-2.508-1.028-3.987l.251-.117c.294.631,1.723,3.806.93,4.334A18.727,18.727,0,0,1,747.474,735.361Z" transform="translate(-717.412 -664.723)" fill="#2e3c4b"/>
        <path id="Path_2052" data-name="Path 2052" d="M724.5,746.229c-4.795,0-9.585-.06-9.947-.181h0a.256.256,0,0,1-.17-.221c-.115-.86,3.158-5.219,3.809-5.654.837-.559,15.148-1.208,15.785-1,.675.226,1.111,3.616,1.048,5.252-.038,1-.224,1.535-.569,1.621C733.98,746.171,729.237,746.229,724.5,746.229Zm-9.845-.438c.914.233,18.79.229,19.733-.007.151-.038.324-.416.361-1.364.081-2.132-.508-4.862-.86-4.98-.879-.293-14.969.58-15.543.963C717.368,741.054,714.555,745.352,714.654,745.791Z" transform="translate(-714.379 -665.885)" fill="#2e3c4b"/>
        <path id="Path_2053" data-name="Path 2053" d="M757.665,746.567c-2.209,0-3.651-.083-3.95-.307-.711-.533-.936-2.96-.987-3.691-.072-1-.1-2.786.238-3.126h0c.534-.534,15.04-.55,15.838-.017.542.361,3.807,6.281,3.513,6.787a.164.164,0,0,1-.225.06c-.227-.073-2.806.009-5.536.1C763.049,746.479,759.947,746.567,757.665,746.567Zm-4.508-6.926a7.172,7.172,0,0,0-.155,2.908c.13,1.817.474,3.187.878,3.489.579.435,7.853.2,12.667.054,3.391-.107,4.99-.15,5.5-.1-.245-.921-2.774-5.921-3.4-6.336C768,739.219,753.841,739.207,753.158,739.641Z" transform="translate(-719.56 -665.871)" fill="#2e3c4b"/>
        <path id="Path_2054" data-name="Path 2054" d="M726.328,763.84a84.9,84.9,0,0,1-9.417-.566c-.745-.248-1.211-11.415-1.378-16.2l.276-.01c.206,5.921.716,15.489,1.21,15.962a79.058,79.058,0,0,0,10.672.476,115.984,115.984,0,0,1,13.028,0,133.45,133.45,0,0,0,14.146-.489,43.824,43.824,0,0,1,4.7-.049c2.612.035,6.191.084,6.494-.16.24-.246.189-3.079.157-4.955a29.915,29.915,0,0,1,.049-3.783c.237-1.187-.484-6.509-.491-6.562l.273-.038c.03.221.735,5.422.488,6.654a30.59,30.59,0,0,0-.043,3.724c.053,3.007.063,4.855-.239,5.157-.28.28-2.2.3-6.691.239a46.285,46.285,0,0,0-4.638.044,134.393,134.393,0,0,1-14.245.49,115.268,115.268,0,0,0-12.916,0A8.244,8.244,0,0,1,726.328,763.84Z" transform="translate(-714.535 -666.957)" fill="#2e3c4b"/>
        <path id="Path_2055" data-name="Path 2055" d="M737.962,751.03c-.012-.29-.253-7.13,2.914-10.429a5.447,5.447,0,0,1,4.077-1.708c6.91,0,6.99,10.8,6.99,10.907h-.276c0-.106-.08-10.631-6.715-10.631a5.178,5.178,0,0,0-3.877,1.623c-3.086,3.213-2.841,10.156-2.838,10.226Z" transform="translate(-717.568 -665.852)" fill="#2e3c4b"/>
        <path id="Path_2056" data-name="Path 2056" d="M750.842,680.323l-.211-.178a6.967,6.967,0,0,0,1.259-1.914,6.043,6.043,0,0,0-.054-2.313c-.31-.31-4.205-.476-7.714-.476-.091,0-.258,0-.481-.008-5.043-.1-5.914.226-5.982.43a8.848,8.848,0,0,0-.009,2.463,9.787,9.787,0,0,0,.964,1.832l-.231.151a9.788,9.788,0,0,1-1-1.917,8.933,8.933,0,0,1,.016-2.617c.176-.525,1.985-.7,6.25-.619.22,0,.385.008.475.008,1.228,0,7.379.027,7.909.558.271.27.254,1.133.134,2.532A7.231,7.231,0,0,1,750.842,680.323Z" transform="translate(-717.478 -657.228)" fill="#2e3c4b"/>
        <rect id="Rectangle_217" data-name="Rectangle 217" width="0.276" height="26.376" transform="translate(20.394 70.055)" fill="#2e3c4b"/>
        <path id="Path_2057" data-name="Path 2057" d="M754.047,762.011c-.016-.325-.39-7.978-.39-8.949v-7.288c-1.206-1.39-.989-9.565-.979-9.916l.275.008c-.084,2.966.005,8.821.939,9.756l.041.041v7.4c0,.964.386,8.857.389,8.936Z" transform="translate(-719.557 -665.442)" fill="#2e3c4b"/>
        <path id="Path_2058" data-name="Path 2058" d="M745.284,657.376c-.01-.111-.245-2.7-.245-2.95h.276c0,.188.16,1.995.244,2.924Z" transform="translate(-718.526 -654.426)" fill="#2e3c4b"/>
        <path id="Path_2059" data-name="Path 2059" d="M743.382,670.733l-.195-.2a64.258,64.258,0,0,0-.064-6.637l.276-.011C743.5,666.338,743.632,670.484,743.382,670.733Z" transform="translate(-718.267 -655.706)" fill="#2e3c4b"/>
        <path id="Path_2060" data-name="Path 2060" d="M747.326,670.716c-.25-.25-.133-4.465-.041-6.956l.276.01a61.761,61.761,0,0,0-.027,6.768Z" transform="translate(-718.815 -655.689)" fill="#2e3c4b"/>
        <path id="Path_2061" data-name="Path 2061" d="M745.663,749.757a1.9,1.9,0,0,1-.6-.141,1.2,1.2,0,0,0-.253-.075.2.2,0,0,1-.171-.112,10.3,10.3,0,0,1-.442-4h0c.168-.334,1.148-.5,1.5-.412.206.048.228.176.228.228s.029.306.064.6a13.114,13.114,0,0,1,.166,3.62A.506.506,0,0,1,745.663,749.757Zm-.8-.489a1.6,1.6,0,0,1,.294.087c.357.129.641.209.752-.015a16.554,16.554,0,0,0-.193-3.464c-.037-.319-.058-.5-.064-.591a1.857,1.857,0,0,0-.792.064c-.289.076-.4.163-.417.2A11.154,11.154,0,0,0,744.86,749.268Z" transform="translate(-718.401 -666.677)" fill="#2e3c4b"/>
        <path id="Path_2062" data-name="Path 2062" d="M746.59,761.107c-1.851,0-1.851-.24-1.851-.382,0-.044-.009-.206-.02-.441-.145-3-.1-3.665.037-3.8l.041-.043.08-.01c.055,0,.174-.017.3-.036.567-.084,1.054-.136,1.266.076a14.378,14.378,0,0,1,.313,4.516A.179.179,0,0,1,746.59,761.107Zm-1.576-.418a4.486,4.486,0,0,0,1.5.142,17.042,17.042,0,0,0-.273-4.176c-.125-.125-.733-.035-1.026.007-.105.016-.2.029-.265.035a23.911,23.911,0,0,0,.044,3.572C745,760.469,745.012,760.618,745.014,760.689Z" transform="translate(-718.471 -668.209)" fill="#2e3c4b"/>
        <path id="Path_2063" data-name="Path 2063" d="M721.848,754.735a2.089,2.089,0,0,1-1.123-.2c-.257-.257-.108-2.762.4-4,.243-.588.552-.886.917-.886a1.118,1.118,0,0,1,.941.63,7.447,7.447,0,0,1,.651,3.976c-.1.2-.389.335-.885.415A5.962,5.962,0,0,1,721.848,754.735Zm-.923-.391a4.321,4.321,0,0,0,1.9.033c.459-.091.552-.211.569-.246a7.5,7.5,0,0,0-.678-3.767.824.824,0,0,0-.668-.438c-.179,0-.35.136-.508.4A8.361,8.361,0,0,0,720.925,754.344Z" transform="translate(-715.22 -667.307)" fill="#2e3c4b"/>
        <path id="Path_2064" data-name="Path 2064" d="M730.153,754.97a2.815,2.815,0,0,1-.65-.061.487.487,0,0,1-.371-.259c-.142-.368-.323-3.483.429-4.584a.83.83,0,0,1,.689-.416h0c.407,0,.77.421,1.076,1.251.44,1.194.811,3.611.583,3.8A5.035,5.035,0,0,1,730.153,754.97Zm.1-5.044a.563.563,0,0,0-.464.295c-.689,1.011-.529,3.99-.4,4.328.007.016.041.046.116.072a5.626,5.626,0,0,0,2.2-.118,10.055,10.055,0,0,0-1.038-4.3.57.57,0,0,0-.418-.279Z" transform="translate(-716.357 -667.307)" fill="#2e3c4b"/>
        <path id="Path_2065" data-name="Path 2065" d="M722.1,762.47a2.484,2.484,0,0,1-1.245-.189,6.806,6.806,0,0,1,.2-3.781,1.257,1.257,0,0,1,1.1-.913h0a1.066,1.066,0,0,1,.922.639,7.754,7.754,0,0,1,.694,3.954c-.05.087-.177.186-.736.247C722.828,762.449,722.467,762.47,722.1,762.47Zm.066-4.607a.874.874,0,0,0-.741.516,6.8,6.8,0,0,0-.358,3.728,6.17,6.17,0,0,0,2.475-.074,7.937,7.937,0,0,0-.777-3.788.744.744,0,0,0-.586-.382Z" transform="translate(-715.23 -668.381)" fill="#2e3c4b"/>
        <path id="Path_2066" data-name="Path 2066" d="M730.891,762.3a3.37,3.37,0,0,1-.743-.064c-.177-.045-.281-.117-.317-.219-.1-.271-.282-3.081.429-4.069a.775.775,0,0,1,.642-.366h.012c.336.005.647.4.95,1.209.381,1.019.818,3.064.575,3.282A3.846,3.846,0,0,1,730.891,762.3Zm.012-4.441a.511.511,0,0,0-.419.25c-.63.877-.476,3.577-.393,3.816a4.7,4.7,0,0,0,2.146-.047,9.686,9.686,0,0,0-1.013-3.77c-.114-.159-.225-.248-.314-.249Zm1.33,4.042Z" transform="translate(-716.456 -668.381)" fill="#2e3c4b"/>
        <path id="Path_2067" data-name="Path 2067" d="M759.882,754.768a2.093,2.093,0,0,1-1.123-.2h0c-.257-.258-.108-2.762.4-4,.244-.588.553-.886.917-.886a1.116,1.116,0,0,1,.941.63,7.449,7.449,0,0,1,.652,3.976c-.1.2-.389.335-.885.415A5.979,5.979,0,0,1,759.882,754.768Zm-.923-.39a4.307,4.307,0,0,0,1.9.032c.458-.09.551-.211.568-.246a7.506,7.506,0,0,0-.678-3.768.825.825,0,0,0-.668-.438c-.179,0-.35.136-.508.4A8.367,8.367,0,0,0,758.959,754.378Z" transform="translate(-720.365 -667.312)" fill="#2e3c4b"/>
        <path id="Path_2068" data-name="Path 2068" d="M768.19,755a2.829,2.829,0,0,1-.652-.06.483.483,0,0,1-.371-.26c-.143-.367-.323-3.482.428-4.583a.829.829,0,0,1,.69-.416h0c.408,0,.771.422,1.077,1.255.439,1.193.809,3.609.581,3.8A4.855,4.855,0,0,1,768.19,755Zm.1-5.043a.568.568,0,0,0-.464.295c-.689,1.012-.529,3.991-.4,4.329.006.016.04.045.115.072a5.627,5.627,0,0,0,2.2-.118,10.047,10.047,0,0,0-1.038-4.3.569.569,0,0,0-.418-.28Z" transform="translate(-721.502 -667.312)" fill="#2e3c4b"/>
        <path id="Path_2069" data-name="Path 2069" d="M760.131,762.5a2.475,2.475,0,0,1-1.245-.189,6.8,6.8,0,0,1,.2-3.781,1.257,1.257,0,0,1,1.1-.914h0a1.065,1.065,0,0,1,.922.64,7.752,7.752,0,0,1,.693,3.953c-.05.088-.176.187-.736.248C760.862,762.483,760.5,762.5,760.131,762.5Zm.078-4.606H760.2a.873.873,0,0,0-.741.516,6.8,6.8,0,0,0-.358,3.727,6.17,6.17,0,0,0,2.475-.073,7.943,7.943,0,0,0-.777-3.788A.745.745,0,0,0,760.209,757.9Z" transform="translate(-720.375 -668.385)" fill="#2e3c4b"/>
        <path id="Path_2070" data-name="Path 2070" d="M768.926,762.338a3.325,3.325,0,0,1-.744-.065c-.177-.045-.28-.117-.317-.219-.1-.27-.282-3.08.429-4.068a.8.8,0,0,1,.655-.366c.336.005.648.4.95,1.209.382,1.019.819,3.064.576,3.283A3.851,3.851,0,0,1,768.926,762.338Zm.012-4.441a.508.508,0,0,0-.419.25c-.631.877-.477,3.577-.393,3.816a4.709,4.709,0,0,0,2.146-.047,9.657,9.657,0,0,0-1.013-3.77c-.114-.159-.225-.248-.314-.249Zm1.33,4.041Z" transform="translate(-721.601 -668.386)" fill="#2e3c4b"/>
        <path id="Path_2071" data-name="Path 2071" d="M740.5,663.185h-.276a8.457,8.457,0,0,1,.529-2.742,3.882,3.882,0,0,1,3.769-2.78c4.226,0,5.266,5.2,5.276,5.251l-.272.052c-.01-.05-1.007-5.028-5-5.028a3.582,3.582,0,0,0-3.509,2.6A8.33,8.33,0,0,0,740.5,663.185Z" transform="translate(-717.875 -654.864)" fill="#2e3c4b"/>
        <path id="Path_2072" data-name="Path 2072" d="M750.124,673.949l-.016-3.32.01-.016a55.632,55.632,0,0,0-.565-6.777c-.633-.166-8.616.038-9.09.46a57.626,57.626,0,0,0,.125,6.746l-.1,2.661-.276-.01.1-2.648c-.058-1.052-.334-6.391-.085-6.888.053-.107.2-.192.78-.286,1.889-.306,8.441-.54,8.742-.24a41.233,41.233,0,0,1,.634,7.04h0l.016,3.276Z" transform="translate(-717.862 -655.652)" fill="#2e3c4b"/>
        <path id="Path_2073" data-name="Path 2073" d="M750.25,671.886c-2.153-.272-9.885-.091-9.963-.089l-.007-.276c.319-.007,7.831-.182,10,.091Z" transform="translate(-717.883 -656.73)" fill="#2e3c4b"/>
        <path id="Path_2074" data-name="Path 2074" d="M752.063,675.653l-.24-.136c.328-.577.663-1.453.441-1.6-.522-.227-13.485-.361-14.614-.153a13.907,13.907,0,0,0,.025,1.809l-.276.016a9.347,9.347,0,0,1,.015-2l.028-.055.086-.029c.425-.116,4.728-.125,7.52-.1a64.992,64.992,0,0,1,7.367.28C752.947,674.034,752.214,675.385,752.063,675.653Z" transform="translate(-717.487 -656.993)" fill="#2e3c4b"/>
        <path id="Path_2075" data-name="Path 2075" d="M746.1,708.015h-1.4l-.005-.132c-.011-.264-.092-2.592.45-3.039a.369.369,0,0,1,.329-.079c.814.194.673,2.635.636,3.122Zm-1.134-.276h.877c.068-1.106-.018-2.606-.432-2.7a.094.094,0,0,0-.09.022C745.009,705.315,744.939,706.784,744.967,707.739Z" transform="translate(-718.478 -661.234)" fill="#2e3c4b"/>
      </g>
      <path id="Path_2076" data-name="Path 2076" d="M740.8,722.254l-.66-39.891.25,0,.66,39.891Z" transform="translate(-717.863 -658.205)" fill="#2e3c4b"/>
      <rect id="Rectangle_218" data-name="Rectangle 218" width="0.25" height="39.891" transform="translate(24.731 24.157)" fill="#2e3c4b"/>
      <rect id="Rectangle_219" data-name="Rectangle 219" width="0.25" height="39.891" transform="translate(28.621 24.157)" fill="#2e3c4b"/>
      <rect id="Rectangle_220" data-name="Rectangle 220" width="0.25" height="39.394" transform="translate(31.17 24.157)" fill="#2e3c4b"/>
    </g>
    <g id="rozewie" transform="translate(751.009 610.326)">
      <g id="Group_305" data-name="Group 305" transform="translate(7.486 14.027)">
        <g id="Group_299" data-name="Group 299" transform="translate(2.409)">
          <circle id="Ellipse_72" data-name="Ellipse 72" cx="0.493" cy="0.493" r="0.493" transform="translate(0.086 0.086)" fill="#2e3c4b"/>
          <path id="Path_2077" data-name="Path 2077" d="M790.178,641.068a.579.579,0,1,1,.579-.579A.579.579,0,0,1,790.178,641.068Zm0-.985a.406.406,0,1,0,.406.406A.407.407,0,0,0,790.178,640.083Z" transform="translate(-789.599 -639.911)" fill="#2e3c4b"/>
        </g>
        <g id="Group_300" data-name="Group 300" transform="translate(2.628 5.692)">
          <circle id="Ellipse_73" data-name="Ellipse 73" cx="0.493" cy="0.493" r="0.493" transform="translate(0.086 0.086)" fill="#2e3c4b"/>
          <path id="Path_2078" data-name="Path 2078" d="M790.431,647.651a.578.578,0,1,1,.579-.578A.579.579,0,0,1,790.431,647.651Zm0-.985a.406.406,0,1,0,.406.406A.407.407,0,0,0,790.431,646.666Z" transform="translate(-789.852 -646.494)" fill="#2e3c4b"/>
        </g>
        <g id="Group_301" data-name="Group 301" transform="translate(2.409 12.26)">
          <circle id="Ellipse_74" data-name="Ellipse 74" cx="0.493" cy="0.493" r="0.493" transform="translate(0.086 0.086)" fill="#2e3c4b"/>
          <path id="Path_2079" data-name="Path 2079" d="M790.178,655.247a.579.579,0,1,1,.579-.578A.579.579,0,0,1,790.178,655.247Zm0-.986a.407.407,0,1,0,.406.407A.407.407,0,0,0,790.178,654.261Z" transform="translate(-789.599 -654.089)" fill="#2e3c4b"/>
        </g>
        <g id="Group_302" data-name="Group 302" transform="translate(5.692 24.521)">
          <circle id="Ellipse_75" data-name="Ellipse 75" cx="0.493" cy="0.493" r="0.493" transform="translate(0.087 0.086)" fill="#2e3c4b"/>
          <path id="Path_2080" data-name="Path 2080" d="M793.975,669.424a.578.578,0,1,1,.579-.578A.579.579,0,0,1,793.975,669.424Zm0-.984a.406.406,0,1,0,.406.406A.406.406,0,0,0,793.975,668.44Z" transform="translate(-793.396 -668.268)" fill="#2e3c4b"/>
        </g>
        <g id="Group_303" data-name="Group 303" transform="translate(0 27.586)">
          <circle id="Ellipse_76" data-name="Ellipse 76" cx="0.493" cy="0.493" r="0.493" transform="translate(0.087 0.086)" fill="#2e3c4b"/>
          <path id="Path_2081" data-name="Path 2081" d="M787.392,672.969a.578.578,0,1,1,.579-.578A.579.579,0,0,1,787.392,672.969Zm0-.985a.406.406,0,1,0,.406.406A.406.406,0,0,0,787.392,671.984Z" transform="translate(-786.813 -671.812)" fill="#2e3c4b"/>
        </g>
        <g id="Group_304" data-name="Group 304" transform="translate(0.438 21.893)">
          <circle id="Ellipse_77" data-name="Ellipse 77" cx="0.493" cy="0.493" r="0.493" transform="translate(0.087 0.086)" fill="#2e3c4b"/>
          <path id="Path_2082" data-name="Path 2082" d="M787.9,666.386a.578.578,0,1,1,.579-.578A.579.579,0,0,1,787.9,666.386Zm0-.984a.406.406,0,1,0,.406.406A.406.406,0,0,0,787.9,665.4Z" transform="translate(-787.32 -665.229)" fill="#2e3c4b"/>
        </g>
      </g>
      <g id="rozewie-2" data-name="rozewie" transform="translate(0 0)">
        <g id="Group_306" data-name="Group 306" transform="translate(4.274 32.649)">
          <path id="Path_2083" data-name="Path 2083" d="M783.248,674.718c-.278-.555.637-6.141.647-6.2.043-.262.1-.672.178-1.163.416-2.8.819-5.336,1.166-5.683.164-.164.851-.149,2.272-.08.491.024.955.048,1.309.048,3.7,0,4.325.12,4.456.251a44.413,44.413,0,0,1,1.334,5.654c.212,1,.379,1.793.445,2.059a38.849,38.849,0,0,1,.75,5.091l-.219,0a38.6,38.6,0,0,0-.743-5.034c-.068-.27-.235-1.063-.448-2.067-.421-1.991-1.126-5.323-1.281-5.551-.111-.078-.954-.181-4.3-.181-.36,0-.827-.023-1.32-.048a8.96,8.96,0,0,0-2.107.016c-.323.323-.85,3.86-1.1,5.559-.074.494-.135.9-.178,1.167-.313,1.875-.847,5.7-.667,6.063Z" transform="translate(-783.111 -661.46)" fill="#2e3c4b"/>
          <path id="Path_2084" data-name="Path 2084" d="M783.2,674.82l-.038-.077c-.3-.6.63-6.193.638-6.249.042-.254.1-.649.172-1.122l.006-.041c.515-3.46.858-5.4,1.19-5.731.181-.18.714-.183,2.336-.1l.041,0c.475.023.923.045,1.265.045,3.914,0,4.377.137,4.517.277s.444,1.377,1.357,5.7l.024.112c.2.943.358,1.688.422,1.943a39.057,39.057,0,0,1,.751,5.112l0,.086-.391-.005v-.086a38.393,38.393,0,0,0-.74-5.012c-.07-.28-.254-1.15-.449-2.07-.36-1.7-1.094-5.169-1.258-5.506a22.644,22.644,0,0,0-4.233-.157c-.338,0-.771-.021-1.228-.042l-.1-.005a11.2,11.2,0,0,0-2.049,0c-.3.3-.859,4.08-1.07,5.5-.074.5-.135.905-.179,1.169a37.6,37.6,0,0,0-.674,6.01l.039.078Zm12.463-.225h.045a40.37,40.37,0,0,0-.746-4.981c-.064-.259-.222-1.006-.423-1.949l-.023-.113a55.716,55.716,0,0,0-1.311-5.611c-.153-.154-1.55-.227-4.395-.227-.347,0-.8-.022-1.273-.044l-.041,0a6.212,6.212,0,0,0-2.207.054c-.355.356-.828,3.532-1.141,5.634l-.006.041c-.071.474-.131.87-.172,1.125a42.481,42.481,0,0,0-.681,6.06l.042-.022a44.123,44.123,0,0,1,.683-6.031c.044-.262.1-.673.178-1.166.407-2.733.825-5.305,1.128-5.607a6.345,6.345,0,0,1,2.172-.042l.1,0c.455.022.885.043,1.219.043a21.315,21.315,0,0,1,4.345.195l.023.023c.15.224.7,2.761,1.289,5.566.2.935.381,1.8.451,2.08A40.611,40.611,0,0,1,795.659,674.6Z" transform="translate(-783.098 -661.447)" fill="#2e3c4b"/>
        </g>
        <g id="Group_307" data-name="Group 307" transform="translate(6.235 10.754)">
          <path id="Path_2085" data-name="Path 2085" d="M793.582,658.623l-.155-.155c.111-.246.187-3.914.187-9.556,0-1.588-.225-11.54-.426-11.993-.068-.137-.679-.278-3.2-.172-.2.009-.349.015-.424.015-.131,0-.459-.041-.916-.1a11.236,11.236,0,0,0-2.948-.154c-.156.381.221,7.615.47,10.86.081,1.063.1,2.761.124,4.559.03,2.524.072,5.98.356,6.208l-.119.183c-.344-.221-.406-2.213-.456-6.389-.022-1.794-.042-3.489-.124-4.544-.069-.9-.719-10.72-.406-11.033.221-.219,1.227-.141,3.129.093.414.051.772.1.889.1.073,0,.22-.007.414-.015,1.972-.082,3.228-.062,3.406.294.245.489.449,11.26.449,12.09C793.832,658.373,793.65,658.554,793.582,658.623Z" transform="translate(-785.379 -636.139)" fill="#2e3c4b"/>
          <path id="Path_2086" data-name="Path 2086" d="M793.569,658.732l-.259-.258.025-.055c.087-.2.179-3.268.179-9.521,0-1.9-.236-11.546-.419-11.957-.026-.038-.31-.24-3.117-.121-.2.008-.352.014-.427.014-.133,0-.456-.039-.9-.094l-.024,0a11.6,11.6,0,0,0-2.863-.188c-.124.541.216,7.351.482,10.8.081,1.058.1,2.744.124,4.529v.037c.027,2.209.071,5.91.324,6.141l.055.049-.036.065-.167.255-.072-.047c-.363-.233-.438-1.74-.5-6.459v-.036c-.022-1.778-.042-3.457-.122-4.5-.009-.106-.754-10.728-.382-11.1.227-.227.944-.21,3.2.067.4.049.769.094.879.094.056,0,.156,0,.288-.01l.123,0c2.43-.1,3.308-.016,3.487.341.265.529.458,11.645.458,12.129,0,9.5-.18,9.675-.276,9.771Zm-.059-.3.03.029c.094-.441.193-2.575.193-9.56,0-1.159-.215-11.6-.44-12.051-.189-.377-2.229-.292-3.325-.246l-.124.005c-.134.005-.237.009-.294.009-.121,0-.458-.04-.885-.093-1.5-.186-2.859-.333-3.072-.119-.243.4.279,8.987.431,10.964.08,1.052.1,2.733.124,4.514v.037c.042,3.443.09,5.792.357,6.249l.027-.042c-.227-.427-.293-2.477-.338-6.208v-.037c-.022-1.781-.042-3.464-.123-4.516-.22-2.856-.639-10.472-.464-10.9l.019-.029c.154-.156.971-.121,3.012.129l.031,0c.44.054.758.093.881.093.074,0,.222-.006.419-.015,3.106-.13,3.229.115,3.282.22.216.486.436,10.544.436,12.032C793.687,653.146,793.641,657.774,793.51,658.429Z" transform="translate(-785.367 -636.126)" fill="#2e3c4b"/>
        </g>
        <g id="Group_308" data-name="Group 308" transform="translate(4.499)">
          <path id="Path_2087" data-name="Path 2087" d="M793.412,629.668a7.451,7.451,0,0,1-1.08-.14,6.781,6.781,0,0,0-1.477-.156c-.515.052-1.5.075-2.285.094-.561.013-1.045.024-1.221.042-.262.027-.884.016-1.433.007-.352-.006-.685-.012-.768,0-.018,0-1.65.005-1.689-.378-.031-.3,3.839-3.885,5.1-4.853.658-.506.81-.512.9-.477.714.271,4.324,5.125,4.371,5.595a.212.212,0,0,1-.065.179A.513.513,0,0,1,793.412,629.668Zm-2.389-.522a8.887,8.887,0,0,1,1.346.167,3.515,3.515,0,0,0,1.245.1c-.062-.426-3.583-5.135-4.227-5.405a15.007,15.007,0,0,0-2.986,2.423,35.921,35.921,0,0,0-2.713,2.688,5,5,0,0,0,1.436.172c.093-.009.362-.005.795,0,.516.009,1.158.019,1.406-.006.184-.019.673-.03,1.238-.044.785-.018,1.762-.042,2.268-.093A1.89,1.89,0,0,1,791.023,629.145Z" transform="translate(-783.372 -623.703)" fill="#2e3c4b"/>
          <path id="Path_2088" data-name="Path 2088" d="M793.4,629.741a7.527,7.527,0,0,1-1.094-.142,6.66,6.66,0,0,0-1.454-.155c-.514.052-1.49.075-2.273.093l-.093,0c-.523.013-.974.023-1.14.042-.271.026-.921.016-1.442.007h-.033c-.319-.005-.649-.01-.725,0-.019,0-1.734.029-1.784-.457-.041-.393,4.044-4.094,5.131-4.929.694-.534.858-.539.985-.49.738.28,4.371,5.123,4.426,5.668a.3.3,0,0,1-.092.25A.584.584,0,0,1,793.4,629.741Zm-2.392-.476a8.931,8.931,0,0,1,1.327.164c.768.131,1.23.188,1.358.071a.123.123,0,0,0,.037-.106c-.043-.437-3.654-5.273-4.316-5.524-.036-.013-.141-.054-.817.466a42.765,42.765,0,0,0-5.065,4.785c.022.207,1.119.3,1.6.291.08-.01.387,0,.741,0h.033c.517.007,1.161.02,1.423-.007.171-.018.626-.029,1.154-.042l.074,0c.8-.02,1.773-.042,2.279-.093Q790.913,629.265,791.007,629.265Zm2.414.26a7.663,7.663,0,0,1-1.08-.142l-.022,0a6.6,6.6,0,0,0-1.491-.153c-.505.051-1.475.074-2.256.093l-.09,0c-.529.013-.987.023-1.161.042-.258.026-.927.016-1.416.005-.42-.006-.7-.011-.784,0a4.93,4.93,0,0,1-1.492-.187l-.073-.049.05-.073a35.591,35.591,0,0,1,2.725-2.7,16.13,16.13,0,0,1,3.04-2.446l.02,0,.019.009c.669.281,4.213,5.024,4.279,5.473l.006.042-.029.03A.33.33,0,0,1,793.421,629.525Zm-2.411-.48a8.848,8.848,0,0,1,1.337.163l.023,0a7.336,7.336,0,0,0,1.123.137,30.726,30.726,0,0,0-4.132-5.264,17.357,17.357,0,0,0-2.915,2.4c-1.226,1.13-2.321,2.219-2.631,2.585a5.747,5.747,0,0,0,1.288.125c.1-.01.361-.006.8,0,.486.007,1.15.021,1.4-.005.181-.019.642-.029,1.174-.042l.071,0c.8-.019,1.764-.042,2.262-.093C790.872,629.049,790.939,629.045,791.01,629.045Z" transform="translate(-783.359 -623.69)" fill="#2e3c4b"/>
        </g>
        <g id="Group_309" data-name="Group 309" transform="translate(8.683 5.489)">
          <path id="Path_2089" data-name="Path 2089" d="M788.525,635.622l-.218-.024c0-.02.219-1.974.219-2.834v-2.627h.219v2.627C788.745,633.636,788.534,635.542,788.525,635.622Z" transform="translate(-788.212 -630.051)" fill="#2e3c4b"/>
          <path id="Path_2090" data-name="Path 2090" d="M788.586,635.7l-.389-.042.01-.086c.022-.2.217-2.006.217-2.824v-2.714h.393v2.714c0,.851-.2,2.663-.221,2.867Zm-.2-.2.046.005c.045-.419.209-1.992.209-2.762v-2.541H788.6v2.541C788.6,633.509,788.432,635.09,788.387,635.507Z" transform="translate(-788.197 -630.037)" fill="#2e3c4b"/>
        </g>
        <g id="Group_310" data-name="Group 310" transform="translate(10.88 5.598)">
          <path id="Path_2091" data-name="Path 2091" d="M791.058,635.963c-.009-.12-.22-2.969-.22-3.839a6.455,6.455,0,0,1,.139-1.265,3.389,3.389,0,0,0,.08-.6h.219a3.555,3.555,0,0,1-.083.636,6.266,6.266,0,0,0-.136,1.224c0,.862.217,3.794.219,3.823Z" transform="translate(-790.752 -630.177)" fill="#2e3c4b"/>
          <path id="Path_2092" data-name="Path 2092" d="M790.965,636.043l-.007-.086.086-.007h-.086c-.037-.5-.22-3.02-.22-3.84a6.544,6.544,0,0,1,.141-1.281,3.44,3.44,0,0,0,.078-.58v-.086h.392v.086a3.608,3.608,0,0,1-.085.653,6.206,6.206,0,0,0-.134,1.208c0,.841.21,3.7.219,3.815l.006.086Zm.163-5.708a4.315,4.315,0,0,1-.079.527,6.375,6.375,0,0,0-.137,1.249c0,.781.174,3.2.213,3.747l.046,0c-.036-.5-.213-2.967-.213-3.743a6.311,6.311,0,0,1,.138-1.24,4.433,4.433,0,0,0,.079-.535Z" transform="translate(-790.738 -630.163)" fill="#2e3c4b"/>
        </g>
        <g id="Group_311" data-name="Group 311" transform="translate(13.069 5.691)">
          <path id="Path_2093" data-name="Path 2093" d="M793.589,635.861h-.219c0-.221.42-5.267.438-5.482l.218.018C793.875,632.213,793.589,635.692,793.589,635.861Z" transform="translate(-793.284 -630.286)" fill="#2e3c4b"/>
          <path id="Path_2094" data-name="Path 2094" d="M793.662,635.932h-.392v-.086c0-.18.268-3.435.427-5.358l.018-.218.391.034-.007.085c-.211,2.529-.438,5.315-.438,5.457Zm-.214-.172h.046c.041-.653.361-4.522.426-5.3l-.046,0,0,.045C793.625,633.458,793.474,635.333,793.447,635.76Z" transform="translate(-793.27 -630.271)" fill="#2e3c4b"/>
        </g>
        <g id="Group_312" data-name="Group 312" transform="translate(6.721 5.707)">
          <rect id="Rectangle_221" data-name="Rectangle 221" width="0.219" height="5.254" transform="translate(0.086 0.086)" fill="#2e3c4b"/>
          <path id="Path_2095" data-name="Path 2095" d="M786.32,635.716h-.392V630.29h.392Zm-.219-.172h.046v-5.082H786.1Z" transform="translate(-785.928 -630.29)" fill="#2e3c4b"/>
        </g>
        <g id="Group_313" data-name="Group 313" transform="translate(9.282 48.081)">
          <path id="Path_2096" data-name="Path 2096" d="M790.38,685.52a2.033,2.033,0,0,1-.98-.17.263.263,0,0,1-.133-.238c.005-.127-.037-.663-.086-1.283a17.489,17.489,0,0,1-.112-4.033h0c.112-.2.387-.329.818-.38a3.124,3.124,0,0,1,1.774.244,18.417,18.417,0,0,1,.352,5.322c-.041.195-.1.3-.187.339A4.571,4.571,0,0,1,790.38,685.52Zm-1.119-5.617a23.143,23.143,0,0,0,.138,3.909c.054.679.093,1.169.087,1.31,0,.014.011.03.037.048a4.243,4.243,0,0,0,2.215-.048c.31-.266-.016-4.955-.242-5.319a3.3,3.3,0,0,0-1.582-.169c-.348.041-.579.136-.653.268Z" transform="translate(-788.903 -679.306)" fill="#2e3c4b"/>
          <path id="Path_2097" data-name="Path 2097" d="M790.367,685.592a2.155,2.155,0,0,1-1.029-.184.359.359,0,0,1-.171-.312c.006-.124-.038-.682-.085-1.275a16.7,16.7,0,0,1-.112-4.059v0l.011-.02a1.1,1.1,0,0,1,.885-.424,3.113,3.113,0,0,1,1.847.272,17.854,17.854,0,0,1,.373,5.4c-.047.225-.119.348-.236.4A4.646,4.646,0,0,1,790.367,685.592Zm-1.23-5.778-.005.01a20.438,20.438,0,0,0,.122,3.984c.051.649.092,1.16.086,1.295a.185.185,0,0,0,.1.162,1.954,1.954,0,0,0,.931.156,4.581,4.581,0,0,0,1.411-.191c.06-.027.1-.118.138-.278a19.421,19.421,0,0,0-.33-5.245,3.143,3.143,0,0,0-1.7-.216A.985.985,0,0,0,789.137,679.814Zm1.235,5.554a2.005,2.005,0,0,1-.911-.142.145.145,0,0,1-.076-.12c.006-.138-.034-.651-.085-1.3a18,18,0,0,1-.128-3.959h0c.112-.2.452-.28.718-.312a3.2,3.2,0,0,1,1.655.2c.168.267.639,5.1.235,5.444l-.021.012A4.426,4.426,0,0,1,790.372,685.368Zm-.813-.286a4.221,4.221,0,0,0,2.114-.046,18.933,18.933,0,0,0-.265-5.2,3.8,3.8,0,0,0-1.5-.128c-.31.036-.53.121-.587.224h0a25.527,25.527,0,0,0,.149,3.861C789.523,684.433,789.56,684.908,789.559,685.082Z" transform="translate(-788.89 -679.293)" fill="#2e3c4b"/>
        </g>
        <g id="Group_314" data-name="Group 314" transform="translate(9.585 55.794)">
          <path id="Path_2098" data-name="Path 2098" d="M790.945,694.53a2.406,2.406,0,0,1-1.039-.2c-.292-.163-.439-1.653-.511-2.875a12.631,12.631,0,0,1,.058-2.988h0c.164-.295,1.513-.1,2.3.04l.082.015.007.084c.074.85.43,5.114.188,5.55-.171.308-.707.365-1.011.373Zm-1.3-5.952c-.266.508.054,5.322.372,5.564a2.309,2.309,0,0,0,1,.168c.425-.01.74-.109.824-.259a34.47,34.47,0,0,0-.207-5.341A5.831,5.831,0,0,0,789.642,688.578Z" transform="translate(-789.254 -688.226)" fill="#2e3c4b"/>
          <path id="Path_2099" data-name="Path 2099" d="M790.931,694.6a2.489,2.489,0,0,1-1.082-.208c-.1-.055-.4-.221-.555-2.946a13.457,13.457,0,0,1,.068-3.036c.054-.1.221-.394,2.394,0l.148.027.013.15c.1,1.2.425,5.153.177,5.6-.182.327-.69.408-1.084.418Zm-.885-6.216c-.332,0-.5.047-.533.111a12.387,12.387,0,0,0-.048,2.941c.144,2.442.394,2.764.467,2.806a2.377,2.377,0,0,0,1,.186h.077c.484-.012.826-.132.935-.329a30.067,30.067,0,0,0-.2-5.5l0-.017-.016,0A10.178,10.178,0,0,0,790.047,688.386Zm.888,6a2.276,2.276,0,0,1-.977-.18c-.348-.262-.688-5.14-.406-5.679l.02-.026c.237-.2,2.044.108,2.063.112l.066.012.005.066c0,.049.425,4.98.2,5.39-.1.181-.436.294-.9.3Zm-1.239-5.758a19.344,19.344,0,0,0,.357,5.435,2.236,2.236,0,0,0,.885.15H791c.441-.009.694-.115.751-.216a34.571,34.571,0,0,0-.213-5.224A6.806,6.806,0,0,0,789.7,688.624Z" transform="translate(-789.24 -688.212)" fill="#2e3c4b"/>
        </g>
        <g id="Group_315" data-name="Group 315" transform="translate(10.126 63.305)">
          <path id="Path_2100" data-name="Path 2100" d="M790.759,703.061a.647.647,0,0,1-.462-.111c-.176-.191-.523-5.341-.195-5.641h0a2.11,2.11,0,0,1,1.887-.158c.511.284.848,5.136.72,5.588-.033.116-.111.123-.14.123a3.814,3.814,0,0,0-.473.06A10.414,10.414,0,0,1,790.759,703.061Zm-.5-5.6a26.24,26.24,0,0,0,.206,5.346,5.634,5.634,0,0,0,1.6-.1c.215-.032.356-.052.443-.06a16.9,16.9,0,0,0-.131-2.667,8.112,8.112,0,0,0-.5-2.637A1.954,1.954,0,0,0,790.258,697.463Z" transform="translate(-789.879 -696.912)" fill="#2e3c4b"/>
          <path id="Path_2101" data-name="Path 2101" d="M790.745,703.133a.693.693,0,0,1-.526-.138,17.806,17.806,0,0,1-.309-2.833,8.532,8.532,0,0,1,.12-2.931,2.187,2.187,0,0,1,1.986-.17c.605.336.847,5.385.762,5.687a.229.229,0,0,1-.221.186,3.066,3.066,0,0,0-.311.036l-.152.022A10.057,10.057,0,0,1,790.745,703.133Zm.474-6.061a1.771,1.771,0,0,0-1.072.287,9.357,9.357,0,0,0-.065,2.759,17.987,17.987,0,0,0,.27,2.765c.03.031.127.077.393.077a10.162,10.162,0,0,0,1.325-.139l.151-.023a1.36,1.36,0,0,1,.346-.036s.029,0,.046-.062a16.988,16.988,0,0,0-.124-2.823c-.186-1.843-.416-2.587-.556-2.664A1.543,1.543,0,0,0,791.219,697.072Zm-.516,5.848c-.184,0-.269-.023-.31-.06l-.018-.021a24.545,24.545,0,0,1-.209-5.427l.022-.028a2,2,0,0,1,1.723-.132,8.117,8.117,0,0,1,.539,2.7,16.777,16.777,0,0,1,.131,2.69l-.012.065-.066.006c-.086.008-.225.028-.438.058A10.663,10.663,0,0,1,790.7,702.92Zm-.187-.186a5.42,5.42,0,0,0,1.522-.129c.169-.024.291-.042.379-.052a19.593,19.593,0,0,0-.14-2.58,8.577,8.577,0,0,0-.463-2.578,1.929,1.929,0,0,0-1.5.107A28.7,28.7,0,0,0,790.516,702.734Z" transform="translate(-789.866 -696.898)" fill="#2e3c4b"/>
        </g>
        <g id="Group_316" data-name="Group 316" transform="translate(5.407 29.936)">
          <path id="Path_2102" data-name="Path 2102" d="M793.506,661.645l-.1-.2a6.052,6.052,0,0,0,1.169-2.491,57.078,57.078,0,0,0-9.849-.2,6.559,6.559,0,0,0,.638,1.942,2.34,2.34,0,0,1,.236.629h-.219a3.853,3.853,0,0,0-.218-.54,6.322,6.322,0,0,1-.657-2.088c0-.13,0-.292,3.614-.292,1.531,0,3.168.038,4.379.1,2.3.121,2.3.274,2.3.409A5.712,5.712,0,0,1,793.506,661.645Z" transform="translate(-784.423 -658.322)" fill="#2e3c4b"/>
          <path id="Path_2103" data-name="Path 2103" d="M793.454,661.746l-.175-.35.077-.039A6.285,6.285,0,0,0,794.469,659a62.787,62.787,0,0,0-9.662-.191,7.024,7.024,0,0,0,.623,1.838,2.257,2.257,0,0,1,.247.668v.086l-.387,0,0-.082a5.1,5.1,0,0,0-.206-.5,6.375,6.375,0,0,1-.67-2.134c0-.22,0-.378,3.7-.378,1.537,0,3.175.038,4.384.1,2.379.125,2.379.288,2.379.495a5.7,5.7,0,0,1-1.34,2.8Zm.052-.284.021.042a6.157,6.157,0,0,0,1.172-2.6c0-.089-.23-.218-2.215-.323-1.206-.063-2.841-.1-4.376-.1-2.8,0-3.464.1-3.527.191a6.238,6.238,0,0,0,.651,2.067c.108.244.175.4.2.489h.048c-.033-.106-.11-.279-.212-.507a6.672,6.672,0,0,1-.645-1.975l0-.065.062-.02a54.969,54.969,0,0,1,9.914.2l.053.026-.005.06A6.66,6.66,0,0,1,793.506,661.463Z" transform="translate(-784.409 -658.309)" fill="#2e3c4b"/>
        </g>
        <g id="Group_317" data-name="Group 317" transform="translate(8.225 30.032)">
          <path id="Path_2104" data-name="Path 2104" d="M787.9,661.379a9.149,9.149,0,0,1-.019-2.85l.218.022a9.434,9.434,0,0,0-.019,2.7Z" transform="translate(-787.682 -658.435)" fill="#2e3c4b"/>
          <path id="Path_2105" data-name="Path 2105" d="M787.863,661.484l-.05-.071a8.578,8.578,0,0,1-.033-2.906l.009-.086.389.039-.008.086a9.643,9.643,0,0,0-.035,2.646l.049.071Zm.08-2.874a9.731,9.731,0,0,0-.025,2.626l.038-.026a11.673,11.673,0,0,1,.033-2.6Z" transform="translate(-787.668 -658.42)" fill="#2e3c4b"/>
        </g>
        <g id="Group_318" data-name="Group 318" transform="translate(12.526 30.115)">
          <path id="Path_2106" data-name="Path 2106" d="M792.975,661.38l-.213-.048c.07-.314.112-1.913.125-2.714l.219,0C793.1,658.716,793.068,660.966,792.975,661.38Z" transform="translate(-792.658 -658.53)" fill="#2e3c4b"/>
          <path id="Path_2107" data-name="Path 2107" d="M793.024,661.47l-.382-.086.019-.084c.064-.287.109-1.77.123-2.7l0-.086.392.005,0,.087c-.009.565-.047,2.4-.132,2.777Zm-.18-.217.045.009c.056-.4.094-1.546.112-2.569h-.047C792.943,659.459,792.906,660.813,792.844,661.253Z" transform="translate(-792.642 -658.516)" fill="#2e3c4b"/>
        </g>
        <g id="Group_319" data-name="Group 319" transform="translate(9.929 30.095)">
          <path id="Path_2108" data-name="Path 2108" d="M789.923,661.464l-.1-.048a9.619,9.619,0,0,1,.088-2.81l.218.024a12.98,12.98,0,0,0-.137,2.647.078.078,0,0,0-.064-.031Z" transform="translate(-789.652 -658.508)" fill="#2e3c4b"/>
          <path id="Path_2109" data-name="Path 2109" d="M790,661.584l-.256-.127c-.057-.063-.23-.259.068-2.878l.01-.086.39.046-.01.086a13.748,13.748,0,0,0-.147,2.594l-.054.029Zm-.027-2.9a13.921,13.921,0,0,0-.146,2.464v-.006h.04a18.5,18.5,0,0,1,.153-2.452Z" transform="translate(-789.638 -658.493)" fill="#2e3c4b"/>
        </g>
        <g id="Group_320" data-name="Group 320" transform="translate(5.516 8.527)">
          <path id="Path_2110" data-name="Path 2110" d="M793.173,636.418l-.219,0a2.273,2.273,0,0,1,.308-.671c.273-.508.73-1.358.649-1.61-.007-.022-.016-.027-.021-.029-.374-.178-8.405-.4-9.035-.062a10.317,10.317,0,0,0,.647,1.892l-.2.086a9.957,9.957,0,0,1-.666-2.013.163.163,0,0,1,.088-.14c.65-.4,8.863-.159,9.266.042a.261.261,0,0,1,.131.159c.1.316-.241.993-.665,1.78A4.453,4.453,0,0,0,793.173,636.418Z" transform="translate(-784.549 -633.563)" fill="#2e3c4b"/>
          <path id="Path_2111" data-name="Path 2111" d="M793.158,636.49l-.3-.006V636.4a2.127,2.127,0,0,1,.318-.712,5.065,5.065,0,0,0,.647-1.528,59.061,59.061,0,0,0-8.884-.079,11.382,11.382,0,0,0,.632,1.8l.035.079-.361.156-.035-.08a9.312,9.312,0,0,1-.672-2.048.251.251,0,0,1,.129-.214c.421-.259,3.48-.236,4.772-.218a36.125,36.125,0,0,1,4.578.255.351.351,0,0,1,.176.211c.11.349-.224,1.013-.672,1.846-.11.207-.261.49-.273.545l-.014.07Zm-.109-.175h.048c.039-.093.123-.253.259-.508.408-.758.758-1.447.668-1.73a.175.175,0,0,0-.089-.108c-.369-.184-8.588-.412-9.181-.045a.081.081,0,0,0-.047.067,8.381,8.381,0,0,0,.625,1.9l.042-.019a9.744,9.744,0,0,1-.62-1.839l0-.056.049-.026c.67-.357,8.733-.122,9.114.061a.122.122,0,0,1,.066.083c.084.262-.261.941-.653,1.671C793.186,636.03,793.09,636.211,793.049,636.315Z" transform="translate(-784.535 -633.55)" fill="#2e3c4b"/>
        </g>
        <g id="Group_321" data-name="Group 321" transform="translate(0.453 45.561)">
          <path id="Path_2112" data-name="Path 2112" d="M793.83,702.179c-5.947,0-13.982-.329-14.631-.914-.592-.533-.428-7.892-.277-12.232.192-5.5.568-11.69.841-12.085h0c.039-.056.122-.1.4-.152,2.389-.425,16.321-.465,17.157.124.658.465,1.931,10.362,2.179,12.341.551,4.386,1.385,11.945,1.02,12.461-.061.087-.233.189-1.031.279C798.42,702.122,796.305,702.179,793.83,702.179Zm-13.89-25.1a110.049,110.049,0,0,0-.8,11.993c-.242,6.978-.162,11.7.2,12.031.7.634,13.721,1.074,19.008.771,1.748-.1,1.963-.248,1.989-.278.226-.364-.24-5.782-1.063-12.331-.967-7.692-1.78-11.942-2.086-12.165C796.448,676.574,780.716,676.557,779.94,677.079Z" transform="translate(-778.693 -676.391)" fill="#2e3c4b"/>
          <path id="Path_2113" data-name="Path 2113" d="M793.816,702.252c-5.5,0-13.979-.3-14.689-.936-.587-.528-.49-6.979-.305-12.3.166-4.763.541-11.676.857-12.131.061-.09.185-.14.455-.189a88.222,88.222,0,0,1,9.176-.319c1.742.005,7.469.052,8.045.458.672.475,1.866,9.611,2.215,12.4.153,1.211,1.474,11.861,1.006,12.522-.088.125-.308.227-1.092.316C798.463,702.19,796.449,702.252,793.816,702.252Zm-4.861-25.708a81.638,81.638,0,0,0-8.792.323c-.2.036-.313.073-.342.116-.233.336-.611,5.85-.827,12.04-.256,7.358-.165,11.791.248,12.163.584.527,8.149.893,14.573.893,2.627,0,4.633-.064,5.649-.177.584-.066.9-.144.97-.243.3-.431-.324-6.73-1.036-12.4-.738-5.88-1.687-11.958-2.144-12.281C796.83,676.677,792.948,676.544,788.955,676.544Zm4.916,25.5c-5.934,0-13.995-.346-14.6-.889-.587-.529-.328-9.393-.234-12.1.208-5.982.586-11.6.81-12.03l.029-.031c.83-.559,16.56-.536,17.351.022.387.283,1.239,5.2,2.121,12.225.713,5.677,1.324,11.948,1.051,12.388a5.864,5.864,0,0,1-2.056.318C797.208,702.011,795.634,702.042,793.871,702.042Zm-13.877-24.916a114.022,114.022,0,0,0-.782,11.936c-.273,7.865-.1,11.714.176,11.963.627.564,13.375,1.068,18.945.749a5.548,5.548,0,0,0,1.933-.253c.174-.289-.184-5.068-1.088-12.26-1.063-8.464-1.822-11.917-2.051-12.106C796.431,676.664,780.952,676.643,779.994,677.126Z" transform="translate(-778.679 -676.378)" fill="#2e3c4b"/>
        </g>
        <g id="Group_322" data-name="Group 322" transform="translate(16.885 4.713)">
          <rect id="Rectangle_222" data-name="Rectangle 222" width="1.513" height="0.219" transform="translate(0.109 0.588) rotate(-18.46)" fill="#2e3c4b"/>
          <path id="Path_2114" data-name="Path 2114" d="M797.806,630.046l-.124-.373,1.6-.534.124.372Zm.1-.263.015.043,1.271-.425-.015-.042Z" transform="translate(-797.682 -629.14)" fill="#2e3c4b"/>
        </g>
        <g id="Group_323" data-name="Group 323" transform="translate(17.313 7.312)">
          <rect id="Rectangle_223" data-name="Rectangle 223" width="2.361" height="0.219" transform="translate(0.086 0.086)" fill="#2e3c4b"/>
          <path id="Path_2115" data-name="Path 2115" d="M800.711,632.538h-2.534v-.392h2.534Zm-2.361-.173h2.188v-.047H798.35Z" transform="translate(-798.177 -632.146)" fill="#2e3c4b"/>
        </g>
        <g id="Group_324" data-name="Group 324" transform="translate(16.54 9.553)">
          <rect id="Rectangle_224" data-name="Rectangle 224" width="0.219" height="1.164" transform="translate(0.116 0.312) rotate(-63.534)" fill="#2e3c4b"/>
          <path id="Path_2116" data-name="Path 2116" d="M798.48,635.683l-1.2-.595.175-.351,1.2.6Zm-.965-.673.887.441.02-.041-.886-.442Z" transform="translate(-797.283 -634.737)" fill="#2e3c4b"/>
        </g>
        <g id="Group_325" data-name="Group 325" transform="translate(0.568 5.007)">
          <path id="Path_2117" data-name="Path 2117" d="M780.323,630.41a9.281,9.281,0,0,1-1.375-.6l.1-.2a9.19,9.19,0,0,0,1.31.578Z" transform="translate(-778.831 -629.498)" fill="#2e3c4b"/>
          <path id="Path_2118" data-name="Path 2118" d="M780.376,630.49l-.086-.013a8.954,8.954,0,0,1-1.4-.608l-.077-.039.179-.35.076.04a8.922,8.922,0,0,0,1.284.57l.086.012Zm-1.33-.736a10.311,10.311,0,0,0,1.187.531l.007-.046a10.959,10.959,0,0,1-1.173-.527Z" transform="translate(-778.813 -629.48)" fill="#2e3c4b"/>
        </g>
        <g id="Group_326" data-name="Group 326" transform="translate(0 7.098)">
          <rect id="Rectangle_225" data-name="Rectangle 225" width="1.682" height="0.219" transform="translate(0.086 0.087)" fill="#2e3c4b"/>
          <path id="Path_2119" data-name="Path 2119" d="M780.011,632.29h-1.855V631.9h1.855Zm-1.682-.173h1.509v-.046h-1.509Z" transform="translate(-778.156 -631.898)" fill="#2e3c4b"/>
        </g>
        <g id="Group_327" data-name="Group 327" transform="translate(0.589 9.117)">
          <path id="Path_2120" data-name="Path 2120" d="M779.035,635.031l-.071-.207,1.342-.463.071.207Z" transform="translate(-778.854 -634.25)" fill="#2e3c4b"/>
          <path id="Path_2121" data-name="Path 2121" d="M778.964,635.124l-.127-.37,1.506-.521.127.372Zm.093-.264.015.044,1.18-.407-.015-.044Z" transform="translate(-778.837 -634.233)" fill="#2e3c4b"/>
        </g>
      </g>
    </g>
    <g id="czołpino" transform="translate(672.037 614.428)">
      <g id="Group_328" data-name="Group 328" transform="translate(2.361 16.914)">
        <path id="Path_2122" data-name="Path 2122" d="M701.336,693.181c-3.494,0-10.592-.651-11.551-1.492a.321.321,0,0,1-.125-.217h0c-.029-.487.694-12.6,1.332-23.287.489-8.2.952-15.948.937-16.173a6.584,6.584,0,0,0-.952-.832l-.165-.131c-.109-.086-.182-.357-.217-.8a4.05,4.05,0,0,1,.207-1.947c.334-.367,8.319-.161,10.794-.028,1.507.08,3.965.022,6.133-.029,3.284-.077,4.124-.078,4.221.067a5.285,5.285,0,0,1-.338,2.32l-.015.06a1.308,1.308,0,0,1-.563.7,2.073,2.073,0,0,0-.6.629c.222,1.934,4.419,38.625,3.538,39.791-.694.918-5.157,1.081-8.743,1.211-1.047.039-2.036.074-2.757.126C702.166,693.171,701.78,693.181,701.336,693.181ZM694.3,648.266a17.948,17.948,0,0,0-3.371.152,4.185,4.185,0,0,0-.159,1.814c.037.473.113.652.152.684l.163.128c.623.488.969.781,1.015.934.024.084-.188,3.728-.934,16.218-.637,10.682-1.359,22.79-1.331,23.266a.164.164,0,0,0,.066.1c.969.851,9.626,1.627,12.562,1.417.723-.052,1.714-.088,2.763-.126,3.362-.123,7.967-.291,8.612-1.143.7-.929-2.343-28.969-3.575-39.7l0-.027.013-.024a2.22,2.22,0,0,1,.659-.706,1.15,1.15,0,0,0,.5-.609l.016-.06a6.064,6.064,0,0,0,.361-2.183,40.11,40.11,0,0,0-4.074.01c-2.171.051-4.633.109-6.146.029C699.635,648.338,696.625,648.266,694.3,648.266Z" transform="translate(-689.574 -648.007)" fill="#2e3c4b"/>
        <path id="Path_2123" data-name="Path 2123" d="M701.323,693.255c-3.384,0-10.611-.639-11.608-1.513a.4.4,0,0,1-.153-.277c-.029-.49.689-12.533,1.323-23.158l.012-.215c.459-7.681.933-15.622.934-16.072a6.4,6.4,0,0,0-.906-.773l-.055-.043-.125-.1c-.082-.066-.2-.228-.249-.866a4.116,4.116,0,0,1,.229-2.012c.4-.44,9.334-.137,10.863-.056,1.492.08,3.93.023,6.081-.028h.046c3.653-.088,4.177-.074,4.3.1.149.223.063.848-.325,2.39l-.016.059a1.375,1.375,0,0,1-.593.75,2.06,2.06,0,0,0-.563.579c.223,1.946,4.426,38.622,3.517,39.826-.719.951-5.016,1.107-8.809,1.245-.994.036-2.023.073-2.753.126C702.166,693.244,701.781,693.255,701.323,693.255Zm-11.43-1.595c.844.577,4.88,1.095,8.364,1.313C694.8,692.75,690.728,692.225,689.893,691.66Zm.013-.217a.251.251,0,0,0,.036.038c.412.361,2.519.778,5.5,1.086a49.368,49.368,0,0,0,7,.31c.738-.052,1.768-.09,2.766-.125,3.162-.117,7.927-.291,8.546-1.11.607-.8-1.881-24.736-3.591-39.632l-.007-.055.026-.047a2.286,2.286,0,0,1,.681-.734,1.076,1.076,0,0,0,.47-.563l.015-.059a7,7,0,0,0,.383-2.092c-.3-.061-2.343-.012-4,.026-2.183.052-4.644.112-6.163.029-1.946-.1-4.942-.177-7.285-.177a14.751,14.751,0,0,0-3.321.138,4.627,4.627,0,0,0-.122,1.736,1.427,1.427,0,0,0,.124.625l.142.112.017.014c.753.589,1,.817,1.045.977.026.088-.062,1.7-.93,16.247-.605,10.144-1.358,22.768-1.332,23.255Zm23.986.3h0l-.016.021.016-.021Zm-3.435-38.673c.562,4.965,2.874,25.635,3.428,34.563C713.414,679.978,711.642,663.436,710.457,653.073ZM692,651.978c.008.159-.109,2.247-.294,5.42.227-3.859.305-5.312.294-5.419Zm19.451-1.18a.976.976,0,0,1-.218.293A.958.958,0,0,0,711.451,650.8Zm.432-1.912a16.1,16.1,0,0,1-.339,1.6A15.793,15.793,0,0,0,711.882,648.886Zm-7.412-.508-.694.005Zm-13.6-.044-.016.01h0Z" transform="translate(-689.561 -647.994)" fill="#2e3c4b"/>
      </g>
      <g id="Group_329" data-name="Group 329" transform="translate(7.831 1.264)">
        <path id="Path_2124" data-name="Path 2124" d="M702.38,634.812c-1.585,0-6.137-.139-6.381-.653h0a.23.23,0,0,1,.044-.211c.532-.8,5.348-3.953,6.569-3.953h.029c1.145.052,5.645,2.972,6.094,3.955a.268.268,0,0,1,0,.292c-.386.487-2.681.543-5.417.562l-.715.006Zm-6.22-.719c.214.3,3.9.572,6.438.547l.716-.006c1.958-.014,4.917-.036,5.282-.5.014-.017.008-.06-.016-.113-.423-.924-4.868-3.806-5.945-3.855a10.643,10.643,0,0,0-3.66,1.773A11.428,11.428,0,0,0,696.16,634.093Z" transform="translate(-695.9 -629.909)" fill="#2e3c4b"/>
        <path id="Path_2125" data-name="Path 2125" d="M702.366,634.885c-.061,0-6.133-.018-6.459-.7a.294.294,0,0,1,.049-.3c.557-.839,5.409-3.992,6.642-3.992h.033c1.16.052,5.714,3.01,6.169,4.005a.344.344,0,0,1-.016.381c-.409.519-2.627.576-5.483.6l-.715.006Zm4.629-.294c-.988.086-2.308.1-3.695.114l-.715.006h0l.715-.006C704.48,634.7,705.906,634.688,707,634.591Zm-8.986-.07c.841.08,1.856.137,2.84.167C699.9,634.659,698.87,634.6,698.009,634.521Zm-1.755-.464a29.2,29.2,0,0,0,6.33.482l.716-.006c1.8-.013,4.8-.034,5.2-.449a.272.272,0,0,0-.015-.039c-.417-.911-4.806-3.756-5.871-3.8h-.023A11.275,11.275,0,0,0,699.007,632,14.264,14.264,0,0,0,696.254,634.058Zm6.474-3.979c1.22.2,5.328,2.874,5.886,3.837C708.048,632.923,703.979,630.277,702.728,630.079Zm-3.519,1.589c-.457.283-.906.577-1.317.86.316-.218.66-.444,1.022-.674Zm3.39-1.6h.025l-.025-.087Z" transform="translate(-695.886 -629.896)" fill="#2e3c4b"/>
      </g>
      <g id="Group_330" data-name="Group 330" transform="translate(7.942 5.478)">
        <rect id="Rectangle_226" data-name="Rectangle 226" width="0.173" height="7.376" transform="translate(0.087 0.089) rotate(-0.656)" fill="#2e3c4b"/>
        <path id="Path_2126" data-name="Path 2126" d="M696.1,642.32v-.087l-.085-7.462.345,0v.086l.085,7.461Z" transform="translate(-696.015 -634.769)" fill="#2e3c4b"/>
      </g>
      <g id="Group_331" data-name="Group 331" transform="translate(20.421 5.457)">
        <rect id="Rectangle_227" data-name="Rectangle 227" width="0.173" height="7.319" transform="matrix(1, -0.012, 0.012, 1, 0.087, 0.089)" fill="#2e3c4b"/>
        <path id="Path_2127" data-name="Path 2127" d="M710.537,642.238v-.086l-.089-7.4.345,0v.086l.09,7.4Z" transform="translate(-710.446 -634.744)" fill="#2e3c4b"/>
      </g>
      <g id="Group_332" data-name="Group 332" transform="translate(3.415 15.091)">
        <path id="Path_2128" data-name="Path 2128" d="M712.129,648.087l-.169-.031a4.294,4.294,0,0,0,.109-1.646c-.214-.074-3.652-.035-6.161-.007-1.7.02-3.168.036-3.715.022-.284-.007-.874-.028-1.642-.055-2.7-.1-8.987-.318-9.451-.154a8.217,8.217,0,0,0,.018,1.848l-.171.016a7.3,7.3,0,0,1,.011-1.966c.094-.167,1.606-.2,9.6.084.767.027,1.357.048,1.64.055.545.013,2.011,0,3.709-.022a59.769,59.769,0,0,1,6.26.036C712.4,646.427,712.22,647.594,712.129,648.087Z" transform="translate(-690.793 -645.9)" fill="#2e3c4b"/>
        <path id="Path_2129" data-name="Path 2129" d="M712.185,648.174l-.339-.062.016-.086a5.665,5.665,0,0,0,.136-1.554c-.4-.061-3.78-.023-6.038,0h-.092c-1.688.02-3.145.035-3.691.022-.258-.006-.768-.024-1.434-.048l-.208-.008c-2.4-.085-8.677-.307-9.381-.169a9.468,9.468,0,0,0,.036,1.77l.008.086-.344.031-.008-.086a6.624,6.624,0,0,1,.022-2.017c.109-.188.61-.28,9.678.041.766.028,1.356.048,1.639.055.525.009,1.867,0,3.706-.023,4.983-.057,6.161-.047,6.308.052.208.138.208.779,0,1.908Zm-.138-.2h0a7.705,7.705,0,0,0,.137-1.2A9.849,9.849,0,0,1,712.046,647.973Zm-21.034-1.823h0a6.088,6.088,0,0,0-.009,1.723,7.427,7.427,0,0,1,0-1.7Zm8.577.086.949.034.209.007.1,0-.31-.012Z" transform="translate(-690.779 -645.886)" fill="#2e3c4b"/>
      </g>
      <g id="Group_333" data-name="Group 333" transform="translate(4.617 19.061)">
        <path id="Path_2130" data-name="Path 2130" d="M695.49,653.048h-1.209v-.087c0-.014.012-1.415-.447-1.88a.426.426,0,0,0-.315-.14c-.793,0-1.062,1.4-1.065,1.415l-.169-.032c.011-.063.3-1.555,1.234-1.555a.6.6,0,0,1,.438.191,3.359,3.359,0,0,1,.5,1.915h.956c.037-.4.25-2.085,1.19-2.215a.619.619,0,0,1,.513.154,3.2,3.2,0,0,1,.568,1.948l.939-.046a2.745,2.745,0,0,1,.212-1.714.487.487,0,0,1,.385-.179c.771,0,1.067,1.4,1.128,1.742l.674.036a2.95,2.95,0,0,1,.56-1.79.672.672,0,0,1,.532-.174c.492.052.495,1.39.483,1.825l1.189.119c.03-.4.2-1.909,1.088-1.961a.626.626,0,0,1,.482.179,3.268,3.268,0,0,1,.565,1.9h.59c.035-.422.213-2.034.84-2.079s.962,1.589,1.037,2l.978.011c.022-.68.113-2.05.494-2.05h0c.69.005.911,1.572.933,1.751l-.171.022c-.056-.444-.3-1.6-.764-1.6h0a4.011,4.011,0,0,0-.323,1.968l0,.085-1.292-.015-.012-.071c-.127-.759-.465-1.957-.866-1.926s-.634,1.242-.687,2l-.005.08h-.919l0-.086c0-.014-.024-1.407-.512-1.861a.458.458,0,0,0-.354-.133c-.841.049-.93,1.87-.93,1.888l0,.091-1.531-.152,0-.081c.028-.7-.053-1.7-.325-1.727a.5.5,0,0,0-.4.13c-.487.435-.506,1.741-.506,1.754v.09l-.991-.054-.01-.069c-.07-.463-.379-1.664-.969-1.664a.318.318,0,0,0-.254.118c-.35.41-.161,1.658-.159,1.671l.015.094-1.307.064v-.091c0-.015-.007-1.469-.511-1.908a.452.452,0,0,0-.376-.112c-.9.125-1.046,2.116-1.047,2.137l-.006.08Z" transform="translate(-692.186 -650.491)" fill="#2e3c4b"/>
        <path id="Path_2131" data-name="Path 2131" d="M695.636,653.12h-1.458l0-.174a3.313,3.313,0,0,0-.422-1.818.346.346,0,0,0-.253-.114c-.712,0-.977,1.33-.979,1.343l-.016.086-.339-.062.015-.085c.012-.067.3-1.627,1.32-1.627a.68.68,0,0,1,.5.217,3.267,3.267,0,0,1,.519,1.89h.794c.062-.578.317-2.085,1.256-2.215a.689.689,0,0,1,.582.173,3.048,3.048,0,0,1,.595,1.923l.758-.037a2.611,2.611,0,0,1,.242-1.689.581.581,0,0,1,.451-.208c.786,0,1.106,1.257,1.2,1.744l.52.029a2.886,2.886,0,0,1,.585-1.764.773.773,0,0,1,.6-.195c.514.054.576,1.135.562,1.832l1.022.1c.051-.544.27-1.9,1.161-1.953a.69.69,0,0,1,.546.2,3.187,3.187,0,0,1,.588,1.877h.429c.062-.669.269-2.034.912-2.08l.034,0c.622,0,.955,1.341,1.081,2l.822.009c.051-1.361.245-2.049.578-2.049.749.005.981,1.522,1.02,1.826l.011.086-.342.044-.011-.086c-.08-.618-.334-1.485-.657-1.524a5.681,5.681,0,0,0-.257,1.883l-.005.17-1.448-.018-.024-.142c-.151-.9-.484-1.853-.765-1.853h-.009c-.285.02-.544,1.008-.607,1.919l-.012.16h-1.084l0-.169c0-.016-.026-1.371-.484-1.8a.4.4,0,0,0-.291-.111c-.742.043-.846,1.732-.849,1.8l-.008.184-1.7-.171.006-.162c.036-.889-.105-1.622-.247-1.638a.421.421,0,0,0-.333.109c-.454.406-.476,1.677-.476,1.689l0,.181L700.1,652.8l-.021-.139c-.093-.615-.414-1.591-.883-1.591a.234.234,0,0,0-.189.089c-.271.317-.189,1.285-.139,1.6l.03.19-1.5.074v-.182c0-.4-.088-1.5-.482-1.844a.372.372,0,0,0-.307-.092c-.824.115-.973,2.037-.974,2.056Zm-.163-.172h0l0-.03Zm-1.121,0h0l0-.086v-.006C694.353,652.907,694.353,652.939,694.353,652.948Zm3.228-.138v.029l.122-.006-.122.006Zm1.115-.069.007.043S698.7,652.765,698.7,652.74Zm7.873.03h0v-.015Zm-.753,0h0l0-.05Zm1.107-1.672a5.213,5.213,0,0,0-.347,1.594l0,.02A5.911,5.911,0,0,1,706.923,651.1Zm2.5,1.6h0v0Zm-1.134-.013h0l0-.028Zm-2.911-1.72a3.694,3.694,0,0,1,.43,1.71A3.645,3.645,0,0,0,705.383,650.968Zm-4.3,1.709h0v0Zm2.751-.017h.01l0-.033,0,.033Zm5.714-1.352a9.275,9.275,0,0,0-.118,1.308v.018A11.48,11.48,0,0,1,709.549,651.308Zm-9.294,1.325h0v0Zm3.715-.806a4.92,4.92,0,0,0-.117.73A5,5,0,0,1,703.97,651.827Zm-4.531-.875c.5.247.729,1.226.8,1.565C700.174,652.2,699.946,651.2,699.439,650.952Zm2.978.32a6.1,6.1,0,0,1,.074,1.109A5.493,5.493,0,0,0,702.417,651.272Zm7.92-.2a4.264,4.264,0,0,1,.337,1.165h0A3.979,3.979,0,0,0,710.337,651.075Zm-9.089.467a3.9,3.9,0,0,0-.1.424A3.9,3.9,0,0,1,701.248,651.542Zm-2.192-.623a.394.394,0,0,0-.116.066A.415.415,0,0,1,699.056,650.92Zm10.781-.27a.345.345,0,0,1,.1.013.531.531,0,0,0-.1-.013Z" transform="translate(-692.17 -650.477)" fill="#2e3c4b"/>
      </g>
      <g id="Group_334" data-name="Group 334" transform="translate(12.497 56.905)">
        <path id="Path_2132" data-name="Path 2132" d="M701.414,699.316c-.011-.138-.271-3.386.878-4.558a1.337,1.337,0,0,1,1.082-.412c.979.062,1.673.933,2.009,2.517a11.388,11.388,0,0,1,.214,2.361l-.173-.006c0-.046.119-4.561-2.062-4.7a1.169,1.169,0,0,0-.947.361c-1.094,1.115-.833,4.389-.829,4.422Z" transform="translate(-701.296 -694.255)" fill="#2e3c4b"/>
        <path id="Path_2133" data-name="Path 2133" d="M701.322,699.4l-.008-.087c-.011-.14-.269-3.429.9-4.625a1.409,1.409,0,0,1,1.148-.438c1.022.065,1.744.959,2.087,2.586a11.278,11.278,0,0,1,.217,2.375l0,.087-.087,0-.259-.008,0-.086c0-.045.1-4.479-1.98-4.612a1.088,1.088,0,0,0-.88.336c-1.06,1.082-.808,4.321-.805,4.354l.008.086Zm.813-4.336c-.781,1.155-.694,3.5-.657,4.1C701.444,698.566,701.363,696.209,702.135,695.06Z" transform="translate(-701.282 -694.241)" fill="#2e3c4b"/>
      </g>
      <g id="Group_335" data-name="Group 335" transform="translate(7.023 47.01)">
        <path id="Path_2134" data-name="Path 2134" d="M696.9,685.393h-1.817l-.008-.078a3.645,3.645,0,0,1,.377-2.138.739.739,0,0,1,.522-.278.621.621,0,0,1,.513.188c.553.553.425,2.159.419,2.228Zm-1.659-.172h1.5c.018-.328.057-1.581-.374-2.012a.453.453,0,0,0-.377-.138.569.569,0,0,0-.4.218A3.333,3.333,0,0,0,695.239,685.221Z" transform="translate(-694.966 -682.811)" fill="#2e3c4b"/>
        <path id="Path_2135" data-name="Path 2135" d="M696.965,685.466h-1.976l-.016-.156a3.649,3.649,0,0,1,.4-2.2.823.823,0,0,1,.582-.309.718.718,0,0,1,.581.214c.586.586.45,2.226.444,2.295Zm-1.659-1.895a4.392,4.392,0,0,0-.166,1.643h0A4.406,4.406,0,0,1,695.306,683.572Zm0,1.55h1.335a2.967,2.967,0,0,0-.354-1.865.371.371,0,0,0-.308-.112.477.477,0,0,0-.345.187A3.15,3.15,0,0,0,695.307,685.122Zm1.327-1.617a4.093,4.093,0,0,1,.187,1.358A4.054,4.054,0,0,0,696.635,683.5Zm-.464-.514a.575.575,0,0,1,.087.034A.469.469,0,0,0,696.171,682.99Z" transform="translate(-694.952 -682.798)" fill="#2e3c4b"/>
      </g>
      <g id="Group_336" data-name="Group 336" transform="translate(20.765 49.562)">
        <path id="Path_2136" data-name="Path 2136" d="M712.856,688.8h-1.9l0-.082c-.011-.288-.084-2.811.9-2.869a.525.525,0,0,1,.4.157c.605.574.6,2.622.6,2.708Zm-1.735-.172h1.563c-.005-.394-.058-2.036-.545-2.5a.361.361,0,0,0-.275-.11C711.194,686.061,711.1,687.843,711.121,688.628Z" transform="translate(-710.858 -685.763)" fill="#2e3c4b"/>
        <path id="Path_2137" data-name="Path 2137" d="M712.928,688.873h-2.071l-.006-.165c-.02-.483-.066-2.9.983-2.958a.633.633,0,0,1,.469.181c.639.606.626,2.684.625,2.771Zm-1.335-2.858c-.484.354-.593,1.64-.574,2.527C711.013,688.112,711.028,686.431,711.593,686.015Zm-.4,2.514h1.39a4.237,4.237,0,0,0-.516-2.349.292.292,0,0,0-.211-.086C711.338,686.125,711.177,687.536,711.192,688.529Zm1.418-1.464a9.046,9.046,0,0,1,.144,1.429A8.963,8.963,0,0,0,712.61,687.065Z" transform="translate(-710.844 -685.75)" fill="#2e3c4b"/>
      </g>
      <g id="Group_337" data-name="Group 337" transform="translate(6.963 27.567)">
        <path id="Path_2138" data-name="Path 2138" d="M697.117,663.6h-2.132l0-.088c0-.1.063-2.4.675-2.962a.45.45,0,0,1,.346-.132c.908.058,1.085,2.781,1.1,3.091Zm-1.953-.173h1.77c-.058-.857-.317-2.8-.936-2.837a.294.294,0,0,0-.218.087C695.283,661.127,695.18,662.993,695.163,663.423Z" transform="translate(-694.897 -660.327)" fill="#2e3c4b"/>
        <path id="Path_2139" data-name="Path 2139" d="M697.194,663.668h-2.311l0-.176c0-.1.061-2.433.7-3.023a.554.554,0,0,1,.409-.155c.962.061,1.154,2.654,1.183,3.172Zm-1.954-.344h1.588c-.1-1.288-.422-2.637-.848-2.665a.219.219,0,0,0-.155.065A5.086,5.086,0,0,0,695.239,663.324Zm1.168-2.531a6.962,6.962,0,0,1,.592,2.529A6.4,6.4,0,0,0,696.408,660.793Zm-.473-.305a.338.338,0,0,0-.166.061A.349.349,0,0,1,695.935,660.488Z" transform="translate(-694.883 -660.313)" fill="#2e3c4b"/>
      </g>
      <g id="Group_338" data-name="Group 338" transform="translate(19.572 30.369)">
        <path id="Path_2140" data-name="Path 2140" d="M711.41,666.71h-1.781l-.009-.077c-.01-.092-.249-2.25.365-2.829a.532.532,0,0,1,.481-.14c1.159.2.959,2.854.949,2.967Zm-1.625-.173h1.464c.024-.438.092-2.547-.812-2.7a.364.364,0,0,0-.333.1C709.612,664.393,709.748,666.149,709.785,666.537Z" transform="translate(-709.478 -663.567)" fill="#2e3c4b"/>
        <path id="Path_2141" data-name="Path 2141" d="M711.475,666.782h-1.936l-.018-.152c-.027-.234-.244-2.3.391-2.9a.616.616,0,0,1,.555-.163c1.211.209,1.045,2.768,1.021,3.059Zm-.156-1.219a8.5,8.5,0,0,1,0,.966l0,.038A7.332,7.332,0,0,0,711.319,665.563Zm-1.681.057a9.348,9.348,0,0,0,.05.946l0-.034C709.667,666.347,709.64,666,709.638,665.62Zm.212.818h1.3c.051-1.119-.114-2.424-.744-2.533a.274.274,0,0,0-.259.073C709.8,664.312,709.767,665.493,709.85,666.438Zm.49-2.712a.417.417,0,0,0-.251.08A.429.429,0,0,1,710.339,663.726Z" transform="translate(-709.464 -663.553)" fill="#2e3c4b"/>
      </g>
      <g id="Group_339" data-name="Group 339" transform="translate(9.195 5.768)">
        <rect id="Rectangle_228" data-name="Rectangle 228" width="0.172" height="6.922" transform="translate(0.09 0.098) rotate(-2.556)" fill="#2e3c4b"/>
        <path id="Path_2142" data-name="Path 2142" d="M697.781,642.208l0-.086-.312-7,.345-.015,0,.086.313,7Z" transform="translate(-697.464 -635.104)" fill="#2e3c4b"/>
      </g>
      <g id="Group_340" data-name="Group 340" transform="translate(11.148 6.048)">
        <rect id="Rectangle_229" data-name="Rectangle 229" width="6.783" height="0.173" transform="translate(0.086 6.869) rotate(-88.552)" fill="#2e3c4b"/>
        <rect id="Rectangle_230" data-name="Rectangle 230" width="6.955" height="0.346" transform="matrix(0.024, -1, 1, 0.024, 0, 6.953)" fill="#2e3c4b"/>
      </g>
      <g id="Group_341" data-name="Group 341" transform="translate(13.291 5.989)">
        <rect id="Rectangle_231" data-name="Rectangle 231" width="0.173" height="6.811" transform="translate(0.089 0.095) rotate(-1.838)" fill="#2e3c4b"/>
        <path id="Path_2143" data-name="Path 2143" d="M702.425,642.352l0-.087-.221-6.893.345-.012,0,.087.221,6.893Z" transform="translate(-702.201 -635.36)" fill="#2e3c4b"/>
      </g>
      <g id="Group_342" data-name="Group 342" transform="translate(15.806 5.995)">
        <rect id="Rectangle_232" data-name="Rectangle 232" width="0.173" height="6.695" transform="translate(0.087 0.087)" fill="#2e3c4b"/>
        <rect id="Rectangle_233" data-name="Rectangle 233" width="0.346" height="6.868" fill="#2e3c4b"/>
      </g>
      <g id="Group_343" data-name="Group 343" transform="translate(17.232 5.913)">
        <rect id="Rectangle_234" data-name="Rectangle 234" width="0.173" height="6.722" transform="translate(0.088 0.092) rotate(-1.244)" fill="#2e3c4b"/>
        <path id="Path_2144" data-name="Path 2144" d="M706.908,642.172l0-.086-.148-6.806.345-.007,0,.086.148,6.806Z" transform="translate(-706.758 -635.272)" fill="#2e3c4b"/>
      </g>
      <g id="Group_344" data-name="Group 344" transform="translate(18.454 5.875)">
        <rect id="Rectangle_235" data-name="Rectangle 235" width="0.173" height="6.768" transform="translate(0.093 0.106) rotate(-4.442)" fill="#2e3c4b"/>
        <rect id="Rectangle_236" data-name="Rectangle 236" width="0.345" height="6.941" transform="translate(0 0.027) rotate(-4.445)" fill="#2e3c4b"/>
      </g>
      <g id="Group_345" data-name="Group 345" transform="translate(13.791)">
        <path id="Path_2145" data-name="Path 2145" d="M703.354,629.994a.411.411,0,0,1-.253-.07c-.147-.109-.179-.323-.218-.662a.67.67,0,0,1,.641-.728h.012l.011,0c.391.061.794.125.794.632,0,.457-.233.7-.755.8A1.315,1.315,0,0,1,703.354,629.994Zm.18-1.288c-.079.012-.528.1-.479.535.033.286.061.478.15.544.059.043.168.048.35.014.443-.083.615-.26.615-.633C704.169,628.859,704.018,628.784,703.534,628.707Z" transform="translate(-702.792 -628.447)" fill="#2e3c4b"/>
        <path id="Path_2146" data-name="Path 2146" d="M703.34,630.067a.489.489,0,0,1-.3-.087c-.176-.131-.211-.359-.253-.721a.753.753,0,0,1,.716-.824h.035c.4.061.879.137.879.719,0,.5-.262.782-.826.886A1.329,1.329,0,0,1,703.34,630.067Zm.18-1.285c-.1.016-.431.1-.393.438.021.184.049.436.114.483.025.019.094.033.284,0,.4-.074.544-.218.544-.546C704.069,628.928,704,628.859,703.52,628.782Zm-.513.808a.768.768,0,0,0,.039.125A.768.768,0,0,1,703.007,629.589Z" transform="translate(-702.778 -628.434)" fill="#2e3c4b"/>
      </g>
      <g id="Group_346" data-name="Group 346" transform="translate(24.563 4.543)">
        <path id="Path_2147" data-name="Path 2147" d="M715.406,635.107l-.047-.166,4.049-1.13.047.166Z" transform="translate(-715.253 -633.704)" fill="#2e3c4b"/>
        <path id="Path_2148" data-name="Path 2148" d="M715.33,635.2l-.093-.332.084-.024,4.132-1.154.093.333-.083.024Z" transform="translate(-715.236 -633.688)" fill="#2e3c4b"/>
      </g>
      <g id="Group_347" data-name="Group 347" transform="translate(26.276 8.637)">
        <rect id="Rectangle_237" data-name="Rectangle 237" width="2.38" height="0.172" transform="translate(0.087 0.086)" fill="#2e3c4b"/>
        <rect id="Rectangle_238" data-name="Rectangle 238" width="2.554" height="0.345" fill="#2e3c4b"/>
      </g>
      <g id="Group_348" data-name="Group 348" transform="translate(25.1 10.941)">
        <rect id="Rectangle_239" data-name="Rectangle 239" width="0.172" height="2.58" transform="translate(0.117 0.27) rotate(-62.876)" fill="#2e3c4b"/>
        <rect id="Rectangle_240" data-name="Rectangle 240" width="0.345" height="2.754" transform="translate(0 0.307) rotate(-62.873)" fill="#2e3c4b"/>
      </g>
      <g id="Group_349" data-name="Group 349" transform="translate(1.018 4.292)">
        <path id="Path_2149" data-name="Path 2149" d="M691.043,635.166c-.37-.3-2.884-1.466-2.909-1.477l.073-.157a32.717,32.717,0,0,1,2.945,1.5Z" transform="translate(-688.025 -633.415)" fill="#2e3c4b"/>
        <path id="Path_2150" data-name="Path 2150" d="M691.038,635.269l-.067-.055a30.284,30.284,0,0,0-2.886-1.462l-.078-.036.03-.081.109-.237.113.054a29.046,29.046,0,0,1,2.929,1.5l.068.055Z" transform="translate(-688.008 -633.397)" fill="#2e3c4b"/>
      </g>
      <g id="Group_350" data-name="Group 350" transform="translate(0.551 8.304)">
        <path id="Path_2151" data-name="Path 2151" d="M687.578,638.451l-.007-.172,3.162-.137.007.172Z" transform="translate(-687.481 -638.051)" fill="#2e3c4b"/>
        <path id="Path_2152" data-name="Path 2152" d="M687.481,638.527l-.014-.346.086,0,3.248-.141.016.347-.086,0Zm.166-.18,2.988-.13Z" transform="translate(-687.467 -638.037)" fill="#2e3c4b"/>
      </g>
      <g id="Group_351" data-name="Group 351" transform="translate(0 11.528)">
        <rect id="Rectangle_241" data-name="Rectangle 241" width="2.737" height="0.173" transform="matrix(0.904, -0.427, 0.427, 0.904, 0.115, 1.284)" fill="#2e3c4b"/>
        <rect id="Rectangle_242" data-name="Rectangle 242" width="2.91" height="0.345" transform="matrix(0.904, -0.428, 0.428, 0.904, 0, 1.244)" fill="#2e3c4b"/>
      </g>
      <g id="Group_352" data-name="Group 352" transform="translate(7.873 12.548)">
        <path id="Path_2153" data-name="Path 2153" d="M709.074,647.721h0a.087.087,0,0,1-.085-.089,26.83,26.83,0,0,0-.1-4.215c-.2-.257-3.636-.244-6.347-.061a34.1,34.1,0,0,1-3.507-.034,8.249,8.249,0,0,0-2.684.074c-.276.469-.086,3.113.011,4.092a.086.086,0,0,1-.078.094.085.085,0,0,1-.094-.077c-.014-.146-.348-3.584.011-4.2.154-.262,1.08-.234,2.841-.159a34.013,34.013,0,0,0,3.488.035c.062,0,6.21-.384,6.51.149a28.085,28.085,0,0,1,.121,4.3A.087.087,0,0,1,709.074,647.721Z" transform="translate(-695.949 -642.959)"/>
        <path id="Path_2154" data-name="Path 2154" d="M709.061,647.793h0a.172.172,0,0,1-.123-.054.169.169,0,0,1-.048-.122,26.867,26.867,0,0,0-.088-4.171,29.724,29.724,0,0,0-6.266-.018,33.316,33.316,0,0,1-3.517-.034,11.111,11.111,0,0,0-2.609.035,14.806,14.806,0,0,0,.026,4.037.167.167,0,0,1-.039.126.172.172,0,0,1-.3-.093c-.036-.369-.344-3.624.022-4.249.18-.3,1.025-.282,2.919-.2a33.545,33.545,0,0,0,3.479.034c1.9-.112,6.3-.318,6.59.195a25.044,25.044,0,0,1,.132,4.347A.173.173,0,0,1,709.061,647.793Zm0-.172h0v0Zm-12.948-2.554c.017.816.085,1.736.145,2.365C696.234,647.181,696.136,646.076,696.112,645.066Zm12.961-.264c.021.962,0,2.124-.008,2.6C709.085,646.5,709.09,645.553,709.074,644.8Zm-.128-1.448a2.885,2.885,0,0,1,.106.806,2.857,2.857,0,0,0-.1-.8Zm-11.428-.184c.258,0,.556.013.9.025C698.094,643.185,697.79,643.174,697.518,643.171Z" transform="translate(-695.935 -642.945)" fill="#2e3c4b"/>
      </g>
    </g>
  </g>
</svg>
