<svg xmlns="http://www.w3.org/2000/svg" width="244.035" height="91.246" viewBox="0 0 244.035 91.246">
  <g id="przej_do_sklepu_button" data-name="przej do sklepu button" transform="translate(-215 -2755.92)">
    <path id="Path_668" data-name="Path 668" d="M256.674,863.092c10.917-11.915,215.258-11.96,224.935,0s7.6,61.386-4.469,72.34-197.707,14.016-220.465,3.32S245.757,875.007,256.674,863.092Z" transform="translate(-28.677 1901.781)" fill="#e5a34c"/>
    <path id="Path_2863" data-name="Path 2863" d="M34.038,13.456V19H31.926V3.04h4.488a4.941,4.941,0,0,1,1.944.4,5.169,5.169,0,0,1,1.656,1.116A5.414,5.414,0,0,1,41.13,6.244a5.2,5.2,0,0,1-1.116,5.676,5.337,5.337,0,0,1-1.656,1.128,4.816,4.816,0,0,1-1.944.408Zm0-8.232v6.1h2.376a2.8,2.8,0,0,0,2.112-.912,2.94,2.94,0,0,0,.888-2.16,2.912,2.912,0,0,0-.888-2.136,2.885,2.885,0,0,0-2.112-.888ZM53.214,19H50.382L45.8,13.552V19H43.686V3.064h4.1a4.945,4.945,0,0,1,3.6,1.512,5.451,5.451,0,0,1,1.08,1.692,5.467,5.467,0,0,1,.048,3.9,5,5,0,0,1-.96,1.584,5.234,5.234,0,0,1-1.464,1.14,4.794,4.794,0,0,1-1.752.54ZM45.8,5.224v6.1H47.79a2.859,2.859,0,0,0,1.152-.24,3.079,3.079,0,0,0,.96-.648,3.2,3.2,0,0,0,.636-.984,3.05,3.05,0,0,0,.228-1.176,2.98,2.98,0,0,0-1.824-2.808,2.859,2.859,0,0,0-1.152-.24ZM54.414,17.1,62.526,5.2H54.414V3.04H65.262V4.984L57.174,16.816h8.088V19H54.414ZM67.422,19V3.04h8.736V5.2H69.51v4.848h4.464v1.968H69.51V16.84h6.648V19Zm10.9-2.16a2.38,2.38,0,0,0,1.74-.672,2.259,2.259,0,0,0,.684-1.68V3.04H82.71V14.488a4.7,4.7,0,0,1-.324,1.752,4.61,4.61,0,0,1-.9,1.44,4.26,4.26,0,0,1-1.416.972A4.419,4.419,0,0,1,78.318,19ZM85.11,19V3.016h4.128a7.712,7.712,0,0,1,3.048.612A7.977,7.977,0,0,1,94.83,5.344a8.435,8.435,0,0,1,1.692,2.58,8.076,8.076,0,0,1,0,6.168,8.14,8.14,0,0,1-1.692,2.556,7.793,7.793,0,0,1-2.544,1.74A7.712,7.712,0,0,1,89.238,19ZM87.27,5.176V16.84h1.968a5.6,5.6,0,0,0,2.22-.456,5.85,5.85,0,0,0,1.86-1.248,5.968,5.968,0,0,0,1.236-1.884,5.893,5.893,0,0,0,0-4.488A5.968,5.968,0,0,0,93.318,6.88a5.85,5.85,0,0,0-1.86-1.248,5.6,5.6,0,0,0-2.22-.456ZM99.054,17.1l8.112-11.9H99.054V3.04H109.9V4.984l-8.088,11.832H109.9V19H99.054ZM105.1,1.864h-1.608l.888-3.312h1.872ZM122.862,19V3.016h4.128a7.712,7.712,0,0,1,3.048.612,7.977,7.977,0,0,1,2.544,1.716,8.436,8.436,0,0,1,1.692,2.58,8.076,8.076,0,0,1,0,6.168,8.14,8.14,0,0,1-1.692,2.556,7.793,7.793,0,0,1-2.544,1.74A7.712,7.712,0,0,1,126.99,19Zm2.16-13.824V16.84h1.968a5.6,5.6,0,0,0,2.22-.456,5.85,5.85,0,0,0,1.86-1.248,5.968,5.968,0,0,0,1.236-1.884,5.893,5.893,0,0,0,0-4.488A5.968,5.968,0,0,0,131.07,6.88a5.85,5.85,0,0,0-1.86-1.248,5.6,5.6,0,0,0-2.22-.456ZM144.8,19.12a7.859,7.859,0,0,1-3.084-.612,7.759,7.759,0,0,1-2.556-1.74,8.033,8.033,0,0,1-1.728-2.58A8.064,8.064,0,0,1,137.418,8a8.141,8.141,0,0,1,4.3-4.308,7.728,7.728,0,0,1,3.084-.624,7.814,7.814,0,0,1,3.1.624,8.065,8.065,0,0,1,4.3,4.3,7.814,7.814,0,0,1,.624,3.1,7.9,7.9,0,0,1-.624,3.108,8.034,8.034,0,0,1-4.3,4.308A7.814,7.814,0,0,1,144.8,19.12Zm0-13.872a5.817,5.817,0,0,0-5.832,5.832,5.889,5.889,0,0,0,.456,2.292,5.811,5.811,0,0,0,10.752,0,5.889,5.889,0,0,0,.456-2.292A5.817,5.817,0,0,0,144.8,5.248ZM66.654,36.96a3.7,3.7,0,0,0-.5-1.536,2.624,2.624,0,0,0-1.068-.948,3.8,3.8,0,0,0-1.62-.3,3.035,3.035,0,0,0-2.28.7,2.437,2.437,0,0,0-.624,1.8,2.646,2.646,0,0,0,.192,1.092,1.647,1.647,0,0,0,.576.684,4.016,4.016,0,0,0,1.9.528,13.251,13.251,0,0,1,2.268.372,6.1,6.1,0,0,1,1.62.684,3.79,3.79,0,0,1,1.752,3.456,4.234,4.234,0,0,1-.36,1.728,4.671,4.671,0,0,1-2.82,2.568,6.616,6.616,0,0,1-2.172.36,5.638,5.638,0,0,1-4.056-1.44,5.7,5.7,0,0,1-1.56-3.456l.048-.024h2.112a3.139,3.139,0,0,0,.864,1.9,3.57,3.57,0,0,0,2.52.864,3.789,3.789,0,0,0,2.4-.7,2.184,2.184,0,0,0,.888-1.8,2.621,2.621,0,0,0-.132-.876,1.481,1.481,0,0,0-.492-.66,6.079,6.079,0,0,0-3.048-.792A5.509,5.509,0,0,1,59.6,39.84a4.183,4.183,0,0,1-1.176-3.168,4.511,4.511,0,0,1,1.272-3.336,5.818,5.818,0,0,1,7.632.168,6.015,6.015,0,0,1,1.488,3.456ZM78.294,48l-5.16-5.88V48H71.022V32.064h2.112v6.072L78.2,32.064h2.784l-6.744,8.088L81.15,48Zm5.016,0V32.04h2.064v13.8h4.8V48Zm9.024,0V32.04h8.736V34.2H94.422v4.848h4.464v1.968H94.422V45.84h6.648V48Zm13.248-5.544V48H103.47V32.04h4.488a4.941,4.941,0,0,1,1.944.4,5.169,5.169,0,0,1,1.656,1.116,5.414,5.414,0,0,1,1.116,1.692,5.2,5.2,0,0,1-1.116,5.676,5.338,5.338,0,0,1-1.656,1.128,4.816,4.816,0,0,1-1.944.408Zm0-8.232v6.1h2.376a2.8,2.8,0,0,0,2.112-.912,3.042,3.042,0,0,0,0-4.3,2.885,2.885,0,0,0-2.112-.888ZM120.8,48.168a5.324,5.324,0,0,1-2.148-.444,5.553,5.553,0,0,1-1.788-1.236,5.828,5.828,0,0,1-1.2-1.824,5.539,5.539,0,0,1-.432-2.16V32.088h2.04V42.5a3.591,3.591,0,0,0,.264,1.368,3.463,3.463,0,0,0,.768,1.152,3.357,3.357,0,0,0,1.128.78,3.528,3.528,0,0,0,2.736,0,3.624,3.624,0,0,0,1.152-.78,3.463,3.463,0,0,0,.768-1.152,3.591,3.591,0,0,0,.264-1.368V32.088h2.016V42.5a5.539,5.539,0,0,1-.432,2.16,5.828,5.828,0,0,1-1.2,1.824,5.553,5.553,0,0,1-1.788,1.236A5.325,5.325,0,0,1,120.8,48.168Z" transform="translate(244.5 2773.648)" fill="#f2edeb"/>
  </g>
</svg>
