<svg xmlns="http://www.w3.org/2000/svg" width="122.36" height="43.904" viewBox="0 0 122.36 43.904">
  <g id="przejdz_do_sklepu" data-name="przejdz do sklepu" transform="translate(-215.64 -1333.762)">
    <path id="Path_668" data-name="Path 668" d="M250.193,858.447c5.474-5.733,107.931-5.755,112.783,0s3.809,29.536-2.241,34.807S261.6,900,250.193,894.851,244.72,864.18,250.193,858.447Z" transform="translate(-28.037 479.623)" fill="#e5a34c"/>
    <path id="Path_2203" data-name="Path 2203" d="M27.223,7.766V11H25.991V1.69h2.618a2.882,2.882,0,0,1,1.134.231,3.015,3.015,0,0,1,.966.651,3.158,3.158,0,0,1,.651.987,3.034,3.034,0,0,1-.651,3.311,3.113,3.113,0,0,1-.966.658,2.809,2.809,0,0,1-1.134.238Zm0-4.8V6.52h1.386a1.632,1.632,0,0,0,1.232-.532,1.715,1.715,0,0,0,.518-1.26,1.7,1.7,0,0,0-.518-1.246,1.683,1.683,0,0,0-1.232-.518ZM38.409,11H36.757L34.083,7.822V11H32.851V1.7h2.394a2.885,2.885,0,0,1,2.1.882,3.18,3.18,0,0,1,.63.987A3.189,3.189,0,0,1,38,5.848a2.919,2.919,0,0,1-.56.924,3.053,3.053,0,0,1-.854.665,2.8,2.8,0,0,1-1.022.315ZM34.083,2.964V6.52h1.162a1.668,1.668,0,0,0,.672-.14A1.8,1.8,0,0,0,36.477,6a1.867,1.867,0,0,0,.371-.574,1.779,1.779,0,0,0,.133-.686A1.738,1.738,0,0,0,35.917,3.1a1.668,1.668,0,0,0-.672-.14Zm5.026,6.93L43.841,2.95H39.109V1.69h6.328V2.824l-4.718,6.9h4.718V11H39.109ZM46.7,11V1.69h5.1V2.95H47.915V5.778h2.6V6.926h-2.6V9.74h3.878V11Zm6.356-1.26a1.388,1.388,0,0,0,1.015-.392,1.318,1.318,0,0,0,.4-.98V1.69h1.148V8.368a2.744,2.744,0,0,1-.189,1.022,2.689,2.689,0,0,1-.525.84,2.485,2.485,0,0,1-.826.567,2.578,2.578,0,0,1-1.022.2ZM57.015,11V1.676h2.408a4.5,4.5,0,0,1,1.778.357,4.653,4.653,0,0,1,1.484,1,4.921,4.921,0,0,1,.987,1.505,4.711,4.711,0,0,1,0,3.6,4.748,4.748,0,0,1-.987,1.491A4.546,4.546,0,0,1,61.2,10.643,4.5,4.5,0,0,1,59.423,11Zm1.26-8.064v6.8h1.148a3.265,3.265,0,0,0,1.295-.266A3.412,3.412,0,0,0,61.8,8.746a3.481,3.481,0,0,0,.721-1.1,3.437,3.437,0,0,0,0-2.618,3.481,3.481,0,0,0-.721-1.1A3.412,3.412,0,0,0,60.718,3.2a3.265,3.265,0,0,0-1.295-.266Zm6.874,6.958L69.881,2.95H65.149V1.69h6.328V2.824l-4.718,6.9h4.718V11H65.149ZM68.677,1h-.938l.518-1.932h1.092Zm10.36,10V1.676h2.408a4.5,4.5,0,0,1,1.778.357,4.653,4.653,0,0,1,1.484,1,4.921,4.921,0,0,1,.987,1.505,4.711,4.711,0,0,1,0,3.6,4.748,4.748,0,0,1-.987,1.491,4.546,4.546,0,0,1-1.484,1.015A4.5,4.5,0,0,1,81.445,11ZM80.3,2.936v6.8h1.148a3.265,3.265,0,0,0,1.295-.266,3.412,3.412,0,0,0,1.085-.728,3.481,3.481,0,0,0,.721-1.1,3.437,3.437,0,0,0,0-2.618,3.481,3.481,0,0,0-.721-1.1A3.412,3.412,0,0,0,82.74,3.2a3.265,3.265,0,0,0-1.295-.266ZM91.833,11.07a4.584,4.584,0,0,1-1.8-.357A4.526,4.526,0,0,1,88.543,9.7a4.686,4.686,0,0,1-1.008-1.505,4.7,4.7,0,0,1-.007-3.612,4.749,4.749,0,0,1,2.506-2.513,4.508,4.508,0,0,1,1.8-.364,4.558,4.558,0,0,1,1.806.364,4.7,4.7,0,0,1,2.506,2.506,4.558,4.558,0,0,1,.364,1.806,4.609,4.609,0,0,1-.364,1.813,4.686,4.686,0,0,1-2.506,2.513A4.558,4.558,0,0,1,91.833,11.07Zm0-8.092a3.393,3.393,0,0,0-3.4,3.4A3.435,3.435,0,0,0,88.7,7.717a3.39,3.39,0,0,0,6.272,0,3.435,3.435,0,0,0,.266-1.337,3.393,3.393,0,0,0-3.4-3.4ZM46.249,21.56a2.158,2.158,0,0,0-.294-.9,1.531,1.531,0,0,0-.623-.553,2.219,2.219,0,0,0-.945-.175,1.77,1.77,0,0,0-1.33.406,1.421,1.421,0,0,0-.364,1.05,1.543,1.543,0,0,0,.112.637.961.961,0,0,0,.336.4,2.343,2.343,0,0,0,1.106.308,7.73,7.73,0,0,1,1.323.217,3.557,3.557,0,0,1,.945.4,2.211,2.211,0,0,1,1.022,2.016,2.47,2.47,0,0,1-.21,1.008,2.724,2.724,0,0,1-1.645,1.5,3.859,3.859,0,0,1-1.267.21,3.289,3.289,0,0,1-2.366-.84,3.323,3.323,0,0,1-.91-2.016l.028-.014H42.4a1.831,1.831,0,0,0,.5,1.106,2.082,2.082,0,0,0,1.47.5,2.21,2.21,0,0,0,1.4-.406,1.274,1.274,0,0,0,.518-1.05,1.529,1.529,0,0,0-.077-.511.864.864,0,0,0-.287-.385,3.546,3.546,0,0,0-1.778-.462,3.214,3.214,0,0,1-2.016-.77,2.44,2.44,0,0,1-.686-1.848,2.631,2.631,0,0,1,.742-1.946,3.394,3.394,0,0,1,4.452.1,3.508,3.508,0,0,1,.868,2.016ZM53.039,28l-3.01-3.43V28H48.8V18.7h1.232v3.542L52.983,18.7h1.624l-3.934,4.718L54.705,28Zm2.926,0V18.69h1.2v8.05h2.8V28Zm5.264,0V18.69h5.1v1.26H62.447v2.828h2.6v1.148h-2.6V26.74h3.878V28Zm7.728-3.234V28H67.725V18.69h2.618a2.882,2.882,0,0,1,1.134.231,3.015,3.015,0,0,1,.966.651,3.158,3.158,0,0,1,.651.987,3.034,3.034,0,0,1-.651,3.311,3.113,3.113,0,0,1-.966.658,2.809,2.809,0,0,1-1.134.238Zm0-4.8V23.52h1.386a1.632,1.632,0,0,0,1.232-.532,1.774,1.774,0,0,0,0-2.506,1.683,1.683,0,0,0-1.232-.518ZM77.833,28.1a3.106,3.106,0,0,1-1.253-.259,3.239,3.239,0,0,1-1.043-.721,3.4,3.4,0,0,1-.7-1.064,3.231,3.231,0,0,1-.252-1.26V18.718h1.19v6.076a2.1,2.1,0,0,0,.154.8,2.02,2.02,0,0,0,.448.672,1.958,1.958,0,0,0,.658.455,2.058,2.058,0,0,0,1.6,0,2.114,2.114,0,0,0,.672-.455,2.02,2.02,0,0,0,.448-.672,2.1,2.1,0,0,0,.154-.8V18.718h1.176v6.076a3.231,3.231,0,0,1-.252,1.26,3.4,3.4,0,0,1-.7,1.064,3.239,3.239,0,0,1-1.043.721A3.106,3.106,0,0,1,77.833,28.1Z" transform="translate(215.64 1341.362)" fill="#f2edeb"/>
  </g>
</svg>
