<svg xmlns="http://www.w3.org/2000/svg" width="149.552" height="190.971" viewBox="0 0 149.552 190.971">
  <g id="Group_422" data-name="Group 422" transform="matrix(0.985, -0.174, 0.174, 0.985, 0, 21.088)">
    <rect id="Rectangle_79" data-name="Rectangle 79" width="121.442" height="172.503" fill="#2e3c4b"/>
    <g id="Group_250" data-name="Group 250" transform="translate(8.798 67.549)">
      <text id="PASZPORT" transform="translate(13.26 13.104)" fill="#fcf8f7" font-size="16" font-family="SulphurPoint-Bold, Sulphur Point" font-weight="700" letter-spacing="0.025em"><tspan x="0" y="0">PASZPORT</tspan></text>
      <text id="MIŁOŚNIKA_LATARNI_MORSKICH_POLSKIEGO_WYBRZEŻA" data-name="MIŁOŚNIKA LATARNI MORSKICH
POLSKIEGO WYBRZEŻA" transform="translate(48.549 32.544)" fill="#fcf8f7" font-size="5" font-family="SulphurPoint-Bold, Sulphur Point" font-weight="700"><tspan x="-32.827" y="0">MIŁOŚNIKA LATARNI MORSKICH</tspan><tspan x="-24.347" y="6">POLSKIEGO WYBRZEŻA</tspan></text>
      <g id="Group_249" data-name="Group 249">
        <line id="Line_944" data-name="Line 944" y1="1.722" x2="5.931" transform="translate(95.635 1.227)" fill="none" stroke="#e5a34c" stroke-miterlimit="10" stroke-width="0.948"/>
        <line id="Line_945" data-name="Line 945" y1="0.191" x2="5.166" transform="translate(97.344 7.61)" fill="none" stroke="#e5a34c" stroke-miterlimit="10" stroke-width="0.948"/>
        <line id="Line_946" data-name="Line 946" x2="4.496" y2="2.679" transform="translate(95.653 12.396)" fill="none" stroke="#e5a34c" stroke-miterlimit="10" stroke-width="0.948"/>
        <line id="Line_947" data-name="Line 947" x1="4.975" y1="2.774" transform="translate(1.722)" fill="none" stroke="#e5a34c" stroke-miterlimit="10" stroke-width="0.948"/>
        <line id="Line_948" data-name="Line 948" x1="5.74" transform="translate(0 7.941)" fill="none" stroke="#e5a34c" stroke-miterlimit="10" stroke-width="0.948"/>
        <line id="Line_949" data-name="Line 949" x1="5.118" y2="2.487" transform="translate(1.052 12.15)" fill="none" stroke="#e5a34c" stroke-miterlimit="10" stroke-width="0.948"/>
      </g>
      <path id="Path_1842" data-name="Path 1842" d="M122.7,180.6H47.015v-1.548H122.7Z" transform="translate(-32.924 -159.431)" fill="#af4427"/>
    </g>
    <g id="Group_253" data-name="Group 253" transform="translate(42.723 152.023)">
      <g id="Group_251" data-name="Group 251">
        <path id="Path_1843" data-name="Path 1843" d="M89.72,312.478a1.47,1.47,0,0,1,.523.523,1.4,1.4,0,0,1,0,1.421,1.434,1.434,0,0,1-.523.519,1.4,1.4,0,0,1-.718.191h-.784v1.609h-.462v-4.458H89A1.384,1.384,0,0,1,89.72,312.478Zm-.231,2.075a.968.968,0,0,0,.355-.355.948.948,0,0,0,.13-.486.932.932,0,0,0-.13-.483.977.977,0,0,0-.355-.352.946.946,0,0,0-.486-.131h-.784v1.937H89A.95.95,0,0,0,89.489,314.553Z" transform="translate(-87.756 -312.274)" fill="#fcf8f7"/>
        <path id="Path_1844" data-name="Path 1844" d="M98.483,315.147l1.441,1.6h-.617l-1.441-1.6h-.04v1.6h-.463V312.3H98.5a1.381,1.381,0,0,1,.714.191,1.423,1.423,0,0,1,.516.519,1.4,1.4,0,0,1,.191.717,1.382,1.382,0,0,1-.191.714,1.425,1.425,0,0,1-.516.516,1.381,1.381,0,0,1-.714.191Zm-.657-2.393v1.937H98.5a.931.931,0,0,0,.482-.13.984.984,0,0,0,.352-.352.932.932,0,0,0,.131-.483.95.95,0,0,0-.131-.486.973.973,0,0,0-.352-.355.927.927,0,0,0-.482-.131Z" transform="translate(-92.686 -312.281)" fill="#fcf8f7"/>
        <path id="Path_1845" data-name="Path 1845" d="M107.254,316.495a2.276,2.276,0,0,1-.811-.811,2.233,2.233,0,0,1,0-2.242,2.259,2.259,0,0,1,.814-.814,2.22,2.22,0,0,1,2.236,0,2.241,2.241,0,0,1,.818.818,2.224,2.224,0,0,1,0,2.236,2.26,2.26,0,0,1-.814.815,2.236,2.236,0,0,1-2.242,0Zm2.011-.392a1.758,1.758,0,0,0,.647-.647,1.788,1.788,0,0,0,0-1.783,1.777,1.777,0,0,0-3.076,0,1.779,1.779,0,0,0,2.43,2.43Z" transform="translate(-97.19 -312.295)" fill="#e5a34c"/>
        <path id="Path_1846" data-name="Path 1846" d="M119.785,316.058a.742.742,0,0,0,.228-.543v-3.231h.456v3.231a1.2,1.2,0,0,1-.165.616,1.219,1.219,0,0,1-.445.446,1.2,1.2,0,0,1-.617.164v-.456A.741.741,0,0,0,119.785,316.058Z" transform="translate(-103.913 -312.274)" fill="#fcf8f7"/>
        <path id="Path_1847" data-name="Path 1847" d="M136.251,314.891v1.837h-.429v-4.451h.429v1.9l1.629-1.9h.6l-1.931,2.259,1.971,2.192h-.616Z" transform="translate(-112.421 -312.27)" fill="#fcf8f7"/>
        <path id="Path_1848" data-name="Path 1848" d="M148,312.712h-1.147v4.009H146.4v-4.009h-1.147v-.449H148Z" transform="translate(-117.263 -312.263)" fill="#fcf8f7"/>
      </g>
      <g id="Group_252" data-name="Group 252" transform="translate(5.319 6.346)">
        <path id="Path_1849" data-name="Path 1849" d="M100.6,329.3v.456H98.682V325.3h.462v4Z" transform="translate(-98.682 -325.298)" fill="#fcf8f7"/>
        <path id="Path_1850" data-name="Path 1850" d="M109.569,328.134H108l-.577,1.642h-.489l1.562-4.451h.576l1.562,4.451h-.489Zm-.148-.429-.637-1.823-.637,1.823Z" transform="translate(-102.917 -325.312)" fill="#fcf8f7"/>
        <path id="Path_1851" data-name="Path 1851" d="M119.626,325.747H118.48v4.009h-.456v-4.009h-1.146V325.3h2.748Z" transform="translate(-108.019 -325.298)" fill="#fcf8f7"/>
        <path id="Path_1852" data-name="Path 1852" d="M136.917,328.161l1.441,1.6h-.616l-1.442-1.6h-.04v1.6H135.8v-4.451h1.139a1.383,1.383,0,0,1,.714.191,1.423,1.423,0,0,1,.516.519,1.4,1.4,0,0,1,.191.717,1.382,1.382,0,0,1-.191.714,1.432,1.432,0,0,1-.516.516,1.383,1.383,0,0,1-.714.191Zm-.657-2.393V327.7h.677a.933.933,0,0,0,.483-.13.983.983,0,0,0,.352-.352.937.937,0,0,0,.13-.483.954.954,0,0,0-.13-.486.978.978,0,0,0-.352-.355.933.933,0,0,0-.483-.13Z" transform="translate(-117.728 -325.305)" fill="#fcf8f7"/>
        <path id="Path_1853" data-name="Path 1853" d="M148.3,325.3v4.458h-.543l-2.246-3.6v3.6h-.463V325.3h.483l2.313,3.7v-3.7Z" transform="translate(-122.476 -325.298)" fill="#fcf8f7"/>
        <path id="Path_1854" data-name="Path 1854" d="M157.85,328.121h-1.569l-.576,1.642h-.489l1.562-4.451h.576l1.562,4.451h-.489Zm-.148-.429-.637-1.824-.637,1.824Z" transform="translate(-127.693 -325.305)" fill="#fcf8f7"/>
      </g>
      <path id="Path_1855" data-name="Path 1855" d="M126.655,312.614h2.44v.456h-2.44Zm0,4h2.44v.456h-2.44Zm0-1.555v-.432l.456,0,1.984,0v.429l-1.984,0Z" transform="translate(-107.717 -312.443)" fill="#ae4426"/>
      <path id="Path_1856" data-name="Path 1856" d="M126.655,325.3h2.44v.456h-2.44Zm0,4h2.44v.456h-2.44Zm0-1.555v-.432l.456,0,1.984,0v.429l-1.984,0Z" transform="translate(-107.717 -318.952)" fill="#ae4426"/>
    </g>
    <g id="Group_255" data-name="Group 255" transform="translate(22.984 12.074)">
      <path id="Path_1857" data-name="Path 1857" d="M131.77,84.326c3.147-.248,11.1.663,14.21,1.224a41.327,41.327,0,0,0,5.543.887c1.724.074,12.426-.423,14.151-.481" transform="translate(-90.603 -55.325)" fill="none" stroke="#fcf8f7" stroke-miterlimit="10" stroke-width="0.464"/>
      <path id="Path_1858" data-name="Path 1858" d="M81.608,84.575c-3.541.084-9.527,2.239-13.064,2.434a50.88,50.88,0,0,1-5.328-.295c-3.725-.186-12.354-.017-16.006.738" transform="translate(-47.21 -55.474)" fill="none" stroke="#fcf8f7" stroke-miterlimit="10" stroke-width="0.464"/>
      <g id="Group_254" data-name="Group 254" transform="translate(30.539)">
        <path id="Path_1859" data-name="Path 1859" d="M119.042,44.079a14.017,14.017,0,0,1,4.813,0c.528.295,1.115,24.534.822,24.886s-6.046.763-6.456.352S118.536,44.969,119.042,44.079Z" transform="translate(-114.127 -34.587)" fill="none" stroke="#fcf8f7" stroke-miterlimit="10" stroke-width="0.464"/>
        <path id="Path_1860" data-name="Path 1860" d="M125.217,93.784a9.719,9.719,0,0,0-.09-2.236,2.422,2.422,0,0,0-1.335,0,20.511,20.511,0,0,0,0,2.329" transform="translate(-117.028 -59.004)" fill="none" stroke="#fcf8f7" stroke-miterlimit="10" stroke-width="0.464"/>
        <path id="Path_1861" data-name="Path 1861" d="M120.224,91.748a.428.428,0,0,1,.367-.059,3.681,3.681,0,0,1,0,1.2c-.029.088-.248.167-.308.058A6.022,6.022,0,0,1,120.224,91.748Z" transform="translate(-115.207 -59.116)" fill="none" stroke="#fcf8f7" stroke-miterlimit="10" stroke-width="0.464"/>
        <path id="Path_1862" data-name="Path 1862" d="M127.45,74.518c.044-.1.323-.117.4-.074a4.433,4.433,0,0,1,0,1.394c-.073.073-.22.015-.293,0A8.119,8.119,0,0,1,127.45,74.518Z" transform="translate(-118.925 -50.264)" fill="none" stroke="#fcf8f7" stroke-miterlimit="10" stroke-width="0.464"/>
        <path id="Path_1863" data-name="Path 1863" d="M123.8,47.054c.044-.088.382-.029.469,0a5.824,5.824,0,0,1-.073,1.408c-.03.088-.323.132-.4.088A10.164,10.164,0,0,1,123.8,47.054Z" transform="translate(-117.034 -36.196)" fill="none" stroke="#fcf8f7" stroke-miterlimit="10" stroke-width="0.464"/>
        <path id="Path_1864" data-name="Path 1864" d="M122,33.209a10.04,10.04,0,0,1,2.318,2.348c-.013.032-.12.06-.294.084a24.6,24.6,0,0,1-4.445.019A9.327,9.327,0,0,1,122,33.209Z" transform="translate(-114.882 -29.116)" fill="none" stroke="#fcf8f7" stroke-miterlimit="10" stroke-width="0.464"/>
        <line id="Line_950" data-name="Line 950" y1="2.842" transform="translate(9.228 6.511)" fill="none" stroke="#fcf8f7" stroke-miterlimit="10" stroke-width="0.464"/>
        <path id="Path_1865" data-name="Path 1865" d="M120.819,30.7c.059-.029,3.771-1.262,3.771-1.262" transform="translate(-115.522 -27.182)" fill="none" stroke="#fcf8f7" stroke-miterlimit="10" stroke-width="0.464"/>
        <line id="Line_951" data-name="Line 951" x1="0.066" y2="1.203" transform="translate(7.116 2.89)" fill="none" stroke="#fcf8f7" stroke-miterlimit="10" stroke-width="0.464"/>
        <line id="Line_952" data-name="Line 952" x1="0.123" y2="8.759" transform="translate(3.859)" fill="none" stroke="#fcf8f7" stroke-miterlimit="10" stroke-width="0.464"/>
        <line id="Line_953" data-name="Line 953" x2="1.174" y2="1.2" transform="translate(3.92 4.754)" fill="none" stroke="#fcf8f7" stroke-miterlimit="10" stroke-width="0.464"/>
        <line id="Line_954" data-name="Line 954" y1="2.729" x2="0.062" transform="translate(5.235 6.676)" fill="none" stroke="#fcf8f7" stroke-miterlimit="10" stroke-width="0.464"/>
        <path id="Path_1866" data-name="Path 1866" d="M132.372,30.034v9.391" transform="translate(-121.451 -27.486)" fill="none" stroke="#fcf8f7" stroke-miterlimit="10" stroke-width="0.464"/>
        <line id="Line_955" data-name="Line 955" y1="0.703" x2="1.694" transform="translate(9.228 5.386)" fill="none" stroke="#fcf8f7" stroke-miterlimit="10" stroke-width="0.464"/>
        <line id="Line_956" data-name="Line 956" y1="0.657" x2="0.959" transform="translate(9.963 10.373)" fill="none" stroke="#fcf8f7" stroke-miterlimit="10" stroke-width="0.464"/>
        <line id="Line_957" data-name="Line 957" x1="0.052" y2="1.674" transform="translate(6.235 6.676)" fill="none" stroke="#fcf8f7" stroke-miterlimit="10" stroke-width="0.464"/>
        <line id="Line_958" data-name="Line 958" y2="2.678" transform="translate(7.821 6.634)" fill="none" stroke="#fcf8f7" stroke-miterlimit="10" stroke-width="0.464"/>
        <path id="Path_1867" data-name="Path 1867" d="M121.776,41.9a.485.485,0,0,1,.631.484c0,.339.032.43-.357.466s-.538-.107-.538-.441S121.527,41.969,121.776,41.9Z" transform="translate(-115.878 -33.562)" fill="none" stroke="#fcf8f7" stroke-miterlimit="10" stroke-width="0.464"/>
        <line id="Line_959" data-name="Line 959" x2="1.373" y2="1.012" transform="translate(3.868 8.143)" fill="none" stroke="#fcf8f7" stroke-miterlimit="10" stroke-width="0.464"/>
        <path id="Path_1868" data-name="Path 1868" d="M126.995,42.211a.364.364,0,0,1,.43.378c.01.174-.068.361-.371.428s-.43-.268-.441-.4S126.505,42.3,126.995,42.211Z" transform="translate(-118.488 -33.731)" fill="none" stroke="#fcf8f7" stroke-miterlimit="10" stroke-width="0.464"/>
        <path id="Path_1869" data-name="Path 1869" d="M134.382,37.589a9.127,9.127,0,0,1,1.467-.557" transform="translate(-122.482 -31.077)" fill="none" stroke="#fcf8f7" stroke-miterlimit="10" stroke-width="0.464"/>
        <line id="Line_960" data-name="Line 960" x2="1.643" transform="translate(12.633 7.549)" fill="none" stroke="#fcf8f7" stroke-miterlimit="10" stroke-width="0.464"/>
        <line id="Line_961" data-name="Line 961" x2="1.321" y2="0.47" transform="translate(11.9 8.883)" fill="none" stroke="#fcf8f7" stroke-miterlimit="10" stroke-width="0.464"/>
        <line id="Line_962" data-name="Line 962" x1="1.203" y1="0.496" transform="translate(1.599 5.737)" fill="none" stroke="#fcf8f7" stroke-miterlimit="10" stroke-width="0.464"/>
        <path id="Path_1870" data-name="Path 1870" d="M111.788,40.308h-1.849" transform="translate(-109.939 -32.759)" fill="none" stroke="#fcf8f7" stroke-miterlimit="10" stroke-width="0.464"/>
        <line id="Line_963" data-name="Line 963" x1="1.203" y2="0.756" transform="translate(1.247 8.649)" fill="none" stroke="#fcf8f7" stroke-miterlimit="10" stroke-width="0.464"/>
      </g>
    </g>
  </g>
</svg>
