<?xml version="1.0" encoding="UTF-8"?>
<svg xmlns="http://www.w3.org/2000/svg" xmlns:xlink="http://www.w3.org/1999/xlink" version="1.2" >
<font id="Clarika Pro Geometric Light">
<font-face  font-family="Clarika Pro Geometric" units-per-em="980" ascent="970" descent="-250" font-style="normal" font-weight="300" font-stretch="normal" cap-height="640" x-height="441" underline-position="-75" underline-thickness="50" />
<missing-glyph  horiz-adv-x="679" d="M580 640 L98 640 L98 0 L580 0 L580 640 Z M194 588 L485 588 L340 364 L194 588 Z M312 322 L155 80 L155 564 L312 322 Z M367 322 L523 562 L523 82 L367 322 Z M340 280 L487 52 L192 52 L340 280 Z " />
<glyph glyph-name="NULL" horiz-adv-x="256" d="" />
<glyph glyph-name="CR" unicode="&#xd;" horiz-adv-x="601" d="" />
<glyph glyph-name="space" unicode="&#x20;" horiz-adv-x="256" d="" />
<glyph glyph-name="exclam" unicode="&#x21;" horiz-adv-x="240" d="M150 640 L89 640 L98 164 L142 164 L150 640 Z M120 -5 C143 -5 162 13 162 36 C162 59 143 78 120 78 C97 78 78 59 78 36 C78 13 97 -5 120 -5 L120 -5 Z " />
<glyph glyph-name="quotedbl" unicode="&#x22;" horiz-adv-x="265" d="M61 426 L86 426 C93 559 108 582 108 617 C108 637 92 653 74 653 C56 653 40 637 40 617 C40 582 54 559 61 426 L61 426 Z M179 426 L204 426 C210 559 225 582 225 617 C225 637 210 653 191 653 C173 653 157 637 157 617 C157 582 172 559 179 426 L179 426 Z " />
<glyph glyph-name="numbersign" unicode="&#x23;" horiz-adv-x="548" d="M517 403 L517 441 L411 441 L465 643 L426 643 L372 441 L242 441 L296 643 L257 643 L203 441 L84 441 L84 403 L193 403 L149 239 L30 239 L30 201 L139 201 L85 -1 L123 -1 L177 201 L307 201 L253 -1 L292 -1 L346 201 L463 201 L463 239 L356 239 L401 403 L517 403 Z M317 239 L187 239 L232 403 L362 403 L317 239 Z " />
<glyph glyph-name="dollar" unicode="&#x24;" horiz-adv-x="550" d="M477 159 C477 255 404 309 313 348 C307 351 301 353 295 356 L295 603 C345 600 382 578 416 545 L455 582 C421 617 371 649 295 653 L295 740 L259 740 L259 652 C175 643 103 584 103 492 C103 391 179 350 259 314 L259 40 C195 45 150 72 116 119 L73 82 C109 35 167 -4 259 -9 L259 -99 L295 -99 L295 -10 C388 -5 477 48 477 159 L477 159 Z M158 492 C158 552 201 594 259 603 L259 372 C199 402 158 436 158 492 L158 492 Z M295 40 L295 298 C367 265 420 228 420 155 C420 87 363 45 295 40 L295 40 Z " />
<glyph glyph-name="percent" unicode="&#x25;" horiz-adv-x="684" d="M171 383 C251 383 304 443 304 517 C304 590 251 651 171 651 C92 651 39 590 39 517 C39 443 92 383 171 383 L171 383 Z M112 0 L158 0 L567 640 L521 640 L112 0 Z M171 423 C120 423 85 465 85 517 C85 568 118 611 171 611 C225 611 258 567 258 517 C258 466 225 423 171 423 L171 423 Z M512 -12 C592 -12 645 48 645 122 C645 195 592 256 512 256 C433 256 380 195 380 122 C380 48 433 -12 512 -12 L512 -12 Z M512 29 C461 29 426 71 426 122 C426 173 459 216 512 216 C566 216 599 172 599 122 C599 71 566 29 512 29 L512 29 Z " />
<glyph glyph-name="ampersand" unicode="&#x26;" horiz-adv-x="621" d="M574 22 L479 129 C512 173 539 224 563 271 L517 289 C496 245 473 203 447 166 L250 387 C221 420 180 465 183 517 C185 569 221 608 273 608 C312 608 346 585 365 551 L407 575 C380 622 332 653 275 653 C190 653 132 599 130 517 C127 455 160 409 195 370 C93 314 47 235 47 156 C47 68 118 -12 245 -12 C329 -12 393 29 445 86 L532 -13 L574 22 Z M244 38 C155 38 102 96 102 162 C102 228 147 293 226 334 L413 123 C366 71 311 38 244 38 L244 38 Z " />
<glyph glyph-name="quotesingle" unicode="&#x27;" horiz-adv-x="148" d="M61 426 L86 426 C93 559 108 582 108 617 C108 637 92 653 74 653 C56 653 40 637 40 617 C40 582 54 559 61 426 L61 426 Z " />
<glyph glyph-name="parenleft" unicode="&#x28;" horiz-adv-x="317" d="M259 -151 L289 -121 C219 -61 127 94 127 300 C127 502 219 659 289 721 L259 751 C181 686 78 519 78 300 C78 77 181 -89 259 -151 L259 -151 Z " />
<glyph glyph-name="parenright" unicode="&#x29;" horiz-adv-x="317" d="M58 -151 C136 -89 239 77 239 300 C239 519 136 686 58 751 L28 721 C98 659 190 502 190 300 C190 94 98 -61 28 -121 L58 -151 Z " />
<glyph glyph-name="asterisk" unicode="&#x2a;" horiz-adv-x="354" d="M314 554 L301 594 L196 559 L197 665 L155 665 L156 559 L53 594 L40 554 L143 521 L75 430 L109 405 L175 496 L240 405 L274 430 L208 520 L314 554 Z " />
<glyph glyph-name="plus" unicode="&#x2b;" horiz-adv-x="501" d="M446 276 L273 276 L273 450 L228 450 L228 276 L55 276 L55 231 L228 231 L228 58 L273 58 L273 231 L446 231 L446 276 Z " />
<glyph glyph-name="comma" unicode="&#x2c;" horiz-adv-x="240" d="M77 -124 C146 -97 172 -40 174 4 C176 43 157 77 123 77 C95 77 79 58 79 34 C79 3 110 -11 134 -1 C135 -29 115 -71 66 -97 L77 -124 Z " />
<glyph glyph-name="hyphen" unicode="&#x2d;" horiz-adv-x="345" d="M55 231 L290 231 L290 276 L55 276 L55 231 Z " />
<glyph glyph-name="period" unicode="&#x2e;" horiz-adv-x="240" d="M120 -5 C143 -5 162 13 162 36 C162 59 143 78 120 78 C97 78 78 59 78 36 C78 13 97 -5 120 -5 L120 -5 Z " />
<glyph glyph-name="slash" unicode="&#x2f;" horiz-adv-x="491" d="M40 -120 L91 -120 L451 697 L400 697 L40 -120 Z " />
<glyph glyph-name="zero" unicode="0" horiz-adv-x="534" d="M267 -10 C410 -10 495 124 495 322 C495 518 410 653 267 653 C124 653 39 518 39 322 C39 124 124 -10 267 -10 L267 -10 Z M267 36 C150 35 94 161 94 321 C94 481 150 608 267 608 C385 608 440 481 440 321 C440 161 385 36 267 36 L267 36 Z " />
<glyph glyph-name="one" unicode="1" horiz-adv-x="534" d="M334 640 L119 503 L143 460 L328 580 L328 0 L380 0 L380 640 L334 640 Z " />
<glyph glyph-name="two" unicode="2" horiz-adv-x="534" d="M134 45 L359 277 C410 329 456 391 456 475 C456 573 385 651 263 653 C163 654 106 594 80 555 L120 527 C143 560 187 608 263 607 C344 607 402 549 402 473 C402 405 361 353 316 307 L60 38 L60 0 L473 0 L473 45 L134 45 Z " />
<glyph glyph-name="three" unicode="3" horiz-adv-x="534" d="M246 367 L452 604 L452 640 L78 640 L78 595 L385 595 L172 350 L190 322 C238 329 280 335 328 316 C378 297 422 252 422 181 C422 102 359 36 253 36 C171 36 120 69 76 114 L44 72 C100 18 167 -10 252 -10 C396 -10 476 74 477 181 C478 304 377 379 246 367 L246 367 Z " />
<glyph glyph-name="four" unicode="4" horiz-adv-x="534" d="M493 198 L424 198 L424 400 L373 400 L373 198 L103 198 L361 640 L304 640 L42 191 L42 152 L373 152 L373 0 L424 0 L424 152 L493 152 L493 198 Z " />
<glyph glyph-name="five" unicode="5" horiz-adv-x="534" d="M259 390 C207 389 170 376 147 361 L188 595 L435 595 L435 640 L144 640 L90 321 L134 301 C151 320 192 345 254 345 C345 344 414 285 413 191 C412 110 353 36 243 36 C161 36 103 79 72 116 L42 73 C76 39 145 -10 246 -10 C389 -10 466 85 468 190 C469 315 375 392 259 390 L259 390 Z " />
<glyph glyph-name="six" unicode="6" horiz-adv-x="534" d="M271 -10 C397 -10 485 82 485 196 C485 321 391 403 279 403 C218 403 183 386 157 360 L347 640 L290 640 C90 347 53 301 53 195 C53 81 138 -10 271 -10 L271 -10 Z M270 35 C176 35 108 106 108 197 C108 281 174 358 270 358 C360 358 431 287 431 197 C431 106 360 35 270 35 L270 35 Z " />
<glyph glyph-name="seven" unicode="7" horiz-adv-x="534" d="M62 640 L62 595 L417 595 L140 0 L198 0 L473 603 L473 640 L62 640 Z " />
<glyph glyph-name="eight" unicode="8" horiz-adv-x="534" d="M349 344 C415 368 458 417 458 491 C458 575 384 653 267 653 C150 653 76 575 76 491 C76 417 119 368 184 344 C98 318 48 253 48 175 C48 86 116 -10 267 -10 C417 -10 486 86 486 175 C486 253 435 318 349 344 L349 344 Z M129 487 C129 557 189 608 267 608 C345 608 405 557 405 487 C405 417 345 365 267 365 C189 365 129 417 129 487 L129 487 Z M267 36 C172 36 102 96 102 177 C102 257 174 319 267 319 C360 319 432 257 432 177 C432 96 362 36 267 36 L267 36 Z " />
<glyph glyph-name="nine" unicode="9" horiz-adv-x="534" d="M263 650 C137 650 49 558 49 444 C49 319 143 237 255 237 C316 237 351 254 377 280 L187 0 L244 0 C444 293 481 339 481 445 C481 559 396 650 263 650 L263 650 Z M264 605 C358 605 426 534 426 443 C426 359 360 282 264 282 C174 282 103 353 103 443 C103 534 174 605 264 605 L264 605 Z " />
<glyph glyph-name="colon" unicode="&#x3a;" horiz-adv-x="240" d="M120 371 C143 371 162 390 162 412 C162 435 143 454 120 454 C98 454 79 435 79 412 C79 390 98 371 120 371 L120 371 Z M120 -5 C143 -5 162 13 162 36 C162 59 143 78 120 78 C97 78 78 59 78 36 C78 13 97 -5 120 -5 L120 -5 Z " />
<glyph glyph-name="semicolon" unicode="&#x3b;" horiz-adv-x="265" d="M133 371 C155 371 174 390 174 412 C174 435 155 454 133 454 C110 454 91 435 91 412 C91 390 110 371 133 371 L133 371 Z M89 -124 C159 -97 185 -40 186 4 C188 43 169 77 135 77 C107 77 91 58 91 34 C91 3 122 -11 146 -1 C147 -29 128 -71 78 -97 L89 -124 Z " />
<glyph glyph-name="less" unicode="&#x3c;" horiz-adv-x="511" d="M457 477 L55 307 L55 265 L457 95 L457 145 L113 286 L457 426 L457 477 Z " />
<glyph glyph-name="equal" unicode="&#x3d;" horiz-adv-x="501" d="M55 304 L446 304 L446 350 L55 350 L55 304 Z M55 159 L446 159 L446 204 L55 204 L55 159 Z " />
<glyph glyph-name="greater" unicode="&#x3e;" horiz-adv-x="511" d="M55 477 L55 426 L399 286 L55 145 L55 95 L457 265 L457 307 L55 477 Z " />
<glyph glyph-name="question" unicode="&#x3f;" horiz-adv-x="455" d="M179 161 L229 161 L229 293 C314 298 415 352 413 479 C411 586 323 653 215 653 C129 653 74 613 36 564 L74 534 C93 562 136 608 215 608 C293 608 357 555 358 474 C361 380 278 329 179 332 L179 161 Z M204 -5 C227 -5 246 13 246 36 C246 59 227 78 204 78 C181 78 163 59 163 36 C163 13 181 -5 204 -5 L204 -5 Z " />
<glyph glyph-name="at" unicode="&#x40;" horiz-adv-x="776" d="M406 610 C210 610 62 453 58 260 C54 78 173 -49 359 -49 C433 -49 490 -32 543 0 L524 33 C478 6 434 -9 361 -9 C202 -9 97 101 100 258 C104 425 232 570 405 570 C571 570 680 470 676 297 C674 206 623 125 567 126 C537 127 514 148 531 231 L578 441 L539 441 L514 364 C496 419 452 454 389 454 C284 454 205 363 199 257 C193 149 251 83 335 83 C393 83 443 114 477 160 C483 116 518 88 559 88 C649 88 715 183 718 299 C722 484 598 610 406 610 L406 610 Z M352 124 C288 124 248 175 253 260 C259 340 317 414 395 414 C471 414 510 357 498 268 C489 195 426 124 352 124 L352 124 Z " />
<glyph glyph-name="A" unicode="A" horiz-adv-x="624" d="M535 0 L593 0 L339 640 L285 640 L30 0 L89 0 L167 202 L457 203 L535 0 Z M184 247 L312 578 L439 247 L184 247 Z " />
<glyph glyph-name="B" unicode="B" horiz-adv-x="548" d="M312 357 C384 370 428 422 428 490 C428 583 356 640 234 640 L98 640 L98 0 L248 0 C402 0 486 72 486 182 C486 276 419 345 312 357 L312 357 Z M240 596 C325 596 372 558 372 488 C372 421 320 377 248 377 L152 377 L152 596 L240 596 Z M248 44 L152 44 L152 327 L259 327 C359 327 429 273 429 186 C429 99 367 44 248 44 L248 44 Z " />
<glyph glyph-name="C" unicode="C" horiz-adv-x="625" d="M387 -11 C459 -11 523 8 576 44 L547 87 C505 56 450 37 387 37 C223 37 115 167 115 321 C115 475 223 604 387 604 C450 604 505 586 547 555 L576 598 C523 634 459 653 387 653 C194 653 58 506 58 321 C58 135 194 -11 387 -11 L387 -11 Z " />
<glyph glyph-name="D" unicode="D" horiz-adv-x="642" d="M237 640 L98 640 L98 0 L237 0 C466 0 583 143 583 321 C583 498 466 640 237 640 L237 640 Z M229 44 L152 44 L152 596 L229 596 C412 596 527 497 527 321 C527 143 412 44 229 44 L229 44 Z " />
<glyph glyph-name="E" unicode="E" horiz-adv-x="521" d="M453 593 L453 640 L98 640 L98 0 L453 0 L453 47 L152 47 L152 298 L403 298 L403 343 L152 343 L152 593 L453 593 Z " />
<glyph glyph-name="F" unicode="F" horiz-adv-x="496" d="M452 593 L452 640 L98 640 L98 0 L152 0 L152 298 L402 298 L402 343 L152 343 L152 593 L452 593 Z " />
<glyph glyph-name="G" unicode="G" horiz-adv-x="733" d="M425 334 L425 288 L624 288 C626 138 529 39 385 39 C219 39 115 168 115 323 C115 477 219 604 390 604 C478 604 536 571 556 554 L587 597 C556 621 482 653 390 653 C189 653 58 507 58 323 C58 138 187 -10 385 -10 C583 -10 681 139 681 294 L681 334 L425 334 Z " />
<glyph glyph-name="H" unicode="H" horiz-adv-x="683" d="M530 640 L530 356 L152 356 L152 640 L98 640 L98 0 L152 0 L152 311 L530 311 L530 0 L584 0 L584 640 L530 640 Z " />
<glyph glyph-name="I" unicode="I" horiz-adv-x="271" d="M162 640 L108 640 L108 0 L162 0 L162 640 Z " />
<glyph glyph-name="J" unicode="J" horiz-adv-x="408" d="M170 -10 C257 -10 325 44 325 170 L325 640 L271 640 L271 165 C271 84 233 39 169 39 C129 39 99 53 70 90 L38 47 C72 13 112 -10 170 -10 L170 -10 Z " />
<glyph glyph-name="K" unicode="K" horiz-adv-x="595" d="M547 0 L209 340 L532 640 L460 640 L152 354 L152 640 L98 640 L98 0 L152 0 L152 325 L472 0 L547 0 Z " />
<glyph glyph-name="L" unicode="L" horiz-adv-x="462" d="M152 47 L152 640 L98 640 L98 0 L424 0 L424 47 L152 47 Z " />
<glyph glyph-name="M" unicode="M" horiz-adv-x="820" d="M675 640 L410 281 L145 640 L98 640 L98 0 L152 0 L152 547 L410 199 L668 547 L668 0 L722 0 L722 640 L675 640 Z " />
<glyph glyph-name="N" unicode="N" horiz-adv-x="722" d="M571 640 L571 89 L150 640 L98 640 L98 0 L151 0 L151 552 L572 0 L624 0 L624 640 L571 640 Z " />
<glyph glyph-name="O" unicode="O" horiz-adv-x="782" d="M391 -10 C587 -10 724 137 724 322 C724 507 587 653 391 653 C195 653 58 507 58 322 C58 137 195 -10 391 -10 L391 -10 Z M391 39 C226 39 115 168 115 322 C115 477 226 604 391 604 C556 604 667 477 667 322 C667 168 556 39 391 39 L391 39 Z " />
<glyph glyph-name="P" unicode="P" horiz-adv-x="514" d="M269 640 L98 640 L98 0 L152 0 L152 280 L269 280 C364 280 468 338 468 460 C468 582 364 640 269 640 L269 640 Z M247 324 L152 324 L152 596 L247 596 C348 596 411 547 411 460 C411 372 348 324 247 324 L247 324 Z " />
<glyph glyph-name="Q" unicode="Q" horiz-adv-x="784" d="M732 -113 L596 56 C676 116 724 212 724 322 C724 507 587 653 391 653 C195 653 58 507 58 322 C58 137 195 -10 391 -10 C451 -10 505 4 552 28 L663 -113 L732 -113 Z M115 322 C115 477 226 604 391 604 C556 604 667 477 667 322 C667 168 556 39 391 39 C226 39 115 168 115 322 L115 322 Z " />
<glyph glyph-name="R" unicode="R" horiz-adv-x="540" d="M439 0 L506 0 L277 301 C368 305 462 359 462 468 C462 575 373 640 262 640 L98 640 L98 0 L152 0 L152 301 L215 301 L439 0 Z M152 595 L246 595 C344 595 406 551 406 468 C406 385 343 346 250 346 L152 346 L152 595 Z " />
<glyph glyph-name="S" unicode="S" horiz-adv-x="521" d="M257 -10 C355 -10 453 43 453 159 C453 255 379 309 288 348 C199 386 134 420 134 492 C134 559 187 604 255 604 C314 604 354 581 391 545 L430 582 C395 619 340 653 257 653 C163 653 79 592 79 492 C79 380 173 342 262 302 C338 268 396 231 396 155 C396 82 330 39 256 39 C180 39 129 67 91 119 L48 82 C88 31 152 -10 257 -10 L257 -10 Z " />
<glyph glyph-name="T" unicode="T" horiz-adv-x="493" d="M457 640 L36 640 L36 593 L220 593 L220 0 L274 0 L274 593 L457 593 L457 640 Z " />
<glyph glyph-name="U" unicode="U" horiz-adv-x="617" d="M308 -10 C450 -10 534 74 534 241 L534 640 L480 640 L480 248 C480 110 419 39 308 39 C197 39 136 110 136 248 L136 640 L82 640 L82 241 C82 74 167 -10 308 -10 L308 -10 Z " />
<glyph glyph-name="V" unicode="V" horiz-adv-x="604" d="M514 640 L302 70 L90 640 L30 640 L279 0 L324 0 L573 640 L514 640 Z " />
<glyph glyph-name="W" unicode="W" horiz-adv-x="951" d="M852 640 L670 77 L499 640 L453 640 L282 77 L99 640 L42 640 L259 0 L302 0 L476 570 L649 0 L692 0 L909 640 L852 640 Z " />
<glyph glyph-name="X" unicode="X" horiz-adv-x="613" d="M565 0 L339 325 L554 640 L490 640 L307 367 L124 640 L60 640 L274 325 L48 0 L115 0 L307 283 L498 0 L565 0 Z " />
<glyph glyph-name="Y" unicode="Y" horiz-adv-x="559" d="M529 640 L465 640 L279 358 L94 640 L30 640 L252 306 L252 0 L306 0 L306 305 L529 640 Z " />
<glyph glyph-name="Z" unicode="Z" horiz-adv-x="588" d="M144 47 L511 600 L511 640 L95 640 L95 593 L442 593 L78 41 L78 0 L529 0 L529 47 L144 47 Z " />
<glyph glyph-name="bracketleft" unicode="&#x5b;" horiz-adv-x="301" d="M252 747 L98 747 L98 -147 L252 -147 L252 -107 L146 -107 L146 707 L252 707 L252 747 Z " />
<glyph glyph-name="backslash" unicode="&#x5c;" horiz-adv-x="491" d="M451 -120 L91 697 L40 697 L400 -120 L451 -120 Z " />
<glyph glyph-name="bracketright" unicode="&#x5d;" horiz-adv-x="301" d="M49 747 L49 707 L155 707 L155 -107 L49 -107 L49 -147 L202 -147 L202 747 L49 747 Z " />
<glyph glyph-name="asciicircum" unicode="&#x5e;" horiz-adv-x="500" d="M441 326 L272 643 L227 643 L58 326 L111 326 L250 596 L389 326 L441 326 Z " />
<glyph glyph-name="underscore" unicode="&#x5f;" horiz-adv-x="455" d="M0 -101 L455 -101 L455 -72 L0 -72 L0 -101 Z " />
<glyph glyph-name="grave" unicode="&#x60;" horiz-adv-x="261" d="M130 552 C166 514 181 510 199 510 L221 510 L93 657 L40 647 L130 552 Z " />
<glyph glyph-name="a" unicode="a" horiz-adv-x="551" d="M437 441 L429 352 C394 414 334 453 256 453 C139 453 47 361 47 222 C47 83 139 -9 256 -9 C334 -9 394 30 429 91 L437 0 L480 0 L480 441 L437 441 Z M267 36 C169 36 100 117 100 222 C100 327 169 408 266 408 C365 408 434 327 434 222 C434 116 365 36 267 36 L267 36 Z " />
<glyph glyph-name="b" unicode="b" horiz-adv-x="550" d="M294 453 C217 453 158 415 123 356 L123 680 L71 680 L71 0 L114 0 L121 91 C155 30 216 -9 293 -9 C410 -9 503 83 503 222 C503 361 410 453 294 453 L294 453 Z M283 36 C184 36 115 116 115 222 C115 327 184 408 284 408 C381 408 449 327 449 222 C449 117 381 36 283 36 L283 36 Z " />
<glyph glyph-name="c" unicode="c" horiz-adv-x="453" d="M272 -10 C329 -10 378 9 416 40 L385 77 C356 51 317 35 272 35 C165 35 100 117 100 222 C100 327 165 409 272 409 C317 409 356 393 385 367 L416 404 C378 435 329 453 272 453 C136 453 47 350 47 222 C47 94 136 -10 272 -10 L272 -10 Z " />
<glyph glyph-name="d" unicode="d" horiz-adv-x="550" d="M427 680 L427 356 C392 415 332 453 256 453 C139 453 47 361 47 222 C47 83 139 -9 256 -9 C334 -9 395 30 429 91 L436 0 L479 0 L479 680 L427 680 Z M267 36 C169 36 100 117 100 222 C100 327 169 408 266 408 C365 408 434 327 434 222 C434 116 365 36 267 36 L267 36 Z " />
<glyph glyph-name="e" unicode="e" horiz-adv-x="517" d="M471 243 C471 359 388 453 264 453 C137 453 47 351 47 225 C47 95 135 -9 274 -9 C347 -9 411 20 449 64 L412 94 C381 58 334 36 274 36 C166 36 102 117 101 221 L471 221 L471 243 Z M264 408 C352 408 412 347 419 260 L104 260 C117 346 178 408 264 408 L264 408 Z " />
<glyph glyph-name="f" unicode="f" horiz-adv-x="313" d="M236 648 C255 648 274 642 296 628 L317 666 C289 682 265 693 228 693 C169 693 113 654 113 564 L113 441 L47 441 L47 398 L113 398 L113 0 L164 0 L164 398 L276 398 L276 441 L164 441 L164 562 C164 616 191 648 236 648 L236 648 Z " />
<glyph glyph-name="g" unicode="g" horiz-adv-x="551" d="M437 441 L430 351 C395 413 334 453 256 453 C139 453 47 361 47 222 C47 83 139 -9 256 -9 C333 -9 393 29 428 89 L428 29 C428 -98 382 -165 272 -165 C246 -165 224 -161 201 -152 L189 -198 C213 -205 243 -210 273 -210 C415 -210 480 -129 480 31 L480 441 L437 441 Z M267 36 C169 36 100 117 100 222 C100 327 169 408 266 408 C365 408 434 327 434 222 C434 116 365 36 267 36 L267 36 Z " />
<glyph glyph-name="h" unicode="h" horiz-adv-x="502" d="M268 453 C200 453 149 418 123 367 L123 680 L71 680 L71 0 L123 0 L123 282 C134 367 192 408 258 408 C336 408 383 355 383 256 L383 0 L435 0 L435 265 C435 411 346 453 268 453 L268 453 Z " />
<glyph glyph-name="i" unicode="i" horiz-adv-x="221" d="M109 546 C132 546 151 565 151 587 C151 610 132 629 109 629 C86 629 67 610 67 587 C67 565 86 546 109 546 L109 546 Z M83 0 L135 0 L135 441 L83 441 L83 0 Z " />
<glyph glyph-name="j" unicode="j" horiz-adv-x="246" d="M134 546 C157 546 176 565 176 587 C176 610 157 629 134 629 C111 629 92 610 92 587 C92 565 111 546 134 546 L134 546 Z M160 -62 L160 441 L108 441 L108 -62 C108 -135 81 -173 -3 -164 L-3 -208 C74 -219 160 -198 160 -62 L160 -62 Z " />
<glyph glyph-name="k" unicode="k" horiz-adv-x="448" d="M437 0 L178 242 L409 441 L338 441 L123 256 L123 680 L71 680 L71 0 L123 0 L123 227 L365 0 L437 0 Z " />
<glyph glyph-name="l" unicode="l" horiz-adv-x="202" d="M75 0 L127 0 L127 680 L75 680 L75 0 Z " />
<glyph glyph-name="m" unicode="m" horiz-adv-x="761" d="M539 453 C464 453 417 418 394 354 C366 429 304 453 253 453 C198 453 146 422 122 365 L116 441 L71 441 L71 0 L123 0 L123 266 C130 355 177 408 244 408 C318 408 357 348 357 262 L357 0 L408 0 L408 234 C408 345 454 408 529 408 C608 408 643 348 643 259 L643 0 L695 0 L695 260 C695 411 612 453 539 453 L539 453 Z " />
<glyph glyph-name="n" unicode="n" horiz-adv-x="503" d="M269 453 C199 453 147 416 122 362 L116 441 L71 441 L71 0 L123 0 L123 273 C131 364 190 408 259 408 C337 408 384 355 384 256 L384 0 L436 0 L436 265 C436 411 347 453 269 453 L269 453 Z " />
<glyph glyph-name="o" unicode="o" horiz-adv-x="555" d="M278 -10 C412 -10 508 93 508 222 C508 350 412 453 278 453 C142 453 47 350 47 222 C47 93 142 -10 278 -10 L278 -10 Z M278 36 C175 36 101 118 101 222 C101 325 175 408 278 408 C380 408 454 325 454 222 C454 118 380 36 278 36 L278 36 Z " />
<glyph glyph-name="p" unicode="p" horiz-adv-x="551" d="M295 453 C217 453 156 413 121 351 L116 441 L71 441 L71 -210 L123 -210 L123 89 C158 29 218 -9 295 -9 C412 -9 504 83 504 222 C504 361 412 453 295 453 L295 453 Z M284 36 C186 36 116 116 116 222 C116 327 186 408 285 408 C382 408 450 327 450 222 C450 117 382 36 284 36 L284 36 Z " />
<glyph glyph-name="q" unicode="q" horiz-adv-x="551" d="M435 441 L430 351 C395 413 334 453 256 453 C139 453 47 361 47 222 C47 83 139 -9 256 -9 C333 -9 393 29 428 89 L428 -210 L479 -210 L480 441 L435 441 Z M267 36 C169 36 100 117 100 222 C100 327 169 408 266 408 C365 408 434 327 434 222 C434 116 365 36 267 36 L267 36 Z " />
<glyph glyph-name="r" unicode="r" horiz-adv-x="300" d="M248 453 C190 453 145 411 122 362 L115 441 L71 441 L71 0 L123 0 L123 266 C124 350 170 403 240 403 C254 403 264 401 275 398 L286 449 C275 452 265 453 248 453 L248 453 Z " />
<glyph glyph-name="s" unicode="s" horiz-adv-x="403" d="M37 65 C62 24 122 -10 196 -10 C290 -10 356 39 356 117 C356 285 114 204 113 330 C113 377 147 407 207 408 C250 408 285 391 311 366 L344 400 C316 428 269 453 207 453 C118 453 59 403 60 327 C60 161 301 239 301 115 C301 67 262 36 195 36 C143 36 101 59 76 96 L37 65 Z " />
<glyph glyph-name="t" unicode="t" horiz-adv-x="315" d="M276 441 L164 441 L164 570 L113 570 L113 441 L47 441 L47 398 L113 398 L113 0 L164 0 L164 398 L276 398 L276 441 Z " />
<glyph glyph-name="u" unicode="u" horiz-adv-x="498" d="M249 -12 C334 -12 431 31 431 181 L431 441 L379 441 L379 181 C379 89 332 33 249 33 C166 33 119 89 119 181 L119 441 L67 441 L67 181 C67 31 164 -12 249 -12 L249 -12 Z " />
<glyph glyph-name="v" unicode="v" horiz-adv-x="467" d="M392 441 L233 61 L75 441 L19 441 L212 0 L255 0 L448 441 L392 441 Z " />
<glyph glyph-name="w" unicode="w" horiz-adv-x="707" d="M627 441 L492 67 L376 441 L331 441 L215 67 L80 441 L25 441 L193 0 L236 0 L354 382 L471 0 L514 0 L682 441 L627 441 Z " />
<glyph glyph-name="x" unicode="x" horiz-adv-x="446" d="M423 0 L252 232 L404 441 L343 441 L223 269 L103 441 L42 441 L194 232 L23 0 L85 0 L223 194 L361 0 L423 0 Z " />
<glyph glyph-name="y" unicode="y" horiz-adv-x="462" d="M387 441 L230 70 L75 441 L19 441 L205 10 L108 -210 L162 -210 L443 441 L387 441 Z " />
<glyph glyph-name="z" unicode="z" horiz-adv-x="457" d="M116 46 L396 400 L397 441 L64 441 L64 395 L332 395 L49 39 L49 0 L412 0 L412 46 L116 46 Z " />
<glyph glyph-name="braceleft" unicode="&#x7b;" horiz-adv-x="336" d="M201 397 L201 640 C201 688 231 707 275 707 L307 707 L307 747 L254 747 C194 747 153 700 153 642 L153 400 C153 346 110 322 78 318 L78 282 C110 278 153 254 153 200 L153 -42 C153 -100 194 -147 254 -147 L307 -147 L307 -107 L275 -107 C231 -107 201 -88 201 -40 L201 203 C201 261 159 292 128 300 C159 308 201 339 201 397 L201 397 Z " />
<glyph glyph-name="bar" unicode="&#x7c;" horiz-adv-x="262" d="M108 710 L108 -160 L153 -160 L153 710 L108 710 Z " />
<glyph glyph-name="braceright" unicode="&#x7d;" horiz-adv-x="336" d="M183 400 L183 642 C183 700 141 747 82 747 L28 747 L28 707 L61 707 C104 707 135 688 135 640 L135 397 C135 339 177 308 208 300 C177 292 135 261 135 203 L135 -40 C135 -88 104 -107 61 -107 L28 -107 L28 -147 L82 -147 C141 -147 183 -100 183 -42 L183 200 C183 254 225 278 257 282 L257 318 C225 322 183 346 183 400 L183 400 Z " />
<glyph glyph-name="asciitilde" unicode="&#x7e;" horiz-adv-x="428" d="M278 237 C333 237 362 281 373 307 L332 329 C321 304 306 283 276 283 C230 283 203 332 147 332 C95 332 72 294 55 267 L94 243 C106 264 122 285 153 285 C198 285 220 237 278 237 L278 237 Z " />
<glyph glyph-name="uni00A0" unicode="&#xa0;" horiz-adv-x="256" d="" />
<glyph glyph-name="exclamdown" unicode="&#xa1;" horiz-adv-x="217" d="M97 453 C74 453 55 435 55 412 C55 389 74 370 97 370 C120 370 138 389 138 412 C138 435 120 453 97 453 L97 453 Z M67 -192 L128 -192 L119 284 L75 284 L67 -192 Z " />
<glyph glyph-name="cent" unicode="&#xa2;" horiz-adv-x="470" d="M276 134 C264 134 253 135 243 137 L314 504 C343 498 369 484 389 466 L420 503 C393 525 360 541 323 548 L341 640 L307 640 L290 553 L276 553 C140 553 51 449 51 321 C51 218 108 132 201 102 L181 0 L216 0 L234 93 C248 91 262 90 276 90 C333 90 382 108 420 139 L389 176 C360 150 321 134 276 134 L276 134 Z M105 321 C105 426 169 508 276 508 L281 508 L210 146 C143 173 105 240 105 321 L105 321 Z " />
<glyph glyph-name="sterling" unicode="&#xa3;" horiz-adv-x="555" d="M210 281 L418 281 L418 316 L210 316 L210 453 C210 557 264 608 344 608 C389 608 425 592 457 562 L487 599 C447 635 402 653 344 653 C238 653 158 586 158 453 L158 316 L71 316 L71 281 L158 281 L158 44 L71 38 L71 0 L482 0 L482 45 L210 45 L210 281 Z " />
<glyph glyph-name="currency" unicode="&#xa4;" horiz-adv-x="550" d="M421 204 C447 237 463 279 463 325 C463 374 445 419 416 452 L434 454 L485 515 L427 510 L396 472 C364 499 322 515 276 515 C225 515 181 496 148 465 L146 485 L86 535 L91 478 L130 445 C104 412 89 371 89 325 C89 277 106 232 135 199 L116 197 L65 137 L123 142 L155 179 C187 152 229 135 276 135 C325 135 368 153 401 183 L403 165 L465 116 L459 173 L421 204 Z M276 179 C197 179 138 244 138 325 C138 406 198 471 276 471 C353 471 414 406 414 325 C414 244 354 179 276 179 L276 179 Z " />
<glyph glyph-name="yen" unicode="&#xa5;" horiz-adv-x="635" d="M567 640 L506 640 L318 352 L130 640 L69 640 L272 336 L139 336 L139 300 L292 300 L292 222 L139 222 L139 187 L292 187 L292 0 L346 0 L346 187 L497 187 L497 222 L346 222 L346 300 L497 300 L497 336 L364 336 L567 640 Z " />
<glyph glyph-name="brokenbar" unicode="&#xa6;" horiz-adv-x="242" d="M98 625 L98 340 L143 340 L143 625 L98 625 Z M98 210 L98 -75 L143 -75 L143 210 L98 210 Z " />
<glyph glyph-name="section" unicode="&#xa7;" horiz-adv-x="484" d="M416 206 C418 278 366 336 270 389 C182 437 132 473 132 524 C133 575 175 612 236 612 C284 611 324 586 342 567 L374 602 C350 624 299 653 233 653 C140 652 86 596 86 524 C85 479 108 446 139 419 C89 396 62 353 61 301 C61 201 159 149 235 101 C310 59 345 28 344 -25 C343 -78 296 -117 219 -116 C153 -116 101 -78 81 -50 L48 -85 C76 -117 140 -160 218 -160 C312 -160 389 -117 392 -25 C393 21 375 54 344 83 C389 109 414 152 416 206 L416 206 Z M368 208 C367 170 346 134 300 117 L273 133 C163 200 108 244 108 304 C109 343 137 375 181 388 L235 356 C330 302 369 268 368 208 L368 208 Z " />
<glyph glyph-name="dieresis" unicode="&#xa8;" horiz-adv-x="341" d="M77 597 C56 597 40 581 40 560 C40 538 56 522 77 522 C98 522 115 538 115 560 C115 581 98 597 77 597 L77 597 Z M263 597 C241 597 226 581 226 560 C226 538 241 522 263 522 C284 522 301 538 301 560 C301 581 284 597 263 597 L263 597 Z " />
<glyph glyph-name="copyright" unicode="&#xa9;" horiz-adv-x="777" d="M388 -10 C578 -10 718 139 718 322 C718 504 579 653 388 653 C197 653 58 504 58 322 C58 139 197 -10 388 -10 L388 -10 Z M388 26 C214 26 97 161 97 322 C97 483 214 617 388 617 C560 617 679 483 679 322 C679 161 559 26 388 26 L388 26 Z M393 121 C437 121 476 133 507 155 L485 189 C464 173 430 162 393 162 C303 162 243 235 243 322 C243 407 303 480 393 480 C431 480 464 468 485 453 L507 488 C476 510 437 522 393 522 C278 522 196 433 196 322 C196 210 278 121 393 121 L393 121 Z " />
<glyph glyph-name="ordfeminine" unicode="&#xaa;" horiz-adv-x="414" d="M330 649 L325 579 C301 625 257 655 201 655 C114 655 47 590 47 491 C47 392 114 327 201 327 C257 327 301 352 324 397 L330 333 L367 333 L367 649 L330 649 Z M210 368 C142 368 95 421 95 491 C95 561 142 614 210 614 C279 614 329 561 329 491 C329 421 279 368 210 368 L210 368 Z M61 231 L367 231 L367 269 L61 269 L61 231 Z " />
<glyph glyph-name="guillemotleft" unicode="&#xab;" horiz-adv-x="439" d="M251 420 L199 420 L47 242 L199 64 L251 64 L97 242 L251 420 Z M392 420 L340 420 L188 242 L340 64 L392 64 L237 242 L392 420 Z " />
<glyph glyph-name="logicalnot" unicode="&#xac;" horiz-adv-x="444" d="M178 346 L178 253 L259 253 L259 346 L178 346 Z M259 253 L259 251 L354 251 L354 253 L259 253 Z " />
<glyph glyph-name="uni00AD" unicode="&#xad;" horiz-adv-x="345" d="M55 231 L290 231 L290 276 L55 276 L55 231 Z " />
<glyph glyph-name="registered" unicode="&#xae;" horiz-adv-x="476" d="M238 653 C121 653 40 565 40 456 C40 346 121 258 238 258 C354 258 436 345 436 456 C436 565 355 653 238 653 L238 653 Z M238 283 C133 283 67 361 67 456 C67 549 133 627 238 627 C342 627 410 549 410 456 C410 361 342 283 238 283 L238 283 Z M316 500 C316 544 279 563 245 563 L199 564 L191 564 L165 563 L165 345 L199 345 L199 437 L215 437 L285 345 L327 345 L254 438 C285 441 316 460 316 500 L316 500 Z M199 533 L238 533 C263 533 280 521 280 498 C280 476 263 465 238 465 L199 465 L199 533 Z " />
<glyph glyph-name="macron" unicode="&#xaf;" horiz-adv-x="327" d="M40 654 L287 654 L287 691 L40 691 L40 654 Z " />
<glyph glyph-name="degree" unicode="&#xb0;" horiz-adv-x="345" d="M172 653 C99 653 40 593 40 520 C40 446 99 387 172 387 C245 387 305 446 305 520 C305 593 245 653 172 653 L172 653 Z M172 425 C122 425 81 467 81 520 C81 573 122 614 172 614 C223 614 264 573 264 520 C264 467 223 425 172 425 L172 425 Z " />
<glyph glyph-name="plusminus" unicode="&#xb1;" horiz-adv-x="503" d="M275 308 L275 481 L230 481 L230 308 L57 308 L57 263 L230 263 L230 90 L275 90 L275 263 L448 263 L448 308 L275 308 Z M55 0 L446 0 L446 45 L55 45 L55 0 Z " />
<glyph glyph-name="uni00B2" unicode="&#xb2;" horiz-adv-x="352" d="M124 399 L244 523 C275 555 299 591 299 638 C299 705 247 750 175 750 C112 750 70 708 53 682 L86 657 C103 679 129 711 174 711 C223 710 251 679 251 637 C251 599 228 571 202 544 L50 386 L50 360 L305 360 L305 399 L124 399 Z " />
<glyph glyph-name="uni00B3" unicode="&#xb3;" horiz-adv-x="362" d="M167 577 L294 719 L294 740 L61 740 L61 701 L228 701 L108 566 L125 538 C156 548 188 549 212 539 C242 526 263 504 261 465 C260 422 227 389 169 389 C122 389 91 409 66 435 L39 402 C78 367 117 350 169 350 C258 350 308 401 308 466 C309 543 242 584 167 577 L167 577 Z " />
<glyph glyph-name="acute" unicode="&#xb4;" horiz-adv-x="261" d="M131 552 L221 647 L168 657 L40 510 L62 510 C80 510 95 514 131 552 L131 552 Z " />
<glyph glyph-name="uni00B5" unicode="&#xb5;" horiz-adv-x="507" d="M384 441 L384 208 C383 87 320 33 246 33 C167 33 123 88 123 186 L123 441 L71 441 L71 -190 L116 -190 L122 45 C154 9 198 -12 242 -12 C302 -12 362 21 384 100 L384 93 L390 0 L436 0 L436 441 L384 441 Z " />
<glyph glyph-name="paragraph" unicode="&#xb6;" horiz-adv-x="456" d="M358 640 L177 640 C103 640 46 575 46 489 C46 403 103 338 177 338 L184 338 L184 -150 L225 -150 L225 603 L317 603 L317 -150 L358 -150 L358 640 Z " />
<glyph glyph-name="periodcentered" unicode="&#xb7;" horiz-adv-x="225" d="M112 235 C135 235 154 254 154 276 C154 299 135 318 112 318 C90 318 71 299 71 276 C71 254 90 235 112 235 L112 235 Z " />
<glyph glyph-name="cedilla" unicode="&#xb8;" horiz-adv-x="320" d="M192 -51 C169 -49 149 -54 140 -58 L181 5 L181 15 L154 15 L99 -71 L117 -87 C153 -70 210 -74 210 -111 C210 -132 192 -155 145 -153 C116 -151 91 -142 81 -135 L66 -164 C80 -173 113 -185 153 -185 C214 -185 255 -157 255 -114 C255 -75 225 -55 192 -51 L192 -51 Z " />
<glyph glyph-name="uni00B9" unicode="&#xb9;" horiz-adv-x="262" d="M136 740 L19 667 L39 632 L133 690 L133 360 L178 360 L178 740 L136 740 Z " />
<glyph glyph-name="ordmasculine" unicode="&#xba;" horiz-adv-x="425" d="M212 326 C310 326 378 399 378 491 C378 581 310 655 212 655 C114 655 47 581 47 491 C47 399 114 326 212 326 L212 326 Z M212 368 C142 368 95 423 95 491 C95 559 142 614 212 614 C282 614 329 559 329 491 C329 423 282 368 212 368 L212 368 Z M58 231 L366 231 L366 269 L58 269 L58 231 Z " />
<glyph glyph-name="guillemotright" unicode="&#xbb;" horiz-adv-x="439" d="M99 420 L47 420 L202 242 L47 64 L99 64 L251 242 L99 420 Z M239 420 L188 420 L342 242 L188 64 L239 64 L392 242 L239 420 Z " />
<glyph glyph-name="questiondown" unicode="&#xbf;" horiz-adv-x="414" d="M228 454 C205 454 186 436 186 413 C186 390 205 371 228 371 C250 371 269 390 269 413 C269 436 250 454 228 454 L228 454 Z M253 287 L203 287 L203 156 C118 151 16 97 19 -31 C20 -137 109 -204 217 -204 C303 -204 357 -164 395 -115 L358 -85 C338 -113 296 -159 217 -159 C138 -159 75 -107 73 -25 C71 69 154 120 253 117 L253 287 Z " />
<glyph glyph-name="Agrave" unicode="&#xc0;" horiz-adv-x="624" d="M373 690 L396 690 L268 837 L215 827 L304 732 C341 694 355 690 373 690 L373 690 Z M535 0 L593 0 L339 640 L285 640 L30 0 L89 0 L167 202 L457 203 L535 0 Z M184 247 L312 578 L439 247 L184 247 Z " />
<glyph glyph-name="Aacute" unicode="&#xc1;" horiz-adv-x="624" d="M336 732 L426 827 L372 837 L245 690 L267 690 C285 690 300 694 336 732 L336 732 Z M535 0 L593 0 L339 640 L285 640 L30 0 L89 0 L167 202 L457 203 L535 0 Z M184 247 L312 578 L439 247 L184 247 Z " />
<glyph glyph-name="Acircumflex" unicode="&#xc2;" horiz-adv-x="624" d="M254 706 L311 761 L368 706 C379 695 386 691 402 691 L437 691 L334 797 L288 797 L185 691 L220 691 C236 691 243 696 254 706 L254 706 Z M535 0 L593 0 L339 640 L285 640 L30 0 L89 0 L167 202 L457 203 L535 0 Z M184 247 L312 578 L439 247 L184 247 Z " />
<glyph glyph-name="Atilde" unicode="&#xc3;" horiz-adv-x="624" d="M261 741 C298 741 317 700 365 700 C411 700 435 737 444 759 L410 777 C401 756 388 739 364 739 C325 739 302 779 256 779 C213 779 193 748 179 725 L212 705 C221 723 235 741 261 741 L261 741 Z M535 0 L593 0 L339 640 L285 640 L30 0 L89 0 L167 202 L457 203 L535 0 Z M184 247 L312 578 L439 247 L184 247 Z " />
<glyph glyph-name="Adieresis" unicode="&#xc4;" horiz-adv-x="624" d="M218 705 C239 705 256 721 256 743 C256 764 239 780 218 780 C197 780 181 764 181 743 C181 721 197 705 218 705 L218 705 Z M404 705 C425 705 442 721 442 743 C442 764 425 780 404 780 C383 780 367 764 367 743 C367 721 383 705 404 705 L404 705 Z M535 0 L593 0 L339 640 L285 640 L30 0 L89 0 L167 202 L457 203 L535 0 Z M184 247 L312 578 L439 247 L184 247 Z " />
<glyph glyph-name="Aring" unicode="&#xc5;" horiz-adv-x="624" d="M312 681 C362 681 403 721 403 770 C403 818 362 858 312 858 C262 858 221 818 221 770 C221 721 262 681 312 681 L312 681 Z M312 827 C346 827 372 802 372 770 C372 737 346 711 312 711 C278 711 251 737 251 770 C251 802 278 827 312 827 L312 827 Z M535 0 L593 0 L339 640 L285 640 L30 0 L89 0 L167 202 L457 203 L535 0 Z M184 247 L312 578 L439 247 L184 247 Z " />
<glyph glyph-name="AE" unicode="&#xc6;" horiz-adv-x="806" d="M738 596 L738 643 L285 643 L30 0 L89 0 L165 202 L412 202 L467 0 L738 0 L738 47 L511 47 L439 294 L684 294 L684 339 L426 339 L351 596 L738 596 Z M181 247 L307 583 L399 247 L181 247 Z " />
<glyph glyph-name="Ccedilla" unicode="&#xc7;" horiz-adv-x="625" d="M387 -11 C459 -11 523 8 576 44 L547 87 C505 56 450 37 387 37 C223 37 115 167 115 321 C115 475 223 604 387 604 C450 604 505 586 547 555 L576 598 C523 634 459 653 387 653 C194 653 58 506 58 321 C58 148 176 9 348 -9 L306 -74 L323 -90 C359 -73 416 -77 416 -114 C416 -135 398 -158 352 -156 C323 -154 298 -145 287 -138 L272 -167 C286 -176 320 -188 360 -188 C420 -188 462 -160 462 -117 C462 -78 431 -58 399 -54 C376 -52 355 -57 346 -61 L379 -11 L387 -11 Z " />
<glyph glyph-name="Egrave" unicode="&#xc8;" horiz-adv-x="521" d="M334 690 L357 690 L229 837 L176 827 L265 732 C302 694 316 690 334 690 L334 690 Z M453 593 L453 640 L98 640 L98 0 L453 0 L453 47 L152 47 L152 298 L403 298 L403 343 L152 343 L152 593 L453 593 Z " />
<glyph glyph-name="Eacute" unicode="&#xc9;" horiz-adv-x="521" d="M297 732 L387 827 L333 837 L206 690 L228 690 C246 690 261 694 297 732 L297 732 Z M453 593 L453 640 L98 640 L98 0 L453 0 L453 47 L152 47 L152 298 L403 298 L403 343 L152 343 L152 593 L453 593 Z " />
<glyph glyph-name="Ecircumflex" unicode="&#xca;" horiz-adv-x="521" d="M215 706 L272 761 L329 706 C340 695 347 691 363 691 L398 691 L295 797 L249 797 L146 691 L181 691 C197 691 204 696 215 706 L215 706 Z M453 593 L453 640 L98 640 L98 0 L453 0 L453 47 L152 47 L152 298 L403 298 L403 343 L152 343 L152 593 L453 593 Z " />
<glyph glyph-name="Edieresis" unicode="&#xcb;" horiz-adv-x="521" d="M179 705 C200 705 217 721 217 743 C217 764 200 780 179 780 C158 780 142 764 142 743 C142 721 158 705 179 705 L179 705 Z M365 705 C386 705 403 721 403 743 C403 764 386 780 365 780 C344 780 328 764 328 743 C328 721 344 705 365 705 L365 705 Z M453 593 L453 640 L98 640 L98 0 L453 0 L453 47 L152 47 L152 298 L403 298 L403 343 L152 343 L152 593 L453 593 Z " />
<glyph glyph-name="Igrave" unicode="&#xcc;" horiz-adv-x="271" d="M128 732 C165 694 179 690 197 690 L220 690 L92 837 L39 827 L128 732 Z M162 640 L108 640 L108 0 L162 0 L162 640 Z " />
<glyph glyph-name="Iacute" unicode="&#xcd;" horiz-adv-x="271" d="M160 732 L250 827 L196 837 L69 690 L91 690 C109 690 124 694 160 732 L160 732 Z M162 640 L108 640 L108 0 L162 0 L162 640 Z " />
<glyph glyph-name="Icircumflex" unicode="&#xce;" horiz-adv-x="271" d="M158 797 L112 797 L9 691 L44 691 C60 691 67 696 78 706 L135 761 L192 706 C203 695 210 691 226 691 L261 691 L158 797 Z M162 640 L108 640 L108 0 L162 0 L162 640 Z " />
<glyph glyph-name="Idieresis" unicode="&#xcf;" horiz-adv-x="271" d="M42 780 C21 780 5 764 5 743 C5 721 21 705 42 705 C63 705 80 721 80 743 C80 764 63 780 42 780 L42 780 Z M228 780 C207 780 191 764 191 743 C191 721 207 705 228 705 C249 705 266 721 266 743 C266 764 249 780 228 780 L228 780 Z M162 640 L108 640 L108 0 L162 0 L162 640 Z " />
<glyph glyph-name="Eth" unicode="&#xd0;" horiz-adv-x="642" d="M237 640 L98 640 L98 340 L28 340 L28 304 L98 304 L98 0 L237 0 C466 0 583 143 583 321 C583 498 466 640 237 640 L237 640 Z M229 44 L152 44 L152 304 L275 304 L275 340 L152 340 L152 596 L229 596 C412 596 527 497 527 321 C527 143 412 44 229 44 L229 44 Z " />
<glyph glyph-name="Ntilde" unicode="&#xd1;" horiz-adv-x="722" d="M311 741 C348 741 367 700 415 700 C461 700 485 737 494 759 L460 777 C451 756 438 739 414 739 C375 739 352 779 306 779 C263 779 243 748 229 725 L262 705 C271 723 285 741 311 741 L311 741 Z M571 640 L571 89 L150 640 L98 640 L98 0 L151 0 L151 552 L572 0 L624 0 L624 640 L571 640 Z " />
<glyph glyph-name="Ograve" unicode="&#xd2;" horiz-adv-x="782" d="M383 732 C420 694 434 690 452 690 L475 690 L347 837 L294 827 L383 732 Z M391 -10 C587 -10 724 137 724 322 C724 507 587 653 391 653 C195 653 58 507 58 322 C58 137 195 -10 391 -10 L391 -10 Z M391 39 C226 39 115 168 115 322 C115 477 226 604 391 604 C556 604 667 477 667 322 C667 168 556 39 391 39 L391 39 Z " />
<glyph glyph-name="Oacute" unicode="&#xd3;" horiz-adv-x="782" d="M416 732 L506 827 L452 837 L325 690 L347 690 C365 690 380 694 416 732 L416 732 Z M391 -10 C587 -10 724 137 724 322 C724 507 587 653 391 653 C195 653 58 507 58 322 C58 137 195 -10 391 -10 L391 -10 Z M391 39 C226 39 115 168 115 322 C115 477 226 604 391 604 C556 604 667 477 667 322 C667 168 556 39 391 39 L391 39 Z " />
<glyph glyph-name="Ocircumflex" unicode="&#xd4;" horiz-adv-x="782" d="M413 797 L367 797 L264 691 L299 691 C315 691 322 696 333 706 L390 761 L447 706 C458 695 465 691 481 691 L516 691 L413 797 Z M391 -10 C587 -10 724 137 724 322 C724 507 587 653 391 653 C195 653 58 507 58 322 C58 137 195 -10 391 -10 L391 -10 Z M391 39 C226 39 115 168 115 322 C115 477 226 604 391 604 C556 604 667 477 667 322 C667 168 556 39 391 39 L391 39 Z " />
<glyph glyph-name="Otilde" unicode="&#xd5;" horiz-adv-x="782" d="M445 700 C491 700 515 737 524 759 L490 777 C481 756 468 739 444 739 C405 739 382 779 336 779 C293 779 273 748 259 725 L292 705 C301 723 315 741 341 741 C378 741 397 700 445 700 L445 700 Z M391 -10 C587 -10 724 137 724 322 C724 507 587 653 391 653 C195 653 58 507 58 322 C58 137 195 -10 391 -10 L391 -10 Z M391 39 C226 39 115 168 115 322 C115 477 226 604 391 604 C556 604 667 477 667 322 C667 168 556 39 391 39 L391 39 Z " />
<glyph glyph-name="Odieresis" unicode="&#xd6;" horiz-adv-x="782" d="M298 780 C277 780 261 764 261 743 C261 721 277 705 298 705 C319 705 336 721 336 743 C336 764 319 780 298 780 L298 780 Z M484 780 C463 780 447 764 447 743 C447 721 463 705 484 705 C505 705 522 721 522 743 C522 764 505 780 484 780 L484 780 Z M391 -10 C587 -10 724 137 724 322 C724 507 587 653 391 653 C195 653 58 507 58 322 C58 137 195 -10 391 -10 L391 -10 Z M391 39 C226 39 115 168 115 322 C115 477 226 604 391 604 C556 604 667 477 667 322 C667 168 556 39 391 39 L391 39 Z " />
<glyph glyph-name="multiply" unicode="&#xd7;" horiz-adv-x="419" d="M364 376 L332 408 L210 286 L88 408 L56 376 L178 254 L55 131 L87 99 L210 222 L332 99 L364 131 L242 254 L364 376 Z " />
<glyph glyph-name="Oslash" unicode="&#xd8;" horiz-adv-x="782" d="M629 559 L701 638 L674 662 L602 583 C546 627 474 653 391 653 C195 653 58 507 58 322 C58 228 93 145 153 85 L81 5 L108 -19 L180 61 C236 16 308 -10 391 -10 C587 -10 724 137 724 322 C724 415 689 499 629 559 L629 559 Z M115 322 C115 477 226 604 391 604 C461 604 521 581 567 543 L189 125 C142 176 115 246 115 322 L115 322 Z M391 39 C321 39 261 62 215 100 L593 519 C640 468 667 398 667 322 C667 168 556 39 391 39 L391 39 Z " />
<glyph glyph-name="Ugrave" unicode="&#xd9;" horiz-adv-x="617" d="M301 732 C338 694 352 690 370 690 L393 690 L265 837 L212 827 L301 732 Z M308 -10 C450 -10 534 74 534 241 L534 640 L480 640 L480 248 C480 110 419 39 308 39 C197 39 136 110 136 248 L136 640 L82 640 L82 241 C82 74 167 -10 308 -10 L308 -10 Z " />
<glyph glyph-name="Uacute" unicode="&#xda;" horiz-adv-x="617" d="M333 732 L423 827 L369 837 L242 690 L264 690 C282 690 297 694 333 732 L333 732 Z M308 -10 C450 -10 534 74 534 241 L534 640 L480 640 L480 248 C480 110 419 39 308 39 C197 39 136 110 136 248 L136 640 L82 640 L82 241 C82 74 167 -10 308 -10 L308 -10 Z " />
<glyph glyph-name="Ucircumflex" unicode="&#xdb;" horiz-adv-x="617" d="M331 797 L285 797 L182 691 L217 691 C233 691 240 696 251 706 L308 761 L365 706 C376 695 383 691 399 691 L434 691 L331 797 Z M308 -10 C450 -10 534 74 534 241 L534 640 L480 640 L480 248 C480 110 419 39 308 39 C197 39 136 110 136 248 L136 640 L82 640 L82 241 C82 74 167 -10 308 -10 L308 -10 Z " />
<glyph glyph-name="Udieresis" unicode="&#xdc;" horiz-adv-x="617" d="M215 780 C194 780 178 764 178 743 C178 721 194 705 215 705 C236 705 253 721 253 743 C253 764 236 780 215 780 L215 780 Z M401 780 C380 780 364 764 364 743 C364 721 380 705 401 705 C422 705 439 721 439 743 C439 764 422 780 401 780 L401 780 Z M308 -10 C450 -10 534 74 534 241 L534 640 L480 640 L480 248 C480 110 419 39 308 39 C197 39 136 110 136 248 L136 640 L82 640 L82 241 C82 74 167 -10 308 -10 L308 -10 Z " />
<glyph glyph-name="Yacute" unicode="&#xdd;" horiz-adv-x="559" d="M304 732 L394 827 L340 837 L213 690 L235 690 C253 690 268 694 304 732 L304 732 Z M529 640 L465 640 L279 358 L94 640 L30 640 L252 306 L252 0 L306 0 L306 305 L529 640 Z " />
<glyph glyph-name="Thorn" unicode="&#xde;" horiz-adv-x="501" d="M267 513 L152 513 L152 640 L98 639 L98 0 L152 0 L152 153 L267 154 C355 155 452 211 452 333 C452 455 355 512 267 513 L267 513 Z M244 197 L152 198 L152 468 L244 469 C338 470 396 421 396 333 C396 245 338 196 244 197 L244 197 Z " />
<glyph glyph-name="germandbls" unicode="&#xdf;" horiz-adv-x="559" d="M232 -3 C381 -28 492 48 492 186 C492 290 420 349 338 365 C379 377 445 419 445 513 C445 609 367 672 276 672 C179 672 93 616 93 456 L93 0 L146 0 L146 456 C146 556 187 624 271 624 C327 624 391 587 392 510 C392 429 330 383 271 383 L254 383 L254 339 L274 339 C346 339 439 291 438 184 C437 78 352 16 232 42 L232 -3 Z " />
<glyph glyph-name="agrave" unicode="&#xe0;" horiz-adv-x="551" d="M337 521 L360 521 L232 668 L179 658 L268 563 C305 525 319 521 337 521 L337 521 Z M437 441 L429 352 C394 414 334 453 256 453 C139 453 47 361 47 222 C47 83 139 -9 256 -9 C334 -9 394 30 429 91 L437 0 L480 0 L480 441 L437 441 Z M267 36 C169 36 100 117 100 222 C100 327 169 408 266 408 C365 408 434 327 434 222 C434 116 365 36 267 36 L267 36 Z " />
<glyph glyph-name="aacute" unicode="&#xe1;" horiz-adv-x="551" d="M301 563 L391 658 L337 668 L210 521 L232 521 C250 521 265 525 301 563 L301 563 Z M437 441 L429 352 C394 414 334 453 256 453 C139 453 47 361 47 222 C47 83 139 -9 256 -9 C334 -9 394 30 429 91 L437 0 L480 0 L480 441 L437 441 Z M267 36 C169 36 100 117 100 222 C100 327 169 408 266 408 C365 408 434 327 434 222 C434 116 365 36 267 36 L267 36 Z " />
<glyph glyph-name="acircumflex" unicode="&#xe2;" horiz-adv-x="551" d="M218 537 L275 592 L332 537 C343 526 350 522 366 522 L401 522 L298 628 L252 628 L149 522 L184 522 C200 522 207 527 218 537 L218 537 Z M437 441 L429 352 C394 414 334 453 256 453 C139 453 47 361 47 222 C47 83 139 -9 256 -9 C334 -9 394 30 429 91 L437 0 L480 0 L480 441 L437 441 Z M267 36 C169 36 100 117 100 222 C100 327 169 408 266 408 C365 408 434 327 434 222 C434 116 365 36 267 36 L267 36 Z " />
<glyph glyph-name="atilde" unicode="&#xe3;" horiz-adv-x="551" d="M226 572 C263 572 282 531 330 531 C376 531 400 568 409 590 L375 608 C366 587 353 570 329 570 C290 570 267 610 221 610 C178 610 158 579 144 556 L177 536 C186 554 200 572 226 572 L226 572 Z M437 441 L429 352 C394 414 334 453 256 453 C139 453 47 361 47 222 C47 83 139 -9 256 -9 C334 -9 394 30 429 91 L437 0 L480 0 L480 441 L437 441 Z M267 36 C169 36 100 117 100 222 C100 327 169 408 266 408 C365 408 434 327 434 222 C434 116 365 36 267 36 L267 36 Z " />
<glyph glyph-name="adieresis" unicode="&#xe4;" horiz-adv-x="551" d="M183 537 C204 537 221 553 221 575 C221 596 204 612 183 612 C162 612 146 596 146 575 C146 553 162 537 183 537 L183 537 Z M369 537 C390 537 407 553 407 575 C407 596 390 612 369 612 C348 612 332 596 332 575 C332 553 348 537 369 537 L369 537 Z M437 441 L429 352 C394 414 334 453 256 453 C139 453 47 361 47 222 C47 83 139 -9 256 -9 C334 -9 394 30 429 91 L437 0 L480 0 L480 441 L437 441 Z M267 36 C169 36 100 117 100 222 C100 327 169 408 266 408 C365 408 434 327 434 222 C434 116 365 36 267 36 L267 36 Z " />
<glyph glyph-name="aring" unicode="&#xe5;" horiz-adv-x="551" d="M276 512 C326 512 367 552 367 601 C367 649 326 689 276 689 C226 689 185 649 185 601 C185 552 226 512 276 512 L276 512 Z M276 658 C310 658 336 633 336 601 C336 568 310 542 276 542 C242 542 215 568 215 601 C215 633 242 658 276 658 L276 658 Z M437 441 L429 352 C394 414 334 453 256 453 C139 453 47 361 47 222 C47 83 139 -9 256 -9 C334 -9 394 30 429 91 L437 0 L480 0 L480 441 L437 441 Z M267 36 C169 36 100 117 100 222 C100 327 169 408 266 408 C365 408 434 327 434 222 C434 116 365 36 267 36 L267 36 Z " />
<glyph glyph-name="ae" unicode="&#xe6;" horiz-adv-x="907" d="M860 243 C860 359 777 453 653 453 C580 453 518 419 480 366 L480 441 L437 441 L429 352 C394 414 334 453 256 453 C139 453 47 361 47 222 C47 83 139 -9 256 -9 C334 -9 394 30 429 91 L437 0 L480 0 L480 80 C519 26 582 -9 663 -9 C737 -9 800 20 839 64 L801 94 C770 58 724 36 663 36 C555 36 492 117 491 221 L860 221 L860 243 Z M267 36 C169 36 100 117 100 222 C100 327 169 408 266 408 C365 408 434 327 434 222 C434 116 365 36 267 36 L267 36 Z M653 408 C742 408 801 347 808 260 L494 260 C507 346 567 408 653 408 L653 408 Z " />
<glyph glyph-name="ccedilla" unicode="&#xe7;" horiz-adv-x="453" d="M272 -10 C329 -10 378 9 416 40 L385 77 C356 51 317 35 272 35 C165 35 100 117 100 222 C100 327 165 409 272 409 C317 409 356 393 385 367 L416 404 C378 435 329 453 272 453 C136 453 47 350 47 222 C47 104 122 7 240 -8 L200 -71 L217 -87 C253 -70 310 -74 310 -111 C310 -132 292 -155 246 -153 C217 -151 192 -142 181 -135 L166 -164 C180 -173 214 -185 254 -185 C314 -185 356 -157 356 -114 C356 -75 325 -55 293 -51 C270 -49 249 -54 240 -58 L271 -10 L272 -10 Z " />
<glyph glyph-name="egrave" unicode="&#xe8;" horiz-adv-x="517" d="M326 521 L349 521 L221 668 L168 658 L257 563 C294 525 308 521 326 521 L326 521 Z M471 243 C471 359 388 453 264 453 C137 453 47 351 47 225 C47 95 135 -9 274 -9 C347 -9 411 20 449 64 L412 94 C381 58 334 36 274 36 C166 36 102 117 101 221 L471 221 L471 243 Z M264 408 C352 408 412 347 419 260 L104 260 C117 346 178 408 264 408 L264 408 Z " />
<glyph glyph-name="eacute" unicode="&#xe9;" horiz-adv-x="517" d="M289 563 L379 658 L325 668 L198 521 L220 521 C238 521 253 525 289 563 L289 563 Z M471 243 C471 359 388 453 264 453 C137 453 47 351 47 225 C47 95 135 -9 274 -9 C347 -9 411 20 449 64 L412 94 C381 58 334 36 274 36 C166 36 102 117 101 221 L471 221 L471 243 Z M264 408 C352 408 412 347 419 260 L104 260 C117 346 178 408 264 408 L264 408 Z " />
<glyph glyph-name="ecircumflex" unicode="&#xea;" horiz-adv-x="517" d="M207 537 L264 592 L321 537 C332 526 339 522 355 522 L390 522 L287 628 L241 628 L138 522 L173 522 C189 522 196 527 207 537 L207 537 Z M471 243 C471 359 388 453 264 453 C137 453 47 351 47 225 C47 95 135 -9 274 -9 C347 -9 411 20 449 64 L412 94 C381 58 334 36 274 36 C166 36 102 117 101 221 L471 221 L471 243 Z M264 408 C352 408 412 347 419 260 L104 260 C117 346 178 408 264 408 L264 408 Z " />
<glyph glyph-name="edieresis" unicode="&#xeb;" horiz-adv-x="517" d="M171 537 C192 537 209 553 209 575 C209 596 192 612 171 612 C150 612 134 596 134 575 C134 553 150 537 171 537 L171 537 Z M357 537 C378 537 395 553 395 575 C395 596 378 612 357 612 C336 612 320 596 320 575 C320 553 336 537 357 537 L357 537 Z M471 243 C471 359 388 453 264 453 C137 453 47 351 47 225 C47 95 135 -9 274 -9 C347 -9 411 20 449 64 L412 94 C381 58 334 36 274 36 C166 36 102 117 101 221 L471 221 L471 243 Z M264 408 C352 408 412 347 419 260 L104 260 C117 346 178 408 264 408 L264 408 Z " />
<glyph glyph-name="igrave" unicode="&#xec;" horiz-adv-x="221" d="M101 563 C138 525 152 521 170 521 L193 521 L65 668 L12 658 L101 563 Z M83 0 L135 0 L135 441 L83 441 L83 0 Z " />
<glyph glyph-name="iacute" unicode="&#xed;" horiz-adv-x="221" d="M133 563 L223 658 L169 668 L42 521 L64 521 C82 521 97 525 133 563 L133 563 Z M83 0 L135 0 L135 441 L83 441 L83 0 Z " />
<glyph glyph-name="icircumflex" unicode="&#xee;" horiz-adv-x="221" d="M131 628 L85 628 L-18 522 L17 522 C33 522 40 527 51 537 L108 592 L165 537 C176 526 183 522 199 522 L234 522 L131 628 Z M83 0 L135 0 L135 441 L83 441 L83 0 Z " />
<glyph glyph-name="idieresis" unicode="&#xef;" horiz-adv-x="221" d="M16 612 C-5 612 -21 596 -21 575 C-21 553 -5 537 16 537 C37 537 54 553 54 575 C54 596 37 612 16 612 L16 612 Z M202 612 C181 612 165 596 165 575 C165 553 181 537 202 537 C223 537 240 553 240 575 C240 596 223 612 202 612 L202 612 Z M83 0 L135 0 L135 441 L83 441 L83 0 Z " />
<glyph glyph-name="eth" unicode="&#xf0;" horiz-adv-x="539" d="M293 568 L391 617 L362 641 L267 594 C246 616 224 637 200 660 L153 634 L218 570 L119 522 L146 495 L244 544 C289 499 325 459 360 414 C323 439 287 439 270 439 C137 439 47 339 47 214 C47 89 138 -12 270 -12 C401 -12 492 89 492 214 C492 330 419 437 293 568 L293 568 Z M270 34 C167 34 101 113 101 214 C101 315 165 394 270 394 C373 394 438 315 438 214 C438 113 373 34 270 34 L270 34 Z " />
<glyph glyph-name="ntilde" unicode="&#xf1;" horiz-adv-x="503" d="M204 572 C241 572 260 531 308 531 C354 531 378 568 387 590 L353 608 C344 587 331 570 307 570 C268 570 245 610 199 610 C156 610 136 579 122 556 L155 536 C164 554 178 572 204 572 L204 572 Z M269 453 C199 453 147 416 122 362 L116 441 L71 441 L71 0 L123 0 L123 273 C131 364 190 408 259 408 C337 408 384 355 384 256 L384 0 L436 0 L436 265 C436 411 347 453 269 453 L269 453 Z " />
<glyph glyph-name="ograve" unicode="&#xf2;" horiz-adv-x="555" d="M270 563 C307 525 321 521 339 521 L362 521 L234 668 L181 658 L270 563 Z M278 -10 C412 -10 508 93 508 222 C508 350 412 453 278 453 C142 453 47 350 47 222 C47 93 142 -10 278 -10 L278 -10 Z M278 36 C175 36 101 118 101 222 C101 325 175 408 278 408 C380 408 454 325 454 222 C454 118 380 36 278 36 L278 36 Z " />
<glyph glyph-name="oacute" unicode="&#xf3;" horiz-adv-x="555" d="M302 563 L392 658 L338 668 L211 521 L233 521 C251 521 266 525 302 563 L302 563 Z M278 -10 C412 -10 508 93 508 222 C508 350 412 453 278 453 C142 453 47 350 47 222 C47 93 142 -10 278 -10 L278 -10 Z M278 36 C175 36 101 118 101 222 C101 325 175 408 278 408 C380 408 454 325 454 222 C454 118 380 36 278 36 L278 36 Z " />
<glyph glyph-name="ocircumflex" unicode="&#xf4;" horiz-adv-x="555" d="M300 628 L254 628 L151 522 L186 522 C202 522 209 527 220 537 L277 592 L334 537 C345 526 352 522 368 522 L403 522 L300 628 Z M278 -10 C412 -10 508 93 508 222 C508 350 412 453 278 453 C142 453 47 350 47 222 C47 93 142 -10 278 -10 L278 -10 Z M278 36 C175 36 101 118 101 222 C101 325 175 408 278 408 C380 408 454 325 454 222 C454 118 380 36 278 36 L278 36 Z " />
<glyph glyph-name="otilde" unicode="&#xf5;" horiz-adv-x="555" d="M332 531 C378 531 402 568 411 590 L377 608 C368 587 355 570 331 570 C292 570 269 610 223 610 C180 610 160 579 146 556 L179 536 C188 554 202 572 228 572 C265 572 284 531 332 531 L332 531 Z M278 -10 C412 -10 508 93 508 222 C508 350 412 453 278 453 C142 453 47 350 47 222 C47 93 142 -10 278 -10 L278 -10 Z M278 36 C175 36 101 118 101 222 C101 325 175 408 278 408 C380 408 454 325 454 222 C454 118 380 36 278 36 L278 36 Z " />
<glyph glyph-name="odieresis" unicode="&#xf6;" horiz-adv-x="555" d="M185 612 C164 612 148 596 148 575 C148 553 164 537 185 537 C206 537 223 553 223 575 C223 596 206 612 185 612 L185 612 Z M371 612 C350 612 334 596 334 575 C334 553 350 537 371 537 C392 537 409 553 409 575 C409 596 392 612 371 612 L371 612 Z M278 -10 C412 -10 508 93 508 222 C508 350 412 453 278 453 C142 453 47 350 47 222 C47 93 142 -10 278 -10 L278 -10 Z M278 36 C175 36 101 118 101 222 C101 325 175 408 278 408 C380 408 454 325 454 222 C454 118 380 36 278 36 L278 36 Z " />
<glyph glyph-name="divide" unicode="&#xf7;" horiz-adv-x="501" d="M261 357 C282 357 299 374 299 395 C299 416 282 433 261 433 C240 433 222 416 222 395 C222 374 240 357 261 357 L261 357 Z M55 231 L446 231 L446 276 L55 276 L55 231 Z M261 75 C282 75 299 92 299 113 C299 134 282 151 261 151 C240 151 222 134 222 113 C222 92 240 75 261 75 L261 75 Z " />
<glyph glyph-name="oslash" unicode="&#xf8;" horiz-adv-x="555" d="M445 384 L499 444 L477 464 L423 404 C385 435 335 453 278 453 C141 453 47 350 47 222 C47 158 70 100 111 58 L57 -2 L79 -21 L133 38 C171 8 221 -10 278 -10 C414 -10 508 93 508 222 C508 285 485 343 445 384 L445 384 Z M100 222 C100 326 173 408 278 408 C322 408 361 393 390 368 L145 95 C116 128 100 172 100 222 L100 222 Z M278 36 C234 36 195 50 166 75 L411 347 C438 314 454 270 454 222 C454 117 382 36 278 36 L278 36 Z " />
<glyph glyph-name="ugrave" unicode="&#xf9;" horiz-adv-x="498" d="M241 563 C278 525 292 521 310 521 L333 521 L205 668 L152 658 L241 563 Z M249 -12 C334 -12 431 31 431 181 L431 441 L379 441 L379 181 C379 89 332 33 249 33 C166 33 119 89 119 181 L119 441 L67 441 L67 181 C67 31 164 -12 249 -12 L249 -12 Z " />
<glyph glyph-name="uacute" unicode="&#xfa;" horiz-adv-x="498" d="M274 563 L364 658 L310 668 L183 521 L205 521 C223 521 238 525 274 563 L274 563 Z M249 -12 C334 -12 431 31 431 181 L431 441 L379 441 L379 181 C379 89 332 33 249 33 C166 33 119 89 119 181 L119 441 L67 441 L67 181 C67 31 164 -12 249 -12 L249 -12 Z " />
<glyph glyph-name="ucircumflex" unicode="&#xfb;" horiz-adv-x="498" d="M271 628 L225 628 L122 522 L157 522 C173 522 180 527 191 537 L248 592 L305 537 C316 526 323 522 339 522 L374 522 L271 628 Z M249 -12 C334 -12 431 31 431 181 L431 441 L379 441 L379 181 C379 89 332 33 249 33 C166 33 119 89 119 181 L119 441 L67 441 L67 181 C67 31 164 -12 249 -12 L249 -12 Z " />
<glyph glyph-name="udieresis" unicode="&#xfc;" horiz-adv-x="498" d="M156 612 C135 612 119 596 119 575 C119 553 135 537 156 537 C177 537 194 553 194 575 C194 596 177 612 156 612 L156 612 Z M342 612 C321 612 305 596 305 575 C305 553 321 537 342 537 C363 537 380 553 380 575 C380 596 363 612 342 612 L342 612 Z M249 -12 C334 -12 431 31 431 181 L431 441 L379 441 L379 181 C379 89 332 33 249 33 C166 33 119 89 119 181 L119 441 L67 441 L67 181 C67 31 164 -12 249 -12 L249 -12 Z " />
<glyph glyph-name="yacute" unicode="&#xfd;" horiz-adv-x="462" d="M255 563 L345 658 L291 668 L164 521 L186 521 C204 521 219 525 255 563 L255 563 Z M387 441 L230 70 L75 441 L19 441 L205 10 L108 -210 L162 -210 L443 441 L387 441 Z " />
<glyph glyph-name="thorn" unicode="&#xfe;" horiz-adv-x="551" d="M295 453 C218 453 158 415 123 354 L123 680 L71 680 L71 -190 L123 -190 L123 89 C158 29 218 -9 295 -9 C412 -9 504 83 504 222 C504 361 412 453 295 453 L295 453 Z M284 36 C186 36 116 116 116 222 C116 327 186 408 285 408 C382 408 450 327 450 222 C450 117 382 36 284 36 L284 36 Z " />
<glyph glyph-name="ydieresis" unicode="&#xff;" horiz-adv-x="462" d="M138 537 C159 537 176 553 176 575 C176 596 159 612 138 612 C117 612 101 596 101 575 C101 553 117 537 138 537 L138 537 Z M324 537 C345 537 362 553 362 575 C362 596 345 612 324 612 C303 612 287 596 287 575 C287 553 303 537 324 537 L324 537 Z M387 441 L230 70 L75 441 L19 441 L205 10 L108 -210 L162 -210 L443 441 L387 441 Z " />
<glyph glyph-name="Amacron" unicode="&#x100;" horiz-adv-x="624" d="M426 762 L196 762 L196 726 L426 726 L426 762 Z M535 0 L593 0 L339 640 L285 640 L30 0 L89 0 L167 202 L457 203 L535 0 Z M184 247 L312 578 L439 247 L184 247 Z " />
<glyph glyph-name="amacron" unicode="&#x101;" horiz-adv-x="551" d="M391 593 L161 593 L161 557 L391 557 L391 593 Z M437 441 L429 352 C394 414 334 453 256 453 C139 453 47 361 47 222 C47 83 139 -9 256 -9 C334 -9 394 30 429 91 L437 0 L480 0 L480 441 L437 441 Z M267 36 C169 36 100 117 100 222 C100 327 169 408 266 408 C365 408 434 327 434 222 C434 116 365 36 267 36 L267 36 Z " />
<glyph glyph-name="Abreve" unicode="&#x102;" horiz-adv-x="624" d="M311 690 C387 690 433 733 436 793 L399 793 C395 760 367 726 311 726 C255 726 229 759 226 793 L187 793 C190 733 237 690 311 690 L311 690 Z M535 0 L593 0 L339 640 L285 640 L30 0 L89 0 L167 202 L457 203 L535 0 Z M184 247 L312 578 L439 247 L184 247 Z " />
<glyph glyph-name="abreve" unicode="&#x103;" horiz-adv-x="551" d="M276 521 C352 521 398 564 401 624 L364 624 C360 591 332 557 276 557 C220 557 194 590 191 624 L152 624 C155 564 202 521 276 521 L276 521 Z M437 441 L429 352 C394 414 334 453 256 453 C139 453 47 361 47 222 C47 83 139 -9 256 -9 C334 -9 394 30 429 91 L437 0 L480 0 L480 441 L437 441 Z M267 36 C169 36 100 117 100 222 C100 327 169 408 266 408 C365 408 434 327 434 222 C434 116 365 36 267 36 L267 36 Z " />
<glyph glyph-name="Aogonek" unicode="&#x104;" horiz-adv-x="624" d="M563 -12 L583 0 L593 0 L339 640 L285 640 L30 0 L89 0 L167 202 L457 203 L535 0 C475 -37 448 -87 468 -130 C488 -172 551 -179 593 -151 L583 -121 C496 -160 464 -71 563 -12 L563 -12 Z M184 247 L312 578 L439 247 L184 247 Z " />
<glyph glyph-name="aogonek" unicode="&#x105;" horiz-adv-x="551" d="M479 -121 C392 -160 360 -71 459 -12 L479 0 L480 0 L480 441 L437 441 L429 352 C394 414 334 453 256 453 C139 453 47 361 47 222 C47 83 139 -9 256 -9 C334 -9 394 30 429 91 L437 3 C373 -34 343 -86 364 -130 C384 -172 447 -179 489 -151 L479 -121 Z M267 36 C169 36 100 117 100 222 C100 327 169 408 266 408 C365 408 434 327 434 222 C434 116 365 36 267 36 L267 36 Z " />
<glyph glyph-name="Cacute" unicode="&#x106;" horiz-adv-x="625" d="M394 732 L484 827 L430 837 L303 690 L325 690 C343 690 358 694 394 732 L394 732 Z M387 -11 C459 -11 523 8 576 44 L547 87 C505 56 450 37 387 37 C223 37 115 167 115 321 C115 475 223 604 387 604 C450 604 505 586 547 555 L576 598 C523 634 459 653 387 653 C194 653 58 506 58 321 C58 135 194 -11 387 -11 L387 -11 Z " />
<glyph glyph-name="cacute" unicode="&#x107;" horiz-adv-x="453" d="M285 563 L375 658 L321 668 L194 521 L216 521 C234 521 249 525 285 563 L285 563 Z M272 -10 C329 -10 378 9 416 40 L385 77 C356 51 317 35 272 35 C165 35 100 117 100 222 C100 327 165 409 272 409 C317 409 356 393 385 367 L416 404 C378 435 329 453 272 453 C136 453 47 350 47 222 C47 94 136 -10 272 -10 L272 -10 Z " />
<glyph glyph-name="Ccircumflex" unicode="&#x108;" horiz-adv-x="625" d="M312 706 L369 761 L426 706 C437 695 444 691 460 691 L495 691 L392 797 L346 797 L243 691 L278 691 C294 691 301 696 312 706 L312 706 Z M387 37 C223 37 115 167 115 321 C115 475 223 604 387 604 C450 604 505 586 547 555 L576 598 C523 634 459 653 387 653 C194 653 58 506 58 321 C58 135 194 -11 387 -11 C459 -11 523 8 576 44 L547 87 C505 56 450 37 387 37 L387 37 Z " />
<glyph glyph-name="ccircumflex" unicode="&#x109;" horiz-adv-x="453" d="M283 628 L237 628 L134 522 L169 522 C185 522 192 527 203 537 L260 592 L317 537 C328 526 335 522 351 522 L386 522 L283 628 Z M272 -10 C329 -10 378 9 416 40 L385 77 C356 51 317 35 272 35 C165 35 100 117 100 222 C100 327 165 409 272 409 C317 409 356 393 385 367 L416 404 C378 435 329 453 272 453 C136 453 47 350 47 222 C47 94 136 -10 272 -10 L272 -10 Z " />
<glyph glyph-name="Cdotaccent" unicode="&#x10a;" horiz-adv-x="625" d="M370 710 C393 710 411 729 411 752 C411 775 393 793 370 793 C347 793 328 775 328 752 C328 729 347 710 370 710 L370 710 Z M387 -11 C459 -11 523 8 576 44 L547 87 C505 56 450 37 387 37 C223 37 115 167 115 321 C115 475 223 604 387 604 C450 604 505 586 547 555 L576 598 C523 634 459 653 387 653 C194 653 58 506 58 321 C58 135 194 -11 387 -11 L387 -11 Z " />
<glyph glyph-name="cdotaccent" unicode="&#x10b;" horiz-adv-x="453" d="M260 541 C283 541 301 560 301 583 C301 606 283 624 260 624 C237 624 218 606 218 583 C218 560 237 541 260 541 L260 541 Z M272 -10 C329 -10 378 9 416 40 L385 77 C356 51 317 35 272 35 C165 35 100 117 100 222 C100 327 165 409 272 409 C317 409 356 393 385 367 L416 404 C378 435 329 453 272 453 C136 453 47 350 47 222 C47 94 136 -10 272 -10 L272 -10 Z " />
<glyph glyph-name="Ccaron" unicode="&#x10c;" horiz-adv-x="625" d="M394 691 L496 797 L462 797 C446 797 438 792 428 782 L370 727 L313 782 C302 793 295 797 279 797 L245 797 L347 691 L394 691 Z M387 37 C223 37 115 167 115 321 C115 475 223 604 387 604 C450 604 505 586 547 555 L576 598 C523 634 459 653 387 653 C194 653 58 506 58 321 C58 135 194 -11 387 -11 C459 -11 523 8 576 44 L547 87 C505 56 450 37 387 37 L387 37 Z " />
<glyph glyph-name="ccaron" unicode="&#x10d;" horiz-adv-x="453" d="M237 523 L284 523 L386 629 L352 629 C336 629 328 624 318 614 L260 559 L203 614 C192 625 185 629 169 629 L135 629 L237 523 Z M272 -10 C329 -10 378 9 416 40 L385 77 C356 51 317 35 272 35 C165 35 100 117 100 222 C100 327 165 409 272 409 C317 409 356 393 385 367 L416 404 C378 435 329 453 272 453 C136 453 47 350 47 222 C47 94 136 -10 272 -10 L272 -10 Z " />
<glyph glyph-name="Dcaron" unicode="&#x10e;" horiz-adv-x="642" d="M314 691 L416 797 L382 797 C366 797 358 792 348 782 L290 727 L233 782 C222 793 215 797 199 797 L165 797 L267 691 L314 691 Z M237 640 L98 640 L98 0 L237 0 C466 0 583 143 583 321 C583 498 466 640 237 640 L237 640 Z M229 44 L152 44 L152 596 L229 596 C412 596 527 497 527 321 C527 143 412 44 229 44 L229 44 Z " />
<glyph glyph-name="dcaron" unicode="&#x10f;" horiz-adv-x="582" d="M427 356 C392 415 332 453 256 453 C139 453 47 361 47 222 C47 83 139 -9 256 -9 C334 -9 395 30 429 91 L436 0 L479 0 L479 680 L427 680 L427 356 Z M616 678 C596 678 584 664 584 647 C584 625 607 614 624 622 C625 601 611 571 575 553 L583 533 C633 552 652 593 653 625 C655 653 641 678 616 678 L616 678 Z M267 36 C169 36 100 117 100 222 C100 327 169 408 266 408 C365 408 434 327 434 222 C434 116 365 36 267 36 L267 36 Z " />
<glyph glyph-name="Dcroat" unicode="&#x110;" horiz-adv-x="642" d="M237 640 L98 640 L98 340 L28 340 L28 304 L98 304 L98 0 L237 0 C466 0 583 143 583 321 C583 498 466 640 237 640 L237 640 Z M229 44 L152 44 L152 304 L275 304 L275 340 L152 340 L152 596 L229 596 C412 596 527 497 527 321 C527 143 412 44 229 44 L229 44 Z " />
<glyph glyph-name="dcroat" unicode="&#x111;" horiz-adv-x="550" d="M549 564 L479 564 L479 680 L427 680 L427 564 L302 564 L302 528 L427 528 L427 356 C392 415 332 453 256 453 C139 453 47 361 47 222 C47 83 139 -9 256 -9 C334 -9 395 30 429 91 L436 0 L479 0 L479 528 L549 528 L549 564 Z M267 36 C169 36 100 117 100 222 C100 327 169 408 266 408 C365 408 434 327 434 222 C434 116 365 36 267 36 L267 36 Z " />
<glyph glyph-name="Emacron" unicode="&#x112;" horiz-adv-x="521" d="M387 762 L157 762 L157 726 L387 726 L387 762 Z M453 593 L453 640 L98 640 L98 0 L453 0 L453 47 L152 47 L152 298 L403 298 L403 343 L152 343 L152 593 L453 593 Z " />
<glyph glyph-name="emacron" unicode="&#x113;" horiz-adv-x="517" d="M379 593 L149 593 L149 557 L379 557 L379 593 Z M471 243 C471 359 388 453 264 453 C137 453 47 351 47 225 C47 95 135 -9 274 -9 C347 -9 411 20 449 64 L412 94 C381 58 334 36 274 36 C166 36 102 117 101 221 L471 221 L471 243 Z M264 408 C352 408 412 347 419 260 L104 260 C117 346 178 408 264 408 L264 408 Z " />
<glyph glyph-name="Ebreve" unicode="&#x114;" horiz-adv-x="521" d="M272 690 C348 690 394 733 397 793 L360 793 C356 760 328 726 272 726 C216 726 190 759 187 793 L148 793 C151 733 198 690 272 690 L272 690 Z M453 593 L453 640 L98 640 L98 0 L453 0 L453 47 L152 47 L152 298 L403 298 L403 343 L152 343 L152 593 L453 593 Z " />
<glyph glyph-name="ebreve" unicode="&#x115;" horiz-adv-x="517" d="M264 521 C340 521 386 564 389 624 L352 624 C348 591 320 557 264 557 C208 557 182 590 179 624 L140 624 C143 564 190 521 264 521 L264 521 Z M471 243 C471 359 388 453 264 453 C137 453 47 351 47 225 C47 95 135 -9 274 -9 C347 -9 411 20 449 64 L412 94 C381 58 334 36 274 36 C166 36 102 117 101 221 L471 221 L471 243 Z M264 408 C352 408 412 347 419 260 L104 260 C117 346 178 408 264 408 L264 408 Z " />
<glyph glyph-name="Edotaccent" unicode="&#x116;" horiz-adv-x="521" d="M273 710 C296 710 314 729 314 752 C314 775 296 793 273 793 C250 793 231 775 231 752 C231 729 250 710 273 710 L273 710 Z M453 593 L453 640 L98 640 L98 0 L453 0 L453 47 L152 47 L152 298 L403 298 L403 343 L152 343 L152 593 L453 593 Z " />
<glyph glyph-name="edotaccent" unicode="&#x117;" horiz-adv-x="517" d="M265 541 C288 541 306 560 306 583 C306 606 288 624 265 624 C242 624 223 606 223 583 C223 560 242 541 265 541 L265 541 Z M471 243 C471 359 388 453 264 453 C137 453 47 351 47 225 C47 95 135 -9 274 -9 C347 -9 411 20 449 64 L412 94 C381 58 334 36 274 36 C166 36 102 117 101 221 L471 221 L471 243 Z M264 408 C352 408 412 347 419 260 L104 260 C117 346 178 408 264 408 L264 408 Z " />
<glyph glyph-name="Eogonek" unicode="&#x118;" horiz-adv-x="521" d="M453 -121 C366 -160 334 -71 433 -12 L453 0 L453 47 L152 47 L152 298 L403 298 L403 343 L152 343 L152 593 L453 593 L453 640 L98 640 L98 0 L405 0 C345 -37 318 -87 338 -130 C358 -172 421 -179 463 -151 L453 -121 Z " />
<glyph glyph-name="eogonek" unicode="&#x119;" horiz-adv-x="517" d="M471 243 C471 359 388 453 264 453 C137 453 47 351 47 225 C47 95 135 -9 274 -9 L279 -9 C229 -45 208 -91 226 -130 C246 -172 309 -179 351 -151 L341 -121 C254 -160 222 -71 321 -12 L340 -1 C385 11 423 34 449 64 L412 94 C381 58 334 36 274 36 C166 36 102 117 101 221 L471 221 L471 243 Z M264 408 C352 408 412 347 419 260 L104 260 C117 346 178 408 264 408 L264 408 Z " />
<glyph glyph-name="Ecaron" unicode="&#x11a;" horiz-adv-x="521" d="M297 691 L399 797 L365 797 C349 797 341 792 331 782 L274 727 L216 782 C205 793 198 797 182 797 L148 797 L250 691 L297 691 Z M453 593 L453 640 L98 640 L98 0 L453 0 L453 47 L152 47 L152 298 L403 298 L403 343 L152 343 L152 593 L453 593 Z " />
<glyph glyph-name="ecaron" unicode="&#x11b;" horiz-adv-x="517" d="M289 523 L391 629 L357 629 C341 629 333 624 323 614 L265 559 L208 614 C197 625 190 629 174 629 L140 629 L242 523 L289 523 Z M471 243 C471 359 388 453 264 453 C137 453 47 351 47 225 C47 95 135 -9 274 -9 C347 -9 411 20 449 64 L412 94 C381 58 334 36 274 36 C166 36 102 117 101 221 L471 221 L471 243 Z M264 408 C352 408 412 347 419 260 L104 260 C117 346 178 408 264 408 L264 408 Z " />
<glyph glyph-name="Gcircumflex" unicode="&#x11c;" horiz-adv-x="733" d="M318 706 L375 761 L432 706 C443 695 450 691 466 691 L501 691 L398 797 L352 797 L249 691 L284 691 C300 691 307 696 318 706 L318 706 Z M425 334 L425 288 L624 288 C626 138 529 39 385 39 C219 39 115 168 115 323 C115 477 219 604 390 604 C478 604 536 571 556 554 L587 597 C556 621 482 653 390 653 C189 653 58 507 58 323 C58 138 187 -10 385 -10 C583 -10 681 139 681 294 L681 334 L425 334 Z " />
<glyph glyph-name="gcircumflex" unicode="&#x11d;" horiz-adv-x="551" d="M227 537 L284 592 L341 537 C352 526 359 522 375 522 L410 522 L307 628 L261 628 L158 522 L193 522 C209 522 216 527 227 537 L227 537 Z M437 441 L430 351 C395 413 334 453 256 453 C139 453 47 361 47 222 C47 83 139 -9 256 -9 C333 -9 393 29 428 89 L428 29 C428 -98 382 -165 272 -165 C246 -165 224 -161 201 -152 L189 -198 C213 -205 243 -210 273 -210 C415 -210 480 -129 480 31 L480 441 L437 441 Z M267 36 C169 36 100 117 100 222 C100 327 169 408 266 408 C365 408 434 327 434 222 C434 116 365 36 267 36 L267 36 Z " />
<glyph glyph-name="Gbreve" unicode="&#x11e;" horiz-adv-x="733" d="M375 690 C451 690 497 733 500 793 L463 793 C459 760 431 726 375 726 C319 726 293 759 290 793 L251 793 C254 733 301 690 375 690 L375 690 Z M425 334 L425 288 L624 288 C626 138 529 39 385 39 C219 39 115 168 115 323 C115 477 219 604 390 604 C478 604 536 571 556 554 L587 597 C556 621 482 653 390 653 C189 653 58 507 58 323 C58 138 187 -10 385 -10 C583 -10 681 139 681 294 L681 334 L425 334 Z " />
<glyph glyph-name="gbreve" unicode="&#x11f;" horiz-adv-x="551" d="M284 521 C360 521 406 564 409 624 L372 624 C368 591 340 557 284 557 C228 557 202 590 199 624 L160 624 C163 564 210 521 284 521 L284 521 Z M437 441 L430 351 C395 413 334 453 256 453 C139 453 47 361 47 222 C47 83 139 -9 256 -9 C333 -9 393 29 428 89 L428 29 C428 -98 382 -165 272 -165 C246 -165 224 -161 201 -152 L189 -198 C213 -205 243 -210 273 -210 C415 -210 480 -129 480 31 L480 441 L437 441 Z M267 36 C169 36 100 117 100 222 C100 327 169 408 266 408 C365 408 434 327 434 222 C434 116 365 36 267 36 L267 36 Z " />
<glyph glyph-name="Gdotaccent" unicode="&#x120;" horiz-adv-x="733" d="M376 710 C399 710 417 729 417 752 C417 775 399 793 376 793 C353 793 334 775 334 752 C334 729 353 710 376 710 L376 710 Z M425 334 L425 288 L624 288 C626 138 529 39 385 39 C219 39 115 168 115 323 C115 477 219 604 390 604 C478 604 536 571 556 554 L587 597 C556 621 482 653 390 653 C189 653 58 507 58 323 C58 138 187 -10 385 -10 C583 -10 681 139 681 294 L681 334 L425 334 Z " />
<glyph glyph-name="gdotaccent" unicode="&#x121;" horiz-adv-x="551" d="M285 541 C308 541 326 560 326 583 C326 606 308 624 285 624 C262 624 243 606 243 583 C243 560 262 541 285 541 L285 541 Z M437 441 L430 351 C395 413 334 453 256 453 C139 453 47 361 47 222 C47 83 139 -9 256 -9 C333 -9 393 29 428 89 L428 29 C428 -98 382 -165 272 -165 C246 -165 224 -161 201 -152 L189 -198 C213 -205 243 -210 273 -210 C415 -210 480 -129 480 31 L480 441 L437 441 Z M267 36 C169 36 100 117 100 222 C100 327 169 408 266 408 C365 408 434 327 434 222 C434 116 365 36 267 36 L267 36 Z " />
<glyph glyph-name="uni0122" unicode="&#x122;" horiz-adv-x="733" d="M425 334 L425 288 L624 288 C626 138 529 39 385 39 C219 39 115 168 115 323 C115 477 219 604 390 604 C478 604 536 571 556 554 L587 597 C556 621 482 653 390 653 C189 653 58 507 58 323 C58 138 187 -10 385 -10 C583 -10 681 139 681 294 L681 334 L425 334 Z M373 -61 C353 -61 342 -75 342 -93 C342 -115 364 -125 381 -118 C382 -138 368 -168 332 -186 L341 -206 C390 -187 409 -146 411 -114 C412 -86 398 -61 373 -61 L373 -61 Z " />
<glyph glyph-name="uni0123" unicode="&#x123;" horiz-adv-x="551" d="M279 539 C301 539 314 554 314 574 C314 598 289 609 270 601 C270 624 285 658 325 678 L315 700 C260 679 239 633 238 597 C236 566 252 539 279 539 L279 539 Z M437 441 L430 351 C395 413 334 453 256 453 C139 453 47 361 47 222 C47 83 139 -9 256 -9 C333 -9 393 29 428 89 L428 29 C428 -98 382 -165 272 -165 C246 -165 224 -161 201 -152 L189 -198 C213 -205 243 -210 273 -210 C415 -210 480 -129 480 31 L480 441 L437 441 Z M267 36 C169 36 100 117 100 222 C100 327 169 408 266 408 C365 408 434 327 434 222 C434 116 365 36 267 36 L267 36 Z " />
<glyph glyph-name="Hcircumflex" unicode="&#x124;" horiz-adv-x="683" d="M284 706 L341 761 L398 706 C409 695 416 691 432 691 L467 691 L364 797 L318 797 L215 691 L250 691 C266 691 273 696 284 706 L284 706 Z M530 640 L530 356 L152 356 L152 640 L98 640 L98 0 L152 0 L152 311 L530 311 L530 0 L584 0 L584 640 L530 640 Z " />
<glyph glyph-name="hcircumflex" unicode="&#x125;" horiz-adv-x="500" d="M155 725 C166 715 173 710 189 710 L223 710 L121 817 L74 817 L-28 710 L6 710 C22 710 30 715 40 725 L98 781 L155 725 Z M268 453 C200 453 149 418 123 367 L123 680 L71 680 L71 0 L123 0 L123 282 C134 367 192 408 258 408 C336 408 383 355 383 256 L383 0 L435 0 L435 265 C435 411 346 453 268 453 L268 453 Z " />
<glyph glyph-name="Hbar" unicode="&#x126;" horiz-adv-x="683" d="M530 640 L530 508 L152 508 L152 640 L98 640 L98 0 L152 0 L152 311 L530 311 L530 0 L584 0 L584 640 L530 640 Z M152 356 L152 472 L530 472 L530 356 L152 356 Z " />
<glyph glyph-name="hbar" unicode="&#x127;" horiz-adv-x="502" d="M268 453 C200 453 149 418 123 367 L123 528 L247 528 L247 564 L123 564 L123 680 L71 680 L71 564 L0 564 L0 528 L71 528 L71 0 L123 0 L123 282 C134 367 192 408 258 408 C336 408 383 355 383 256 L383 0 L435 0 L435 265 C435 411 346 453 268 453 L268 453 Z " />
<glyph glyph-name="Itilde" unicode="&#x128;" horiz-adv-x="271" d="M189 700 C235 700 259 737 268 759 L234 777 C225 756 212 739 188 739 C149 739 126 779 80 779 C37 779 17 748 3 725 L36 705 C45 723 59 741 85 741 C122 741 141 700 189 700 L189 700 Z M162 640 L108 640 L108 0 L162 0 L162 640 Z " />
<glyph glyph-name="itilde" unicode="&#x129;" horiz-adv-x="221" d="M162 531 C208 531 232 568 241 590 L207 608 C198 587 185 570 161 570 C122 570 99 610 53 610 C10 610 -10 579 -24 556 L9 536 C18 554 32 572 58 572 C95 572 114 531 162 531 L162 531 Z M83 0 L135 0 L135 441 L83 441 L83 0 Z " />
<glyph glyph-name="Imacron" unicode="&#x12a;" horiz-adv-x="271" d="M20 726 L250 726 L250 762 L20 762 L20 726 Z M162 640 L108 640 L108 0 L162 0 L162 640 Z " />
<glyph glyph-name="imacron" unicode="&#x12b;" horiz-adv-x="221" d="M-6 557 L224 557 L224 593 L-6 593 L-6 557 Z M83 0 L135 0 L135 441 L83 441 L83 0 Z " />
<glyph glyph-name="Ibreve" unicode="&#x12c;" horiz-adv-x="271" d="M135 690 C211 690 257 733 260 793 L223 793 C219 760 191 726 135 726 C79 726 53 759 50 793 L11 793 C14 733 61 690 135 690 L135 690 Z M162 640 L108 640 L108 0 L162 0 L162 640 Z " />
<glyph glyph-name="ibreve" unicode="&#x12d;" horiz-adv-x="221" d="M108 521 C184 521 230 564 233 624 L196 624 C192 591 164 557 108 557 C52 557 26 590 23 624 L-16 624 C-13 564 34 521 108 521 L108 521 Z M83 0 L135 0 L135 441 L83 441 L83 0 Z " />
<glyph glyph-name="Iogonek" unicode="&#x12e;" horiz-adv-x="271" d="M163 -121 C76 -160 44 -71 143 -12 L163 0 L162 0 L162 640 L108 640 L108 0 L115 0 C55 -37 28 -87 48 -130 C68 -172 131 -179 173 -151 L163 -121 Z " />
<glyph glyph-name="iogonek" unicode="&#x12f;" horiz-adv-x="221" d="M109 541 C132 541 150 560 150 583 C150 606 132 624 109 624 C86 624 67 606 67 583 C67 560 86 541 109 541 L109 541 Z M113 -12 L133 0 L135 0 L135 441 L83 441 L83 0 L85 0 C25 -37 -2 -87 18 -130 C38 -172 101 -179 143 -151 L133 -121 C46 -160 14 -71 113 -12 L113 -12 Z " />
<glyph glyph-name="Idotaccent" unicode="&#x130;" horiz-adv-x="271" d="M135 710 C158 710 176 729 176 752 C176 775 158 793 135 793 C112 793 93 775 93 752 C93 729 112 710 135 710 L135 710 Z M162 640 L108 640 L108 0 L162 0 L162 640 Z " />
<glyph glyph-name="dotlessi" unicode="&#x131;" horiz-adv-x="221" d="M83 0 L135 0 L135 441 L83 441 L83 0 Z " />
<glyph glyph-name="ij" unicode="&#x133;" horiz-adv-x="467" d="M109 546 C132 546 151 565 151 587 C151 610 132 629 109 629 C86 629 67 610 67 587 C67 565 86 546 109 546 L109 546 Z M355 546 C378 546 397 565 397 588 C397 611 378 629 355 629 C332 629 313 611 313 588 C313 565 332 546 355 546 L355 546 Z M83 0 L135 0 L135 441 L83 441 L83 0 Z M381 -62 L381 441 L329 441 L329 -62 C329 -135 302 -173 218 -164 L218 -208 C295 -219 381 -198 381 -62 L381 -62 Z " />
<glyph glyph-name="Jcircumflex" unicode="&#x134;" horiz-adv-x="408" d="M321 787 L275 787 L172 681 L207 681 C223 681 230 686 241 696 L298 751 L355 696 C366 685 373 681 389 681 L424 681 L321 787 Z M170 -10 C257 -10 325 44 325 170 L325 640 L271 640 L271 165 C271 84 233 39 169 39 C129 39 99 53 70 90 L38 47 C72 13 112 -10 170 -10 L170 -10 Z " />
<glyph glyph-name="jcircumflex" unicode="&#x135;" horiz-adv-x="246" d="M156 622 L110 622 L7 516 L42 516 C58 516 65 521 76 531 L133 586 L190 531 C201 520 208 516 224 516 L259 516 L156 622 Z M160 -62 L160 441 L108 441 L108 -62 C108 -135 81 -173 -3 -164 L-3 -208 C74 -219 160 -198 160 -62 L160 -62 Z " />
<glyph glyph-name="uni0136" unicode="&#x136;" horiz-adv-x="595" d="M209 340 L532 640 L460 640 L152 354 L152 640 L98 640 L98 0 L152 0 L152 325 L472 0 L547 0 L209 340 Z M294 -61 C274 -61 263 -75 263 -93 C263 -115 285 -125 302 -118 C303 -138 289 -168 253 -186 L262 -206 C311 -187 330 -146 332 -114 C333 -86 319 -61 294 -61 L294 -61 Z " />
<glyph glyph-name="uni0137" unicode="&#x137;" horiz-adv-x="448" d="M178 242 L409 441 L338 441 L123 256 L123 680 L71 680 L71 0 L123 0 L123 227 L365 0 L437 0 L178 242 Z M234 -61 C214 -61 203 -75 203 -93 C203 -115 225 -125 242 -118 C243 -138 229 -168 193 -186 L202 -206 C251 -187 270 -146 272 -114 C273 -86 259 -61 234 -61 L234 -61 Z " />
<glyph glyph-name="kgreenlandic" unicode="&#x138;" horiz-adv-x="462" d="M440 0 L175 244 L412 446 L344 446 L123 258 L123 446 L71 446 L71 0 L123 0 L123 229 L370 0 L440 0 Z " />
<glyph glyph-name="Lacute" unicode="&#x139;" horiz-adv-x="462" d="M161 732 L251 827 L197 837 L70 690 L92 690 C110 690 125 694 161 732 L161 732 Z M152 47 L152 640 L98 640 L98 0 L424 0 L424 47 L152 47 Z " />
<glyph glyph-name="lacute" unicode="&#x13a;" horiz-adv-x="202" d="M126 773 L216 868 L163 878 L35 731 L57 731 C75 731 90 735 126 773 L126 773 Z M75 0 L127 0 L127 680 L75 680 L75 0 Z " />
<glyph glyph-name="uni013B" unicode="&#x13b;" horiz-adv-x="462" d="M152 47 L152 640 L98 640 L98 0 L424 0 L424 47 L152 47 Z M238 -61 C218 -61 207 -75 207 -93 C207 -115 229 -125 246 -118 C247 -138 233 -168 197 -186 L206 -206 C255 -187 274 -146 276 -114 C277 -86 263 -61 238 -61 L238 -61 Z " />
<glyph glyph-name="uni013C" unicode="&#x13c;" horiz-adv-x="202" d="M75 0 L127 0 L127 680 L75 680 L75 0 Z M66 -206 C115 -187 134 -146 136 -114 C137 -86 123 -61 98 -61 C78 -61 67 -75 67 -93 C67 -115 89 -125 106 -118 C107 -138 93 -168 57 -186 L66 -206 Z " />
<glyph glyph-name="Lcaron" unicode="&#x13d;" horiz-adv-x="462" d="M152 47 L152 640 L98 640 L98 0 L424 0 L424 47 L152 47 Z M278 512 L286 492 C336 511 355 552 356 584 C358 612 344 637 319 637 C299 637 287 623 287 606 C287 584 310 573 327 581 C328 560 314 530 278 512 L278 512 Z " />
<glyph glyph-name="lcaron" unicode="&#x13e;" horiz-adv-x="202" d="M75 0 L127 0 L127 680 L75 680 L75 0 Z M215 533 C265 552 284 593 285 625 C287 653 273 678 248 678 C228 678 216 664 216 647 C216 625 239 614 256 622 C257 601 243 571 207 553 L215 533 Z " />
<glyph glyph-name="Ldot" unicode="&#x13f;" horiz-adv-x="462" d="M152 47 L152 640 L98 640 L98 0 L424 0 L424 47 L152 47 Z M308 329 C331 329 350 347 350 370 C350 393 331 412 308 412 C286 412 267 393 267 370 C267 347 286 329 308 329 L308 329 Z " />
<glyph glyph-name="ldot" unicode="&#x140;" horiz-adv-x="317" d="M71 0 L123 0 L123 680 L71 680 L71 0 Z M229 299 C252 299 270 317 270 340 C270 363 252 382 229 382 C206 382 187 363 187 340 C187 317 206 299 229 299 L229 299 Z " />
<glyph glyph-name="Lslash" unicode="&#x141;" horiz-adv-x="475" d="M165 47 L165 319 L229 368 L229 414 L165 365 L165 640 L111 640 L111 323 L48 275 L48 229 L111 277 L111 0 L437 0 L437 47 L165 47 Z " />
<glyph glyph-name="lslash" unicode="&#x142;" horiz-adv-x="202" d="M192 433 L127 383 L127 680 L75 680 L75 343 L11 294 L11 247 L75 296 L75 0 L127 0 L127 336 L192 386 L192 433 Z " />
<glyph glyph-name="Nacute" unicode="&#x143;" horiz-adv-x="722" d="M385 732 L475 827 L421 837 L294 690 L316 690 C334 690 349 694 385 732 L385 732 Z M571 640 L571 89 L150 640 L98 640 L98 0 L151 0 L151 552 L572 0 L624 0 L624 640 L571 640 Z " />
<glyph glyph-name="nacute" unicode="&#x144;" horiz-adv-x="503" d="M279 563 L369 658 L315 668 L188 521 L210 521 C228 521 243 525 279 563 L279 563 Z M269 453 C199 453 147 416 122 362 L116 441 L71 441 L71 0 L123 0 L123 273 C131 364 190 408 259 408 C337 408 384 355 384 256 L384 0 L436 0 L436 265 C436 411 347 453 269 453 L269 453 Z " />
<glyph glyph-name="uni0145" unicode="&#x145;" horiz-adv-x="722" d="M571 640 L571 89 L150 640 L98 640 L98 0 L151 0 L151 552 L572 0 L624 0 L624 640 L571 640 Z M358 -61 C338 -61 327 -75 327 -93 C327 -115 349 -125 366 -118 C367 -138 353 -168 317 -186 L326 -206 C375 -187 394 -146 396 -114 C397 -86 383 -61 358 -61 L358 -61 Z " />
<glyph glyph-name="uni0146" unicode="&#x146;" horiz-adv-x="503" d="M269 453 C199 453 147 416 122 362 L116 441 L71 441 L71 0 L123 0 L123 273 C131 364 190 408 259 408 C337 408 384 355 384 256 L384 0 L436 0 L436 265 C436 411 347 453 269 453 L269 453 Z M252 -61 C232 -61 221 -75 221 -93 C221 -115 243 -125 260 -118 C261 -138 247 -168 211 -186 L220 -206 C269 -187 288 -146 290 -114 C291 -86 277 -61 252 -61 L252 -61 Z " />
<glyph glyph-name="Ncaron" unicode="&#x147;" horiz-adv-x="722" d="M385 691 L487 797 L453 797 C437 797 429 792 419 782 L361 727 L304 782 C293 793 286 797 270 797 L236 797 L338 691 L385 691 Z M571 640 L571 89 L150 640 L98 640 L98 0 L151 0 L151 552 L572 0 L624 0 L624 640 L571 640 Z " />
<glyph glyph-name="ncaron" unicode="&#x148;" horiz-adv-x="503" d="M279 523 L381 629 L347 629 C331 629 323 624 313 614 L255 559 L198 614 C187 625 180 629 164 629 L130 629 L232 523 L279 523 Z M269 453 C199 453 147 416 122 362 L116 441 L71 441 L71 0 L123 0 L123 273 C131 364 190 408 259 408 C337 408 384 355 384 256 L384 0 L436 0 L436 265 C436 411 347 453 269 453 L269 453 Z " />
<glyph glyph-name="napostrophe" unicode="&#x149;" horiz-adv-x="586" d="M97 653 C69 653 53 634 53 610 C53 579 84 565 108 575 C109 547 90 504 40 479 L51 452 C121 478 147 536 149 580 C150 619 131 653 97 653 L97 653 Z M352 453 C282 453 230 416 205 362 L199 441 L154 441 L154 0 L206 0 L206 273 C214 364 273 408 342 408 C420 408 467 355 467 256 L467 0 L519 0 L519 265 C519 411 430 453 352 453 L352 453 Z " />
<glyph glyph-name="Eng" unicode="&#x14a;" horiz-adv-x="722" d="M571 640 L571 89 L150 640 L98 640 L98 0 L151 0 L151 552 L557 19 L571 0 L571 -43 C570 -134 504 -143 454 -125 L447 -174 C524 -200 624 -181 624 -35 L624 640 L571 640 Z " />
<glyph glyph-name="eng" unicode="&#x14b;" horiz-adv-x="503" d="M269 453 C199 453 147 416 122 362 L116 441 L71 441 L71 0 L123 0 L123 273 C131 364 190 408 259 408 C337 408 384 355 384 256 L384 -54 C384 -101 368 -122 323 -116 L323 -158 C394 -172 436 -134 436 -50 L436 265 C436 411 347 453 269 453 L269 453 Z " />
<glyph glyph-name="Omacron" unicode="&#x14c;" horiz-adv-x="782" d="M276 726 L506 726 L506 762 L276 762 L276 726 Z M391 -10 C587 -10 724 137 724 322 C724 507 587 653 391 653 C195 653 58 507 58 322 C58 137 195 -10 391 -10 L391 -10 Z M391 39 C226 39 115 168 115 322 C115 477 226 604 391 604 C556 604 667 477 667 322 C667 168 556 39 391 39 L391 39 Z " />
<glyph glyph-name="omacron" unicode="&#x14d;" horiz-adv-x="555" d="M163 557 L393 557 L393 593 L163 593 L163 557 Z M278 -10 C412 -10 508 93 508 222 C508 350 412 453 278 453 C142 453 47 350 47 222 C47 93 142 -10 278 -10 L278 -10 Z M278 36 C175 36 101 118 101 222 C101 325 175 408 278 408 C380 408 454 325 454 222 C454 118 380 36 278 36 L278 36 Z " />
<glyph glyph-name="Obreve" unicode="&#x14e;" horiz-adv-x="782" d="M391 690 C467 690 513 733 516 793 L479 793 C475 760 447 726 391 726 C335 726 309 759 306 793 L267 793 C270 733 317 690 391 690 L391 690 Z M391 -10 C587 -10 724 137 724 322 C724 507 587 653 391 653 C195 653 58 507 58 322 C58 137 195 -10 391 -10 L391 -10 Z M391 39 C226 39 115 168 115 322 C115 477 226 604 391 604 C556 604 667 477 667 322 C667 168 556 39 391 39 L391 39 Z " />
<glyph glyph-name="obreve" unicode="&#x14f;" horiz-adv-x="555" d="M277 521 C353 521 399 564 402 624 L365 624 C361 591 333 557 277 557 C221 557 195 590 192 624 L153 624 C156 564 203 521 277 521 L277 521 Z M278 -10 C412 -10 508 93 508 222 C508 350 412 453 278 453 C142 453 47 350 47 222 C47 93 142 -10 278 -10 L278 -10 Z M278 36 C175 36 101 118 101 222 C101 325 175 408 278 408 C380 408 454 325 454 222 C454 118 380 36 278 36 L278 36 Z " />
<glyph glyph-name="Ohungarumlaut" unicode="&#x150;" horiz-adv-x="782" d="M354 732 L444 827 L391 837 L263 690 L285 690 C303 690 318 694 354 732 L354 732 Z M480 732 L570 827 L516 837 L389 690 L411 690 C429 690 444 694 480 732 L480 732 Z M391 -10 C587 -10 724 137 724 322 C724 507 587 653 391 653 C195 653 58 507 58 322 C58 137 195 -10 391 -10 L391 -10 Z M391 39 C226 39 115 168 115 322 C115 477 226 604 391 604 C556 604 667 477 667 322 C667 168 556 39 391 39 L391 39 Z " />
<glyph glyph-name="ohungarumlaut" unicode="&#x151;" horiz-adv-x="555" d="M241 563 L331 658 L278 668 L150 521 L172 521 C190 521 205 525 241 563 L241 563 Z M367 563 L457 658 L403 668 L276 521 L298 521 C316 521 331 525 367 563 L367 563 Z M278 -10 C412 -10 508 93 508 222 C508 350 412 453 278 453 C142 453 47 350 47 222 C47 93 142 -10 278 -10 L278 -10 Z M278 36 C175 36 101 118 101 222 C101 325 175 408 278 408 C380 408 454 325 454 222 C454 118 380 36 278 36 L278 36 Z " />
<glyph glyph-name="OE" unicode="&#x152;" horiz-adv-x="1102" d="M1033 593 L1033 640 L679 640 L679 494 C623 590 520 653 391 653 C195 653 58 507 58 322 C58 137 195 -10 391 -10 C520 -10 623 54 679 150 L679 0 L1033 0 L1033 47 L733 47 L733 298 L983 298 L983 343 L733 343 L733 593 L1033 593 Z M391 39 C226 39 115 168 115 322 C115 477 226 604 391 604 C556 604 667 477 667 322 C667 168 556 39 391 39 L391 39 Z " />
<glyph glyph-name="oe" unicode="&#x153;" horiz-adv-x="926" d="M879 243 C879 359 797 453 673 453 C585 453 516 405 481 334 C443 405 369 453 278 453 C142 453 47 350 47 222 C47 93 142 -10 278 -10 C370 -10 444 39 482 111 C517 39 587 -9 682 -9 C756 -9 820 20 858 64 L820 94 C790 58 743 36 682 36 C575 36 511 117 510 221 L879 221 L879 243 Z M278 36 C175 36 101 118 101 222 C101 325 175 408 278 408 C380 408 454 325 454 222 C454 118 380 36 278 36 L278 36 Z M673 408 C761 408 821 347 828 260 L513 260 C526 346 587 408 673 408 L673 408 Z " />
<glyph glyph-name="Racute" unicode="&#x154;" horiz-adv-x="540" d="M289 732 L379 827 L325 837 L198 690 L220 690 C238 690 253 694 289 732 L289 732 Z M439 0 L506 0 L277 301 C368 305 462 359 462 468 C462 575 373 640 262 640 L98 640 L98 0 L152 0 L152 301 L215 301 L439 0 Z M152 595 L246 595 C344 595 406 551 406 468 C406 385 343 346 250 346 L152 346 L152 595 Z " />
<glyph glyph-name="racute" unicode="&#x155;" horiz-adv-x="300" d="M194 563 L284 658 L230 668 L103 521 L125 521 C143 521 158 525 194 563 L194 563 Z M248 453 C190 453 145 411 122 362 L115 441 L71 441 L71 0 L123 0 L123 266 C124 350 170 403 240 403 C254 403 264 401 275 398 L286 449 C275 452 265 453 248 453 L248 453 Z " />
<glyph glyph-name="uni0156" unicode="&#x156;" horiz-adv-x="540" d="M277 301 C368 305 462 359 462 468 C462 575 373 640 262 640 L98 640 L98 0 L152 0 L152 301 L215 301 L439 0 L506 0 L277 301 Z M152 595 L246 595 C344 595 406 551 406 468 C406 385 343 346 250 346 L152 346 L152 595 Z M275 -61 C255 -61 244 -75 244 -93 C244 -115 266 -125 283 -118 C284 -138 270 -168 234 -186 L243 -206 C292 -187 311 -146 313 -114 C314 -86 300 -61 275 -61 L275 -61 Z " />
<glyph glyph-name="uni0157" unicode="&#x157;" horiz-adv-x="300" d="M248 453 C190 453 145 411 122 362 L115 441 L71 441 L71 0 L123 0 L123 266 C124 350 170 403 240 403 C254 403 264 401 275 398 L286 449 C275 452 265 453 248 453 L248 453 Z M94 -61 C74 -61 63 -75 63 -93 C63 -115 85 -125 102 -118 C103 -138 89 -168 53 -186 L62 -206 C111 -187 130 -146 132 -114 C133 -86 119 -61 94 -61 L94 -61 Z " />
<glyph glyph-name="Rcaron" unicode="&#x158;" horiz-adv-x="540" d="M288 691 L390 797 L356 797 C340 797 332 792 322 782 L264 727 L207 782 C196 793 189 797 173 797 L139 797 L241 691 L288 691 Z M439 0 L506 0 L277 301 C368 305 462 359 462 468 C462 575 373 640 262 640 L98 640 L98 0 L152 0 L152 301 L215 301 L439 0 Z M152 595 L246 595 C344 595 406 551 406 468 C406 385 343 346 250 346 L152 346 L152 595 Z " />
<glyph glyph-name="rcaron" unicode="&#x159;" horiz-adv-x="300" d="M193 523 L295 629 L261 629 C245 629 237 624 227 614 L169 559 L112 614 C101 625 94 629 78 629 L44 629 L146 523 L193 523 Z M122 362 L115 441 L71 441 L71 0 L123 0 L123 266 C124 350 170 403 240 403 C254 403 264 401 275 398 L286 449 C275 452 265 453 248 453 C190 453 145 411 122 362 L122 362 Z " />
<glyph glyph-name="Sacute" unicode="&#x15a;" horiz-adv-x="521" d="M286 732 L376 827 L322 837 L195 690 L217 690 C235 690 250 694 286 732 L286 732 Z M257 -10 C355 -10 453 43 453 159 C453 255 379 309 288 348 C199 386 134 420 134 492 C134 559 187 604 255 604 C314 604 354 581 391 545 L430 582 C395 619 340 653 257 653 C163 653 79 592 79 492 C79 380 173 342 262 302 C338 268 396 231 396 155 C396 82 330 39 256 39 C180 39 129 67 91 119 L48 82 C88 31 152 -10 257 -10 L257 -10 Z " />
<glyph glyph-name="sacute" unicode="&#x15b;" horiz-adv-x="403" d="M232 563 L322 658 L268 668 L141 521 L163 521 C181 521 196 525 232 563 L232 563 Z M37 65 C62 24 122 -10 196 -10 C290 -10 356 39 356 117 C356 285 114 204 113 330 C113 377 147 407 207 408 C250 408 285 391 311 366 L344 400 C316 428 269 453 207 453 C118 453 59 403 60 327 C60 161 301 239 301 115 C301 67 262 36 195 36 C143 36 101 59 76 96 L37 65 Z " />
<glyph glyph-name="Scircumflex" unicode="&#x15c;" horiz-adv-x="521" d="M283 797 L237 797 L134 691 L169 691 C185 691 192 696 203 706 L260 761 L317 706 C328 695 335 691 351 691 L386 691 L283 797 Z M257 -10 C355 -10 453 43 453 159 C453 255 379 309 288 348 C199 386 134 420 134 492 C134 559 187 604 255 604 C314 604 354 581 391 545 L430 582 C395 619 340 653 257 653 C163 653 79 592 79 492 C79 380 173 342 262 302 C338 268 396 231 396 155 C396 82 330 39 256 39 C180 39 129 67 91 119 L48 82 C88 31 152 -10 257 -10 L257 -10 Z " />
<glyph glyph-name="scircumflex" unicode="&#x15d;" horiz-adv-x="403" d="M230 628 L184 628 L81 522 L116 522 C132 522 139 527 150 537 L207 592 L264 537 C275 526 282 522 298 522 L333 522 L230 628 Z M37 65 C62 24 122 -10 196 -10 C290 -10 356 39 356 117 C356 285 114 204 113 330 C113 377 147 407 207 408 C250 408 285 391 311 366 L344 400 C316 428 269 453 207 453 C118 453 59 403 60 327 C60 161 301 239 301 115 C301 67 262 36 195 36 C143 36 101 59 76 96 L37 65 Z " />
<glyph glyph-name="Scedilla" unicode="&#x15e;" horiz-adv-x="521" d="M453 159 C453 255 379 309 288 348 C199 386 134 420 134 492 C134 559 187 604 255 604 C314 604 354 581 391 545 L430 582 C395 619 340 653 257 653 C163 653 79 592 79 492 C79 380 173 342 262 302 C338 268 396 231 396 155 C396 82 330 39 256 39 C180 39 129 67 91 119 L48 82 C86 34 145 -6 240 -10 L201 -71 L218 -87 C254 -70 311 -74 311 -111 C311 -132 293 -155 247 -153 C218 -151 193 -142 182 -135 L167 -164 C181 -173 215 -185 255 -185 C315 -185 357 -157 357 -114 C357 -75 326 -55 294 -51 C271 -49 250 -54 241 -58 L273 -10 C365 -4 453 49 453 159 L453 159 Z " />
<glyph glyph-name="scedilla" unicode="&#x15f;" horiz-adv-x="403" d="M356 117 C356 285 114 204 113 330 C113 377 147 407 207 408 C250 408 285 391 311 366 L344 400 C316 428 269 453 207 453 C118 453 59 403 60 327 C60 161 301 239 301 115 C301 67 262 36 195 36 C143 36 101 59 76 96 L37 65 C61 26 117 -7 187 -10 L148 -71 L165 -87 C201 -70 258 -74 258 -111 C258 -132 240 -155 194 -153 C165 -151 140 -142 129 -135 L114 -164 C128 -173 162 -185 202 -185 C262 -185 304 -157 304 -114 C304 -75 273 -55 241 -51 C218 -49 197 -54 188 -58 L220 -9 C301 -1 356 46 356 117 L356 117 Z " />
<glyph glyph-name="Scaron" unicode="&#x160;" horiz-adv-x="521" d="M238 691 L285 691 L387 797 L353 797 C337 797 329 792 319 782 L261 727 L204 782 C193 793 186 797 170 797 L136 797 L238 691 Z M257 -10 C355 -10 453 43 453 159 C453 255 379 309 288 348 C199 386 134 420 134 492 C134 559 187 604 255 604 C314 604 354 581 391 545 L430 582 C395 619 340 653 257 653 C163 653 79 592 79 492 C79 380 173 342 262 302 C338 268 396 231 396 155 C396 82 330 39 256 39 C180 39 129 67 91 119 L48 82 C88 31 152 -10 257 -10 L257 -10 Z " />
<glyph glyph-name="scaron" unicode="&#x161;" horiz-adv-x="403" d="M185 523 L232 523 L334 629 L300 629 C284 629 276 624 266 614 L208 559 L151 614 C140 625 133 629 117 629 L83 629 L185 523 Z M37 65 C62 24 122 -10 196 -10 C290 -10 356 39 356 117 C356 285 114 204 113 330 C113 377 147 407 207 408 C250 408 285 391 311 366 L344 400 C316 428 269 453 207 453 C118 453 59 403 60 327 C60 161 301 239 301 115 C301 67 262 36 195 36 C143 36 101 59 76 96 L37 65 Z " />
<glyph glyph-name="uni0162" unicode="&#x162;" horiz-adv-x="493" d="M274 0 L274 593 L457 593 L457 640 L36 640 L36 593 L220 593 L220 0 L231 0 L186 -71 L203 -87 C239 -70 296 -74 296 -111 C296 -132 278 -155 232 -153 C203 -151 178 -142 167 -135 L152 -164 C166 -173 200 -185 240 -185 C300 -185 342 -157 342 -114 C342 -75 311 -55 279 -51 C256 -49 235 -54 226 -58 L264 0 L274 0 Z " />
<glyph glyph-name="uni0163" unicode="&#x163;" horiz-adv-x="315" d="M164 0 L164 398 L276 398 L276 441 L164 441 L164 570 L113 570 L113 441 L47 441 L47 398 L113 398 L113 0 L123 0 L78 -71 L95 -87 C131 -70 188 -74 188 -111 C188 -132 170 -155 124 -153 C95 -151 70 -142 59 -135 L44 -164 C58 -173 92 -185 132 -185 C192 -185 234 -157 234 -114 C234 -75 203 -55 171 -51 C148 -49 127 -54 118 -58 L156 0 L164 0 Z " />
<glyph glyph-name="Tcaron" unicode="&#x164;" horiz-adv-x="493" d="M271 691 L373 797 L339 797 C323 797 315 792 305 782 L247 727 L190 782 C179 793 172 797 156 797 L122 797 L224 691 L271 691 Z M457 640 L36 640 L36 593 L220 593 L220 0 L274 0 L274 593 L457 593 L457 640 Z " />
<glyph glyph-name="tcaron" unicode="&#x165;" horiz-adv-x="315" d="M310 640 C290 640 278 626 278 609 C278 587 301 576 318 584 C319 563 305 533 269 515 L277 495 C327 514 346 555 347 587 C349 615 335 640 310 640 L310 640 Z M164 570 L113 570 L113 441 L47 441 L47 398 L113 398 L113 0 L164 0 L164 398 L276 398 L276 441 L164 441 L164 570 Z " />
<glyph glyph-name="Tbar" unicode="&#x166;" horiz-adv-x="493" d="M457 593 L457 640 L36 640 L36 593 L220 593 L220 340 L123 340 L123 304 L220 304 L220 0 L274 0 L274 304 L370 304 L370 340 L274 340 L274 593 L457 593 Z " />
<glyph glyph-name="tbar" unicode="&#x167;" horiz-adv-x="315" d="M276 398 L276 441 L164 441 L164 570 L113 570 L113 441 L47 441 L47 398 L113 398 L113 310 L71 310 L71 274 L113 274 L113 0 L164 0 L164 274 L242 274 L242 310 L164 310 L164 398 L276 398 Z " />
<glyph glyph-name="Utilde" unicode="&#x168;" horiz-adv-x="617" d="M362 700 C408 700 432 737 441 759 L407 777 C398 756 385 739 361 739 C322 739 299 779 253 779 C210 779 190 748 176 725 L209 705 C218 723 232 741 258 741 C295 741 314 700 362 700 L362 700 Z M308 -10 C450 -10 534 74 534 241 L534 640 L480 640 L480 248 C480 110 419 39 308 39 C197 39 136 110 136 248 L136 640 L82 640 L82 241 C82 74 167 -10 308 -10 L308 -10 Z " />
<glyph glyph-name="utilde" unicode="&#x169;" horiz-adv-x="498" d="M303 531 C349 531 373 568 382 590 L348 608 C339 587 326 570 302 570 C263 570 240 610 194 610 C151 610 131 579 117 556 L150 536 C159 554 173 572 199 572 C236 572 255 531 303 531 L303 531 Z M249 -12 C334 -12 431 31 431 181 L431 441 L379 441 L379 181 C379 89 332 33 249 33 C166 33 119 89 119 181 L119 441 L67 441 L67 181 C67 31 164 -12 249 -12 L249 -12 Z " />
<glyph glyph-name="Umacron" unicode="&#x16a;" horiz-adv-x="617" d="M193 726 L423 726 L423 762 L193 762 L193 726 Z M308 -10 C450 -10 534 74 534 241 L534 640 L480 640 L480 248 C480 110 419 39 308 39 C197 39 136 110 136 248 L136 640 L82 640 L82 241 C82 74 167 -10 308 -10 L308 -10 Z " />
<glyph glyph-name="umacron" unicode="&#x16b;" horiz-adv-x="498" d="M134 557 L364 557 L364 593 L134 593 L134 557 Z M249 -12 C334 -12 431 31 431 181 L431 441 L379 441 L379 181 C379 89 332 33 249 33 C166 33 119 89 119 181 L119 441 L67 441 L67 181 C67 31 164 -12 249 -12 L249 -12 Z " />
<glyph glyph-name="Ubreve" unicode="&#x16c;" horiz-adv-x="617" d="M308 690 C384 690 430 733 433 793 L396 793 C392 760 364 726 308 726 C252 726 226 759 223 793 L184 793 C187 733 234 690 308 690 L308 690 Z M308 -10 C450 -10 534 74 534 241 L534 640 L480 640 L480 248 C480 110 419 39 308 39 C197 39 136 110 136 248 L136 640 L82 640 L82 241 C82 74 167 -10 308 -10 L308 -10 Z " />
<glyph glyph-name="ubreve" unicode="&#x16d;" horiz-adv-x="498" d="M248 521 C324 521 370 564 373 624 L336 624 C332 591 304 557 248 557 C192 557 166 590 163 624 L124 624 C127 564 174 521 248 521 L248 521 Z M249 -12 C334 -12 431 31 431 181 L431 441 L379 441 L379 181 C379 89 332 33 249 33 C166 33 119 89 119 181 L119 441 L67 441 L67 181 C67 31 164 -12 249 -12 L249 -12 Z " />
<glyph glyph-name="Uring" unicode="&#x16e;" horiz-adv-x="617" d="M308 858 C258 858 217 818 217 770 C217 721 258 681 308 681 C358 681 399 721 399 770 C399 818 358 858 308 858 L308 858 Z M308 711 C274 711 247 737 247 770 C247 802 274 827 308 827 C342 827 368 802 368 770 C368 737 342 711 308 711 L308 711 Z M308 -10 C450 -10 534 74 534 241 L534 640 L480 640 L480 248 C480 110 419 39 308 39 C197 39 136 110 136 248 L136 640 L82 640 L82 241 C82 74 167 -10 308 -10 L308 -10 Z " />
<glyph glyph-name="uring" unicode="&#x16f;" horiz-adv-x="498" d="M249 689 C199 689 158 649 158 601 C158 552 199 512 249 512 C299 512 340 552 340 601 C340 649 299 689 249 689 L249 689 Z M249 542 C215 542 188 568 188 601 C188 633 215 658 249 658 C283 658 309 633 309 601 C309 568 283 542 249 542 L249 542 Z M249 -12 C334 -12 431 31 431 181 L431 441 L379 441 L379 181 C379 89 332 33 249 33 C166 33 119 89 119 181 L119 441 L67 441 L67 181 C67 31 164 -12 249 -12 L249 -12 Z " />
<glyph glyph-name="Uhungarumlaut" unicode="&#x170;" horiz-adv-x="617" d="M272 732 L362 827 L309 837 L181 690 L203 690 C221 690 236 694 272 732 L272 732 Z M398 732 L488 827 L434 837 L307 690 L329 690 C347 690 362 694 398 732 L398 732 Z M308 -10 C450 -10 534 74 534 241 L534 640 L480 640 L480 248 C480 110 419 39 308 39 C197 39 136 110 136 248 L136 640 L82 640 L82 241 C82 74 167 -10 308 -10 L308 -10 Z " />
<glyph glyph-name="uhungarumlaut" unicode="&#x171;" horiz-adv-x="498" d="M212 563 L302 658 L249 668 L121 521 L143 521 C161 521 176 525 212 563 L212 563 Z M338 563 L428 658 L374 668 L247 521 L269 521 C287 521 302 525 338 563 L338 563 Z M249 -12 C334 -12 431 31 431 181 L431 441 L379 441 L379 181 C379 89 332 33 249 33 C166 33 119 89 119 181 L119 441 L67 441 L67 181 C67 31 164 -12 249 -12 L249 -12 Z " />
<glyph glyph-name="Uogonek" unicode="&#x172;" horiz-adv-x="617" d="M480 640 L480 248 C480 110 419 39 308 39 C197 39 136 110 136 248 L136 640 L82 640 L82 241 C82 74 167 -10 308 -10 L319 -10 C270 -45 249 -91 267 -130 C287 -172 350 -179 392 -151 L382 -121 C295 -160 263 -71 362 -12 L379 -2 C478 23 534 104 534 241 L534 640 L480 640 Z " />
<glyph glyph-name="uogonek" unicode="&#x173;" horiz-adv-x="498" d="M379 441 L379 181 C379 89 332 33 249 33 C166 33 119 89 119 181 L119 441 L67 441 L67 181 C67 31 164 -12 249 -12 L253 -12 C206 -47 186 -92 204 -130 C224 -172 287 -179 329 -151 L319 -121 C232 -160 200 -71 299 -12 L315 -2 C377 17 431 69 431 181 L431 441 L379 441 Z " />
<glyph glyph-name="Wcircumflex" unicode="&#x174;" horiz-adv-x="951" d="M419 706 L476 761 L533 706 C544 695 551 691 567 691 L602 691 L499 797 L453 797 L350 691 L385 691 C401 691 408 696 419 706 L419 706 Z M852 640 L670 77 L499 640 L453 640 L282 77 L99 640 L42 640 L259 0 L302 0 L476 570 L649 0 L692 0 L909 640 L852 640 Z " />
<glyph glyph-name="wcircumflex" unicode="&#x175;" horiz-adv-x="707" d="M296 537 L353 592 L410 537 C421 526 428 522 444 522 L479 522 L376 628 L330 628 L227 522 L262 522 C278 522 285 527 296 537 L296 537 Z M627 441 L492 67 L376 441 L331 441 L215 67 L80 441 L25 441 L193 0 L236 0 L354 382 L471 0 L514 0 L682 441 L627 441 Z " />
<glyph glyph-name="Ycircumflex" unicode="&#x176;" horiz-adv-x="559" d="M222 706 L279 761 L336 706 C347 695 354 691 370 691 L405 691 L302 797 L256 797 L153 691 L188 691 C204 691 211 696 222 706 L222 706 Z M529 640 L465 640 L279 358 L94 640 L30 640 L252 306 L252 0 L306 0 L306 305 L529 640 Z " />
<glyph glyph-name="ycircumflex" unicode="&#x177;" horiz-adv-x="462" d="M173 537 L230 592 L287 537 C298 526 305 522 321 522 L356 522 L253 628 L207 628 L104 522 L139 522 C155 522 162 527 173 537 L173 537 Z M387 441 L230 70 L75 441 L19 441 L205 10 L108 -210 L162 -210 L443 441 L387 441 Z " />
<glyph glyph-name="Ydieresis" unicode="&#x178;" horiz-adv-x="554" d="M184 705 C205 705 222 722 222 743 C222 764 205 781 184 781 C163 781 147 764 147 743 C147 722 163 705 184 705 L184 705 Z M369 705 C390 705 407 722 407 743 C407 764 390 781 369 781 C348 781 332 764 332 743 C332 722 348 705 369 705 L369 705 Z M529 640 L465 640 L279 358 L94 640 L30 640 L252 306 L252 0 L306 0 L306 305 L529 640 Z " />
<glyph glyph-name="Zacute" unicode="&#x179;" horiz-adv-x="588" d="M322 732 L412 827 L358 837 L231 690 L253 690 C271 690 286 694 322 732 L322 732 Z M144 47 L511 600 L511 640 L95 640 L95 593 L442 593 L78 41 L78 0 L529 0 L529 47 L144 47 Z " />
<glyph glyph-name="zacute" unicode="&#x17a;" horiz-adv-x="457" d="M255 563 L345 658 L291 668 L164 521 L186 521 C204 521 219 525 255 563 L255 563 Z M116 46 L396 400 L397 441 L64 441 L64 395 L332 395 L49 39 L49 0 L412 0 L412 46 L116 46 Z " />
<glyph glyph-name="Zdotaccent" unicode="&#x17b;" horiz-adv-x="588" d="M298 710 C321 710 339 729 339 752 C339 775 321 793 298 793 C275 793 256 775 256 752 C256 729 275 710 298 710 L298 710 Z M144 47 L511 600 L511 640 L95 640 L95 593 L442 593 L78 41 L78 0 L529 0 L529 47 L144 47 Z " />
<glyph glyph-name="zdotaccent" unicode="&#x17c;" horiz-adv-x="457" d="M231 541 C254 541 272 560 272 583 C272 606 254 624 231 624 C208 624 189 606 189 583 C189 560 208 541 231 541 L231 541 Z M116 46 L396 400 L397 441 L64 441 L64 395 L332 395 L49 39 L49 0 L412 0 L412 46 L116 46 Z " />
<glyph glyph-name="Zcaron" unicode="&#x17d;" horiz-adv-x="588" d="M322 691 L424 797 L390 797 C374 797 366 792 356 782 L298 727 L241 782 C230 793 223 797 207 797 L173 797 L275 691 L322 691 Z M144 47 L511 600 L511 640 L95 640 L95 593 L442 593 L78 41 L78 0 L529 0 L529 47 L144 47 Z " />
<glyph glyph-name="zcaron" unicode="&#x17e;" horiz-adv-x="457" d="M255 523 L357 629 L323 629 C307 629 299 624 289 614 L231 559 L174 614 C163 625 156 629 140 629 L106 629 L208 523 L255 523 Z M116 46 L396 400 L397 441 L64 441 L64 395 L332 395 L49 39 L49 0 L412 0 L412 46 L116 46 Z " />
<glyph glyph-name="uni0189" unicode="&#x189;" horiz-adv-x="642" d="M237 640 L98 640 L98 340 L29 340 L29 304 L98 304 L98 0 L237 0 C466 0 583 143 583 321 C583 498 466 640 237 640 L237 640 Z M229 44 L152 44 L152 304 L276 304 L276 340 L152 340 L152 596 L229 596 C412 596 527 497 527 321 C527 143 412 44 229 44 L229 44 Z " />
<glyph glyph-name="uni018F" unicode="&#x18f;" horiz-adv-x="718" d="M341 655 C238 655 152 615 98 552 L141 518 C188 573 254 606 341 606 C494 606 596 490 603 340 L58 340 L58 310 C58 123 174 -12 348 -12 C532 -12 660 137 660 322 C660 506 530 655 341 655 L341 655 Z M348 36 C211 36 120 137 115 294 L602 294 C590 148 491 36 348 36 L348 36 Z " />
<glyph glyph-name="florin" unicode="&#x192;" horiz-adv-x="510" d="M414 653 C349 653 310 600 291 511 L265 388 L164 388 L164 353 L257 353 L181 -3 C167 -69 147 -104 108 -104 C89 -104 73 -99 55 -82 L27 -118 C51 -140 79 -150 111 -150 C176 -150 213 -97 231 -8 L308 353 L412 353 L412 388 L316 388 L341 506 C354 568 373 608 416 608 C436 608 456 600 477 580 L507 616 C479 640 450 653 414 653 L414 653 Z " />
<glyph glyph-name="uni0197" unicode="&#x197;" horiz-adv-x="271" d="M259 390 L162 390 L162 640 L108 640 L108 390 L12 390 L12 354 L108 354 L108 0 L162 0 L162 354 L259 354 L259 390 Z " />
<glyph glyph-name="uni019D" unicode="&#x19d;" horiz-adv-x="722" d="M571 640 L571 89 L150 640 L98 640 L98 -43 C98 -134 31 -143 -17 -126 L-25 -174 C51 -200 151 -181 151 -35 L151 552 L572 0 L624 0 L624 640 L571 640 Z " />
<glyph glyph-name="uni01C3" unicode="&#x1c3;" horiz-adv-x="240" d="M151 640 L90 640 L98 164 L142 164 L151 640 Z M120 -5 C143 -5 162 13 162 36 C162 59 143 78 120 78 C97 78 78 59 78 36 C78 13 97 -5 120 -5 L120 -5 Z " />
<glyph glyph-name="uni01CD" unicode="&#x1cd;" horiz-adv-x="624" d="M336 691 L438 797 L404 797 C388 797 380 792 370 782 L312 727 L255 782 C244 793 237 797 221 797 L187 797 L289 691 L336 691 Z M535 0 L593 0 L339 640 L285 640 L30 0 L89 0 L167 202 L457 203 L535 0 Z M184 247 L312 578 L439 247 L184 247 Z " />
<glyph glyph-name="uni01CE" unicode="&#x1ce;" horiz-adv-x="551" d="M300 523 L402 629 L368 629 C352 629 344 624 334 614 L276 559 L219 614 C208 625 201 629 185 629 L151 629 L253 523 L300 523 Z M437 441 L429 352 C394 414 334 453 256 453 C139 453 47 361 47 222 C47 83 139 -9 256 -9 C334 -9 394 30 429 91 L437 0 L480 0 L480 441 L437 441 Z M267 36 C169 36 100 117 100 222 C100 327 169 408 266 408 C365 408 434 327 434 222 C434 116 365 36 267 36 L267 36 Z " />
<glyph glyph-name="uni01CF" unicode="&#x1cf;" horiz-adv-x="271" d="M113 691 L160 691 L262 797 L228 797 C212 797 204 792 194 782 L136 727 L79 782 C68 793 61 797 45 797 L11 797 L113 691 Z M162 640 L108 640 L108 0 L162 0 L162 640 Z " />
<glyph glyph-name="uni01D0" unicode="&#x1d0;" horiz-adv-x="221" d="M86 523 L133 523 L235 629 L201 629 C185 629 177 624 167 614 L109 559 L52 614 C41 625 34 629 18 629 L-16 629 L86 523 Z M83 0 L135 0 L135 441 L83 441 L83 0 Z " />
<glyph glyph-name="uni01D1" unicode="&#x1d1;" horiz-adv-x="782" d="M368 691 L415 691 L517 797 L483 797 C467 797 459 792 449 782 L391 727 L334 782 C323 793 316 797 300 797 L266 797 L368 691 Z M391 -10 C587 -10 724 137 724 322 C724 507 587 653 391 653 C195 653 58 507 58 322 C58 137 195 -10 391 -10 L391 -10 Z M391 39 C226 39 115 168 115 322 C115 477 226 604 391 604 C556 604 667 477 667 322 C667 168 556 39 391 39 L391 39 Z " />
<glyph glyph-name="uni01D2" unicode="&#x1d2;" horiz-adv-x="555" d="M255 523 L302 523 L404 629 L370 629 C354 629 346 624 336 614 L278 559 L221 614 C210 625 203 629 187 629 L153 629 L255 523 Z M278 -10 C412 -10 508 93 508 222 C508 350 412 453 278 453 C142 453 47 350 47 222 C47 93 142 -10 278 -10 L278 -10 Z M278 36 C175 36 101 118 101 222 C101 325 175 408 278 408 C380 408 454 325 454 222 C454 118 380 36 278 36 L278 36 Z " />
<glyph glyph-name="uni01D3" unicode="&#x1d3;" horiz-adv-x="617" d="M286 691 L333 691 L435 797 L401 797 C385 797 377 792 367 782 L309 727 L252 782 C241 793 234 797 218 797 L184 797 L286 691 Z M308 -10 C450 -10 534 74 534 241 L534 640 L480 640 L480 248 C480 110 419 39 308 39 C197 39 136 110 136 248 L136 640 L82 640 L82 241 C82 74 167 -10 308 -10 L308 -10 Z " />
<glyph glyph-name="uni01D4" unicode="&#x1d4;" horiz-adv-x="498" d="M226 523 L273 523 L375 629 L341 629 C325 629 317 624 307 614 L249 559 L192 614 C181 625 174 629 158 629 L124 629 L226 523 Z M249 -12 C334 -12 431 31 431 181 L431 441 L379 441 L379 181 C379 89 332 33 249 33 C166 33 119 89 119 181 L119 441 L67 441 L67 181 C67 31 164 -12 249 -12 L249 -12 Z " />
<glyph glyph-name="uni01D5" unicode="&#x1d5;" horiz-adv-x="617" d="M193 831 L423 831 L423 867 L193 867 L193 831 Z M215 776 C194 776 178 760 178 739 C178 717 194 701 215 701 C236 701 253 717 253 739 C253 760 236 776 215 776 L215 776 Z M401 776 C380 776 364 760 364 739 C364 717 380 701 401 701 C422 701 439 717 439 739 C439 760 422 776 401 776 L401 776 Z M308 -10 C450 -10 534 74 534 241 L534 640 L480 640 L480 248 C480 110 419 39 308 39 C197 39 136 110 136 248 L136 640 L82 640 L82 241 C82 74 167 -10 308 -10 L308 -10 Z " />
<glyph glyph-name="uni01D6" unicode="&#x1d6;" horiz-adv-x="498" d="M134 672 L364 672 L364 708 L134 708 L134 672 Z M156 612 C135 612 119 596 119 575 C119 553 135 537 156 537 C177 537 194 553 194 575 C194 596 177 612 156 612 L156 612 Z M342 612 C321 612 305 596 305 575 C305 553 321 537 342 537 C363 537 380 553 380 575 C380 596 363 612 342 612 L342 612 Z M249 -12 C334 -12 431 31 431 181 L431 441 L379 441 L379 181 C379 89 332 33 249 33 C166 33 119 89 119 181 L119 441 L67 441 L67 181 C67 31 164 -12 249 -12 L249 -12 Z " />
<glyph glyph-name="uni01D7" unicode="&#x1d7;" horiz-adv-x="617" d="M272 794 L301 794 C312 794 324 798 337 811 L421 898 L369 909 L272 794 Z M215 776 C194 776 178 760 178 739 C178 717 194 701 215 701 C236 701 253 717 253 739 C253 760 236 776 215 776 L215 776 Z M401 776 C380 776 364 760 364 739 C364 717 380 701 401 701 C422 701 439 717 439 739 C439 760 422 776 401 776 L401 776 Z M308 -10 C450 -10 534 74 534 241 L534 640 L480 640 L480 248 C480 110 419 39 308 39 C197 39 136 110 136 248 L136 640 L82 640 L82 241 C82 74 167 -10 308 -10 L308 -10 Z " />
<glyph glyph-name="uni01D8" unicode="&#x1d8;" horiz-adv-x="498" d="M213 636 L242 636 C253 636 265 640 278 653 L362 740 L310 751 L213 636 Z M156 612 C135 612 119 596 119 575 C119 553 135 537 156 537 C177 537 194 553 194 575 C194 596 177 612 156 612 L156 612 Z M342 612 C321 612 305 596 305 575 C305 553 321 537 342 537 C363 537 380 553 380 575 C380 596 363 612 342 612 L342 612 Z M249 -12 C334 -12 431 31 431 181 L431 441 L379 441 L379 181 C379 89 332 33 249 33 C166 33 119 89 119 181 L119 441 L67 441 L67 181 C67 31 164 -12 249 -12 L249 -12 Z " />
<glyph glyph-name="uni01D9" unicode="&#x1d9;" horiz-adv-x="617" d="M286 796 L333 796 L435 902 L401 902 C385 902 377 897 367 887 L309 832 L252 887 C241 898 234 902 218 902 L184 902 L286 796 Z M215 776 C194 776 178 760 178 739 C178 717 194 701 215 701 C236 701 253 717 253 739 C253 760 236 776 215 776 L215 776 Z M401 776 C380 776 364 760 364 739 C364 717 380 701 401 701 C422 701 439 717 439 739 C439 760 422 776 401 776 L401 776 Z M308 -10 C450 -10 534 74 534 241 L534 640 L480 640 L480 248 C480 110 419 39 308 39 C197 39 136 110 136 248 L136 640 L82 640 L82 241 C82 74 167 -10 308 -10 L308 -10 Z " />
<glyph glyph-name="uni01DA" unicode="&#x1da;" horiz-adv-x="498" d="M226 638 L273 638 L375 744 L341 744 C325 744 317 739 307 729 L249 674 L192 729 C181 740 174 744 158 744 L124 744 L226 638 Z M156 612 C135 612 119 596 119 575 C119 553 135 537 156 537 C177 537 194 553 194 575 C194 596 177 612 156 612 L156 612 Z M342 612 C321 612 305 596 305 575 C305 553 321 537 342 537 C363 537 380 553 380 575 C380 596 363 612 342 612 L342 612 Z M249 -12 C334 -12 431 31 431 181 L431 441 L379 441 L379 181 C379 89 332 33 249 33 C166 33 119 89 119 181 L119 441 L67 441 L67 181 C67 31 164 -12 249 -12 L249 -12 Z " />
<glyph glyph-name="uni01DB" unicode="&#x1db;" horiz-adv-x="617" d="M345 795 L249 910 L196 899 L281 812 C294 799 305 795 317 795 L345 795 Z M215 776 C194 776 178 760 178 739 C178 717 194 701 215 701 C236 701 253 717 253 739 C253 760 236 776 215 776 L215 776 Z M401 776 C380 776 364 760 364 739 C364 717 380 701 401 701 C422 701 439 717 439 739 C439 760 422 776 401 776 L401 776 Z M308 -10 C450 -10 534 74 534 241 L534 640 L480 640 L480 248 C480 110 419 39 308 39 C197 39 136 110 136 248 L136 640 L82 640 L82 241 C82 74 167 -10 308 -10 L308 -10 Z " />
<glyph glyph-name="uni01DC" unicode="&#x1dc;" horiz-adv-x="498" d="M285 636 L189 751 L136 740 L221 653 C234 640 245 636 257 636 L285 636 Z M156 612 C135 612 119 596 119 575 C119 553 135 537 156 537 C177 537 194 553 194 575 C194 596 177 612 156 612 L156 612 Z M342 612 C321 612 305 596 305 575 C305 553 321 537 342 537 C363 537 380 553 380 575 C380 596 363 612 342 612 L342 612 Z M249 -12 C334 -12 431 31 431 181 L431 441 L379 441 L379 181 C379 89 332 33 249 33 C166 33 119 89 119 181 L119 441 L67 441 L67 181 C67 31 164 -12 249 -12 L249 -12 Z " />
<glyph glyph-name="uni01DD" unicode="&#x1dd;" horiz-adv-x="518" d="M243 450 C170 450 106 421 68 377 L105 347 C136 383 183 405 243 405 C351 405 415 324 416 220 L46 220 L46 198 C46 82 129 -12 253 -12 C380 -12 470 90 470 216 C470 346 382 450 243 450 L243 450 Z M253 33 C165 33 105 94 98 181 L413 181 C399 96 339 33 253 33 L253 33 Z " />
<glyph glyph-name="uni01DE" unicode="&#x1de;" horiz-adv-x="624" d="M426 867 L196 867 L196 831 L426 831 L426 867 Z M218 701 C239 701 256 717 256 739 C256 760 239 776 218 776 C197 776 181 760 181 739 C181 717 197 701 218 701 L218 701 Z M367 739 C367 717 383 701 404 701 C425 701 442 717 442 739 C442 760 425 776 404 776 C383 776 367 760 367 739 L367 739 Z M535 0 L593 0 L339 640 L285 640 L30 0 L89 0 L167 202 L457 203 L535 0 Z M184 247 L312 578 L439 247 L184 247 Z " />
<glyph glyph-name="uni01DF" unicode="&#x1df;" horiz-adv-x="551" d="M391 708 L161 708 L161 672 L391 672 L391 708 Z M183 537 C204 537 221 553 221 575 C221 596 204 612 183 612 C162 612 146 596 146 575 C146 553 162 537 183 537 L183 537 Z M332 575 C332 553 348 537 369 537 C390 537 407 553 407 575 C407 596 390 612 369 612 C348 612 332 596 332 575 L332 575 Z M437 441 L429 352 C394 414 334 453 256 453 C139 453 47 361 47 222 C47 83 139 -9 256 -9 C334 -9 394 30 429 91 L437 0 L480 0 L480 441 L437 441 Z M267 36 C169 36 100 117 100 222 C100 327 169 408 266 408 C365 408 434 327 434 222 C434 116 365 36 267 36 L267 36 Z " />
<glyph glyph-name="Gcaron" unicode="&#x1e6;" horiz-adv-x="733" d="M400 691 L502 797 L468 797 C452 797 444 792 434 782 L376 727 L319 782 C308 793 301 797 285 797 L251 797 L353 691 L400 691 Z M425 334 L425 288 L624 288 C626 138 529 39 385 39 C219 39 115 168 115 323 C115 477 219 604 390 604 C478 604 536 571 556 554 L587 597 C556 621 482 653 390 653 C189 653 58 507 58 323 C58 138 187 -10 385 -10 C583 -10 681 139 681 294 L681 334 L425 334 Z " />
<glyph glyph-name="gcaron" unicode="&#x1e7;" horiz-adv-x="551" d="M309 523 L411 629 L377 629 C361 629 353 624 343 614 L285 559 L228 614 C217 625 210 629 194 629 L160 629 L262 523 L309 523 Z M437 441 L430 351 C395 413 334 453 256 453 C139 453 47 361 47 222 C47 83 139 -9 256 -9 C333 -9 393 29 428 89 L428 29 C428 -98 382 -165 272 -165 C246 -165 224 -161 201 -152 L189 -198 C213 -205 243 -210 273 -210 C415 -210 480 -129 480 31 L480 441 L437 441 Z M267 36 C169 36 100 117 100 222 C100 327 169 408 266 408 C365 408 434 327 434 222 C434 116 365 36 267 36 L267 36 Z " />
<glyph glyph-name="uni01EA" unicode="&#x1ea;" horiz-adv-x="782" d="M452 -12 L469 -2 C622 32 724 163 724 322 C724 507 587 653 391 653 C195 653 58 507 58 322 C58 137 195 -10 391 -10 L410 -10 C360 -45 339 -91 357 -130 C377 -172 440 -179 482 -151 L472 -121 C385 -160 353 -71 452 -12 L452 -12 Z M115 322 C115 477 226 604 391 604 C556 604 667 477 667 322 C667 168 556 39 391 39 C226 39 115 168 115 322 L115 322 Z " />
<glyph glyph-name="uni01EB" unicode="&#x1eb;" horiz-adv-x="555" d="M323 -12 L339 -2 C440 23 508 114 508 222 C508 350 412 453 278 453 C142 453 47 350 47 222 C47 93 142 -10 278 -10 L280 -10 C231 -46 210 -91 228 -130 C248 -172 311 -179 353 -151 L343 -121 C256 -160 224 -71 323 -12 L323 -12 Z M101 222 C101 325 175 408 278 408 C380 408 454 325 454 222 C454 118 380 36 278 36 C175 36 101 118 101 222 L101 222 Z " />
<glyph glyph-name="Aringacute" unicode="&#x1fa;" horiz-adv-x="624" d="M341 805 L425 892 L373 903 L276 788 L305 788 C316 788 328 792 341 805 L341 805 Z M312 581 C362 581 403 621 403 670 C403 718 362 758 312 758 C262 758 221 718 221 670 C221 621 262 581 312 581 L312 581 Z M312 727 C346 727 372 702 372 670 C372 637 346 611 312 611 C278 611 251 637 251 670 C251 702 278 727 312 727 L312 727 Z M535 0 L593 0 L339 548 L285 548 L30 0 L89 0 L167 173 L457 173 L535 0 Z M184 211 L312 495 L440 211 L184 211 Z " />
<glyph glyph-name="aringacute" unicode="&#x1fb;" horiz-adv-x="551" d="M305 736 L389 823 L337 834 L240 719 L269 719 C280 719 292 723 305 736 L305 736 Z M276 512 C326 512 367 552 367 601 C367 649 326 689 276 689 C226 689 185 649 185 601 C185 552 226 512 276 512 L276 512 Z M276 658 C310 658 336 633 336 601 C336 568 310 542 276 542 C242 542 215 568 215 601 C215 633 242 658 276 658 L276 658 Z M437 441 L429 352 C394 414 334 453 256 453 C139 453 47 361 47 222 C47 83 139 -9 256 -9 C334 -9 394 30 429 91 L437 0 L480 0 L480 441 L437 441 Z M267 36 C169 36 100 117 100 222 C100 327 169 408 266 408 C365 408 434 327 434 222 C434 116 365 36 267 36 L267 36 Z " />
<glyph glyph-name="AEacute" unicode="&#x1fc;" horiz-adv-x="789" d="M458 722 L548 817 L495 827 L367 680 L389 680 C407 680 422 684 458 722 L458 722 Z M738 596 L738 643 L285 643 L30 0 L89 0 L165 202 L412 202 L467 0 L738 0 L738 47 L511 47 L439 294 L684 294 L684 339 L426 339 L351 596 L738 596 Z M181 247 L307 583 L399 247 L181 247 Z " />
<glyph glyph-name="aeacute" unicode="&#x1fd;" horiz-adv-x="907" d="M483 558 L573 653 L519 663 L392 516 L414 516 C432 516 447 520 483 558 L483 558 Z M860 243 C860 359 777 453 653 453 C580 453 518 419 480 366 L480 441 L437 441 L429 352 C394 414 334 453 256 453 C139 453 47 361 47 222 C47 83 139 -9 256 -9 C334 -9 394 30 429 91 L437 0 L480 0 L480 80 C519 26 582 -9 663 -9 C737 -9 800 20 839 64 L801 94 C770 58 724 36 663 36 C555 36 492 117 491 221 L860 221 L860 243 Z M267 36 C169 36 100 117 100 222 C100 327 169 408 266 408 C365 408 434 327 434 222 C434 116 365 36 267 36 L267 36 Z M653 408 C742 408 801 347 808 260 L494 260 C507 346 567 408 653 408 L653 408 Z " />
<glyph glyph-name="Oslashacute" unicode="&#x1fe;" horiz-adv-x="782" d="M413 732 L503 827 L449 837 L322 690 L344 690 C362 690 377 694 413 732 L413 732 Z M629 559 L701 638 L674 662 L602 583 C546 627 474 653 391 653 C195 653 58 507 58 322 C58 228 93 145 153 85 L81 5 L108 -19 L180 61 C236 16 308 -10 391 -10 C587 -10 724 137 724 322 C724 415 689 499 629 559 L629 559 Z M115 322 C115 477 226 604 391 604 C461 604 521 581 567 543 L189 125 C142 176 115 246 115 322 L115 322 Z M391 39 C321 39 261 62 215 100 L593 519 C640 468 667 398 667 322 C667 168 556 39 391 39 L391 39 Z " />
<glyph glyph-name="oslashacute" unicode="&#x1ff;" horiz-adv-x="555" d="M302 563 L392 658 L338 668 L211 521 L233 521 C251 521 266 525 302 563 L302 563 Z M445 384 L499 444 L477 464 L423 404 C385 435 335 453 278 453 C141 453 47 350 47 222 C47 158 70 100 111 58 L57 -2 L79 -21 L133 38 C171 8 221 -10 278 -10 C414 -10 508 93 508 222 C508 285 485 343 445 384 L445 384 Z M100 222 C100 326 173 408 278 408 C322 408 361 393 390 368 L145 95 C116 128 100 172 100 222 L100 222 Z M278 36 C234 36 195 50 166 75 L411 347 C438 314 454 270 454 222 C454 117 382 36 278 36 L278 36 Z " />
<glyph glyph-name="uni0218" unicode="&#x218;" horiz-adv-x="521" d="M257 -10 C355 -10 453 43 453 159 C453 255 379 309 288 348 C199 386 134 420 134 492 C134 559 187 604 255 604 C314 604 354 581 391 545 L430 582 C395 619 340 653 257 653 C163 653 79 592 79 492 C79 380 173 342 262 302 C338 268 396 231 396 155 C396 82 330 39 256 39 C180 39 129 67 91 119 L48 82 C88 31 152 -10 257 -10 L257 -10 Z M226 -206 C275 -187 294 -146 296 -114 C297 -86 283 -61 258 -61 C238 -61 227 -75 227 -93 C227 -115 249 -125 266 -118 C267 -138 253 -168 217 -186 L226 -206 Z " />
<glyph glyph-name="uni0219" unicode="&#x219;" horiz-adv-x="403" d="M37 65 C62 24 122 -10 196 -10 C290 -10 356 39 356 117 C356 285 114 204 113 330 C113 377 147 407 207 408 C250 408 285 391 311 366 L344 400 C316 428 269 453 207 453 C118 453 59 403 60 327 C60 161 301 239 301 115 C301 67 262 36 195 36 C143 36 101 59 76 96 L37 65 Z M173 -206 C222 -187 241 -146 243 -114 C244 -86 230 -61 205 -61 C185 -61 174 -75 174 -93 C174 -115 196 -125 213 -118 C214 -138 200 -168 164 -186 L173 -206 Z " />
<glyph glyph-name="uni021A" unicode="&#x21a;" horiz-adv-x="493" d="M457 640 L36 640 L36 593 L220 593 L220 0 L274 0 L274 593 L457 593 L457 640 Z M243 -61 C223 -61 212 -75 212 -93 C212 -115 234 -125 251 -118 C252 -138 238 -168 202 -186 L211 -206 C260 -187 279 -146 281 -114 C282 -86 268 -61 243 -61 L243 -61 Z " />
<glyph glyph-name="uni021B" unicode="&#x21b;" horiz-adv-x="315" d="M164 441 L164 570 L113 570 L113 441 L47 441 L47 398 L113 398 L113 0 L164 0 L164 398 L276 398 L276 441 L164 441 Z M135 -61 C115 -61 104 -75 104 -93 C104 -115 126 -125 143 -118 C144 -138 130 -168 94 -186 L103 -206 C152 -187 171 -146 173 -114 C174 -86 160 -61 135 -61 L135 -61 Z " />
<glyph glyph-name="uni0228" unicode="&#x228;" horiz-adv-x="521" d="M453 593 L453 640 L98 640 L98 0 L258 0 L213 -71 L230 -87 C266 -70 323 -74 323 -111 C323 -132 305 -155 259 -153 C230 -151 205 -142 194 -135 L179 -164 C193 -173 227 -185 267 -185 C327 -185 369 -157 369 -114 C369 -75 338 -55 306 -51 C283 -49 262 -54 253 -58 L291 0 L453 0 L453 47 L152 47 L152 298 L403 298 L403 343 L152 343 L152 593 L453 593 Z " />
<glyph glyph-name="uni0229" unicode="&#x229;" horiz-adv-x="517" d="M471 243 C471 359 388 453 264 453 C137 453 47 351 47 225 C47 104 123 6 246 -8 L205 -71 L222 -87 C258 -70 315 -74 315 -111 C315 -132 297 -155 251 -153 C222 -151 197 -142 186 -135 L171 -164 C185 -173 219 -185 259 -185 C319 -185 361 -157 361 -114 C361 -75 330 -55 298 -51 C275 -49 254 -54 245 -58 L277 -9 C349 -8 412 21 449 64 L412 94 C381 58 334 36 274 36 C166 36 102 117 101 221 L471 221 L471 243 Z M264 408 C352 408 412 347 419 260 L104 260 C117 346 178 408 264 408 L264 408 Z " />
<glyph glyph-name="uni022A" unicode="&#x22a;" horiz-adv-x="782" d="M276 831 L506 831 L506 867 L276 867 L276 831 Z M297 776 C276 776 260 760 260 739 C260 717 276 701 297 701 C318 701 335 717 335 739 C335 760 318 776 297 776 L297 776 Z M483 776 C462 776 446 760 446 739 C446 717 462 701 483 701 C504 701 521 717 521 739 C521 760 504 776 483 776 L483 776 Z M391 -10 C587 -10 724 137 724 322 C724 507 587 653 391 653 C195 653 58 507 58 322 C58 137 195 -10 391 -10 L391 -10 Z M391 39 C226 39 115 168 115 322 C115 477 226 604 391 604 C556 604 667 477 667 322 C667 168 556 39 391 39 L391 39 Z " />
<glyph glyph-name="uni022B" unicode="&#x22b;" horiz-adv-x="555" d="M163 672 L393 672 L393 708 L163 708 L163 672 Z M185 612 C164 612 148 596 148 575 C148 553 164 537 185 537 C206 537 223 553 223 575 C223 596 206 612 185 612 L185 612 Z M371 612 C350 612 334 596 334 575 C334 553 350 537 371 537 C392 537 409 553 409 575 C409 596 392 612 371 612 L371 612 Z M278 -10 C412 -10 508 93 508 222 C508 350 412 453 278 453 C142 453 47 350 47 222 C47 93 142 -10 278 -10 L278 -10 Z M278 36 C175 36 101 118 101 222 C101 325 175 408 278 408 C380 408 454 325 454 222 C454 118 380 36 278 36 L278 36 Z " />
<glyph glyph-name="uni0232" unicode="&#x232;" horiz-adv-x="559" d="M394 762 L164 762 L164 726 L394 726 L394 762 Z M529 640 L465 640 L279 358 L94 640 L30 640 L252 306 L252 0 L306 0 L306 305 L529 640 Z " />
<glyph glyph-name="uni0233" unicode="&#x233;" horiz-adv-x="462" d="M346 593 L116 593 L116 557 L346 557 L346 593 Z M387 441 L230 70 L75 441 L19 441 L205 10 L108 -210 L162 -210 L443 441 L387 441 Z " />
<glyph glyph-name="uni0237" unicode="&#x237;" horiz-adv-x="246" d="M160 -62 L160 441 L108 441 L108 -62 C108 -135 81 -173 -3 -164 L-3 -208 C74 -219 160 -198 160 -62 L160 -62 Z " />
<glyph glyph-name="uni0243" unicode="&#x243;" horiz-adv-x="548" d="M312 357 C384 370 428 422 428 490 C428 583 356 640 234 640 L98 640 L98 205 L44 205 L44 169 L98 169 L98 0 L248 0 C402 0 486 72 486 182 C486 276 419 345 312 357 L312 357 Z M240 596 C325 596 372 558 372 488 C372 421 320 377 248 377 L152 377 L152 596 L240 596 Z M248 44 L152 44 L152 169 L291 169 L291 205 L152 205 L152 327 L259 327 C359 327 429 273 429 186 C429 99 367 44 248 44 L248 44 Z " />
<glyph glyph-name="uni0244" unicode="&#x244;" horiz-adv-x="617" d="M480 640 L480 508 L136 508 L136 640 L82 640 L82 241 C82 74 167 -10 308 -10 C450 -10 534 74 534 241 L534 640 L480 640 Z M308 39 C197 39 136 110 136 248 L136 472 L480 472 L480 248 C480 110 419 39 308 39 L308 39 Z " />
<glyph glyph-name="uni0245" unicode="&#x245;" horiz-adv-x="604" d="M573 0 L324 640 L279 640 L30 0 L90 0 L302 570 L514 0 L573 0 Z " />
<glyph glyph-name="uni024C" unicode="&#x24c;" horiz-adv-x="540" d="M439 0 L506 0 L277 301 C368 305 462 359 462 468 C462 575 373 640 262 640 L98 640 L98 341 L44 341 L44 299 L98 299 L98 0 L152 0 L152 299 L217 299 L439 0 Z M246 595 C344 595 406 551 406 468 C406 385 343 346 250 346 L152 346 L152 595 L246 595 Z " />
<glyph glyph-name="uni0250" unicode="&#x250;" horiz-adv-x="552" d="M296 453 C218 453 157 414 122 352 L114 441 L71 441 L71 0 L114 0 L122 91 C157 30 217 -9 295 -9 C412 -9 504 83 504 222 C504 361 412 453 296 453 L296 453 Z M285 36 C186 36 117 116 117 222 C117 327 186 408 285 408 C383 408 451 327 451 222 C451 117 383 36 285 36 L285 36 Z " />
<glyph glyph-name="uni0251" unicode="&#x251;" horiz-adv-x="512" d="M398 441 L390 353 C359 414 305 453 235 453 C130 453 47 361 47 222 C47 83 130 -9 235 -9 C305 -9 359 29 390 90 L398 0 L442 0 L442 441 L398 441 Z M245 36 C157 36 95 117 95 222 C95 327 157 408 244 408 C333 408 396 327 396 222 C396 116 333 36 245 36 L245 36 Z " />
<glyph glyph-name="uni0252" unicode="&#x252;" horiz-adv-x="513" d="M278 453 C208 453 153 414 122 353 L114 441 L71 441 L71 0 L114 0 L122 91 C153 30 208 -9 277 -9 C383 -9 466 83 466 222 C466 361 383 453 278 453 L278 453 Z M268 36 C179 36 117 116 117 222 C117 327 179 408 268 408 C356 408 417 327 417 222 C417 117 356 36 268 36 L268 36 Z " />
<glyph glyph-name="uni0258" unicode="&#x258;" horiz-adv-x="518" d="M253 453 C130 453 47 359 47 243 L47 221 L416 221 C415 117 351 36 244 36 C183 36 136 58 106 94 L68 64 C106 20 170 -9 244 -9 C383 -9 471 95 471 225 C471 351 381 453 253 453 L253 453 Z M253 408 C340 408 400 346 413 260 L99 260 C105 347 165 408 253 408 L253 408 Z " />
<glyph glyph-name="uni0259" unicode="&#x259;" horiz-adv-x="518" d="M243 450 C170 450 106 421 68 377 L105 347 C136 383 183 405 243 405 C351 405 415 324 416 220 L46 220 L46 198 C46 82 129 -12 253 -12 C380 -12 470 90 470 216 C470 346 382 450 243 450 L243 450 Z M253 33 C165 33 105 94 98 181 L413 181 C399 96 339 33 253 33 L253 33 Z " />
<glyph glyph-name="uni0265" unicode="&#x265;" horiz-adv-x="498" d="M379 441 L379 166 C371 77 311 33 243 33 C166 33 119 86 119 186 L119 441 L67 441 L67 176 C67 30 156 -12 234 -12 C302 -12 353 23 379 74 L379 -239 L431 -239 L431 441 L379 441 Z " />
<glyph glyph-name="uni0268" unicode="&#x268;" horiz-adv-x="221" d="M109 541 C132 541 150 560 150 583 C150 606 132 624 109 624 C86 624 67 606 67 583 C67 560 86 541 109 541 L109 541 Z M232 343 L135 343 L135 441 L83 441 L83 343 L-15 343 L-15 307 L83 307 L83 0 L135 0 L135 307 L232 307 L232 343 Z " />
<glyph glyph-name="uni026F" unicode="&#x26f;" horiz-adv-x="762" d="M638 441 L638 175 C631 86 584 33 517 33 C443 33 404 93 404 179 L404 441 L353 441 L353 207 C353 96 307 33 232 33 C153 33 118 93 118 182 L118 441 L67 441 L67 181 C67 31 149 -12 222 -12 C297 -12 344 23 367 87 C395 12 458 -12 508 -12 C563 -12 615 19 639 76 L645 0 L690 0 L690 441 L638 441 Z " />
<glyph glyph-name="uni0272" unicode="&#x272;" horiz-adv-x="503" d="M269 453 C199 453 147 416 122 362 L116 441 L71 441 L71 -54 C71 -101 55 -122 10 -116 L10 -158 C81 -172 123 -134 123 -50 L123 273 C131 364 190 408 259 408 C337 408 384 355 384 256 L384 0 L436 0 L436 265 C436 411 347 453 269 453 L269 453 Z " />
<glyph glyph-name="uni0275" unicode="&#x275;" horiz-adv-x="555" d="M278 453 C141 453 47 350 47 222 C47 93 141 -10 278 -10 C414 -10 508 93 508 222 C508 350 414 453 278 453 L278 453 Z M278 408 C376 408 446 335 453 239 L101 239 C108 335 179 408 278 408 L278 408 Z M278 36 C179 36 109 107 101 203 L453 203 C445 107 376 36 278 36 L278 36 Z " />
<glyph glyph-name="uni0279" unicode="&#x279;" horiz-adv-x="300" d="M177 441 L177 175 C176 91 130 38 60 38 C46 38 37 40 25 43 L14 -8 C25 -11 35 -12 52 -12 C110 -12 155 30 178 79 L185 0 L229 0 L229 441 L177 441 Z " />
<glyph glyph-name="uni0289" unicode="&#x289;" horiz-adv-x="498" d="M379 441 L379 303 L119 303 L119 441 L67 441 L67 181 C67 31 164 -12 249 -12 C334 -12 431 31 431 181 L431 441 L379 441 Z M249 33 C166 33 119 89 119 181 L119 267 L379 267 L379 181 C379 89 332 33 249 33 L249 33 Z " />
<glyph glyph-name="uni028C" unicode="&#x28c;" horiz-adv-x="467" d="M448 0 L255 441 L212 441 L19 0 L75 0 L233 380 L392 0 L448 0 Z " />
<glyph glyph-name="uni028D" unicode="&#x28d;" horiz-adv-x="707" d="M682 0 L514 441 L471 441 L354 59 L236 441 L193 441 L25 0 L80 0 L215 374 L331 0 L376 0 L492 374 L627 0 L682 0 Z " />
<glyph glyph-name="uni028E" unicode="&#x28e;" horiz-adv-x="485" d="M455 1 L269 432 L366 652 L312 652 L30 1 L86 1 L243 371 L399 1 L455 1 Z " />
<glyph glyph-name="uni02BC" unicode="&#x2bc;" horiz-adv-x="600" d="" />
<glyph glyph-name="circumflex" unicode="&#x2c6;" horiz-adv-x="332" d="M189 625 L143 625 L40 519 L75 519 C91 519 98 524 109 534 L166 589 L223 534 C234 523 241 519 257 519 L292 519 L189 625 Z " />
<glyph glyph-name="caron" unicode="&#x2c7;" horiz-adv-x="332" d="M143 529 L189 529 L292 635 L257 635 C241 635 234 630 223 620 L166 565 L109 620 C98 631 91 635 75 635 L40 635 L143 529 Z " />
<glyph glyph-name="uni02C9" unicode="&#x2c9;" horiz-adv-x="305" d="M0 583 L305 583 L305 615 L0 615 L0 583 Z " />
<glyph glyph-name="breve" unicode="&#x2d8;" horiz-adv-x="329" d="M164 519 C240 519 286 562 289 622 L251 622 C248 589 220 555 164 555 C108 555 81 588 78 622 L40 622 C43 562 90 519 164 519 L164 519 Z " />
<glyph glyph-name="dotaccent" unicode="&#x2d9;" horiz-adv-x="163" d="M82 536 C104 536 123 555 123 578 C123 601 104 619 82 619 C59 619 40 601 40 578 C40 555 59 536 82 536 L82 536 Z " />
<glyph glyph-name="ring" unicode="&#x2da;" horiz-adv-x="262" d="M131 678 C81 678 40 638 40 590 C40 541 81 501 131 501 C181 501 222 541 222 590 C222 638 181 678 131 678 L131 678 Z M131 531 C97 531 70 557 70 590 C70 622 97 647 131 647 C165 647 191 622 191 590 C191 557 165 531 131 531 L131 531 Z " />
<glyph glyph-name="ogonek" unicode="&#x2db;" horiz-adv-x="263" d="M198 -151 L187 -121 C101 -160 68 -71 168 -12 L187 0 L160 11 C86 -26 50 -83 72 -130 C92 -172 155 -179 198 -151 L198 -151 Z " />
<glyph glyph-name="tilde" unicode="&#x2dc;" horiz-adv-x="345" d="M226 559 C272 559 296 596 305 618 L270 636 C261 615 249 598 224 598 C186 598 163 638 117 638 C73 638 54 607 40 584 L72 564 C82 582 96 600 121 600 C159 600 178 559 226 559 L226 559 Z " />
<glyph glyph-name="hungarumlaut" unicode="&#x2dd;" horiz-adv-x="387" d="M131 552 L221 647 L168 657 L40 510 L62 510 C80 510 95 514 131 552 L131 552 Z M257 552 L347 647 L293 657 L166 510 L188 510 C206 510 221 514 257 552 L257 552 Z " />
<glyph glyph-name="gravecomb" unicode="&#x300;" d="M-180 552 C-143 514 -129 510 -111 510 L-88 510 L-216 657 L-269 647 L-180 552 Z " />
<glyph glyph-name="acutecomb" unicode="&#x301;" d="M-178 552 L-88 647 L-142 657 L-269 510 L-247 510 C-229 510 -214 514 -178 552 L-178 552 Z " />
<glyph glyph-name="uni0302" unicode="&#x302;" d="M-192 625 L-238 625 L-341 519 L-306 519 C-290 519 -283 524 -272 534 L-215 589 L-158 534 C-147 523 -140 519 -124 519 L-89 519 L-192 625 Z " />
<glyph glyph-name="tildecomb" unicode="&#x303;" d="M-178 535 C-132 535 -108 572 -99 594 L-133 612 C-142 591 -155 574 -179 574 C-218 574 -241 614 -287 614 C-330 614 -350 583 -364 560 L-331 540 C-322 558 -308 576 -282 576 C-245 576 -226 535 -178 535 L-178 535 Z " />
<glyph glyph-name="uni0304" unicode="&#x304;" d="M-324 528 L-94 528 L-94 564 L-324 564 L-324 528 Z " />
<glyph glyph-name="uni0306" unicode="&#x306;" d="M-224 519 C-148 519 -102 562 -99 622 L-136 622 C-140 589 -168 555 -224 555 C-280 555 -306 588 -309 622 L-348 622 C-345 562 -298 519 -224 519 L-224 519 Z " />
<glyph glyph-name="uni0307" unicode="&#x307;" d="M-140 536 C-117 536 -99 555 -99 578 C-99 601 -117 619 -140 619 C-163 619 -182 601 -182 578 C-182 555 -163 536 -140 536 L-140 536 Z " />
<glyph glyph-name="uni0308" unicode="&#x308;" d="M-297 597 C-318 597 -334 581 -334 560 C-334 538 -318 522 -297 522 C-276 522 -259 538 -259 560 C-259 581 -276 597 -297 597 L-297 597 Z M-111 597 C-132 597 -148 581 -148 560 C-148 538 -132 522 -111 522 C-90 522 -73 538 -73 560 C-73 581 -90 597 -111 597 L-111 597 Z " />
<glyph glyph-name="uni030A" unicode="&#x30a;" d="M-91 678 C-141 678 -182 638 -182 590 C-182 541 -141 501 -91 501 C-41 501 0 541 0 590 C0 638 -41 678 -91 678 L-91 678 Z M-91 531 C-125 531 -152 557 -152 590 C-152 622 -125 647 -91 647 C-57 647 -31 622 -31 590 C-31 557 -57 531 -91 531 L-91 531 Z " />
<glyph glyph-name="uni030B" unicode="&#x30b;" d="M-293 552 L-203 647 L-256 657 L-384 510 L-362 510 C-344 510 -329 514 -293 552 L-293 552 Z M-167 552 L-77 647 L-131 657 L-258 510 L-236 510 C-218 510 -203 514 -167 552 L-167 552 Z " />
<glyph glyph-name="uni030C" unicode="&#x30c;" d="M-248 529 L-201 529 L-99 635 L-133 635 C-149 635 -157 630 -167 620 L-225 565 L-282 620 C-293 631 -300 635 -316 635 L-350 635 L-248 529 Z " />
<glyph glyph-name="uni0312" unicode="&#x312;" d="M-99 642 C-154 621 -175 575 -176 539 C-178 508 -162 481 -135 481 C-113 481 -100 496 -100 516 C-100 540 -125 551 -144 543 C-144 566 -129 600 -89 620 L-99 642 Z " />
<glyph glyph-name="dotbelowcomb" unicode="&#x323;" d="M-131 -148 C-108 -148 -89 -129 -89 -106 C-89 -83 -108 -64 -131 -64 C-154 -64 -172 -83 -172 -106 C-172 -129 -154 -148 -131 -148 L-131 -148 Z " />
<glyph glyph-name="uni0326" unicode="&#x326;" d="M-161 -206 C-112 -187 -93 -146 -91 -114 C-90 -86 -104 -61 -129 -61 C-149 -61 -160 -75 -160 -93 C-160 -115 -138 -125 -121 -118 C-120 -138 -134 -168 -170 -186 L-161 -206 Z " />
<glyph glyph-name="uni0327" unicode="&#x327;" d="M-161 -51 C-184 -49 -205 -54 -214 -58 L-173 5 L-173 15 L-199 15 L-254 -71 L-237 -87 C-201 -70 -144 -74 -144 -111 C-144 -132 -162 -155 -208 -153 C-237 -151 -262 -142 -273 -135 L-288 -164 C-274 -173 -240 -185 -200 -185 C-140 -185 -98 -157 -98 -114 C-98 -75 -129 -55 -161 -51 L-161 -51 Z " />
<glyph glyph-name="uni0328" unicode="&#x328;" d="M-99 -151 L-109 -121 C-196 -160 -228 -71 -129 -12 L-109 0 L-137 11 C-211 -26 -246 -83 -224 -130 C-204 -172 -141 -179 -99 -151 L-99 -151 Z " />
<glyph glyph-name="uni0331" unicode="&#x331;" d="M-324 -111 L-94 -111 L-94 -76 L-324 -76 L-324 -111 Z " />
<glyph glyph-name="uni0335" unicode="&#x335;" d="M-346 276 L-99 276 L-99 312 L-346 312 L-346 276 Z " />
<glyph glyph-name="uni0336" unicode="&#x336;" d="M-484 275 L-73 275 L-73 311 L-484 311 L-484 275 Z " />
<glyph glyph-name="uni0337" unicode="&#x337;" d="M-279 286 L-279 239 L-98 378 L-98 425 L-279 286 Z " />
<glyph glyph-name="uni0338" unicode="&#x338;" d="M-3 659 L-596 2 L-569 -22 L24 635 L-3 659 Z " />
<glyph glyph-name="uni0394" unicode="&#x394;" horiz-adv-x="620" d="M337 640 L283 640 L30 38 L30 0 L590 0 L590 38 L337 640 Z M310 579 L529 45 L91 45 L310 579 Z " />
<glyph glyph-name="uni03A9" unicode="&#x3a9;" horiz-adv-x="809" d="M515 108 C633 139 710 244 710 370 C710 529 584 655 404 655 C225 655 98 529 98 370 C98 244 176 138 294 107 L294 45 L112 45 L112 0 L344 0 L344 141 C225 153 153 251 153 362 C153 495 254 610 404 610 C555 610 656 495 656 362 C656 251 583 153 464 141 L464 0 L697 0 L697 45 L515 45 L515 108 Z " />
<glyph glyph-name="uni03BC" unicode="&#x3bc;" horiz-adv-x="507" d="M384 441 L384 208 C383 87 320 33 246 33 C167 33 123 88 123 186 L123 441 L71 441 L71 -190 L116 -190 L122 45 C154 9 198 -12 242 -12 C302 -12 362 21 384 100 L384 93 L390 0 L436 0 L436 441 L384 441 Z " />
<glyph glyph-name="pi" unicode="&#x3c0;" horiz-adv-x="604" d="M529 49 C522 45 507 40 489 40 C464 40 444 53 444 94 L443 398 L529 398 L529 441 L71 441 L71 398 L141 398 L141 0 L193 0 L193 398 L391 398 L391 92 C391 12 440 -6 480 -6 C507 -6 529 0 537 5 L529 49 Z " />
<glyph glyph-name="uni0400" unicode="&#x400;" horiz-adv-x="521" d="M334 690 L357 690 L229 837 L176 827 L265 732 C302 694 316 690 334 690 L334 690 Z M453 593 L453 640 L98 640 L98 0 L453 0 L453 47 L152 47 L152 298 L403 298 L403 343 L152 343 L152 593 L453 593 Z " />
<glyph glyph-name="uni0401" unicode="&#x401;" horiz-adv-x="521" d="M179 705 C200 705 217 721 217 743 C217 764 200 780 179 780 C158 780 142 764 142 743 C142 721 158 705 179 705 L179 705 Z M365 705 C386 705 403 721 403 743 C403 764 386 780 365 780 C344 780 328 764 328 743 C328 721 344 705 365 705 L365 705 Z M453 593 L453 640 L98 640 L98 0 L453 0 L453 47 L152 47 L152 298 L403 298 L403 343 L152 343 L152 593 L453 593 Z " />
<glyph glyph-name="uni0402" unicode="&#x402;" horiz-adv-x="655" d="M391 380 C330 380 283 361 247 340 L247 596 L402 596 L402 640 L36 640 L36 596 L193 596 L193 0 L247 0 L247 297 C279 318 319 334 385 334 C475 334 540 276 540 170 C540 46 444 -7 334 12 L334 -36 C474 -54 596 11 596 172 C596 307 502 380 391 380 L391 380 Z " />
<glyph glyph-name="uni0403" unicode="&#x403;" horiz-adv-x="473" d="M292 732 L382 827 L328 837 L201 690 L223 690 C241 690 256 694 292 732 L292 732 Z M437 640 L98 640 L98 0 L152 0 L152 593 L437 593 L437 640 Z " />
<glyph glyph-name="uni0404" unicode="&#x404;" horiz-adv-x="625" d="M387 37 C231 37 126 154 116 298 L425 298 L425 343 L116 343 C126 487 231 604 387 604 C450 604 504 586 547 555 L576 598 C523 634 459 653 387 653 C194 653 58 506 58 321 C58 135 194 -11 387 -11 C459 -11 523 8 576 44 L547 87 C504 56 450 37 387 37 L387 37 Z " />
<glyph glyph-name="uni0405" unicode="&#x405;" horiz-adv-x="521" d="M257 -10 C355 -10 453 43 453 159 C453 255 379 309 288 348 C199 386 134 420 134 492 C134 559 187 604 255 604 C314 604 354 581 391 545 L430 582 C395 619 340 653 257 653 C163 653 79 592 79 492 C79 380 173 342 262 302 C338 268 396 231 396 155 C396 82 330 39 256 39 C180 39 129 67 91 119 L48 82 C88 31 152 -10 257 -10 L257 -10 Z " />
<glyph glyph-name="uni0406" unicode="&#x406;" horiz-adv-x="231" d="M162 640 L108 640 L108 0 L162 0 L162 640 Z " />
<glyph glyph-name="uni0407" unicode="&#x407;" horiz-adv-x="271" d="M42 780 C21 780 5 764 5 743 C5 721 21 705 42 705 C63 705 80 721 80 743 C80 764 63 780 42 780 L42 780 Z M228 780 C207 780 191 764 191 743 C191 721 207 705 228 705 C249 705 266 721 266 743 C266 764 249 780 228 780 L228 780 Z M162 640 L108 640 L108 0 L162 0 L162 640 Z " />
<glyph glyph-name="uni0408" unicode="&#x408;" horiz-adv-x="408" d="M170 -10 C257 -10 325 44 325 170 L325 640 L271 640 L271 165 C271 84 233 39 169 39 C129 39 99 53 70 90 L38 47 C72 13 112 -10 170 -10 L170 -10 Z " />
<glyph glyph-name="uni0409" unicode="&#x409;" horiz-adv-x="958" d="M704 360 L575 360 L575 640 L211 640 L211 352 C211 209 204 44 93 44 C80 44 71 45 60 47 L60 0 C71 -2 85 -3 97 -3 C232 -3 265 139 265 356 L265 593 L521 593 L521 0 L575 0 L704 1 C797 1 895 58 895 180 C895 302 797 360 704 360 L704 360 Z M682 44 L575 45 L575 315 L682 316 C780 317 839 267 839 180 C839 92 780 43 682 44 L682 44 Z " />
<glyph glyph-name="uni040A" unicode="&#x40a;" horiz-adv-x="944" d="M690 360 L561 360 L561 640 L507 640 L507 360 L152 360 L152 640 L98 640 L98 0 L152 0 L152 315 L507 316 L507 0 L561 0 L690 1 C784 1 881 58 881 180 C881 302 784 360 690 360 L690 360 Z M668 44 L561 45 L561 316 L668 316 C767 316 825 267 825 180 C825 92 767 43 668 44 L668 44 Z " />
<glyph glyph-name="uni040B" unicode="&#x40b;" horiz-adv-x="645" d="M398 380 C332 380 276 356 236 330 L236 596 L402 596 L402 640 L36 640 L36 596 L182 596 L182 0 L236 0 L236 285 C276 317 323 335 385 335 C479 335 532 289 532 174 L532 0 L586 0 L586 187 C586 351 488 380 398 380 L398 380 Z " />
<glyph glyph-name="uni040C" unicode="&#x40c;" horiz-adv-x="595" d="M322 732 L412 827 L358 837 L231 690 L253 690 C271 690 286 694 322 732 L322 732 Z M547 0 L209 340 L532 640 L460 640 L152 354 L152 640 L98 640 L98 0 L152 0 L152 325 L472 0 L547 0 Z " />
<glyph glyph-name="uni040D" unicode="&#x40d;" horiz-adv-x="722" d="M423 690 L446 690 L318 837 L265 827 L354 732 C391 694 405 690 423 690 L423 690 Z M572 640 L151 89 L151 640 L98 640 L98 0 L150 0 L571 552 L571 0 L624 0 L624 640 L572 640 Z " />
<glyph glyph-name="uni040E" unicode="&#x40e;" horiz-adv-x="559" d="M257 690 C332 690 379 732 382 792 L344 792 C340 759 313 726 257 726 C200 726 174 759 171 792 L132 792 C135 732 182 690 257 690 L257 690 Z M466 640 L277 280 L93 640 L30 640 L248 224 L130 0 L193 0 L529 640 L466 640 Z " />
<glyph glyph-name="uni040F" unicode="&#x40f;" horiz-adv-x="660" d="M507 640 L507 47 L152 47 L152 640 L98 640 L98 0 L305 0 L305 -120 L355 -120 L355 0 L561 0 L561 640 L507 640 Z " />
<glyph glyph-name="uni0410" unicode="&#x410;" horiz-adv-x="624" d="M535 0 L593 0 L339 640 L285 640 L30 0 L89 0 L167 202 L457 203 L535 0 Z M184 247 L312 578 L439 247 L184 247 Z " />
<glyph glyph-name="uni0411" unicode="&#x411;" horiz-adv-x="543" d="M274 372 L152 372 L152 593 L425 593 L425 640 L98 640 L98 0 L152 0 L274 1 C376 1 481 64 481 186 C481 308 376 372 274 372 L274 372 Z M252 44 L152 45 L152 328 L252 329 C360 330 424 273 424 186 C424 98 360 43 252 44 L252 44 Z " />
<glyph glyph-name="uni0412" unicode="&#x412;" horiz-adv-x="548" d="M312 357 C384 370 428 422 428 490 C428 583 356 640 234 640 L98 640 L98 0 L248 0 C402 0 486 72 486 182 C486 276 419 345 312 357 L312 357 Z M240 596 C325 596 372 558 372 488 C372 421 320 377 248 377 L152 377 L152 596 L240 596 Z M248 44 L152 44 L152 327 L259 327 C359 327 429 273 429 186 C429 99 367 44 248 44 L248 44 Z " />
<glyph glyph-name="uni0413" unicode="&#x413;" horiz-adv-x="473" d="M437 640 L98 640 L98 0 L152 0 L152 593 L437 593 L437 640 Z " />
<glyph glyph-name="uni0414" unicode="&#x414;" horiz-adv-x="694" d="M635 47 L564 47 L564 640 L215 640 L215 467 C215 366 230 161 96 47 L60 47 L60 -120 L104 -120 L111 0 L585 0 L591 -120 L635 -120 L635 47 Z M165 47 C262 146 269 319 269 453 L269 593 L510 593 L510 47 L165 47 Z " />
<glyph glyph-name="uni0415" unicode="&#x415;" horiz-adv-x="521" d="M453 593 L453 640 L98 640 L98 0 L453 0 L453 47 L152 47 L152 298 L403 298 L403 343 L152 343 L152 593 L453 593 Z " />
<glyph glyph-name="uni0416" unicode="&#x416;" horiz-adv-x="940" d="M892 0 L553 340 L877 640 L805 640 L497 354 L497 640 L443 640 L443 354 L136 640 L64 640 L387 340 L48 0 L123 0 L443 325 L443 0 L497 0 L497 325 L817 0 L892 0 Z " />
<glyph glyph-name="uni0417" unicode="&#x417;" horiz-adv-x="530" d="M342 343 C401 366 443 418 441 494 C439 570 371 653 251 653 C178 653 127 634 82 601 L113 558 C144 582 189 605 250 605 C335 605 386 549 387 494 C388 440 364 403 320 383 C285 367 253 364 179 365 L179 317 C253 318 284 315 329 296 C382 273 412 229 411 172 C410 97 345 39 242 39 C156 39 109 78 71 115 L38 70 C93 22 149 -10 243 -10 C381 -10 465 65 467 172 C468 265 412 320 342 343 L342 343 Z " />
<glyph glyph-name="uni0418" unicode="&#x418;" horiz-adv-x="722" d="M572 640 L151 89 L151 640 L98 640 L98 0 L150 0 L571 552 L571 0 L624 0 L624 640 L572 640 Z " />
<glyph glyph-name="uni0419" unicode="&#x419;" horiz-adv-x="722" d="M361 690 C437 690 483 733 486 793 L449 793 C445 760 417 726 361 726 C305 726 279 759 276 793 L237 793 C240 733 287 690 361 690 L361 690 Z M572 640 L151 89 L151 640 L98 640 L98 0 L150 0 L571 552 L571 0 L624 0 L624 640 L572 640 Z " />
<glyph glyph-name="uni041A" unicode="&#x41a;" horiz-adv-x="595" d="M547 0 L209 340 L532 640 L460 640 L152 354 L152 640 L98 640 L98 0 L152 0 L152 325 L472 0 L547 0 Z " />
<glyph glyph-name="uni041B" unicode="&#x41b;" horiz-adv-x="674" d="M575 640 L211 640 L211 328 C211 211 204 44 93 44 C80 44 71 45 60 47 L60 0 C71 -2 85 -3 97 -3 C232 -3 265 134 265 332 L265 593 L521 593 L521 0 L575 0 L575 640 Z " />
<glyph glyph-name="uni041C" unicode="&#x41c;" horiz-adv-x="820" d="M675 640 L410 281 L145 640 L98 640 L98 0 L152 0 L152 547 L410 199 L668 547 L668 0 L722 0 L722 640 L675 640 Z " />
<glyph glyph-name="uni041D" unicode="&#x41d;" horiz-adv-x="683" d="M530 640 L530 356 L152 356 L152 640 L98 640 L98 0 L152 0 L152 311 L530 311 L530 0 L584 0 L584 640 L530 640 Z " />
<glyph glyph-name="uni041E" unicode="&#x41e;" horiz-adv-x="782" d="M391 -10 C587 -10 724 137 724 322 C724 507 587 653 391 653 C195 653 58 507 58 322 C58 137 195 -10 391 -10 L391 -10 Z M391 39 C226 39 115 168 115 322 C115 477 226 604 391 604 C556 604 667 477 667 322 C667 168 556 39 391 39 L391 39 Z " />
<glyph glyph-name="uni041F" unicode="&#x41f;" horiz-adv-x="660" d="M561 640 L98 640 L98 0 L152 0 L152 593 L507 593 L507 0 L561 0 L561 640 Z " />
<glyph glyph-name="uni0420" unicode="&#x420;" horiz-adv-x="514" d="M269 640 L98 640 L98 0 L152 0 L152 280 L269 280 C364 280 468 338 468 460 C468 582 364 640 269 640 L269 640 Z M247 324 L152 324 L152 596 L247 596 C348 596 411 547 411 460 C411 372 348 324 247 324 L247 324 Z " />
<glyph glyph-name="uni0421" unicode="&#x421;" horiz-adv-x="625" d="M387 -11 C459 -11 523 8 576 44 L547 87 C505 56 450 37 387 37 C223 37 115 167 115 321 C115 475 223 604 387 604 C450 604 505 586 547 555 L576 598 C523 634 459 653 387 653 C194 653 58 506 58 321 C58 135 194 -11 387 -11 L387 -11 Z " />
<glyph glyph-name="uni0422" unicode="&#x422;" horiz-adv-x="493" d="M457 640 L36 640 L36 593 L220 593 L220 0 L274 0 L274 593 L457 593 L457 640 Z " />
<glyph glyph-name="uni0423" unicode="&#x423;" horiz-adv-x="559" d="M466 640 L277 280 L93 640 L30 640 L248 224 L130 0 L193 0 L529 640 L466 640 Z " />
<glyph glyph-name="uni0424" unicode="&#x424;" horiz-adv-x="782" d="M734 322 C734 486 605 578 418 586 L418 680 L364 680 L364 586 C177 578 48 486 48 322 C48 159 177 65 364 57 L364 -40 L418 -40 L418 57 C605 65 734 159 734 322 L734 322 Z M105 322 C105 460 208 533 364 540 L364 103 C208 110 105 184 105 322 L105 322 Z M418 103 L418 540 C574 533 677 460 677 322 C677 184 574 110 418 103 L418 103 Z " />
<glyph glyph-name="uni0425" unicode="&#x425;" horiz-adv-x="613" d="M565 0 L339 325 L554 640 L490 640 L307 367 L124 640 L60 640 L274 325 L48 0 L115 0 L307 283 L498 0 L565 0 Z " />
<glyph glyph-name="uni0426" unicode="&#x426;" horiz-adv-x="691" d="M633 47 L561 47 L561 640 L507 640 L507 47 L152 47 L152 640 L98 640 L98 0 L582 0 L589 -120 L633 -120 L633 47 Z " />
<glyph glyph-name="uni0427" unicode="&#x427;" horiz-adv-x="561" d="M408 640 L408 354 C368 323 322 305 260 305 C165 305 112 351 112 466 L112 640 L58 640 L58 453 C58 289 157 260 246 260 C312 260 367 284 408 310 L408 0 L462 0 L462 640 L408 640 Z " />
<glyph glyph-name="uni0428" unicode="&#x428;" horiz-adv-x="899" d="M747 640 L747 47 L477 47 L477 640 L423 640 L423 47 L152 47 L152 640 L98 640 L98 0 L801 0 L801 640 L747 640 Z " />
<glyph glyph-name="uni0429" unicode="&#x429;" horiz-adv-x="931" d="M873 47 L801 47 L801 640 L747 640 L747 47 L477 47 L477 640 L423 640 L423 47 L152 47 L152 640 L98 640 L98 0 L822 0 L829 -120 L873 -120 L873 47 Z " />
<glyph glyph-name="uni042A" unicode="&#x42a;" horiz-adv-x="608" d="M354 360 L225 360 L225 640 L28 640 L28 593 L171 593 L171 0 L225 0 L354 1 C448 1 545 58 545 180 C545 302 448 360 354 360 L354 360 Z M332 44 L225 45 L225 315 L332 316 C431 317 489 267 489 180 C489 92 431 43 332 44 L332 44 Z " />
<glyph glyph-name="uni042B" unicode="&#x42b;" horiz-adv-x="708" d="M281 360 L152 360 L152 640 L98 640 L98 0 L152 0 L281 1 C375 1 472 58 472 180 C472 302 375 360 281 360 L281 360 Z M556 640 L556 0 L610 0 L610 640 L556 640 Z M259 44 L152 45 L152 315 L259 316 C358 317 416 267 416 180 C416 92 358 43 259 44 L259 44 Z " />
<glyph glyph-name="uni042C" unicode="&#x42c;" horiz-adv-x="535" d="M281 360 L152 360 L152 640 L98 640 L98 0 L152 0 L281 1 C375 1 472 58 472 180 C472 302 375 360 281 360 L281 360 Z M259 44 L152 45 L152 315 L259 316 C358 317 416 267 416 180 C416 92 358 43 259 44 L259 44 Z " />
<glyph glyph-name="uni042D" unicode="&#x42d;" horiz-adv-x="625" d="M238 653 C166 653 102 634 49 598 L78 555 C121 586 175 604 238 604 C394 604 499 487 509 343 L200 343 L200 298 L509 298 C499 154 394 37 238 37 C175 37 121 56 78 87 L49 44 C102 8 166 -11 238 -11 C431 -11 567 135 567 321 C567 506 431 653 238 653 L238 653 Z " />
<glyph glyph-name="uni042E" unicode="&#x42e;" horiz-adv-x="959" d="M584 653 C407 653 283 525 268 356 L152 356 L152 640 L98 640 L98 0 L152 0 L152 311 L267 311 C272 131 399 -10 584 -10 C773 -10 901 137 901 322 C901 507 773 653 584 653 L584 653 Z M584 39 C425 39 324 167 324 322 C324 477 425 604 584 604 C742 604 844 477 844 322 C844 167 742 39 584 39 L584 39 Z " />
<glyph glyph-name="uni042F" unicode="&#x42f;" horiz-adv-x="541" d="M442 640 L278 640 C167 640 78 575 78 468 C78 359 172 305 263 301 L34 0 L101 0 L325 301 L388 301 L388 0 L442 0 L442 640 Z M290 346 C198 346 135 385 135 468 C135 551 197 595 295 595 L388 595 L388 346 L290 346 Z " />
<glyph glyph-name="uni0430" unicode="&#x430;" horiz-adv-x="551" d="M437 441 L429 352 C394 414 334 453 256 453 C139 453 47 361 47 222 C47 83 139 -9 256 -9 C334 -9 394 30 429 91 L437 0 L480 0 L480 441 L437 441 Z M267 36 C169 36 100 117 100 222 C100 327 169 408 266 408 C365 408 434 327 434 222 C434 116 365 36 267 36 L267 36 Z " />
<glyph glyph-name="uni0431" unicode="&#x431;" horiz-adv-x="555" d="M284 -10 C421 -10 497 94 497 210 C497 317 422 417 290 417 C202 417 135 359 110 283 C99 422 162 546 265 581 C323 599 397 601 450 649 L424 688 C374 646 303 641 254 625 C135 591 58 475 58 312 C58 234 69 167 95 111 C129 34 193 -10 284 -10 L284 -10 Z M285 36 C188 36 127 112 127 207 C127 299 195 372 285 372 C374 372 442 299 442 207 C442 112 379 36 285 36 L285 36 Z " />
<glyph glyph-name="uni0432" unicode="&#x432;" horiz-adv-x="486" d="M299 246 C346 255 379 291 379 338 C379 402 325 441 239 441 L71 441 L71 0 L248 0 C359 0 419 49 419 127 C419 191 374 238 299 246 L299 246 Z M242 399 C289 399 328 380 328 333 C328 290 292 263 248 263 L122 263 L122 399 L242 399 Z M253 43 L122 43 L122 223 L255 223 C321 223 367 187 367 130 C367 69 321 43 253 43 L253 43 Z " />
<glyph glyph-name="uni0433" unicode="&#x433;" horiz-adv-x="356" d="M338 441 L71 441 L71 0 L123 0 L123 396 L338 396 L338 441 Z " />
<glyph glyph-name="uni0434" unicode="&#x434;" horiz-adv-x="508" d="M476 45 L416 45 L416 441 L139 441 L139 343 C139 277 150 142 63 45 L27 45 L27 -110 L65 -110 L72 0 L429 0 L436 -110 L476 -110 L476 45 Z M191 303 L191 397 L364 397 L364 45 L122 45 C186 122 191 230 191 303 L191 303 Z " />
<glyph glyph-name="uni0435" unicode="&#x435;" horiz-adv-x="517" d="M471 243 C471 359 388 453 264 453 C137 453 47 351 47 225 C47 95 135 -9 274 -9 C347 -9 411 20 449 64 L412 94 C381 58 334 36 274 36 C166 36 102 117 101 221 L471 221 L471 243 Z M264 408 C352 408 412 347 419 260 L104 260 C117 346 178 408 264 408 L264 408 Z " />
<glyph glyph-name="uni0436" unicode="&#x436;" horiz-adv-x="726" d="M703 0 L445 241 L676 441 L604 441 L389 255 L389 441 L337 441 L337 255 L122 441 L50 441 L281 241 L23 0 L95 0 L337 226 L337 0 L389 0 L389 226 L631 0 L703 0 Z " />
<glyph glyph-name="uni0437" unicode="&#x437;" horiz-adv-x="421" d="M280 239 C325 255 356 292 355 345 C354 399 302 457 196 457 C142 457 96 443 62 421 L85 382 C110 399 149 414 195 414 C268 414 302 378 303 345 C304 308 287 285 257 271 C232 260 201 258 148 259 L148 216 C201 216 231 218 263 204 C300 188 321 159 320 120 C320 74 278 35 195 35 C130 35 92 54 65 73 L37 39 C76 10 127 -10 195 -10 C312 -10 372 44 374 119 C375 184 334 223 280 239 L280 239 Z " />
<glyph glyph-name="uni0438" unicode="&#x438;" horiz-adv-x="508" d="M387 441 L123 78 L123 441 L71 441 L71 0 L122 0 L385 363 L386 0 L437 0 L437 441 L387 441 Z " />
<glyph glyph-name="uni0439" unicode="&#x439;" horiz-adv-x="508" d="M248 521 C324 521 370 564 373 624 L336 624 C332 591 304 557 248 557 C192 557 166 590 163 624 L124 624 C127 564 174 521 248 521 L248 521 Z M387 441 L123 78 L123 441 L71 441 L71 0 L122 0 L385 363 L386 0 L437 0 L437 441 L387 441 Z " />
<glyph glyph-name="uni043A" unicode="&#x43a;" horiz-adv-x="423" d="M400 0 L167 234 L390 441 L331 441 L123 248 L123 441 L71 441 L71 0 L123 0 L123 219 L339 0 L400 0 Z " />
<glyph glyph-name="uni043B" unicode="&#x43b;" horiz-adv-x="479" d="M408 441 L132 441 L132 242 C132 149 128 42 50 42 C41 42 33 43 27 44 L27 -1 C34 -2 58 -3 66 -3 C160 -3 183 97 183 238 L183 396 L356 396 L356 -1 L408 -1 L408 441 Z " />
<glyph glyph-name="uni043C" unicode="&#x43c;" horiz-adv-x="595" d="M477 441 L298 196 L118 441 L71 441 L71 0 L123 0 L123 360 L298 124 L472 360 L472 0 L524 0 L524 441 L477 441 Z " />
<glyph glyph-name="uni043D" unicode="&#x43d;" horiz-adv-x="487" d="M364 441 L364 251 L123 251 L123 441 L71 441 L71 0 L123 0 L123 209 L364 209 L364 0 L416 0 L416 441 L364 441 Z " />
<glyph glyph-name="uni043E" unicode="&#x43e;" horiz-adv-x="555" d="M278 -10 C412 -10 508 93 508 222 C508 350 412 453 278 453 C142 453 47 350 47 222 C47 93 142 -10 278 -10 L278 -10 Z M278 36 C175 36 101 118 101 222 C101 325 175 408 278 408 C380 408 454 325 454 222 C454 118 380 36 278 36 L278 36 Z " />
<glyph glyph-name="uni043F" unicode="&#x43f;" horiz-adv-x="507" d="M436 441 L71 441 L71 0 L123 0 L123 398 L384 398 L384 0 L436 0 L436 441 Z " />
<glyph glyph-name="uni0440" unicode="&#x440;" horiz-adv-x="551" d="M295 453 C217 453 156 413 121 351 L116 441 L71 441 L71 -210 L123 -210 L123 89 C158 29 218 -9 295 -9 C412 -9 504 83 504 222 C504 361 412 453 295 453 L295 453 Z M284 36 C186 36 116 116 116 222 C116 327 186 408 285 408 C382 408 450 327 450 222 C450 117 382 36 284 36 L284 36 Z " />
<glyph glyph-name="uni0441" unicode="&#x441;" horiz-adv-x="453" d="M272 -10 C329 -10 378 9 416 40 L385 77 C356 51 317 35 272 35 C165 35 100 117 100 222 C100 327 165 409 272 409 C317 409 356 393 385 367 L416 404 C378 435 329 453 272 453 C136 453 47 350 47 222 C47 94 136 -10 272 -10 L272 -10 Z " />
<glyph glyph-name="uni0442" unicode="&#x442;" horiz-adv-x="418" d="M384 441 L34 441 L34 398 L184 398 L184 0 L235 0 L235 398 L384 398 L384 441 Z " />
<glyph glyph-name="uni0443" unicode="&#x443;" horiz-adv-x="462" d="M387 441 L230 70 L75 441 L19 441 L205 10 L108 -210 L162 -210 L443 441 L387 441 Z " />
<glyph glyph-name="uni0444" unicode="&#x444;" horiz-adv-x="632" d="M585 222 C585 356 485 443 341 452 L341 680 L291 680 L291 452 C146 443 47 356 47 222 C47 88 146 0 291 -9 L291 -210 L341 -210 L341 -9 C485 0 585 88 585 222 L585 222 Z M101 222 C101 331 180 399 293 407 L293 37 C180 45 101 112 101 222 L101 222 Z M339 37 L339 407 C451 399 531 331 531 222 C531 112 451 45 339 37 L339 37 Z " />
<glyph glyph-name="uni0445" unicode="&#x445;" horiz-adv-x="446" d="M423 0 L252 232 L404 441 L343 441 L223 269 L103 441 L42 441 L194 232 L23 0 L85 0 L223 194 L361 0 L423 0 Z " />
<glyph glyph-name="uni0446" unicode="&#x446;" horiz-adv-x="514" d="M482 45 L421 45 L421 441 L370 441 L370 45 L123 45 L123 441 L71 441 L71 0 L435 0 L442 -110 L482 -110 L482 45 Z " />
<glyph glyph-name="uni0447" unicode="&#x447;" horiz-adv-x="455" d="M332 441 L332 240 C298 212 262 201 216 201 C149 201 109 235 109 314 L109 441 L57 441 L57 305 C57 180 137 155 206 155 C257 155 300 175 332 198 L332 0 L384 0 L384 441 L332 441 Z " />
<glyph glyph-name="uni0448" unicode="&#x448;" horiz-adv-x="667" d="M544 441 L544 44 L359 44 L359 441 L308 441 L308 44 L123 44 L123 441 L71 441 L71 -1 L596 -1 L596 441 L544 441 Z " />
<glyph glyph-name="uni0449" unicode="&#x449;" horiz-adv-x="689" d="M657 45 L596 45 L596 441 L544 441 L544 45 L359 45 L359 441 L308 441 L308 45 L123 45 L123 441 L71 441 L71 0 L609 0 L616 -110 L657 -110 L657 45 Z " />
<glyph glyph-name="uni044A" unicode="&#x44a;" horiz-adv-x="529" d="M323 274 L205 274 L205 441 L35 441 L35 398 L153 398 L153 0 L205 0 L323 1 C401 1 482 44 482 136 C482 230 401 274 323 274 L323 274 Z M307 44 L205 45 L205 229 L307 230 C383 230 428 196 428 136 C428 78 383 44 307 44 L307 44 Z " />
<glyph glyph-name="uni044B" unicode="&#x44b;" horiz-adv-x="639" d="M241 274 L123 274 L123 441 L71 441 L71 0 L123 0 L241 1 C318 1 399 44 399 136 C399 230 318 274 241 274 L241 274 Z M516 441 L516 0 L568 0 L568 441 L516 441 Z M225 44 L123 45 L123 229 L225 230 C300 230 345 196 345 136 C345 78 300 44 225 44 L225 44 Z " />
<glyph glyph-name="uni044C" unicode="&#x44c;" horiz-adv-x="426" d="M241 274 L123 274 L123 441 L71 441 L71 0 L123 0 L241 1 C318 1 399 44 399 136 C399 230 318 274 241 274 L241 274 Z M225 44 L123 45 L123 229 L225 230 C300 230 345 196 345 136 C345 78 300 44 225 44 L225 44 Z " />
<glyph glyph-name="uni044D" unicode="&#x44d;" horiz-adv-x="453" d="M182 453 C125 453 76 435 37 404 L68 367 C97 393 137 409 182 409 C282 409 345 337 352 242 L132 242 L132 202 L352 202 C345 107 282 35 182 35 C137 35 97 51 68 77 L37 40 C76 9 125 -10 182 -10 C317 -10 406 94 406 222 C406 350 317 453 182 453 L182 453 Z " />
<glyph glyph-name="uni044E" unicode="&#x44e;" horiz-adv-x="704" d="M440 453 C319 453 233 362 223 244 L123 244 L123 441 L71 441 L71 0 L123 0 L123 200 L223 200 C232 81 319 -10 440 -10 C566 -10 658 93 658 222 C658 350 566 453 440 453 L440 453 Z M440 36 C344 36 276 118 276 222 C276 325 344 408 440 408 C534 408 603 325 603 222 C603 118 534 36 440 36 L440 36 Z " />
<glyph glyph-name="uni044F" unicode="&#x44f;" horiz-adv-x="464" d="M393 441 L212 441 C130 441 66 396 66 323 C66 249 130 208 195 203 L41 0 L101 0 L250 202 L342 202 L342 0 L393 0 L393 441 Z M220 245 C159 245 119 269 119 322 C119 372 159 399 224 399 L342 399 L342 245 L220 245 Z " />
<glyph glyph-name="uni0450" unicode="&#x450;" horiz-adv-x="517" d="M326 521 L349 521 L221 668 L168 658 L257 563 C294 525 308 521 326 521 L326 521 Z M471 243 C471 359 388 453 264 453 C137 453 47 351 47 225 C47 95 135 -9 274 -9 C347 -9 411 20 449 64 L412 94 C381 58 334 36 274 36 C166 36 102 117 101 221 L471 221 L471 243 Z M264 408 C352 408 412 347 419 260 L104 260 C117 346 178 408 264 408 L264 408 Z " />
<glyph glyph-name="uni0451" unicode="&#x451;" horiz-adv-x="517" d="M171 537 C192 537 209 553 209 575 C209 596 192 612 171 612 C150 612 134 596 134 575 C134 553 150 537 171 537 L171 537 Z M357 537 C378 537 395 553 395 575 C395 596 378 612 357 612 C336 612 320 596 320 575 C320 553 336 537 357 537 L357 537 Z M471 243 C471 359 388 453 264 453 C137 453 47 351 47 225 C47 95 135 -9 274 -9 C347 -9 411 20 449 64 L412 94 C381 58 334 36 274 36 C166 36 102 117 101 221 L471 221 L471 243 Z M264 408 C352 408 412 347 419 260 L104 260 C117 346 178 408 264 408 L264 408 Z " />
<glyph glyph-name="uni0452" unicode="&#x452;" horiz-adv-x="536" d="M313 294 C245 294 190 258 164 206 L164 398 L358 398 L358 441 L164 441 L164 680 L113 680 L113 441 L47 441 L47 398 L113 398 L113 0 L164 0 L164 97 C166 200 233 249 303 249 C378 249 436 195 436 107 C436 12 365 -25 314 -25 C290 -25 280 -23 264 -19 L263 -61 C285 -67 298 -69 326 -69 C399 -69 489 -13 489 110 C489 247 390 294 313 294 L313 294 Z " />
<glyph glyph-name="uni0453" unicode="&#x453;" horiz-adv-x="356" d="M229 563 L319 658 L265 668 L138 521 L160 521 C178 521 193 525 229 563 L229 563 Z M338 441 L71 441 L71 0 L123 0 L123 396 L338 396 L338 441 Z " />
<glyph glyph-name="uni0454" unicode="&#x454;" horiz-adv-x="453" d="M271 35 C171 35 108 107 101 202 L321 202 L321 242 L101 242 C108 337 171 409 271 409 C316 409 356 393 385 367 L416 404 C377 435 328 453 271 453 C136 453 47 350 47 222 C47 94 136 -10 271 -10 C328 -10 377 9 416 40 L385 77 C356 51 316 35 271 35 L271 35 Z " />
<glyph glyph-name="uni0455" unicode="&#x455;" horiz-adv-x="403" d="M37 65 C62 24 122 -10 196 -10 C290 -10 356 39 356 117 C356 285 114 204 113 330 C113 377 147 407 207 408 C250 408 285 391 311 366 L344 400 C316 428 269 453 207 453 C118 453 59 403 60 327 C60 161 301 239 301 115 C301 67 262 36 195 36 C143 36 101 59 76 96 L37 65 Z " />
<glyph glyph-name="uni0456" unicode="&#x456;" horiz-adv-x="221" d="M109 546 C132 546 151 565 151 587 C151 610 132 629 109 629 C86 629 67 610 67 587 C67 565 86 546 109 546 L109 546 Z M83 0 L135 0 L135 441 L83 441 L83 0 Z " />
<glyph glyph-name="uni0457" unicode="&#x457;" horiz-adv-x="221" d="M16 612 C-5 612 -21 596 -21 575 C-21 553 -5 537 16 537 C37 537 54 553 54 575 C54 596 37 612 16 612 L16 612 Z M202 612 C181 612 165 596 165 575 C165 553 181 537 202 537 C223 537 240 553 240 575 C240 596 223 612 202 612 L202 612 Z M83 0 L135 0 L135 441 L83 441 L83 0 Z " />
<glyph glyph-name="uni0458" unicode="&#x458;" horiz-adv-x="246" d="M134 546 C157 546 176 565 176 587 C176 610 157 629 134 629 C111 629 92 610 92 587 C92 565 111 546 134 546 L134 546 Z M160 -62 L160 441 L108 441 L108 -62 C108 -135 81 -173 -3 -164 L-3 -208 C74 -219 160 -198 160 -62 L160 -62 Z " />
<glyph glyph-name="uni0459" unicode="&#x459;" horiz-adv-x="711" d="M526 274 L408 274 L408 441 L132 441 L132 242 C132 149 128 42 50 42 C41 42 33 43 27 44 L27 -1 C34 -2 58 -3 66 -3 C160 -3 183 97 183 238 L183 396 L356 396 L356 0 L408 0 L526 1 C603 1 684 44 684 136 C684 230 603 274 526 274 L526 274 Z M510 44 L408 45 L408 229 L510 230 C585 230 630 196 630 136 C630 78 585 44 510 44 L510 44 Z " />
<glyph glyph-name="uni045A" unicode="&#x45a;" horiz-adv-x="719" d="M534 274 L404 274 L404 441 L353 441 L353 274 L123 274 L123 441 L71 441 L71 0 L123 0 L123 229 L353 230 L353 0 L404 0 L534 1 C611 1 692 44 692 136 C692 230 611 274 534 274 L534 274 Z M518 44 L404 45 L404 230 L518 230 C593 230 638 196 638 136 C638 78 593 44 518 44 L518 44 Z " />
<glyph glyph-name="uni045B" unicode="&#x45b;" horiz-adv-x="536" d="M307 294 C239 294 189 258 164 206 L164 398 L358 398 L358 441 L164 441 L164 680 L113 680 L113 441 L47 441 L47 398 L113 398 L113 0 L164 0 L164 96 C166 199 226 249 297 249 C371 249 417 196 417 96 L417 0 L469 0 L469 105 C469 252 382 294 307 294 L307 294 Z " />
<glyph glyph-name="uni045C" unicode="&#x45c;" horiz-adv-x="423" d="M248 563 L338 658 L284 668 L157 521 L179 521 C197 521 212 525 248 563 L248 563 Z M400 0 L167 234 L390 441 L331 441 L123 248 L123 441 L71 441 L71 0 L123 0 L123 219 L339 0 L400 0 Z " />
<glyph glyph-name="uni045D" unicode="&#x45d;" horiz-adv-x="508" d="M310 521 L333 521 L205 668 L152 658 L241 563 C278 525 292 521 310 521 L310 521 Z M387 441 L123 78 L123 441 L71 441 L71 0 L122 0 L385 363 L386 0 L437 0 L437 441 L387 441 Z " />
<glyph glyph-name="uni045E" unicode="&#x45e;" horiz-adv-x="462" d="M231 521 C307 521 353 564 356 624 L318 624 C315 591 287 557 231 557 C175 557 148 590 145 624 L107 624 C110 564 157 521 231 521 L231 521 Z M387 441 L230 70 L75 441 L19 441 L205 10 L108 -210 L162 -210 L443 441 L387 441 Z " />
<glyph glyph-name="uni045F" unicode="&#x45f;" horiz-adv-x="492" d="M370 450 L370 44 L123 44 L123 450 L71 450 L71 -1 L223 -1 L223 -111 L270 -111 L270 -1 L421 -1 L421 450 L370 450 Z " />
<glyph glyph-name="uni0462" unicode="&#x462;" horiz-adv-x="552" d="M299 360 L170 360 L170 482 L362 482 L362 526 L170 526 L170 640 L116 640 L116 526 L36 526 L36 482 L116 482 L116 0 L170 0 L299 1 C392 1 490 58 490 180 C490 302 392 360 299 360 L299 360 Z M276 44 L170 45 L170 315 L276 316 C375 317 433 267 433 180 C433 92 375 43 276 44 L276 44 Z " />
<glyph glyph-name="uni0463" unicode="&#x463;" horiz-adv-x="508" d="M282 278 L164 278 L164 398 L358 398 L358 441 L164 441 L164 680 L113 680 L113 441 L47 441 L47 398 L113 398 L113 0 L164 0 L282 1 C360 1 441 45 441 139 C441 233 360 278 282 278 L282 278 Z M267 44 L164 45 L164 234 L267 234 C342 235 387 199 387 139 C387 78 342 44 267 44 L267 44 Z " />
<glyph glyph-name="uni0472" unicode="&#x472;" horiz-adv-x="782" d="M391 653 C195 653 58 507 58 322 C58 137 195 -10 391 -10 C587 -10 724 137 724 322 C724 507 587 653 391 653 L391 653 Z M391 604 C549 604 657 488 666 342 L116 342 C125 488 233 604 391 604 L391 604 Z M391 39 C234 39 125 156 116 301 L666 301 C657 156 548 39 391 39 L391 39 Z " />
<glyph glyph-name="uni0473" unicode="&#x473;" horiz-adv-x="555" d="M278 453 C141 453 47 350 47 222 C47 93 141 -10 278 -10 C414 -10 508 93 508 222 C508 350 414 453 278 453 L278 453 Z M278 408 C376 408 446 335 453 239 L101 239 C108 335 179 408 278 408 L278 408 Z M278 36 C179 36 109 107 101 203 L453 203 C445 107 376 36 278 36 L278 36 Z " />
<glyph glyph-name="uni0474" unicode="&#x474;" horiz-adv-x="688" d="M613 644 C585 644 530 637 501 561 L311 68 L90 640 L30 640 L289 0 L334 0 L552 549 C567 588 598 596 615 596 C628 596 640 593 651 588 L667 633 C652 640 631 644 613 644 L613 644 Z " />
<glyph glyph-name="uni0475" unicode="&#x475;" horiz-adv-x="516" d="M463 450 C429 450 395 440 370 381 L233 60 L75 441 L19 441 L212 0 L255 0 L413 366 C427 399 447 406 462 406 C473 406 484 403 491 400 L507 441 C493 446 480 450 463 450 L463 450 Z " />
<glyph glyph-name="uni0490" unicode="&#x490;" horiz-adv-x="473" d="M395 760 L390 640 L98 640 L98 0 L152 0 L152 593 L437 593 L437 760 L395 760 Z " />
<glyph glyph-name="uni0491" unicode="&#x491;" horiz-adv-x="356" d="M296 563 L291 441 L71 441 L71 0 L123 0 L123 396 L338 396 L338 563 L296 563 Z " />
<glyph glyph-name="uni04BB" unicode="&#x4bb;" horiz-adv-x="502" d="M268 453 C200 453 149 418 123 367 L123 680 L71 680 L71 0 L123 0 L123 282 C134 367 192 408 258 408 C336 408 383 355 383 256 L383 0 L435 0 L435 265 C435 411 346 453 268 453 L268 453 Z " />
<glyph glyph-name="uni04C0" unicode="&#x4c0;" horiz-adv-x="271" d="M162 640 L108 640 L108 0 L162 0 L162 640 Z " />
<glyph glyph-name="uni04D8" unicode="&#x4d8;" horiz-adv-x="718" d="M341 655 C238 655 152 615 98 552 L141 518 C188 573 254 606 341 606 C494 606 596 490 603 340 L58 340 L58 310 C58 123 174 -12 348 -12 C532 -12 660 137 660 322 C660 506 530 655 341 655 L341 655 Z M348 36 C211 36 120 137 115 294 L602 294 C590 148 491 36 348 36 L348 36 Z " />
<glyph glyph-name="uni04D9" unicode="&#x4d9;" horiz-adv-x="518" d="M243 450 C170 450 106 421 68 377 L105 347 C136 383 183 405 243 405 C351 405 415 324 416 220 L46 220 L46 198 C46 82 129 -12 253 -12 C380 -12 470 90 470 216 C470 346 382 450 243 450 L243 450 Z M253 33 C165 33 105 94 98 181 L413 181 C399 96 339 33 253 33 L253 33 Z " />
<glyph glyph-name="uni04E2" unicode="&#x4e2;" horiz-adv-x="722" d="M476 762 L246 762 L246 726 L476 726 L476 762 Z M572 640 L151 89 L151 640 L98 640 L98 0 L150 0 L571 552 L571 0 L624 0 L624 640 L572 640 Z " />
<glyph glyph-name="uni04E3" unicode="&#x4e3;" horiz-adv-x="508" d="M363 593 L133 593 L133 557 L363 557 L363 593 Z M387 441 L123 78 L123 441 L71 441 L71 0 L122 0 L385 363 L386 0 L437 0 L437 441 L387 441 Z " />
<glyph glyph-name="uni04E8" unicode="&#x4e8;" horiz-adv-x="782" d="M391 653 C195 653 58 507 58 322 C58 137 195 -10 391 -10 C587 -10 724 137 724 322 C724 507 587 653 391 653 L391 653 Z M391 604 C549 604 657 488 666 342 L116 342 C125 488 233 604 391 604 L391 604 Z M391 39 C234 39 125 156 116 301 L666 301 C657 156 548 39 391 39 L391 39 Z " />
<glyph glyph-name="uni04E9" unicode="&#x4e9;" horiz-adv-x="555" d="M278 453 C141 453 47 350 47 222 C47 93 141 -10 278 -10 C414 -10 508 93 508 222 C508 350 414 453 278 453 L278 453 Z M278 408 C376 408 446 335 453 239 L101 239 C108 335 179 408 278 408 L278 408 Z M278 36 C179 36 109 107 101 203 L453 203 C445 107 376 36 278 36 L278 36 Z " />
<glyph glyph-name="uni04EE" unicode="&#x4ee;" horiz-adv-x="559" d="M394 762 L164 762 L164 726 L394 726 L394 762 Z M466 640 L277 280 L93 640 L30 640 L248 224 L130 0 L193 0 L529 640 L466 640 Z " />
<glyph glyph-name="uni04EF" unicode="&#x4ef;" horiz-adv-x="462" d="M346 593 L116 593 L116 557 L346 557 L346 593 Z M387 441 L230 70 L75 441 L19 441 L205 10 L108 -210 L162 -210 L443 441 L387 441 Z " />
<glyph glyph-name="uni0E3F" unicode="&#xe3f;" horiz-adv-x="560" d="M483 182 C483 276 417 345 309 357 C381 370 425 422 425 490 C425 572 369 626 272 638 L272 744 L235 744 L235 640 L232 640 L96 640 L96 0 L235 0 L235 -98 L272 -98 L272 1 C409 8 483 78 483 182 L483 182 Z M235 596 L235 377 L150 377 L150 596 L235 596 Z M370 488 C370 429 330 388 272 379 L272 594 C336 584 370 548 370 488 L370 488 Z M150 44 L150 327 L235 327 L235 44 L150 44 Z M272 45 L272 327 C364 321 427 269 427 186 C427 106 374 52 272 45 L272 45 Z " />
<glyph glyph-name="uni1E02" unicode="&#x1e02;" horiz-adv-x="548" d="M251 710 C274 710 292 729 292 752 C292 775 274 793 251 793 C228 793 209 775 209 752 C209 729 228 710 251 710 L251 710 Z M312 357 C384 370 428 422 428 490 C428 583 356 640 234 640 L98 640 L98 0 L248 0 C402 0 486 72 486 182 C486 276 419 345 312 357 L312 357 Z M240 596 C325 596 372 558 372 488 C372 421 320 377 248 377 L152 377 L152 596 L240 596 Z M248 44 L152 44 L152 327 L259 327 C359 327 429 273 429 186 C429 99 367 44 248 44 L248 44 Z " />
<glyph glyph-name="uni1E03" unicode="&#x1e03;" horiz-adv-x="550" d="M294 453 C217 453 158 415 123 356 L123 680 L71 680 L71 0 L114 0 L121 91 C155 30 216 -9 293 -9 C410 -9 503 83 503 222 C503 361 410 453 294 453 L294 453 Z M302 541 C325 541 343 560 343 583 C343 606 325 624 302 624 C279 624 260 606 260 583 C260 560 279 541 302 541 L302 541 Z M283 36 C184 36 115 116 115 222 C115 327 184 408 284 408 C381 408 449 327 449 222 C449 117 381 36 283 36 L283 36 Z " />
<glyph glyph-name="uni1E04" unicode="&#x1e04;" horiz-adv-x="548" d="M312 357 C384 370 428 422 428 490 C428 583 356 640 234 640 L98 640 L98 0 L248 0 C402 0 486 72 486 182 C486 276 419 345 312 357 L312 357 Z M240 596 C325 596 372 558 372 488 C372 421 320 377 248 377 L152 377 L152 596 L240 596 Z M248 44 L152 44 L152 327 L259 327 C359 327 429 273 429 186 C429 99 367 44 248 44 L248 44 Z M263 -64 C240 -64 222 -83 222 -106 C222 -129 240 -148 263 -148 C286 -148 305 -129 305 -106 C305 -83 286 -64 263 -64 L263 -64 Z " />
<glyph glyph-name="uni1E05" unicode="&#x1e05;" horiz-adv-x="550" d="M294 453 C217 453 158 415 123 356 L123 680 L71 680 L71 0 L114 0 L121 91 C155 30 216 -9 293 -9 C410 -9 503 83 503 222 C503 361 410 453 294 453 L294 453 Z M283 36 C184 36 115 116 115 222 C115 327 184 408 284 408 C381 408 449 327 449 222 C449 117 381 36 283 36 L283 36 Z M275 -64 C252 -64 234 -83 234 -106 C234 -129 252 -148 275 -148 C298 -148 317 -129 317 -106 C317 -83 298 -64 275 -64 L275 -64 Z " />
<glyph glyph-name="uni1E0A" unicode="&#x1e0a;" horiz-adv-x="642" d="M290 710 C313 710 331 729 331 752 C331 775 313 793 290 793 C267 793 248 775 248 752 C248 729 267 710 290 710 L290 710 Z M237 640 L98 640 L98 0 L237 0 C466 0 583 143 583 321 C583 498 466 640 237 640 L237 640 Z M229 44 L152 44 L152 596 L229 596 C412 596 527 497 527 321 C527 143 412 44 229 44 L229 44 Z " />
<glyph glyph-name="uni1E0B" unicode="&#x1e0b;" horiz-adv-x="550" d="M427 680 L427 356 C392 415 332 453 256 453 C139 453 47 361 47 222 C47 83 139 -9 256 -9 C334 -9 395 30 429 91 L436 0 L479 0 L479 680 L427 680 Z M248 541 C271 541 289 560 289 583 C289 606 271 624 248 624 C225 624 206 606 206 583 C206 560 225 541 248 541 L248 541 Z M267 36 C169 36 100 117 100 222 C100 327 169 408 266 408 C365 408 434 327 434 222 C434 116 365 36 267 36 L267 36 Z " />
<glyph glyph-name="uni1E0C" unicode="&#x1e0c;" horiz-adv-x="642" d="M237 640 L98 640 L98 0 L237 0 C466 0 583 143 583 321 C583 498 466 640 237 640 L237 640 Z M229 44 L152 44 L152 596 L229 596 C412 596 527 497 527 321 C527 143 412 44 229 44 L229 44 Z M289 -64 C266 -64 248 -83 248 -106 C248 -129 266 -148 289 -148 C312 -148 331 -129 331 -106 C331 -83 312 -64 289 -64 L289 -64 Z " />
<glyph glyph-name="uni1E0D" unicode="&#x1e0d;" horiz-adv-x="550" d="M427 680 L427 356 C392 415 332 453 256 453 C139 453 47 361 47 222 C47 83 139 -9 256 -9 C334 -9 395 30 429 91 L436 0 L479 0 L479 680 L427 680 Z M267 36 C169 36 100 117 100 222 C100 327 169 408 266 408 C365 408 434 327 434 222 C434 116 365 36 267 36 L267 36 Z M286 -64 C263 -64 245 -83 245 -106 C245 -129 263 -148 286 -148 C309 -148 328 -129 328 -106 C328 -83 309 -64 286 -64 L286 -64 Z " />
<glyph glyph-name="uni1E0E" unicode="&#x1e0e;" horiz-adv-x="642" d="M237 640 L98 640 L98 0 L237 0 C466 0 583 143 583 321 C583 498 466 640 237 640 L237 640 Z M229 44 L152 44 L152 596 L229 596 C412 596 527 497 527 321 C527 143 412 44 229 44 L229 44 Z M175 -116 L405 -116 L405 -81 L175 -81 L175 -116 Z " />
<glyph glyph-name="uni1E0F" unicode="&#x1e0f;" horiz-adv-x="550" d="M427 680 L427 356 C392 415 332 453 256 453 C139 453 47 361 47 222 C47 83 139 -9 256 -9 C334 -9 395 30 429 91 L436 0 L479 0 L479 680 L427 680 Z M267 36 C169 36 100 117 100 222 C100 327 169 408 266 408 C365 408 434 327 434 222 C434 116 365 36 267 36 L267 36 Z M171 -116 L401 -116 L401 -81 L171 -81 L171 -116 Z " />
<glyph glyph-name="uni1E12" unicode="&#x1e12;" horiz-adv-x="642" d="M237 640 L98 640 L98 0 L237 0 C466 0 583 143 583 321 C583 498 466 640 237 640 L237 640 Z M229 44 L152 44 L152 596 L229 596 C412 596 527 497 527 321 C527 143 412 44 229 44 L229 44 Z M266 -53 L163 -159 L198 -159 C214 -159 221 -154 232 -144 L289 -89 L346 -144 C357 -155 364 -159 380 -159 L415 -159 L312 -53 L266 -53 Z " />
<glyph glyph-name="uni1E13" unicode="&#x1e13;" horiz-adv-x="550" d="M427 680 L427 356 C392 415 332 453 256 453 C139 453 47 361 47 222 C47 83 139 -9 256 -9 C334 -9 395 30 429 91 L436 0 L479 0 L479 680 L427 680 Z M267 36 C169 36 100 117 100 222 C100 327 169 408 266 408 C365 408 434 327 434 222 C434 116 365 36 267 36 L267 36 Z M263 -53 L160 -159 L195 -159 C211 -159 218 -154 229 -144 L286 -89 L343 -144 C354 -155 361 -159 377 -159 L412 -159 L309 -53 L263 -53 Z " />
<glyph glyph-name="uni1E1E" unicode="&#x1e1e;" horiz-adv-x="496" d="M275 710 C298 710 316 729 316 752 C316 775 298 793 275 793 C252 793 233 775 233 752 C233 729 252 710 275 710 L275 710 Z M452 593 L452 640 L98 640 L98 0 L152 0 L152 298 L402 298 L402 343 L152 343 L152 593 L452 593 Z " />
<glyph glyph-name="uni1E1F" unicode="&#x1e1f;" horiz-adv-x="313" d="M188 749 C211 749 229 768 229 791 C229 814 211 832 188 832 C165 832 146 814 146 791 C146 768 165 749 188 749 L188 749 Z M236 648 C255 648 274 642 296 628 L317 666 C289 682 265 693 228 693 C169 693 113 654 113 564 L113 441 L47 441 L47 398 L113 398 L113 0 L164 0 L164 398 L276 398 L276 441 L164 441 L164 562 C164 616 191 648 236 648 L236 648 Z " />
<glyph glyph-name="uni1E24" unicode="&#x1e24;" horiz-adv-x="683" d="M530 640 L530 356 L152 356 L152 640 L98 640 L98 0 L152 0 L152 311 L530 311 L530 0 L584 0 L584 640 L530 640 Z M341 -64 C318 -64 300 -83 300 -106 C300 -129 318 -148 341 -148 C364 -148 383 -129 383 -106 C383 -83 364 -64 341 -64 L341 -64 Z " />
<glyph glyph-name="uni1E25" unicode="&#x1e25;" horiz-adv-x="502" d="M268 453 C200 453 149 418 123 367 L123 680 L71 680 L71 0 L123 0 L123 282 C134 367 192 408 258 408 C336 408 383 355 383 256 L383 0 L435 0 L435 265 C435 411 346 453 268 453 L268 453 Z M256 -64 C233 -64 215 -83 215 -106 C215 -129 233 -148 256 -148 C279 -148 298 -129 298 -106 C298 -83 279 -64 256 -64 L256 -64 Z " />
<glyph glyph-name="uni1E2E" unicode="&#x1e2e;" horiz-adv-x="271" d="M99 794 L128 794 C139 794 151 798 164 811 L248 898 L196 909 L99 794 Z M42 776 C21 776 5 760 5 739 C5 717 21 701 42 701 C63 701 80 717 80 739 C80 760 63 776 42 776 L42 776 Z M228 776 C207 776 191 760 191 739 C191 717 207 701 228 701 C249 701 266 717 266 739 C266 760 249 776 228 776 L228 776 Z M162 640 L108 640 L108 0 L162 0 L162 640 Z " />
<glyph glyph-name="uni1E2F" unicode="&#x1e2f;" horiz-adv-x="221" d="M133 678 L223 773 L169 783 L42 636 L64 636 C82 636 97 640 133 678 L133 678 Z M16 612 C-5 612 -21 596 -21 575 C-21 553 -5 537 16 537 C37 537 54 553 54 575 C54 596 37 612 16 612 L16 612 Z M202 612 C181 612 165 596 165 575 C165 553 181 537 202 537 C223 537 240 553 240 575 C240 596 223 612 202 612 L202 612 Z M83 0 L135 0 L135 441 L83 441 L83 0 Z " />
<glyph glyph-name="uni1E36" unicode="&#x1e36;" horiz-adv-x="462" d="M152 47 L152 640 L98 640 L98 0 L424 0 L424 47 L152 47 Z M241 -64 C218 -64 200 -83 200 -106 C200 -129 218 -148 241 -148 C264 -148 283 -129 283 -106 C283 -83 264 -64 241 -64 L241 -64 Z " />
<glyph glyph-name="uni1E37" unicode="&#x1e37;" horiz-adv-x="202" d="M75 0 L127 0 L127 680 L75 680 L75 0 Z M101 -148 C124 -148 143 -129 143 -106 C143 -83 124 -64 101 -64 C78 -64 60 -83 60 -106 C60 -129 78 -148 101 -148 L101 -148 Z " />
<glyph glyph-name="uni1E3C" unicode="&#x1e3c;" horiz-adv-x="462" d="M152 47 L152 640 L98 640 L98 0 L424 0 L424 47 L152 47 Z M217 -53 L114 -159 L149 -159 C165 -159 172 -154 183 -144 L240 -89 L297 -144 C308 -155 315 -159 331 -159 L366 -159 L263 -53 L217 -53 Z " />
<glyph glyph-name="uni1E3D" unicode="&#x1e3d;" horiz-adv-x="202" d="M75 0 L127 0 L127 680 L75 680 L75 0 Z M124 -53 L78 -53 L-25 -159 L10 -159 C26 -159 33 -154 44 -144 L101 -89 L158 -144 C169 -155 176 -159 192 -159 L227 -159 L124 -53 Z " />
<glyph glyph-name="uni1E3E" unicode="&#x1e3e;" horiz-adv-x="820" d="M435 732 L525 827 L471 837 L344 690 L366 690 C384 690 399 694 435 732 L435 732 Z M675 640 L410 281 L145 640 L98 640 L98 0 L152 0 L152 547 L410 199 L668 547 L668 0 L722 0 L722 640 L675 640 Z " />
<glyph glyph-name="uni1E3F" unicode="&#x1e3f;" horiz-adv-x="761" d="M416 563 L506 658 L452 668 L325 521 L347 521 C365 521 380 525 416 563 L416 563 Z M539 453 C464 453 417 418 394 354 C366 429 304 453 253 453 C198 453 146 422 122 365 L116 441 L71 441 L71 0 L123 0 L123 266 C130 355 177 408 244 408 C318 408 357 348 357 262 L357 0 L408 0 L408 234 C408 345 454 408 529 408 C608 408 643 348 643 259 L643 0 L695 0 L695 260 C695 411 612 453 539 453 L539 453 Z " />
<glyph glyph-name="uni1E44" unicode="&#x1e44;" horiz-adv-x="722" d="M361 710 C384 710 402 729 402 752 C402 775 384 793 361 793 C338 793 319 775 319 752 C319 729 338 710 361 710 L361 710 Z M571 640 L571 89 L150 640 L98 640 L98 0 L151 0 L151 552 L572 0 L624 0 L624 640 L571 640 Z " />
<glyph glyph-name="uni1E45" unicode="&#x1e45;" horiz-adv-x="503" d="M255 541 C278 541 296 560 296 583 C296 606 278 624 255 624 C232 624 213 606 213 583 C213 560 232 541 255 541 L255 541 Z M269 453 C199 453 147 416 122 362 L116 441 L71 441 L71 0 L123 0 L123 273 C131 364 190 408 259 408 C337 408 384 355 384 256 L384 0 L436 0 L436 265 C436 411 347 453 269 453 L269 453 Z " />
<glyph glyph-name="uni1E46" unicode="&#x1e46;" horiz-adv-x="722" d="M571 640 L571 89 L150 640 L98 640 L98 0 L151 0 L151 552 L572 0 L624 0 L624 640 L571 640 Z M361 -64 C338 -64 320 -83 320 -106 C320 -129 338 -148 361 -148 C384 -148 403 -129 403 -106 C403 -83 384 -64 361 -64 L361 -64 Z " />
<glyph glyph-name="uni1E47" unicode="&#x1e47;" horiz-adv-x="503" d="M269 453 C199 453 147 416 122 362 L116 441 L71 441 L71 0 L123 0 L123 273 C131 364 190 408 259 408 C337 408 384 355 384 256 L384 0 L436 0 L436 265 C436 411 347 453 269 453 L269 453 Z M255 -64 C232 -64 214 -83 214 -106 C214 -129 232 -148 255 -148 C278 -148 297 -129 297 -106 C297 -83 278 -64 255 -64 L255 -64 Z " />
<glyph glyph-name="uni1E4A" unicode="&#x1e4a;" horiz-adv-x="722" d="M571 640 L571 89 L150 640 L98 640 L98 0 L151 0 L151 552 L572 0 L624 0 L624 640 L571 640 Z M338 -53 L235 -159 L270 -159 C286 -159 293 -154 304 -144 L361 -89 L418 -144 C429 -155 436 -159 452 -159 L487 -159 L384 -53 L338 -53 Z " />
<glyph glyph-name="uni1E4B" unicode="&#x1e4b;" horiz-adv-x="503" d="M269 453 C199 453 147 416 122 362 L116 441 L71 441 L71 0 L123 0 L123 273 C131 364 190 408 259 408 C337 408 384 355 384 256 L384 0 L436 0 L436 265 C436 411 347 453 269 453 L269 453 Z M231 -53 L128 -159 L163 -159 C179 -159 186 -154 197 -144 L254 -89 L311 -144 C322 -155 329 -159 345 -159 L380 -159 L277 -53 L231 -53 Z " />
<glyph glyph-name="uni1E4C" unicode="&#x1e4c;" horiz-adv-x="782" d="M355 789 L384 789 C395 789 407 793 420 806 L504 893 L452 904 L355 789 Z M445 700 C491 700 515 737 524 759 L490 777 C481 756 468 739 444 739 C405 739 382 779 336 779 C293 779 273 748 259 725 L292 705 C301 723 315 741 341 741 C378 741 397 700 445 700 L445 700 Z M391 -10 C587 -10 724 137 724 322 C724 507 587 653 391 653 C195 653 58 507 58 322 C58 137 195 -10 391 -10 L391 -10 Z M391 39 C226 39 115 168 115 322 C115 477 226 604 391 604 C556 604 667 477 667 322 C667 168 556 39 391 39 L391 39 Z " />
<glyph glyph-name="uni1E4D" unicode="&#x1e4d;" horiz-adv-x="555" d="M242 620 L271 620 C282 620 294 624 307 637 L391 724 L339 735 L242 620 Z M332 531 C378 531 402 568 411 590 L377 608 C368 587 355 570 331 570 C292 570 269 610 223 610 C180 610 160 579 146 556 L179 536 C188 554 202 572 228 572 C265 572 284 531 332 531 L332 531 Z M278 -10 C412 -10 508 93 508 222 C508 350 412 453 278 453 C142 453 47 350 47 222 C47 93 142 -10 278 -10 L278 -10 Z M278 36 C175 36 101 118 101 222 C101 325 175 408 278 408 C380 408 454 325 454 222 C454 118 380 36 278 36 L278 36 Z " />
<glyph glyph-name="uni1E50" unicode="&#x1e50;" horiz-adv-x="782" d="M427 771 L331 886 L278 875 L363 788 C376 775 387 771 399 771 L427 771 Z M285 692 L516 692 L516 728 L285 728 L285 692 Z M391 -10 C587 -10 724 137 724 322 C724 507 587 653 391 653 C195 653 58 507 58 322 C58 137 195 -10 391 -10 L391 -10 Z M391 39 C226 39 115 168 115 322 C115 477 226 604 391 604 C556 604 667 477 667 322 C667 168 556 39 391 39 L391 39 Z " />
<glyph glyph-name="uni1E51" unicode="&#x1e51;" horiz-adv-x="555" d="M314 602 L218 717 L165 706 L250 619 C262 606 274 602 286 602 L314 602 Z M171 524 L402 524 L402 560 L171 560 L171 524 Z M278 -10 C412 -10 508 93 508 222 C508 350 412 453 278 453 C142 453 47 350 47 222 C47 93 142 -10 278 -10 L278 -10 Z M278 36 C175 36 101 118 101 222 C101 325 175 408 278 408 C380 408 454 325 454 222 C454 118 380 36 278 36 L278 36 Z " />
<glyph glyph-name="uni1E52" unicode="&#x1e52;" horiz-adv-x="782" d="M355 771 L384 771 C395 771 407 775 420 788 L504 875 L452 886 L355 771 Z M285 692 L516 692 L516 728 L285 728 L285 692 Z M391 -10 C587 -10 724 137 724 322 C724 507 587 653 391 653 C195 653 58 507 58 322 C58 137 195 -10 391 -10 L391 -10 Z M391 39 C226 39 115 168 115 322 C115 477 226 604 391 604 C556 604 667 477 667 322 C667 168 556 39 391 39 L391 39 Z " />
<glyph glyph-name="uni1E53" unicode="&#x1e53;" horiz-adv-x="555" d="M242 602 L270 602 C282 602 294 606 306 619 L391 706 L338 717 L242 602 Z M171 524 L402 524 L402 560 L171 560 L171 524 Z M278 -10 C412 -10 508 93 508 222 C508 350 412 453 278 453 C142 453 47 350 47 222 C47 93 142 -10 278 -10 L278 -10 Z M278 36 C175 36 101 118 101 222 C101 325 175 408 278 408 C380 408 454 325 454 222 C454 118 380 36 278 36 L278 36 Z " />
<glyph glyph-name="uni1E56" unicode="&#x1e56;" horiz-adv-x="514" d="M261 710 C284 710 302 729 302 752 C302 775 284 793 261 793 C238 793 219 775 219 752 C219 729 238 710 261 710 L261 710 Z M269 640 L98 640 L98 0 L152 0 L152 280 L269 280 C364 280 468 338 468 460 C468 582 364 640 269 640 L269 640 Z M247 324 L152 324 L152 596 L247 596 C348 596 411 547 411 460 C411 372 348 324 247 324 L247 324 Z " />
<glyph glyph-name="uni1E57" unicode="&#x1e57;" horiz-adv-x="551" d="M273 541 C296 541 314 560 314 583 C314 606 296 624 273 624 C250 624 231 606 231 583 C231 560 250 541 273 541 L273 541 Z M295 453 C217 453 156 413 121 351 L116 441 L71 441 L71 -210 L123 -210 L123 89 C158 29 218 -9 295 -9 C412 -9 504 83 504 222 C504 361 412 453 295 453 L295 453 Z M284 36 C186 36 116 116 116 222 C116 327 186 408 285 408 C382 408 450 327 450 222 C450 117 382 36 284 36 L284 36 Z " />
<glyph glyph-name="uni1E60" unicode="&#x1e60;" horiz-adv-x="521" d="M261 710 C284 710 302 729 302 752 C302 775 284 793 261 793 C238 793 219 775 219 752 C219 729 238 710 261 710 L261 710 Z M257 -10 C355 -10 453 43 453 159 C453 255 379 309 288 348 C199 386 134 420 134 492 C134 559 187 604 255 604 C314 604 354 581 391 545 L430 582 C395 619 340 653 257 653 C163 653 79 592 79 492 C79 380 173 342 262 302 C338 268 396 231 396 155 C396 82 330 39 256 39 C180 39 129 67 91 119 L48 82 C88 31 152 -10 257 -10 L257 -10 Z " />
<glyph glyph-name="uni1E61" unicode="&#x1e61;" horiz-adv-x="403" d="M208 541 C231 541 249 560 249 583 C249 606 231 624 208 624 C185 624 166 606 166 583 C166 560 185 541 208 541 L208 541 Z M37 65 C62 24 122 -10 196 -10 C290 -10 356 39 356 117 C356 285 114 204 113 330 C113 377 147 407 207 408 C250 408 285 391 311 366 L344 400 C316 428 269 453 207 453 C118 453 59 403 60 327 C60 161 301 239 301 115 C301 67 262 36 195 36 C143 36 101 59 76 96 L37 65 Z " />
<glyph glyph-name="uni1E62" unicode="&#x1e62;" horiz-adv-x="521" d="M257 -10 C355 -10 453 43 453 159 C453 255 379 309 288 348 C199 386 134 420 134 492 C134 559 187 604 255 604 C314 604 354 581 391 545 L430 582 C395 619 340 653 257 653 C163 653 79 592 79 492 C79 380 173 342 262 302 C338 268 396 231 396 155 C396 82 330 39 256 39 C180 39 129 67 91 119 L48 82 C88 31 152 -10 257 -10 L257 -10 Z M260 -148 C283 -148 302 -129 302 -106 C302 -83 283 -64 260 -64 C237 -64 219 -83 219 -106 C219 -129 237 -148 260 -148 L260 -148 Z " />
<glyph glyph-name="uni1E63" unicode="&#x1e63;" horiz-adv-x="403" d="M37 65 C62 24 122 -10 196 -10 C290 -10 356 39 356 117 C356 285 114 204 113 330 C113 377 147 407 207 408 C250 408 285 391 311 366 L344 400 C316 428 269 453 207 453 C118 453 59 403 60 327 C60 161 301 239 301 115 C301 67 262 36 195 36 C143 36 101 59 76 96 L37 65 Z M208 -148 C231 -148 250 -129 250 -106 C250 -83 231 -64 208 -64 C185 -64 167 -83 167 -106 C167 -129 185 -148 208 -148 L208 -148 Z " />
<glyph glyph-name="uni1E6A" unicode="&#x1e6a;" horiz-adv-x="493" d="M247 710 C270 710 288 729 288 752 C288 775 270 793 247 793 C224 793 205 775 205 752 C205 729 224 710 247 710 L247 710 Z M457 640 L36 640 L36 593 L220 593 L220 0 L274 0 L274 593 L457 593 L457 640 Z " />
<glyph glyph-name="uni1E6B" unicode="&#x1e6b;" horiz-adv-x="315" d="M139 663 C162 663 180 682 180 705 C180 728 162 746 139 746 C116 746 97 728 97 705 C97 682 116 663 139 663 L139 663 Z M276 441 L164 441 L164 570 L113 570 L113 441 L47 441 L47 398 L113 398 L113 0 L164 0 L164 398 L276 398 L276 441 Z " />
<glyph glyph-name="uni1E6C" unicode="&#x1e6c;" horiz-adv-x="493" d="M457 640 L36 640 L36 593 L220 593 L220 0 L274 0 L274 593 L457 593 L457 640 Z M246 -64 C223 -64 205 -83 205 -106 C205 -129 223 -148 246 -148 C269 -148 288 -129 288 -106 C288 -83 269 -64 246 -64 L246 -64 Z " />
<glyph glyph-name="uni1E6D" unicode="&#x1e6d;" horiz-adv-x="315" d="M164 441 L164 570 L113 570 L113 441 L47 441 L47 398 L113 398 L113 0 L164 0 L164 398 L276 398 L276 441 L164 441 Z M138 -64 C115 -64 97 -83 97 -106 C97 -129 115 -148 138 -148 C161 -148 180 -129 180 -106 C180 -83 161 -64 138 -64 L138 -64 Z " />
<glyph glyph-name="uni1E6E" unicode="&#x1e6e;" horiz-adv-x="493" d="M457 640 L36 640 L36 593 L220 593 L220 0 L274 0 L274 593 L457 593 L457 640 Z M131 -116 L361 -116 L361 -81 L131 -81 L131 -116 Z " />
<glyph glyph-name="uni1E6F" unicode="&#x1e6f;" horiz-adv-x="315" d="M164 441 L164 570 L113 570 L113 441 L47 441 L47 398 L113 398 L113 0 L164 0 L164 398 L276 398 L276 441 L164 441 Z M63 -116 L214 -116 L214 -81 L63 -81 L63 -116 Z " />
<glyph glyph-name="uni1E70" unicode="&#x1e70;" horiz-adv-x="493" d="M457 640 L36 640 L36 593 L220 593 L220 0 L274 0 L274 593 L457 593 L457 640 Z M223 -53 L120 -159 L155 -159 C171 -159 178 -154 189 -144 L246 -89 L303 -144 C314 -155 321 -159 337 -159 L372 -159 L269 -53 L223 -53 Z " />
<glyph glyph-name="uni1E71" unicode="&#x1e71;" horiz-adv-x="315" d="M164 441 L164 570 L113 570 L113 441 L47 441 L47 398 L113 398 L113 0 L164 0 L164 398 L276 398 L276 441 L164 441 Z M115 -53 L12 -159 L47 -159 C63 -159 70 -154 81 -144 L138 -89 L195 -144 C206 -155 213 -159 229 -159 L264 -159 L161 -53 L115 -53 Z " />
<glyph glyph-name="Wgrave" unicode="&#x1e80;" horiz-adv-x="951" d="M537 690 L560 690 L432 837 L379 827 L468 732 C505 694 519 690 537 690 L537 690 Z M852 640 L670 77 L499 640 L453 640 L282 77 L99 640 L42 640 L259 0 L302 0 L476 570 L649 0 L692 0 L909 640 L852 640 Z " />
<glyph glyph-name="wgrave" unicode="&#x1e81;" horiz-adv-x="707" d="M415 521 L438 521 L310 668 L257 658 L346 563 C383 525 397 521 415 521 L415 521 Z M627 441 L492 67 L376 441 L331 441 L215 67 L80 441 L25 441 L193 0 L236 0 L354 382 L471 0 L514 0 L682 441 L627 441 Z " />
<glyph glyph-name="Wacute" unicode="&#x1e82;" horiz-adv-x="951" d="M501 732 L591 827 L537 837 L410 690 L432 690 C450 690 465 694 501 732 L501 732 Z M852 640 L670 77 L499 640 L453 640 L282 77 L99 640 L42 640 L259 0 L302 0 L476 570 L649 0 L692 0 L909 640 L852 640 Z " />
<glyph glyph-name="wacute" unicode="&#x1e83;" horiz-adv-x="707" d="M379 563 L469 658 L415 668 L288 521 L310 521 C328 521 343 525 379 563 L379 563 Z M627 441 L492 67 L376 441 L331 441 L215 67 L80 441 L25 441 L193 0 L236 0 L354 382 L471 0 L514 0 L682 441 L627 441 Z " />
<glyph glyph-name="Wdieresis" unicode="&#x1e84;" horiz-adv-x="951" d="M383 705 C404 705 421 721 421 743 C421 764 404 780 383 780 C362 780 346 764 346 743 C346 721 362 705 383 705 L383 705 Z M569 705 C590 705 607 721 607 743 C607 764 590 780 569 780 C548 780 532 764 532 743 C532 721 548 705 569 705 L569 705 Z M852 640 L670 77 L499 640 L453 640 L282 77 L99 640 L42 640 L259 0 L302 0 L476 570 L649 0 L692 0 L909 640 L852 640 Z " />
<glyph glyph-name="wdieresis" unicode="&#x1e85;" horiz-adv-x="707" d="M261 537 C282 537 299 553 299 575 C299 596 282 612 261 612 C240 612 224 596 224 575 C224 553 240 537 261 537 L261 537 Z M447 537 C468 537 485 553 485 575 C485 596 468 612 447 612 C426 612 410 596 410 575 C410 553 426 537 447 537 L447 537 Z M627 441 L492 67 L376 441 L331 441 L215 67 L80 441 L25 441 L193 0 L236 0 L354 382 L471 0 L514 0 L682 441 L627 441 Z " />
<glyph glyph-name="uni1E92" unicode="&#x1e92;" horiz-adv-x="588" d="M144 47 L511 600 L511 640 L95 640 L95 593 L442 593 L78 41 L78 0 L529 0 L529 47 L144 47 Z M297 -64 C274 -64 256 -83 256 -106 C256 -129 274 -148 297 -148 C320 -148 339 -129 339 -106 C339 -83 320 -64 297 -64 L297 -64 Z " />
<glyph glyph-name="uni1E93" unicode="&#x1e93;" horiz-adv-x="457" d="M116 46 L396 400 L397 441 L64 441 L64 395 L332 395 L49 39 L49 0 L412 0 L412 46 L116 46 Z M230 -64 C207 -64 189 -83 189 -106 C189 -129 207 -148 230 -148 C253 -148 272 -129 272 -106 C272 -83 253 -64 230 -64 L230 -64 Z " />
<glyph glyph-name="uni1E9E" unicode="&#x1e9e;" horiz-adv-x="601" d="M231 -4 C416 -27 539 41 539 192 C539 330 419 378 315 383 L489 601 L489 640 L299 640 C188 640 93 583 93 421 L93 0 L147 0 L147 419 C147 526 196 593 297 593 L422 593 L249 377 L249 340 L285 340 C391 340 482 293 482 190 C482 77 381 24 231 46 L231 -4 Z " />
<glyph glyph-name="uni1EA0" unicode="&#x1ea0;" horiz-adv-x="624" d="M593 0 L339 640 L285 640 L30 0 L89 0 L167 202 L457 203 L535 0 L593 0 Z M184 247 L312 578 L439 247 L184 247 Z M311 -64 C288 -64 270 -83 270 -106 C270 -129 288 -148 311 -148 C334 -148 353 -129 353 -106 C353 -83 334 -64 311 -64 L311 -64 Z " />
<glyph glyph-name="uni1EA1" unicode="&#x1ea1;" horiz-adv-x="551" d="M437 441 L429 352 C394 414 334 453 256 453 C139 453 47 361 47 222 C47 83 139 -9 256 -9 C334 -9 394 30 429 91 L437 0 L480 0 L480 441 L437 441 Z M267 36 C169 36 100 117 100 222 C100 327 169 408 266 408 C365 408 434 327 434 222 C434 116 365 36 267 36 L267 36 Z M276 -64 C253 -64 235 -83 235 -106 C235 -129 253 -148 276 -148 C299 -148 318 -129 318 -106 C318 -83 299 -64 276 -64 L276 -64 Z " />
<glyph glyph-name="uni1EA4" unicode="&#x1ea4;" horiz-adv-x="624" d="M467 766 L551 853 L499 864 L402 749 L431 749 C442 749 454 753 467 766 L467 766 Z M254 706 L311 761 L368 706 C379 695 386 691 402 691 L437 691 L334 797 L288 797 L185 691 L220 691 C236 691 243 696 254 706 L254 706 Z M535 0 L593 0 L339 640 L285 640 L30 0 L89 0 L167 202 L457 203 L535 0 Z M184 247 L312 578 L439 247 L184 247 Z " />
<glyph glyph-name="uni1EA5" unicode="&#x1ea5;" horiz-adv-x="551" d="M441 597 L526 684 L473 695 L377 580 L405 580 C417 580 429 584 441 597 L441 597 Z M218 537 L275 592 L332 537 C343 526 350 522 366 522 L401 522 L298 628 L252 628 L149 522 L184 522 C200 522 207 527 218 537 L218 537 Z M429 352 C394 414 334 453 256 453 C139 453 47 361 47 222 C47 83 139 -9 256 -9 C334 -9 394 30 429 91 L437 0 L480 0 L480 441 L437 441 L429 352 Z M267 36 C169 36 100 117 100 222 C100 327 169 408 266 408 C365 408 434 327 434 222 C434 116 365 36 267 36 L267 36 Z " />
<glyph glyph-name="uni1EA6" unicode="&#x1ea6;" horiz-adv-x="624" d="M189 749 L217 749 L121 864 L68 853 L153 766 C166 753 177 749 189 749 L189 749 Z M220 691 C236 691 243 696 254 706 L311 761 L368 706 C379 695 386 691 402 691 L437 691 L334 797 L288 797 L185 691 L220 691 Z M535 0 L593 0 L339 640 L285 640 L30 0 L89 0 L167 202 L457 203 L535 0 Z M184 247 L312 578 L439 247 L184 247 Z " />
<glyph glyph-name="uni1EA7" unicode="&#x1ea7;" horiz-adv-x="551" d="M156 580 L184 580 L88 695 L35 684 L120 597 C132 584 144 580 156 580 L156 580 Z M184 522 C200 522 207 527 218 537 L275 592 L332 537 C343 526 350 522 366 522 L401 522 L298 628 L252 628 L149 522 L184 522 Z M437 441 L429 352 C394 414 334 453 256 453 C139 453 47 361 47 222 C47 83 139 -9 256 -9 C334 -9 394 30 429 91 L437 0 L480 0 L480 441 L437 441 Z M267 36 C169 36 100 117 100 222 C100 327 169 408 266 408 C365 408 434 327 434 222 C434 116 365 36 267 36 L267 36 Z " />
<glyph glyph-name="uni1EAA" unicode="&#x1eaa;" horiz-adv-x="624" d="M260 856 C297 856 316 815 365 815 C410 815 434 852 444 874 L409 893 C400 872 388 854 363 854 C324 854 302 895 255 895 C212 895 192 863 179 841 L211 820 C221 838 234 856 260 856 L260 856 Z M288 797 L185 691 L220 691 C236 691 243 696 254 706 L311 761 L368 706 C379 695 386 691 402 691 L437 691 L334 797 L288 797 Z M535 0 L593 0 L339 640 L285 640 L30 0 L89 0 L167 202 L457 203 L535 0 Z M184 247 L312 578 L439 247 L184 247 Z " />
<glyph glyph-name="uni1EAB" unicode="&#x1eab;" horiz-adv-x="551" d="M224 687 C261 687 280 646 329 646 C374 646 398 683 408 705 L373 724 C364 703 352 685 327 685 C288 685 266 726 219 726 C176 726 156 694 143 672 L175 651 C185 669 198 687 224 687 L224 687 Z M252 628 L149 522 L184 522 C200 522 207 527 218 537 L275 592 L332 537 C343 526 350 522 366 522 L401 522 L298 628 L252 628 Z M437 441 L429 352 C394 414 334 453 256 453 C139 453 47 361 47 222 C47 83 139 -9 256 -9 C334 -9 394 30 429 91 L437 0 L480 0 L480 441 L437 441 Z M267 36 C169 36 100 117 100 222 C100 327 169 408 266 408 C365 408 434 327 434 222 C434 116 365 36 267 36 L267 36 Z " />
<glyph glyph-name="uni1EAC" unicode="&#x1eac;" horiz-adv-x="624" d="M254 706 L311 761 L368 706 C379 695 386 691 402 691 L437 691 L334 797 L288 797 L185 691 L220 691 C236 691 243 696 254 706 L254 706 Z M593 0 L339 640 L285 640 L30 0 L89 0 L167 202 L457 203 L535 0 L593 0 Z M184 247 L312 578 L439 247 L184 247 Z M311 -64 C288 -64 270 -83 270 -106 C270 -129 288 -148 311 -148 C334 -148 353 -129 353 -106 C353 -83 334 -64 311 -64 L311 -64 Z " />
<glyph glyph-name="uni1EAD" unicode="&#x1ead;" horiz-adv-x="551" d="M218 537 L275 592 L332 537 C343 526 350 522 366 522 L401 522 L298 628 L252 628 L149 522 L184 522 C200 522 207 527 218 537 L218 537 Z M437 441 L429 352 C394 414 334 453 256 453 C139 453 47 361 47 222 C47 83 139 -9 256 -9 C334 -9 394 30 429 91 L437 0 L480 0 L480 441 L437 441 Z M267 36 C169 36 100 117 100 222 C100 327 169 408 266 408 C365 408 434 327 434 222 C434 116 365 36 267 36 L267 36 Z M276 -64 C253 -64 235 -83 235 -106 C235 -129 253 -148 276 -148 C299 -148 318 -129 318 -106 C318 -83 299 -64 276 -64 L276 -64 Z " />
<glyph glyph-name="uni1EAE" unicode="&#x1eae;" horiz-adv-x="624" d="M341 804 L425 891 L373 902 L276 787 L305 787 C316 787 328 791 341 804 L341 804 Z M311 690 C387 690 433 733 436 793 L399 793 C395 760 367 726 311 726 C255 726 229 759 226 793 L187 793 C190 733 237 690 311 690 L311 690 Z M535 0 L593 0 L339 640 L285 640 L30 0 L89 0 L167 202 L457 203 L535 0 Z M184 247 L312 578 L439 247 L184 247 Z " />
<glyph glyph-name="uni1EAF" unicode="&#x1eaf;" horiz-adv-x="551" d="M306 635 L390 722 L338 733 L241 618 L270 618 C281 618 293 622 306 635 L306 635 Z M276 521 C352 521 398 564 401 624 L364 624 C360 591 332 557 276 557 C220 557 194 590 191 624 L152 624 C155 564 202 521 276 521 L276 521 Z M437 441 L429 352 C394 414 334 453 256 453 C139 453 47 361 47 222 C47 83 139 -9 256 -9 C334 -9 394 30 429 91 L437 0 L480 0 L480 441 L437 441 Z M267 36 C169 36 100 117 100 222 C100 327 169 408 266 408 C365 408 434 327 434 222 C434 116 365 36 267 36 L267 36 Z " />
<glyph glyph-name="uni1EB0" unicode="&#x1eb0;" horiz-adv-x="624" d="M320 787 L348 787 L252 902 L199 891 L284 804 C297 791 308 787 320 787 L320 787 Z M311 690 C387 690 433 733 436 793 L399 793 C395 760 367 726 311 726 C255 726 229 759 226 793 L187 793 C190 733 237 690 311 690 L311 690 Z M535 0 L593 0 L339 640 L285 640 L30 0 L89 0 L167 202 L457 203 L535 0 Z M184 247 L312 578 L439 247 L184 247 Z " />
<glyph glyph-name="uni1EB1" unicode="&#x1eb1;" horiz-adv-x="551" d="M285 618 L313 618 L217 733 L164 722 L249 635 C262 622 273 618 285 618 L285 618 Z M276 521 C352 521 398 564 401 624 L364 624 C360 591 332 557 276 557 C220 557 194 590 191 624 L152 624 C155 564 202 521 276 521 L276 521 Z M437 441 L429 352 C394 414 334 453 256 453 C139 453 47 361 47 222 C47 83 139 -9 256 -9 C334 -9 394 30 429 91 L437 0 L480 0 L480 441 L437 441 Z M267 36 C169 36 100 117 100 222 C100 327 169 408 266 408 C365 408 434 327 434 222 C434 116 365 36 267 36 L267 36 Z " />
<glyph glyph-name="uni1EB4" unicode="&#x1eb4;" horiz-adv-x="624" d="M260 845 C298 845 317 805 365 805 C411 805 434 842 444 863 L409 882 C400 861 388 843 363 843 C324 843 302 884 256 884 C212 884 193 852 179 830 L211 810 C221 827 234 845 260 845 L260 845 Z M311 726 C255 726 229 759 226 793 L187 793 C190 733 237 690 311 690 C387 690 433 733 436 793 L399 793 C395 760 367 726 311 726 L311 726 Z M535 0 L593 0 L339 640 L285 640 L30 0 L89 0 L167 202 L457 203 L535 0 Z M184 247 L312 578 L439 247 L184 247 Z " />
<glyph glyph-name="uni1EB5" unicode="&#x1eb5;" horiz-adv-x="551" d="M225 676 C263 676 282 636 330 636 C376 636 399 673 409 694 L374 713 C365 692 353 674 328 674 C289 674 267 715 221 715 C177 715 158 683 144 661 L176 641 C186 658 199 676 225 676 L225 676 Z M276 557 C220 557 194 590 191 624 L152 624 C155 564 202 521 276 521 C352 521 398 564 401 624 L364 624 C360 591 332 557 276 557 L276 557 Z M437 441 L429 352 C394 414 334 453 256 453 C139 453 47 361 47 222 C47 83 139 -9 256 -9 C334 -9 394 30 429 91 L437 0 L480 0 L480 441 L437 441 Z M267 36 C169 36 100 117 100 222 C100 327 169 408 266 408 C365 408 434 327 434 222 C434 116 365 36 267 36 L267 36 Z " />
<glyph glyph-name="uni1EB6" unicode="&#x1eb6;" horiz-adv-x="624" d="M311 690 C387 690 433 733 436 793 L399 793 C395 760 367 726 311 726 C255 726 229 759 226 793 L187 793 C190 733 237 690 311 690 L311 690 Z M593 0 L339 640 L285 640 L30 0 L89 0 L167 202 L457 203 L535 0 L593 0 Z M184 247 L312 578 L439 247 L184 247 Z M311 -64 C288 -64 270 -83 270 -106 C270 -129 288 -148 311 -148 C334 -148 353 -129 353 -106 C353 -83 334 -64 311 -64 L311 -64 Z " />
<glyph glyph-name="uni1EB7" unicode="&#x1eb7;" horiz-adv-x="551" d="M276 521 C352 521 398 564 401 624 L364 624 C360 591 332 557 276 557 C220 557 194 590 191 624 L152 624 C155 564 202 521 276 521 L276 521 Z M437 441 L429 352 C394 414 334 453 256 453 C139 453 47 361 47 222 C47 83 139 -9 256 -9 C334 -9 394 30 429 91 L437 0 L480 0 L480 441 L437 441 Z M267 36 C169 36 100 117 100 222 C100 327 169 408 266 408 C365 408 434 327 434 222 C434 116 365 36 267 36 L267 36 Z M276 -64 C253 -64 235 -83 235 -106 C235 -129 253 -148 276 -148 C299 -148 318 -129 318 -106 C318 -83 299 -64 276 -64 L276 -64 Z " />
<glyph glyph-name="uni1EB8" unicode="&#x1eb8;" horiz-adv-x="521" d="M453 593 L453 640 L98 640 L98 0 L453 0 L453 47 L152 47 L152 298 L403 298 L403 343 L152 343 L152 593 L453 593 Z M272 -64 C249 -64 231 -83 231 -106 C231 -129 249 -148 272 -148 C295 -148 314 -129 314 -106 C314 -83 295 -64 272 -64 L272 -64 Z " />
<glyph glyph-name="uni1EB9" unicode="&#x1eb9;" horiz-adv-x="517" d="M471 243 C471 359 388 453 264 453 C137 453 47 351 47 225 C47 95 135 -9 274 -9 C347 -9 411 20 449 64 L412 94 C381 58 334 36 274 36 C166 36 102 117 101 221 L471 221 L471 243 Z M264 408 C352 408 412 347 419 260 L104 260 C117 346 178 408 264 408 L264 408 Z M264 -64 C241 -64 223 -83 223 -106 C223 -129 241 -148 264 -148 C287 -148 306 -129 306 -106 C306 -83 287 -64 264 -64 L264 -64 Z " />
<glyph glyph-name="uni1EBC" unicode="&#x1ebc;" horiz-adv-x="521" d="M222 741 C259 741 278 700 326 700 C372 700 396 737 405 759 L371 777 C362 756 349 739 325 739 C286 739 263 779 217 779 C174 779 154 748 140 725 L173 705 C182 723 196 741 222 741 L222 741 Z M453 593 L453 640 L98 640 L98 0 L453 0 L453 47 L152 47 L152 298 L403 298 L403 343 L152 343 L152 593 L453 593 Z " />
<glyph glyph-name="uni1EBD" unicode="&#x1ebd;" horiz-adv-x="517" d="M214 572 C251 572 270 531 318 531 C364 531 388 568 397 590 L363 608 C354 587 341 570 317 570 C278 570 255 610 209 610 C166 610 146 579 132 556 L165 536 C174 554 188 572 214 572 L214 572 Z M471 243 C471 359 388 453 264 453 C137 453 47 351 47 225 C47 95 135 -9 274 -9 C347 -9 411 20 449 64 L412 94 C381 58 334 36 274 36 C166 36 102 117 101 221 L471 221 L471 243 Z M264 408 C352 408 412 347 419 260 L104 260 C117 346 178 408 264 408 L264 408 Z " />
<glyph glyph-name="uni1EBE" unicode="&#x1ebe;" horiz-adv-x="521" d="M429 766 L513 853 L461 864 L364 749 L393 749 C404 749 416 753 429 766 L429 766 Z M215 706 L272 761 L329 706 C340 695 347 691 363 691 L398 691 L295 797 L249 797 L146 691 L181 691 C197 691 204 696 215 706 L215 706 Z M453 640 L98 640 L98 0 L453 0 L453 47 L152 47 L152 298 L403 298 L403 343 L152 343 L152 593 L453 593 L453 640 Z " />
<glyph glyph-name="uni1EBF" unicode="&#x1ebf;" horiz-adv-x="517" d="M430 597 L515 684 L462 695 L366 580 L394 580 C406 580 418 584 430 597 L430 597 Z M207 537 L264 592 L321 537 C332 526 339 522 355 522 L390 522 L287 628 L241 628 L138 522 L173 522 C189 522 196 527 207 537 L207 537 Z M264 453 C137 453 47 351 47 225 C47 95 135 -9 274 -9 C347 -9 411 20 449 64 L412 94 C381 58 334 36 274 36 C166 36 102 117 101 221 L471 221 L471 243 C471 359 388 453 264 453 L264 453 Z M264 408 C352 408 412 347 419 260 L104 260 C117 346 178 408 264 408 L264 408 Z " />
<glyph glyph-name="uni1EC0" unicode="&#x1ec0;" horiz-adv-x="521" d="M150 749 L178 749 L82 864 L29 853 L114 766 C127 753 138 749 150 749 L150 749 Z M181 691 C197 691 204 696 215 706 L272 761 L329 706 C340 695 347 691 363 691 L398 691 L295 797 L249 797 L146 691 L181 691 Z M453 593 L453 640 L98 640 L98 0 L453 0 L453 47 L152 47 L152 298 L403 298 L403 343 L152 343 L152 593 L453 593 Z " />
<glyph glyph-name="uni1EC1" unicode="&#x1ec1;" horiz-adv-x="517" d="M145 580 L173 580 L77 695 L24 684 L109 597 C121 584 133 580 145 580 L145 580 Z M173 522 C189 522 196 527 207 537 L264 592 L321 537 C332 526 339 522 355 522 L390 522 L287 628 L241 628 L138 522 L173 522 Z M471 243 C471 359 388 453 264 453 C137 453 47 351 47 225 C47 95 135 -9 274 -9 C347 -9 411 20 449 64 L412 94 C381 58 334 36 274 36 C166 36 102 117 101 221 L471 221 L471 243 Z M264 408 C352 408 412 347 419 260 L104 260 C117 346 178 408 264 408 L264 408 Z " />
<glyph glyph-name="uni1EC4" unicode="&#x1ec4;" horiz-adv-x="501" d="M221 856 C258 856 277 815 326 815 C372 815 395 852 405 874 L370 892 C361 871 349 854 324 854 C285 854 263 894 216 894 C173 894 153 863 140 840 L172 820 C182 838 195 856 221 856 L221 856 Z M249 797 L146 690 L181 690 C197 690 204 695 215 705 L273 761 L330 705 C340 695 348 690 364 690 L398 690 L296 797 L249 797 Z M453 593 L453 640 L98 640 L98 0 L453 0 L453 47 L152 47 L152 298 L403 298 L403 343 L152 343 L152 593 L453 593 Z " />
</font>
</svg>
