<svg xmlns="http://www.w3.org/2000/svg" width="373.963" height="365.358" viewBox="0 0 373.963 365.358">
  <g id="CIEKAWOSTKA_swinoujscie" data-name="CIEKAWOSTKA swinoujscie" transform="translate(-44.614 -1552.42)">
    <path id="Path_1283" data-name="Path 1283" d="M797.647-7442.122c22.986-26.11,324.68-19.118,341.8,0s24.791,304.5,6.043,328-330.468,26.918-347.847,8.529S774.661-7416.012,797.647-7442.122Z" transform="translate(-737.824 9011.604)" fill="#e5a34c"/>
    <path id="Path_2865" data-name="Path 2865" d="M128.17,17.088a7.232,7.232,0,0,1-5.192-2.178,7.4,7.4,0,0,1-1.584-2.354,7.217,7.217,0,0,1-.572-2.86,7.371,7.371,0,0,1,4.51-6.82,7.3,7.3,0,0,1,5.962.132,7.9,7.9,0,0,1,2.64,2.09l-1.5,1.276a5.5,5.5,0,0,0-4.268-2.068,5.185,5.185,0,0,0-2.057.418,5.473,5.473,0,0,0-2.893,2.893,5.379,5.379,0,0,0,0,4.158,5.473,5.473,0,0,0,2.893,2.893,5.185,5.185,0,0,0,2.057.418,5.5,5.5,0,0,0,4.268-2.068l1.5,1.276a8.154,8.154,0,0,1-2.651,2.09A7.088,7.088,0,0,1,128.17,17.088ZM136.464,17V2.37h1.848V17Zm4.6,0V2.37h8.008V4.35h-6.094V8.794h4.092v1.8h-4.092V15.02h6.094V17Zm17.424,0-4.73-5.39V17H151.82V2.392h1.936V7.958L158.4,2.392h2.552l-6.182,7.414L161.1,17Zm14.1,0-1.8-5.148h-4.576L164.4,17h-2.09L167.4,2.392h2.2L174.678,17ZM168.5,5.23,166.824,10h3.322ZM187.7,17h-1.958l-2.266-6.226L181.3,17h-1.98l-5.3-14.652h2.134l4.136,11.462L182.4,7.8l-1.98-5.456h2.134l1.936,5.368,2.222,6.094,4-11.462h2.134Zm13.574.11a7.2,7.2,0,0,1-2.827-.561,7.112,7.112,0,0,1-2.343-1.595,7.364,7.364,0,0,1-1.584-2.365,7.392,7.392,0,0,1-.011-5.676,7.462,7.462,0,0,1,3.938-3.949,7.084,7.084,0,0,1,2.827-.572,7.163,7.163,0,0,1,2.838.572A7.393,7.393,0,0,1,208.052,6.9a7.163,7.163,0,0,1,.572,2.838,7.242,7.242,0,0,1-.572,2.849,7.364,7.364,0,0,1-3.938,3.949A7.163,7.163,0,0,1,201.276,17.11Zm0-12.716A5.332,5.332,0,0,0,195.93,9.74a5.4,5.4,0,0,0,.418,2.1,5.327,5.327,0,0,0,9.856,0,5.4,5.4,0,0,0,.418-2.1,5.332,5.332,0,0,0-5.346-5.346ZM218.524,6.88a3.391,3.391,0,0,0-.462-1.408,2.406,2.406,0,0,0-.979-.869,3.487,3.487,0,0,0-1.485-.275,2.782,2.782,0,0,0-2.09.638,2.234,2.234,0,0,0-.572,1.65,2.426,2.426,0,0,0,.176,1,1.51,1.51,0,0,0,.528.627,3.681,3.681,0,0,0,1.738.484,12.146,12.146,0,0,1,2.079.341,5.589,5.589,0,0,1,1.485.627,3.474,3.474,0,0,1,1.606,3.168,3.881,3.881,0,0,1-.33,1.584,4.281,4.281,0,0,1-2.585,2.354,6.065,6.065,0,0,1-1.991.33,5.168,5.168,0,0,1-3.718-1.32,5.222,5.222,0,0,1-1.43-3.168l.044-.022h1.936a2.878,2.878,0,0,0,.792,1.738,3.272,3.272,0,0,0,2.31.792,3.473,3.473,0,0,0,2.2-.638,2,2,0,0,0,.814-1.65,2.4,2.4,0,0,0-.121-.8,1.358,1.358,0,0,0-.451-.605,5.572,5.572,0,0,0-2.794-.726,5.05,5.05,0,0,1-3.168-1.21,3.834,3.834,0,0,1-1.078-2.9,4.135,4.135,0,0,1,1.166-3.058,5.333,5.333,0,0,1,7,.154A5.513,5.513,0,0,1,220.5,6.88Zm8.712-2.64V17H225.3V4.24h-3.542V2.37h9.02V4.24ZM239.974,17l-4.73-5.39V17h-1.936V2.392h1.936V7.958l4.642-5.566h2.552l-6.182,7.414L242.592,17Zm14.1,0-1.8-5.148H247.7L245.892,17H243.8l5.082-14.608h2.2L256.166,17ZM249.984,5.23,248.312,10h3.322Z" transform="translate(36.5 1579.358)" fill="#2e3c4b"/>
    <rect id="Rectangle_45" data-name="Rectangle 45" width="12.483" height="2.497" transform="translate(218.128 1604.324)" fill="#ae4426"/>
    <path id="Path_2866" data-name="Path 2866" d="M40.975,19.347V6.939H40.24V20h6.265v-.653Zm15.48-8.225-.122,2.2a3.982,3.982,0,0,0-3.714-2.449,4.336,4.336,0,0,0-4.245,4.653,4.322,4.322,0,0,0,4.265,4.633,3.954,3.954,0,0,0,3.694-2.449L56.455,20h.592V11.122Zm-3.694,8.429a3.757,3.757,0,0,1-3.653-4.02,3.672,3.672,0,1,1,7.306,0A3.757,3.757,0,0,1,52.761,19.551Zm11.5-8.429H61.955V8.469H61.24v2.653H59.955v.592H61.24V20h.714V11.714h2.306Zm9.929,0-.122,2.2a3.982,3.982,0,0,0-3.714-2.449,4.336,4.336,0,0,0-4.245,4.653,4.322,4.322,0,0,0,4.265,4.633,3.954,3.954,0,0,0,3.694-2.449L74.189,20h.592V11.122ZM70.5,19.551a3.757,3.757,0,0,1-3.653-4.02,3.672,3.672,0,1,1,7.306,0A3.757,3.757,0,0,1,70.5,19.551ZM81.4,10.878a2.706,2.706,0,0,0-2.51,2.02l-.1-1.776h-.612V20h.714V14.408c.041-1.735.98-2.837,2.347-2.837a2.971,2.971,0,0,1,.633.082l.143-.714A2.576,2.576,0,0,0,81.4,10.878Zm6.663,0a3.234,3.234,0,0,0-3.1,2.184L84.9,11.122h-.633V20h.714V14.551c.184-1.939,1.367-3.061,2.959-3.061,1.612,0,2.776,1.041,2.776,3.388V20h.694V14.755C91.414,11.694,89.618,10.878,88.067,10.878Zm7.3-2.041a.653.653,0,1,0-.653-.653A.645.645,0,0,0,95.363,8.837ZM95,20h.714V11.122H95Zm12.01-8.878-.122,2.2a3.982,3.982,0,0,0-3.714-2.449,4.336,4.336,0,0,0-4.245,4.653,4.322,4.322,0,0,0,4.265,4.633,3.954,3.954,0,0,0,3.694-2.449L107.006,20h.592V11.122Zm-3.694,8.429a3.757,3.757,0,0,1-3.653-4.02,3.672,3.672,0,1,1,7.306,0A3.757,3.757,0,0,1,103.312,19.551Zm24.755-8.429-2.939,7.918-2.49-7.918h-.592l-2.51,7.959-2.918-7.959h-.755L119.271,20h.571l2.49-8.041L124.842,20h.571l3.388-8.878Zm12.816-5.857,2.061-2.143-.714-.143L139.6,5.918h.286C140.148,5.918,140.353,5.837,140.883,5.265Zm-.163,14.9c2.061,0,3.816-1.122,3.816-3.245,0-1.959-1.449-2.98-3.265-3.837-1.673-.8-3.245-1.531-3.245-3.2a2.466,2.466,0,0,1,2.633-2.51,3.793,3.793,0,0,1,2.878,1.224l.551-.49a4.5,4.5,0,0,0-3.408-1.388,3.171,3.171,0,0,0-3.408,3.163c0,2.163,1.878,2.98,3.592,3.8,1.694.837,2.918,1.633,2.918,3.286,0,1.531-1.327,2.551-3.061,2.551a3.879,3.879,0,0,1-3.449-1.612l-.592.51A4.769,4.769,0,0,0,140.72,20.163Zm18.5-9.041-2.939,7.918-2.49-7.918H153.2l-2.51,7.959-2.918-7.959h-.755L150.424,20H151l2.49-8.041L156,20h.571l3.388-8.878Zm3.827-2.286a.653.653,0,1,0-.653-.653A.645.645,0,0,0,163.046,8.837ZM162.679,20h.714V11.122h-.714Zm8.214-9.122a3.234,3.234,0,0,0-3.1,2.184l-.061-1.939H167.1V20h.714V14.551c.184-1.939,1.367-3.061,2.959-3.061,1.612,0,2.776,1.041,2.776,3.388V20h.694V14.755C174.24,11.694,172.444,10.878,170.893,10.878Zm10.827,9.286a4.541,4.541,0,0,0,4.633-4.633,4.633,4.633,0,1,0-9.265,0A4.541,4.541,0,0,0,181.72,20.163Zm0-.612a3.871,3.871,0,0,1-3.878-4.02,3.88,3.88,0,1,1,7.755,0A3.871,3.871,0,0,1,181.72,19.551Zm11.051.694c1.612,0,3.551-.837,3.551-3.837V11.122h-.694v5.286c0,1.98-1.02,3.224-2.857,3.224-1.857,0-2.878-1.245-2.878-3.224V11.122h-.714v5.286C189.179,19.408,191.118,20.245,192.771,20.245ZM200.8,8.837a.653.653,0,1,0-.653-.653A.645.645,0,0,0,200.8,8.837Zm.367,12.735V11.122h-.714V21.551c0,1.531-.653,2.265-2.306,2.1v.592C199.72,24.449,201.169,23.939,201.169,21.571Zm6.378-12.755,2.061-2.143-.714-.143-2.633,2.939h.286C206.812,9.469,207.016,9.388,207.546,8.816Zm-3.367,9.918a3.642,3.642,0,0,0,3.02,1.429c1.8,0,3.082-.939,3.082-2.51,0-3.367-4.939-1.694-4.959-4.388-.02-1.082.8-1.755,2.061-1.755a2.9,2.9,0,0,1,2.184.837l.449-.469a3.7,3.7,0,0,0-2.633-1c-1.673,0-2.816.959-2.8,2.429.041,3.286,4.959,1.612,4.959,4.388,0,1.143-.9,1.857-2.347,1.857a2.907,2.907,0,0,1-2.469-1.265Zm13.031,1.429a4.564,4.564,0,0,0,2.857-.98l-.449-.51a3.517,3.517,0,0,1-2.408.878,3.722,3.722,0,0,1-3.755-4.041,3.716,3.716,0,0,1,3.755-4.02,3.517,3.517,0,0,1,2.408.878l.449-.51a4.564,4.564,0,0,0-2.857-.98,4.411,4.411,0,0,0-4.49,4.633A4.405,4.405,0,0,0,217.21,20.163Zm6.173-11.327a.653.653,0,1,0-.653-.653A.645.645,0,0,0,223.383,8.837ZM223.016,20h.714V11.122h-.714Zm7.929.245c1.612,0,3.551-.837,3.551-3.837V11.122H233.8v5.286c0,1.98-1.02,3.224-2.857,3.224-1.857,0-2.878-1.245-2.878-3.224V11.122h-.714v5.286C227.353,19.408,229.291,20.245,230.944,20.245ZM244.781,8.837a.653.653,0,1,0-.653-.653A.645.645,0,0,0,244.781,8.837Zm.367,12.735V11.122h-.714V21.551c0,1.531-.653,2.265-2.306,2.1v.592C243.7,24.449,245.148,23.939,245.148,21.571Zm11.622-6.2V15a4.025,4.025,0,0,0-4.082-4.122,4.338,4.338,0,0,0-4.327,4.531,4.453,4.453,0,0,0,4.531,4.755,4.677,4.677,0,0,0,3.469-1.449l-.531-.429a3.752,3.752,0,0,1-2.939,1.265c-2.388,0-3.776-1.816-3.776-4.122v-.061Zm-4.082-3.857a3.336,3.336,0,0,1,3.388,3.306h-6.918A3.544,3.544,0,0,1,252.689,11.51Zm6.316,7.225a3.642,3.642,0,0,0,3.02,1.429c1.8,0,3.082-.939,3.082-2.51,0-3.367-4.939-1.694-4.959-4.388-.02-1.082.8-1.755,2.061-1.755a2.9,2.9,0,0,1,2.184.837l.449-.469a3.7,3.7,0,0,0-2.633-1c-1.673,0-2.816.959-2.8,2.429.041,3.286,4.959,1.612,4.959,4.388,0,1.143-.9,1.857-2.347,1.857a2.907,2.907,0,0,1-2.469-1.265Zm12.847-7.612h-2.306V8.469h-.714v2.653h-1.286v.592h1.286V20h.714V11.714h2.306ZM20.332,28.388a3.437,3.437,0,0,0-2.878,1.347l-.306-1.1H15.026V38h2.429V32.531a2.014,2.014,0,0,1,2.061-2.082c1.286,0,1.857.9,1.857,2.347V38h2.408V32.163C23.781,29.306,21.924,28.388,20.332,28.388Zm13.622.245-.306,1.2a3.836,3.836,0,0,0-3.143-1.449c-2.429,0-4.347,1.837-4.347,4.918s1.918,4.9,4.347,4.9A3.854,3.854,0,0,0,33.628,36.8l.306,1.2h2V28.633Zm-2.816,7.531a2.581,2.581,0,0,1-2.51-2.857,2.57,2.57,0,1,1,5.1,0A2.606,2.606,0,0,1,31.138,36.163Zm9.745-9.082a1.408,1.408,0,1,0-1.429-1.408A1.433,1.433,0,0,0,40.883,27.082Zm1.2,11.449v-9.9H39.679v9.776c0,1.51-.633,2.224-2.286,1.959v1.857C39.8,42.673,42.087,41.98,42.087,38.531Zm14.7-9.9-2,6.265-1.9-6.265h-1.98l-1.9,6.286-2-6.286H44.424L47.934,38h2.02l1.959-6.551L53.853,38h2.02l3.51-9.367Zm11.7,0L65.924,34.98l-2.531-6.347H60.822l3.918,9.143-2.02,4.51h2.469l5.878-13.653Zm8.153-1.694A1.317,1.317,0,1,0,75.3,25.633,1.338,1.338,0,0,0,76.648,26.939ZM75.608,35.98l4.857-5.653V28.633H72.791v2.041h4.531l-4.837,5.673V38h8.327V35.98Zm6.908.776A5.286,5.286,0,0,0,86.6,38.286c2.388,0,3.776-1.2,3.776-2.9,0-3.408-4.653-2.184-4.653-4.061,0-.633.469-1.041,1.388-1.041a2.969,2.969,0,0,1,1.959.8l1.224-1.51a5.056,5.056,0,0,0-3.367-1.184c-2.347,0-3.714,1.224-3.714,3,0,3.49,4.571,2.265,4.571,4.02,0,.612-.531,1.02-1.551,1.02a2.951,2.951,0,0,1-2.388-1.2Zm13.031-.776,4.857-5.653V28.633H92.73v2.041h4.531l-4.837,5.673V38h8.327V35.98Zm16.092,2.245.408-.224h.388V28.633h-1.98l-.306,1.2a3.836,3.836,0,0,0-3.143-1.449c-2.429,0-4.347,1.837-4.347,4.918s1.918,4.9,4.347,4.9a3.854,3.854,0,0,0,3.122-1.408l.286,1.1c-1.408.8-2.082,1.918-1.592,3.041s2.184,1.388,3.51.612l-.429-1.1C109.883,41.265,109.455,39.347,111.638,38.224Zm-4-2.061a2.581,2.581,0,0,1-2.51-2.857,2.57,2.57,0,1,1,5.1,0A2.606,2.606,0,0,1,107.638,36.163Zm14.286,1.2,5.878-7.694v-.551h-6.51v.612h5.653l-5.959,7.714V38h7.1v-.633Zm16.969-4V33a4.025,4.025,0,0,0-4.082-4.122,4.338,4.338,0,0,0-4.327,4.531,4.453,4.453,0,0,0,4.531,4.755,4.677,4.677,0,0,0,3.469-1.449l-.531-.429a3.752,3.752,0,0,1-2.939,1.265c-2.388,0-3.776-1.816-3.776-4.122v-.061Zm-4.082-3.857a3.336,3.336,0,0,1,3.388,3.306h-6.918A3.544,3.544,0,0,1,134.812,29.51Zm24.082-.388-2.939,7.918-2.49-7.918h-.592l-2.51,7.959-2.918-7.959h-.755L150.1,38h.571l2.49-8.041L155.669,38h.571l3.388-8.878Zm2.52,7.612a3.642,3.642,0,0,0,3.02,1.429c1.8,0,3.082-.939,3.082-2.51,0-3.367-4.939-1.694-4.959-4.388-.02-1.082.8-1.755,2.061-1.755a2.9,2.9,0,0,1,2.184.837l.449-.469a3.7,3.7,0,0,0-2.633-1c-1.673,0-2.816.959-2.8,2.429.041,3.286,4.959,1.612,4.959,4.388,0,1.143-.9,1.857-2.347,1.857a2.907,2.907,0,0,1-2.469-1.265Zm9.52.633,5.878-7.694v-.551H170.3v.612h5.653L170,37.449V38h7.1v-.633Zm15.541-8.245-3.429,7.857L179.7,29.122h-.776l3.776,8.653-1.98,4.51h.755l5.755-13.163Zm2.418,7.612a3.642,3.642,0,0,0,3.02,1.429c1.8,0,3.082-.939,3.082-2.51,0-3.367-4.939-1.694-4.959-4.388-.02-1.082.8-1.755,2.061-1.755a2.9,2.9,0,0,1,2.184.837l.449-.469a3.7,3.7,0,0,0-2.633-1c-1.673,0-2.816.959-2.8,2.429.041,3.286,4.959,1.612,4.959,4.388,0,1.143-.9,1.857-2.347,1.857a2.907,2.907,0,0,1-2.469-1.265Zm12.847-7.612h-2.306V26.469h-.714v2.653h-1.286v.592h1.286V38h.714V29.714h2.306ZM211.465,38,206.1,33.122l4.8-4h-.959L205.2,33.061V24.122h-.714V38h.714V33.2l5.265,4.8Zm2.786-11.163a.653.653,0,1,0-.653-.653A.645.645,0,0,0,214.251,26.837ZM213.883,38h.714V29.122h-.714Zm8.418.163a4.564,4.564,0,0,0,2.857-.98l-.449-.51a3.517,3.517,0,0,1-2.408.878,3.722,3.722,0,0,1-3.755-4.041,3.716,3.716,0,0,1,3.755-4.02,3.517,3.517,0,0,1,2.408.878l.449-.51a4.564,4.564,0,0,0-2.857-.98,4.411,4.411,0,0,0-4.49,4.633A4.405,4.405,0,0,0,222.3,38.163Zm9.357-9.286a3.17,3.17,0,0,0-3.082,2.184V24.122h-.714V38h.714V32.9c.061-2.143,1.306-3.408,2.98-3.408,1.612,0,2.755,1.041,2.755,3.388V38h.714V32.755C235.026,29.694,233.21,28.878,231.659,28.878ZM244.23,38h.714V24.122h-.714Zm11.786-8.878-.122,2.2a3.982,3.982,0,0,0-3.714-2.449,4.336,4.336,0,0,0-4.245,4.653,4.322,4.322,0,0,0,4.265,4.633,3.954,3.954,0,0,0,3.694-2.449L256.016,38h.592V29.122Zm-3.694,8.429a3.757,3.757,0,0,1-3.653-4.02,3.672,3.672,0,1,1,7.306,0A3.757,3.757,0,0,1,252.322,37.551Zm11.5-8.429h-2.306V26.469H260.8v2.653h-1.286v.592H260.8V38h.714V29.714h2.306Zm9.929,0-.122,2.2a3.982,3.982,0,0,0-3.714-2.449,4.336,4.336,0,0,0-4.245,4.653,4.322,4.322,0,0,0,4.265,4.633,3.954,3.954,0,0,0,3.694-2.449L273.75,38h.592V29.122Zm-3.694,8.429a3.757,3.757,0,0,1-3.653-4.02,3.672,3.672,0,1,1,7.306,0A3.757,3.757,0,0,1,270.057,37.551Zm10.908-8.673a2.706,2.706,0,0,0-2.51,2.02l-.1-1.776h-.612V38h.714V32.408c.041-1.735.98-2.837,2.347-2.837a2.971,2.971,0,0,1,.633.082l.143-.714A2.576,2.576,0,0,0,280.965,28.878Zm6.663,0a3.234,3.234,0,0,0-3.1,2.184l-.061-1.939h-.633V38h.714V32.551c.184-1.939,1.367-3.061,2.959-3.061,1.612,0,2.776,1.041,2.776,3.388V38h.694V32.755C290.975,29.694,289.179,28.878,287.628,28.878Zm7.3-2.041a.653.653,0,1,0-.653-.653A.645.645,0,0,0,294.924,26.837ZM294.557,38h.714V29.122h-.714ZM70.108,46.878a3.234,3.234,0,0,0-3.1,2.184l-.061-1.939h-.633V56h.714V50.551c.184-1.939,1.367-3.061,2.959-3.061,1.612,0,2.776,1.041,2.776,3.388V56h.694V50.755C73.455,47.694,71.659,46.878,70.108,46.878Zm14.276.245-.122,2.2a3.982,3.982,0,0,0-3.714-2.449A4.336,4.336,0,0,0,76.3,51.531a4.322,4.322,0,0,0,4.265,4.633,3.954,3.954,0,0,0,3.694-2.449L84.383,56h.592V47.122Zm-3.694,8.429a3.757,3.757,0,0,1-3.653-4.02,3.672,3.672,0,1,1,7.306,0A3.757,3.757,0,0,1,80.689,55.551Zm17.918-8.673a4,4,0,0,0-3.735,2.49l-.061-2.245h-.633l.02,13.163h.694V53.714a3.954,3.954,0,0,0,3.694,2.449,4.307,4.307,0,0,0,4.245-4.633C102.832,48.775,100.975,46.878,98.608,46.878Zm-.143,8.673a3.757,3.757,0,0,1-3.653-4.02,3.672,3.672,0,1,1,7.306,0A3.757,3.757,0,0,1,98.465,55.551Zm11.439.612a4.643,4.643,0,1,0-4.633-4.633A4.541,4.541,0,0,0,109.9,56.163Zm0-.612a4.023,4.023,0,1,1,3.878-4.02A3.871,3.871,0,0,1,109.9,55.551Zm7.622.449h.714V42.122h-.714Zm3.5-1.265a3.642,3.642,0,0,0,3.02,1.429c1.8,0,3.082-.939,3.082-2.51,0-3.367-4.939-1.694-4.959-4.388-.02-1.082.8-1.755,2.061-1.755a2.9,2.9,0,0,1,2.184.837l.449-.469a3.7,3.7,0,0,0-2.633-1c-1.673,0-2.816.959-2.8,2.429.041,3.286,4.959,1.612,4.959,4.388,0,1.143-.9,1.857-2.347,1.857a2.907,2.907,0,0,1-2.469-1.265ZM137.036,56l-5.367-4.878,4.8-4h-.959l-4.735,3.939V42.122h-.714V56h.714V51.2l5.265,4.8Zm2.786-11.163a.653.653,0,1,0-.653-.653A.645.645,0,0,0,139.822,44.837ZM139.455,56h.714V47.122h-.714Zm13.765-9.122a2.9,2.9,0,0,0-2.959,2.347,2.951,2.951,0,0,0-2.918-2.347,2.86,2.86,0,0,0-2.755,2.143l-.082-1.9h-.633V56h.714V50.653c.163-1.918,1.184-3.163,2.612-3.163,1.592,0,2.531,1.286,2.531,3.122V56h.714V50.816c.143-2.143,1.122-3.327,2.633-3.327,1.755,0,2.551,1.286,2.551,3.245V56h.694V50.735C156.322,47.714,154.689,46.878,153.22,46.878Zm23.49.245-2.939,7.918-2.49-7.918h-.592l-2.51,7.959-2.918-7.959h-.755L167.914,56h.571l2.49-8.041L173.485,56h.571l3.388-8.878Zm10.112,0-3.429,7.857-3.347-7.857h-.776l3.776,8.653-1.98,4.51h.755l5.755-13.163Zm7.541-.245a4,4,0,0,0-3.714,2.408V42.122h-.714V56h.592l.1-2.286a3.962,3.962,0,0,0,3.714,2.449,4.307,4.307,0,0,0,4.245-4.633C198.587,48.775,196.73,46.878,194.363,46.878Zm-.163,8.673a3.754,3.754,0,0,1-3.633-4.02,3.662,3.662,0,1,1,7.286,0A3.745,3.745,0,0,1,194.2,55.551Zm10.52-8.673a2.706,2.706,0,0,0-2.51,2.02l-.1-1.776H201.5V56h.714V50.408c.041-1.735.98-2.837,2.347-2.837a2.971,2.971,0,0,1,.633.082l.143-.714A2.576,2.576,0,0,0,204.72,46.878Zm3.357,8.49,5.878-7.694v-.551h-6.51v.612H213.1l-5.959,7.714V56h7.1v-.633Zm16.969-4V51a4.025,4.025,0,0,0-4.082-4.122,4.338,4.338,0,0,0-4.327,4.531,4.453,4.453,0,0,0,4.531,4.755,4.677,4.677,0,0,0,3.469-1.449l-.531-.429a3.752,3.752,0,0,1-2.939,1.265c-2.388,0-3.776-1.816-3.776-4.122v-.061Zm-4.082-3.857a3.336,3.336,0,0,1,3.388,3.306h-6.918A3.544,3.544,0,0,1,220.965,47.51ZM231.1,44.98a.653.653,0,1,0-.673-.653A.658.658,0,0,0,231.1,44.98Zm-2.633,10.388,5.878-7.694v-.551h-6.51v.612h5.653l-5.959,7.714V56h7.1v-.633Zm12.561.878c1.612,0,3.551-.837,3.551-3.837V47.122h-.694v5.286c0,1.98-1.02,3.224-2.857,3.224-1.857,0-2.878-1.245-2.878-3.224V47.122h-.714v5.286C237.434,55.408,239.373,56.245,241.026,56.245Z" transform="translate(76.58 1825.288)" fill="#2e3c4b"/>
    <g id="Group_181" data-name="Group 181" transform="translate(134.652 1625.551)">
      <path id="Path_1327" data-name="Path 1327" d="M888.029-7349.674c5.516-15.086,18.484-46.185,43.66-46.742s94.315-3,111.88,18.051,20.67,37.466,18.08,70.665-11.5,52.475-22,70.137-55.2,31.273-95.374,29.708-69.436-25.383-68.657-57.982,14.83-36.955,12.407-51.118S882.513-7334.588,888.029-7349.674Z" transform="translate(-875.607 7396.792)" fill="#f2edeb"/>
      <g id="swinoujscie" transform="translate(31.313 14.3)">
        <path id="Path_1284" data-name="Path 1284" d="M82.438,145.651c.263-.475.014-15.091.014-15.684a10.3,10.3,0,0,1,1.057-2.359c.131-.355.716-4.457.388-4.7a11.484,11.484,0,0,0-3.547-.592c-2.5,0-19.312.178-19.312.178a3.558,3.558,0,0,0-2.124.474c-.475.277.322,4.981.533,5.3a20.04,20.04,0,0,1,1.2,2.174c.394.83-.471,13.967-.4,15.926,0,0,.785,10.6.689,14.375v20.985" transform="translate(-34.355 -30.25)" fill="none" stroke="#2e3c4b" stroke-miterlimit="10" stroke-width="0.7"/>
        <path id="Path_1285" data-name="Path 1285" d="M62.147,127.7c1.02-13.239,2.785-64.682,2.33-65.3a6.511,6.511,0,0,1-1.4-2.292c-.263-1-.482-4.585,0-5.019,1.019-.915,16.291-.5,16.652.142.53.947-.153,3.4-.229,4.6a12.367,12.367,0,0,1-1.2,2.564c-.169.457,1.07,51.1,1.787,65.122" transform="translate(-34.095 -35.46)" fill="none" stroke="#2e3c4b" stroke-miterlimit="10" stroke-width="0.7"/>
        <path id="Path_1286" data-name="Path 1286" d="M67.3,54.994s-.788-5.184,0-5.659,8.408-.474,9.065,0,.657,5.931.657,5.931" transform="translate(-33.726 -35.889)" fill="none" stroke="#2e3c4b" stroke-miterlimit="10" stroke-width="0.7"/>
        <path id="Path_1287" data-name="Path 1287" d="M64.994,122.482s.2,4.423.985,5.965c.424.828.246,5.671.258,10.222,0,1.13-6.089,6.571-6.089,6.571" transform="translate(-34.249 -30.238)" fill="none" stroke="#2e3c4b" stroke-miterlimit="10" stroke-width="0.7"/>
        <path id="Path_1288" data-name="Path 1288" d="M75.266,122.482a41.577,41.577,0,0,1-.723,5.846A53.96,53.96,0,0,0,73.5,138.712c0,1.825,7.811,6.927,7.811,6.927" transform="translate(-33.223 -30.238)" fill="none" stroke="#2e3c4b" stroke-miterlimit="10" stroke-width="0.7"/>
        <path id="Path_1289" data-name="Path 1289" d="M68.234,101.236s0-3.641.92-3.717,1.27,3.717,1.27,3.717Z" transform="translate(-33.627 -32.157)" fill="none" stroke="#2e3c4b" stroke-miterlimit="10" stroke-width="0.7"/>
        <path id="Path_1290" data-name="Path 1290" d="M69.012,136.017s-.152-2.515.768-2.592.811,2.592.811,2.592Z" transform="translate(-33.568 -29.397)" fill="none" stroke="#2e3c4b" stroke-miterlimit="10" stroke-width="0.7"/>
        <path id="Path_1291" data-name="Path 1291" d="M70.048,154.578s-.191-4.936.961-5.087,1.015,5.087,1.015,5.087Z" transform="translate(-33.488 -28.162)" fill="none" stroke="#2e3c4b" stroke-miterlimit="10" stroke-width="0.7"/>
        <path id="Path_1292" data-name="Path 1292" d="M73.493,77.631s-.723-4.861.559-4.624,1.359,4.624,1.359,4.624Z" transform="translate(-33.238 -34.043)" fill="none" stroke="#2e3c4b" stroke-miterlimit="10" stroke-width="0.7"/>
        <path id="Path_1293" data-name="Path 1293" d="M65.614,61.858s-2.115-3.912-.765-4.071,2.292,4.071,2.292,4.071Z" transform="translate(-33.922 -35.212)" fill="none" stroke="#2e3c4b" stroke-miterlimit="10" stroke-width="0.7"/>
        <path id="Path_1294" data-name="Path 1294" d="M68.319,62.041s-.626-3.916.235-4.074c.967-.179,1.55,3.636,1.381,4.123Z" transform="translate(-33.637 -35.199)" fill="none" stroke="#2e3c4b" stroke-miterlimit="10" stroke-width="0.7"/>
        <path id="Path_1295" data-name="Path 1295" d="M71.4,61.933s.548-3.912,1.551-3.834,0,3.834,0,3.834Z" transform="translate(-33.383 -35.188)" fill="none" stroke="#2e3c4b" stroke-miterlimit="10" stroke-width="0.7"/>
        <path id="Path_1296" data-name="Path 1296" d="M74.469,61.827s1.191-3.714,2.156-3.636-.411,3.636-.411,3.636Z" transform="translate(-33.148 -35.181)" fill="none" stroke="#2e3c4b" stroke-miterlimit="10" stroke-width="0.7"/>
        <path id="Path_1297" data-name="Path 1297" d="M62.267,129.395s-1.341-4.036-.192-4.115,2.086,4.115,2.086,4.115Z" transform="translate(-34.136 -30.023)" fill="none" stroke="#2e3c4b" stroke-miterlimit="10" stroke-width="0.7"/>
        <path id="Path_1298" data-name="Path 1298" d="M67.707,129.2s-.926-4.146.279-3.913c1.628.313,2.117,4.018,1.743,3.916Z" transform="translate(-33.694 -30.023)" fill="none" stroke="#2e3c4b" stroke-miterlimit="10" stroke-width="0.7"/>
        <path id="Path_1299" data-name="Path 1299" d="M70.918,129.286s-.416-3.913,1.22-3.913c.921,0,.92,3.913.92,3.913Z" transform="translate(-33.424 -30.016)" fill="none" stroke="#2e3c4b" stroke-miterlimit="10" stroke-width="0.7"/>
        <path id="Path_1300" data-name="Path 1300" d="M76.95,129.2s.753-4.039,1.76-3.921.262,3.921.262,3.921Z" transform="translate(-32.957 -30.023)" fill="none" stroke="#2e3c4b" stroke-miterlimit="10" stroke-width="0.7"/>
        <path id="Path_1301" data-name="Path 1301" d="M63.064,55.286s-.93-2.041-.733-2.812,17.954-.118,18.535,0-1.15,2.954-1.15,2.954" transform="translate(-34.083 -35.649)" fill="none" stroke="#2e3c4b" stroke-miterlimit="10" stroke-width="0.7"/>
        <path id="Path_1302" data-name="Path 1302" d="M67.119,50.059l-.174-7.409h9.722L76.01,49.7" transform="translate(-33.726 -36.376)" fill="none" stroke="#2e3c4b" stroke-miterlimit="10" stroke-width="0.7"/>
        <path id="Path_1303" data-name="Path 1303" d="M76.848,42.921c.481-.237-4.563-4.436-5.958-4.514s-4.9,4.36-4.6,4.439l.963.13" transform="translate(-33.778 -36.702)" fill="none" stroke="#2e3c4b" stroke-miterlimit="10" stroke-width="0.7"/>
        <path id="Path_1304" data-name="Path 1304" d="M70.557,36.829c.47.073,1.046.277,1.046.752s-.429.786-1.046.948-.969.04-.969-.632A1.015,1.015,0,0,1,70.557,36.829Z" transform="translate(-33.523 -36.824)" fill="none" stroke="#2e3c4b" stroke-miterlimit="10" stroke-width="0.7"/>
        <path id="Path_1305" data-name="Path 1305" d="M37.893,157.429s-.486,18.468,1.252,20.25,67.25,2.275,68.119,1.236.761-21.212.761-21.212" transform="translate(-35.965 -27.551)" fill="none" stroke="#2e3c4b" stroke-miterlimit="10" stroke-width="0.7"/>
        <path id="Path_1306" data-name="Path 1306" d="M59.724,144" transform="translate(-34.281 -28.584)" fill="none" stroke="#2e3c4b" stroke-miterlimit="10" stroke-width="0.7"/>
        <path id="Path_1307" data-name="Path 1307" d="M80.748,143.985l.628,16.2-.628,20.17" transform="translate(-32.665 -28.585)" fill="none" stroke="#2e3c4b" stroke-miterlimit="10" stroke-width="0.7"/>
        <path id="Path_1308" data-name="Path 1308" d="M41.895,160.932c.537-.125,3.564-.3,3.825,0s.608,4.977,0,5.422-3.042,1.032-3.3.4S41.2,161.093,41.895,160.932Z" transform="translate(-35.671 -27.294)" fill="none" stroke="#2e3c4b" stroke-miterlimit="10" stroke-width="0.7"/>
        <path id="Path_1309" data-name="Path 1309" d="M50.518,160.794c.208-.6,3.563-.387,3.738,0s.521,5.8,0,5.992-3.129.478-3.39,0A27.637,27.637,0,0,1,50.518,160.794Z" transform="translate(-34.993 -27.321)" fill="none" stroke="#2e3c4b" stroke-miterlimit="10" stroke-width="0.7"/>
        <path id="Path_1310" data-name="Path 1310" d="M42.216,168.455c.356-.082,3.892-.446,3.815,0s.424,4.976,0,5.348-3.034,0-3.294,0S41.565,168.6,42.216,168.455Z" transform="translate(-35.645 -26.72)" fill="none" stroke="#2e3c4b" stroke-miterlimit="10" stroke-width="0.7"/>
        <path id="Path_1311" data-name="Path 1311" d="M50.767,168.247a8.462,8.462,0,0,1,3.042,0c.521.143.608,5.524.348,5.73a5.842,5.842,0,0,1-2.782,0C50.94,173.738,50.332,168.772,50.767,168.247Z" transform="translate(-34.982 -26.73)" fill="none" stroke="#2e3c4b" stroke-miterlimit="10" stroke-width="0.7"/>
        <line id="Line_645" data-name="Line 645" x2="4.247" transform="translate(6.131 136.411)" fill="none" stroke="#2e3c4b" stroke-miterlimit="10" stroke-width="0.7"/>
        <line id="Line_646" data-name="Line 646" x2="0.27" y2="5.983" transform="translate(8.181 133.481)" fill="none" stroke="#2e3c4b" stroke-miterlimit="10" stroke-width="0.7"/>
        <line id="Line_647" data-name="Line 647" y2="5.7" transform="translate(8.45 141.547)" fill="none" stroke="#2e3c4b" stroke-miterlimit="10" stroke-width="0.7"/>
        <line id="Line_648" data-name="Line 648" x2="4.045" y2="0.175" transform="translate(6.341 144.223)" fill="none" stroke="#2e3c4b" stroke-miterlimit="10" stroke-width="0.7"/>
        <line id="Line_649" data-name="Line 649" x2="4.069" y2="0.235" transform="translate(15.468 136.237)" fill="none" stroke="#2e3c4b" stroke-miterlimit="10" stroke-width="0.7"/>
        <line id="Line_650" data-name="Line 650" x2="0.239" y2="6.613" transform="translate(17.264 133.099)" fill="none" stroke="#2e3c4b" stroke-miterlimit="10" stroke-width="0.7"/>
        <line id="Line_651" data-name="Line 651" x2="0.264" y2="5.86" transform="translate(17.477 141.387)" fill="none" stroke="#2e3c4b" stroke-miterlimit="10" stroke-width="0.7"/>
        <line id="Line_652" data-name="Line 652" x2="3.569" y2="0.406" transform="translate(15.735 144.223)" fill="none" stroke="#2e3c4b" stroke-miterlimit="10" stroke-width="0.7"/>
        <path id="Path_1312" data-name="Path 1312" d="M100.242,174.332c-.537.125-3.563.3-3.824,0s-.608-4.976,0-5.422,3.042-1.032,3.3-.4S100.938,174.17,100.242,174.332Z" transform="translate(-31.486 -26.721)" fill="none" stroke="#2e3c4b" stroke-miterlimit="10" stroke-width="0.7"/>
        <path id="Path_1313" data-name="Path 1313" d="M91.594,174.5c-.208.6-3.563.388-3.737,0s-.522-5.8,0-5.991,3.128-.479,3.389,0A27.555,27.555,0,0,1,91.594,174.5Z" transform="translate(-32.139 -26.72)" fill="none" stroke="#2e3c4b" stroke-miterlimit="10" stroke-width="0.7"/>
        <path id="Path_1314" data-name="Path 1314" d="M99.907,166.772c-.356.081-3.892.445-3.814,0s-.425-4.977,0-5.349,3.033,0,3.293,0S100.558,166.623,99.907,166.772Z" transform="translate(-31.498 -27.257)" fill="none" stroke="#2e3c4b" stroke-miterlimit="10" stroke-width="0.7"/>
        <path id="Path_1315" data-name="Path 1315" d="M91.318,167a8.51,8.51,0,0,1-3.042,0c-.521-.143-.608-5.526-.348-5.731a5.856,5.856,0,0,1,2.782,0C91.145,161.509,91.753,166.476,91.318,167Z" transform="translate(-32.124 -27.269)" fill="none" stroke="#2e3c4b" stroke-miterlimit="10" stroke-width="0.7"/>
        <line id="Line_653" data-name="Line 653" x1="4.247" transform="translate(64.602 144.837)" fill="none" stroke="#2e3c4b" stroke-miterlimit="10" stroke-width="0.7"/>
        <line id="Line_654" data-name="Line 654" x1="0.27" y1="5.983" transform="translate(66.53 141.785)" fill="none" stroke="#2e3c4b" stroke-miterlimit="10" stroke-width="0.7"/>
        <line id="Line_655" data-name="Line 655" y1="5.7" transform="translate(66.53 134.001)" fill="none" stroke="#2e3c4b" stroke-miterlimit="10" stroke-width="0.7"/>
        <line id="Line_656" data-name="Line 656" x1="4.045" y1="0.175" transform="translate(64.593 136.851)" fill="none" stroke="#2e3c4b" stroke-miterlimit="10" stroke-width="0.7"/>
        <line id="Line_657" data-name="Line 657" x1="4.069" y1="0.235" transform="translate(55.442 144.776)" fill="none" stroke="#2e3c4b" stroke-miterlimit="10" stroke-width="0.7"/>
        <line id="Line_658" data-name="Line 658" x1="0.239" y1="6.613" transform="translate(57.477 141.536)" fill="none" stroke="#2e3c4b" stroke-miterlimit="10" stroke-width="0.7"/>
        <line id="Line_659" data-name="Line 659" x1="0.264" y1="5.86" transform="translate(57.239 134.001)" fill="none" stroke="#2e3c4b" stroke-miterlimit="10" stroke-width="0.7"/>
        <line id="Line_660" data-name="Line 660" x1="3.569" y1="0.406" transform="translate(55.676 136.62)" fill="none" stroke="#2e3c4b" stroke-miterlimit="10" stroke-width="0.7"/>
        <line id="Line_661" data-name="Line 661" x2="0.321" y2="6.817" transform="translate(36.578 6.308)" fill="none" stroke="#2e3c4b" stroke-miterlimit="10" stroke-width="0.7"/>
        <line id="Line_662" data-name="Line 662" x1="0.405" y2="6.872" transform="translate(40.626 6.321)" fill="none" stroke="#2e3c4b" stroke-miterlimit="10" stroke-width="0.7"/>
        <line id="Line_663" data-name="Line 663" y1="1.643" x2="4.099" transform="translate(49.004 3.989)" fill="none" stroke="#2e3c4b" stroke-miterlimit="10" stroke-width="0.7"/>
        <line id="Line_664" data-name="Line 664" y1="0.329" x2="4.82" transform="translate(50.265 9.325)" fill="none" stroke="#2e3c4b" stroke-miterlimit="10" stroke-width="0.7"/>
        <line id="Line_665" data-name="Line 665" x2="2.995" y2="1.505" transform="translate(49.68 13.091)" fill="none" stroke="#2e3c4b" stroke-miterlimit="10" stroke-width="0.7"/>
        <line id="Line_666" data-name="Line 666" x1="2.844" y1="1.335" transform="translate(23.735 4.026)" fill="none" stroke="#2e3c4b" stroke-miterlimit="10" stroke-width="0.7"/>
        <line id="Line_667" data-name="Line 667" x1="4.665" y2="0.18" transform="translate(20.492 9.145)" fill="none" stroke="#2e3c4b" stroke-miterlimit="10" stroke-width="0.7"/>
        <line id="Line_668" data-name="Line 668" x1="2.883" y2="1.383" transform="translate(21.437 13.843)" fill="none" stroke="#2e3c4b" stroke-miterlimit="10" stroke-width="0.7"/>
        <path id="Path_1316" data-name="Path 1316" d="M62.677,158.491c-2.16.573-24.886.94-26.537-.466-.361-.307,1.7-12.17,2.237-12.89s21.636-1.152,23.621-1.52" transform="translate(-36.098 -28.613)" fill="none" stroke="#2e3c4b" stroke-miterlimit="10" stroke-width="0.7"/>
        <path id="Path_1317" data-name="Path 1317" d="M80.748,143.987c1.18-.243,21.525.994,22.9,1.354.963.252,3.015,12.166,2.523,13.124s-22.905.744-24.8.293" transform="translate(-32.665 -28.587)" fill="none" stroke="#2e3c4b" stroke-miterlimit="10" stroke-width="0.7"/>
        <path id="Path_1318" data-name="Path 1318" d="M69.517,171.761c-.068-.473-.079-5.129,1.357-5.43s1.2,5.547,1.2,5.547Z" transform="translate(-33.53 -26.867)" fill="none" stroke="#2e3c4b" stroke-miterlimit="10" stroke-width="0.7"/>
      </g>
      <line id="Line_669" data-name="Line 669" y1="0.735" x2="1.567" transform="translate(116.342 14.689)" fill="none" stroke="#2e3c4b" stroke-miterlimit="10" stroke-width="0.7"/>
      <path id="Path_1319" data-name="Path 1319" d="M117.393,187.033l1.281,1.248s-3.643-66.942-3.643-81.289,1.594-69.807,1.594-69.807l2.049,1.511" transform="translate(1.284 -22.496)" fill="none" stroke="#2e3c4b" stroke-miterlimit="10" stroke-width="0.7"/>
      <line id="Line_670" data-name="Line 670" x1="1.509" y2="1.433" transform="translate(119.958 164.352)" fill="none" stroke="#2e3c4b" stroke-miterlimit="10" stroke-width="0.7"/>
      <path id="Path_1320" data-name="Path 1320" d="M128.015,96.7a5.359,5.359,0,0,0-6.575.065,7.475,7.475,0,0,0-2.617,6.326,12.644,12.644,0,0,0,2.566,6.544,5.936,5.936,0,0,0,2.354,2.136,2.522,2.522,0,0,0,2.941-.569,2.929,2.929,0,0,0,.388-2.308,5.071,5.071,0,0,0-2.844-3.764,3.848,3.848,0,0,0-4.448,1.036" transform="translate(5.667 -17.901)" fill="none" stroke="#2e3c4b" stroke-miterlimit="10" stroke-width="0.7"/>
      <path id="Path_1321" data-name="Path 1321" d="M121.5,95.655l7.311.661a.606.606,0,0,1,.361.111.574.574,0,0,1,.143.379,7.779,7.779,0,0,1-.86,3.741c-1.674,3.866-3.949,7.51-4.966,11.6" transform="translate(15.43 -17.698)" fill="none" stroke="#2e3c4b" stroke-miterlimit="10" stroke-width="0.7"/>
      <path id="Path_1322" data-name="Path 1322" d="M122.031,97.581a27.252,27.252,0,0,0,4.471-.106" transform="translate(17.347 -11.102)" fill="none" stroke="#2e3c4b" stroke-miterlimit="10" stroke-width="0.7"/>
      <path id="Path_1323" data-name="Path 1323" d="M124.326,99.278a24.462,24.462,0,0,1-1.151,3.251" transform="translate(21.493 -4.566)" fill="none" stroke="#2e3c4b" stroke-miterlimit="10" stroke-width="0.7"/>
      <path id="Path_1324" data-name="Path 1324" d="M124.648,95.57l10.362.291A7.427,7.427,0,0,1,134,99.653a56.72,56.72,0,0,0-4.411,14.516" transform="translate(26.831 -18.007)" fill="none" stroke="#2e3c4b" stroke-miterlimit="10" stroke-width="0.7"/>
      <path id="Path_1325" data-name="Path 1325" d="M125.527,97.371a38.778,38.778,0,0,0,5.285-.106" transform="translate(30.017 -11.861)" fill="none" stroke="#2e3c4b" stroke-miterlimit="10" stroke-width="0.7"/>
      <path id="Path_1326" data-name="Path 1326" d="M127.27,98.134c.3,2.585,1.059,7.653,1.461,7.663.356.023.032-2.613.365-3.871a5.324,5.324,0,0,1,2.113-3.168c1.757,1.041,2.206,3.339,2.478,5.36a6.015,6.015,0,0,1,.324-3.306A3.827,3.827,0,0,1,136.4,98.6a2.168,2.168,0,0,1,1.327.009,2.33,2.33,0,0,1,1.184,1.212c.781,1.619.425,3.542.851,5.286" transform="translate(36.333 -8.713)" fill="none" stroke="#2e3c4b" stroke-miterlimit="10" stroke-width="0.7"/>
    </g>
  </g>
</svg>
