<?xml version="1.0" encoding="utf-8"?>
<!-- Generator: Adobe Illustrator 24.0.3, SVG Export Plug-In . SVG Version: 6.00 Build 0)  -->
<svg version="1.1" id="Layer_1" xmlns="http://www.w3.org/2000/svg" xmlns:xlink="http://www.w3.org/1999/xlink" x="0px" y="0px"
	 viewBox="0 0 301.5 323.5" style="enable-background:new 0 0 301.5 323.5;" xml:space="preserve">
<style type="text/css">
	.st0{fill:#E5A34C;}
	.st1{enable-background:new    ;}
	.st2{fill:#2E3C4B;}
	.st3{fill:#AE4426;}
	.st4{fill:#F2EDEB;}
</style>
<g id="CIEKAWOSTKA" transform="translate(-598 -80.724)">
	<path id="Path_1283" class="st0" d="M610.3,95.8c18.5-23.1,261.8-16.9,275.6,0s20,269.6,4.9,290.4s-266.4,23.8-280.5,7.6
		S591.7,118.9,610.3,95.8z"/>
	<g id="CIEKAWOSTKA-2" transform="translate(684.449 104.13)">
		<g class="st1">
			<path class="st2" d="M4.7,14.6c-0.8-0.3-1.5-0.8-2-1.4c-0.6-0.6-1-1.3-1.4-2c-0.3-0.8-0.5-1.6-0.5-2.5S0.9,7,1.2,6.2
				C1.6,5.4,2,4.8,2.6,4.2c0.6-0.6,1.3-1,2-1.4c0.8-0.3,1.6-0.5,2.5-0.5c1,0,1.8,0.2,2.7,0.6s1.6,1,2.3,1.8l-1.3,1.1
				C9.8,4.6,8.5,4,7.1,4C6.5,4,5.9,4.2,5.3,4.4C4.8,4.6,4.3,5,3.8,5.4s-0.8,0.9-1,1.5C2.6,7.5,2.5,8.1,2.5,8.7
				c0,0.6,0.1,1.2,0.4,1.8c0.2,0.6,0.6,1.1,1,1.5c0.4,0.4,0.9,0.8,1.5,1c0.6,0.2,1.2,0.4,1.8,0.4c1.4,0,2.6-0.6,3.7-1.8l1.3,1.1
				c-0.7,0.8-1.4,1.4-2.3,1.8c-0.8,0.4-1.7,0.6-2.7,0.6C6.2,15.1,5.4,14.9,4.7,14.6z"/>
			<path class="st2" d="M14.3,15V2.4h1.6V15H14.3z"/>
			<path class="st2" d="M18.2,15V2.4h6.9v1.7h-5.3v3.8h3.5v1.6h-3.5v3.8h5.3V15H18.2z"/>
			<path class="st2" d="M33.3,15l-4.1-4.7V15h-1.7V2.4h1.7v4.8l4-4.8h2.2l-5.3,6.4l5.5,6.2H33.3z"/>
			<path class="st2" d="M45.5,15l-1.6-4.4h-4L38.4,15h-1.8L41,2.4h1.9L47.3,15H45.5z M41.9,4.8L40.5,9h2.9L41.9,4.8z"/>
			<path class="st2" d="M58.5,15h-1.7l-2-5.4L53,15h-1.7L46.7,2.3h1.8l3.6,9.9l1.8-5.2l-1.7-4.7h1.8L55.7,7l1.9,5.3l3.5-9.9H63
				L58.5,15z"/>
			<path class="st2" d="M67.8,14.6c-0.8-0.3-1.4-0.8-2-1.4c-0.6-0.6-1-1.3-1.4-2s-0.5-1.6-0.5-2.5s0.2-1.7,0.5-2.4
				c0.3-0.8,0.8-1.4,1.4-2c0.6-0.6,1.3-1,2-1.4c0.8-0.3,1.6-0.5,2.4-0.5s1.7,0.2,2.5,0.5c0.8,0.3,1.5,0.8,2,1.4c0.6,0.6,1,1.3,1.4,2
				c0.3,0.8,0.5,1.6,0.5,2.5s-0.2,1.7-0.5,2.5c-0.3,0.8-0.8,1.5-1.4,2c-0.6,0.6-1.3,1-2,1.4c-0.8,0.3-1.6,0.5-2.5,0.5
				S68.6,14.9,67.8,14.6z M68.5,4.5c-0.6,0.2-1.1,0.6-1.5,1S66.2,6.4,66,7c-0.2,0.6-0.4,1.2-0.4,1.8c0,0.6,0.1,1.2,0.4,1.8
				s0.6,1.1,1,1.5c0.4,0.4,0.9,0.8,1.5,1s1.2,0.4,1.8,0.4c0.6,0,1.2-0.1,1.8-0.4s1.1-0.6,1.5-1c0.4-0.4,0.7-0.9,1-1.5
				c0.2-0.6,0.4-1.2,0.4-1.8c0-0.6-0.1-1.2-0.4-1.8c-0.2-0.6-0.6-1.1-1-1.5s-0.9-0.8-1.5-1s-1.2-0.4-1.8-0.4
				C69.6,4.1,69,4.2,68.5,4.5z"/>
			<path class="st2" d="M84.7,5c-0.2-0.3-0.5-0.6-0.8-0.8c-0.3-0.2-0.8-0.2-1.3-0.2c-0.9,0-1.5,0.2-1.8,0.6
				c-0.3,0.3-0.5,0.8-0.5,1.4c0,0.4,0.1,0.6,0.2,0.9c0.1,0.2,0.3,0.4,0.5,0.5c0.3,0.2,0.8,0.4,1.5,0.4c0.7,0.1,1.3,0.2,1.8,0.3
				s0.9,0.3,1.3,0.5c0.9,0.6,1.4,1.5,1.4,2.7c0,0.5-0.1,0.9-0.3,1.4s-0.5,0.8-0.8,1.2c-0.4,0.4-0.9,0.7-1.4,0.9
				c-0.6,0.2-1.1,0.3-1.7,0.3c-1.3,0-2.4-0.4-3.2-1.1c-0.7-0.7-1.1-1.6-1.2-2.7l0,0h1.7c0.1,0.7,0.3,1.2,0.7,1.5
				c0.5,0.5,1.2,0.7,2,0.7c0.8,0,1.4-0.2,1.9-0.6c0.5-0.4,0.7-0.8,0.7-1.4c0-0.3,0-0.5-0.1-0.7s-0.2-0.4-0.4-0.5
				c-0.4-0.3-1.2-0.5-2.4-0.6c-1.2-0.1-2.1-0.4-2.7-1c-0.6-0.6-0.9-1.4-0.9-2.5c0-1.1,0.3-2,1-2.6c0.7-0.7,1.7-1.1,3-1.1
				c1.3,0,2.3,0.4,3.1,1.2c0.6,0.7,1,1.6,1.2,2.7h-1.7C85.1,5.8,84.9,5.4,84.7,5z"/>
			<path class="st2" d="M92.7,4v11H91V4h-3.1V2.4h7.8V4H92.7z"/>
			<path class="st2" d="M103.7,15l-4.1-4.7V15h-1.7V2.4h1.7v4.8l4-4.8h2.2l-5.3,6.4l5.5,6.2H103.7z"/>
			<path class="st2" d="M115.8,15l-1.6-4.4h-4l-1.6,4.4H107l4.4-12.6h1.9l4.4,12.6H115.8z M112.3,4.8L110.9,9h2.9L112.3,4.8z"/>
		</g>
	</g>
	<rect id="Rectangle_45" x="738" y="125.8" class="st3" width="10.8" height="2.2"/>
	<g id="Group_181" transform="translate(665.512 144.268)">
		<path id="Path_1327" class="st4" d="M10.8,40.9C15.6,27.8,26.9,0.8,48.7,0.3s82-2.6,97.2,15.7s18,32.6,15.7,61.4
			s-10,45.6-19.1,60.9s-48,27.2-82.9,25.8S-0.7,142.1,0,113.8s12.9-32.1,10.8-44.4S6,54,10.8,40.9z"/>
	</g>
	<g id="gdansk_port" transform="translate(713.676 152.214)">
		<path id="Path_1944" class="st2" d="M26.3,137.3c-9.5,0-20-0.1-20.6-0.4c-1-0.5-1-9.7-0.7-13.5c0.2-3.2,0.6-3.3,0.8-3.4
			c0.9-0.3,14.4-0.6,26.7-0.7c6-0.1,25.5-0.3,26.1,0.2c0.6,0.5,0.9,7.7,1,8.5c0.1,1.9,0.3,7.9-0.3,8.5c-0.6,0.6-18.8,0.7-26.6,0.7
			C30.6,137.3,28.5,137.3,26.3,137.3z M5.8,120.4c-0.5,0.4-0.9,7.1-0.6,12.2c0.2,3.7,0.6,4,0.6,4c0.6,0.2,12.2,0.4,26.5,0.3
			c15.3-0.1,25.9-0.3,26.6-0.6c0.6-0.7,0-15.6-0.7-16.5C57,119.3,7.6,119.8,5.8,120.4L5.8,120.4z"/>
		<path id="Path_1945" class="st2" d="M12.5,130.6c-0.6,0-1.5,0-2.6-0.1c-0.8-0.1-1.6-0.1-2.4,0c-0.1,0-0.1,0-0.2,0
			c-0.3-0.2-0.4-2.1-0.4-5.9l0-0.1c0.4-0.9,6.3-0.8,6.9-0.5c0.2,0.1,0.4,0.3,0.5,1.4c0.1,1.5,0.1,4.7-0.5,5.1
			C13.3,130.6,12.9,130.7,12.5,130.6z M7.9,130.1c0.4,0,1,0,2,0.1c1.2,0.1,2.4,0.1,3.6,0c0.3-0.2,0.5-2.9,0.3-4.8
			c-0.1-1-0.3-1.1-0.3-1.1c-0.7-0.3-6-0.1-6.4,0.3c0,1.8,0,3.7,0.2,5.5C7.6,130.1,7.7,130.1,7.9,130.1z"/>
		<path id="Path_1946" class="st2" d="M20.5,130.5c-2.1,0-4.8-0.2-4.8-0.2c-0.4-0.2-0.1-5.8-0.1-5.9c0-0.1,0.2-0.2,0.3-0.2
			c1.3-0.2,2.6-0.4,3.9-0.5c2.1-0.1,3.3-0.1,3.5,0.1c0.6,0.5-0.2,6-0.4,6.4C22.1,130.5,21.3,130.6,20.5,130.5z M15.9,130
			c0.8,0.1,6.2,0.3,6.7,0c0.2-0.4,0.8-5.5,0.5-5.9c-0.4-0.3-6.4,0.1-7.1,0.4C15.9,125.2,15.8,129.3,15.9,130z"/>
		<path id="Path_1947" class="st2" d="M29.6,130.7c-1.3,0.1-2.7,0-4-0.2c-0.2-0.3-0.5-4.5-0.7-6.3l0-0.2l0.1,0c0.2,0,4.8-0.1,7.9,0
			c7.8,0,7.8,0.1,7.9,0.3l0,0c0.2,1.9,0.2,3.8,0,5.7c-0.1,0.2-0.2,0.3-1.5,0.4C38,130.5,33.2,130.7,29.6,130.7z M26,130.2
			c1.2,0.2,13.7,0.1,14.6-0.4c0.2-1.8,0.2-3.6,0-5.4c-1.1-0.2-13.5-0.2-15.2-0.1C25.5,126.4,25.9,129.7,26,130.2z"/>
		<path id="Path_1948" class="st2" d="M46.2,130.9c-0.9,0.1-1.8,0-2.7-0.2c-0.5-0.3-1.5-5.4-1.3-6.4c0.1-0.2,0.2-0.3,0.3-0.3l0,0.2
			l0-0.2c0.1,0,7.1-0.8,7.5,0.1c0.3,0.6,0.6,5.9-0.1,6.4C48.7,130.8,47.5,131,46.2,130.9z M42.5,124.3c-0.2,0.5,0.6,5.5,1.2,6.1
			c0.5,0.2,5.5,0.2,6-0.1c0.4-0.3,0.3-5.3-0.1-6C49.3,123.8,44.1,124.1,42.5,124.3z"/>
		<path id="Path_1949" class="st2" d="M52.9,130.6c-0.1,0-0.2,0-0.3,0c-0.8,0-0.9-0.1-0.9-0.2c-0.2-0.4-0.5-5.4-0.1-6.3
			c0-0.1,0.1-0.2,0.2-0.2l0,0c0,0,4.7-0.8,5.7,0s0.4,5.6,0,6.1S54.1,130.6,52.9,130.6z M52,130.2c0.6,0.2,4.9,0,5.3-0.4
			c0.3-0.5,0.8-4.9,0-5.6c-0.8-0.6-4.8-0.1-5.4,0C51.7,124.8,51.9,129.6,52,130.2L52,130.2z"/>
		<path id="Path_1950" class="st2" d="M38,119.4c-0.5-22.7-1.4-65.8-1.8-67.5c-0.8-0.5-11.7-0.9-13.7-0.5l1,68l-0.4,0l-1-68.3l0.1,0
			c1.2-0.3,13.6-0.1,14.2,0.6c0.5,0.6,1.6,56.5,1.8,67.7L38,119.4z"/>
		<path id="Path_1951" class="st2" d="M36.4,52l0-0.4c2.5-0.1,3.6-0.4,4-0.9c0.6-0.9,4.2-26,4-27.6c-0.9-0.5-13.4-2.6-14.1-2.6
			c-1.1,0-13.5,0.7-14.3,1.3c-0.4,1.8,3,27.5,3.8,28.4c0.7,0.6,0.9,0.7,2.9,0.8l0,0.4c-2-0.1-2.4-0.2-3.2-0.9
			c-0.8-0.7-4.4-27-3.9-28.8c0.3-0.9,14.5-1.5,14.7-1.5c0.1,0,14,2.1,14.4,2.8c0.4,0.6-3.4,27-4,28C40.2,51.6,39.1,51.9,36.4,52z"/>
		<path id="Path_1952" class="st2" d="M47.6,23.3c-0.4,0-0.9,0-1.1,0l0-0.4c0.5,0,1,0,1.5,0c0.2-0.7,0.2-1.4-0.1-2
			c-0.7-0.4-15.8-2.4-17.8-2.6c-1.3-0.1-18.1,1.3-18.7,1.5c0,0.2,0,0.3,0,0.5c0.1,0.5,0.2,1,0.5,1.5c1.3,0.1,2.5,0,3.7-0.2l0.1,0.4
			c-0.4,0.1-3.6,0.4-4,0.1c-0.4-0.6-0.7-1.4-0.7-2.2c0-0.2,0.1-0.4,0.2-0.4c0.4-0.2,17.5-1.7,18.9-1.5c0.2,0,17.5,2.1,18,2.7
			c0.3,0.7,0.4,1.5,0.1,2.3c0,0.1-0.1,0.3-0.2,0.3C48,23.3,47.8,23.3,47.6,23.3z"/>
		<path id="Path_1953" class="st2" d="M38.2,19l-0.4,0c0.3-4,0.5-10.6,0.2-11.1c-0.8-0.5-16-0.7-17.1-0.3c-0.2,0.6,0.2,7.1,0.4,11.1
			l-0.4,0c-0.1-1.8-0.7-10.8-0.4-11.3c0.1-0.1,0.2-0.2,0.6-0.2C23.3,6.9,37.7,7,38.3,7.6C38.8,8.2,38.4,16.5,38.2,19z"/>
		<path id="Path_1954" class="st2" d="M38.5,8l-0.3-0.1c0.2-0.7,0.3-1.5,0.4-2.2c-1.4-0.2-16.8-0.8-18-0.6c0,0.8,0.1,1.7,0.3,2.5
			l-0.3,0.1C20.2,6,20.1,5,20.3,4.8c0.1-0.1,0.2-0.2,8.9,0.1c4,0.1,8.9,0.3,9.5,0.5c0.1,0,0.2,0.1,0.2,0.1C38.9,6.4,38.7,7.2,38.5,8
			z"/>
		
			<rect id="Rectangle_149" x="21.8" y="4.9" transform="matrix(0.9939 -0.1106 0.1106 0.9939 -0.5338 2.4701)" class="st2" width="0.4" height="2.3"/>
		<rect id="Rectangle_150" x="23.7" y="4.9" class="st2" width="0.4" height="2.3"/>
		
			<rect id="Rectangle_151" x="27.4" y="5.9" transform="matrix(0.1701 -0.9854 0.9854 0.1701 17.6533 33.1955)" class="st2" width="2.2" height="0.4"/>
		
			<rect id="Rectangle_152" x="29.2" y="6" transform="matrix(7.278568e-02 -0.9973 0.9973 7.278568e-02 21.8793 35.8659)" class="st2" width="2.1" height="0.4"/>
		<rect id="Rectangle_153" x="31.5" y="5.1" class="st2" width="0.4" height="2.1"/>
		
			<rect id="Rectangle_154" x="34" y="6.1" transform="matrix(8.503228e-02 -0.9964 0.9964 8.503228e-02 25.7447 40.6499)" class="st2" width="2" height="0.4"/>
		
			<rect id="Rectangle_155" x="35.8" y="6.3" transform="matrix(8.196997e-02 -0.9966 0.9966 8.196997e-02 27.3846 42.6441)" class="st2" width="2.1" height="0.4"/>
		<path id="Path_1955" class="st2" d="M28.9,1.9h-5.4l0-0.1c-0.1-0.4-0.2-1.4,0-1.7c0.2-0.2,5.3,0.1,5.3,0.2c0.1,0,0.3,0.2,0.1,1.5
			L28.9,1.9z M23.8,1.5h4.8c0.1-0.3,0.1-0.7,0-1c-0.6-0.1-4.3-0.2-4.9-0.2C23.7,0.8,23.7,1.2,23.8,1.5L23.8,1.5z"/>
		<rect id="Rectangle_156" x="25.4" y="0.2" class="st2" width="0.4" height="1.5"/>
		<rect id="Rectangle_157" x="26.5" y="0.3" class="st2" width="0.4" height="1.5"/>
		<path id="Path_1956" class="st2" d="M46.3,29.8l-2.4-0.9c-0.6,0-9.5-0.5-13.4-0.7c-4-0.2-14.1,0.7-14.2,0.7l-2.4,0.8l-0.1-0.3
			l2.4-0.8c0.1,0,10.3-0.9,14.3-0.7s13.3,0.7,13.4,0.7l0.1,0l2.4,0.9L46.3,29.8z"/>
		<path id="Path_1957" class="st2" d="M15.1,36.2L15,35.9l2-0.4c0.1,0,10.5-0.8,13.2-0.8c2.8,0,12.7,0.5,12.8,0.5l2.1,0.2l0,0.4
			l-2-0.2c-0.1,0-10-0.5-12.8-0.5c-2.7,0-13.1,0.8-13.2,0.8L15.1,36.2z"/>
		<rect id="Rectangle_158" x="21" y="28.4" class="st2" width="0.4" height="6.8"/>
		<rect id="Rectangle_159" x="25.4" y="28.1" class="st2" width="0.4" height="6.9"/>
		
			<rect id="Rectangle_160" x="33.8" y="28.1" transform="matrix(0.9983 -5.803448e-02 5.803448e-02 0.9983 -1.7729 2.0272)" class="st2" width="0.4" height="6.8"/>
		<path id="Path_1958" class="st2" d="M38.5,34.9l-0.4,0c0.1-1.5,0.3-6.4,0.4-6.6l0.3,0.1l-0.2-0.1l0.2,0
			C38.9,28.6,38.7,32.4,38.5,34.9z"/>
		<path id="Path_1959" class="st2" d="M43.7,42.5l-1.6-0.4c-0.5,0-9.8,0.1-11.9,0c-2.1-0.1-12.1,0-12.3,0l-1.6,0.1l0-0.4l1.6-0.1
			c0.1,0,10.1-0.1,12.3,0s11.8,0,11.9,0h0l1.6,0.4L43.7,42.5z"/>
		<path id="Path_1960" class="st2" d="M42.7,47h-1.3c-0.1,0-9.9-0.7-11.2-0.6c-1.3,0.1-11.2,0-11.6,0l-1.3,0.3l-0.1-0.3l1.3-0.3
			c0.1,0,4.6,0,8,0c1.7,0,3.2,0,3.6,0c1.3-0.1,10.8,0.6,11.2,0.6h1.3L42.7,47z"/>
		<path id="Path_1961" class="st2" d="M43.4,43.6l-1.6-0.2h0c-0.3,0-10-0.1-11.7,0c-1.8,0.1-11.9,0-12,0l-1.5,0.2l0-0.4l1.5-0.2
			c0.1,0,4.6,0,8.1,0c1.8,0,3.3,0,3.9,0c1.8-0.1,11.7,0,11.8,0l1.6,0.2L43.4,43.6z"/>
		
			<rect id="Rectangle_161" x="21.3" y="41.9" transform="matrix(0.9986 -5.297855e-02 5.297855e-02 0.9986 -2.3047 1.2021)" class="st2" width="0.4" height="4.3"/>
		
			<rect id="Rectangle_162" x="25.5" y="41.9" transform="matrix(0.9978 -6.698349e-02 6.698349e-02 0.9978 -2.8945 1.8196)" class="st2" width="0.4" height="4.3"/>
		<path id="Path_1962" class="st2" d="M30.3,51l-0.4,0l0.1-4.8V42l0.1-7.2l0.4-13.6l0.4,0l-0.4,13.6L30.4,42v4.2L30.3,51z"/>
		<rect id="Rectangle_163" x="33.8" y="42" class="st2" width="0.4" height="4.4"/>
		
			<rect id="Rectangle_164" x="35.9" y="44.1" transform="matrix(7.278568e-02 -0.9973 0.9973 7.278568e-02 -8.7763 79.1542)" class="st2" width="4.6" height="0.4"/>
		<path id="Path_1963" class="st2" d="M26.1,18.3L25.4,7.2V1.5h1.5L27.2,5v2.2h-0.4V5l-0.3-3.1h-0.8v5.3l0.8,11.1L26.1,18.3z"/>
		<path id="Path_1964" class="st2" d="M33,18.4l-0.4,0l0.4-11.1l0.1-2.1l0.4,0l-0.1,2.1L33,18.4z"/>
		<path id="Path_1965" class="st2" d="M38.2,14.2c-0.9-0.2-11.7-0.4-17.3-0.5l0-0.4c0.7,0,16.2,0.2,17.4,0.5L38.2,14.2z"/>
		<path id="Path_1966" class="st2" d="M38.2,9.3C37.6,9.2,25.4,9,20.7,8.9V8.6c0.7,0,16.9,0.2,17.6,0.4L38.2,9.3z"/>
		<rect id="Rectangle_165" x="7.1" y="125.2" class="st2" width="6.7" height="0.4"/>
		
			<rect id="Rectangle_166" x="15.7" y="125" transform="matrix(0.9998 -1.899657e-02 1.899657e-02 0.9998 -2.3751 0.3938)" class="st2" width="7.6" height="0.4"/>
		
			<rect id="Rectangle_167" x="32.9" y="117.5" transform="matrix(1.179820e-02 -0.9999 0.9999 1.179820e-02 -92.6514 156.8638)" class="st2" width="0.4" height="15.6"/>
		
			<rect id="Rectangle_168" x="42.3" y="125.1" transform="matrix(0.9993 -3.713207e-02 3.713207e-02 0.9993 -4.6191 1.799)" class="st2" width="7.7" height="0.4"/>
		<rect id="Rectangle_169" x="51.6" y="124.9" class="st2" width="6.2" height="0.4"/>
		
			<rect id="Rectangle_170" x="10.3" y="124" transform="matrix(1 -2.999987e-03 2.999987e-03 1 -0.3815 3.205156e-02)" class="st2" width="0.4" height="6.4"/>
		
			<rect id="Rectangle_171" x="16.3" y="126.9" transform="matrix(3.089262e-03 -1 1 3.089262e-03 -107.647 146.2551)" class="st2" width="6.4" height="0.4"/>
		
			<rect id="Rectangle_172" x="33.1" y="124.1" transform="matrix(0.9975 -7.017433e-02 7.017433e-02 0.9975 -8.8479 2.6476)" class="st2" width="0.4" height="6.3"/>
		
			<rect id="Rectangle_173" x="37" y="124.1" transform="matrix(0.9985 -5.397526e-02 5.397526e-02 0.9985 -6.8152 2.1945)" class="st2" width="0.4" height="6.3"/>
		
			<rect id="Rectangle_174" x="29" y="124.1" transform="matrix(0.9951 -9.900861e-02 9.900861e-02 0.9951 -12.4575 3.5111)" class="st2" width="0.4" height="6.3"/>
		
			<rect id="Rectangle_175" x="46.3" y="124" transform="matrix(0.9951 -9.885082e-02 9.885082e-02 0.9951 -12.3592 5.2159)" class="st2" width="0.4" height="6.7"/>
		
			<rect id="Rectangle_176" x="54.8" y="123.8" transform="matrix(0.999 -4.400139e-02 4.400139e-02 0.999 -5.5391 2.5404)" class="st2" width="0.4" height="6.6"/>
		<path id="Path_1967" class="st2" d="M20.2,51c-0.7-0.2-1.4-0.5-2.1-0.8c-0.7-0.7-5-23.6-5.8-28.2l0.4-0.1c2,10.9,5.2,27.3,5.7,28
			c0.6,0.3,1.3,0.6,1.9,0.8L20.2,51z"/>
		<path id="Path_1968" class="st2" d="M39.4,51.6l0-0.4c0.8-0.1,1.5-0.3,2.3-0.6c0.3-0.6,3.5-16.3,5.5-26.7l0.3,0.1
			c-1.6,8-5.3,26.5-5.6,26.9C41.1,51.4,40.3,51.6,39.4,51.6z"/>
		<path id="Path_1969" class="st2" d="M52.6,29.1l-0.1-0.3l8.9-2.1l0.1,0.3L52.6,29.1z"/>
		<path id="Path_1970" class="st2" d="M61.4,33.4c-2.5-0.2-4.9-0.2-7.4,0l-0.2-0.3c0.4-0.4,5.5-0.2,7.6-0.1L61.4,33.4z"/>
		
			<rect id="Rectangle_177" x="55.4" y="37.2" transform="matrix(0.4856 -0.8742 0.8742 0.4856 -5.5858 68.6568)" class="st2" width="0.4" height="3.7"/>
		<path id="Path_1971" class="st2" d="M7.9,29.1C5.9,28.9,4,28.5,2.1,28l0.1-0.3c1.9,0.5,3.8,0.9,5.7,1.1V29.1z"/>
		<path id="Path_1972" class="st2" d="M0,33.4L0,33c0.3,0,6.5-0.4,7.9,0l-0.1,0.3C6.4,33,0.1,33.4,0,33.4z"/>
		<path id="Path_1973" class="st2" d="M2.2,39.8l-0.1-0.3l5.7-1.8L7.9,38L2.2,39.8z"/>
	</g>
	<g class="st1">
		<path class="st2" d="M669.2,331.6v0.6h-5.3v-11.1h0.6v10.5H669.2z"/>
		<path class="st2" d="M678.1,324.6v7.5h-0.5l-0.1-1.9c-0.6,1.2-1.7,2.1-3.1,2.1c-2,0-3.6-1.6-3.6-3.9c0-2.3,1.6-4,3.6-4
			c1.5,0,2.6,0.8,3.2,2.1l0.1-1.9H678.1z M677.6,328.4c0-2-1.3-3.4-3.1-3.4c-1.8,0-3.1,1.5-3.1,3.4c0,1.9,1.3,3.4,3.1,3.4
			S677.6,330.3,677.6,328.4z"/>
		<path class="st2" d="M684.3,325.1h-2v7h-0.6v-7h-1.1v-0.5h1.1v-2.3h0.6v2.3h2V325.1z"/>
		<path class="st2" d="M693.2,324.6v7.5h-0.5l-0.1-1.9c-0.6,1.2-1.7,2.1-3.1,2.1c-2,0-3.6-1.6-3.6-3.9c0-2.3,1.6-4,3.6-4
			c1.5,0,2.6,0.8,3.2,2.1l0.1-1.9H693.2z M692.7,328.4c0-2-1.3-3.4-3.1-3.4c-1.8,0-3.1,1.5-3.1,3.4c0,1.9,1.3,3.4,3.1,3.4
			S692.7,330.3,692.7,328.4z"/>
		<path class="st2" d="M699.4,324.5l-0.1,0.6c-0.2,0-0.3-0.1-0.5-0.1c-1.2,0-2,0.9-2,2.4v4.8h-0.6v-7.5h0.5l0.1,1.5
			c0.3-0.9,1-1.7,2.1-1.7C699.1,324.4,699.2,324.4,699.4,324.5z"/>
		<path class="st2" d="M707.4,327.7v4.5h-0.6v-4.4c0-2-1-2.9-2.4-2.9c-1.4,0-2.4,1-2.5,2.6v4.6h-0.6v-7.5h0.5l0.1,1.6
			c0.4-1.1,1.4-1.9,2.6-1.9C705.8,324.4,707.4,325.1,707.4,327.7z"/>
		<path class="st2" d="M710.2,322.1c0-0.3,0.2-0.6,0.6-0.6c0.3,0,0.6,0.2,0.6,0.6c0,0.3-0.2,0.6-0.6,0.6
			C710.4,322.7,710.2,322.4,710.2,322.1z M710.4,324.6h0.6v7.5h-0.6V324.6z"/>
		<path class="st2" d="M721.1,324.6v7.5h-0.5l-0.1-1.9c-0.6,1.2-1.7,2.1-3.1,2.1c-2,0-3.6-1.6-3.6-3.9c0-2.3,1.6-4,3.6-4
			c1.5,0,2.6,0.8,3.2,2.1l0.1-1.9H721.1z M720.6,328.4c0-2-1.3-3.4-3.1-3.4c-1.8,0-3.1,1.5-3.1,3.4c0,1.9,1.3,3.4,3.1,3.4
			S720.6,330.3,720.6,328.4z"/>
		<path class="st2" d="M739.1,324.6l-2.9,7.5h-0.5l-2.1-6.8l-2.1,6.8H731l-2.9-7.5h0.6l2.5,6.8l2.1-6.8h0.5l2.1,6.7l2.5-6.7H739.1z"
			/>
		<path class="st2" d="M753.1,324.6v7.1c0,2.8-1.1,4.1-3.5,4.1c-0.5,0-0.9-0.1-1.3-0.2l0.1-0.5c0.4,0.1,0.7,0.2,1.1,0.2
			c2.1,0,2.9-1.2,2.9-3.5v-1.6c-0.6,1.2-1.7,2.1-3.1,2.1c-2,0-3.6-1.6-3.6-3.9c0-2.3,1.6-4,3.6-4c1.5,0,2.6,0.8,3.2,2.1l0.1-1.9
			H753.1z M752.6,328.4c0-2-1.3-3.4-3.1-3.4c-1.8,0-3.1,1.5-3.1,3.4c0,1.9,1.3,3.4,3.1,3.4S752.6,330.3,752.6,328.4z"/>
		<path class="st2" d="M763,320.4v11.8h-0.5l-0.1-1.9c-0.6,1.2-1.7,2.1-3.1,2.1c-2,0-3.6-1.6-3.6-3.9c0-2.3,1.6-4,3.6-4
			c1.5,0,2.6,0.8,3.1,2v-6.1H763z M762.4,328.4c0-2-1.3-3.4-3.1-3.4c-1.8,0-3.1,1.5-3.1,3.4c0,1.9,1.3,3.4,3.1,3.4
			S762.4,330.3,762.4,328.4z"/>
		<path class="st2" d="M772.8,324.6v7.5h-0.5l-0.1-1.9c-0.6,1.2-1.7,2.1-3.1,2.1c-2,0-3.6-1.6-3.6-3.9c0-2.3,1.6-4,3.6-4
			c1.5,0,2.6,0.8,3.2,2.1l0.1-1.9H772.8z M772.3,328.4c0-2-1.3-3.4-3.1-3.4c-1.8,0-3.1,1.5-3.1,3.4c0,1.9,1.3,3.4,3.1,3.4
			S772.3,330.3,772.3,328.4z"/>
		<path class="st2" d="M781.8,327.7v4.5h-0.6v-4.4c0-2-1-2.9-2.4-2.9c-1.4,0-2.4,1-2.5,2.6v4.6h-0.6v-7.5h0.5l0.1,1.6
			c0.4-1.1,1.4-1.9,2.6-1.9C780.2,324.4,781.8,325.1,781.8,327.7z M778,323.2h-0.2l2.2-2.5l0.6,0.1l-1.8,1.8
			C778.4,323.2,778.2,323.2,778,323.2z"/>
		<path class="st2" d="M784.5,330.7c0.4,0.6,1.1,1.1,2.1,1.1c1.2,0,2-0.6,2-1.6c0-2.4-4.2-0.9-4.2-3.7c0-1.2,1-2.1,2.4-2.1
			c1.1,0,1.8,0.4,2.2,0.8l-0.4,0.4c-0.4-0.4-1-0.7-1.9-0.7c-1.1,0-1.8,0.6-1.8,1.5c0,2.3,4.2,0.9,4.2,3.7c0,1.3-1.1,2.1-2.6,2.1
			c-1.2,0-2.2-0.6-2.6-1.2L784.5,330.7z"/>
		<path class="st2" d="M796.8,332.2l-4.5-4.1v4.1h-0.6v-11.8h0.6v7.6l4-3.3h0.8l-4.1,3.4l4.6,4.1H796.8z"/>
		<path class="st2" d="M799.4,322.1c0-0.3,0.2-0.6,0.6-0.6s0.6,0.2,0.6,0.6c0,0.3-0.2,0.6-0.6,0.6S799.4,322.4,799.4,322.1z
			 M799.7,324.6h0.6v7.5h-0.6V324.6z"/>
		<path class="st2" d="M814,327.7v4.5h-0.6v-4.5c0-1.7-0.7-2.8-2.2-2.8c-1.3,0-2.1,1-2.2,2.8v4.4h-0.6v-4.6c0-1.6-0.8-2.7-2.2-2.7
			c-1.2,0-2.1,1.1-2.2,2.7v4.5h-0.6v-7.5h0.5l0.1,1.6c0.4-1.2,1.3-1.8,2.3-1.8c0.9,0,2.1,0.5,2.5,2c0.4-1.3,1.2-2,2.5-2
			C812.6,324.4,814,325.1,814,327.7z"/>
	</g>
	<g class="st1">
		<path class="st2" d="M684.4,344.1c0,2.1-1.7,3-3.4,3h-2v5h-0.6v-11.1h2.7C682.7,341.1,684.4,342,684.4,344.1z M683.7,344.1
			c0-1.6-1.2-2.5-2.9-2.5H679v5h1.8C682.5,346.6,683.7,345.7,683.7,344.1z"/>
		<path class="st2" d="M686.1,348.4c0-2.2,1.7-4,3.9-4c2.3,0,3.9,1.8,3.9,4c0,2.2-1.7,3.9-3.9,3.9
			C687.8,352.3,686.1,350.6,686.1,348.4z M693.4,348.4c0-1.9-1.4-3.4-3.3-3.4c-1.9,0-3.3,1.5-3.3,3.4c0,1.9,1.4,3.4,3.3,3.4
			C692,351.8,693.4,350.3,693.4,348.4z"/>
		<path class="st2" d="M699.7,344.5l-0.1,0.6c-0.2,0-0.3-0.1-0.5-0.1c-1.2,0-2,0.9-2,2.4v4.8h-0.6v-7.5h0.5l0.1,1.5
			c0.3-0.9,1-1.7,2.1-1.7C699.4,344.4,699.6,344.4,699.7,344.5z"/>
		<path class="st2" d="M700.9,348.4c0-2.2,1.5-3.9,3.8-3.9c0.9,0,1.8,0.3,2.4,0.8l-0.4,0.4c-0.5-0.5-1.2-0.7-2-0.7
			c-2,0-3.2,1.5-3.2,3.4c0,1.9,1.2,3.4,3.2,3.4c0.8,0,1.5-0.3,2-0.7l0.4,0.4c-0.7,0.5-1.5,0.8-2.4,0.8
			C702.4,352.3,700.9,350.6,700.9,348.4z"/>
		<path class="st2" d="M709.4,342.1c0-0.3,0.2-0.6,0.6-0.6c0.3,0,0.6,0.2,0.6,0.6c0,0.3-0.2,0.6-0.6,0.6
			C709.6,342.7,709.4,342.4,709.4,342.1z M709.6,344.6h0.6v7.5h-0.6V344.6z"/>
		<path class="st2" d="M713.6,348.2L713.6,348.2c0,2,1.2,3.6,3.2,3.6c1.1,0,2-0.5,2.5-1.1l0.5,0.4c-0.6,0.7-1.7,1.2-2.9,1.2
			c-2.4,0-3.9-1.8-3.9-4c0-2.1,1.5-3.9,3.7-3.9c2.1,0,3.5,1.6,3.5,3.5v0.3H713.6z M713.7,347.8h5.9c-0.1-1.6-1.2-2.8-2.9-2.8
			S713.9,346.2,713.7,347.8z"/>
		<path class="st2" d="M734.1,344.1c0,2.1-1.7,3-3.4,3h-2v5h-0.6v-11.1h2.7C732.4,341.1,734.1,342,734.1,344.1z M733.5,344.1
			c0-1.6-1.2-2.5-2.9-2.5h-1.8v5h1.8C732.3,346.6,733.5,345.7,733.5,344.1z"/>
		<path class="st2" d="M735.9,348.4c0-2.2,1.7-4,3.9-4c2.3,0,3.9,1.8,3.9,4c0,2.2-1.7,3.9-3.9,3.9
			C737.5,352.3,735.9,350.6,735.9,348.4z M743.1,348.4c0-1.9-1.4-3.4-3.3-3.4c-1.9,0-3.3,1.5-3.3,3.4c0,1.9,1.4,3.4,3.3,3.4
			C741.7,351.8,743.1,350.3,743.1,348.4z M739,343.2h-0.2l2.2-2.5l0.6,0.1l-1.8,1.8C739.4,343.2,739.2,343.2,739,343.2z"/>
		<path class="st2" d="M748,345.4l-1.1,0.9v5.9h-0.6v-5.4l-1.1,0.8V347l1.1-0.8v-5.8h0.6v5.4l1.1-0.9V345.4z"/>
		<path class="st2" d="M755.9,347.7v4.5h-0.6v-4.4c0-2-1-2.9-2.4-2.9c-1.4,0-2.4,1-2.5,2.6v4.6h-0.6v-7.5h0.5l0.1,1.6
			c0.4-1.1,1.4-1.9,2.6-1.9C754.4,344.4,755.9,345.1,755.9,347.7z"/>
		<path class="st2" d="M758.3,348.4c0-2.2,1.7-4,3.9-4c2.3,0,3.9,1.8,3.9,4c0,2.2-1.7,3.9-3.9,3.9
			C760,352.3,758.3,350.6,758.3,348.4z M765.6,348.4c0-1.9-1.4-3.4-3.3-3.4c-1.9,0-3.3,1.5-3.3,3.4c0,1.9,1.4,3.4,3.3,3.4
			C764.2,351.8,765.6,350.3,765.6,348.4z"/>
		<path class="st2" d="M768.3,348.4c0-2.2,1.5-3.9,3.8-3.9c0.9,0,1.8,0.3,2.4,0.8l-0.4,0.4c-0.5-0.5-1.2-0.7-2-0.7
			c-2,0-3.2,1.5-3.2,3.4c0,1.9,1.2,3.4,3.2,3.4c0.8,0,1.5-0.3,2-0.7l0.4,0.4c-0.7,0.5-1.5,0.8-2.4,0.8
			C769.8,352.3,768.3,350.6,768.3,348.4z"/>
		<path class="st2" d="M782.9,347.7v4.5h-0.6v-4.4c0-2-1-2.9-2.4-2.9c-1.4,0-2.4,1-2.5,2.6v4.6h-0.6v-7.5h0.5l0.1,1.6
			c0.4-1.1,1.4-1.9,2.6-1.9C781.4,344.4,782.9,345.1,782.9,347.7z"/>
		<path class="st2" d="M791.9,344.6l-4.9,11.2h-0.6l1.7-3.8l-3.2-7.4h0.7l2.8,6.7l2.9-6.7H791.9z"/>
		<path class="st2" d="M804.5,347.7v4.5h-0.6v-4.5c0-1.7-0.7-2.8-2.2-2.8c-1.3,0-2.1,1-2.2,2.8v4.4h-0.6v-4.6c0-1.6-0.8-2.7-2.2-2.7
			c-1.2,0-2.1,1.1-2.2,2.7v4.5h-0.6v-7.5h0.5l0.1,1.6c0.4-1.2,1.3-1.8,2.3-1.8c0.9,0,2.1,0.5,2.5,2c0.4-1.3,1.2-2,2.5-2
			C803.1,344.4,804.5,345.1,804.5,347.7z"/>
	</g>
	<g class="st1">
		<path class="st2" d="M638.1,375.8v-0.5c1.4,0.1,2-0.5,2-1.8v-8.9h0.6v8.9C640.7,375.5,639.4,376,638.1,375.8z M639.8,362.1
			c0-0.3,0.2-0.6,0.6-0.6c0.3,0,0.6,0.2,0.6,0.6c0,0.3-0.2,0.6-0.6,0.6C640,362.7,639.8,362.4,639.8,362.1z"/>
		<path class="st2" d="M650.8,364.6v7.5h-0.5l-0.1-1.9c-0.6,1.2-1.7,2.1-3.1,2.1c-2,0-3.6-1.6-3.6-3.9c0-2.3,1.6-4,3.6-4
			c1.5,0,2.6,0.8,3.2,2.1l0.1-1.9H650.8z M650.2,368.4c0-2-1.3-3.4-3.1-3.4c-1.8,0-3.1,1.5-3.1,3.4c0,1.9,1.3,3.4,3.1,3.4
			S650.2,370.3,650.2,368.4z"/>
		<path class="st2" d="M658.7,372.2l-4.5-4.1v4.1h-0.6v-11.8h0.6v7.6l4-3.3h0.8L655,368l4.6,4.1H658.7z"/>
		<path class="st2" d="M661,368.4c0-2.2,1.7-4,3.9-4c2.3,0,3.9,1.8,3.9,4c0,2.2-1.7,3.9-3.9,3.9C662.7,372.3,661,370.6,661,368.4z
			 M668.3,368.4c0-1.9-1.4-3.4-3.3-3.4c-1.9,0-3.3,1.5-3.3,3.4c0,1.9,1.4,3.4,3.3,3.4C666.9,371.8,668.3,370.3,668.3,368.4z"/>
		<path class="st2" d="M675,375.8v-0.5c1.4,0.1,2-0.5,2-1.8v-8.9h0.6v8.9C677.6,375.5,676.4,376,675,375.8z M676.7,362.1
			c0-0.3,0.2-0.6,0.6-0.6c0.3,0,0.6,0.2,0.6,0.6c0,0.3-0.2,0.6-0.6,0.6C677,362.7,676.7,362.4,676.7,362.1z"/>
		<path class="st2" d="M681,368.2L681,368.2c0,2,1.2,3.6,3.2,3.6c1.1,0,2-0.5,2.5-1.1l0.5,0.4c-0.6,0.7-1.7,1.2-2.9,1.2
			c-2.4,0-3.9-1.8-3.9-4c0-2.1,1.5-3.9,3.7-3.9c2.1,0,3.5,1.6,3.5,3.5v0.3H681z M681,367.8h5.9c-0.1-1.6-1.2-2.8-2.9-2.8
			S681.2,366.2,681,367.8z"/>
		<path class="st2" d="M696.9,360.4v11.8h-0.5l-0.1-1.9c-0.6,1.2-1.7,2.1-3.1,2.1c-2,0-3.6-1.6-3.6-3.9c0-2.3,1.6-4,3.6-4
			c1.5,0,2.6,0.8,3.1,2v-6.1H696.9z M696.4,368.4c0-2-1.3-3.4-3.1-3.4c-1.8,0-3.1,1.5-3.1,3.4c0,1.9,1.3,3.4,3.1,3.4
			S696.4,370.3,696.4,368.4z"/>
		<path class="st2" d="M705.9,364.6l-4.9,11.2h-0.6l1.7-3.8l-3.2-7.4h0.7l2.8,6.7l2.9-6.7H705.9z"/>
		<path class="st2" d="M714,367.7v4.5h-0.6v-4.4c0-2-1-2.9-2.4-2.9c-1.4,0-2.4,1-2.5,2.6v4.6h-0.6v-7.5h0.5l0.1,1.6
			c0.4-1.1,1.4-1.9,2.6-1.9C712.5,364.4,714,365.1,714,367.7z"/>
		<path class="st2" d="M723.8,364.6v7.5h-0.5l-0.1-1.9c-0.6,1.2-1.7,2.1-3.1,2.1c-2,0-3.6-1.6-3.6-3.9c0-2.3,1.6-4,3.6-4
			c1.5,0,2.6,0.8,3.2,2.1l0.1-1.9H723.8z M723.3,368.4c0-2-1.3-3.4-3.1-3.4c-1.8,0-3.1,1.5-3.1,3.4c0,1.9,1.3,3.4,3.1,3.4
			S723.3,370.3,723.3,368.4z"/>
		<path class="st2" d="M739,368.4c0,2.3-1.6,3.9-3.6,3.9c-1.5,0-2.6-0.8-3.1-2.1v5.6h-0.6l0-11.2h0.5l0.1,1.9
			c0.6-1.3,1.7-2.1,3.2-2.1C737.4,364.4,739,366,739,368.4z M738.4,368.4c0-1.9-1.3-3.4-3.1-3.4c-1.8,0-3.1,1.5-3.1,3.4
			c0,1.9,1.3,3.4,3.1,3.4C737.1,371.8,738.4,370.3,738.4,368.4z"/>
		<path class="st2" d="M741.1,368.4c0-2.2,1.7-4,3.9-4c2.3,0,3.9,1.8,3.9,4c0,2.2-1.7,3.9-3.9,3.9
			C742.7,372.3,741.1,370.6,741.1,368.4z M748.3,368.4c0-1.9-1.4-3.4-3.3-3.4c-1.9,0-3.3,1.5-3.3,3.4c0,1.9,1.4,3.4,3.3,3.4
			C746.9,371.8,748.3,370.3,748.3,368.4z"/>
		<path class="st2" d="M751.3,370.7c0.4,0.6,1.1,1.1,2.1,1.1c1.2,0,2-0.6,2-1.6c0-2.4-4.2-0.9-4.2-3.7c0-1.2,1-2.1,2.4-2.1
			c1.1,0,1.8,0.4,2.2,0.8l-0.4,0.4c-0.4-0.4-1-0.7-1.9-0.7c-1.1,0-1.8,0.6-1.8,1.5c0,2.3,4.2,0.9,4.2,3.7c0,1.3-1.1,2.1-2.6,2.1
			c-1.2,0-2.2-0.6-2.6-1.2L751.3,370.7z"/>
		<path class="st2" d="M758.5,362.1c0-0.3,0.2-0.6,0.6-0.6s0.6,0.2,0.6,0.6c0,0.3-0.2,0.6-0.6,0.6S758.5,362.4,758.5,362.1z
			 M758.7,364.6h0.6v7.5h-0.6V364.6z"/>
		<path class="st2" d="M769.4,364.6v7.5h-0.5l-0.1-1.9c-0.6,1.2-1.7,2.1-3.1,2.1c-2,0-3.6-1.6-3.6-3.9c0-2.3,1.6-4,3.6-4
			c1.5,0,2.6,0.8,3.2,2.1l0.1-1.9H769.4z M768.9,368.4c0-2-1.3-3.4-3.1-3.4c-1.8,0-3.1,1.5-3.1,3.4c0,1.9,1.3,3.4,3.1,3.4
			S768.9,370.3,768.9,368.4z"/>
		<path class="st2" d="M779.2,360.4v11.8h-0.5l-0.1-1.9c-0.6,1.2-1.7,2.1-3.1,2.1c-2,0-3.6-1.6-3.6-3.9c0-2.3,1.6-4,3.6-4
			c1.5,0,2.6,0.8,3.1,2v-6.1H779.2z M778.7,368.4c0-2-1.3-3.4-3.1-3.4c-1.8,0-3.1,1.5-3.1,3.4c0,1.9,1.3,3.4,3.1,3.4
			S778.7,370.3,778.7,368.4z"/>
		<path class="st2" d="M789.1,364.6v7.5h-0.5l-0.1-1.9c-0.6,1.2-1.7,2.1-3.1,2.1c-2,0-3.6-1.6-3.6-3.9c0-2.3,1.6-4,3.6-4
			c1.5,0,2.6,0.8,3.2,2.1l0.1-1.9H789.1z M788.5,368.4c0-2-1.3-3.4-3.1-3.4c-1.8,0-3.1,1.5-3.1,3.4c0,1.9,1.3,3.4,3.1,3.4
			S788.5,370.3,788.5,368.4z"/>
	</g>
	<g class="st1">
		<path class="st2" d="M808.6,364.2l-3,8h-1.7l-1.6-5.6l-1.7,5.6h-1.7l-3-8h2.2l1.7,5.3l1.6-5.3h1.7l1.6,5.3l1.7-5.3H808.6z"/>
		<path class="st2" d="M810.3,361.7c0-0.7,0.6-1.2,1.2-1.2c0.7,0,1.2,0.5,1.2,1.2c0,0.7-0.6,1.2-1.2,1.2
			C810.9,362.9,810.3,362.4,810.3,361.7z M810.6,364.2h2.1v8h-2.1V364.2z"/>
		<path class="st2" d="M822.8,367.2v5h-2v-4.4c0-1.2-0.5-2-1.6-2c-0.8,0-1.6,0.5-1.8,1.8v4.6h-2.1v-8h1.8l0.3,0.9
			c0.5-0.7,1.3-1.1,2.4-1.1C821.2,364,822.8,364.8,822.8,367.2z"/>
		<path class="st2" d="M833.1,360.4v11.8h-1.7l-0.2-1c-0.6,0.7-1.5,1.2-2.7,1.2c-2.1,0-3.7-1.5-3.7-4.2s1.6-4.2,3.7-4.2
			c1.1,0,1.9,0.4,2.5,1v-4.7H833.1z M831.3,368.2c0-1.4-0.9-2.4-2.2-2.4c-1.3,0-2.1,1-2.1,2.4s0.9,2.4,2.1,2.4
			C830.4,370.6,831.3,369.6,831.3,368.2z"/>
		<path class="st2" d="M843.4,368.7h-6.1c0.2,1.3,0.9,2.1,2.3,2.1c0.8,0,1.4-0.3,1.9-0.8l1.4,1.1c-0.5,0.5-1.2,0.9-2.1,1.1l-0.2,0.1
			c-1.9,1-1.5,2.6,0.2,1.9l0.4,0.9c-1.1,0.7-2.6,0.4-3-0.5c-0.4-0.8,0-1.6,0.9-2.3c-2.4-0.2-4-1.9-4-4.2c0-2.4,1.8-4.2,4.2-4.2
			c2.4,0,4,1.6,4,4.1V368.7z M837.4,367.4h4c-0.2-1.1-0.8-1.8-2-1.8C838.3,365.6,837.6,366.3,837.4,367.4z"/>
	</g>
	<path id="Path_1974" class="st2" d="M743.1,243.1c-0.7,0.1-1.3-0.1-1.9-0.4c-1-1-1.7-12.4-0.9-13.3c0.7-0.7,5.4-1,6.3,0
		c0.9,0.9,1.7,11.5,1.1,13.1c-0.1,0.2-0.2,0.3-0.3,0.3c-0.2,0-0.7,0.1-1.2,0.1C745.2,243,744.2,243.1,743.1,243.1z M743.8,229.2
		c-1.1-0.1-2.2,0.1-3.2,0.5c-0.7,0.7,0,12,0.9,12.8c0.6,0.6,3.3,0.3,4.7,0.1c0.5-0.1,0.9-0.1,1.2-0.1c0.2-0.6,0.3-1.3,0.2-1.9
		c0.1-3.8-0.6-10.3-1.2-10.8C745.7,229.2,744.7,229.1,743.8,229.2L743.8,229.2z"/>
	<path id="Path_1975" class="st2" d="M743.8,232.2l-0.9-18.7l-1.5,1.5l-0.3-0.2l1.9-2.1l0.1,0.1l0,0v0.1l1.6,1.8l-0.3,0.2l-1.3-1.4
		l0.9,18.9L743.8,232.2z"/>
	<path id="Path_1976" class="st2" d="M743.9,260.2l-0.1-0.1l0,0V260l-1.6-1.8l0.3-0.2l1.3,1.4l-0.9-18.9l0.3,0l0.9,18.7l1.5-1.5
		l0.3,0.2L743.9,260.2z"/>
</g>
</svg>
