<?xml version="1.0" encoding="utf-8"?>
<!-- Generator: Adobe Illustrator 24.0.3, SVG Export Plug-In . SVG Version: 6.00 Build 0)  -->
<svg version="1.1" id="Layer_1" xmlns="http://www.w3.org/2000/svg" xmlns:xlink="http://www.w3.org/1999/xlink" x="0px" y="0px"
	 viewBox="0 0 300.8 343.3" style="enable-background:new 0 0 300.8 343.3;" xml:space="preserve">
<style type="text/css">
	.st0{fill:#E5A34C;}
	.st1{enable-background:new    ;}
	.st2{fill:#2E3C4B;}
	.st3{fill:#AE4426;}
	.st4{fill:#F2EDEB;}
	.st5{fill:none;}
</style>
<g id="CIEKAWOSTKA" transform="translate(-1072.137 -81.504)">
	<path id="Path_1283" class="st0" d="M1084.4,97.5c18.5-24.5,261.1-18,274.9,0s19.9,286.1,4.9,308.2s-265.8,25.3-279.8,8
		S1065.9,122.1,1084.4,97.5z"/>
	<g id="CIEKAWOSTKA-2" transform="translate(1167.963 103.808)">
		<g class="st1">
			<path class="st2" d="M4.4,13.6c-0.7-0.3-1.4-0.7-1.9-1.3c-0.6-0.6-1-1.2-1.3-1.9C0.9,9.6,0.7,8.9,0.7,8c0-0.8,0.2-1.6,0.5-2.3
				C1.5,5,1.9,4.3,2.5,3.7c0.6-0.6,1.2-1,1.9-1.3C5.1,2.1,5.9,2,6.7,2c0.9,0,1.8,0.2,2.6,0.6c0.8,0.4,1.5,1,2.2,1.7l-1.2,1
				c-1-1.1-2.1-1.7-3.5-1.7C6.1,3.6,5.6,3.7,5,4c-0.5,0.2-1,0.5-1.4,1c-0.4,0.4-0.7,0.9-1,1.4C2.5,6.9,2.3,7.4,2.3,8
				c0,0.6,0.1,1.2,0.3,1.7c0.2,0.5,0.5,1,1,1.4c0.4,0.4,0.9,0.7,1.4,1c0.5,0.2,1.1,0.3,1.7,0.3c1.3,0,2.5-0.6,3.5-1.7l1.2,1
				c-0.6,0.8-1.4,1.3-2.2,1.7c-0.8,0.4-1.6,0.6-2.5,0.6C5.9,14.1,5.1,13.9,4.4,13.6z"/>
			<path class="st2" d="M13.5,14V2H15v12H13.5z"/>
			<path class="st2" d="M17.3,14V2h6.6v1.6h-5v3.6h3.3v1.5h-3.3v3.6h5V14H17.3z"/>
			<path class="st2" d="M31.5,14l-3.9-4.4V14h-1.6V2h1.6v4.6L31.5,2h2.1l-5.1,6.1l5.2,5.9H31.5z"/>
			<path class="st2" d="M43.1,14l-1.5-4.2h-3.7L36.4,14h-1.7l4.2-12h1.8l4.2,12H43.1z M39.7,4.4l-1.4,3.9h2.7L39.7,4.4z"/>
			<path class="st2" d="M55.4,14h-1.6L52,8.9L50.2,14h-1.6L44.2,2H46l3.4,9.4l1.7-4.9L49.5,2h1.7l1.6,4.4l1.8,5L57.9,2h1.7L55.4,14z
				"/>
			<path class="st2" d="M64.2,13.6c-0.7-0.3-1.4-0.7-1.9-1.3c-0.6-0.6-1-1.2-1.3-1.9c-0.3-0.7-0.5-1.5-0.5-2.3
				c0-0.8,0.2-1.6,0.5-2.3c0.3-0.7,0.7-1.4,1.3-1.9c0.6-0.6,1.2-1,1.9-1.3C65,2.2,65.7,2,66.5,2c0.8,0,1.6,0.2,2.3,0.5
				c0.7,0.3,1.4,0.7,1.9,1.3c0.6,0.6,1,1.2,1.3,1.9c0.3,0.7,0.5,1.5,0.5,2.3c0,0.8-0.2,1.6-0.5,2.3c-0.3,0.7-0.7,1.4-1.3,1.9
				c-0.6,0.6-1.2,1-1.9,1.3c-0.7,0.3-1.5,0.5-2.3,0.5C65.7,14.1,65,13.9,64.2,13.6z M64.9,4c-0.5,0.2-1,0.5-1.4,0.9
				c-0.4,0.4-0.7,0.9-0.9,1.4c-0.2,0.5-0.3,1.1-0.3,1.7c0,0.6,0.1,1.2,0.3,1.7s0.5,1,0.9,1.4c0.4,0.4,0.9,0.7,1.4,0.9
				c0.5,0.2,1.1,0.3,1.7,0.3s1.1-0.1,1.7-0.3c0.5-0.2,1-0.5,1.4-0.9c0.4-0.4,0.7-0.9,0.9-1.4c0.2-0.5,0.3-1.1,0.3-1.7
				c0-0.6-0.1-1.1-0.3-1.7c-0.2-0.5-0.5-1-0.9-1.4c-0.4-0.4-0.9-0.7-1.4-0.9c-0.5-0.2-1.1-0.3-1.7-0.3S65.4,3.8,64.9,4z"/>
			<path class="st2" d="M80.3,4.6c-0.2-0.3-0.5-0.6-0.8-0.7c-0.3-0.2-0.7-0.2-1.2-0.2c-0.8,0-1.4,0.2-1.7,0.5
				c-0.3,0.3-0.5,0.8-0.5,1.3c0,0.3,0,0.6,0.1,0.8c0.1,0.2,0.2,0.4,0.4,0.5C77,7,77.4,7.2,78.1,7.2c0.7,0.1,1.2,0.2,1.7,0.3
				S80.7,7.8,81,8c0.9,0.6,1.3,1.4,1.3,2.6c0,0.5-0.1,0.9-0.3,1.3s-0.4,0.8-0.8,1.1c-0.4,0.4-0.8,0.6-1.4,0.8
				c-0.5,0.2-1.1,0.3-1.6,0.3c-1.3,0-2.3-0.4-3-1.1c-0.6-0.6-1-1.5-1.2-2.6l0,0h1.6c0.1,0.6,0.3,1.1,0.6,1.4
				c0.5,0.4,1.1,0.6,1.9,0.6c0.8,0,1.4-0.2,1.8-0.5c0.4-0.3,0.7-0.8,0.7-1.3c0-0.3,0-0.5-0.1-0.7c-0.1-0.2-0.2-0.4-0.4-0.5
				C79.8,9.2,79.1,9,78,8.9c-1.1-0.1-2-0.4-2.6-1c-0.6-0.6-0.9-1.4-0.9-2.4c0-1,0.3-1.9,1-2.5c0.7-0.7,1.6-1,2.8-1
				c1.2,0,2.2,0.4,2.9,1.1c0.6,0.7,1,1.5,1.1,2.6h-1.6C80.6,5.3,80.5,4.9,80.3,4.6z"/>
			<path class="st2" d="M87.8,3.6V14h-1.6V3.6h-2.9V2h7.4v1.5H87.8z"/>
			<path class="st2" d="M98.2,14l-3.9-4.4V14h-1.6V2h1.6v4.6L98.1,2h2.1l-5.1,6.1l5.2,5.9H98.2z"/>
			<path class="st2" d="M109.7,14l-1.5-4.2h-3.7L103,14h-1.7l4.2-12h1.8l4.2,12H109.7z M106.4,4.4L105,8.3h2.7L106.4,4.4z"/>
		</g>
	</g>
	<rect id="Rectangle_45" x="1219" y="124.5" class="st3" width="10.3" height="2.1"/>
	<g id="Group_181" transform="translate(1149.917 142.055)">
		<path id="Path_1327" class="st4" d="M10.3,39C14.9,26.5,25.6,0.8,46.4,0.3s78.1-2.5,92.6,14.9s17.1,31,15,58.5
			s-9.5,43.4-18.2,58.1s-45.7,25.9-79,24.6s-57.5-21-56.8-48s12.3-30.6,10.3-42.3S5.7,51.5,10.3,39z"/>
	</g>
	<g class="st1">
		<path class="st2" d="M1121.9,333.9v0.5h-5v-10.4h0.6v9.9H1121.9z"/>
		<path class="st2" d="M1130.3,327.3v7.1h-0.5l-0.1-1.8c-0.5,1.2-1.6,2-3,2c-1.9,0-3.4-1.5-3.4-3.7c0-2.2,1.5-3.7,3.4-3.7
			c1.4,0,2.4,0.8,3,2l0.1-1.8H1130.3z M1129.8,330.8c0-1.8-1.2-3.2-2.9-3.2c-1.7,0-2.9,1.4-2.9,3.2s1.2,3.2,2.9,3.2
			S1129.8,332.7,1129.8,330.8z"/>
		<path class="st2" d="M1136.1,327.8h-1.8v6.6h-0.6v-6.6h-1v-0.5h1v-2.1h0.6v2.1h1.8V327.8z"/>
		<path class="st2" d="M1144.5,327.3v7.1h-0.5l-0.1-1.8c-0.5,1.2-1.6,2-3,2c-1.9,0-3.4-1.5-3.4-3.7c0-2.2,1.5-3.7,3.4-3.7
			c1.4,0,2.4,0.8,3,2l0.1-1.8H1144.5z M1144,330.8c0-1.8-1.2-3.2-2.9-3.2c-1.7,0-2.9,1.4-2.9,3.2s1.2,3.2,2.9,3.2
			S1144,332.7,1144,330.8z"/>
		<path class="st2" d="M1150.3,327.1l-0.1,0.6c-0.2,0-0.3-0.1-0.5-0.1c-1.1,0-1.8,0.9-1.9,2.3v4.5h-0.6v-7.1h0.5l0.1,1.4
			c0.3-0.9,1-1.6,2-1.6C1150,327.1,1150.2,327.1,1150.3,327.1z"/>
		<path class="st2" d="M1157.8,330.2v4.2h-0.6v-4.1c0-1.9-0.9-2.7-2.2-2.7c-1.3,0-2.2,0.9-2.4,2.4v4.4h-0.6v-7.1h0.5l0,1.6
			c0.4-1,1.3-1.7,2.5-1.7C1156.4,327.1,1157.8,327.8,1157.8,330.2z"/>
		<path class="st2" d="M1160.5,324.9c0-0.3,0.2-0.5,0.5-0.5s0.5,0.2,0.5,0.5c0,0.3-0.2,0.5-0.5,0.5S1160.5,325.2,1160.5,324.9z
			 M1160.7,327.3h0.6v7.1h-0.6V327.3z"/>
		<path class="st2" d="M1170.8,327.3v7.1h-0.5l-0.1-1.8c-0.5,1.2-1.6,2-3,2c-1.9,0-3.4-1.5-3.4-3.7c0-2.2,1.5-3.7,3.4-3.7
			c1.4,0,2.4,0.8,3,2l0.1-1.8H1170.8z M1170.3,330.8c0-1.8-1.2-3.2-2.9-3.2c-1.7,0-2.9,1.4-2.9,3.2s1.2,3.2,2.9,3.2
			S1170.3,332.7,1170.3,330.8z"/>
		<path class="st2" d="M1178,329.2c0-3,2.2-5.4,5.3-5.4c1.2,0,2.2,0.3,3,0.8l-0.3,0.5c-0.7-0.5-1.6-0.8-2.7-0.8
			c-2.8,0-4.7,2.2-4.7,4.9c0,2.6,1.9,4.9,4.7,4.9c1.1,0,2-0.3,2.7-0.8l0.3,0.5c-0.8,0.5-1.9,0.8-3,0.8
			C1180.2,334.6,1178,332.2,1178,329.2z"/>
		<path class="st2" d="M1194,333.9v0.5h-5.7V334l4.8-6.2h-4.5v-0.5h5.2v0.4l-4.7,6.2H1194z"/>
		<path class="st2" d="M1195.9,330.8c0-2.1,1.6-3.7,3.7-3.7s3.7,1.6,3.7,3.7s-1.6,3.7-3.7,3.7S1195.9,332.9,1195.9,330.8z
			 M1202.7,330.8c0-1.8-1.3-3.2-3.1-3.2s-3.1,1.4-3.1,3.2c0,1.8,1.3,3.2,3.1,3.2S1202.7,332.6,1202.7,330.8z"/>
		<path class="st2" d="M1207.3,328l-1,0.8v5.6h-0.6v-5.1l-1,0.8v-0.5l1-0.8v-5.5h0.6v5l1-0.8V328z"/>
		<path class="st2" d="M1216,330.8c0,2.2-1.5,3.7-3.4,3.7c-1.4,0-2.4-0.8-3-2v5.3h-0.6l0-10.5h0.5l0,1.8c0.5-1.2,1.6-2,3-2
			C1214.5,327.1,1216,328.6,1216,330.8z M1215.4,330.8c0-1.8-1.2-3.2-2.9-3.2c-1.7,0-2.9,1.4-2.9,3.2c0,1.8,1.2,3.2,2.9,3.2
			S1215.4,332.7,1215.4,330.8z"/>
		<path class="st2" d="M1218.3,324.9c0-0.3,0.2-0.5,0.5-0.5s0.5,0.2,0.5,0.5c0,0.3-0.2,0.5-0.5,0.5S1218.3,325.2,1218.3,324.9z
			 M1218.5,327.3h0.6v7.1h-0.6V327.3z"/>
		<path class="st2" d="M1227.8,330.2v4.2h-0.6v-4.1c0-1.9-0.9-2.7-2.2-2.7c-1.3,0-2.2,0.9-2.4,2.4v4.4h-0.6v-7.1h0.5l0,1.6
			c0.4-1,1.3-1.7,2.5-1.7C1226.4,327.1,1227.8,327.8,1227.8,330.2z"/>
		<path class="st2" d="M1230.1,330.8c0-2.1,1.6-3.7,3.7-3.7s3.7,1.6,3.7,3.7s-1.6,3.7-3.7,3.7S1230.1,332.9,1230.1,330.8z
			 M1236.9,330.8c0-1.8-1.3-3.2-3.1-3.2s-3.1,1.4-3.1,3.2c0,1.8,1.3,3.2,3.1,3.2S1236.9,332.6,1236.9,330.8z"/>
		<path class="st2" d="M1251.4,330.8c0,2.2-1.5,3.7-3.4,3.7c-1.4,0-2.4-0.8-3-2v5.3h-0.6l0-10.5h0.5l0,1.8c0.5-1.2,1.6-2,3-2
			C1249.9,327.1,1251.4,328.6,1251.4,330.8z M1250.8,330.8c0-1.8-1.2-3.2-2.9-3.2c-1.7,0-2.9,1.4-2.9,3.2c0,1.8,1.2,3.2,2.9,3.2
			S1250.8,332.7,1250.8,330.8z"/>
		<path class="st2" d="M1253.3,330.8c0-2.1,1.6-3.7,3.7-3.7s3.7,1.6,3.7,3.7s-1.6,3.7-3.7,3.7S1253.3,332.9,1253.3,330.8z
			 M1260.1,330.8c0-1.8-1.3-3.2-3.1-3.2s-3.1,1.4-3.1,3.2c0,1.8,1.3,3.2,3.1,3.2S1260.1,332.6,1260.1,330.8z"/>
		<path class="st2" d="M1261.9,337.8v-0.5c1.3,0.1,1.8-0.5,1.8-1.7v-8.3h0.6v8.4C1264.3,337.5,1263.1,338,1261.9,337.8z
			 M1263.5,324.9c0-0.3,0.2-0.5,0.5-0.5s0.5,0.2,0.5,0.5c0,0.3-0.2,0.5-0.5,0.5S1263.5,325.2,1263.5,324.9z"/>
		<path class="st2" d="M1273.8,327.3v7.1h-0.5l-0.1-1.8c-0.5,1.2-1.6,2-3,2c-1.9,0-3.4-1.5-3.4-3.7c0-2.2,1.5-3.7,3.4-3.7
			c1.4,0,2.4,0.8,3,2l0.1-1.8H1273.8z M1273.3,330.8c0-1.8-1.2-3.2-2.9-3.2c-1.7,0-2.9,1.4-2.9,3.2s1.2,3.2,2.9,3.2
			S1273.3,332.7,1273.3,330.8z"/>
		<path class="st2" d="M1286.1,327.3l-2.7,7.1h-0.5l-2-6.4l-2,6.4h-0.5l-2.7-7.1h0.6l2.3,6.4l2-6.4h0.5l2,6.3l2.4-6.3H1286.1z"/>
		<path class="st2" d="M1288.1,324.9c0-0.3,0.2-0.5,0.5-0.5s0.5,0.2,0.5,0.5c0,0.3-0.2,0.5-0.5,0.5S1288.1,325.2,1288.1,324.9z
			 M1288.3,327.3h0.6v7.1h-0.6V327.3z"/>
		<path class="st2" d="M1293.5,328l-1,0.8v5.6h-0.6v-5.1l-1,0.8v-0.5l1-0.8v-5.5h0.6v5l1-0.8V328z"/>
		<path class="st2" d="M1301.8,327.3v7.1h-0.5l-0.1-1.8c-0.5,1.2-1.6,2-3,2c-1.9,0-3.4-1.5-3.4-3.7c0-2.2,1.5-3.7,3.4-3.7
			c1.4,0,2.4,0.8,3,2l0.1-1.8H1301.8z M1301.3,330.8c0-1.8-1.2-3.2-2.9-3.2c-1.7,0-2.9,1.4-2.9,3.2s1.2,3.2,2.9,3.2
			S1301.3,332.7,1301.3,330.8z"/>
		<path class="st2" d="M1309,333c0.4,0.6,1.1,1,2,1c1.2,0,1.9-0.6,1.9-1.5c0-2.2-3.9-0.9-4-3.5c0-1.2,0.9-1.9,2.2-1.9
			c1,0,1.7,0.4,2.1,0.8l-0.4,0.4c-0.4-0.4-1-0.7-1.7-0.7c-1,0-1.7,0.5-1.6,1.4c0,2.2,4,0.8,4,3.5c0,1.3-1,2-2.5,2
			c-1.2,0-2-0.6-2.4-1.1L1309,333z"/>
		<path class="st2" d="M1315.8,324.9c0-0.3,0.2-0.5,0.5-0.5s0.5,0.2,0.5,0.5c0,0.3-0.2,0.5-0.5,0.5S1315.8,325.2,1315.8,324.9z
			 M1316,327.3h0.6v7.1h-0.6V327.3z"/>
		<path class="st2" d="M1319.8,330.7L1319.8,330.7c0,1.9,1.1,3.3,3,3.3c1,0,1.9-0.4,2.4-1l0.4,0.3c-0.4,0.5-1.1,0.9-1.8,1.1
			l-0.3,0.2c-1.6,1-1,2.4,0.3,1.8l0.1,0.3c-0.6,0.4-1.5,0.3-1.7-0.3c-0.3-0.5,0-1.3,0.9-1.9h-0.3c-2.2,0-3.6-1.7-3.6-3.8
			c0-2,1.4-3.6,3.5-3.6c2,0,3.3,1.5,3.3,3.3v0.3H1319.8z M1319.8,330.3h5.5c-0.1-1.5-1.1-2.6-2.7-2.6S1320,328.7,1319.8,330.3z"/>
	</g>
	<g class="st1">
		<path class="st2" d="M1153.3,346.3l-2.7,7.1h-0.5l-2-6.4l-2,6.4h-0.5l-2.7-7.1h0.6l2.3,6.4l2-6.4h0.5l2,6.3l2.4-6.3H1153.3z"/>
		<path class="st2" d="M1164.8,353.4l-4.2-3.8v3.8h-0.6v-11.1h0.6v7.2l3.8-3.2h0.8l-3.8,3.2l4.3,3.9H1164.8z"/>
		<path class="st2" d="M1166.9,349.8c0-2.1,1.6-3.7,3.7-3.7s3.7,1.6,3.7,3.7s-1.6,3.7-3.7,3.7S1166.9,351.9,1166.9,349.8z
			 M1173.7,349.8c0-1.8-1.3-3.2-3.1-3.2s-3.1,1.4-3.1,3.2c0,1.8,1.3,3.2,3.1,3.2S1173.7,351.6,1173.7,349.8z"/>
		<path class="st2" d="M1186.6,349.2v4.2h-0.6v-4.2c0-1.6-0.6-2.6-2-2.6c-1.2,0-2,0.9-2.1,2.7v4.1h-0.6v-4.3c0-1.5-0.8-2.5-2-2.5
			c-1.1,0-2,1-2.1,2.5v4.3h-0.6v-7.1h0.5l0.1,1.5c0.4-1.1,1.3-1.7,2.2-1.7c0.8,0,2,0.4,2.3,1.9c0.4-1.2,1.2-1.9,2.4-1.9
			C1185.3,346.1,1186.6,346.8,1186.6,349.2z"/>
		<path class="st2" d="M1189.5,349.7L1189.5,349.7c0,1.9,1.1,3.3,3,3.3c1,0,1.9-0.4,2.4-1l0.4,0.3c-0.6,0.7-1.6,1.2-2.8,1.2
			c-2.2,0-3.6-1.7-3.6-3.8c0-2,1.4-3.6,3.5-3.6c2,0,3.3,1.5,3.3,3.3v0.3H1189.5z M1189.5,349.3h5.5c-0.1-1.5-1.1-2.6-2.7-2.6
			S1189.7,347.7,1189.5,349.3z"/>
		<path class="st2" d="M1204.5,342.3v11.1h-0.5l-0.1-1.8c-0.5,1.2-1.6,2-3,2c-1.9,0-3.4-1.5-3.4-3.7c0-2.2,1.5-3.7,3.4-3.7
			c1.4,0,2.4,0.8,3,1.9v-5.7H1204.5z M1204,349.8c0-1.8-1.2-3.2-2.9-3.2c-1.7,0-2.9,1.4-2.9,3.2s1.2,3.2,2.9,3.2
			S1204,351.7,1204,349.8z"/>
		<path class="st2" d="M1207.1,343.9c0-0.3,0.2-0.5,0.5-0.5s0.5,0.2,0.5,0.5c0,0.3-0.2,0.5-0.5,0.5S1207.1,344.2,1207.1,343.9z
			 M1207.4,346.3h0.6v7.1h-0.6V346.3z"/>
		<path class="st2" d="M1210.9,343.9c0-0.3,0.2-0.5,0.5-0.5s0.5,0.2,0.5,0.5c0,0.3-0.2,0.5-0.5,0.5S1210.9,344.2,1210.9,343.9z
			 M1211.1,346.3h0.6v7.1h-0.6V346.3z"/>
		<path class="st2" d="M1226.7,352.9v0.5h-7.3V353l6.3-9.5h-6v-0.5h6.8v0.4l-6.3,9.5H1226.7z"/>
		<path class="st2" d="M1235.1,346.3v7.1h-0.5l-0.1-1.8c-0.5,1.2-1.6,2-3,2c-1.9,0-3.4-1.5-3.4-3.7c0-2.2,1.5-3.7,3.4-3.7
			c1.4,0,2.4,0.8,3,2l0.1-1.8H1235.1z M1234.6,349.8c0-1.8-1.2-3.2-2.9-3.2c-1.7,0-2.9,1.4-2.9,3.2s1.2,3.2,2.9,3.2
			S1234.6,351.7,1234.6,349.8z"/>
		<path class="st2" d="M1242.6,353.4l-4.2-3.8v3.8h-0.6v-11.1h0.6v7.2l3.8-3.2h0.8l-3.8,3.2l4.3,3.9H1242.6z"/>
		<path class="st2" d="M1244.8,349.8c0-2.1,1.6-3.7,3.7-3.7s3.7,1.6,3.7,3.7s-1.6,3.7-3.7,3.7S1244.8,351.9,1244.8,349.8z
			 M1251.6,349.8c0-1.8-1.3-3.2-3.1-3.2s-3.1,1.4-3.1,3.2c0,1.8,1.3,3.2,3.1,3.2S1251.6,351.6,1251.6,349.8z"/>
		<path class="st2" d="M1254.1,349.8c0-2,1.4-3.7,3.6-3.7c0.9,0,1.7,0.3,2.3,0.8l-0.4,0.4c-0.5-0.4-1.2-0.7-1.9-0.7
			c-1.9,0-3,1.4-3,3.2c0,1.8,1.1,3.2,3,3.2c0.8,0,1.5-0.3,1.9-0.7l0.4,0.4c-0.6,0.5-1.4,0.8-2.3,0.8
			C1255.5,353.5,1254.1,351.9,1254.1,349.8z"/>
		<path class="st2" d="M1267.9,349.2v4.2h-0.6v-4.1c0-1.9-0.9-2.7-2.2-2.7c-1.3,0-2.3,1-2.4,2.7v4.1h-0.6v-11.1h0.6v5.6
			c0.4-1,1.2-1.7,2.5-1.7C1266.4,346.1,1267.9,346.8,1267.9,349.2z"/>
		<path class="st2" d="M1277.1,346.3v7.1h-0.5l-0.1-1.8c-0.5,1.2-1.6,2-3,2c-1.9,0-3.4-1.5-3.4-3.7c0-2.2,1.5-3.7,3.4-3.7
			c1.4,0,2.4,0.8,3,2l0.1-1.8H1277.1z M1276.6,349.8c0-1.8-1.2-3.2-2.9-3.2c-1.7,0-2.9,1.4-2.9,3.2s1.2,3.2,2.9,3.2
			S1276.6,351.7,1276.6,349.8z"/>
		<path class="st2" d="M1285.5,349.2v4.2h-0.6v-4.1c0-1.9-0.9-2.7-2.2-2.7c-1.3,0-2.2,0.9-2.4,2.4v4.4h-0.6v-7.1h0.5l0,1.6
			c0.4-1,1.3-1.7,2.5-1.7C1284.1,346.1,1285.5,346.8,1285.5,349.2z"/>
		<path class="st2" d="M1288.2,343.9c0-0.3,0.2-0.5,0.5-0.5s0.5,0.2,0.5,0.5c0,0.3-0.2,0.5-0.5,0.5S1288.2,344.2,1288.2,343.9z
			 M1288.4,346.3h0.6v7.1h-0.6V346.3z"/>
		<path class="st2" d="M1292,354.9c0.8-0.4,1-1.2,1-1.5c-0.3,0.1-0.8,0-0.8-0.4c0-0.3,0.2-0.5,0.6-0.5c0.5,0,0.7,0.5,0.7,1
			c0,0.6-0.4,1.4-1.3,1.7L1292,354.9z"/>
	</g>
	<g class="st1">
		<path class="st2" d="M1149.4,365.3l-2.7,7.1h-0.5l-2-6.4l-2,6.4h-0.5l-2.7-7.1h0.6l2.3,6.4l2-6.4h0.5l2,6.3l2.4-6.3H1149.4z"/>
		<path class="st2" d="M1160.8,372.4l-4.2-3.8v3.8h-0.6v-11.1h0.6v7.2l3.8-3.2h0.8l-3.8,3.2l4.3,3.9H1160.8z"/>
		<path class="st2" d="M1166.4,365.8h-1.8v6.6h-0.6v-6.6h-1v-0.5h1v-2.1h0.6v2.1h1.8V365.8z"/>
		<path class="st2" d="M1167.8,368.8c0-2.1,1.6-3.7,3.7-3.7s3.7,1.6,3.7,3.7s-1.6,3.7-3.7,3.7S1167.8,370.9,1167.8,368.8z
			 M1174.7,368.8c0-1.8-1.3-3.2-3.1-3.2s-3.1,1.4-3.1,3.2c0,1.8,1.3,3.2,3.1,3.2S1174.7,370.6,1174.7,368.8z M1170.8,364h-0.2
			l2.1-2.3l0.6,0.1l-1.6,1.7C1171.2,363.9,1171,364,1170.8,364z"/>
		<path class="st2" d="M1180.7,365.1l-0.1,0.6c-0.2,0-0.3-0.1-0.5-0.1c-1.1,0-1.8,0.9-1.9,2.3v4.5h-0.6v-7.1h0.5l0.1,1.4
			c0.3-0.9,1-1.6,2-1.6C1180.4,365.1,1180.5,365.1,1180.7,365.1z"/>
		<path class="st2" d="M1182.3,368.7L1182.3,368.7c0,1.9,1.1,3.3,3,3.3c1,0,1.9-0.4,2.4-1l0.4,0.3c-0.6,0.7-1.6,1.2-2.8,1.2
			c-2.2,0-3.6-1.7-3.6-3.8c0-2,1.4-3.6,3.5-3.6c2,0,3.3,1.5,3.3,3.3v0.3H1182.3z M1182.4,368.3h5.5c-0.1-1.5-1.1-2.6-2.7-2.6
			S1182.6,366.7,1182.4,368.3z"/>
		<path class="st2" d="M1189.6,375.8v-0.5c1.3,0.1,1.8-0.5,1.8-1.7v-8.3h0.6v8.4C1192,375.5,1190.9,376,1189.6,375.8z M1191.2,362.9
			c0-0.3,0.2-0.5,0.5-0.5c0.3,0,0.5,0.2,0.5,0.5c0,0.3-0.2,0.5-0.5,0.5C1191.4,363.5,1191.2,363.2,1191.2,362.9z"/>
		<path class="st2" d="M1199.5,367.2c0-3,2.2-5.4,5.3-5.4c1.2,0,2.2,0.3,3,0.8l-0.3,0.5c-0.7-0.5-1.6-0.8-2.7-0.8
			c-2.8,0-4.7,2.2-4.7,4.9c0,2.6,1.9,4.9,4.7,4.9c1.1,0,2-0.3,2.7-0.8l0.3,0.5c-0.8,0.5-1.9,0.8-3,0.8
			C1201.7,372.6,1199.5,370.2,1199.5,367.2z"/>
		<path class="st2" d="M1210.1,368.7L1210.1,368.7c0,1.9,1.1,3.3,3,3.3c1,0,1.9-0.4,2.4-1l0.4,0.3c-0.6,0.7-1.6,1.2-2.8,1.2
			c-2.2,0-3.6-1.7-3.6-3.8c0-2,1.4-3.6,3.5-3.6c2,0,3.3,1.5,3.3,3.3v0.3H1210.1z M1210.1,368.3h5.5c-0.1-1.5-1.1-2.6-2.7-2.6
			S1210.3,366.7,1210.1,368.3z"/>
		<path class="st2" d="M1223.9,371.9v0.5h-5.7V372l4.8-6.2h-4.5v-0.5h5.2v0.4l-4.7,6.2H1223.9z"/>
		<path class="st2" d="M1232.7,365.3v7.1h-0.5l-0.1-1.8c-0.5,1.2-1.6,2-3,2c-1.9,0-3.4-1.5-3.4-3.7c0-2.2,1.5-3.7,3.4-3.7
			c1.4,0,2.4,0.8,3,2l0.1-1.8H1232.7z M1232.2,368.8c0-1.8-1.2-3.2-2.9-3.2c-1.7,0-2.9,1.4-2.9,3.2s1.2,3.2,2.9,3.2
			S1232.2,370.7,1232.2,368.8z"/>
		<path class="st2" d="M1238.5,365.1l-0.1,0.6c-0.2,0-0.3-0.1-0.5-0.1c-1.1,0-1.8,0.9-1.9,2.3v4.5h-0.6v-7.1h0.5l0.1,1.4
			c0.3-0.9,1-1.6,2-1.6C1238.2,365.1,1238.4,365.1,1238.5,365.1z"/>
		<path class="st2" d="M1246.4,365.3l-4.6,10.5h-0.6l1.6-3.6l-3-6.9h0.6l2.7,6.3l2.7-6.3H1246.4z"/>
		<path class="st2" d="M1259.1,364.8c0,2-1.6,2.9-3.2,2.9h-1.9v4.7h-0.6v-10.4h2.5C1257.5,361.9,1259.1,362.8,1259.1,364.8z
			 M1258.5,364.8c0-1.5-1.1-2.4-2.8-2.4h-1.7v4.7h1.7C1257.4,367.2,1258.5,366.3,1258.5,364.8z"/>
		<path class="st2" d="M1267.7,365.3v7.1h-0.5l-0.1-1.8c-0.5,1.2-1.6,2-3,2c-1.9,0-3.4-1.5-3.4-3.7c0-2.2,1.5-3.7,3.4-3.7
			c1.4,0,2.4,0.8,3,2l0.1-1.8H1267.7z M1267.2,368.8c0-1.8-1.2-3.2-2.9-3.2c-1.7,0-2.9,1.4-2.9,3.2s1.2,3.2,2.9,3.2
			S1267.2,370.7,1267.2,368.8z"/>
		<path class="st2" d="M1275.8,371.9v0.5h-5.7V372l4.8-6.2h-4.5v-0.5h5.2v0.4l-4.7,6.2H1275.8z"/>
		<path class="st2" d="M1278,369.5v-4.2h0.6v4.2c0,1.6,0.8,2.6,2.3,2.6c1.5,0,2.3-1,2.3-2.6v-4.2h0.6v4.2c0,2.4-1.6,3.1-2.8,3.1
			C1279.6,372.6,1278,371.9,1278,369.5z"/>
		<path class="st2" d="M1289.5,365.1l-0.1,0.6c-0.2,0-0.3-0.1-0.5-0.1c-1.1,0-1.8,0.9-1.9,2.3v4.5h-0.6v-7.1h0.5l0.1,1.4
			c0.3-0.9,1-1.6,2-1.6C1289.2,365.1,1289.3,365.1,1289.5,365.1z"/>
		<path class="st2" d="M1297.5,365.3v7.1h-0.5l-0.1-1.8c-0.5,1.2-1.6,2-3,2c-1.9,0-3.4-1.5-3.4-3.7c0-2.2,1.5-3.7,3.4-3.7
			c1.4,0,2.4,0.8,3,2l0.1-1.8H1297.5z M1297,368.8c0-1.8-1.2-3.2-2.9-3.2c-1.7,0-2.9,1.4-2.9,3.2s1.2,3.2,2.9,3.2
			S1297,370.7,1297,368.8z"/>
	</g>
	<g class="st1">
		<path class="st2" d="M1180.1,383.9v6.7c0,2.8-1.3,4.2-3.8,4.2c-0.6,0-1.2-0.1-1.8-0.3l0.4-1.6c0.4,0.2,0.8,0.3,1.3,0.3
			c1.5,0,2-1,2-2.7c-0.6,0.6-1.4,1-2.4,1c-1.9,0-3.5-1.4-3.5-3.9s1.5-3.9,3.5-3.9c1.1,0,2,0.5,2.5,1.1l0.2-1H1180.1z M1178.4,387.6
			c0-1.3-0.8-2.3-2.1-2.3c-1.2,0-2,1-2,2.3s0.8,2.3,2,2.3C1177.5,389.9,1178.4,388.9,1178.4,387.6z"/>
		<path class="st2" d="M1187.3,383.8l-0.3,1.9c-0.2-0.1-0.4-0.1-0.7-0.1c-1.1,0-1.8,0.8-1.8,2.1v3.7h-1.9v-7.5h1.7l0.2,1
			c0.4-0.6,1.1-1.2,2-1.2C1186.8,383.7,1187,383.8,1187.3,383.8z"/>
		<path class="st2" d="M1195.8,383.9v7.5h-1.6l-0.2-1c-0.6,0.7-1.4,1.1-2.5,1.1c-1.9,0-3.5-1.5-3.5-3.9s1.5-3.9,3.5-3.9
			c1.1,0,2,0.5,2.5,1.2l0.2-1H1195.8z M1194.1,387.6c0-1.3-0.8-2.3-2.1-2.3c-1.2,0-2,1-2,2.3c0,1.3,0.8,2.3,2,2.3
			C1193.2,389.9,1194.1,389,1194.1,387.6z"/>
		<path class="st2" d="M1202.6,380.3h1.9v11.1h-1.9V380.3z"/>
		<path class="st2" d="M1214.4,383.9v7.5h-1.6l-0.2-1c-0.6,0.7-1.4,1.1-2.5,1.1c-1.9,0-3.5-1.5-3.5-3.9s1.5-3.9,3.5-3.9
			c1.1,0,2,0.5,2.5,1.2l0.2-1H1214.4z M1212.6,387.6c0-1.3-0.8-2.3-2.1-2.3c-1.2,0-2,1-2,2.3c0,1.3,0.8,2.3,2,2.3
			C1211.8,389.9,1212.6,389,1212.6,387.6z"/>
		<path class="st2" d="M1221.3,385.4h-1.8v6h-1.9v-6h-1.1v-1.5h1.1v-2.2h1.9v2.2h1.8V385.4z"/>
		<path class="st2" d="M1230.3,383.9v7.5h-1.6l-0.2-1c-0.6,0.7-1.4,1.1-2.5,1.1c-1.9,0-3.5-1.5-3.5-3.9s1.5-3.9,3.5-3.9
			c1.1,0,2,0.5,2.5,1.2l0.2-1H1230.3z M1228.5,387.6c0-1.3-0.8-2.3-2.1-2.3c-1.2,0-2,1-2,2.3c0,1.3,0.8,2.3,2,2.3
			C1227.7,389.9,1228.5,389,1228.5,387.6z"/>
		<path class="st2" d="M1237.4,383.8l-0.3,1.9c-0.2-0.1-0.4-0.1-0.7-0.1c-1.1,0-1.8,0.8-1.8,2.1v3.7h-1.9v-7.5h1.7l0.2,1
			c0.4-0.6,1.1-1.2,2-1.2C1237,383.7,1237.2,383.8,1237.4,383.8z"/>
		<path class="st2" d="M1245.8,386.7v4.7h-1.9v-4.2c0-1.2-0.5-1.9-1.5-1.9c-0.8,0-1.5,0.4-1.6,1.7v4.4h-1.9v-7.5h1.7l0.2,0.9
			c0.5-0.7,1.3-1.1,2.3-1.1C1244.4,383.7,1245.8,384.4,1245.8,386.7z"/>
		<path class="st2" d="M1248.1,381.5c0-0.6,0.5-1.1,1.1-1.1c0.6,0,1.2,0.5,1.2,1.1c0,0.6-0.5,1.1-1.2,1.1
			C1248.7,382.7,1248.1,382.2,1248.1,381.5z M1248.3,383.9h1.9v7.5h-1.9V383.9z"/>
		<path class="st2" d="M1257.9,391.4l-3.1-3.4v3.4h-1.9v-11.1h1.9v6.4l2.6-2.8h2.5l-3.4,3.4l3.8,4.1H1257.9z"/>
		<path class="st2" d="M1269.2,383.9v7.5h-1.6l-0.2-1c-0.6,0.7-1.4,1.1-2.5,1.1c-1.9,0-3.5-1.5-3.5-3.9s1.5-3.9,3.5-3.9
			c1.1,0,2,0.5,2.5,1.2l0.2-1H1269.2z M1267.4,387.6c0-1.3-0.8-2.3-2.1-2.3c-1.2,0-2,1-2,2.3c0,1.3,0.8,2.3,2,2.3
			C1266.6,389.9,1267.4,389,1267.4,387.6z"/>
	</g>
	<g id="czołpino" transform="translate(1186.135 156.318)">
		<path id="Path_1977" class="st2" d="M28.4,125.8c-7.1,0-21.5-1.3-23.4-3c-0.1-0.1-0.2-0.3-0.3-0.4l0,0c-0.1-1,1.4-25.6,2.7-47.3
			c1-16.6,1.9-32.4,1.9-32.8c-0.6-0.6-1.2-1.2-1.9-1.7c-0.1-0.1-0.2-0.2-0.3-0.3c-0.2-0.2-0.4-0.7-0.4-1.6c-0.1-1.3,0-3.5,0.4-4
			c0.7-0.7,16.9-0.3,21.9-0.1c3.1,0.2,8,0,12.4-0.1c6.7-0.2,8.4-0.2,8.6,0.1c0.3,0.5-0.1,2.2-0.7,4.7l0,0.1
			c-0.2,0.6-0.6,1.1-1.1,1.4c-0.5,0.3-0.9,0.8-1.2,1.3c0.5,3.9,9,78.4,7.2,80.8c-1.4,1.9-10.5,2.2-17.7,2.5
			c-2.1,0.1-4.1,0.2-5.6,0.3C30.1,125.8,29.3,125.8,28.4,125.8z M14.1,34.7c-3.7,0-6.5,0.1-6.8,0.3c-0.4,1.2-0.5,2.4-0.3,3.7
			c0.1,1,0.2,1.3,0.3,1.4s0.2,0.2,0.3,0.3c1.3,1,2,1.6,2.1,1.9c0.1,0.2-0.4,7.6-1.9,32.9C6.5,96.8,5,121.4,5.1,122.3
			c0,0.1,0.1,0.2,0.1,0.2c2,1.7,19.5,3.3,25.5,2.9c1.5-0.1,3.5-0.2,5.6-0.3c6.8-0.2,16.2-0.6,17.5-2.3c1.4-1.9-4.8-58.8-7.3-80.6
			l0-0.1l0,0c0.3-0.6,0.8-1.1,1.3-1.4c0.5-0.3,0.8-0.7,1-1.2l0-0.1c0.7-2.7,0.9-4.2,0.7-4.4c-2.8-0.1-5.5-0.1-8.3,0
			C37,35.1,32,35.2,28.9,35C25,34.8,18.9,34.7,14.1,34.7z"/>
		<path id="Path_1978" class="st2" d="M28.8,12.3c-3.2,0-12.5-0.3-12.9-1.3l0,0c0-0.1,0-0.3,0.1-0.4c1.1-1.6,10.9-8,13.3-8h0.1
			c2.3,0.1,11.5,6,12.4,8c0.1,0.2,0.1,0.4,0,0.6c-0.8,1-5.4,1.1-11,1.1c-0.5,0-1,0-1.5,0L28.8,12.3z M16.2,10.9
			c0.4,0.6,7.9,1.2,13.1,1.1c0.5,0,0.9,0,1.5,0c4,0,10-0.1,10.7-1c0,0,0-0.1,0-0.2C40.5,8.9,31.5,3,29.3,2.9c-1-0.1-3.9,1.3-7.4,3.6
			C18.3,8.8,16.3,10.5,16.2,10.9L16.2,10.9z"/>
		
			<rect id="Rectangle_178" x="16.1" y="11.1" transform="matrix(0.9999 -1.144911e-02 1.144911e-02 0.9999 -0.2119 0.1881)" class="st2" width="0.3" height="15"/>
		
			<rect id="Rectangle_179" x="41.5" y="11.1" transform="matrix(0.9999 -1.199914e-02 1.199914e-02 0.9999 -0.219 0.5011)" class="st2" width="0.4" height="14.9"/>
		<path id="Path_1979" class="st2" d="M50,34.9l-0.3-0.1c0.3-1.1,0.4-2.2,0.2-3.3c-0.4-0.2-7.4-0.1-12.5,0c-3.4,0-6.4,0.1-7.5,0
			c-0.6,0-1.8-0.1-3.3-0.1C21,31.2,8.3,30.8,7.3,31.1c-0.1,1.2-0.1,2.5,0,3.8l-0.3,0c-0.1-0.6-0.3-3.5,0-4c0.2-0.3,3.3-0.4,19.5,0.2
			c1.6,0.1,2.8,0.1,3.3,0.1c1.1,0,4.1,0,7.5,0c8.7-0.1,12.4-0.1,12.7,0.1C50.6,31.5,50.2,33.9,50,34.9z"/>
		<path id="Path_1980" class="st2" d="M15.8,43.7h-2.5v-0.2c0,0,0-2.9-0.9-3.8c-0.2-0.2-0.4-0.3-0.6-0.3c-1.6,0-2.2,2.8-2.2,2.9
			l-0.3-0.1c0-0.1,0.6-3.2,2.5-3.2c0.3,0,0.7,0.1,0.9,0.4c0.9,0.9,1,3.2,1,3.9h1.9c0.1-0.8,0.5-4.2,2.4-4.5c0.4-0.1,0.8,0.1,1,0.3
			c1,0.9,1.1,3.3,1.2,4l1.9-0.1c-0.1-0.6-0.3-2.7,0.4-3.5c0.2-0.2,0.5-0.4,0.8-0.4c1.6,0,2.2,2.8,2.3,3.5l1.4,0.1
			c0-0.6,0.2-2.8,1.1-3.6c0.3-0.3,0.7-0.4,1.1-0.4c1,0.1,1,2.8,1,3.7l2.4,0.2c0.1-0.8,0.4-3.9,2.2-4c0.4,0,0.7,0.1,1,0.4
			c1,0.9,1.1,3.2,1.1,3.9h1.2c0.1-0.9,0.4-4.1,1.7-4.2s2,3.2,2.1,4.1l2,0c0-1.4,0.2-4.2,1-4.2l0,0c1.4,0,1.8,3.2,1.9,3.6l-0.3,0
			C46.4,41.4,45.9,39,45,39l0,0c-0.3,0-0.6,1.7-0.7,4v0.2l-2.6,0l0-0.1c-0.3-1.5-0.9-4-1.8-3.9s-1.3,2.5-1.4,4.1l0,0.2h-1.9v-0.2
			c0,0,0-2.9-1-3.8c-0.2-0.2-0.5-0.3-0.7-0.3c-1.7,0.1-1.9,3.8-1.9,3.8l0,0.2l-3.1-0.3l0-0.2c0.1-1.4-0.1-3.4-0.7-3.5
			c-0.3,0-0.6,0.1-0.8,0.3c-1,0.9-1,3.5-1,3.6v0.2l-2-0.1l0-0.1c-0.1-0.9-0.8-3.4-2-3.4c-0.2,0-0.4,0.1-0.5,0.2
			c-0.7,0.8-0.3,3.4-0.3,3.4l0,0.2l-2.7,0.1v-0.2c0,0,0-3-1-3.9c-0.2-0.2-0.5-0.3-0.8-0.2c-1.8,0.3-2.1,4.3-2.1,4.3l0,0.2L15.8,43.7
			z"/>
		<path id="Path_1981" class="st2" d="M25.4,125.6c0-0.3-0.5-6.9,1.8-9.2c0.6-0.6,1.4-0.9,2.2-0.8c2,0.1,3.4,1.9,4.1,5.1
			c0.3,1.6,0.5,3.2,0.4,4.8l-0.3,0c0-0.1,0.2-9.3-4.2-9.5c-0.7-0.1-1.4,0.2-1.9,0.7c-2.2,2.3-1.7,8.9-1.7,9L25.4,125.6z"/>
		<path id="Path_1982" class="st2" d="M17.9,100.5h-3.7l0-0.2c0-0.1-0.3-3.1,0.8-4.3c0.3-0.3,0.6-0.5,1.1-0.6c0.4,0,0.8,0.1,1,0.4
			c1.1,1.1,0.9,4.4,0.9,4.5L17.9,100.5z M14.6,100.1h3c0-0.7,0.1-3.2-0.8-4.1c-0.2-0.2-0.5-0.3-0.8-0.3c-0.3,0-0.6,0.2-0.8,0.4
			C14.4,97.2,14.5,99.5,14.6,100.1L14.6,100.1z"/>
		<path id="Path_1983" class="st2" d="M46,106.6h-3.9l0-0.2c0-0.6-0.2-5.7,1.8-5.8c0.3,0,0.6,0.1,0.8,0.3c1.2,1.2,1.2,5.3,1.2,5.5
			L46,106.6z M42.4,106.2h3.2c0-0.8-0.1-4.1-1.1-5.1c-0.1-0.2-0.3-0.2-0.6-0.2C42.6,101,42.4,104.6,42.4,106.2L42.4,106.2z"/>
		<path id="Path_1984" class="st2" d="M18.4,62.4h-4.3v-0.2c0-0.2,0.1-4.9,1.4-6c0.2-0.2,0.4-0.3,0.7-0.3c1.8,0.1,2.2,5.6,2.2,6.3
			L18.4,62.4z M14.4,62.1H18c-0.1-1.7-0.6-5.7-1.9-5.8c-0.2,0-0.3,0.1-0.4,0.2C14.7,57.4,14.5,61.2,14.4,62.1L14.4,62.1z"/>
		<path id="Path_1985" class="st2" d="M43.4,67.8h-3.6l0-0.2c0-0.2-0.5-4.6,0.7-5.7c0.3-0.3,0.6-0.4,1-0.3c2.4,0.4,1.9,5.8,1.9,6
			L43.4,67.8z M40.1,67.5h3c0-0.9,0.2-5.2-1.6-5.5c-0.2-0.1-0.5,0-0.7,0.2C39.8,63.1,40,66.7,40.1,67.5L40.1,67.5z"/>
		
			<rect id="Rectangle_180" x="18.9" y="11.7" transform="matrix(0.999 -4.459582e-02 4.459582e-02 0.999 -0.8168 0.8704)" class="st2" width="0.3" height="14"/>
		
			<rect id="Rectangle_181" x="16" y="19" transform="matrix(2.526964e-02 -0.9997 0.9997 2.526964e-02 3.1773 41.5849)" class="st2" width="13.8" height="0.4"/>
		
			<rect id="Rectangle_182" x="27.1" y="12.2" transform="matrix(0.9995 -3.207365e-02 3.207365e-02 0.9995 -0.5978 0.886)" class="st2" width="0.4" height="13.8"/>
		<rect id="Rectangle_183" x="32" y="12.2" class="st2" width="0.3" height="13.6"/>
		
			<rect id="Rectangle_184" x="35.1" y="12" transform="matrix(0.9998 -2.171019e-02 2.171019e-02 0.9998 -0.4005 0.7695)" class="st2" width="0.3" height="13.6"/>
		
			<rect id="Rectangle_185" x="37.9" y="11.9" transform="matrix(0.997 -7.744988e-02 7.744988e-02 0.997 -1.3416 3.0083)" class="st2" width="0.3" height="13.7"/>
		<path id="Path_1986" class="st2" d="M28.9,3c-0.2,0-0.4,0-0.5-0.1c-0.3-0.2-0.4-0.7-0.4-1.3c-0.1-0.7,0.5-1.4,1.2-1.5
			c0,0,0,0,0.1,0h0h0c0.8,0.1,1.6,0.3,1.6,1.3c0,0.9-0.5,1.4-1.5,1.6C29.2,2.9,29.1,3,28.9,3z M29.3,0.4c-0.2,0-1.1,0.2-1,1.1
			c0.1,0.6,0.1,1,0.3,1.1c0.1,0.1,0.3,0.1,0.7,0c0.9-0.2,1.2-0.5,1.2-1.3C30.5,0.7,30.2,0.5,29.3,0.4z"/>
		<path id="Path_1987" class="st2" d="M49.9,11.9l-0.1-0.3l8.2-2.3l0.1,0.3L49.9,11.9z"/>
		<rect id="Rectangle_186" x="53.3" y="17.5" class="st2" width="4.8" height="0.3"/>
		
			<rect id="Rectangle_187" x="53.2" y="21" transform="matrix(0.4559 -0.89 0.89 0.4559 8.0078 60.3335)" class="st2" width="0.3" height="5.2"/>
		<path id="Path_1988" class="st2" d="M8,12.1c-0.8-0.6-5.9-3-5.9-3l0.1-0.3c2,0.9,4,1.9,6,3L8,12.1z"/>
		<path id="Path_1989" class="st2" d="M1.1,17.5l0-0.4l6.4-0.3l0,0.4L1.1,17.5z"/>
		
			<rect id="Rectangle_188" x="-0.2" y="24.6" transform="matrix(0.9042 -0.4271 0.4271 0.9042 -10.3445 3.4798)" class="st2" width="5.6" height="0.3"/>
		<path id="Path_1990" d="M42.4,35L42.4,35c-0.1,0-0.2-0.1-0.2-0.2c0,0,0,0,0,0c0.1-3.2,0.1-8-0.2-8.6c-0.4-0.5-7.4-0.5-12.9-0.1
			c-2.4,0.1-4.7,0.1-7.1-0.1c-2.4-0.1-5.2-0.2-5.4,0.1c-0.6,1-0.2,6.3,0,8.3c0,0.1-0.1,0.2-0.2,0.2c-0.1,0-0.2-0.1-0.2-0.2
			c0,0,0,0,0,0c0-0.3-0.7-7.3,0-8.5c0.3-0.5,2.2-0.5,5.8-0.3c2.4,0.1,4.7,0.2,7.1,0.1c0.1,0,12.6-0.8,13.2,0.3
			c0.4,0.8,0.3,7.9,0.2,8.7C42.6,34.9,42.5,35,42.4,35C42.4,35,42.4,35,42.4,35z"/>
	</g>
	<g id="Group_290" transform="translate(1231.578 193.5)">
		<g id="Group_276" transform="translate(0 20.816)">
			<path id="Path_1991" class="st4" d="M8.5,0.2C6.8,0.7,0.6,28.4,0.2,29.1S37,43.7,38.9,42.9s11.7-32,11-33.4S10.4-0.3,8.5,0.2z"/>
			<path id="Path_1992" class="st2" d="M38.7,43.1c-2.3,0-15.5-4.7-19.6-6.2c-8.9-3.2-18.6-7-19.1-7.7C0,29.2,0,29.1,0,29
				c0.1-0.2,0.8-3.1,1.7-6.4C4.6,10.9,7.3,0.4,8.5,0l0,0.2l0-0.2c1-0.3,11.4,1.8,21.2,3.9c4.7,1,19.9,4.5,20.4,5.5
				c0.6,1.2-5.2,20.3-8.7,28.9c-1.6,4-2.2,4.6-2.5,4.8C38.9,43.1,38.8,43.1,38.7,43.1z M0.4,29.1c0.8,0.6,9.3,4,18.9,7.5
				c11,4,18.9,6.5,19.6,6.2c0.2-0.1,0.7-0.6,2.3-4.6c3.8-9.6,9.1-27.7,8.7-28.6C49.4,9,41.1,6.8,29.5,4.2C18.6,1.8,9.4,0.1,8.6,0.3
				l0,0C7.5,0.7,3.8,15.6,2,22.7C1.1,26.5,0.5,28.6,0.4,29.1z"/>
		</g>
		<path id="Path_1993" class="st2" d="M50.4,30.6c-0.2,0-0.4,0-0.6-0.1C49.1,30.1,41,24.1,33,17.8C25.8,12.2,17.2,5.2,17.1,4l0,0
			c-0.1-0.8,3.4-3.4,4.8-3.9c0.4-0.2,0.7-0.1,0.9,0.1c0.2,0.3,3.7,3.1,7.8,6.3C46.8,19.3,54.9,26,54.5,26.9
			C53.9,27.9,52,30.6,50.4,30.6z M17.4,4c0.1,0.8,6,5.9,15.8,13.5C41,23.6,49.3,29.8,50,30.2c1.3,0.6,3.4-1.9,4.2-3.4
			c0-1.2-15.5-13.4-23.8-20c-5.2-4.1-7.7-6.1-7.8-6.4c0,0-0.2-0.1-0.5,0C20.5,0.9,17.3,3.5,17.4,4L17.4,4z"/>
		<g id="Group_277" transform="translate(19.453 4.378)">
			<line id="Line_1005" class="st5" x1="0" y1="2.1" x2="8.4" y2="0.2"/>
			
				<rect id="Rectangle_189" x="-0.1" y="1" transform="matrix(0.9734 -0.2293 0.2293 0.9734 -0.1506 0.9988)" class="st2" width="8.6" height="0.3"/>
		</g>
		<g id="Group_278" transform="translate(23.647 8.358)">
			<line id="Line_1006" class="st5" x1="0" y1="1.8" x2="9.2" y2="0.2"/>
			
				<rect id="Rectangle_190" x="0" y="0.8" transform="matrix(0.9853 -0.1707 0.1707 0.9853 -9.607352e-02 0.8055)" class="st2" width="9.4" height="0.3"/>
		</g>
		<g id="Group_279" transform="translate(30.026 12.375)">
			<line id="Line_1007" class="st5" x1="0.1" y1="2.9" x2="7.9" y2="0.2"/>
			
				<rect id="Rectangle_191" x="-0.2" y="1.4" transform="matrix(0.9434 -0.3316 0.3316 0.9434 -0.2839 1.4057)" class="st2" width="8.3" height="0.3"/>
		</g>
		<g id="Group_280" transform="translate(34.917 16.416)">
			<line id="Line_1008" class="st5" x1="0.1" y1="2.7" x2="8" y2="0.2"/>
			
				<rect id="Rectangle_192" x="-0.1" y="1.3" transform="matrix(0.953 -0.303 0.303 0.953 -0.2421 1.2908)" class="st2" width="8.4" height="0.3"/>
		</g>
		<g id="Group_281" transform="translate(40.545 20.134)">
			<line id="Line_1009" class="st5" x1="0.1" y1="3.3" x2="6.9" y2="0.1"/>
			
				<rect id="Rectangle_193" x="-0.3" y="1.6" transform="matrix(0.9077 -0.4197 0.4197 0.9077 -0.4049 1.626)" class="st2" width="7.5" height="0.3"/>
		</g>
		<g id="Group_282" transform="translate(45.596 23.849)">
			<line id="Line_1010" class="st5" x1="0.1" y1="3.4" x2="6.2" y2="0.1"/>
			<path id="Path_1994" class="st2" d="M0.2,3.6L0,3.3L6.1,0l0.2,0.3L0.2,3.6z"/>
		</g>
		<g id="Group_283" transform="translate(8.098 21.854)">
			<line id="Line_1011" class="st5" x1="0.1" y1="5.2" x2="7.5" y2="0.1"/>
			<path id="Path_1995" class="st2" d="M0.2,5.3L0,5l7.4-5l0.2,0.3L0.2,5.3z"/>
		</g>
		<g id="Group_284" transform="translate(14.598 23.301)">
			<line id="Line_1012" class="st5" x1="0.1" y1="5.2" x2="7.8" y2="0.1"/>
			<path id="Path_1996" class="st2" d="M0.2,5.4L0,5.1L7.8,0l0.2,0.3L0.2,5.4z"/>
		</g>
		<g id="Group_285" transform="translate(22.053 24.547)">
			<line id="Line_1013" class="st5" x1="0.1" y1="5.5" x2="6.2" y2="0.1"/>
			
				<rect id="Rectangle_194" x="-0.9" y="2.7" transform="matrix(0.7514 -0.6599 0.6599 0.7514 -1.0712 2.7989)" class="st2" width="8.2" height="0.3"/>
		</g>
		<g id="Group_286" transform="translate(28.055 26.069)">
			<line id="Line_1014" class="st5" x1="0.1" y1="5.4" x2="6.7" y2="0.1"/>
			
				<rect id="Rectangle_195" x="-0.8" y="2.6" transform="matrix(0.7823 -0.6229 0.6229 0.7823 -0.9765 2.7197)" class="st2" width="8.4" height="0.3"/>
		</g>
		<g id="Group_287" transform="translate(35.085 27.33)">
			<line id="Line_1015" class="st5" x1="0.1" y1="5.8" x2="5.3" y2="0.1"/>
			
				<rect id="Rectangle_196" x="-1.1" y="2.8" transform="matrix(0.6702 -0.7422 0.7422 0.6702 -1.3147 2.9888)" class="st2" width="7.7" height="0.3"/>
		</g>
		<g id="Group_288" transform="translate(40.298 28.701)">
			<line id="Line_1016" class="st5" x1="0.1" y1="5.7" x2="5.2" y2="0.1"/>
			
				<rect id="Rectangle_197" x="-1.1" y="2.7" transform="matrix(0.6751 -0.7377 0.7377 0.6751 -1.275 2.925)" class="st2" width="7.6" height="0.3"/>
		</g>
		<g id="Group_289" transform="translate(6.25 26.435)">
			<line id="Line_1017" class="st5" x1="0" y1="0.2" x2="42.5" y2="9.9"/>
			<path id="Path_1997" class="st2" d="M42.4,10L0,0.3L0.1,0l42.4,9.7L42.4,10z"/>
		</g>
		<path id="Path_1998" class="st2" d="M36.4,42.3l-22.8-5.8l0.1-0.3L36.5,42L36.4,42.3z"/>
		<path id="Path_1999" class="st2" d="M33.3,50.1l-21.4-6.2l0.1-0.3l21.4,6.2L33.3,50.1z"/>
		
			<rect id="Rectangle_198" x="21.9" y="39.8" transform="matrix(0.3476 -0.9376 0.9376 0.3476 -33.0537 53.7388)" class="st2" width="0.3" height="21.7"/>
	</g>
</g>
</svg>
