<svg xmlns="http://www.w3.org/2000/svg" width="315.911" height="391.527" viewBox="0 0 315.911 391.527">
  <g id="CIEKAWOSTKA_rozewie" data-name="CIEKAWOSTKA rozewie" transform="translate(-1510.48 -77.28)">
    <path id="Path_1283" data-name="Path 1283" d="M1523.33,95.563c19.418-27.98,274.28-20.488,288.743,0s20.943,326.315,5.1,351.5-279.17,28.846-293.851,9.14S1503.912,123.544,1523.33,95.563Z" fill="#e5a34c"/>
    <g id="CIEKAWOSTKA-2" style="isolation: isolate">
      <path id="Path_2872" data-name="Path 2872" d="M8.228.088A7.163,7.163,0,0,1,5.39-.484,7.224,7.224,0,0,1,3.036-2.09,7.4,7.4,0,0,1,1.452-4.444,7.217,7.217,0,0,1,.88-7.3a7.34,7.34,0,0,1,.561-2.86,7.326,7.326,0,0,1,1.6-2.376A7.4,7.4,0,0,1,5.39-14.124,7.163,7.163,0,0,1,8.228-14.7a7.158,7.158,0,0,1,3.124.7,7.9,7.9,0,0,1,2.64,2.09l-1.5,1.276a5.5,5.5,0,0,0-4.268-2.068,5.185,5.185,0,0,0-2.057.418A5.441,5.441,0,0,0,4.444-11.11,5.441,5.441,0,0,0,3.278-9.383,5.239,5.239,0,0,0,2.86-7.3a5.239,5.239,0,0,0,.418,2.079A5.441,5.441,0,0,0,4.444-3.5,5.441,5.441,0,0,0,6.171-2.332a5.185,5.185,0,0,0,2.057.418A5.5,5.5,0,0,0,12.5-3.982l1.5,1.276a8.154,8.154,0,0,1-2.651,2.09A7.088,7.088,0,0,1,8.228.088ZM16.522,0V-14.63H18.37V0Zm4.6,0V-14.63h8.008v1.98H23.034v4.444h4.092v1.8H23.034V-1.98h6.094V0ZM38.544,0l-4.73-5.39V0H31.878V-14.608h1.936v5.566l4.642-5.566h2.552L34.826-7.194,41.162,0Zm14.1,0-1.8-5.148H46.266L44.462,0h-2.09l5.082-14.608h2.2L54.736,0ZM48.554-11.77,46.882-7H50.2ZM67.76,0H65.8L63.536-6.226,61.358,0h-1.98l-5.3-14.652H56.21L60.346-3.19,62.458-9.2l-1.98-5.456h2.134l1.936,5.368L66.77-3.19l4-11.462h2.134ZM81.334.11a7.2,7.2,0,0,1-2.827-.561,7.112,7.112,0,0,1-2.343-1.595A7.364,7.364,0,0,1,74.58-4.411a7.242,7.242,0,0,1-.572-2.849,7.2,7.2,0,0,1,.561-2.827,7.358,7.358,0,0,1,1.6-2.365,7.431,7.431,0,0,1,2.343-1.584,7.084,7.084,0,0,1,2.827-.572,7.163,7.163,0,0,1,2.838.572,7.4,7.4,0,0,1,2.354,1.584A7.4,7.4,0,0,1,88.11-10.1a7.163,7.163,0,0,1,.572,2.838,7.242,7.242,0,0,1-.572,2.849,7.364,7.364,0,0,1-1.584,2.365A7.4,7.4,0,0,1,84.172-.462,7.163,7.163,0,0,1,81.334.11Zm0-12.716a5.306,5.306,0,0,0-2.057.407,5.292,5.292,0,0,0-1.727,1.155,5.292,5.292,0,0,0-1.155,1.727,5.306,5.306,0,0,0-.407,2.057,5.4,5.4,0,0,0,.418,2.1A5.3,5.3,0,0,0,77.55-3.432a5.292,5.292,0,0,0,1.727,1.155,5.306,5.306,0,0,0,2.057.407,5.306,5.306,0,0,0,2.057-.407,5.292,5.292,0,0,0,1.727-1.155,5.3,5.3,0,0,0,1.144-1.727,5.4,5.4,0,0,0,.418-2.1,5.306,5.306,0,0,0-.407-2.057,5.292,5.292,0,0,0-1.155-1.727A5.292,5.292,0,0,0,83.391-12.2,5.306,5.306,0,0,0,81.334-12.606ZM98.582-10.12a3.391,3.391,0,0,0-.462-1.408,2.406,2.406,0,0,0-.979-.869,3.487,3.487,0,0,0-1.485-.275,2.782,2.782,0,0,0-2.09.638,2.234,2.234,0,0,0-.572,1.65,2.425,2.425,0,0,0,.176,1,1.51,1.51,0,0,0,.528.627,3.681,3.681,0,0,0,1.738.484,12.146,12.146,0,0,1,2.079.341A5.589,5.589,0,0,1,99-7.3a3.474,3.474,0,0,1,1.606,3.168,3.881,3.881,0,0,1-.33,1.584,4.393,4.393,0,0,1-.924,1.342A4.43,4.43,0,0,1,97.691-.2,6.065,6.065,0,0,1,95.7.132a5.168,5.168,0,0,1-3.718-1.32,5.222,5.222,0,0,1-1.43-3.168l.044-.022h1.936a2.878,2.878,0,0,0,.792,1.738,3.272,3.272,0,0,0,2.31.792,3.473,3.473,0,0,0,2.2-.638,2,2,0,0,0,.814-1.65,2.4,2.4,0,0,0-.121-.8,1.357,1.357,0,0,0-.451-.605,5.572,5.572,0,0,0-2.794-.726,5.05,5.05,0,0,1-3.168-1.21,3.834,3.834,0,0,1-1.078-2.9A4.135,4.135,0,0,1,92.2-13.442a4.639,4.639,0,0,1,3.432-1.232A4.6,4.6,0,0,1,99.2-13.288a5.513,5.513,0,0,1,1.364,3.168Zm8.712-2.64V0h-1.936V-12.76h-3.542v-1.87h9.02v1.87ZM120.032,0,115.3-5.39V0h-1.936V-14.608H115.3v5.566l4.642-5.566H122.5l-6.182,7.414L122.65,0Zm14.1,0-1.8-5.148h-4.576L125.95,0h-2.09l5.082-14.608h2.2L136.224,0Zm-4.092-11.77L128.37-7h3.322Z" transform="translate(1602.741 121.217)" fill="#2e3c4b"/>
    </g>
    <rect id="Rectangle_45" data-name="Rectangle 45" width="12.483" height="2.497" transform="translate(1664.427 129.183)" fill="#ae4426"/>
    <g id="Group_181" data-name="Group 181">
      <path id="Path_1327" data-name="Path 1327" d="M1593.373,197.529c5.516-15.086,18.484-46.185,43.66-46.743s94.315-3,111.88,18.051,20.67,37.466,18.08,70.665-11.5,52.475-22,70.137-55.2,31.273-95.374,29.708-69.436-25.382-68.657-57.981,14.83-36.956,12.407-51.119S1587.857,212.615,1593.373,197.529Z" fill="#f2edeb"/>
    </g>
    <text id="W_latarni_Rozewie_znajduje_się_Muzeum_Latarnictwa" data-name="W latarni Rozewie
znajduje się
Muzeum Latarnictwa" transform="translate(1670.719 376.408)" fill="#2e3c4b" font-size="20" font-family="ClarikaProGeo-Th, Clarika Pro Geometric" letter-spacing="0.025em" style="isolation: isolate"><tspan x="-79.531" y="0">W latarni Rozewie</tspan><tspan x="-51.995" y="24">znajduje się</tspan><tspan font-family="ClarikaProGeo-Dm, Clarika Pro Geometric"><tspan x="-99.107" y="48">Muzeum Latarnictwa</tspan></tspan></text>
    <g id="rozewie">
      <g id="Group_291" data-name="Group 291">
        <circle id="Ellipse_66" data-name="Ellipse 66" cx="1.027" cy="1.027" r="1.027" transform="translate(1668.121 196.863)" fill="#2e3c4b"/>
        <circle id="Ellipse_67" data-name="Ellipse 67" cx="1.027" cy="1.027" r="1.027" transform="translate(1668.577 208.73)" fill="#2e3c4b"/>
        <circle id="Ellipse_68" data-name="Ellipse 68" cx="1.027" cy="1.027" r="1.027" transform="translate(1668.121 222.423)" fill="#2e3c4b"/>
        <circle id="Ellipse_69" data-name="Ellipse 69" cx="1.027" cy="1.027" r="1.027" transform="translate(1674.967 247.984)" fill="#2e3c4b"/>
        <circle id="Ellipse_70" data-name="Ellipse 70" cx="1.027" cy="1.027" r="1.027" transform="translate(1663.1 254.374)" fill="#2e3c4b"/>
        <circle id="Ellipse_71" data-name="Ellipse 71" cx="1.027" cy="1.027" r="1.027" transform="translate(1664.013 242.506)" fill="#2e3c4b"/>
      </g>
      <g id="rozewie-2" data-name="rozewie">
        <path id="Path_2000" data-name="Path 2000" d="M1656.506,263.148c-.579-1.156,1.329-12.8,1.348-12.92.091-.546.218-1.4.371-2.425.868-5.83,1.707-11.124,2.431-11.848.342-.341,1.773-.31,4.735-.165,1.024.051,1.991.1,2.73.1,7.705,0,9.018.252,9.29.523.309.31,1.144,4.049,2.781,11.789.443,2.088.791,3.737.93,4.293a80.922,80.922,0,0,1,1.562,10.612l-.456-.006a80.485,80.485,0,0,0-1.548-10.5c-.142-.563-.491-2.216-.934-4.309-.878-4.15-2.348-11.1-2.669-11.573-.232-.162-1.99-.376-8.956-.376-.75,0-1.723-.048-2.752-.1-1.631-.081-4.1-.2-4.392.034-.675.675-1.773,8.047-2.3,11.59-.153,1.029-.281,1.886-.372,2.433-.651,3.907-1.766,11.89-1.39,12.641Z" fill="#2e3c4b"/>
        <path id="Path_2001" data-name="Path 2001" d="M1677.411,236.734l-.323-.323c.231-.513.39-8.16.39-19.922,0-3.309-.47-24.059-.889-25-.143-.285-1.415-.579-6.673-.359-.415.017-.727.03-.883.03-.271,0-.957-.084-1.908-.2-1.724-.211-5.763-.707-6.146-.322-.327.8.459,15.876.979,22.643.171,2.215.213,5.756.259,9.5.063,5.261.15,12.466.743,12.942l-.249.382c-.717-.461-.846-4.613-.951-13.318-.045-3.741-.087-7.275-.256-9.475-.145-1.874-1.5-22.349-.848-23,.459-.457,2.558-.294,6.524.192.864.106,1.61.2,1.853.2.152,0,.458-.013.864-.03,4.11-.171,6.729-.13,7.1.612.511,1.022.937,23.475.937,25.206C1677.934,236.211,1677.554,236.591,1677.411,236.734Z" fill="#2e3c4b"/>
        <path id="Path_2002" data-name="Path 2002" d="M1677.622,179.875a15.551,15.551,0,0,1-2.251-.292,14.23,14.23,0,0,0-3.08-.326c-1.073.109-3.12.157-4.765.2-1.169.028-2.179.052-2.546.089-.546.056-1.843.034-2.986.014-.734-.012-1.428-.024-1.6-.006-.037,0-3.439.011-3.521-.789-.065-.633,8-8.1,10.628-10.116,1.373-1.055,1.69-1.068,1.879-1,1.49.565,9.013,10.685,9.113,11.665a.437.437,0,0,1-.135.372A1.073,1.073,0,0,1,1677.622,179.875Zm-4.98-1.09a18.464,18.464,0,0,1,2.806.348,7.326,7.326,0,0,0,2.6.219c-.13-.89-7.472-10.706-8.813-11.27-.4.025-2.466,1.589-6.224,5.052a74.653,74.653,0,0,0-5.656,5.6,10.377,10.377,0,0,0,2.995.36c.192-.02.754-.011,1.656,0,1.076.018,2.414.041,2.931-.012.385-.039,1.4-.063,2.582-.091,1.637-.039,3.675-.087,4.73-.194A3.813,3.813,0,0,1,1672.642,178.785Z" fill="#2e3c4b"/>
        <path id="Path_2003" data-name="Path 2003" d="M1666.065,190.5l-.453-.05c0-.042.455-4.117.455-5.909v-5.477h.456v5.477C1666.523,186.357,1666.084,190.33,1666.065,190.5Z" fill="#2e3c4b"/>
        <path id="Path_2004" data-name="Path 2004" d="M1670.632,191.174c-.019-.252-.457-6.191-.457-8a13.526,13.526,0,0,1,.29-2.638,7.194,7.194,0,0,0,.167-1.242h.456a7.511,7.511,0,0,1-.174,1.327,13.066,13.066,0,0,0-.283,2.553c0,1.8.452,7.909.456,7.97Z" fill="#2e3c4b"/>
        <path id="Path_2005" data-name="Path 2005" d="M1675.195,190.929h-.456c0-.46.876-10.982.914-11.43l.454.038C1675.792,183.323,1675.195,190.576,1675.195,190.929Z" fill="#2e3c4b"/>
        <rect id="Rectangle_199" data-name="Rectangle 199" width="0.456" height="10.954" transform="translate(1661.503 179.518)" fill="#2e3c4b"/>
        <path id="Path_2006" data-name="Path 2006" d="M1669.742,280.635a4.232,4.232,0,0,1-2.043-.354.555.555,0,0,1-.278-.495c.011-.267-.077-1.383-.178-2.677-.333-4.229-.58-7.78-.233-8.407h0c.233-.418.807-.684,1.706-.79,1.391-.164,3.325.1,3.7.508.517.563,1.18,8.935.733,11.1-.084.406-.2.624-.388.706A9.542,9.542,0,0,1,1669.742,280.635Zm-2.332-11.712c-.31.559.079,5.5.288,8.151.111,1.415.192,2.437.179,2.732,0,.029.025.061.079.1.674.458,3.806.263,4.617-.1.646-.555-.035-10.328-.505-11.088a6.894,6.894,0,0,0-3.3-.352c-.725.086-1.208.284-1.36.559Z" fill="#2e3c4b"/>
        <path id="Path_2007" data-name="Path 2007" d="M1670.821,296.9a5.033,5.033,0,0,1-2.168-.411c-.61-.339-.916-3.447-1.066-5.995-.11-1.882-.226-5.605.121-6.231h0c.343-.614,3.155-.212,4.8.083l.172.031.015.174c.154,1.773.895,10.663.391,11.57-.356.642-1.473.763-2.107.777C1670.927,296.9,1670.873,296.9,1670.821,296.9Zm-2.718-12.407c-.555,1.06.113,11.1.775,11.6a4.85,4.85,0,0,0,2.091.35c.886-.021,1.545-.228,1.719-.542.331-.6-.083-7.07-.432-11.135C1670.425,284.45,1668.371,284.268,1668.1,284.495Z" fill="#2e3c4b"/>
        <path id="Path_2008" data-name="Path 2008" d="M1670.255,312.239a1.351,1.351,0,0,1-.962-.23c-.366-.4-1.09-11.134-.405-11.762h0a4.4,4.4,0,0,1,3.933-.33c1.066.592,1.768,10.709,1.5,11.65a.3.3,0,0,1-.292.257,7.678,7.678,0,0,0-.987.123A21.724,21.724,0,0,1,1670.255,312.239Zm-1.044-11.669c-.35.738.02,10.445.429,11.145.265.229,2.5-.1,3.338-.219.45-.066.743-.108.924-.123a35.413,35.413,0,0,0-.274-5.56c-.361-3.514-.788-5.314-1.032-5.5A4.072,4.072,0,0,0,1669.211,300.57Z" fill="#2e3c4b"/>
        <path id="Path_2009" data-name="Path 2009" d="M1677.522,236.777l-.2-.408c.762-.381,2.352-4.179,2.438-5.194-1.271-.621-18.855-.975-20.533-.418a13.72,13.72,0,0,0,1.329,4.049,4.911,4.911,0,0,1,.494,1.31h-.228l-.228,0a8.141,8.141,0,0,0-.455-1.127,13.164,13.164,0,0,1-1.371-4.352c0-.271,0-.609,7.534-.609,3.192,0,6.6.079,9.13.212,4.788.253,4.788.572,4.788.853C1680.216,232.082,1678.546,236.265,1677.522,236.777Z" fill="#2e3c4b"/>
        <path id="Path_2010" data-name="Path 2010" d="M1664.91,236.189c-.533-.771-.126-5.084-.039-5.941l.454.046c-.194,1.919-.377,5.146-.039,5.636Z" fill="#2e3c4b"/>
        <path id="Path_2011" data-name="Path 2011" d="M1674.087,236.167l-.445-.1c.147-.654.235-3.988.261-5.659l.456.007C1674.356,230.613,1674.282,235.3,1674.087,236.167Z" fill="#2e3c4b"/>
        <path id="Path_2012" data-name="Path 2012" d="M1668.577,236.345l-.218-.1c-.372-.417-.044-3.85.184-5.859l.454.051a27.082,27.082,0,0,0-.287,5.517.162.162,0,0,0-.133-.065Z" fill="#2e3c4b"/>
        <path id="Path_2013" data-name="Path 2013" d="M1676.793,191.167l-.456-.01a4.76,4.76,0,0,1,.642-1.4c.569-1.059,1.52-2.83,1.353-3.358-.014-.046-.033-.055-.044-.06-.78-.372-17.522-.834-18.837-.13a21.646,21.646,0,0,0,1.348,3.944l-.419.179a20.694,20.694,0,0,1-1.388-4.2.339.339,0,0,1,.183-.29c1.356-.839,18.478-.334,19.318.086a.546.546,0,0,1,.275.332c.208.657-.505,2.069-1.387,3.711A9.223,9.223,0,0,0,1676.793,191.167Z" fill="#2e3c4b"/>
        <path id="Path_2014" data-name="Path 2014" d="M1679.813,316.19c-12.4,0-29.15-.688-30.5-1.906-1.235-1.111-.892-16.454-.577-25.5.4-11.475,1.184-24.371,1.755-25.2h0c.08-.117.253-.215.831-.318,4.983-.884,34.027-.969,35.77.261,1.373.969,4.026,21.6,4.544,25.729,1.148,9.143,2.887,24.9,2.128,25.979-.13.183-.487.4-2.15.583C1689.383,316.07,1684.975,316.19,1679.813,316.19Zm-28.958-52.331c-.407.774-1.2,11.557-1.669,25-.5,14.549-.336,24.394.428,25.082,1.468,1.321,28.6,2.238,39.629,1.607,3.643-.209,4.093-.519,4.145-.579.472-.759-.5-12.053-2.215-25.709-2.014-16.035-3.712-24.9-4.348-25.361C1685.272,262.807,1652.473,262.772,1650.855,263.859Z" fill="#2e3c4b"/>
        <rect id="Rectangle_200" data-name="Rectangle 200" width="3.154" height="0.456" transform="translate(1682.741 178.492) rotate(-18.46)" fill="#2e3c4b"/>
        <rect id="Rectangle_201" data-name="Rectangle 201" width="4.922" height="0.457" transform="translate(1683.585 182.864)" fill="#2e3c4b"/>
        <rect id="Rectangle_202" data-name="Rectangle 202" width="0.456" height="2.426" transform="translate(1682.036 188.006) rotate(-63.534)" fill="#2e3c4b"/>
        <path id="Path_2015" data-name="Path 2015" d="M1651.6,179.778a19.327,19.327,0,0,1-2.866-1.249l.207-.407a19.093,19.093,0,0,0,2.731,1.205Z" fill="#2e3c4b"/>
        <rect id="Rectangle_203" data-name="Rectangle 203" width="3.506" height="0.457" transform="translate(1647.491 182.418)" fill="#2e3c4b"/>
        <path id="Path_2016" data-name="Path 2016" d="M1648.917,188.074l-.148-.432,2.8-.965.148.432Z" fill="#2e3c4b"/>
      </g>
    </g>
    <g id="Group_294" data-name="Group 294">
      <path id="Path_2017" data-name="Path 2017" d="M1716.152,262.874a1.042,1.042,0,0,1-.432-.086h0c-1.235-.559-20.318-26.483-20.626-28.02a1.2,1.2,0,0,1,.344-.987,5.934,5.934,0,0,1,3.236-1.79c.164,0,.662,0,12.016,12.621,4.527,5.033,11.291,12.677,11.433,13.1.191.574-1.649,2.4-2.375,3.05C1718.821,261.6,1717.229,262.874,1716.152,262.874Zm-17.519-30.489a5.753,5.753,0,0,0-2.885,1.649.9.9,0,0,0-.262.655c.415,1.57,19.288,27.232,20.4,27.734h0c.361.164,1.034-.064,1.906-.631,1.891-1.233,3.954-3.556,3.95-3.969-.189-.353-5.055-5.947-11.27-12.857C1703.78,237.527,1699.134,232.589,1698.633,232.385Z" fill="#2e3c4b"/>
      <g id="Group_292" data-name="Group 292">
        <path id="Path_2018" data-name="Path 2018" d="M1675.423,209.706c5.827-5.85,16.907-6.243,23.462,2.054s4.194,16.008-2.766,22.619-14.411,2.6-20.691-3.161S1670.358,214.791,1675.423,209.706Z" fill="#f2edeb"/>
        <path id="Path_2019" data-name="Path 2019" d="M1688.36,238c-3.918,0-8.248-2.206-13.067-6.63a13.976,13.976,0,0,1-4.33-10.143,16.425,16.425,0,0,1,4.318-11.658,15.309,15.309,0,0,1,11.76-4.329,16.393,16.393,0,0,1,12,6.4c6.062,7.674,5.126,15.374-2.785,22.888A11.283,11.283,0,0,1,1688.36,238Zm-12.8-28.149h0a16.016,16.016,0,0,0-4.2,11.367,13.572,13.572,0,0,0,4.2,9.857c8.127,7.461,14.806,8.493,20.418,3.163,7.736-7.347,8.66-14.867,2.747-22.35a16,16,0,0,0-11.709-6.248,15.1,15.1,0,0,0-11.455,4.211Z" fill="#2e3c4b"/>
      </g>
      <g id="Group_293" data-name="Group 293">
        <path id="Path_2020" data-name="Path 2020" d="M1677.285,211.628a13.228,13.228,0,0,1,19.674,1.722c5.5,6.958,3.517,13.423-2.32,18.967s-12.084,2.184-17.35-2.65S1673.037,215.892,1677.285,211.628Z" fill="#f2edeb"/>
        <path id="Path_2021" data-name="Path 2021" d="M1688.133,235.35c-3.285,0-6.916-1.85-10.957-5.559a11.716,11.716,0,0,1-3.631-8.506,13.772,13.772,0,0,1,3.621-9.775h0a12.82,12.82,0,0,1,9.86-3.631,13.746,13.746,0,0,1,10.065,5.367c5.083,6.435,4.3,12.892-2.336,19.193A9.463,9.463,0,0,1,1688.133,235.35Zm-1.865-27.157a12.611,12.611,0,0,0-8.864,3.553h0a13.428,13.428,0,0,0-3.524,9.531,11.385,11.385,0,0,0,3.522,8.266c6.815,6.256,12.414,7.125,17.122,2.653,6.486-6.161,7.26-12.467,2.3-18.742a13.412,13.412,0,0,0-9.82-5.24C1686.761,208.2,1686.514,208.193,1686.268,208.193Z" fill="#2e3c4b"/>
      </g>
      <path id="Path_2022" data-name="Path 2022" d="M1680.216,209.489l3.525-1.222.669,26.188-3.016-1.559Z" fill="#2e3c4b"/>
      <path id="Path_2023" data-name="Path 2023" d="M1675.712,227.837s14.821-.442,14.926,0-2.325,7.347-2.325,7.347l-2.623-.317s2.126-3.813,1.264-4.46-8.86-.022-8.86-.022Z" fill="#2e3c4b"/>
    </g>
  </g>
</svg>
