<?xml version="1.0" encoding="utf-8"?>
<!-- Generator: Adobe Illustrator 24.0.3, SVG Export Plug-In . SVG Version: 6.00 Build 0)  -->
<svg version="1.1" id="Layer_1" xmlns="http://www.w3.org/2000/svg" xmlns:xlink="http://www.w3.org/1999/xlink" x="0px" y="0px"
	 viewBox="0 0 303.8 376.5" style="enable-background:new 0 0 303.8 376.5;" xml:space="preserve">
<style type="text/css">
	.st0{fill:#E5A34C;}
	.st1{enable-background:new    ;}
	.st2{fill:#2E3C4B;}
	.st3{fill:#AE4426;}
	.st4{fill:#F2EDEB;}
</style>
<g id="CIEKAWOSTKA" transform="translate(-1510.48 -77.28)">
	<path id="Path_1283" class="st0" d="M1522.8,94.9c18.7-26.9,263.7-19.7,277.6,0s20.1,313.8,4.9,338s-268.4,27.7-282.6,8.8
		S1504.2,121.8,1522.8,94.9z"/>
	<g id="CIEKAWOSTKA-2" transform="translate(1599.194 103.182)">
		<g class="st1">
			<path class="st2" d="M5.1,16.5c-0.9-0.4-1.6-0.9-2.2-1.5c-0.6-0.6-1.1-1.4-1.5-2.2C1,11.9,0.8,11,0.8,10c0-1,0.2-1.9,0.5-2.7
				C1.7,6.4,2.2,5.7,2.9,5c0.6-0.6,1.4-1.1,2.2-1.5C6,3.2,6.9,3,7.9,3c1,0,2,0.2,3,0.7c0.9,0.4,1.8,1.1,2.5,2l-1.4,1.2
				c-1.1-1.3-2.5-2-4.1-2c-0.7,0-1.3,0.1-2,0.4C5.3,5.5,4.7,5.9,4.2,6.4C3.8,6.9,3.4,7.4,3.1,8s-0.4,1.3-0.4,2s0.1,1.4,0.4,2
				s0.6,1.2,1.1,1.6c0.5,0.5,1,0.8,1.6,1.1c0.6,0.3,1.3,0.4,2,0.4c1.6,0,2.9-0.7,4.1-2l1.4,1.2c-0.8,0.9-1.6,1.5-2.5,2
				c-0.9,0.4-1.9,0.7-3,0.7C6.9,17.1,6,16.9,5.1,16.5z"/>
			<path class="st2" d="M15.8,17V3h1.8v14H15.8z"/>
			<path class="st2" d="M20.2,17V3h7.6v1.9H22v4.2h3.9v1.7H22v4.2h5.8V17H20.2z"/>
			<path class="st2" d="M36.8,17l-4.5-5.1V17h-1.8V3.1h1.8v5.3l4.4-5.3h2.4l-5.9,7.1l6,6.9H36.8z"/>
			<path class="st2" d="M50.3,17l-1.7-4.9h-4.4L42.4,17h-2l4.9-13.9h2.1L52.2,17H50.3z M46.3,5.8l-1.6,4.6h3.2L46.3,5.8z"/>
			<path class="st2" d="M64.7,17h-1.9l-2.2-5.9L58.6,17h-1.9L51.6,3h2L57.6,14l2-5.7L57.7,3h2l1.8,5.1l2.1,5.8L67.6,3h2L64.7,17z"/>
			<path class="st2" d="M74.9,16.6c-0.8-0.4-1.6-0.9-2.2-1.5c-0.6-0.6-1.1-1.4-1.5-2.3c-0.4-0.9-0.5-1.8-0.5-2.7s0.2-1.9,0.5-2.7
				c0.4-0.8,0.9-1.6,1.5-2.3c0.6-0.6,1.4-1.1,2.2-1.5c0.8-0.4,1.7-0.5,2.7-0.5s1.9,0.2,2.7,0.5c0.9,0.4,1.6,0.9,2.2,1.5
				s1.1,1.4,1.5,2.2c0.4,0.9,0.5,1.8,0.5,2.7s-0.2,1.9-0.5,2.7c-0.4,0.9-0.9,1.6-1.5,2.3c-0.6,0.6-1.4,1.1-2.2,1.5
				c-0.9,0.4-1.8,0.5-2.7,0.5S75.8,16.9,74.9,16.6z M75.7,5.4C75.1,5.6,74.5,6,74,6.5c-0.5,0.5-0.8,1-1.1,1.6
				c-0.3,0.6-0.4,1.3-0.4,2c0,0.7,0.1,1.4,0.4,2c0.3,0.6,0.6,1.2,1.1,1.6c0.5,0.5,1,0.8,1.6,1.1c0.6,0.3,1.3,0.4,2,0.4
				s1.3-0.1,2-0.4c0.6-0.3,1.2-0.6,1.6-1.1c0.5-0.5,0.8-1,1.1-1.6c0.3-0.6,0.4-1.3,0.4-2c0-0.7-0.1-1.3-0.4-2
				c-0.3-0.6-0.6-1.2-1.1-1.6c-0.5-0.5-1-0.8-1.6-1.1S78.3,5,77.6,5S76.3,5.1,75.7,5.4z"/>
			<path class="st2" d="M93.7,6c-0.3-0.4-0.6-0.7-0.9-0.8c-0.4-0.2-0.8-0.3-1.4-0.3c-1,0-1.6,0.2-2,0.6c-0.4,0.4-0.5,0.9-0.5,1.6
				c0,0.4,0.1,0.7,0.2,1c0.1,0.2,0.3,0.4,0.5,0.6c0.3,0.2,0.9,0.4,1.7,0.5c0.8,0.1,1.4,0.2,2,0.3c0.5,0.1,1,0.3,1.4,0.6
				c1,0.6,1.5,1.7,1.5,3c0,0.5-0.1,1-0.3,1.5c-0.2,0.5-0.5,0.9-0.9,1.3c-0.4,0.4-1,0.8-1.6,1c-0.6,0.2-1.2,0.3-1.9,0.3
				c-1.5,0-2.7-0.4-3.5-1.3c-0.8-0.8-1.2-1.8-1.4-3l0,0h1.8c0.1,0.7,0.4,1.3,0.8,1.7c0.5,0.5,1.3,0.8,2.2,0.8c0.9,0,1.6-0.2,2.1-0.6
				c0.5-0.4,0.8-0.9,0.8-1.6c0-0.3,0-0.5-0.1-0.8c-0.1-0.2-0.2-0.4-0.4-0.6c-0.5-0.4-1.4-0.6-2.7-0.7c-1.3-0.1-2.3-0.5-3-1.2
				c-0.7-0.7-1-1.6-1-2.8c0-1.2,0.4-2.2,1.1-2.9C88.8,3.4,89.9,3,91.3,3c1.5,0,2.6,0.4,3.4,1.3c0.7,0.8,1.1,1.8,1.3,3h-1.9
				C94,6.8,93.9,6.3,93.7,6z"/>
			<path class="st2" d="M102.4,4.8V17h-1.8V4.8h-3.4V3h8.6v1.8H102.4z"/>
			<path class="st2" d="M114.6,17l-4.5-5.1V17h-1.8V3.1h1.8v5.3l4.4-5.3h2.4l-5.9,7.1l6,6.9H114.6z"/>
			<path class="st2" d="M128,17l-1.7-4.9h-4.4l-1.7,4.9h-2l4.9-13.9h2.1L130,17H128z M124.1,5.8l-1.6,4.6h3.2L124.1,5.8z"/>
		</g>
	</g>
	<rect id="Rectangle_45" x="1658.5" y="127.2" class="st3" width="12" height="2.4"/>
	<g id="Group_181" transform="translate(1578.238 147.598)">
		<path id="Path_1327" class="st4" d="M12,45.3c5.3-14.5,17.8-44.4,42-44.9s90.7-2.9,107.6,17.4s19.9,36,17.4,67.9
			s-11.1,50.5-21.2,67.4s-53.1,30.1-91.7,28.6s-66.8-24.4-66-55.8s14.3-35.5,11.9-49.2S6.6,59.8,12,45.3z"/>
	</g>
	<g class="st1">
		<path class="st2" d="M1605.5,352.3l-4.3,12.4h-0.6l-3.6-11.5l-3.6,11.5h-0.6l-4.3-12.4h0.8l3.8,11.4l3.6-11.4h0.6l3.6,11.4
			l3.8-11.4H1605.5z"/>
		<path class="st2" d="M1613.9,351.5h0.7v13.2h-0.7V351.5z"/>
		<path class="st2" d="M1625.6,356.2v8.4h-0.6l-0.1-2.2c-0.6,1.4-1.9,2.3-3.5,2.3c-2.3,0-4.1-1.8-4.1-4.4c0-2.6,1.8-4.4,4-4.4
			c1.6,0,2.9,0.9,3.5,2.3l0.1-2.1H1625.6z M1625,360.4c0-2.2-1.5-3.8-3.5-3.8c-2,0-3.5,1.7-3.5,3.8s1.5,3.8,3.5,3.8
			S1625,362.6,1625,360.4z"/>
		<path class="st2" d="M1632.5,356.8h-2.2v7.9h-0.7v-7.9h-1.2v-0.6h1.2v-2.5h0.7v2.5h2.2V356.8z"/>
		<path class="st2" d="M1642.5,356.2v8.4h-0.6l-0.1-2.2c-0.6,1.4-1.9,2.3-3.5,2.3c-2.3,0-4.1-1.8-4.1-4.4c0-2.6,1.8-4.4,4-4.4
			c1.6,0,2.9,0.9,3.5,2.3l0.1-2.1H1642.5z M1641.9,360.4c0-2.2-1.5-3.8-3.5-3.8c-2,0-3.5,1.7-3.5,3.8s1.5,3.8,3.5,3.8
			S1641.9,362.6,1641.9,360.4z"/>
		<path class="st2" d="M1649.3,356.1l-0.1,0.7c-0.2,0-0.3-0.1-0.6-0.1c-1.3,0-2.2,1-2.2,2.7v5.3h-0.7v-8.4h0.6l0.1,1.7
			c0.3-1,1.2-1.9,2.4-1.9C1649,356,1649.2,356,1649.3,356.1z"/>
		<path class="st2" d="M1658.3,359.7v5h-0.7v-4.9c0-2.2-1.1-3.2-2.6-3.2c-1.5,0-2.6,1.1-2.8,2.9v5.2h-0.7v-8.4h0.6l0.1,1.8
			c0.5-1.2,1.5-2.1,2.9-2.1C1656.6,356,1658.3,356.8,1658.3,359.7z"/>
		<path class="st2" d="M1661.4,353.4c0-0.3,0.3-0.6,0.6-0.6s0.6,0.3,0.6,0.6s-0.3,0.6-0.6,0.6S1661.4,353.8,1661.4,353.4z
			 M1661.7,356.2h0.7v8.4h-0.7V356.2z"/>
		<path class="st2" d="M1674,358.6h-1.3v6h-0.7v-12.4h3c2,0,3.7,1.1,3.7,3.2c0,2.2-1.9,3.1-3.7,3.1h-0.2l4.7,6h-0.9L1674,358.6z
			 M1672.7,358.1h2.1c1.8,0,3.2-0.8,3.2-2.6c0-1.8-1.4-2.7-3.2-2.7h-2.1V358.1z"/>
		<path class="st2" d="M1681.5,360.4c0-2.5,1.9-4.4,4.4-4.4c2.5,0,4.4,2,4.4,4.4s-1.9,4.4-4.4,4.4
			C1683.4,364.8,1681.5,362.9,1681.5,360.4z M1689.6,360.4c0-2.1-1.6-3.8-3.7-3.8c-2.1,0-3.7,1.7-3.7,3.8c0,2.1,1.6,3.8,3.7,3.8
			C1688.1,364.3,1689.6,362.6,1689.6,360.4z"/>
		<path class="st2" d="M1699.4,364.1v0.6h-6.7v-0.5l5.7-7.3h-5.4v-0.6h6.2v0.5l-5.6,7.3H1699.4z"/>
		<path class="st2" d="M1702.4,360.3L1702.4,360.3c0,2.2,1.3,4,3.6,4c1.2,0,2.2-0.5,2.8-1.2l0.5,0.4c-0.7,0.8-1.9,1.4-3.3,1.4
			c-2.7,0-4.3-2-4.3-4.5c0-2.4,1.7-4.3,4.1-4.3c2.3,0,3.9,1.8,3.9,3.9v0.3H1702.4z M1702.5,359.8h6.6c-0.1-1.8-1.4-3.1-3.2-3.1
			C1704,356.6,1702.7,358,1702.5,359.8z"/>
		<path class="st2" d="M1723.7,356.2l-3.2,8.4h-0.5l-2.4-7.6l-2.4,7.6h-0.5l-3.2-8.4h0.7l2.8,7.6l2.4-7.6h0.6l2.4,7.5l2.8-7.5
			H1723.7z"/>
		<path class="st2" d="M1726,353.4c0-0.3,0.3-0.6,0.6-0.6c0.3,0,0.6,0.3,0.6,0.6s-0.3,0.6-0.6,0.6
			C1726.3,354.1,1726,353.8,1726,353.4z M1726.3,356.2h0.7v8.4h-0.7V356.2z"/>
		<path class="st2" d="M1730.7,360.3L1730.7,360.3c0,2.2,1.3,4,3.6,4c1.2,0,2.2-0.5,2.8-1.2l0.5,0.4c-0.7,0.8-1.9,1.4-3.3,1.4
			c-2.7,0-4.3-2-4.3-4.5c0-2.4,1.7-4.3,4.1-4.3c2.3,0,3.9,1.8,3.9,3.9v0.3H1730.7z M1730.8,359.8h6.6c-0.1-1.8-1.4-3.1-3.2-3.1
			C1732.2,356.6,1731,358,1730.8,359.8z"/>
	</g>
	<g class="st1">
		<path class="st2" d="M1621.7,387.1v0.6h-6.7v-0.5l5.7-7.3h-5.4v-0.6h6.2v0.5l-5.6,7.3H1621.7z"/>
		<path class="st2" d="M1631.2,382.7v5h-0.7v-4.9c0-2.2-1.1-3.2-2.6-3.2c-1.5,0-2.6,1.1-2.8,2.9v5.2h-0.7v-8.4h0.6l0.1,1.8
			c0.5-1.2,1.5-2.1,2.9-2.1C1629.5,379,1631.2,379.8,1631.2,382.7z"/>
		<path class="st2" d="M1642.1,379.2v8.4h-0.6l-0.1-2.2c-0.6,1.4-1.9,2.3-3.5,2.3c-2.3,0-4.1-1.8-4.1-4.4c0-2.6,1.8-4.4,4-4.4
			c1.6,0,2.9,0.9,3.5,2.3l0.1-2.1H1642.1z M1641.5,383.4c0-2.2-1.5-3.8-3.5-3.8c-2,0-3.5,1.7-3.5,3.8s1.5,3.8,3.5,3.8
			C1640.1,387.3,1641.5,385.6,1641.5,383.4z"/>
		<path class="st2" d="M1643.9,391.7v-0.6c1.6,0.2,2.2-0.5,2.2-2v-9.9h0.7v9.9C1646.8,391.4,1645.4,391.9,1643.9,391.7z
			 M1645.8,376.4c0-0.3,0.3-0.6,0.6-0.6c0.3,0,0.6,0.3,0.6,0.6s-0.3,0.6-0.6,0.6C1646.1,377.1,1645.8,376.8,1645.8,376.4z"/>
		<path class="st2" d="M1658.1,374.5v13.2h-0.6l-0.1-2.2c-0.6,1.4-1.9,2.3-3.5,2.3c-2.3,0-4.1-1.8-4.1-4.4c0-2.6,1.8-4.4,4-4.4
			c1.6,0,2.9,0.9,3.5,2.3v-6.8H1658.1z M1657.5,383.4c0-2.2-1.5-3.8-3.5-3.8c-2,0-3.5,1.7-3.5,3.8s1.5,3.8,3.5,3.8
			C1656,387.3,1657.5,385.6,1657.5,383.4z"/>
		<path class="st2" d="M1661.2,384.3v-5h0.7v5c0,1.9,1,3.1,2.7,3.1c1.7,0,2.7-1.2,2.7-3.1v-5h0.7v5c0,2.8-1.8,3.6-3.4,3.6
			C1663.1,387.9,1661.2,387.1,1661.2,384.3z"/>
		<path class="st2" d="M1669.7,391.7v-0.6c1.6,0.2,2.2-0.5,2.2-2v-9.9h0.7v9.9C1672.6,391.4,1671.2,391.9,1669.7,391.7z
			 M1671.6,376.4c0-0.3,0.3-0.6,0.6-0.6c0.3,0,0.6,0.3,0.6,0.6s-0.3,0.6-0.6,0.6C1671.9,377.1,1671.6,376.8,1671.6,376.4z"/>
		<path class="st2" d="M1676.4,383.3L1676.4,383.3c0,2.2,1.3,4,3.6,4c1.2,0,2.2-0.5,2.8-1.2l0.5,0.4c-0.7,0.8-1.9,1.4-3.3,1.4
			c-2.7,0-4.3-2-4.3-4.5c0-2.4,1.7-4.3,4.1-4.3c2.3,0,3.9,1.8,3.9,3.9v0.3H1676.4z M1676.4,382.8h6.6c-0.1-1.8-1.4-3.1-3.2-3.1
			C1677.9,379.6,1676.7,381,1676.4,382.8z"/>
		<path class="st2" d="M1691.8,386c0.4,0.7,1.3,1.2,2.3,1.2c1.4,0,2.2-0.7,2.2-1.8c0-2.6-4.7-1-4.7-4.2c0-1.4,1.1-2.3,2.7-2.3
			c1.2,0,2,0.5,2.5,0.9l-0.4,0.4c-0.5-0.5-1.1-0.8-2.1-0.8c-1.2,0-2,0.6-2,1.7c0,2.6,4.7,1,4.7,4.2c0,1.5-1.2,2.4-2.9,2.4
			c-1.4,0-2.4-0.7-2.9-1.4L1691.8,386z"/>
		<path class="st2" d="M1699.8,376.4c0-0.3,0.3-0.6,0.6-0.6c0.3,0,0.6,0.3,0.6,0.6s-0.3,0.6-0.6,0.6
			C1700.1,377.1,1699.8,376.8,1699.8,376.4z M1700.1,379.2h0.7v8.4h-0.7V379.2z"/>
		<path class="st2" d="M1704.6,383.3L1704.6,383.3c0,2.2,1.3,4,3.6,4c1.2,0,2.2-0.5,2.8-1.2l0.5,0.4c-0.5,0.6-1.3,1-2.2,1.3
			l-0.3,0.2c-1.9,1.2-1.2,2.9,0.3,2.1l0.1,0.4c-0.7,0.4-1.7,0.3-2.1-0.4c-0.3-0.6,0-1.5,1.1-2.2h-0.3c-2.7,0-4.3-2-4.3-4.5
			c0-2.4,1.7-4.3,4.1-4.3c2.3,0,3.9,1.8,3.9,3.9v0.3H1704.6z M1704.6,382.8h6.6c-0.1-1.8-1.4-3.1-3.2-3.1
			C1706.1,379.6,1704.8,381,1704.6,382.8z"/>
	</g>
	<g class="st1">
		<path class="st2" d="M1583.8,398.3v12.4h-2.4v-8.5l-4.2,5.5l-4.1-5.5v8.5h-2.4v-12.4h2.2l4.3,6.1l4.3-6.1H1583.8z"/>
		<path class="st2" d="M1586.8,406.7v-4.9h2.3v5c0,1.3,0.6,2.2,1.8,2.2c1.2,0,1.9-0.9,1.9-2.2v-5h2.3v4.9c0,3.3-2.1,4.2-4.2,4.2
			C1588.8,410.9,1586.8,410,1586.8,406.7z"/>
		<path class="st2" d="M1605.3,408.8v1.9h-7.9v-1.6l4.6-5.4h-4.3v-1.9h7.3v1.6l-4.6,5.4H1605.3z"/>
		<path class="st2" d="M1616.3,406.8h-6.8c0.2,1.4,1,2.4,2.5,2.4c0.9,0,1.6-0.3,2.2-0.9l1.6,1.3c-0.9,0.9-2.1,1.4-3.7,1.4
			c-3,0-5-2-5-4.7c0-2.7,2-4.7,4.7-4.7c2.6,0,4.5,1.8,4.5,4.6V406.8z M1609.5,405.3h4.5c-0.2-1.2-1-2-2.2-2
			C1610.6,403.3,1609.8,404.1,1609.5,405.3z"/>
		<path class="st2" d="M1618.5,406.7v-4.9h2.3v5c0,1.3,0.6,2.2,1.8,2.2c1.2,0,1.9-0.9,1.9-2.2v-5h2.3v4.9c0,3.3-2.1,4.2-4.2,4.2
			C1620.6,410.9,1618.5,410,1618.5,406.7z"/>
		<path class="st2" d="M1642.9,405.4v5.2h-2.3v-5c0-1.3-0.4-2.2-1.5-2.2c-1.1,0-1.7,0.9-1.7,2.5v4.7h-2.3v-5c0-1.3-0.4-2.2-1.5-2.2
			c-1,0-1.6,0.7-1.7,2.1v5.1h-2.3v-8.9h2l0.3,1.2c0.5-0.9,1.5-1.4,2.4-1.4c1,0,1.9,0.4,2.5,1.3c0.6-0.7,1.4-1.3,2.9-1.3
			C1641.5,401.5,1642.9,402.7,1642.9,405.4z"/>
		<path class="st2" d="M1658.7,408.6v2.1h-7.5v-12.4h2.4v10.3H1658.7z"/>
		<path class="st2" d="M1669.5,401.8v8.9h-1.9l-0.3-1.1c-0.7,0.8-1.6,1.3-3,1.3c-2.3,0-4.1-1.7-4.1-4.7c0-2.9,1.8-4.7,4.1-4.7
			c1.3,0,2.3,0.5,3,1.4l0.3-1.1H1669.5z M1667.4,406.2c0-1.6-1-2.7-2.5-2.7c-1.4,0-2.4,1.1-2.4,2.7c0,1.6,1,2.7,2.4,2.7
			C1666.4,408.9,1667.4,407.8,1667.4,406.2z"/>
		<path class="st2" d="M1677.7,403.6h-2.2v7.1h-2.3v-7.1h-1.4v-1.8h1.4v-2.6h2.3v2.6h2.2V403.6z"/>
		<path class="st2" d="M1688.4,401.8v8.9h-1.9l-0.3-1.1c-0.7,0.8-1.6,1.3-3,1.3c-2.3,0-4.1-1.7-4.1-4.7c0-2.9,1.8-4.7,4.1-4.7
			c1.3,0,2.3,0.5,3,1.4l0.3-1.1H1688.4z M1686.3,406.2c0-1.6-1-2.7-2.5-2.7c-1.4,0-2.4,1.1-2.4,2.7c0,1.6,1,2.7,2.4,2.7
			C1685.3,408.9,1686.3,407.8,1686.3,406.2z"/>
		<path class="st2" d="M1696.8,401.7l-0.3,2.2c-0.2-0.1-0.5-0.1-0.8-0.1c-1.4,0-2.2,1-2.2,2.5v4.4h-2.3v-8.9h2l0.3,1.2
			c0.5-0.8,1.3-1.5,2.4-1.5C1696.3,401.5,1696.6,401.6,1696.8,401.7z"/>
		<path class="st2" d="M1706.8,405.1v5.5h-2.3v-4.9c0-1.4-0.5-2.2-1.8-2.2c-0.9,0-1.8,0.5-2,2v5.2h-2.3v-8.9h2l0.3,1
			c0.6-0.8,1.5-1.3,2.7-1.3C1705.1,401.5,1706.8,402.4,1706.8,405.1z"/>
		<path class="st2" d="M1709.6,399c0-0.7,0.6-1.3,1.4-1.3c0.8,0,1.4,0.6,1.4,1.3c0,0.7-0.6,1.3-1.4,1.3
			C1710.2,400.3,1709.6,399.7,1709.6,399z M1709.8,401.8h2.3v8.9h-2.3V401.8z"/>
		<path class="st2" d="M1714.7,406.3c0-2.7,2-4.7,4.7-4.7c1.3,0,2.3,0.4,3.2,1l-1.3,1.7c-0.5-0.4-1.1-0.7-1.8-0.7
			c-1.6,0-2.5,1.1-2.5,2.7c0,1.6,0.9,2.7,2.5,2.7c0.7,0,1.3-0.3,1.8-0.7l1.3,1.7c-0.9,0.6-1.8,1-3.1,1
			C1716.7,410.9,1714.7,408.9,1714.7,406.3z"/>
		<path class="st2" d="M1730.1,403.6h-2.2v7.1h-2.3v-7.1h-1.4v-1.8h1.4v-2.6h2.3v2.6h2.2V403.6z"/>
		<path class="st2" d="M1745.8,401.8l-3.3,8.9h-1.9l-1.8-6.2l-1.9,6.2h-1.9l-3.3-8.9h2.5l1.9,6l1.8-6h1.9l1.8,6l1.9-6H1745.8z"/>
		<path class="st2" d="M1756.3,401.8v8.9h-1.9l-0.3-1.1c-0.7,0.8-1.6,1.3-3,1.3c-2.3,0-4.1-1.7-4.1-4.7c0-2.9,1.8-4.7,4.1-4.7
			c1.3,0,2.3,0.5,3,1.4l0.3-1.1H1756.3z M1754.2,406.2c0-1.6-1-2.7-2.5-2.7c-1.4,0-2.4,1.1-2.4,2.7c0,1.6,1,2.7,2.4,2.7
			C1753.3,408.9,1754.2,407.8,1754.2,406.2z"/>
	</g>
	<g id="rozewie" transform="translate(1642.224 164.15)">
		<g id="Group_291" transform="translate(15.008 28.115)">
			<circle id="Ellipse_66" class="st2" cx="5.8" cy="1" r="1"/>
			<circle id="Ellipse_67" class="st2" cx="6.3" cy="12.4" r="1"/>
			<circle id="Ellipse_68" class="st2" cx="5.8" cy="25.6" r="1"/>
			<circle id="Ellipse_69" class="st2" cx="12.4" cy="50.1" r="1"/>
			<circle id="Ellipse_70" class="st2" cx="1" cy="56.3" r="1"/>
			<circle id="Ellipse_71" class="st2" cx="1.9" cy="44.9" r="1"/>
		</g>
		<g id="rozewie-2" transform="translate(0 0)">
			<path id="Path_2000" class="st2" d="M8.7,91.9C8.1,90.7,9.9,79.5,10,79.4c0.1-0.5,0.2-1.3,0.4-2.3c0.8-5.6,1.6-10.7,2.3-11.4
				c0.3-0.3,1.7-0.3,4.6-0.2c1,0,1.9,0.1,2.6,0.1c7.4,0,8.7,0.2,8.9,0.5c0.3,0.3,1.1,3.9,2.7,11.3c0.4,2,0.8,3.6,0.9,4.1
				c0.7,3.4,1.2,6.8,1.5,10.2l-0.4,0c-0.3-3.4-0.8-6.8-1.5-10.1c-0.1-0.5-0.5-2.1-0.9-4.1c-0.8-4-2.3-10.7-2.6-11.1
				c-0.2-0.2-1.9-0.4-8.6-0.4c-0.7,0-1.7,0-2.6-0.1c-1.6-0.1-3.9-0.2-4.2,0c-0.6,0.6-1.7,7.7-2.2,11.1c-0.1,1-0.3,1.8-0.4,2.3
				c-0.6,3.8-1.7,11.4-1.3,12.2L8.7,91.9z"/>
			<path id="Path_2001" class="st2" d="M28.8,66.5l-0.3-0.3c0.2-0.5,0.4-7.8,0.4-19.2c0-3.2-0.5-23.1-0.9-24
				c-0.1-0.3-1.4-0.6-6.4-0.3c-0.4,0-0.7,0-0.8,0c-0.3,0-0.9-0.1-1.8-0.2c-1.7-0.2-5.5-0.7-5.9-0.3c-0.3,0.8,0.4,15.3,0.9,21.8
				c0.2,2.1,0.2,5.5,0.2,9.1c0.1,5.1,0.1,12,0.7,12.4l-0.2,0.4c-0.7-0.4-0.8-4.4-0.9-12.8c0-3.6-0.1-7-0.2-9.1
				c-0.1-1.8-1.4-21.5-0.8-22.1c0.4-0.4,2.5-0.3,6.3,0.2c0.8,0.1,1.5,0.2,1.8,0.2c0.1,0,0.4,0,0.8,0c4-0.2,6.5-0.1,6.8,0.6
				c0.5,1,0.9,22.6,0.9,24.2C29.3,66,28.9,66.3,28.8,66.5z"/>
			<path id="Path_2002" class="st2" d="M29,11.8c-0.7,0-1.5-0.1-2.2-0.3c-1-0.2-2-0.3-3-0.3c-1,0.1-3,0.2-4.6,0.2
				c-1.1,0-2.1,0.1-2.4,0.1c-0.5,0.1-1.8,0-2.9,0c-0.7,0-1.4,0-1.5,0c0,0-3.3,0-3.4-0.8C9,10.1,16.7,2.9,19.2,1c1.3-1,1.6-1,1.8-1
				c1.4,0.5,8.7,10.3,8.8,11.2c0,0.1,0,0.3-0.1,0.4C29.5,11.7,29.2,11.8,29,11.8z M24.2,10.7c0.9,0,1.8,0.2,2.7,0.3
				c0.8,0.2,1.7,0.3,2.5,0.2C29.3,10.4,22.2,1,20.9,0.4c-0.4,0-2.4,1.5-6,4.9C13,7,11.2,8.8,9.5,10.7c0.9,0.3,1.9,0.4,2.9,0.3
				c0.2,0,0.7,0,1.6,0c1,0,2.3,0,2.8,0c0.4,0,1.3-0.1,2.5-0.1c1.6,0,3.5-0.1,4.5-0.2C23.9,10.7,24.1,10.7,24.2,10.7L24.2,10.7z"/>
			<path id="Path_2003" class="st2" d="M17.9,22l-0.4,0c0,0,0.4-4,0.4-5.7V11h0.4v5.3C18.3,18,17.9,21.8,17.9,22z"/>
			<path id="Path_2004" class="st2" d="M22.3,22.6c0-0.2-0.4-6-0.4-7.7c0-0.9,0.1-1.7,0.3-2.5c0.1-0.4,0.1-0.8,0.2-1.2h0.4
				c0,0.4-0.1,0.9-0.2,1.3c-0.2,0.8-0.3,1.6-0.3,2.5c0,1.7,0.4,7.6,0.4,7.7L22.3,22.6z"/>
			<path id="Path_2005" class="st2" d="M26.6,22.4h-0.4c0-0.4,0.8-10.6,0.9-11l0.4,0C27.2,15.1,26.6,22.1,26.6,22.4z"/>
			<rect id="Rectangle_199" x="13.5" y="11.4" class="st2" width="0.4" height="10.5"/>
			<path id="Path_2006" class="st2" d="M21.4,108.7c-0.7,0.1-1.3-0.1-2-0.3c-0.2-0.1-0.3-0.3-0.3-0.5c0-0.3-0.1-1.3-0.2-2.6
				c-0.3-4.1-0.6-7.5-0.2-8.1l0,0c0.2-0.4,0.8-0.7,1.6-0.8c1.3-0.2,3.2,0.1,3.6,0.5c0.5,0.5,1.1,8.6,0.7,10.7
				c-0.1,0.4-0.2,0.6-0.4,0.7C23.4,108.6,22.4,108.7,21.4,108.7z M19.2,97.4c-0.3,0.5,0.1,5.3,0.3,7.8c0.1,1.4,0.2,2.3,0.2,2.6
				c0,0,0,0.1,0.1,0.1c0.6,0.4,3.7,0.3,4.4-0.1c0.6-0.5,0-9.9-0.5-10.7c-1-0.4-2.1-0.5-3.2-0.3C19.8,96.9,19.3,97.1,19.2,97.4
				L19.2,97.4z"/>
			<path id="Path_2007" class="st2" d="M22.4,124.3c-0.7,0-1.4-0.1-2.1-0.4c-0.6-0.3-0.9-3.3-1-5.8c-0.1-1.8-0.2-5.4,0.1-6l0,0
				c0.3-0.6,3-0.2,4.6,0.1l0.2,0l0,0.2c0.1,1.7,0.9,10.3,0.4,11.1c-0.3,0.6-1.4,0.7-2,0.7C22.5,124.3,22.5,124.3,22.4,124.3z
				 M19.8,112.4c-0.5,1,0.1,10.7,0.7,11.2c0.6,0.3,1.3,0.4,2,0.3c0.9,0,1.5-0.2,1.7-0.5c0.3-0.6-0.1-6.8-0.4-10.7
				C22.1,112.3,20.1,112.2,19.8,112.4L19.8,112.4z"/>
			<path id="Path_2008" class="st2" d="M21.9,139.1c-0.3,0-0.7,0-0.9-0.2c-0.4-0.4-1-10.7-0.4-11.3l0,0c1.1-0.7,2.5-0.8,3.8-0.3
				c1,0.6,1.7,10.3,1.4,11.2c0,0.1-0.1,0.2-0.3,0.2c-0.3,0-0.6,0.1-0.9,0.1C23.7,138.9,22.8,139,21.9,139.1z M20.9,127.8
				c-0.3,0.7,0,10,0.4,10.7c0.3,0.2,2.4-0.1,3.2-0.2c0.4-0.1,0.7-0.1,0.9-0.1c0.1-1.8,0-3.6-0.3-5.3c-0.3-3.4-0.8-5.1-1-5.3
				C23.1,127.2,21.9,127.3,20.9,127.8L20.9,127.8z"/>
			<path id="Path_2009" class="st2" d="M28.9,66.5l-0.2-0.4c0.7-0.4,2.3-4,2.3-5c-1.2-0.6-18.1-0.9-19.7-0.4
				c0.2,1.4,0.7,2.7,1.3,3.9c0.2,0.4,0.4,0.8,0.5,1.3h-0.2h-0.2c-0.1-0.4-0.3-0.7-0.4-1.1c-0.7-1.3-1.1-2.7-1.3-4.2
				c0-0.3,0-0.6,7.2-0.6c3.1,0,6.4,0.1,8.8,0.2c4.6,0.2,4.6,0.6,4.6,0.8C31.5,62,29.9,66,28.9,66.5z"/>
			<path id="Path_2010" class="st2" d="M16.7,65.9c-0.5-0.7-0.1-4.9,0-5.7l0.4,0c-0.2,1.8-0.4,4.9,0,5.4L16.7,65.9z"/>
			<path id="Path_2011" class="st2" d="M25.6,65.9l-0.4-0.1c0.1-0.6,0.2-3.8,0.3-5.4l0.4,0C25.8,60.6,25.8,65.1,25.6,65.9z"/>
			<path id="Path_2012" class="st2" d="M20.3,66.1L20.1,66c-0.4-0.4,0-3.7,0.2-5.6l0.4,0c-0.3,1.8-0.4,3.5-0.3,5.3
				c0,0-0.1-0.1-0.1-0.1V66.1z"/>
			<path id="Path_2013" class="st2" d="M28.2,22.6l-0.4,0c0.1-0.5,0.3-0.9,0.6-1.3c0.5-1,1.5-2.7,1.3-3.2c0,0,0-0.1,0-0.1
				c-0.8-0.4-16.8-0.8-18.1-0.1c0.3,1.3,0.7,2.6,1.3,3.8l-0.4,0.2c-0.6-1.3-1-2.6-1.3-4c0-0.1,0.1-0.2,0.2-0.3
				c1.3-0.8,17.8-0.3,18.6,0.1c0.1,0.1,0.2,0.2,0.3,0.3c0.2,0.6-0.5,2-1.3,3.6C28.5,21.9,28.3,22.2,28.2,22.6z"/>
			<path id="Path_2014" class="st2" d="M31.1,142.9c-11.9,0-28-0.7-29.3-1.8c-1.2-1.1-0.9-15.8-0.6-24.5c0.4-11,1.1-23.4,1.7-24.2
				l0,0C3,92.2,3.1,92.1,3.7,92c4.8-0.9,32.7-0.9,34.4,0.3c1.3,0.9,3.9,20.8,4.4,24.7c1.1,8.8,2.8,23.9,2,25
				c-0.1,0.2-0.5,0.4-2.1,0.6C40.3,142.7,36,142.9,31.1,142.9z M3.2,92.5c-0.4,0.7-1.2,11.1-1.6,24c-0.5,14-0.3,23.5,0.4,24.1
				c1.4,1.3,27.5,2.2,38.1,1.5c3.5-0.2,3.9-0.5,4-0.6c0.5-0.7-0.5-11.6-2.1-24.7c-1.9-15.4-3.6-23.9-4.2-24.4
				C36.3,91.5,4.8,91.5,3.2,92.5L3.2,92.5z"/>
			
				<rect id="Rectangle_200" x="33.9" y="10" transform="matrix(0.9485 -0.3166 0.3166 0.9485 -1.4012 11.7335)" class="st2" width="3" height="0.4"/>
			<rect id="Rectangle_201" x="34.7" y="14.7" class="st2" width="4.7" height="0.4"/>
			
				<rect id="Rectangle_202" x="34.1" y="18.8" transform="matrix(0.4457 -0.8952 0.8952 0.4457 1.2113 41.8009)" class="st2" width="0.4" height="2.3"/>
			<path id="Path_2015" class="st2" d="M4,11.7C3,11.4,2.1,11,1.2,10.5l0.2-0.4c0.8,0.5,1.7,0.8,2.6,1.2L4,11.7z"/>
			<rect id="Rectangle_203" x="0" y="14.2" class="st2" width="3.4" height="0.4"/>
			<path id="Path_2016" class="st2" d="M1.4,19.7l-0.1-0.4l2.7-0.9l0.1,0.4L1.4,19.7z"/>
		</g>
	</g>
	<g id="Group_294" transform="translate(1664.789 200.29)">
		<path id="Path_2017" class="st2" d="M43.5,55.4c-0.1,0-0.3,0-0.4-0.1l0,0c-1.2-0.5-19.5-25.5-19.8-26.9c0-0.4,0.1-0.7,0.3-0.9
			c0.8-0.9,1.9-1.5,3.1-1.7c0.2,0,0.6,0,11.6,12.1c4.4,4.8,10.9,12.2,11,12.6c0.2,0.6-1.6,2.3-2.3,2.9C46,54.2,44.5,55.4,43.5,55.4z
			 M26.6,26.1c-1.1,0.2-2,0.8-2.8,1.6c-0.2,0.2-0.3,0.4-0.3,0.6C24,29.9,42.1,54.5,43.2,55l0,0c0.3,0.2,1-0.1,1.8-0.6
			c1.8-1.2,3.8-3.4,3.8-3.8C48.7,50.3,44,44.9,38,38.2C31.6,31.1,27.1,26.3,26.6,26.1z"/>
		<g id="Group_292">
			<path id="Path_2018" class="st4" d="M4.3,4.3c5.6-5.6,16.3-6,22.6,2s4,15.4-2.7,21.7s-13.9,2.5-19.9-3S-0.6,9.2,4.3,4.3z"/>
			<path id="Path_2019" class="st2" d="M16.7,31.5c-3.8,0-7.9-2.1-12.6-6.4C1.5,22.6,0,19.1,0,15.4c-0.1-4.1,1.4-8.2,4.2-11.2
				c3-2.9,7.1-4.5,11.3-4.2C20,0.3,24.2,2.6,27,6.2c5.8,7.4,4.9,14.8-2.7,22C22.3,30.3,19.6,31.5,16.7,31.5z M4.4,4.5L4.4,4.5
				c-2.7,3-4.2,6.9-4,10.9c0,3.6,1.4,7,4,9.5c7.8,7.2,14.2,8.2,19.6,3c7.4-7.1,8.3-14.3,2.6-21.5c-2.7-3.5-6.8-5.7-11.3-6
				C11.4,0.1,7.4,1.6,4.4,4.5L4.4,4.5z"/>
		</g>
		<g id="Group_293" transform="translate(2.483 2.546)">
			<path id="Path_2020" class="st4" d="M3.6,3.6c5.1-4.8,13.2-4.6,18,0.5c0.3,0.4,0.6,0.7,0.9,1.1c5.3,6.7,3.4,12.9-2.2,18.2
				S8.7,25.6,3.6,21S-0.5,7.7,3.6,3.6z"/>
			<path id="Path_2021" class="st2" d="M14,26.4c-3.2,0-6.7-1.8-10.5-5.3C1.3,19,0,16,0,12.9c-0.1-3.5,1.1-6.8,3.5-9.4l0,0
				C6,1,9.5-0.2,13,0c3.8,0.2,7.4,2.1,9.7,5.2c4.9,6.2,4.1,12.4-2.2,18.5C18.7,25.4,16.4,26.4,14,26.4z M12.2,0.3
				C9.1,0.3,6,1.5,3.7,3.7l0,0c-2.3,2.5-3.5,5.8-3.4,9.2c0,3,1.2,5.9,3.4,7.9c6.6,6,11.9,6.9,16.5,2.6c6.2-5.9,7-12,2.2-18
				c-2.3-3-5.7-4.8-9.4-5C12.7,0.3,12.5,0.3,12.2,0.3z"/>
		</g>
		<path id="Path_2022" class="st2" d="M8.9,4.1l3.4-1.2l0.6,25.2L10,26.6L8.9,4.1z"/>
		<path id="Path_2023" class="st2" d="M4.6,21.8c0,0,14.3-0.4,14.4,0s-2.2,7.1-2.2,7.1l-2.5-0.3c0,0,2-3.7,1.2-4.3s-8.5,0-8.5,0
			L4.6,21.8z"/>
	</g>
</g>
</svg>
