<svg xmlns="http://www.w3.org/2000/svg" width="347" height="372.276" viewBox="0 0 347 372.276">
  <g id="CIEKAWOSTKA" transform="translate(-598 -80.724)">
    <path id="Path_1283" data-name="Path 1283" d="M612.114,98.108c21.329-26.6,301.272-19.48,317.158,0s23,310.271,5.608,334.216-306.643,27.428-322.769,8.69S590.786,124.713,612.114,98.108Z" fill="#e5a34c"/>
    <g id="CIEKAWOSTKA-2" style="isolation: isolate">
      <text id="CIEKAWOSTKA-2-2" data-name="CIEKAWOSTKA" transform="translate(697.492 124.662)" fill="#2e3c4b" font-size="22" font-family="SulphurPoint-Bold, Sulphur Point" font-weight="700" letter-spacing="0.025em" style="isolation: isolate"><tspan x="0" y="0">CIEKAWOSTKA</tspan></text>
    </g>
    <rect id="Rectangle_45" data-name="Rectangle 45" width="12.483" height="2.497" transform="translate(759.178 132.628)" fill="#ae4426"/>
    <g id="Group_181" data-name="Group 181">
      <path id="Path_1327" data-name="Path 1327" d="M688.124,200.973c5.516-15.086,18.484-46.185,43.66-46.742s94.315-3,111.88,18.05,20.67,37.466,18.08,70.666-11.5,52.475-22,70.137-55.2,31.273-95.374,29.708-69.436-25.383-68.657-57.982,14.83-36.955,12.407-51.118S682.608,216.059,688.124,200.973Z" fill="#f2edeb"/>
    </g>
    <g id="gdansk_port" data-name="gdansk port">
      <path id="Path_1944" data-name="Path 1944" d="M761.361,321c-10.934,0-23.022-.105-23.669-.428-1.186-.593-1.179-11.194-.857-15.511.275-3.7.687-3.838.885-3.9.992-.324,16.612-.645,30.705-.806,6.885-.079,29.4-.3,29.983.192.669.557,1.062,8.845,1.1,9.788.1,2.132.359,9.142-.309,9.81-.642.643-21.637.8-30.634.842C766.33,320.995,763.876,321,761.361,321Zm-23.507-19.453c-.629.459-1.01,8.213-.69,14.091.231,4.26.692,4.556.712,4.567.689.276,14.088.438,30.5.37,17.578-.074,29.858-.372,30.559-.741.73-.782.028-18.005-.8-18.98C796.694,300.3,739.881,300.928,737.854,301.547Z" fill="#2e3c4b"/>
      <path id="Path_1945" data-name="Path 1945" d="M745.465,313.353c-.744,0-1.747-.048-2.984-.115a19.73,19.73,0,0,0-2.818-.057.24.24,0,0,1-.244,0c-.327-.186-.493-2.469-.493-6.786l.018-.084c.437-.983,7.224-.934,7.919-.625.2.087.437.352.568,1.636.171,1.7.063,5.421-.532,5.846A3.16,3.16,0,0,1,745.465,313.353Zm-5.251-.618c.478,0,1.208.035,2.289.093a19.337,19.337,0,0,0,4.157.005c.294-.257.591-3.339.354-5.537-.119-1.113-.316-1.234-.319-1.235-.786-.35-6.873-.167-7.358.392a45.506,45.506,0,0,0,.288,6.317A3.5,3.5,0,0,1,740.214,312.735Z" fill="#2e3c4b"/>
      <path id="Path_1946" data-name="Path 1946" d="M754.753,313.181c-2.394,0-5.5-.235-5.537-.254-.452-.2-.13-6.7-.114-6.759.038-.142.184-.2.318-.238a30.853,30.853,0,0,1,4.482-.524c2.421-.154,3.785-.114,4.05.118.67.585-.264,6.962-.48,7.322C757.32,313.1,756.159,313.181,754.753,313.181Zm-5.294-.614c.941.159,7.186.344,7.692.032.213-.413.915-6.281.527-6.77-.494-.309-7.313.115-8.188.506C749.411,307.042,749.351,311.825,749.459,312.567Z" fill="#2e3c4b"/>
      <path id="Path_1947" data-name="Path 1947" d="M765.252,313.4c-2.511,0-4.457-.071-4.569-.26-.178-.3-.626-5.163-.81-7.238l-.016-.176.172-.042c.192-.047,5.538-.065,9.049-.053,8.945.028,9.011.161,9.09.33h0a28.733,28.733,0,0,1,.009,6.584c-.059.176-.226.335-1.675.49C774.822,313.213,769.3,313.4,765.252,313.4Zm-4.228-.525c1.364.257,15.813.124,16.773-.494a32.615,32.615,0,0,0,.02-6.169c-1.293-.2-15.554-.223-17.516-.138C760.52,308.527,760.884,312.251,761.024,312.874Zm16.791-.507Z" fill="#2e3c4b"/>
      <path id="Path_1948" data-name="Path 1948" d="M784.331,313.618a11.781,11.781,0,0,1-3.158-.25c-.54-.35-1.773-6.24-1.535-7.329.061-.279.2-.357.313-.372l.03.2-.03-.2c.081-.012,8.19-.916,8.649.12.328.742.674,6.819-.06,7.407C788.175,313.487,786.165,313.618,784.331,313.618Zm-4.276-7.551c-.211.532.722,6.279,1.357,6.967.52.261,6.358.252,6.871-.16.459-.4.3-6.11-.06-6.921C787.836,305.45,781.837,305.817,780.055,306.067Z" fill="#2e3c4b"/>
      <path id="Path_1949" data-name="Path 1949" d="M792.058,313.364c-.129,0-.236,0-.317,0-.888-.024-1.005-.108-1.072-.222-.245-.413-.528-6.258-.122-7.218a.382.382,0,0,1,.25-.251h0c.051-.012,5.443-.936,6.611.042s.411,6.411.04,6.968S793.4,313.364,792.058,313.364Zm-1.043-.472c.712.207,5.686-.049,6.1-.448.352-.53.947-5.652.033-6.416-.89-.744-5.515-.117-6.213.033C790.587,306.63,790.829,312.13,791.015,312.892Zm-.045-.016" fill="#2e3c4b"/>
      <path id="Path_1950" data-name="Path 1950" d="M774.909,300.445c-.531-26.144-1.638-75.761-2.058-77.7-.912-.551-13.467-1.019-15.768-.6l1.116,78.3-.411.006-1.121-78.63.156-.041c1.327-.348,15.7-.146,16.368.724.535.7,1.867,65.048,2.128,77.94Z" fill="#2e3c4b"/>
      <path id="Path_1951" data-name="Path 1951" d="M773.037,222.827l-.018-.411c2.861-.127,4.178-.415,4.546-.99.662-1.038,4.846-29.963,4.6-31.725-.986-.6-15.443-3.042-16.244-3.042-1.245,0-15.578.824-16.5,1.488-.437,2.072,3.5,31.7,4.35,32.686.815.659,1.044.788,3.381.884l-.017.411c-2.358-.1-2.711-.238-3.63-.983-.941-.763-5.037-31.117-4.472-33.142.29-1.043,16.722-1.755,16.886-1.755.145,0,16.072,2.427,16.6,3.225.454.688-3.893,31.058-4.6,32.174C777.45,222.369,776.129,222.689,773.037,222.827ZM749.4,188.161Z" fill="#2e3c4b"/>
      <path id="Path_1952" data-name="Path 1952" d="M785.858,189.791c-.5,0-1.09-.024-1.259-.032l.017-.411a17.239,17.239,0,0,0,1.783.015,3.648,3.648,0,0,0-.062-2.3c-.771-.487-18.148-2.715-20.442-2.969-1.488-.157-20.881,1.51-21.573,1.706a2.228,2.228,0,0,0,.01.571,4.25,4.25,0,0,0,.555,1.71,22.46,22.46,0,0,0,4.311-.226l.063.407c-.452.069-4.121.46-4.593.167a4.243,4.243,0,0,1-.763-2.523c.022-.262.114-.427.274-.491.492-.2,20.095-1.918,21.762-1.73.2.022,20.17,2.465,20.712,3.115a3.892,3.892,0,0,1,.169,2.6c-.044.141-.115.309-.272.353A3.786,3.786,0,0,1,785.858,189.791Z" fill="#2e3c4b"/>
      <path id="Path_1953" data-name="Path 1953" d="M775.082,184.888l-.411-.026c.3-4.643.62-12.22.231-12.785-.89-.54-18.452-.861-19.68-.352-.2.744.193,8.195.493,12.795l-.411.026c-.134-2.069-.788-12.425-.429-13.055.071-.124.234-.185.647-.24,2.431-.326,18.949-.185,19.676.542C775.824,172.419,775.267,181.975,775.082,184.888Z" fill="#2e3c4b"/>
      <path id="Path_1954" data-name="Path 1954" d="M775.468,172.233l-.4-.089a21.414,21.414,0,0,0,.458-2.575c-1.573-.28-19.347-.877-20.727-.691a14.257,14.257,0,0,0,.376,2.846l-.4.082c-.394-1.932-.479-3.025-.255-3.25.071-.07.258-.256,10.241.062,4.585.146,10.2.383,10.939.569a.272.272,0,0,1,.218.172A13.675,13.675,0,0,1,775.468,172.233Z" fill="#2e3c4b"/>
      <rect id="Rectangle_149" data-name="Rectangle 149" width="0.411" height="2.649" transform="translate(756.087 168.664) rotate(-6.352)" fill="#2e3c4b"/>
      <rect id="Rectangle_150" data-name="Rectangle 150" width="0.411" height="2.609" transform="translate(758.368 168.666)" fill="#2e3c4b"/>
      <rect id="Rectangle_151" data-name="Rectangle 151" width="2.505" height="0.412" transform="matrix(0.17, -0.985, 0.985, 0.17, 763.552, 171.239)" fill="#2e3c4b"/>
      <rect id="Rectangle_152" data-name="Rectangle 152" width="2.468" height="0.411" transform="translate(765.624 171.312) rotate(-85.826)" fill="#2e3c4b"/>
      <rect id="Rectangle_153" data-name="Rectangle 153" width="0.411" height="2.449" transform="translate(767.397 168.922)" fill="#2e3c4b"/>
      <rect id="Rectangle_154" data-name="Rectangle 154" width="2.354" height="0.411" transform="matrix(0.085, -0.996, 0.996, 0.085, 771.111, 171.415)" fill="#2e3c4b"/>
      <rect id="Rectangle_155" data-name="Rectangle 155" width="2.471" height="0.411" transform="matrix(0.082, -0.997, 0.997, 0.082, 773.221, 171.647)" fill="#2e3c4b"/>
      <path id="Path_1955" data-name="Path 1955" d="M764.356,165.192h-6.217l-.029-.17c-.084-.482-.247-1.637.057-1.94.256-.257,6.077.172,6.116.195.1.055.35.2.1,1.743Zm-5.869-.41H764a4.369,4.369,0,0,0,.053-1.142c-.66-.09-4.984-.262-5.62-.226A4.323,4.323,0,0,0,758.487,164.782Z" fill="#2e3c4b"/>
      <rect id="Rectangle_156" data-name="Rectangle 156" width="0.411" height="1.742" transform="translate(760.323 163.245)" fill="#2e3c4b"/>
      <rect id="Rectangle_157" data-name="Rectangle 157" width="0.411" height="1.685" transform="translate(761.659 163.301)" fill="#2e3c4b"/>
      <path id="Path_1956" data-name="Path 1956" d="M784.461,197.328l-2.759-1.041c-.658-.032-10.97-.536-15.441-.787-4.583-.255-16.257.778-16.375.788l-2.72.9-.128-.391,2.766-.913c.164-.02,11.871-1.055,16.48-.8s15.363.782,15.471.788l.062.013,2.789,1.052Z" fill="#2e3c4b"/>
      <path id="Path_1957" data-name="Path 1957" d="M748.515,204.713l-.085-.4,2.349-.5c.146-.014,12.114-.976,15.229-.976,3.2,0,14.62.554,14.735.559l2.366.224-.038.409-2.357-.223c-.1-.005-11.521-.558-14.706-.558-3.1,0-15.05.961-15.17.971Z" fill="#2e3c4b"/>
      <rect id="Rectangle_158" data-name="Rectangle 158" width="0.411" height="7.876" transform="translate(755.304 195.638)" fill="#2e3c4b"/>
      <rect id="Rectangle_159" data-name="Rectangle 159" width="0.411" height="7.9" transform="translate(760.323 195.295)" fill="#2e3c4b"/>
      <rect id="Rectangle_160" data-name="Rectangle 160" width="0.411" height="7.812" transform="translate(769.843 195.408) rotate(-3.327)" fill="#2e3c4b"/>
      <path id="Path_1958" data-name="Path 1958" d="M775.473,203.205l-.411-.021c.09-1.721.392-7.357.47-7.608l.392.123-.2-.061.2.052C775.869,195.961,775.623,200.333,775.473,203.205Z" fill="#2e3c4b"/>
      <path id="Path_1959" data-name="Path 1959" d="M781.369,211.9l-1.822-.465c-.619.008-11.225.158-13.639.05-2.463-.113-13.982,0-14.1,0l-1.853.157-.034-.409,1.868-.159c.131,0,11.663-.113,14.138,0s13.529-.05,13.64-.051h.028l1.875.479Z" fill="#2e3c4b"/>
      <path id="Path_1960" data-name="Path 1960" d="M780.327,217.107h-1.546c-.128-.008-11.366-.814-12.852-.731-1.508.078-12.889,0-13.373,0l-1.487.357-.094-.4,1.535-.363c.1,0,5.283.03,9.207.03,2.006,0,3.684-.009,4.19-.035,1.515-.081,12.425.7,12.889.732h1.531Z" fill="#2e3c4b"/>
      <path id="Path_1961" data-name="Path 1961" d="M781.117,213.213l-1.8-.285h-.006c-.289,0-11.456-.085-13.475-.025-2.045.062-13.7,0-13.822,0l-1.724.239-.056-.407,1.754-.241c.066,0,5.255.025,9.317.025,2.058,0,3.833-.006,4.519-.027,2.047-.06,13.411.027,13.527.028l1.831.287Z" fill="#2e3c4b"/>
      <rect id="Rectangle_161" data-name="Rectangle 161" width="0.411" height="4.893" transform="matrix(0.999, -0.053, 0.053, 0.999, 755.565, 211.29)" fill="#2e3c4b"/>
      <rect id="Rectangle_162" data-name="Rectangle 162" width="0.41" height="4.897" transform="matrix(0.998, -0.067, 0.067, 0.998, 760.324, 211.293)" fill="#2e3c4b"/>
      <path id="Path_1962" data-name="Path 1962" d="M765.982,221.727l-.411-.01.141-5.552v-4.881l.09-8.242.513-15.7.411.013-.513,15.7-.09,8.235v4.884Z" fill="#2e3c4b"/>
      <rect id="Rectangle_163" data-name="Rectangle 163" width="0.411" height="5.022" transform="translate(770.07 211.324)" fill="#2e3c4b"/>
      <rect id="Rectangle_164" data-name="Rectangle 164" width="5.328" height="0.411" transform="translate(774.673 216.623) rotate(-85.826)" fill="#2e3c4b"/>
      <path id="Path_1963" data-name="Path 1963" d="M761.2,184.1l-.872-12.81V164.78h1.73l.342,3.95v2.544h-.411v-2.527l-.308-3.557h-.943v6.085l.871,12.8Z" fill="#2e3c4b"/>
      <path id="Path_1964" data-name="Path 1964" d="M769.116,184.218l-.411-.015.482-12.778.167-2.44.41.028-.167,2.433Z" fill="#2e3c4b"/>
      <path id="Path_1965" data-name="Path 1965" d="M775.11,179.292c-1.043-.252-13.51-.49-19.957-.58l.007-.411c.762.01,18.7.266,20.047.592Z" fill="#2e3c4b"/>
      <path id="Path_1966" data-name="Path 1966" d="M775.111,173.725c-.654-.156-14.759-.378-20.139-.451l.005-.411c.792.011,19.4.263,20.229.462Z" fill="#2e3c4b"/>
      <rect id="Rectangle_165" data-name="Rectangle 165" width="7.758" height="0.411" transform="translate(739.316 307.113)" fill="#2e3c4b"/>
      <rect id="Rectangle_166" data-name="Rectangle 166" width="8.747" height="0.411" transform="matrix(1, -0.019, 0.019, 1, 749.242, 306.983)" fill="#2e3c4b"/>
      <rect id="Rectangle_167" data-name="Rectangle 167" width="0.411" height="17.925" transform="translate(760.186 307.313) rotate(-89.324)" fill="#2e3c4b"/>
      <rect id="Rectangle_168" data-name="Rectangle 168" width="8.818" height="0.411" transform="translate(779.798 307.111) rotate(-2.128)" fill="#2e3c4b"/>
      <rect id="Rectangle_169" data-name="Rectangle 169" width="7.185" height="0.411" transform="translate(790.549 306.781)" fill="#2e3c4b"/>
      <rect id="Rectangle_170" data-name="Rectangle 170" width="0.411" height="7.375" transform="matrix(1, -0.003, 0.003, 1, 742.989, 305.697)" fill="#2e3c4b"/>
      <rect id="Rectangle_171" data-name="Rectangle 171" width="7.331" height="0.411" transform="translate(753.389 312.962) rotate(-89.823)" fill="#2e3c4b"/>
      <rect id="Rectangle_172" data-name="Rectangle 172" width="0.411" height="7.257" transform="translate(768.946 305.846) rotate(-4.024)" fill="#2e3c4b"/>
      <rect id="Rectangle_173" data-name="Rectangle 173" width="0.411" height="7.211" transform="matrix(0.999, -0.054, 0.054, 0.999, 773.564, 305.882)" fill="#2e3c4b"/>
      <rect id="Rectangle_174" data-name="Rectangle 174" width="0.412" height="7.236" transform="matrix(0.995, -0.099, 0.099, 0.995, 764.11, 305.891)" fill="#2e3c4b"/>
      <rect id="Rectangle_175" data-name="Rectangle 175" width="0.412" height="7.764" transform="translate(784.006 305.7) rotate(-5.673)" fill="#2e3c4b"/>
      <rect id="Rectangle_176" data-name="Rectangle 176" width="0.411" height="7.61" transform="matrix(0.999, -0.044, 0.044, 0.999, 793.983, 305.478)" fill="#2e3c4b"/>
      <path id="Path_1967" data-name="Path 1967" d="M754.4,221.743a9.591,9.591,0,0,1-2.411-.966c-.843-.791-5.748-27.134-6.723-32.407l.4-.075c2.312,12.506,5.979,31.4,6.606,32.189a9.325,9.325,0,0,0,2.236.864Z" fill="#2e3c4b"/>
      <path id="Path_1968" data-name="Path 1968" d="M776.513,222.441l-.052-.407a8.292,8.292,0,0,0,2.613-.647c.358-.671,4.011-18.751,6.374-30.733l.4.08c-1.808,9.17-6.06,30.543-6.5,30.952A8.229,8.229,0,0,1,776.513,222.441Z" fill="#2e3c4b"/>
      <path id="Path_1969" data-name="Path 1969" d="M791.61,196.456l-.1-.4,10.276-2.466.1.4Z" fill="#2e3c4b"/>
      <path id="Path_1970" data-name="Path 1970" d="M801.828,201.393c-3.82-.191-8.094-.272-8.492-.047l-.275-.3c.43-.429,6.29-.185,8.788-.06Z" fill="#2e3c4b"/>
      <rect id="Rectangle_177" data-name="Rectangle 177" width="0.411" height="4.232" transform="translate(793.107 207.122) rotate(-60.947)" fill="#2e3c4b"/>
      <path id="Path_1971" data-name="Path 1971" d="M740.183,196.461a37,37,0,0,1-6.63-1.24l.108-.4a37.5,37.5,0,0,0,6.522,1.226Z" fill="#2e3c4b"/>
      <path id="Path_1972" data-name="Path 1972" d="M731.152,201.393l-.023-.41c.3-.017,7.449-.408,9.1.006l-.1.4C738.536,200.989,731.225,201.389,731.152,201.393Z" fill="#2e3c4b"/>
      <path id="Path_1973" data-name="Path 1973" d="M733.668,208.783l-.122-.392,6.576-2.055.122.392Z" fill="#2e3c4b"/>
    </g>
    <text id="Latarnia_w_gdańskim_Porcie_Północnym_jako_jedyna_posiada_windę" data-name="Latarnia w gdańskim 
Porcie Północnym
jako jedyna posiada windę" transform="translate(765.158 370.554)" fill="#2e3c4b" font-size="20" font-family="ClarikaProGeo-Th, Clarika Pro Geometric" letter-spacing="0.025em" style="isolation: isolate"><tspan x="-92.944" y="0">Latarnia w gdańskim </tspan><tspan x="-75.913" y="24">Porcie Północnym</tspan><tspan x="-121.122" y="48">jako jedyna posiada </tspan><tspan y="48" font-family="ClarikaProGeo-Dm, Clarika Pro Geometric">windę</tspan></text>
    <path id="Path_1974" data-name="Path 1974" d="M765.028,267.642a3.283,3.283,0,0,1-2.17-.5c-1.141-1.142-2-14.282-1-15.284.765-.764,6.158-1.124,7.284,0,.983.985,1.976,13.207,1.22,15.033-.106.255-.256.309-.362.309-.238,0-.753.065-1.35.139A31.191,31.191,0,0,1,765.028,267.642Zm.8-16.089c-1.632,0-3.349.25-3.687.589-.834.833.045,13.762,1,14.716.68.683,3.789.293,5.458.084.606-.075,1.09-.136,1.361-.142a5.419,5.419,0,0,0,.249-2.217c.069-4.388-.739-11.83-1.352-12.441A5.3,5.3,0,0,0,765.829,251.553Z" fill="#2e3c4b"/>
    <path id="Path_1975" data-name="Path 1975" d="M765.8,255.009l-.979-21.547-1.679,1.68-.291-.274,2.158-2.421.124.139.047-.047,0,.1L767,234.675l-.3.267-1.49-1.667.987,21.716Z" fill="#2e3c4b"/>
    <path id="Path_1976" data-name="Path 1976" d="M765.918,287.257l-.125-.139-.047.047,0-.1-1.816-2.032.3-.267,1.49,1.666-.987-21.715.4-.019.979,21.547,1.679-1.68.291.274Z" fill="#2e3c4b"/>
  </g>
</svg>
