<?xml version="1.0" encoding="utf-8"?>
<!-- Generator: Adobe Illustrator 24.0.3, SVG Export Plug-In . SVG Version: 6.00 Build 0)  -->
<svg version="1.1" id="Layer_1" xmlns="http://www.w3.org/2000/svg" xmlns:xlink="http://www.w3.org/1999/xlink" x="0px" y="0px"
	 viewBox="0 0 310.4 333" style="enable-background:new 0 0 310.4 333;" xml:space="preserve">
<style type="text/css">
	.st0{fill:#E5A34C;}
	.st1{enable-background:new    ;}
	.st2{fill:#2E3C4B;}
	.st3{fill:#AE4426;}
	.st4{fill:#F2EDEB;}
</style>
<g id="Group_390" transform="translate(-638.21 -538.593)">
	<g id="Group_296" transform="translate(638.21 538.593)">
		<g id="CIEKAWOSTKA">
			<path id="Path_1283" class="st0" d="M12.6,15.5c19.1-23.8,269.5-17.4,283.7,0s20.6,277.5,5,298.9S27,339,12.6,322.3
				S-6.5,39.3,12.6,15.5z"/>
			<g id="CIEKAWOSTKA-2" transform="translate(88.993 24.095)">
				<g class="st1">
					<path class="st2" d="M4.7,14.6c-0.8-0.3-1.5-0.8-2-1.4c-0.6-0.6-1-1.3-1.4-2c-0.3-0.8-0.5-1.6-0.5-2.5S0.9,7,1.2,6.2
						C1.6,5.4,2,4.8,2.6,4.2c0.6-0.6,1.3-1,2-1.4c0.8-0.3,1.6-0.5,2.5-0.5c1,0,1.8,0.2,2.7,0.6c0.8,0.4,1.6,1,2.3,1.8l-1.3,1.1
						C9.8,4.6,8.5,4,7.1,4C6.5,4,5.9,4.2,5.3,4.4C4.8,4.6,4.3,5,3.8,5.4s-0.8,0.9-1,1.5C2.6,7.5,2.5,8.1,2.5,8.7
						c0,0.6,0.1,1.2,0.4,1.8c0.2,0.6,0.6,1.1,1,1.5c0.4,0.4,0.9,0.8,1.5,1c0.6,0.2,1.2,0.4,1.8,0.4c1.4,0,2.6-0.6,3.7-1.8l1.3,1.1
						c-0.7,0.8-1.4,1.4-2.3,1.8s-1.7,0.6-2.7,0.6C6.2,15.1,5.4,14.9,4.7,14.6z"/>
					<path class="st2" d="M14.3,15V2.4h1.6V15H14.3z"/>
					<path class="st2" d="M18.2,15V2.4h6.9v1.7h-5.3v3.8h3.5v1.6h-3.5v3.8h5.3V15H18.2z"/>
					<path class="st2" d="M33.3,15l-4.1-4.7V15h-1.7V2.4h1.7v4.8l4-4.8h2.2l-5.3,6.4l5.5,6.2H33.3z"/>
					<path class="st2" d="M45.5,15l-1.6-4.4h-4L38.4,15h-1.8L41,2.4h1.9L47.3,15H45.5z M41.9,4.8L40.5,9h2.9L41.9,4.8z"/>
					<path class="st2" d="M58.5,15h-1.7l-2-5.4L53,15h-1.7L46.7,2.3h1.8l3.6,9.9l1.8-5.2l-1.7-4.7h1.8L55.7,7l1.9,5.3l3.5-9.9H63
						L58.5,15z"/>
					<path class="st2" d="M67.8,14.6c-0.8-0.3-1.4-0.8-2-1.4c-0.6-0.6-1-1.3-1.4-2c-0.3-0.8-0.5-1.6-0.5-2.5s0.2-1.7,0.5-2.4
						c0.3-0.8,0.8-1.4,1.4-2c0.6-0.6,1.3-1,2-1.4c0.8-0.3,1.6-0.5,2.4-0.5s1.7,0.2,2.5,0.5c0.8,0.3,1.5,0.8,2,1.4
						c0.6,0.6,1,1.3,1.4,2c0.3,0.8,0.5,1.6,0.5,2.5s-0.2,1.7-0.5,2.5c-0.3,0.8-0.8,1.5-1.4,2c-0.6,0.6-1.3,1-2,1.4
						c-0.8,0.3-1.6,0.5-2.5,0.5S68.6,14.9,67.8,14.6z M68.5,4.5c-0.6,0.2-1.1,0.6-1.5,1S66.2,6.4,66,7c-0.2,0.6-0.4,1.2-0.4,1.8
						c0,0.6,0.1,1.2,0.4,1.8c0.2,0.6,0.6,1.1,1,1.5c0.4,0.4,0.9,0.8,1.5,1s1.2,0.4,1.8,0.4c0.6,0,1.2-0.1,1.8-0.4s1.1-0.6,1.5-1
						c0.4-0.4,0.7-0.9,1-1.5c0.2-0.6,0.4-1.2,0.4-1.8c0-0.6-0.1-1.2-0.4-1.8c-0.2-0.6-0.6-1.1-1-1.5s-0.9-0.8-1.5-1
						s-1.2-0.4-1.8-0.4C69.6,4.1,69,4.2,68.5,4.5z"/>
					<path class="st2" d="M84.7,5c-0.2-0.3-0.5-0.6-0.8-0.8c-0.3-0.2-0.8-0.2-1.3-0.2c-0.9,0-1.5,0.2-1.8,0.6
						c-0.3,0.3-0.5,0.8-0.5,1.4c0,0.4,0.1,0.6,0.2,0.9c0.1,0.2,0.3,0.4,0.5,0.5c0.3,0.2,0.8,0.4,1.5,0.4c0.7,0.1,1.3,0.2,1.8,0.3
						s0.9,0.3,1.3,0.5c0.9,0.6,1.4,1.5,1.4,2.7c0,0.5-0.1,0.9-0.3,1.4s-0.5,0.8-0.8,1.2c-0.4,0.4-0.9,0.7-1.4,0.9
						c-0.6,0.2-1.1,0.3-1.7,0.3c-1.3,0-2.4-0.4-3.2-1.1c-0.7-0.7-1.1-1.6-1.2-2.7l0,0h1.7c0.1,0.7,0.3,1.2,0.7,1.5
						c0.5,0.5,1.2,0.7,2,0.7c0.8,0,1.4-0.2,1.9-0.6c0.5-0.4,0.7-0.8,0.7-1.4c0-0.3,0-0.5-0.1-0.7s-0.2-0.4-0.4-0.5
						c-0.4-0.3-1.2-0.5-2.4-0.6c-1.2-0.1-2.1-0.4-2.7-1c-0.6-0.6-0.9-1.4-0.9-2.5c0-1.1,0.3-2,1-2.6c0.7-0.7,1.7-1.1,3-1.1
						c1.3,0,2.3,0.4,3.1,1.2c0.6,0.7,1,1.6,1.2,2.7h-1.7C85.1,5.8,84.9,5.4,84.7,5z"/>
					<path class="st2" d="M92.7,4v11H91V4h-3.1V2.4h7.8V4H92.7z"/>
					<path class="st2" d="M103.7,15l-4.1-4.7V15h-1.7V2.4h1.7v4.8l4-4.8h2.2l-5.3,6.4l5.5,6.2H103.7z"/>
					<path class="st2" d="M115.8,15l-1.6-4.4h-4l-1.6,4.4H107l4.4-12.6h1.9l4.4,12.6H115.8z M112.3,4.8L110.9,9h2.9L112.3,4.8z"/>
				</g>
			</g>
			<rect id="Rectangle_45" x="144.2" y="46.4" class="st3" width="11.2" height="2.2"/>
			<g id="Group_181" transform="translate(69.499 65.413)">
				<path id="Path_1327" class="st4" d="M11.1,42.1C16,28.7,27.6,0.8,50.2,0.3s84.4-2.7,100.1,16.1s18.5,33.5,16.2,63.2
					s-10.3,46.9-19.7,62.7s-49.4,28-85.3,26.6S-0.7,146.3,0,117.1s13.3-33.1,11.1-45.7S6.2,55.6,11.1,42.1z"/>
			</g>
			<g class="st1">
				<path class="st2" d="M81.1,257.8v0.6h-5.3v-11.1h0.6v10.5H81.1z"/>
				<path class="st2" d="M90,250.8v7.5h-0.5l-0.1-1.9c-0.6,1.2-1.7,2.1-3.1,2.1c-2,0-3.6-1.6-3.6-3.9c0-2.3,1.6-4,3.6-4
					c1.5,0,2.6,0.8,3.2,2.1l0.1-1.9H90z M89.5,254.6c0-2-1.3-3.4-3.1-3.4c-1.8,0-3.1,1.5-3.1,3.4c0,1.9,1.3,3.4,3.1,3.4
					S89.5,256.5,89.5,254.6z"/>
				<path class="st2" d="M96.2,251.3h-2v7h-0.6v-7h-1.1v-0.5h1.1v-2.3h0.6v2.3h2V251.3z"/>
				<path class="st2" d="M105.1,250.8v7.5h-0.5l-0.1-1.9c-0.6,1.2-1.7,2.1-3.1,2.1c-2,0-3.6-1.6-3.6-3.9c0-2.3,1.6-4,3.6-4
					c1.5,0,2.6,0.8,3.2,2.1l0.1-1.9H105.1z M104.6,254.6c0-2-1.3-3.4-3.1-3.4c-1.8,0-3.1,1.5-3.1,3.4c0,1.9,1.3,3.4,3.1,3.4
					S104.6,256.5,104.6,254.6z"/>
				<path class="st2" d="M111.3,250.7l-0.1,0.6c-0.2,0-0.3-0.1-0.5-0.1c-1.2,0-2,0.9-2,2.4v4.8H108v-7.5h0.5l0.1,1.5
					c0.3-0.9,1-1.7,2.1-1.7C111,250.6,111.1,250.6,111.3,250.7z"/>
				<path class="st2" d="M119.3,253.9v4.5h-0.6V254c0-2-1-2.9-2.4-2.9c-1.4,0-2.4,1-2.5,2.6v4.6h-0.6v-7.5h0.5l0.1,1.6
					c0.4-1.1,1.4-1.9,2.6-1.9C117.7,250.6,119.3,251.3,119.3,253.9z"/>
				<path class="st2" d="M122.1,248.3c0-0.3,0.2-0.6,0.6-0.6s0.6,0.2,0.6,0.6c0,0.3-0.2,0.6-0.6,0.6S122.1,248.6,122.1,248.3z
					 M122.3,250.8h0.6v7.5h-0.6V250.8z"/>
				<path class="st2" d="M133,250.8v7.5h-0.5l-0.1-1.9c-0.6,1.2-1.7,2.1-3.1,2.1c-2,0-3.6-1.6-3.6-3.9c0-2.3,1.6-4,3.6-4
					c1.5,0,2.6,0.8,3.2,2.1l0.1-1.9H133z M132.5,254.6c0-2-1.3-3.4-3.1-3.4c-1.8,0-3.1,1.5-3.1,3.4c0,1.9,1.3,3.4,3.1,3.4
					S132.5,256.5,132.5,254.6z"/>
				<path class="st2" d="M151,250.8l-2.9,7.5h-0.5l-2.1-6.8l-2.1,6.8h-0.5l-2.9-7.5h0.6l2.5,6.8l2.1-6.8h0.5l2.1,6.7l2.5-6.7H151z"
					/>
				<path class="st2" d="M157.6,257.6l0.4-0.5c0.5,0.6,0.9,0.9,1.7,0.9c1.1,0,1.8-0.8,1.8-2.2v-8.5h0.6v8.4c0,1.9-1,2.8-2.4,2.8
					C158.7,258.5,158,258.1,157.6,257.6z"/>
				<path class="st2" d="M172,250.8v7.5h-0.5l-0.1-1.9c-0.6,1.2-1.7,2.1-3.1,2.1c-2,0-3.6-1.6-3.6-3.9c0-2.3,1.6-4,3.6-4
					c1.5,0,2.6,0.8,3.2,2.1l0.1-1.9H172z M171.4,254.6c0-2-1.3-3.4-3.1-3.4c-1.8,0-3.1,1.5-3.1,3.4c0,1.9,1.3,3.4,3.1,3.4
					S171.4,256.5,171.4,254.6z"/>
				<path class="st2" d="M174.7,256.9c0.4,0.6,1.1,1.1,2.1,1.1c1.2,0,2-0.6,2-1.6c0-2.4-4.2-0.9-4.2-3.7c0-1.2,1-2.1,2.4-2.1
					c1.1,0,1.8,0.4,2.2,0.8l-0.4,0.4c-0.4-0.4-1-0.7-1.9-0.7c-1.1,0-1.8,0.6-1.8,1.5c0,2.3,4.2,0.9,4.2,3.7c0,1.3-1.1,2.1-2.6,2.1
					c-1.2,0-2.2-0.6-2.6-1.2L174.7,256.9z"/>
				<path class="st2" d="M185.2,251.3h-2v7h-0.6v-7h-1.1v-0.5h1.1v-2.3h0.6v2.3h2V251.3z"/>
				<path class="st2" d="M194.1,250.8v7.5h-0.5l-0.1-1.9c-0.6,1.2-1.7,2.1-3.1,2.1c-2,0-3.6-1.6-3.6-3.9c0-2.3,1.6-4,3.6-4
					c1.5,0,2.6,0.8,3.2,2.1l0.1-1.9H194.1z M193.6,254.6c0-2-1.3-3.4-3.1-3.4c-1.8,0-3.1,1.5-3.1,3.4c0,1.9,1.3,3.4,3.1,3.4
					S193.6,256.5,193.6,254.6z"/>
				<path class="st2" d="M200.3,250.7l-0.1,0.6c-0.2,0-0.3-0.1-0.5-0.1c-1.2,0-2,0.9-2,2.4v4.8H197v-7.5h0.5l0.1,1.5
					c0.3-0.9,1-1.7,2.1-1.7C200,250.6,200.1,250.6,200.3,250.7z"/>
				<path class="st2" d="M208.3,253.9v4.5h-0.6V254c0-2-1-2.9-2.4-2.9c-1.4,0-2.4,1-2.5,2.6v4.6h-0.6v-7.5h0.5l0.1,1.6
					c0.4-1.1,1.4-1.9,2.6-1.9C206.7,250.6,208.3,251.3,208.3,253.9z"/>
				<path class="st2" d="M211.1,248.3c0-0.3,0.2-0.6,0.6-0.6c0.3,0,0.6,0.2,0.6,0.6c0,0.3-0.2,0.6-0.6,0.6
					C211.3,248.9,211.1,248.6,211.1,248.3z M211.3,250.8h0.6v7.5h-0.6V250.8z"/>
			</g>
			<g class="st1">
				<path class="st2" d="M37.9,282v-0.5c1.4,0.1,2-0.5,2-1.8v-8.9h0.6v8.9C40.4,281.7,39.2,282.1,37.9,282z M39.6,268.3
					c0-0.3,0.2-0.6,0.6-0.6s0.6,0.2,0.6,0.6c0,0.3-0.2,0.6-0.6,0.6S39.6,268.6,39.6,268.3z"/>
				<path class="st2" d="M43.8,274.4L43.8,274.4c0,2,1.2,3.6,3.2,3.6c1.1,0,2-0.5,2.5-1.1l0.5,0.4c-0.6,0.7-1.7,1.2-2.9,1.2
					c-2.4,0-3.9-1.8-3.9-4c0-2.1,1.5-3.9,3.7-3.9c2.1,0,3.5,1.6,3.5,3.5v0.3H43.8z M43.8,273.9h5.9c-0.1-1.6-1.2-2.8-2.9-2.8
					C45.2,271.1,44,272.4,43.8,273.9z"/>
				<path class="st2" d="M52.7,276.9c0.4,0.6,1.1,1.1,2.1,1.1c1.2,0,2-0.6,2-1.6c0-2.4-4.2-0.9-4.2-3.7c0-1.2,1-2.1,2.4-2.1
					c1.1,0,1.8,0.4,2.2,0.8l-0.4,0.4c-0.4-0.4-1-0.7-1.9-0.7c-1.1,0-1.8,0.6-1.8,1.5c0,2.3,4.2,0.9,4.2,3.7c0,1.3-1.1,2.1-2.6,2.1
					c-1.2,0-2.2-0.6-2.6-1.2L52.7,276.9z"/>
				<path class="st2" d="M63.1,271.3h-2v7h-0.6v-7h-1.1v-0.5h1.1v-2.3h0.6v2.3h2V271.3z"/>
			</g>
			<g class="st1">
				<path class="st2" d="M77.6,273.4v5h-2v-4.4c0-1.2-0.5-2-1.6-2c-0.8,0-1.6,0.5-1.8,1.8v4.7h-2.1v-8H72l0.3,0.9
					c0.5-0.7,1.3-1.1,2.4-1.1C76.1,270.2,77.6,271,77.6,273.4z"/>
				<path class="st2" d="M88,270.4v8h-1.7l-0.3-1c-0.6,0.7-1.5,1.2-2.7,1.2c-2.1,0-3.7-1.5-3.7-4.2c0-2.6,1.6-4.2,3.7-4.2
					c1.2,0,2.1,0.5,2.7,1.2l0.3-1H88z M86.1,274.4c0-1.4-0.9-2.4-2.2-2.4c-1.3,0-2.1,1-2.1,2.4c0,1.4,0.9,2.4,2.1,2.4
					C85.2,276.8,86.1,275.8,86.1,274.4z"/>
				<path class="st2" d="M89.2,281.9v-1.6c1.4,0.2,1.9-0.4,1.9-1.7v-8.3h2v8.4C93.2,281.7,91.3,282.3,89.2,281.9z M91,267.9
					c0-0.7,0.6-1.2,1.2-1.2c0.7,0,1.2,0.5,1.2,1.2c0,0.7-0.6,1.2-1.2,1.2C91.5,269.1,91,268.5,91,267.9z"/>
				<path class="st2" d="M103.4,273.4v5h-2v-4.4c0-1.2-0.5-2-1.6-2c-0.8,0-1.6,0.5-1.8,1.8v4.7H96v-8h1.8l0.3,0.9
					c0.5-0.7,1.3-1.1,2.4-1.1C101.8,270.2,103.4,271,103.4,273.4z"/>
				<path class="st2" d="M105.9,267.9c0-0.7,0.6-1.2,1.2-1.2c0.7,0,1.2,0.5,1.2,1.2c0,0.7-0.6,1.2-1.2,1.2
					C106.4,269.1,105.9,268.5,105.9,267.9z M106.1,270.4h2.1v8h-2.1V270.4z"/>
				<path class="st2" d="M117.6,276.6v1.7h-7.1v-1.4l4.1-4.8h-3.9v-1.7h6.5v1.4l-4.1,4.8H117.6z M112.9,267.8c0-0.6,0.5-1.1,1.1-1.1
					c0.6,0,1.1,0.5,1.1,1.1c0,0.6-0.5,1.1-1.1,1.1C113.4,269,112.9,268.4,112.9,267.8z"/>
				<path class="st2" d="M120.2,276c0.6,0.8,1.3,1,2,1c0.9,0,1.3-0.3,1.3-0.9c0-1.5-3.9-0.5-3.9-3.4c0-1.5,1.2-2.6,3.2-2.6
					c1.2,0,2.3,0.5,2.9,1l-1,1.3c-0.4-0.4-1.1-0.7-1.7-0.7c-0.8,0-1.2,0.3-1.2,0.9c0,1.6,4,0.6,4,3.5c0,1.4-1.2,2.5-3.2,2.5
					c-1.6,0-2.8-0.5-3.5-1.3L120.2,276z"/>
				<path class="st2" d="M134.5,276.6v1.7h-7.1v-1.4l4.1-4.8h-3.9v-1.7h6.5v1.4l-4.1,4.8H134.5z"/>
				<path class="st2" d="M144.5,270.4v8h-1.7l-0.3-1c-0.6,0.7-1.5,1.2-2.7,1.2c-2.1,0-3.7-1.5-3.7-4.2c0-2.6,1.6-4.2,3.7-4.2
					c1.2,0,2.1,0.5,2.7,1.2l0.3-1H144.5z M142.6,274.4c0-1.4-0.9-2.4-2.2-2.4c-1.3,0-2.1,1-2.1,2.4c0,1.4,0.9,2.4,2.1,2.4
					C141.7,276.8,142.6,275.8,142.6,274.4z"/>
			</g>
			<g class="st1">
				<path class="st2" d="M157.5,277.8v0.5h-6v-0.5l5.1-6.6h-4.8v-0.5h5.5v0.5l-5,6.5H157.5z"/>
				<path class="st2" d="M160.1,274.4L160.1,274.4c0,2,1.2,3.6,3.2,3.6c1.1,0,2-0.5,2.5-1.1l0.5,0.4c-0.6,0.7-1.7,1.2-2.9,1.2
					c-2.4,0-3.9-1.8-3.9-4c0-2.1,1.5-3.9,3.7-3.9c2.1,0,3.5,1.6,3.5,3.5v0.3H160.1z M160.2,273.9h5.9c-0.1-1.6-1.2-2.8-2.9-2.8
					C161.5,271.1,160.4,272.4,160.2,273.9z"/>
				<path class="st2" d="M184.3,270.8l-2.9,7.5h-0.5l-2.1-6.8l-2.1,6.8h-0.5l-2.9-7.5h0.6l2.5,6.8l2.1-6.8h0.5l2.1,6.7l2.5-6.7
					H184.3z"/>
				<path class="st2" d="M186.2,276.9c0.4,0.6,1.1,1.1,2.1,1.1c1.2,0,2-0.6,2-1.6c0-2.4-4.2-0.9-4.2-3.7c0-1.2,1-2.1,2.4-2.1
					c1.1,0,1.8,0.4,2.2,0.8l-0.4,0.4c-0.4-0.4-1-0.7-1.9-0.7c-1.1,0-1.8,0.6-1.8,1.5c0,2.3,4.2,0.9,4.2,3.7c0,1.3-1.1,2.1-2.6,2.1
					c-1.2,0-2.2-0.6-2.6-1.2L186.2,276.9z"/>
				<path class="st2" d="M199.1,277.8v0.5h-6v-0.5l5.1-6.6h-4.8v-0.5h5.5v0.5l-5,6.5H199.1z"/>
				<path class="st2" d="M207.7,270.8l-4.9,11.2h-0.6l1.7-3.8l-3.2-7.4h0.7l2.8,6.7l2.9-6.7H207.7z"/>
				<path class="st2" d="M209.6,276.9c0.4,0.6,1.1,1.1,2.1,1.1c1.2,0,2-0.6,2-1.6c0-2.4-4.2-0.9-4.2-3.7c0-1.2,1-2.1,2.4-2.1
					c1.1,0,1.8,0.4,2.2,0.8l-0.4,0.4c-0.4-0.4-1-0.7-1.9-0.7c-1.1,0-1.8,0.6-1.8,1.5c0,2.3,4.2,0.9,4.2,3.7c0,1.3-1.1,2.1-2.6,2.1
					c-1.2,0-2.2-0.6-2.6-1.2L209.6,276.9z"/>
				<path class="st2" d="M220.1,271.3h-2v7h-0.6v-7h-1.1v-0.5h1.1v-2.3h0.6v2.3h2V271.3z"/>
				<path class="st2" d="M227.5,278.4l-4.5-4.1v4.1h-0.6v-11.8h0.6v7.6l4-3.3h0.8l-4.1,3.4l4.6,4.1H227.5z"/>
				<path class="st2" d="M230.1,268.3c0-0.3,0.2-0.6,0.6-0.6c0.3,0,0.6,0.2,0.6,0.6c0,0.3-0.2,0.6-0.6,0.6
					C230.4,268.9,230.1,268.6,230.1,268.3z M230.4,270.8h0.6v7.5h-0.6V270.8z"/>
				<path class="st2" d="M233.7,274.5c0-2.2,1.5-3.9,3.8-3.9c0.9,0,1.8,0.3,2.4,0.8l-0.4,0.4c-0.5-0.5-1.2-0.7-2-0.7
					c-2,0-3.2,1.5-3.2,3.4c0,1.9,1.2,3.4,3.2,3.4c0.8,0,1.5-0.3,2-0.7l0.4,0.4c-0.7,0.5-1.5,0.8-2.4,0.8
					C235.2,278.5,233.7,276.7,233.7,274.5z"/>
				<path class="st2" d="M248.3,273.9v4.5h-0.6V274c0-2-1-2.9-2.3-2.9c-1.4,0-2.5,1.1-2.5,2.9v4.3h-0.6v-11.8h0.6v5.9
					c0.4-1.1,1.3-1.9,2.6-1.9C246.8,270.6,248.3,271.3,248.3,273.9z"/>
			</g>
			<g class="st1">
				<path class="st2" d="M42.3,286.6h0.6v11.8h-0.6V286.6z"/>
				<path class="st2" d="M52.8,290.8v7.5h-0.5l-0.1-1.9c-0.6,1.2-1.7,2.1-3.1,2.1c-2,0-3.6-1.6-3.6-3.9c0-2.3,1.6-4,3.6-4
					c1.5,0,2.6,0.8,3.2,2.1l0.1-1.9H52.8z M52.3,294.6c0-2-1.3-3.4-3.1-3.4c-1.8,0-3.1,1.5-3.1,3.4c0,1.9,1.3,3.4,3.1,3.4
					S52.3,296.5,52.3,294.6z"/>
				<path class="st2" d="M58.9,291.3h-2v7h-0.6v-7h-1.1v-0.5h1.1v-2.3H57v2.3h2V291.3z"/>
				<path class="st2" d="M67.9,290.8v7.5h-0.5l-0.1-1.9c-0.6,1.2-1.7,2.1-3.1,2.1c-2,0-3.6-1.6-3.6-3.9c0-2.3,1.6-4,3.6-4
					c1.5,0,2.6,0.8,3.2,2.1l0.1-1.9H67.9z M67.3,294.6c0-2-1.3-3.4-3.1-3.4c-1.8,0-3.1,1.5-3.1,3.4c0,1.9,1.3,3.4,3.1,3.4
					S67.3,296.5,67.3,294.6z"/>
				<path class="st2" d="M74,290.7l-0.1,0.6c-0.2,0-0.3-0.1-0.5-0.1c-1.2,0-2,0.9-2,2.4v4.8h-0.6v-7.5h0.5l0.1,1.5
					c0.3-0.9,1-1.7,2.1-1.7C73.7,290.6,73.9,290.6,74,290.7z"/>
				<path class="st2" d="M82,293.9v4.5h-0.6V294c0-2-1-2.9-2.4-2.9c-1.4,0-2.4,1-2.5,2.6v4.6h-0.6v-7.5h0.5l0.1,1.6
					c0.4-1.1,1.4-1.9,2.6-1.9C80.5,290.6,82,291.3,82,293.9z"/>
				<path class="st2" d="M84.8,288.3c0-0.3,0.2-0.6,0.6-0.6c0.3,0,0.6,0.2,0.6,0.6c0,0.3-0.2,0.6-0.6,0.6
					C85.1,288.9,84.8,288.6,84.8,288.3z M85.1,290.8h0.6v7.5h-0.6V290.8z"/>
				<path class="st2" d="M99.8,293.9v4.5h-0.6V294c0-2-1-2.9-2.4-2.9c-1.4,0-2.4,1-2.5,2.6v4.6h-0.6v-7.5h0.5l0.1,1.6
					c0.4-1.1,1.4-1.9,2.6-1.9C98.3,290.6,99.8,291.3,99.8,293.9z"/>
				<path class="st2" d="M109.6,290.8v7.5h-0.5l-0.1-1.9c-0.6,1.2-1.7,2.1-3.1,2.1c-2,0-3.6-1.6-3.6-3.9c0-2.3,1.6-4,3.6-4
					c1.5,0,2.6,0.8,3.2,2.1l0.1-1.9H109.6z M109.1,294.6c0-2-1.3-3.4-3.1-3.4c-1.8,0-3.1,1.5-3.1,3.4c0,1.9,1.3,3.4,3.1,3.4
					S109.1,296.5,109.1,294.6z"/>
				<path class="st2" d="M124.8,294.6c0,2.3-1.6,3.9-3.6,3.9c-1.5,0-2.6-0.8-3.1-2.1v5.6h-0.6l0-11.2h0.5l0.1,1.9
					c0.6-1.3,1.7-2.1,3.2-2.1C123.2,290.6,124.8,292.2,124.8,294.6z M124.2,294.6c0-1.9-1.3-3.4-3.1-3.4c-1.8,0-3.1,1.5-3.1,3.4
					c0,1.9,1.3,3.4,3.1,3.4C122.9,298,124.2,296.5,124.2,294.6z"/>
				<path class="st2" d="M126.9,294.6c0-2.2,1.7-4,3.9-4c2.3,0,3.9,1.8,3.9,4c0,2.2-1.7,3.9-3.9,3.9
					C128.5,298.5,126.9,296.8,126.9,294.6z M134.1,294.6c0-1.9-1.4-3.4-3.3-3.4c-1.9,0-3.3,1.5-3.3,3.4c0,1.9,1.4,3.4,3.3,3.4
					C132.7,298,134.1,296.5,134.1,294.6z"/>
				<path class="st2" d="M137.3,286.6h0.6v11.8h-0.6V286.6z"/>
				<path class="st2" d="M140.7,296.9c0.4,0.6,1.1,1.1,2.1,1.1c1.2,0,2-0.6,2-1.6c0-2.4-4.2-0.9-4.2-3.7c0-1.2,1-2.1,2.4-2.1
					c1.1,0,1.8,0.4,2.2,0.8l-0.4,0.4c-0.4-0.4-1-0.7-1.9-0.7c-1.1,0-1.8,0.6-1.8,1.5c0,2.3,4.2,0.9,4.2,3.7c0,1.3-1.1,2.1-2.6,2.1
					c-1.2,0-2.2-0.6-2.6-1.2L140.7,296.9z"/>
				<path class="st2" d="M153,298.4l-4.5-4.1v4.1h-0.6v-11.8h0.6v7.6l4-3.3h0.8l-4.1,3.4l4.6,4.1H153z"/>
				<path class="st2" d="M155.7,288.3c0-0.3,0.2-0.6,0.6-0.6c0.3,0,0.6,0.2,0.6,0.6c0,0.3-0.2,0.6-0.6,0.6
					C155.9,288.9,155.7,288.6,155.7,288.3z M155.9,290.8h0.6v7.5h-0.6V290.8z"/>
				<path class="st2" d="M170.2,293.9v4.5h-0.6v-4.5c0-1.7-0.7-2.8-2.2-2.8c-1.3,0-2.1,1-2.2,2.8v4.4h-0.6v-4.6
					c0-1.6-0.8-2.7-2.2-2.7c-1.2,0-2.1,1.1-2.2,2.7v4.5h-0.6v-7.5h0.5l0.1,1.6c0.4-1.2,1.3-1.8,2.3-1.8c0.9,0,2.1,0.5,2.5,2
					c0.4-1.3,1.2-2,2.5-2C168.9,290.6,170.2,291.3,170.2,293.9z"/>
				<path class="st2" d="M188.2,290.8l-2.9,7.5h-0.5l-2.1-6.8l-2.1,6.8h-0.5l-2.9-7.5h0.6l2.5,6.8l2.1-6.8h0.5l2.1,6.7l2.5-6.7
					H188.2z"/>
				<path class="st2" d="M196.8,290.8l-4.9,11.2h-0.6l1.7-3.8l-3.2-7.4h0.7l2.8,6.7l2.9-6.7H196.8z"/>
				<path class="st2" d="M206.2,294.6c0,2.3-1.6,3.9-3.6,3.9c-1.5,0-2.6-0.8-3.2-2.1l-0.1,1.9h-0.5v-11.8h0.6v6.1
					c0.6-1.2,1.7-2,3.2-2C204.6,290.6,206.2,292.2,206.2,294.6z M205.6,294.6c0-1.9-1.3-3.4-3.1-3.4c-1.8,0-3.1,1.5-3.1,3.4
					c0,1.9,1.3,3.4,3.1,3.4C204.2,298,205.6,296.5,205.6,294.6z"/>
				<path class="st2" d="M211.9,290.7l-0.1,0.6c-0.2,0-0.3-0.1-0.5-0.1c-1.2,0-2,0.9-2,2.4v4.8h-0.6v-7.5h0.5l0.1,1.5
					c0.3-0.9,1-1.7,2.1-1.7C211.6,290.6,211.8,290.6,211.9,290.7z"/>
				<path class="st2" d="M219.5,297.8v0.5h-6v-0.5l5.1-6.6h-4.8v-0.5h5.5v0.5l-5,6.5H219.5z"/>
				<path class="st2" d="M222.2,294.4L222.2,294.4c0,2,1.2,3.6,3.2,3.6c1.1,0,2-0.5,2.5-1.1l0.5,0.4c-0.6,0.7-1.7,1.2-2.9,1.2
					c-2.4,0-3.9-1.8-3.9-4c0-2.1,1.5-3.9,3.7-3.9c2.1,0,3.5,1.6,3.5,3.5v0.3H222.2z M222.2,293.9h5.9c-0.1-1.6-1.2-2.8-2.9-2.8
					C223.5,291.1,222.4,292.4,222.2,293.9z"/>
				<path class="st2" d="M236.8,297.8v0.5h-6v-0.5l5.1-6.6H231v-0.5h5.5v0.5l-5,6.5H236.8z M233.2,288.4c0-0.3,0.3-0.6,0.6-0.6
					c0.3,0,0.6,0.2,0.6,0.6s-0.3,0.6-0.6,0.6C233.5,289,233.2,288.7,233.2,288.4z"/>
				<path class="st2" d="M239.2,295.3v-4.5h0.6v4.5c0,1.7,0.9,2.7,2.4,2.7c1.6,0,2.4-1.1,2.4-2.7v-4.5h0.6v4.5c0,2.6-1.6,3.3-3,3.3
					C240.8,298.6,239.2,297.9,239.2,295.3z"/>
			</g>
		</g>
		<g id="jastarnia" transform="translate(131.175 85.711)">
			<path id="Path_2024" class="st2" d="M17.6,120.6c-3.6,0-8-0.1-9-0.8c-0.4-0.2-0.6-2.8-0.6-7.6c-0.1-2.6,0.1-5.3,0.4-7.9l0.3,0.1
				c-0.4,1.1-0.6,14.4,0.1,15c2.2,1.3,20.1,0.5,21.3,0.2c0.4-5,0.4-10,0.2-15l0.4-0.1c0.2,0.9,0.3,14.8-0.3,15.3
				c-0.3,0.3-6.9,0.6-10.2,0.6C19.4,120.6,18.5,120.6,17.6,120.6z"/>
			<path id="Path_2025" class="st2" d="M24.8,102.5h-0.4c0-0.3,0.4-30,0-43.7S24,25.1,24,24.9h0.4c0,0.2,0,20.2,0.4,33.9
				S24.8,102.2,24.8,102.5z"/>
			<path id="Path_2026" class="st2" d="M13.2,102.8l-0.4,0c0-0.1,0.4-10.7,0-24.8c-0.4-13.5-0.9-51.3-0.5-53.2l0.4,0.1
				c-0.4,1.8,0.2,38,0.6,53.1C13.5,92.1,13.2,102.7,13.2,102.8z"/>
			<path id="Path_2027" class="st2" d="M12.2,24.9c-0.1-0.6-0.1-2.6-0.2-4.7c0-1.7-0.1-3.5-0.1-4.6c-0.1-2.3-0.1-4.6,0.1-6.8
				l0.3,0.1c-0.1,2.2-0.2,4.5,0,6.7c0.1,1.1,0.1,2.9,0.1,4.6c0,2.1,0.1,4.1,0.2,4.6L12.2,24.9z"/>
			<path id="Path_2028" class="st2" d="M24.4,24.8l-0.4,0c0.4-6.2,1-15.6,0.9-16.1l0.3-0.1C25.5,9.2,24.5,23.2,24.4,24.8z"/>
			<path id="Path_2029" class="st2" d="M24.4,27.1l-0.1-0.3c1.3-0.5,3.4-1.5,3.5-2c0.5-2.6,0.8-5.3,0.9-8c-1.4-0.2-19,0-20,0.2
				c-0.3,0.6,0.2,6.9,0.3,7.5c1.1,0.7,2.2,1.3,3.3,1.8l-0.2,0.3c-1.6-0.7-3.5-1.6-3.5-2c0-0.1-0.8-7.5-0.2-7.9
				c0.6-0.4,20.2-0.2,20.3-0.2c0.7,0.3-0.7,8.4-0.7,8.4C27.8,25.7,25,26.8,24.4,27.1z"/>
			<path id="Path_2030" class="st2" d="M17.9,21.1c-2.8,0-9-0.7-9.2-0.7l0-0.4c0.1,0,7.2,0.8,9.7,0.7c0.1,0,8-0.6,10.4-0.7l0,0.4
				c-2.4,0.1-10.3,0.7-10.3,0.7C18.2,21.1,18,21.1,17.9,21.1z"/>
			<path id="Path_2031" class="st2" d="M17.4,25.2c-1.7,0-3.4,0-5.1-0.2c-2.3-0.4-3.7-0.8-3.7-0.8l0.1-0.4c0,0,1.5,0.3,3.7,0.8
				c1.1,0.2,5.3,0.3,11.8,0.1c2.2-0.1,3.8-0.1,3.8-0.1l0,0.4c0,0-1.6,0.1-3.8,0.1S19.6,25.2,17.4,25.2z"/>
			<path id="Path_2032" class="st2" d="M15.7,9c-2.1,0-4.6-0.1-5.1-0.4c-0.1-0.1-0.2-0.2-0.1-0.5c0.4-1.5,6.3-8.1,8-8.1l0,0
				c0.1,0,0.3,0,4,3.9c1.8,1.8,3.8,4,4.1,4.5c0.1,0.1,0.1,0.2,0,0.3c-0.1,0.2-0.3,0.2-4.6,0.3c-1.3,0-2.6,0-3.2,0.1
				C18.3,9,17,9,15.7,9z M18.4,0.4c-1.2,0.1-4.9,3.9-6.7,6.3c-1,1.3-0.9,1.6-0.9,1.6c0.7,0.4,6,0.4,8,0.3c0.6,0,1.9-0.1,3.2-0.1
				c1.5,0,3.5,0,4.1-0.1C25.2,7.2,19.1,0.8,18.4,0.4L18.4,0.4z"/>
			<path id="Path_2033" class="st2" d="M19.1,73.8c-0.9,0-1.7-0.4-2.2-1.2c-0.3-1,1.5-1.7,1.7-1.8l0.1,0c0.3,0,0.6,0.2,0.8,0.4
				c0.4,0.6,0.6,1.3,0.5,2c-0.1,0.3-0.4,0.6-0.7,0.6C19.2,73.8,19.1,73.8,19.1,73.8z M18.7,71.2c-0.5,0.2-1.6,0.8-1.4,1.3
				c0.4,0.6,1.2,1,1.9,0.9c0.2,0,0.4-0.1,0.4-0.2c0.1-0.6-0.1-1.2-0.4-1.7C19,71.3,18.9,71.2,18.7,71.2L18.7,71.2z"/>
			<path id="Path_2034" class="st2" d="M15.8,120.4l-0.4,0c0-0.3,0.2-8.1,0.4-8.9c0.1-0.3,0.4-0.4,0.9-0.6c1.3-0.3,4.6-0.3,5,0.2
				s0.8,7.2,0.9,9.2l-0.4,0c-0.2-3.3-0.5-8.6-0.8-9c-0.3-0.3-3.3-0.4-4.7,0c-0.5,0.1-0.6,0.3-0.6,0.3
				C16,112.3,15.8,117.7,15.8,120.4z"/>
			<path id="Path_2035" class="st2" d="M14.4,123.1c-4.7,0-7.1-0.1-7.3-0.4c-0.4-0.6,1-2.5,1.4-3.1l0.3,0.2c-0.8,1-1.5,2.3-1.4,2.6
				c1.2,0.4,23.6,0.2,24.6-0.3c0,0,0.1-0.1,0.1-0.1c0-0.4-1.1-1.4-2-2l0.2-0.3c0.4,0.3,2.2,1.6,2.1,2.4c0,0.2-0.1,0.3-0.2,0.4
				c-0.7,0.4-12.2,0.5-12.7,0.6C17.5,123.1,15.8,123.1,14.4,123.1z"/>
			<path id="Path_2036" class="st2" d="M14.3,16.7c-0.1-0.6,0.6-7,0.7-7.7l0.4,0c-0.3,2.9-0.7,7.2-0.7,7.6L14.3,16.7z"/>
			<path id="Path_2037" class="st2" d="M19,16.6l-0.4-0.1c0.1-0.4,0-4.9,0-7.7l0.4,0C19,9.5,19.1,16,19,16.6z"/>
			<path id="Path_2038" class="st2" d="M22.7,16.6l-0.4-0.1c0.1-0.4-0.4-4.9-0.7-7.7l0.4,0C22.2,10,22.9,16.1,22.7,16.6z"/>
			<path id="Path_2039" class="st2" d="M23.7,105.1c-7.2,0-16.7-0.2-17.2-0.5c-0.2-0.1-0.4-0.4-0.5-0.6c-0.1-0.3,0-0.6,0.2-0.9
				c0.3-0.5,2.7-0.5,8.1-0.4c1.2,0,2.2,0,2.8,0s1.8-0.1,3.4-0.1c6.9-0.3,10.4-0.4,10.8-0.2c0.5,0.4,0.9,1,1,1.7
				c0.1,0.3,0,0.6-0.3,0.8C31.8,105,28.1,105.1,23.7,105.1z M6.5,103.3c-0.1,0.2-0.2,0.4-0.1,0.6c0,0.2,0.2,0.3,0.3,0.4
				c0.9,0.4,24.2,0.7,25.1,0.3c0.1-0.1,0.1-0.3,0.1-0.5c-0.1-0.6-0.4-1.1-0.8-1.4c-0.5-0.2-7.1,0.1-10.6,0.3
				c-1.6,0.1-2.8,0.1-3.4,0.1s-1.6,0-2.8,0C11.7,103,6.8,102.9,6.5,103.3L6.5,103.3L6.5,103.3z"/>
			
				<rect id="Rectangle_204" x="31" y="6.6" transform="matrix(0.9094 -0.416 0.416 0.9094 0.1367 14.2854)" class="st2" width="3.7" height="0.4"/>
			<path id="Path_2040" class="st2" d="M32.3,11.1l0-0.4l4.4-0.2l0,0.4L32.3,11.1z"/>
			
				<rect id="Rectangle_205" x="32.9" y="12.8" transform="matrix(0.4434 -0.8963 0.8963 0.4434 5.6081 37.6554)" class="st2" width="0.4" height="3"/>
			
				<rect id="Rectangle_206" x="3.2" y="4.5" transform="matrix(0.356 -0.9345 0.9345 0.356 -3.8564 7.3141)" class="st2" width="0.4" height="3.9"/>
			
				<rect id="Rectangle_207" x="1.8" y="8.6" transform="matrix(6.001188e-02 -0.9982 0.9982 6.001188e-02 -8.7011 11.8456)" class="st2" width="0.4" height="3.9"/>
			
				<rect id="Rectangle_208" x="0.7" y="15.1" transform="matrix(0.908 -0.4189 0.4189 0.908 -6.1751 2.3966)" class="st2" width="3.3" height="0.4"/>
		</g>
		<path id="Path_2041" class="st2" d="M151.6,150.2c-3.5,0-7.5,0-7.6,0v-0.4c0.1,0,9.1,0.1,11.8,0l0,0.4
			C154.9,150.2,153.3,150.2,151.6,150.2z"/>
		<path id="Path_2042" class="st2" d="M152.4,170.5c-3.4,0-7.7-0.1-8-0.1l0-0.4c0.1,0,10.2,0.2,11.6,0l0,0.4
			C155.6,170.5,154.2,170.5,152.4,170.5z"/>
		<path id="Path_2043" class="st2" d="M151.8,129.7c-3.4,0-7.8-0.1-8.1-0.1l0-0.4c0.1,0,10.2,0.2,11.9,0l0,0.4
			C155.1,129.7,153.6,129.7,151.8,129.7z"/>
		<path id="Path_2044" class="st2" d="M183.5,208.8h-0.4V87.7l-2.5,2.6l-0.3-0.2l3-3.3l0.1,0.1l0.1-0.1V87l2.8,3.2l-0.3,0.2
			l-2.6-2.9L183.5,208.8z"/>
		<path id="Path_2045" class="st2" d="M183.3,209.5l-2.4-4.1l0.3-0.2l2.1,3.6l2.7-3.6l0.3,0.2L183.3,209.5z"/>
		<g id="Group_295" transform="translate(187.829 132.357)">
			<path id="Path_2046" class="st2" d="M2.7,14.7L2.6,5.9c0-1.5-0.1-3-0.2-4.5c0-0.3-0.1-0.5-0.2-0.8L0.3,5.1L0,4.9L2.1,0l0.2,0.1
				c0.3,0.3,0.5,0.7,0.5,1.2C2.9,2.8,3,4.4,3,5.9l0.1,8.8L2.7,14.7z"/>
			<path id="Path_2047" class="st2" d="M8.7,15.6c0-3,0.3-6.1,1.1-9C9.8,6.3,9.9,6,10,5.7c0.5-1.5,0.7-3,0.7-4.5
				c0-0.1,0-0.2-0.1-0.3c-0.1-0.1-0.2-0.1-0.3-0.1L5.1,0.6l0-0.4l5.2,0.2c0.2,0,0.4,0,0.5,0.2C11,0.7,11,0.9,11,1.1
				c0,1.6-0.2,3.2-0.7,4.7c-0.1,0.3-0.2,0.6-0.2,0.9c-0.7,2.9-1.1,5.9-1,8.9L8.7,15.6z"/>
			<path id="Path_2048" class="st2" d="M7,8.3L7,8c1.6-0.1,3.1-0.2,4.7-0.5l0.1,0.4C10.2,8.1,8.6,8.2,7,8.3z"/>
			<path id="Path_2049" class="st2" d="M16.3,15.2l-1-6.2l0.4-0.1l0.8,4.7c0.3-1.4,0.9-2.7,1.6-4c0.1-0.1,0.2-0.2,0.3-0.3
				c0.3-0.1,0.5,0.1,0.7,0.5c0.5,1.2,0.8,2.3,1.1,3.5c0.4-0.8,0.7-1.7,0.9-2.6l0-0.1c0.1-0.4,0.2-0.8,0.4-1.1
				c0.1-0.1,0.2-0.2,0.4-0.3c0.3-0.1,0.5,0.1,0.7,0.4c0.8,1.2,1.3,2.7,1.5,4.2l-0.4,0c-0.1-1.4-0.6-2.8-1.4-4
				c-0.1-0.2-0.3-0.3-0.3-0.3c-0.1,0-0.1,0.1-0.2,0.1c-0.2,0.3-0.3,0.6-0.3,1l0,0.1C21,11.9,20.6,13,20.1,14l-0.2,0.5l-0.1-0.5
				c-0.3-1.4-0.6-2.7-1.2-4c-0.1-0.2-0.2-0.3-0.2-0.3s-0.1,0.1-0.1,0.1c-0.8,1.5-1.8,3.4-1.7,5.3L16.3,15.2z"/>
		</g>
	</g>
</g>
</svg>
