<svg xmlns="http://www.w3.org/2000/svg" width="347" height="372.275" viewBox="0 0 347 372.275">
  <g id="Group_297" data-name="Group 297" transform="translate(-638.21 -538.593)">
    <g id="Group_296" data-name="Group 296">
      <g id="CIEKAWOSTKA">
        <path id="Path_1283" data-name="Path 1283" d="M652.324,555.977c21.329-26.6,301.272-19.481,317.158,0s23,310.27,5.607,334.215-306.642,27.428-322.768,8.69S630.995,582.581,652.324,555.977Z" fill="#e5a34c"/>
        <g id="CIEKAWOSTKA-2" style="isolation: isolate">
          <text id="CIEKAWOSTKA-2-2" data-name="CIEKAWOSTKA" transform="translate(737.702 582.53)" fill="#2e3c4b" font-size="22" font-family="SulphurPoint-Bold, Sulphur Point" font-weight="700" letter-spacing="0.025em" style="isolation: isolate"><tspan x="0" y="0">CIEKAWOSTKA</tspan></text>
        </g>
        <rect id="Rectangle_45" data-name="Rectangle 45" width="12.483" height="2.497" transform="translate(799.388 590.496)" fill="#ae4426"/>
        <g id="Group_181" data-name="Group 181">
          <path id="Path_1327" data-name="Path 1327" d="M728.334,658.841c5.516-15.086,18.484-46.185,43.66-46.742s94.315-3,111.88,18.051,20.67,37.465,18.08,70.665-11.5,52.475-22,70.137-55.2,31.273-95.374,29.708-69.436-25.383-68.657-57.982,14.83-36.955,12.407-51.118S722.818,673.927,728.334,658.841Z" fill="#f2edeb"/>
        </g>
        <text id="Latarnia_w_Jastarni_jest_najniższa_ze_wszystkich_latarni_na_polskim_wybrzeżu" data-name="Latarnia w Jastarni
jest najniższa ze wszystkich
latarni na polskim wybrzeżu" transform="translate(805.368 828.422)" fill="#2e3c4b" font-size="20" font-family="ClarikaProGeo-Th, Clarika Pro Geometric" letter-spacing="0.025em" style="isolation: isolate"><tspan x="-82" y="0">Latarnia w Jastarni</tspan><tspan x="-124.474" y="24">jest </tspan><tspan y="24" font-family="ClarikaProGeo-Dm, Clarika Pro Geometric">najniższa </tspan><tspan y="24">ze wszystkich</tspan><tspan x="-120.867" y="48">latarni na polskim wybrzeżu</tspan></text>
      </g>
      <g id="jastarnia">
        <path id="Path_2024" data-name="Path 2024" d="M804.505,769.277c-4.039,0-8.892-.152-10.078-.843-.477-.279-.709-3.124-.691-8.456a64.857,64.857,0,0,1,.416-8.8l.381.141c-.458,1.231-.626,16.052.108,16.772,2.43,1.416,22.483.58,23.785.185.346-1.077.534-15.157.214-16.764l.4-.079c.193.969.294,16.527-.319,17.141-.357.357-7.707.624-11.378.681C806.5,769.268,805.527,769.277,804.505,769.277Z" fill="#2e3c4b"/>
        <path id="Path_2025" data-name="Path 2025" d="M812.555,749.059l-.406-.005c0-.334.407-33.505-.007-48.834s-.424-37.717-.424-37.941h.406c0,.224.009,22.6.424,37.93S812.559,748.725,812.555,749.059Z" fill="#2e3c4b"/>
        <path id="Path_2026" data-name="Path 2026" d="M799.563,749.368l-.406-.015c0-.118.4-12.015-.01-27.755-.4-15.047-1.042-57.306-.608-59.475l.4.08c-.407,2.036.172,42.484.617,59.385C799.967,737.341,799.567,749.249,799.563,749.368Z" fill="#2e3c4b"/>
        <path id="Path_2027" data-name="Path 2027" d="M798.537,662.2c-.11-.637-.146-2.882-.183-5.258-.031-1.909-.062-3.883-.134-5.139a65.9,65.9,0,0,1,.074-7.632l.385.126a69.465,69.465,0,0,0-.054,7.483c.072,1.264.1,3.243.134,5.156.038,2.36.074,4.589.178,5.2Z" fill="#2e3c4b"/>
        <path id="Path_2028" data-name="Path 2028" d="M812.121,662.177l-.4-.028c.483-6.927,1.147-17.444,1-18.027L813.1,644C813.33,644.707,812.245,660.391,812.121,662.177Z" fill="#2e3c4b"/>
        <path id="Path_2029" data-name="Path 2029" d="M812.135,664.665l-.148-.378c1.42-.557,3.75-1.646,3.957-2.2a53.055,53.055,0,0,0,1-8.927c-1.512-.19-21.2-.013-22.308.207-.336.694.173,7.758.346,8.431a21.91,21.91,0,0,0,3.74,1.982l-.168.37c-1.75-.8-3.859-1.837-3.965-2.251-.02-.078-.916-8.437-.175-8.881.68-.408,22.6-.28,22.735-.226.772.3-.8,9.352-.828,9.437C815.994,663.113,812.777,664.413,812.135,664.665Z" fill="#2e3c4b"/>
        <path id="Path_2030" data-name="Path 2030" d="M804.832,657.963c-3.1,0-10.023-.757-10.334-.791l.044-.4c.081.009,8.067.884,10.794.781.081-.007,8.936-.678,11.575-.782l.016.4c-2.632.1-11.479.775-11.568.782Q805.119,657.963,804.832,657.963Z" fill="#2e3c4b"/>
        <path id="Path_2031" data-name="Path 2031" d="M804.362,662.586a42.839,42.839,0,0,1-5.663-.224c-2.519-.493-4.187-.839-4.187-.839l.082-.4s1.668.346,4.182.838c1.231.241,5.9.281,13.141.112,2.43-.057,4.209-.116,4.21-.116l.013.406s-1.781.059-4.214.116S806.741,662.586,804.362,662.586Z" fill="#2e3c4b"/>
        <path id="Path_2032" data-name="Path 2032" d="M802.4,644.5c-2.371,0-5.089-.1-5.7-.465-.111-.066-.227-.214-.144-.536.436-1.684,7.009-9.028,8.944-9.087h0c.125.008.345-.008,4.478,4.308,1.958,2.046,4.218,4.485,4.55,5.005a.287.287,0,0,1,.048.286c-.1.2-.326.26-5.091.325-1.487.02-2.891.039-3.6.085C805.289,644.463,803.916,644.5,802.4,644.5Zm3.069-9.679c-1.336.125-5.465,4.338-7.5,7.076-1.109,1.495-1.043,1.808-1.039,1.821.751.432,6.724.44,8.921.3.722-.046,2.131-.065,3.624-.086,1.676-.023,3.9-.053,4.6-.136C813.059,642.449,806.193,635.277,805.472,634.824Z" fill="#2e3c4b"/>
        <path id="Path_2033" data-name="Path 2033" d="M806.186,716.878a2.794,2.794,0,0,1-2.409-1.327c-.34-1.083,1.658-1.872,1.887-1.959l.072-.013a1.114,1.114,0,0,1,.851.431,3.066,3.066,0,0,1,.553,2.247.784.784,0,0,1-.818.616C806.278,716.876,806.232,716.878,806.186,716.878Zm-.415-2.892c-.515.2-1.794.848-1.607,1.444a2.469,2.469,0,0,0,2.129,1.038c.27-.019.42-.112.446-.275a2.658,2.658,0,0,0-.461-1.92A.728.728,0,0,0,805.771,713.986Z" fill="#2e3c4b"/>
        <path id="Path_2034" data-name="Path 2034" d="M802.48,769.062l-.406-.011c.01-.367.24-9.018.476-9.928.073-.283.407-.483,1.052-.633,1.494-.345,5.11-.362,5.588.2s.874,8.021.985,10.3l-.4.02c-.178-3.644-.578-9.6-.891-10.055-.3-.314-3.657-.456-5.292-.036-.6.153-.643.306-.644.313C802.763,759.917,802.561,765.962,802.48,769.062Z" fill="#2e3c4b"/>
        <path id="Path_2035" data-name="Path 2035" d="M800.924,772c-5.233,0-7.967-.139-8.146-.416-.446-.687,1.1-2.815,1.59-3.451l.323.246c-.888,1.162-1.713,2.592-1.588,2.953,1.357.486,26.411.178,27.481-.345a.122.122,0,0,0,.074-.109c.022-.465-1.274-1.617-2.2-2.286l.237-.329c.4.291,2.41,1.783,2.369,2.634a.526.526,0,0,1-.277.442c-.757.441-13.619.612-14.166.619Q803.4,772,800.924,772Z" fill="#2e3c4b"/>
        <path id="Path_2036" data-name="Path 2036" d="M800.887,653.083c-.118-.645.653-7.834.741-8.652l.4.044c-.344,3.187-.828,8.091-.746,8.535Z" fill="#2e3c4b"/>
        <path id="Path_2037" data-name="Path 2037" d="M806.085,652.959l-.4-.1c.114-.472.049-5.424-.023-8.637l.406-.009C806.091,645.041,806.248,652.282,806.085,652.959Z" fill="#2e3c4b"/>
        <path id="Path_2038" data-name="Path 2038" d="M810.264,652.962l-.392-.1c.1-.417-.442-5.5-.812-8.6l.4-.048C809.624,645.564,810.421,652.359,810.264,652.962Z" fill="#2e3c4b"/>
        <path id="Path_2039" data-name="Path 2039" d="M811.313,751.935c-8.1,0-18.621-.243-19.19-.6a1.132,1.132,0,0,1-.542-.718,1.4,1.4,0,0,1,.185-.965c.332-.561,3.069-.6,9.061-.486,1.318.026,2.456.048,3.109.033s2.066-.076,3.841-.153c7.677-.334,11.653-.462,12.072-.232a2.873,2.873,0,0,1,1.09,1.931.971.971,0,0,1-.283.884C820.4,751.842,816.314,751.935,811.313,751.935Zm-19.2-2.071a1.01,1.01,0,0,0-.133.667.748.748,0,0,0,.36.46c1.018.484,27.007.773,28.083.309a.648.648,0,0,0,.114-.518,2.481,2.481,0,0,0-.881-1.614c-.525-.211-7.9.11-11.859.282-1.777.078-3.18.139-3.85.154s-1.8-.008-3.126-.033c-2.9-.056-8.294-.163-8.706.289l0,.006Z" fill="#2e3c4b"/>
        <rect id="Rectangle_204" data-name="Rectangle 204" width="4.175" height="0.406" transform="translate(819.602 642.734) rotate(-24.584)" fill="#2e3c4b"/>
        <path id="Path_2040" data-name="Path 2040" d="M820.92,646.789l-.021-.405,4.955-.257.021.405Z" fill="#2e3c4b"/>
        <rect id="Rectangle_205" data-name="Rectangle 205" width="0.406" height="3.338" transform="translate(820.305 649.858) rotate(-63.68)" fill="#2e3c4b"/>
        <rect id="Rectangle_206" data-name="Rectangle 206" width="0.406" height="4.338" transform="translate(786.538 641.049) rotate(-69.144)" fill="#2e3c4b"/>
        <rect id="Rectangle_207" data-name="Rectangle 207" width="0.406" height="4.32" transform="matrix(0.06, -0.998, 0.998, 0.06, 784.86, 646.275)" fill="#2e3c4b"/>
        <rect id="Rectangle_208" data-name="Rectangle 208" width="3.686" height="0.406" transform="translate(785.753 652.065) rotate(-24.764)" fill="#2e3c4b"/>
      </g>
      <path id="Path_2041" data-name="Path 2041" d="M807.674,706.507c-3.885,0-8.383-.053-8.451-.054l.005-.4c.1,0,10.224.124,13.19,0l.016.4C811.436,706.493,809.633,706.507,807.674,706.507Z" fill="#2e3c4b"/>
      <path id="Path_2042" data-name="Path 2042" d="M808.6,729.259c-3.75,0-8.6-.088-8.909-.094l.007-.4c.114,0,11.4.207,13.01,0l.051.4C812.2,729.234,810.549,729.259,808.6,729.259Z" fill="#2e3c4b"/>
      <path id="Path_2043" data-name="Path 2043" d="M807.888,683.585c-3.834,0-8.694-.088-9-.094l.007-.4c.114,0,11.408.209,13.311,0l.043.4C811.589,683.562,809.877,683.585,807.888,683.585Z" fill="#2e3c4b"/>
      <path id="Path_2044" data-name="Path 2044" d="M843.334,772h-.4V636.638l-2.827,2.962-.293-.271,3.323-3.709.1.119.094-.1v.206l3.162,3.63-.3.264-2.86-3.284Z" fill="#2e3c4b"/>
      <path id="Path_2045" data-name="Path 2045" d="M843.132,772.77l-2.629-4.534.346-.2,2.326,4.011,3.011-4.03.32.24Z" fill="#2e3c4b"/>
      <g id="Group_295" data-name="Group 295">
        <path id="Path_2046" data-name="Path 2046" d="M851.255,703.033l-.11-9.891a49.6,49.6,0,0,0-.23-5.057,2.085,2.085,0,0,0-.236-.857l-2.113,5.015-.368-.156,2.327-5.523.2.143a1.778,1.778,0,0,1,.584,1.333,49.628,49.628,0,0,1,.233,5.1l.11,9.892Z" fill="#2e3c4b"/>
        <path id="Path_2047" data-name="Path 2047" d="M857.925,703.963a39.822,39.822,0,0,1,1.175-10.052c.083-.334.17-.668.258-1a16,16,0,0,0,.766-5.075.524.524,0,0,0-.088-.322.491.491,0,0,0-.314-.074l-5.806-.212.014-.4,5.807.212a.822.822,0,0,1,.58.191.847.847,0,0,1,.206.58,16.318,16.318,0,0,1-.778,5.2c-.087.333-.174.665-.257,1a39.5,39.5,0,0,0-1.163,9.952Z" fill="#2e3c4b"/>
        <path id="Path_2048" data-name="Path 2048" d="M856.015,695.857l-.02-.4a52.339,52.339,0,0,0,5.234-.514l.058.4C859.549,695.6,857.775,695.773,856.015,695.857Z" fill="#2e3c4b"/>
        <path id="Path_2049" data-name="Path 2049" d="M866.41,703.514l-1.12-6.968.4-.063.848,5.273a16.237,16.237,0,0,1,1.8-4.423.647.647,0,0,1,.313-.33c.281-.109.569.091.735.508a24.381,24.381,0,0,1,1.193,3.966,13.025,13.025,0,0,0,.974-2.94l.024-.117a3.129,3.129,0,0,1,.449-1.264.722.722,0,0,1,.423-.313c.282-.061.551.1.805.472A9.692,9.692,0,0,1,874.892,702l-.4.031a9.305,9.305,0,0,0-1.57-4.492c-.149-.218-.29-.33-.39-.306a.361.361,0,0,0-.184.158,2.865,2.865,0,0,0-.381,1.107l-.024.119a13.5,13.5,0,0,1-1.27,3.568l-.269.511-.1-.568a24.065,24.065,0,0,0-1.287-4.469c-.079-.2-.181-.295-.218-.283s-.082.1-.105.146c-.9,1.684-2.015,3.783-1.884,5.948Z" fill="#2e3c4b"/>
      </g>
    </g>
  </g>
</svg>
