<svg xmlns="http://www.w3.org/2000/svg" width="299.577" height="292.684" viewBox="0 0 299.577 292.684">
  <g id="CIEKAWOSTKA_swino" data-name="CIEKAWOSTKA swino" transform="translate(-43 -1552.42)">
    <path id="Path_1283" data-name="Path 1283" d="M794.621-7445.516c18.413-20.917,260.1-15.315,273.815,0s19.859,243.93,4.841,262.76-264.734,21.563-278.656,6.833S776.208-7424.6,794.621-7445.516Z" transform="translate(-739.438 9011.604)" fill="#e5a34c"/>
    <path id="Path_2186" data-name="Path 2186" d="M101.644,14.072A5.917,5.917,0,0,1,97.4,12.29a6.052,6.052,0,0,1-1.3-1.926,5.905,5.905,0,0,1-.468-2.34,6.031,6.031,0,0,1,3.69-5.58,5.976,5.976,0,0,1,4.878.108,6.459,6.459,0,0,1,2.16,1.71l-1.224,1.044a4.5,4.5,0,0,0-3.492-1.692,4.242,4.242,0,0,0-1.683.342,4.478,4.478,0,0,0-2.367,2.367,4.4,4.4,0,0,0,0,3.4,4.478,4.478,0,0,0,2.367,2.367,4.242,4.242,0,0,0,1.683.342,4.5,4.5,0,0,0,3.492-1.692l1.224,1.044a6.671,6.671,0,0,1-2.169,1.71A5.8,5.8,0,0,1,101.644,14.072ZM108.43,14V2.03h1.512V14Zm3.762,0V2.03h6.552V3.65h-4.986V7.286h3.348V8.762h-3.348V12.38h4.986V14Zm14.256,0-3.87-4.41V14h-1.584V2.048h1.584V6.6l3.8-4.554h2.088l-5.058,6.066L128.59,14Zm11.538,0L136.51,9.788h-3.744L131.29,14h-1.71l4.158-11.952h1.8L139.7,14Zm-3.348-9.63L133.27,8.276h2.718ZM150.352,14h-1.6L146.9,8.906,145.114,14h-1.62L139.156,2.012H140.9l3.384,9.378,1.728-4.914-1.62-4.464h1.746L147.724,6.4l1.818,4.986,3.276-9.378h1.746Zm11.106.09a5.894,5.894,0,0,1-2.313-.459,5.819,5.819,0,0,1-1.917-1.3,6.025,6.025,0,0,1-1.3-1.935,6.048,6.048,0,0,1-.009-4.644,6.105,6.105,0,0,1,3.222-3.231,5.8,5.8,0,0,1,2.313-.468,5.86,5.86,0,0,1,2.322.468A6.049,6.049,0,0,1,167,5.738a5.86,5.86,0,0,1,.468,2.322A5.925,5.925,0,0,1,167,10.391a6.025,6.025,0,0,1-3.222,3.231A5.86,5.86,0,0,1,161.458,14.09Zm0-10.4a4.363,4.363,0,0,0-4.374,4.374,4.417,4.417,0,0,0,.342,1.719,4.358,4.358,0,0,0,8.064,0,4.417,4.417,0,0,0,.342-1.719,4.363,4.363,0,0,0-4.374-4.374ZM175.57,5.72a2.775,2.775,0,0,0-.378-1.152,1.968,1.968,0,0,0-.8-.711,2.853,2.853,0,0,0-1.215-.225,2.276,2.276,0,0,0-1.71.522A1.828,1.828,0,0,0,171,5.5a1.984,1.984,0,0,0,.144.819,1.235,1.235,0,0,0,.432.513,3.012,3.012,0,0,0,1.422.4,9.938,9.938,0,0,1,1.7.279,4.573,4.573,0,0,1,1.215.513,2.842,2.842,0,0,1,1.314,2.592,3.175,3.175,0,0,1-.27,1.3,3.5,3.5,0,0,1-2.115,1.926,4.962,4.962,0,0,1-1.629.27,4.228,4.228,0,0,1-3.042-1.08A4.272,4.272,0,0,1,169,10.436l.036-.018h1.584a2.354,2.354,0,0,0,.648,1.422,2.677,2.677,0,0,0,1.89.648,2.842,2.842,0,0,0,1.8-.522,1.638,1.638,0,0,0,.666-1.35,1.966,1.966,0,0,0-.1-.657,1.111,1.111,0,0,0-.369-.495,4.559,4.559,0,0,0-2.286-.594,4.132,4.132,0,0,1-2.592-.99A3.137,3.137,0,0,1,169.4,5.5,3.383,3.383,0,0,1,170.35,3a4.364,4.364,0,0,1,5.724.126A4.511,4.511,0,0,1,177.19,5.72ZM182.7,3.56V14h-1.584V3.56h-2.9V2.03h7.38V3.56ZM193.12,14l-3.87-4.41V14h-1.584V2.048h1.584V6.6l3.8-4.554h2.088l-5.058,6.066L195.262,14Zm11.538,0-1.476-4.212h-3.744L197.962,14h-1.71L200.41,2.048h1.8L206.368,14ZM201.31,4.37l-1.368,3.906h2.718Z" transform="translate(36.5 1574)" fill="#2e3c4b"/>
    <rect id="Rectangle_45" data-name="Rectangle 45" width="10" height="2" transform="translate(182 1594)" fill="#ae4426"/>
    <path id="Path_2187" data-name="Path 2187" d="M21.505,17.412V6.245h-.661V18h5.639v-.588Zm13.932-7.4-.11,1.984a3.584,3.584,0,0,0-3.343-2.2,3.9,3.9,0,0,0-3.82,4.188A3.89,3.89,0,0,0,32,18.147a3.559,3.559,0,0,0,3.324-2.2L35.437,18h.533V10.01ZM32.112,17.6a3.381,3.381,0,0,1-3.288-3.618,3.3,3.3,0,1,1,6.576,0A3.381,3.381,0,0,1,32.112,17.6Zm10.35-7.586H40.387V7.622h-.643V10.01H38.587v.533h1.157V18h.643V10.543h2.076Zm8.936,0-.11,1.984a3.584,3.584,0,0,0-3.343-2.2,3.9,3.9,0,0,0-3.82,4.188,3.89,3.89,0,0,0,3.839,4.169,3.559,3.559,0,0,0,3.324-2.2L51.4,18h.533V10.01ZM48.073,17.6a3.381,3.381,0,0,1-3.288-3.618,3.3,3.3,0,1,1,6.576,0A3.381,3.381,0,0,1,48.073,17.6ZM57.891,9.79a2.435,2.435,0,0,0-2.259,1.818l-.092-1.6h-.551V18h.643V12.967c.037-1.561.882-2.553,2.112-2.553a2.674,2.674,0,0,1,.569.073l.129-.643A2.318,2.318,0,0,0,57.891,9.79Zm6,0A2.91,2.91,0,0,0,61.1,11.755l-.055-1.745h-.569V18h.643V13.1a2.694,2.694,0,0,1,2.663-2.755c1.451,0,2.5.937,2.5,3.049V18H66.9V13.28C66.9,10.524,65.284,9.79,63.888,9.79Zm6.566-1.837a.588.588,0,1,0-.588-.588A.58.58,0,0,0,70.454,7.953ZM70.123,18h.643V10.01h-.643Zm10.809-7.99-.11,1.984a3.584,3.584,0,0,0-3.343-2.2,3.9,3.9,0,0,0-3.82,4.188A3.89,3.89,0,0,0,77.5,18.147a3.559,3.559,0,0,0,3.324-2.2L80.933,18h.533V10.01ZM77.608,17.6a3.381,3.381,0,0,1-3.288-3.618,3.3,3.3,0,1,1,6.576,0A3.381,3.381,0,0,1,77.608,17.6Zm22.28-7.586-2.645,7.127L95,10.01h-.533L92.21,17.173,89.584,10.01H88.9L91.971,18h.514l2.241-7.237L96.986,18H97.5l3.049-7.99Zm11.535-5.271,1.855-1.929-.643-.129-2.369,2.645h.257C110.761,5.327,110.945,5.253,111.422,4.739Zm-.147,13.408c1.855,0,3.435-1.01,3.435-2.92,0-1.763-1.3-2.682-2.939-3.453-1.506-.716-2.92-1.378-2.92-2.884a2.219,2.219,0,0,1,2.369-2.259,3.413,3.413,0,0,1,2.59,1.1l.5-.441a4.053,4.053,0,0,0-3.067-1.249,2.854,2.854,0,0,0-3.067,2.847c0,1.947,1.69,2.682,3.233,3.416,1.524.753,2.627,1.469,2.627,2.957,0,1.378-1.194,2.3-2.755,2.3a3.491,3.491,0,0,1-3.1-1.451l-.533.459A4.292,4.292,0,0,0,111.276,18.147Zm16.65-8.137-2.645,7.127L123.04,10.01h-.533l-2.259,7.163-2.627-7.163h-.68L120.009,18h.514l2.241-7.237L125.023,18h.514l3.049-7.99Zm3.444-2.057a.588.588,0,1,0-.588-.588A.58.58,0,0,0,131.369,7.953ZM131.039,18h.643V10.01h-.643Zm7.393-8.21a2.91,2.91,0,0,0-2.792,1.965l-.055-1.745h-.569V18h.643V13.1a2.694,2.694,0,0,1,2.663-2.755c1.451,0,2.5.937,2.5,3.049V18h.624V13.28C141.444,10.524,139.828,9.79,138.432,9.79Zm9.744,8.357a4.087,4.087,0,0,0,4.169-4.169,4.169,4.169,0,1,0-8.339,0A4.087,4.087,0,0,0,148.176,18.147Zm0-.551a3.484,3.484,0,0,1-3.49-3.618,3.492,3.492,0,1,1,6.98,0A3.484,3.484,0,0,1,148.176,17.6Zm9.946.624c1.451,0,3.2-.753,3.2-3.453V10.01h-.624v4.757c0,1.782-.918,2.9-2.571,2.9-1.671,0-2.59-1.12-2.59-2.9V10.01h-.643v4.757C154.889,17.467,156.634,18.22,158.121,18.22Zm7.228-10.267a.588.588,0,1,0-.588-.588A.58.58,0,0,0,165.349,7.953Zm.331,11.461v-9.4h-.643V19.4c0,1.378-.588,2.039-2.076,1.892v.533C164.376,22,165.68,21.545,165.68,19.414Zm5.74-11.48,1.855-1.929-.643-.129-2.369,2.645h.257C170.758,8.522,170.942,8.449,171.419,7.935Zm-3.031,8.927a3.278,3.278,0,0,0,2.718,1.286c1.616,0,2.773-.845,2.773-2.259,0-3.031-4.445-1.524-4.463-3.949-.018-.973.716-1.58,1.855-1.58a2.61,2.61,0,0,1,1.965.753l.4-.422a3.329,3.329,0,0,0-2.369-.9,2.223,2.223,0,0,0-2.516,2.186c.037,2.957,4.463,1.451,4.463,3.949,0,1.029-.808,1.671-2.112,1.671a2.616,2.616,0,0,1-2.222-1.139Zm11.728,1.286a4.108,4.108,0,0,0,2.571-.882l-.4-.459a3.165,3.165,0,0,1-2.167.79,3.35,3.35,0,0,1-3.38-3.637,3.344,3.344,0,0,1,3.38-3.618,3.165,3.165,0,0,1,2.167.79l.4-.459a4.108,4.108,0,0,0-2.571-.882,3.97,3.97,0,0,0-4.041,4.169A3.965,3.965,0,0,0,180.116,18.147Zm5.556-10.194a.588.588,0,1,0-.588-.588A.58.58,0,0,0,185.672,7.953ZM185.342,18h.643V10.01h-.643Zm7.136.22c1.451,0,3.2-.753,3.2-3.453V10.01h-.624v4.757c0,1.782-.918,2.9-2.571,2.9-1.671,0-2.59-1.12-2.59-2.9V10.01h-.643v4.757C189.245,17.467,190.99,18.22,192.478,18.22ZM204.931,7.953a.588.588,0,1,0-.588-.588A.58.58,0,0,0,204.931,7.953Zm.331,11.461v-9.4h-.643V19.4c0,1.378-.588,2.039-2.076,1.892v.533C203.957,22,205.261,21.545,205.261,19.414Zm10.46-5.584V13.5a3.622,3.622,0,0,0-3.673-3.71,3.9,3.9,0,0,0-3.894,4.078,4.008,4.008,0,0,0,4.078,4.28,4.209,4.209,0,0,0,3.122-1.3l-.478-.386a3.376,3.376,0,0,1-2.645,1.139c-2.149,0-3.4-1.635-3.4-3.71v-.055Zm-3.673-3.471a3,3,0,0,1,3.049,2.976H208.87A3.19,3.19,0,0,1,212.048,10.359Zm5.685,6.5a3.278,3.278,0,0,0,2.718,1.286c1.616,0,2.773-.845,2.773-2.259,0-3.031-4.445-1.524-4.463-3.949-.018-.973.716-1.58,1.855-1.58a2.61,2.61,0,0,1,1.965.753l.4-.422a3.329,3.329,0,0,0-2.369-.9,2.223,2.223,0,0,0-2.516,2.186c.037,2.957,4.463,1.451,4.463,3.949,0,1.029-.808,1.671-2.112,1.671a2.616,2.616,0,0,1-2.222-1.139Zm11.562-6.851h-2.076V7.622h-.643V10.01h-1.157v.533h1.157V18h.643V10.543h2.076ZM30.211,27.349a3.093,3.093,0,0,0-2.59,1.212l-.276-.992h-1.91V36h2.186V31.078A1.813,1.813,0,0,1,29.477,29.2c1.157,0,1.671.808,1.671,2.112V36h2.167V30.747C33.315,28.175,31.644,27.349,30.211,27.349Zm12.26.22L42.2,28.653a3.453,3.453,0,0,0-2.829-1.3c-2.186,0-3.912,1.653-3.912,4.427s1.727,4.408,3.912,4.408a3.469,3.469,0,0,0,2.81-1.267L42.453,36h1.8V27.569Zm-2.535,6.778a2.323,2.323,0,0,1-2.259-2.571,2.313,2.313,0,1,1,4.592,0A2.346,2.346,0,0,1,39.937,34.347Zm8.77-8.173a1.267,1.267,0,1,0-1.286-1.267A1.29,1.29,0,0,0,48.707,26.173Zm1.084,10.3V27.569H47.623v8.8c0,1.359-.569,2-2.057,1.763V39.8C47.734,40.206,49.791,39.582,49.791,36.478Zm13.234-8.908-1.8,5.639-1.708-5.639H57.735l-1.708,5.657-1.8-5.657H51.894L55.053,36h1.818l1.763-5.9L60.38,36H62.2l3.159-8.431Zm10.534,0-2.314,5.712-2.278-5.712H66.652L70.179,35.8,68.36,39.857h2.222l5.29-12.288ZM80.9,26.045a1.185,1.185,0,1,0-1.212-1.176A1.2,1.2,0,0,0,80.9,26.045Zm-.937,8.137,4.371-5.088V27.569H77.424v1.837H81.5l-4.353,5.106V36h7.494V34.182Zm6.217.7a4.757,4.757,0,0,0,3.673,1.378c2.149,0,3.4-1.084,3.4-2.608,0-3.067-4.188-1.965-4.188-3.655,0-.569.422-.937,1.249-.937a2.672,2.672,0,0,1,1.763.716l1.1-1.359a4.551,4.551,0,0,0-3.031-1.065c-2.112,0-3.343,1.1-3.343,2.7,0,3.141,4.114,2.039,4.114,3.618,0,.551-.478.918-1.4.918A2.656,2.656,0,0,1,87.37,33.5Zm11.728-.7,4.371-5.088V27.569H95.369v1.837h4.078l-4.353,5.106V36h7.494V34.182Zm14.483,2.02.367-.2h.349V27.569h-1.782l-.276,1.084a3.453,3.453,0,0,0-2.829-1.3c-2.186,0-3.912,1.653-3.912,4.427s1.727,4.408,3.912,4.408a3.469,3.469,0,0,0,2.81-1.267l.257.992c-1.267.716-1.873,1.727-1.433,2.737s1.965,1.249,3.159.551l-.386-.992C110.807,38.939,110.421,37.212,112.387,36.2Zm-3.6-1.855a2.323,2.323,0,0,1-2.259-2.571,2.313,2.313,0,1,1,4.592,0A2.346,2.346,0,0,1,108.787,34.347Zm12.857,1.084,5.29-6.925v-.5h-5.859v.551h5.088L120.8,35.5V36h6.392v-.569Zm15.272-3.6V31.5a3.622,3.622,0,0,0-3.673-3.71,3.9,3.9,0,0,0-3.894,4.078,4.008,4.008,0,0,0,4.078,4.28,4.209,4.209,0,0,0,3.122-1.3l-.478-.386a3.376,3.376,0,0,1-2.645,1.139c-2.149,0-3.4-1.635-3.4-3.71v-.055Zm-3.673-3.471a3,3,0,0,1,3.049,2.976h-6.227A3.19,3.19,0,0,1,133.243,28.359Zm21.673-.349-2.645,7.127-2.241-7.127H149.5l-2.259,7.163-2.627-7.163h-.68L147,36h.514l2.241-7.237L152.014,36h.514l3.049-7.99Zm2.268,6.851a3.278,3.278,0,0,0,2.718,1.286c1.616,0,2.773-.845,2.773-2.259,0-3.031-4.445-1.524-4.463-3.949-.018-.973.716-1.58,1.855-1.58a2.61,2.61,0,0,1,1.965.753l.4-.422a3.329,3.329,0,0,0-2.369-.9,2.223,2.223,0,0,0-2.516,2.186c.037,2.957,4.463,1.451,4.463,3.949,0,1.029-.808,1.671-2.112,1.671a2.616,2.616,0,0,1-2.222-1.139Zm8.568.569,5.29-6.925v-.5h-5.859v.551h5.088L164.908,35.5V36H171.3v-.569Zm13.987-7.42-3.086,7.071-3.012-7.071h-.7l3.4,7.788-1.782,4.059h.68l5.18-11.847Zm2.177,6.851a3.278,3.278,0,0,0,2.718,1.286c1.616,0,2.773-.845,2.773-2.259,0-3.031-4.445-1.524-4.463-3.949-.018-.973.716-1.58,1.855-1.58a2.61,2.61,0,0,1,1.965.753l.4-.422a3.329,3.329,0,0,0-2.369-.9,2.223,2.223,0,0,0-2.516,2.186c.037,2.957,4.463,1.451,4.463,3.949,0,1.029-.808,1.671-2.112,1.671a2.616,2.616,0,0,1-2.222-1.139Zm11.562-6.851H191.4V25.622h-.643V28.01H189.6v.533h1.157V36h.643V28.543h2.076ZM202.231,36,197.4,31.61l4.316-3.6h-.863l-4.261,3.545V23.51h-.643V36h.643V31.684L201.331,36Zm2.507-10.047a.588.588,0,1,0-.588-.588A.58.58,0,0,0,204.738,25.953ZM204.407,36h.643V28.01h-.643Zm7.577.147a4.108,4.108,0,0,0,2.571-.882l-.4-.459a3.165,3.165,0,0,1-2.167.79,3.35,3.35,0,0,1-3.38-3.637,3.344,3.344,0,0,1,3.38-3.618,3.165,3.165,0,0,1,2.167.79l.4-.459a4.108,4.108,0,0,0-2.571-.882,3.97,3.97,0,0,0-4.041,4.169A3.965,3.965,0,0,0,211.984,36.147Zm8.421-8.357a2.853,2.853,0,0,0-2.773,1.965V23.51h-.643V36h.643V31.408c.055-1.929,1.176-3.067,2.682-3.067,1.451,0,2.48.937,2.48,3.049V36h.643V31.28C223.436,28.524,221.8,27.79,220.405,27.79ZM17.1,54h.643V41.51H17.1ZM27.7,46.01l-.11,1.984a3.584,3.584,0,0,0-3.343-2.2,3.9,3.9,0,0,0-3.82,4.188,3.89,3.89,0,0,0,3.839,4.169,3.559,3.559,0,0,0,3.324-2.2L27.7,54h.533V46.01ZM24.38,53.6a3.644,3.644,0,1,1,3.288-3.618A3.381,3.381,0,0,1,24.38,53.6ZM34.73,46.01H32.654V43.622h-.643V46.01H30.854v.533h1.157V54h.643V46.543H34.73Zm8.936,0-.11,1.984a3.584,3.584,0,0,0-3.343-2.2,3.9,3.9,0,0,0-3.82,4.188,3.89,3.89,0,0,0,3.839,4.169,3.559,3.559,0,0,0,3.324-2.2L43.665,54H44.2V46.01ZM40.341,53.6a3.644,3.644,0,1,1,3.288-3.618A3.381,3.381,0,0,1,40.341,53.6Zm9.817-7.806A2.435,2.435,0,0,0,47.9,47.608l-.092-1.6h-.551V54H47.9V48.967c.037-1.561.882-2.553,2.112-2.553a2.674,2.674,0,0,1,.569.073l.129-.643A2.318,2.318,0,0,0,50.158,45.79Zm6,0a2.91,2.91,0,0,0-2.792,1.965l-.055-1.745h-.569V54h.643V49.1a2.694,2.694,0,0,1,2.663-2.755c1.451,0,2.5.937,2.5,3.049V54h.624V49.28C59.167,46.524,57.551,45.79,56.155,45.79Zm6.566-1.837a.588.588,0,1,0-.588-.588A.58.58,0,0,0,62.721,43.953ZM62.391,54h.643V46.01h-.643Zm12.618-8.21a2.91,2.91,0,0,0-2.792,1.965l-.055-1.745h-.569V54h.643V49.1A2.694,2.694,0,0,1,74.9,46.341c1.451,0,2.5.937,2.5,3.049V54h.624V49.28C78.021,46.524,76.405,45.79,75.009,45.79Zm12.848.22-.11,1.984a3.584,3.584,0,0,0-3.343-2.2,3.9,3.9,0,0,0-3.82,4.188,3.89,3.89,0,0,0,3.839,4.169,3.559,3.559,0,0,0,3.324-2.2L87.857,54h.533V46.01ZM84.533,53.6a3.644,3.644,0,1,1,3.288-3.618A3.381,3.381,0,0,1,84.533,53.6Zm16.127-7.806A3.6,3.6,0,0,0,97.3,48.031l-.055-2.02h-.569l.018,11.847h.624V51.943a3.559,3.559,0,0,0,3.324,2.2,3.876,3.876,0,0,0,3.82-4.169A3.889,3.889,0,0,0,100.659,45.79Zm-.129,7.806a3.646,3.646,0,1,1,3.288-3.618A3.381,3.381,0,0,1,100.531,53.6Zm10.295.551a4.179,4.179,0,1,0-4.169-4.169A4.087,4.087,0,0,0,110.826,54.147Zm0-.551a3.621,3.621,0,1,1,3.49-3.618A3.484,3.484,0,0,1,110.826,53.6Zm6.86.4h.643V41.51h-.643Zm3.15-1.139a3.278,3.278,0,0,0,2.718,1.286c1.616,0,2.773-.845,2.773-2.259,0-3.031-4.445-1.524-4.463-3.949-.018-.973.716-1.58,1.855-1.58a2.609,2.609,0,0,1,1.965.753l.4-.422a3.329,3.329,0,0,0-2.369-.9,2.223,2.223,0,0,0-2.516,2.186c.037,2.957,4.463,1.451,4.463,3.949,0,1.029-.808,1.671-2.112,1.671a2.616,2.616,0,0,1-2.222-1.139ZM135.245,54l-4.831-4.39,4.316-3.6h-.863l-4.261,3.545V41.51h-.643V54h.643V49.684L134.345,54Zm2.507-10.047a.588.588,0,1,0-.588-.588A.58.58,0,0,0,137.752,43.953ZM137.421,54h.643V46.01h-.643Zm12.389-8.21a2.611,2.611,0,0,0-2.663,2.112,2.656,2.656,0,0,0-2.627-2.112,2.574,2.574,0,0,0-2.48,1.929l-.073-1.708H141.4V54h.643V49.188c.147-1.727,1.065-2.847,2.351-2.847,1.433,0,2.278,1.157,2.278,2.81V54h.643V49.335c.129-1.929,1.01-2.994,2.369-2.994,1.58,0,2.3,1.157,2.3,2.92V54h.624V49.261C152.6,46.543,151.133,45.79,149.81,45.79Zm21.141.22-2.645,7.127-2.241-7.127h-.533l-2.259,7.163-2.627-7.163h-.68L163.035,54h.514l2.241-7.237L168.049,54h.514l3.049-7.99Zm9.1,0-3.086,7.071-3.012-7.071h-.7l3.4,7.788-1.782,4.059h.68l5.18-11.847Zm6.787-.22a3.6,3.6,0,0,0-3.343,2.167V41.51h-.643V54h.533l.092-2.057a3.566,3.566,0,0,0,3.343,2.2,3.876,3.876,0,0,0,3.82-4.169A3.889,3.889,0,0,0,186.839,45.79Zm-.147,7.806a3.646,3.646,0,1,1,3.288-3.618A3.378,3.378,0,0,1,186.692,53.6Zm9.468-7.806a2.435,2.435,0,0,0-2.259,1.818l-.092-1.6h-.551V54h.643V48.967c.037-1.561.882-2.553,2.112-2.553a2.674,2.674,0,0,1,.569.073l.129-.643A2.318,2.318,0,0,0,196.16,45.79Zm3.021,7.641,5.29-6.925v-.5h-5.859v.551H203.7L198.337,53.5V54h6.392v-.569Zm15.272-3.6V49.5a3.622,3.622,0,0,0-3.673-3.71,3.9,3.9,0,0,0-3.894,4.078,4.008,4.008,0,0,0,4.078,4.28,4.209,4.209,0,0,0,3.122-1.3l-.478-.386a3.376,3.376,0,0,1-2.645,1.139c-2.149,0-3.4-1.635-3.4-3.71v-.055Zm-3.673-3.471a3,3,0,0,1,3.049,2.976H207.6A3.19,3.19,0,0,1,210.781,46.359Zm9.119-2.278a.588.588,0,1,0-.606-.588A.592.592,0,0,0,219.9,44.082Zm-2.369,9.349,5.29-6.925v-.5h-5.859v.551h5.088L216.686,53.5V54h6.392v-.569Zm11.305.79c1.451,0,3.2-.753,3.2-3.453V46.01h-.624v4.757c0,1.782-.918,2.9-2.571,2.9-1.671,0-2.59-1.12-2.59-2.9V46.01H225.6v4.757C225.6,53.467,227.348,54.22,228.836,54.22Z" transform="translate(63 1763)" fill="#2e3c4b"/>
    <g id="Group_181" data-name="Group 181" transform="translate(118.879 1587.869)">
      <path id="Path_1327" data-name="Path 1327" d="M884.714-7362.248c4.044-11.061,13.551-33.859,32.008-34.268s69.145-2.2,82.023,13.233,15.154,27.468,13.255,51.807-8.432,38.471-16.125,51.42-40.469,22.927-69.922,21.78-50.906-18.609-50.335-42.509,10.873-27.093,9.1-37.476S880.67-7351.187,884.714-7362.248Z" transform="translate(-871.466 7423.131)" fill="#f2edeb"/>
      <g id="swinoujscie" transform="translate(27.098 36.824)">
        <path id="Path_1284" data-name="Path 1284" d="M76.121,139.424c.193-.348.01-11.064.01-11.5a7.549,7.549,0,0,1,.775-1.73c.1-.261.525-3.268.284-3.442a8.42,8.42,0,0,0-2.6-.434c-1.836,0-14.158.13-14.158.13a2.608,2.608,0,0,0-1.557.347c-.348.2.236,3.651.391,3.887a14.69,14.69,0,0,1,.879,1.594c.289.609-.345,10.24-.294,11.676,0,0,.576,7.768.505,10.539v15.385" transform="translate(-40.87 -54.821)" fill="none" stroke="#2e3c4b" stroke-miterlimit="10" stroke-width="0.7"/>
        <path id="Path_1285" data-name="Path 1285" d="M62.147,108.185c.748-9.706,2.042-47.42,1.708-47.871a4.773,4.773,0,0,1-1.027-1.68c-.193-.731-.354-3.362,0-3.68.747-.671,11.944-.369,12.208.1.388.694-.112,2.492-.168,3.375a9.066,9.066,0,0,1-.876,1.88c-.124.335.785,37.463,1.31,47.743" transform="translate(-41.581 -40.558)" fill="none" stroke="#2e3c4b" stroke-miterlimit="10" stroke-width="0.7"/>
        <path id="Path_1286" data-name="Path 1286" d="M67.2,53.389s-.578-3.8,0-4.149,6.164-.347,6.646,0,.482,4.349.482,4.349" transform="translate(-42.591 -39.383)" fill="none" stroke="#2e3c4b" stroke-miterlimit="10" stroke-width="0.7"/>
        <path id="Path_1287" data-name="Path 1287" d="M63.7,122.482a16.336,16.336,0,0,0,.722,4.373c.311.607.18,4.158.189,7.494,0,.828-4.464,4.818-4.464,4.818" transform="translate(-41.161 -54.855)" fill="none" stroke="#2e3c4b" stroke-miterlimit="10" stroke-width="0.7"/>
        <path id="Path_1288" data-name="Path 1288" d="M74.794,122.482a30.482,30.482,0,0,1-.53,4.286,39.56,39.56,0,0,0-.769,7.612c0,1.338,5.726,5.078,5.726,5.078" transform="translate(-43.97 -54.855)" fill="none" stroke="#2e3c4b" stroke-miterlimit="10" stroke-width="0.7"/>
        <path id="Path_1289" data-name="Path 1289" d="M68.234,100.243s0-2.669.674-2.725.931,2.725.931,2.725Z" transform="translate(-42.863 -49.6)" fill="none" stroke="#2e3c4b" stroke-miterlimit="10" stroke-width="0.7"/>
        <path id="Path_1290" data-name="Path 1290" d="M69.009,135.325s-.111-1.843.563-1.9.594,1.9.594,1.9Z" transform="translate(-43.024 -57.158)" fill="none" stroke="#2e3c4b" stroke-miterlimit="10" stroke-width="0.7"/>
        <path id="Path_1291" data-name="Path 1291" d="M70.045,153.22s-.14-3.619.7-3.73.744,3.73.744,3.73Z" transform="translate(-43.242 -60.54)" fill="none" stroke="#2e3c4b" stroke-miterlimit="10" stroke-width="0.7"/>
        <path id="Path_1292" data-name="Path 1292" d="M73.439,76.394s-.53-3.564.41-3.39,1,3.39,1,3.39Z" transform="translate(-43.927 -44.439)" fill="none" stroke="#2e3c4b" stroke-miterlimit="10" stroke-width="0.7"/>
        <path id="Path_1293" data-name="Path 1293" d="M65.289,60.77s-1.551-2.868-.561-2.984,1.68,2.984,1.68,2.984Z" transform="translate(-42.055 -41.236)" fill="none" stroke="#2e3c4b" stroke-miterlimit="10" stroke-width="0.7"/>
        <path id="Path_1294" data-name="Path 1294" d="M68.26,60.952s-.459-2.871.172-2.987c.709-.131,1.136,2.665,1.012,3.023Z" transform="translate(-42.834 -41.273)" fill="none" stroke="#2e3c4b" stroke-miterlimit="10" stroke-width="0.7"/>
        <path id="Path_1295" data-name="Path 1295" d="M71.4,60.909s.4-2.868,1.137-2.811,0,2.811,0,2.811Z" transform="translate(-43.53 -41.302)" fill="none" stroke="#2e3c4b" stroke-miterlimit="10" stroke-width="0.7"/>
        <path id="Path_1296" data-name="Path 1296" d="M74.469,60.856s.873-2.723,1.581-2.665-.3,2.665-.3,2.665Z" transform="translate(-44.175 -41.321)" fill="none" stroke="#2e3c4b" stroke-miterlimit="10" stroke-width="0.7"/>
        <path id="Path_1297" data-name="Path 1297" d="M62.092,128.3s-.983-2.959-.141-3.017S63.48,128.3,63.48,128.3Z" transform="translate(-41.468 -55.444)" fill="none" stroke="#2e3c4b" stroke-miterlimit="10" stroke-width="0.7"/>
        <path id="Path_1298" data-name="Path 1298" d="M67.617,128.15s-.679-3.04.2-2.869c1.194.23,1.552,2.946,1.278,2.871Z" transform="translate(-42.68 -55.443)" fill="none" stroke="#2e3c4b" stroke-miterlimit="10" stroke-width="0.7"/>
        <path id="Path_1299" data-name="Path 1299" d="M70.906,128.242s-.3-2.869.895-2.869c.675,0,.674,2.869.674,2.869Z" transform="translate(-43.418 -55.464)" fill="none" stroke="#2e3c4b" stroke-miterlimit="10" stroke-width="0.7"/>
        <path id="Path_1300" data-name="Path 1300" d="M76.95,128.152s.552-2.961,1.29-2.875.192,2.875.192,2.875Z" transform="translate(-44.697 -55.443)" fill="none" stroke="#2e3c4b" stroke-miterlimit="10" stroke-width="0.7"/>
        <path id="Path_1301" data-name="Path 1301" d="M62.861,54.437a5.239,5.239,0,0,1-.538-2.061c.144-.565,13.163-.087,13.589,0s-.843,2.166-.843,2.166" transform="translate(-41.614 -40.04)" fill="none" stroke="#2e3c4b" stroke-miterlimit="10" stroke-width="0.7"/>
        <path id="Path_1302" data-name="Path 1302" d="M67.073,48.082l-.128-5.432h7.127l-.482,5.171" transform="translate(-42.591 -38.05)" fill="none" stroke="#2e3c4b" stroke-miterlimit="10" stroke-width="0.7"/>
        <path id="Path_1303" data-name="Path 1303" d="M74.026,41.716c.353-.174-3.345-3.252-4.368-3.31s-3.59,3.2-3.372,3.254l.706.1" transform="translate(-42.45 -37.157)" fill="none" stroke="#2e3c4b" stroke-miterlimit="10" stroke-width="0.7"/>
        <path id="Path_1304" data-name="Path 1304" d="M70.3,36.828c.344.054.767.2.767.551s-.314.576-.767.695-.711.029-.711-.463A.744.744,0,0,1,70.3,36.828Z" transform="translate(-43.148 -36.824)" fill="none" stroke="#2e3c4b" stroke-miterlimit="10" stroke-width="0.7"/>
        <path id="Path_1305" data-name="Path 1305" d="M37.877,157.429s-.356,13.539.918,14.846,49.3,1.668,49.941.906.558-15.552.558-15.552" transform="translate(-36.463 -62.211)" fill="none" stroke="#2e3c4b" stroke-miterlimit="10" stroke-width="0.7"/>
        <path id="Path_1306" data-name="Path 1306" d="M59.724,144" transform="translate(-41.071 -59.384)" fill="none" stroke="#2e3c4b" stroke-miterlimit="10" stroke-width="0.7"/>
        <path id="Path_1307" data-name="Path 1307" d="M80.748,143.985l.46,11.874-.46,14.787" transform="translate(-45.497 -59.381)" fill="none" stroke="#2e3c4b" stroke-miterlimit="10" stroke-width="0.7"/>
        <path id="Path_1308" data-name="Path 1308" d="M41.828,160.888a8.5,8.5,0,0,1,2.8,0c.191.218.446,3.649,0,3.975s-2.23.756-2.422.3S41.318,161.006,41.828,160.888Z" transform="translate(-37.266 -62.914)" fill="none" stroke="#2e3c4b" stroke-miterlimit="10" stroke-width="0.7"/>
        <path id="Path_1309" data-name="Path 1309" d="M50.5,160.694c.152-.442,2.612-.283,2.74,0s.382,4.253,0,4.393-2.294.351-2.485,0A20.262,20.262,0,0,1,50.5,160.694Z" transform="translate(-39.121 -62.841)" fill="none" stroke="#2e3c4b" stroke-miterlimit="10" stroke-width="0.7"/>
        <path id="Path_1310" data-name="Path 1310" d="M42.155,168.4c.261-.06,2.853-.327,2.8,0s.311,3.648,0,3.921-2.224,0-2.415,0S41.677,168.505,42.155,168.4Z" transform="translate(-37.337 -64.486)" fill="none" stroke="#2e3c4b" stroke-miterlimit="10" stroke-width="0.7"/>
        <path id="Path_1311" data-name="Path 1311" d="M50.727,168.21a6.2,6.2,0,0,1,2.23,0c.382.1.446,4.05.255,4.2a4.283,4.283,0,0,1-2.039,0C50.854,172.236,50.408,168.6,50.727,168.21Z" transform="translate(-39.154 -64.459)" fill="none" stroke="#2e3c4b" stroke-miterlimit="10" stroke-width="0.7"/>
        <line id="Line_645" data-name="Line 645" x2="3.113" transform="translate(4.495 100.007)" fill="none" stroke="#2e3c4b" stroke-miterlimit="10" stroke-width="0.7"/>
        <line id="Line_646" data-name="Line 646" x2="0.198" y2="4.387" transform="translate(5.997 97.859)" fill="none" stroke="#2e3c4b" stroke-miterlimit="10" stroke-width="0.7"/>
        <line id="Line_647" data-name="Line 647" y2="4.179" transform="translate(6.195 103.773)" fill="none" stroke="#2e3c4b" stroke-miterlimit="10" stroke-width="0.7"/>
        <line id="Line_648" data-name="Line 648" x2="2.966" y2="0.128" transform="translate(4.649 105.734)" fill="none" stroke="#2e3c4b" stroke-miterlimit="10" stroke-width="0.7"/>
        <line id="Line_649" data-name="Line 649" x2="2.983" y2="0.172" transform="translate(11.34 99.88)" fill="none" stroke="#2e3c4b" stroke-miterlimit="10" stroke-width="0.7"/>
        <line id="Line_650" data-name="Line 650" x2="0.175" y2="4.848" transform="translate(12.657 97.579)" fill="none" stroke="#2e3c4b" stroke-miterlimit="10" stroke-width="0.7"/>
        <line id="Line_651" data-name="Line 651" x2="0.194" y2="4.296" transform="translate(12.813 103.656)" fill="none" stroke="#2e3c4b" stroke-miterlimit="10" stroke-width="0.7"/>
        <line id="Line_652" data-name="Line 652" x2="2.616" y2="0.297" transform="translate(11.536 105.734)" fill="none" stroke="#2e3c4b" stroke-miterlimit="10" stroke-width="0.7"/>
        <path id="Path_1312" data-name="Path 1312" d="M99.131,172.7a8.5,8.5,0,0,1-2.8,0c-.192-.218-.446-3.648,0-3.975s2.23-.756,2.421-.3S99.641,172.585,99.131,172.7Z" transform="translate(-48.724 -64.485)" fill="none" stroke="#2e3c4b" stroke-miterlimit="10" stroke-width="0.7"/>
        <path id="Path_1313" data-name="Path 1313" d="M90.524,172.827c-.152.443-2.612.284-2.74,0s-.383-4.253,0-4.392,2.293-.351,2.485,0A20.2,20.2,0,0,1,90.524,172.827Z" transform="translate(-46.935 -64.488)" fill="none" stroke="#2e3c4b" stroke-miterlimit="10" stroke-width="0.7"/>
        <path id="Path_1314" data-name="Path 1314" d="M98.843,165.3c-.261.059-2.853.326-2.8,0s-.312-3.649,0-3.921,2.223,0,2.414,0S99.32,165.191,98.843,165.3Z" transform="translate(-48.69 -63.017)" fill="none" stroke="#2e3c4b" stroke-miterlimit="10" stroke-width="0.7"/>
        <path id="Path_1315" data-name="Path 1315" d="M90.376,165.427a6.239,6.239,0,0,1-2.23,0c-.382-.105-.446-4.051-.255-4.2a4.294,4.294,0,0,1,2.039,0C90.248,161.4,90.695,165.042,90.376,165.427Z" transform="translate(-46.978 -62.985)" fill="none" stroke="#2e3c4b" stroke-miterlimit="10" stroke-width="0.7"/>
        <line id="Line_653" data-name="Line 653" x1="3.113" transform="translate(47.362 106.185)" fill="none" stroke="#2e3c4b" stroke-miterlimit="10" stroke-width="0.7"/>
        <line id="Line_654" data-name="Line 654" x1="0.198" y1="4.387" transform="translate(48.775 103.947)" fill="none" stroke="#2e3c4b" stroke-miterlimit="10" stroke-width="0.7"/>
        <line id="Line_655" data-name="Line 655" y1="4.179" transform="translate(48.775 98.241)" fill="none" stroke="#2e3c4b" stroke-miterlimit="10" stroke-width="0.7"/>
        <line id="Line_656" data-name="Line 656" x1="2.966" y1="0.128" transform="translate(47.356 100.33)" fill="none" stroke="#2e3c4b" stroke-miterlimit="10" stroke-width="0.7"/>
        <line id="Line_657" data-name="Line 657" x1="2.983" y1="0.172" transform="translate(40.647 106.14)" fill="none" stroke="#2e3c4b" stroke-miterlimit="10" stroke-width="0.7"/>
        <line id="Line_658" data-name="Line 658" x1="0.175" y1="4.848" transform="translate(42.138 103.765)" fill="none" stroke="#2e3c4b" stroke-miterlimit="10" stroke-width="0.7"/>
        <line id="Line_659" data-name="Line 659" x1="0.194" y1="4.296" transform="translate(41.964 98.241)" fill="none" stroke="#2e3c4b" stroke-miterlimit="10" stroke-width="0.7"/>
        <line id="Line_660" data-name="Line 660" x1="2.616" y1="0.297" transform="translate(40.818 100.161)" fill="none" stroke="#2e3c4b" stroke-miterlimit="10" stroke-width="0.7"/>
        <line id="Line_661" data-name="Line 661" x2="0.235" y2="4.998" transform="translate(26.817 4.625)" fill="none" stroke="#2e3c4b" stroke-miterlimit="10" stroke-width="0.7"/>
        <line id="Line_662" data-name="Line 662" x1="0.297" y2="5.038" transform="translate(29.784 4.634)" fill="none" stroke="#2e3c4b" stroke-miterlimit="10" stroke-width="0.7"/>
        <line id="Line_663" data-name="Line 663" y1="1.205" x2="3.005" transform="translate(35.927 2.924)" fill="none" stroke="#2e3c4b" stroke-miterlimit="10" stroke-width="0.7"/>
        <line id="Line_664" data-name="Line 664" y1="0.242" x2="3.533" transform="translate(36.851 6.837)" fill="none" stroke="#2e3c4b" stroke-miterlimit="10" stroke-width="0.7"/>
        <line id="Line_665" data-name="Line 665" x2="2.196" y2="1.103" transform="translate(36.422 9.597)" fill="none" stroke="#2e3c4b" stroke-miterlimit="10" stroke-width="0.7"/>
        <line id="Line_666" data-name="Line 666" x1="2.085" y1="0.979" transform="translate(17.401 2.952)" fill="none" stroke="#2e3c4b" stroke-miterlimit="10" stroke-width="0.7"/>
        <line id="Line_667" data-name="Line 667" x1="3.42" y2="0.132" transform="translate(15.023 6.705)" fill="none" stroke="#2e3c4b" stroke-miterlimit="10" stroke-width="0.7"/>
        <line id="Line_668" data-name="Line 668" x1="2.113" y2="1.014" transform="translate(15.717 10.149)" fill="none" stroke="#2e3c4b" stroke-miterlimit="10" stroke-width="0.7"/>
        <path id="Path_1316" data-name="Path 1316" d="M55.584,154.521c-1.584.42-18.245.689-19.455-.342-.264-.225,1.243-8.922,1.64-9.45s15.862-.845,17.318-1.114" transform="translate(-36.098 -59.303)" fill="none" stroke="#2e3c4b" stroke-miterlimit="10" stroke-width="0.7"/>
        <path id="Path_1317" data-name="Path 1317" d="M80.748,143.979c.865-.178,15.781.729,16.79.992.706.185,2.211,8.919,1.85,9.622s-16.793.546-18.18.215" transform="translate(-45.497 -59.375)" fill="none" stroke="#2e3c4b" stroke-miterlimit="10" stroke-width="0.7"/>
        <path id="Path_1318" data-name="Path 1318" d="M69.511,170.309c-.05-.347-.058-3.76.995-3.981s.877,4.067.877,4.067Z" transform="translate(-43.128 -64.083)" fill="none" stroke="#2e3c4b" stroke-miterlimit="10" stroke-width="0.7"/>
      </g>
      <line id="Line_669" data-name="Line 669" y1="0.539" x2="1.149" transform="translate(89.435 37.109)" fill="none" stroke="#2e3c4b" stroke-miterlimit="10" stroke-width="0.7"/>
      <path id="Path_1319" data-name="Path 1319" d="M116.762,147.043l.94.915s-2.671-49.078-2.671-59.6S116.2,37.185,116.2,37.185l1.5,1.108" transform="translate(-25.615 -0.076)" fill="none" stroke="#2e3c4b" stroke-miterlimit="10" stroke-width="0.7"/>
      <line id="Line_670" data-name="Line 670" x1="1.106" y2="1.051" transform="translate(92.086 146.831)" fill="none" stroke="#2e3c4b" stroke-miterlimit="10" stroke-width="0.7"/>
      <path id="Path_1320" data-name="Path 1320" d="M125.558,96.4a3.929,3.929,0,0,0-4.821.048,5.48,5.48,0,0,0-1.919,4.638,9.269,9.269,0,0,0,1.881,4.8,4.351,4.351,0,0,0,1.726,1.566,1.849,1.849,0,0,0,2.156-.417,2.148,2.148,0,0,0,.285-1.692,3.718,3.718,0,0,0-2.085-2.76,2.821,2.821,0,0,0-3.261.759" transform="translate(-23.411 -12.296)" fill="none" stroke="#2e3c4b" stroke-miterlimit="10" stroke-width="0.7"/>
      <path id="Path_1321" data-name="Path 1321" d="M121.5,95.655l5.36.485a.445.445,0,0,1,.264.081.421.421,0,0,1,.105.278,5.7,5.7,0,0,1-.631,2.743c-1.227,2.834-2.9,5.506-3.641,8.5" transform="translate(-16.972 -12.162)" fill="none" stroke="#2e3c4b" stroke-miterlimit="10" stroke-width="0.7"/>
      <path id="Path_1322" data-name="Path 1322" d="M122.031,97.553a19.98,19.98,0,0,0,3.278-.078" transform="translate(-15.707 -7.812)" fill="none" stroke="#2e3c4b" stroke-miterlimit="10" stroke-width="0.7"/>
      <path id="Path_1323" data-name="Path 1323" d="M124.019,99.278a17.932,17.932,0,0,1-.844,2.383" transform="translate(-12.973 -3.502)" fill="none" stroke="#2e3c4b" stroke-miterlimit="10" stroke-width="0.7"/>
      <path id="Path_1324" data-name="Path 1324" d="M124.648,95.57l7.6.214a5.445,5.445,0,0,1-.739,2.78,41.583,41.583,0,0,0-3.234,10.642" transform="translate(-9.453 -12.366)" fill="none" stroke="#2e3c4b" stroke-miterlimit="10" stroke-width="0.7"/>
      <path id="Path_1325" data-name="Path 1325" d="M125.527,97.343a28.428,28.428,0,0,0,3.875-.078" transform="translate(-7.352 -8.313)" fill="none" stroke="#2e3c4b" stroke-miterlimit="10" stroke-width="0.7"/>
      <path id="Path_1326" data-name="Path 1326" d="M127.27,98.134c.217,1.9.776,5.611,1.071,5.618.261.017.024-1.916.268-2.838a3.9,3.9,0,0,1,1.549-2.322c1.288.763,1.617,2.448,1.817,3.929a4.41,4.41,0,0,1,.237-2.424,2.806,2.806,0,0,1,1.749-1.624,1.589,1.589,0,0,1,.973.007,1.708,1.708,0,0,1,.868.888c.573,1.187.312,2.6.624,3.875" transform="translate(-3.186 -6.237)" fill="none" stroke="#2e3c4b" stroke-miterlimit="10" stroke-width="0.7"/>
    </g>
  </g>
</svg>
