<svg xmlns="http://www.w3.org/2000/svg" width="303.766" height="376.475" viewBox="0 0 303.766 376.475">
  <g id="CIEKAWOSTKA_rozewie" data-name="CIEKAWOSTKA rozewie" transform="translate(-1510.48 -77.28)">
    <path id="Path_1283" data-name="Path 1283" d="M1522.836,94.86c18.672-26.9,263.735-19.7,277.642,0s20.138,313.77,4.909,337.985-268.437,27.737-282.554,8.789S1504.165,121.765,1522.836,94.86Z" fill="#e5a34c"/>
    <g id="CIEKAWOSTKA-2" transform="translate(1599.194 103.182)" style="isolation: isolate">
      <path id="Path_2194" data-name="Path 2194" d="M7.854.084A6.837,6.837,0,0,1,5.145-.462,6.9,6.9,0,0,1,2.9-2,7.06,7.06,0,0,1,1.386-4.242,6.889,6.889,0,0,1,.84-6.972,7.006,7.006,0,0,1,1.375-9.7,6.993,6.993,0,0,1,2.9-11.97a7.06,7.06,0,0,1,2.247-1.512,6.837,6.837,0,0,1,2.709-.546,6.833,6.833,0,0,1,2.982.672,7.536,7.536,0,0,1,2.52,1.995l-1.428,1.218a5.247,5.247,0,0,0-4.074-1.974,4.949,4.949,0,0,0-1.964.4A5.193,5.193,0,0,0,4.242-10.6,5.193,5.193,0,0,0,3.129-8.957a5,5,0,0,0-.4,1.985,5,5,0,0,0,.4,1.984A5.193,5.193,0,0,0,4.242-3.339,5.193,5.193,0,0,0,5.891-2.226a4.949,4.949,0,0,0,1.964.4A5.247,5.247,0,0,0,11.928-3.8l1.428,1.218a7.783,7.783,0,0,1-2.53,2A6.766,6.766,0,0,1,7.854.084ZM15.771,0V-13.965h1.764V0ZM20.16,0V-13.965H27.8v1.89H21.987v4.242h3.906v1.722H21.987V-1.89H27.8V0ZM36.792,0,32.277-5.145V0H30.429V-13.944h1.848v5.313l4.431-5.313h2.436l-5.9,7.077L39.291,0ZM50.253,0,48.531-4.914H44.163L42.441,0H40.446L45.3-13.944h2.1L52.248,0ZM46.347-11.235l-1.6,4.557h3.171ZM64.68,0H62.811L60.648-5.943,58.569,0h-1.89L51.618-13.986h2.037L57.6-3.045l2.016-5.733-1.89-5.208h2.037l1.848,5.124,2.121,5.817,3.822-10.941h2.037ZM77.637.1a6.876,6.876,0,0,1-2.7-.535A6.789,6.789,0,0,1,72.7-1.953,7.029,7.029,0,0,1,71.19-4.21a6.913,6.913,0,0,1-.546-2.72,6.876,6.876,0,0,1,.536-2.7A7.024,7.024,0,0,1,72.7-11.886,7.093,7.093,0,0,1,74.938-13.4a6.762,6.762,0,0,1,2.7-.546,6.837,6.837,0,0,1,2.709.546,7.061,7.061,0,0,1,2.247,1.512,7.061,7.061,0,0,1,1.512,2.247,6.837,6.837,0,0,1,.546,2.709,6.913,6.913,0,0,1-.546,2.72,7.029,7.029,0,0,1-1.512,2.257A7.06,7.06,0,0,1,80.346-.441,6.837,6.837,0,0,1,77.637.1Zm0-12.138a5.065,5.065,0,0,0-1.964.389,5.051,5.051,0,0,0-1.648,1.1,5.051,5.051,0,0,0-1.1,1.648,5.065,5.065,0,0,0-.388,1.964,5.153,5.153,0,0,0,.4,2.006,5.06,5.06,0,0,0,1.092,1.648,5.051,5.051,0,0,0,1.648,1.1,5.065,5.065,0,0,0,1.964.389A5.065,5.065,0,0,0,79.6-2.174a5.051,5.051,0,0,0,1.648-1.1,5.06,5.06,0,0,0,1.092-1.648,5.153,5.153,0,0,0,.4-2.006,5.065,5.065,0,0,0-.388-1.964,5.051,5.051,0,0,0-1.1-1.648,5.051,5.051,0,0,0-1.648-1.1A5.065,5.065,0,0,0,77.637-12.033ZM94.1-9.66A3.237,3.237,0,0,0,93.66-11a2.3,2.3,0,0,0-.935-.83,3.329,3.329,0,0,0-1.418-.262,2.656,2.656,0,0,0-1.995.609,2.132,2.132,0,0,0-.546,1.575,2.315,2.315,0,0,0,.168.955,1.441,1.441,0,0,0,.5.6A3.514,3.514,0,0,0,91.1-7.9a11.594,11.594,0,0,1,1.985.325,5.335,5.335,0,0,1,1.417.6,3.316,3.316,0,0,1,1.533,3.024,3.7,3.7,0,0,1-.315,1.512,4.193,4.193,0,0,1-.882,1.281,4.228,4.228,0,0,1-1.585.966,5.789,5.789,0,0,1-1.9.315A4.933,4.933,0,0,1,87.8-1.134a4.984,4.984,0,0,1-1.365-3.024l.042-.021h1.848a2.747,2.747,0,0,0,.756,1.659,3.123,3.123,0,0,0,2.205.756,3.316,3.316,0,0,0,2.1-.609,1.911,1.911,0,0,0,.777-1.575,2.294,2.294,0,0,0-.116-.766,1.3,1.3,0,0,0-.43-.578,5.319,5.319,0,0,0-2.667-.693A4.82,4.82,0,0,1,87.927-7.14,3.66,3.66,0,0,1,86.9-9.912a3.947,3.947,0,0,1,1.113-2.919,4.428,4.428,0,0,1,3.276-1.176,4.393,4.393,0,0,1,3.4,1.323,5.263,5.263,0,0,1,1.3,3.024Zm8.316-2.52V0h-1.848V-12.18H97.188v-1.785h8.61v1.785ZM114.576,0l-4.515-5.145V0h-1.848V-13.944h1.848v5.313l4.431-5.313h2.436l-5.9,7.077L117.075,0Zm13.461,0-1.722-4.914h-4.368L120.225,0h-2l4.851-13.944h2.1L130.032,0Zm-3.906-11.235-1.6,4.557h3.171Z" transform="translate(0 17)" fill="#2e3c4b"/>
    </g>
    <rect id="Rectangle_45" data-name="Rectangle 45" width="12.003" height="2.401" transform="translate(1658.508 127.188)" fill="#ae4426"/>
    <g id="Group_181" data-name="Group 181" transform="translate(1578.238 147.598)">
      <path id="Path_1327" data-name="Path 1327" d="M1592.9,195.717c5.3-14.506,17.773-44.409,41.981-44.946s90.689-2.885,107.579,17.357,19.875,36.026,17.385,67.948-11.058,50.458-21.154,67.441-53.078,30.071-91.707,28.566-66.767-24.406-66.017-55.752,14.26-35.535,11.93-49.154S1587.591,210.223,1592.9,195.717Z" transform="translate(-1580.947 -150.41)" fill="#f2edeb"/>
    </g>
    <path id="Path_2195" data-name="Path 2195" d="M-58.57-12.408-62.39-.989l-3.567-11.419h-.582L-70.106-.989l-3.819-11.419h-.756L-70.4,0h.562l3.587-11.458L-62.661,0h.562l4.265-12.408ZM-49.5,0h.679V-13.184H-49.5Zm11.2-8.434-.116,2.094a3.783,3.783,0,0,0-3.529-2.327,4.12,4.12,0,0,0-4.033,4.42,4.106,4.106,0,0,0,4.052,4.4,3.757,3.757,0,0,0,3.509-2.327L-38.3,0h.562V-8.434ZM-41.81-.427a3.569,3.569,0,0,1-3.47-3.819,3.583,3.583,0,0,1,3.451-3.839,3.578,3.578,0,0,1,3.49,3.839A3.569,3.569,0,0,1-41.81-.427Zm10.925-8.007h-2.191v-2.52h-.679v2.52h-1.221v.562h1.221V0h.679V-7.871h2.191Zm9.432,0-.116,2.094A3.783,3.783,0,0,0-25.1-8.666a4.12,4.12,0,0,0-4.033,4.42,4.106,4.106,0,0,0,4.052,4.4,3.757,3.757,0,0,0,3.509-2.327L-21.453,0h.562V-8.434ZM-24.962-.427a3.569,3.569,0,0,1-3.47-3.819,3.583,3.583,0,0,1,3.451-3.839,3.578,3.578,0,0,1,3.49,3.839A3.569,3.569,0,0,1-24.962-.427ZM-14.6-8.666a2.571,2.571,0,0,0-2.385,1.919l-.1-1.687h-.582V0h.679V-5.312c.039-1.648.931-2.695,2.23-2.695a2.823,2.823,0,0,1,.6.078l.136-.679A2.447,2.447,0,0,0-14.6-8.666Zm6.33,0a3.072,3.072,0,0,0-2.947,2.074l-.058-1.842h-.6V0h.679V-5.177c.174-1.842,1.3-2.908,2.811-2.908,1.532,0,2.637.989,2.637,3.218V0h.659V-4.983C-5.089-7.891-6.8-8.666-8.269-8.666Zm6.931-1.939a.612.612,0,0,0,.62-.62.612.612,0,0,0-.62-.62.612.612,0,0,0-.62.62A.612.612,0,0,0-1.338-10.605ZM-1.687,0h.679V-8.434h-.679ZM15.181,0h.872L11.4-6.03h.194c1.842,0,3.722-.969,3.722-3.141,0-2.113-1.745-3.238-3.742-3.238H8.608V0h.7V-6.03h1.3ZM9.306-11.827h2.055c1.881,0,3.238.892,3.238,2.656s-1.377,2.559-3.218,2.559H9.306ZM22.577.155a4.314,4.314,0,0,0,4.4-4.4,4.33,4.33,0,0,0-4.4-4.42,4.33,4.33,0,0,0-4.4,4.42A4.314,4.314,0,0,0,22.577.155Zm0-.582a3.678,3.678,0,0,1-3.684-3.819,3.678,3.678,0,0,1,3.684-3.819,3.678,3.678,0,0,1,3.684,3.819A3.678,3.678,0,0,1,22.577-.427ZM30.206-.6,35.79-7.91v-.523H29.605v.582h5.37L29.314-.523V0h6.747V-.6ZM46.327-4.4V-4.75A3.824,3.824,0,0,0,42.45-8.666a4.121,4.121,0,0,0-4.11,4.3,4.231,4.231,0,0,0,4.3,4.517,4.443,4.443,0,0,0,3.3-1.377l-.5-.407a3.564,3.564,0,0,1-2.792,1.2c-2.268,0-3.587-1.726-3.587-3.916V-4.4ZM42.45-8.065a3.17,3.17,0,0,1,3.218,3.141H39.1A3.367,3.367,0,0,1,42.45-8.065Zm17.168-.368L56.826-.911,54.46-8.434H53.9L51.513-.872,48.741-8.434h-.717L51.261,0H51.8l2.365-7.639L56.554,0H57.1l3.218-8.434Zm3.635-2.171a.612.612,0,0,0,.62-.62.612.612,0,0,0-.62-.62.612.612,0,0,0-.62.62A.612.612,0,0,0,63.253-10.605ZM62.9,0h.679V-8.434H62.9Zm11.72-4.4V-4.75a3.824,3.824,0,0,0-3.878-3.916,4.121,4.121,0,0,0-4.11,4.3A4.231,4.231,0,0,0,70.94.155a4.443,4.443,0,0,0,3.3-1.377l-.5-.407a3.564,3.564,0,0,1-2.792,1.2c-2.268,0-3.587-1.726-3.587-3.916V-4.4ZM70.746-8.065a3.17,3.17,0,0,1,3.218,3.141H67.392A3.367,3.367,0,0,1,70.746-8.065ZM-47.553,22.4l5.584-7.309v-.523h-6.185v.582h5.37l-5.661,7.329V23H-41.7v-.6Zm12.2-8.065A3.072,3.072,0,0,0-38.3,16.408l-.058-1.842h-.6V23h.679V17.823c.174-1.842,1.3-2.908,2.811-2.908,1.532,0,2.637.989,2.637,3.218V23h.659V18.017C-32.169,15.109-33.875,14.334-35.349,14.334Zm13.562.233L-21.9,16.66a3.783,3.783,0,0,0-3.529-2.327,4.12,4.12,0,0,0-4.033,4.42,4.106,4.106,0,0,0,4.052,4.4A3.757,3.757,0,0,0-21.9,20.829L-21.787,23h.562V14.566ZM-25.3,22.573a3.569,3.569,0,0,1-3.47-3.819,3.583,3.583,0,0,1,3.451-3.839,3.578,3.578,0,0,1,3.49,3.839A3.569,3.569,0,0,1-25.3,22.573Zm8.385-10.179a.612.612,0,0,0,.62-.62.612.612,0,0,0-.62-.62.612.612,0,0,0-.62.62A.612.612,0,0,0-16.911,12.395Zm.349,12.1V14.566h-.679v9.907c0,1.454-.62,2.152-2.191,2v.562C-17.939,27.227-16.562,26.742-16.562,24.493Zm10.6-14.677v6.805a3.772,3.772,0,0,0-3.509-2.288,4.12,4.12,0,0,0-4.033,4.42,4.106,4.106,0,0,0,4.052,4.4,3.757,3.757,0,0,0,3.509-2.327L-5.85,23h.562V9.816ZM-9.34,22.573a3.569,3.569,0,0,1-3.47-3.819,3.583,3.583,0,0,1,3.451-3.839,3.578,3.578,0,0,1,3.49,3.839A3.569,3.569,0,0,1-9.34,22.573Zm10.615.659c1.532,0,3.373-.795,3.373-3.645V14.566H3.989v5.021c0,1.881-.969,3.063-2.714,3.063-1.764,0-2.734-1.183-2.734-3.063V14.566h-.679v5.021C-2.137,22.438-.3,23.233,1.275,23.233ZM8.9,12.395a.62.62,0,1,0-.62-.62A.612.612,0,0,0,8.9,12.395Zm.349,12.1V14.566H8.574v9.907c0,1.454-.62,2.152-2.191,2v.562C7.876,27.227,9.253,26.742,9.253,24.493ZM20.294,18.6V18.25a3.824,3.824,0,0,0-3.878-3.916,4.121,4.121,0,0,0-4.11,4.3,4.231,4.231,0,0,0,4.3,4.517,4.443,4.443,0,0,0,3.3-1.377l-.5-.407a3.564,3.564,0,0,1-2.792,1.2c-2.268,0-3.587-1.726-3.587-3.916V18.6Zm-3.878-3.664a3.17,3.17,0,0,1,3.218,3.141H13.063A3.367,3.367,0,0,1,16.417,14.935ZM27.933,21.8A3.46,3.46,0,0,0,30.8,23.155c1.706,0,2.928-.892,2.928-2.385,0-3.2-4.692-1.609-4.711-4.168-.019-1.028.756-1.667,1.958-1.667a2.754,2.754,0,0,1,2.074.795l.427-.446a3.514,3.514,0,0,0-2.5-.95c-1.59,0-2.676.911-2.656,2.307.039,3.121,4.711,1.532,4.711,4.168,0,1.086-.853,1.764-2.23,1.764a2.762,2.762,0,0,1-2.346-1.2Zm9.161-9.4a.62.62,0,1,0-.62-.62A.612.612,0,0,0,37.094,12.395ZM36.745,23h.679V14.566h-.679Zm11.72-4.4V18.25a3.824,3.824,0,0,0-3.878-3.916,4.121,4.121,0,0,0-4.11,4.3,4.231,4.231,0,0,0,4.3,4.517h.31c-1.066.717-1.4,1.59-1.086,2.23a1.433,1.433,0,0,0,2.055.368l-.136-.407c-1.551.737-2.249-.95-.349-2.113l.31-.194a4.241,4.241,0,0,0,2.191-1.26l-.5-.407a3.564,3.564,0,0,1-2.792,1.2c-2.268,0-3.587-1.726-3.587-3.916V18.6Zm-3.878-3.664a3.17,3.17,0,0,1,3.218,3.141H41.233A3.367,3.367,0,0,1,44.587,14.935ZM-81.744,33.592-86.067,39.7l-4.323-6.107h-2.191V46H-90.2V37.489l4.13,5.506,4.149-5.506V46h2.385V33.592Zm9.277,12.641c2.055,0,4.168-.872,4.168-4.188V37.1h-2.307v5c0,1.338-.62,2.191-1.861,2.191-1.221,0-1.842-.853-1.842-2.191v-5H-76.6v4.944C-76.6,45.36-74.522,46.233-72.467,46.233Zm9.413-2.152,4.614-5.37V37.1h-7.29V39.04h4.3l-4.595,5.39V46h7.91V44.081Zm15.946-2.6a4.326,4.326,0,0,0-4.5-4.614A4.57,4.57,0,0,0-56.3,41.58a4.612,4.612,0,0,0,4.963,4.672,5,5,0,0,0,3.664-1.377l-1.551-1.26a2.762,2.762,0,0,1-2.152.892,2.437,2.437,0,0,1-2.52-2.385h6.786Zm-4.5-2.869a2.14,2.14,0,0,1,2.23,2.036h-4.459A2.258,2.258,0,0,1-51.605,38.613Zm10.886,7.619c2.055,0,4.168-.872,4.168-4.188V37.1h-2.307v5c0,1.338-.62,2.191-1.861,2.191-1.221,0-1.842-.853-1.842-2.191v-5h-2.288v4.944C-44.849,45.36-42.774,46.233-40.719,46.233Zm16.993-9.364a3.33,3.33,0,0,0-2.889,1.318,2.815,2.815,0,0,0-2.5-1.318,2.773,2.773,0,0,0-2.443,1.4L-31.83,37.1h-2.016V46h2.307V40.882c.116-1.357.717-2.055,1.726-2.055,1.066,0,1.493.872,1.493,2.171v5h2.307V41.308c0-1.59.582-2.482,1.706-2.482,1.066,0,1.512.872,1.512,2.171v5h2.288V40.765C-20.507,38.051-21.826,36.868-23.726,36.868Zm13.92,7.057V33.592h-2.443V46h7.542V43.926ZM4.241,37.1,3.95,38.245A3.644,3.644,0,0,0,.965,36.868c-2.307,0-4.13,1.745-4.13,4.672s1.822,4.653,4.13,4.653a3.662,3.662,0,0,0,2.966-1.338L4.222,46h1.9V37.1ZM1.566,44.255A2.452,2.452,0,0,1-.819,41.541a2.469,2.469,0,0,1,2.385-2.734,2.493,2.493,0,0,1,2.462,2.734A2.476,2.476,0,0,1,1.566,44.255ZM14.313,37.1H12.122V34.542H9.834V37.1H8.477v1.784H9.834V46h2.288V38.885h2.191Zm8.812,0-.291,1.144a3.644,3.644,0,0,0-2.986-1.377c-2.307,0-4.13,1.745-4.13,4.672s1.822,4.653,4.13,4.653a3.662,3.662,0,0,0,2.966-1.338L23.105,46h1.9V37.1Zm-2.676,7.154a2.452,2.452,0,0,1-2.385-2.714,2.441,2.441,0,1,1,4.847,0A2.476,2.476,0,0,1,20.449,44.255Zm12.03-7.387a2.96,2.96,0,0,0-2.365,1.473L29.843,37.1H27.826V46h2.307V41.6c0-1.57.795-2.52,2.152-2.52a2.68,2.68,0,0,1,.834.136L33.468,37A3.37,3.37,0,0,0,32.479,36.868Zm7.707,0a3.265,3.265,0,0,0-2.734,1.28L37.161,37.1H35.145V46h2.307V40.8a1.913,1.913,0,0,1,1.958-1.978c1.221,0,1.764.853,1.764,2.23V46h2.288V40.455C43.463,37.741,41.7,36.868,40.186,36.868Zm7.358-1.241a1.338,1.338,0,1,0-1.357-1.338A1.362,1.362,0,0,0,47.544,35.628ZM46.419,46h2.307V37.1H46.419Zm9.665.271a5.1,5.1,0,0,0,3.141-.989L57.945,43.6a2.56,2.56,0,0,1-1.764.7A2.458,2.458,0,0,1,53.7,41.58a2.464,2.464,0,0,1,2.482-2.734,2.56,2.56,0,0,1,1.764.7l1.3-1.687a5.161,5.161,0,0,0-3.16-.989,4.7,4.7,0,1,0,0,9.4ZM66.738,37.1H64.547V34.542H62.259V37.1H60.9v1.784h1.357V46h2.288V38.885h2.191Zm13.232,0-1.9,5.952-1.8-5.952H74.386l-1.8,5.971-1.9-5.971H68.221L71.555,46h1.919l1.861-6.223L77.178,46H79.1l3.335-8.9Zm11.119,0L90.8,38.245a3.644,3.644,0,0,0-2.986-1.377c-2.307,0-4.13,1.745-4.13,4.672s1.822,4.653,4.13,4.653a3.662,3.662,0,0,0,2.966-1.338L91.069,46h1.9V37.1Zm-2.676,7.154a2.452,2.452,0,0,1-2.385-2.714,2.441,2.441,0,1,1,4.847,0A2.476,2.476,0,0,1,88.413,44.255Z" transform="translate(1663.364 364.677)" fill="#2e3c4b"/>
    <g id="rozewie" transform="translate(1642.224 164.15)">
      <g id="Group_291" data-name="Group 291" transform="translate(15.008 28.115)">
        <circle id="Ellipse_66" data-name="Ellipse 66" cx="0.987" cy="0.987" r="0.987" transform="translate(4.828)" fill="#2e3c4b"/>
        <circle id="Ellipse_67" data-name="Ellipse 67" cx="0.987" cy="0.987" r="0.987" transform="translate(5.267 11.411)" fill="#2e3c4b"/>
        <circle id="Ellipse_68" data-name="Ellipse 68" cx="0.987" cy="0.987" r="0.987" transform="translate(4.828 24.578)" fill="#2e3c4b"/>
        <circle id="Ellipse_69" data-name="Ellipse 69" cx="0.987" cy="0.987" r="0.987" transform="translate(11.411 49.155)" fill="#2e3c4b"/>
        <circle id="Ellipse_70" data-name="Ellipse 70" cx="0.987" cy="0.987" r="0.987" transform="translate(0 55.3)" fill="#2e3c4b"/>
        <circle id="Ellipse_71" data-name="Ellipse 71" cx="0.987" cy="0.987" r="0.987" transform="translate(0.878 43.889)" fill="#2e3c4b"/>
      </g>
      <g id="rozewie-2" data-name="rozewie" transform="translate(0 0)">
        <path id="Path_2000" data-name="Path 2000" d="M1656.5,262.092c-.557-1.112,1.278-12.311,1.3-12.423.087-.525.21-1.346.357-2.332.835-5.606,1.641-10.7,2.338-11.392.329-.328,1.7-.3,4.553-.159.985.049,1.914.094,2.625.094,7.409,0,8.671.242,8.933.5.3.3,1.1,3.893,2.674,11.336.426,2.008.761,3.593.894,4.128a77.816,77.816,0,0,1,1.5,10.2l-.438-.006a77.4,77.4,0,0,0-1.488-10.092c-.137-.541-.472-2.131-.9-4.143-.844-3.99-2.258-10.67-2.566-11.128-.223-.156-1.914-.362-8.612-.362-.721,0-1.657-.046-2.646-.1-1.568-.078-3.94-.194-4.223.033-.649.649-1.7,7.738-2.213,11.144-.147.989-.27,1.813-.358,2.339-.626,3.757-1.7,11.433-1.337,12.155Z" transform="translate(-1647.834 -170.24)" fill="#2e3c4b"/>
        <path id="Path_2001" data-name="Path 2001" d="M1676.76,234.939l-.311-.311c.222-.493.375-7.846.375-19.156,0-3.182-.452-23.134-.855-24.042-.137-.274-1.361-.557-6.416-.345-.4.016-.7.029-.849.029-.26,0-.92-.081-1.835-.193-1.658-.2-5.541-.68-5.91-.31-.314.766.441,15.266.941,21.772.165,2.13.2,5.535.249,9.139.061,5.059.144,11.987.714,12.444l-.239.367c-.689-.443-.813-4.436-.914-12.806-.043-3.6-.084-7-.246-9.111-.139-1.8-1.441-21.49-.815-22.117.441-.439,2.46-.283,6.273.185.831.1,1.548.19,1.782.19.146,0,.44-.013.831-.029,3.952-.164,6.47-.125,6.827.588.491.983.9,22.572.9,24.237C1677.263,234.436,1676.9,234.8,1676.76,234.939Z" transform="translate(-1647.991 -168.486)" fill="#2e3c4b"/>
        <path id="Path_2002" data-name="Path 2002" d="M1676.824,179.4a14.955,14.955,0,0,1-2.164-.281,13.681,13.681,0,0,0-2.962-.313c-1.032.1-3,.151-4.582.188-1.124.027-2.1.05-2.448.086-.525.054-1.772.033-2.871.013-.706-.012-1.373-.023-1.54-.006-.036,0-3.307.011-3.386-.759-.062-.609,7.7-7.788,10.219-9.727,1.32-1.014,1.625-1.027,1.807-.958,1.433.543,8.666,10.274,8.762,11.217a.42.42,0,0,1-.13.358A1.032,1.032,0,0,1,1676.824,179.4Zm-4.788-1.048a17.756,17.756,0,0,1,2.7.335,7.044,7.044,0,0,0,2.5.211c-.125-.856-7.185-10.294-8.474-10.837-.382.024-2.371,1.528-5.985,4.858a71.81,71.81,0,0,0-5.439,5.387,9.98,9.98,0,0,0,2.88.346c.185-.019.725-.011,1.592,0,1.035.017,2.321.039,2.818-.012.37-.038,1.349-.061,2.483-.088,1.574-.038,3.534-.084,4.548-.187A3.666,3.666,0,0,1,1672.036,178.356Z" transform="translate(-1647.852 -167.624)" fill="#2e3c4b"/>
        <path id="Path_2003" data-name="Path 2003" d="M1666.048,190.058l-.435-.048c0-.04.437-3.959.437-5.682v-5.266h.438v5.266C1666.488,186.077,1666.066,189.9,1666.048,190.058Z" transform="translate(-1648.188 -168.063)" fill="#2e3c4b"/>
        <path id="Path_2004" data-name="Path 2004" d="M1670.615,190.717c-.018-.242-.439-5.953-.439-7.7a13.009,13.009,0,0,1,.279-2.537,6.918,6.918,0,0,0,.161-1.194h.438a7.23,7.23,0,0,1-.167,1.276,12.557,12.557,0,0,0-.272,2.455c0,1.727.435,7.6.438,7.664Z" transform="translate(-1648.364 -168.072)" fill="#2e3c4b"/>
        <path id="Path_2005" data-name="Path 2005" d="M1675.177,190.49h-.438c0-.442.842-10.56.879-10.991l.437.037C1675.751,183.176,1675.177,190.15,1675.177,190.49Z" transform="translate(-1648.539 -168.08)" fill="#2e3c4b"/>
        <rect id="Rectangle_199" data-name="Rectangle 199" width="0.439" height="10.533" transform="translate(13.473 11.437)" fill="#2e3c4b"/>
        <path id="Path_2006" data-name="Path 2006" d="M1669.63,280.144a4.069,4.069,0,0,1-1.964-.34.534.534,0,0,1-.267-.476c.01-.257-.074-1.33-.171-2.574-.32-4.066-.558-7.481-.224-8.084h0c.224-.4.776-.658,1.64-.76,1.338-.158,3.2.1,3.556.488.5.541,1.135,8.591.7,10.669-.081.39-.2.6-.373.679A9.175,9.175,0,0,1,1669.63,280.144Zm-2.242-11.262c-.3.538.076,5.286.277,7.838.107,1.361.185,2.343.172,2.627,0,.028.024.059.076.094.648.44,3.66.253,4.439-.1.621-.534-.034-9.931-.486-10.662a6.629,6.629,0,0,0-3.171-.338c-.7.083-1.162.273-1.308.538Z" transform="translate(-1648.235 -171.477)" fill="#2e3c4b"/>
        <path id="Path_2007" data-name="Path 2007" d="M1670.693,296.4a4.839,4.839,0,0,1-2.085-.4c-.587-.326-.881-3.314-1.025-5.764-.106-1.81-.217-5.39.116-5.991h0c.33-.59,3.034-.2,4.616.08l.165.03.015.167c.148,1.7.86,10.253.376,11.125-.342.617-1.416.734-2.026.747C1670.794,296.4,1670.743,296.4,1670.693,296.4Zm-2.614-11.93c-.534,1.019.109,10.669.745,11.153a4.663,4.663,0,0,0,2.01.337c.852-.02,1.486-.219,1.653-.521.318-.574-.08-6.8-.415-10.707C1670.312,284.431,1668.337,284.256,1668.079,284.474Z" transform="translate(-1648.26 -172.096)" fill="#2e3c4b"/>
        <path id="Path_2008" data-name="Path 2008" d="M1670.192,311.753a1.3,1.3,0,0,1-.925-.221c-.352-.385-1.048-10.706-.389-11.31h0a4.231,4.231,0,0,1,3.782-.317c1.025.569,1.7,10.3,1.444,11.2a.286.286,0,0,1-.281.247,7.381,7.381,0,0,0-.949.118A20.894,20.894,0,0,1,1670.192,311.753Zm-1-11.22c-.337.71.019,10.043.412,10.717.255.22,2.4-.092,3.21-.211.433-.063.714-.1.888-.118a34.047,34.047,0,0,0-.263-5.346c-.347-3.379-.758-5.11-.992-5.288A3.915,3.915,0,0,0,1669.188,300.533Z" transform="translate(-1648.303 -172.698)" fill="#2e3c4b"/>
        <path id="Path_2009" data-name="Path 2009" d="M1676.8,236.518l-.2-.392c.733-.366,2.262-4.018,2.344-4.994-1.222-.6-18.13-.938-19.744-.4a13.191,13.191,0,0,0,1.278,3.893,4.723,4.723,0,0,1,.475,1.26h-.219l-.219,0a7.842,7.842,0,0,0-.437-1.084,12.656,12.656,0,0,1-1.318-4.185c0-.261,0-.586,7.244-.586,3.069,0,6.351.076,8.779.2,4.6.243,4.6.55,4.6.82C1679.391,232,1677.786,236.025,1676.8,236.518Z" transform="translate(-1647.925 -170.023)" fill="#2e3c4b"/>
        <path id="Path_2010" data-name="Path 2010" d="M1664.9,235.961c-.513-.741-.121-4.889-.038-5.713l.437.044c-.187,1.845-.362,4.948-.037,5.419Z" transform="translate(-1648.151 -170.031)" fill="#2e3c4b"/>
        <path id="Path_2011" data-name="Path 2011" d="M1674.07,235.946l-.428-.1c.141-.629.226-3.835.251-5.441l.439.007C1674.329,230.605,1674.257,235.115,1674.07,235.946Z" transform="translate(-1648.497 -170.037)" fill="#2e3c4b"/>
        <path id="Path_2012" data-name="Path 2012" d="M1668.562,236.116l-.21-.1c-.358-.4-.042-3.7.177-5.634l.437.049a26.037,26.037,0,0,0-.276,5.3.156.156,0,0,0-.128-.062Z" transform="translate(-1648.287 -170.037)" fill="#2e3c4b"/>
        <path id="Path_2013" data-name="Path 2013" d="M1676.109,190.945l-.438-.01a4.574,4.574,0,0,1,.617-1.344c.547-1.018,1.462-2.721,1.3-3.229-.013-.044-.032-.053-.042-.058-.75-.358-16.848-.8-18.113-.125a20.818,20.818,0,0,0,1.3,3.792l-.4.172a19.9,19.9,0,0,1-1.335-4.037.325.325,0,0,1,.176-.279c1.3-.807,17.767-.321,18.575.083a.525.525,0,0,1,.264.319c.2.632-.486,1.989-1.334,3.568A8.862,8.862,0,0,0,1676.109,190.945Z" transform="translate(-1647.934 -168.307)" fill="#2e3c4b"/>
        <path id="Path_2014" data-name="Path 2014" d="M1678.607,314.13c-11.922,0-28.029-.662-29.331-1.833-1.187-1.068-.858-15.821-.555-24.521.385-11.034,1.138-23.434,1.688-24.228h0c.077-.113.243-.207.8-.306,4.792-.85,32.719-.932,34.395.251,1.32.932,3.871,20.772,4.369,24.74,1.1,8.792,2.776,23.947,2.046,24.98-.125.176-.468.381-2.067.561C1687.809,314.015,1683.57,314.13,1678.607,314.13Zm-27.845-50.319c-.391.744-1.157,11.113-1.6,24.043-.485,13.99-.323,23.456.411,24.118,1.412,1.27,27.505,2.152,38.105,1.545,3.5-.2,3.936-.5,3.986-.557.454-.73-.481-11.59-2.13-24.721-1.937-15.419-3.569-23.939-4.181-24.386C1683.856,262.8,1652.318,262.766,1650.762,263.811Z" transform="translate(-1647.528 -171.275)" fill="#2e3c4b"/>
        <rect id="Rectangle_200" data-name="Rectangle 200" width="3.033" height="0.439" transform="translate(33.894 10.45) rotate(-18.46)" fill="#2e3c4b"/>
        <rect id="Rectangle_201" data-name="Rectangle 201" width="4.733" height="0.439" transform="translate(34.706 14.654)" fill="#2e3c4b"/>
        <rect id="Rectangle_202" data-name="Rectangle 202" width="0.439" height="2.333" transform="translate(33.216 19.599) rotate(-63.534)" fill="#2e3c4b"/>
        <path id="Path_2015" data-name="Path 2015" d="M1651.495,179.714a18.583,18.583,0,0,1-2.756-1.2l.2-.391a18.364,18.364,0,0,0,2.626,1.159Z" transform="translate(-1647.54 -168.027)" fill="#2e3c4b"/>
        <rect id="Rectangle_203" data-name="Rectangle 203" width="3.372" height="0.439" transform="translate(0 14.226)" fill="#2e3c4b"/>
        <path id="Path_2016" data-name="Path 2016" d="M1648.911,188.02l-.143-.415,2.691-.928.142.415Z" transform="translate(-1647.541 -168.356)" fill="#2e3c4b"/>
      </g>
    </g>
    <g id="Group_294" data-name="Group 294" transform="translate(1664.789 200.29)">
      <path id="Path_2017" data-name="Path 2017" d="M1715.342,261.687a1,1,0,0,1-.415-.083h0c-1.187-.538-19.537-25.465-19.833-26.943a1.157,1.157,0,0,1,.331-.949,5.706,5.706,0,0,1,3.112-1.721c.158,0,.637,0,11.554,12.136,4.353,4.84,10.857,12.19,10.994,12.6.183.552-1.586,2.3-2.284,2.933C1717.908,260.46,1716.377,261.687,1715.342,261.687ZM1698.5,232.37a5.532,5.532,0,0,0-2.774,1.586.861.861,0,0,0-.252.63c.4,1.51,18.547,26.185,19.614,26.668h0c.347.158.994-.062,1.833-.607,1.818-1.186,3.8-3.419,3.8-3.816-.182-.339-4.861-5.718-10.837-12.363C1703.446,237.314,1698.978,232.566,1698.5,232.37Z" transform="translate(-1671.886 -206.238)" fill="#2e3c4b"/>
      <g id="Group_292" data-name="Group 292">
        <path id="Path_2018" data-name="Path 2018" d="M1675.259,209.541c5.6-5.625,16.257-6,22.56,1.975s4.033,15.393-2.66,21.749-13.857,2.5-19.9-3.039S1670.389,214.43,1675.259,209.541Z" transform="translate(-1670.967 -205.216)" fill="#f2edeb"/>
        <path id="Path_2019" data-name="Path 2019" d="M1687.691,236.735c-3.767,0-7.931-2.121-12.565-6.375a13.439,13.439,0,0,1-4.164-9.753,15.794,15.794,0,0,1,4.152-11.21,14.72,14.72,0,0,1,11.308-4.163,15.763,15.763,0,0,1,11.54,6.154c5.829,7.379,4.929,14.783-2.678,22.008A10.849,10.849,0,0,1,1687.691,236.735Zm-12.3-27.067h0a15.4,15.4,0,0,0-4.039,10.93,13.051,13.051,0,0,0,4.039,9.478c7.814,7.174,14.237,8.166,19.633,3.041,7.439-7.065,8.327-14.3,2.641-21.491a15.38,15.38,0,0,0-11.259-6.008,14.518,14.518,0,0,0-11.015,4.049Z" transform="translate(-1670.959 -205.209)" fill="#2e3c4b"/>
      </g>
      <g id="Group_293" data-name="Group 293" transform="translate(2.483 2.546)">
        <path id="Path_2020" data-name="Path 2020" d="M1677.148,211.489a12.72,12.72,0,0,1,18.918,1.656c5.286,6.69,3.382,12.907-2.231,18.238s-11.62,2.1-16.683-2.548S1673.063,215.59,1677.148,211.489Z" transform="translate(-1673.548 -207.863)" fill="#f2edeb"/>
        <path id="Path_2021" data-name="Path 2021" d="M1687.572,234.293c-3.159,0-6.65-1.779-10.536-5.345a11.266,11.266,0,0,1-3.491-8.179,13.242,13.242,0,0,1,3.482-9.4h0a12.327,12.327,0,0,1,9.481-3.491,13.217,13.217,0,0,1,9.678,5.161c4.888,6.188,4.132,12.4-2.246,18.455A9.1,9.1,0,0,1,1687.572,234.293Zm-1.793-26.113a12.126,12.126,0,0,0-8.523,3.416h0a12.912,12.912,0,0,0-3.389,9.165,10.947,10.947,0,0,0,3.386,7.948c6.553,6.015,11.937,6.851,16.464,2.551,6.237-5.924,6.981-11.988,2.214-18.021a12.9,12.9,0,0,0-9.443-5.039C1686.253,208.187,1686.015,208.18,1685.779,208.18Z" transform="translate(-1673.542 -207.857)" fill="#2e3c4b"/>
      </g>
      <path id="Path_2022" data-name="Path 2022" d="M1680.216,209.442l3.39-1.175.643,25.181-2.9-1.5Z" transform="translate(-1671.315 -205.326)" fill="#2e3c4b"/>
      <path id="Path_2023" data-name="Path 2023" d="M1675.712,227.829s14.251-.425,14.352,0-2.236,7.065-2.236,7.065l-2.522-.3s2.044-3.666,1.215-4.289-8.519-.021-8.519-.021Z" transform="translate(-1671.142 -206.071)" fill="#2e3c4b"/>
    </g>
  </g>
</svg>
