<svg xmlns="http://www.w3.org/2000/svg" width="306.077" height="292.684" viewBox="0 0 306.077 292.684">
  <g id="CIEKAWOSTKA" transform="translate(-36.5 -1552.42)">
    <path id="Path_1283" data-name="Path 1283" d="M794.621-7445.516c18.413-20.917,260.1-15.315,273.815,0s19.859,243.93,4.841,262.76-264.734,21.563-278.656,6.833S776.208-7424.6,794.621-7445.516Z" transform="translate(-739.438 9011.604)" fill="#e5a34c"/>
    <text id="CIEKAWOSTKA-2" data-name="CIEKAWOSTKA" transform="translate(36.5 1574)" fill="#2e3c4b" font-size="18" font-family="SulphurPoint-Bold, Sulphur Point" font-weight="700" letter-spacing="0.025em"><tspan x="94.912" y="14">CIEKAWOSTKA</tspan></text>
    <rect id="Rectangle_45" data-name="Rectangle 45" width="10" height="2" transform="translate(182 1594)" fill="#ae4426"/>
    <text id="Latarnia_w_Świnoujściu_jest_najwyższą_ze_wszystkich_latarni_na_polskim_wybrzeżu" data-name="Latarnia w Świnoujściu jest najwyższą ze wszystkich latarni na polskim wybrzeżu" transform="translate(63 1763)" fill="#2e3c4b" font-size="18" font-family="ClarikaProGeo-Th, Clarika Pro Geometric" letter-spacing="0.025em"><tspan x="18.989" y="18">Latarnia w Świnoujściu jest </tspan><tspan x="24.334" y="36" font-family="ClarikaProGeo-Dm, Clarika Pro Geometric">najwyższą</tspan><tspan y="36" xml:space="preserve"> ze wszystkich </tspan><tspan x="15.719" y="54">latarni na polskim wybrzeżu</tspan></text>
    <g id="Group_181" data-name="Group 181" transform="translate(118.879 1587.869)">
      <path id="Path_1327" data-name="Path 1327" d="M884.714-7362.248c4.044-11.061,13.551-33.859,32.008-34.268s69.145-2.2,82.023,13.233,15.154,27.468,13.255,51.807-8.432,38.471-16.125,51.42-40.469,22.927-69.922,21.78-50.906-18.609-50.335-42.509,10.873-27.093,9.1-37.476S880.67-7351.187,884.714-7362.248Z" transform="translate(-871.466 7423.131)" fill="#f2edeb"/>
      <g id="swinoujscie" transform="translate(27.098 36.824)">
        <path id="Path_1284" data-name="Path 1284" d="M76.121,139.424c.193-.348.01-11.064.01-11.5a7.549,7.549,0,0,1,.775-1.73c.1-.261.525-3.268.284-3.442a8.42,8.42,0,0,0-2.6-.434c-1.836,0-14.158.13-14.158.13a2.608,2.608,0,0,0-1.557.347c-.348.2.236,3.651.391,3.887a14.69,14.69,0,0,1,.879,1.594c.289.609-.345,10.24-.294,11.676,0,0,.576,7.768.505,10.539v15.385" transform="translate(-40.87 -54.821)" fill="none" stroke="#2e3c4b" stroke-miterlimit="10" stroke-width="0.7"/>
        <path id="Path_1285" data-name="Path 1285" d="M62.147,108.185c.748-9.706,2.042-47.42,1.708-47.871a4.773,4.773,0,0,1-1.027-1.68c-.193-.731-.354-3.362,0-3.68.747-.671,11.944-.369,12.208.1.388.694-.112,2.492-.168,3.375a9.066,9.066,0,0,1-.876,1.88c-.124.335.785,37.463,1.31,47.743" transform="translate(-41.581 -40.558)" fill="none" stroke="#2e3c4b" stroke-miterlimit="10" stroke-width="0.7"/>
        <path id="Path_1286" data-name="Path 1286" d="M67.2,53.389s-.578-3.8,0-4.149,6.164-.347,6.646,0,.482,4.349.482,4.349" transform="translate(-42.591 -39.383)" fill="none" stroke="#2e3c4b" stroke-miterlimit="10" stroke-width="0.7"/>
        <path id="Path_1287" data-name="Path 1287" d="M63.7,122.482a16.336,16.336,0,0,0,.722,4.373c.311.607.18,4.158.189,7.494,0,.828-4.464,4.818-4.464,4.818" transform="translate(-41.161 -54.855)" fill="none" stroke="#2e3c4b" stroke-miterlimit="10" stroke-width="0.7"/>
        <path id="Path_1288" data-name="Path 1288" d="M74.794,122.482a30.482,30.482,0,0,1-.53,4.286,39.56,39.56,0,0,0-.769,7.612c0,1.338,5.726,5.078,5.726,5.078" transform="translate(-43.97 -54.855)" fill="none" stroke="#2e3c4b" stroke-miterlimit="10" stroke-width="0.7"/>
        <path id="Path_1289" data-name="Path 1289" d="M68.234,100.243s0-2.669.674-2.725.931,2.725.931,2.725Z" transform="translate(-42.863 -49.6)" fill="none" stroke="#2e3c4b" stroke-miterlimit="10" stroke-width="0.7"/>
        <path id="Path_1290" data-name="Path 1290" d="M69.009,135.325s-.111-1.843.563-1.9.594,1.9.594,1.9Z" transform="translate(-43.024 -57.158)" fill="none" stroke="#2e3c4b" stroke-miterlimit="10" stroke-width="0.7"/>
        <path id="Path_1291" data-name="Path 1291" d="M70.045,153.22s-.14-3.619.7-3.73.744,3.73.744,3.73Z" transform="translate(-43.242 -60.54)" fill="none" stroke="#2e3c4b" stroke-miterlimit="10" stroke-width="0.7"/>
        <path id="Path_1292" data-name="Path 1292" d="M73.439,76.394s-.53-3.564.41-3.39,1,3.39,1,3.39Z" transform="translate(-43.927 -44.439)" fill="none" stroke="#2e3c4b" stroke-miterlimit="10" stroke-width="0.7"/>
        <path id="Path_1293" data-name="Path 1293" d="M65.289,60.77s-1.551-2.868-.561-2.984,1.68,2.984,1.68,2.984Z" transform="translate(-42.055 -41.236)" fill="none" stroke="#2e3c4b" stroke-miterlimit="10" stroke-width="0.7"/>
        <path id="Path_1294" data-name="Path 1294" d="M68.26,60.952s-.459-2.871.172-2.987c.709-.131,1.136,2.665,1.012,3.023Z" transform="translate(-42.834 -41.273)" fill="none" stroke="#2e3c4b" stroke-miterlimit="10" stroke-width="0.7"/>
        <path id="Path_1295" data-name="Path 1295" d="M71.4,60.909s.4-2.868,1.137-2.811,0,2.811,0,2.811Z" transform="translate(-43.53 -41.302)" fill="none" stroke="#2e3c4b" stroke-miterlimit="10" stroke-width="0.7"/>
        <path id="Path_1296" data-name="Path 1296" d="M74.469,60.856s.873-2.723,1.581-2.665-.3,2.665-.3,2.665Z" transform="translate(-44.175 -41.321)" fill="none" stroke="#2e3c4b" stroke-miterlimit="10" stroke-width="0.7"/>
        <path id="Path_1297" data-name="Path 1297" d="M62.092,128.3s-.983-2.959-.141-3.017S63.48,128.3,63.48,128.3Z" transform="translate(-41.468 -55.444)" fill="none" stroke="#2e3c4b" stroke-miterlimit="10" stroke-width="0.7"/>
        <path id="Path_1298" data-name="Path 1298" d="M67.617,128.15s-.679-3.04.2-2.869c1.194.23,1.552,2.946,1.278,2.871Z" transform="translate(-42.68 -55.443)" fill="none" stroke="#2e3c4b" stroke-miterlimit="10" stroke-width="0.7"/>
        <path id="Path_1299" data-name="Path 1299" d="M70.906,128.242s-.3-2.869.895-2.869c.675,0,.674,2.869.674,2.869Z" transform="translate(-43.418 -55.464)" fill="none" stroke="#2e3c4b" stroke-miterlimit="10" stroke-width="0.7"/>
        <path id="Path_1300" data-name="Path 1300" d="M76.95,128.152s.552-2.961,1.29-2.875.192,2.875.192,2.875Z" transform="translate(-44.697 -55.443)" fill="none" stroke="#2e3c4b" stroke-miterlimit="10" stroke-width="0.7"/>
        <path id="Path_1301" data-name="Path 1301" d="M62.861,54.437a5.239,5.239,0,0,1-.538-2.061c.144-.565,13.163-.087,13.589,0s-.843,2.166-.843,2.166" transform="translate(-41.614 -40.04)" fill="none" stroke="#2e3c4b" stroke-miterlimit="10" stroke-width="0.7"/>
        <path id="Path_1302" data-name="Path 1302" d="M67.073,48.082l-.128-5.432h7.127l-.482,5.171" transform="translate(-42.591 -38.05)" fill="none" stroke="#2e3c4b" stroke-miterlimit="10" stroke-width="0.7"/>
        <path id="Path_1303" data-name="Path 1303" d="M74.026,41.716c.353-.174-3.345-3.252-4.368-3.31s-3.59,3.2-3.372,3.254l.706.1" transform="translate(-42.45 -37.157)" fill="none" stroke="#2e3c4b" stroke-miterlimit="10" stroke-width="0.7"/>
        <path id="Path_1304" data-name="Path 1304" d="M70.3,36.828c.344.054.767.2.767.551s-.314.576-.767.695-.711.029-.711-.463A.744.744,0,0,1,70.3,36.828Z" transform="translate(-43.148 -36.824)" fill="none" stroke="#2e3c4b" stroke-miterlimit="10" stroke-width="0.7"/>
        <path id="Path_1305" data-name="Path 1305" d="M37.877,157.429s-.356,13.539.918,14.846,49.3,1.668,49.941.906.558-15.552.558-15.552" transform="translate(-36.463 -62.211)" fill="none" stroke="#2e3c4b" stroke-miterlimit="10" stroke-width="0.7"/>
        <path id="Path_1306" data-name="Path 1306" d="M59.724,144" transform="translate(-41.071 -59.384)" fill="none" stroke="#2e3c4b" stroke-miterlimit="10" stroke-width="0.7"/>
        <path id="Path_1307" data-name="Path 1307" d="M80.748,143.985l.46,11.874-.46,14.787" transform="translate(-45.497 -59.381)" fill="none" stroke="#2e3c4b" stroke-miterlimit="10" stroke-width="0.7"/>
        <path id="Path_1308" data-name="Path 1308" d="M41.828,160.888a8.5,8.5,0,0,1,2.8,0c.191.218.446,3.649,0,3.975s-2.23.756-2.422.3S41.318,161.006,41.828,160.888Z" transform="translate(-37.266 -62.914)" fill="none" stroke="#2e3c4b" stroke-miterlimit="10" stroke-width="0.7"/>
        <path id="Path_1309" data-name="Path 1309" d="M50.5,160.694c.152-.442,2.612-.283,2.74,0s.382,4.253,0,4.393-2.294.351-2.485,0A20.262,20.262,0,0,1,50.5,160.694Z" transform="translate(-39.121 -62.841)" fill="none" stroke="#2e3c4b" stroke-miterlimit="10" stroke-width="0.7"/>
        <path id="Path_1310" data-name="Path 1310" d="M42.155,168.4c.261-.06,2.853-.327,2.8,0s.311,3.648,0,3.921-2.224,0-2.415,0S41.677,168.505,42.155,168.4Z" transform="translate(-37.337 -64.486)" fill="none" stroke="#2e3c4b" stroke-miterlimit="10" stroke-width="0.7"/>
        <path id="Path_1311" data-name="Path 1311" d="M50.727,168.21a6.2,6.2,0,0,1,2.23,0c.382.1.446,4.05.255,4.2a4.283,4.283,0,0,1-2.039,0C50.854,172.236,50.408,168.6,50.727,168.21Z" transform="translate(-39.154 -64.459)" fill="none" stroke="#2e3c4b" stroke-miterlimit="10" stroke-width="0.7"/>
        <line id="Line_645" data-name="Line 645" x2="3.113" transform="translate(4.495 100.007)" fill="none" stroke="#2e3c4b" stroke-miterlimit="10" stroke-width="0.7"/>
        <line id="Line_646" data-name="Line 646" x2="0.198" y2="4.387" transform="translate(5.997 97.859)" fill="none" stroke="#2e3c4b" stroke-miterlimit="10" stroke-width="0.7"/>
        <line id="Line_647" data-name="Line 647" y2="4.179" transform="translate(6.195 103.773)" fill="none" stroke="#2e3c4b" stroke-miterlimit="10" stroke-width="0.7"/>
        <line id="Line_648" data-name="Line 648" x2="2.966" y2="0.128" transform="translate(4.649 105.734)" fill="none" stroke="#2e3c4b" stroke-miterlimit="10" stroke-width="0.7"/>
        <line id="Line_649" data-name="Line 649" x2="2.983" y2="0.172" transform="translate(11.34 99.88)" fill="none" stroke="#2e3c4b" stroke-miterlimit="10" stroke-width="0.7"/>
        <line id="Line_650" data-name="Line 650" x2="0.175" y2="4.848" transform="translate(12.657 97.579)" fill="none" stroke="#2e3c4b" stroke-miterlimit="10" stroke-width="0.7"/>
        <line id="Line_651" data-name="Line 651" x2="0.194" y2="4.296" transform="translate(12.813 103.656)" fill="none" stroke="#2e3c4b" stroke-miterlimit="10" stroke-width="0.7"/>
        <line id="Line_652" data-name="Line 652" x2="2.616" y2="0.297" transform="translate(11.536 105.734)" fill="none" stroke="#2e3c4b" stroke-miterlimit="10" stroke-width="0.7"/>
        <path id="Path_1312" data-name="Path 1312" d="M99.131,172.7a8.5,8.5,0,0,1-2.8,0c-.192-.218-.446-3.648,0-3.975s2.23-.756,2.421-.3S99.641,172.585,99.131,172.7Z" transform="translate(-48.724 -64.485)" fill="none" stroke="#2e3c4b" stroke-miterlimit="10" stroke-width="0.7"/>
        <path id="Path_1313" data-name="Path 1313" d="M90.524,172.827c-.152.443-2.612.284-2.74,0s-.383-4.253,0-4.392,2.293-.351,2.485,0A20.2,20.2,0,0,1,90.524,172.827Z" transform="translate(-46.935 -64.488)" fill="none" stroke="#2e3c4b" stroke-miterlimit="10" stroke-width="0.7"/>
        <path id="Path_1314" data-name="Path 1314" d="M98.843,165.3c-.261.059-2.853.326-2.8,0s-.312-3.649,0-3.921,2.223,0,2.414,0S99.32,165.191,98.843,165.3Z" transform="translate(-48.69 -63.017)" fill="none" stroke="#2e3c4b" stroke-miterlimit="10" stroke-width="0.7"/>
        <path id="Path_1315" data-name="Path 1315" d="M90.376,165.427a6.239,6.239,0,0,1-2.23,0c-.382-.105-.446-4.051-.255-4.2a4.294,4.294,0,0,1,2.039,0C90.248,161.4,90.695,165.042,90.376,165.427Z" transform="translate(-46.978 -62.985)" fill="none" stroke="#2e3c4b" stroke-miterlimit="10" stroke-width="0.7"/>
        <line id="Line_653" data-name="Line 653" x1="3.113" transform="translate(47.362 106.185)" fill="none" stroke="#2e3c4b" stroke-miterlimit="10" stroke-width="0.7"/>
        <line id="Line_654" data-name="Line 654" x1="0.198" y1="4.387" transform="translate(48.775 103.947)" fill="none" stroke="#2e3c4b" stroke-miterlimit="10" stroke-width="0.7"/>
        <line id="Line_655" data-name="Line 655" y1="4.179" transform="translate(48.775 98.241)" fill="none" stroke="#2e3c4b" stroke-miterlimit="10" stroke-width="0.7"/>
        <line id="Line_656" data-name="Line 656" x1="2.966" y1="0.128" transform="translate(47.356 100.33)" fill="none" stroke="#2e3c4b" stroke-miterlimit="10" stroke-width="0.7"/>
        <line id="Line_657" data-name="Line 657" x1="2.983" y1="0.172" transform="translate(40.647 106.14)" fill="none" stroke="#2e3c4b" stroke-miterlimit="10" stroke-width="0.7"/>
        <line id="Line_658" data-name="Line 658" x1="0.175" y1="4.848" transform="translate(42.138 103.765)" fill="none" stroke="#2e3c4b" stroke-miterlimit="10" stroke-width="0.7"/>
        <line id="Line_659" data-name="Line 659" x1="0.194" y1="4.296" transform="translate(41.964 98.241)" fill="none" stroke="#2e3c4b" stroke-miterlimit="10" stroke-width="0.7"/>
        <line id="Line_660" data-name="Line 660" x1="2.616" y1="0.297" transform="translate(40.818 100.161)" fill="none" stroke="#2e3c4b" stroke-miterlimit="10" stroke-width="0.7"/>
        <line id="Line_661" data-name="Line 661" x2="0.235" y2="4.998" transform="translate(26.817 4.625)" fill="none" stroke="#2e3c4b" stroke-miterlimit="10" stroke-width="0.7"/>
        <line id="Line_662" data-name="Line 662" x1="0.297" y2="5.038" transform="translate(29.784 4.634)" fill="none" stroke="#2e3c4b" stroke-miterlimit="10" stroke-width="0.7"/>
        <line id="Line_663" data-name="Line 663" y1="1.205" x2="3.005" transform="translate(35.927 2.924)" fill="none" stroke="#2e3c4b" stroke-miterlimit="10" stroke-width="0.7"/>
        <line id="Line_664" data-name="Line 664" y1="0.242" x2="3.533" transform="translate(36.851 6.837)" fill="none" stroke="#2e3c4b" stroke-miterlimit="10" stroke-width="0.7"/>
        <line id="Line_665" data-name="Line 665" x2="2.196" y2="1.103" transform="translate(36.422 9.597)" fill="none" stroke="#2e3c4b" stroke-miterlimit="10" stroke-width="0.7"/>
        <line id="Line_666" data-name="Line 666" x1="2.085" y1="0.979" transform="translate(17.401 2.952)" fill="none" stroke="#2e3c4b" stroke-miterlimit="10" stroke-width="0.7"/>
        <line id="Line_667" data-name="Line 667" x1="3.42" y2="0.132" transform="translate(15.023 6.705)" fill="none" stroke="#2e3c4b" stroke-miterlimit="10" stroke-width="0.7"/>
        <line id="Line_668" data-name="Line 668" x1="2.113" y2="1.014" transform="translate(15.717 10.149)" fill="none" stroke="#2e3c4b" stroke-miterlimit="10" stroke-width="0.7"/>
        <path id="Path_1316" data-name="Path 1316" d="M55.584,154.521c-1.584.42-18.245.689-19.455-.342-.264-.225,1.243-8.922,1.64-9.45s15.862-.845,17.318-1.114" transform="translate(-36.098 -59.303)" fill="none" stroke="#2e3c4b" stroke-miterlimit="10" stroke-width="0.7"/>
        <path id="Path_1317" data-name="Path 1317" d="M80.748,143.979c.865-.178,15.781.729,16.79.992.706.185,2.211,8.919,1.85,9.622s-16.793.546-18.18.215" transform="translate(-45.497 -59.375)" fill="none" stroke="#2e3c4b" stroke-miterlimit="10" stroke-width="0.7"/>
        <path id="Path_1318" data-name="Path 1318" d="M69.511,170.309c-.05-.347-.058-3.76.995-3.981s.877,4.067.877,4.067Z" transform="translate(-43.128 -64.083)" fill="none" stroke="#2e3c4b" stroke-miterlimit="10" stroke-width="0.7"/>
      </g>
      <line id="Line_669" data-name="Line 669" y1="0.539" x2="1.149" transform="translate(89.435 37.109)" fill="none" stroke="#2e3c4b" stroke-miterlimit="10" stroke-width="0.7"/>
      <path id="Path_1319" data-name="Path 1319" d="M116.762,147.043l.94.915s-2.671-49.078-2.671-59.6S116.2,37.185,116.2,37.185l1.5,1.108" transform="translate(-25.615 -0.076)" fill="none" stroke="#2e3c4b" stroke-miterlimit="10" stroke-width="0.7"/>
      <line id="Line_670" data-name="Line 670" x1="1.106" y2="1.051" transform="translate(92.086 146.831)" fill="none" stroke="#2e3c4b" stroke-miterlimit="10" stroke-width="0.7"/>
      <path id="Path_1320" data-name="Path 1320" d="M125.558,96.4a3.929,3.929,0,0,0-4.821.048,5.48,5.48,0,0,0-1.919,4.638,9.269,9.269,0,0,0,1.881,4.8,4.351,4.351,0,0,0,1.726,1.566,1.849,1.849,0,0,0,2.156-.417,2.148,2.148,0,0,0,.285-1.692,3.718,3.718,0,0,0-2.085-2.76,2.821,2.821,0,0,0-3.261.759" transform="translate(-23.411 -12.296)" fill="none" stroke="#2e3c4b" stroke-miterlimit="10" stroke-width="0.7"/>
      <path id="Path_1321" data-name="Path 1321" d="M121.5,95.655l5.36.485a.445.445,0,0,1,.264.081.421.421,0,0,1,.105.278,5.7,5.7,0,0,1-.631,2.743c-1.227,2.834-2.9,5.506-3.641,8.5" transform="translate(-16.972 -12.162)" fill="none" stroke="#2e3c4b" stroke-miterlimit="10" stroke-width="0.7"/>
      <path id="Path_1322" data-name="Path 1322" d="M122.031,97.553a19.98,19.98,0,0,0,3.278-.078" transform="translate(-15.707 -7.812)" fill="none" stroke="#2e3c4b" stroke-miterlimit="10" stroke-width="0.7"/>
      <path id="Path_1323" data-name="Path 1323" d="M124.019,99.278a17.932,17.932,0,0,1-.844,2.383" transform="translate(-12.973 -3.502)" fill="none" stroke="#2e3c4b" stroke-miterlimit="10" stroke-width="0.7"/>
      <path id="Path_1324" data-name="Path 1324" d="M124.648,95.57l7.6.214a5.445,5.445,0,0,1-.739,2.78,41.583,41.583,0,0,0-3.234,10.642" transform="translate(-9.453 -12.366)" fill="none" stroke="#2e3c4b" stroke-miterlimit="10" stroke-width="0.7"/>
      <path id="Path_1325" data-name="Path 1325" d="M125.527,97.343a28.428,28.428,0,0,0,3.875-.078" transform="translate(-7.352 -8.313)" fill="none" stroke="#2e3c4b" stroke-miterlimit="10" stroke-width="0.7"/>
      <path id="Path_1326" data-name="Path 1326" d="M127.27,98.134c.217,1.9.776,5.611,1.071,5.618.261.017.024-1.916.268-2.838a3.9,3.9,0,0,1,1.549-2.322c1.288.763,1.617,2.448,1.817,3.929a4.41,4.41,0,0,1,.237-2.424,2.806,2.806,0,0,1,1.749-1.624,1.589,1.589,0,0,1,.973.007,1.708,1.708,0,0,1,.868.888c.573,1.187.312,2.6.624,3.875" transform="translate(-3.186 -6.237)" fill="none" stroke="#2e3c4b" stroke-miterlimit="10" stroke-width="0.7"/>
    </g>
  </g>
</svg>
