<svg xmlns="http://www.w3.org/2000/svg" width="310.383" height="332.991" viewBox="0 0 310.383 332.991">
  <g id="Group_390" data-name="Group 390" transform="translate(-638.21 -538.593)">
    <g id="Group_296" data-name="Group 296" transform="translate(638.21 538.593)">
      <g id="CIEKAWOSTKA">
        <path id="Path_1283" data-name="Path 1283" d="M650.835,554.143c19.078-23.8,269.48-17.425,283.69,0S955.1,831.671,939.54,853.09s-274.284,24.534-288.708,7.773S631.756,577.939,650.835,554.143Z" transform="translate(-638.21 -538.593)" fill="#e5a34c"/>
        <g id="CIEKAWOSTKA-2" transform="translate(88.993 24.095)" style="isolation: isolate">
          <text id="CIEKAWOSTKA-2-2" data-name="CIEKAWOSTKA" transform="translate(0 15)" fill="#2e3c4b" font-size="19" font-family="SulphurPoint-Bold, Sulphur Point" font-weight="700" letter-spacing="0.025em" style="isolation: isolate"><tspan x="0" y="0">CIEKAWOSTKA</tspan></text>
        </g>
        <rect id="Rectangle_45" data-name="Rectangle 45" width="11.166" height="2.234" transform="translate(144.17 46.426)" fill="#ae4426"/>
        <g id="Group_181" data-name="Group 181" transform="translate(69.499 65.413)">
          <path id="Path_1327" data-name="Path 1327" d="M727.023,653.869c4.934-13.494,16.534-41.311,39.053-41.81s84.362-2.683,100.074,16.146,18.489,33.511,16.172,63.208-10.286,46.938-19.678,62.736-49.375,27.973-85.31,26.573-62.109-22.7-61.412-51.863,13.265-33.055,11.1-45.724S722.089,667.363,727.023,653.869Z" transform="translate(-715.908 -611.723)" fill="#f2edeb"/>
        </g>
        <text id="Latarnia_w_Jastarni_jest_najniższa_ze_wszystkich_latarni_na_polskim_wybrzeżu" data-name="Latarnia w Jastarni
jest najniższa ze wszystkich
latarni na polskim wybrzeżu" transform="translate(143.709 258.355)" fill="#2e3c4b" font-size="17" font-family="ClarikaProGeo-Th, Clarika Pro Geometric" letter-spacing="0.025em" style="isolation: isolate"><tspan x="-69.7" y="0">Latarnia w Jastarni</tspan><tspan x="-105.803" y="20">jest </tspan><tspan y="20" font-family="ClarikaProGeo-Dm, Clarika Pro Geometric">najniższa </tspan><tspan y="20">ze wszystkich</tspan><tspan x="-102.737" y="40">latarni na polskim wybrzeżu</tspan></text>
      </g>
      <g id="jastarnia" transform="translate(131.175 85.711)">
        <path id="Path_2024" data-name="Path 2024" d="M803.369,767.367c-3.613,0-7.954-.136-9.015-.754-.427-.25-.634-2.794-.618-7.564a58.018,58.018,0,0,1,.372-7.872l.341.126c-.41,1.1-.56,14.358.1,15,2.174,1.266,20.11.519,21.275.165a124.628,124.628,0,0,0,.191-14.995l.356-.071c.173.867.263,14.783-.285,15.332-.319.319-6.894.558-10.177.609C805.15,767.359,804.283,767.367,803.369,767.367Z" transform="translate(-785.797 -646.736)" fill="#2e3c4b"/>
        <path id="Path_2025" data-name="Path 2025" d="M812.467,739.9l-.363,0c0-.3.364-29.969-.006-43.681s-.379-33.737-.379-33.937h.363c0,.2.008,20.215.379,33.927S812.47,739.6,812.467,739.9Z" transform="translate(-787.695 -637.355)" fill="#2e3c4b"/>
        <path id="Path_2026" data-name="Path 2026" d="M799.44,740.161l-.363-.013c0-.106.361-10.747-.009-24.826-.354-13.459-.932-51.259-.544-53.2l.355.072c-.364,1.821.154,38,.552,53.118C799.8,729.4,799.443,740.055,799.44,740.161Z" transform="translate(-786.289 -637.339)" fill="#2e3c4b"/>
        <path id="Path_2027" data-name="Path 2027" d="M798.5,660.294c-.1-.57-.131-2.578-.164-4.7-.028-1.708-.055-3.473-.12-4.6a58.945,58.945,0,0,1,.066-6.827l.344.113a62.133,62.133,0,0,0-.048,6.693c.064,1.131.093,2.9.12,4.612.034,2.111.066,4.1.159,4.647Z" transform="translate(-786.262 -635.444)" fill="#2e3c4b"/>
        <path id="Path_2028" data-name="Path 2028" d="M812.078,660.259l-.362-.025c.432-6.2,1.026-15.6.9-16.125l.346-.108C813.16,644.632,812.189,658.661,812.078,660.259Z" transform="translate(-787.694 -635.427)" fill="#2e3c4b"/>
        <path id="Path_2029" data-name="Path 2029" d="M810.234,663.406l-.132-.338c1.27-.5,3.354-1.472,3.539-1.963a47.453,47.453,0,0,0,.9-7.985c-1.352-.17-18.964-.012-19.954.185-.3.621.155,6.939.31,7.541a19.6,19.6,0,0,0,3.345,1.773l-.15.331c-1.565-.714-3.452-1.643-3.547-2.013-.018-.07-.819-7.547-.156-7.944.608-.365,20.215-.25,20.336-.2.69.272-.712,8.365-.741,8.441C813.686,662.018,810.809,663.181,810.234,663.406Z" transform="translate(-785.838 -636.348)" fill="#2e3c4b"/>
        <path id="Path_2030" data-name="Path 2030" d="M803.741,657.837c-2.777,0-8.965-.677-9.243-.708l.039-.361c.072.008,7.216.791,9.655.7.072-.006,7.993-.606,10.354-.7l.014.362c-2.354.093-10.268.693-10.347.7Q804,657.837,803.741,657.837Z" transform="translate(-785.877 -636.774)" fill="#2e3c4b"/>
        <path id="Path_2031" data-name="Path 2031" d="M803.323,662.432a38.317,38.317,0,0,1-5.065-.2c-2.253-.441-3.745-.75-3.745-.75l.073-.355s1.492.31,3.741.75c1.1.216,5.276.251,11.754.1,2.174-.051,3.765-.1,3.766-.1l.012.363s-1.593.053-3.769.1S805.451,662.432,803.323,662.432Z" transform="translate(-785.879 -637.234)" fill="#2e3c4b"/>
        <path id="Path_2032" data-name="Path 2032" d="M801.783,643.438c-2.121,0-4.552-.089-5.1-.416-.1-.059-.2-.191-.129-.479.39-1.506,6.269-8.075,8-8.128h0c.112.007.309-.007,4.005,3.853,1.751,1.83,3.773,4.012,4.07,4.477a.257.257,0,0,1,.043.256c-.091.183-.292.233-4.554.291-1.33.018-2.586.035-3.223.076C804.365,643.4,803.136,643.438,801.783,643.438Zm2.745-8.658c-1.2.112-4.888,3.88-6.706,6.329-.992,1.337-.933,1.617-.929,1.629.672.386,6.014.394,7.98.267.646-.041,1.906-.058,3.242-.077,1.5-.021,3.486-.047,4.117-.122C811.315,641.6,805.173,635.186,804.528,634.781Z" transform="translate(-786.092 -634.415)" fill="#2e3c4b"/>
        <path id="Path_2033" data-name="Path 2033" d="M805.928,716.53a2.5,2.5,0,0,1-2.155-1.187c-.3-.969,1.483-1.674,1.688-1.752l.064-.012a1,1,0,0,1,.761.386,2.742,2.742,0,0,1,.495,2.01.7.7,0,0,1-.732.551C806.01,716.528,805.969,716.53,805.928,716.53Zm-.371-2.587c-.461.181-1.6.758-1.437,1.292a2.208,2.208,0,0,0,1.9.928c.242-.017.376-.1.4-.246a2.378,2.378,0,0,0-.412-1.717A.651.651,0,0,0,805.556,713.943Z" transform="translate(-786.852 -642.769)" fill="#2e3c4b"/>
        <path id="Path_2034" data-name="Path 2034" d="M802.437,767.921l-.363-.01c.009-.328.215-8.066.426-8.88.065-.253.364-.432.941-.566,1.336-.309,4.571-.324,5,.176s.782,7.175.881,9.209l-.362.018c-.159-3.259-.517-8.584-.8-8.994-.266-.281-3.271-.408-4.734-.032-.534.137-.575.274-.576.28C802.69,759.741,802.51,765.148,802.437,767.921Z" transform="translate(-786.677 -647.482)" fill="#2e3c4b"/>
        <path id="Path_2035" data-name="Path 2035" d="M800.056,771.594c-4.681,0-7.126-.124-7.286-.372-.4-.615.987-2.518,1.422-3.087l.289.22c-.794,1.039-1.532,2.319-1.42,2.641,1.214.435,23.624.159,24.581-.309a.109.109,0,0,0,.066-.1c.02-.416-1.14-1.446-1.969-2.045l.212-.294c.36.26,2.156,1.595,2.119,2.356a.471.471,0,0,1-.248.4c-.677.394-12.182.547-12.671.554Q802.272,771.594,800.056,771.594Z" transform="translate(-785.688 -648.526)" fill="#2e3c4b"/>
        <path id="Path_2036" data-name="Path 2036" d="M800.886,652.17c-.106-.577.584-7.007.663-7.739l.361.039c-.308,2.851-.741,7.237-.667,7.634Z" transform="translate(-786.55 -635.472)" fill="#2e3c4b"/>
        <path id="Path_2037" data-name="Path 2037" d="M806.041,652.036l-.353-.086c.1-.422.044-4.852-.021-7.725l.363-.008C806.046,644.954,806.187,651.431,806.041,652.036Z" transform="translate(-787.056 -635.449)" fill="#2e3c4b"/>
        <path id="Path_2038" data-name="Path 2038" d="M810.137,652.038l-.351-.091c.093-.373-.4-4.919-.726-7.7l.361-.043C809.564,645.421,810.277,651.5,810.137,652.038Z" transform="translate(-787.414 -635.448)" fill="#2e3c4b"/>
        <path id="Path_2039" data-name="Path 2039" d="M809.228,751.593c-7.25,0-16.656-.217-17.165-.538a1.013,1.013,0,0,1-.485-.642,1.253,1.253,0,0,1,.165-.863c.3-.5,2.745-.539,8.1-.435,1.179.023,2.2.043,2.781.03s1.848-.068,3.436-.137c6.867-.3,10.423-.413,10.8-.207a2.57,2.57,0,0,1,.975,1.727.868.868,0,0,1-.253.791C817.354,751.51,813.7,751.593,809.228,751.593Zm-17.176-1.852a.9.9,0,0,0-.119.6.669.669,0,0,0,.322.411c.911.433,24.157.691,25.12.276a.58.58,0,0,0,.1-.463,2.219,2.219,0,0,0-.788-1.444c-.47-.189-7.065.1-10.608.252-1.589.07-2.844.124-3.444.138s-1.614-.007-2.8-.03c-2.593-.05-7.419-.146-7.787.258l0,.005Z" transform="translate(-785.567 -646.474)" fill="#2e3c4b"/>
        <rect id="Rectangle_204" data-name="Rectangle 204" width="3.735" height="0.363" transform="translate(31.076 7.441) rotate(-24.584)" fill="#2e3c4b"/>
        <path id="Path_2040" data-name="Path 2040" d="M820.917,646.719l-.018-.362,4.432-.23.018.362Z" transform="translate(-788.663 -635.651)" fill="#2e3c4b"/>
        <rect id="Rectangle_205" data-name="Rectangle 205" width="0.363" height="2.986" transform="translate(31.704 13.813) rotate(-63.68)" fill="#2e3c4b"/>
        <rect id="Rectangle_206" data-name="Rectangle 206" width="0.363" height="3.88" transform="translate(1.501 5.934) rotate(-69.144)" fill="#2e3c4b"/>
        <rect id="Rectangle_207" data-name="Rectangle 207" width="0.363" height="3.864" transform="matrix(0.06, -0.998, 0.998, 0.06, 0, 10.608)" fill="#2e3c4b"/>
        <rect id="Rectangle_208" data-name="Rectangle 208" width="3.297" height="0.363" transform="translate(0.798 15.788) rotate(-24.764)" fill="#2e3c4b"/>
      </g>
      <path id="Path_2041" data-name="Path 2041" d="M806.782,706.459c-3.475,0-7.5-.047-7.559-.048l0-.358c.091,0,9.145.111,11.8,0l.014.358C810.147,706.447,808.534,706.459,806.782,706.459Z" transform="translate(-655.201 -556.264)" fill="#2e3c4b"/>
      <path id="Path_2042" data-name="Path 2042" d="M807.661,729.207c-3.354,0-7.694-.079-7.969-.084l.006-.358c.1,0,10.2.185,11.637,0l.046.354C810.88,729.185,809.4,729.207,807.661,729.207Z" transform="translate(-655.25 -558.661)" fill="#2e3c4b"/>
      <path id="Path_2043" data-name="Path 2043" d="M806.938,683.533c-3.429,0-7.777-.079-8.051-.084l.006-.358c.1,0,10.2.187,11.906,0l.038.356C810.249,683.512,808.717,683.533,806.938,683.533Z" transform="translate(-655.165 -553.841)" fill="#2e3c4b"/>
      <path id="Path_2044" data-name="Path 2044" d="M842.962,757.61H842.6V636.53l-2.529,2.649-.263-.243,2.972-3.318.093.107.084-.088v.184l2.828,3.247-.27.236-2.559-2.938Z" transform="translate(-659.484 -548.831)" fill="#2e3c4b"/>
      <path id="Path_2045" data-name="Path 2045" d="M842.855,772.268l-2.352-4.056.309-.18,2.08,3.587,2.693-3.6.286.215Z" transform="translate(-659.557 -562.802)" fill="#2e3c4b"/>
      <g id="Group_295" data-name="Group 295" transform="translate(187.829 132.357)">
        <path id="Path_2046" data-name="Path 2046" d="M850.932,701.3l-.1-8.847a44.362,44.362,0,0,0-.206-4.523,1.865,1.865,0,0,0-.211-.767l-1.89,4.486-.329-.14,2.081-4.94.182.128a1.59,1.59,0,0,1,.522,1.192,44.385,44.385,0,0,1,.208,4.559l.1,8.848Z" transform="translate(-848.198 -686.564)" fill="#2e3c4b"/>
        <path id="Path_2047" data-name="Path 2047" d="M857.5,702.154a35.623,35.623,0,0,1,1.051-8.991c.074-.3.152-.6.231-.9a14.308,14.308,0,0,0,.685-4.539.469.469,0,0,0-.079-.288.439.439,0,0,0-.281-.066l-5.193-.19.013-.359,5.194.19a.735.735,0,0,1,.519.171.758.758,0,0,1,.184.519,14.6,14.6,0,0,1-.7,4.654c-.078.3-.156.595-.23.892a35.336,35.336,0,0,0-1.04,8.9Z" transform="translate(-848.801 -686.591)" fill="#2e3c4b"/>
        <path id="Path_2048" data-name="Path 2048" d="M856.013,695.761l-.018-.358a46.824,46.824,0,0,0,4.682-.46l.052.355C859.174,695.53,857.587,695.685,856.013,695.761Z" transform="translate(-849.021 -687.448)" fill="#2e3c4b"/>
        <path id="Path_2049" data-name="Path 2049" d="M866.292,702.772l-1-6.233.353-.056.759,4.717a14.524,14.524,0,0,1,1.615-3.956.579.579,0,0,1,.28-.3c.251-.1.509.081.657.454a21.807,21.807,0,0,1,1.067,3.548,11.65,11.65,0,0,0,.871-2.63l.022-.1a2.8,2.8,0,0,1,.4-1.131.646.646,0,0,1,.378-.28c.252-.055.493.088.72.422a8.669,8.669,0,0,1,1.465,4.191l-.356.028a8.323,8.323,0,0,0-1.4-4.018c-.133-.2-.259-.3-.349-.274a.323.323,0,0,0-.165.141,2.564,2.564,0,0,0-.341.99l-.021.106a12.07,12.07,0,0,1-1.136,3.191l-.241.457-.094-.508a21.525,21.525,0,0,0-1.151-4c-.071-.177-.162-.264-.195-.253s-.073.092-.094.131c-.8,1.506-1.8,3.384-1.685,5.32Z" transform="translate(-850.002 -687.611)" fill="#2e3c4b"/>
      </g>
    </g>
  </g>
</svg>
