<svg xmlns="http://www.w3.org/2000/svg" width="302.926" height="324.871" viewBox="0 0 302.926 324.871">
  <g id="Group_355" transform="translate(-1070.833 -555.811)">
    <g id="CIEKAWOSTKA" transform="translate(1070.833 555.811)">
      <path id="Path_1283" d="M1083.2,570.987c18.589-23.215,262.958-17.019,276.834,0s20.073,270.813,4.887,291.671-267.583,23.913-281.722,7.593S1064.521,594.289,1083.2,570.987Z" transform="translate(-1070.833 -555.811)" fill="#e5a34c"/>
      <g id="CIEKAWOSTKA-2" transform="translate(87.507 25.387)">
        <g id="Group_435" data-name="Group 435">
          <path id="Path_2396" data-name="Path 2396" d="M1175.115,597.468a6.419,6.419,0,0,1-3.491-3.491,5.968,5.968,0,0,1-.524-2.531,6.26,6.26,0,0,1,.524-2.531,6.419,6.419,0,0,1,3.491-3.491,6.135,6.135,0,0,1,5.149.087,6.586,6.586,0,0,1,2.269,1.833l-1.309,1.135a4.748,4.748,0,0,0-3.753-1.833,4.35,4.35,0,0,0-3.316,1.4,5.73,5.73,0,0,0-1.047,1.484,4.985,4.985,0,0,0,0,3.665,4.563,4.563,0,0,0,1.047,1.484,5.732,5.732,0,0,0,1.484,1.047,4.292,4.292,0,0,0,1.833.349,4.875,4.875,0,0,0,3.753-1.833l1.309,1.135a7.831,7.831,0,0,1-2.356,1.833,5.847,5.847,0,0,1-2.705.611A3.83,3.83,0,0,1,1175.115,597.468Z" transform="translate(-1171.1 -584.9)" fill="#2e3c4b"/>
          <path id="Path_2397" data-name="Path 2397" d="M1186.9,597.942V585.2h1.571v12.742Z" transform="translate(-1173.11 -584.938)" fill="#2e3c4b"/>
          <path id="Path_2398" data-name="Path 2398" d="M1191.5,597.942V585.2h6.982v1.745h-5.324v3.84h3.578v1.571h-3.578v3.84h5.324v1.745H1191.5Z" transform="translate(-1173.696 -584.938)" fill="#2e3c4b"/>
          <path id="Path_2399" data-name="Path 2399" d="M1208.06,597.942l-4.1-4.713v4.713H1202.3V585.2h1.658v4.887l4.015-4.887h2.269l-5.411,6.458,5.5,6.284h-2.269Z" transform="translate(-1175.07 -584.938)" fill="#2e3c4b"/>
          <path id="Path_2400" data-name="Path 2400" d="M1221.689,597.942l-1.571-4.451H1216.1l-1.571,4.451H1212.7l4.451-12.742h1.92l4.451,12.742Zm-3.578-10.3-1.484,4.189h2.88Z" transform="translate(-1176.394 -584.938)" fill="#2e3c4b"/>
          <path id="Path_2401" data-name="Path 2401" d="M1236.344,597.929H1234.6l-2.007-5.411-1.92,5.411h-1.745L1224.3,585.1h1.833l3.578,10.037,1.833-5.236-1.745-4.8h1.833l1.658,4.713,1.92,5.324L1238.7,585.1h1.833Z" transform="translate(-1177.87 -584.925)" fill="#2e3c4b"/>
          <path id="Path_2402" data-name="Path 2402" d="M1248.227,597.593a5.536,5.536,0,0,1-2.007-1.4,6.773,6.773,0,0,1-1.4-2.095,5.963,5.963,0,0,1,0-4.887,6.772,6.772,0,0,1,1.4-2.095,7.572,7.572,0,0,1,2.007-1.4,5.964,5.964,0,0,1,4.887,0,6.417,6.417,0,0,1,3.491,3.491,5.963,5.963,0,0,1,0,4.887,6.418,6.418,0,0,1-3.491,3.491,5.857,5.857,0,0,1-2.444.524A12.233,12.233,0,0,1,1248.227,597.593Zm.7-10.3a4.565,4.565,0,0,0-1.484,1.047,5.728,5.728,0,0,0-1.047,1.484,4.292,4.292,0,0,0-.349,1.833,4.557,4.557,0,0,0,.349,1.833,6.213,6.213,0,0,0,.96,1.484,5.738,5.738,0,0,0,1.484,1.047,4.292,4.292,0,0,0,1.833.349,4.35,4.35,0,0,0,3.316-1.4,3.944,3.944,0,0,0,.96-1.484,4.556,4.556,0,0,0-1.047-5.149,5.733,5.733,0,0,0-1.484-1.047,4.048,4.048,0,0,0-1.833-.349A4.345,4.345,0,0,0,1248.926,587.295Z" transform="translate(-1180.415 -584.938)" fill="#2e3c4b"/>
          <path id="Path_2403" data-name="Path 2403" d="M1267.533,587.893a2.475,2.475,0,0,0-.873-.785,2.915,2.915,0,0,0-1.309-.262,2.555,2.555,0,0,0-1.833.524,1.919,1.919,0,0,0-.524,1.484,2.582,2.582,0,0,0,.175.873.894.894,0,0,0,.436.524,4.311,4.311,0,0,0,1.484.436q1.047.131,1.833.262a10.174,10.174,0,0,1,1.309.524,2.99,2.99,0,0,1,1.4,2.793,3.615,3.615,0,0,1-.262,1.4,3.319,3.319,0,0,1-.786,1.135,3.2,3.2,0,0,1-1.484.873,5.628,5.628,0,0,1-1.746.262,4.3,4.3,0,0,1-3.229-1.135A4.156,4.156,0,0,1,1260.9,594h1.658a2.166,2.166,0,0,0,.7,1.484,2.945,2.945,0,0,0,2.007.7,3.136,3.136,0,0,0,1.92-.524,1.822,1.822,0,0,0,.7-1.4,1.7,1.7,0,0,0-.087-.7,1.162,1.162,0,0,0-.436-.524,4.644,4.644,0,0,0-2.444-.611,4.5,4.5,0,0,1-2.793-1.047,3.492,3.492,0,0,1-.96-2.531,3.616,3.616,0,0,1,1.047-2.706,4.106,4.106,0,0,1,2.967-1.047,4.274,4.274,0,0,1,3.142,1.222,5.483,5.483,0,0,1,1.222,2.793h-1.745A2.311,2.311,0,0,0,1267.533,587.893Z" transform="translate(-1182.528 -584.925)" fill="#2e3c4b"/>
          <path id="Path_2404" data-name="Path 2404" d="M1276.913,586.758v11.171h-1.658V586.758H1272.2V585.1h7.855v1.658Z" transform="translate(-1183.966 -584.925)" fill="#2e3c4b"/>
          <path id="Path_2405" data-name="Path 2405" d="M1289.56,597.942l-4.1-4.713v4.713H1283.8V585.2h1.658v4.887l4.015-4.887h2.269l-5.411,6.458,5.5,6.284h-2.269Z" transform="translate(-1185.442 -584.938)" fill="#2e3c4b"/>
          <path id="Path_2406" data-name="Path 2406" d="M1303.189,597.942l-1.571-4.451H1297.6l-1.571,4.451H1294.2l4.451-12.742h1.92l4.451,12.742Zm-3.578-10.3-1.484,4.189h2.88Z" transform="translate(-1186.765 -584.938)" fill="#2e3c4b"/>
        </g>
      </g>
      <rect id="Rectangle_45" width="10.909" height="2.182" transform="translate(140.657 45.373)" fill="#ae4426"/>
      <g id="Group_181" transform="translate(67.86 63.917)">
        <path id="Path_1327" d="M1159.42,670.112c4.8-13.178,16.146-40.321,38.139-40.757s82.3-2.618,97.66,15.8,18.066,32.728,15.8,61.7-10.036,45.819-19.2,61.179-48.176,27.317-83.26,25.921-60.568-22.168-59.957-50.619,12.917-32.292,10.822-44.6S1154.62,683.291,1159.42,670.112Z" transform="translate(-1148.588 -629.048)" fill="#f2edeb"/>
      </g>
      <g id="Group_436" data-name="Group 436" transform="translate(63.681 240.868)">
        <path id="Path_2407" data-name="Path 2407" d="M1149.3,843.422v.611h-5.5V832.6h.611v10.822Z" transform="translate(-1143.8 -831.902)" fill="#2e3c4b"/>
        <path id="Path_2408" data-name="Path 2408" d="M1159.493,836.762v7.767h-.524l-.087-2.007a3.434,3.434,0,0,1-3.229,2.095,3.792,3.792,0,0,1-3.753-4.015,3.857,3.857,0,0,1,3.665-4.1,3.479,3.479,0,0,1,3.229,2.095l.087-1.92h.611Zm-.524,3.84a3.2,3.2,0,1,0-6.371,0,3.341,3.341,0,0,0,3.229,3.491A3.275,3.275,0,0,0,1158.969,840.6Z" transform="translate(-1144.831 -832.398)" fill="#2e3c4b"/>
        <path id="Path_2409" data-name="Path 2409" d="M1167.253,836.98h-2.007v7.244h-.611V836.98H1163.5v-.524h1.135V834.1h.611v2.356h2.007Z" transform="translate(-1146.307 -832.093)" fill="#2e3c4b"/>
        <path id="Path_2410" data-name="Path 2410" d="M1177.293,836.762v7.767h-.524l-.087-2.007a3.434,3.434,0,0,1-3.229,2.095,3.792,3.792,0,0,1-3.753-4.015,3.857,3.857,0,0,1,3.666-4.1,3.479,3.479,0,0,1,3.229,2.095l.087-1.92h.611Zm-.611,3.84a3.2,3.2,0,1,0-6.371,0,3.341,3.341,0,0,0,3.229,3.491A3.222,3.222,0,0,0,1176.682,840.6Z" transform="translate(-1147.096 -832.398)" fill="#2e3c4b"/>
        <path id="Path_2411" data-name="Path 2411" d="M1185.129,836.587l-.087.611c-.175,0-.349-.087-.524-.087-1.222,0-2.007.96-2.007,2.444v4.887h-.611v-7.767h.524l.087,1.571a2.331,2.331,0,0,1,2.182-1.745A.653.653,0,0,0,1185.129,836.587Z" transform="translate(-1148.648 -832.398)" fill="#2e3c4b"/>
        <path id="Path_2412" data-name="Path 2412" d="M1194.084,839.991v4.538h-.611v-4.451c0-2.007-1.047-2.967-2.444-2.967a2.641,2.641,0,0,0-2.618,2.706v4.713h-.611v-7.767h.524l.087,1.658a2.833,2.833,0,0,1,2.706-1.92C1192.513,836.587,1194.084,837.285,1194.084,839.991Z" transform="translate(-1149.399 -832.398)" fill="#2e3c4b"/>
        <path id="Path_2413" data-name="Path 2413" d="M1198.3,833.811a.611.611,0,1,1,.611.611A.656.656,0,0,1,1198.3,833.811Zm.262,2.531h.611v7.767h-.611Z" transform="translate(-1150.735 -831.978)" fill="#2e3c4b"/>
        <path id="Path_2414" data-name="Path 2414" d="M1210.093,836.762v7.767h-.524l-.087-2.007a3.434,3.434,0,0,1-3.229,2.095,3.792,3.792,0,0,1-3.753-4.015,3.857,3.857,0,0,1,3.665-4.1,3.479,3.479,0,0,1,3.229,2.095l.087-1.92h.611Zm-.611,3.84a3.2,3.2,0,1,0-6.371,0,3.341,3.341,0,0,0,3.229,3.491A3.222,3.222,0,0,0,1209.482,840.6Z" transform="translate(-1151.27 -832.398)" fill="#2e3c4b"/>
        <path id="Path_2415" data-name="Path 2415" d="M1230.746,836.8l-2.967,7.767h-.524l-2.182-6.982-2.182,6.982h-.524L1219.4,836.8h.7l2.531,6.982,2.182-6.982h.524l2.182,6.895,2.531-6.895Z" transform="translate(-1153.421 -832.436)" fill="#2e3c4b"/>
        <path id="Path_2416" data-name="Path 2416" d="M1240.1,843.247l.349-.524a1.938,1.938,0,0,0,1.745.873c1.135,0,1.833-.873,1.833-2.269V832.6h.611v8.64c0,2.007-1.047,2.88-2.531,2.88A2.307,2.307,0,0,1,1240.1,843.247Z" transform="translate(-1156.055 -831.902)" fill="#2e3c4b"/>
        <path id="Path_2417" data-name="Path 2417" d="M1255.893,836.762v7.767h-.524l-.087-2.007a3.434,3.434,0,0,1-3.229,2.095,3.792,3.792,0,0,1-3.753-4.015,3.857,3.857,0,0,1,3.666-4.1,3.479,3.479,0,0,1,3.229,2.095l.087-1.92h.611Zm-.524,3.84a3.2,3.2,0,1,0-6.371,0,3.341,3.341,0,0,0,3.229,3.491A3.275,3.275,0,0,0,1255.369,840.6Z" transform="translate(-1157.098 -832.398)" fill="#2e3c4b"/>
        <path id="Path_2418" data-name="Path 2418" d="M1263.729,836.587l-.087.611c-.174,0-.349-.087-.524-.087-1.222,0-2.007.96-2.007,2.444v4.887h-.611v-7.767h.524l.087,1.571a2.331,2.331,0,0,1,2.182-1.745A.948.948,0,0,0,1263.729,836.587Z" transform="translate(-1158.651 -832.398)" fill="#2e3c4b"/>
        <path id="Path_2419" data-name="Path 2419" d="M1265.6,840.6a4.024,4.024,0,0,1,4.015-4.1,4.058,4.058,0,0,1,0,8.117A3.9,3.9,0,0,1,1265.6,840.6Zm7.418,0a3.4,3.4,0,1,0-3.4,3.491A3.324,3.324,0,0,0,1273.018,840.6Z" transform="translate(-1159.3 -832.398)" fill="#2e3c4b"/>
        <path id="Path_2420" data-name="Path 2420" d="M1277.524,843.058a2.473,2.473,0,0,0,2.182,1.135c1.222,0,2.007-.611,2.007-1.658,0-2.444-4.276-.96-4.364-3.84,0-1.309.96-2.095,2.444-2.095a3.214,3.214,0,0,1,2.269.873l-.349.436a2.276,2.276,0,0,0-1.92-.7c-1.135,0-1.833.611-1.833,1.571,0,2.356,4.364.873,4.364,3.84,0,1.4-1.135,2.182-2.706,2.182a3.138,3.138,0,0,1-2.618-1.222Z" transform="translate(-1160.75 -832.411)" fill="#2e3c4b"/>
        <path id="Path_2421" data-name="Path 2421" d="M1287.793,837.036l-1.135.873v6.022h-.611v-5.586l-1.047.873v-.524l1.047-.873V831.8h.611v5.5l1.135-.873Z" transform="translate(-1161.768 -831.8)" fill="#2e3c4b"/>
        <path id="Path_2422" data-name="Path 2422" d="M1297.493,836.762v7.767h-.524l-.087-2.007a3.434,3.434,0,0,1-3.229,2.095,3.792,3.792,0,0,1-3.753-4.015,3.857,3.857,0,0,1,3.666-4.1,3.479,3.479,0,0,1,3.229,2.095l.087-1.92h.611Zm-.611,3.84a3.2,3.2,0,1,0-6.371,0,3.341,3.341,0,0,0,3.229,3.491A3.222,3.222,0,0,0,1296.882,840.6Z" transform="translate(-1162.392 -832.398)" fill="#2e3c4b"/>
        <path id="Path_2423" data-name="Path 2423" d="M1312.346,836.8l-2.967,7.767h-.524l-2.182-6.982-2.182,6.982h-.524L1301,836.8h.7l2.531,6.982,2.182-6.982h.524l2.182,6.895,2.531-6.895Z" transform="translate(-1163.805 -832.436)" fill="#2e3c4b"/>
        <path id="Path_2424" data-name="Path 2424" d="M1315.7,840.615a3.877,3.877,0,0,1,3.927-4.015,4.224,4.224,0,0,1,2.531.873l-.349.436a2.831,2.831,0,0,0-2.095-.786,3.3,3.3,0,0,0-3.317,3.491,3.208,3.208,0,0,0,3.317,3.491,2.831,2.831,0,0,0,2.095-.786l.349.436a4.224,4.224,0,0,1-2.531.873A3.78,3.78,0,0,1,1315.7,840.615Z" transform="translate(-1165.675 -832.411)" fill="#2e3c4b"/>
        <path id="Path_2425" data-name="Path 2425" d="M1325.7,841.425V836.8h.611v4.625c0,1.745.873,2.793,2.531,2.793,1.571,0,2.531-1.047,2.531-2.793V836.8h.611v4.625c0,2.618-1.658,3.316-3.055,3.316A2.984,2.984,0,0,1,1325.7,841.425Z" transform="translate(-1166.948 -832.436)" fill="#2e3c4b"/>
      </g>
      <g id="Group_437" data-name="Group 437" transform="translate(47.099 261.726)">
        <path id="Path_2426" data-name="Path 2426" d="M1124.8,871.775v-.524c1.484.175,2.007-.524,2.007-1.833v-9.077h.611v9.077C1127.505,871.513,1126.2,871.949,1124.8,871.775Zm1.745-13.964a.611.611,0,1,1,.611.611A.656.656,0,0,1,1126.546,857.811Z" transform="translate(-1124.8 -855.891)" fill="#2e3c4b"/>
        <path id="Path_2427" data-name="Path 2427" d="M1131.7,864.515h0c0,2.095,1.222,3.666,3.316,3.666a3.043,3.043,0,0,0,2.531-1.135l.436.349a4.268,4.268,0,0,1-3.055,1.222,3.874,3.874,0,0,1-3.927-4.189,3.767,3.767,0,0,1,3.753-3.927,3.538,3.538,0,0,1,3.578,3.578v.349H1131.7Zm.087-.524h6.022a2.87,2.87,0,0,0-2.967-2.88A3,3,0,0,0,1131.786,863.991Z" transform="translate(-1125.589 -856.311)" fill="#2e3c4b"/>
        <path id="Path_2428" data-name="Path 2428" d="M1142.224,867.058a2.474,2.474,0,0,0,2.182,1.135c1.222,0,2.007-.611,2.007-1.658,0-2.444-4.276-.96-4.364-3.84,0-1.309.96-2.095,2.444-2.095a3.214,3.214,0,0,1,2.269.873l-.349.436a2.276,2.276,0,0,0-1.92-.7c-1.135,0-1.833.611-1.833,1.571,0,2.356,4.364.873,4.364,3.84,0,1.4-1.135,2.182-2.706,2.182a3.138,3.138,0,0,1-2.618-1.222Z" transform="translate(-1126.951 -856.324)" fill="#2e3c4b"/>
        <path id="Path_2429" data-name="Path 2429" d="M1154.053,860.98h-2.007v7.244h-.611V860.98H1150.3v-.524h1.135V858.1h.611v2.356h2.007Z" transform="translate(-1128.045 -856.005)" fill="#2e3c4b"/>
        <path id="Path_2430" data-name="Path 2430" d="M1166.429,860.587l-.087.611c-.174,0-.349-.087-.524-.087-1.222,0-2.007.96-2.007,2.444v4.887h-.611v-7.767h.524l.087,1.571a2.331,2.331,0,0,1,2.182-1.745A.948.948,0,0,0,1166.429,860.587Z" transform="translate(-1129.687 -856.311)" fill="#2e3c4b"/>
        <path id="Path_2431" data-name="Path 2431" d="M1168.3,864.067a4.016,4.016,0,1,1,8.029,0,4.015,4.015,0,1,1-8.029,0Zm7.418,0a3.4,3.4,0,1,0-3.4,3.491A3.324,3.324,0,0,0,1175.718,864.067Zm-4.189-5.237h-.262l2.269-2.531.611.087-1.833,1.833C1171.965,858.744,1171.791,858.831,1171.529,858.831Z" transform="translate(-1130.336 -855.776)" fill="#2e3c4b"/>
        <path id="Path_2432" data-name="Path 2432" d="M1190.646,860.8l-2.967,7.767h-.524l-2.182-6.982-2.182,6.982h-.524L1179.3,860.8h.7l2.531,6.982,2.182-6.982h.523l2.182,6.895,2.531-6.895Z" transform="translate(-1131.735 -856.349)" fill="#2e3c4b"/>
        <path id="Path_2433" data-name="Path 2433" d="M1200.984,863.991v4.538h-.611v-4.451c0-2.007-1.047-2.967-2.444-2.967a2.641,2.641,0,0,0-2.618,2.706v4.713h-.611v-7.767h.524l.087,1.658a2.833,2.833,0,0,1,2.706-1.92C1199.413,860.587,1200.984,861.285,1200.984,863.991Z" transform="translate(-1133.695 -856.311)" fill="#2e3c4b"/>
        <path id="Path_2434" data-name="Path 2434" d="M1205.2,857.811a.611.611,0,1,1,.611.611A.656.656,0,0,1,1205.2,857.811Zm.262,2.531h.611v7.767h-.611Z" transform="translate(-1135.031 -855.891)" fill="#2e3c4b"/>
        <path id="Path_2435" data-name="Path 2435" d="M1210.1,864.515h0c0,2.095,1.222,3.666,3.316,3.666a3.043,3.043,0,0,0,2.531-1.135l.436.349a4.268,4.268,0,0,1-3.055,1.222,3.874,3.874,0,0,1-3.927-4.189,3.767,3.767,0,0,1,3.753-3.927,3.538,3.538,0,0,1,3.578,3.578v.349H1210.1Zm0-.524h6.022a2.871,2.871,0,0,0-2.967-2.88A3,3,0,0,0,1210.1,863.991Z" transform="translate(-1135.566 -856.311)" fill="#2e3c4b"/>
        <path id="Path_2436" data-name="Path 2436" d="M1226.5,867.6v.524h-6.2V867.6l5.236-6.72h-4.975v-.524h5.673v.524l-5.149,6.72Zm-3.666-9.687a.6.6,0,0,1,.611-.611.656.656,0,0,1,.611.611.611.611,0,1,1-1.222,0Z" transform="translate(-1136.953 -855.904)" fill="#2e3c4b"/>
        <path id="Path_2437" data-name="Path 2437" d="M1239.429,860.587l-.087.611c-.174,0-.349-.087-.524-.087-1.222,0-2.007.96-2.007,2.444v4.887h-.611v-7.767h.524l.087,1.571a2.331,2.331,0,0,1,2.182-1.745A.786.786,0,0,0,1239.429,860.587Z" transform="translate(-1138.976 -856.311)" fill="#2e3c4b"/>
        <path id="Path_2438" data-name="Path 2438" d="M1248.893,860.762v7.767h-.524l-.087-2.007a3.434,3.434,0,0,1-3.229,2.095,3.792,3.792,0,0,1-3.753-4.015,3.857,3.857,0,0,1,3.665-4.1,3.479,3.479,0,0,1,3.229,2.095l.087-1.92h.611Zm-.611,3.84a3.2,3.2,0,1,0-6.371,0,3.341,3.341,0,0,0,3.229,3.491A3.222,3.222,0,0,0,1248.282,864.6Z" transform="translate(-1139.625 -856.311)" fill="#2e3c4b"/>
        <path id="Path_2439" data-name="Path 2439" d="M1260.393,855.787v12.131h-.524l-.087-2.007a3.434,3.434,0,0,1-3.229,2.095,3.792,3.792,0,0,1-3.753-4.015,3.857,3.857,0,0,1,3.666-4.1,3.573,3.573,0,0,1,3.229,2.095V855.7h.7Zm-.524,8.2a3.2,3.2,0,1,0-6.371,0,3.341,3.341,0,0,0,3.229,3.491A3.275,3.275,0,0,0,1259.869,863.991Z" transform="translate(-1141.089 -855.7)" fill="#2e3c4b"/>
        <path id="Path_2440" data-name="Path 2440" d="M1264.9,857.811a.611.611,0,1,1,.611.611A.656.656,0,0,1,1264.9,857.811Zm.262,2.531h.611v7.767h-.611Z" transform="translate(-1142.629 -855.891)" fill="#2e3c4b"/>
        <path id="Path_2441" data-name="Path 2441" d="M1269.1,864.6a4.024,4.024,0,0,1,4.015-4.1,4.058,4.058,0,0,1,0,8.117A3.849,3.849,0,0,1,1269.1,864.6Zm7.418,0a3.4,3.4,0,1,0-3.4,3.491A3.324,3.324,0,0,0,1276.518,864.6Z" transform="translate(-1143.163 -856.311)" fill="#2e3c4b"/>
        <path id="Path_2442" data-name="Path 2442" d="M1281.3,855.8h.611v12.131h-.611Z" transform="translate(-1144.715 -855.713)" fill="#2e3c4b"/>
        <path id="Path_2443" data-name="Path 2443" d="M1292.593,860.762v7.767h-.524l-.087-2.007a3.434,3.434,0,0,1-3.229,2.095A3.792,3.792,0,0,1,1285,864.6a3.857,3.857,0,0,1,3.666-4.1,3.479,3.479,0,0,1,3.229,2.095l.087-1.92h.611Zm-.524,3.84a3.2,3.2,0,1,0-3.142,3.491C1290.847,868.093,1292.069,866.609,1292.069,864.6Z" transform="translate(-1145.186 -856.311)" fill="#2e3c4b"/>
        <path id="Path_2444" data-name="Path 2444" d="M1300.353,860.98h-2.007v7.244h-.611V860.98H1296.6v-.524h1.135V858.1h.611v2.356h2.007Z" transform="translate(-1146.662 -856.005)" fill="#2e3c4b"/>
        <path id="Path_2445" data-name="Path 2445" d="M1310.293,860.762v7.767h-.524l-.087-2.007a3.434,3.434,0,0,1-3.229,2.095,3.792,3.792,0,0,1-3.753-4.015,3.857,3.857,0,0,1,3.666-4.1,3.479,3.479,0,0,1,3.229,2.095l.087-1.92h.611Zm-.524,3.84a3.2,3.2,0,1,0-3.142,3.491C1308.547,868.093,1309.769,866.609,1309.769,864.6Z" transform="translate(-1147.439 -856.311)" fill="#2e3c4b"/>
        <path id="Path_2446" data-name="Path 2446" d="M1318.229,860.587l-.087.611c-.175,0-.349-.087-.524-.087-1.222,0-2.007.96-2.007,2.444v4.887H1315v-7.767h.524l.087,1.571a2.331,2.331,0,0,1,2.182-1.745A.654.654,0,0,0,1318.229,860.587Z" transform="translate(-1149.004 -856.311)" fill="#2e3c4b"/>
        <path id="Path_2447" data-name="Path 2447" d="M1327.184,863.991v4.538h-.611v-4.451c0-2.007-1.047-2.967-2.444-2.967a2.641,2.641,0,0,0-2.618,2.706v4.713h-.611v-7.767h.524l.087,1.658a2.833,2.833,0,0,1,2.706-1.92C1325.613,860.587,1327.184,861.285,1327.184,863.991Z" transform="translate(-1149.755 -856.311)" fill="#2e3c4b"/>
        <path id="Path_2448" data-name="Path 2448" d="M1331.4,857.811a.611.611,0,1,1,.611.611A.656.656,0,0,1,1331.4,857.811Zm.262,2.531h.611v7.767h-.611Z" transform="translate(-1151.091 -855.891)" fill="#2e3c4b"/>
        <path id="Path_2449" data-name="Path 2449" d="M1343.267,871.06a1.364,1.364,0,0,1-1.92-.349c-.262-.611.087-1.571,1.222-2.269l-.087-1.92a3.434,3.434,0,0,1-3.229,2.095,3.792,3.792,0,0,1-3.753-4.015,3.857,3.857,0,0,1,3.665-4.1,3.479,3.479,0,0,1,3.229,2.095l.087-1.92h.524v7.767h0l-.349.175c-1.745,1.047-1.135,2.618.349,1.92Zm-.7-6.458a3.2,3.2,0,1,0-6.371,0,3.341,3.341,0,0,0,3.229,3.491A3.222,3.222,0,0,0,1342.569,864.6Z" transform="translate(-1151.613 -856.311)" fill="#2e3c4b"/>
        <path id="Path_2450" data-name="Path 2450" d="M1347.8,871.193a1.916,1.916,0,0,0,1.047-1.658.623.623,0,0,1-.873-.524.551.551,0,0,1,.611-.611c.524,0,.786.524.7,1.135a2.329,2.329,0,0,1-1.4,1.92Z" transform="translate(-1153.178 -857.316)" fill="#2e3c4b"/>
      </g>
      <g id="Group_438" data-name="Group 438" transform="translate(64.03 283.981)">
        <path id="Path_2451" data-name="Path 2451" d="M1144.9,888.515h0c0,2.095,1.222,3.666,3.316,3.666a3.043,3.043,0,0,0,2.531-1.135l.436.349a4.268,4.268,0,0,1-3.055,1.222,3.874,3.874,0,0,1-3.927-4.189,3.767,3.767,0,0,1,3.753-3.927,3.538,3.538,0,0,1,3.578,3.578v.349H1144.9Zm0-.524h6.022a2.871,2.871,0,0,0-2.967-2.88A3.058,3.058,0,0,0,1144.9,887.991Z" transform="translate(-1144.2 -881.62)" fill="#2e3c4b"/>
        <path id="Path_2452" data-name="Path 2452" d="M1166.435,887.916v4.625h-.611v-4.625c0-1.746-.7-2.793-2.182-2.793-1.309,0-2.182,1.047-2.269,2.88v4.538h-.611v-4.713c0-1.571-.786-2.706-2.182-2.706-1.222,0-2.095,1.047-2.269,2.793v4.625h-.611v-7.767h.524l.087,1.658a2.486,2.486,0,0,1,2.444-1.833,2.66,2.66,0,0,1,2.531,2.007,2.54,2.54,0,0,1,2.618-2.007C1165.038,884.6,1166.435,885.3,1166.435,887.916Z" transform="translate(-1145.664 -881.633)" fill="#2e3c4b"/>
        <path id="Path_2453" data-name="Path 2453" d="M1171.3,881.811a.611.611,0,1,1,.611.611A.656.656,0,0,1,1171.3,881.811Zm.262,2.531h.611v7.767h-.611Z" transform="translate(-1147.649 -881.2)" fill="#2e3c4b"/>
        <path id="Path_2454" data-name="Path 2454" d="M1179.253,884.98h-2.007v7.244h-.611V884.98H1175.5v-.524h1.135V882.1h.611v2.356h2.007Z" transform="translate(-1148.183 -881.315)" fill="#2e3c4b"/>
        <path id="Path_2455" data-name="Path 2455" d="M1182.5,889.425V884.8h.611v4.626c0,1.745.873,2.793,2.531,2.793,1.571,0,2.531-1.047,2.531-2.793V884.8h.611v4.626c0,2.618-1.658,3.316-3.055,3.316C1184.158,892.742,1182.5,892.044,1182.5,889.425Z" transform="translate(-1149.074 -881.658)" fill="#2e3c4b"/>
        <path id="Path_2456" data-name="Path 2456" d="M1191.4,895.775v-.524c1.484.175,2.008-.524,2.008-1.833v-9.077h.611v9.077C1194.105,895.513,1192.8,895.949,1191.4,895.775Zm1.746-13.964a.611.611,0,1,1,.611.611A.656.656,0,0,1,1193.146,881.811Z" transform="translate(-1150.206 -881.2)" fill="#2e3c4b"/>
        <path id="Path_2457" data-name="Path 2457" d="M1198.3,888.515h0c0,2.095,1.222,3.666,3.316,3.666a3.043,3.043,0,0,0,2.531-1.135l.436.349a4.268,4.268,0,0,1-3.055,1.222,3.874,3.874,0,0,1-3.927-4.189,3.767,3.767,0,0,1,3.753-3.927,3.538,3.538,0,0,1,3.578,3.578v.349H1198.3Zm.087-.524h6.022a2.871,2.871,0,0,0-2.967-2.88A3,3,0,0,0,1198.385,887.991Z" transform="translate(-1150.995 -881.62)" fill="#2e3c4b"/>
      </g>
      <g id="Group_439" data-name="Group 439" transform="translate(125.035 282.41)">
        <path id="Path_2458" data-name="Path 2458" d="M1217.417,882.455v1.222h2.007v1.658h-2.007v6.546h-2.095v-6.546H1214.1v-1.658h1.222v-1.047c0-2.182,1.309-3.229,2.793-3.229a3.662,3.662,0,0,1,2.095.611l-.7,1.484a1.979,1.979,0,0,0-1.047-.262C1217.766,881.233,1217.417,881.756,1217.417,882.455Z" transform="translate(-1214.1 -879.4)" fill="#2e3c4b"/>
        <path id="Path_2459" data-name="Path 2459" d="M1230.465,884.275v8.2h-1.745l-.262-1.047a3.209,3.209,0,0,1-2.705,1.222c-2.095,0-3.753-1.571-3.753-4.276s1.658-4.276,3.753-4.276a3.461,3.461,0,0,1,2.705,1.222l.262-1.047Zm-1.92,4.1a2.244,2.244,0,1,0-2.269,2.531A2.276,2.276,0,0,0,1228.546,888.376Z" transform="translate(-1215.105 -879.998)" fill="#2e3c4b"/>
        <path id="Path_2460" data-name="Path 2460" d="M1234.8,879.8h2.095v12.131H1234.8Z" transform="translate(-1216.734 -879.451)" fill="#2e3c4b"/>
        <path id="Path_2461" data-name="Path 2461" d="M1248.178,888.887h-6.2a2.255,2.255,0,0,0,2.356,2.182,2.63,2.63,0,0,0,2.008-.785l1.4,1.135a4.626,4.626,0,0,1-3.4,1.222,4.2,4.2,0,0,1-4.538-4.276,4.249,4.249,0,0,1,4.276-4.364,3.942,3.942,0,0,1,4.1,4.276Zm-6.2-1.309h4.1a1.937,1.937,0,0,0-2.007-1.833C1242.942,885.658,1242.244,886.444,1241.982,887.578Z" transform="translate(-1217.37 -879.985)" fill="#2e3c4b"/>
        <path id="Path_2462" data-name="Path 2462" d="M1262.436,884.187l-.349,2.007a2.166,2.166,0,0,0-.785-.087c-1.222,0-2.007.873-2.007,2.356v4.015H1257.2v-8.2h1.833l.262,1.135a2.647,2.647,0,0,1,2.182-1.309A2.985,2.985,0,0,1,1262.436,884.187Z" transform="translate(-1219.585 -879.998)" fill="#2e3c4b"/>
        <path id="Path_2463" data-name="Path 2463" d="M1272.666,884.275v8.2h-1.745l-.262-1.047a3.208,3.208,0,0,1-2.705,1.222c-2.095,0-3.753-1.571-3.753-4.276s1.658-4.276,3.753-4.276a3.461,3.461,0,0,1,2.705,1.222l.262-1.047Zm-1.92,4.1a2.244,2.244,0,1,0-2.269,2.531A2.276,2.276,0,0,0,1270.745,888.376Z" transform="translate(-1220.475 -879.998)" fill="#2e3c4b"/>
        <path id="Path_2464" data-name="Path 2464" d="M1284.866,879.8v12.131h-1.746l-.262-1.047a3.6,3.6,0,0,1-2.705,1.222c-2.095,0-3.753-1.571-3.753-4.276s1.658-4.276,3.753-4.276a3.607,3.607,0,0,1,2.618,1.047v-4.8Zm-1.833,8.029a2.244,2.244,0,1,0-2.269,2.531A2.325,2.325,0,0,0,1283.033,887.829Z" transform="translate(-1222.028 -879.451)" fill="#2e3c4b"/>
        <path id="Path_2465" data-name="Path 2465" d="M1289.1,881.222a1.248,1.248,0,0,1,1.222-1.222,1.193,1.193,0,0,1,1.222,1.222,1.248,1.248,0,0,1-1.222,1.222A1.314,1.314,0,0,1,1289.1,881.222Zm.175,2.531h2.095v8.2h-2.095Z" transform="translate(-1223.644 -879.476)" fill="#2e3c4b"/>
        <path id="Path_2466" data-name="Path 2466" d="M1294.5,888.364a4.29,4.29,0,0,1,4.451-4.364,4.322,4.322,0,1,1,0,8.64A4.171,4.171,0,0,1,1294.5,888.364Zm6.807,0a2.283,2.283,0,1,0-2.269,2.531A2.325,2.325,0,0,0,1301.307,888.364Z" transform="translate(-1224.331 -879.985)" fill="#2e3c4b"/>
        <path id="Path_2467" data-name="Path 2467" d="M1319.1,884.3l-3.055,8.2H1314.3l-1.658-5.673L1310.9,892.5h-1.745l-3.055-8.2h2.269l1.745,5.5,1.658-5.5h1.745l1.658,5.5,1.745-5.5Z" transform="translate(-1225.807 -880.024)" fill="#2e3c4b"/>
        <path id="Path_2468" data-name="Path 2468" d="M1330.778,888.887h-6.2a2.256,2.256,0,0,0,2.356,2.182,2.629,2.629,0,0,0,2.007-.785l1.4,1.135a4.626,4.626,0,0,1-3.4,1.222,4.2,4.2,0,0,1-4.538-4.276,4.249,4.249,0,0,1,4.276-4.364,3.942,3.942,0,0,1,4.1,4.276Zm-6.2-1.309h4.1a1.937,1.937,0,0,0-2.007-1.833C1325.542,885.658,1324.844,886.444,1324.582,887.578Z" transform="translate(-1227.882 -879.985)" fill="#2e3c4b"/>
      </g>
    </g>
    <g id="jarosławiec" transform="translate(1194.978 641.82)">
      <path id="Path_2155" d="M1234.307,795.2c-2.793,0-5.149-.262-5.586-1.309h0c-.524-1.047-1.135-7.593-1.745-14.749-.087-.96-.175-1.833-.262-2.531q-1.178-13.484,0-15.186c.785-1.135,4.975-1.135,8.378-1.047h3.055c2.095-.175,10.473-.349,11.695.524,1.222.96,1.309,10.909,1.309,12.917,0,.7.087,2.182.087,4.015.262,7.593.436,15.1-.175,16.146-.7,1.222-4.451,1.135-8.2,1.047-.611,0-1.135-.087-1.484-.087a18.611,18.611,0,0,0-1.92.087C1237.8,795.114,1235.965,795.2,1234.307,795.2Zm-5.236-1.484c.7,1.484,7.331,1.047,10.473.873a17.777,17.777,0,0,1,1.92-.087,10.1,10.1,0,0,1,1.484.087c2.531.087,7.244.262,7.855-.785s.262-10.735.087-15.971c-.087-1.92-.087-3.316-.087-4.015,0-4.713-.262-11.869-1.135-12.568-.96-.786-8.64-.7-11.433-.524a17.45,17.45,0,0,1-3.055,0c-2.88,0-7.331-.087-8.029.96-.436.611-.96,3.316,0,14.924.087.7.175,1.571.262,2.531.436,5.062,1.135,13.528,1.658,14.575Z" transform="translate(-1214.74 -667.834)" fill="#2e3c4b"/>
      <path id="Path_2156" d="M1227.668,756.895c-.175-.7-.611-7.156-.786-13.615-.174-5.847-.262-13.091.436-14.313.786-1.4,12.306-1.833,17.542-1.484,3.491.262,3.666.7,3.753.873.785,1.745,1.484,26.968.785,28.1l-.349-.175c.611-1.047-.174-26.27-.873-27.841,0-.087-.262-.436-3.4-.7-6.982-.436-16.669.349-17.193,1.309-.524.873-.7,6.022-.436,14.051.175,6.371.611,12.829.786,13.528Z" transform="translate(-1214.82 -663.651)" fill="#2e3c4b"/>
      <path id="Path_2157" d="M1228.375,725.194c-.436-.786.087-9.426.262-12.044a123.152,123.152,0,0,1,1.222-12.568.58.58,0,0,1,.436-.349c2.356-.96,15.535-.175,16.32.262,1.047.524,1.484,23.826,1.484,24h-.349c0-1.309-.524-22.779-1.222-23.651-.7-.349-13.789-1.135-15.971-.262-.174.087-.174.175-.174.175-.7,2.182-2.007,23.215-1.484,24.262Z" transform="translate(-1215.005 -660.14)" fill="#2e3c4b"/>
      <path id="Path_2158" d="M1246.515,697.783h-.349c.175-1.571-.349-18.066-1.92-19.113-1.92-1.222-11-1.658-11.52-.873-.873,1.222-1.745,18.24-1.484,19.637l-.349.087c-.262-1.484.611-18.589,1.571-19.9.785-1.135,10.386-.262,12.044.785C1246.253,679.542,1246.69,696.386,1246.515,697.783Z" transform="translate(-1215.34 -657.253)" fill="#2e3c4b"/>
      <path id="Path_2159" d="M1244.512,678.3l-.349-.262a36.306,36.306,0,0,1,2.793-3.4,5.13,5.13,0,0,0,0-2.007c-1.135-.262-16.233-.175-17.106,0a5.761,5.761,0,0,0,.087,1.222c0,.175.087.349.087.524a18.826,18.826,0,0,0,2.356,2.88l-.262.262c-.873-.96-2.444-2.706-2.444-3.142a.654.654,0,0,0-.087-.436c-.087-.786-.175-1.4.174-1.571.436-.262,16.32-.349,17.368-.087a.3.3,0,0,1,.175.087c.174.349.436,2.269-.087,2.618C1246.258,676.03,1245.385,677.164,1244.512,678.3Z" transform="translate(-1215.171 -656.621)" fill="#2e3c4b"/>
      <path id="Path_2160" d="M1244.441,673.556l-.349-.087c.175-.7.524-8.378-.262-9.077-.96-.786-9.164-.262-9.6.262-.262.524-.175,7.942-.087,8.64l-.349.087c0-.087-.174-8.291.175-8.9.087-.175.349-.349,1.4-.524,2.356-.349,7.942-.524,8.815.175C1245.139,665,1244.528,673.207,1244.441,673.556Z" transform="translate(-1215.71 -655.543)" fill="#2e3c4b"/>
      <path id="Path_2161" d="M1232.689,663.969a.94.94,0,0,1-.7-.175.164.164,0,0,1,0-.262c.262-.7,5.411-6.546,6.2-6.633h0c.873,0,7.506,5.847,7.767,6.371l.087.087-.087.175c-.087.087-.262.262-2.967-.087l.087-.349c.786.087,1.658.175,2.444.262-1.047-1.135-6.633-5.847-7.331-5.935a41.892,41.892,0,0,0-5.847,6.371,7.507,7.507,0,0,0,1.4-.087l.087.349A4.975,4.975,0,0,0,1232.689,663.969Z" transform="translate(-1215.478 -654.684)" fill="#2e3c4b"/>
      <path id="Path_2162" d="M1238.706,657.013a.525.525,0,0,1-.349-.087,1.927,1.927,0,0,1-.96-1.222,1.29,1.29,0,0,1,.349-1.135.679.679,0,0,1,.7-.175h0a1.484,1.484,0,0,1,1.309,1.309.919.919,0,0,1-.611,1.135c-.087.087-.174.087-.262.175C1238.88,656.926,1238.793,657.013,1238.706,657.013Zm-.349-2.356a.321.321,0,0,0-.262.087,1.219,1.219,0,0,0-.262.786,1.351,1.351,0,0,0,.7.96.164.164,0,0,0,.262,0c.087-.087.175-.087.262-.175.349-.175.524-.262.436-.7-.087-.611-.349-.873-1.047-.96h-.087Z" transform="translate(-1216.171 -654.361)" fill="#2e3c4b"/>
      <path id="Path_2163" d="M1247.093,675.285c-.96-.436-12.742-.436-17.193-.436V674.5c.611,0,16.146,0,17.368.436Z" transform="translate(-1215.22 -656.924)" fill="#2e3c4b"/>
      <path id="Path_2164" d="M1230.936,674.595c-.174,0-.262,0-.436-2.095h.349a13.019,13.019,0,0,0,.175,1.833l-.175.087v.175Z" transform="translate(-1215.296 -656.669)" fill="#2e3c4b"/>
      <path id="Path_2165" d="M1231.9,674.407V672.4h.349v1.92Z" transform="translate(-1215.475 -656.656)" fill="#2e3c4b"/>
      <rect id="Rectangle_243" width="0.349" height="1.92" transform="translate(18.782 15.831)" fill="#2e3c4b"/>
      <rect id="Rectangle_244" width="2.007" height="0.349" transform="translate(19.78 17.756) rotate(-83.8)" fill="#2e3c4b"/>
      <rect id="Rectangle_245" width="0.349" height="2.269" transform="translate(22.273 15.656)" fill="#2e3c4b"/>
      <rect id="Rectangle_246" width="0.349" height="2.095" transform="translate(23.32 15.656)" fill="#2e3c4b"/>
      <rect id="Rectangle_247" width="0.349" height="2.182" transform="translate(25.851 15.656)" fill="#2e3c4b"/>
      <rect id="Rectangle_248" width="0.349" height="2.269" transform="translate(27.073 15.656)" fill="#2e3c4b"/>
      <rect id="Rectangle_249" width="0.349" height="2.182" transform="translate(29.604 15.831)" fill="#2e3c4b"/>
      <rect id="Rectangle_250" width="0.349" height="2.444" transform="translate(30.738 15.831)" fill="#2e3c4b"/>
      <path id="Path_2166" d="M1237.449,673.338l-.349-.087.349-2.095L1237.1,664h.349l.349,7.156Z" transform="translate(-1216.136 -655.587)" fill="#2e3c4b"/>
      <rect id="Rectangle_251" width="0.349" height="9.513" transform="translate(24.629 8.5)" fill="#2e3c4b"/>
      <path id="Path_2167" d="M1219.7,796.123a6.6,6.6,0,0,1-1.309-.087.89.89,0,0,1-.7-.436c-.524-1.135-1.833-26.968-1.309-27.666s8.291-1.222,8.728-1.135a.188.188,0,0,1,.174.175h-.175l-.087.175c-.524-.175-7.68.524-8.291.96-.349,1.4.873,26.357,1.4,27.23,0,0,.087.175.436.175,2.007.436,8.466-.785,8.989-1.135l.262.262C1227.2,795.25,1222.4,796.123,1219.7,796.123Z" transform="translate(-1213.484 -668.668)" fill="#2e3c4b"/>
      <path id="Path_2168" d="M1215.017,766.589c-.786,0-1.745-.087-1.92-.611-.174-.436.96-3.666,1.92-6.284a61.98,61.98,0,0,1,2.444-6.022c.436-.524,6.284-.785,8.029-.873v.349c-3.578.087-7.418.436-7.767.7-.349.436-4.451,11.171-4.276,11.957.087.349,1.484.436,2.618.262v.349A1.89,1.89,0,0,1,1215.017,766.589Z" transform="translate(-1213.079 -666.888)" fill="#2e3c4b"/>
      <path id="Path_2169" d="M1220.039,782.717c-.175,0-.262,0-.349-.087l-.087-.087v-.087c-.786-7.156-.7-7.331-.611-7.418s.174-.262,4.189-.436h.175v.175c.087.611.611,6.284.524,6.72,0,.175-.262.349-.349.349A8.259,8.259,0,0,1,1220.039,782.717Zm-.087-.349a9,9,0,0,0,3.578-.786c.087-.349-.262-4.015-.524-6.458a28.092,28.092,0,0,0-3.753.262c0,.611.437,4.451.7,6.982Z" transform="translate(-1213.825 -669.662)" fill="#2e3c4b"/>
      <path id="Path_2170" d="M1218.889,774.915a4.007,4.007,0,0,1,.436-2.793,1.244,1.244,0,0,1,1.047-.524c1.92-.175,2.88,2.793,2.967,2.88l-.349.087s-.873-2.793-2.531-2.618a.917.917,0,0,0-.786.436,4.2,4.2,0,0,0-.349,2.531Z" transform="translate(-1213.809 -669.279)" fill="#2e3c4b"/>
      <rect id="Rectangle_252" width="0.349" height="7.506" transform="matrix(0.996, -0.084, 0.084, 0.996, 7.076, 105.205)" fill="#2e3c4b"/>
      <rect id="Rectangle_253" width="4.102" height="0.349" transform="translate(5.458 108.849) rotate(-2.751)" fill="#2e3c4b"/>
      <path id="Path_2171" d="M1241.435,791.111a5.371,5.371,0,0,1-1.658-.175h0c-.349-.262-.087-2.706.349-3.927.262-.873.7-1.309,1.135-1.309a1,1,0,0,1,.786.524,8.934,8.934,0,0,1,.7,4.626c-.087.087-.175.175-.262.175A4.249,4.249,0,0,1,1241.435,791.111Zm-1.4-.436a7.119,7.119,0,0,0,2.356,0c.087-.436-.087-3.316-.786-4.276-.262-.349-.524-.349-.786.087C1240.125,787.445,1239.951,790.238,1240.038,790.675Z" transform="translate(-1216.456 -671.074)" fill="#2e3c4b"/>
      <path id="Path_2172" d="M1241.707,776.286c-.786,0-1.833-.087-1.833-.087h0c-.087,0-.349-.087,0-2.095.175-1.309.7-3.4,1.658-3.4h0c.262,0,.524.262.786.7a11.325,11.325,0,0,1,.524,4.8A3.623,3.623,0,0,1,1241.707,776.286Zm-1.658-.436a10.635,10.635,0,0,0,2.356,0c.087-.611,0-3.753-.7-4.626-.087-.087-.175-.175-.262-.175a.468.468,0,0,0-.349.262c-.785.96-1.134,3.927-1.047,4.538Z" transform="translate(-1216.467 -669.166)" fill="#2e3c4b"/>
      <path id="Path_2173" d="M1239.231,743.624a9.486,9.486,0,0,1-1.571-.087c-.349-.175-.349-2.88-.087-4.015.174-.873.611-1.222,1.135-1.222.436,0,.785.349,1.135.96a10.632,10.632,0,0,1,.524,4.276A2.6,2.6,0,0,1,1239.231,743.624Zm-1.309-.436a7.719,7.719,0,0,0,2.007,0c.087-.524,0-3.229-.786-4.276-.349-.436-.7-.436-.96-.087-.611,1.047-.436,3.84-.262,4.364Z" transform="translate(-1216.173 -665.043)" fill="#2e3c4b"/>
      <path id="Path_2174" d="M1238.375,717.373a3.843,3.843,0,0,1-1.4-.175h0c-.349-.175,0-2.706.175-3.491.262-1.309.611-1.92,1.135-2.007a.907.907,0,0,1,.7.436,10.382,10.382,0,0,1,.611,4.887C1239.509,717.373,1238.986,717.373,1238.375,717.373Zm-1.135-.436a7.72,7.72,0,0,0,2.007,0c.087-.436,0-3.753-.7-4.626-.087-.175-.175-.175-.262-.175a.394.394,0,0,0-.262.262,11.8,11.8,0,0,0-.785,4.538Z" transform="translate(-1216.102 -661.658)" fill="#2e3c4b"/>
      <path id="Path_2175" d="M1238.944,694.927h-.524c-.262-.087-.524-.175-.524-.262a5.956,5.956,0,0,1,.611-3.229.777.777,0,0,1,.7-.436.735.735,0,0,1,.611.611,6.387,6.387,0,0,1,.087,3.142h0A3.134,3.134,0,0,1,1238.944,694.927Zm.262-3.578c-.087,0-.174.087-.262.175a5.368,5.368,0,0,0-.611,2.88,2.492,2.492,0,0,0,1.4.087,5.769,5.769,0,0,0-.262-2.967c-.175-.174-.262-.174-.262-.174Z" transform="translate(-1216.235 -659.023)" fill="#2e3c4b"/>
      <path id="Path_2176" d="M1239.374,687.164c-.436,0-1.309,0-1.484-.262a6.328,6.328,0,0,1,.524-3.578.96.96,0,0,1,.873-.524.89.89,0,0,1,.7.436c.611.96.262,3.4.175,3.666h0a.679.679,0,0,1-.611.262Zm-1.135-.436a9.485,9.485,0,0,0,1.571.087c.087-.349.349-2.531-.174-3.229a.48.48,0,0,0-.436-.262.667.667,0,0,0-.436.175c-.611.7-.611,2.793-.524,3.229Z" transform="translate(-1216.229 -657.98)" fill="#2e3c4b"/>
      <rect id="Rectangle_254" width="3.404" height="0.349" transform="matrix(0.927, -0.375, 0.375, 0.927, 36.264, 7.593)" fill="#2e3c4b"/>
      <rect id="Rectangle_255" width="4.364" height="0.349" transform="translate(37.982 11.118)" fill="#2e3c4b"/>
      <rect id="Rectangle_256" width="0.349" height="2.531" transform="matrix(0.539, -0.842, 0.842, 0.539, 37.378, 15.512)" fill="#2e3c4b"/>
      <rect id="Rectangle_257" width="0.349" height="3.316" transform="translate(9.283 5.91) rotate(-65.324)" fill="#2e3c4b"/>
      <rect id="Rectangle_258" width="3.491" height="0.349" transform="translate(7.349 10.158)" fill="#2e3c4b"/>
      <rect id="Rectangle_259" width="2.269" height="0.349" transform="translate(8.244 15.208) rotate(-20.316)" fill="#2e3c4b"/>
      <path id="Path_2177" d="M1243.857,682.5l-.175-.785c-.174-.96-.524-1.92-.7-1.92a3.587,3.587,0,0,0-1.047,1.484l-.349.7-.087-.7s-.087-1.571-1.047-1.571h0a1.241,1.241,0,0,0-.524.175,2.324,2.324,0,0,0-.262,1.047l-.349.087c-.087-.436-.436-1.571-1.047-1.571h0c-.524,0-.96,1.047-1.135,1.4l-.262.785-.087-.785s-.262-1.484-1.047-1.309c-.7.087-1.309,1.222-1.484,1.658l-.436,1.047.087-1.135c0-.524-.087-1.484-.524-1.571-.349-.087-.873,1.135-1.135,1.92l-.349-.087c.087-.349.7-2.356,1.571-2.182.524.087.7.7.786,1.222a2.119,2.119,0,0,1,1.484-1.222c.7-.087,1.135.611,1.309,1.047.262-.524.7-1.135,1.309-1.135.524,0,.873.524,1.047,1.047.087-.175.174-.262.262-.436a1.3,1.3,0,0,1,.786-.349c.785,0,1.135.786,1.309,1.4.262-.436.7-1.047,1.047-1.135h.349a3.322,3.322,0,0,1,.7,1.484c.262-.785.611-1.571,1.135-1.484l-.087.349h0c-.175,0-.611.96-.873,1.92Z" transform="translate(-1215.475 -657.509)" fill="#2e3c4b"/>
    </g>
    <g id="Group_354" transform="translate(1169.747 635.57)">
      <path id="Path_2178" d="M1267.462,674.555l-.262-.262c1.571-1.745,2.269-4.276,2.182-8.029,0-1.309-.174-3.229-1.484-4.1l.175-.262c1.4.96,1.571,2.967,1.658,4.364C1269.818,670.1,1269.12,672.722,1267.462,674.555Z" transform="translate(-1194.735 -649.071)" fill="#2e3c4b"/>
      <path id="Path_2179" d="M1288.174,686.124l-.174-.262c5.236-4.189,6.72-15.273,6.895-19.2.262-8.553-1.4-14.837-4.975-19.2l.262-.262c3.666,4.364,5.324,10.735,5.062,19.375C1295.069,670.59,1293.5,681.848,1288.174,686.124Z" transform="translate(-1197.382 -647.2)" fill="#2e3c4b"/>
      <path id="Path_2180" d="M1277.262,680.608l-.262-.175a8.584,8.584,0,0,1,.611-.873,24.6,24.6,0,0,0,4.975-12.917,16.6,16.6,0,0,0-4.015-11.782l.262-.262a16.914,16.914,0,0,1,4.1,12.044,25.006,25.006,0,0,1-4.975,13.091A9.565,9.565,0,0,0,1277.262,680.608Z" transform="translate(-1195.983 -648.142)" fill="#2e3c4b"/>
      <path id="Path_2181" d="M1211.957,676.568c-1.4-.96-1.571-2.967-1.658-4.364-.087-3.84.7-6.458,2.269-8.2l.262.262c-1.571,1.745-2.269,4.276-2.182,8.029,0,1.309.174,3.229,1.484,4.1Z" transform="translate(-1187.494 -649.338)" fill="#2e3c4b"/>
      <path id="Path_2182" d="M1189.258,687.437c-3.666-4.364-5.324-10.735-5.062-19.375.087-4.015,1.658-15.186,6.982-19.462l.175.262c-5.236,4.189-6.72,15.273-6.895,19.2-.262,8.553,1.4,14.837,4.975,19.2Z" transform="translate(-1184.169 -647.378)" fill="#2e3c4b"/>
      <path id="Path_2183" d="M1200.9,681.921a16.916,16.916,0,0,1-4.1-12.044,25.007,25.007,0,0,1,4.975-13.091,5.894,5.894,0,0,0,.524-.786l.262.175c-.087.175-.349.436-.611.873a24.6,24.6,0,0,0-4.975,12.917,16.6,16.6,0,0,0,4.015,11.782Z" transform="translate(-1185.772 -648.32)" fill="#2e3c4b"/>
    </g>
  </g>
</svg>
