<svg xmlns="http://www.w3.org/2000/svg" width="303.278" height="325.37" viewBox="0 0 303.278 325.37">
  <g id="Group_389" data-name="Group 389" transform="translate(-1070.847 -555.866)">
    <g id="CIEKAWOSTKA" transform="translate(1070.847 555.866)">
      <path id="Path_1283" data-name="Path 1283" d="M1083.183,571.06c18.641-23.253,263.313-17.026,277.2,0s20.106,271.177,4.9,292.1-268.007,23.972-282.1,7.6S1064.542,594.312,1083.183,571.06Z" transform="translate(-1070.847 -555.866)" fill="#e5a34c"/>
      <g id="CIEKAWOSTKA-2" transform="translate(86.956 23.543)" style="isolation: isolate">
        <text id="CIEKAWOSTKA-2-2" data-name="CIEKAWOSTKA" transform="translate(0 15)" fill="#2e3c4b" font-size="19" font-family="SulphurPoint-Bold, Sulphur Point" font-weight="700" letter-spacing="0.025em" style="isolation: isolate"><tspan x="0" y="0">CIEKAWOSTKA</tspan></text>
      </g>
      <rect id="Rectangle_45" data-name="Rectangle 45" width="10.91" height="2.182" transform="translate(140.87 45.364)" fill="#ae4426"/>
      <g id="Group_181" data-name="Group 181" transform="translate(67.908 63.916)">
        <path id="Path_1327" data-name="Path 1327" d="M1159.405,670.177c4.821-13.185,16.155-40.366,38.159-40.853S1280,626.7,1295.348,645.1s18.066,32.745,15.8,61.761-10.051,45.863-19.228,61.3-48.245,27.333-83.357,25.965-60.687-22.185-60.006-50.676,12.961-32.3,10.844-44.677S1154.584,683.362,1159.405,670.177Z" transform="translate(-1148.545 -628.996)" fill="#f2edeb"/>
      </g>
      <text id="Latarnia_w_Jarosławcu_jest_również_radiolatarnią_emituje_fale_radiowe" data-name="Latarnia w Jarosławcu
jest również radiolatarnią,
emituje fale radiowe" transform="translate(143.334 252.831)" fill="#2e3c4b" font-size="17" font-family="ClarikaProGeo-Th, Clarika Pro Geometric" letter-spacing="0.025em" style="isolation: isolate"><tspan x="-81.808" y="0">Latarnia w Jarosławcu</tspan><tspan x="-96.145" y="20">jest również radiolatarnią,</tspan><tspan x="-80.529" y="40">emituje </tspan><tspan y="40" font-family="ClarikaProGeo-Dm, Clarika Pro Geometric">fale radiowe</tspan></text>
    </g>
    <g id="jarosławiec" transform="translate(1195.189 641.888)">
      <path id="Path_2155" data-name="Path 2155" d="M1234.343,795.229c-2.836,0-5.119-.288-5.618-1.285h0c-.52-1.041-1.115-7.6-1.729-14.8-.081-.953-.156-1.819-.22-2.542-.794-8.965-.782-14.092.036-15.236s5.011-1.118,8.364-1.089c1.267.011,2.362.022,3.021-.038,2.111-.192,10.525-.364,11.689.567,1.232.986,1.294,10.915,1.294,12.9,0,.685.053,2.168.119,4.043.267,7.606.477,15.124-.144,16.211-.7,1.224-4.449,1.176-8.225,1.021-.615-.025-1.133-.046-1.488-.046-.371,0-1.038.042-1.883.094C1237.794,795.133,1235.977,795.229,1234.343,795.229Zm-5.273-1.457c.737,1.474,7.307,1.063,10.464.866.85-.053,1.523-.1,1.906-.1.358,0,.882.021,1.5.046,2.528.1,7.235.3,7.876-.827.619-1.082.277-10.79.093-16.006-.065-1.88-.118-3.365-.118-4.057,0-4.692-.306-11.92-1.15-12.594-.951-.76-8.676-.733-11.413-.485-.677.062-1.78.052-3.059.04-2.921-.028-7.336-.067-8.047.927-.429.6-1,3.347.035,14.978.064.725.138,1.591.219,2.544.434,5.087,1.161,13.6,1.691,14.662Z" transform="translate(-1214.762 -667.619)" fill="#2e3c4b"/>
      <path id="Path_2156" data-name="Path 2156" d="M1227.627,756.9c-.193-.721-.6-7.169-.8-13.664-.183-5.858-.248-13.093.473-14.294.821-1.368,12.288-1.817,17.57-1.458,3.456.234,3.66.711,3.737.891.75,1.748,1.486,27.037.821,28.187l-.334-.193c.589-1.043-.173-26.282-.841-27.841-.019-.045-.279-.446-3.409-.658-6.979-.472-16.679.381-17.214,1.272-.517.863-.67,6-.418,14.085.2,6.358.607,12.888.791,13.576Z" transform="translate(-1214.827 -663.497)" fill="#2e3c4b"/>
      <path id="Path_2157" data-name="Path 2157" d="M1228.328,725.2c-.415-.823.1-9.409.271-12.021.343-5.3.871-11.49,1.224-12.546a.67.67,0,0,1,.424-.367c2.342-.969,15.524-.148,16.329.255,1.025.513,1.467,23.844,1.448,24.068l-.384-.031c.038-1.274-.541-22.813-1.266-23.713-.726-.356-13.788-1.127-15.978-.224-.184.076-.207.133-.208.133-.716,2.149-2.034,23.245-1.516,24.272Z" transform="translate(-1215.012 -660.025)" fill="#2e3c4b"/>
      <path id="Path_2158" data-name="Path 2158" d="M1246.5,697.848l-.383-.044c.176-1.532-.374-18.132-1.948-19.116-1.905-1.19-11.033-1.663-11.533-.914-.84,1.26-1.73,18.29-1.472,19.662l-.378.071c-.276-1.461.62-18.58,1.53-19.946.756-1.138,10.376-.249,12.057.8C1246.239,679.529,1246.661,696.419,1246.5,697.848Z" transform="translate(-1215.335 -657.154)" fill="#2e3c4b"/>
      <path id="Path_2159" data-name="Path 2159" d="M1244.525,678.321l-.308-.232a38.523,38.523,0,0,1,2.789-3.43c.211-.149.109-1.589-.043-2.023-1.149-.219-16.3-.2-17.1.028a3.7,3.7,0,0,0,.062,1.185,4.328,4.328,0,0,1,.057.515,20.786,20.786,0,0,0,2.34,2.865l-.286.26c-.911-1-2.439-2.735-2.439-3.125a4.231,4.231,0,0,0-.053-.461c-.113-.794-.17-1.37.139-1.577.423-.281,16.374-.33,17.416-.053a.266.266,0,0,1,.18.128c.168.335.448,2.254-.068,2.584A39.981,39.981,0,0,0,1244.525,678.321Z" transform="translate(-1215.174 -656.532)" fill="#2e3c4b"/>
      <path id="Path_2160" data-name="Path 2160" d="M1244.45,673.573l-.374-.094c.181-.718.5-8.407-.29-9.077-.927-.784-9.2-.282-9.651.244a73.528,73.528,0,0,0-.129,8.648l-.384.049c-.009-.072-.2-8.268.187-8.9.089-.144.324-.314,1.4-.487,2.394-.382,7.988-.551,8.822.155C1245.105,665.013,1244.545,673.2,1244.45,673.573Z" transform="translate(-1215.692 -655.465)" fill="#2e3c4b"/>
      <path id="Path_2161" data-name="Path 2161" d="M1232.683,664.008a.917.917,0,0,1-.714-.206.288.288,0,0,1-.008-.29c.3-.7,5.4-6.575,6.217-6.666h.02c.907,0,7.521,5.849,7.8,6.341l.064.109-.064.148c-.066.091-.221.3-2.98-.085l.054-.383a20.6,20.6,0,0,0,2.452.226c-1.007-1.107-6.664-5.893-7.321-5.97-.557.152-5.38,5.4-5.865,6.368a4.349,4.349,0,0,0,1.387-.1l.076.378A6.173,6.173,0,0,1,1232.683,664.008Z" transform="translate(-1215.485 -654.611)" fill="#2e3c4b"/>
      <path id="Path_2162" data-name="Path 2162" d="M1238.687,656.968a.767.767,0,0,1-.324-.078,1.907,1.907,0,0,1-.951-1.257,1.357,1.357,0,0,1,.385-1.134.787.787,0,0,1,.728-.187h0a1.523,1.523,0,0,1,1.337,1.293.918.918,0,0,1-.618,1.128c-.081.045-.166.09-.25.144A.558.558,0,0,1,1238.687,656.968Zm-.359-2.293a.392.392,0,0,0-.273.112.98.98,0,0,0-.261.8,1.535,1.535,0,0,0,.731.957.267.267,0,0,0,.26.015c.093-.06.186-.111.276-.16.341-.184.512-.277.423-.712-.119-.584-.384-.835-1.049-.995h0A.463.463,0,0,0,1238.327,654.674Z" transform="translate(-1216.175 -654.289)" fill="#2e3c4b"/>
      <path id="Path_2163" data-name="Path 2163" d="M1247.084,675.3c-.981-.4-12.774-.455-17.243-.444v-.385c.655,0,16.137-.043,17.391.473Z" transform="translate(-1215.222 -656.832)" fill="#2e3c4b"/>
      <path id="Path_2164" data-name="Path 2164" d="M1230.946,674.6c-.2,0-.289,0-.413-2.13l.385-.023a14.528,14.528,0,0,0,.184,1.857l-.156.063Z" transform="translate(-1215.31 -656.577)" fill="#2e3c4b"/>
      <path id="Path_2165" data-name="Path 2165" d="M1231.922,674.442a15.576,15.576,0,0,1,0-1.992l.385.019a14.714,14.714,0,0,0,0,1.9Z" transform="translate(-1215.48 -656.577)" fill="#2e3c4b"/>
      <rect id="Rectangle_243" data-name="Rectangle 243" width="0.385" height="1.956" transform="translate(18.769 15.882)" fill="#2e3c4b"/>
      <rect id="Rectangle_244" data-name="Rectangle 244" width="1.974" height="0.385" transform="matrix(0.108, -0.994, 0.994, 0.108, 19.789, 17.824)" fill="#2e3c4b"/>
      <rect id="Rectangle_245" data-name="Rectangle 245" width="0.385" height="2.308" transform="translate(22.279 15.753)" fill="#2e3c4b"/>
      <rect id="Rectangle_246" data-name="Rectangle 246" width="0.385" height="2.078" transform="translate(23.331 15.753)" fill="#2e3c4b"/>
      <rect id="Rectangle_247" data-name="Rectangle 247" width="0.385" height="2.169" transform="translate(25.846 15.756)" fill="#2e3c4b"/>
      <rect id="Rectangle_248" data-name="Rectangle 248" width="0.385" height="2.297" transform="translate(27.079 15.763)" fill="#2e3c4b"/>
      <rect id="Rectangle_249" data-name="Rectangle 249" width="0.385" height="2.178" transform="translate(29.599 15.882)" fill="#2e3c4b"/>
      <rect id="Rectangle_250" data-name="Rectangle 250" width="0.385" height="2.408" transform="translate(30.778 15.882)" fill="#2e3c4b"/>
      <path id="Path_2166" data-name="Path 2166" d="M1237.428,673.4l-.382-.057.312-2.1-.313-7.162.385-.016.312,7.2Z" transform="translate(-1216.13 -655.521)" fill="#2e3c4b"/>
      <rect id="Rectangle_251" data-name="Rectangle 251" width="0.385" height="9.506" transform="translate(24.666 8.554)" fill="#2e3c4b"/>
      <path id="Path_2167" data-name="Path 2167" d="M1219.726,796.207a5.988,5.988,0,0,1-1.269-.107.95.95,0,0,1-.7-.423c-.563-1.145-1.818-27-1.343-27.667s8.264-1.252,8.739-1.1a.222.222,0,0,1,.174.212l-.385,0,.193,0-.1.155c-.517-.169-7.668.531-8.3.956-.33,1.438.912,26.353,1.365,27.275.02.039.1.14.44.218,2.033.469,8.5-.78,8.991-1.162l.237.305C1227.243,795.278,1222.448,796.207,1219.726,796.207Z" transform="translate(-1213.518 -668.476)" fill="#2e3c4b"/>
      <path id="Path_2168" data-name="Path 2168" d="M1215.036,766.605c-.827,0-1.756-.118-1.91-.63-.137-.458.981-3.667,1.943-6.279a63.264,63.264,0,0,1,2.456-6.054c.449-.524,6.269-.769,8.043-.832l.013.385c-3.556.126-7.435.423-7.767.7-.378.459-4.458,11.16-4.317,11.971.1.33,1.453.418,2.653.287l.042.384A11.4,11.4,0,0,1,1215.036,766.605Z" transform="translate(-1213.115 -666.703)" fill="#2e3c4b"/>
      <path id="Path_2169" data-name="Path 2169" d="M1220.059,782.746a.976.976,0,0,1-.389-.052l-.089-.048-.011-.1c-.793-7.123-.656-7.329-.613-7.4.06-.089.2-.3,4.228-.443l.184-.007.016.182c.06.639.573,6.256.5,6.765-.027.192-.228.315-.378.39A11.058,11.058,0,0,1,1220.059,782.746Zm-.121-.378c.633.06,3.364-.457,3.569-.8.044-.324-.263-3.983-.49-6.474a32.015,32.015,0,0,0-3.724.286C1219.269,776.015,1219.662,779.878,1219.938,782.368Z" transform="translate(-1213.846 -669.46)" fill="#2e3c4b"/>
      <path id="Path_2170" data-name="Path 2170" d="M1218.919,774.885a4.259,4.259,0,0,1,.425-2.811,1.438,1.438,0,0,1,1.066-.56c1.953-.154,2.917,2.8,2.958,2.923l-.368.116c-.01-.028-.9-2.785-2.56-2.653a1.053,1.053,0,0,0-.792.412,3.971,3.971,0,0,0-.349,2.508Z" transform="translate(-1213.837 -669.058)" fill="#2e3c4b"/>
      <rect id="Rectangle_252" data-name="Rectangle 252" width="0.386" height="7.475" transform="translate(7.084 105.453) rotate(-4.836)" fill="#2e3c4b"/>
      <rect id="Rectangle_253" data-name="Rectangle 253" width="4.15" height="0.386" transform="matrix(0.999, -0.048, 0.048, 0.999, 5.507, 109.076)" fill="#2e3c4b"/>
      <path id="Path_2171" data-name="Path 2171" d="M1241.453,791.148a4.755,4.755,0,0,1-1.659-.193h0c-.328-.242-.077-2.7.321-3.9.287-.87.671-1.312,1.141-1.312a.938.938,0,0,1,.782.527,9.7,9.7,0,0,1,.739,4.613.409.409,0,0,1-.292.187A5.174,5.174,0,0,1,1241.453,791.148Zm-1.4-.493a7.971,7.971,0,0,0,2.381.031c.052-.4-.06-3.361-.8-4.318-.263-.343-.554-.319-.824.08A9.014,9.014,0,0,0,1240.055,790.655Z" transform="translate(-1216.458 -670.852)" fill="#2e3c4b"/>
      <path id="Path_2172" data-name="Path 2172" d="M1241.669,776.285c-.819,0-1.8-.093-1.809-.1h0c-.117-.032-.362-.1-.038-2.114.207-1.294.695-3.451,1.636-3.451h.031c.3.015.563.243.766.677a11.585,11.585,0,0,1,.507,4.818C1242.664,776.246,1242.2,776.285,1241.669,776.285Zm.76-.356Zm-2.376-.1a15.213,15.213,0,0,0,2.389.03c.064-.577-.019-3.738-.681-4.647a.417.417,0,0,0-.292-.2c-.1-.007-.234.078-.363.247C1240.349,772.258,1239.995,775.263,1240.052,775.831Z" transform="translate(-1216.459 -668.947)" fill="#2e3c4b"/>
      <path id="Path_2173" data-name="Path 2173" d="M1239.214,743.653a9.709,9.709,0,0,1-1.549-.1c-.312-.164-.376-2.872-.094-4.026.2-.836.573-1.259,1.1-1.259.452,0,.822.319,1.1.947a9.075,9.075,0,0,1,.481,4.295A2.106,2.106,0,0,1,1239.214,743.653Zm.721-.356Zm-2.036-.085a12.087,12.087,0,0,0,2.047.023c.06-.506-.009-3.264-.752-4.263-.307-.412-.7-.437-.972-.046C1237.572,739.876,1237.785,742.673,1237.9,743.213Z" transform="translate(-1216.174 -664.87)" fill="#2e3c4b"/>
      <path id="Path_2174" data-name="Path 2174" d="M1238.408,717.43a5.673,5.673,0,0,1-1.4-.131h0c-.324-.192.019-2.693.192-3.486.277-1.273.65-1.916,1.141-1.967.2-.02.463.047.706.475a10.557,10.557,0,0,1,.585,4.884C1239.5,717.375,1238.965,717.43,1238.408,717.43Zm-1.149-.452a7.631,7.631,0,0,0,2.054-.011c.089-.472-.042-3.773-.7-4.6-.121-.153-.206-.144-.236-.141-.121.012-.233.144-.305.253C1237.423,713.457,1237.2,716.41,1237.259,716.979Z" transform="translate(-1216.108 -661.541)" fill="#2e3c4b"/>
      <path id="Path_2175" data-name="Path 2175" d="M1238.984,694.887a3.273,3.273,0,0,1-.5-.032c-.306-.048-.491-.146-.566-.3a5.729,5.729,0,0,1,.614-3.2.763.763,0,0,1,.683-.423c.277.018.492.222.639.6a6.065,6.065,0,0,1,.067,3.162h0A1.686,1.686,0,0,1,1238.984,694.887Zm.2-3.565c-.092,0-.188.066-.286.2a5.734,5.734,0,0,0-.627,2.868,2.487,2.487,0,0,0,1.364.046,6.168,6.168,0,0,0-.227-2.945c-.1-.161-.184-.166-.212-.168Z" transform="translate(-1216.233 -658.906)" fill="#2e3c4b"/>
      <path id="Path_2176" data-name="Path 2176" d="M1239.35,687.212c-.4,0-1.349-.025-1.47-.256a7,7,0,0,1,.493-3.566.924.924,0,0,1,.835-.5.891.891,0,0,1,.714.429c.653.985.294,3.406.209,3.633h0c-.073.2-.344.238-.6.254C1239.527,687.21,1239.459,687.212,1239.35,687.212Zm-1.124-.478a4.63,4.63,0,0,0,1.553.052c.1-.385.326-2.5-.185-3.258a.494.494,0,0,0-.4-.249.484.484,0,0,0-.4.2C1238.186,684.184,1238.188,686.273,1238.226,686.734Zm-.065-.021" transform="translate(-1216.229 -657.893)" fill="#2e3c4b"/>
      <rect id="Rectangle_254" data-name="Rectangle 254" width="3.432" height="0.386" transform="matrix(0.927, -0.375, 0.375, 0.927, 36.338, 7.657)" fill="#2e3c4b"/>
      <rect id="Rectangle_255" data-name="Rectangle 255" width="4.345" height="0.386" transform="translate(38.001 11.19)" fill="#2e3c4b"/>
      <rect id="Rectangle_256" data-name="Rectangle 256" width="0.386" height="2.542" transform="matrix(0.539, -0.843, 0.843, 0.539, 37.347, 15.585)" fill="#2e3c4b"/>
      <rect id="Rectangle_257" data-name="Rectangle 257" width="0.386" height="3.3" transform="translate(9.282 5.99) rotate(-65.324)" fill="#2e3c4b"/>
      <rect id="Rectangle_258" data-name="Rectangle 258" width="3.519" height="0.386" transform="translate(7.343 10.211)" fill="#2e3c4b"/>
      <rect id="Rectangle_259" data-name="Rectangle 259" width="2.285" height="0.386" transform="translate(8.194 15.24) rotate(-20.317)" fill="#2e3c4b"/>
      <path id="Path_2177" data-name="Path 2177" d="M1243.866,682.493l-.165-.819c-.2-.982-.549-1.9-.736-1.934-.306.1-.813.9-1.074,1.449l-.318.662-.048-.733c0-.016-.114-1.576-1.029-1.585h-.011a.615.615,0,0,0-.485.194,1.616,1.616,0,0,0-.232,1.07l-.38.065c-.09-.407-.469-1.578-1.012-1.609h-.024c-.531,0-.99,1.021-1.109,1.384l-.26.786-.115-.82c0-.015-.22-1.45-1.01-1.344-.726.089-1.327,1.21-1.5,1.634l-.424,1.058.052-1.139c.022-.486-.066-1.505-.482-1.554-.382-.052-.9,1.134-1.123,1.947l-.371-.1c.108-.389.687-2.331,1.539-2.227.529.062.723.682.791,1.21a2.3,2.3,0,0,1,1.468-1.21c.737-.088,1.116.57,1.294,1.089.246-.5.7-1.122,1.293-1.1.51.03.858.542,1.076,1.03a1.209,1.209,0,0,1,.24-.427,1.019,1.019,0,0,1,.788-.323c.826.008,1.171.794,1.314,1.365.26-.448.657-1.023,1.04-1.141a.4.4,0,0,1,.323.044,2.89,2.89,0,0,1,.732,1.472c.258-.78.64-1.6,1.1-1.479l-.09.375h0c-.19.019-.594.926-.849,1.9Z" transform="translate(-1215.496 -657.386)" fill="#2e3c4b"/>
    </g>
    <g id="Group_354" data-name="Group 354" transform="translate(1169.911 635.727)">
      <path id="Path_2178" data-name="Path 2178" d="M1267.429,674.57l-.258-.236c1.583-1.735,2.289-4.283,2.222-8.015-.024-1.332-.205-3.2-1.488-4.076l.2-.288c1.417.961,1.616,2.947,1.642,4.357C1269.811,670.14,1269.076,672.764,1267.429,674.57Z" transform="translate(-1194.647 -649.094)" fill="#2e3c4b"/>
      <path id="Path_2179" data-name="Path 2179" d="M1288.15,686.2l-.219-.273c5.274-4.2,6.757-15.327,6.884-19.261.275-8.585-1.359-14.867-5-19.2l.267-.225c3.7,4.4,5.357,10.761,5.079,19.437C1295.037,670.655,1293.526,681.919,1288.15,686.2Z" transform="translate(-1197.263 -647.24)" fill="#2e3c4b"/>
      <path id="Path_2180" data-name="Path 2180" d="M1277.27,680.634l-.3-.176c.115-.2.315-.482.568-.841a24.338,24.338,0,0,0,4.952-12.933,16.542,16.542,0,0,0-4.015-11.836l.248-.247a16.915,16.915,0,0,1,4.117,12.1,24.681,24.681,0,0,1-5.017,13.118C1277.574,680.171,1277.378,680.449,1277.27,680.634Z" transform="translate(-1195.881 -648.168)" fill="#2e3c4b"/>
      <path id="Path_2181" data-name="Path 2181" d="M1211.961,676.558c-1.418-.962-1.615-2.948-1.641-4.357-.07-3.828.665-6.452,2.314-8.258l.258.236c-1.584,1.736-2.289,4.283-2.221,8.015.024,1.332.2,3.2,1.488,4.076Z" transform="translate(-1187.483 -649.345)" fill="#2e3c4b"/>
      <path id="Path_2182" data-name="Path 2182" d="M1189.3,687.475c-3.7-4.4-5.358-10.762-5.079-19.438.128-3.978,1.638-15.242,7.015-19.522l.219.273c-5.274,4.2-6.757,15.326-6.884,19.26-.275,8.585,1.359,14.867,5,19.2Z" transform="translate(-1184.192 -647.401)" fill="#2e3c4b"/>
      <path id="Path_2183" data-name="Path 2183" d="M1200.862,681.977a16.908,16.908,0,0,1-4.116-12.1,24.67,24.67,0,0,1,5.018-13.12c.247-.35.443-.628.551-.813l.3.176c-.115.2-.316.481-.568.838a24.356,24.356,0,0,0-4.953,12.935,16.544,16.544,0,0,0,4.014,11.836Z" transform="translate(-1185.771 -648.337)" fill="#2e3c4b"/>
    </g>
  </g>
</svg>
