<?xml version="1.0" encoding="UTF-8"?>
<svg xmlns="http://www.w3.org/2000/svg" xmlns:xlink="http://www.w3.org/1999/xlink" version="1.2" >
<font id="Clarika Pro Geometric Hairline">
<font-face  font-family="Clarika Pro Geometric" units-per-em="980" ascent="970" descent="-250" font-style="normal" font-weight="100" font-stretch="normal" cap-height="640" x-height="427" underline-position="-75" underline-thickness="50" />
<missing-glyph  horiz-adv-x="694" d="M588 640 L106 640 L106 0 L588 0 L588 640 Z M202 588 L493 588 L348 364 L202 588 Z M320 322 L163 80 L163 564 L320 322 Z M375 322 L531 562 L531 82 L375 322 Z M348 280 L495 52 L200 52 L348 280 Z " />
<glyph glyph-name="NULL" horiz-adv-x="266" d="" />
<glyph glyph-name="CR" unicode="&#xd;" horiz-adv-x="605" d="" />
<glyph glyph-name="space" unicode="&#x20;" horiz-adv-x="266" d="" />
<glyph glyph-name="exclam" unicode="&#x21;" horiz-adv-x="240" d="M126 640 L114 640 L115 151 L125 151 L126 640 Z M120 -1 C131 -1 139 7 139 18 C139 29 131 38 120 38 C109 38 101 29 101 18 C101 7 109 -1 120 -1 L120 -1 Z " />
<glyph glyph-name="quotedbl" unicode="&#x22;" horiz-adv-x="164" d="M44 472 L51 472 C51 623 55 616 55 640 C55 646 51 649 47 649 C44 649 40 646 40 640 C40 616 43 623 44 472 L44 472 Z M112 472 L119 472 C119 623 123 616 123 640 C123 646 119 649 115 649 C112 649 108 646 108 640 C108 616 111 623 112 472 L112 472 Z " />
<glyph glyph-name="numbersign" unicode="&#x23;" horiz-adv-x="541" d="M504 418 L504 427 L391 427 L449 643 L440 643 L382 427 L222 427 L280 643 L270 643 L212 427 L92 427 L92 418 L210 418 L158 225 L38 225 L38 216 L156 216 L98 0 L108 0 L166 216 L325 216 L267 0 L276 0 L334 216 L450 216 L450 225 L337 225 L388 418 L504 418 Z M328 225 L168 225 L220 418 L379 418 L328 225 Z " />
<glyph glyph-name="dollar" unicode="&#x24;" horiz-adv-x="550" d="M454 141 C454 236 386 282 299 328 L279 339 L279 640 C347 638 395 608 421 579 L430 586 C407 615 351 648 279 649 L279 740 L271 740 L271 649 C196 648 123 602 123 502 C123 413 198 369 271 331 L271 3 C187 5 134 37 105 80 L96 74 C117 40 172 -4 271 -6 L271 -99 L279 -99 L279 -6 C383 -6 454 52 454 141 L454 141 Z M133 501 C133 586 193 639 271 640 L271 343 C204 378 133 419 133 501 L133 501 Z M279 3 L279 327 L290 321 C383 272 444 229 444 141 C444 62 379 3 279 3 L279 3 Z " />
<glyph glyph-name="percent" unicode="&#x25;" horiz-adv-x="630" d="M165 405 C235 405 282 461 282 525 C282 589 235 645 165 645 C96 645 49 589 49 525 C49 461 96 405 165 405 L165 405 Z M101 0 L111 0 L520 640 L510 640 L101 0 Z M165 414 C103 414 61 464 61 525 C61 584 101 636 165 636 C230 636 270 583 270 525 C270 466 230 414 165 414 L165 414 Z M464 -12 C534 -12 581 44 581 108 C581 172 534 228 464 228 C394 228 348 172 348 108 C348 44 395 -12 464 -12 L464 -12 Z M464 -3 C402 -3 359 47 359 108 C359 166 399 219 464 219 C529 219 569 165 569 108 C569 48 529 -3 464 -3 L464 -3 Z " />
<glyph glyph-name="ampersand" unicode="&#x26;" horiz-adv-x="596" d="M548 -3 L449 109 C487 156 517 212 542 265 L533 268 C508 212 478 159 443 115 L215 374 C172 423 141 464 141 519 C140 585 188 640 255 641 C300 641 338 614 358 580 L367 585 C346 620 308 649 257 649 C181 649 129 591 130 519 C130 460 172 408 211 364 C95 300 49 221 49 147 C49 65 118 -11 235 -11 C322 -11 389 36 443 100 L539 -10 L548 -3 Z M234 -1 C126 -1 60 71 60 147 C60 223 113 303 217 357 L436 107 C382 41 316 -2 234 -1 L234 -1 Z " />
<glyph glyph-name="quotesingle" unicode="&#x27;" horiz-adv-x="95" d="M44 472 L51 472 C51 623 55 616 55 640 C55 646 51 649 47 649 C44 649 40 646 40 640 C40 616 43 623 44 472 L44 472 Z " />
<glyph glyph-name="parenleft" unicode="&#x28;" horiz-adv-x="292" d="M251 -132 L256 -127 C187 -67 95 90 95 300 C95 511 187 667 256 727 L251 732 C180 673 86 514 86 300 C86 87 180 -73 251 -132 L251 -132 Z " />
<glyph glyph-name="parenright" unicode="&#x29;" horiz-adv-x="292" d="M41 -132 C112 -73 206 87 206 300 C206 514 112 673 41 732 L36 727 C105 667 197 511 197 300 C197 90 105 -67 36 -127 L41 -132 Z " />
<glyph glyph-name="asterisk" unicode="&#x2a;" horiz-adv-x="303" d="M263 572 L261 579 L154 545 L154 655 L146 655 L146 545 L42 578 L40 571 L144 538 L77 446 L83 441 L150 534 L216 442 L222 446 L156 537 L263 572 Z " />
<glyph glyph-name="plus" unicode="&#x2b;" horiz-adv-x="484" d="M425 259 L247 259 L247 438 L237 438 L237 259 L59 259 L59 249 L237 249 L237 71 L247 71 L247 249 L425 249 L425 259 Z " />
<glyph glyph-name="comma" unicode="&#x2c;" horiz-adv-x="240" d="M93 -93 C127 -77 144 -43 149 -14 C154 14 144 38 124 38 C110 38 104 29 104 16 C104 1 123 -6 139 2 C141 -9 136 -61 89 -87 L93 -93 Z " />
<glyph glyph-name="hyphen" unicode="&#x2d;" horiz-adv-x="337" d="M58 249 L278 249 L278 259 L58 259 L58 249 Z " />
<glyph glyph-name="period" unicode="&#x2e;" horiz-adv-x="240" d="M120 -1 C131 -1 139 7 139 18 C139 29 131 38 120 38 C109 38 101 29 101 18 C101 7 109 -1 120 -1 L120 -1 Z " />
<glyph glyph-name="slash" unicode="&#x2f;" horiz-adv-x="465" d="M48 -121 L57 -121 L417 696 L408 696 L48 -121 Z " />
<glyph glyph-name="zero" unicode="0" horiz-adv-x="534" d="M267 -6 C399 -6 485 127 485 321 C485 514 399 649 267 649 C135 649 49 514 49 321 C49 127 135 -6 267 -6 L267 -6 Z M267 3 C135 2 59 141 59 321 C59 499 135 640 267 640 C398 640 475 499 475 321 C475 141 398 4 267 3 L267 3 Z " />
<glyph glyph-name="one" unicode="1" horiz-adv-x="534" d="M349 640 L146 503 L151 494 L348 629 L348 0 L358 0 L358 640 L349 640 Z " />
<glyph glyph-name="two" unicode="2" horiz-adv-x="534" d="M88 9 L336 273 C383 323 440 394 440 479 C440 577 371 648 263 649 C176 649 125 600 105 574 L112 567 C137 597 186 641 263 640 C359 638 430 575 430 480 C430 398 378 333 323 274 L73 9 L73 0 L461 0 L461 9 L88 9 Z " />
<glyph glyph-name="three" unicode="3" horiz-adv-x="534" d="M207 353 L440 632 L440 640 L94 640 L94 631 L427 631 L190 347 L195 341 C223 348 276 353 323 341 C384 325 451 276 452 177 C453 85 384 3 260 3 C187 3 127 26 69 83 L61 75 C121 15 194 -6 256 -6 C395 -7 463 82 463 177 C462 292 369 377 207 353 L207 353 Z " />
<glyph glyph-name="four" unicode="4" horiz-adv-x="534" d="M483 179 L409 179 L409 401 L399 401 L399 179 L64 179 L353 640 L341 640 L50 177 L50 170 L399 170 L399 0 L409 0 L409 170 L483 170 L483 179 Z " />
<glyph glyph-name="five" unicode="5" horiz-adv-x="534" d="M253 385 C178 384 134 356 117 343 L166 631 L428 631 L428 640 L158 640 L106 333 L115 329 C138 348 185 376 257 375 C364 374 452 304 450 185 C447 82 370 3 244 3 C147 3 85 57 61 87 L54 79 C76 52 140 -6 245 -6 C379 -6 456 79 459 182 C463 311 364 386 253 385 L253 385 Z " />
<glyph glyph-name="six" unicode="6" horiz-adv-x="534" d="M270 -7 C385 -7 471 81 471 190 C471 310 373 390 270 390 C206 390 156 366 121 327 L327 640 L316 640 C108 319 68 288 68 190 C69 80 149 -7 270 -7 L270 -7 Z M270 2 C156 2 79 86 79 191 C79 281 146 380 270 380 C376 380 460 295 460 191 C460 86 378 2 270 2 L270 2 Z " />
<glyph glyph-name="seven" unicode="7" horiz-adv-x="534" d="M77 640 L77 631 L446 631 L166 0 L177 0 L457 632 L457 640 L77 640 Z " />
<glyph glyph-name="eight" unicode="8" horiz-adv-x="534" d="M312 342 C382 360 441 413 441 494 C441 572 375 649 267 649 C159 649 93 572 93 494 C93 413 149 360 221 342 C123 321 60 252 60 169 C60 86 126 -6 267 -6 C408 -6 473 86 473 169 C473 252 411 321 312 342 L312 342 Z M103 493 C103 574 172 640 267 640 C361 640 430 574 430 493 C430 411 361 346 267 346 C172 346 103 411 103 493 L103 493 Z M267 3 C148 3 71 78 71 169 C71 257 150 335 267 335 C386 335 462 257 462 169 C462 78 386 3 267 3 L267 3 Z " />
<glyph glyph-name="nine" unicode="9" horiz-adv-x="534" d="M264 647 C149 647 63 559 63 450 C63 330 161 250 264 250 C328 250 378 274 413 313 L207 0 L218 0 C426 321 466 352 466 450 C465 560 385 647 264 647 L264 647 Z M264 638 C378 638 455 554 455 449 C455 359 388 260 264 260 C158 260 74 345 74 449 C74 554 156 638 264 638 L264 638 Z " />
<glyph glyph-name="colon" unicode="&#x3a;" horiz-adv-x="240" d="M122 400 C133 400 142 409 142 419 C142 430 133 439 122 439 C112 439 103 430 103 419 C103 409 112 400 122 400 L122 400 Z M120 -1 C131 -1 139 7 139 18 C139 29 131 38 120 38 C109 38 101 29 101 18 C101 7 109 -1 120 -1 L120 -1 Z " />
<glyph glyph-name="semicolon" unicode="&#x3b;" horiz-adv-x="259" d="M137 400 C148 400 156 409 156 419 C156 430 148 439 137 439 C126 439 118 430 118 419 C118 409 126 400 137 400 L137 400 Z M104 -94 C138 -78 155 -43 160 -14 C164 14 155 38 135 38 C121 37 115 29 115 16 C115 1 134 -6 150 2 C152 -9 147 -61 100 -87 L104 -94 Z " />
<glyph glyph-name="less" unicode="&#x3c;" horiz-adv-x="492" d="M433 460 L59 288 L59 280 L433 107 L433 118 L71 284 L433 450 L433 460 Z " />
<glyph glyph-name="equal" unicode="&#x3d;" horiz-adv-x="484" d="M59 318 L425 318 L425 327 L59 327 L59 318 Z M59 183 L425 183 L425 192 L59 192 L59 183 Z " />
<glyph glyph-name="greater" unicode="&#x3e;" horiz-adv-x="492" d="M59 460 L59 450 L421 284 L59 118 L59 107 L433 280 L433 288 L59 460 Z " />
<glyph glyph-name="question" unicode="&#x3f;" horiz-adv-x="443" d="M192 145 L201 145 L201 303 C303 301 397 360 393 485 C391 584 311 649 208 649 C131 649 80 613 44 563 L52 556 C75 591 122 640 209 640 C301 640 381 583 383 482 C386 380 306 307 192 312 L192 145 Z M197 -1 C208 -1 217 7 217 18 C217 29 208 38 197 38 C186 38 178 29 178 18 C178 7 186 -1 197 -1 L197 -1 Z " />
<glyph glyph-name="at" unicode="&#x40;" horiz-adv-x="778" d="M712 292 C711 475 587 594 399 594 C215 594 65 436 66 248 C67 69 182 -57 367 -57 C440 -57 492 -40 544 -6 L540 4 C493 -28 446 -46 368 -46 C191 -46 77 71 77 250 C76 429 223 583 399 583 C576 583 700 473 701 288 C701 206 658 86 569 90 C541 92 505 120 525 239 L568 427 L560 427 L531 310 L528 297 C529 390 483 440 403 440 C302 440 224 349 215 250 C205 142 260 76 344 76 C415 76 475 129 506 192 C500 118 529 81 570 81 C663 81 713 198 712 292 L712 292 Z M348 84 C269 84 218 148 228 251 C236 344 311 432 402 432 C488 432 530 375 516 260 C507 174 429 84 348 84 L348 84 Z " />
<glyph glyph-name="A" unicode="A" horiz-adv-x="599" d="M550 0 L561 0 L304 640 L294 640 L38 0 L49 0 L143 236 L455 236 L550 0 Z M147 245 L299 626 L452 245 L147 245 Z " />
<glyph glyph-name="B" unicode="B" horiz-adv-x="527" d="M276 358 C344 364 394 428 394 494 C394 584 333 640 219 640 L106 640 L106 0 L212 0 C381 0 457 73 457 180 C457 273 381 352 276 358 L276 358 Z M222 630 C327 630 384 581 384 495 C384 415 319 362 249 362 L116 362 L116 630 L222 630 Z M217 10 L116 10 L116 352 L249 352 C359 352 446 282 446 180 C446 76 374 10 217 10 L217 10 Z " />
<glyph glyph-name="C" unicode="C" horiz-adv-x="619" d="M386 -10 C454 -10 514 7 564 37 L557 45 C514 17 455 -1 386 -1 C205 -1 76 146 76 320 C76 493 205 640 386 640 C455 640 514 622 557 595 L564 603 C514 633 454 649 386 649 C204 649 66 504 66 320 C66 136 204 -10 386 -10 L386 -10 Z " />
<glyph glyph-name="D" unicode="D" horiz-adv-x="603" d="M189 640 L106 640 L106 0 L189 0 C422 0 537 142 537 320 C537 498 422 640 189 640 L189 640 Z M193 9 L116 9 L116 631 L193 631 C364 631 526 538 526 320 C526 102 364 9 193 9 L193 9 Z " />
<glyph glyph-name="E" unicode="E" horiz-adv-x="507" d="M431 630 L431 640 L106 640 L106 0 L431 0 L431 10 L116 10 L116 316 L381 316 L381 325 L116 325 L116 630 L431 630 Z " />
<glyph glyph-name="F" unicode="F" horiz-adv-x="481" d="M429 630 L429 640 L106 640 L106 0 L116 0 L116 316 L379 316 L379 326 L116 326 L116 630 L429 630 Z " />
<glyph glyph-name="G" unicode="G" horiz-adv-x="734" d="M439 321 L439 310 L662 310 C664 131 563 3 386 3 C196 3 76 147 76 323 C76 499 198 640 391 640 C490 640 556 603 576 586 L584 596 C553 619 479 649 391 649 C195 649 66 505 66 323 C66 140 192 -6 386 -6 C585 -6 674 146 674 305 L674 321 L439 321 Z " />
<glyph glyph-name="H" unicode="H" horiz-adv-x="686" d="M570 640 L570 341 L116 341 L116 640 L106 640 L106 0 L116 0 L116 332 L570 332 L570 0 L580 0 L580 640 L570 640 Z " />
<glyph glyph-name="I" unicode="I" horiz-adv-x="242" d="M126 640 L116 640 L116 0 L126 0 L126 640 Z " />
<glyph glyph-name="J" unicode="J" horiz-adv-x="357" d="M148 -6 C225 -6 267 46 267 136 L267 640 L257 640 L257 130 C257 52 218 3 149 3 C100 3 76 20 54 51 L46 45 C67 15 97 -6 148 -6 L148 -6 Z " />
<glyph glyph-name="K" unicode="K" horiz-adv-x="557" d="M116 640 L106 640 L106 0 L116 0 L116 640 Z M127 340 L484 0 L501 0 L142 340 L494 640 L478 640 L127 340 Z " />
<glyph glyph-name="L" unicode="L" horiz-adv-x="432" d="M116 10 L116 640 L106 640 L106 0 L386 0 L386 10 L116 10 Z " />
<glyph glyph-name="M" unicode="M" horiz-adv-x="817" d="M703 640 L409 257 L114 640 L106 640 L106 0 L116 0 L116 622 L408 239 L700 621 L700 0 L711 0 L711 640 L703 640 Z " />
<glyph glyph-name="N" unicode="N" horiz-adv-x="716" d="M599 640 L599 18 L116 640 L106 640 L106 0 L116 0 L116 621 L599 0 L610 0 L610 640 L599 640 Z " />
<glyph glyph-name="O" unicode="O" horiz-adv-x="791" d="M396 -6 C585 -6 725 140 725 321 C725 505 585 649 396 649 C207 649 66 505 66 321 C66 140 207 -6 396 -6 L396 -6 Z M396 3 C210 3 76 146 76 321 C76 498 210 640 396 640 C580 640 715 498 715 321 C715 146 580 3 396 3 L396 3 Z " />
<glyph glyph-name="P" unicode="P" horiz-adv-x="478" d="M236 640 L106 640 L106 0 L116 0 L116 304 L236 304 C328 304 424 354 424 472 C424 590 328 640 236 640 L236 640 Z M233 314 L116 314 L116 631 L233 631 C334 631 414 575 414 472 C414 370 334 314 233 314 L233 314 Z " />
<glyph glyph-name="Q" unicode="Q" horiz-adv-x="779" d="M725 321 C725 505 585 649 396 649 C207 649 66 505 66 321 C66 140 207 -6 396 -6 C462 -6 522 12 573 43 L701 -114 L714 -114 L583 50 C670 108 725 208 725 321 L725 321 Z M76 321 C76 498 210 640 396 640 C580 640 715 498 715 321 C715 146 580 3 396 3 C210 3 76 146 76 321 L76 321 Z " />
<glyph glyph-name="R" unicode="R" horiz-adv-x="498" d="M442 0 L456 0 L200 326 L241 326 C334 326 426 371 426 481 C426 590 334 640 242 640 L106 640 L106 0 L116 0 L116 326 L187 326 L442 0 Z M116 631 L238 631 C335 631 415 582 415 481 C415 379 333 335 234 335 L116 335 L116 631 Z " />
<glyph glyph-name="S" unicode="S" horiz-adv-x="490" d="M238 -6 C343 -6 414 52 414 141 C414 236 346 282 259 328 C185 368 93 407 93 501 C93 587 154 640 233 640 C305 640 354 609 382 579 L390 586 C366 616 308 649 234 649 C158 649 83 603 83 502 C83 405 172 362 250 321 C343 272 404 229 404 141 C404 62 339 3 240 3 C151 3 95 36 65 80 L56 74 C78 39 136 -6 238 -6 L238 -6 Z " />
<glyph glyph-name="T" unicode="T" horiz-adv-x="476" d="M433 640 L44 640 L44 630 L233 630 L233 0 L243 0 L243 630 L433 630 L433 640 Z " />
<glyph glyph-name="U" unicode="U" horiz-adv-x="598" d="M299 -6 C447 -6 508 92 508 231 L508 640 L498 640 L498 233 C498 104 445 3 299 3 C153 3 100 104 100 233 L100 640 L90 640 L90 231 C90 92 151 -6 299 -6 L299 -6 Z " />
<glyph glyph-name="V" unicode="V" horiz-adv-x="579" d="M529 640 L289 17 L50 640 L38 640 L285 0 L293 0 L541 640 L529 640 Z " />
<glyph glyph-name="W" unicode="W" horiz-adv-x="968" d="M907 640 L689 18 L489 640 L481 640 L280 18 L61 640 L50 640 L275 0 L283 0 L485 625 L686 0 L693 0 L919 640 L907 640 Z " />
<glyph glyph-name="X" unicode="X" horiz-adv-x="586" d="M530 0 L299 326 L518 640 L505 640 L292 334 L81 640 L68 640 L287 325 L56 0 L70 0 L293 317 L516 0 L530 0 Z " />
<glyph glyph-name="Y" unicode="Y" horiz-adv-x="517" d="M479 640 L467 640 L259 325 L50 640 L38 640 L254 315 L254 0 L264 0 L264 315 L479 640 Z " />
<glyph glyph-name="Z" unicode="Z" horiz-adv-x="592" d="M99 9 L510 632 L510 640 L100 640 L100 631 L497 631 L86 8 L86 0 L526 0 L526 9 L99 9 Z " />
<glyph glyph-name="bracketleft" unicode="&#x5b;" horiz-adv-x="282" d="M229 726 L106 726 L106 -126 L229 -126 L229 -118 L116 -118 L116 718 L229 718 L229 726 Z " />
<glyph glyph-name="backslash" unicode="&#x5c;" horiz-adv-x="465" d="M417 -121 L57 696 L48 696 L408 -121 L417 -121 Z " />
<glyph glyph-name="bracketright" unicode="&#x5d;" horiz-adv-x="282" d="M53 726 L53 718 L166 718 L166 -118 L53 -118 L53 -126 L176 -126 L176 726 L53 726 Z " />
<glyph glyph-name="asciicircum" unicode="&#x5e;" horiz-adv-x="471" d="M405 326 L238 643 L232 643 L66 326 L77 326 L235 630 L394 326 L405 326 Z " />
<glyph glyph-name="underscore" unicode="&#x5f;" horiz-adv-x="426" d="M0 -85 L426 -85 L426 -78 L0 -78 L0 -85 Z " />
<glyph glyph-name="grave" unicode="&#x60;" horiz-adv-x="223" d="M154 528 C167 514 172 510 178 510 L182 510 L50 650 L40 646 L154 528 Z " />
<glyph glyph-name="a" unicode="a" horiz-adv-x="532" d="M451 427 L450 285 L450 279 C426 371 351 438 254 438 C138 438 49 345 49 216 C49 87 138 -7 255 -7 C351 -7 426 60 450 153 L450 149 L451 0 L459 0 L459 427 L451 427 Z M256 2 C145 2 59 94 59 216 C59 337 145 429 255 429 C364 429 450 338 450 216 C450 94 364 2 256 2 L256 2 Z " />
<glyph glyph-name="b" unicode="b" horiz-adv-x="532" d="M278 438 C180 438 105 369 82 276 L82 680 L73 680 L73 0 L81 0 L82 156 C104 61 180 -7 277 -7 C394 -7 483 87 483 216 C483 345 394 438 278 438 L278 438 Z M277 2 C168 2 82 94 82 216 C82 338 168 429 278 429 C388 429 473 337 473 216 C473 94 388 2 277 2 L277 2 Z " />
<glyph glyph-name="c" unicode="c" horiz-adv-x="432" d="M260 -6 C312 -6 358 12 394 41 L387 49 C355 20 310 3 260 3 C136 3 59 97 59 217 C59 336 136 430 260 430 C310 430 355 413 387 384 L393 391 C358 421 312 439 260 439 C130 439 49 339 49 217 C49 93 130 -6 260 -6 L260 -6 Z " />
<glyph glyph-name="d" unicode="d" horiz-adv-x="532" d="M450 680 L450 279 C426 371 351 438 254 438 C138 438 49 345 49 216 C49 87 138 -7 255 -7 C351 -7 426 60 450 152 L451 0 L460 0 L460 680 L450 680 Z M256 2 C145 2 59 94 59 216 C59 337 145 429 255 429 C364 429 450 338 450 216 C450 94 364 2 256 2 L256 2 Z " />
<glyph glyph-name="e" unicode="e" horiz-adv-x="492" d="M443 236 L443 248 C443 345 368 438 252 438 C131 438 49 342 49 225 C49 95 128 -6 261 -6 C331 -6 390 24 425 62 L416 69 C386 33 331 3 261 3 C134 3 59 100 59 225 L59 236 L443 236 Z M252 428 C360 428 434 343 433 246 L60 246 C69 348 143 428 252 428 L252 428 Z " />
<glyph glyph-name="f" unicode="f" horiz-adv-x="269" d="M196 680 C225 680 246 670 262 659 L268 668 C250 679 226 689 199 689 C155 689 108 658 108 584 L108 427 L49 427 L49 419 L108 419 L108 0 L117 0 L117 419 L232 419 L232 427 L117 427 L117 584 C117 652 161 680 196 680 L196 680 Z " />
<glyph glyph-name="g" unicode="g" horiz-adv-x="532" d="M451 427 L450 279 C426 371 351 438 254 438 C138 438 49 345 49 216 C49 87 138 -7 255 -7 C351 -7 426 60 450 152 L450 11 C450 -124 399 -201 264 -201 C239 -201 222 -199 202 -194 L201 -203 C221 -207 241 -210 263 -210 C401 -210 459 -139 459 20 L459 427 L451 427 Z M256 2 C145 2 59 94 59 216 C59 337 145 429 255 429 C364 429 450 338 450 216 C450 94 364 2 256 2 L256 2 Z " />
<glyph glyph-name="h" unicode="h" horiz-adv-x="472" d="M241 439 C157 439 100 378 82 296 L82 680 L73 680 L73 0 L82 0 L82 258 L84 244 C88 353 148 430 242 430 C324 430 393 381 393 245 L393 0 L403 0 L403 247 C403 401 315 439 241 439 L241 439 Z " />
<glyph glyph-name="i" unicode="i" horiz-adv-x="182" d="M90 548 C100 548 109 556 109 567 C109 578 100 587 90 587 C79 587 70 578 70 567 C70 556 79 548 90 548 L90 548 Z M85 0 L94 0 L94 427 L85 427 L85 0 Z " />
<glyph glyph-name="j" unicode="j" horiz-adv-x="211" d="M118 548 C128 548 137 556 137 567 C137 578 128 587 118 587 C107 587 98 578 98 567 C98 556 107 548 118 548 L118 548 Z M123 -97 L123 427 L113 427 L113 -95 C113 -172 75 -207 -1 -199 L-1 -209 C71 -217 123 -188 123 -97 L123 -97 Z " />
<glyph glyph-name="k" unicode="k" horiz-adv-x="392" d="M73 0 L82 0 L82 680 L73 680 L73 0 Z M363 0 L379 0 L109 235 L352 427 L337 427 L93 235 L363 0 Z " />
<glyph glyph-name="l" unicode="l" horiz-adv-x="163" d="M77 0 L86 0 L86 680 L77 680 L77 0 Z " />
<glyph glyph-name="m" unicode="m" horiz-adv-x="730" d="M514 439 C442 439 388 393 369 298 C354 408 273 439 223 439 C161 439 98 394 82 303 L82 427 L73 427 L73 0 L82 0 L82 258 C90 362 147 430 221 430 C305 430 361 362 361 267 L361 0 L371 0 L371 246 C379 364 431 430 511 430 C607 430 652 363 652 257 L652 0 L662 0 L662 255 C662 401 583 439 514 439 L514 439 Z " />
<glyph glyph-name="n" unicode="n" horiz-adv-x="469" d="M239 439 C157 439 101 382 82 304 L81 427 L73 427 L73 0 L82 0 L82 258 C91 360 150 430 240 430 C321 430 391 381 391 245 L391 0 L400 0 L400 247 C400 401 313 439 239 439 L239 439 Z " />
<glyph glyph-name="o" unicode="o" horiz-adv-x="539" d="M269 -6 C394 -6 490 91 490 216 C490 341 394 438 269 438 C143 438 49 341 49 216 C49 91 143 -6 269 -6 L269 -6 Z M269 3 C148 3 59 98 59 216 C59 334 148 429 269 429 C389 429 480 334 480 216 C480 98 389 3 269 3 L269 3 Z " />
<glyph glyph-name="p" unicode="p" horiz-adv-x="532" d="M278 438 C180 438 105 370 82 276 L82 427 L73 427 L74 -210 L82 -210 L82 156 C105 61 180 -7 277 -7 C394 -7 483 87 483 216 C483 345 394 438 278 438 L278 438 Z M276 2 C168 2 82 94 82 216 C82 338 168 429 278 429 C388 429 473 337 473 216 C473 94 388 2 276 2 L276 2 Z " />
<glyph glyph-name="q" unicode="q" horiz-adv-x="532" d="M451 427 L450 279 C426 371 351 438 254 438 C138 438 49 345 49 216 C49 87 138 -7 255 -7 C351 -7 426 60 450 152 L450 -210 L458 -210 L459 427 L451 427 Z M256 2 C145 2 59 94 59 216 C59 337 145 429 255 429 C364 429 450 338 450 216 C450 94 364 2 256 2 L256 2 Z " />
<glyph glyph-name="r" unicode="r" horiz-adv-x="240" d="M202 439 C133 439 96 385 82 330 L81 427 L73 427 L73 0 L82 0 L82 268 L82 270 L82 279 C84 368 131 428 196 428 C207 428 211 427 221 425 L224 436 C217 438 211 439 202 439 L202 439 Z " />
<glyph glyph-name="s" unicode="s" horiz-adv-x="359" d="M39 60 C57 30 105 -6 171 -6 C250 -6 310 36 310 112 C310 274 67 189 65 329 C63 392 110 429 176 428 C231 428 264 409 287 387 L295 396 C271 417 235 438 176 438 C104 438 53 396 54 329 C56 175 300 264 300 111 C300 44 248 3 172 3 C110 3 66 37 49 67 L39 60 Z " />
<glyph glyph-name="t" unicode="t" horiz-adv-x="273" d="M232 427 L117 427 L117 557 L108 557 L108 427 L49 427 L49 419 L108 419 L108 0 L117 0 L117 419 L232 419 L232 427 Z " />
<glyph glyph-name="u" unicode="u" horiz-adv-x="466" d="M234 -12 C306 -12 398 27 398 169 L398 427 L388 427 L388 169 C388 63 333 -3 234 -3 C133 -3 79 63 79 169 L79 427 L69 427 L69 169 C69 27 161 -12 234 -12 L234 -12 Z " />
<glyph glyph-name="v" unicode="v" horiz-adv-x="434" d="M402 427 L217 13 L32 427 L21 427 L214 0 L222 0 L413 427 L402 427 Z " />
<glyph glyph-name="w" unicode="w" horiz-adv-x="655" d="M618 427 L462 16 L331 427 L324 427 L193 16 L37 427 L27 427 L190 0 L197 0 L328 414 L458 0 L465 0 L628 427 L618 427 Z " />
<glyph glyph-name="x" unicode="x" horiz-adv-x="398" d="M204 228 L349 427 L337 427 L202 240 L203 240 L199 235 L195 240 L196 240 L61 427 L48 427 L194 228 L25 0 L38 0 L195 214 L194 214 L199 221 L204 214 L203 214 L359 0 L373 0 L204 228 Z " />
<glyph glyph-name="y" unicode="y" horiz-adv-x="423" d="M391 427 L209 21 L32 427 L21 427 L204 9 L107 -210 L118 -210 L402 427 L391 427 Z " />
<glyph glyph-name="z" unicode="z" horiz-adv-x="424" d="M65 9 L365 419 L365 427 L66 427 L66 418 L353 418 L51 9 L51 0 L378 0 L378 9 L65 9 Z " />
<glyph glyph-name="braceleft" unicode="&#x7b;" horiz-adv-x="317" d="M168 392 L168 639 C168 692 200 718 252 718 L281 718 L281 726 L250 726 C186 726 158 692 158 636 L158 391 C158 337 116 310 86 304 L86 296 C116 291 158 263 158 209 L158 -35 C158 -91 186 -126 250 -126 L281 -126 L281 -118 L252 -118 C200 -118 168 -92 168 -39 L168 209 C168 264 129 293 99 300 C129 307 168 337 168 392 L168 392 Z " />
<glyph glyph-name="bar" unicode="&#x7c;" horiz-adv-x="240" d="M116 710 L116 -160 L124 -160 L124 710 L116 710 Z " />
<glyph glyph-name="braceright" unicode="&#x7d;" horiz-adv-x="317" d="M158 391 L158 636 C158 692 131 726 67 726 L36 726 L36 718 L65 718 C117 718 149 692 149 639 L149 392 C149 337 188 307 217 300 C188 293 149 264 149 209 L149 -39 C149 -92 117 -118 65 -118 L36 -118 L36 -126 L67 -126 C131 -126 158 -91 158 -35 L158 209 C158 263 200 291 231 296 L231 304 C200 310 158 337 158 391 L158 391 Z " />
<glyph glyph-name="asciitilde" unicode="&#x7e;" horiz-adv-x="371" d="M242 249 C275 249 301 269 313 302 L303 307 C292 280 275 260 243 260 C200 260 163 306 123 306 C93 306 72 288 59 261 L69 255 C78 273 94 295 122 295 C161 295 195 249 242 249 L242 249 Z " />
<glyph glyph-name="uni00A0" unicode="&#xa0;" horiz-adv-x="266" d="" />
<glyph glyph-name="exclamdown" unicode="&#xa1;" horiz-adv-x="185" d="M65 439 C55 439 46 431 46 420 C46 409 55 400 65 400 C76 400 85 409 85 420 C85 431 76 439 65 439 L65 439 Z M59 -202 L71 -202 L70 287 L61 287 L59 -202 Z " />
<glyph glyph-name="cent" unicode="&#xa2;" horiz-adv-x="470" d="M271 109 C255 109 240 111 225 114 L303 534 C340 529 373 513 398 491 L405 498 C377 521 343 537 305 543 L323 640 L315 640 L297 544 C289 545 280 546 271 546 C141 546 60 445 60 323 C60 218 118 131 216 107 L196 0 L204 0 L223 105 C238 102 254 100 271 100 C323 100 369 118 405 148 L398 155 C366 126 321 109 271 109 L271 109 Z M71 323 C71 443 147 537 271 537 C279 537 288 536 296 536 L217 115 C125 138 71 221 71 323 L71 323 Z " />
<glyph glyph-name="sterling" unicode="&#xa3;" horiz-adv-x="555" d="M195 9 L195 303 L402 303 L402 311 L195 311 L195 487 C195 592 251 641 335 641 C380 641 419 627 455 595 L461 602 C427 634 386 649 335 649 C251 649 186 600 186 487 L186 311 L99 311 L99 303 L186 303 L186 9 L99 9 L99 0 L473 0 L473 9 L195 9 Z " />
<glyph glyph-name="currency" unicode="&#xa4;" horiz-adv-x="550" d="M455 325 C455 371 439 414 412 447 L486 533 L461 534 L399 461 C367 494 324 514 275 514 C228 514 185 495 153 463 L68 537 L67 512 L141 449 C113 416 96 372 96 325 C96 279 112 236 138 203 L65 118 L90 117 L151 189 C183 156 227 136 275 136 C323 136 366 155 398 187 L482 114 L483 139 L410 201 C438 234 455 278 455 325 L455 325 Z M275 145 C228 145 187 164 157 196 L164 204 L149 205 C122 237 106 279 106 325 C106 370 122 411 148 443 L154 438 L155 451 C185 484 228 505 275 505 C321 505 362 485 393 454 L387 447 L400 446 C428 414 445 371 445 325 C445 280 430 238 404 207 L396 213 L395 197 C365 165 323 145 275 145 L275 145 Z " />
<glyph glyph-name="yen" unicode="&#xa5;" horiz-adv-x="635" d="M539 640 L526 640 L318 326 L110 640 L97 640 L307 324 L153 324 L153 315 L313 315 L313 224 L153 224 L153 215 L313 215 L313 0 L323 0 L323 215 L483 215 L483 224 L323 224 L323 315 L483 315 L483 324 L329 324 L539 640 Z " />
<glyph glyph-name="brokenbar" unicode="&#xa6;" horiz-adv-x="220" d="M106 625 L106 340 L114 340 L114 625 L106 625 Z M106 210 L106 -75 L114 -75 L114 210 L106 210 Z " />
<glyph glyph-name="section" unicode="&#xa7;" horiz-adv-x="480" d="M324 69 C379 95 406 143 404 195 C403 269 347 310 249 372 C174 420 105 463 105 531 C105 596 153 640 225 641 C281 641 321 617 338 600 L345 608 C325 625 287 649 226 649 C153 650 94 606 94 532 C94 491 114 460 148 431 C100 413 64 372 64 320 C64 230 143 186 254 110 C314 68 363 36 363 -32 C364 -108 299 -152 212 -152 C142 -152 86 -115 63 -88 L56 -95 C80 -123 138 -161 211 -161 C300 -161 374 -117 373 -29 C373 12 353 42 324 69 L324 69 Z M75 318 C75 365 105 406 156 424 C183 403 216 382 253 358 C338 302 392 265 393 193 C395 150 371 100 315 76 C297 92 276 106 255 121 C151 193 75 239 75 318 L75 318 Z " />
<glyph glyph-name="dieresis" unicode="&#xa8;" horiz-adv-x="268" d="M58 556 C48 556 40 548 40 539 C40 529 48 521 58 521 C67 521 75 529 75 539 C75 548 67 556 58 556 L58 556 Z M211 556 C201 556 194 548 194 539 C194 529 201 521 211 521 C221 521 228 529 228 539 C228 548 221 556 211 556 L211 556 Z " />
<glyph glyph-name="copyright" unicode="&#xa9;" horiz-adv-x="782" d="M391 -6 C576 -6 716 141 716 322 C716 504 577 649 391 649 C206 649 66 504 66 322 C66 141 206 -6 391 -6 L391 -6 Z M391 6 C212 6 82 149 82 322 C82 496 212 637 391 637 C570 637 699 496 699 322 C699 149 569 6 391 6 L391 6 Z M393 120 C434 120 471 130 501 151 L495 161 C471 143 432 131 393 131 C288 131 212 218 212 322 C212 425 288 512 393 512 C432 512 471 500 494 482 L501 492 C471 513 434 523 393 523 C284 523 201 434 201 321 C201 209 284 120 393 120 L393 120 Z " />
<glyph glyph-name="ordfeminine" unicode="&#xaa;" horiz-adv-x="391" d="M197 348 C264 348 315 393 333 454 L333 450 L334 357 L340 357 L340 647 L334 647 L333 550 C315 611 263 655 197 655 C112 655 49 591 49 501 C49 413 112 348 197 348 L197 348 Z M197 648 C273 648 333 585 333 501 C333 418 273 355 197 355 C119 355 58 417 58 501 C58 586 119 648 197 648 L197 648 Z M63 282 L63 274 L343 274 L343 282 L63 282 Z " />
<glyph glyph-name="guillemotleft" unicode="&#xab;" horiz-adv-x="406" d="M219 420 L207 420 L49 242 L207 64 L217 64 L59 241 L219 420 Z M357 420 L346 420 L187 242 L346 64 L356 64 L198 241 L357 420 Z " />
<glyph glyph-name="logicalnot" unicode="&#xac;" horiz-adv-x="409" d="M16 363 L16 321 L359 321 L359 363 L16 363 Z M359 321 L359 182 L374 182 L374 321 L359 321 Z " />
<glyph glyph-name="uni00AD" unicode="&#xad;" horiz-adv-x="337" d="M58 249 L278 249 L278 259 L58 259 L58 249 Z " />
<glyph glyph-name="registered" unicode="&#xae;" horiz-adv-x="441" d="M220 649 C114 649 40 569 40 470 C40 369 114 289 220 289 C326 289 401 368 401 470 C401 569 327 649 220 649 L220 649 Z M220 300 C118 300 54 376 54 470 C54 562 118 638 220 638 C322 638 387 562 387 470 C387 376 322 300 220 300 L220 300 Z M215 459 C245 460 282 475 282 516 C282 558 245 573 215 573 L170 574 L165 574 L159 573 L159 362 L170 362 L170 459 L197 459 L278 362 L294 362 L211 459 L215 459 Z M170 562 L214 562 C245 562 270 548 270 516 C270 485 245 471 214 471 L170 471 L170 562 Z " />
<glyph glyph-name="macron" unicode="&#xaf;" horiz-adv-x="284" d="M40 665 L243 665 L243 674 L40 674 L40 665 Z " />
<glyph glyph-name="degree" unicode="&#xb0;" horiz-adv-x="323" d="M161 649 C94 649 40 595 40 526 C40 458 94 404 161 404 C227 404 282 458 282 526 C282 595 227 649 161 649 L161 649 Z M161 412 C101 412 51 461 51 526 C51 592 101 640 161 640 C222 640 271 592 271 526 C271 461 222 412 161 412 L161 412 Z " />
<glyph glyph-name="plusminus" unicode="&#xb1;" horiz-adv-x="489" d="M251 281 L251 459 L242 459 L242 281 L63 281 L63 271 L242 271 L242 93 L251 93 L251 271 L430 271 L430 281 L251 281 Z M59 0 L425 0 L425 10 L59 10 L59 0 Z " />
<glyph glyph-name="uni00B2" unicode="&#xb2;" horiz-adv-x="338" d="M69 369 L209 520 C243 557 275 599 275 650 C275 706 233 749 165 750 C112 750 83 721 69 703 L76 698 C92 717 118 743 166 742 C223 741 265 705 265 651 C265 602 236 563 204 528 L55 366 L55 360 L284 360 L284 368 L69 369 Z " />
<glyph glyph-name="uni00B3" unicode="&#xb3;" horiz-adv-x="345" d="M136 570 L270 735 L270 740 L65 740 L65 732 L257 732 L122 566 L126 559 C145 564 177 567 205 558 C240 546 274 518 275 462 C276 406 235 358 164 358 C124 358 88 369 55 405 L47 399 C81 363 121 350 161 350 C245 350 284 405 284 462 C284 539 216 583 136 570 L136 570 Z " />
<glyph glyph-name="acute" unicode="&#xb4;" horiz-adv-x="223" d="M68 528 L182 646 L172 650 L40 510 L44 510 C50 510 55 514 68 528 L68 528 Z " />
<glyph glyph-name="uni00B5" unicode="&#xb5;" horiz-adv-x="474" d="M392 427 L392 180 C388 72 327 -3 229 -3 C151 -3 91 44 83 155 L83 427 L73 427 L73 -190 L81 -190 L83 103 C107 18 170 -12 230 -12 C303 -12 372 29 392 127 L393 0 L401 0 L401 427 L392 427 Z " />
<glyph glyph-name="paragraph" unicode="&#xb6;" horiz-adv-x="389" d="M283 640 L156 640 C102 640 54 591 54 526 C54 460 102 412 156 412 L164 412 L164 -150 L175 -150 L175 631 L272 631 L272 -150 L283 -150 L283 640 Z " />
<glyph glyph-name="periodcentered" unicode="&#xb7;" horiz-adv-x="185" d="M92 259 C103 259 112 267 112 278 C112 289 103 298 92 298 C82 298 73 289 73 278 C73 267 82 259 92 259 L92 259 Z " />
<glyph glyph-name="cedilla" unicode="&#xb8;" horiz-adv-x="335" d="M191 -64 C169 -63 145 -67 133 -70 L170 2 L170 3 L163 3 L120 -78 L125 -83 C166 -64 234 -69 234 -112 C234 -138 209 -161 156 -158 C129 -156 105 -146 95 -139 L90 -147 C103 -156 133 -168 167 -168 C206 -167 245 -151 245 -112 C245 -82 218 -67 191 -64 L191 -64 Z " />
<glyph glyph-name="uni00B9" unicode="&#xb9;" horiz-adv-x="235" d="M137 740 L27 670 L31 663 L136 729 L136 360 L145 360 L145 740 L137 740 Z " />
<glyph glyph-name="ordmasculine" unicode="&#xba;" horiz-adv-x="404" d="M201 348 C291 348 355 416 355 501 C355 589 291 655 201 655 C112 655 49 589 49 501 C49 416 112 348 201 348 L201 348 Z M201 357 C119 357 59 420 59 501 C59 586 119 646 201 646 C284 646 344 586 344 501 C344 420 284 357 201 357 L201 357 Z M66 274 L337 274 L337 282 L66 282 L66 274 Z " />
<glyph glyph-name="guillemotright" unicode="&#xbb;" horiz-adv-x="406" d="M60 420 L49 420 L208 241 L50 64 L60 64 L218 242 L60 420 Z M198 420 L187 420 L346 241 L188 64 L198 64 L357 242 L198 420 Z " />
<glyph glyph-name="questiondown" unicode="&#xbf;" horiz-adv-x="392" d="M217 440 C207 440 198 432 198 421 C198 410 207 401 217 401 C228 401 237 410 237 421 C237 432 228 440 217 440 L217 440 Z M223 294 L213 294 L213 136 C111 137 18 79 21 -46 C23 -145 104 -210 206 -210 C283 -210 334 -174 371 -124 L362 -117 C339 -153 293 -201 205 -201 C114 -201 33 -144 31 -43 C28 59 109 132 223 126 L223 294 Z " />
<glyph glyph-name="Agrave" unicode="&#xc0;" horiz-adv-x="599" d="M363 690 L366 690 L235 830 L225 826 L338 708 C352 694 357 690 363 690 L363 690 Z M550 0 L561 0 L304 640 L294 640 L38 0 L49 0 L143 236 L455 236 L550 0 Z M147 245 L299 626 L452 245 L147 245 Z " />
<glyph glyph-name="Aacute" unicode="&#xc1;" horiz-adv-x="599" d="M274 708 L387 826 L377 830 L246 690 L250 690 C256 690 261 694 274 708 L274 708 Z M550 0 L561 0 L304 640 L294 640 L38 0 L49 0 L143 236 L455 236 L550 0 Z M147 245 L299 626 L452 245 L147 245 Z " />
<glyph glyph-name="Acircumflex" unicode="&#xc2;" horiz-adv-x="599" d="M220 695 L299 771 L378 695 C380 693 385 690 391 690 L396 690 L302 782 L296 782 L202 690 L207 690 C213 690 218 693 220 695 L220 695 Z M550 0 L561 0 L304 640 L294 640 L38 0 L49 0 L143 236 L455 236 L550 0 Z M147 245 L299 626 L452 245 L147 245 Z " />
<glyph glyph-name="Atilde" unicode="&#xc3;" horiz-adv-x="599" d="M246 750 C279 750 307 711 347 711 C374 711 396 728 406 755 L398 760 C389 738 374 721 347 721 C312 721 281 759 247 759 C222 759 205 744 193 721 L202 716 C209 732 222 750 246 750 L246 750 Z M550 0 L561 0 L304 640 L294 640 L38 0 L49 0 L143 236 L455 236 L550 0 Z M147 245 L299 626 L452 245 L147 245 Z " />
<glyph glyph-name="Adieresis" unicode="&#xc4;" horiz-adv-x="599" d="M223 711 C233 711 240 719 240 729 C240 738 233 746 223 746 C213 746 205 738 205 729 C205 719 213 711 223 711 L223 711 Z M376 711 C386 711 393 719 393 729 C393 738 386 746 376 746 C366 746 359 738 359 729 C359 719 366 711 376 711 L376 711 Z M550 0 L561 0 L304 640 L294 640 L38 0 L49 0 L143 236 L455 236 L550 0 Z M147 245 L299 626 L452 245 L147 245 Z " />
<glyph glyph-name="Aring" unicode="&#xc5;" horiz-adv-x="599" d="M299 690 C343 690 379 724 379 768 C379 811 343 846 299 846 C255 846 219 811 219 768 C219 724 255 690 299 690 L299 690 Z M299 834 C337 834 368 805 368 768 C368 730 337 700 299 700 C261 700 229 730 229 768 C229 805 261 834 299 834 L299 834 Z M550 0 L561 0 L304 640 L294 640 L38 0 L49 0 L143 236 L455 236 L550 0 Z M147 245 L299 626 L452 245 L147 245 Z " />
<glyph glyph-name="AE" unicode="&#xc6;" horiz-adv-x="793" d="M717 633 L717 643 L294 643 L136 245 L132 245 L127 236 L132 236 L38 0 L49 0 L143 236 L417 236 L489 0 L717 0 L717 10 L498 10 L406 307 L658 307 L658 316 L404 316 L306 633 L717 633 Z M147 245 L299 626 L415 245 L147 245 Z " />
<glyph glyph-name="Ccedilla" unicode="&#xc7;" horiz-adv-x="619" d="M386 -10 C454 -10 514 7 564 37 L557 45 C514 17 455 -1 386 -1 C205 -1 76 146 76 320 C76 493 205 640 386 640 C455 640 514 622 557 595 L564 603 C514 633 454 649 386 649 C204 649 66 504 66 320 C66 143 194 1 366 -9 L325 -87 L329 -92 C370 -73 438 -78 438 -121 C438 -147 414 -170 360 -167 C334 -165 309 -155 299 -148 L294 -156 C308 -165 338 -177 371 -177 C410 -176 450 -160 450 -121 C450 -91 422 -76 395 -73 C373 -72 350 -76 337 -79 L374 -10 L386 -10 Z " />
<glyph glyph-name="Egrave" unicode="&#xc8;" horiz-adv-x="507" d="M330 690 L333 690 L202 830 L192 826 L305 708 C319 694 324 690 330 690 L330 690 Z M431 630 L431 640 L106 640 L106 0 L431 0 L431 10 L116 10 L116 316 L381 316 L381 325 L116 325 L116 630 L431 630 Z " />
<glyph glyph-name="Eacute" unicode="&#xc9;" horiz-adv-x="507" d="M240 708 L353 826 L343 830 L212 690 L216 690 C222 690 227 694 240 708 L240 708 Z M431 630 L431 640 L106 640 L106 0 L431 0 L431 10 L116 10 L116 316 L381 316 L381 325 L116 325 L116 630 L431 630 Z " />
<glyph glyph-name="Ecircumflex" unicode="&#xca;" horiz-adv-x="507" d="M187 695 L266 771 L345 695 C347 693 352 690 358 690 L363 690 L269 782 L263 782 L169 690 L174 690 C180 690 185 693 187 695 L187 695 Z M431 630 L431 640 L106 640 L106 0 L431 0 L431 10 L116 10 L116 316 L381 316 L381 325 L116 325 L116 630 L431 630 Z " />
<glyph glyph-name="Edieresis" unicode="&#xcb;" horiz-adv-x="507" d="M189 711 C199 711 206 719 206 729 C206 738 199 746 189 746 C179 746 171 738 171 729 C171 719 179 711 189 711 L189 711 Z M342 711 C352 711 359 719 359 729 C359 738 352 746 342 746 C332 746 325 738 325 729 C325 719 332 711 342 711 L342 711 Z M431 630 L431 640 L106 640 L106 0 L431 0 L431 10 L116 10 L116 316 L381 316 L381 325 L116 325 L116 630 L431 630 Z " />
<glyph glyph-name="Igrave" unicode="&#xcc;" horiz-adv-x="242" d="M160 708 C174 694 179 690 185 690 L188 690 L57 830 L47 826 L160 708 Z M126 640 L116 640 L116 0 L126 0 L126 640 Z " />
<glyph glyph-name="Iacute" unicode="&#xcd;" horiz-adv-x="242" d="M96 708 L209 826 L199 830 L68 690 L72 690 C78 690 83 694 96 708 L96 708 Z M126 640 L116 640 L116 0 L126 0 L126 640 Z " />
<glyph glyph-name="Icircumflex" unicode="&#xce;" horiz-adv-x="242" d="M124 782 L118 782 L24 690 L29 690 C35 690 40 693 42 695 L121 771 L200 695 C202 693 207 690 213 690 L218 690 L124 782 Z M126 640 L116 640 L116 0 L126 0 L126 640 Z " />
<glyph glyph-name="Idieresis" unicode="&#xcf;" horiz-adv-x="242" d="M45 746 C35 746 27 738 27 729 C27 719 35 711 45 711 C55 711 62 719 62 729 C62 738 55 746 45 746 L45 746 Z M198 746 C188 746 181 738 181 729 C181 719 188 711 198 711 C208 711 215 719 215 729 C215 738 208 746 198 746 L198 746 Z M126 640 L116 640 L116 0 L126 0 L126 640 Z " />
<glyph glyph-name="Eth" unicode="&#xd0;" horiz-adv-x="603" d="M189 640 L106 640 L106 327 L17 327 L17 317 L106 317 L106 0 L189 0 C422 0 537 142 537 320 C537 498 422 640 189 640 L189 640 Z M193 9 L116 9 L116 317 L220 317 L220 327 L116 327 L116 631 L193 631 C364 631 526 538 526 320 C526 102 364 9 193 9 L193 9 Z " />
<glyph glyph-name="Ntilde" unicode="&#xd1;" horiz-adv-x="716" d="M304 750 C337 750 365 711 405 711 C432 711 454 728 464 755 L456 760 C447 738 432 721 405 721 C370 721 339 759 305 759 C280 759 263 744 251 721 L260 716 C267 732 280 750 304 750 L304 750 Z M599 640 L599 18 L116 640 L106 640 L106 0 L116 0 L116 621 L599 0 L610 0 L610 640 L599 640 Z " />
<glyph glyph-name="Ograve" unicode="&#xd2;" horiz-adv-x="791" d="M435 708 C449 694 454 690 460 690 L463 690 L332 830 L322 826 L435 708 Z M396 -6 C585 -6 725 140 725 321 C725 505 585 649 396 649 C207 649 66 505 66 321 C66 140 207 -6 396 -6 L396 -6 Z M396 3 C210 3 76 146 76 321 C76 498 210 640 396 640 C580 640 715 498 715 321 C715 146 580 3 396 3 L396 3 Z " />
<glyph glyph-name="Oacute" unicode="&#xd3;" horiz-adv-x="791" d="M371 708 L484 826 L474 830 L343 690 L347 690 C353 690 358 694 371 708 L371 708 Z M396 -6 C585 -6 725 140 725 321 C725 505 585 649 396 649 C207 649 66 505 66 321 C66 140 207 -6 396 -6 L396 -6 Z M396 3 C210 3 76 146 76 321 C76 498 210 640 396 640 C580 640 715 498 715 321 C715 146 580 3 396 3 L396 3 Z " />
<glyph glyph-name="Ocircumflex" unicode="&#xd4;" horiz-adv-x="791" d="M399 782 L393 782 L299 690 L304 690 C310 690 315 693 317 695 L396 771 L475 695 C477 693 482 690 488 690 L493 690 L399 782 Z M396 -6 C585 -6 725 140 725 321 C725 505 585 649 396 649 C207 649 66 505 66 321 C66 140 207 -6 396 -6 L396 -6 Z M396 3 C210 3 76 146 76 321 C76 498 210 640 396 640 C580 640 715 498 715 321 C715 146 580 3 396 3 L396 3 Z " />
<glyph glyph-name="Otilde" unicode="&#xd5;" horiz-adv-x="791" d="M444 711 C471 711 493 728 503 755 L495 760 C486 738 471 721 444 721 C409 721 378 759 344 759 C319 759 302 744 290 721 L299 716 C306 732 319 750 343 750 C376 750 404 711 444 711 L444 711 Z M396 -6 C585 -6 725 140 725 321 C725 505 585 649 396 649 C207 649 66 505 66 321 C66 140 207 -6 396 -6 L396 -6 Z M396 3 C210 3 76 146 76 321 C76 498 210 640 396 640 C580 640 715 498 715 321 C715 146 580 3 396 3 L396 3 Z " />
<glyph glyph-name="Odieresis" unicode="&#xd6;" horiz-adv-x="791" d="M320 746 C310 746 302 738 302 729 C302 719 310 711 320 711 C330 711 337 719 337 729 C337 738 330 746 320 746 L320 746 Z M473 746 C463 746 456 738 456 729 C456 719 463 711 473 711 C483 711 490 719 490 729 C490 738 483 746 473 746 L473 746 Z M396 -6 C585 -6 725 140 725 321 C725 505 585 649 396 649 C207 649 66 505 66 321 C66 140 207 -6 396 -6 L396 -6 Z M396 3 C210 3 76 146 76 321 C76 498 210 640 396 640 C580 640 715 498 715 321 C715 146 580 3 396 3 L396 3 Z " />
<glyph glyph-name="multiply" unicode="&#xd7;" horiz-adv-x="384" d="M325 378 L318 385 L192 259 L65 385 L59 378 L185 252 L59 126 L65 119 L192 245 L318 119 L325 126 L199 252 L325 378 Z " />
<glyph glyph-name="Oslash" unicode="&#xd8;" horiz-adv-x="791" d="M621 564 L692 643 L685 650 L613 571 C556 620 481 649 396 649 C207 649 66 505 66 321 C66 225 105 140 170 80 L99 1 L106 -6 L178 73 C235 24 311 -6 396 -6 C585 -6 725 140 725 321 C725 418 686 505 621 564 L621 564 Z M76 321 C76 498 210 640 396 640 C479 640 552 611 607 563 L176 87 C113 145 76 228 76 321 L76 321 Z M396 3 C312 3 239 32 184 80 L614 557 C677 499 715 415 715 321 C715 146 580 3 396 3 L396 3 Z " />
<glyph glyph-name="Ugrave" unicode="&#xd9;" horiz-adv-x="598" d="M338 708 C352 694 357 690 363 690 L366 690 L235 830 L225 826 L338 708 Z M299 -6 C447 -6 508 92 508 231 L508 640 L498 640 L498 233 C498 104 445 3 299 3 C153 3 100 104 100 233 L100 640 L90 640 L90 231 C90 92 151 -6 299 -6 L299 -6 Z " />
<glyph glyph-name="Uacute" unicode="&#xda;" horiz-adv-x="598" d="M274 708 L387 826 L377 830 L246 690 L250 690 C256 690 261 694 274 708 L274 708 Z M299 -6 C447 -6 508 92 508 231 L508 640 L498 640 L498 233 C498 104 445 3 299 3 C153 3 100 104 100 233 L100 640 L90 640 L90 231 C90 92 151 -6 299 -6 L299 -6 Z " />
<glyph glyph-name="Ucircumflex" unicode="&#xdb;" horiz-adv-x="598" d="M302 782 L296 782 L202 690 L207 690 C213 690 218 693 220 695 L299 771 L378 695 C380 693 385 690 391 690 L396 690 L302 782 Z M299 -6 C447 -6 508 92 508 231 L508 640 L498 640 L498 233 C498 104 445 3 299 3 C153 3 100 104 100 233 L100 640 L90 640 L90 231 C90 92 151 -6 299 -6 L299 -6 Z " />
<glyph glyph-name="Udieresis" unicode="&#xdc;" horiz-adv-x="598" d="M223 746 C213 746 205 738 205 729 C205 719 213 711 223 711 C233 711 240 719 240 729 C240 738 233 746 223 746 L223 746 Z M376 746 C366 746 359 738 359 729 C359 719 366 711 376 711 C386 711 393 719 393 729 C393 738 386 746 376 746 L376 746 Z M299 -6 C447 -6 508 92 508 231 L508 640 L498 640 L498 233 C498 104 445 3 299 3 C153 3 100 104 100 233 L100 640 L90 640 L90 231 C90 92 151 -6 299 -6 L299 -6 Z " />
<glyph glyph-name="Yacute" unicode="&#xdd;" horiz-adv-x="517" d="M233 708 L346 826 L336 830 L205 690 L209 690 C215 690 220 694 233 708 L233 708 Z M479 640 L467 640 L259 325 L50 640 L38 640 L254 315 L254 0 L264 0 L264 315 L479 640 Z " />
<glyph glyph-name="Thorn" unicode="&#xde;" horiz-adv-x="470" d="M236 501 L116 501 L116 640 L106 640 L106 0 L116 0 L116 166 L236 166 C330 166 415 216 415 333 C415 451 330 502 236 501 L236 501 Z M233 175 L116 175 L116 492 L233 492 C336 492 404 436 404 333 C404 231 336 175 233 175 L233 175 Z " />
<glyph glyph-name="germandbls" unicode="&#xdf;" horiz-adv-x="533" d="M222 -1 C361 -30 464 46 464 182 C464 286 393 351 305 364 C346 373 422 418 422 514 C422 610 347 665 257 665 C171 665 101 612 101 468 L101 0 L112 0 L112 468 C112 581 159 655 258 655 C331 655 411 612 411 516 C412 423 337 368 265 368 L250 368 L250 357 L277 357 C356 357 454 299 453 180 C452 48 349 -20 222 10 L222 -1 Z " />
<glyph glyph-name="agrave" unicode="&#xe0;" horiz-adv-x="532" d="M330 508 L333 508 L202 648 L192 644 L305 526 C319 512 324 508 330 508 L330 508 Z M451 427 L450 285 L450 279 C426 371 351 438 254 438 C138 438 49 345 49 216 C49 87 138 -7 255 -7 C351 -7 426 60 450 153 L450 149 L451 0 L459 0 L459 427 L451 427 Z M256 2 C145 2 59 94 59 216 C59 337 145 429 255 429 C364 429 450 338 450 216 C450 94 364 2 256 2 L256 2 Z " />
<glyph glyph-name="aacute" unicode="&#xe1;" horiz-adv-x="532" d="M241 526 L354 644 L344 648 L213 508 L217 508 C223 508 228 512 241 526 L241 526 Z M451 427 L450 285 L450 279 C426 371 351 438 254 438 C138 438 49 345 49 216 C49 87 138 -7 255 -7 C351 -7 426 60 450 153 L450 149 L451 0 L459 0 L459 427 L451 427 Z M256 2 C145 2 59 94 59 216 C59 337 145 429 255 429 C364 429 450 338 450 216 C450 94 364 2 256 2 L256 2 Z " />
<glyph glyph-name="acircumflex" unicode="&#xe2;" horiz-adv-x="532" d="M187 512 L266 588 L345 512 C347 510 352 507 358 507 L363 507 L269 599 L263 599 L169 507 L174 507 C180 507 185 510 187 512 L187 512 Z M451 427 L450 285 L450 279 C426 371 351 438 254 438 C138 438 49 345 49 216 C49 87 138 -7 255 -7 C351 -7 426 60 450 153 L450 149 L451 0 L459 0 L459 427 L451 427 Z M256 2 C145 2 59 94 59 216 C59 337 145 429 255 429 C364 429 450 338 450 216 C450 94 364 2 256 2 L256 2 Z " />
<glyph glyph-name="atilde" unicode="&#xe3;" horiz-adv-x="532" d="M213 567 C246 567 274 528 314 528 C341 528 363 545 373 572 L365 577 C356 555 341 538 314 538 C279 538 248 576 214 576 C189 576 172 561 160 538 L169 533 C176 549 189 567 213 567 L213 567 Z M451 427 L450 285 L450 279 C426 371 351 438 254 438 C138 438 49 345 49 216 C49 87 138 -7 255 -7 C351 -7 426 60 450 153 L450 149 L451 0 L459 0 L459 427 L451 427 Z M256 2 C145 2 59 94 59 216 C59 337 145 429 255 429 C364 429 450 338 450 216 C450 94 364 2 256 2 L256 2 Z " />
<glyph glyph-name="adieresis" unicode="&#xe4;" horiz-adv-x="532" d="M190 529 C200 529 207 537 207 547 C207 556 200 564 190 564 C180 564 172 556 172 547 C172 537 180 529 190 529 L190 529 Z M343 529 C353 529 360 537 360 547 C360 556 353 564 343 564 C333 564 326 556 326 547 C326 537 333 529 343 529 L343 529 Z M451 427 L450 285 L450 279 C426 371 351 438 254 438 C138 438 49 345 49 216 C49 87 138 -7 255 -7 C351 -7 426 60 450 153 L450 149 L451 0 L459 0 L459 427 L451 427 Z M256 2 C145 2 59 94 59 216 C59 337 145 429 255 429 C364 429 450 338 450 216 C450 94 364 2 256 2 L256 2 Z " />
<glyph glyph-name="aring" unicode="&#xe5;" horiz-adv-x="532" d="M266 508 C310 508 346 542 346 586 C346 629 310 664 266 664 C222 664 186 629 186 586 C186 542 222 508 266 508 L266 508 Z M266 652 C304 652 335 623 335 586 C335 548 304 518 266 518 C228 518 196 548 196 586 C196 623 228 652 266 652 L266 652 Z M451 427 L450 285 L450 279 C426 371 351 438 254 438 C138 438 49 345 49 216 C49 87 138 -7 255 -7 C351 -7 426 60 450 153 L450 149 L451 0 L459 0 L459 427 L451 427 Z M256 2 C145 2 59 94 59 216 C59 337 145 429 255 429 C364 429 450 338 450 216 C450 94 364 2 256 2 L256 2 Z " />
<glyph glyph-name="ae" unicode="&#xe6;" horiz-adv-x="895" d="M846 236 L846 248 C846 345 770 438 654 438 C555 438 481 372 459 283 L459 427 L451 427 L450 285 L450 279 C426 371 351 438 254 438 C138 438 49 345 49 216 C49 87 138 -7 255 -7 C351 -7 426 60 450 153 L450 149 L451 0 L459 0 L459 160 C481 63 554 -6 664 -6 C734 -6 792 24 828 62 L819 69 C789 33 734 3 664 3 C536 3 462 100 462 225 L462 236 L846 236 Z M256 2 C145 2 59 94 59 216 C59 337 145 429 255 429 C364 429 450 338 450 216 C450 94 364 2 256 2 L256 2 Z M654 428 C762 428 836 343 836 246 L463 246 C472 348 546 428 654 428 L654 428 Z " />
<glyph glyph-name="ccedilla" unicode="&#xe7;" horiz-adv-x="432" d="M268 -64 C246 -63 223 -67 210 -70 L244 -5 C249 -6 255 -6 260 -6 C312 -6 358 12 394 41 L387 49 C355 20 310 3 260 3 C136 3 59 97 59 217 C59 336 136 430 260 430 C310 430 355 413 387 384 L393 391 C358 421 312 439 260 439 C130 439 49 339 49 217 C49 101 120 6 237 -5 L198 -78 L202 -83 C243 -64 311 -69 311 -112 C311 -138 287 -161 233 -158 C207 -156 182 -146 172 -139 L167 -147 C181 -156 211 -168 244 -168 C283 -167 323 -151 323 -112 C323 -82 295 -67 268 -64 L268 -64 Z " />
<glyph glyph-name="egrave" unicode="&#xe8;" horiz-adv-x="492" d="M317 508 L320 508 L189 648 L179 644 L292 526 C306 512 311 508 317 508 L317 508 Z M443 236 L443 248 C443 345 368 438 252 438 C131 438 49 342 49 225 C49 95 128 -6 261 -6 C331 -6 390 24 425 62 L416 69 C386 33 331 3 261 3 C134 3 59 100 59 225 L59 236 L443 236 Z M252 428 C360 428 434 343 433 246 L60 246 C69 348 143 428 252 428 L252 428 Z " />
<glyph glyph-name="eacute" unicode="&#xe9;" horiz-adv-x="492" d="M228 526 L341 644 L331 648 L200 508 L204 508 C210 508 215 512 228 526 L228 526 Z M443 236 L443 248 C443 345 368 438 252 438 C131 438 49 342 49 225 C49 95 128 -6 261 -6 C331 -6 390 24 425 62 L416 69 C386 33 331 3 261 3 C134 3 59 100 59 225 L59 236 L443 236 Z M252 428 C360 428 434 343 433 246 L60 246 C69 348 143 428 252 428 L252 428 Z " />
<glyph glyph-name="ecircumflex" unicode="&#xea;" horiz-adv-x="492" d="M174 512 L253 588 L332 512 C334 510 339 507 345 507 L350 507 L256 599 L250 599 L156 507 L161 507 C167 507 172 510 174 512 L174 512 Z M443 236 L443 248 C443 345 368 438 252 438 C131 438 49 342 49 225 C49 95 128 -6 261 -6 C331 -6 390 24 425 62 L416 69 C386 33 331 3 261 3 C134 3 59 100 59 225 L59 236 L443 236 Z M252 428 C360 428 434 343 433 246 L60 246 C69 348 143 428 252 428 L252 428 Z " />
<glyph glyph-name="edieresis" unicode="&#xeb;" horiz-adv-x="492" d="M177 529 C187 529 194 537 194 547 C194 556 187 564 177 564 C167 564 159 556 159 547 C159 537 167 529 177 529 L177 529 Z M330 529 C340 529 347 537 347 547 C347 556 340 564 330 564 C320 564 313 556 313 547 C313 537 320 529 330 529 L330 529 Z M443 236 L443 248 C443 345 368 438 252 438 C131 438 49 342 49 225 C49 95 128 -6 261 -6 C331 -6 390 24 425 62 L416 69 C386 33 331 3 261 3 C134 3 59 100 59 225 L59 236 L443 236 Z M252 428 C360 428 434 343 433 246 L60 246 C69 348 143 428 252 428 L252 428 Z " />
<glyph glyph-name="igrave" unicode="&#xec;" horiz-adv-x="182" d="M130 525 C144 511 149 507 155 507 L158 507 L27 647 L17 643 L130 525 Z M85 0 L94 0 L94 427 L85 427 L85 0 Z " />
<glyph glyph-name="iacute" unicode="&#xed;" horiz-adv-x="182" d="M65 525 L178 643 L168 647 L37 507 L41 507 C47 507 52 511 65 525 L65 525 Z M85 0 L94 0 L94 427 L85 427 L85 0 Z " />
<glyph glyph-name="icircumflex" unicode="&#xee;" horiz-adv-x="182" d="M93 599 L87 599 L-7 507 L-2 507 C4 507 9 510 11 512 L90 588 L169 512 C171 510 176 507 182 507 L187 507 L93 599 Z M85 0 L94 0 L94 427 L85 427 L85 0 Z " />
<glyph glyph-name="idieresis" unicode="&#xef;" horiz-adv-x="182" d="M14 563 C4 563 -4 555 -4 546 C-4 536 4 528 14 528 C24 528 31 536 31 546 C31 555 24 563 14 563 L14 563 Z M167 563 C157 563 150 555 150 546 C150 536 157 528 167 528 C177 528 184 536 184 546 C184 555 177 563 167 563 L167 563 Z M85 0 L94 0 L94 427 L85 427 L85 0 Z " />
<glyph glyph-name="eth" unicode="&#xf0;" horiz-adv-x="510" d="M241 561 L336 614 L330 619 L235 567 L170 638 L159 631 C183 606 205 584 225 562 L131 511 L137 504 L231 556 C286 499 331 448 385 380 C329 426 275 425 257 425 C132 426 49 328 49 207 C49 87 132 -12 256 -12 C378 -12 461 87 461 207 C461 326 371 422 241 561 L241 561 Z M256 -1 C137 -1 61 91 61 207 C61 323 135 414 256 414 C375 414 450 323 450 207 C450 91 375 -1 256 -1 L256 -1 Z " />
<glyph glyph-name="ntilde" unicode="&#xf1;" horiz-adv-x="469" d="M188 567 C221 567 249 528 289 528 C316 528 338 545 348 572 L340 577 C331 555 316 538 289 538 C254 538 223 576 189 576 C164 576 147 561 135 538 L144 533 C151 549 164 567 188 567 L188 567 Z M239 439 C157 439 101 382 82 304 L81 427 L73 427 L73 0 L82 0 L82 258 C91 360 150 430 240 430 C321 430 391 381 391 245 L391 0 L400 0 L400 247 C400 401 313 439 239 439 L239 439 Z " />
<glyph glyph-name="ograve" unicode="&#xf2;" horiz-adv-x="539" d="M309 526 C323 512 328 508 334 508 L337 508 L206 648 L196 644 L309 526 Z M269 -6 C394 -6 490 91 490 216 C490 341 394 438 269 438 C143 438 49 341 49 216 C49 91 143 -6 269 -6 L269 -6 Z M269 3 C148 3 59 98 59 216 C59 334 148 429 269 429 C389 429 480 334 480 216 C480 98 389 3 269 3 L269 3 Z " />
<glyph glyph-name="oacute" unicode="&#xf3;" horiz-adv-x="539" d="M244 526 L357 644 L347 648 L216 508 L220 508 C226 508 231 512 244 526 L244 526 Z M269 -6 C394 -6 490 91 490 216 C490 341 394 438 269 438 C143 438 49 341 49 216 C49 91 143 -6 269 -6 L269 -6 Z M269 3 C148 3 59 98 59 216 C59 334 148 429 269 429 C389 429 480 334 480 216 C480 98 389 3 269 3 L269 3 Z " />
<glyph glyph-name="ocircumflex" unicode="&#xf4;" horiz-adv-x="539" d="M273 599 L267 599 L173 507 L178 507 C184 507 189 510 191 512 L270 588 L349 512 C351 510 356 507 362 507 L367 507 L273 599 Z M269 -6 C394 -6 490 91 490 216 C490 341 394 438 269 438 C143 438 49 341 49 216 C49 91 143 -6 269 -6 L269 -6 Z M269 3 C148 3 59 98 59 216 C59 334 148 429 269 429 C389 429 480 334 480 216 C480 98 389 3 269 3 L269 3 Z " />
<glyph glyph-name="otilde" unicode="&#xf5;" horiz-adv-x="539" d="M318 528 C345 528 367 545 377 572 L369 577 C360 555 345 538 318 538 C283 538 252 576 218 576 C193 576 176 561 164 538 L173 533 C180 549 193 567 217 567 C250 567 278 528 318 528 L318 528 Z M269 -6 C394 -6 490 91 490 216 C490 341 394 438 269 438 C143 438 49 341 49 216 C49 91 143 -6 269 -6 L269 -6 Z M269 3 C148 3 59 98 59 216 C59 334 148 429 269 429 C389 429 480 334 480 216 C480 98 389 3 269 3 L269 3 Z " />
<glyph glyph-name="odieresis" unicode="&#xf6;" horiz-adv-x="539" d="M193 564 C183 564 175 556 175 547 C175 537 183 529 193 529 C203 529 210 537 210 547 C210 556 203 564 193 564 L193 564 Z M346 564 C336 564 329 556 329 547 C329 537 336 529 346 529 C356 529 363 537 363 547 C363 556 356 564 346 564 L346 564 Z M269 -6 C394 -6 490 91 490 216 C490 341 394 438 269 438 C143 438 49 341 49 216 C49 91 143 -6 269 -6 L269 -6 Z M269 3 C148 3 59 98 59 216 C59 334 148 429 269 429 C389 429 480 334 480 216 C480 98 389 3 269 3 L269 3 Z " />
<glyph glyph-name="divide" unicode="&#xf7;" horiz-adv-x="484" d="M252 359 C262 359 270 367 270 377 C270 387 262 395 252 395 C242 395 234 387 234 377 C234 367 242 359 252 359 L252 359 Z M59 249 L425 249 L425 259 L59 259 L59 249 Z M252 113 C262 113 270 121 270 131 C270 141 262 149 252 149 C242 149 234 141 234 131 C234 121 242 113 252 113 L252 113 Z " />
<glyph glyph-name="oslash" unicode="&#xf8;" horiz-adv-x="539" d="M423 378 L480 441 L473 447 L416 384 C377 418 326 438 269 438 C144 438 49 341 49 216 C49 151 75 93 117 53 L60 -10 L67 -16 L124 47 C162 14 213 -6 269 -6 C394 -6 490 91 490 216 C490 280 464 337 423 378 L423 378 Z M60 216 C60 335 149 428 269 428 C324 428 372 409 409 376 L124 61 C84 99 60 154 60 216 L60 216 Z M269 4 C215 4 167 23 131 55 L416 370 C455 332 479 277 479 216 C479 97 389 4 269 4 L269 4 Z " />
<glyph glyph-name="ugrave" unicode="&#xf9;" horiz-adv-x="466" d="M273 526 C287 512 292 508 298 508 L301 508 L170 648 L160 644 L273 526 Z M234 -12 C306 -12 398 27 398 169 L398 427 L388 427 L388 169 C388 63 333 -3 234 -3 C133 -3 79 63 79 169 L79 427 L69 427 L69 169 C69 27 161 -12 234 -12 L234 -12 Z " />
<glyph glyph-name="uacute" unicode="&#xfa;" horiz-adv-x="466" d="M209 526 L322 644 L312 648 L181 508 L185 508 C191 508 196 512 209 526 L209 526 Z M234 -12 C306 -12 398 27 398 169 L398 427 L388 427 L388 169 C388 63 333 -3 234 -3 C133 -3 79 63 79 169 L79 427 L69 427 L69 169 C69 27 161 -12 234 -12 L234 -12 Z " />
<glyph glyph-name="ucircumflex" unicode="&#xfb;" horiz-adv-x="466" d="M237 599 L231 599 L137 507 L142 507 C148 507 153 510 155 512 L234 588 L313 512 C315 510 320 507 326 507 L331 507 L237 599 Z M234 -12 C306 -12 398 27 398 169 L398 427 L388 427 L388 169 C388 63 333 -3 234 -3 C133 -3 79 63 79 169 L79 427 L69 427 L69 169 C69 27 161 -12 234 -12 L234 -12 Z " />
<glyph glyph-name="udieresis" unicode="&#xfc;" horiz-adv-x="466" d="M158 564 C148 564 140 556 140 547 C140 537 148 529 158 529 C168 529 175 537 175 547 C175 556 168 564 158 564 L158 564 Z M311 564 C301 564 294 556 294 547 C294 537 301 529 311 529 C321 529 328 537 328 547 C328 556 321 564 311 564 L311 564 Z M234 -12 C306 -12 398 27 398 169 L398 427 L388 427 L388 169 C388 63 333 -3 234 -3 C133 -3 79 63 79 169 L79 427 L69 427 L69 169 C69 27 161 -12 234 -12 L234 -12 Z " />
<glyph glyph-name="yacute" unicode="&#xfd;" horiz-adv-x="423" d="M186 526 L299 644 L289 648 L158 508 L162 508 C168 508 173 512 186 526 L186 526 Z M391 427 L209 21 L32 427 L21 427 L204 9 L107 -210 L118 -210 L402 427 L391 427 Z " />
<glyph glyph-name="thorn" unicode="&#xfe;" horiz-adv-x="532" d="M278 438 C180 438 105 370 82 276 L82 680 L73 680 L74 -190 L82 -190 L82 156 C105 61 180 -7 277 -7 C394 -7 483 87 483 216 C483 345 394 438 278 438 L278 438 Z M276 2 C168 2 82 94 82 216 C82 338 168 429 278 429 C388 429 473 337 473 216 C473 94 388 2 276 2 L276 2 Z " />
<glyph glyph-name="ydieresis" unicode="&#xff;" horiz-adv-x="423" d="M135 529 C145 529 152 537 152 547 C152 556 145 564 135 564 C125 564 117 556 117 547 C117 537 125 529 135 529 L135 529 Z M288 529 C298 529 305 537 305 547 C305 556 298 564 288 564 C278 564 271 556 271 547 C271 537 278 529 288 529 L288 529 Z M391 427 L209 21 L32 427 L21 427 L204 9 L107 -210 L118 -210 L402 427 L391 427 Z " />
<glyph glyph-name="Amacron" unicode="&#x100;" horiz-adv-x="599" d="M386 743 L213 743 L213 734 L386 734 L386 743 Z M550 0 L561 0 L304 640 L294 640 L38 0 L49 0 L143 236 L455 236 L550 0 Z M147 245 L299 626 L452 245 L147 245 Z " />
<glyph glyph-name="amacron" unicode="&#x101;" horiz-adv-x="532" d="M353 560 L180 560 L180 551 L353 551 L353 560 Z M451 427 L450 285 L450 279 C426 371 351 438 254 438 C138 438 49 345 49 216 C49 87 138 -7 255 -7 C351 -7 426 60 450 153 L450 149 L451 0 L459 0 L459 427 L451 427 Z M256 2 C145 2 59 94 59 216 C59 337 145 429 255 429 C364 429 450 338 450 216 C450 94 364 2 256 2 L256 2 Z " />
<glyph glyph-name="Abreve" unicode="&#x102;" horiz-adv-x="599" d="M299 690 C354 690 395 724 398 770 L389 770 C387 735 355 699 299 699 C244 699 213 734 212 770 L202 770 C205 724 246 690 299 690 L299 690 Z M550 0 L561 0 L304 640 L294 640 L38 0 L49 0 L143 236 L455 236 L550 0 Z M147 245 L299 626 L452 245 L147 245 Z " />
<glyph glyph-name="abreve" unicode="&#x103;" horiz-adv-x="532" d="M266 507 C321 507 362 541 365 587 L356 587 C354 552 322 516 266 516 C211 516 180 551 179 587 L169 587 C172 541 213 507 266 507 L266 507 Z M451 427 L450 285 L450 279 C426 371 351 438 254 438 C138 438 49 345 49 216 C49 87 138 -7 255 -7 C351 -7 426 60 450 153 L450 149 L451 0 L459 0 L459 427 L451 427 Z M256 2 C145 2 59 94 59 216 C59 337 145 429 255 429 C364 429 450 338 450 216 C450 94 364 2 256 2 L256 2 Z " />
<glyph glyph-name="Aogonek" unicode="&#x104;" horiz-adv-x="599" d="M561 -122 C488 -158 448 -75 545 -11 L560 0 L561 0 L304 640 L294 640 L38 0 L49 0 L143 236 L455 236 L550 0 L551 0 C479 -41 470 -89 483 -114 C496 -141 532 -147 563 -130 L561 -122 Z M147 245 L299 626 L452 245 L147 245 Z " />
<glyph glyph-name="aogonek" unicode="&#x105;" horiz-adv-x="532" d="M463 -122 C390 -158 350 -75 447 -11 L462 0 L459 0 L459 427 L451 427 L450 285 L450 279 C426 371 351 438 254 438 C138 438 49 345 49 216 C49 87 138 -7 255 -7 C351 -7 426 60 450 153 L450 149 L451 0 L453 0 C381 -41 372 -89 385 -114 C398 -141 434 -147 465 -130 L463 -122 Z M256 2 C145 2 59 94 59 216 C59 337 145 429 255 429 C364 429 450 338 450 216 C450 94 364 2 256 2 L256 2 Z " />
<glyph glyph-name="Cacute" unicode="&#x106;" horiz-adv-x="619" d="M344 708 L457 826 L447 830 L316 690 L320 690 C326 690 331 694 344 708 L344 708 Z M386 -10 C454 -10 514 7 564 37 L557 45 C514 17 455 -1 386 -1 C205 -1 76 146 76 320 C76 493 205 640 386 640 C455 640 514 622 557 595 L564 603 C514 633 454 649 386 649 C204 649 66 504 66 320 C66 136 204 -10 386 -10 L386 -10 Z " />
<glyph glyph-name="cacute" unicode="&#x107;" horiz-adv-x="432" d="M218 526 L331 644 L321 648 L190 508 L194 508 C200 508 205 512 218 526 L218 526 Z M260 -6 C312 -6 358 12 394 41 L387 49 C355 20 310 3 260 3 C136 3 59 97 59 217 C59 336 136 430 260 430 C310 430 355 413 387 384 L393 391 C358 421 312 439 260 439 C130 439 49 339 49 217 C49 93 130 -6 260 -6 L260 -6 Z " />
<glyph glyph-name="Ccircumflex" unicode="&#x108;" horiz-adv-x="619" d="M290 695 L369 771 L448 695 C450 693 455 690 461 690 L466 690 L372 782 L366 782 L272 690 L277 690 C283 690 288 693 290 695 L290 695 Z M386 -1 C205 -1 76 146 76 320 C76 493 205 640 386 640 C455 640 514 622 557 595 L564 603 C514 633 454 649 386 649 C204 649 66 504 66 320 C66 136 204 -10 386 -10 C454 -10 514 7 564 37 L557 45 C514 17 455 -1 386 -1 L386 -1 Z " />
<glyph glyph-name="ccircumflex" unicode="&#x109;" horiz-adv-x="432" d="M246 599 L240 599 L146 507 L151 507 C157 507 162 510 164 512 L243 588 L322 512 C324 510 329 507 335 507 L340 507 L246 599 Z M260 -6 C312 -6 358 12 394 41 L387 49 C355 20 310 3 260 3 C136 3 59 97 59 217 C59 336 136 430 260 430 C310 430 355 413 387 384 L393 391 C358 421 312 439 260 439 C130 439 49 339 49 217 C49 93 130 -6 260 -6 L260 -6 Z " />
<glyph glyph-name="Cdotaccent" unicode="&#x10a;" horiz-adv-x="619" d="M369 721 C379 721 388 729 388 740 C388 751 379 760 369 760 C358 760 349 751 349 740 C349 729 358 721 369 721 L369 721 Z M386 -10 C454 -10 514 7 564 37 L557 45 C514 17 455 -1 386 -1 C205 -1 76 146 76 320 C76 493 205 640 386 640 C455 640 514 622 557 595 L564 603 C514 633 454 649 386 649 C204 649 66 504 66 320 C66 136 204 -10 386 -10 L386 -10 Z " />
<glyph glyph-name="cdotaccent" unicode="&#x10b;" horiz-adv-x="432" d="M243 538 C253 538 262 546 262 557 C262 568 253 577 243 577 C232 577 223 568 223 557 C223 546 232 538 243 538 L243 538 Z M260 -6 C312 -6 358 12 394 41 L387 49 C355 20 310 3 260 3 C136 3 59 97 59 217 C59 336 136 430 260 430 C310 430 355 413 387 384 L393 391 C358 421 312 439 260 439 C130 439 49 339 49 217 C49 93 130 -6 260 -6 L260 -6 Z " />
<glyph glyph-name="Ccaron" unicode="&#x10c;" horiz-adv-x="619" d="M374 691 L469 782 L463 782 C457 782 453 780 450 777 L371 702 L292 777 C290 780 286 782 279 782 L274 782 L368 691 L374 691 Z M386 -1 C205 -1 76 146 76 320 C76 493 205 640 386 640 C455 640 514 622 557 595 L564 603 C514 633 454 649 386 649 C204 649 66 504 66 320 C66 136 204 -10 386 -10 C454 -10 514 7 564 37 L557 45 C514 17 455 -1 386 -1 L386 -1 Z " />
<glyph glyph-name="ccaron" unicode="&#x10d;" horiz-adv-x="432" d="M242 508 L248 508 L343 599 L337 599 C331 599 327 597 324 594 L245 519 L166 594 C164 597 160 599 153 599 L148 599 L242 508 Z M260 -6 C312 -6 358 12 394 41 L387 49 C355 20 310 3 260 3 C136 3 59 97 59 217 C59 336 136 430 260 430 C310 430 355 413 387 384 L393 391 C358 421 312 439 260 439 C130 439 49 339 49 217 C49 93 130 -6 260 -6 L260 -6 Z " />
<glyph glyph-name="Dcaron" unicode="&#x10e;" horiz-adv-x="603" d="M272 691 L367 782 L361 782 C355 782 351 780 348 777 L269 702 L190 777 C188 780 184 782 177 782 L172 782 L266 691 L272 691 Z M189 640 L106 640 L106 0 L189 0 C422 0 537 142 537 320 C537 498 422 640 189 640 L189 640 Z M193 9 L116 9 L116 631 L193 631 C364 631 526 538 526 320 C526 102 364 9 193 9 L193 9 Z " />
<glyph glyph-name="dcaron" unicode="&#x10f;" horiz-adv-x="533" d="M450 279 C426 371 351 438 254 438 C138 438 49 345 49 216 C49 87 138 -7 255 -7 C351 -7 426 60 450 152 L451 0 L460 0 L460 680 L450 680 L450 279 Z M584 655 C574 655 569 649 569 640 C570 629 583 624 595 630 C596 622 593 584 559 565 L562 561 C586 572 599 597 602 618 C605 638 598 656 584 655 L584 655 Z M256 2 C145 2 59 94 59 216 C59 337 145 429 255 429 C364 429 450 338 450 216 C450 94 364 2 256 2 L256 2 Z " />
<glyph glyph-name="Dcroat" unicode="&#x110;" horiz-adv-x="603" d="M189 640 L106 640 L106 327 L17 327 L17 317 L106 317 L106 0 L189 0 C422 0 537 142 537 320 C537 498 422 640 189 640 L189 640 Z M193 9 L116 9 L116 317 L220 317 L220 327 L116 327 L116 631 L193 631 C364 631 526 538 526 320 C526 102 364 9 193 9 L193 9 Z " />
<glyph glyph-name="dcroat" unicode="&#x111;" horiz-adv-x="532" d="M526 544 L460 544 L460 680 L450 680 L450 544 L323 544 L323 534 L450 534 L450 279 C426 371 351 438 254 438 C138 438 49 345 49 216 C49 87 138 -7 255 -7 C351 -7 426 60 450 152 L451 0 L460 0 L460 534 L526 534 L526 544 Z M256 2 C145 2 59 94 59 216 C59 337 145 429 255 429 C364 429 450 338 450 216 C450 94 364 2 256 2 L256 2 Z " />
<glyph glyph-name="Emacron" unicode="&#x112;" horiz-adv-x="507" d="M352 743 L179 743 L179 734 L352 734 L352 743 Z M431 630 L431 640 L106 640 L106 0 L431 0 L431 10 L116 10 L116 316 L381 316 L381 325 L116 325 L116 630 L431 630 Z " />
<glyph glyph-name="emacron" unicode="&#x113;" horiz-adv-x="492" d="M339 560 L166 560 L166 551 L339 551 L339 560 Z M443 236 L443 248 C443 345 368 438 252 438 C131 438 49 342 49 225 C49 95 128 -6 261 -6 C331 -6 390 24 425 62 L416 69 C386 33 331 3 261 3 C134 3 59 100 59 225 L59 236 L443 236 Z M252 428 C360 428 434 343 433 246 L60 246 C69 348 143 428 252 428 L252 428 Z " />
<glyph glyph-name="Ebreve" unicode="&#x114;" horiz-adv-x="507" d="M266 690 C321 690 362 724 365 770 L356 770 C354 735 322 699 266 699 C211 699 180 734 179 770 L169 770 C172 724 213 690 266 690 L266 690 Z M431 630 L431 640 L106 640 L106 0 L431 0 L431 10 L116 10 L116 316 L381 316 L381 325 L116 325 L116 630 L431 630 Z " />
<glyph glyph-name="ebreve" unicode="&#x115;" horiz-adv-x="492" d="M253 507 C308 507 349 541 352 587 L343 587 C341 552 309 516 253 516 C198 516 167 551 166 587 L156 587 C159 541 200 507 253 507 L253 507 Z M443 236 L443 248 C443 345 368 438 252 438 C131 438 49 342 49 225 C49 95 128 -6 261 -6 C331 -6 390 24 425 62 L416 69 C386 33 331 3 261 3 C134 3 59 100 59 225 L59 236 L443 236 Z M252 428 C360 428 434 343 433 246 L60 246 C69 348 143 428 252 428 L252 428 Z " />
<glyph glyph-name="Edotaccent" unicode="&#x116;" horiz-adv-x="507" d="M266 721 C276 721 285 729 285 740 C285 751 276 760 266 760 C255 760 246 751 246 740 C246 729 255 721 266 721 L266 721 Z M431 630 L431 640 L106 640 L106 0 L431 0 L431 10 L116 10 L116 316 L381 316 L381 325 L116 325 L116 630 L431 630 Z " />
<glyph glyph-name="edotaccent" unicode="&#x117;" horiz-adv-x="492" d="M253 538 C263 538 272 546 272 557 C272 568 263 577 253 577 C242 577 233 568 233 557 C233 546 242 538 253 538 L253 538 Z M443 236 L443 248 C443 345 368 438 252 438 C131 438 49 342 49 225 C49 95 128 -6 261 -6 C331 -6 390 24 425 62 L416 69 C386 33 331 3 261 3 C134 3 59 100 59 225 L59 236 L443 236 Z M252 428 C360 428 434 343 433 246 L60 246 C69 348 143 428 252 428 L252 428 Z " />
<glyph glyph-name="Eogonek" unicode="&#x118;" horiz-adv-x="507" d="M432 -122 C359 -158 319 -75 416 -11 L431 0 L431 10 L116 10 L116 316 L381 316 L381 325 L116 325 L116 630 L431 630 L431 640 L106 640 L106 0 L422 0 C350 -41 341 -89 354 -114 C367 -141 403 -147 434 -130 L432 -122 Z " />
<glyph glyph-name="eogonek" unicode="&#x119;" horiz-adv-x="492" d="M443 236 L443 248 C443 345 368 438 252 438 C131 438 49 342 49 225 C49 95 128 -6 261 -6 C273 -6 285 -5 296 -3 C229 -43 221 -90 234 -114 C247 -141 283 -147 314 -130 L312 -122 C239 -158 199 -75 296 -11 L310 -1 C358 9 398 33 425 62 L416 69 C386 33 331 3 261 3 C134 3 59 100 59 225 L59 236 L443 236 Z M252 428 C360 428 434 343 433 246 L60 246 C69 348 143 428 252 428 L252 428 Z " />
<glyph glyph-name="Ecaron" unicode="&#x11a;" horiz-adv-x="507" d="M270 691 L365 782 L359 782 C353 782 349 780 346 777 L267 702 L188 777 C186 780 182 782 175 782 L170 782 L264 691 L270 691 Z M431 630 L431 640 L106 640 L106 0 L431 0 L431 10 L116 10 L116 316 L381 316 L381 325 L116 325 L116 630 L431 630 Z " />
<glyph glyph-name="ecaron" unicode="&#x11b;" horiz-adv-x="492" d="M258 508 L353 599 L347 599 C341 599 337 597 334 594 L255 519 L176 594 C174 597 170 599 163 599 L158 599 L252 508 L258 508 Z M443 236 L443 248 C443 345 368 438 252 438 C131 438 49 342 49 225 C49 95 128 -6 261 -6 C331 -6 390 24 425 62 L416 69 C386 33 331 3 261 3 C134 3 59 100 59 225 L59 236 L443 236 Z M252 428 C360 428 434 343 433 246 L60 246 C69 348 143 428 252 428 L252 428 Z " />
<glyph glyph-name="Gcircumflex" unicode="&#x11c;" horiz-adv-x="734" d="M299 695 L378 771 L457 695 C459 693 464 690 470 690 L475 690 L381 782 L375 782 L281 690 L286 690 C292 690 297 693 299 695 L299 695 Z M439 321 L439 310 L662 310 C664 131 563 3 386 3 C196 3 76 147 76 323 C76 499 198 640 391 640 C490 640 556 603 576 586 L584 596 C553 619 479 649 391 649 C195 649 66 505 66 323 C66 140 192 -6 386 -6 C585 -6 674 146 674 305 L674 321 L439 321 Z " />
<glyph glyph-name="gcircumflex" unicode="&#x11d;" horiz-adv-x="532" d="M202 512 L281 588 L360 512 C362 510 367 507 373 507 L378 507 L284 599 L278 599 L184 507 L189 507 C195 507 200 510 202 512 L202 512 Z M451 427 L450 279 C426 371 351 438 254 438 C138 438 49 345 49 216 C49 87 138 -7 255 -7 C351 -7 426 60 450 152 L450 11 C450 -124 399 -201 264 -201 C239 -201 222 -199 202 -194 L201 -203 C221 -207 241 -210 263 -210 C401 -210 459 -139 459 20 L459 427 L451 427 Z M256 2 C145 2 59 94 59 216 C59 337 145 429 255 429 C364 429 450 338 450 216 C450 94 364 2 256 2 L256 2 Z " />
<glyph glyph-name="Gbreve" unicode="&#x11e;" horiz-adv-x="734" d="M378 690 C433 690 474 724 477 770 L468 770 C466 735 434 699 378 699 C323 699 292 734 291 770 L281 770 C284 724 325 690 378 690 L378 690 Z M439 321 L439 310 L662 310 C664 131 563 3 386 3 C196 3 76 147 76 323 C76 499 198 640 391 640 C490 640 556 603 576 586 L584 596 C553 619 479 649 391 649 C195 649 66 505 66 323 C66 140 192 -6 386 -6 C585 -6 674 146 674 305 L674 321 L439 321 Z " />
<glyph glyph-name="gbreve" unicode="&#x11f;" horiz-adv-x="532" d="M281 507 C336 507 377 541 380 587 L371 587 C369 552 337 516 281 516 C226 516 195 551 194 587 L184 587 C187 541 228 507 281 507 L281 507 Z M451 427 L450 279 C426 371 351 438 254 438 C138 438 49 345 49 216 C49 87 138 -7 255 -7 C351 -7 426 60 450 152 L450 11 C450 -124 399 -201 264 -201 C239 -201 222 -199 202 -194 L201 -203 C221 -207 241 -210 263 -210 C401 -210 459 -139 459 20 L459 427 L451 427 Z M256 2 C145 2 59 94 59 216 C59 337 145 429 255 429 C364 429 450 338 450 216 C450 94 364 2 256 2 L256 2 Z " />
<glyph glyph-name="Gdotaccent" unicode="&#x120;" horiz-adv-x="734" d="M378 721 C388 721 397 729 397 740 C397 751 388 760 378 760 C367 760 358 751 358 740 C358 729 367 721 378 721 L378 721 Z M439 321 L439 310 L662 310 C664 131 563 3 386 3 C196 3 76 147 76 323 C76 499 198 640 391 640 C490 640 556 603 576 586 L584 596 C553 619 479 649 391 649 C195 649 66 505 66 323 C66 140 192 -6 386 -6 C585 -6 674 146 674 305 L674 321 L439 321 Z " />
<glyph glyph-name="gdotaccent" unicode="&#x121;" horiz-adv-x="532" d="M281 538 C291 538 300 546 300 557 C300 568 291 577 281 577 C270 577 261 568 261 557 C261 546 270 538 281 538 L281 538 Z M451 427 L450 279 C426 371 351 438 254 438 C138 438 49 345 49 216 C49 87 138 -7 255 -7 C351 -7 426 60 450 152 L450 11 C450 -124 399 -201 264 -201 C239 -201 222 -199 202 -194 L201 -203 C221 -207 241 -210 263 -210 C401 -210 459 -139 459 20 L459 427 L451 427 Z M256 2 C145 2 59 94 59 216 C59 337 145 429 255 429 C364 429 450 338 450 216 C450 94 364 2 256 2 L256 2 Z " />
<glyph glyph-name="uni0122" unicode="&#x122;" horiz-adv-x="734" d="M439 321 L439 310 L662 310 C664 131 563 3 386 3 C196 3 76 147 76 323 C76 499 198 640 391 640 C490 640 556 603 576 586 L584 596 C553 619 479 649 391 649 C195 649 66 505 66 323 C66 140 192 -6 386 -6 C585 -6 674 146 674 305 L674 321 L439 321 Z M374 -76 C364 -76 360 -82 360 -91 C360 -102 374 -108 385 -101 C387 -110 383 -147 349 -166 L352 -171 C377 -159 389 -134 392 -113 C396 -93 389 -76 374 -76 L374 -76 Z " />
<glyph glyph-name="uni0123" unicode="&#x123;" horiz-adv-x="532" d="M275 541 C286 542 291 548 291 558 C291 571 276 577 263 570 C261 579 265 621 303 641 L300 647 C272 634 259 606 255 583 C251 561 259 541 275 541 L275 541 Z M451 427 L450 279 C426 371 351 438 254 438 C138 438 49 345 49 216 C49 87 138 -7 255 -7 C351 -7 426 60 450 152 L450 11 C450 -124 399 -201 264 -201 C239 -201 222 -199 202 -194 L201 -203 C221 -207 241 -210 263 -210 C401 -210 459 -139 459 20 L459 427 L451 427 Z M256 2 C145 2 59 94 59 216 C59 337 145 429 255 429 C364 429 450 338 450 216 C450 94 364 2 256 2 L256 2 Z " />
<glyph glyph-name="Hcircumflex" unicode="&#x124;" horiz-adv-x="686" d="M264 695 L343 771 L422 695 C424 693 429 690 435 690 L440 690 L346 782 L340 782 L246 690 L251 690 C257 690 262 693 264 695 L264 695 Z M570 640 L570 341 L116 341 L116 640 L106 640 L106 0 L116 0 L116 332 L570 332 L570 0 L580 0 L580 640 L570 640 Z " />
<glyph glyph-name="hcircumflex" unicode="&#x125;" horiz-adv-x="472" d="M157 715 C159 713 164 710 170 710 L175 710 L81 801 L75 801 L-19 710 L-14 710 C-8 710 -3 713 -1 715 L78 791 L157 715 Z M241 439 C157 439 100 378 82 296 L82 680 L73 680 L73 0 L82 0 L82 258 L84 244 C88 353 148 430 242 430 C324 430 393 381 393 245 L393 0 L403 0 L403 247 C403 401 315 439 241 439 L241 439 Z " />
<glyph glyph-name="Hbar" unicode="&#x126;" horiz-adv-x="686" d="M570 640 L570 493 L116 493 L116 640 L106 640 L106 0 L116 0 L116 332 L570 332 L570 0 L580 0 L580 640 L570 640 Z M116 341 L116 485 L570 485 L570 341 L116 341 Z " />
<glyph glyph-name="hbar" unicode="&#x127;" horiz-adv-x="472" d="M241 439 C157 439 100 378 82 296 L82 534 L208 534 L208 544 L82 544 L82 680 L73 680 L73 544 L5 544 L5 534 L73 534 L73 0 L82 0 L82 258 L84 244 C88 353 148 430 242 430 C324 430 393 381 393 245 L393 0 L403 0 L403 247 C403 401 315 439 241 439 L241 439 Z " />
<glyph glyph-name="Itilde" unicode="&#x128;" horiz-adv-x="242" d="M169 711 C196 711 218 728 228 755 L220 760 C211 738 196 721 169 721 C134 721 103 759 69 759 C44 759 27 744 15 721 L24 716 C31 732 44 750 68 750 C101 750 129 711 169 711 L169 711 Z M126 640 L116 640 L116 0 L126 0 L126 640 Z " />
<glyph glyph-name="itilde" unicode="&#x129;" horiz-adv-x="182" d="M138 528 C165 528 187 545 197 572 L189 577 C180 555 165 538 138 538 C103 538 72 576 38 576 C13 576 -4 561 -16 538 L-7 533 C0 549 13 567 37 567 C70 567 98 528 138 528 L138 528 Z M85 0 L94 0 L94 427 L85 427 L85 0 Z " />
<glyph glyph-name="Imacron" unicode="&#x12a;" horiz-adv-x="242" d="M35 734 L208 734 L208 743 L35 743 L35 734 Z M126 640 L116 640 L116 0 L126 0 L126 640 Z " />
<glyph glyph-name="imacron" unicode="&#x12b;" horiz-adv-x="182" d="M4 551 L177 551 L177 560 L4 560 L4 551 Z M85 0 L94 0 L94 427 L85 427 L85 0 Z " />
<glyph glyph-name="Ibreve" unicode="&#x12c;" horiz-adv-x="242" d="M121 690 C176 690 217 724 220 770 L211 770 C209 735 177 699 121 699 C66 699 35 734 34 770 L24 770 C27 724 68 690 121 690 L121 690 Z M126 640 L116 640 L116 0 L126 0 L126 640 Z " />
<glyph glyph-name="ibreve" unicode="&#x12d;" horiz-adv-x="182" d="M90 507 C145 507 186 541 189 587 L180 587 C178 552 146 516 90 516 C35 516 4 551 3 587 L-7 587 C-4 541 37 507 90 507 L90 507 Z M85 0 L94 0 L94 427 L85 427 L85 0 Z " />
<glyph glyph-name="Iogonek" unicode="&#x12e;" horiz-adv-x="242" d="M128 -122 C55 -158 15 -75 112 -11 L127 0 L126 0 L126 640 L116 640 L116 0 L118 0 C46 -41 37 -89 50 -114 C63 -141 99 -147 130 -130 L128 -122 Z " />
<glyph glyph-name="iogonek" unicode="&#x12f;" horiz-adv-x="182" d="M90 577 C79 577 70 568 70 557 C70 546 79 538 90 538 C100 538 109 546 109 557 C109 568 100 577 90 577 L90 577 Z M79 -11 L94 0 L94 427 L85 427 L85 0 C13 -41 4 -89 17 -114 C30 -141 66 -147 97 -130 L95 -122 C22 -158 -18 -75 79 -11 L79 -11 Z " />
<glyph glyph-name="Idotaccent" unicode="&#x130;" horiz-adv-x="242" d="M121 721 C131 721 140 729 140 740 C140 751 131 760 121 760 C110 760 101 751 101 740 C101 729 110 721 121 721 L121 721 Z M126 640 L116 640 L116 0 L126 0 L126 640 Z " />
<glyph glyph-name="dotlessi" unicode="&#x131;" horiz-adv-x="182" d="M85 0 L94 0 L94 427 L85 427 L85 0 Z " />
<glyph glyph-name="ij" unicode="&#x133;" horiz-adv-x="393" d="M90 548 C100 548 109 556 109 567 C109 578 100 587 90 587 C79 587 70 578 70 567 C70 556 79 548 90 548 L90 548 Z M299 548 C310 548 319 556 319 567 C319 578 310 587 299 587 C289 587 280 578 280 567 C280 556 289 548 299 548 L299 548 Z M85 0 L94 0 L94 427 L85 427 L85 0 Z M305 -97 L305 427 L295 427 L295 -95 C295 -172 257 -207 181 -199 L181 -209 C253 -217 305 -188 305 -97 L305 -97 Z " />
<glyph glyph-name="Jcircumflex" unicode="&#x134;" horiz-adv-x="357" d="M265 772 L259 772 L165 680 L170 680 C176 680 181 683 183 685 L262 761 L341 685 C343 683 348 680 354 680 L359 680 L265 772 Z M148 -6 C225 -6 267 46 267 136 L267 640 L257 640 L257 130 C257 52 218 3 149 3 C100 3 76 20 54 51 L46 45 C67 15 97 -6 148 -6 L148 -6 Z " />
<glyph glyph-name="jcircumflex" unicode="&#x135;" horiz-adv-x="211" d="M121 600 L115 600 L21 508 L26 508 C32 508 37 511 39 513 L118 589 L197 513 C199 511 204 508 210 508 L215 508 L121 600 Z M123 -97 L123 427 L113 427 L113 -95 C113 -172 75 -207 -1 -199 L-1 -209 C71 -217 123 -188 123 -97 L123 -97 Z " />
<glyph glyph-name="uni0136" unicode="&#x136;" horiz-adv-x="557" d="M116 640 L106 640 L106 0 L116 0 L116 640 Z M127 340 L484 0 L501 0 L142 340 L494 640 L478 640 L127 340 Z M249 -171 C274 -159 286 -134 289 -113 C293 -93 286 -76 271 -76 C261 -76 257 -82 257 -91 C257 -102 271 -108 282 -101 C284 -110 280 -147 246 -166 L249 -171 Z " />
<glyph glyph-name="uni0137" unicode="&#x137;" horiz-adv-x="392" d="M73 0 L82 0 L82 680 L73 680 L73 0 Z M363 0 L379 0 L109 235 L352 427 L337 427 L93 235 L363 0 Z M180 -171 C205 -159 217 -134 220 -113 C224 -93 217 -76 202 -76 C192 -76 188 -82 188 -91 C188 -102 202 -108 213 -101 C215 -110 211 -147 177 -166 L180 -171 Z " />
<glyph glyph-name="kgreenlandic" unicode="&#x138;" horiz-adv-x="410" d="M73 0 L82 0 L82 438 L73 438 L73 0 Z M371 0 L386 0 L109 240 L359 438 L344 438 L94 240 L371 0 Z " />
<glyph glyph-name="Lacute" unicode="&#x139;" horiz-adv-x="432" d="M206 830 L75 690 L79 690 C85 690 90 694 103 708 L216 826 L206 830 Z M116 10 L116 640 L106 640 L106 0 L386 0 L386 10 L116 10 Z " />
<glyph glyph-name="lacute" unicode="&#x13a;" horiz-adv-x="163" d="M57 749 L171 867 L161 871 L29 731 L33 731 C39 731 44 735 57 749 L57 749 Z M77 0 L86 0 L86 680 L77 680 L77 0 Z " />
<glyph glyph-name="uni013B" unicode="&#x13b;" horiz-adv-x="432" d="M116 10 L116 640 L106 640 L106 0 L386 0 L386 10 L116 10 Z M218 -76 C208 -76 204 -82 204 -91 C204 -102 218 -108 229 -101 C231 -110 227 -147 193 -166 L196 -171 C221 -159 233 -134 236 -113 C240 -93 233 -76 218 -76 L218 -76 Z " />
<glyph glyph-name="uni013C" unicode="&#x13c;" horiz-adv-x="163" d="M77 0 L86 0 L86 680 L77 680 L77 0 Z M56 -171 C81 -159 93 -134 96 -113 C100 -93 93 -76 78 -76 C68 -76 64 -82 64 -91 C64 -102 78 -108 89 -101 C91 -110 87 -147 53 -166 L56 -171 Z " />
<glyph glyph-name="Lcaron" unicode="&#x13d;" horiz-adv-x="432" d="M116 10 L116 640 L106 640 L106 0 L386 0 L386 10 L116 10 Z M273 524 L276 519 C300 531 312 556 316 576 C319 597 312 614 298 614 C288 614 283 607 283 598 C283 587 297 582 309 588 C310 580 306 542 273 524 L273 524 Z " />
<glyph glyph-name="lcaron" unicode="&#x13e;" horiz-adv-x="163" d="M77 0 L86 0 L86 680 L77 680 L77 0 Z M181 560 C205 572 217 597 221 617 C224 638 217 655 203 655 C193 655 188 648 188 639 C188 628 202 623 214 629 C215 621 211 583 178 565 L181 560 Z " />
<glyph glyph-name="Ldot" unicode="&#x13f;" horiz-adv-x="432" d="M116 10 L116 640 L106 640 L106 0 L386 0 L386 10 L116 10 Z M292 344 C302 344 311 353 311 364 C311 375 302 383 292 383 C281 383 272 375 272 364 C272 353 281 344 292 344 L292 344 Z " />
<glyph glyph-name="ldot" unicode="&#x140;" horiz-adv-x="242" d="M73 0 L82 0 L82 680 L73 680 L73 0 Z M173 314 C184 314 192 323 192 334 C192 345 184 353 173 353 C162 353 153 345 153 334 C153 323 162 314 173 314 L173 314 Z " />
<glyph glyph-name="Lslash" unicode="&#x141;" horiz-adv-x="442" d="M126 10 L126 321 L185 367 L185 377 L126 331 L126 640 L116 640 L116 323 L56 276 L56 266 L116 313 L116 0 L396 0 L396 10 L126 10 Z " />
<glyph glyph-name="lslash" unicode="&#x142;" horiz-adv-x="163" d="M147 402 L86 354 L86 680 L77 680 L77 347 L18 301 L18 291 L77 337 L77 0 L86 0 L86 344 L147 391 L147 402 Z " />
<glyph glyph-name="Nacute" unicode="&#x143;" horiz-adv-x="716" d="M332 708 L445 826 L435 830 L304 690 L308 690 C314 690 319 694 332 708 L332 708 Z M599 640 L599 18 L116 640 L106 640 L106 0 L116 0 L116 621 L599 0 L610 0 L610 640 L599 640 Z " />
<glyph glyph-name="nacute" unicode="&#x144;" horiz-adv-x="469" d="M216 526 L329 644 L319 648 L188 508 L192 508 C198 508 203 512 216 526 L216 526 Z M239 439 C157 439 101 382 82 304 L81 427 L73 427 L73 0 L82 0 L82 258 C91 360 150 430 240 430 C321 430 391 381 391 245 L391 0 L400 0 L400 247 C400 401 313 439 239 439 L239 439 Z " />
<glyph glyph-name="uni0145" unicode="&#x145;" horiz-adv-x="716" d="M599 640 L599 18 L116 640 L106 640 L106 0 L116 0 L116 621 L599 0 L610 0 L610 640 L599 640 Z M353 -76 C343 -76 339 -82 339 -91 C339 -102 353 -108 364 -101 C366 -110 362 -147 328 -166 L331 -171 C356 -159 368 -134 371 -113 C375 -93 368 -76 353 -76 L353 -76 Z " />
<glyph glyph-name="uni0146" unicode="&#x146;" horiz-adv-x="469" d="M239 439 C157 439 101 382 82 304 L81 427 L73 427 L73 0 L82 0 L82 258 C91 360 150 430 240 430 C321 430 391 381 391 245 L391 0 L400 0 L400 247 C400 401 313 439 239 439 L239 439 Z M237 -76 C227 -76 223 -82 223 -91 C223 -102 237 -108 248 -101 C250 -110 246 -147 212 -166 L215 -171 C240 -159 252 -134 255 -113 C259 -93 252 -76 237 -76 L237 -76 Z " />
<glyph glyph-name="Ncaron" unicode="&#x147;" horiz-adv-x="716" d="M362 691 L457 782 L451 782 C445 782 441 780 438 777 L359 702 L280 777 C278 780 274 782 267 782 L262 782 L356 691 L362 691 Z M599 640 L599 18 L116 640 L106 640 L106 0 L116 0 L116 621 L599 0 L610 0 L610 640 L599 640 Z " />
<glyph glyph-name="ncaron" unicode="&#x148;" horiz-adv-x="469" d="M246 508 L341 599 L335 599 C329 599 325 597 322 594 L243 519 L164 594 C162 597 158 599 151 599 L146 599 L240 508 L246 508 Z M239 439 C157 439 101 382 82 304 L81 427 L73 427 L73 0 L82 0 L82 258 C91 360 150 430 240 430 C321 430 391 381 391 245 L391 0 L400 0 L400 247 C400 401 313 439 239 439 L239 439 Z " />
<glyph glyph-name="napostrophe" unicode="&#x149;" horiz-adv-x="488" d="M74 648 C61 648 54 639 55 626 C55 611 74 604 90 612 C92 601 87 549 40 523 L44 517 C78 533 95 567 100 596 C104 624 95 648 74 648 L74 648 Z M257 439 C178 439 121 384 101 307 L100 427 L91 427 L91 0 L101 0 L101 260 C110 360 169 430 259 430 C340 430 409 381 409 245 L409 0 L419 0 L419 247 C419 401 331 439 257 439 L257 439 Z " />
<glyph glyph-name="Eng" unicode="&#x14a;" horiz-adv-x="716" d="M599 640 L599 18 L559 70 L241 506 L453 206 L116 640 L106 640 L106 0 L116 0 L116 621 L599 0 L599 -44 C599 -155 533 -168 483 -146 L481 -157 C536 -181 610 -165 610 -35 L610 640 L599 640 Z " />
<glyph glyph-name="eng" unicode="&#x14b;" horiz-adv-x="469" d="M400 -67 L400 247 C400 401 313 439 239 439 C157 439 101 382 82 304 L81 427 L73 427 L73 0 L82 0 L82 258 C91 360 150 430 240 430 C321 430 391 381 391 245 L391 -67 C391 -113 368 -127 330 -119 L329 -128 C373 -139 401 -118 400 -67 L400 -67 Z " />
<glyph glyph-name="Omacron" unicode="&#x14c;" horiz-adv-x="791" d="M309 734 L482 734 L482 743 L309 743 L309 734 Z M396 -6 C585 -6 725 140 725 321 C725 505 585 649 396 649 C207 649 66 505 66 321 C66 140 207 -6 396 -6 L396 -6 Z M396 3 C210 3 76 146 76 321 C76 498 210 640 396 640 C580 640 715 498 715 321 C715 146 580 3 396 3 L396 3 Z " />
<glyph glyph-name="omacron" unicode="&#x14d;" horiz-adv-x="539" d="M183 551 L356 551 L356 560 L183 560 L183 551 Z M269 -6 C394 -6 490 91 490 216 C490 341 394 438 269 438 C143 438 49 341 49 216 C49 91 143 -6 269 -6 L269 -6 Z M269 3 C148 3 59 98 59 216 C59 334 148 429 269 429 C389 429 480 334 480 216 C480 98 389 3 269 3 L269 3 Z " />
<glyph glyph-name="Obreve" unicode="&#x14e;" horiz-adv-x="791" d="M396 690 C451 690 492 724 495 770 L486 770 C484 735 452 699 396 699 C341 699 310 734 309 770 L299 770 C302 724 343 690 396 690 L396 690 Z M396 -6 C585 -6 725 140 725 321 C725 505 585 649 396 649 C207 649 66 505 66 321 C66 140 207 -6 396 -6 L396 -6 Z M396 3 C210 3 76 146 76 321 C76 498 210 640 396 640 C580 640 715 498 715 321 C715 146 580 3 396 3 L396 3 Z " />
<glyph glyph-name="obreve" unicode="&#x14f;" horiz-adv-x="539" d="M270 507 C325 507 366 541 369 587 L360 587 C358 552 326 516 270 516 C215 516 184 551 183 587 L173 587 C176 541 217 507 270 507 L270 507 Z M269 -6 C394 -6 490 91 490 216 C490 341 394 438 269 438 C143 438 49 341 49 216 C49 91 143 -6 269 -6 L269 -6 Z M269 3 C148 3 59 98 59 216 C59 334 148 429 269 429 C389 429 480 334 480 216 C480 98 389 3 269 3 L269 3 Z " />
<glyph glyph-name="Ohungarumlaut" unicode="&#x150;" horiz-adv-x="791" d="M325 708 L439 826 L429 830 L297 690 L301 690 C307 690 312 694 325 708 L325 708 Z M423 708 L537 826 L527 830 L395 690 L399 690 C405 690 410 694 423 708 L423 708 Z M396 -6 C585 -6 725 140 725 321 C725 505 585 649 396 649 C207 649 66 505 66 321 C66 140 207 -6 396 -6 L396 -6 Z M396 3 C210 3 76 146 76 321 C76 498 210 640 396 640 C580 640 715 498 715 321 C715 146 580 3 396 3 L396 3 Z " />
<glyph glyph-name="ohungarumlaut" unicode="&#x151;" horiz-adv-x="539" d="M198 526 L312 644 L302 648 L170 508 L174 508 C180 508 185 512 198 526 L198 526 Z M296 526 L410 644 L400 648 L268 508 L272 508 C278 508 283 512 296 526 L296 526 Z M269 -6 C394 -6 490 91 490 216 C490 341 394 438 269 438 C143 438 49 341 49 216 C49 91 143 -6 269 -6 L269 -6 Z M269 3 C148 3 59 98 59 216 C59 334 148 429 269 429 C389 429 480 334 480 216 C480 98 389 3 269 3 L269 3 Z " />
<glyph glyph-name="OE" unicode="&#x152;" horiz-adv-x="1118" d="M1042 630 L1042 640 L717 640 L717 396 C685 543 559 649 396 649 C207 649 66 505 66 321 C66 140 207 -6 396 -6 C559 -6 685 102 717 247 L717 0 L1042 0 L1042 10 L727 10 L727 316 L992 316 L992 325 L727 325 L727 630 L1042 630 Z M396 3 C210 3 76 146 76 321 C76 498 210 640 396 640 C580 640 715 498 715 321 C715 146 580 3 396 3 L396 3 Z " />
<glyph glyph-name="oe" unicode="&#x153;" horiz-adv-x="925" d="M876 236 L876 248 C876 345 801 438 684 438 C578 438 501 363 485 264 C464 365 377 438 269 438 C143 438 49 341 49 216 C49 91 143 -6 269 -6 C380 -6 467 70 486 174 C504 70 579 -6 694 -6 C764 -6 822 24 858 62 L849 69 C819 33 764 3 694 3 C566 3 492 100 492 225 L492 236 L876 236 Z M269 3 C148 3 59 98 59 216 C59 334 148 429 269 429 C389 429 480 334 480 216 C480 98 389 3 269 3 L269 3 Z M684 428 C793 428 866 343 866 246 L493 246 C502 348 576 428 684 428 L684 428 Z " />
<glyph glyph-name="Racute" unicode="&#x154;" horiz-adv-x="498" d="M218 708 L331 826 L321 830 L190 690 L194 690 C200 690 205 694 218 708 L218 708 Z M442 0 L456 0 L200 326 L241 326 C334 326 426 371 426 481 C426 590 334 640 242 640 L106 640 L106 0 L116 0 L116 326 L187 326 L442 0 Z M116 631 L238 631 C335 631 415 582 415 481 C415 379 333 335 234 335 L116 335 L116 631 Z " />
<glyph glyph-name="racute" unicode="&#x155;" horiz-adv-x="240" d="M116 526 L229 644 L219 648 L88 508 L92 508 C98 508 103 512 116 526 L116 526 Z M82 330 L81 427 L73 427 L73 0 L82 0 L82 268 L82 270 L82 279 C84 368 131 428 196 428 C207 428 211 427 221 425 L224 436 C217 438 211 439 202 439 C133 439 96 385 82 330 L82 330 Z " />
<glyph glyph-name="uni0156" unicode="&#x156;" horiz-adv-x="498" d="M200 326 L241 326 C334 326 426 371 426 481 C426 590 334 640 242 640 L106 640 L106 0 L116 0 L116 326 L187 326 L442 0 L456 0 L200 326 Z M116 631 L238 631 C335 631 415 582 415 481 C415 379 333 335 234 335 L116 335 L116 631 Z M260 -76 C250 -76 246 -82 246 -91 C246 -102 260 -108 271 -101 C273 -110 269 -147 235 -166 L238 -171 C263 -159 275 -134 278 -113 C282 -93 275 -76 260 -76 L260 -76 Z " />
<glyph glyph-name="uni0157" unicode="&#x157;" horiz-adv-x="240" d="M202 439 C133 439 96 385 82 330 L81 427 L73 427 L73 0 L82 0 L82 268 L82 270 L82 279 C84 368 131 428 196 428 C207 428 211 427 221 425 L224 436 C217 438 211 439 202 439 L202 439 Z M74 -76 C64 -76 60 -82 60 -91 C60 -102 74 -108 85 -101 C87 -110 83 -147 49 -166 L52 -171 C77 -159 89 -134 92 -113 C96 -93 89 -76 74 -76 L74 -76 Z " />
<glyph glyph-name="Rcaron" unicode="&#x158;" horiz-adv-x="498" d="M248 691 L343 782 L337 782 C331 782 327 780 324 777 L245 702 L166 777 C164 780 160 782 153 782 L148 782 L242 691 L248 691 Z M442 0 L456 0 L200 326 L241 326 C334 326 426 371 426 481 C426 590 334 640 242 640 L106 640 L106 0 L116 0 L116 326 L187 326 L442 0 Z M116 631 L238 631 C335 631 415 582 415 481 C415 379 333 335 234 335 L116 335 L116 631 Z " />
<glyph glyph-name="rcaron" unicode="&#x159;" horiz-adv-x="240" d="M147 508 L242 599 L236 599 C230 599 226 597 223 594 L144 519 L65 594 C63 597 59 599 52 599 L47 599 L141 508 L147 508 Z M82 330 L81 427 L73 427 L73 0 L82 0 L82 268 L82 270 L82 279 C84 368 131 428 196 428 C207 428 211 427 221 425 L224 436 C217 438 211 439 202 439 C133 439 96 385 82 330 L82 330 Z " />
<glyph glyph-name="Sacute" unicode="&#x15a;" horiz-adv-x="490" d="M220 708 L333 826 L323 830 L192 690 L196 690 C202 690 207 694 220 708 L220 708 Z M238 -6 C343 -6 414 52 414 141 C414 236 346 282 259 328 C185 368 93 407 93 501 C93 587 154 640 233 640 C305 640 354 609 382 579 L390 586 C366 616 308 649 234 649 C158 649 83 603 83 502 C83 405 172 362 250 321 C343 272 404 229 404 141 C404 62 339 3 240 3 C151 3 95 36 65 80 L56 74 C78 39 136 -6 238 -6 L238 -6 Z " />
<glyph glyph-name="sacute" unicode="&#x15b;" horiz-adv-x="359" d="M163 526 L276 644 L266 648 L135 508 L139 508 C145 508 150 512 163 526 L163 526 Z M39 60 C57 30 105 -6 171 -6 C250 -6 310 36 310 112 C310 274 67 189 65 329 C63 392 110 429 176 428 C231 428 264 409 287 387 L295 396 C271 417 235 438 176 438 C104 438 53 396 54 329 C56 175 300 264 300 111 C300 44 248 3 172 3 C110 3 66 37 49 67 L39 60 Z " />
<glyph glyph-name="Scircumflex" unicode="&#x15c;" horiz-adv-x="490" d="M248 782 L242 782 L148 690 L153 690 C159 690 164 693 166 695 L245 771 L324 695 C326 693 331 690 337 690 L342 690 L248 782 Z M238 -6 C343 -6 414 52 414 141 C414 236 346 282 259 328 C185 368 93 407 93 501 C93 587 154 640 233 640 C305 640 354 609 382 579 L390 586 C366 616 308 649 234 649 C158 649 83 603 83 502 C83 405 172 362 250 321 C343 272 404 229 404 141 C404 62 339 3 240 3 C151 3 95 36 65 80 L56 74 C78 39 136 -6 238 -6 L238 -6 Z " />
<glyph glyph-name="scircumflex" unicode="&#x15d;" horiz-adv-x="359" d="M191 599 L185 599 L91 507 L96 507 C102 507 107 510 109 512 L188 588 L267 512 C269 510 274 507 280 507 L285 507 L191 599 Z M39 60 C57 30 105 -6 171 -6 C250 -6 310 36 310 112 C310 274 67 189 65 329 C63 392 110 429 176 428 C231 428 264 409 287 387 L295 396 C271 417 235 438 176 438 C104 438 53 396 54 329 C56 175 300 264 300 111 C300 44 248 3 172 3 C110 3 66 37 49 67 L39 60 Z " />
<glyph glyph-name="Scedilla" unicode="&#x15e;" horiz-adv-x="490" d="M414 141 C414 236 346 282 259 328 C185 368 93 407 93 501 C93 587 154 640 233 640 C305 640 354 609 382 579 L390 586 C366 616 308 649 234 649 C158 649 83 603 83 502 C83 405 172 362 250 321 C343 272 404 229 404 141 C404 62 339 3 240 3 C151 3 95 36 65 80 L56 74 C78 39 136 -6 237 -6 L199 -78 L203 -83 C244 -64 312 -69 312 -112 C312 -138 288 -161 234 -158 C208 -156 183 -146 173 -139 L168 -147 C182 -156 212 -168 245 -168 C284 -167 324 -151 324 -112 C324 -82 296 -67 269 -64 C247 -63 224 -67 211 -70 L245 -6 C346 -3 414 54 414 141 L414 141 Z " />
<glyph glyph-name="scedilla" unicode="&#x15f;" horiz-adv-x="359" d="M310 112 C310 274 67 189 65 329 C63 392 110 429 176 428 C231 428 264 409 287 387 L295 396 C271 417 235 438 176 438 C104 438 53 396 54 329 C56 175 300 264 300 111 C300 44 248 3 172 3 C110 3 66 37 49 67 L39 60 C57 30 105 -6 171 -6 L181 -6 L143 -78 L147 -83 C188 -64 256 -69 256 -112 C256 -138 232 -161 178 -158 C152 -156 127 -146 117 -139 L112 -147 C126 -156 156 -168 189 -168 C228 -167 268 -151 268 -112 C268 -82 240 -67 213 -64 C191 -63 168 -67 155 -70 L189 -5 C259 1 310 42 310 112 L310 112 Z " />
<glyph glyph-name="Scaron" unicode="&#x160;" horiz-adv-x="490" d="M244 691 L250 691 L345 782 L339 782 C333 782 329 780 326 777 L247 702 L168 777 C166 780 162 782 155 782 L150 782 L244 691 Z M238 -6 C343 -6 414 52 414 141 C414 236 346 282 259 328 C185 368 93 407 93 501 C93 587 154 640 233 640 C305 640 354 609 382 579 L390 586 C366 616 308 649 234 649 C158 649 83 603 83 502 C83 405 172 362 250 321 C343 272 404 229 404 141 C404 62 339 3 240 3 C151 3 95 36 65 80 L56 74 C78 39 136 -6 238 -6 L238 -6 Z " />
<glyph glyph-name="scaron" unicode="&#x161;" horiz-adv-x="359" d="M187 508 L193 508 L288 599 L282 599 C276 599 272 597 269 594 L190 519 L111 594 C109 597 105 599 98 599 L93 599 L187 508 Z M39 60 C57 30 105 -6 171 -6 C250 -6 310 36 310 112 C310 274 67 189 65 329 C63 392 110 429 176 428 C231 428 264 409 287 387 L295 396 C271 417 235 438 176 438 C104 438 53 396 54 329 C56 175 300 264 300 111 C300 44 248 3 172 3 C110 3 66 37 49 67 L39 60 Z " />
<glyph glyph-name="uni0162" unicode="&#x162;" horiz-adv-x="476" d="M243 0 L243 630 L433 630 L433 640 L44 640 L44 630 L233 630 L233 0 L234 0 L193 -78 L197 -83 C238 -64 306 -69 306 -112 C306 -138 282 -161 228 -158 C202 -156 177 -146 167 -139 L162 -147 C176 -156 206 -168 239 -168 C278 -167 318 -151 318 -112 C318 -82 290 -67 263 -64 C241 -63 218 -67 205 -70 L242 0 L243 0 Z " />
<glyph glyph-name="uni0163" unicode="&#x163;" horiz-adv-x="273" d="M232 419 L232 427 L117 427 L117 557 L108 557 L108 427 L49 427 L49 419 L108 419 L108 0 L109 0 L68 -78 L72 -83 C113 -64 181 -69 181 -112 C181 -138 157 -161 103 -158 C77 -156 52 -146 42 -139 L37 -147 C51 -156 81 -168 114 -168 C153 -167 193 -151 193 -112 C193 -82 165 -67 138 -64 C116 -63 93 -67 80 -70 L117 0 L118 2 L118 3 L117 3 L117 419 L232 419 Z " />
<glyph glyph-name="Tcaron" unicode="&#x164;" horiz-adv-x="476" d="M243 691 L338 782 L332 782 C326 782 322 780 319 777 L240 702 L161 777 C159 780 155 782 148 782 L143 782 L237 691 L243 691 Z M433 640 L44 640 L44 630 L233 630 L233 0 L243 0 L243 630 L433 630 L433 640 Z " />
<glyph glyph-name="tcaron" unicode="&#x165;" horiz-adv-x="273" d="M249 578 C239 578 234 571 234 562 C234 551 248 546 260 552 C261 544 257 506 224 488 L227 483 C251 495 263 520 267 540 C270 561 263 578 249 578 L249 578 Z M117 557 L108 557 L108 427 L49 427 L49 419 L108 419 L108 0 L117 0 L117 419 L232 419 L232 427 L117 427 L117 557 Z " />
<glyph glyph-name="Tbar" unicode="&#x166;" horiz-adv-x="476" d="M433 630 L433 640 L44 640 L44 630 L233 630 L233 327 L137 327 L137 317 L233 317 L233 0 L243 0 L243 317 L340 317 L340 327 L243 327 L243 630 L433 630 Z " />
<glyph glyph-name="tbar" unicode="&#x167;" horiz-adv-x="273" d="M232 419 L232 427 L117 427 L117 557 L108 557 L108 427 L49 427 L49 419 L108 419 L108 306 L65 306 L65 296 L108 296 L108 0 L117 0 L117 296 L190 296 L190 306 L117 306 L117 419 L232 419 Z " />
<glyph glyph-name="Utilde" unicode="&#x168;" horiz-adv-x="598" d="M347 711 C374 711 396 728 406 755 L398 760 C389 738 374 721 347 721 C312 721 281 759 247 759 C222 759 205 744 193 721 L202 716 C209 732 222 750 246 750 C279 750 307 711 347 711 L347 711 Z M299 -6 C447 -6 508 92 508 231 L508 640 L498 640 L498 233 C498 104 445 3 299 3 C153 3 100 104 100 233 L100 640 L90 640 L90 231 C90 92 151 -6 299 -6 L299 -6 Z " />
<glyph glyph-name="utilde" unicode="&#x169;" horiz-adv-x="466" d="M282 528 C309 528 331 545 341 572 L333 577 C324 555 309 538 282 538 C247 538 216 576 182 576 C157 576 140 561 128 538 L137 533 C144 549 157 567 181 567 C214 567 242 528 282 528 L282 528 Z M234 -12 C306 -12 398 27 398 169 L398 427 L388 427 L388 169 C388 63 333 -3 234 -3 C133 -3 79 63 79 169 L79 427 L69 427 L69 169 C69 27 161 -12 234 -12 L234 -12 Z " />
<glyph glyph-name="Umacron" unicode="&#x16a;" horiz-adv-x="598" d="M212 734 L385 734 L385 743 L212 743 L212 734 Z M299 -6 C447 -6 508 92 508 231 L508 640 L498 640 L498 233 C498 104 445 3 299 3 C153 3 100 104 100 233 L100 640 L90 640 L90 231 C90 92 151 -6 299 -6 L299 -6 Z " />
<glyph glyph-name="umacron" unicode="&#x16b;" horiz-adv-x="466" d="M147 551 L320 551 L320 560 L147 560 L147 551 Z M234 -12 C306 -12 398 27 398 169 L398 427 L388 427 L388 169 C388 63 333 -3 234 -3 C133 -3 79 63 79 169 L79 427 L69 427 L69 169 C69 27 161 -12 234 -12 L234 -12 Z " />
<glyph glyph-name="Ubreve" unicode="&#x16c;" horiz-adv-x="598" d="M299 690 C354 690 395 724 398 770 L389 770 C387 735 355 699 299 699 C244 699 213 734 212 770 L202 770 C205 724 246 690 299 690 L299 690 Z M299 -6 C447 -6 508 92 508 231 L508 640 L498 640 L498 233 C498 104 445 3 299 3 C153 3 100 104 100 233 L100 640 L90 640 L90 231 C90 92 151 -6 299 -6 L299 -6 Z " />
<glyph glyph-name="ubreve" unicode="&#x16d;" horiz-adv-x="466" d="M234 507 C289 507 330 541 333 587 L324 587 C322 552 290 516 234 516 C179 516 148 551 147 587 L137 587 C140 541 181 507 234 507 L234 507 Z M234 -12 C306 -12 398 27 398 169 L398 427 L388 427 L388 169 C388 63 333 -3 234 -3 C133 -3 79 63 79 169 L79 427 L69 427 L69 169 C69 27 161 -12 234 -12 L234 -12 Z " />
<glyph glyph-name="Uring" unicode="&#x16e;" horiz-adv-x="598" d="M299 846 C255 846 219 811 219 768 C219 724 255 690 299 690 C343 690 379 724 379 768 C379 811 343 846 299 846 L299 846 Z M299 700 C261 700 229 730 229 768 C229 805 261 834 299 834 C337 834 368 805 368 768 C368 730 337 700 299 700 L299 700 Z M299 -6 C447 -6 508 92 508 231 L508 640 L498 640 L498 233 C498 104 445 3 299 3 C153 3 100 104 100 233 L100 640 L90 640 L90 231 C90 92 151 -6 299 -6 L299 -6 Z " />
<glyph glyph-name="uring" unicode="&#x16f;" horiz-adv-x="466" d="M234 664 C190 664 154 629 154 586 C154 542 190 508 234 508 C278 508 314 542 314 586 C314 629 278 664 234 664 L234 664 Z M234 518 C196 518 164 548 164 586 C164 623 196 652 234 652 C272 652 303 623 303 586 C303 548 272 518 234 518 L234 518 Z M234 -12 C306 -12 398 27 398 169 L398 427 L388 427 L388 169 C388 63 333 -3 234 -3 C133 -3 79 63 79 169 L79 427 L69 427 L69 169 C69 27 161 -12 234 -12 L234 -12 Z " />
<glyph glyph-name="Uhungarumlaut" unicode="&#x170;" horiz-adv-x="598" d="M228 708 L342 826 L332 830 L200 690 L204 690 C210 690 215 694 228 708 L228 708 Z M326 708 L440 826 L430 830 L298 690 L302 690 C308 690 313 694 326 708 L326 708 Z M299 -6 C447 -6 508 92 508 231 L508 640 L498 640 L498 233 C498 104 445 3 299 3 C153 3 100 104 100 233 L100 640 L90 640 L90 231 C90 92 151 -6 299 -6 L299 -6 Z " />
<glyph glyph-name="uhungarumlaut" unicode="&#x171;" horiz-adv-x="466" d="M163 526 L277 644 L267 648 L135 508 L139 508 C145 508 150 512 163 526 L163 526 Z M261 526 L375 644 L365 648 L233 508 L237 508 C243 508 248 512 261 526 L261 526 Z M234 -12 C306 -12 398 27 398 169 L398 427 L388 427 L388 169 C388 63 333 -3 234 -3 C133 -3 79 63 79 169 L79 427 L69 427 L69 169 C69 27 161 -12 234 -12 L234 -12 Z " />
<glyph glyph-name="Uogonek" unicode="&#x172;" horiz-adv-x="598" d="M498 640 L498 233 C498 104 445 3 299 3 C153 3 100 104 100 233 L100 640 L90 640 L90 231 C90 92 151 -6 299 -6 C314 -6 327 -5 340 -3 C272 -43 263 -91 276 -115 C289 -142 325 -148 356 -131 L354 -123 C281 -159 241 -76 338 -12 L353 -1 C462 20 508 110 508 231 L508 640 L498 640 Z " />
<glyph glyph-name="uogonek" unicode="&#x173;" horiz-adv-x="466" d="M388 427 L388 169 C388 63 333 -3 234 -3 C133 -3 79 63 79 169 L79 427 L69 427 L69 169 C69 27 161 -12 234 -12 C247 -12 260 -11 273 -8 C213 -47 206 -91 218 -114 C231 -141 267 -147 298 -130 L296 -122 C223 -158 183 -75 280 -11 L290 -4 C346 14 398 62 398 169 L398 427 L388 427 Z " />
<glyph glyph-name="Wcircumflex" unicode="&#x174;" horiz-adv-x="968" d="M406 695 L485 771 L564 695 C566 693 571 690 577 690 L582 690 L488 782 L482 782 L388 690 L393 690 C399 690 404 693 406 695 L406 695 Z M907 640 L689 18 L489 640 L481 640 L280 18 L61 640 L50 640 L275 0 L283 0 L485 625 L686 0 L693 0 L919 640 L907 640 Z " />
<glyph glyph-name="wcircumflex" unicode="&#x175;" horiz-adv-x="655" d="M249 512 L328 588 L407 512 C409 510 414 507 420 507 L425 507 L331 599 L325 599 L231 507 L236 507 C242 507 247 510 249 512 L249 512 Z M618 427 L462 16 L331 427 L324 427 L193 16 L37 427 L27 427 L190 0 L197 0 L328 414 L458 0 L465 0 L628 427 L618 427 Z " />
<glyph glyph-name="Ycircumflex" unicode="&#x176;" horiz-adv-x="517" d="M180 695 L259 771 L338 695 C340 693 345 690 351 690 L356 690 L262 782 L256 782 L162 690 L167 690 C173 690 178 693 180 695 L180 695 Z M479 640 L467 640 L259 325 L50 640 L38 640 L254 315 L254 0 L264 0 L264 315 L479 640 Z " />
<glyph glyph-name="ycircumflex" unicode="&#x177;" horiz-adv-x="423" d="M132 512 L211 588 L290 512 C292 510 297 507 303 507 L308 507 L214 599 L208 599 L114 507 L119 507 C125 507 130 510 132 512 L132 512 Z M391 427 L209 21 L32 427 L21 427 L204 9 L107 -210 L118 -210 L402 427 L391 427 Z " />
<glyph glyph-name="Ydieresis" unicode="&#x178;" horiz-adv-x="504" d="M176 711 C186 711 193 719 193 729 C193 738 186 746 176 746 C166 746 159 738 159 729 C159 719 166 711 176 711 L176 711 Z M329 711 C339 711 346 719 346 729 C346 738 339 746 329 746 C319 746 312 738 312 729 C312 719 319 711 329 711 L329 711 Z M479 640 L467 640 L259 325 L50 640 L38 640 L254 315 L254 0 L264 0 L264 315 L479 640 Z " />
<glyph glyph-name="Zacute" unicode="&#x179;" horiz-adv-x="592" d="M277 708 L390 826 L380 830 L249 690 L253 690 C259 690 264 694 277 708 L277 708 Z M99 9 L510 632 L510 640 L100 640 L100 631 L497 631 L86 8 L86 0 L526 0 L526 9 L99 9 Z " />
<glyph glyph-name="zacute" unicode="&#x17a;" horiz-adv-x="424" d="M189 526 L302 644 L292 648 L161 508 L165 508 C171 508 176 512 189 526 L189 526 Z M65 9 L365 419 L365 427 L66 427 L66 418 L353 418 L51 9 L51 0 L378 0 L378 9 L65 9 Z " />
<glyph glyph-name="Zdotaccent" unicode="&#x17b;" horiz-adv-x="592" d="M302 721 C312 721 321 729 321 740 C321 751 312 760 302 760 C291 760 282 751 282 740 C282 729 291 721 302 721 L302 721 Z M99 9 L510 632 L510 640 L100 640 L100 631 L497 631 L86 8 L86 0 L526 0 L526 9 L99 9 Z " />
<glyph glyph-name="zdotaccent" unicode="&#x17c;" horiz-adv-x="424" d="M214 538 C224 538 233 546 233 557 C233 568 224 577 214 577 C203 577 194 568 194 557 C194 546 203 538 214 538 L214 538 Z M65 9 L365 419 L365 427 L66 427 L66 418 L353 418 L51 9 L51 0 L378 0 L378 9 L65 9 Z " />
<glyph glyph-name="Zcaron" unicode="&#x17d;" horiz-adv-x="592" d="M307 691 L402 782 L396 782 C390 782 386 780 383 777 L304 702 L225 777 C223 780 219 782 212 782 L207 782 L301 691 L307 691 Z M99 9 L510 632 L510 640 L100 640 L100 631 L497 631 L86 8 L86 0 L526 0 L526 9 L99 9 Z " />
<glyph glyph-name="zcaron" unicode="&#x17e;" horiz-adv-x="424" d="M219 508 L314 599 L308 599 C302 599 298 597 295 594 L216 519 L137 594 C135 597 131 599 124 599 L119 599 L213 508 L219 508 Z M65 9 L365 419 L365 427 L66 427 L66 418 L353 418 L51 9 L51 0 L378 0 L378 9 L65 9 Z " />
<glyph glyph-name="uni0189" unicode="&#x189;" horiz-adv-x="603" d="M189 640 L106 640 L106 327 L17 327 L17 317 L106 317 L106 0 L189 0 C422 0 537 142 537 320 C537 498 422 640 189 640 L189 640 Z M193 9 L116 9 L116 317 L220 317 L220 327 L116 327 L116 631 L193 631 C364 631 526 538 526 320 C526 102 364 9 193 9 L193 9 Z " />
<glyph glyph-name="uni018F" unicode="&#x18f;" horiz-adv-x="708" d="M330 656 C232 656 154 615 104 562 L113 557 C158 606 234 647 330 647 C508 647 633 505 633 322 L633 321 L66 321 L66 308 C66 129 172 -11 340 -11 C520 -11 643 138 643 322 C643 507 515 656 330 656 L330 656 Z M340 -2 C183 -2 78 124 76 311 L633 311 C628 134 508 -2 340 -2 L340 -2 Z " />
<glyph glyph-name="florin" unicode="&#x192;" horiz-adv-x="510" d="M423 649 C379 649 353 617 337 540 L305 394 L203 394 L203 385 L303 385 L212 -33 C198 -98 181 -141 134 -141 C116 -141 96 -131 83 -119 L76 -127 C87 -136 106 -150 135 -150 C179 -150 205 -116 221 -41 L314 385 L408 385 L408 394 L316 394 L346 532 C361 598 379 640 425 640 C443 640 458 631 471 620 L479 628 C469 636 451 649 423 649 L423 649 Z " />
<glyph glyph-name="uni0197" unicode="&#x197;" horiz-adv-x="242" d="M224 371 L126 371 L126 640 L116 640 L116 371 L21 371 L21 361 L116 361 L116 0 L126 0 L126 361 L224 361 L224 371 Z " />
<glyph glyph-name="uni019D" unicode="&#x19d;" horiz-adv-x="716" d="M599 640 L599 18 L116 640 L106 640 L106 -44 C106 -155 38 -167 -12 -147 L-13 -156 C43 -181 116 -165 116 -36 L116 621 L599 0 L610 0 L610 640 L599 640 Z " />
<glyph glyph-name="uni01C3" unicode="&#x1c3;" horiz-adv-x="240" d="M127 640 L114 640 L116 151 L125 151 L127 640 Z M120 -1 C131 -1 139 7 139 18 C139 29 131 38 120 38 C109 38 101 29 101 18 C101 7 109 -1 120 -1 L120 -1 Z " />
<glyph glyph-name="uni01CD" unicode="&#x1cd;" horiz-adv-x="599" d="M304 691 L399 782 L393 782 C387 782 383 780 380 777 L301 702 L222 777 C220 780 216 782 209 782 L204 782 L298 691 L304 691 Z M550 0 L561 0 L304 640 L294 640 L38 0 L49 0 L143 236 L455 236 L550 0 Z M147 245 L299 626 L452 245 L147 245 Z " />
<glyph glyph-name="uni01CE" unicode="&#x1ce;" horiz-adv-x="532" d="M271 508 L366 599 L360 599 C354 599 350 597 347 594 L268 519 L189 594 C187 597 183 599 176 599 L171 599 L265 508 L271 508 Z M451 427 L450 285 L450 279 C426 371 351 438 254 438 C138 438 49 345 49 216 C49 87 138 -7 255 -7 C351 -7 426 60 450 153 L450 149 L451 0 L459 0 L459 427 L451 427 Z M256 2 C145 2 59 94 59 216 C59 337 145 429 255 429 C364 429 450 338 450 216 C450 94 364 2 256 2 L256 2 Z " />
<glyph glyph-name="uni01CF" unicode="&#x1cf;" horiz-adv-x="242" d="M120 691 L126 691 L221 782 L215 782 C209 782 205 780 202 777 L123 702 L44 777 C42 780 38 782 31 782 L26 782 L120 691 Z M126 640 L116 640 L116 0 L126 0 L126 640 Z " />
<glyph glyph-name="uni01D0" unicode="&#x1d0;" horiz-adv-x="182" d="M89 508 L95 508 L190 599 L184 599 C178 599 174 597 171 594 L92 519 L13 594 C11 597 7 599 0 599 L-5 599 L89 508 Z M85 0 L94 0 L94 427 L85 427 L85 0 Z " />
<glyph glyph-name="uni01D1" unicode="&#x1d1;" horiz-adv-x="791" d="M395 691 L401 691 L496 782 L490 782 C484 782 480 780 477 777 L398 702 L319 777 C317 780 313 782 306 782 L301 782 L395 691 Z M396 -6 C585 -6 725 140 725 321 C725 505 585 649 396 649 C207 649 66 505 66 321 C66 140 207 -6 396 -6 L396 -6 Z M396 3 C210 3 76 146 76 321 C76 498 210 640 396 640 C580 640 715 498 715 321 C715 146 580 3 396 3 L396 3 Z " />
<glyph glyph-name="uni01D2" unicode="&#x1d2;" horiz-adv-x="539" d="M268 508 L274 508 L369 599 L363 599 C357 599 353 597 350 594 L271 519 L192 594 C190 597 186 599 179 599 L174 599 L268 508 Z M269 -6 C394 -6 490 91 490 216 C490 341 394 438 269 438 C143 438 49 341 49 216 C49 91 143 -6 269 -6 L269 -6 Z M269 3 C148 3 59 98 59 216 C59 334 148 429 269 429 C389 429 480 334 480 216 C480 98 389 3 269 3 L269 3 Z " />
<glyph glyph-name="uni01D3" unicode="&#x1d3;" horiz-adv-x="598" d="M298 691 L304 691 L399 782 L393 782 C387 782 383 780 380 777 L301 702 L222 777 C220 780 216 782 209 782 L204 782 L298 691 Z M299 -6 C447 -6 508 92 508 231 L508 640 L498 640 L498 233 C498 104 445 3 299 3 C153 3 100 104 100 233 L100 640 L90 640 L90 231 C90 92 151 -6 299 -6 L299 -6 Z " />
<glyph glyph-name="uni01D4" unicode="&#x1d4;" horiz-adv-x="466" d="M233 508 L239 508 L334 599 L328 599 C322 599 318 597 315 594 L236 519 L157 594 C155 597 151 599 144 599 L139 599 L233 508 Z M234 -12 C306 -12 398 27 398 169 L398 427 L388 427 L388 169 C388 63 333 -3 234 -3 C133 -3 79 63 79 169 L79 427 L69 427 L69 169 C69 27 161 -12 234 -12 L234 -12 Z " />
<glyph glyph-name="uni01D5" unicode="&#x1d5;" horiz-adv-x="598" d="M212 823 L385 823 L385 832 L212 832 L212 823 Z M221 749 C211 749 204 741 204 732 C204 722 211 714 221 714 C231 714 238 722 238 732 C238 741 231 749 221 749 L221 749 Z M375 749 C365 749 357 741 357 732 C357 722 365 714 375 714 C385 714 392 722 392 732 C392 741 385 749 375 749 L375 749 Z M299 -6 C447 -6 508 92 508 231 L508 640 L498 640 L498 233 C498 104 445 3 299 3 C153 3 100 104 100 233 L100 640 L90 640 L90 231 C90 92 151 -6 299 -6 L299 -6 Z " />
<glyph glyph-name="uni01D6" unicode="&#x1d6;" horiz-adv-x="466" d="M147 635 L320 635 L320 644 L147 644 L147 635 Z M158 564 C148 564 140 556 140 547 C140 537 148 529 158 529 C168 529 175 537 175 547 C175 556 168 564 158 564 L158 564 Z M311 564 C301 564 294 556 294 547 C294 537 301 529 311 529 C321 529 328 537 328 547 C328 556 321 564 311 564 L311 564 Z M234 -12 C306 -12 398 27 398 169 L398 427 L388 427 L388 169 C388 63 333 -3 234 -3 C133 -3 79 63 79 169 L79 427 L69 427 L69 169 C69 27 161 -12 234 -12 L234 -12 Z " />
<glyph glyph-name="uni01D7" unicode="&#x1d7;" horiz-adv-x="598" d="M280 779 L285 779 C289 779 296 783 300 788 L386 880 L373 882 L280 779 Z M221 749 C211 749 204 741 204 732 C204 722 211 714 221 714 C231 714 238 722 238 732 C238 741 231 749 221 749 L221 749 Z M375 749 C365 749 357 741 357 732 C357 722 365 714 375 714 C385 714 392 722 392 732 C392 741 385 749 375 749 L375 749 Z M299 -6 C447 -6 508 92 508 231 L508 640 L498 640 L498 233 C498 104 445 3 299 3 C153 3 100 104 100 233 L100 640 L90 640 L90 231 C90 92 151 -6 299 -6 L299 -6 Z " />
<glyph glyph-name="uni01D8" unicode="&#x1d8;" horiz-adv-x="466" d="M215 591 L220 591 C224 591 231 595 235 600 L321 692 L308 694 L215 591 Z M158 564 C148 564 140 556 140 547 C140 537 148 529 158 529 C168 529 175 537 175 547 C175 556 168 564 158 564 L158 564 Z M311 564 C301 564 294 556 294 547 C294 537 301 529 311 529 C321 529 328 537 328 547 C328 556 321 564 311 564 L311 564 Z M234 -12 C306 -12 398 27 398 169 L398 427 L388 427 L388 169 C388 63 333 -3 234 -3 C133 -3 79 63 79 169 L79 427 L69 427 L69 169 C69 27 161 -12 234 -12 L234 -12 Z " />
<glyph glyph-name="uni01D9" unicode="&#x1d9;" horiz-adv-x="598" d="M298 779 L304 779 L399 870 L393 870 C387 870 383 868 380 865 L301 790 L222 865 C220 868 216 870 209 870 L204 870 L298 779 Z M221 749 C211 749 204 741 204 732 C204 722 211 714 221 714 C231 714 238 722 238 732 C238 741 231 749 221 749 L221 749 Z M375 749 C365 749 357 741 357 732 C357 722 365 714 375 714 C385 714 392 722 392 732 C392 741 385 749 375 749 L375 749 Z M299 -6 C447 -6 508 92 508 231 L508 640 L498 640 L498 233 C498 104 445 3 299 3 C153 3 100 104 100 233 L100 640 L90 640 L90 231 C90 92 151 -6 299 -6 L299 -6 Z " />
<glyph glyph-name="uni01DA" unicode="&#x1da;" horiz-adv-x="466" d="M233 592 L239 592 L334 683 L328 683 C322 683 318 681 315 678 L236 603 L157 678 C155 681 151 683 144 683 L139 683 L233 592 Z M158 564 C148 564 140 556 140 547 C140 537 148 529 158 529 C168 529 175 537 175 547 C175 556 168 564 158 564 L158 564 Z M311 564 C301 564 294 556 294 547 C294 537 301 529 311 529 C321 529 328 537 328 547 C328 556 321 564 311 564 L311 564 Z M234 -12 C306 -12 398 27 398 169 L398 427 L388 427 L388 169 C388 63 333 -3 234 -3 C133 -3 79 63 79 169 L79 427 L69 427 L69 169 C69 27 161 -12 234 -12 L234 -12 Z " />
<glyph glyph-name="uni01DB" unicode="&#x1db;" horiz-adv-x="598" d="M310 779 L217 882 L204 880 L290 788 C294 783 301 779 305 779 L310 779 Z M221 749 C211 749 204 741 204 732 C204 722 211 714 221 714 C231 714 238 722 238 732 C238 741 231 749 221 749 L221 749 Z M375 749 C365 749 357 741 357 732 C357 722 365 714 375 714 C385 714 392 722 392 732 C392 741 385 749 375 749 L375 749 Z M299 -6 C447 -6 508 92 508 231 L508 640 L498 640 L498 233 C498 104 445 3 299 3 C153 3 100 104 100 233 L100 640 L90 640 L90 231 C90 92 151 -6 299 -6 L299 -6 Z " />
<glyph glyph-name="uni01DC" unicode="&#x1dc;" horiz-adv-x="466" d="M245 591 L152 694 L139 692 L225 600 C229 595 236 591 240 591 L245 591 Z M158 564 C148 564 140 556 140 547 C140 537 148 529 158 529 C168 529 175 537 175 547 C175 556 168 564 158 564 L158 564 Z M311 564 C301 564 294 556 294 547 C294 537 301 529 311 529 C321 529 328 537 328 547 C328 556 321 564 311 564 L311 564 Z M234 -12 C306 -12 398 27 398 169 L398 427 L388 427 L388 169 C388 63 333 -3 234 -3 C133 -3 79 63 79 169 L79 427 L69 427 L69 169 C69 27 161 -12 234 -12 L234 -12 Z " />
<glyph glyph-name="uni01DD" unicode="&#x1dd;" horiz-adv-x="492" d="M231 433 C161 433 102 403 67 365 L76 358 C106 394 161 424 231 424 C358 424 433 327 433 202 L433 191 L49 191 L49 179 C49 82 124 -11 240 -11 C361 -11 443 85 443 202 C443 332 364 433 231 433 L231 433 Z M240 -1 C132 -1 58 84 59 181 L432 181 C423 79 349 -1 240 -1 L240 -1 Z " />
<glyph glyph-name="uni01DE" unicode="&#x1de;" horiz-adv-x="599" d="M386 832 L213 832 L213 823 L386 823 L386 832 Z M222 714 C232 714 239 722 239 732 C239 741 232 749 222 749 C212 749 205 741 205 732 C205 722 212 714 222 714 L222 714 Z M358 732 C358 722 366 714 376 714 C386 714 393 722 393 732 C393 741 386 749 376 749 C366 749 358 741 358 732 L358 732 Z M550 0 L561 0 L304 640 L294 640 L38 0 L49 0 L143 236 L455 236 L550 0 Z M147 245 L299 626 L452 245 L147 245 Z " />
<glyph glyph-name="uni01DF" unicode="&#x1df;" horiz-adv-x="532" d="M353 644 L180 644 L180 635 L353 635 L353 644 Z M190 529 C200 529 207 537 207 547 C207 556 200 564 190 564 C180 564 172 556 172 547 C172 537 180 529 190 529 L190 529 Z M326 547 C326 537 333 529 343 529 C353 529 360 537 360 547 C360 556 353 564 343 564 C333 564 326 556 326 547 L326 547 Z M451 427 L450 285 L450 279 C426 371 351 438 254 438 C138 438 49 345 49 216 C49 87 138 -7 255 -7 C351 -7 426 60 450 153 L450 149 L451 0 L459 0 L459 427 L451 427 Z M256 2 C145 2 59 94 59 216 C59 337 145 429 255 429 C364 429 450 338 450 216 C450 94 364 2 256 2 L256 2 Z " />
<glyph glyph-name="Gcaron" unicode="&#x1e6;" horiz-adv-x="734" d="M383 691 L478 782 L472 782 C466 782 462 780 459 777 L380 702 L301 777 C299 780 295 782 288 782 L283 782 L377 691 L383 691 Z M439 321 L439 310 L662 310 C664 131 563 3 386 3 C196 3 76 147 76 323 C76 499 198 640 391 640 C490 640 556 603 576 586 L584 596 C553 619 479 649 391 649 C195 649 66 505 66 323 C66 140 192 -6 386 -6 C585 -6 674 146 674 305 L674 321 L439 321 Z " />
<glyph glyph-name="gcaron" unicode="&#x1e7;" horiz-adv-x="532" d="M286 508 L381 599 L375 599 C369 599 365 597 362 594 L283 519 L204 594 C202 597 198 599 191 599 L186 599 L280 508 L286 508 Z M451 427 L450 279 C426 371 351 438 254 438 C138 438 49 345 49 216 C49 87 138 -7 255 -7 C351 -7 426 60 450 152 L450 11 C450 -124 399 -201 264 -201 C239 -201 222 -199 202 -194 L201 -203 C221 -207 241 -210 263 -210 C401 -210 459 -139 459 20 L459 427 L451 427 Z M256 2 C145 2 59 94 59 216 C59 337 145 429 255 429 C364 429 450 338 450 216 C450 94 364 2 256 2 L256 2 Z " />
<glyph glyph-name="uni01EA" unicode="&#x1ea;" horiz-adv-x="791" d="M444 -11 L458 -1 C615 28 725 161 725 321 C725 505 585 649 396 649 C207 649 66 505 66 321 C66 140 207 -6 396 -6 C413 -6 430 -5 446 -3 C378 -43 369 -90 382 -114 C395 -141 431 -147 462 -130 L460 -122 C387 -158 347 -75 444 -11 L444 -11 Z M76 321 C76 498 210 640 396 640 C580 640 715 498 715 321 C715 146 580 3 396 3 C210 3 76 146 76 321 L76 321 Z " />
<glyph glyph-name="uni01EB" unicode="&#x1eb;" horiz-adv-x="539" d="M490 216 C490 341 394 438 269 438 C143 438 49 341 49 216 C49 91 143 -6 269 -6 C283 -6 296 -5 309 -3 C240 -43 232 -90 245 -114 C258 -141 294 -147 325 -130 L323 -122 C250 -158 210 -75 307 -11 L322 0 C420 23 490 109 490 216 L490 216 Z M269 3 C148 3 59 98 59 216 C59 334 148 429 269 429 C389 429 480 334 480 216 C480 98 389 3 269 3 L269 3 Z " />
<glyph glyph-name="Aringacute" unicode="&#x1fa;" horiz-adv-x="599" d="M300 774 L386 866 L373 868 L280 765 L285 765 C289 765 296 769 300 774 L300 774 Z M299 587 C343 587 379 621 379 665 C379 708 343 743 299 743 C255 743 219 708 219 665 C219 621 255 587 299 587 L299 587 Z M299 731 C337 731 368 702 368 665 C368 627 337 597 299 597 C261 597 229 627 229 665 C229 702 261 731 299 731 L299 731 Z M550 0 L561 0 L304 544 L294 544 L38 0 L49 0 L143 200 L456 200 L550 0 Z M147 208 L299 533 L452 208 L147 208 Z " />
<glyph glyph-name="aringacute" unicode="&#x1fb;" horiz-adv-x="532" d="M267 695 L353 787 L340 789 L247 686 L252 686 C256 686 263 690 267 695 L267 695 Z M266 508 C310 508 346 542 346 586 C346 629 310 664 266 664 C222 664 186 629 186 586 C186 542 222 508 266 508 L266 508 Z M266 652 C304 652 335 623 335 586 C335 548 304 518 266 518 C228 518 196 548 196 586 C196 623 228 652 266 652 L266 652 Z M451 427 L450 285 L450 279 C426 371 351 438 254 438 C138 438 49 345 49 216 C49 87 138 -7 255 -7 C351 -7 426 60 450 153 L450 149 L451 0 L459 0 L459 427 L451 427 Z M256 2 C145 2 59 94 59 216 C59 337 145 429 255 429 C364 429 450 338 450 216 C450 94 364 2 256 2 L256 2 Z " />
<glyph glyph-name="AEacute" unicode="&#x1fc;" horiz-adv-x="796" d="M419 698 L532 816 L522 820 L391 680 L394 680 C400 680 405 684 419 698 L419 698 Z M717 633 L717 643 L294 643 L136 245 L132 245 L127 236 L132 236 L38 0 L49 0 L143 236 L417 236 L489 0 L717 0 L717 10 L498 10 L406 307 L658 307 L658 316 L404 316 L306 633 L717 633 Z M147 245 L299 626 L415 245 L147 245 Z " />
<glyph glyph-name="aeacute" unicode="&#x1fd;" horiz-adv-x="895" d="M438 527 L551 645 L541 649 L410 509 L414 509 C420 509 425 513 438 527 L438 527 Z M846 236 L846 248 C846 345 770 438 654 438 C555 438 481 372 459 283 L459 427 L451 427 L450 285 L450 279 C426 371 351 438 254 438 C138 438 49 345 49 216 C49 87 138 -7 255 -7 C351 -7 426 60 450 153 L450 149 L451 0 L459 0 L459 160 C481 63 554 -6 664 -6 C734 -6 792 24 828 62 L819 69 C789 33 734 3 664 3 C536 3 462 100 462 225 L462 236 L846 236 Z M256 2 C145 2 59 94 59 216 C59 337 145 429 255 429 C364 429 450 338 450 216 C450 94 364 2 256 2 L256 2 Z M654 428 C762 428 836 343 836 246 L463 246 C472 348 546 428 654 428 L654 428 Z " />
<glyph glyph-name="Oslashacute" unicode="&#x1fe;" horiz-adv-x="791" d="M366 708 L479 826 L469 830 L338 690 L342 690 C348 690 353 694 366 708 L366 708 Z M621 564 L692 643 L685 650 L613 571 C556 620 481 649 396 649 C207 649 66 505 66 321 C66 225 105 140 170 80 L99 1 L106 -6 L178 73 C235 24 311 -6 396 -6 C585 -6 725 140 725 321 C725 418 686 505 621 564 L621 564 Z M76 321 C76 498 210 640 396 640 C479 640 552 611 607 563 L176 87 C113 145 76 228 76 321 L76 321 Z M396 3 C312 3 239 32 184 80 L614 557 C677 499 715 415 715 321 C715 146 580 3 396 3 L396 3 Z " />
<glyph glyph-name="oslashacute" unicode="&#x1ff;" horiz-adv-x="539" d="M244 525 L357 643 L347 647 L216 507 L220 507 C226 507 231 511 244 525 L244 525 Z M423 378 L480 441 L473 447 L416 384 C377 418 326 438 269 438 C144 438 49 341 49 216 C49 151 75 93 117 53 L60 -10 L67 -16 L124 47 C162 14 213 -6 269 -6 C394 -6 490 91 490 216 C490 280 464 337 423 378 L423 378 Z M60 216 C60 335 149 428 269 428 C324 428 372 409 409 376 L124 61 C84 99 60 154 60 216 L60 216 Z M269 4 C215 4 167 23 131 55 L416 370 C455 332 479 277 479 216 C479 97 389 4 269 4 L269 4 Z " />
<glyph glyph-name="uni0218" unicode="&#x218;" horiz-adv-x="490" d="M238 -6 C343 -6 414 52 414 141 C414 236 346 282 259 328 C185 368 93 407 93 501 C93 587 154 640 233 640 C305 640 354 609 382 579 L390 586 C366 616 308 649 234 649 C158 649 83 603 83 502 C83 405 172 362 250 321 C343 272 404 229 404 141 C404 62 339 3 240 3 C151 3 95 36 65 80 L56 74 C78 39 136 -6 238 -6 L238 -6 Z M217 -171 C242 -159 254 -134 257 -113 C261 -93 254 -76 239 -76 C229 -76 225 -82 225 -91 C225 -102 239 -108 250 -101 C252 -110 248 -147 214 -166 L217 -171 Z " />
<glyph glyph-name="uni0219" unicode="&#x219;" horiz-adv-x="359" d="M39 60 C57 30 105 -6 171 -6 C250 -6 310 36 310 112 C310 274 67 189 65 329 C63 392 110 429 176 428 C231 428 264 409 287 387 L295 396 C271 417 235 438 176 438 C104 438 53 396 54 329 C56 175 300 264 300 111 C300 44 248 3 172 3 C110 3 66 37 49 67 L39 60 Z M162 -171 C187 -159 199 -134 202 -113 C206 -93 199 -76 184 -76 C174 -76 170 -82 170 -91 C170 -102 184 -108 195 -101 C197 -110 193 -147 159 -166 L162 -171 Z " />
<glyph glyph-name="uni021A" unicode="&#x21a;" horiz-adv-x="476" d="M433 640 L44 640 L44 630 L233 630 L233 0 L243 0 L243 630 L433 630 L433 640 Z M233 -76 C223 -76 219 -82 219 -91 C219 -102 233 -108 244 -101 C246 -110 242 -147 208 -166 L211 -171 C236 -159 248 -134 251 -113 C255 -93 248 -76 233 -76 L233 -76 Z " />
<glyph glyph-name="uni021B" unicode="&#x21b;" horiz-adv-x="273" d="M117 427 L117 557 L108 557 L108 427 L49 427 L49 419 L108 419 L108 0 L117 0 L117 419 L232 419 L232 427 L117 427 Z M108 -76 C98 -76 94 -82 94 -91 C94 -102 108 -108 119 -101 C121 -110 117 -147 83 -166 L86 -171 C111 -159 123 -134 126 -113 C130 -93 123 -76 108 -76 L108 -76 Z " />
<glyph glyph-name="uni0228" unicode="&#x228;" horiz-adv-x="507" d="M431 630 L431 640 L106 640 L106 0 L262 0 L221 -78 L225 -83 C266 -64 334 -69 334 -112 C334 -138 310 -161 256 -158 C230 -156 205 -146 195 -139 L190 -147 C204 -156 234 -168 267 -168 C306 -167 346 -151 346 -112 C346 -82 318 -67 291 -64 C269 -63 246 -67 233 -70 L270 0 L431 0 L431 10 L116 10 L116 316 L381 316 L381 325 L116 325 L116 630 L431 630 Z " />
<glyph glyph-name="uni0229" unicode="&#x229;" horiz-adv-x="492" d="M443 236 L443 248 C443 345 368 438 252 438 C131 438 49 342 49 225 C49 100 122 2 246 -6 L208 -78 L212 -83 C253 -64 321 -69 321 -112 C321 -138 297 -161 243 -158 C217 -156 192 -146 182 -139 L177 -147 C191 -156 221 -168 254 -168 C293 -167 333 -151 333 -112 C333 -82 305 -67 278 -64 C256 -63 233 -67 220 -70 L254 -6 L261 -6 C331 -6 390 24 425 62 L416 69 C386 33 331 3 261 3 C134 3 59 100 59 225 L59 236 L443 236 Z M252 428 C360 428 434 343 433 246 L60 246 C69 348 143 428 252 428 L252 428 Z " />
<glyph glyph-name="uni022A" unicode="&#x22a;" horiz-adv-x="791" d="M309 823 L482 823 L482 832 L309 832 L309 823 Z M318 749 C308 749 301 741 301 732 C301 722 308 714 318 714 C328 714 335 722 335 732 C335 741 328 749 318 749 L318 749 Z M472 749 C462 749 454 741 454 732 C454 722 462 714 472 714 C482 714 489 722 489 732 C489 741 482 749 472 749 L472 749 Z M396 -6 C585 -6 725 140 725 321 C725 505 585 649 396 649 C207 649 66 505 66 321 C66 140 207 -6 396 -6 L396 -6 Z M396 3 C210 3 76 146 76 321 C76 498 210 640 396 640 C580 640 715 498 715 321 C715 146 580 3 396 3 L396 3 Z " />
<glyph glyph-name="uni022B" unicode="&#x22b;" horiz-adv-x="539" d="M183 635 L356 635 L356 644 L183 644 L183 635 Z M193 564 C183 564 175 556 175 547 C175 537 183 529 193 529 C203 529 210 537 210 547 C210 556 203 564 193 564 L193 564 Z M346 564 C336 564 329 556 329 547 C329 537 336 529 346 529 C356 529 363 537 363 547 C363 556 356 564 346 564 L346 564 Z M269 -6 C394 -6 490 91 490 216 C490 341 394 438 269 438 C143 438 49 341 49 216 C49 91 143 -6 269 -6 L269 -6 Z M269 3 C148 3 59 98 59 216 C59 334 148 429 269 429 C389 429 480 334 480 216 C480 98 389 3 269 3 L269 3 Z " />
<glyph glyph-name="uni0232" unicode="&#x232;" horiz-adv-x="517" d="M345 743 L172 743 L172 734 L345 734 L345 743 Z M479 640 L467 640 L259 325 L50 640 L38 640 L254 315 L254 0 L264 0 L264 315 L479 640 Z " />
<glyph glyph-name="uni0233" unicode="&#x233;" horiz-adv-x="423" d="M297 560 L124 560 L124 551 L297 551 L297 560 Z M391 427 L209 21 L32 427 L21 427 L204 9 L107 -210 L118 -210 L402 427 L391 427 Z " />
<glyph glyph-name="uni0237" unicode="&#x237;" horiz-adv-x="211" d="M123 -97 L123 427 L113 427 L113 -95 C113 -172 75 -207 -1 -199 L-1 -209 C71 -217 123 -188 123 -97 L123 -97 Z " />
<glyph glyph-name="uni0243" unicode="&#x243;" horiz-adv-x="527" d="M276 358 C344 364 394 428 394 494 C394 584 333 640 219 640 L106 640 L106 186 L57 186 L57 176 L106 176 L106 0 L212 0 C381 0 457 73 457 180 C457 273 381 352 276 358 L276 358 Z M222 630 C327 630 384 581 384 495 C384 415 319 362 249 362 L116 362 L116 630 L222 630 Z M217 10 L116 10 L116 176 L260 176 L260 186 L116 186 L116 352 L249 352 C359 352 446 282 446 180 C446 76 374 10 217 10 L217 10 Z " />
<glyph glyph-name="uni0244" unicode="&#x244;" horiz-adv-x="598" d="M498 640 L498 493 L100 493 L100 640 L90 640 L90 231 C90 92 151 -6 299 -6 C447 -6 508 92 508 231 L508 640 L498 640 Z M299 3 C153 3 100 104 100 233 L100 485 L498 485 L498 233 C498 104 445 3 299 3 L299 3 Z " />
<glyph glyph-name="uni0245" unicode="&#x245;" horiz-adv-x="579" d="M541 0 L293 640 L285 640 L38 0 L50 0 L289 623 L529 0 L541 0 Z " />
<glyph glyph-name="uni024C" unicode="&#x24c;" horiz-adv-x="498" d="M442 0 L456 0 L200 326 L241 326 C334 326 426 371 426 481 C426 590 334 640 242 640 L106 640 L106 335 L54 335 L54 325 L106 325 L106 0 L116 0 L116 325 L187 325 L442 0 Z M238 631 C335 631 415 582 415 481 C415 379 333 335 234 335 L116 335 L116 631 L238 631 Z " />
<glyph glyph-name="uni0250" unicode="&#x250;" horiz-adv-x="532" d="M278 438 C181 438 106 371 82 279 L82 285 L81 427 L73 427 L73 0 L81 0 L82 149 L82 153 C106 60 181 -7 277 -7 C394 -7 483 87 483 216 C483 345 394 438 278 438 L278 438 Z M276 2 C168 2 82 94 82 216 C82 338 168 429 277 429 C387 429 473 337 473 216 C473 94 387 2 276 2 L276 2 Z " />
<glyph glyph-name="uni0251" unicode="&#x251;" horiz-adv-x="492" d="M411 427 L410 285 L410 279 C389 371 321 438 234 438 C130 438 49 345 49 216 C49 87 130 -7 235 -7 C322 -7 389 60 410 154 L410 149 L411 0 L419 0 L419 427 L411 427 Z M235 2 C135 2 58 94 58 216 C58 337 135 429 234 429 C333 429 410 338 410 216 C410 94 333 2 235 2 L235 2 Z " />
<glyph glyph-name="uni0252" unicode="&#x252;" horiz-adv-x="492" d="M258 438 C171 438 103 371 82 279 L82 285 L81 427 L73 427 L73 0 L81 0 L82 149 L82 154 C103 60 170 -7 257 -7 C362 -7 443 87 443 216 C443 345 362 438 258 438 L258 438 Z M257 2 C159 2 82 94 82 216 C82 338 159 429 258 429 C357 429 434 337 434 216 C434 94 357 2 257 2 L257 2 Z " />
<glyph glyph-name="uni0258" unicode="&#x258;" horiz-adv-x="492" d="M240 438 C124 438 49 345 49 248 L49 236 L433 236 L433 225 C433 100 358 3 231 3 C161 3 106 33 76 69 L67 62 C102 24 161 -6 231 -6 C364 -6 443 95 443 225 C443 342 361 438 240 438 L240 438 Z M59 246 C58 343 132 428 240 428 C349 428 423 348 432 246 L59 246 Z " />
<glyph glyph-name="uni0259" unicode="&#x259;" horiz-adv-x="492" d="M231 433 C161 433 102 403 67 365 L76 358 C106 394 161 424 231 424 C358 424 433 327 433 202 L433 191 L49 191 L49 179 C49 82 124 -11 240 -11 C361 -11 443 85 443 202 C443 332 364 433 231 433 L231 433 Z M240 -1 C132 -1 58 84 59 181 L432 181 C423 79 349 -1 240 -1 L240 -1 Z " />
<glyph glyph-name="uni0265" unicode="&#x265;" horiz-adv-x="468" d="M389 427 L389 176 L388 183 C384 74 323 -3 229 -3 C148 -3 78 46 78 182 L78 427 L69 427 L69 180 C69 26 157 -12 230 -12 C313 -12 370 47 389 128 L389 -253 L399 -253 L399 427 L389 427 Z " />
<glyph glyph-name="uni0268" unicode="&#x268;" horiz-adv-x="182" d="M90 538 C100 538 109 546 109 557 C109 568 100 577 90 577 C79 577 70 568 70 557 C70 546 79 538 90 538 L90 538 Z M192 326 L94 326 L94 427 L85 427 L85 326 L-11 326 L-11 316 L85 316 L85 0 L94 0 L94 316 L192 316 L192 326 Z " />
<glyph glyph-name="uni026F" unicode="&#x26f;" horiz-adv-x="731" d="M648 427 L648 169 C640 65 583 -3 509 -3 C425 -3 369 65 369 160 L369 427 L359 427 L359 181 C351 63 299 -3 219 -3 C123 -3 78 64 78 170 L78 427 L68 427 L68 172 C68 26 147 -12 216 -12 C288 -12 342 34 361 129 C376 19 457 -12 507 -12 C569 -12 632 33 648 124 L648 0 L657 0 L657 427 L648 427 Z " />
<glyph glyph-name="uni0272" unicode="&#x272;" horiz-adv-x="469" d="M239 439 C157 439 101 382 82 304 L81 427 L73 427 L73 -67 C73 -113 50 -127 12 -119 L11 -128 C55 -139 83 -118 82 -67 L82 258 C91 360 150 430 240 430 C321 430 391 381 391 245 L391 0 L400 0 L400 247 C400 401 313 439 239 439 L239 439 Z " />
<glyph glyph-name="uni0275" unicode="&#x275;" horiz-adv-x="539" d="M269 438 C144 438 49 341 49 216 C49 91 144 -6 269 -6 C394 -6 490 91 490 216 C490 341 394 438 269 438 L269 438 Z M269 428 C388 428 477 337 479 220 L60 220 C62 337 150 428 269 428 L269 428 Z M269 4 C150 4 62 95 60 212 L479 212 C477 95 388 4 269 4 L269 4 Z " />
<glyph glyph-name="uni0279" unicode="&#x279;" horiz-adv-x="239" d="M157 427 L157 147 C155 59 109 -1 43 -1 C33 -1 29 0 19 2 L15 -9 C23 -11 29 -12 37 -12 C105 -12 142 40 157 94 L159 0 L166 0 L166 427 L157 427 Z " />
<glyph glyph-name="uni0289" unicode="&#x289;" horiz-adv-x="466" d="M388 427 L388 281 L79 281 L79 427 L69 427 L69 169 C69 27 161 -12 234 -12 C306 -12 398 27 398 169 L398 427 L388 427 Z M234 -3 C133 -3 79 63 79 169 L79 273 L388 273 L388 169 C388 63 333 -3 234 -3 L234 -3 Z " />
<glyph glyph-name="uni028C" unicode="&#x28c;" horiz-adv-x="434" d="M413 0 L222 427 L214 427 L21 0 L32 0 L217 414 L402 0 L413 0 Z " />
<glyph glyph-name="uni028D" unicode="&#x28d;" horiz-adv-x="655" d="M628 0 L465 427 L458 427 L328 13 L197 427 L190 427 L27 0 L37 0 L193 411 L324 0 L331 0 L462 411 L618 0 L628 0 Z " />
<glyph glyph-name="uni028E" unicode="&#x28e;" horiz-adv-x="456" d="M418 0 L235 418 L332 637 L322 637 L38 0 L49 0 L230 407 L407 0 L418 0 Z " />
<glyph glyph-name="uni02BC" unicode="&#x2bc;" horiz-adv-x="600" d="" />
<glyph glyph-name="circumflex" unicode="&#x2c6;" horiz-adv-x="275" d="M141 612 L135 612 L40 520 L46 520 C52 520 56 523 59 525 L138 601 L217 525 C219 523 223 520 230 520 L235 520 L141 612 Z " />
<glyph glyph-name="caron" unicode="&#x2c7;" horiz-adv-x="275" d="M135 542 L140 542 L235 633 L230 633 C223 633 219 631 217 628 L138 553 L59 628 C56 631 52 633 46 633 L40 633 L135 542 Z " />
<glyph glyph-name="uni02C9" unicode="&#x2c9;" horiz-adv-x="276" d="M0 606 L275 606 L275 615 L0 615 L0 606 Z " />
<glyph glyph-name="breve" unicode="&#x2d8;" horiz-adv-x="276" d="M137 531 C192 531 233 565 236 611 L228 611 C225 576 193 540 137 540 C82 540 52 575 50 611 L40 611 C43 565 84 531 137 531 L137 531 Z " />
<glyph glyph-name="dotaccent" unicode="&#x2d9;" horiz-adv-x="120" d="M60 536 C71 536 79 544 79 555 C79 566 71 575 60 575 C49 575 40 566 40 555 C40 544 49 536 60 536 L60 536 Z " />
<glyph glyph-name="ring" unicode="&#x2da;" horiz-adv-x="240" d="M120 670 C76 670 40 635 40 592 C40 548 76 514 120 514 C164 514 200 548 200 592 C200 635 164 670 120 670 L120 670 Z M120 524 C82 524 50 554 50 592 C50 629 82 658 120 658 C158 658 189 629 189 592 C189 554 158 524 120 524 L120 524 Z " />
<glyph glyph-name="ogonek" unicode="&#x2db;" horiz-adv-x="265" d="M175 -130 L172 -122 C100 -158 59 -75 157 -11 L172 0 L164 1 C91 -40 82 -89 94 -114 C107 -141 144 -147 175 -130 L175 -130 Z " />
<glyph glyph-name="tilde" unicode="&#x2dc;" horiz-adv-x="293" d="M194 554 C222 554 243 571 253 599 L245 603 C236 581 222 564 194 564 C159 564 128 603 94 603 C69 603 52 587 40 565 L49 559 C57 575 69 593 93 593 C126 593 154 554 194 554 L194 554 Z " />
<glyph glyph-name="hungarumlaut" unicode="&#x2dd;" horiz-adv-x="321" d="M68 528 L182 646 L172 650 L40 510 L44 510 C50 510 55 514 68 528 L68 528 Z M166 528 L280 646 L270 650 L138 510 L142 510 C148 510 153 514 166 528 L166 528 Z " />
<glyph glyph-name="gravecomb" unicode="&#x300;" d="M-127 528 C-113 514 -108 510 -102 510 L-99 510 L-230 650 L-240 646 L-127 528 Z " />
<glyph glyph-name="acutecomb" unicode="&#x301;" d="M-212 528 L-99 646 L-109 650 L-240 510 L-236 510 C-230 510 -225 514 -212 528 L-212 528 Z " />
<glyph glyph-name="uni0302" unicode="&#x302;" d="M-195 612 L-201 612 L-295 520 L-290 520 C-284 520 -279 523 -277 525 L-198 601 L-119 525 C-117 523 -112 520 -106 520 L-101 520 L-195 612 Z " />
<glyph glyph-name="tildecomb" unicode="&#x303;" d="M-165 547 C-138 547 -116 564 -106 591 L-114 596 C-123 574 -138 557 -165 557 C-200 557 -231 595 -265 595 C-290 595 -307 580 -319 557 L-310 552 C-303 568 -290 586 -266 586 C-233 586 -205 547 -165 547 L-165 547 Z " />
<glyph glyph-name="uni0304" unicode="&#x304;" d="M-283 540 L-110 540 L-110 549 L-283 549 L-283 540 Z " />
<glyph glyph-name="uni0306" unicode="&#x306;" d="M-205 531 C-150 531 -109 565 -106 611 L-115 611 C-117 576 -149 540 -205 540 C-260 540 -291 575 -292 611 L-302 611 C-299 565 -258 531 -205 531 L-205 531 Z " />
<glyph glyph-name="uni0307" unicode="&#x307;" d="M-126 536 C-116 536 -107 544 -107 555 C-107 566 -116 575 -126 575 C-137 575 -146 566 -146 555 C-146 544 -137 536 -126 536 L-126 536 Z " />
<glyph glyph-name="uni0308" unicode="&#x308;" d="M-253 556 C-263 556 -271 548 -271 539 C-271 529 -263 521 -253 521 C-243 521 -236 529 -236 539 C-236 548 -243 556 -253 556 L-253 556 Z M-100 556 C-110 556 -117 548 -117 539 C-117 529 -110 521 -100 521 C-90 521 -83 529 -83 539 C-83 548 -90 556 -100 556 L-100 556 Z " />
<glyph glyph-name="uni030A" unicode="&#x30a;" d="M-86 670 C-130 670 -166 635 -166 592 C-166 548 -130 514 -86 514 C-42 514 -6 548 -6 592 C-6 635 -42 670 -86 670 L-86 670 Z M-86 524 C-124 524 -156 554 -156 592 C-156 629 -124 658 -86 658 C-48 658 -17 629 -17 592 C-17 554 -48 524 -86 524 L-86 524 Z " />
<glyph glyph-name="uni030B" unicode="&#x30b;" d="M-296 528 L-182 646 L-192 650 L-324 510 L-320 510 C-314 510 -309 514 -296 528 L-296 528 Z M-198 528 L-84 646 L-94 650 L-226 510 L-222 510 C-216 510 -211 514 -198 528 L-198 528 Z " />
<glyph glyph-name="uni030C" unicode="&#x30c;" d="M-207 542 L-201 542 L-106 633 L-112 633 C-118 633 -122 631 -125 628 L-204 553 L-283 628 C-285 631 -289 633 -296 633 L-301 633 L-207 542 Z " />
<glyph glyph-name="uni0312" unicode="&#x312;" d="M-101 610 C-129 597 -142 569 -146 546 C-150 524 -142 504 -126 504 C-115 505 -110 511 -110 521 C-110 534 -125 540 -138 533 C-140 542 -136 584 -98 604 L-101 610 Z " />
<glyph glyph-name="dotbelowcomb" unicode="&#x323;" d="M-119 -108 C-109 -108 -100 -100 -100 -89 C-100 -78 -109 -69 -119 -69 C-130 -69 -139 -78 -139 -89 C-139 -100 -130 -108 -119 -108 L-119 -108 Z " />
<glyph glyph-name="uni0326" unicode="&#x326;" d="M-132 -171 C-107 -159 -95 -134 -92 -113 C-88 -93 -95 -76 -110 -76 C-120 -76 -124 -82 -124 -91 C-124 -102 -110 -108 -99 -101 C-97 -110 -101 -147 -135 -166 L-132 -171 Z " />
<glyph glyph-name="uni0327" unicode="&#x327;" d="M-161 -64 C-183 -63 -206 -67 -219 -70 L-181 2 L-181 3 L-188 3 L-231 -78 L-227 -83 C-186 -64 -118 -69 -118 -112 C-118 -138 -142 -161 -196 -158 C-222 -156 -247 -146 -257 -139 L-262 -147 C-248 -156 -218 -168 -185 -168 C-146 -167 -106 -151 -106 -112 C-106 -82 -134 -67 -161 -64 L-161 -64 Z " />
<glyph glyph-name="uni0328" unicode="&#x328;" d="M-106 -130 L-108 -122 C-181 -158 -221 -75 -124 -11 L-109 0 L-116 1 C-190 -40 -199 -89 -186 -114 C-173 -141 -137 -147 -106 -130 L-106 -130 Z " />
<glyph glyph-name="uni0331" unicode="&#x331;" d="M-283 -83 L-110 -83 L-110 -74 L-283 -74 L-283 -83 Z " />
<glyph glyph-name="uni0335" unicode="&#x335;" d="M-309 289 L-106 289 L-106 299 L-309 299 L-309 289 Z " />
<glyph glyph-name="uni0336" unicode="&#x336;" d="M-451 289 L-40 289 L-40 297 L-451 297 L-451 289 Z " />
<glyph glyph-name="uni0337" unicode="&#x337;" d="M-235 284 L-235 274 L-106 374 L-106 385 L-235 284 Z " />
<glyph glyph-name="uni0338" unicode="&#x338;" d="M15 647 L-571 -2 L-564 -9 L22 640 L15 647 Z " />
<glyph glyph-name="uni0394" unicode="&#x394;" horiz-adv-x="607" d="M309 640 L299 640 L38 9 L38 0 L570 0 L570 9 L309 640 Z M303 628 L556 10 L50 10 L303 628 Z " />
<glyph glyph-name="uni03A9" unicode="&#x3a9;" horiz-adv-x="801" d="M488 105 C607 123 695 233 695 370 C695 529 568 655 400 655 C233 655 106 529 106 370 C106 232 194 123 313 104 L313 10 L119 9 L119 0 L324 0 L324 112 C198 126 116 238 116 369 C116 515 235 646 400 646 C566 646 684 515 684 369 C684 238 601 126 476 112 L476 0 L682 0 L682 9 L488 10 L488 105 Z " />
<glyph glyph-name="uni03BC" unicode="&#x3bc;" horiz-adv-x="474" d="M392 427 L392 180 C388 72 327 -3 229 -3 C151 -3 91 44 83 155 L83 427 L73 427 L73 -190 L81 -190 L83 103 C107 18 170 -12 230 -12 C303 -12 372 29 392 127 L393 0 L401 0 L401 427 L392 427 Z " />
<glyph glyph-name="pi" unicode="&#x3c0;" horiz-adv-x="554" d="M482 16 C475 12 461 7 447 7 C430 7 404 12 404 60 L403 419 L482 419 L482 427 L73 427 L73 419 L146 419 L146 0 L157 0 L156 419 L393 419 L393 61 C393 7 424 -2 449 -2 C464 -2 478 2 485 6 L482 16 Z " />
<glyph glyph-name="uni0400" unicode="&#x400;" horiz-adv-x="507" d="M330 690 L333 690 L202 830 L192 826 L305 708 C319 694 324 690 330 690 L330 690 Z M431 630 L431 640 L106 640 L106 0 L431 0 L431 10 L116 10 L116 316 L381 316 L381 325 L116 325 L116 630 L431 630 Z " />
<glyph glyph-name="uni0401" unicode="&#x401;" horiz-adv-x="507" d="M189 711 C199 711 206 719 206 729 C206 738 199 746 189 746 C179 746 171 738 171 729 C171 719 179 711 189 711 L189 711 Z M342 711 C352 711 359 719 359 729 C359 738 352 746 342 746 C332 746 325 738 325 729 C325 719 332 711 342 711 L342 711 Z M431 630 L431 640 L106 640 L106 0 L431 0 L431 10 L116 10 L116 316 L381 316 L381 325 L116 325 L116 630 L431 630 Z " />
<glyph glyph-name="uni0402" unicode="&#x402;" horiz-adv-x="620" d="M365 362 C288 362 229 319 200 297 L200 631 L346 631 L346 640 L44 640 L44 631 L190 631 L190 0 L200 0 L200 286 C236 314 290 353 364 353 C467 353 543 285 543 166 C543 20 436 -42 314 -24 L314 -34 C451 -50 554 20 554 167 C554 290 475 362 365 362 L365 362 Z " />
<glyph glyph-name="uni0403" unicode="&#x403;" horiz-adv-x="464" d="M238 708 L351 826 L341 830 L210 690 L214 690 C220 690 225 694 238 708 L238 708 Z M420 640 L106 640 L106 0 L116 0 L116 630 L420 630 L420 640 Z " />
<glyph glyph-name="uni0404" unicode="&#x404;" horiz-adv-x="619" d="M386 0 C206 0 78 144 76 316 L412 316 L412 325 L76 325 C78 496 207 640 386 640 C455 640 513 622 557 595 L564 603 C514 633 454 649 386 649 C204 649 66 504 66 320 C66 136 204 -10 386 -10 C454 -10 514 7 564 37 L557 45 C513 17 455 0 386 0 L386 0 Z " />
<glyph glyph-name="uni0405" unicode="&#x405;" horiz-adv-x="490" d="M238 -6 C343 -6 414 52 414 141 C414 236 346 282 259 328 C185 368 93 407 93 501 C93 587 154 640 233 640 C305 640 354 609 382 579 L390 586 C366 616 308 649 234 649 C158 649 83 603 83 502 C83 405 172 362 250 321 C343 272 404 229 404 141 C404 62 339 3 240 3 C151 3 95 36 65 80 L56 74 C78 39 136 -6 238 -6 L238 -6 Z " />
<glyph glyph-name="uni0406" unicode="&#x406;" horiz-adv-x="201" d="M126 640 L116 640 L116 0 L126 0 L126 640 Z " />
<glyph glyph-name="uni0407" unicode="&#x407;" horiz-adv-x="242" d="M45 746 C35 746 27 738 27 729 C27 719 35 711 45 711 C55 711 62 719 62 729 C62 738 55 746 45 746 L45 746 Z M198 746 C188 746 181 738 181 729 C181 719 188 711 198 711 C208 711 215 719 215 729 C215 738 208 746 198 746 L198 746 Z M126 640 L116 640 L116 0 L126 0 L126 640 Z " />
<glyph glyph-name="uni0408" unicode="&#x408;" horiz-adv-x="357" d="M148 -6 C225 -6 267 46 267 136 L267 640 L257 640 L257 130 C257 52 218 3 149 3 C100 3 76 20 54 51 L46 45 C67 15 97 -6 148 -6 L148 -6 Z " />
<glyph glyph-name="uni0409" unicode="&#x409;" horiz-adv-x="935" d="M687 336 L546 336 L546 640 L226 640 L226 327 C226 203 225 6 103 6 C86 6 78 8 68 10 L68 1 C76 -1 82 -3 103 -3 C226 -3 236 169 236 343 L236 630 L536 630 L536 0 L687 0 C780 0 865 50 865 167 C865 286 780 336 687 336 L687 336 Z M685 9 L546 9 L546 326 L685 326 C786 326 854 271 854 167 C854 65 786 10 685 9 L685 9 Z " />
<glyph glyph-name="uni040A" unicode="&#x40a;" horiz-adv-x="925" d="M677 336 L536 336 L536 640 L526 640 L526 336 L116 336 L116 640 L106 640 L106 0 L116 0 L116 327 L526 327 L526 0 L677 0 C770 0 855 50 855 168 C855 286 770 336 677 336 L677 336 Z M675 9 L536 9 L536 327 L675 327 C776 327 845 271 845 168 C845 65 776 10 675 9 L675 9 Z " />
<glyph glyph-name="uni040B" unicode="&#x40b;" horiz-adv-x="609" d="M361 362 C288 362 223 326 189 298 L189 631 L346 631 L346 640 L44 640 L44 631 L179 631 L179 0 L189 0 L189 287 C228 320 284 353 362 353 C461 353 534 316 534 169 L534 0 L544 0 L544 173 C544 336 450 362 361 362 L361 362 Z " />
<glyph glyph-name="uni040C" unicode="&#x40c;" horiz-adv-x="557" d="M250 708 L363 826 L353 830 L222 690 L226 690 C232 690 237 694 250 708 L250 708 Z M116 640 L106 640 L106 0 L116 0 L116 640 Z M127 340 L484 0 L501 0 L142 340 L494 640 L478 640 L127 340 Z " />
<glyph glyph-name="uni040D" unicode="&#x40d;" horiz-adv-x="716" d="M423 690 L426 690 L295 830 L285 826 L398 708 C412 694 417 690 423 690 L423 690 Z M600 640 L117 18 L117 640 L106 640 L106 0 L117 0 L600 621 L600 0 L610 0 L610 640 L600 640 Z " />
<glyph glyph-name="uni040E" unicode="&#x40e;" horiz-adv-x="517" d="M239 690 C294 690 335 724 338 770 L330 770 C327 735 295 699 239 699 C184 699 154 734 152 770 L142 770 C145 724 186 690 239 690 L239 690 Z M469 640 L258 230 L48 640 L38 640 L253 221 L139 0 L149 0 L480 640 L469 640 Z " />
<glyph glyph-name="uni040F" unicode="&#x40f;" horiz-adv-x="642" d="M526 640 L526 10 L116 10 L116 640 L106 640 L106 0 L318 0 L318 -120 L326 -120 L326 0 L536 0 L536 640 L526 640 Z " />
<glyph glyph-name="uni0410" unicode="&#x410;" horiz-adv-x="599" d="M550 0 L561 0 L304 640 L294 640 L38 0 L49 0 L143 236 L455 236 L550 0 Z M147 245 L299 626 L452 245 L147 245 Z " />
<glyph glyph-name="uni0411" unicode="&#x411;" horiz-adv-x="508" d="M220 369 L116 369 L116 630 L385 630 L385 640 L106 640 L106 0 L220 0 C334 0 438 67 438 184 C438 302 334 369 220 369 L220 369 Z M218 10 L116 10 L116 359 L218 359 C344 359 428 287 428 184 C428 82 344 10 218 10 L218 10 Z " />
<glyph glyph-name="uni0412" unicode="&#x412;" horiz-adv-x="527" d="M276 358 C344 364 394 428 394 494 C394 584 333 640 219 640 L106 640 L106 0 L212 0 C381 0 457 73 457 180 C457 273 381 352 276 358 L276 358 Z M222 630 C327 630 384 581 384 495 C384 415 319 362 249 362 L116 362 L116 630 L222 630 Z M217 10 L116 10 L116 352 L249 352 C359 352 446 282 446 180 C446 76 374 10 217 10 L217 10 Z " />
<glyph glyph-name="uni0413" unicode="&#x413;" horiz-adv-x="464" d="M420 640 L106 640 L106 0 L116 0 L116 630 L420 630 L420 640 Z " />
<glyph glyph-name="uni0414" unicode="&#x414;" horiz-adv-x="666" d="M600 10 L535 10 L535 640 L233 640 L233 439 C233 333 245 99 106 10 L68 10 L68 -120 L74 -120 L74 0 L593 0 L593 -120 L600 -120 L600 10 Z M117 10 C260 99 243 353 243 504 L243 630 L525 630 L525 10 L117 10 Z " />
<glyph glyph-name="uni0415" unicode="&#x415;" horiz-adv-x="507" d="M431 630 L431 640 L106 640 L106 0 L431 0 L431 10 L116 10 L116 316 L381 316 L381 325 L116 325 L116 630 L431 630 Z " />
<glyph glyph-name="uni0416" unicode="&#x416;" horiz-adv-x="892" d="M430 340 L80 640 L63 640 L415 340 L56 0 L73 0 L430 340 Z M441 640 L441 0 L451 0 L451 640 L441 640 Z M462 340 L819 0 L837 0 L477 340 L829 640 L813 640 L462 340 Z " />
<glyph glyph-name="uni0417" unicode="&#x417;" horiz-adv-x="503" d="M293 341 C365 357 413 411 411 496 C409 566 349 649 236 649 C166 649 130 633 95 606 L102 598 C130 623 177 639 236 639 C338 639 401 564 402 496 C403 423 369 379 317 360 C297 353 280 348 249 346 L229 346 L185 345 L185 335 C260 334 284 334 324 319 C392 295 423 236 422 171 C421 76 347 3 229 3 C147 3 96 41 55 78 L46 69 C101 23 146 -6 229 -6 C355 -7 431 67 433 171 C435 271 368 325 293 341 L293 341 Z " />
<glyph glyph-name="uni0418" unicode="&#x418;" horiz-adv-x="716" d="M600 640 L117 18 L117 640 L106 640 L106 0 L117 0 L600 621 L600 0 L610 0 L610 640 L600 640 Z " />
<glyph glyph-name="uni0419" unicode="&#x419;" horiz-adv-x="716" d="M359 690 C414 690 455 724 458 770 L449 770 C447 735 415 699 359 699 C304 699 273 734 272 770 L262 770 C265 724 306 690 359 690 L359 690 Z M600 640 L117 18 L117 640 L106 640 L106 0 L117 0 L600 621 L600 0 L610 0 L610 640 L600 640 Z " />
<glyph glyph-name="uni041A" unicode="&#x41a;" horiz-adv-x="557" d="M116 640 L106 640 L106 0 L116 0 L116 640 Z M127 340 L484 0 L501 0 L142 340 L494 640 L478 640 L127 340 Z " />
<glyph glyph-name="uni041B" unicode="&#x41b;" horiz-adv-x="652" d="M546 640 L226 640 L226 311 C226 209 225 6 103 6 C86 6 78 8 68 10 L68 1 C76 -1 82 -3 103 -3 C226 -3 236 158 236 328 L236 630 L536 630 L536 0 L546 0 L546 640 Z " />
<glyph glyph-name="uni041C" unicode="&#x41c;" horiz-adv-x="817" d="M703 640 L409 257 L114 640 L106 640 L106 0 L116 0 L116 622 L408 239 L700 621 L700 0 L711 0 L711 640 L703 640 Z " />
<glyph glyph-name="uni041D" unicode="&#x41d;" horiz-adv-x="686" d="M570 640 L570 341 L116 341 L116 640 L106 640 L106 0 L116 0 L116 332 L570 332 L570 0 L580 0 L580 640 L570 640 Z " />
<glyph glyph-name="uni041E" unicode="&#x41e;" horiz-adv-x="791" d="M396 -6 C585 -6 725 140 725 321 C725 505 585 649 396 649 C207 649 66 505 66 321 C66 140 207 -6 396 -6 L396 -6 Z M396 3 C210 3 76 146 76 321 C76 498 210 640 396 640 C580 640 715 498 715 321 C715 146 580 3 396 3 L396 3 Z " />
<glyph glyph-name="uni041F" unicode="&#x41f;" horiz-adv-x="642" d="M536 640 L106 640 L106 0 L116 0 L116 630 L526 630 L526 0 L536 0 L536 640 Z " />
<glyph glyph-name="uni0420" unicode="&#x420;" horiz-adv-x="478" d="M236 640 L106 640 L106 0 L116 0 L116 304 L236 304 C328 304 424 354 424 472 C424 590 328 640 236 640 L236 640 Z M233 314 L116 314 L116 631 L233 631 C334 631 414 575 414 472 C414 370 334 314 233 314 L233 314 Z " />
<glyph glyph-name="uni0421" unicode="&#x421;" horiz-adv-x="619" d="M386 -10 C454 -10 514 7 564 37 L557 45 C514 17 455 -1 386 -1 C205 -1 76 146 76 320 C76 493 205 640 386 640 C455 640 514 622 557 595 L564 603 C514 633 454 649 386 649 C204 649 66 504 66 320 C66 136 204 -10 386 -10 L386 -10 Z " />
<glyph glyph-name="uni0422" unicode="&#x422;" horiz-adv-x="476" d="M433 640 L44 640 L44 630 L233 630 L233 0 L243 0 L243 630 L433 630 L433 640 Z " />
<glyph glyph-name="uni0423" unicode="&#x423;" horiz-adv-x="517" d="M469 640 L258 230 L48 640 L38 640 L253 221 L139 0 L149 0 L480 640 L469 640 Z " />
<glyph glyph-name="uni0424" unicode="&#x424;" horiz-adv-x="790" d="M734 322 C734 493 591 588 400 590 L400 680 L390 680 L390 590 C199 588 56 493 56 322 C56 151 199 55 390 53 L390 -40 L400 -40 L400 53 C591 55 734 151 734 322 L734 322 Z M67 322 C67 486 202 578 390 580 L390 63 C202 65 67 158 67 322 L67 322 Z M400 63 L400 580 C587 578 723 486 723 322 C723 158 587 65 400 63 L400 63 Z " />
<glyph glyph-name="uni0425" unicode="&#x425;" horiz-adv-x="586" d="M530 0 L299 326 L518 640 L505 640 L292 334 L81 640 L68 640 L287 325 L56 0 L70 0 L293 317 L516 0 L530 0 Z " />
<glyph glyph-name="uni0426" unicode="&#x426;" horiz-adv-x="667" d="M601 10 L536 10 L536 640 L526 640 L526 10 L116 10 L116 640 L106 640 L106 0 L595 0 L595 -120 L601 -120 L601 10 Z " />
<glyph glyph-name="uni0427" unicode="&#x427;" horiz-adv-x="536" d="M420 640 L420 353 C382 320 324 287 248 287 C148 287 76 324 76 471 L76 640 L66 640 L66 467 C66 304 159 278 248 278 C320 278 385 313 420 341 L420 0 L430 0 L430 640 L420 640 Z " />
<glyph glyph-name="uni0428" unicode="&#x428;" horiz-adv-x="885" d="M768 640 L768 10 L447 10 L447 640 L437 640 L437 10 L116 10 L116 640 L106 640 L106 0 L778 0 L778 640 L768 640 Z " />
<glyph glyph-name="uni0429" unicode="&#x429;" horiz-adv-x="909" d="M843 10 L778 10 L778 640 L768 640 L768 10 L447 10 L447 640 L437 640 L437 10 L116 10 L116 640 L106 640 L106 0 L837 0 L837 -120 L843 -120 L843 10 Z " />
<glyph glyph-name="uni042A" unicode="&#x42a;" horiz-adv-x="577" d="M329 336 L188 336 L188 640 L36 640 L36 630 L178 630 L178 0 L329 0 C422 0 507 50 507 168 C507 286 422 336 329 336 L329 336 Z M327 9 L188 9 L188 327 L327 327 C428 327 497 271 497 168 C497 65 428 10 327 9 L327 9 Z " />
<glyph glyph-name="uni042B" unicode="&#x42b;" horiz-adv-x="654" d="M257 336 L116 336 L116 640 L106 640 L106 0 L257 0 C350 0 435 50 435 168 C435 286 350 336 257 336 L257 336 Z M538 640 L538 0 L548 0 L548 640 L538 640 Z M255 9 L116 9 L116 327 L255 327 C356 327 424 271 424 168 C424 65 356 10 255 9 L255 9 Z " />
<glyph glyph-name="uni042C" unicode="&#x42c;" horiz-adv-x="505" d="M257 336 L116 336 L116 640 L106 640 L106 0 L257 0 C350 0 435 50 435 168 C435 286 350 336 257 336 L257 336 Z M255 9 L116 9 L116 327 L255 327 C356 327 424 271 424 168 C424 65 356 10 255 9 L255 9 Z " />
<glyph glyph-name="uni042D" unicode="&#x42d;" horiz-adv-x="620" d="M233 649 C165 649 105 633 56 603 L63 595 C106 622 164 640 233 640 C413 640 541 496 543 325 L207 325 L207 316 L543 316 C541 144 414 0 233 0 C164 0 106 17 63 45 L56 37 C105 7 165 -10 233 -10 C415 -10 554 136 554 320 C554 504 415 649 233 649 L233 649 Z " />
<glyph glyph-name="uni042E" unicode="&#x42e;" horiz-adv-x="944" d="M563 649 C389 649 258 520 249 341 L116 341 L116 640 L106 640 L106 0 L116 0 L116 332 L249 332 L249 322 C249 133 383 -6 563 -6 C743 -6 878 133 878 322 C878 511 743 649 563 649 L563 649 Z M563 3 C387 3 260 139 260 322 C260 505 387 640 563 640 C739 640 867 505 867 322 C867 139 739 3 563 3 L563 3 Z " />
<glyph glyph-name="uni042F" unicode="&#x42f;" horiz-adv-x="498" d="M392 640 L256 640 C164 640 72 590 72 481 C72 371 164 326 257 326 L298 326 L42 0 L56 0 L311 326 L382 326 L382 0 L392 0 L392 640 Z M264 335 C165 335 83 379 83 481 C83 582 163 631 260 631 L382 631 L382 335 L264 335 Z " />
<glyph glyph-name="uni0430" unicode="&#x430;" horiz-adv-x="532" d="M451 427 L450 285 L450 279 C426 371 351 438 254 438 C138 438 49 345 49 216 C49 87 138 -7 255 -7 C351 -7 426 60 450 153 L450 149 L451 0 L459 0 L459 427 L451 427 Z M256 2 C145 2 59 94 59 216 C59 337 145 429 255 429 C364 429 450 338 450 216 C450 94 364 2 256 2 L256 2 Z " />
<glyph glyph-name="uni0431" unicode="&#x431;" horiz-adv-x="547" d="M282 -6 C398 -6 481 88 481 201 C481 330 382 410 280 410 C171 410 86 324 82 215 C55 391 126 550 238 597 C288 619 361 617 428 673 L421 681 C350 625 294 632 234 607 C130 563 66 436 66 298 C66 223 76 144 111 87 C146 31 206 -6 282 -6 L282 -6 Z M282 3 C169 3 93 91 93 201 C93 313 174 400 282 400 C386 400 471 313 471 201 C471 91 388 3 282 3 L282 3 Z " />
<glyph glyph-name="uni0432" unicode="&#x432;" horiz-adv-x="446" d="M249 239 C301 243 335 283 335 329 C335 388 294 427 212 427 L73 427 L73 0 L207 0 C333 0 377 45 377 120 C377 181 332 234 249 239 L249 239 Z M214 417 C286 417 325 389 325 331 C325 277 281 243 232 243 L83 243 L83 417 L214 417 Z M222 10 L83 10 L83 233 L232 233 C309 233 366 188 366 120 C366 50 322 10 222 10 L222 10 Z " />
<glyph glyph-name="uni0433" unicode="&#x433;" horiz-adv-x="319" d="M298 427 L72 427 L72 417 L73 417 L73 0 L82 0 L84 417 L298 417 L298 427 Z " />
<glyph glyph-name="uni0434" unicode="&#x434;" horiz-adv-x="459" d="M425 10 L371 10 L371 427 L140 427 L140 310 C140 247 153 110 57 10 L29 10 L29 -110 L36 -110 L36 0 L418 0 L418 -110 L425 -110 L425 10 Z M151 283 L151 417 L361 417 L361 10 L71 10 C160 105 151 245 151 283 L151 283 Z " />
<glyph glyph-name="uni0435" unicode="&#x435;" horiz-adv-x="492" d="M443 236 L443 248 C443 345 368 438 252 438 C131 438 49 342 49 225 C49 95 128 -6 261 -6 C331 -6 390 24 425 62 L416 69 C386 33 331 3 261 3 C134 3 59 100 59 225 L59 236 L443 236 Z M252 428 C360 428 434 343 433 246 L60 246 C69 348 143 428 252 428 L252 428 Z " />
<glyph glyph-name="uni0436" unicode="&#x436;" horiz-adv-x="652" d="M25 -1 L41 -1 L310 233 L67 426 L52 426 L295 233 L25 -1 Z M321 -1 L331 -1 L331 426 L321 426 L321 -1 Z M611 -1 L627 -1 L357 233 L600 426 L585 426 L341 233 L611 -1 Z " />
<glyph glyph-name="uni0437" unicode="&#x437;" horiz-adv-x="380" d="M238 232 C288 245 316 283 315 338 C314 388 270 443 173 443 C129 443 83 431 58 413 L66 404 C87 423 135 433 172 433 C260 433 304 384 305 338 C306 288 283 257 247 244 C235 240 216 238 194 237 L185 237 L134 237 L134 226 C185 226 224 227 252 217 C299 200 320 160 319 115 C319 51 267 3 170 3 C121 3 69 20 46 36 L39 27 C71 7 122 -6 170 -6 C274 -6 329 44 331 116 C332 182 290 219 238 232 L238 232 Z " />
<glyph glyph-name="uni0438" unicode="&#x438;" horiz-adv-x="462" d="M380 427 L83 13 L83 427 L73 427 L73 0 L83 0 L380 408 L380 0 L390 0 L390 427 L380 427 Z " />
<glyph glyph-name="uni0439" unicode="&#x439;" horiz-adv-x="462" d="M233 507 C288 507 329 541 332 587 L323 587 C321 552 289 516 233 516 C178 516 147 551 146 587 L136 587 C139 541 180 507 233 507 L233 507 Z M380 427 L83 13 L83 427 L73 427 L73 0 L83 0 L380 408 L380 0 L390 0 L390 427 L380 427 Z " />
<glyph glyph-name="uni043A" unicode="&#x43a;" horiz-adv-x="367" d="M83 427 L73 427 L73 0 L83 0 L83 427 Z M90 226 L329 0 L342 0 L103 226 L337 427 L325 427 L90 226 Z " />
<glyph glyph-name="uni043B" unicode="&#x43b;" horiz-adv-x="435" d="M363 427 L137 427 L137 216 C137 150 140 5 56 5 C43 5 35 7 29 8 L29 0 C34 -2 42 -3 56 -3 C141 -3 146 117 146 209 L146 418 L352 418 L352 -1 L362 -1 L362 418 L363 418 L363 427 Z " />
<glyph glyph-name="uni043C" unicode="&#x43c;" horiz-adv-x="564" d="M483 427 L283 171 L83 424 L83 425 L81 427 L73 427 L73 0 L83 0 L83 411 L283 157 L481 411 L481 0 L491 0 L491 427 L483 427 Z " />
<glyph glyph-name="uni043D" unicode="&#x43d;" horiz-adv-x="445" d="M362 427 L362 228 L82 228 L82 427 L73 427 L73 0 L82 0 L82 220 L362 220 L362 0 L372 0 L372 427 L362 427 Z " />
<glyph glyph-name="uni043E" unicode="&#x43e;" horiz-adv-x="539" d="M269 -6 C394 -6 490 91 490 216 C490 341 394 438 269 438 C143 438 49 341 49 216 C49 91 143 -6 269 -6 L269 -6 Z M269 3 C148 3 59 98 59 216 C59 334 148 429 269 429 C389 429 480 334 480 216 C480 98 389 3 269 3 L269 3 Z " />
<glyph glyph-name="uni043F" unicode="&#x43f;" horiz-adv-x="473" d="M400 427 L73 427 L73 0 L82 0 L82 419 L391 419 L391 0 L400 0 L400 427 Z " />
<glyph glyph-name="uni0440" unicode="&#x440;" horiz-adv-x="532" d="M278 438 C180 438 105 370 82 276 L82 427 L73 427 L74 -210 L82 -210 L82 156 C105 61 180 -7 277 -7 C394 -7 483 87 483 216 C483 345 394 438 278 438 L278 438 Z M276 2 C168 2 82 94 82 216 C82 338 168 429 278 429 C388 429 473 337 473 216 C473 94 388 2 276 2 L276 2 Z " />
<glyph glyph-name="uni0441" unicode="&#x441;" horiz-adv-x="432" d="M260 -6 C312 -6 358 12 394 41 L387 49 C355 20 310 3 260 3 C136 3 59 97 59 217 C59 336 136 430 260 430 C310 430 355 413 387 384 L393 391 C358 421 312 439 260 439 C130 439 49 339 49 217 C49 93 130 -6 260 -6 L260 -6 Z " />
<glyph glyph-name="uni0442" unicode="&#x442;" horiz-adv-x="391" d="M355 427 L36 427 L36 419 L191 419 L191 0 L199 0 L199 419 L355 419 L355 427 Z " />
<glyph glyph-name="uni0443" unicode="&#x443;" horiz-adv-x="423" d="M391 427 L209 21 L32 427 L21 427 L204 9 L107 -210 L118 -210 L402 427 L391 427 Z " />
<glyph glyph-name="uni0444" unicode="&#x444;" horiz-adv-x="595" d="M546 216 C546 351 441 436 303 438 L303 680 L293 680 L293 438 C154 436 49 352 49 216 C49 80 154 -4 293 -6 L293 -210 L303 -210 L303 -6 C441 -4 546 81 546 216 L546 216 Z M59 216 C59 345 159 427 293 429 L293 3 C159 5 59 87 59 216 L59 216 Z M302 3 L302 429 C435 427 535 344 535 216 C535 88 435 5 302 3 L302 3 Z " />
<glyph glyph-name="uni0445" unicode="&#x445;" horiz-adv-x="398" d="M204 228 L349 427 L337 427 L202 240 L203 240 L199 235 L195 240 L196 240 L61 427 L48 427 L194 228 L25 0 L38 0 L195 214 L194 214 L199 221 L204 214 L203 214 L359 0 L373 0 L204 228 Z " />
<glyph glyph-name="uni0446" unicode="&#x446;" horiz-adv-x="492" d="M458 10 L403 10 L403 427 L394 427 L394 10 L82 10 L82 427 L73 427 L73 0 L450 0 L450 -110 L458 -110 L458 10 Z " />
<glyph glyph-name="uni0447" unicode="&#x447;" horiz-adv-x="401" d="M318 427 L318 225 C284 197 242 177 192 177 C126 177 69 200 69 302 L69 427 L59 427 L59 299 C59 185 132 168 193 168 C241 168 291 192 318 215 L318 0 L328 0 L328 427 L318 427 Z " />
<glyph glyph-name="uni0448" unicode="&#x448;" horiz-adv-x="632" d="M550 427 L550 10 L321 10 L321 427 L311 427 L311 10 L82 10 L82 427 L73 427 L73 0 L559 0 L559 427 L550 427 Z " />
<glyph glyph-name="uni0449" unicode="&#x449;" horiz-adv-x="647" d="M613 10 L559 10 L559 427 L550 427 L550 10 L321 10 L321 427 L311 427 L311 10 L82 10 L82 427 L73 427 L73 0 L606 0 L606 -110 L613 -110 L613 10 Z " />
<glyph glyph-name="uni044A" unicode="&#x44a;" horiz-adv-x="475" d="M280 244 L157 244 L157 427 L37 427 L37 419 L147 419 L147 0 L280 0 C357 0 426 36 426 121 C426 207 357 244 280 244 L280 244 Z M279 10 L157 10 L157 233 L279 233 C361 233 416 193 416 121 C416 51 361 10 279 10 L279 10 Z " />
<glyph glyph-name="uni044B" unicode="&#x44b;" horiz-adv-x="591" d="M205 244 L83 244 L83 427 L73 427 L73 0 L205 0 C282 0 352 36 352 121 C352 207 282 244 205 244 L205 244 Z M509 427 L509 0 L518 0 L518 427 L509 427 Z M204 10 L83 10 L83 233 L204 233 C286 233 341 193 341 121 C341 51 286 10 204 10 L204 10 Z " />
<glyph glyph-name="uni044C" unicode="&#x44c;" horiz-adv-x="381" d="M205 244 L83 244 L83 427 L73 427 L73 0 L205 0 C282 0 352 36 352 121 C352 207 282 244 205 244 L205 244 Z M204 10 L83 10 L83 233 L204 233 C286 233 341 193 341 121 C341 51 286 10 204 10 L204 10 Z " />
<glyph glyph-name="uni044D" unicode="&#x44d;" horiz-adv-x="433" d="M175 439 C122 439 75 421 39 391 L46 383 C77 412 124 429 175 429 C295 429 371 339 373 222 L127 222 L127 212 L373 212 C371 94 295 4 175 4 C124 4 77 21 46 49 L39 41 C75 12 122 -6 175 -6 C303 -6 383 93 383 217 C383 339 303 439 175 439 L175 439 Z " />
<glyph glyph-name="uni044E" unicode="&#x44e;" horiz-adv-x="662" d="M408 438 C292 438 205 343 203 220 L82 220 L82 427 L73 427 L73 0 L82 0 L82 212 L203 212 C205 89 292 -6 408 -6 C524 -6 613 91 613 216 C613 341 524 438 408 438 L408 438 Z M408 3 C296 3 213 98 213 216 C213 334 296 429 408 429 C519 429 603 334 603 216 C603 98 519 3 408 3 L408 3 Z " />
<glyph glyph-name="uni044F" unicode="&#x44f;" horiz-adv-x="402" d="M329 427 L186 427 C120 427 58 394 58 321 C58 248 123 218 191 218 L214 218 L43 0 L55 0 L226 218 L321 218 L321 0 L329 0 L329 427 Z M191 227 C121 227 69 256 69 321 C69 386 120 418 189 418 L321 418 L321 227 L191 227 Z " />
<glyph glyph-name="uni0450" unicode="&#x450;" horiz-adv-x="492" d="M317 508 L320 508 L189 648 L179 644 L292 526 C306 512 311 508 317 508 L317 508 Z M443 236 L443 248 C443 345 368 438 252 438 C131 438 49 342 49 225 C49 95 128 -6 261 -6 C331 -6 390 24 425 62 L416 69 C386 33 331 3 261 3 C134 3 59 100 59 225 L59 236 L443 236 Z M252 428 C360 428 434 343 433 246 L60 246 C69 348 143 428 252 428 L252 428 Z " />
<glyph glyph-name="uni0451" unicode="&#x451;" horiz-adv-x="492" d="M177 529 C187 529 194 537 194 547 C194 556 187 564 177 564 C167 564 159 556 159 547 C159 537 167 529 177 529 L177 529 Z M330 529 C340 529 347 537 347 547 C347 556 340 564 330 564 C320 564 313 556 313 547 C313 537 320 529 330 529 L330 529 Z M443 236 L443 248 C443 345 368 438 252 438 C131 438 49 342 49 225 C49 95 128 -6 261 -6 C331 -6 390 24 425 62 L416 69 C386 33 331 3 261 3 C134 3 59 100 59 225 L59 236 L443 236 Z M252 428 C360 428 434 343 433 246 L60 246 C69 348 143 428 252 428 L252 428 Z " />
<glyph glyph-name="uni0452" unicode="&#x452;" horiz-adv-x="498" d="M275 279 C201 279 137 223 117 145 L117 418 L316 418 L316 427 L117 427 L117 680 L108 680 L108 427 L49 427 L49 418 L108 418 L108 0 L117 0 L117 97 C127 199 196 269 275 269 C357 269 437 216 437 102 C437 -17 352 -58 298 -58 C269 -58 256 -55 240 -49 L236 -59 C261 -66 272 -68 301 -68 C362 -68 449 -22 449 99 C449 230 355 279 275 279 L275 279 Z " />
<glyph glyph-name="uni0453" unicode="&#x453;" horiz-adv-x="319" d="M161 525 L274 643 L264 647 L133 507 L137 507 C143 507 148 511 161 525 L161 525 Z M298 427 L72 427 L72 417 L73 417 L73 0 L82 0 L84 417 L298 417 L298 427 Z " />
<glyph glyph-name="uni0454" unicode="&#x454;" horiz-adv-x="432" d="M387 49 C355 21 309 4 258 4 C137 4 62 94 60 212 L306 212 L306 222 L60 222 C62 339 137 429 258 429 C309 429 355 412 387 383 L393 391 C357 421 311 439 258 439 C129 439 49 339 49 217 C49 93 129 -6 258 -6 C311 -6 357 12 394 41 L387 49 Z " />
<glyph glyph-name="uni0455" unicode="&#x455;" horiz-adv-x="359" d="M39 60 C57 30 105 -6 171 -6 C250 -6 310 36 310 112 C310 274 67 189 65 329 C63 392 110 429 176 428 C231 428 264 409 287 387 L295 396 C271 417 235 438 176 438 C104 438 53 396 54 329 C56 175 300 264 300 111 C300 44 248 3 172 3 C110 3 66 37 49 67 L39 60 Z " />
<glyph glyph-name="uni0456" unicode="&#x456;" horiz-adv-x="182" d="M90 548 C100 548 109 556 109 567 C109 578 100 587 90 587 C79 587 70 578 70 567 C70 556 79 548 90 548 L90 548 Z M85 0 L94 0 L94 427 L85 427 L85 0 Z " />
<glyph glyph-name="uni0457" unicode="&#x457;" horiz-adv-x="182" d="M14 563 C4 563 -4 555 -4 546 C-4 536 4 528 14 528 C24 528 31 536 31 546 C31 555 24 563 14 563 L14 563 Z M167 563 C157 563 150 555 150 546 C150 536 157 528 167 528 C177 528 184 536 184 546 C184 555 177 563 167 563 L167 563 Z M85 0 L94 0 L94 427 L85 427 L85 0 Z " />
<glyph glyph-name="uni0458" unicode="&#x458;" horiz-adv-x="211" d="M118 548 C128 548 137 556 137 567 C137 578 128 587 118 587 C107 587 98 578 98 567 C98 556 107 548 118 548 L118 548 Z M123 -97 L123 427 L113 427 L113 -95 C113 -172 75 -207 -1 -199 L-1 -209 C71 -217 123 -188 123 -97 L123 -97 Z " />
<glyph glyph-name="uni0459" unicode="&#x459;" horiz-adv-x="660" d="M485 244 L362 244 L362 418 L363 418 L363 427 L137 427 L137 216 C137 150 140 5 56 5 C43 5 35 7 29 8 L29 0 C34 -2 42 -3 56 -3 C141 -3 146 117 146 209 L146 418 L352 418 L352 0 L485 0 C562 0 631 36 631 121 C631 207 562 244 485 244 L485 244 Z M484 10 L362 10 L362 233 L484 233 C566 233 621 193 621 121 C621 51 566 10 484 10 L484 10 Z " />
<glyph glyph-name="uni045A" unicode="&#x45a;" horiz-adv-x="658" d="M483 244 L362 244 L362 427 L352 427 L352 244 L82 244 L82 427 L73 427 L73 0 L82 0 L82 233 L352 233 L352 0 L483 0 C560 0 630 36 630 121 C630 207 560 244 483 244 L483 244 Z M482 10 L362 10 L362 233 L482 233 C564 233 619 193 619 121 C619 51 564 10 482 10 L482 10 Z " />
<glyph glyph-name="uni045B" unicode="&#x45b;" horiz-adv-x="498" d="M271 279 C192 279 136 223 117 146 L117 418 L316 418 L316 427 L117 427 L117 680 L108 680 L108 427 L49 427 L49 418 L108 418 L108 0 L117 0 L117 98 C126 200 184 270 272 270 C349 270 420 221 420 85 L420 0 L429 0 L429 86 C429 241 341 279 271 279 L271 279 Z " />
<glyph glyph-name="uni045C" unicode="&#x45c;" horiz-adv-x="367" d="M179 525 L292 643 L282 647 L151 507 L155 507 C161 507 166 511 179 525 L179 525 Z M83 427 L73 427 L73 0 L83 0 L83 427 Z M90 226 L329 0 L342 0 L103 226 L337 427 L325 427 L90 226 Z " />
<glyph glyph-name="uni045D" unicode="&#x45d;" horiz-adv-x="462" d="M297 507 L300 507 L169 647 L159 643 L272 525 C286 511 291 507 297 507 L297 507 Z M380 427 L83 13 L83 427 L73 427 L73 0 L83 0 L380 408 L380 0 L390 0 L390 427 L380 427 Z " />
<glyph glyph-name="uni045E" unicode="&#x45e;" horiz-adv-x="423" d="M211 507 C266 507 307 541 310 587 L302 587 C299 552 267 516 211 516 C156 516 126 551 124 587 L114 587 C117 541 158 507 211 507 L211 507 Z M391 427 L209 21 L32 427 L21 427 L204 9 L107 -210 L118 -210 L402 427 L391 427 Z " />
<glyph glyph-name="uni045F" unicode="&#x45f;" horiz-adv-x="476" d="M394 449 L394 9 L82 9 L82 449 L73 449 L73 -1 L234 -1 L234 -111 L242 -111 L242 -1 L403 -1 L403 449 L394 449 Z " />
<glyph glyph-name="uni0462" unicode="&#x462;" horiz-adv-x="523" d="M275 336 L134 336 L134 508 L320 508 L320 517 L134 517 L134 640 L124 640 L124 517 L44 517 L44 508 L124 508 L124 0 L275 0 C368 0 453 50 453 168 C453 286 368 336 275 336 L275 336 Z M273 9 L134 9 L134 327 L273 327 C374 327 442 271 442 168 C442 65 374 10 273 9 L273 9 Z " />
<glyph glyph-name="uni0463" unicode="&#x463;" horiz-adv-x="456" d="M240 255 L117 255 L117 418 L316 418 L316 427 L117 427 L117 680 L108 680 L108 427 L49 427 L49 418 L108 418 L108 0 L240 0 C317 0 387 38 387 127 C387 216 317 255 240 255 L240 255 Z M239 10 L117 10 L117 244 L239 244 C321 244 376 202 376 127 C376 53 321 10 239 10 L239 10 Z " />
<glyph glyph-name="uni0472" unicode="&#x472;" horiz-adv-x="791" d="M396 649 C207 649 66 505 66 321 C66 140 207 -6 396 -6 C585 -6 725 140 725 321 C725 505 585 649 396 649 L396 649 Z M396 640 C578 640 712 501 715 326 L76 326 C79 501 212 640 396 640 L396 640 Z M396 3 C211 3 78 144 76 317 L715 317 C713 144 579 3 396 3 L396 3 Z " />
<glyph glyph-name="uni0473" unicode="&#x473;" horiz-adv-x="539" d="M269 438 C144 438 49 341 49 216 C49 91 144 -6 269 -6 C394 -6 490 91 490 216 C490 341 394 438 269 438 L269 438 Z M269 428 C388 428 477 337 479 220 L60 220 C62 337 150 428 269 428 L269 428 Z M269 4 C150 4 62 95 60 212 L479 212 C477 95 388 4 269 4 L269 4 Z " />
<glyph glyph-name="uni0474" unicode="&#x474;" horiz-adv-x="679" d="M610 644 C591 644 547 637 522 574 L299 17 L50 640 L38 640 L295 0 L303 0 L535 572 C559 631 598 632 614 632 C624 632 636 630 646 625 L651 635 C640 642 624 644 610 644 L610 644 Z " />
<glyph glyph-name="uni0475" unicode="&#x475;" horiz-adv-x="493" d="M449 435 C430 435 402 428 380 379 L217 13 L32 427 L21 427 L214 0 L222 0 L389 375 C409 420 434 426 449 426 C459 426 470 423 477 419 L482 426 C472 432 459 435 449 435 L449 435 Z " />
<glyph glyph-name="uni0490" unicode="&#x490;" horiz-adv-x="464" d="M412 760 L412 640 L106 640 L106 0 L116 0 L116 630 L420 630 L420 760 L412 760 Z " />
<glyph glyph-name="uni0491" unicode="&#x491;" horiz-adv-x="319" d="M290 547 L290 427 L72 427 L72 417 L73 417 L73 0 L82 0 L84 417 L298 417 L298 547 L290 547 Z " />
<glyph glyph-name="uni04BB" unicode="&#x4bb;" horiz-adv-x="472" d="M241 439 C157 439 100 378 82 296 L82 680 L73 680 L73 0 L82 0 L82 258 L84 244 C88 353 148 430 242 430 C324 430 393 381 393 245 L393 0 L403 0 L403 247 C403 401 315 439 241 439 L241 439 Z " />
<glyph glyph-name="uni04C0" unicode="&#x4c0;" horiz-adv-x="242" d="M126 640 L116 640 L116 0 L126 0 L126 640 Z " />
<glyph glyph-name="uni04D8" unicode="&#x4d8;" horiz-adv-x="708" d="M330 656 C232 656 154 615 104 562 L113 557 C158 606 234 647 330 647 C508 647 633 505 633 322 L633 321 L66 321 L66 308 C66 129 172 -11 340 -11 C520 -11 643 138 643 322 C643 507 515 656 330 656 L330 656 Z M340 -2 C183 -2 78 124 76 311 L633 311 C628 134 508 -2 340 -2 L340 -2 Z " />
<glyph glyph-name="uni04D9" unicode="&#x4d9;" horiz-adv-x="492" d="M231 433 C161 433 102 403 67 365 L76 358 C106 394 161 424 231 424 C358 424 433 327 433 202 L433 191 L49 191 L49 179 C49 82 124 -11 240 -11 C361 -11 443 85 443 202 C443 332 364 433 231 433 L231 433 Z M240 -1 C132 -1 58 84 59 181 L432 181 C423 79 349 -1 240 -1 L240 -1 Z " />
<glyph glyph-name="uni04E2" unicode="&#x4e2;" horiz-adv-x="716" d="M445 743 L272 743 L272 734 L445 734 L445 743 Z M600 640 L117 18 L117 640 L106 640 L106 0 L117 0 L600 621 L600 0 L610 0 L610 640 L600 640 Z " />
<glyph glyph-name="uni04E3" unicode="&#x4e3;" horiz-adv-x="462" d="M319 560 L146 560 L146 551 L319 551 L319 560 Z M380 427 L83 13 L83 427 L73 427 L73 0 L83 0 L380 408 L380 0 L390 0 L390 427 L380 427 Z " />
<glyph glyph-name="uni04E8" unicode="&#x4e8;" horiz-adv-x="791" d="M396 649 C207 649 66 505 66 321 C66 140 207 -6 396 -6 C585 -6 725 140 725 321 C725 505 585 649 396 649 L396 649 Z M396 640 C578 640 712 501 715 326 L76 326 C79 501 212 640 396 640 L396 640 Z M396 3 C211 3 78 144 76 317 L715 317 C713 144 579 3 396 3 L396 3 Z " />
<glyph glyph-name="uni04E9" unicode="&#x4e9;" horiz-adv-x="539" d="M269 438 C144 438 49 341 49 216 C49 91 144 -6 269 -6 C394 -6 490 91 490 216 C490 341 394 438 269 438 L269 438 Z M269 428 C388 428 477 337 479 220 L60 220 C62 337 150 428 269 428 L269 428 Z M269 4 C150 4 62 95 60 212 L479 212 C477 95 388 4 269 4 L269 4 Z " />
<glyph glyph-name="uni04EE" unicode="&#x4ee;" horiz-adv-x="517" d="M345 743 L172 743 L172 734 L345 734 L345 743 Z M469 640 L258 230 L48 640 L38 640 L253 221 L139 0 L149 0 L480 640 L469 640 Z " />
<glyph glyph-name="uni04EF" unicode="&#x4ef;" horiz-adv-x="423" d="M297 560 L124 560 L124 551 L297 551 L297 560 Z M391 427 L209 21 L32 427 L21 427 L204 9 L107 -210 L118 -210 L402 427 L391 427 Z " />
<glyph glyph-name="uni0E3F" unicode="&#xe3f;" horiz-adv-x="560" d="M469 180 C469 273 393 352 287 358 C355 364 406 428 406 494 C406 580 349 635 245 640 L245 744 L236 744 L236 640 L230 640 L116 640 L116 0 L223 0 L236 0 L236 -98 L245 -98 L245 0 C400 7 469 78 469 180 L469 180 Z M233 630 L236 630 L236 362 L127 362 L127 630 L233 630 Z M395 495 C395 415 330 362 260 362 L245 362 L245 630 C342 626 395 578 395 495 L395 495 Z M228 10 L127 10 L127 352 L236 352 L236 10 L228 10 Z M245 10 L245 352 L260 352 C370 352 458 282 458 180 C458 80 390 15 245 10 L245 10 Z " />
<glyph glyph-name="uni1E02" unicode="&#x1e02;" horiz-adv-x="527" d="M243 721 C253 721 262 729 262 740 C262 751 253 760 243 760 C232 760 223 751 223 740 C223 729 232 721 243 721 L243 721 Z M276 358 C344 364 394 428 394 494 C394 584 333 640 219 640 L106 640 L106 0 L212 0 C381 0 457 73 457 180 C457 273 381 352 276 358 L276 358 Z M222 630 C327 630 384 581 384 495 C384 415 319 362 249 362 L116 362 L116 630 L222 630 Z M217 10 L116 10 L116 352 L249 352 C359 352 446 282 446 180 C446 76 374 10 217 10 L217 10 Z " />
<glyph glyph-name="uni1E03" unicode="&#x1e03;" horiz-adv-x="532" d="M278 438 C180 438 105 369 82 276 L82 680 L73 680 L73 0 L81 0 L82 156 C104 61 180 -7 277 -7 C394 -7 483 87 483 216 C483 345 394 438 278 438 L278 438 Z M279 538 C289 538 298 546 298 557 C298 568 289 577 279 577 C268 577 259 568 259 557 C259 546 268 538 279 538 L279 538 Z M277 2 C168 2 82 94 82 216 C82 338 168 429 278 429 C388 429 473 337 473 216 C473 94 388 2 277 2 L277 2 Z " />
<glyph glyph-name="uni1E04" unicode="&#x1e04;" horiz-adv-x="527" d="M276 358 C344 364 394 428 394 494 C394 584 333 640 219 640 L106 640 L106 0 L212 0 C381 0 457 73 457 180 C457 273 381 352 276 358 L276 358 Z M222 630 C327 630 384 581 384 495 C384 415 319 362 249 362 L116 362 L116 630 L222 630 Z M217 10 L116 10 L116 352 L249 352 C359 352 446 282 446 180 C446 76 374 10 217 10 L217 10 Z M240 -69 C229 -69 220 -78 220 -89 C220 -100 229 -108 240 -108 C250 -108 259 -100 259 -89 C259 -78 250 -69 240 -69 L240 -69 Z " />
<glyph glyph-name="uni1E05" unicode="&#x1e05;" horiz-adv-x="532" d="M278 438 C180 438 105 369 82 276 L82 680 L73 680 L73 0 L81 0 L82 156 C104 61 180 -7 277 -7 C394 -7 483 87 483 216 C483 345 394 438 278 438 L278 438 Z M277 2 C168 2 82 94 82 216 C82 338 168 429 278 429 C388 429 473 337 473 216 C473 94 388 2 277 2 L277 2 Z M273 -69 C262 -69 253 -78 253 -89 C253 -100 262 -108 273 -108 C283 -108 292 -100 292 -89 C292 -78 283 -69 273 -69 L273 -69 Z " />
<glyph glyph-name="uni1E0A" unicode="&#x1e0a;" horiz-adv-x="603" d="M267 721 C277 721 286 729 286 740 C286 751 277 760 267 760 C256 760 247 751 247 740 C247 729 256 721 267 721 L267 721 Z M189 640 L106 640 L106 0 L189 0 C422 0 537 142 537 320 C537 498 422 640 189 640 L189 640 Z M193 9 L116 9 L116 631 L193 631 C364 631 526 538 526 320 C526 102 364 9 193 9 L193 9 Z " />
<glyph glyph-name="uni1E0B" unicode="&#x1e0b;" horiz-adv-x="532" d="M450 680 L450 279 C426 371 351 438 254 438 C138 438 49 345 49 216 C49 87 138 -7 255 -7 C351 -7 426 60 450 152 L451 0 L460 0 L460 680 L450 680 Z M254 538 C264 538 273 546 273 557 C273 568 264 577 254 577 C243 577 234 568 234 557 C234 546 243 538 254 538 L254 538 Z M256 2 C145 2 59 94 59 216 C59 337 145 429 255 429 C364 429 450 338 450 216 C450 94 364 2 256 2 L256 2 Z " />
<glyph glyph-name="uni1E0C" unicode="&#x1e0c;" horiz-adv-x="603" d="M189 640 L106 640 L106 0 L189 0 C422 0 537 142 537 320 C537 498 422 640 189 640 L189 640 Z M193 9 L116 9 L116 631 L193 631 C364 631 526 538 526 320 C526 102 364 9 193 9 L193 9 Z M267 -69 C256 -69 247 -78 247 -89 C247 -100 256 -108 267 -108 C277 -108 286 -100 286 -89 C286 -78 277 -69 267 -69 L267 -69 Z " />
<glyph glyph-name="uni1E0D" unicode="&#x1e0d;" horiz-adv-x="532" d="M450 680 L450 279 C426 371 351 438 254 438 C138 438 49 345 49 216 C49 87 138 -7 255 -7 C351 -7 426 60 450 152 L451 0 L460 0 L460 680 L450 680 Z M256 2 C145 2 59 94 59 216 C59 337 145 429 255 429 C364 429 450 338 450 216 C450 94 364 2 256 2 L256 2 Z M274 -69 C263 -69 254 -78 254 -89 C254 -100 263 -108 274 -108 C284 -108 293 -100 293 -89 C293 -78 284 -69 274 -69 L274 -69 Z " />
<glyph glyph-name="uni1E0E" unicode="&#x1e0e;" horiz-adv-x="603" d="M189 640 L106 640 L106 0 L189 0 C422 0 537 142 537 320 C537 498 422 640 189 640 L189 640 Z M193 9 L116 9 L116 631 L193 631 C364 631 526 538 526 320 C526 102 364 9 193 9 L193 9 Z M180 -96 L353 -96 L353 -87 L180 -87 L180 -96 Z " />
<glyph glyph-name="uni1E0F" unicode="&#x1e0f;" horiz-adv-x="532" d="M450 680 L450 279 C426 371 351 438 254 438 C138 438 49 345 49 216 C49 87 138 -7 255 -7 C351 -7 426 60 450 152 L451 0 L460 0 L460 680 L450 680 Z M256 2 C145 2 59 94 59 216 C59 337 145 429 255 429 C364 429 450 338 450 216 C450 94 364 2 256 2 L256 2 Z M187 -96 L360 -96 L360 -87 L187 -87 L187 -96 Z " />
<glyph glyph-name="uni1E12" unicode="&#x1e12;" horiz-adv-x="603" d="M189 640 L106 640 L106 0 L189 0 C422 0 537 142 537 320 C537 498 422 640 189 640 L189 640 Z M193 9 L116 9 L116 631 L193 631 C364 631 526 538 526 320 C526 102 364 9 193 9 L193 9 Z M262 -56 L167 -147 L172 -147 C179 -147 183 -144 185 -142 L264 -66 L343 -142 C346 -144 350 -147 356 -147 L362 -147 L267 -56 L262 -56 Z " />
<glyph glyph-name="uni1E13" unicode="&#x1e13;" horiz-adv-x="532" d="M450 680 L450 279 C426 371 351 438 254 438 C138 438 49 345 49 216 C49 87 138 -7 255 -7 C351 -7 426 60 450 152 L451 0 L460 0 L460 680 L450 680 Z M256 2 C145 2 59 94 59 216 C59 337 145 429 255 429 C364 429 450 338 450 216 C450 94 364 2 256 2 L256 2 Z M269 -56 L174 -147 L179 -147 C186 -147 190 -144 192 -142 L271 -66 L350 -142 C353 -144 357 -147 363 -147 L369 -147 L274 -56 L269 -56 Z " />
<glyph glyph-name="uni1E1E" unicode="&#x1e1e;" horiz-adv-x="481" d="M268 721 C278 721 287 729 287 740 C287 751 278 760 268 760 C257 760 248 751 248 740 C248 729 257 721 268 721 L268 721 Z M429 630 L429 640 L106 640 L106 0 L116 0 L116 316 L379 316 L379 326 L116 326 L116 630 L429 630 Z " />
<glyph glyph-name="uni1E1F" unicode="&#x1e1f;" horiz-adv-x="269" d="M151 759 C161 759 170 767 170 778 C170 789 161 798 151 798 C140 798 131 789 131 778 C131 767 140 759 151 759 L151 759 Z M196 680 C225 680 246 670 262 659 L268 668 C250 679 226 689 199 689 C155 689 108 658 108 584 L108 427 L49 427 L49 419 L108 419 L108 0 L117 0 L117 419 L232 419 L232 427 L117 427 L117 584 C117 652 161 680 196 680 L196 680 Z " />
<glyph glyph-name="uni1E24" unicode="&#x1e24;" horiz-adv-x="686" d="M570 640 L570 341 L116 341 L116 640 L106 640 L106 0 L116 0 L116 332 L570 332 L570 0 L580 0 L580 640 L570 640 Z M343 -69 C332 -69 323 -78 323 -89 C323 -100 332 -108 343 -108 C353 -108 362 -100 362 -89 C362 -78 353 -69 343 -69 L343 -69 Z " />
<glyph glyph-name="uni1E25" unicode="&#x1e25;" horiz-adv-x="472" d="M241 439 C157 439 100 378 82 296 L82 680 L73 680 L73 0 L82 0 L82 258 L84 244 C88 353 148 430 242 430 C324 430 393 381 393 245 L393 0 L403 0 L403 247 C403 401 315 439 241 439 L241 439 Z M247 -69 C236 -69 227 -78 227 -89 C227 -100 236 -108 247 -108 C257 -108 266 -100 266 -89 C266 -78 257 -69 247 -69 L247 -69 Z " />
<glyph glyph-name="uni1E2E" unicode="&#x1e2e;" horiz-adv-x="242" d="M102 779 L107 779 C111 779 118 783 122 788 L208 880 L195 882 L102 779 Z M44 749 C34 749 27 741 27 732 C27 722 34 714 44 714 C54 714 61 722 61 732 C61 741 54 749 44 749 L44 749 Z M198 749 C188 749 180 741 180 732 C180 722 188 714 198 714 C208 714 215 722 215 732 C215 741 208 749 198 749 L198 749 Z M126 640 L116 640 L116 0 L126 0 L126 640 Z " />
<glyph glyph-name="uni1E2F" unicode="&#x1e2f;" horiz-adv-x="182" d="M65 609 L178 727 L168 731 L37 591 L41 591 C47 591 52 595 65 609 L65 609 Z M14 563 C4 563 -4 555 -4 546 C-4 536 4 528 14 528 C24 528 31 536 31 546 C31 555 24 563 14 563 L14 563 Z M167 563 C157 563 150 555 150 546 C150 536 157 528 167 528 C177 528 184 536 184 546 C184 555 177 563 167 563 L167 563 Z M85 0 L94 0 L94 427 L85 427 L85 0 Z " />
<glyph glyph-name="uni1E36" unicode="&#x1e36;" horiz-adv-x="432" d="M116 10 L116 640 L106 640 L106 0 L386 0 L386 10 L116 10 Z M223 -69 C212 -69 203 -78 203 -89 C203 -100 212 -108 223 -108 C233 -108 242 -100 242 -89 C242 -78 233 -69 223 -69 L223 -69 Z " />
<glyph glyph-name="uni1E37" unicode="&#x1e37;" horiz-adv-x="163" d="M77 0 L86 0 L86 680 L77 680 L77 0 Z M82 -108 C92 -108 101 -100 101 -89 C101 -78 92 -69 82 -69 C71 -69 62 -78 62 -89 C62 -100 71 -108 82 -108 L82 -108 Z " />
<glyph glyph-name="uni1E3C" unicode="&#x1e3c;" horiz-adv-x="432" d="M116 10 L116 640 L106 640 L106 0 L386 0 L386 10 L116 10 Z M218 -56 L123 -147 L128 -147 C135 -147 139 -144 141 -142 L220 -66 L299 -142 C302 -144 306 -147 312 -147 L318 -147 L223 -56 L218 -56 Z " />
<glyph glyph-name="uni1E3D" unicode="&#x1e3d;" horiz-adv-x="163" d="M77 0 L86 0 L86 680 L77 680 L77 0 Z M82 -56 L77 -56 L-18 -147 L-13 -147 C-6 -147 -2 -144 0 -142 L79 -66 L158 -142 C161 -144 165 -147 171 -147 L177 -147 L82 -56 Z " />
<glyph glyph-name="uni1E3E" unicode="&#x1e3e;" horiz-adv-x="817" d="M384 708 L497 826 L487 830 L356 690 L360 690 C366 690 371 694 384 708 L384 708 Z M703 640 L409 257 L114 640 L106 640 L106 0 L116 0 L116 622 L408 239 L700 621 L700 0 L711 0 L711 640 L703 640 Z " />
<glyph glyph-name="uni1E3F" unicode="&#x1e3f;" horiz-adv-x="730" d="M346 526 L459 644 L449 648 L318 508 L322 508 C328 508 333 512 346 526 L346 526 Z M514 439 C442 439 388 393 369 298 C354 408 273 439 223 439 C161 439 98 394 82 303 L82 427 L73 427 L73 0 L82 0 L82 258 C90 362 147 430 221 430 C305 430 361 362 361 267 L361 0 L371 0 L371 246 C379 364 431 430 511 430 C607 430 652 363 652 257 L652 0 L662 0 L662 255 C662 401 583 439 514 439 L514 439 Z " />
<glyph glyph-name="uni1E44" unicode="&#x1e44;" horiz-adv-x="716" d="M358 721 C368 721 377 729 377 740 C377 751 368 760 358 760 C347 760 338 751 338 740 C338 729 347 721 358 721 L358 721 Z M599 640 L599 18 L116 640 L106 640 L106 0 L116 0 L116 621 L599 0 L610 0 L610 640 L599 640 Z " />
<glyph glyph-name="uni1E45" unicode="&#x1e45;" horiz-adv-x="469" d="M241 538 C251 538 260 546 260 557 C260 568 251 577 241 577 C230 577 221 568 221 557 C221 546 230 538 241 538 L241 538 Z M239 439 C157 439 101 382 82 304 L81 427 L73 427 L73 0 L82 0 L82 258 C91 360 150 430 240 430 C321 430 391 381 391 245 L391 0 L400 0 L400 247 C400 401 313 439 239 439 L239 439 Z " />
<glyph glyph-name="uni1E46" unicode="&#x1e46;" horiz-adv-x="716" d="M599 640 L599 18 L116 640 L106 640 L106 0 L116 0 L116 621 L599 0 L610 0 L610 640 L599 640 Z M358 -69 C347 -69 338 -78 338 -89 C338 -100 347 -108 358 -108 C368 -108 377 -100 377 -89 C377 -78 368 -69 358 -69 L358 -69 Z " />
<glyph glyph-name="uni1E47" unicode="&#x1e47;" horiz-adv-x="469" d="M239 439 C157 439 101 382 82 304 L81 427 L73 427 L73 0 L82 0 L82 258 C91 360 150 430 240 430 C321 430 391 381 391 245 L391 0 L400 0 L400 247 C400 401 313 439 239 439 L239 439 Z M241 -69 C230 -69 221 -78 221 -89 C221 -100 230 -108 241 -108 C251 -108 260 -100 260 -89 C260 -78 251 -69 241 -69 L241 -69 Z " />
<glyph glyph-name="uni1E4A" unicode="&#x1e4a;" horiz-adv-x="716" d="M599 640 L599 18 L116 640 L106 640 L106 0 L116 0 L116 621 L599 0 L610 0 L610 640 L599 640 Z M353 -56 L258 -147 L263 -147 C270 -147 274 -144 276 -142 L355 -66 L434 -142 C437 -144 441 -147 447 -147 L453 -147 L358 -56 L353 -56 Z " />
<glyph glyph-name="uni1E4B" unicode="&#x1e4b;" horiz-adv-x="469" d="M239 439 C157 439 101 382 82 304 L81 427 L73 427 L73 0 L82 0 L82 258 C91 360 150 430 240 430 C321 430 391 381 391 245 L391 0 L400 0 L400 247 C400 401 313 439 239 439 L239 439 Z M236 -56 L141 -147 L146 -147 C153 -147 157 -144 159 -142 L238 -66 L317 -142 C320 -144 324 -147 330 -147 L336 -147 L241 -56 L236 -56 Z " />
<glyph glyph-name="uni1E4C" unicode="&#x1e4c;" horiz-adv-x="791" d="M377 768 L382 768 C386 768 393 772 397 777 L483 869 L470 871 L377 768 Z M444 711 C471 711 493 728 503 755 L495 760 C486 738 471 721 444 721 C409 721 378 759 344 759 C319 759 302 744 290 721 L299 716 C306 732 319 750 343 750 C376 750 404 711 444 711 L444 711 Z M396 -6 C585 -6 725 140 725 321 C725 505 585 649 396 649 C207 649 66 505 66 321 C66 140 207 -6 396 -6 L396 -6 Z M396 3 C210 3 76 146 76 321 C76 498 210 640 396 640 C580 640 715 498 715 321 C715 146 580 3 396 3 L396 3 Z " />
<glyph glyph-name="uni1E4D" unicode="&#x1e4d;" horiz-adv-x="539" d="M250 585 L255 585 C259 585 266 589 270 594 L356 686 L343 688 L250 585 Z M318 528 C345 528 367 545 377 572 L369 577 C360 555 345 538 318 538 C283 538 252 576 218 576 C193 576 176 561 164 538 L173 533 C180 549 193 567 217 567 C250 567 278 528 318 528 L318 528 Z M269 -6 C394 -6 490 91 490 216 C490 341 394 438 269 438 C143 438 49 341 49 216 C49 91 143 -6 269 -6 L269 -6 Z M269 3 C148 3 59 98 59 216 C59 334 148 429 269 429 C389 429 480 334 480 216 C480 98 389 3 269 3 L269 3 Z " />
<glyph glyph-name="uni1E50" unicode="&#x1e50;" horiz-adv-x="791" d="M406 746 L313 849 L300 847 L386 755 C390 750 397 746 401 746 L406 746 Z M322 696 L495 696 L495 705 L322 705 L322 696 Z M396 -6 C585 -6 725 140 725 321 C725 505 585 649 396 649 C207 649 66 505 66 321 C66 140 207 -6 396 -6 L396 -6 Z M396 3 C210 3 76 146 76 321 C76 498 210 640 396 640 C580 640 715 498 715 321 C715 146 580 3 396 3 L396 3 Z " />
<glyph glyph-name="uni1E51" unicode="&#x1e51;" horiz-adv-x="539" d="M280 563 L187 667 L174 664 L260 572 C264 567 271 563 275 563 L280 563 Z M196 513 L369 513 L369 522 L196 522 L196 513 Z M269 -6 C394 -6 490 91 490 216 C490 341 394 438 269 438 C143 438 49 341 49 216 C49 91 143 -6 269 -6 L269 -6 Z M269 3 C148 3 59 98 59 216 C59 334 148 429 269 429 C389 429 480 334 480 216 C480 98 389 3 269 3 L269 3 Z " />
<glyph glyph-name="uni1E52" unicode="&#x1e52;" horiz-adv-x="791" d="M377 746 L382 746 C386 746 393 750 397 755 L483 847 L470 849 L377 746 Z M322 696 L495 696 L495 705 L322 705 L322 696 Z M396 -6 C585 -6 725 140 725 321 C725 505 585 649 396 649 C207 649 66 505 66 321 C66 140 207 -6 396 -6 L396 -6 Z M396 3 C210 3 76 146 76 321 C76 498 210 640 396 640 C580 640 715 498 715 321 C715 146 580 3 396 3 L396 3 Z " />
<glyph glyph-name="uni1E53" unicode="&#x1e53;" horiz-adv-x="539" d="M251 563 L256 563 C260 563 267 567 271 572 L357 664 L344 667 L251 563 Z M196 513 L369 513 L369 522 L196 522 L196 513 Z M269 -6 C394 -6 490 91 490 216 C490 341 394 438 269 438 C143 438 49 341 49 216 C49 91 143 -6 269 -6 L269 -6 Z M269 3 C148 3 59 98 59 216 C59 334 148 429 269 429 C389 429 480 334 480 216 C480 98 389 3 269 3 L269 3 Z " />
<glyph glyph-name="uni1E56" unicode="&#x1e56;" horiz-adv-x="478" d="M240 721 C250 721 259 729 259 740 C259 751 250 760 240 760 C229 760 220 751 220 740 C220 729 229 721 240 721 L240 721 Z M236 640 L106 640 L106 0 L116 0 L116 304 L236 304 C328 304 424 354 424 472 C424 590 328 640 236 640 L236 640 Z M233 314 L116 314 L116 631 L233 631 C334 631 414 575 414 472 C414 370 334 314 233 314 L233 314 Z " />
<glyph glyph-name="uni1E57" unicode="&#x1e57;" horiz-adv-x="532" d="M259 538 C269 538 278 546 278 557 C278 568 269 577 259 577 C248 577 239 568 239 557 C239 546 248 538 259 538 L259 538 Z M278 438 C180 438 105 370 82 276 L82 427 L73 427 L74 -210 L82 -210 L82 156 C105 61 180 -7 277 -7 C394 -7 483 87 483 216 C483 345 394 438 278 438 L278 438 Z M276 2 C168 2 82 94 82 216 C82 338 168 429 278 429 C388 429 473 337 473 216 C473 94 388 2 276 2 L276 2 Z " />
<glyph glyph-name="uni1E60" unicode="&#x1e60;" horiz-adv-x="490" d="M245 721 C255 721 264 729 264 740 C264 751 255 760 245 760 C234 760 225 751 225 740 C225 729 234 721 245 721 L245 721 Z M238 -6 C343 -6 414 52 414 141 C414 236 346 282 259 328 C185 368 93 407 93 501 C93 587 154 640 233 640 C305 640 354 609 382 579 L390 586 C366 616 308 649 234 649 C158 649 83 603 83 502 C83 405 172 362 250 321 C343 272 404 229 404 141 C404 62 339 3 240 3 C151 3 95 36 65 80 L56 74 C78 39 136 -6 238 -6 L238 -6 Z " />
<glyph glyph-name="uni1E61" unicode="&#x1e61;" horiz-adv-x="359" d="M188 538 C198 538 207 546 207 557 C207 568 198 577 188 577 C177 577 168 568 168 557 C168 546 177 538 188 538 L188 538 Z M39 60 C57 30 105 -6 171 -6 C250 -6 310 36 310 112 C310 274 67 189 65 329 C63 392 110 429 176 428 C231 428 264 409 287 387 L295 396 C271 417 235 438 176 438 C104 438 53 396 54 329 C56 175 300 264 300 111 C300 44 248 3 172 3 C110 3 66 37 49 67 L39 60 Z " />
<glyph glyph-name="uni1E62" unicode="&#x1e62;" horiz-adv-x="490" d="M238 -6 C343 -6 414 52 414 141 C414 236 346 282 259 328 C185 368 93 407 93 501 C93 587 154 640 233 640 C305 640 354 609 382 579 L390 586 C366 616 308 649 234 649 C158 649 83 603 83 502 C83 405 172 362 250 321 C343 272 404 229 404 141 C404 62 339 3 240 3 C151 3 95 36 65 80 L56 74 C78 39 136 -6 238 -6 L238 -6 Z M244 -108 C254 -108 263 -100 263 -89 C263 -78 254 -69 244 -69 C233 -69 224 -78 224 -89 C224 -100 233 -108 244 -108 L244 -108 Z " />
<glyph glyph-name="uni1E63" unicode="&#x1e63;" horiz-adv-x="359" d="M39 60 C57 30 105 -6 171 -6 C250 -6 310 36 310 112 C310 274 67 189 65 329 C63 392 110 429 176 428 C231 428 264 409 287 387 L295 396 C271 417 235 438 176 438 C104 438 53 396 54 329 C56 175 300 264 300 111 C300 44 248 3 172 3 C110 3 66 37 49 67 L39 60 Z M188 -108 C198 -108 207 -100 207 -89 C207 -78 198 -69 188 -69 C177 -69 168 -78 168 -89 C168 -100 177 -108 188 -108 L188 -108 Z " />
<glyph glyph-name="uni1E6A" unicode="&#x1e6a;" horiz-adv-x="476" d="M238 721 C248 721 257 729 257 740 C257 751 248 760 238 760 C227 760 218 751 218 740 C218 729 227 721 238 721 L238 721 Z M433 640 L44 640 L44 630 L233 630 L233 0 L243 0 L243 630 L433 630 L433 640 Z " />
<glyph glyph-name="uni1E6B" unicode="&#x1e6b;" horiz-adv-x="273" d="M113 670 C123 670 132 678 132 689 C132 700 123 709 113 709 C102 709 93 700 93 689 C93 678 102 670 113 670 L113 670 Z M232 427 L117 427 L117 557 L108 557 L108 427 L49 427 L49 419 L108 419 L108 0 L117 0 L117 419 L232 419 L232 427 Z " />
<glyph glyph-name="uni1E6C" unicode="&#x1e6c;" horiz-adv-x="476" d="M433 640 L44 640 L44 630 L233 630 L233 0 L243 0 L243 630 L433 630 L433 640 Z M237 -69 C226 -69 217 -78 217 -89 C217 -100 226 -108 237 -108 C247 -108 256 -100 256 -89 C256 -78 247 -69 237 -69 L237 -69 Z " />
<glyph glyph-name="uni1E6D" unicode="&#x1e6d;" horiz-adv-x="273" d="M117 427 L117 557 L108 557 L108 427 L49 427 L49 419 L108 419 L108 0 L117 0 L117 419 L232 419 L232 427 L117 427 Z M112 -69 C101 -69 92 -78 92 -89 C92 -100 101 -108 112 -108 C122 -108 131 -100 131 -89 C131 -78 122 -69 112 -69 L112 -69 Z " />
<glyph glyph-name="uni1E6E" unicode="&#x1e6e;" horiz-adv-x="476" d="M433 640 L44 640 L44 630 L233 630 L233 0 L243 0 L243 630 L433 630 L433 640 Z M151 -96 L324 -96 L324 -87 L151 -87 L151 -96 Z " />
<glyph glyph-name="uni1E6F" unicode="&#x1e6f;" horiz-adv-x="273" d="M117 427 L117 557 L108 557 L108 427 L49 427 L49 419 L108 419 L108 0 L117 0 L117 419 L232 419 L232 427 L117 427 Z M61 -96 L162 -96 L162 -87 L61 -87 L61 -96 Z " />
<glyph glyph-name="uni1E70" unicode="&#x1e70;" horiz-adv-x="476" d="M433 640 L44 640 L44 630 L233 630 L233 0 L243 0 L243 630 L433 630 L433 640 Z M232 -56 L137 -147 L142 -147 C149 -147 153 -144 155 -142 L234 -66 L313 -142 C316 -144 320 -147 326 -147 L332 -147 L237 -56 L232 -56 Z " />
<glyph glyph-name="uni1E71" unicode="&#x1e71;" horiz-adv-x="273" d="M117 427 L117 557 L108 557 L108 427 L49 427 L49 419 L108 419 L108 0 L117 0 L117 419 L232 419 L232 427 L117 427 Z M107 -56 L12 -147 L17 -147 C24 -147 28 -144 30 -142 L109 -66 L188 -142 C191 -144 195 -147 201 -147 L207 -147 L112 -56 L107 -56 Z " />
<glyph glyph-name="Wgrave" unicode="&#x1e80;" horiz-adv-x="968" d="M549 690 L552 690 L421 830 L411 826 L524 708 C538 694 543 690 549 690 L549 690 Z M907 640 L689 18 L489 640 L481 640 L280 18 L61 640 L50 640 L275 0 L283 0 L485 625 L686 0 L693 0 L919 640 L907 640 Z " />
<glyph glyph-name="wgrave" unicode="&#x1e81;" horiz-adv-x="655" d="M392 508 L395 508 L264 648 L254 644 L367 526 C381 512 386 508 392 508 L392 508 Z M618 427 L462 16 L331 427 L324 427 L193 16 L37 427 L27 427 L190 0 L197 0 L328 414 L458 0 L465 0 L628 427 L618 427 Z " />
<glyph glyph-name="Wacute" unicode="&#x1e82;" horiz-adv-x="968" d="M460 708 L573 826 L563 830 L432 690 L436 690 C442 690 447 694 460 708 L460 708 Z M907 640 L689 18 L489 640 L481 640 L280 18 L61 640 L50 640 L275 0 L283 0 L485 625 L686 0 L693 0 L919 640 L907 640 Z " />
<glyph glyph-name="wacute" unicode="&#x1e83;" horiz-adv-x="655" d="M303 526 L416 644 L406 648 L275 508 L279 508 C285 508 290 512 303 526 L303 526 Z M618 427 L462 16 L331 427 L324 427 L193 16 L37 427 L27 427 L190 0 L197 0 L328 414 L458 0 L465 0 L628 427 L618 427 Z " />
<glyph glyph-name="Wdieresis" unicode="&#x1e84;" horiz-adv-x="968" d="M409 711 C419 711 426 719 426 729 C426 738 419 746 409 746 C399 746 391 738 391 729 C391 719 399 711 409 711 L409 711 Z M562 711 C572 711 579 719 579 729 C579 738 572 746 562 746 C552 746 545 738 545 729 C545 719 552 711 562 711 L562 711 Z M907 640 L689 18 L489 640 L481 640 L280 18 L61 640 L50 640 L275 0 L283 0 L485 625 L686 0 L693 0 L919 640 L907 640 Z " />
<glyph glyph-name="wdieresis" unicode="&#x1e85;" horiz-adv-x="655" d="M252 529 C262 529 269 537 269 547 C269 556 262 564 252 564 C242 564 234 556 234 547 C234 537 242 529 252 529 L252 529 Z M405 529 C415 529 422 537 422 547 C422 556 415 564 405 564 C395 564 388 556 388 547 C388 537 395 529 405 529 L405 529 Z M618 427 L462 16 L331 427 L324 427 L193 16 L37 427 L27 427 L190 0 L197 0 L328 414 L458 0 L465 0 L628 427 L618 427 Z " />
<glyph glyph-name="uni1E92" unicode="&#x1e92;" horiz-adv-x="592" d="M99 9 L510 632 L510 640 L100 640 L100 631 L497 631 L86 8 L86 0 L526 0 L526 9 L99 9 Z M302 -69 C291 -69 282 -78 282 -89 C282 -100 291 -108 302 -108 C312 -108 321 -100 321 -89 C321 -78 312 -69 302 -69 L302 -69 Z " />
<glyph glyph-name="uni1E93" unicode="&#x1e93;" horiz-adv-x="424" d="M65 9 L365 419 L365 427 L66 427 L66 418 L353 418 L51 9 L51 0 L378 0 L378 9 L65 9 Z M214 -69 C203 -69 194 -78 194 -89 C194 -100 203 -108 214 -108 C224 -108 233 -100 233 -89 C233 -78 224 -69 214 -69 L214 -69 Z " />
<glyph glyph-name="uni1E9E" unicode="&#x1e9e;" horiz-adv-x="575" d="M200 -3 C392 -24 505 34 505 180 C505 316 397 374 251 370 L453 635 L453 640 L277 640 C175 640 101 586 101 446 L101 0 L111 0 L111 441 C111 567 165 630 284 630 L435 630 L233 364 L233 359 L261 359 C403 359 495 301 495 178 C495 36 375 -12 200 8 L200 -3 Z " />
<glyph glyph-name="uni1EA0" unicode="&#x1ea0;" horiz-adv-x="599" d="M561 0 L304 640 L294 640 L38 0 L49 0 L143 236 L455 236 L550 0 L561 0 Z M147 245 L299 626 L452 245 L147 245 Z M299 -69 C288 -69 279 -78 279 -89 C279 -100 288 -108 299 -108 C309 -108 318 -100 318 -89 C318 -78 309 -69 299 -69 L299 -69 Z " />
<glyph glyph-name="uni1EA1" unicode="&#x1ea1;" horiz-adv-x="532" d="M451 427 L450 285 L450 279 C426 371 351 438 254 438 C138 438 49 345 49 216 C49 87 138 -7 255 -7 C351 -7 426 60 450 153 L450 149 L451 0 L459 0 L459 427 L451 427 Z M256 2 C145 2 59 94 59 216 C59 337 145 429 255 429 C364 429 450 338 450 216 C450 94 364 2 256 2 L256 2 Z M266 -69 C255 -69 246 -78 246 -89 C246 -100 255 -108 266 -108 C276 -108 285 -100 285 -89 C285 -78 276 -69 266 -69 L266 -69 Z " />
<glyph glyph-name="uni1EA4" unicode="&#x1ea4;" horiz-adv-x="599" d="M392 756 L478 848 L465 850 L372 747 L377 747 C381 747 388 751 392 756 L392 756 Z M220 695 L299 771 L378 695 C380 693 385 690 391 690 L396 690 L302 782 L296 782 L202 690 L207 690 C213 690 218 693 220 695 L220 695 Z M550 0 L561 0 L304 640 L294 640 L38 0 L49 0 L143 236 L455 236 L550 0 Z M147 245 L299 626 L452 245 L147 245 Z " />
<glyph glyph-name="uni1EA5" unicode="&#x1ea5;" horiz-adv-x="532" d="M370 572 L456 664 L444 667 L350 564 L356 564 C360 564 367 568 370 572 L370 572 Z M187 512 L266 588 L345 512 C347 510 352 507 358 507 L363 507 L269 599 L263 599 L169 507 L174 507 C180 507 185 510 187 512 L187 512 Z M451 427 L450 285 L450 279 C426 371 351 438 254 438 C138 438 49 345 49 216 C49 87 138 -7 255 -7 C351 -7 426 60 450 153 L450 149 L451 0 L459 0 L459 427 L451 427 Z M256 2 C145 2 59 94 59 216 C59 337 145 429 255 429 C364 429 450 338 450 216 C450 94 364 2 256 2 L256 2 Z " />
<glyph glyph-name="uni1EA6" unicode="&#x1ea6;" horiz-adv-x="599" d="M213 747 L218 747 L125 850 L112 848 L198 756 C202 751 209 747 213 747 L213 747 Z M207 690 C213 690 218 693 220 695 L299 771 L378 695 C380 693 385 690 391 690 L396 690 L302 782 L296 782 L202 690 L207 690 Z M550 0 L561 0 L304 640 L294 640 L38 0 L49 0 L143 236 L455 236 L550 0 Z M147 245 L299 626 L452 245 L147 245 Z " />
<glyph glyph-name="uni1EA7" unicode="&#x1ea7;" horiz-adv-x="532" d="M187 564 L192 564 L98 667 L86 664 L172 572 C175 568 182 564 187 564 L187 564 Z M174 507 C180 507 185 510 187 512 L266 588 L345 512 C347 510 352 507 358 507 L363 507 L269 599 L263 599 L169 507 L174 507 Z M451 427 L450 285 L450 279 C426 371 351 438 254 438 C138 438 49 345 49 216 C49 87 138 -7 255 -7 C351 -7 426 60 450 153 L450 149 L451 0 L459 0 L459 427 L451 427 Z M256 2 C145 2 59 94 59 216 C59 337 145 429 255 429 C364 429 450 338 450 216 C450 94 364 2 256 2 L256 2 Z " />
<glyph glyph-name="uni1EAA" unicode="&#x1eaa;" horiz-adv-x="599" d="M245 849 C278 849 306 810 346 810 C373 810 395 827 405 855 L396 859 C388 837 373 820 346 820 C311 820 280 859 246 859 C221 859 204 843 192 820 L201 815 C208 831 221 849 245 849 L245 849 Z M296 782 L202 690 L207 690 C213 690 218 693 220 695 L299 771 L378 695 C380 693 385 690 391 690 L396 690 L302 782 L296 782 Z M550 0 L561 0 L304 640 L294 640 L38 0 L49 0 L143 236 L455 236 L550 0 Z M147 245 L299 626 L452 245 L147 245 Z " />
<glyph glyph-name="uni1EAB" unicode="&#x1eab;" horiz-adv-x="532" d="M212 666 C245 666 273 627 313 627 C340 627 362 644 372 672 L363 676 C355 654 340 637 313 637 C278 637 247 676 213 676 C188 676 171 660 159 637 L168 632 C175 648 188 666 212 666 L212 666 Z M263 599 L169 507 L174 507 C180 507 185 510 187 512 L266 588 L345 512 C347 510 352 507 358 507 L363 507 L269 599 L263 599 Z M451 427 L450 285 L450 279 C426 371 351 438 254 438 C138 438 49 345 49 216 C49 87 138 -7 255 -7 C351 -7 426 60 450 153 L450 149 L451 0 L459 0 L459 427 L451 427 Z M256 2 C145 2 59 94 59 216 C59 337 145 429 255 429 C364 429 450 338 450 216 C450 94 364 2 256 2 L256 2 Z " />
<glyph glyph-name="uni1EAC" unicode="&#x1eac;" horiz-adv-x="599" d="M220 695 L299 771 L378 695 C380 693 385 690 391 690 L396 690 L302 782 L296 782 L202 690 L207 690 C213 690 218 693 220 695 L220 695 Z M561 0 L304 640 L294 640 L38 0 L49 0 L143 236 L455 236 L550 0 L561 0 Z M147 245 L299 626 L452 245 L147 245 Z M299 -69 C288 -69 279 -78 279 -89 C279 -100 288 -108 299 -108 C309 -108 318 -100 318 -89 C318 -78 309 -69 299 -69 L299 -69 Z " />
<glyph glyph-name="uni1EAD" unicode="&#x1ead;" horiz-adv-x="532" d="M187 512 L266 588 L345 512 C347 510 352 507 358 507 L363 507 L269 599 L263 599 L169 507 L174 507 C180 507 185 510 187 512 L187 512 Z M451 427 L450 285 L450 279 C426 371 351 438 254 438 C138 438 49 345 49 216 C49 87 138 -7 255 -7 C351 -7 426 60 450 153 L450 149 L451 0 L459 0 L459 427 L451 427 Z M256 2 C145 2 59 94 59 216 C59 337 145 429 255 429 C364 429 450 338 450 216 C450 94 364 2 256 2 L256 2 Z M266 -69 C255 -69 246 -78 246 -89 C246 -100 255 -108 266 -108 C276 -108 285 -100 285 -89 C285 -78 276 -69 266 -69 L266 -69 Z " />
<glyph glyph-name="uni1EAE" unicode="&#x1eae;" horiz-adv-x="599" d="M301 771 L387 863 L374 865 L281 762 L286 762 C290 762 297 766 301 771 L301 771 Z M299 690 C354 690 395 724 398 770 L389 770 C387 735 355 699 299 699 C244 699 213 734 212 770 L202 770 C205 724 246 690 299 690 L299 690 Z M550 0 L561 0 L304 640 L294 640 L38 0 L49 0 L143 236 L455 236 L550 0 Z M147 245 L299 626 L452 245 L147 245 Z " />
<glyph glyph-name="uni1EAF" unicode="&#x1eaf;" horiz-adv-x="532" d="M268 588 L354 680 L341 683 L248 579 L253 579 C257 579 264 583 268 588 L268 588 Z M266 507 C321 507 362 541 365 587 L356 587 C354 552 322 516 266 516 C211 516 180 551 179 587 L169 587 C172 541 213 507 266 507 L266 507 Z M451 427 L450 285 L450 279 C426 371 351 438 254 438 C138 438 49 345 49 216 C49 87 138 -7 255 -7 C351 -7 426 60 450 153 L450 149 L451 0 L459 0 L459 427 L451 427 Z M256 2 C145 2 59 94 59 216 C59 337 145 429 255 429 C364 429 450 338 450 216 C450 94 364 2 256 2 L256 2 Z " />
<glyph glyph-name="uni1EB0" unicode="&#x1eb0;" horiz-adv-x="599" d="M306 763 L311 763 L218 866 L205 864 L291 772 C295 767 302 763 306 763 L306 763 Z M299 690 C354 690 395 724 398 770 L389 770 C387 735 355 699 299 699 C244 699 213 734 212 770 L202 770 C205 724 246 690 299 690 L299 690 Z M550 0 L561 0 L304 640 L294 640 L38 0 L49 0 L143 236 L455 236 L550 0 Z M147 245 L299 626 L452 245 L147 245 Z " />
<glyph glyph-name="uni1EB1" unicode="&#x1eb1;" horiz-adv-x="532" d="M272 579 L277 579 L184 683 L172 680 L258 588 C261 583 268 579 272 579 L272 579 Z M266 507 C321 507 362 541 365 587 L356 587 C354 552 322 516 266 516 C211 516 180 551 179 587 L169 587 C172 541 213 507 266 507 L266 507 Z M451 427 L450 285 L450 279 C426 371 351 438 254 438 C138 438 49 345 49 216 C49 87 138 -7 255 -7 C351 -7 426 60 450 153 L450 149 L451 0 L459 0 L459 427 L451 427 Z M256 2 C145 2 59 94 59 216 C59 337 145 429 255 429 C364 429 450 338 450 216 C450 94 364 2 256 2 L256 2 Z " />
<glyph glyph-name="uni1EB4" unicode="&#x1eb4;" horiz-adv-x="599" d="M246 825 C279 825 307 787 347 787 C374 787 396 804 406 831 L398 835 C389 813 374 797 347 797 C312 797 281 835 247 835 C222 835 205 820 193 797 L202 792 C209 807 222 825 246 825 L246 825 Z M299 699 C244 699 213 734 212 770 L202 770 C205 724 246 690 299 690 C354 690 395 724 398 770 L389 770 C387 735 355 699 299 699 L299 699 Z M550 0 L561 0 L304 640 L294 640 L38 0 L49 0 L143 236 L455 236 L550 0 Z M147 245 L299 626 L452 245 L147 245 Z " />
<glyph glyph-name="uni1EB5" unicode="&#x1eb5;" horiz-adv-x="532" d="M213 642 C246 642 274 604 314 604 C341 604 363 621 373 648 L365 652 C356 630 341 614 314 614 C279 614 248 652 214 652 C189 652 172 637 160 614 L169 609 C176 624 189 642 213 642 L213 642 Z M266 516 C211 516 180 551 179 587 L169 587 C172 541 213 507 266 507 C321 507 362 541 365 587 L356 587 C354 552 322 516 266 516 L266 516 Z M451 427 L450 285 L450 279 C426 371 351 438 254 438 C138 438 49 345 49 216 C49 87 138 -7 255 -7 C351 -7 426 60 450 153 L450 149 L451 0 L459 0 L459 427 L451 427 Z M256 2 C145 2 59 94 59 216 C59 337 145 429 255 429 C364 429 450 338 450 216 C450 94 364 2 256 2 L256 2 Z " />
<glyph glyph-name="uni1EB6" unicode="&#x1eb6;" horiz-adv-x="599" d="M299 690 C354 690 395 724 398 770 L389 770 C387 735 355 699 299 699 C244 699 213 734 212 770 L202 770 C205 724 246 690 299 690 L299 690 Z M561 0 L304 640 L294 640 L38 0 L49 0 L143 236 L455 236 L550 0 L561 0 Z M147 245 L299 626 L452 245 L147 245 Z M299 -69 C288 -69 279 -78 279 -89 C279 -100 288 -108 299 -108 C309 -108 318 -100 318 -89 C318 -78 309 -69 299 -69 L299 -69 Z " />
<glyph glyph-name="uni1EB7" unicode="&#x1eb7;" horiz-adv-x="532" d="M266 507 C321 507 362 541 365 587 L356 587 C354 552 322 516 266 516 C211 516 180 551 179 587 L169 587 C172 541 213 507 266 507 L266 507 Z M451 427 L450 285 L450 279 C426 371 351 438 254 438 C138 438 49 345 49 216 C49 87 138 -7 255 -7 C351 -7 426 60 450 153 L450 149 L451 0 L459 0 L459 427 L451 427 Z M256 2 C145 2 59 94 59 216 C59 337 145 429 255 429 C364 429 450 338 450 216 C450 94 364 2 256 2 L256 2 Z M266 -69 C255 -69 246 -78 246 -89 C246 -100 255 -108 266 -108 C276 -108 285 -100 285 -89 C285 -78 276 -69 266 -69 L266 -69 Z " />
<glyph glyph-name="uni1EB8" unicode="&#x1eb8;" horiz-adv-x="507" d="M431 630 L431 640 L106 640 L106 0 L431 0 L431 10 L116 10 L116 316 L381 316 L381 325 L116 325 L116 630 L431 630 Z M266 -69 C255 -69 246 -78 246 -89 C246 -100 255 -108 266 -108 C276 -108 285 -100 285 -89 C285 -78 276 -69 266 -69 L266 -69 Z " />
<glyph glyph-name="uni1EB9" unicode="&#x1eb9;" horiz-adv-x="492" d="M443 236 L443 248 C443 345 368 438 252 438 C131 438 49 342 49 225 C49 95 128 -6 261 -6 C331 -6 390 24 425 62 L416 69 C386 33 331 3 261 3 C134 3 59 100 59 225 L59 236 L443 236 Z M252 428 C360 428 434 343 433 246 L60 246 C69 348 143 428 252 428 L252 428 Z M253 -69 C242 -69 233 -78 233 -89 C233 -100 242 -108 253 -108 C263 -108 272 -100 272 -89 C272 -78 263 -69 253 -69 L253 -69 Z " />
<glyph glyph-name="uni1EBC" unicode="&#x1ebc;" horiz-adv-x="507" d="M213 750 C246 750 274 711 314 711 C341 711 363 728 373 755 L365 760 C356 738 341 721 314 721 C279 721 248 759 214 759 C189 759 172 744 160 721 L169 716 C176 732 189 750 213 750 L213 750 Z M431 630 L431 640 L106 640 L106 0 L431 0 L431 10 L116 10 L116 316 L381 316 L381 325 L116 325 L116 630 L431 630 Z " />
<glyph glyph-name="uni1EBD" unicode="&#x1ebd;" horiz-adv-x="492" d="M200 567 C233 567 261 528 301 528 C328 528 350 545 360 572 L352 577 C343 555 328 538 301 538 C266 538 235 576 201 576 C176 576 159 561 147 538 L156 533 C163 549 176 567 200 567 L200 567 Z M443 236 L443 248 C443 345 368 438 252 438 C131 438 49 342 49 225 C49 95 128 -6 261 -6 C331 -6 390 24 425 62 L416 69 C386 33 331 3 261 3 C134 3 59 100 59 225 L59 236 L443 236 Z M252 428 C360 428 434 343 433 246 L60 246 C69 348 143 428 252 428 L252 428 Z " />
<glyph glyph-name="uni1EBE" unicode="&#x1ebe;" horiz-adv-x="507" d="M358 756 L444 848 L431 850 L338 747 L343 747 C347 747 354 751 358 756 L358 756 Z M187 695 L266 771 L345 695 C347 693 352 690 358 690 L363 690 L269 782 L263 782 L169 690 L174 690 C180 690 185 693 187 695 L187 695 Z M431 640 L106 640 L106 0 L431 0 L431 10 L116 10 L116 316 L381 316 L381 325 L116 325 L116 630 L431 630 L431 640 Z " />
<glyph glyph-name="uni1EBF" unicode="&#x1ebf;" horiz-adv-x="492" d="M357 572 L443 664 L431 667 L337 564 L343 564 C347 564 354 568 357 572 L357 572 Z M174 512 L253 588 L332 512 C334 510 339 507 345 507 L350 507 L256 599 L250 599 L156 507 L161 507 C167 507 172 510 174 512 L174 512 Z M252 438 C131 438 49 342 49 225 C49 95 128 -6 261 -6 C331 -6 390 24 425 62 L416 69 C386 33 331 3 261 3 C134 3 59 100 59 225 L59 236 L443 236 L443 248 C443 345 368 438 252 438 L252 438 Z M433 246 L60 246 C69 348 143 428 252 428 C360 428 434 343 433 246 L433 246 Z " />
<glyph glyph-name="uni1EC0" unicode="&#x1ec0;" horiz-adv-x="507" d="M179 747 L184 747 L91 850 L78 848 L164 756 C168 751 175 747 179 747 L179 747 Z M174 690 C180 690 185 693 187 695 L266 771 L345 695 C347 693 352 690 358 690 L363 690 L269 782 L263 782 L169 690 L174 690 Z M431 630 L431 640 L106 640 L106 0 L431 0 L431 10 L116 10 L116 316 L381 316 L381 325 L116 325 L116 630 L431 630 Z " />
<glyph glyph-name="uni1EC1" unicode="&#x1ec1;" horiz-adv-x="492" d="M174 564 L179 564 L85 667 L73 664 L159 572 C162 568 169 564 174 564 L174 564 Z M161 507 C167 507 172 510 174 512 L253 588 L332 512 C334 510 339 507 345 507 L350 507 L256 599 L250 599 L156 507 L161 507 Z M443 236 L443 248 C443 345 368 438 252 438 C131 438 49 342 49 225 C49 95 128 -6 261 -6 C331 -6 390 24 425 62 L416 69 C386 33 331 3 261 3 C134 3 59 100 59 225 L59 236 L443 236 Z M252 428 C360 428 434 343 433 246 L60 246 C69 348 143 428 252 428 L252 428 Z " />
<glyph glyph-name="uni1EC4" unicode="&#x1ec4;" horiz-adv-x="486" d="M211 849 C244 849 273 810 312 810 C340 810 362 827 371 854 L363 859 C354 836 340 820 313 820 C277 820 246 858 212 858 C187 858 170 843 159 820 L167 815 C175 831 188 849 211 849 L211 849 Z M263 781 L168 690 L174 690 C180 690 184 693 186 695 L265 771 L344 695 C347 693 351 690 357 690 L363 690 L268 781 L263 781 Z M431 630 L431 640 L106 640 L106 0 L431 0 L431 10 L116 10 L116 316 L381 316 L381 325 L116 325 L116 630 L431 630 Z " />
<glyph glyph-name="uni1EC5" unicode="&#x1ec5;" horiz-adv-x="492" d="M199 666 C232 666 260 627 300 627 C327 627 349 644 359 672 L350 676 C342 654 327 637 300 637 C265 637 234 676 200 676 C175 676 158 660 146 637 L155 632 C162 648 175 666 199 666 L199 666 Z M250 599 L156 507 L161 507 C167 507 172 510 174 512 L253 588 L332 512 C334 510 339 507 345 507 L350 507 L256 599 L250 599 Z M443 236 L443 248 C443 345 368 438 252 438 C131 438 49 342 49 225 C49 95 128 -6 261 -6 C331 -6 390 24 425 62 L416 69 C386 33 331 3 261 3 C134 3 59 100 59 225 L59 236 L443 236 Z M252 428 C360 428 434 343 433 246 L60 246 C69 348 143 428 252 428 L252 428 Z " />
<glyph glyph-name="uni1EC6" unicode="&#x1ec6;" horiz-adv-x="507" d="M187 695 L266 771 L345 695 C347 693 352 690 358 690 L363 690 L269 782 L263 782 L169 690 L174 690 C180 690 185 693 187 695 L187 695 Z M431 630 L431 640 L106 640 L106 0 L431 0 L431 10 L116 10 L116 316 L381 316 L381 325 L116 325 L116 630 L431 630 Z M266 -69 C255 -69 246 -78 246 -89 C246 -100 255 -108 266 -108 C276 -108 285 -100 285 -89 C285 -78 276 -69 266 -69 L266 -69 Z " />
</font>
</svg>
