<?xml version="1.0" encoding="UTF-8"?>
<svg xmlns="http://www.w3.org/2000/svg" xmlns:xlink="http://www.w3.org/1999/xlink" version="1.2" >
<font id="Clarika Pro Geometric Italic">
<font-face  font-family="Clarika Pro Geometric" units-per-em="980" ascent="970" descent="-250" font-style="italic" font-weight="400" font-stretch="normal" slope="-11" cap-height="640" x-height="447" underline-position="-75" underline-thickness="50" />
<missing-glyph  horiz-adv-x="674" d="M659 640 L177 640 L53 0 L535 0 L659 640 Z M554 588 L365 364 L263 588 L554 588 Z M219 564 L330 322 L126 80 L219 564 Z M494 82 L385 322 L587 562 L494 82 Z M349 280 L453 52 L157 52 L349 280 Z " />
<glyph glyph-name="NULL" horiz-adv-x="599" d="" />
<glyph glyph-name="CR" unicode="&#xd;" horiz-adv-x="599" d="" />
<glyph glyph-name="space" unicode="&#x20;" horiz-adv-x="252" d="" />
<glyph glyph-name="exclam" unicode="&#x21;" horiz-adv-x="240" d="M240 640 L159 640 L80 169 L137 169 L240 640 Z M75 -7 C103 -7 130 16 136 44 C141 71 122 95 95 95 C67 95 39 71 34 44 C28 16 47 -7 75 -7 L75 -7 Z " />
<glyph glyph-name="quotedbl" unicode="&#x22;" horiz-adv-x="310" d="M105 407 L137 405 C172 530 197 567 205 606 C210 633 193 654 167 654 C144 654 121 634 115 610 C107 568 119 532 105 407 L105 407 Z M243 407 L276 405 C310 530 336 567 344 606 C348 633 332 654 306 654 C283 654 259 634 254 610 C246 568 258 532 243 407 L243 407 Z " />
<glyph glyph-name="numbersign" unicode="&#x23;" horiz-adv-x="550" d="M556 397 L566 447 L461 447 L552 643 L501 643 L410 447 L293 447 L384 643 L333 643 L243 447 L125 447 L115 397 L220 397 L149 245 L31 245 L22 195 L126 195 L36 -1 L86 -1 L177 195 L294 195 L203 -1 L254 -1 L345 195 L463 195 L472 245 L368 245 L438 397 L556 397 Z M317 245 L200 245 L270 397 L387 397 L317 245 Z " />
<glyph glyph-name="dollar" unicode="&#x24;" horiz-adv-x="550" d="M340 355 C337 356 334 358 331 359 L376 589 C416 584 444 565 473 532 L532 579 C502 616 461 647 388 653 L405 740 L356 740 L339 653 C248 643 162 581 145 491 C125 384 194 343 272 308 L223 54 C166 59 129 85 101 135 L36 86 C69 34 121 -3 210 -10 L193 -99 L242 -99 L259 -10 C348 -4 452 45 474 163 C493 261 427 319 340 355 L340 355 Z M218 486 C228 537 273 577 326 587 L286 381 C234 409 209 439 218 486 L218 486 Z M398 163 C387 102 329 64 272 55 L317 287 C370 261 411 227 398 163 L398 163 Z " />
<glyph glyph-name="percent" unicode="&#x25;" horiz-adv-x="803" d="M235 373 C318 373 385 435 400 512 C415 589 371 654 286 654 C203 654 137 591 122 515 C106 436 151 373 235 373 L235 373 Z M181 0 L242 0 L651 640 L590 640 L181 0 Z M243 427 C196 427 173 465 182 512 C192 560 229 600 279 600 C328 600 348 561 340 515 C330 467 293 427 243 427 L243 427 Z M554 -12 C637 -12 704 49 719 126 C734 204 690 269 605 269 C522 269 456 206 441 130 C425 51 470 -12 554 -12 L554 -12 Z M562 42 C515 42 492 80 501 126 C511 175 548 215 598 215 C647 215 667 176 659 130 C649 82 612 42 562 42 L562 42 Z " />
<glyph glyph-name="ampersand" unicode="&#x26;" horiz-adv-x="632" d="M581 272 L524 299 C497 260 469 221 439 187 L295 392 C278 418 243 463 257 514 C269 560 307 594 355 594 C389 594 418 573 429 539 L491 570 C471 622 424 655 363 655 C275 655 207 605 186 519 C171 455 192 411 217 374 C110 321 50 243 34 163 C16 70 74 -12 206 -12 C289 -12 359 26 420 81 L485 -14 L548 32 L475 136 C513 180 548 227 581 272 L581 272 Z M212 54 C132 54 97 105 109 165 C120 228 175 289 253 324 L385 132 C332 85 275 54 212 54 L212 54 Z " />
<glyph glyph-name="quotesingle" unicode="&#x27;" horiz-adv-x="171" d="M105 407 L137 405 C172 530 197 567 205 606 C210 633 193 654 167 654 C144 654 121 634 115 610 C107 568 119 532 105 407 L105 407 Z " />
<glyph glyph-name="parenleft" unicode="&#x28;" horiz-adv-x="327" d="M190 -159 L235 -120 C177 -60 115 94 155 298 C193 497 316 655 398 718 L365 760 C272 692 133 522 91 302 C47 74 121 -95 190 -159 L190 -159 Z " />
<glyph glyph-name="parenright" unicode="&#x29;" horiz-adv-x="333" d="M-12 -159 C83 -95 225 74 273 302 C320 522 250 692 184 760 L134 718 C191 655 250 497 208 298 C165 94 40 -60 -42 -120 L-12 -159 Z " />
<glyph glyph-name="asterisk" unicode="&#x2a;" horiz-adv-x="376" d="M399 546 L392 599 L281 565 L303 669 L246 669 L227 566 L131 600 L103 546 L199 514 L114 423 L154 390 L236 480 L283 390 L335 423 L286 513 L399 546 Z " />
<glyph glyph-name="plus" unicode="&#x2b;" horiz-adv-x="509" d="M466 284 L296 284 L329 455 L269 455 L236 284 L65 284 L53 223 L224 223 L191 53 L251 53 L284 223 L455 223 L466 284 Z " />
<glyph glyph-name="comma" unicode="&#x2c;" horiz-adv-x="240" d="M-1 -137 C90 -106 133 -39 143 12 C152 56 136 94 96 94 C62 94 37 71 32 41 C24 4 58 -13 87 -2 C80 -38 48 -76 -9 -101 L-1 -137 Z " />
<glyph glyph-name="hyphen" unicode="&#x2d;" horiz-adv-x="348" d="M53 223 L294 223 L306 284 L65 284 L53 223 Z " />
<glyph glyph-name="period" unicode="&#x2e;" horiz-adv-x="240" d="M75 -7 C103 -7 130 16 136 44 C141 71 122 95 95 95 C67 95 39 71 34 44 C28 16 47 -7 75 -7 L75 -7 Z " />
<glyph glyph-name="slash" unicode="&#x2f;" horiz-adv-x="501" d="M-29 -120 L38 -120 L556 697 L489 697 L-29 -120 Z " />
<glyph glyph-name="zero" unicode="0" horiz-adv-x="534" d="M224 -11 C371 -11 480 122 517 319 C556 518 496 654 347 654 C200 654 92 521 54 325 C16 125 75 -11 224 -11 L224 -11 Z M230 49 C121 49 97 168 126 318 C156 472 228 594 341 594 C452 594 474 475 445 324 C416 171 345 49 230 49 L230 49 Z " />
<glyph glyph-name="one" unicode="1" horiz-adv-x="534" d="M407 640 L162 503 L184 446 L384 560 L277 0 L346 0 L469 640 L407 640 Z " />
<glyph glyph-name="two" unicode="2" horiz-adv-x="534" d="M510 470 C529 570 473 652 343 654 C240 656 168 592 132 547 L178 509 C208 544 259 594 337 594 C410 594 451 540 438 473 C426 409 380 363 332 322 L21 50 L12 0 L435 0 L447 60 L124 60 L381 278 C443 331 494 388 510 470 L510 470 Z " />
<glyph glyph-name="three" unicode="3" horiz-adv-x="534" d="M537 640 L151 640 L140 580 L436 580 L189 351 L208 314 C265 321 303 328 349 307 C390 286 414 243 402 185 C386 111 314 49 214 49 C129 49 89 86 59 126 L8 72 C53 21 111 -11 208 -11 C352 -11 452 69 474 180 C501 308 408 380 290 373 L528 592 L537 640 Z " />
<glyph glyph-name="four" unicode="4" horiz-adv-x="534" d="M494 206 L428 206 L465 400 L396 400 L359 206 L116 206 L446 640 L368 640 L33 196 L24 145 L347 145 L319 0 L388 0 L416 145 L482 145 L494 206 Z " />
<glyph glyph-name="five" unicode="5" horiz-adv-x="534" d="M506 580 L518 640 L219 640 L102 315 L156 288 C174 307 217 333 277 333 C360 332 409 279 393 197 C378 124 311 49 207 49 C133 49 84 87 57 127 L9 72 C41 34 102 -11 204 -11 C349 -11 443 86 465 191 C488 315 410 394 291 393 C249 392 213 382 187 369 L266 580 L506 580 Z " />
<glyph glyph-name="six" unicode="6" horiz-adv-x="534" d="M229 -11 C359 -11 464 81 486 195 C511 324 433 409 316 409 C257 409 226 395 200 375 L437 640 L358 641 C108 360 63 308 42 201 C19 84 89 -11 229 -11 L229 -11 Z M233 49 C149 49 98 113 115 196 C131 280 211 349 296 349 C379 349 430 285 414 202 C397 116 318 49 233 49 L233 49 Z " />
<glyph glyph-name="seven" unicode="7" horiz-adv-x="534" d="M136 640 L124 580 L472 580 L86 0 L164 0 L551 591 L560 640 L136 640 Z " />
<glyph glyph-name="eight" unicode="8" horiz-adv-x="534" d="M515 487 C532 575 469 654 347 654 C228 654 137 578 120 492 C106 421 136 372 195 346 C107 319 48 256 34 180 C17 88 69 -11 224 -11 C377 -11 465 84 482 174 C497 252 462 316 386 345 C455 370 502 416 515 487 L515 487 Z M446 488 C433 422 366 373 293 373 C224 373 176 418 189 482 C202 548 268 594 341 594 C410 594 457 552 446 488 L446 488 Z M411 183 C396 106 317 49 230 49 C147 49 92 102 106 178 C122 255 203 312 287 312 C368 312 425 259 411 183 L411 183 Z " />
<glyph glyph-name="nine" unicode="9" horiz-adv-x="534" d="M343 651 C213 651 107 559 85 445 C60 316 139 231 256 231 C315 231 346 245 371 265 L135 0 L213 -1 C464 280 509 332 530 439 C552 556 482 651 343 651 L343 651 Z M339 591 C422 591 473 527 457 444 C441 360 360 291 276 291 C193 291 142 355 158 438 C174 524 253 591 339 591 L339 591 Z " />
<glyph glyph-name="colon" unicode="&#x3a;" horiz-adv-x="240" d="M144 358 C172 358 199 382 204 409 C210 437 191 460 163 460 C136 460 108 437 103 409 C97 382 116 358 144 358 L144 358 Z M75 -7 C103 -7 130 16 136 44 C141 71 122 95 95 95 C67 95 39 71 34 44 C28 16 47 -7 75 -7 L75 -7 Z " />
<glyph glyph-name="semicolon" unicode="&#x3b;" horiz-adv-x="266" d="M168 358 C195 358 223 382 228 409 C234 437 215 460 187 460 C159 460 132 437 127 409 C121 382 140 358 168 358 L168 358 Z M11 -137 C102 -106 145 -39 155 12 C164 56 148 94 108 94 C74 94 49 71 43 41 C36 4 70 -13 99 -2 C92 -38 60 -76 3 -101 L11 -137 Z " />
<glyph glyph-name="less" unicode="&#x3c;" horiz-adv-x="520" d="M517 484 L71 315 L60 259 L439 89 L454 157 L143 287 L503 416 L517 484 Z " />
<glyph glyph-name="equal" unicode="&#x3d;" horiz-adv-x="509" d="M68 299 L470 299 L481 359 L80 359 L68 299 Z M39 149 L441 149 L453 210 L51 210 L39 149 Z " />
<glyph glyph-name="greater" unicode="&#x3e;" horiz-adv-x="521" d="M105 484 L92 416 L402 287 L41 157 L29 89 L474 259 L485 315 L105 484 Z " />
<glyph glyph-name="question" unicode="&#x3f;" horiz-adv-x="481" d="M183 168 L251 168 L275 289 C354 297 467 347 490 475 C510 586 431 654 320 654 C231 654 167 614 120 566 L163 524 C185 549 235 594 311 594 C384 594 429 545 416 473 C400 381 308 339 216 340 L183 168 Z M184 -7 C211 -7 239 16 244 44 C250 71 231 95 203 95 C176 95 148 71 143 44 C137 16 156 -7 184 -7 L184 -7 Z " />
<glyph glyph-name="at" unicode="&#x40;" horiz-adv-x="777" d="M484 617 C284 617 108 461 64 267 C23 83 118 -45 306 -45 C379 -45 442 -29 501 1 L482 46 C433 21 386 7 315 7 C164 7 86 113 118 260 C155 422 304 565 476 565 C636 565 720 470 681 302 C660 207 592 141 549 141 C519 141 507 158 534 226 L627 447 L574 447 L538 380 C525 428 487 460 428 460 C322 460 225 369 200 261 C174 152 222 86 306 86 C361 86 412 111 454 150 C459 115 491 90 531 90 C619 90 707 175 736 300 C779 487 678 617 484 617 L484 617 Z M337 140 C279 140 255 185 273 262 C291 337 356 406 430 406 C501 406 526 350 501 273 C479 204 409 140 337 140 L337 140 Z " />
<glyph glyph-name="A" unicode="A" horiz-adv-x="634" d="M486 0 L563 0 L432 640 L360 640 L-16 0 L62 0 L170 188 L450 189 L486 0 Z M204 248 L381 556 L439 248 L204 248 Z " />
<glyph glyph-name="B" unicode="B" horiz-adv-x="558" d="M352 355 C431 372 480 418 493 486 C511 581 444 640 319 640 L177 640 L54 0 L222 0 C370 0 468 70 490 181 C508 276 458 342 352 355 L352 355 Z M418 489 C406 425 350 383 277 383 L199 383 L236 582 L318 582 C395 582 430 550 418 489 L418 489 Z M415 191 C400 110 331 58 228 58 L137 58 L186 317 L282 317 C379 317 431 270 415 191 L415 191 Z " />
<glyph glyph-name="C" unicode="C" horiz-adv-x="629" d="M343 -12 C416 -12 487 8 549 46 L519 105 C471 73 414 53 352 53 C197 53 122 175 150 320 C178 466 302 590 459 590 C520 590 568 572 604 539 L653 595 C606 633 543 654 468 654 C272 654 110 508 75 324 C39 136 145 -12 343 -12 L343 -12 Z " />
<glyph glyph-name="D" unicode="D" horiz-adv-x="664" d="M342 640 L177 640 L54 0 L221 0 C449 0 592 142 626 319 C660 497 570 640 342 640 L342 640 Z M552 323 C520 162 406 58 216 58 L137 58 L238 582 L320 582 C509 582 582 481 552 323 L552 323 Z " />
<glyph glyph-name="E" unicode="E" horiz-adv-x="529" d="M531 577 L543 640 L177 640 L54 0 L420 0 L432 63 L138 63 L182 290 L426 290 L438 350 L193 350 L237 577 L531 577 Z " />
<glyph glyph-name="F" unicode="F" horiz-adv-x="504" d="M531 577 L543 640 L177 640 L54 0 L126 0 L182 290 L426 290 L437 350 L193 350 L237 577 L531 577 Z " />
<glyph glyph-name="G" unicode="G" horiz-adv-x="732" d="M441 340 L430 279 L620 279 C594 142 480 53 349 53 C194 53 122 176 150 321 C178 467 299 590 462 590 C545 590 593 558 609 541 L659 596 C634 621 565 654 471 654 C269 654 110 509 75 325 C39 138 140 -11 341 -11 C538 -11 666 135 696 288 L706 340 L441 340 Z " />
<glyph glyph-name="H" unicode="H" horiz-adv-x="683" d="M595 640 L542 362 L196 362 L249 640 L177 640 L54 0 L126 0 L184 303 L530 303 L472 0 L544 0 L667 640 L595 640 Z " />
<glyph glyph-name="I" unicode="I" horiz-adv-x="283" d="M259 640 L187 640 L62 0 L134 0 L259 640 Z " />
<glyph glyph-name="J" unicode="J" horiz-adv-x="439" d="M146 -11 C235 -11 324 42 352 184 L440 640 L368 640 L280 181 C264 98 216 53 153 53 C117 53 89 65 64 105 L11 49 C44 12 84 -11 146 -11 L146 -11 Z " />
<glyph glyph-name="K" unicode="K" horiz-adv-x="612" d="M628 640 L534 640 L196 365 L249 640 L177 640 L54 0 L126 0 L186 313 L426 0 L523 0 L259 340 L628 640 Z " />
<glyph glyph-name="L" unicode="L" horiz-adv-x="490" d="M138 63 L249 640 L177 640 L54 0 L401 0 L413 63 L138 63 Z " />
<glyph glyph-name="M" unicode="M" horiz-adv-x="823" d="M744 640 L424 291 L240 638 L240 640 L177 640 L54 0 L126 0 L225 515 L404 181 L711 514 L612 0 L684 0 L807 640 L744 640 Z " />
<glyph glyph-name="N" unicode="N" horiz-adv-x="712" d="M626 640 L525 120 L245 640 L177 640 L54 0 L124 0 L224 524 L505 0 L573 0 L696 640 L626 640 Z " />
<glyph glyph-name="O" unicode="O" horiz-adv-x="779" d="M350 -11 C546 -11 707 134 742 317 C778 505 669 654 467 654 C272 654 111 510 75 327 C39 139 148 -11 350 -11 L350 -11 Z M352 53 C197 53 122 174 150 317 C179 466 306 590 466 590 C620 590 696 471 667 327 C639 179 511 53 352 53 L352 53 Z " />
<glyph glyph-name="P" unicode="P" horiz-adv-x="530" d="M362 640 L177 640 L54 0 L126 0 L178 270 L294 270 C390 270 508 329 532 452 C556 578 458 640 362 640 L362 640 Z M456 458 C441 375 373 328 272 328 L189 328 L238 582 L323 582 C425 582 472 538 456 458 L456 458 Z " />
<glyph glyph-name="Q" unicode="Q" horiz-adv-x="776" d="M742 317 C778 505 669 654 467 654 C272 654 111 510 75 327 C39 139 148 -11 350 -11 L354 -11 L638 -131 L679 -62 L473 9 C610 54 715 174 742 317 L742 317 Z M352 53 C197 53 122 174 150 317 C179 466 306 590 466 590 C620 590 696 471 667 327 C639 179 511 53 352 53 L352 53 Z " />
<glyph glyph-name="R" unicode="R" horiz-adv-x="559" d="M524 461 C544 566 469 640 350 640 L177 640 L54 0 L126 0 L182 291 L242 291 L397 0 L484 0 L321 293 C408 302 504 357 524 461 L524 461 Z M449 465 C435 390 371 350 281 350 L193 350 L238 581 L320 581 C419 581 463 539 449 465 L449 465 Z " />
<glyph glyph-name="S" unicode="S" horiz-adv-x="533" d="M222 -11 C315 -11 432 36 457 163 C476 261 409 319 323 355 C235 393 188 425 200 486 C212 546 271 590 336 590 C388 590 421 571 455 532 L514 579 C481 620 434 654 345 654 C245 654 146 589 127 491 C104 371 195 334 283 295 C344 267 394 233 380 163 C367 92 292 53 227 53 C158 53 115 79 83 135 L18 86 C55 28 114 -11 222 -11 L222 -11 Z " />
<glyph glyph-name="T" unicode="T" horiz-adv-x="540" d="M568 640 L135 640 L122 577 L304 577 L193 0 L265 0 L376 577 L555 577 L568 640 Z " />
<glyph glyph-name="U" unicode="U" horiz-adv-x="626" d="M270 -11 C407 -11 515 65 550 244 L626 640 L554 640 L480 255 C453 113 375 53 278 53 C183 53 130 111 158 253 L233 640 L161 640 L84 246 C50 66 130 -11 270 -11 L270 -11 Z " />
<glyph glyph-name="V" unicode="V" horiz-adv-x="614" d="M588 640 L282 93 L188 640 L109 640 L234 0 L296 0 L668 640 L588 640 Z " />
<glyph glyph-name="W" unicode="W" horiz-adv-x="943" d="M909 640 L639 103 L584 640 L523 640 L259 103 L196 640 L121 640 L210 0 L268 0 L535 545 L591 0 L649 0 L985 640 L909 640 Z " />
<glyph glyph-name="X" unicode="X" horiz-adv-x="624" d="M648 640 L564 640 L342 380 L222 640 L137 640 L289 324 L2 0 L91 0 L321 268 L448 0 L535 0 L374 323 L648 640 Z " />
<glyph glyph-name="Y" unicode="Y" horiz-adv-x="576" d="M630 640 L546 640 L317 371 L193 640 L109 640 L268 302 L210 0 L282 0 L339 300 L630 640 Z " />
<glyph glyph-name="Z" unicode="Z" horiz-adv-x="567" d="M571 640 L153 640 L141 577 L466 577 L22 54 L12 0 L468 0 L479 63 L113 63 L561 586 L571 640 Z " />
<glyph glyph-name="bracketleft" unicode="&#x5b;" horiz-adv-x="310" d="M364 756 L199 756 L22 -156 L188 -156 L198 -102 L95 -102 L252 702 L355 702 L364 756 Z " />
<glyph glyph-name="backslash" unicode="&#x5c;" horiz-adv-x="501" d="M397 -120 L197 697 L130 697 L330 -120 L397 -120 Z " />
<glyph glyph-name="bracketright" unicode="&#x5d;" horiz-adv-x="309" d="M152 756 L140 702 L243 702 L87 -102 L-15 -102 L-26 -156 L139 -156 L317 756 L152 756 Z " />
<glyph glyph-name="asciicircum" unicode="&#x5e;" horiz-adv-x="512" d="M477 326 L367 643 L307 643 L76 326 L148 326 L327 581 L409 326 L477 326 Z " />
<glyph glyph-name="underscore" unicode="&#x5f;" horiz-adv-x="467" d="M-64 -108 L402 -108 L410 -69 L-57 -69 L-64 -108 Z " />
<glyph glyph-name="grave" unicode="&#x60;" horiz-adv-x="287" d="M189 561 C228 512 246 510 269 510 L303 510 L198 660 L122 647 L189 561 Z " />
<glyph glyph-name="a" unicode="a" horiz-adv-x="562" d="M478 449 L454 376 C430 428 380 459 309 459 C191 459 77 367 46 222 C17 80 90 -10 206 -10 C282 -10 348 25 395 81 L391 0 L448 0 L536 449 L478 449 Z M237 50 C144 50 98 127 119 226 C139 324 216 400 307 400 C403 400 450 322 428 222 C408 125 331 50 237 50 L237 50 Z " />
<glyph glyph-name="b" unicode="b" horiz-adv-x="556" d="M343 459 C275 459 216 430 171 383 L228 680 L159 680 L27 0 L83 0 L107 75 C133 22 183 -10 256 -10 C372 -10 482 80 510 222 C537 367 461 459 343 459 L343 459 Z M438 226 C420 127 342 50 249 50 C155 50 108 125 128 222 C147 322 225 400 321 400 C412 400 458 324 438 226 L438 226 Z " />
<glyph glyph-name="c" unicode="c" horiz-adv-x="453" d="M233 -11 C291 -11 346 7 391 38 L358 89 C325 64 285 48 241 48 C142 48 98 124 117 222 C137 322 212 400 313 400 C355 400 389 385 411 361 L461 408 C427 440 381 459 321 459 C184 459 71 355 46 226 C22 95 94 -11 233 -11 L233 -11 Z " />
<glyph glyph-name="d" unicode="d" horiz-adv-x="560" d="M509 680 L449 383 C423 430 374 459 306 459 C189 459 76 367 46 222 C18 80 92 -10 208 -10 C280 -10 344 22 390 74 L385 0 L442 0 L578 680 L509 680 Z M239 50 C145 50 98 127 119 226 C138 324 214 400 305 400 C401 400 449 322 428 222 C409 125 333 50 239 50 L239 50 Z " />
<glyph glyph-name="e" unicode="e" horiz-adv-x="505" d="M311 459 C183 459 72 357 47 230 C22 97 95 -11 238 -11 C311 -11 380 15 428 63 L383 108 C347 70 298 48 239 48 C143 48 101 120 118 214 L237 214 C368 214 468 244 473 336 C477 406 402 459 311 459 L311 459 Z M408 333 C404 279 315 264 233 264 L132 264 C163 343 231 401 310 401 C372 401 410 369 408 333 L408 333 Z " />
<glyph glyph-name="f" unicode="f" horiz-adv-x="337" d="M335 634 C350 634 366 631 388 616 L422 665 C394 683 372 694 330 694 C265 694 198 653 180 557 L159 447 L90 447 L79 389 L147 389 L31 -210 L101 -210 L217 389 L328 389 L338 447 L229 447 L249 552 C259 600 284 634 335 634 L335 634 Z " />
<glyph glyph-name="g" unicode="g" horiz-adv-x="561" d="M476 447 L453 377 C429 428 380 459 309 459 C191 459 77 367 46 222 C17 80 90 -10 206 -10 C280 -10 345 23 392 78 L384 37 C361 -87 304 -150 203 -150 C178 -150 154 -145 133 -135 L106 -196 C130 -204 162 -210 197 -210 C339 -210 423 -125 454 34 L533 447 L476 447 Z M237 50 C144 50 98 127 119 226 C139 324 216 400 307 400 C403 400 450 322 428 222 C408 125 331 50 237 50 L237 50 Z " />
<glyph glyph-name="h" unicode="h" horiz-adv-x="518" d="M325 459 C260 459 207 430 171 388 L228 680 L159 680 L27 0 L96 0 L149 274 C173 364 241 399 303 399 C379 399 405 345 389 262 L338 0 L408 0 L460 272 C487 415 405 459 325 459 L325 459 Z " />
<glyph glyph-name="i" unicode="i" horiz-adv-x="240" d="M183 546 C210 546 238 569 243 597 C249 625 230 648 203 648 C175 648 147 625 142 597 C136 569 155 546 183 546 L183 546 Z M42 0 L111 0 L198 447 L129 447 L42 0 Z " />
<glyph glyph-name="j" unicode="j" horiz-adv-x="262" d="M204 546 C231 546 259 569 264 597 C270 625 251 648 224 648 C196 648 168 625 163 597 C157 569 176 546 204 546 L204 546 Z M124 -48 L219 447 L150 447 L54 -47 C41 -118 10 -159 -76 -149 L-85 -207 C-8 -219 94 -203 124 -48 L124 -48 Z " />
<glyph glyph-name="k" unicode="k" horiz-adv-x="472" d="M477 447 L381 447 L149 269 L228 680 L159 680 L28 0 L97 0 L139 219 L323 0 L418 0 L211 245 L477 447 Z " />
<glyph glyph-name="l" unicode="l" horiz-adv-x="218" d="M31 0 L100 0 L232 680 L163 680 L31 0 Z " />
<glyph glyph-name="m" unicode="m" horiz-adv-x="776" d="M593 459 C516 459 469 429 431 377 C412 438 360 459 310 459 C257 459 205 433 170 385 L174 447 L114 447 L29 0 L98 0 L147 257 C169 348 223 399 290 399 C359 399 379 343 363 261 L313 0 L382 0 L429 246 L429 241 C447 342 502 399 573 399 C645 399 663 343 647 260 L597 0 L666 0 L716 261 C745 414 669 459 593 459 L593 459 Z " />
<glyph glyph-name="n" unicode="n" horiz-adv-x="519" d="M326 459 C261 459 206 430 171 386 L174 447 L114 447 L29 0 L98 0 L152 279 C177 366 243 399 304 399 C380 399 406 345 390 262 L339 0 L409 0 L461 272 C488 415 407 459 326 459 L326 459 Z " />
<glyph glyph-name="o" unicode="o" horiz-adv-x="562" d="M238 -11 C375 -11 491 93 516 222 C541 353 465 459 325 459 C187 459 71 355 46 226 C22 94 98 -11 238 -11 L238 -11 Z M246 49 C151 49 100 125 119 222 C138 321 221 399 317 399 C411 399 462 322 443 226 C424 127 341 49 246 49 L246 49 Z " />
<glyph glyph-name="p" unicode="p" horiz-adv-x="558" d="M345 459 C274 459 212 428 167 376 L174 447 L114 447 L-14 -210 L55 -210 L110 72 C136 21 187 -10 258 -10 C374 -10 484 80 511 222 C539 367 463 459 345 459 L345 459 Z M440 226 C422 127 344 50 251 50 C157 50 110 125 130 222 C148 322 227 400 322 400 C414 400 460 324 440 226 L440 226 Z " />
<glyph glyph-name="q" unicode="q" horiz-adv-x="558" d="M471 447 L451 376 C426 428 376 459 305 459 C187 459 75 367 46 222 C18 80 93 -10 209 -10 C280 -10 342 21 388 72 L334 -210 L404 -210 L531 447 L471 447 Z M239 50 C146 50 99 127 119 226 C137 324 212 400 304 400 C400 400 448 322 428 222 C409 125 333 50 239 50 L239 50 Z " />
<glyph glyph-name="r" unicode="r" horiz-adv-x="331" d="M312 459 C259 459 204 422 168 376 L173 447 L114 447 L29 0 L98 0 L149 269 L147 256 C163 342 219 393 294 393 C309 393 320 390 331 387 L357 455 C345 457 333 459 312 459 L312 459 Z " />
<glyph glyph-name="s" unicode="s" horiz-adv-x="422" d="M6 68 C26 23 85 -11 163 -11 C264 -11 340 38 354 116 C387 287 130 208 153 328 C161 369 197 398 257 399 C292 400 326 385 348 358 L397 400 C374 432 327 459 263 459 C168 459 98 408 82 329 C49 157 304 230 282 119 C274 78 234 49 169 49 C122 49 86 67 65 107 L6 68 Z " />
<glyph glyph-name="t" unicode="t" horiz-adv-x="334" d="M338 447 L228 447 L253 576 L184 576 L159 447 L90 447 L79 389 L148 389 L73 0 L142 0 L217 389 L328 389 L338 447 Z " />
<glyph glyph-name="u" unicode="u" horiz-adv-x="512" d="M212 -12 C302 -12 409 31 438 184 L489 447 L419 447 L369 186 C353 101 298 48 220 48 C145 48 113 99 129 184 L179 447 L110 447 L60 186 C30 33 121 -12 212 -12 L212 -12 Z " />
<glyph glyph-name="v" unicode="v" horiz-adv-x="480" d="M430 447 L213 82 L136 447 L62 447 L169 0 L226 0 L506 447 L430 447 Z " />
<glyph glyph-name="w" unicode="w" horiz-adv-x="729" d="M674 447 L480 90 L437 447 L377 447 L198 90 L141 447 L68 447 L153 0 L210 0 L392 364 L434 0 L491 0 L749 447 L674 447 Z " />
<glyph glyph-name="x" unicode="x" horiz-adv-x="466" d="M470 447 L387 447 L243 285 L162 447 L84 447 L196 235 L-21 0 L63 0 L226 182 L319 0 L400 0 L273 232 L470 447 Z " />
<glyph glyph-name="y" unicode="y" horiz-adv-x="479" d="M428 447 L213 93 L135 447 L62 447 L163 13 L22 -210 L96 -210 L504 447 L428 447 Z " />
<glyph glyph-name="z" unicode="z" horiz-adv-x="472" d="M452 447 L105 447 L93 386 L354 386 L14 52 L5 0 L384 0 L395 61 L106 61 L441 391 L452 447 Z " />
<glyph glyph-name="braceleft" unicode="&#x7b;" horiz-adv-x="345" d="M359 756 C302 756 245 704 233 645 L187 404 C176 350 129 327 95 323 L91 300 L86 277 C118 273 156 250 146 196 L99 -45 C88 -104 125 -156 182 -156 L245 -156 L255 -102 L221 -102 C181 -102 154 -86 163 -40 L210 201 C221 260 185 292 155 300 C189 308 237 340 248 399 L295 640 C304 686 338 702 378 702 L412 702 L422 756 L359 756 Z " />
<glyph glyph-name="bar" unicode="&#x7c;" horiz-adv-x="272" d="M201 710 L31 -160 L91 -160 L261 710 L201 710 Z " />
<glyph glyph-name="braceright" unicode="&#x7d;" horiz-adv-x="344" d="M227 404 L275 645 C286 704 249 756 192 756 L129 756 L118 702 L152 702 C192 702 219 686 211 640 L164 399 C152 340 188 308 219 300 C186 292 137 260 125 201 L78 -40 C70 -86 36 -102 -3 -102 L-38 -102 L-49 -156 L14 -156 C71 -156 129 -104 140 -45 L188 196 C198 250 245 273 278 277 L288 323 C255 327 217 350 227 404 L227 404 Z " />
<glyph glyph-name="asciitilde" unicode="&#x7e;" horiz-adv-x="456" d="M292 232 C355 232 399 286 419 310 L377 340 C357 316 340 293 303 293 C257 293 253 343 189 343 C129 343 90 298 63 272 L102 233 C118 252 140 282 178 282 C228 282 229 232 292 232 L292 232 Z " />
<glyph glyph-name="uni00A0" unicode="&#xa0;" horiz-adv-x="252" d="" />
<glyph glyph-name="exclamdown" unicode="&#xa1;" horiz-adv-x="230" d="M155 459 C128 459 100 436 95 408 C89 381 108 358 135 358 C163 358 191 381 196 408 C202 436 183 459 155 459 L155 459 Z M-10 -188 L72 -188 L150 283 L93 283 L-10 -188 Z " />
<glyph glyph-name="cent" unicode="&#xa2;" horiz-adv-x="470" d="M332 556 L349 640 L303 640 L286 554 C165 537 70 439 48 322 C26 205 81 107 193 88 L175 0 L220 0 L237 85 C294 86 348 104 392 135 L359 185 C328 162 290 146 249 144 L320 496 C359 495 391 481 412 457 L462 504 C430 534 387 554 332 556 L332 556 Z M119 319 C135 404 193 474 273 492 L205 148 C132 165 102 234 119 319 L119 319 Z " />
<glyph glyph-name="sterling" unicode="&#xa3;" horiz-adv-x="555" d="M424 654 C310 654 211 581 183 439 L160 318 L73 318 L64 271 L151 271 L110 59 L21 51 L12 0 L439 0 L451 60 L180 60 L221 271 L430 271 L439 318 L230 318 L253 438 C273 542 338 594 417 594 C461 594 493 579 517 549 L565 598 C530 634 487 654 424 654 L424 654 Z " />
<glyph glyph-name="currency" unicode="&#xa4;" horiz-adv-x="550" d="M551 505 L517 547 L437 480 C410 502 373 516 329 516 C287 516 246 503 211 480 L157 547 L107 505 L161 438 C133 407 113 369 105 328 C97 286 103 246 120 214 L39 147 L73 105 L152 172 C180 148 217 134 261 134 C303 134 343 147 378 169 L433 104 L482 148 L428 210 C456 242 477 280 485 322 C493 365 488 405 471 437 L551 505 Z M170 322 C185 397 251 457 324 457 C392 457 435 401 420 328 C406 253 340 194 267 194 C198 194 157 250 170 322 L170 322 Z " />
<glyph glyph-name="yen" unicode="&#xa5;" horiz-adv-x="635" d="M659 640 L577 640 L343 362 L218 640 L138 640 L279 341 L155 341 L146 294 L296 294 L282 222 L132 222 L123 175 L273 175 L240 0 L312 0 L345 175 L495 175 L504 222 L354 222 L368 294 L517 294 L526 341 L401 341 L659 640 Z " />
<glyph glyph-name="brokenbar" unicode="&#xa6;" horiz-adv-x="252" d="M174 625 L119 340 L179 340 L234 625 L174 625 Z M93 210 L38 -75 L98 -75 L153 210 L93 210 Z " />
<glyph glyph-name="section" unicode="&#xa7;" horiz-adv-x="485" d="M310 396 C225 444 190 477 200 520 C209 565 256 600 312 600 C357 599 392 574 407 554 L456 599 C435 623 384 655 316 654 C215 653 152 593 138 522 C128 475 146 441 171 414 C117 390 83 346 72 294 C52 189 149 134 203 98 C277 56 298 25 287 -21 C277 -65 231 -102 157 -102 C94 -101 51 -64 37 -35 L-14 -80 C8 -114 68 -160 148 -160 C242 -160 328 -118 350 -26 C361 23 351 59 324 89 C371 114 404 155 417 209 C433 281 395 346 310 396 L310 396 Z M354 216 C345 179 318 146 273 130 L261 137 C162 202 124 245 136 296 C143 333 178 363 223 375 C234 368 244 362 253 357 C342 303 367 270 354 216 L354 216 Z " />
<glyph glyph-name="dieresis" unicode="&#xa8;" horiz-adv-x="372" d="M158 615 C133 615 112 596 107 572 C102 543 118 522 145 522 C169 522 193 541 199 566 C203 594 185 615 158 615 L158 615 Z M358 615 C333 615 312 596 307 572 C302 543 317 522 345 522 C369 522 393 541 399 566 C403 594 385 615 358 615 L358 615 Z " />
<glyph glyph-name="copyright" unicode="&#xa9;" horiz-adv-x="775" d="M341 -11 C533 -11 703 138 738 322 C774 505 663 654 471 654 C276 654 110 505 74 322 C39 138 147 -11 341 -11 L341 -11 Z M350 35 C179 35 93 166 123 322 C153 477 290 608 462 608 C631 608 720 477 690 322 C659 166 518 35 350 35 L350 35 Z M373 121 C418 121 460 134 497 157 L477 201 C454 186 420 175 384 175 C300 175 260 242 275 322 C291 400 357 466 441 466 C478 466 507 455 523 441 L561 486 C533 509 496 522 451 522 C333 522 235 433 213 322 C192 210 255 121 373 121 L373 121 Z " />
<glyph glyph-name="ordfeminine" unicode="&#xaa;" horiz-adv-x="425" d="M412 650 L393 587 C377 629 340 655 285 655 C199 655 118 591 98 488 C78 384 135 318 224 318 C277 318 321 337 353 377 L349 323 L398 323 L461 650 L412 650 Z M243 373 C181 373 150 421 162 484 C175 550 227 600 291 600 C357 600 391 551 379 488 C367 423 311 373 243 373 L243 373 Z M60 213 L376 213 L386 264 L70 264 L60 213 Z " />
<glyph glyph-name="guillemotleft" unicode="&#xab;" horiz-adv-x="455" d="M306 420 L237 420 L50 242 L162 64 L231 64 L115 242 L306 420 Z M447 420 L378 420 L191 242 L303 64 L372 64 L256 242 L447 420 Z " />
<glyph glyph-name="logicalnot" unicode="&#xac;" horiz-adv-x="459" d="M69 303 L365 303 L341 183 L397 183 L431 359 L79 359 L69 303 Z " />
<glyph glyph-name="uni00AD" unicode="&#xad;" horiz-adv-x="348" d="M53 223 L294 223 L306 284 L65 284 L53 223 Z " />
<glyph glyph-name="registered" unicode="&#xae;" horiz-adv-x="492" d="M328 654 C208 654 106 564 85 452 C63 336 131 244 253 244 C373 244 474 335 496 448 C518 562 451 654 328 654 L328 654 Z M464 452 C446 356 361 276 254 276 C150 276 98 354 116 448 C135 543 218 622 325 622 C429 622 482 544 464 452 L464 452 Z M320 559 L234 559 L191 337 L232 337 L249 427 L260 427 L308 337 L362 337 L308 429 C341 433 374 453 381 491 C390 537 356 559 320 559 L320 559 Z M334 492 C330 473 314 463 292 463 L256 463 L267 520 L305 520 C327 520 337 511 334 492 L334 492 Z " />
<glyph glyph-name="macron" unicode="&#xaf;" horiz-adv-x="346" d="M123 649 L388 649 L398 698 L133 698 L123 649 Z " />
<glyph glyph-name="degree" unicode="&#xb0;" horiz-adv-x="355" d="M259 654 C184 654 112 593 97 519 C83 442 133 380 209 380 C284 380 356 440 371 515 C386 592 336 654 259 654 L259 654 Z M216 430 C171 430 141 468 151 515 C160 564 206 603 253 603 C298 603 328 565 319 519 C309 470 263 430 216 430 L216 430 Z " />
<glyph glyph-name="plusminus" unicode="&#xb1;" horiz-adv-x="509" d="M303 318 L336 489 L275 489 L242 318 L72 318 L60 258 L230 258 L197 88 L258 88 L291 258 L461 258 L473 318 L303 318 Z M10 0 L411 0 L423 60 L21 60 L10 0 Z " />
<glyph glyph-name="uni00B2" unicode="&#xb2;" horiz-adv-x="369" d="M393 631 C407 703 359 750 284 750 C218 750 162 703 138 674 L177 638 C198 661 231 698 277 698 C321 698 337 669 329 634 C323 599 297 575 270 553 L85 394 L80 360 L346 360 L356 412 L191 412 L324 524 C358 553 384 587 393 631 L393 631 Z " />
<glyph glyph-name="uni00B3" unicode="&#xb3;" horiz-adv-x="378" d="M408 740 L163 740 L153 688 L308 688 L173 567 L190 528 C228 541 261 542 281 532 C306 519 316 500 307 468 C299 429 262 402 208 402 C160 402 136 425 119 447 L76 405 C111 370 145 350 204 350 C295 350 356 399 370 465 C386 543 326 585 253 581 L403 713 L408 740 Z " />
<glyph glyph-name="acute" unicode="&#xb4;" horiz-adv-x="279" d="M227 561 L322 647 L251 660 L95 510 L129 510 C152 510 171 512 227 561 L227 561 Z " />
<glyph glyph-name="uni00B5" unicode="&#xb5;" horiz-adv-x="522" d="M424 447 L375 191 C345 87 278 48 218 48 C142 48 117 103 134 186 L183 447 L114 447 L62 176 C62 174 61 172 61 170 L-8 -190 L52 -190 L103 35 C130 6 166 -12 205 -12 C253 -12 309 11 351 67 L348 0 L408 0 L493 447 L424 447 Z " />
<glyph glyph-name="paragraph" unicode="&#xb6;" horiz-adv-x="488" d="M472 640 L266 640 C184 640 110 569 92 475 C74 379 122 306 204 306 L209 306 L121 -150 L176 -150 L319 591 L408 591 L265 -150 L320 -150 L472 640 Z " />
<glyph glyph-name="periodcentered" unicode="&#xb7;" horiz-adv-x="242" d="M122 225 C149 225 177 248 182 275 C188 303 169 326 141 326 C114 326 86 303 81 275 C75 248 94 225 122 225 L122 225 Z " />
<glyph glyph-name="cedilla" unicode="&#xb8;" horiz-adv-x="349" d="M176 -46 C153 -43 132 -49 123 -53 L188 6 L193 20 L159 20 L64 -67 L80 -88 C120 -73 171 -76 157 -111 C149 -130 126 -152 82 -151 C53 -149 31 -140 24 -133 L-10 -171 C0 -180 29 -193 72 -193 C143 -193 198 -159 215 -115 C232 -71 209 -49 176 -46 L176 -46 Z " />
<glyph glyph-name="uni00B9" unicode="&#xb9;" horiz-adv-x="283" d="M231 740 L230 739 L230 740 L97 665 L115 619 L214 674 L154 360 L214 360 L288 740 L231 740 Z " />
<glyph glyph-name="ordmasculine" unicode="&#xba;" horiz-adv-x="435" d="M238 317 C338 317 421 391 439 484 C457 577 402 655 299 655 C199 655 116 578 98 488 C80 393 135 317 238 317 L238 317 Z M245 372 C181 372 151 424 163 484 C174 547 227 600 292 600 C355 600 386 549 374 488 C363 425 310 372 245 372 L245 372 Z M54 213 L377 213 L387 264 L64 264 L54 213 Z " />
<glyph glyph-name="guillemotright" unicode="&#xbb;" horiz-adv-x="452" d="M153 420 L85 420 L203 242 L16 64 L84 64 L268 242 L153 420 Z M294 420 L226 420 L344 242 L157 64 L225 64 L409 242 L294 420 Z " />
<glyph glyph-name="questiondown" unicode="&#xbf;" horiz-adv-x="425" d="M277 460 C250 460 222 437 217 409 C211 382 230 359 257 359 C285 359 313 382 318 409 C324 437 305 460 277 460 L277 460 Z M278 285 L210 285 L186 164 C107 156 -6 106 -29 -22 C-49 -133 30 -201 141 -201 C230 -201 293 -161 341 -112 L298 -71 C276 -96 226 -141 150 -141 C77 -141 32 -92 45 -20 C61 72 153 114 245 113 L278 285 Z " />
<glyph glyph-name="Agrave" unicode="&#xc0;" horiz-adv-x="634" d="M469 690 L503 690 L397 840 L322 827 L388 741 C427 692 446 690 469 690 L469 690 Z M486 0 L563 0 L432 640 L360 640 L-16 0 L62 0 L170 188 L450 189 L486 0 Z M204 248 L381 556 L439 248 L204 248 Z " />
<glyph glyph-name="Aacute" unicode="&#xc1;" horiz-adv-x="634" d="M466 741 L561 827 L490 840 L334 690 L368 690 C391 690 410 692 466 741 L466 741 Z M486 0 L563 0 L432 640 L360 640 L-16 0 L62 0 L170 188 L450 189 L486 0 Z M204 248 L381 556 L439 248 L204 248 Z " />
<glyph glyph-name="Acircumflex" unicode="&#xc2;" horiz-adv-x="634" d="M362 710 L419 757 L458 710 C470 696 477 691 497 691 L544 691 L460 804 L396 804 L268 691 L315 691 C336 691 345 697 362 710 L362 710 Z M486 0 L563 0 L432 640 L360 640 L-16 0 L62 0 L170 188 L450 189 L486 0 Z M204 248 L381 556 L439 248 L204 248 Z " />
<glyph glyph-name="Atilde" unicode="&#xc3;" horiz-adv-x="634" d="M366 736 C407 736 416 694 469 694 C521 694 549 740 562 760 L522 785 C510 765 499 746 468 746 C429 746 419 787 365 787 C315 787 290 749 271 728 L310 696 C320 711 335 736 366 736 L366 736 Z M486 0 L563 0 L432 640 L360 640 L-16 0 L62 0 L170 188 L450 189 L486 0 Z M204 248 L381 556 L439 248 L204 248 Z " />
<glyph glyph-name="Adieresis" unicode="&#xc4;" horiz-adv-x="634" d="M311 702 C335 702 359 721 365 746 C369 774 351 795 324 795 C299 795 278 776 273 752 C268 723 283 702 311 702 L311 702 Z M524 795 C499 795 478 776 473 752 C467 723 483 702 511 702 C535 702 559 721 564 746 C569 774 551 795 524 795 L524 795 Z M360 640 L-16 0 L62 0 L170 188 L450 189 L486 0 L563 0 L432 640 L360 640 Z M204 248 L381 556 L439 248 L204 248 Z " />
<glyph glyph-name="Aring" unicode="&#xc5;" horiz-adv-x="634" d="M407 677 C458 677 508 718 518 767 C528 820 492 863 438 863 C386 863 336 821 327 772 C317 719 353 677 407 677 L407 677 Z M365 767 C371 799 402 823 435 823 C465 823 484 800 479 772 C473 740 442 715 409 715 C379 715 359 739 365 767 L365 767 Z M486 0 L563 0 L432 640 L360 640 L-16 0 L62 0 L170 188 L450 189 L486 0 Z M204 248 L381 556 L439 248 L204 248 Z " />
<glyph glyph-name="AE" unicode="&#xc6;" horiz-adv-x="812" d="M815 580 L827 643 L361 643 L-16 0 L62 0 L167 188 L402 188 L415 0 L703 0 L715 63 L485 63 L464 289 L708 289 L720 349 L458 349 L437 580 L815 580 Z M201 248 L377 563 L398 248 L201 248 Z " />
<glyph glyph-name="Ccedilla" unicode="&#xc7;" horiz-adv-x="629" d="M459 590 C520 590 568 572 604 539 L653 595 C606 633 543 654 468 654 C272 654 110 508 75 324 C42 153 127 15 292 -9 L228 -68 L243 -89 C283 -74 334 -77 320 -112 C313 -131 289 -153 245 -152 C217 -150 195 -141 187 -134 L153 -172 C163 -181 193 -194 236 -194 C306 -194 361 -160 378 -116 C395 -72 372 -50 339 -47 C316 -44 296 -50 286 -54 L332 -12 L343 -12 C416 -12 487 8 549 46 L519 105 C471 73 414 53 352 53 C197 53 122 175 150 320 C178 466 302 590 459 590 L459 590 Z " />
<glyph glyph-name="Egrave" unicode="&#xc8;" horiz-adv-x="529" d="M429 690 L463 690 L357 840 L282 827 L348 741 C387 692 406 690 429 690 L429 690 Z M531 577 L543 640 L177 640 L54 0 L420 0 L432 63 L138 63 L182 290 L426 290 L438 350 L193 350 L237 577 L531 577 Z " />
<glyph glyph-name="Eacute" unicode="&#xc9;" horiz-adv-x="529" d="M425 741 L520 827 L449 840 L293 690 L327 690 C350 690 369 692 425 741 L425 741 Z M531 577 L543 640 L177 640 L54 0 L420 0 L432 63 L138 63 L182 290 L426 290 L438 350 L193 350 L237 577 L531 577 Z " />
<glyph glyph-name="Ecircumflex" unicode="&#xca;" horiz-adv-x="529" d="M322 710 L379 757 L418 710 C430 696 437 691 457 691 L504 691 L420 804 L356 804 L228 691 L275 691 C296 691 305 697 322 710 L322 710 Z M531 577 L543 640 L177 640 L54 0 L420 0 L432 63 L138 63 L182 290 L426 290 L438 350 L193 350 L237 577 L531 577 Z " />
<glyph glyph-name="Edieresis" unicode="&#xcb;" horiz-adv-x="529" d="M271 702 C295 702 319 721 325 746 C329 774 311 795 284 795 C259 795 238 776 233 752 C228 723 243 702 271 702 L271 702 Z M471 702 C495 702 519 721 524 746 C529 774 511 795 484 795 C459 795 438 776 433 752 C427 723 443 702 471 702 L471 702 Z M531 577 L543 640 L177 640 L54 0 L420 0 L432 63 L138 63 L182 290 L426 290 L438 350 L193 350 L237 577 L531 577 Z " />
<glyph glyph-name="Igrave" unicode="&#xcc;" horiz-adv-x="283" d="M213 741 C252 692 271 690 294 690 L328 690 L222 840 L147 827 L213 741 Z M259 640 L187 640 L62 0 L134 0 L259 640 Z " />
<glyph glyph-name="Iacute" unicode="&#xcd;" horiz-adv-x="283" d="M290 741 L385 827 L314 840 L158 690 L192 690 C215 690 234 692 290 741 L290 741 Z M259 640 L187 640 L62 0 L134 0 L259 640 Z " />
<glyph glyph-name="Icircumflex" unicode="&#xce;" horiz-adv-x="283" d="M284 804 L220 804 L92 691 L139 691 C160 691 169 697 186 710 L243 757 L282 710 C294 696 301 691 321 691 L368 691 L284 804 Z M259 640 L187 640 L62 0 L134 0 L259 640 Z " />
<glyph glyph-name="Idieresis" unicode="&#xcf;" horiz-adv-x="283" d="M149 795 C124 795 103 776 98 752 C93 723 108 702 136 702 C160 702 184 721 190 746 C194 774 176 795 149 795 L149 795 Z M349 795 C324 795 303 776 298 752 C292 723 308 702 336 702 C360 702 384 721 389 746 C394 774 376 795 349 795 L349 795 Z M259 640 L187 640 L62 0 L134 0 L259 640 Z " />
<glyph glyph-name="Eth" unicode="&#xd0;" horiz-adv-x="664" d="M342 640 L177 640 L120 346 L63 346 L53 298 L111 298 L54 0 L221 0 C449 0 592 142 626 319 C660 497 570 640 342 640 L342 640 Z M552 323 C520 162 406 58 216 58 L137 58 L183 298 L319 298 L329 346 L192 346 L238 582 L320 582 C509 582 582 481 552 323 L552 323 Z " />
<glyph glyph-name="Ntilde" unicode="&#xd1;" horiz-adv-x="712" d="M405 736 C446 736 455 694 508 694 C560 694 588 740 601 760 L561 785 C549 765 538 746 507 746 C468 746 458 787 404 787 C354 787 329 749 310 728 L349 696 C359 711 374 736 405 736 L405 736 Z M626 640 L525 120 L245 640 L177 640 L54 0 L124 0 L224 524 L505 0 L573 0 L696 640 L626 640 Z " />
<glyph glyph-name="Ograve" unicode="&#xd2;" horiz-adv-x="779" d="M472 741 C511 692 530 690 553 690 L587 690 L481 840 L406 827 L472 741 Z M350 -11 C546 -11 707 134 742 317 C778 505 669 654 467 654 C272 654 111 510 75 327 C39 139 148 -11 350 -11 L350 -11 Z M352 53 C197 53 122 174 150 317 C179 466 306 590 466 590 C620 590 696 471 667 327 C639 179 511 53 352 53 L352 53 Z " />
<glyph glyph-name="Oacute" unicode="&#xd3;" horiz-adv-x="779" d="M549 741 L644 827 L573 840 L417 690 L451 690 C474 690 493 692 549 741 L549 741 Z M350 -11 C546 -11 707 134 742 317 C778 505 669 654 467 654 C272 654 111 510 75 327 C39 139 148 -11 350 -11 L350 -11 Z M352 53 C197 53 122 174 150 317 C179 466 306 590 466 590 C620 590 696 471 667 327 C639 179 511 53 352 53 L352 53 Z " />
<glyph glyph-name="Ocircumflex" unicode="&#xd4;" horiz-adv-x="779" d="M544 804 L480 804 L352 691 L399 691 C420 691 429 697 446 710 L503 757 L542 710 C554 696 561 691 581 691 L628 691 L544 804 Z M350 -11 C546 -11 707 134 742 317 C778 505 669 654 467 654 C272 654 111 510 75 327 C39 139 148 -11 350 -11 L350 -11 Z M352 53 C197 53 122 174 150 317 C179 466 306 590 466 590 C620 590 696 471 667 327 C639 179 511 53 352 53 L352 53 Z " />
<glyph glyph-name="Otilde" unicode="&#xd5;" horiz-adv-x="779" d="M553 694 C605 694 633 740 646 760 L606 785 C594 765 583 746 552 746 C513 746 503 787 449 787 C399 787 374 749 355 728 L394 696 C404 711 419 736 450 736 C491 736 500 694 553 694 L553 694 Z M350 -11 C546 -11 707 134 742 317 C778 505 669 654 467 654 C272 654 111 510 75 327 C39 139 148 -11 350 -11 L350 -11 Z M352 53 C197 53 122 174 150 317 C179 466 306 590 466 590 C620 590 696 471 667 327 C639 179 511 53 352 53 L352 53 Z " />
<glyph glyph-name="Odieresis" unicode="&#xd6;" horiz-adv-x="779" d="M408 795 C383 795 362 776 357 752 C352 723 367 702 395 702 C419 702 443 721 449 746 C453 774 435 795 408 795 L408 795 Z M608 795 C583 795 562 776 557 752 C551 723 567 702 595 702 C619 702 643 721 648 746 C653 774 635 795 608 795 L608 795 Z M350 -11 C546 -11 707 134 742 317 C778 505 669 654 467 654 C272 654 111 510 75 327 C39 139 148 -11 350 -11 L350 -11 Z M352 53 C197 53 122 174 150 317 C179 466 306 590 466 590 C620 590 696 471 667 327 C639 179 511 53 352 53 L352 53 Z " />
<glyph glyph-name="multiply" unicode="&#xd7;" horiz-adv-x="434" d="M409 374 L375 417 L231 297 L134 417 L83 375 L181 254 L36 133 L70 91 L215 212 L312 91 L363 134 L266 254 L409 374 Z " />
<glyph glyph-name="Oslash" unicode="&#xd8;" horiz-adv-x="779" d="M787 637 L757 668 L666 585 C618 629 551 654 467 654 C272 654 111 510 75 327 C57 234 75 150 122 90 L32 8 L62 -23 L151 58 C199 15 267 -11 350 -11 C546 -11 707 134 742 317 C760 410 742 493 696 554 L787 637 Z M150 317 C179 466 306 590 466 590 C529 590 578 570 613 537 L177 140 C147 187 137 250 150 317 L150 317 Z M667 327 C639 179 511 53 352 53 C289 53 239 73 204 106 L641 504 C671 457 681 395 667 327 L667 327 Z " />
<glyph glyph-name="Ugrave" unicode="&#xd9;" horiz-adv-x="626" d="M384 741 C423 692 442 690 465 690 L499 690 L393 840 L318 827 L384 741 Z M270 -11 C407 -11 515 65 550 244 L626 640 L554 640 L480 255 C453 113 375 53 278 53 C183 53 130 111 158 253 L233 640 L161 640 L84 246 C50 66 130 -11 270 -11 L270 -11 Z " />
<glyph glyph-name="Uacute" unicode="&#xda;" horiz-adv-x="626" d="M462 741 L557 827 L486 840 L330 690 L364 690 C387 690 406 692 462 741 L462 741 Z M270 -11 C407 -11 515 65 550 244 L626 640 L554 640 L480 255 C453 113 375 53 278 53 C183 53 130 111 158 253 L233 640 L161 640 L84 246 C50 66 130 -11 270 -11 L270 -11 Z " />
<glyph glyph-name="Ucircumflex" unicode="&#xdb;" horiz-adv-x="626" d="M456 804 L392 804 L264 691 L311 691 C332 691 341 697 358 710 L415 757 L454 710 C466 696 473 691 493 691 L540 691 L456 804 Z M270 -11 C407 -11 515 65 550 244 L626 640 L554 640 L480 255 C453 113 375 53 278 53 C183 53 130 111 158 253 L233 640 L161 640 L84 246 C50 66 130 -11 270 -11 L270 -11 Z " />
<glyph glyph-name="Udieresis" unicode="&#xdc;" horiz-adv-x="626" d="M321 795 C296 795 275 776 270 752 C265 723 280 702 308 702 C332 702 356 721 362 746 C366 774 348 795 321 795 L321 795 Z M521 795 C496 795 475 776 470 752 C464 723 480 702 508 702 C532 702 556 721 561 746 C566 774 548 795 521 795 L521 795 Z M270 -11 C407 -11 515 65 550 244 L626 640 L554 640 L480 255 C453 113 375 53 278 53 C183 53 130 111 158 253 L233 640 L161 640 L84 246 C50 66 130 -11 270 -11 L270 -11 Z " />
<glyph glyph-name="Yacute" unicode="&#xdd;" horiz-adv-x="576" d="M438 741 L533 827 L462 840 L306 690 L340 690 C363 690 382 692 438 741 L438 741 Z M630 640 L546 640 L317 371 L193 640 L109 640 L268 302 L210 0 L282 0 L339 300 L630 640 Z " />
<glyph glyph-name="Thorn" unicode="&#xde;" horiz-adv-x="513" d="M335 517 L225 518 L248 640 L176 639 L53 0 L125 0 L153 148 L266 149 C351 150 465 208 489 331 C513 456 419 516 335 517 L335 517 Z M413 335 C398 252 334 205 244 206 L165 208 L213 458 L295 460 C385 461 429 415 413 335 L413 335 Z " />
<glyph glyph-name="germandbls" unicode="&#xdf;" horiz-adv-x="562" d="M191 -4 C340 -27 469 49 496 188 C516 291 455 348 378 365 C422 379 492 419 510 512 C528 609 462 675 371 675 C269 675 166 618 134 450 L47 0 L116 0 L204 450 C222 546 274 612 352 612 C400 612 451 577 439 508 C424 431 358 390 306 390 L288 390 L277 332 L293 332 C362 332 444 288 423 186 C404 91 316 30 202 55 L191 -4 Z " />
<glyph glyph-name="agrave" unicode="&#xe0;" horiz-adv-x="562" d="M399 527 L433 527 L327 677 L252 664 L318 578 C357 529 376 527 399 527 L399 527 Z M478 449 L454 376 C430 428 380 459 309 459 C191 459 77 367 46 222 C17 80 90 -10 206 -10 C282 -10 348 25 395 81 L391 0 L448 0 L536 449 L478 449 Z M237 50 C144 50 98 127 119 226 C139 324 216 400 307 400 C403 400 450 322 428 222 C408 125 331 50 237 50 L237 50 Z " />
<glyph glyph-name="aacute" unicode="&#xe1;" horiz-adv-x="562" d="M395 578 L490 664 L419 677 L263 527 L297 527 C320 527 339 529 395 578 L395 578 Z M478 449 L454 376 C430 428 380 459 309 459 C191 459 77 367 46 222 C17 80 90 -10 206 -10 C282 -10 348 25 395 81 L391 0 L448 0 L536 449 L478 449 Z M237 50 C144 50 98 127 119 226 C139 324 216 400 307 400 C403 400 450 322 428 222 C408 125 331 50 237 50 L237 50 Z " />
<glyph glyph-name="acircumflex" unicode="&#xe2;" horiz-adv-x="562" d="M291 547 L348 594 L387 547 C399 533 406 528 426 528 L473 528 L389 641 L325 641 L197 528 L244 528 C265 528 274 534 291 547 L291 547 Z M478 449 L454 376 C430 428 380 459 309 459 C191 459 77 367 46 222 C17 80 90 -10 206 -10 C282 -10 348 25 395 81 L391 0 L448 0 L536 449 L478 449 Z M237 50 C144 50 98 127 119 226 C139 324 216 400 307 400 C403 400 450 322 428 222 C408 125 331 50 237 50 L237 50 Z " />
<glyph glyph-name="atilde" unicode="&#xe3;" horiz-adv-x="562" d="M296 573 C337 573 346 531 399 531 C451 531 479 577 492 597 L452 622 C440 602 429 583 398 583 C359 583 349 624 295 624 C245 624 220 586 201 565 L240 533 C250 548 265 573 296 573 L296 573 Z M478 449 L454 376 C430 428 380 459 309 459 C191 459 77 367 46 222 C17 80 90 -10 206 -10 C282 -10 348 25 395 81 L391 0 L448 0 L536 449 L478 449 Z M237 50 C144 50 98 127 119 226 C139 324 216 400 307 400 C403 400 450 322 428 222 C408 125 331 50 237 50 L237 50 Z " />
<glyph glyph-name="adieresis" unicode="&#xe4;" horiz-adv-x="562" d="M241 540 C265 540 289 559 295 584 C299 612 281 633 254 633 C229 633 208 614 203 590 C198 561 213 540 241 540 L241 540 Z M441 540 C465 540 489 559 494 584 C499 612 481 633 454 633 C429 633 408 614 403 590 C397 561 413 540 441 540 L441 540 Z M478 449 L454 376 C430 428 380 459 309 459 C191 459 77 367 46 222 C17 80 90 -10 206 -10 C282 -10 348 25 395 81 L391 0 L448 0 L536 449 L478 449 Z M237 50 C144 50 98 127 119 226 C139 324 216 400 307 400 C403 400 450 322 428 222 C408 125 331 50 237 50 L237 50 Z " />
<glyph glyph-name="aring" unicode="&#xe5;" horiz-adv-x="562" d="M336 515 C387 515 437 556 447 605 C457 658 421 701 367 701 C315 701 265 659 256 610 C246 557 282 515 336 515 L336 515 Z M294 605 C300 637 331 661 364 661 C394 661 413 638 408 610 C402 578 371 553 338 553 C308 553 288 577 294 605 L294 605 Z M478 449 L454 376 C430 428 380 459 309 459 C191 459 77 367 46 222 C17 80 90 -10 206 -10 C282 -10 348 25 395 81 L391 0 L448 0 L536 449 L478 449 Z M237 50 C144 50 98 127 119 226 C139 324 216 400 307 400 C403 400 450 322 428 222 C408 125 331 50 237 50 L237 50 Z " />
<glyph glyph-name="ae" unicode="&#xe6;" horiz-adv-x="888" d="M694 459 C631 459 572 434 525 394 L536 449 L478 449 L454 376 C430 428 380 459 309 459 C191 459 77 367 46 222 C17 80 90 -10 206 -10 C282 -10 348 25 395 81 L391 0 L448 0 L460 62 C493 17 547 -11 620 -11 C694 -11 762 15 811 63 L766 108 C729 70 681 48 621 48 C526 48 484 120 500 214 L620 214 C750 214 851 244 856 336 C860 406 785 459 694 459 L694 459 Z M791 333 C786 279 698 264 615 264 L514 264 C545 343 613 401 693 401 C755 401 793 369 791 333 L791 333 Z M237 50 C144 50 98 127 119 226 C139 324 216 400 307 400 C403 400 450 322 428 222 C408 125 331 50 237 50 L237 50 Z " />
<glyph glyph-name="ccedilla" unicode="&#xe7;" horiz-adv-x="453" d="M321 459 C184 459 71 355 46 226 C24 107 81 9 195 -8 L132 -67 L147 -88 C187 -73 238 -76 224 -111 C217 -130 193 -152 149 -151 C121 -149 99 -140 91 -133 L57 -171 C67 -180 97 -193 140 -193 C210 -193 265 -159 282 -115 C299 -71 276 -49 243 -46 C220 -43 200 -49 190 -53 L236 -11 C293 -10 347 8 391 38 L358 89 C325 64 285 48 241 48 C142 48 98 124 117 222 C137 322 212 400 313 400 C355 400 389 385 411 361 L461 408 C427 440 381 459 321 459 L321 459 Z " />
<glyph glyph-name="egrave" unicode="&#xe8;" horiz-adv-x="505" d="M396 527 L430 527 L324 677 L249 664 L315 578 C354 529 373 527 396 527 L396 527 Z M311 459 C183 459 72 357 47 230 C22 97 95 -11 238 -11 C311 -11 380 15 428 63 L383 108 C347 70 298 48 239 48 C143 48 101 120 118 214 L237 214 C368 214 468 244 473 336 C477 406 402 459 311 459 L311 459 Z M408 333 C404 279 315 264 233 264 L132 264 C163 343 231 401 310 401 C372 401 410 369 408 333 L408 333 Z " />
<glyph glyph-name="eacute" unicode="&#xe9;" horiz-adv-x="505" d="M392 578 L487 664 L416 677 L260 527 L294 527 C317 527 336 529 392 578 L392 578 Z M311 459 C183 459 72 357 47 230 C22 97 95 -11 238 -11 C311 -11 380 15 428 63 L383 108 C347 70 298 48 239 48 C143 48 101 120 118 214 L237 214 C368 214 468 244 473 336 C477 406 402 459 311 459 L311 459 Z M408 333 C404 279 315 264 233 264 L132 264 C163 343 231 401 310 401 C372 401 410 369 408 333 L408 333 Z " />
<glyph glyph-name="ecircumflex" unicode="&#xea;" horiz-adv-x="505" d="M289 547 L346 594 L385 547 C397 533 404 528 424 528 L471 528 L387 641 L323 641 L195 528 L242 528 C263 528 272 534 289 547 L289 547 Z M311 459 C183 459 72 357 47 230 C22 97 95 -11 238 -11 C311 -11 380 15 428 63 L383 108 C347 70 298 48 239 48 C143 48 101 120 118 214 L237 214 C368 214 468 244 473 336 C477 406 402 459 311 459 L311 459 Z M408 333 C404 279 315 264 233 264 L132 264 C163 343 231 401 310 401 C372 401 410 369 408 333 L408 333 Z " />
<glyph glyph-name="edieresis" unicode="&#xeb;" horiz-adv-x="505" d="M238 540 C262 540 286 559 292 584 C296 612 278 633 251 633 C226 633 205 614 200 590 C195 561 210 540 238 540 L238 540 Z M451 633 C426 633 405 614 400 590 C394 561 410 540 438 540 C462 540 486 559 491 584 C496 612 478 633 451 633 L451 633 Z M311 459 C183 459 72 357 47 230 C22 97 95 -11 238 -11 C311 -11 380 15 428 63 L383 108 C347 70 298 48 239 48 C143 48 101 120 118 214 L237 214 C368 214 468 244 473 336 C477 406 402 459 311 459 L311 459 Z M408 333 C404 279 315 264 233 264 L132 264 C163 343 231 401 310 401 C372 401 410 369 408 333 L408 333 Z " />
<glyph glyph-name="igrave" unicode="&#xec;" horiz-adv-x="240" d="M159 578 C198 529 217 527 240 527 L274 527 L168 677 L93 664 L159 578 Z M42 0 L111 0 L198 447 L129 447 L42 0 Z " />
<glyph glyph-name="iacute" unicode="&#xed;" horiz-adv-x="240" d="M237 578 L332 664 L261 677 L105 527 L139 527 C162 527 181 529 237 578 L237 578 Z M42 0 L111 0 L198 447 L129 447 L42 0 Z " />
<glyph glyph-name="icircumflex" unicode="&#xee;" horiz-adv-x="240" d="M231 641 L167 641 L39 528 L86 528 C107 528 116 534 133 547 L190 594 L229 547 C241 533 248 528 268 528 L315 528 L231 641 Z M42 0 L111 0 L198 447 L129 447 L42 0 Z " />
<glyph glyph-name="idieresis" unicode="&#xef;" horiz-adv-x="240" d="M95 633 C70 633 49 614 44 590 C39 561 54 540 82 540 C106 540 130 559 136 584 C140 612 122 633 95 633 L95 633 Z M295 633 C270 633 249 614 244 590 C238 561 254 540 282 540 C306 540 330 559 335 584 C340 612 322 633 295 633 L295 633 Z M42 0 L111 0 L198 447 L129 447 L42 0 Z " />
<glyph glyph-name="eth" unicode="&#xf0;" horiz-adv-x="552" d="M381 570 L491 618 L457 650 L353 605 C336 625 318 646 298 668 L232 635 L284 574 L173 526 L202 491 L312 539 C344 500 369 465 389 429 C363 445 335 445 317 445 C181 445 69 344 45 219 C21 91 95 -12 232 -12 C367 -12 479 90 503 215 C525 331 481 442 381 570 L381 570 Z M433 219 C414 123 338 48 240 48 C145 48 98 121 116 215 C133 311 210 386 309 386 C405 386 451 312 433 219 L433 219 Z " />
<glyph glyph-name="ntilde" unicode="&#xf1;" horiz-adv-x="519" d="M281 573 C322 573 331 531 384 531 C436 531 464 577 477 597 L437 622 C425 602 414 583 383 583 C344 583 334 624 280 624 C230 624 205 586 186 565 L225 533 C235 548 250 573 281 573 L281 573 Z M326 459 C261 459 206 430 171 386 L174 447 L114 447 L29 0 L98 0 L152 279 C177 366 243 399 304 399 C380 399 406 345 390 262 L339 0 L409 0 L461 272 C488 415 407 459 326 459 L326 459 Z " />
<glyph glyph-name="ograve" unicode="&#xf2;" horiz-adv-x="562" d="M321 578 C360 529 379 527 402 527 L436 527 L330 677 L255 664 L321 578 Z M238 -11 C375 -11 491 93 516 222 C541 353 465 459 325 459 C187 459 71 355 46 226 C22 94 98 -11 238 -11 L238 -11 Z M246 49 C151 49 100 125 119 222 C138 321 221 399 317 399 C411 399 462 322 443 226 C424 127 341 49 246 49 L246 49 Z " />
<glyph glyph-name="oacute" unicode="&#xf3;" horiz-adv-x="562" d="M399 578 L494 664 L423 677 L267 527 L301 527 C324 527 343 529 399 578 L399 578 Z M238 -11 C375 -11 491 93 516 222 C541 353 465 459 325 459 C187 459 71 355 46 226 C22 94 98 -11 238 -11 L238 -11 Z M246 49 C151 49 100 125 119 222 C138 321 221 399 317 399 C411 399 462 322 443 226 C424 127 341 49 246 49 L246 49 Z " />
<glyph glyph-name="ocircumflex" unicode="&#xf4;" horiz-adv-x="562" d="M393 641 L329 641 L201 528 L248 528 C269 528 278 534 295 547 L352 594 L391 547 C403 533 410 528 430 528 L477 528 L393 641 Z M238 -11 C375 -11 491 93 516 222 C541 353 465 459 325 459 C187 459 71 355 46 226 C22 94 98 -11 238 -11 L238 -11 Z M246 49 C151 49 100 125 119 222 C138 321 221 399 317 399 C411 399 462 322 443 226 C424 127 341 49 246 49 L246 49 Z " />
<glyph glyph-name="otilde" unicode="&#xf5;" horiz-adv-x="562" d="M403 531 C455 531 483 577 496 597 L456 622 C444 602 433 583 402 583 C363 583 353 624 299 624 C249 624 224 586 205 565 L244 533 C254 548 269 573 300 573 C341 573 350 531 403 531 L403 531 Z M238 -11 C375 -11 491 93 516 222 C541 353 465 459 325 459 C187 459 71 355 46 226 C22 94 98 -11 238 -11 L238 -11 Z M246 49 C151 49 100 125 119 222 C138 321 221 399 317 399 C411 399 462 322 443 226 C424 127 341 49 246 49 L246 49 Z " />
<glyph glyph-name="odieresis" unicode="&#xf6;" horiz-adv-x="562" d="M257 633 C232 633 211 614 206 590 C201 561 216 540 244 540 C268 540 292 559 298 584 C302 612 284 633 257 633 L257 633 Z M457 633 C432 633 411 614 406 590 C400 561 416 540 444 540 C468 540 492 559 497 584 C502 612 484 633 457 633 L457 633 Z M238 -11 C375 -11 491 93 516 222 C541 353 465 459 325 459 C187 459 71 355 46 226 C22 94 98 -11 238 -11 L238 -11 Z M246 49 C151 49 100 125 119 222 C138 321 221 399 317 399 C411 399 462 322 443 226 C424 127 341 49 246 49 L246 49 Z " />
<glyph glyph-name="divide" unicode="&#xf7;" horiz-adv-x="509" d="M289 355 C315 355 340 376 345 402 C350 428 333 449 308 449 C282 449 257 428 252 402 C247 376 264 355 289 355 L289 355 Z M53 223 L455 223 L466 284 L65 284 L53 223 Z M233 59 C258 59 283 80 288 106 C293 131 276 152 251 152 C225 152 200 131 195 106 C190 80 207 59 233 59 L233 59 Z " />
<glyph glyph-name="oslash" unicode="&#xf8;" horiz-adv-x="562" d="M549 445 L526 471 L462 412 C429 442 382 459 325 459 C184 459 71 355 46 226 C34 162 45 104 77 61 L12 2 L36 -22 L100 36 C133 6 180 -11 238 -11 C378 -11 491 93 516 222 C528 286 517 344 485 387 L549 445 Z M118 222 C136 321 218 399 317 399 C356 399 388 386 410 365 L131 111 C114 140 110 179 118 222 L118 222 Z M443 226 C424 127 345 49 246 49 C206 49 174 62 152 83 L431 337 C447 307 451 269 443 226 L443 226 Z " />
<glyph glyph-name="ugrave" unicode="&#xf9;" horiz-adv-x="512" d="M296 578 C335 529 354 527 377 527 L411 527 L305 677 L230 664 L296 578 Z M212 -12 C302 -12 409 31 438 184 L489 447 L419 447 L369 186 C353 101 298 48 220 48 C145 48 113 99 129 184 L179 447 L110 447 L60 186 C30 33 121 -12 212 -12 L212 -12 Z " />
<glyph glyph-name="uacute" unicode="&#xfa;" horiz-adv-x="512" d="M373 578 L468 664 L397 677 L241 527 L275 527 C298 527 317 529 373 578 L373 578 Z M212 -12 C302 -12 409 31 438 184 L489 447 L419 447 L369 186 C353 101 298 48 220 48 C145 48 113 99 129 184 L179 447 L110 447 L60 186 C30 33 121 -12 212 -12 L212 -12 Z " />
<glyph glyph-name="ucircumflex" unicode="&#xfb;" horiz-adv-x="512" d="M368 641 L304 641 L176 528 L223 528 C244 528 253 534 270 547 L327 594 L366 547 C378 533 385 528 405 528 L452 528 L368 641 Z M212 -12 C302 -12 409 31 438 184 L489 447 L419 447 L369 186 C353 101 298 48 220 48 C145 48 113 99 129 184 L179 447 L110 447 L60 186 C30 33 121 -12 212 -12 L212 -12 Z " />
<glyph glyph-name="udieresis" unicode="&#xfc;" horiz-adv-x="512" d="M232 633 C207 633 186 614 181 590 C176 561 191 540 219 540 C243 540 267 559 273 584 C277 612 259 633 232 633 L232 633 Z M432 633 C407 633 386 614 381 590 C375 561 391 540 419 540 C443 540 467 559 472 584 C477 612 459 633 432 633 L432 633 Z M212 -12 C302 -12 409 31 438 184 L489 447 L419 447 L369 186 C353 101 298 48 220 48 C145 48 113 99 129 184 L179 447 L110 447 L60 186 C30 33 121 -12 212 -12 L212 -12 Z " />
<glyph glyph-name="yacute" unicode="&#xfd;" horiz-adv-x="479" d="M356 578 L451 664 L380 677 L224 527 L258 527 C281 527 300 529 356 578 L356 578 Z M428 447 L213 93 L135 447 L62 447 L163 13 L22 -210 L96 -210 L504 447 L428 447 Z " />
<glyph glyph-name="thorn" unicode="&#xfe;" horiz-adv-x="558" d="M345 459 C276 459 215 429 170 380 L229 680 L159 680 L-10 -190 L59 -190 L111 72 C137 21 187 -10 258 -10 C374 -10 484 80 511 222 C539 367 463 459 345 459 L345 459 Z M440 226 C422 127 344 50 251 50 C157 50 110 125 130 222 C148 322 227 400 322 400 C414 400 460 324 440 226 L440 226 Z " />
<glyph glyph-name="ydieresis" unicode="&#xff;" horiz-adv-x="479" d="M201 540 C225 540 249 559 255 584 C259 612 241 633 214 633 C189 633 168 614 163 590 C158 561 173 540 201 540 L201 540 Z M401 540 C425 540 449 559 454 584 C459 612 441 633 414 633 C389 633 368 614 363 590 C357 561 373 540 401 540 L401 540 Z M428 447 L213 93 L135 447 L62 447 L163 13 L22 -210 L96 -210 L504 447 L428 447 Z " />
<glyph glyph-name="Amacron" unicode="&#x100;" horiz-adv-x="634" d="M550 769 L295 769 L286 723 L541 723 L550 769 Z M486 0 L563 0 L432 640 L360 640 L-16 0 L62 0 L170 188 L450 189 L486 0 Z M204 248 L381 556 L439 248 L204 248 Z " />
<glyph glyph-name="amacron" unicode="&#x101;" horiz-adv-x="562" d="M480 606 L225 606 L216 560 L471 560 L480 606 Z M478 449 L454 376 C430 428 380 459 309 459 C191 459 77 367 46 222 C17 80 90 -10 206 -10 C282 -10 348 25 395 81 L391 0 L448 0 L536 449 L478 449 Z M237 50 C144 50 98 127 119 226 C139 324 216 400 307 400 C403 400 450 322 428 222 C408 125 331 50 237 50 L237 50 Z " />
<glyph glyph-name="Abreve" unicode="&#x102;" horiz-adv-x="634" d="M410 690 C493 690 549 735 565 802 L514 802 C505 772 471 737 413 737 C358 737 340 769 343 802 L293 802 C284 738 325 690 410 690 L410 690 Z M360 640 L-16 0 L62 0 L170 188 L450 189 L486 0 L563 0 L432 640 L360 640 Z M204 248 L381 556 L439 248 L204 248 Z " />
<glyph glyph-name="abreve" unicode="&#x103;" horiz-adv-x="562" d="M340 527 C423 527 479 572 495 639 L444 639 C435 609 401 574 343 574 C288 574 270 606 273 639 L223 639 C214 575 255 527 340 527 L340 527 Z M478 449 L454 376 C430 428 380 459 309 459 C191 459 77 367 46 222 C17 80 90 -10 206 -10 C282 -10 348 25 395 81 L391 0 L448 0 L536 449 L478 449 Z M237 50 C144 50 98 127 119 226 C139 324 216 400 307 400 C403 400 450 322 428 222 C408 125 331 50 237 50 L237 50 Z " />
<glyph glyph-name="Aogonek" unicode="&#x104;" horiz-adv-x="634" d="M527 -13 L550 0 L563 0 L432 640 L360 640 L-16 0 L62 0 L170 188 L450 189 L486 0 L487 0 C423 -36 380 -87 394 -137 C407 -185 481 -193 533 -160 L527 -120 C427 -161 416 -69 527 -13 L527 -13 Z M204 248 L381 556 L439 248 L204 248 Z " />
<glyph glyph-name="aogonek" unicode="&#x105;" horiz-adv-x="562" d="M478 449 L454 376 C430 428 380 459 309 459 C191 459 77 367 46 222 C17 80 90 -10 206 -10 C282 -10 348 25 395 81 L391 5 C321 -30 273 -85 288 -137 C301 -185 375 -193 427 -160 L421 -120 C321 -161 310 -69 421 -13 L444 0 L448 0 L536 449 L478 449 Z M237 50 C144 50 98 127 119 226 C139 324 216 400 307 400 C403 400 450 322 428 222 C408 125 331 50 237 50 L237 50 Z " />
<glyph glyph-name="Cacute" unicode="&#x106;" horiz-adv-x="629" d="M519 741 L614 827 L543 840 L387 690 L421 690 C444 690 463 692 519 741 L519 741 Z M343 -12 C416 -12 487 8 549 46 L519 105 C471 73 414 53 352 53 C197 53 122 175 150 320 C178 466 302 590 459 590 C520 590 568 572 604 539 L653 595 C606 633 543 654 468 654 C272 654 110 508 75 324 C39 136 145 -12 343 -12 L343 -12 Z " />
<glyph glyph-name="cacute" unicode="&#x107;" horiz-adv-x="453" d="M385 578 L480 664 L409 677 L253 527 L287 527 C310 527 329 529 385 578 L385 578 Z M233 -11 C291 -11 346 7 391 38 L358 89 C325 64 285 48 241 48 C142 48 98 124 117 222 C137 322 212 400 313 400 C355 400 389 385 411 361 L461 408 C427 440 381 459 321 459 C184 459 71 355 46 226 C22 95 94 -11 233 -11 L233 -11 Z " />
<glyph glyph-name="Ccircumflex" unicode="&#x108;" horiz-adv-x="629" d="M415 710 L472 757 L511 710 C523 696 530 691 550 691 L597 691 L513 804 L449 804 L321 691 L368 691 C389 691 398 697 415 710 L415 710 Z M459 590 C520 590 568 572 604 539 L653 595 C606 633 543 654 468 654 C272 654 110 508 75 324 C39 136 145 -12 343 -12 C416 -12 487 8 549 46 L519 105 C471 73 414 53 352 53 C197 53 122 175 150 320 C178 466 302 590 459 590 L459 590 Z " />
<glyph glyph-name="ccircumflex" unicode="&#x109;" horiz-adv-x="453" d="M379 641 L315 641 L187 528 L234 528 C255 528 264 534 281 547 L338 594 L377 547 C389 533 396 528 416 528 L463 528 L379 641 Z M233 -11 C291 -11 346 7 391 38 L358 89 C325 64 285 48 241 48 C142 48 98 124 117 222 C137 322 212 400 313 400 C355 400 389 385 411 361 L461 408 C427 440 381 459 321 459 C184 459 71 355 46 226 C22 95 94 -11 233 -11 L233 -11 Z " />
<glyph glyph-name="Cdotaccent" unicode="&#x10a;" horiz-adv-x="629" d="M463 706 C491 706 519 729 524 757 C529 784 511 807 483 807 C455 807 428 784 422 757 C417 729 435 706 463 706 L463 706 Z M343 -12 C416 -12 487 8 549 46 L519 105 C471 73 414 53 352 53 C197 53 122 175 150 320 C178 466 302 590 459 590 C520 590 568 572 604 539 L653 595 C606 633 543 654 468 654 C272 654 110 508 75 324 C39 136 145 -12 343 -12 L343 -12 Z " />
<glyph glyph-name="cdotaccent" unicode="&#x10b;" horiz-adv-x="453" d="M329 543 C357 543 385 566 390 594 C395 621 377 644 349 644 C321 644 294 621 288 594 C283 566 301 543 329 543 L329 543 Z M233 -11 C291 -11 346 7 391 38 L358 89 C325 64 285 48 241 48 C142 48 98 124 117 222 C137 322 212 400 313 400 C355 400 389 385 411 361 L461 408 C427 440 381 459 321 459 C184 459 71 355 46 226 C22 95 94 -11 233 -11 L233 -11 Z " />
<glyph glyph-name="Ccaron" unicode="&#x10c;" horiz-adv-x="629" d="M493 690 L621 803 L574 803 C554 803 544 797 527 784 L470 737 L432 784 C420 798 412 803 392 803 L345 803 L429 690 L493 690 Z M459 590 C520 590 568 572 604 539 L653 595 C606 633 543 654 468 654 C272 654 110 508 75 324 C39 136 145 -12 343 -12 C416 -12 487 8 549 46 L519 105 C471 73 414 53 352 53 C197 53 122 175 150 320 C178 466 302 590 459 590 L459 590 Z " />
<glyph glyph-name="ccaron" unicode="&#x10d;" horiz-adv-x="453" d="M295 528 L359 528 L487 641 L440 641 C420 641 410 635 393 622 L336 575 L298 622 C286 636 278 641 258 641 L211 641 L295 528 Z M233 -11 C291 -11 346 7 391 38 L358 89 C325 64 285 48 241 48 C142 48 98 124 117 222 C137 322 212 400 313 400 C355 400 389 385 411 361 L461 408 C427 440 381 459 321 459 C184 459 71 355 46 226 C22 95 94 -11 233 -11 L233 -11 Z " />
<glyph glyph-name="Dcaron" unicode="&#x10e;" horiz-adv-x="664" d="M425 690 L553 803 L506 803 C486 803 476 797 459 784 L402 737 L364 784 C352 798 344 803 324 803 L277 803 L361 690 L425 690 Z M342 640 L177 640 L54 0 L221 0 C449 0 592 142 626 319 C660 497 570 640 342 640 L342 640 Z M552 323 C520 162 406 58 216 58 L137 58 L238 582 L320 582 C509 582 582 481 552 323 L552 323 Z " />
<glyph glyph-name="dcaron" unicode="&#x10f;" horiz-adv-x="613" d="M731 689 C706 689 688 672 684 651 C679 624 703 612 725 620 C720 594 696 566 656 548 L661 522 C727 545 757 593 765 630 C771 661 759 689 731 689 L731 689 Z M449 383 C423 430 374 459 306 459 C189 459 76 367 46 222 C18 80 92 -10 208 -10 C280 -10 344 22 390 74 L385 0 L442 0 L578 680 L509 680 L449 383 Z M239 50 C145 50 98 127 119 226 C138 324 214 400 305 400 C401 400 449 322 428 222 C409 125 333 50 239 50 L239 50 Z " />
<glyph glyph-name="Dcroat" unicode="&#x110;" horiz-adv-x="664" d="M342 640 L177 640 L120 346 L63 346 L53 298 L111 298 L54 0 L221 0 C449 0 592 142 626 319 C660 497 570 640 342 640 L342 640 Z M552 323 C520 162 406 58 216 58 L137 58 L183 298 L319 298 L329 346 L192 346 L238 582 L320 582 C509 582 582 481 552 323 L552 323 Z " />
<glyph glyph-name="dcroat" unicode="&#x111;" horiz-adv-x="549" d="M624 573 L557 573 L578 680 L509 680 L487 573 L358 573 L348 524 L477 524 L449 383 C423 430 374 459 306 459 C189 459 76 367 46 222 C18 80 92 -10 208 -10 C280 -10 344 22 390 74 L385 0 L442 0 L547 524 L614 524 L624 573 Z M239 50 C145 50 98 127 119 226 C138 324 214 400 305 400 C401 400 449 322 428 222 C409 125 333 50 239 50 L239 50 Z " />
<glyph glyph-name="Emacron" unicode="&#x112;" horiz-adv-x="529" d="M510 769 L255 769 L246 723 L501 723 L510 769 Z M531 577 L543 640 L177 640 L54 0 L420 0 L432 63 L138 63 L182 290 L426 290 L438 350 L193 350 L237 577 L531 577 Z " />
<glyph glyph-name="emacron" unicode="&#x113;" horiz-adv-x="505" d="M477 606 L222 606 L213 560 L468 560 L477 606 Z M311 459 C183 459 72 357 47 230 C22 97 95 -11 238 -11 C311 -11 380 15 428 63 L383 108 C347 70 298 48 239 48 C143 48 101 120 118 214 L237 214 C368 214 468 244 473 336 C477 406 402 459 311 459 L311 459 Z M408 333 C404 279 315 264 233 264 L132 264 C163 343 231 401 310 401 C372 401 410 369 408 333 L408 333 Z " />
<glyph glyph-name="Ebreve" unicode="&#x114;" horiz-adv-x="529" d="M370 690 C453 690 509 735 525 802 L474 802 C465 772 431 737 373 737 C318 737 300 769 303 802 L253 802 C244 738 285 690 370 690 L370 690 Z M531 577 L543 640 L177 640 L54 0 L420 0 L432 63 L138 63 L182 290 L426 290 L438 350 L193 350 L237 577 L531 577 Z " />
<glyph glyph-name="ebreve" unicode="&#x115;" horiz-adv-x="505" d="M337 527 C420 527 476 572 492 639 L441 639 C432 609 398 574 340 574 C285 574 267 606 270 639 L220 639 C211 575 252 527 337 527 L337 527 Z M311 459 C183 459 72 357 47 230 C22 97 95 -11 238 -11 C311 -11 380 15 428 63 L383 108 C347 70 298 48 239 48 C143 48 101 120 118 214 L237 214 C368 214 468 244 473 336 C477 406 402 459 311 459 L311 459 Z M408 333 C404 279 315 264 233 264 L132 264 C163 343 231 401 310 401 C372 401 410 369 408 333 L408 333 Z " />
<glyph glyph-name="Edotaccent" unicode="&#x116;" horiz-adv-x="529" d="M370 706 C398 706 426 729 431 757 C436 784 418 807 390 807 C362 807 335 784 329 757 C324 729 342 706 370 706 L370 706 Z M531 577 L543 640 L177 640 L54 0 L420 0 L432 63 L138 63 L182 290 L426 290 L438 350 L193 350 L237 577 L531 577 Z " />
<glyph glyph-name="edotaccent" unicode="&#x117;" horiz-adv-x="505" d="M337 543 C365 543 393 566 398 594 C403 621 385 644 357 644 C329 644 302 621 296 594 C291 566 309 543 337 543 L337 543 Z M311 459 C183 459 72 357 47 230 C22 97 95 -11 238 -11 C311 -11 380 15 428 63 L383 108 C347 70 298 48 239 48 C143 48 101 120 118 214 L237 214 C368 214 468 244 473 336 C477 406 402 459 311 459 L311 459 Z M408 333 C404 279 315 264 233 264 L132 264 C163 343 231 401 310 401 C372 401 410 369 408 333 L408 333 Z " />
<glyph glyph-name="Eogonek" unicode="&#x118;" horiz-adv-x="529" d="M531 577 L543 640 L177 640 L54 0 L356 0 C292 -36 249 -87 263 -137 C276 -185 350 -193 402 -160 L396 -120 C296 -161 285 -69 396 -13 L419 0 L420 0 L432 63 L138 63 L182 290 L426 290 L438 350 L193 350 L237 577 L531 577 Z " />
<glyph glyph-name="eogonek" unicode="&#x119;" horiz-adv-x="505" d="M311 459 C183 459 72 357 47 230 C23 100 91 -6 227 -11 C173 -46 139 -92 152 -137 C165 -185 239 -193 291 -160 L285 -120 C185 -161 174 -69 285 -13 L300 -5 C349 6 394 29 428 63 L383 108 C347 70 298 48 239 48 C143 48 101 120 118 214 L237 214 C368 214 468 244 473 336 C477 406 402 459 311 459 L311 459 Z M408 333 C404 279 315 264 233 264 L132 264 C163 343 231 401 310 401 C372 401 410 369 408 333 L408 333 Z " />
<glyph glyph-name="Ecaron" unicode="&#x11a;" horiz-adv-x="529" d="M399 690 L527 803 L480 803 C460 803 450 797 433 784 L376 737 L338 784 C326 798 318 803 298 803 L251 803 L335 690 L399 690 Z M531 577 L543 640 L177 640 L54 0 L420 0 L432 63 L138 63 L182 290 L426 290 L438 350 L193 350 L237 577 L531 577 Z " />
<glyph glyph-name="ecaron" unicode="&#x11b;" horiz-adv-x="505" d="M366 528 L494 641 L447 641 C427 641 417 635 400 622 L343 575 L305 622 C293 636 285 641 265 641 L218 641 L302 528 L366 528 Z M311 459 C183 459 72 357 47 230 C22 97 95 -11 238 -11 C311 -11 380 15 428 63 L383 108 C347 70 298 48 239 48 C143 48 101 120 118 214 L237 214 C368 214 468 244 473 336 C477 406 402 459 311 459 L311 459 Z M408 333 C404 279 315 264 233 264 L132 264 C163 343 231 401 310 401 C372 401 410 369 408 333 L408 333 Z " />
<glyph glyph-name="Gcircumflex" unicode="&#x11c;" horiz-adv-x="732" d="M420 710 L477 757 L516 710 C528 696 535 691 555 691 L602 691 L518 804 L454 804 L326 691 L373 691 C394 691 403 697 420 710 L420 710 Z M441 340 L430 279 L620 279 C594 142 480 53 349 53 C194 53 122 176 150 321 C178 467 299 590 462 590 C545 590 593 558 609 541 L659 596 C634 621 565 654 471 654 C269 654 110 509 75 325 C39 138 140 -11 341 -11 C538 -11 666 135 696 288 L706 340 L441 340 Z " />
<glyph glyph-name="gcircumflex" unicode="&#x11d;" horiz-adv-x="561" d="M295 547 L352 594 L391 547 C403 533 410 528 430 528 L477 528 L393 641 L329 641 L201 528 L248 528 C269 528 278 534 295 547 L295 547 Z M476 447 L453 377 C429 428 380 459 309 459 C191 459 77 367 46 222 C17 80 90 -10 206 -10 C280 -10 345 23 392 78 L384 37 C361 -87 304 -150 203 -150 C178 -150 154 -145 133 -135 L106 -196 C130 -204 162 -210 197 -210 C339 -210 423 -125 454 34 L533 447 L476 447 Z M237 50 C144 50 98 127 119 226 C139 324 216 400 307 400 C403 400 450 322 428 222 C408 125 331 50 237 50 L237 50 Z " />
<glyph glyph-name="Gbreve" unicode="&#x11e;" horiz-adv-x="732" d="M468 690 C551 690 607 735 623 802 L572 802 C563 772 529 737 471 737 C416 737 398 769 401 802 L351 802 C342 738 383 690 468 690 L468 690 Z M441 340 L430 279 L620 279 C594 142 480 53 349 53 C194 53 122 176 150 321 C178 467 299 590 462 590 C545 590 593 558 609 541 L659 596 C634 621 565 654 471 654 C269 654 110 509 75 325 C39 138 140 -11 341 -11 C538 -11 666 135 696 288 L706 340 L441 340 Z " />
<glyph glyph-name="gbreve" unicode="&#x11f;" horiz-adv-x="561" d="M343 527 C426 527 482 572 498 639 L447 639 C438 609 404 574 346 574 C291 574 273 606 276 639 L226 639 C217 575 258 527 343 527 L343 527 Z M476 447 L453 377 C429 428 380 459 309 459 C191 459 77 367 46 222 C17 80 90 -10 206 -10 C280 -10 345 23 392 78 L384 37 C361 -87 304 -150 203 -150 C178 -150 154 -145 133 -135 L106 -196 C130 -204 162 -210 197 -210 C339 -210 423 -125 454 34 L533 447 L476 447 Z M237 50 C144 50 98 127 119 226 C139 324 216 400 307 400 C403 400 450 322 428 222 C408 125 331 50 237 50 L237 50 Z " />
<glyph glyph-name="Gdotaccent" unicode="&#x120;" horiz-adv-x="732" d="M468 706 C496 706 524 729 529 757 C534 784 516 807 488 807 C460 807 433 784 427 757 C422 729 440 706 468 706 L468 706 Z M441 340 L430 279 L620 279 C594 142 480 53 349 53 C194 53 122 176 150 321 C178 467 299 590 462 590 C545 590 593 558 609 541 L659 596 C634 621 565 654 471 654 C269 654 110 509 75 325 C39 138 140 -11 341 -11 C538 -11 666 135 696 288 L706 340 L441 340 Z " />
<glyph glyph-name="gdotaccent" unicode="&#x121;" horiz-adv-x="561" d="M343 543 C371 543 399 566 404 594 C409 621 391 644 363 644 C335 644 308 621 302 594 C297 566 315 543 343 543 L343 543 Z M476 447 L453 377 C429 428 380 459 309 459 C191 459 77 367 46 222 C17 80 90 -10 206 -10 C280 -10 345 23 392 78 L384 37 C361 -87 304 -150 203 -150 C178 -150 154 -145 133 -135 L106 -196 C130 -204 162 -210 197 -210 C339 -210 423 -125 454 34 L533 447 L476 447 Z M237 50 C144 50 98 127 119 226 C139 324 216 400 307 400 C403 400 450 322 428 222 C408 125 331 50 237 50 L237 50 Z " />
<glyph glyph-name="uni0122" unicode="&#x122;" horiz-adv-x="732" d="M441 340 L430 279 L620 279 C594 142 480 53 349 53 C194 53 122 176 150 321 C178 467 299 590 462 590 C545 590 593 558 609 541 L659 596 C634 621 565 654 471 654 C269 654 110 509 75 325 C39 138 140 -11 341 -11 C538 -11 666 135 696 288 L706 340 L441 340 Z M312 -55 C287 -55 269 -72 265 -94 C260 -120 284 -132 305 -125 C300 -150 277 -178 236 -196 L241 -222 C307 -199 338 -151 345 -114 C352 -83 340 -55 312 -55 L312 -55 Z " />
<glyph glyph-name="uni0123" unicode="&#x123;" horiz-adv-x="561" d="M355 538 C382 538 402 556 407 580 C413 610 386 623 362 615 C368 643 394 673 439 693 L433 722 C360 698 326 644 318 603 C310 568 323 538 355 538 L355 538 Z M476 447 L453 377 C429 428 380 459 309 459 C191 459 77 367 46 222 C17 80 90 -10 206 -10 C280 -10 345 23 392 78 L384 37 C361 -87 304 -150 203 -150 C178 -150 154 -145 133 -135 L106 -196 C130 -204 162 -210 197 -210 C339 -210 423 -125 454 34 L533 447 L476 447 Z M237 50 C144 50 98 127 119 226 C139 324 216 400 307 400 C403 400 450 322 428 222 C408 125 331 50 237 50 L237 50 Z " />
<glyph glyph-name="Hcircumflex" unicode="&#x124;" horiz-adv-x="683" d="M386 710 L443 757 L482 710 C494 696 501 691 521 691 L568 691 L484 804 L420 804 L292 691 L339 691 C360 691 369 697 386 710 L386 710 Z M595 640 L542 362 L196 362 L249 640 L177 640 L54 0 L126 0 L184 303 L530 303 L472 0 L544 0 L667 640 L595 640 Z " />
<glyph glyph-name="hcircumflex" unicode="&#x125;" horiz-adv-x="511" d="M156 730 L213 777 L251 730 C263 716 271 711 291 711 L338 711 L254 824 L190 824 L62 711 L109 711 C129 711 139 716 156 730 L156 730 Z M325 459 C260 459 207 430 171 388 L228 680 L159 680 L27 0 L96 0 L149 274 C173 364 241 399 303 399 C379 399 405 345 389 262 L338 0 L408 0 L460 272 C487 415 405 459 325 459 L325 459 Z " />
<glyph glyph-name="Hbar" unicode="&#x126;" horiz-adv-x="683" d="M595 640 L571 513 L225 513 L249 640 L177 640 L54 0 L126 0 L184 303 L530 303 L472 0 L544 0 L667 640 L595 640 Z M196 362 L216 467 L562 467 L542 362 L196 362 Z " />
<glyph glyph-name="hbar" unicode="&#x127;" horiz-adv-x="518" d="M325 459 C260 459 207 430 171 388 L198 525 L324 525 L334 573 L207 573 L228 680 L159 680 L138 573 L68 573 L58 525 L129 525 L27 0 L96 0 L149 274 C173 364 241 399 303 399 C379 399 405 345 389 262 L338 0 L408 0 L460 272 C487 415 405 459 325 459 L325 459 Z " />
<glyph glyph-name="Itilde" unicode="&#x128;" horiz-adv-x="283" d="M294 694 C346 694 374 740 387 760 L347 785 C335 765 324 746 293 746 C254 746 244 787 190 787 C140 787 115 749 96 728 L135 696 C145 711 160 736 191 736 C232 736 241 694 294 694 L294 694 Z M259 640 L187 640 L62 0 L134 0 L259 640 Z " />
<glyph glyph-name="itilde" unicode="&#x129;" horiz-adv-x="240" d="M241 531 C293 531 321 577 334 597 L294 622 C282 602 271 583 240 583 C201 583 191 624 137 624 C87 624 62 586 43 565 L82 533 C92 548 107 573 138 573 C179 573 188 531 241 531 L241 531 Z M42 0 L111 0 L198 447 L129 447 L42 0 Z " />
<glyph glyph-name="Imacron" unicode="&#x12a;" horiz-adv-x="277" d="M108 723 L363 723 L372 770 L117 770 L108 723 Z M259 640 L187 640 L62 0 L134 0 L259 640 Z " />
<glyph glyph-name="imacron" unicode="&#x12b;" horiz-adv-x="240" d="M57 560 L312 560 L321 606 L66 606 L57 560 Z M42 0 L111 0 L198 447 L129 447 L42 0 Z " />
<glyph glyph-name="Ibreve" unicode="&#x12c;" horiz-adv-x="283" d="M235 690 C318 690 374 735 390 802 L339 802 C330 772 296 737 238 737 C183 737 165 769 168 802 L118 802 C109 738 150 690 235 690 L235 690 Z M259 640 L187 640 L62 0 L134 0 L259 640 Z " />
<glyph glyph-name="ibreve" unicode="&#x12d;" horiz-adv-x="240" d="M181 527 C264 527 320 572 336 639 L285 639 C276 609 242 574 184 574 C129 574 111 606 114 639 L64 639 C55 575 96 527 181 527 L181 527 Z M42 0 L111 0 L198 447 L129 447 L42 0 Z " />
<glyph glyph-name="Iogonek" unicode="&#x12e;" horiz-adv-x="283" d="M187 640 L62 0 L70 0 C6 -36 -37 -87 -23 -137 C-10 -185 64 -193 116 -160 L110 -120 C10 -161 -1 -69 110 -13 L133 0 L134 0 L259 640 L187 640 Z " />
<glyph glyph-name="iogonek" unicode="&#x12f;" horiz-adv-x="240" d="M201 644 C173 644 146 621 140 594 C135 566 153 543 181 543 C209 543 237 566 242 594 C247 621 229 644 201 644 L201 644 Z M42 0 L45 0 C-19 -36 -62 -87 -48 -137 C-35 -185 39 -193 91 -160 L85 -120 C-15 -161 -26 -69 85 -13 L108 0 L111 0 L198 447 L129 447 L42 0 Z " />
<glyph glyph-name="Idotaccent" unicode="&#x130;" horiz-adv-x="283" d="M235 706 C263 706 291 729 296 757 C301 784 283 807 255 807 C227 807 200 784 194 757 C189 729 207 706 235 706 L235 706 Z M259 640 L187 640 L62 0 L134 0 L259 640 Z " />
<glyph glyph-name="dotlessi" unicode="&#x131;" horiz-adv-x="240" d="M42 0 L111 0 L198 447 L129 447 L42 0 Z " />
<glyph glyph-name="ij" unicode="&#x133;" horiz-adv-x="502" d="M183 546 C210 546 238 569 243 597 C249 625 230 648 203 648 C175 648 147 625 142 597 C136 569 155 546 183 546 L183 546 Z M444 546 C471 546 499 569 504 597 C510 625 491 648 463 648 C436 648 408 625 403 597 C397 569 416 546 444 546 L444 546 Z M42 0 L111 0 L198 447 L129 447 L42 0 Z M364 -48 L459 447 L390 447 L294 -47 C281 -118 250 -159 164 -149 L155 -207 C232 -219 334 -203 364 -48 L364 -48 Z " />
<glyph glyph-name="Jcircumflex" unicode="&#x134;" horiz-adv-x="439" d="M465 794 L401 794 L273 681 L320 681 C341 681 350 687 367 700 L424 747 L463 700 C475 686 482 681 502 681 L549 681 L465 794 Z M146 -11 C235 -11 324 42 352 184 L440 640 L368 640 L280 181 C264 98 216 53 153 53 C117 53 89 65 64 105 L11 49 C44 12 84 -11 146 -11 L146 -11 Z " />
<glyph glyph-name="jcircumflex" unicode="&#x135;" horiz-adv-x="262" d="M252 632 L188 632 L60 519 L107 519 C128 519 137 525 154 538 L211 585 L250 538 C262 524 269 519 289 519 L336 519 L252 632 Z M124 -48 L219 447 L150 447 L54 -47 C41 -118 10 -159 -76 -149 L-85 -207 C-8 -219 94 -203 124 -48 L124 -48 Z " />
<glyph glyph-name="uni0136" unicode="&#x136;" horiz-adv-x="612" d="M628 640 L534 640 L196 365 L249 640 L177 640 L54 0 L126 0 L186 313 L426 0 L523 0 L259 340 L628 640 Z M244 -55 C219 -55 201 -72 197 -94 C192 -120 216 -132 237 -125 C232 -150 209 -178 168 -196 L173 -222 C239 -199 270 -151 277 -114 C284 -83 272 -55 244 -55 L244 -55 Z " />
<glyph glyph-name="uni0137" unicode="&#x137;" horiz-adv-x="472" d="M477 447 L381 447 L149 269 L228 680 L159 680 L28 0 L97 0 L139 219 L323 0 L418 0 L211 245 L477 447 Z M189 -55 C164 -55 146 -72 142 -94 C137 -120 161 -132 182 -125 C177 -150 154 -178 113 -196 L118 -222 C184 -199 215 -151 222 -114 C229 -83 217 -55 189 -55 L189 -55 Z " />
<glyph glyph-name="kgreenlandic" unicode="&#x138;" horiz-adv-x="485" d="M479 449 L388 449 L149 269 L184 449 L114 449 L29 0 L98 0 L140 219 L328 0 L419 0 L208 245 L479 449 Z " />
<glyph glyph-name="Lacute" unicode="&#x139;" horiz-adv-x="490" d="M290 741 L385 827 L314 840 L158 690 L192 690 C215 690 234 692 290 741 L290 741 Z M138 63 L249 640 L177 640 L54 0 L401 0 L413 63 L138 63 Z " />
<glyph glyph-name="lacute" unicode="&#x13a;" horiz-adv-x="218" d="M266 782 L361 868 L290 881 L134 731 L168 731 C191 731 210 733 266 782 L266 782 Z M31 0 L100 0 L232 680 L163 680 L31 0 Z " />
<glyph glyph-name="uni013B" unicode="&#x13b;" horiz-adv-x="490" d="M138 63 L249 640 L177 640 L54 0 L401 0 L413 63 L138 63 Z M188 -55 C163 -55 145 -72 141 -94 C136 -120 160 -132 181 -125 C176 -150 153 -178 112 -196 L117 -222 C183 -199 214 -151 221 -114 C228 -83 216 -55 188 -55 L188 -55 Z " />
<glyph glyph-name="uni013C" unicode="&#x13c;" horiz-adv-x="218" d="M31 0 L100 0 L232 680 L163 680 L31 0 Z M-25 -222 C41 -199 72 -151 79 -114 C86 -83 74 -55 46 -55 C21 -55 3 -72 -1 -94 C-6 -120 18 -132 39 -125 C34 -150 11 -178 -30 -196 L-25 -222 Z " />
<glyph glyph-name="Lcaron" unicode="&#x13d;" horiz-adv-x="463" d="M401 656 C376 656 358 639 354 618 C349 591 373 579 394 587 C389 561 366 533 325 515 L331 489 C397 512 427 560 434 597 C441 628 429 656 401 656 L401 656 Z M249 640 L177 640 L54 0 L401 0 L413 63 L138 63 L249 640 Z " />
<glyph glyph-name="lcaron" unicode="&#x13e;" horiz-adv-x="218" d="M280 530 C345 553 376 601 383 638 C390 669 378 697 349 697 C325 697 307 680 303 659 C298 632 322 620 343 628 C338 602 315 574 274 556 L280 530 Z M31 0 L100 0 L232 680 L163 680 L31 0 Z " />
<glyph glyph-name="Ldot" unicode="&#x13f;" horiz-adv-x="450" d="M249 640 L177 640 L54 0 L401 0 L413 63 L138 63 L249 640 Z M396 424 C368 424 340 401 335 373 C330 345 348 322 376 322 C404 322 431 345 437 373 C442 401 424 424 396 424 L396 424 Z " />
<glyph glyph-name="ldot" unicode="&#x140;" horiz-adv-x="397" d="M27 0 L96 0 L228 680 L159 680 L27 0 Z M313 292 C341 292 369 315 374 343 C380 371 361 394 333 394 C305 394 278 371 272 343 C267 315 286 292 313 292 L313 292 Z " />
<glyph glyph-name="Lslash" unicode="&#x141;" horiz-adv-x="490" d="M138 63 L187 318 L262 368 L274 430 L199 380 L249 640 L177 640 L116 324 L43 275 L30 213 L105 263 L54 0 L401 0 L413 63 L138 63 Z " />
<glyph glyph-name="lslash" unicode="&#x142;" horiz-adv-x="218" d="M254 446 L176 394 L232 680 L163 680 L97 341 L23 291 L10 229 L85 279 L31 0 L100 0 L164 332 L242 384 L254 446 Z " />
<glyph glyph-name="Nacute" unicode="&#x143;" horiz-adv-x="712" d="M505 741 L600 827 L529 840 L373 690 L407 690 C430 690 449 692 505 741 L505 741 Z M626 640 L525 120 L245 640 L177 640 L54 0 L124 0 L224 524 L505 0 L573 0 L696 640 L626 640 Z " />
<glyph glyph-name="nacute" unicode="&#x144;" horiz-adv-x="519" d="M380 578 L475 664 L404 677 L248 527 L282 527 C305 527 324 529 380 578 L380 578 Z M326 459 C261 459 206 430 171 386 L174 447 L114 447 L29 0 L98 0 L152 279 C177 366 243 399 304 399 C380 399 406 345 390 262 L339 0 L409 0 L461 272 C488 415 407 459 326 459 L326 459 Z " />
<glyph glyph-name="uni0145" unicode="&#x145;" horiz-adv-x="712" d="M626 640 L525 120 L245 640 L177 640 L54 0 L124 0 L224 524 L505 0 L573 0 L696 640 L626 640 Z M293 -55 C268 -55 250 -72 246 -94 C241 -120 265 -132 286 -125 C281 -150 258 -178 217 -196 L222 -222 C288 -199 319 -151 326 -114 C333 -83 321 -55 293 -55 L293 -55 Z " />
<glyph glyph-name="uni0146" unicode="&#x146;" horiz-adv-x="519" d="M326 459 C261 459 206 430 171 386 L174 447 L114 447 L29 0 L98 0 L152 279 C177 366 243 399 304 399 C380 399 406 345 390 262 L339 0 L409 0 L461 272 C488 415 407 459 326 459 L326 459 Z M199 -55 C174 -55 156 -72 152 -94 C147 -120 171 -132 192 -125 C187 -150 164 -178 123 -196 L128 -222 C194 -199 225 -151 232 -114 C239 -83 227 -55 199 -55 L199 -55 Z " />
<glyph glyph-name="Ncaron" unicode="&#x147;" horiz-adv-x="712" d="M479 690 L607 803 L560 803 C540 803 530 797 513 784 L456 737 L418 784 C406 798 398 803 378 803 L331 803 L415 690 L479 690 Z M626 640 L525 120 L245 640 L177 640 L54 0 L124 0 L224 524 L505 0 L573 0 L696 640 L626 640 Z " />
<glyph glyph-name="ncaron" unicode="&#x148;" horiz-adv-x="519" d="M354 528 L482 641 L435 641 C415 641 405 635 388 622 L331 575 L293 622 C281 636 273 641 253 641 L206 641 L290 528 L354 528 Z M326 459 C261 459 206 430 171 386 L174 447 L114 447 L29 0 L98 0 L152 279 C177 366 243 399 304 399 C380 399 406 345 390 262 L339 0 L409 0 L461 272 C488 415 407 459 326 459 L326 459 Z " />
<glyph glyph-name="napostrophe" unicode="&#x149;" horiz-adv-x="629" d="M237 574 C247 617 230 655 191 655 C156 655 132 632 126 602 C119 565 152 548 182 559 C175 523 142 485 86 460 L93 424 C185 455 227 523 237 574 L237 574 Z M437 459 C372 459 317 430 282 387 L285 447 L225 447 L139 0 L209 0 L263 279 C288 366 354 399 415 399 C490 399 517 345 501 262 L450 0 L519 0 L572 272 C599 415 517 459 437 459 L437 459 Z " />
<glyph glyph-name="Eng" unicode="&#x14a;" horiz-adv-x="712" d="M626 640 L525 120 L245 640 L177 640 L54 0 L124 0 L224 524 L381 230 L503 0 L495 -43 C478 -125 409 -133 362 -117 L340 -181 C421 -208 536 -188 566 -35 L573 0 L696 640 L626 640 Z " />
<glyph glyph-name="eng" unicode="&#x14b;" horiz-adv-x="519" d="M326 459 C261 459 206 430 171 386 L174 447 L114 447 L29 0 L98 0 L152 279 C177 366 243 399 304 399 C380 399 406 345 390 262 L339 0 L330 -48 C321 -94 301 -121 254 -115 L246 -170 C325 -186 381 -143 400 -45 L408 0 L409 0 L461 272 C488 415 407 459 326 459 L326 459 Z " />
<glyph glyph-name="Omacron" unicode="&#x14c;" horiz-adv-x="779" d="M370 723 L625 723 L634 769 L379 769 L370 723 Z M350 -11 C546 -11 707 134 742 317 C778 505 669 654 467 654 C272 654 111 510 75 327 C39 139 148 -11 350 -11 L350 -11 Z M352 53 C197 53 122 174 150 317 C179 466 306 590 466 590 C620 590 696 471 667 327 C639 179 511 53 352 53 L352 53 Z " />
<glyph glyph-name="omacron" unicode="&#x14d;" horiz-adv-x="562" d="M219 560 L474 560 L483 606 L228 606 L219 560 Z M238 -11 C375 -11 491 93 516 222 C541 353 465 459 325 459 C187 459 71 355 46 226 C22 94 98 -11 238 -11 L238 -11 Z M246 49 C151 49 100 125 119 222 C138 321 221 399 317 399 C411 399 462 322 443 226 C424 127 341 49 246 49 L246 49 Z " />
<glyph glyph-name="Obreve" unicode="&#x14e;" horiz-adv-x="779" d="M494 690 C577 690 633 735 649 802 L598 802 C589 772 555 737 497 737 C442 737 424 769 427 802 L377 802 C368 738 409 690 494 690 L494 690 Z M350 -11 C546 -11 707 134 742 317 C778 505 669 654 467 654 C272 654 111 510 75 327 C39 139 148 -11 350 -11 L350 -11 Z M352 53 C197 53 122 174 150 317 C179 466 306 590 466 590 C620 590 696 471 667 327 C639 179 511 53 352 53 L352 53 Z " />
<glyph glyph-name="obreve" unicode="&#x14f;" horiz-adv-x="562" d="M343 527 C426 527 482 572 498 639 L447 639 C438 609 404 574 346 574 C291 574 273 606 276 639 L226 639 C217 575 258 527 343 527 L343 527 Z M238 -11 C375 -11 491 93 516 222 C541 353 465 459 325 459 C187 459 71 355 46 226 C22 94 98 -11 238 -11 L238 -11 Z M246 49 C151 49 100 125 119 222 C138 321 221 399 317 399 C411 399 462 322 443 226 C424 127 341 49 246 49 L246 49 Z " />
<glyph glyph-name="Ohungarumlaut" unicode="&#x150;" horiz-adv-x="779" d="M500 741 L595 827 L524 840 L369 690 L403 690 C426 690 445 692 500 741 L500 741 Z M641 741 L736 827 L665 840 L509 690 L543 690 C566 690 585 692 641 741 L641 741 Z M350 -11 C546 -11 707 134 742 317 C778 505 669 654 467 654 C272 654 111 510 75 327 C39 139 148 -11 350 -11 L350 -11 Z M352 53 C197 53 122 174 150 317 C179 466 306 590 466 590 C620 590 696 471 667 327 C639 179 511 53 352 53 L352 53 Z " />
<glyph glyph-name="ohungarumlaut" unicode="&#x151;" horiz-adv-x="562" d="M349 578 L444 664 L373 677 L218 527 L252 527 C275 527 294 529 349 578 L349 578 Z M490 578 L585 664 L514 677 L358 527 L392 527 C415 527 434 529 490 578 L490 578 Z M238 -11 C375 -11 491 93 516 222 C541 353 465 459 325 459 C187 459 71 355 46 226 C22 94 98 -11 238 -11 L238 -11 Z M246 49 C151 49 100 125 119 222 C138 321 221 399 317 399 C411 399 462 322 443 226 C424 127 341 49 246 49 L246 49 Z " />
<glyph glyph-name="OE" unicode="&#x152;" horiz-adv-x="1098" d="M1099 577 L1112 640 L745 640 L721 513 C678 599 590 654 467 654 C272 654 111 510 75 327 C39 139 148 -11 350 -11 C468 -11 573 41 646 123 L622 0 L989 0 L1000 63 L706 63 L750 290 L994 290 L1006 350 L761 350 L805 577 L1099 577 Z M352 53 C197 53 122 174 150 317 C179 466 306 590 466 590 C620 590 696 471 667 327 C639 179 511 53 352 53 L352 53 Z " />
<glyph glyph-name="oe" unicode="&#x153;" horiz-adv-x="904" d="M710 459 C628 459 553 418 503 355 C475 418 413 459 325 459 C187 459 71 355 46 226 C22 94 98 -11 238 -11 C326 -11 405 32 457 96 C484 31 546 -11 636 -11 C710 -11 778 15 827 63 L782 108 C745 70 697 48 637 48 C542 48 500 120 516 214 L636 214 C766 214 867 244 872 336 C876 406 801 459 710 459 L710 459 Z M807 333 C802 279 714 264 631 264 L530 264 C561 343 629 401 709 401 C771 401 809 369 807 333 L807 333 Z M246 49 C151 49 100 125 119 222 C138 321 221 399 317 399 C411 399 462 322 443 226 C424 127 341 49 246 49 L246 49 Z " />
<glyph glyph-name="Racute" unicode="&#x154;" horiz-adv-x="559" d="M423 741 L518 827 L447 840 L291 690 L325 690 C348 690 367 692 423 741 L423 741 Z M524 461 C544 566 469 640 350 640 L177 640 L54 0 L126 0 L182 291 L242 291 L397 0 L484 0 L321 293 C408 302 504 357 524 461 L524 461 Z M449 465 C435 390 371 350 281 350 L193 350 L238 581 L320 581 C419 581 463 539 449 465 L449 465 Z " />
<glyph glyph-name="racute" unicode="&#x155;" horiz-adv-x="331" d="M299 578 L394 664 L323 677 L167 527 L201 527 C224 527 243 529 299 578 L299 578 Z M168 376 L173 447 L114 447 L29 0 L98 0 L149 269 L147 256 C163 342 219 393 294 393 C309 393 320 390 331 387 L357 455 C345 457 333 459 312 459 C259 459 204 422 168 376 L168 376 Z " />
<glyph glyph-name="uni0156" unicode="&#x156;" horiz-adv-x="559" d="M524 461 C544 566 469 640 350 640 L177 640 L54 0 L126 0 L182 291 L242 291 L397 0 L484 0 L321 293 C408 302 504 357 524 461 L524 461 Z M449 465 C435 390 371 350 281 350 L193 350 L238 581 L320 581 C419 581 463 539 449 465 L449 465 Z M223 -55 C198 -55 180 -72 176 -94 C171 -120 195 -132 216 -125 C211 -150 188 -178 147 -196 L152 -222 C218 -199 249 -151 256 -114 C263 -83 251 -55 223 -55 L223 -55 Z " />
<glyph glyph-name="uni0157" unicode="&#x157;" horiz-adv-x="331" d="M312 459 C259 459 204 422 168 376 L173 447 L114 447 L29 0 L98 0 L149 269 L147 256 C163 342 219 393 294 393 C309 393 320 390 331 387 L357 455 C345 457 333 459 312 459 L312 459 Z M44 -55 C19 -55 1 -72 -3 -94 C-8 -120 16 -132 37 -125 C32 -150 9 -178 -32 -196 L-27 -222 C39 -199 70 -151 77 -114 C84 -83 72 -55 44 -55 L44 -55 Z " />
<glyph glyph-name="Rcaron" unicode="&#x158;" horiz-adv-x="559" d="M397 690 L525 803 L478 803 C458 803 448 797 431 784 L374 737 L336 784 C324 798 316 803 296 803 L249 803 L333 690 L397 690 Z M524 461 C544 566 469 640 350 640 L177 640 L54 0 L126 0 L182 291 L242 291 L397 0 L484 0 L321 293 C408 302 504 357 524 461 L524 461 Z M449 465 C435 390 371 350 281 350 L193 350 L238 581 L320 581 C419 581 463 539 449 465 L449 465 Z " />
<glyph glyph-name="rcaron" unicode="&#x159;" horiz-adv-x="331" d="M273 528 L401 641 L354 641 C334 641 324 635 307 622 L250 575 L212 622 C200 636 192 641 172 641 L125 641 L209 528 L273 528 Z M168 376 L173 447 L114 447 L29 0 L98 0 L149 269 L147 256 C163 342 219 393 294 393 C309 393 320 390 331 387 L357 455 C345 457 333 459 312 459 C259 459 204 422 168 376 L168 376 Z " />
<glyph glyph-name="Sacute" unicode="&#x15a;" horiz-adv-x="533" d="M416 741 L511 827 L440 840 L284 690 L318 690 C341 690 360 692 416 741 L416 741 Z M222 -11 C315 -11 432 36 457 163 C476 261 409 319 323 355 C235 393 188 425 200 486 C212 546 271 590 336 590 C388 590 421 571 455 532 L514 579 C481 620 434 654 345 654 C245 654 146 589 127 491 C104 371 195 334 283 295 C344 267 394 233 380 163 C367 92 292 53 227 53 C158 53 115 79 83 135 L18 86 C55 28 114 -11 222 -11 L222 -11 Z " />
<glyph glyph-name="sacute" unicode="&#x15b;" horiz-adv-x="422" d="M334 578 L429 664 L358 677 L202 527 L236 527 C259 527 278 529 334 578 L334 578 Z M6 68 C26 23 85 -11 163 -11 C264 -11 340 38 354 116 C387 287 130 208 153 328 C161 369 197 398 257 399 C292 400 326 385 348 358 L397 400 C374 432 327 459 263 459 C168 459 98 408 82 329 C49 157 304 230 282 119 C274 78 234 49 169 49 C122 49 86 67 65 107 L6 68 Z " />
<glyph glyph-name="Scircumflex" unicode="&#x15c;" horiz-adv-x="533" d="M410 804 L346 804 L218 691 L265 691 C286 691 295 697 312 710 L369 757 L408 710 C420 696 427 691 447 691 L494 691 L410 804 Z M222 -11 C315 -11 432 36 457 163 C476 261 409 319 323 355 C235 393 188 425 200 486 C212 546 271 590 336 590 C388 590 421 571 455 532 L514 579 C481 620 434 654 345 654 C245 654 146 589 127 491 C104 371 195 334 283 295 C344 267 394 233 380 163 C367 92 292 53 227 53 C158 53 115 79 83 135 L18 86 C55 28 114 -11 222 -11 L222 -11 Z " />
<glyph glyph-name="scircumflex" unicode="&#x15d;" horiz-adv-x="422" d="M328 641 L264 641 L136 528 L183 528 C204 528 213 534 230 547 L287 594 L326 547 C338 533 345 528 365 528 L412 528 L328 641 Z M6 68 C26 23 85 -11 163 -11 C264 -11 340 38 354 116 C387 287 130 208 153 328 C161 369 197 398 257 399 C292 400 326 385 348 358 L397 400 C374 432 327 459 263 459 C168 459 98 408 82 329 C49 157 304 230 282 119 C274 78 234 49 169 49 C122 49 86 67 65 107 L6 68 Z " />
<glyph glyph-name="Scedilla" unicode="&#x15e;" horiz-adv-x="533" d="M323 355 C235 393 188 425 200 486 C212 546 271 590 336 590 C388 590 421 571 455 532 L514 579 C481 620 434 654 345 654 C245 654 146 589 127 491 C104 371 195 334 283 295 C344 267 394 233 380 163 C367 92 292 53 227 53 C158 53 115 79 83 135 L18 86 C51 33 103 -3 193 -10 L131 -67 L146 -88 C186 -73 237 -76 223 -111 C216 -130 192 -152 148 -151 C120 -149 98 -140 90 -133 L56 -171 C66 -180 96 -193 139 -193 C209 -193 264 -159 281 -115 C298 -71 275 -49 242 -46 C219 -43 199 -49 189 -53 L236 -11 C326 -6 433 42 457 163 C476 261 409 319 323 355 L323 355 Z " />
<glyph glyph-name="scedilla" unicode="&#x15f;" horiz-adv-x="422" d="M153 328 C161 369 197 398 257 399 C292 400 326 385 348 358 L397 400 C374 432 327 459 263 459 C168 459 98 408 82 329 C49 157 304 230 282 119 C274 78 234 49 169 49 C122 49 86 67 65 107 L6 68 C24 27 75 -5 142 -10 L81 -67 L96 -88 C136 -73 187 -76 173 -111 C166 -130 142 -152 98 -151 C70 -149 48 -140 40 -133 L6 -171 C16 -180 46 -193 89 -193 C159 -193 214 -159 231 -115 C248 -71 225 -49 192 -46 C169 -43 149 -49 139 -53 L186 -10 C276 -3 341 44 354 116 C387 287 130 208 153 328 L153 328 Z " />
<glyph glyph-name="Scaron" unicode="&#x160;" horiz-adv-x="533" d="M326 690 L390 690 L518 803 L471 803 C451 803 441 797 424 784 L367 737 L329 784 C317 798 309 803 289 803 L242 803 L326 690 Z M222 -11 C315 -11 432 36 457 163 C476 261 409 319 323 355 C235 393 188 425 200 486 C212 546 271 590 336 590 C388 590 421 571 455 532 L514 579 C481 620 434 654 345 654 C245 654 146 589 127 491 C104 371 195 334 283 295 C344 267 394 233 380 163 C367 92 292 53 227 53 C158 53 115 79 83 135 L18 86 C55 28 114 -11 222 -11 L222 -11 Z " />
<glyph glyph-name="scaron" unicode="&#x161;" horiz-adv-x="422" d="M243 528 L307 528 L435 641 L388 641 C368 641 358 635 341 622 L284 575 L246 622 C234 636 226 641 206 641 L159 641 L243 528 Z M6 68 C26 23 85 -11 163 -11 C264 -11 340 38 354 116 C387 287 130 208 153 328 C161 369 197 398 257 399 C292 400 326 385 348 358 L397 400 C374 432 327 459 263 459 C168 459 98 408 82 329 C49 157 304 230 282 119 C274 78 234 49 169 49 C122 49 86 67 65 107 L6 68 Z " />
<glyph glyph-name="uni0162" unicode="&#x162;" horiz-adv-x="540" d="M265 0 L376 577 L555 577 L568 640 L135 640 L122 577 L304 577 L193 0 L208 0 L136 -67 L151 -88 C191 -73 242 -76 228 -111 C221 -130 197 -152 153 -151 C125 -149 103 -140 95 -133 L61 -171 C71 -180 101 -193 144 -193 C214 -193 269 -159 286 -115 C303 -71 280 -49 247 -46 C224 -43 204 -49 194 -53 L252 0 L265 0 Z " />
<glyph glyph-name="uni0163" unicode="&#x163;" horiz-adv-x="334" d="M142 0 L217 389 L328 389 L338 447 L228 447 L253 576 L184 576 L159 447 L90 447 L79 389 L148 389 L73 0 L87 0 L15 -67 L30 -88 C70 -73 121 -76 107 -111 C100 -130 76 -152 32 -151 C4 -149 -18 -140 -26 -133 L-60 -171 C-50 -180 -20 -193 23 -193 C93 -193 148 -159 165 -115 C182 -71 159 -49 126 -46 C103 -43 83 -49 73 -53 L131 0 L142 0 Z " />
<glyph glyph-name="Tcaron" unicode="&#x164;" horiz-adv-x="540" d="M394 690 L522 803 L475 803 C455 803 445 797 428 784 L371 737 L333 784 C321 798 313 803 293 803 L246 803 L330 690 L394 690 Z M568 640 L135 640 L122 577 L304 577 L193 0 L265 0 L376 577 L555 577 L568 640 Z " />
<glyph glyph-name="tcaron" unicode="&#x165;" horiz-adv-x="334" d="M404 676 C380 676 362 659 358 638 C353 611 377 599 398 607 C393 581 370 553 329 535 L335 509 C400 532 431 580 438 617 C445 648 433 676 404 676 L404 676 Z M253 576 L184 576 L159 447 L90 447 L79 389 L148 389 L73 0 L142 0 L217 389 L328 389 L338 447 L228 447 L253 576 Z " />
<glyph glyph-name="Tbar" unicode="&#x166;" horiz-adv-x="540" d="M555 577 L568 640 L135 640 L122 577 L304 577 L259 346 L163 346 L153 298 L250 298 L193 0 L265 0 L322 298 L419 298 L429 346 L331 346 L376 577 L555 577 Z " />
<glyph glyph-name="tbar" unicode="&#x167;" horiz-adv-x="334" d="M328 389 L338 447 L228 447 L253 576 L184 576 L159 447 L90 447 L79 389 L148 389 L133 313 L90 313 L83 265 L124 265 L73 0 L142 0 L193 265 L275 265 L282 313 L202 313 L217 389 L328 389 Z " />
<glyph glyph-name="Utilde" unicode="&#x168;" horiz-adv-x="626" d="M466 694 C518 694 546 740 559 760 L519 785 C507 765 496 746 465 746 C426 746 416 787 362 787 C312 787 287 749 268 728 L307 696 C317 711 332 736 363 736 C404 736 413 694 466 694 L466 694 Z M270 -11 C407 -11 515 65 550 244 L626 640 L554 640 L480 255 C453 113 375 53 278 53 C183 53 130 111 158 253 L233 640 L161 640 L84 246 C50 66 130 -11 270 -11 L270 -11 Z " />
<glyph glyph-name="utilde" unicode="&#x169;" horiz-adv-x="512" d="M377 531 C429 531 457 577 470 597 L430 622 C418 602 407 583 376 583 C337 583 327 624 273 624 C223 624 198 586 179 565 L218 533 C228 548 243 573 274 573 C315 573 324 531 377 531 L377 531 Z M212 -12 C302 -12 409 31 438 184 L489 447 L419 447 L369 186 C353 101 298 48 220 48 C145 48 113 99 129 184 L179 447 L110 447 L60 186 C30 33 121 -12 212 -12 L212 -12 Z " />
<glyph glyph-name="Umacron" unicode="&#x16a;" horiz-adv-x="626" d="M282 723 L537 723 L546 769 L291 769 L282 723 Z M270 -11 C407 -11 515 65 550 244 L626 640 L554 640 L480 255 C453 113 375 53 278 53 C183 53 130 111 158 253 L233 640 L161 640 L84 246 C50 66 130 -11 270 -11 L270 -11 Z " />
<glyph glyph-name="umacron" unicode="&#x16b;" horiz-adv-x="512" d="M194 560 L449 560 L458 606 L203 606 L194 560 Z M212 -12 C302 -12 409 31 438 184 L489 447 L419 447 L369 186 C353 101 298 48 220 48 C145 48 113 99 129 184 L179 447 L110 447 L60 186 C30 33 121 -12 212 -12 L212 -12 Z " />
<glyph glyph-name="Ubreve" unicode="&#x16c;" horiz-adv-x="626" d="M407 690 C490 690 546 735 562 802 L511 802 C502 772 468 737 410 737 C355 737 337 769 340 802 L290 802 C281 738 322 690 407 690 L407 690 Z M270 -11 C407 -11 515 65 550 244 L626 640 L554 640 L480 255 C453 113 375 53 278 53 C183 53 130 111 158 253 L233 640 L161 640 L84 246 C50 66 130 -11 270 -11 L270 -11 Z " />
<glyph glyph-name="ubreve" unicode="&#x16d;" horiz-adv-x="512" d="M318 527 C401 527 457 572 473 639 L422 639 C413 609 379 574 321 574 C266 574 248 606 251 639 L201 639 C192 575 233 527 318 527 L318 527 Z M212 -12 C302 -12 409 31 438 184 L489 447 L419 447 L369 186 C353 101 298 48 220 48 C145 48 113 99 129 184 L179 447 L110 447 L60 186 C30 33 121 -12 212 -12 L212 -12 Z " />
<glyph glyph-name="Uring" unicode="&#x16e;" horiz-adv-x="626" d="M434 863 C382 863 332 821 323 772 C313 719 349 677 403 677 C454 677 504 718 514 767 C524 820 488 863 434 863 L434 863 Z M405 715 C375 715 355 739 361 767 C367 799 398 823 431 823 C461 823 480 800 475 772 C469 740 438 715 405 715 L405 715 Z M270 -11 C407 -11 515 65 550 244 L626 640 L554 640 L480 255 C453 113 375 53 278 53 C183 53 130 111 158 253 L233 640 L161 640 L84 246 C50 66 130 -11 270 -11 L270 -11 Z " />
<glyph glyph-name="uring" unicode="&#x16f;" horiz-adv-x="512" d="M346 701 C294 701 244 659 235 610 C225 557 261 515 315 515 C366 515 416 556 426 605 C436 658 400 701 346 701 L346 701 Z M317 553 C287 553 267 577 273 605 C279 637 310 661 343 661 C373 661 392 638 387 610 C381 578 350 553 317 553 L317 553 Z M212 -12 C302 -12 409 31 438 184 L489 447 L419 447 L369 186 C353 101 298 48 220 48 C145 48 113 99 129 184 L179 447 L110 447 L60 186 C30 33 121 -12 212 -12 L212 -12 Z " />
<glyph glyph-name="Uhungarumlaut" unicode="&#x170;" horiz-adv-x="626" d="M412 741 L507 827 L436 840 L281 690 L315 690 C338 690 357 692 412 741 L412 741 Z M553 741 L648 827 L577 840 L421 690 L455 690 C478 690 497 692 553 741 L553 741 Z M270 -11 C407 -11 515 65 550 244 L626 640 L554 640 L480 255 C453 113 375 53 278 53 C183 53 130 111 158 253 L233 640 L161 640 L84 246 C50 66 130 -11 270 -11 L270 -11 Z " />
<glyph glyph-name="uhungarumlaut" unicode="&#x171;" horiz-adv-x="512" d="M324 578 L419 664 L348 677 L193 527 L227 527 C250 527 269 529 324 578 L324 578 Z M465 578 L560 664 L489 677 L333 527 L367 527 C390 527 409 529 465 578 L465 578 Z M212 -12 C302 -12 409 31 438 184 L489 447 L419 447 L369 186 C353 101 298 48 220 48 C145 48 113 99 129 184 L179 447 L110 447 L60 186 C30 33 121 -12 212 -12 L212 -12 Z " />
<glyph glyph-name="Uogonek" unicode="&#x172;" horiz-adv-x="626" d="M554 640 L480 255 C453 113 375 53 278 53 C183 53 130 111 158 253 L233 640 L161 640 L84 246 C50 66 130 -11 270 -11 L271 -11 C217 -46 183 -92 196 -137 C209 -185 283 -193 335 -160 L329 -120 C229 -161 218 -69 329 -13 L350 -1 C448 24 522 101 550 244 L626 640 L554 640 Z " />
<glyph glyph-name="uogonek" unicode="&#x173;" horiz-adv-x="512" d="M419 447 L369 186 C353 101 298 48 220 48 C145 48 113 99 129 184 L179 447 L110 447 L60 186 C31 37 116 -9 205 -12 C151 -47 119 -93 131 -137 C144 -185 218 -193 270 -160 L264 -120 C164 -161 153 -69 264 -13 L283 -3 C351 17 416 70 438 184 L489 447 L419 447 Z " />
<glyph glyph-name="Wcircumflex" unicode="&#x174;" horiz-adv-x="943" d="M518 710 L575 757 L614 710 C626 696 633 691 653 691 L700 691 L616 804 L552 804 L424 691 L471 691 C492 691 501 697 518 710 L518 710 Z M909 640 L639 103 L584 640 L523 640 L259 103 L196 640 L121 640 L210 0 L268 0 L535 545 L591 0 L649 0 L985 640 L909 640 Z " />
<glyph glyph-name="wcircumflex" unicode="&#x175;" horiz-adv-x="729" d="M379 547 L436 594 L475 547 C487 533 494 528 514 528 L561 528 L477 641 L413 641 L285 528 L332 528 C353 528 362 534 379 547 L379 547 Z M674 447 L480 90 L437 447 L377 447 L198 90 L141 447 L68 447 L153 0 L210 0 L392 364 L434 0 L491 0 L749 447 L674 447 Z " />
<glyph glyph-name="Ycircumflex" unicode="&#x176;" horiz-adv-x="576" d="M334 710 L391 757 L430 710 C442 696 449 691 469 691 L516 691 L432 804 L368 804 L240 691 L287 691 C308 691 317 697 334 710 L334 710 Z M630 640 L546 640 L317 371 L193 640 L109 640 L268 302 L210 0 L282 0 L339 300 L630 640 Z " />
<glyph glyph-name="ycircumflex" unicode="&#x177;" horiz-adv-x="479" d="M252 547 L309 594 L348 547 C360 533 367 528 387 528 L434 528 L350 641 L286 641 L158 528 L205 528 C226 528 235 534 252 547 L252 547 Z M428 447 L213 93 L135 447 L62 447 L163 13 L22 -210 L96 -210 L504 447 L428 447 Z " />
<glyph glyph-name="Ydieresis" unicode="&#x178;" horiz-adv-x="575" d="M278 702 C302 702 326 722 331 747 C336 774 318 795 291 795 C266 795 245 776 240 752 C234 723 250 702 278 702 L278 702 Z M478 702 C502 702 526 722 531 747 C536 774 517 795 491 795 C466 795 444 776 440 752 C434 723 450 702 478 702 L478 702 Z M630 640 L546 640 L317 371 L193 640 L109 640 L268 302 L210 0 L282 0 L339 300 L630 640 Z " />
<glyph glyph-name="Zacute" unicode="&#x179;" horiz-adv-x="567" d="M425 741 L520 827 L449 840 L293 690 L327 690 C350 690 369 692 425 741 L425 741 Z M571 640 L153 640 L141 577 L466 577 L22 54 L12 0 L468 0 L479 63 L113 63 L561 586 L571 640 Z " />
<glyph glyph-name="zacute" unicode="&#x17a;" horiz-adv-x="472" d="M354 578 L449 664 L378 677 L222 527 L256 527 C279 527 298 529 354 578 L354 578 Z M452 447 L105 447 L93 386 L354 386 L14 52 L5 0 L384 0 L395 61 L106 61 L441 391 L452 447 Z " />
<glyph glyph-name="Zdotaccent" unicode="&#x17b;" horiz-adv-x="567" d="M369 706 C397 706 425 729 430 757 C435 784 417 807 389 807 C361 807 334 784 328 757 C323 729 341 706 369 706 L369 706 Z M571 640 L153 640 L141 577 L466 577 L22 54 L12 0 L468 0 L479 63 L113 63 L561 586 L571 640 Z " />
<glyph glyph-name="zdotaccent" unicode="&#x17c;" horiz-adv-x="472" d="M298 543 C326 543 354 566 359 594 C364 621 346 644 318 644 C290 644 263 621 257 594 C252 566 270 543 298 543 L298 543 Z M452 447 L105 447 L93 386 L354 386 L14 52 L5 0 L384 0 L395 61 L106 61 L441 391 L452 447 Z " />
<glyph glyph-name="Zcaron" unicode="&#x17d;" horiz-adv-x="567" d="M399 690 L527 803 L480 803 C460 803 450 797 433 784 L376 737 L338 784 C326 798 318 803 298 803 L251 803 L335 690 L399 690 Z M571 640 L153 640 L141 577 L466 577 L22 54 L12 0 L468 0 L479 63 L113 63 L561 586 L571 640 Z " />
<glyph glyph-name="zcaron" unicode="&#x17e;" horiz-adv-x="472" d="M328 528 L456 641 L409 641 C389 641 379 635 362 622 L305 575 L267 622 C255 636 247 641 227 641 L180 641 L264 528 L328 528 Z M93 386 L354 386 L14 52 L5 0 L384 0 L395 61 L106 61 L441 391 L452 447 L105 447 L93 386 Z " />
<glyph glyph-name="uni0189" unicode="&#x189;" horiz-adv-x="664" d="M342 640 L177 640 L120 346 L63 346 L53 298 L111 298 L54 0 L221 0 C449 0 592 142 626 319 C660 497 570 640 342 640 L342 640 Z M552 323 C520 162 406 58 216 58 L137 58 L183 298 L319 298 L329 346 L192 346 L238 582 L320 582 C509 582 582 481 552 323 L552 323 Z " />
<glyph glyph-name="uni018F" unicode="&#x18f;" horiz-adv-x="723" d="M427 655 C323 655 227 616 158 549 L207 501 C267 558 336 589 418 589 C561 589 633 485 615 348 L80 348 L73 312 C37 121 131 -12 309 -12 C493 -12 651 136 686 320 C721 505 620 655 427 655 L427 655 Z M318 52 C188 52 122 142 144 287 L602 287 C562 153 452 52 318 52 L318 52 Z " />
<glyph glyph-name="florin" unicode="&#x192;" horiz-adv-x="510" d="M490 654 C418 654 363 594 325 499 L279 386 L180 386 L171 339 L260 339 L125 10 C98 -57 72 -89 34 -89 C16 -89 2 -86 -14 -68 L-59 -114 C-35 -141 -4 -150 31 -150 C104 -150 155 -90 193 5 L328 339 L436 339 L445 386 L347 386 L391 495 C416 555 443 594 484 594 C505 594 526 588 546 564 L592 610 C562 641 531 654 490 654 L490 654 Z " />
<glyph glyph-name="uni0197" unicode="&#x197;" horiz-adv-x="283" d="M310 398 L212 398 L259 640 L187 640 L140 398 L44 398 L34 350 L130 350 L62 0 L134 0 L202 350 L300 350 L310 398 Z " />
<glyph glyph-name="uni019D" unicode="&#x19d;" horiz-adv-x="712" d="M626 640 L525 120 L245 640 L177 640 L54 0 L46 -40 C29 -122 -41 -134 -86 -118 L-103 -180 C-25 -207 88 -191 117 -38 L126 10 L224 524 L505 0 L573 0 L696 640 L626 640 Z " />
<glyph glyph-name="uni01C3" unicode="&#x1c3;" horiz-adv-x="240" d="M240 640 L159 640 L80 169 L138 169 L240 640 Z M75 -7 C103 -7 130 16 136 44 C141 71 122 95 95 95 C67 95 39 71 34 44 C28 16 47 -7 75 -7 L75 -7 Z " />
<glyph glyph-name="uni01CD" unicode="&#x1cd;" horiz-adv-x="634" d="M439 690 L567 803 L520 803 C500 803 490 797 473 784 L416 737 L378 784 C366 798 358 803 338 803 L291 803 L375 690 L439 690 Z M360 640 L-16 0 L62 0 L170 188 L450 189 L486 0 L563 0 L432 640 L360 640 Z M204 248 L381 556 L439 248 L204 248 Z " />
<glyph glyph-name="uni01CE" unicode="&#x1ce;" horiz-adv-x="562" d="M369 528 L497 641 L450 641 C430 641 420 635 403 622 L346 575 L308 622 C296 636 288 641 268 641 L221 641 L305 528 L369 528 Z M478 449 L454 376 C430 428 380 459 309 459 C191 459 77 367 46 222 C17 80 90 -10 206 -10 C282 -10 348 25 395 81 L391 0 L448 0 L536 449 L478 449 Z M237 50 C144 50 98 127 119 226 C139 324 216 400 307 400 C403 400 450 322 428 222 C408 125 331 50 237 50 L237 50 Z " />
<glyph glyph-name="uni01CF" unicode="&#x1cf;" horiz-adv-x="283" d="M200 690 L264 690 L392 803 L345 803 C325 803 315 797 298 784 L241 737 L203 784 C191 798 183 803 163 803 L116 803 L200 690 Z M259 640 L187 640 L62 0 L134 0 L259 640 Z " />
<glyph glyph-name="uni01D0" unicode="&#x1d0;" horiz-adv-x="240" d="M147 528 L211 528 L339 641 L292 641 C272 641 262 635 245 622 L188 575 L150 622 C138 636 130 641 110 641 L63 641 L147 528 Z M42 0 L111 0 L198 447 L129 447 L42 0 Z " />
<glyph glyph-name="uni01D1" unicode="&#x1d1;" horiz-adv-x="779" d="M459 690 L523 690 L651 803 L604 803 C584 803 574 797 557 784 L500 737 L462 784 C450 798 442 803 422 803 L375 803 L459 690 Z M350 -11 C546 -11 707 134 742 317 C778 505 669 654 467 654 C272 654 111 510 75 327 C39 139 148 -11 350 -11 L350 -11 Z M352 53 C197 53 122 174 150 317 C179 466 306 590 466 590 C620 590 696 471 667 327 C639 179 511 53 352 53 L352 53 Z " />
<glyph glyph-name="uni01D2" unicode="&#x1d2;" horiz-adv-x="562" d="M309 528 L373 528 L501 641 L454 641 C434 641 424 635 407 622 L350 575 L312 622 C300 636 292 641 272 641 L225 641 L309 528 Z M238 -11 C375 -11 491 93 516 222 C541 353 465 459 325 459 C187 459 71 355 46 226 C22 94 98 -11 238 -11 L238 -11 Z M246 49 C151 49 100 125 119 222 C138 321 221 399 317 399 C411 399 462 322 443 226 C424 127 341 49 246 49 L246 49 Z " />
<glyph glyph-name="uni01D3" unicode="&#x1d3;" horiz-adv-x="626" d="M372 690 L436 690 L564 803 L517 803 C497 803 487 797 470 784 L413 737 L375 784 C363 798 355 803 335 803 L288 803 L372 690 Z M270 -11 C407 -11 515 65 550 244 L626 640 L554 640 L480 255 C453 113 375 53 278 53 C183 53 130 111 158 253 L233 640 L161 640 L84 246 C50 66 130 -11 270 -11 L270 -11 Z " />
<glyph glyph-name="uni01D4" unicode="&#x1d4;" horiz-adv-x="512" d="M283 528 L347 528 L475 641 L428 641 C408 641 398 635 381 622 L324 575 L286 622 C274 636 266 641 246 641 L199 641 L283 528 Z M212 -12 C302 -12 409 31 438 184 L489 447 L419 447 L369 186 C353 101 298 48 220 48 C145 48 113 99 129 184 L179 447 L110 447 L60 186 C30 33 121 -12 212 -12 L212 -12 Z " />
<glyph glyph-name="uni01D5" unicode="&#x1d5;" horiz-adv-x="626" d="M310 838 L565 838 L574 884 L319 884 L310 838 Z M323 787 C298 787 276 768 272 744 C266 715 282 694 309 694 C333 694 357 713 363 738 C368 766 349 787 323 787 L323 787 Z M522 787 C497 787 476 768 471 744 C466 715 481 694 509 694 C533 694 557 713 563 738 C567 766 549 787 522 787 L522 787 Z M270 -11 C407 -11 515 65 550 244 L626 640 L554 640 L480 255 C453 113 375 53 278 53 C183 53 130 111 158 253 L233 640 L161 640 L84 246 C50 66 130 -11 270 -11 L270 -11 Z " />
<glyph glyph-name="uni01D6" unicode="&#x1d6;" horiz-adv-x="512" d="M219 689 L474 689 L483 735 L228 735 L219 689 Z M232 633 C207 633 186 614 181 590 C176 561 191 540 219 540 C243 540 267 559 273 584 C277 612 259 633 232 633 L232 633 Z M432 633 C407 633 386 614 381 590 C375 561 391 540 419 540 C443 540 467 559 472 584 C477 612 459 633 432 633 L432 633 Z M212 -12 C302 -12 409 31 438 184 L489 447 L419 447 L369 186 C353 101 298 48 220 48 C145 48 113 99 129 184 L179 447 L110 447 L60 186 C30 33 121 -12 212 -12 L212 -12 Z " />
<glyph glyph-name="uni01D7" unicode="&#x1d7;" horiz-adv-x="626" d="M388 805 L428 805 C442 805 457 808 477 825 L577 910 L509 925 L388 805 Z M323 787 C298 787 276 768 272 744 C266 715 282 694 309 694 C333 694 357 713 363 738 C368 766 349 787 323 787 L323 787 Z M522 787 C497 787 476 768 471 744 C466 715 481 694 509 694 C533 694 557 713 563 738 C567 766 549 787 522 787 L522 787 Z M270 -11 C407 -11 515 65 550 244 L626 640 L554 640 L480 255 C453 113 375 53 278 53 C183 53 130 111 158 253 L233 640 L161 640 L84 246 C50 66 130 -11 270 -11 L270 -11 Z " />
<glyph glyph-name="uni01D8" unicode="&#x1d8;" horiz-adv-x="512" d="M297 655 L337 655 C351 655 366 658 386 675 L486 760 L418 775 L297 655 Z M232 633 C207 633 186 614 181 590 C176 561 191 540 219 540 C243 540 267 559 273 584 C277 612 259 633 232 633 L232 633 Z M432 633 C407 633 386 614 381 590 C375 561 391 540 419 540 C443 540 467 559 472 584 C477 612 459 633 432 633 L432 633 Z M212 -12 C302 -12 409 31 438 184 L489 447 L419 447 L369 186 C353 101 298 48 220 48 C145 48 113 99 129 184 L179 447 L110 447 L60 186 C30 33 121 -12 212 -12 L212 -12 Z " />
<glyph glyph-name="uni01D9" unicode="&#x1d9;" horiz-adv-x="626" d="M400 805 L464 805 L592 918 L545 918 C525 918 515 912 498 899 L441 852 L403 899 C391 913 383 918 363 918 L316 918 L400 805 Z M323 787 C298 787 276 768 272 744 C266 715 282 694 309 694 C333 694 357 713 363 738 C368 766 349 787 323 787 L323 787 Z M522 787 C497 787 476 768 471 744 C466 715 481 694 509 694 C533 694 557 713 563 738 C567 766 549 787 522 787 L522 787 Z M270 -11 C407 -11 515 65 550 244 L626 640 L554 640 L480 255 C453 113 375 53 278 53 C183 53 130 111 158 253 L233 640 L161 640 L84 246 C50 66 130 -11 270 -11 L270 -11 Z " />
<glyph glyph-name="uni01DA" unicode="&#x1da;" horiz-adv-x="512" d="M308 656 L372 656 L500 769 L453 769 C433 769 423 763 406 750 L349 703 L311 750 C299 764 291 769 271 769 L224 769 L308 656 Z M232 633 C207 633 186 614 181 590 C176 561 191 540 219 540 C243 540 267 559 273 584 C277 612 259 633 232 633 L232 633 Z M432 633 C407 633 386 614 381 590 C375 561 391 540 419 540 C443 540 467 559 472 584 C477 612 459 633 432 633 L432 633 Z M212 -12 C302 -12 409 31 438 184 L489 447 L419 447 L369 186 C353 101 298 48 220 48 C145 48 113 99 129 184 L179 447 L110 447 L60 186 C30 33 121 -12 212 -12 L212 -12 Z " />
<glyph glyph-name="uni01DB" unicode="&#x1db;" horiz-adv-x="626" d="M464 805 L390 925 L316 910 L383 825 C396 808 409 805 424 805 L464 805 Z M323 787 C298 787 276 768 272 744 C266 715 282 694 309 694 C333 694 357 713 363 738 C368 766 349 787 323 787 L323 787 Z M522 787 C497 787 476 768 471 744 C466 715 481 694 509 694 C533 694 557 713 563 738 C567 766 549 787 522 787 L522 787 Z M270 -11 C407 -11 515 65 550 244 L626 640 L554 640 L480 255 C453 113 375 53 278 53 C183 53 130 111 158 253 L233 640 L161 640 L84 246 C50 66 130 -11 270 -11 L270 -11 Z " />
<glyph glyph-name="uni01DC" unicode="&#x1dc;" horiz-adv-x="512" d="M372 656 L298 776 L224 761 L291 676 C304 659 317 656 332 656 L372 656 Z M232 633 C207 633 186 614 181 590 C176 561 191 540 219 540 C243 540 267 559 273 584 C277 612 259 633 232 633 L232 633 Z M432 633 C407 633 386 614 381 590 C375 561 391 540 419 540 C443 540 467 559 472 584 C477 612 459 633 432 633 L432 633 Z M212 -12 C302 -12 409 31 438 184 L489 447 L419 447 L369 186 C353 101 298 48 220 48 C145 48 113 99 129 184 L179 447 L110 447 L60 186 C30 33 121 -12 212 -12 L212 -12 Z " />
<glyph glyph-name="uni01DD" unicode="&#x1dd;" horiz-adv-x="506" d="M267 458 C194 458 125 432 77 384 L122 339 C158 377 207 399 266 399 C362 399 404 327 387 233 L268 233 C137 233 37 203 32 111 C28 41 103 -12 194 -12 C322 -12 433 90 458 217 C483 350 410 458 267 458 L267 458 Z M195 46 C133 46 95 78 97 114 C101 168 190 183 272 183 L373 183 C342 104 274 46 195 46 L195 46 Z " />
<glyph glyph-name="uni01DE" unicode="&#x1de;" horiz-adv-x="634" d="M323 884 L314 838 L569 838 L578 884 L323 884 Z M312 694 C336 694 360 713 366 738 C371 766 352 787 326 787 C301 787 279 768 275 744 C269 715 285 694 312 694 L312 694 Z M525 787 C500 787 479 768 474 744 C469 715 484 694 512 694 C536 694 560 713 566 738 C570 766 552 787 525 787 L525 787 Z M360 640 L-16 0 L62 0 L170 188 L450 189 L486 0 L563 0 L432 640 L360 640 Z M204 248 L381 556 L439 248 L204 248 Z " />
<glyph glyph-name="uni01DF" unicode="&#x1df;" horiz-adv-x="562" d="M504 735 L249 735 L240 689 L495 689 L504 735 Z M241 540 C265 540 289 559 295 584 C299 612 281 633 254 633 C229 633 208 614 203 590 C198 561 213 540 241 540 L241 540 Z M403 590 C397 561 413 540 441 540 C465 540 489 559 494 584 C499 612 481 633 454 633 C429 633 408 614 403 590 L403 590 Z M478 449 L454 376 C430 428 380 459 309 459 C191 459 77 367 46 222 C17 80 90 -10 206 -10 C282 -10 348 25 395 81 L391 0 L448 0 L536 449 L478 449 Z M237 50 C144 50 98 127 119 226 C139 324 216 400 307 400 C403 400 450 322 428 222 C408 125 331 50 237 50 L237 50 Z " />
<glyph glyph-name="Gcaron" unicode="&#x1e6;" horiz-adv-x="732" d="M497 690 L625 803 L578 803 C558 803 548 797 531 784 L474 737 L436 784 C424 798 416 803 396 803 L349 803 L433 690 L497 690 Z M441 340 L430 279 L620 279 C594 142 480 53 349 53 C194 53 122 176 150 321 C178 467 299 590 462 590 C545 590 593 558 609 541 L659 596 C634 621 565 654 471 654 C269 654 110 509 75 325 C39 138 140 -11 341 -11 C538 -11 666 135 696 288 L706 340 L441 340 Z " />
<glyph glyph-name="gcaron" unicode="&#x1e7;" horiz-adv-x="561" d="M372 528 L500 641 L453 641 C433 641 423 635 406 622 L349 575 L311 622 C299 636 291 641 271 641 L224 641 L308 528 L372 528 Z M476 447 L453 377 C429 428 380 459 309 459 C191 459 77 367 46 222 C17 80 90 -10 206 -10 C280 -10 345 23 392 78 L384 37 C361 -87 304 -150 203 -150 C178 -150 154 -145 133 -135 L106 -196 C130 -204 162 -210 197 -210 C339 -210 423 -125 454 34 L533 447 L476 447 Z M237 50 C144 50 98 127 119 226 C139 324 216 400 307 400 C403 400 450 322 428 222 C408 125 331 50 237 50 L237 50 Z " />
<glyph glyph-name="uni01EA" unicode="&#x1ea;" horiz-adv-x="779" d="M467 654 C272 654 111 510 75 327 C40 146 140 0 328 -10 C273 -45 239 -92 252 -137 C265 -185 339 -193 391 -160 L385 -120 C285 -161 274 -69 385 -13 L393 -9 C569 11 710 147 742 317 C778 505 669 654 467 654 L467 654 Z M667 327 C639 179 511 53 352 53 C197 53 122 174 150 317 C179 466 306 590 466 590 C620 590 696 471 667 327 L667 327 Z " />
<glyph glyph-name="uni01EB" unicode="&#x1eb;" horiz-adv-x="562" d="M325 459 C187 459 71 355 46 226 C23 97 94 -6 227 -11 C173 -46 139 -92 152 -137 C165 -185 239 -193 291 -160 L285 -120 C185 -161 174 -69 285 -13 L302 -3 C410 23 495 114 516 222 C541 353 465 459 325 459 L325 459 Z M443 226 C424 127 341 49 246 49 C151 49 100 125 119 222 C138 321 221 399 317 399 C411 399 462 322 443 226 L443 226 Z " />
<glyph glyph-name="Aringacute" unicode="&#x1fa;" horiz-adv-x="634" d="M492 817 L592 902 L524 917 L403 797 L443 797 C457 797 472 800 492 817 L492 817 Z M407 580 C458 580 508 621 518 670 C528 723 492 766 438 766 C386 766 336 724 327 675 C317 622 353 580 407 580 L407 580 Z M365 670 C371 702 402 726 435 726 C465 726 484 703 479 675 C473 643 442 618 409 618 C379 618 359 642 365 670 L365 670 Z M360 550 L-16 0 L62 0 L170 162 L450 162 L486 0 L563 0 L432 550 L360 550 Z M204 213 L381 477 L439 213 L204 213 Z " />
<glyph glyph-name="aringacute" unicode="&#x1fb;" horiz-adv-x="562" d="M422 752 L522 837 L454 852 L333 732 L373 732 C387 732 402 735 422 752 L422 752 Z M336 515 C387 515 437 556 447 605 C457 658 421 701 367 701 C315 701 265 659 256 610 C246 557 282 515 336 515 L336 515 Z M294 605 C300 637 331 661 364 661 C394 661 413 638 408 610 C402 578 371 553 338 553 C308 553 288 577 294 605 L294 605 Z M478 449 L454 376 C430 428 380 459 309 459 C191 459 77 367 46 222 C17 80 90 -10 206 -10 C282 -10 348 25 395 81 L391 0 L448 0 L536 449 L478 449 Z M237 50 C144 50 98 127 119 226 C139 324 216 400 307 400 C403 400 450 322 428 222 C408 125 331 50 237 50 L237 50 Z " />
<glyph glyph-name="AEacute" unicode="&#x1fc;" horiz-adv-x="812" d="M594 731 L689 817 L618 830 L462 680 L496 680 C519 680 538 682 594 731 L594 731 Z M815 580 L827 643 L361 643 L-16 0 L62 0 L167 188 L402 188 L415 0 L703 0 L715 63 L485 63 L464 289 L708 289 L720 349 L458 349 L437 580 L815 580 Z M201 248 L377 563 L398 248 L201 248 Z " />
<glyph glyph-name="aeacute" unicode="&#x1fd;" horiz-adv-x="888" d="M566 570 L661 656 L590 669 L434 519 L468 519 C491 519 510 521 566 570 L566 570 Z M694 459 C631 459 572 434 525 394 L536 449 L478 449 L454 376 C430 428 380 459 309 459 C191 459 77 367 46 222 C17 80 90 -10 206 -10 C282 -10 348 25 395 81 L391 0 L448 0 L460 62 C493 17 547 -11 620 -11 C694 -11 762 15 811 63 L766 108 C729 70 681 48 621 48 C526 48 484 120 500 214 L620 214 C750 214 851 244 856 336 C860 406 785 459 694 459 L694 459 Z M791 333 C786 279 698 264 615 264 L514 264 C545 343 613 401 693 401 C755 401 793 369 791 333 L791 333 Z M237 50 C144 50 98 127 119 226 C139 324 216 400 307 400 C403 400 450 322 428 222 C408 125 331 50 237 50 L237 50 Z " />
<glyph glyph-name="Oslashacute" unicode="&#x1fe;" horiz-adv-x="779" d="M539 741 L634 827 L563 840 L407 690 L441 690 C464 690 483 692 539 741 L539 741 Z M787 637 L757 668 L666 585 C618 629 551 654 467 654 C272 654 111 510 75 327 C57 234 75 150 122 90 L32 8 L62 -23 L151 58 C199 15 267 -11 350 -11 C546 -11 707 134 742 317 C760 410 742 493 696 554 L787 637 Z M150 317 C179 466 306 590 466 590 C529 590 578 570 613 537 L177 140 C147 187 137 250 150 317 L150 317 Z M667 327 C639 179 511 53 352 53 C289 53 239 73 204 106 L641 504 C671 457 681 395 667 327 L667 327 Z " />
<glyph glyph-name="oslashacute" unicode="&#x1ff;" horiz-adv-x="562" d="M399 578 L494 664 L423 677 L267 527 L301 527 C324 527 343 529 399 578 L399 578 Z M549 445 L526 471 L462 412 C429 442 382 459 325 459 C184 459 71 355 46 226 C34 162 45 104 77 61 L12 2 L36 -22 L100 36 C133 6 180 -11 238 -11 C378 -11 491 93 516 222 C528 286 517 344 485 387 L549 445 Z M118 222 C136 321 218 399 317 399 C356 399 388 386 410 365 L131 111 C114 140 110 179 118 222 L118 222 Z M443 226 C424 127 345 49 246 49 C206 49 174 62 152 83 L431 337 C447 307 451 269 443 226 L443 226 Z " />
<glyph glyph-name="uni0218" unicode="&#x218;" horiz-adv-x="533" d="M222 -11 C315 -11 432 36 457 163 C476 261 409 319 323 355 C235 393 188 425 200 486 C212 546 271 590 336 590 C388 590 421 571 455 532 L514 579 C481 620 434 654 345 654 C245 654 146 589 127 491 C104 371 195 334 283 295 C344 267 394 233 380 163 C367 92 292 53 227 53 C158 53 115 79 83 135 L18 86 C55 28 114 -11 222 -11 L222 -11 Z M133 -222 C199 -199 230 -151 237 -114 C244 -83 232 -55 204 -55 C179 -55 161 -72 157 -94 C152 -120 176 -132 197 -125 C192 -150 169 -178 128 -196 L133 -222 Z " />
<glyph glyph-name="uni0219" unicode="&#x219;" horiz-adv-x="422" d="M6 68 C26 23 85 -11 163 -11 C264 -11 340 38 354 116 C387 287 130 208 153 328 C161 369 197 398 257 399 C292 400 326 385 348 358 L397 400 C374 432 327 459 263 459 C168 459 98 408 82 329 C49 157 304 230 282 119 C274 78 234 49 169 49 C122 49 86 67 65 107 L6 68 Z M83 -222 C149 -199 180 -151 187 -114 C194 -83 182 -55 154 -55 C129 -55 111 -72 107 -94 C102 -120 126 -132 147 -125 C142 -150 119 -178 78 -196 L83 -222 Z " />
<glyph glyph-name="uni021A" unicode="&#x21a;" horiz-adv-x="540" d="M568 640 L135 640 L122 577 L304 577 L193 0 L265 0 L376 577 L555 577 L568 640 Z M209 -55 C184 -55 166 -72 162 -94 C157 -120 181 -132 202 -125 C197 -150 174 -178 133 -196 L138 -222 C204 -199 235 -151 242 -114 C249 -83 237 -55 209 -55 L209 -55 Z " />
<glyph glyph-name="uni021B" unicode="&#x21b;" horiz-adv-x="334" d="M338 447 L228 447 L253 576 L184 576 L159 447 L90 447 L79 389 L148 389 L73 0 L142 0 L217 389 L328 389 L338 447 Z M87 -55 C62 -55 44 -72 40 -94 C35 -120 59 -132 80 -125 C75 -150 52 -178 11 -196 L16 -222 C82 -199 113 -151 120 -114 C127 -83 115 -55 87 -55 L87 -55 Z " />
<glyph glyph-name="uni0228" unicode="&#x228;" horiz-adv-x="529" d="M531 577 L543 640 L177 640 L54 0 L213 0 L141 -67 L156 -88 C196 -73 247 -76 233 -111 C226 -130 202 -152 158 -151 C130 -149 108 -140 100 -133 L66 -171 C76 -180 106 -193 149 -193 C219 -193 274 -159 291 -115 C308 -71 285 -49 252 -46 C229 -43 209 -49 199 -53 L257 0 L420 0 L432 63 L138 63 L182 290 L426 290 L438 350 L193 350 L237 577 L531 577 Z " />
<glyph glyph-name="uni0229" unicode="&#x229;" horiz-adv-x="505" d="M311 459 C183 459 72 357 47 230 C25 112 80 14 192 -7 L127 -67 L142 -88 C182 -73 233 -76 219 -111 C212 -130 188 -152 144 -151 C116 -149 94 -140 86 -133 L52 -171 C62 -180 92 -193 135 -193 C205 -193 260 -159 277 -115 C294 -71 271 -49 238 -46 C215 -43 195 -49 185 -53 L231 -11 L238 -11 C311 -11 380 15 428 63 L383 108 C347 70 298 48 239 48 C143 48 101 120 118 214 L237 214 C368 214 468 244 473 336 C477 406 402 459 311 459 L311 459 Z M408 333 C404 279 315 264 233 264 L132 264 C163 343 231 401 310 401 C372 401 410 369 408 333 L408 333 Z " />
<glyph glyph-name="uni022A" unicode="&#x22a;" horiz-adv-x="779" d="M398 838 L653 838 L662 884 L407 884 L398 838 Z M410 787 C385 787 363 768 359 744 C353 715 369 694 396 694 C420 694 444 713 450 738 C455 766 436 787 410 787 L410 787 Z M609 787 C584 787 563 768 558 744 C553 715 568 694 596 694 C620 694 644 713 650 738 C654 766 636 787 609 787 L609 787 Z M350 -11 C546 -11 707 134 742 317 C778 505 669 654 467 654 C272 654 111 510 75 327 C39 139 148 -11 350 -11 L350 -11 Z M352 53 C197 53 122 174 150 317 C179 466 306 590 466 590 C620 590 696 471 667 327 C639 179 511 53 352 53 L352 53 Z " />
<glyph glyph-name="uni022B" unicode="&#x22b;" horiz-adv-x="562" d="M244 689 L499 689 L508 735 L253 735 L244 689 Z M257 633 C232 633 211 614 206 590 C201 561 216 540 244 540 C268 540 292 559 298 584 C302 612 284 633 257 633 L257 633 Z M457 633 C432 633 411 614 406 590 C400 561 416 540 444 540 C468 540 492 559 497 584 C502 612 484 633 457 633 L457 633 Z M238 -11 C375 -11 491 93 516 222 C541 353 465 459 325 459 C187 459 71 355 46 226 C22 94 98 -11 238 -11 L238 -11 Z M246 49 C151 49 100 125 119 222 C138 321 221 399 317 399 C411 399 462 322 443 226 C424 127 341 49 246 49 L246 49 Z " />
<glyph glyph-name="uni0232" unicode="&#x232;" horiz-adv-x="576" d="M522 769 L267 769 L258 723 L513 723 L522 769 Z M630 640 L546 640 L317 371 L193 640 L109 640 L268 302 L210 0 L282 0 L339 300 L630 640 Z " />
<glyph glyph-name="uni0233" unicode="&#x233;" horiz-adv-x="479" d="M440 606 L185 606 L176 560 L431 560 L440 606 Z M428 447 L213 93 L135 447 L62 447 L163 13 L22 -210 L96 -210 L504 447 L428 447 Z " />
<glyph glyph-name="uni0237" unicode="&#x237;" horiz-adv-x="262" d="M124 -48 L219 447 L150 447 L54 -47 C41 -118 10 -159 -76 -149 L-85 -207 C-8 -219 94 -203 124 -48 L124 -48 Z " />
<glyph glyph-name="uni0243" unicode="&#x243;" horiz-adv-x="558" d="M352 355 C431 372 480 418 493 486 C511 581 444 640 319 640 L177 640 L95 214 L39 214 L29 166 L86 166 L54 0 L222 0 C370 0 468 70 490 181 C508 276 458 342 352 355 L352 355 Z M418 489 C406 425 350 383 277 383 L199 383 L236 582 L318 582 C395 582 430 550 418 489 L418 489 Z M415 191 C400 110 331 58 228 58 L137 58 L157 166 L295 166 L305 214 L167 214 L186 317 L282 317 C379 317 431 270 415 191 L415 191 Z " />
<glyph glyph-name="uni0244" unicode="&#x244;" horiz-adv-x="626" d="M554 640 L530 513 L208 513 L233 640 L161 640 L84 246 C50 66 130 -11 270 -11 C407 -11 515 65 550 244 L626 640 L554 640 Z M278 53 C183 53 130 111 158 253 L199 467 L521 467 L480 255 C453 113 375 53 278 53 L278 53 Z " />
<glyph glyph-name="uni0245" unicode="&#x245;" horiz-adv-x="614" d="M543 0 L430 640 L368 640 L-16 0 L63 0 L379 548 L464 0 L543 0 Z " />
<glyph glyph-name="uni024C" unicode="&#x24c;" horiz-adv-x="559" d="M524 461 C544 566 469 640 350 640 L177 640 L120 345 L62 345 L52 285 L109 285 L54 0 L126 0 L181 285 L245 285 L397 0 L484 0 L321 293 C408 302 504 357 524 461 L524 461 Z M449 465 C435 390 371 350 281 350 L193 350 L238 581 L320 581 C419 581 463 539 449 465 L449 465 Z " />
<glyph glyph-name="uni0250" unicode="&#x250;" horiz-adv-x="564" d="M352 459 C280 459 218 428 173 376 L178 449 L120 449 L27 0 L84 0 L113 81 C137 25 189 -10 265 -10 C381 -10 490 80 518 222 C546 367 469 459 352 459 L352 459 Z M447 226 C428 127 351 50 258 50 C164 50 117 125 136 222 C155 322 233 400 329 400 C421 400 466 324 447 226 L447 226 Z " />
<glyph glyph-name="uni0251" unicode="&#x251;" horiz-adv-x="528" d="M444 449 L416 367 C396 424 350 459 282 459 C176 459 74 367 46 222 C20 80 86 -10 190 -10 C258 -10 317 25 360 81 L356 0 L414 0 L501 449 L444 449 Z M218 50 C134 50 92 127 112 226 C130 324 199 400 281 400 C367 400 409 322 390 222 C372 125 303 50 218 50 L218 50 Z " />
<glyph glyph-name="uni0252" unicode="&#x252;" horiz-adv-x="530" d="M343 459 C275 459 216 424 172 367 L178 449 L120 449 L27 0 L84 0 L113 82 C133 25 178 -10 246 -10 C351 -10 453 80 483 222 C514 367 449 459 343 459 L343 459 Z M420 226 C399 127 326 50 242 50 C158 50 119 125 140 222 C161 322 235 400 321 400 C403 400 441 324 420 226 L420 226 Z " />
<glyph glyph-name="uni0258" unicode="&#x258;" horiz-adv-x="508" d="M292 459 C201 459 105 406 81 336 C48 244 137 214 267 214 L386 214 C365 120 294 48 199 48 C139 48 99 70 78 108 L15 63 C44 15 102 -11 176 -11 C319 -11 435 97 463 230 C490 357 421 459 292 459 L292 459 Z M144 333 C157 369 208 401 269 401 C349 401 393 343 392 264 L291 264 C209 264 127 279 144 333 L144 333 Z " />
<glyph glyph-name="uni0259" unicode="&#x259;" horiz-adv-x="506" d="M267 458 C194 458 125 432 77 384 L122 339 C158 377 207 399 266 399 C362 399 404 327 387 233 L268 233 C137 233 37 203 32 111 C28 41 103 -12 194 -12 C322 -12 433 90 458 217 C483 350 410 458 267 458 L267 458 Z M195 46 C133 46 95 78 97 114 C101 168 190 183 272 183 L373 183 C342 104 274 46 195 46 L195 46 Z " />
<glyph glyph-name="uni0265" unicode="&#x265;" horiz-adv-x="518" d="M422 447 L371 184 L371 188 C352 87 279 48 215 48 C139 48 112 103 129 186 L179 447 L110 447 L58 176 C30 32 112 -12 192 -12 C257 -12 312 17 347 61 L290 -233 L359 -233 L491 447 L422 447 Z " />
<glyph glyph-name="uni0268" unicode="&#x268;" horiz-adv-x="240" d="M181 543 C209 543 237 566 242 594 C247 621 229 644 201 644 C173 644 146 621 140 594 C135 566 153 543 181 543 L181 543 Z M278 350 L179 350 L198 447 L129 447 L110 350 L12 350 L2 302 L101 302 L42 0 L111 0 L170 302 L268 302 L278 350 Z " />
<glyph glyph-name="uni026F" unicode="&#x26f;" horiz-adv-x="777" d="M678 447 L629 190 C607 99 553 48 486 48 C417 48 397 104 413 186 L463 447 L394 447 L347 201 L347 206 C329 105 274 48 203 48 C131 48 113 104 129 187 L179 447 L110 447 L60 186 C31 33 107 -12 183 -12 C260 -12 307 18 345 70 C364 9 416 -12 466 -12 C519 -12 571 14 606 62 L602 0 L662 0 L747 447 L678 447 Z " />
<glyph glyph-name="uni0272" unicode="&#x272;" horiz-adv-x="519" d="M326 459 C261 459 206 430 171 386 L174 447 L114 447 L29 0 L28 0 L19 -48 C10 -94 -10 -121 -57 -115 L-65 -170 C14 -186 70 -143 89 -45 L97 0 L98 0 L152 279 C177 366 243 399 304 399 C380 399 406 345 390 262 L339 0 L409 0 L461 272 C488 415 407 459 326 459 L326 459 Z " />
<glyph glyph-name="uni0275" unicode="&#x275;" horiz-adv-x="562" d="M325 459 C184 459 71 355 46 226 C21 94 95 -11 238 -11 C378 -11 491 93 516 222 C541 353 467 459 325 459 L325 459 Z M317 399 C407 399 455 334 446 247 L124 247 C150 334 227 399 317 399 L317 399 Z M246 49 C155 49 106 114 115 201 L437 201 C410 114 336 49 246 49 L246 49 Z " />
<glyph glyph-name="uni0279" unicode="&#x279;" horiz-adv-x="331" d="M233 447 L182 178 L184 191 C168 105 112 54 37 54 C22 54 11 57 0 60 L-26 -8 C-14 -10 -2 -12 19 -12 C72 -12 127 25 163 71 L158 0 L217 0 L302 447 L233 447 Z " />
<glyph glyph-name="uni0289" unicode="&#x289;" horiz-adv-x="512" d="M419 447 L393 311 L153 311 L179 447 L110 447 L60 186 C30 33 121 -12 212 -12 C302 -12 409 31 438 184 L489 447 L419 447 Z M369 186 C353 101 298 48 220 48 C145 48 113 99 129 184 L144 265 L384 265 L369 186 Z " />
<glyph glyph-name="uni028C" unicode="&#x28c;" horiz-adv-x="480" d="M418 0 L313 447 L255 447 L-25 0 L48 0 L268 366 L343 0 L418 0 Z " />
<glyph glyph-name="uni028D" unicode="&#x28d;" horiz-adv-x="729" d="M661 0 L585 447 L527 447 L338 81 L304 447 L246 447 L-19 0 L54 0 L255 357 L290 0 L350 0 L537 357 L587 0 L661 0 Z " />
<glyph glyph-name="uni028E" unicode="&#x28e;" horiz-adv-x="487" d="M460 658 L387 658 L-21 1 L55 1 L270 355 L348 1 L421 1 L319 434 L460 658 Z " />
<glyph glyph-name="circumflex" unicode="&#x2c6;" horiz-adv-x="356" d="M289 631 L225 631 L97 518 L144 518 C164 518 174 524 191 537 L248 584 L287 537 C298 523 306 518 326 518 L373 518 L289 631 Z " />
<glyph glyph-name="caron" unicode="&#x2c7;" horiz-adv-x="356" d="M204 522 L268 522 L396 635 L349 635 C328 635 319 629 302 616 L245 569 L206 616 C195 630 187 635 167 635 L120 635 L204 522 Z " />
<glyph glyph-name="uni02C9" unicode="&#x2c9;" horiz-adv-x="318" d="M68 573 L386 573 L394 615 L76 615 L68 573 Z " />
<glyph glyph-name="breve" unicode="&#x2d8;" horiz-adv-x="352" d="M234 514 C317 514 374 559 390 626 L338 626 C329 596 296 561 238 561 C183 561 165 593 168 626 L118 626 C108 562 149 514 234 514 L234 514 Z " />
<glyph glyph-name="dotaccent" unicode="&#x2d9;" horiz-adv-x="182" d="M152 537 C180 537 207 560 213 588 C218 615 199 638 172 638 C144 638 116 615 111 588 C105 560 124 537 152 537 L152 537 Z " />
<glyph glyph-name="ring" unicode="&#x2da;" horiz-adv-x="272" d="M223 682 C171 682 121 640 111 591 C101 538 137 496 191 496 C243 496 293 537 303 586 C313 639 277 682 223 682 L223 682 Z M194 534 C163 534 143 558 149 586 C156 618 186 642 219 642 C250 642 269 619 264 591 C258 559 227 534 194 534 L194 534 Z " />
<glyph glyph-name="ogonek" unicode="&#x2db;" horiz-adv-x="286" d="M144 -160 L138 -120 C38 -161 27 -69 138 -13 L161 0 L129 15 C48 -20 -11 -80 4 -137 C18 -185 91 -193 144 -160 L144 -160 Z " />
<glyph glyph-name="tilde" unicode="&#x2dc;" horiz-adv-x="365" d="M310 561 C362 561 390 606 403 626 L363 651 C351 632 340 612 309 612 C270 612 260 654 206 654 C156 654 131 616 112 595 L151 563 C161 578 176 603 207 603 C248 603 257 561 310 561 L310 561 Z " />
<glyph glyph-name="hungarumlaut" unicode="&#x2dd;" horiz-adv-x="420" d="M227 561 L322 647 L251 660 L95 510 L129 510 C152 510 171 512 227 561 L227 561 Z M367 561 L462 647 L391 660 L236 510 L270 510 C293 510 312 512 367 561 L367 561 Z " />
<glyph glyph-name="gravecomb" unicode="&#x300;" d="M-106 561 C-67 512 -48 510 -25 510 L9 510 L-97 660 L-172 647 L-106 561 Z " />
<glyph glyph-name="acutecomb" unicode="&#x301;" d="M-96 561 L-1 647 L-72 660 L-228 510 L-194 510 C-171 510 -152 512 -96 561 L-96 561 Z " />
<glyph glyph-name="uni0302" unicode="&#x302;" d="M-113 631 L-177 631 L-305 518 L-258 518 C-237 518 -228 524 -211 537 L-154 584 L-115 537 C-103 523 -96 518 -76 518 L-29 518 L-113 631 Z " />
<glyph glyph-name="tildecomb" unicode="&#x303;" d="M-116 529 C-64 529 -36 575 -23 595 L-63 620 C-75 600 -86 581 -117 581 C-156 581 -166 622 -220 622 C-270 622 -295 584 -314 563 L-275 531 C-265 546 -250 571 -219 571 C-178 571 -169 529 -116 529 L-116 529 Z " />
<glyph glyph-name="uni0304" unicode="&#x304;" d="M-284 523 L-29 523 L-20 569 L-275 569 L-284 523 Z " />
<glyph glyph-name="uni0306" unicode="&#x306;" d="M-173 514 C-90 514 -34 559 -18 626 L-69 626 C-78 596 -112 561 -170 561 C-225 561 -243 593 -240 626 L-290 626 C-299 562 -258 514 -173 514 L-173 514 Z " />
<glyph glyph-name="uni0307" unicode="&#x307;" d="M-85 537 C-57 537 -29 560 -24 588 C-19 615 -37 638 -65 638 C-93 638 -120 615 -126 588 C-131 560 -113 537 -85 537 L-85 537 Z " />
<glyph glyph-name="uni0308" unicode="&#x308;" d="M-243 615 C-268 615 -289 596 -294 572 C-299 543 -284 522 -256 522 C-232 522 -208 541 -202 566 C-198 594 -216 615 -243 615 L-243 615 Z M-43 615 C-68 615 -89 596 -94 572 C-100 543 -84 522 -56 522 C-32 522 -8 541 -3 566 C2 594 -16 615 -43 615 L-43 615 Z " />
<glyph glyph-name="uni030A" unicode="&#x30a;" d="M-7 682 C-59 682 -109 640 -118 591 C-128 538 -92 496 -38 496 C13 496 63 537 73 586 C83 639 47 682 -7 682 L-7 682 Z M-36 534 C-66 534 -86 558 -80 586 C-74 618 -43 642 -10 642 C20 642 39 619 34 591 C28 559 -3 534 -36 534 L-36 534 Z " />
<glyph glyph-name="uni030B" unicode="&#x30b;" d="M-290 561 L-195 647 L-266 660 L-421 510 L-387 510 C-364 510 -345 512 -290 561 L-290 561 Z M-149 561 L-54 647 L-125 660 L-281 510 L-247 510 C-224 510 -205 512 -149 561 L-149 561 Z " />
<glyph glyph-name="uni030C" unicode="&#x30c;" d="M-208 522 L-144 522 L-16 635 L-63 635 C-83 635 -93 629 -110 616 L-167 569 L-205 616 C-217 630 -225 635 -245 635 L-292 635 L-208 522 Z " />
<glyph glyph-name="uni0312" unicode="&#x312;" d="M-41 655 C-114 631 -148 577 -156 536 C-164 501 -151 471 -119 471 C-92 471 -72 489 -67 513 C-61 543 -88 556 -112 548 C-106 576 -80 606 -35 626 L-41 655 Z " />
<glyph glyph-name="dotbelowcomb" unicode="&#x323;" d="M-212 -165 C-184 -165 -157 -141 -151 -114 C-146 -86 -164 -63 -192 -63 C-220 -63 -248 -86 -253 -114 C-258 -141 -240 -165 -212 -165 L-212 -165 Z " />
<glyph glyph-name="uni0326" unicode="&#x326;" d="M-226 -222 C-160 -199 -129 -151 -122 -114 C-115 -83 -127 -55 -155 -55 C-180 -55 -198 -72 -202 -94 C-207 -120 -183 -132 -162 -125 C-167 -150 -190 -178 -231 -196 L-226 -222 Z " />
<glyph glyph-name="uni0327" unicode="&#x327;" d="M-202 -46 C-225 -43 -245 -49 -255 -53 L-190 6 L-184 20 L-219 20 L-313 -67 L-298 -88 C-258 -73 -207 -76 -221 -111 C-228 -130 -252 -152 -296 -151 C-324 -149 -346 -140 -354 -133 L-388 -171 C-378 -180 -348 -193 -305 -193 C-235 -193 -180 -159 -163 -115 C-146 -71 -169 -49 -202 -46 L-202 -46 Z " />
<glyph glyph-name="uni0328" unicode="&#x328;" d="M-171 -160 L-177 -120 C-277 -161 -288 -69 -177 -13 L-154 0 L-186 15 C-267 -20 -326 -80 -310 -137 C-297 -185 -223 -193 -171 -160 L-171 -160 Z " />
<glyph glyph-name="uni0331" unicode="&#x331;" d="M-363 -124 L-108 -124 L-99 -77 L-354 -77 L-363 -124 Z " />
<glyph glyph-name="uni0335" unicode="&#x335;" d="M-352 270 L-86 270 L-76 318 L-342 318 L-352 270 Z " />
<glyph glyph-name="uni0336" unicode="&#x336;" d="M-489 270 L-78 270 L-69 316 L-480 316 L-489 270 Z " />
<glyph glyph-name="uni0337" unicode="&#x337;" d="M-284 286 L-297 224 L-65 379 L-53 441 L-284 286 Z " />
<glyph glyph-name="uni0338" unicode="&#x338;" d="M75 664 L-650 4 L-620 -27 L105 633 L75 664 Z " />
<glyph glyph-name="uni0394" unicode="&#x394;" horiz-adv-x="627" d="M429 640 L357 640 L-6 50 L-15 0 L556 0 L564 50 L429 640 Z M378 558 L487 59 L77 59 L378 558 Z " />
<glyph glyph-name="uni03A9" unicode="&#x3a9;" horiz-adv-x="813" d="M746 368 C777 528 674 655 488 655 C305 655 155 530 124 372 C100 249 156 144 266 109 L256 60 L78 60 L67 0 L311 0 L323 60 L322 60 L329 97 L330 97 L334 121 L338 143 L337 143 L339 153 C224 164 176 256 196 357 C220 486 335 595 480 595 C624 595 696 488 671 361 C652 257 564 164 445 153 L440 121 L428 60 L417 0 L661 0 L673 60 L495 60 L505 109 C628 143 722 247 746 368 L746 368 Z " />
<glyph glyph-name="uni03BC" unicode="&#x3bc;" horiz-adv-x="522" d="M424 447 L375 191 C345 87 278 48 218 48 C142 48 117 103 134 186 L183 447 L114 447 L62 176 C62 174 61 172 61 170 L-8 -190 L52 -190 L103 35 C130 6 166 -12 205 -12 C253 -12 309 11 351 67 L348 0 L408 0 L493 447 L424 447 Z " />
<glyph glyph-name="pi" unicode="&#x3c0;" horiz-adv-x="627" d="M492 389 L581 389 L591 447 L114 447 L103 389 L172 389 L97 0 L167 0 L241 389 L422 389 L368 106 C350 15 403 -7 451 -7 C482 -7 508 -1 518 4 L517 64 C510 60 493 54 473 54 C444 54 432 69 439 107 L492 389 Z " />
<glyph glyph-name="uni0400" unicode="&#x400;" horiz-adv-x="529" d="M429 690 L463 690 L357 840 L282 827 L348 741 C387 692 406 690 429 690 L429 690 Z M531 577 L543 640 L177 640 L54 0 L420 0 L432 63 L138 63 L182 290 L426 290 L438 350 L193 350 L237 577 L531 577 Z " />
<glyph glyph-name="uni0401" unicode="&#x401;" horiz-adv-x="529" d="M271 702 C295 702 319 721 325 746 C329 774 311 795 284 795 C259 795 238 776 233 752 C228 723 243 702 271 702 L271 702 Z M471 702 C495 702 519 721 524 746 C529 774 511 795 484 795 C459 795 438 776 433 752 C427 723 443 702 471 702 L471 702 Z M531 577 L543 640 L177 640 L54 0 L420 0 L432 63 L138 63 L182 290 L426 290 L438 350 L193 350 L237 577 L531 577 Z " />
<glyph glyph-name="uni0402" unicode="&#x402;" horiz-adv-x="689" d="M454 388 C397 388 352 375 313 357 L357 582 L516 582 L528 640 L135 640 L123 582 L285 582 L171 0 L243 0 L302 301 C334 316 373 326 434 326 C519 326 568 273 549 171 C527 56 426 8 323 27 L311 -37 C448 -56 592 7 624 173 C652 315 565 388 454 388 L454 388 Z " />
<glyph glyph-name="uni0403" unicode="&#x403;" horiz-adv-x="497" d="M418 741 L513 827 L442 840 L286 690 L320 690 C343 690 362 692 418 741 L418 741 Z M525 640 L177 640 L52 0 L124 0 L237 577 L513 577 L525 640 Z " />
<glyph glyph-name="uni0404" unicode="&#x404;" horiz-adv-x="630" d="M463 590 C521 590 570 572 606 540 L652 594 C605 632 542 654 466 654 C271 654 111 510 75 327 C39 138 147 -12 346 -12 C418 -12 487 7 549 45 L517 106 C470 74 412 53 348 53 C204 53 130 159 145 290 L444 290 L456 350 L157 350 C198 484 316 590 463 590 L463 590 Z " />
<glyph glyph-name="uni0405" unicode="&#x405;" horiz-adv-x="533" d="M222 -11 C315 -11 432 36 457 163 C476 261 409 319 323 355 C235 393 188 425 200 486 C212 546 271 590 336 590 C388 590 421 571 455 532 L514 579 C481 620 434 654 345 654 C245 654 146 589 127 491 C104 371 195 334 283 295 C344 267 394 233 380 163 C367 92 292 53 227 53 C158 53 115 79 83 135 L18 86 C55 28 114 -11 222 -11 L222 -11 Z " />
<glyph glyph-name="uni0406" unicode="&#x406;" horiz-adv-x="283" d="M259 640 L187 640 L62 0 L134 0 L259 640 Z " />
<glyph glyph-name="uni0407" unicode="&#x407;" horiz-adv-x="283" d="M149 795 C124 795 103 776 98 752 C93 723 108 702 136 702 C160 702 184 721 190 746 C194 774 176 795 149 795 L149 795 Z M349 795 C324 795 303 776 298 752 C292 723 308 702 336 702 C360 702 384 721 389 746 C394 774 376 795 349 795 L349 795 Z M259 640 L187 640 L62 0 L134 0 L259 640 Z " />
<glyph glyph-name="uni0408" unicode="&#x408;" horiz-adv-x="439" d="M146 -11 C235 -11 324 42 352 184 L440 640 L368 640 L280 181 C264 98 216 53 153 53 C117 53 89 65 64 105 L11 49 C44 12 84 -11 146 -11 L146 -11 Z " />
<glyph glyph-name="uni0409" unicode="&#x409;" horiz-adv-x="970" d="M739 370 L619 370 L672 640 L289 640 L276 577 L277 577 L235 366 C205 214 165 60 54 60 C47 60 37 60 26 62 L19 0 C31 -2 47 -3 58 -3 C195 -3 260 123 306 360 L349 577 L588 577 L475 0 L547 0 L673 1 C766 2 878 58 901 179 C926 306 833 370 739 370 L739 370 Z M828 190 C812 106 746 56 648 58 L558 59 L608 310 L702 312 C801 314 843 268 828 190 L828 190 Z " />
<glyph glyph-name="uni040A" unicode="&#x40a;" horiz-adv-x="951" d="M721 370 L600 370 L653 640 L581 640 L528 370 L196 370 L249 640 L177 640 L52 0 L124 0 L185 310 L517 311 L456 0 L528 0 L654 1 C747 2 859 58 882 179 C907 306 814 370 721 370 L721 370 Z M810 190 C793 106 727 56 629 58 L539 59 L589 312 L683 312 C781 312 824 268 810 190 L810 190 Z " />
<glyph glyph-name="uni040B" unicode="&#x40b;" horiz-adv-x="682" d="M464 388 C403 388 347 369 303 346 L349 582 L517 582 L528 640 L135 640 L124 582 L277 582 L163 0 L235 0 L290 282 C336 313 383 328 442 328 C532 328 566 280 546 179 L511 0 L583 0 L620 190 C652 355 556 388 464 388 L464 388 Z " />
<glyph glyph-name="uni040C" unicode="&#x40c;" horiz-adv-x="612" d="M456 741 L551 827 L480 840 L324 690 L358 690 C381 690 400 692 456 741 L456 741 Z M628 640 L534 640 L196 365 L249 640 L177 640 L54 0 L126 0 L186 313 L426 0 L523 0 L259 340 L628 640 Z " />
<glyph glyph-name="uni040D" unicode="&#x40d;" horiz-adv-x="721" d="M519 690 L553 690 L447 840 L372 827 L438 741 C477 692 496 690 519 690 L519 690 Z M638 640 L148 121 L257 640 L187 640 L52 0 L120 0 L612 523 L501 0 L571 0 L707 640 L638 640 Z " />
<glyph glyph-name="uni040E" unicode="&#x40e;" horiz-adv-x="576" d="M381 690 C464 690 520 735 536 802 L485 802 C476 772 442 737 384 737 C329 737 311 769 314 802 L264 802 C255 738 296 690 381 690 L381 690 Z M544 640 L300 302 L191 640 L109 640 L246 228 L81 0 L167 0 L630 640 L544 640 Z " />
<glyph glyph-name="uni040F" unicode="&#x40f;" horiz-adv-x="667" d="M581 640 L468 63 L136 63 L249 640 L177 640 L64 63 L52 0 L257 0 L234 -120 L300 -120 L324 0 L528 0 L653 640 L581 640 Z " />
<glyph glyph-name="uni0410" unicode="&#x410;" horiz-adv-x="634" d="M486 0 L563 0 L432 640 L360 640 L-16 0 L62 0 L170 188 L450 189 L486 0 Z M204 248 L381 556 L439 248 L204 248 Z " />
<glyph glyph-name="uni0411" unicode="&#x411;" horiz-adv-x="559" d="M510 577 L522 640 L177 640 L164 577 L165 577 L54 0 L126 0 L256 1 C353 2 469 61 492 184 C516 309 421 373 325 373 L198 373 L237 577 L510 577 Z M286 316 C387 317 432 269 417 189 C401 107 334 56 233 58 L137 59 L186 314 L286 316 Z " />
<glyph glyph-name="uni0412" unicode="&#x412;" horiz-adv-x="558" d="M352 355 C431 372 480 418 493 486 C511 581 444 640 319 640 L177 640 L54 0 L222 0 C370 0 468 70 490 181 C508 276 458 342 352 355 L352 355 Z M418 489 C406 425 350 383 277 383 L199 383 L236 582 L318 582 C395 582 430 550 418 489 L418 489 Z M415 191 C400 110 331 58 228 58 L137 58 L186 317 L282 317 C379 317 431 270 415 191 L415 191 Z " />
<glyph glyph-name="uni0413" unicode="&#x413;" horiz-adv-x="497" d="M525 640 L177 640 L52 0 L124 0 L237 577 L513 577 L525 640 Z " />
<glyph glyph-name="uni0414" unicode="&#x414;" horiz-adv-x="707" d="M545 63 L656 640 L288 640 L257 481 C239 383 217 189 61 64 L61 63 L26 63 L-9 -120 L51 -120 L83 0 L539 0 L525 -120 L584 -120 L607 0 L608 0 L619 63 L545 63 Z M153 63 C255 158 295 303 319 428 L348 577 L572 577 L473 63 L153 63 Z " />
<glyph glyph-name="uni0415" unicode="&#x415;" horiz-adv-x="529" d="M531 577 L543 640 L177 640 L54 0 L420 0 L432 63 L138 63 L182 290 L426 290 L438 350 L193 350 L237 577 L531 577 Z " />
<glyph glyph-name="uni0416" unicode="&#x416;" horiz-adv-x="959" d="M979 640 L882 640 L544 366 L598 640 L526 640 L472 365 L240 640 L147 640 L398 340 L2 0 L102 0 L462 313 L401 0 L473 0 L534 313 L774 0 L870 0 L607 340 L979 640 Z " />
<glyph glyph-name="uni0417" unicode="&#x417;" horiz-adv-x="541" d="M504 489 C517 569 460 655 336 655 C263 655 204 636 147 601 L181 539 C217 563 267 590 332 590 C407 590 441 545 434 499 C426 451 396 415 349 396 C310 380 276 372 202 373 L194 310 C268 311 302 308 348 288 C391 270 408 229 397 177 C382 108 309 53 208 53 C124 53 85 91 57 128 L6 72 C52 23 107 -11 206 -11 C348 -11 447 62 470 167 C490 259 447 317 382 342 C443 366 492 416 504 489 L504 489 Z " />
<glyph glyph-name="uni0418" unicode="&#x418;" horiz-adv-x="721" d="M638 640 L148 121 L257 640 L187 640 L52 0 L120 0 L612 523 L501 0 L571 0 L707 640 L638 640 Z " />
<glyph glyph-name="uni0419" unicode="&#x419;" horiz-adv-x="721" d="M461 690 C544 690 600 735 616 802 L565 802 C556 772 522 737 464 737 C409 737 391 769 394 802 L344 802 C335 738 376 690 461 690 L461 690 Z M638 640 L148 121 L257 640 L187 640 L52 0 L120 0 L612 523 L501 0 L571 0 L707 640 L638 640 Z " />
<glyph glyph-name="uni041A" unicode="&#x41a;" horiz-adv-x="612" d="M628 640 L534 640 L196 365 L249 640 L177 640 L54 0 L126 0 L186 313 L426 0 L523 0 L259 340 L628 640 Z " />
<glyph glyph-name="uni041B" unicode="&#x41b;" horiz-adv-x="686" d="M672 640 L289 640 L276 577 L277 577 L230 338 C206 214 165 60 54 60 C47 60 37 60 26 62 L19 0 C31 -2 47 -3 58 -3 C195 -3 260 122 301 331 L349 577 L588 577 L475 0 L547 0 L672 640 Z " />
<glyph glyph-name="uni041C" unicode="&#x41c;" horiz-adv-x="823" d="M744 640 L424 291 L240 638 L240 640 L177 640 L54 0 L126 0 L225 515 L404 181 L711 514 L612 0 L684 0 L807 640 L744 640 Z " />
<glyph glyph-name="uni041D" unicode="&#x41d;" horiz-adv-x="683" d="M595 640 L542 362 L196 362 L249 640 L177 640 L54 0 L126 0 L184 303 L530 303 L472 0 L544 0 L667 640 L595 640 Z " />
<glyph glyph-name="uni041E" unicode="&#x41e;" horiz-adv-x="779" d="M350 -11 C546 -11 707 134 742 317 C778 505 669 654 467 654 C272 654 111 510 75 327 C39 139 148 -11 350 -11 L350 -11 Z M352 53 C197 53 122 174 150 317 C179 466 306 590 466 590 C620 590 696 471 667 327 C639 179 511 53 352 53 L352 53 Z " />
<glyph glyph-name="uni041F" unicode="&#x41f;" horiz-adv-x="667" d="M653 640 L177 640 L52 0 L124 0 L237 577 L569 577 L456 0 L528 0 L653 640 Z " />
<glyph glyph-name="uni0420" unicode="&#x420;" horiz-adv-x="530" d="M362 640 L177 640 L54 0 L126 0 L178 270 L294 270 C390 270 508 329 532 452 C556 578 458 640 362 640 L362 640 Z M456 458 C441 375 373 328 272 328 L189 328 L238 582 L323 582 C425 582 472 538 456 458 L456 458 Z " />
<glyph glyph-name="uni0421" unicode="&#x421;" horiz-adv-x="629" d="M343 -12 C416 -12 487 8 549 46 L519 105 C471 73 414 53 352 53 C197 53 122 175 150 320 C178 466 302 590 459 590 C520 590 568 572 604 539 L653 595 C606 633 543 654 468 654 C272 654 110 508 75 324 C39 136 145 -12 343 -12 L343 -12 Z " />
<glyph glyph-name="uni0422" unicode="&#x422;" horiz-adv-x="540" d="M568 640 L135 640 L122 577 L304 577 L193 0 L265 0 L376 577 L555 577 L568 640 Z " />
<glyph glyph-name="uni0423" unicode="&#x423;" horiz-adv-x="576" d="M544 640 L300 302 L191 640 L109 640 L246 228 L81 0 L167 0 L630 640 L544 640 Z " />
<glyph glyph-name="uni0424" unicode="&#x424;" horiz-adv-x="778" d="M495 585 L513 680 L441 680 L424 585 C237 577 96 488 65 327 C34 166 138 71 321 58 L301 -40 L373 -40 L393 58 C579 67 720 157 751 317 C783 479 677 573 495 585 L495 585 Z M677 327 C652 199 549 131 404 120 L483 523 C624 516 701 453 677 327 L677 327 Z M139 317 C164 445 268 512 411 523 L332 120 C192 128 115 191 139 317 L139 317 Z " />
<glyph glyph-name="uni0425" unicode="&#x425;" horiz-adv-x="624" d="M648 640 L564 640 L342 380 L222 640 L137 640 L289 324 L2 0 L91 0 L321 268 L448 0 L535 0 L374 323 L648 640 Z " />
<glyph glyph-name="uni0426" unicode="&#x426;" horiz-adv-x="701" d="M540 63 L653 640 L581 640 L468 63 L136 63 L249 640 L177 640 L64 63 L52 0 L534 0 L520 -120 L579 -120 L615 63 L540 63 Z " />
<glyph glyph-name="uni0427" unicode="&#x427;" horiz-adv-x="571" d="M485 640 L430 359 C383 328 337 312 277 312 C187 312 154 360 174 461 L209 640 L137 640 L99 450 C67 285 163 252 256 252 C317 252 372 271 418 295 L360 0 L432 0 L557 640 L485 640 Z " />
<glyph glyph-name="uni0428" unicode="&#x428;" horiz-adv-x="905" d="M891 640 L819 640 L706 63 L457 63 L570 640 L498 640 L385 63 L136 63 L249 640 L177 640 L64 63 L52 0 L766 0 L779 63 L778 63 L891 640 Z " />
<glyph glyph-name="uni0429" unicode="&#x429;" horiz-adv-x="940" d="M778 63 L891 640 L819 640 L706 63 L457 63 L570 640 L498 640 L385 63 L136 63 L249 640 L177 640 L64 63 L52 0 L773 0 L759 -120 L818 -120 L854 63 L778 63 Z " />
<glyph glyph-name="uni042A" unicode="&#x42a;" horiz-adv-x="620" d="M390 370 L269 370 L310 577 L322 640 L107 640 L94 577 L238 577 L125 0 L197 0 L323 1 C417 2 529 58 552 179 C577 306 483 370 390 370 L390 370 Z M479 190 C463 106 397 57 299 58 L208 59 L258 310 L353 312 C451 313 494 268 479 190 L479 190 Z " />
<glyph glyph-name="uni042B" unicode="&#x42b;" horiz-adv-x="723" d="M316 370 L196 370 L249 640 L177 640 L52 0 L124 0 L250 1 C343 2 455 58 478 179 C503 306 410 370 316 370 L316 370 Z M635 640 L511 0 L583 0 L707 640 L635 640 Z M405 190 C389 106 323 57 225 58 L135 59 L185 310 L279 312 C377 313 420 268 405 190 L405 190 Z " />
<glyph glyph-name="uni042C" unicode="&#x42c;" horiz-adv-x="547" d="M316 370 L196 370 L249 640 L177 640 L52 0 L124 0 L250 1 C343 2 455 58 478 179 C503 306 410 370 316 370 L316 370 Z M405 190 C389 106 323 57 225 58 L135 59 L185 310 L279 312 C377 313 420 268 405 190 L405 190 Z " />
<glyph glyph-name="uni042D" unicode="&#x42d;" horiz-adv-x="634" d="M341 654 C264 654 193 632 130 594 L154 540 C203 572 259 590 317 590 C464 590 540 484 526 350 L227 350 L215 290 L514 290 C476 159 360 53 215 53 C151 53 102 74 68 106 L11 45 C58 7 119 -12 192 -12 C390 -12 559 138 599 327 C637 510 535 654 341 654 L341 654 Z " />
<glyph glyph-name="uni042E" unicode="&#x42e;" horiz-adv-x="965" d="M671 654 C492 654 350 526 303 362 L195 362 L249 640 L177 640 L52 0 L124 0 L183 303 L291 303 C268 129 365 -11 551 -11 C743 -11 893 136 928 317 C964 502 867 654 671 654 L671 654 Z M854 327 C826 182 709 53 554 53 C405 53 341 176 369 317 C397 462 514 590 668 590 C818 590 881 468 854 327 L854 327 Z " />
<glyph glyph-name="uni042F" unicode="&#x42f;" horiz-adv-x="568" d="M554 640 L380 640 C261 640 156 566 134 461 C111 357 186 302 269 292 L-12 0 L75 0 L348 291 L408 291 L346 0 L418 0 L554 640 Z M332 350 C242 350 194 390 210 465 C227 539 287 581 386 581 L469 581 L420 350 L332 350 Z " />
<glyph glyph-name="uni0430" unicode="&#x430;" horiz-adv-x="562" d="M478 449 L454 376 C430 428 380 459 309 459 C191 459 77 367 46 222 C17 80 90 -10 206 -10 C282 -10 348 25 395 81 L391 0 L448 0 L536 449 L478 449 Z M237 50 C144 50 98 127 119 226 C139 324 216 400 307 400 C403 400 450 322 428 222 C408 125 331 50 237 50 L237 50 Z " />
<glyph glyph-name="uni0431" unicode="&#x431;" horiz-adv-x="559" d="M244 -11 C387 -11 478 94 500 209 C520 308 475 421 327 421 C251 421 184 377 137 311 C159 433 241 545 348 572 C413 591 486 592 541 638 L513 692 C467 657 386 645 338 634 C209 604 108 495 75 324 C59 242 61 180 71 127 C89 38 143 -11 244 -11 L244 -11 Z M246 49 C159 49 120 118 137 204 C154 290 233 360 317 360 C397 360 444 295 428 214 C411 124 339 49 246 49 L246 49 Z " />
<glyph glyph-name="uni0432" unicode="&#x432;" horiz-adv-x="503" d="M326 250 C372 261 411 294 420 341 C433 407 381 447 294 447 L114 447 L27 0 L222 0 C326 0 403 50 419 131 C432 195 394 239 326 250 L326 250 Z M351 334 C343 296 306 272 264 272 L148 272 L171 391 L287 391 C323 391 359 377 351 334 L351 334 Z M351 134 C339 77 288 57 234 57 L106 57 L137 218 L264 218 C325 218 360 186 351 134 L351 134 Z " />
<glyph glyph-name="uni0433" unicode="&#x433;" horiz-adv-x="372" d="M398 447 L114 447 L102 387 L27 0 L96 0 L171 387 L386 387 L398 447 Z " />
<glyph glyph-name="uni0434" unicode="&#x434;" horiz-adv-x="530" d="M478 447 L183 447 L165 358 C152 290 136 156 33 59 L-6 59 L-38 -110 L12 -110 L43 0 L392 0 L380 -110 L434 -110 L455 0 L466 59 L402 59 L478 447 Z M225 312 L240 389 L399 389 L334 59 L113 59 C181 130 209 230 225 312 L225 312 Z " />
<glyph glyph-name="uni0435" unicode="&#x435;" horiz-adv-x="505" d="M311 459 C183 459 72 357 47 230 C22 97 95 -11 238 -11 C311 -11 380 15 428 63 L383 108 C347 70 298 48 239 48 C143 48 101 120 118 214 L237 214 C368 214 468 244 473 336 C477 406 402 459 311 459 L311 459 Z M408 333 C404 279 315 264 233 264 L132 264 C163 343 231 401 310 401 C372 401 410 369 408 333 L408 333 Z " />
<glyph glyph-name="uni0436" unicode="&#x436;" horiz-adv-x="757" d="M751 447 L656 447 L422 269 L457 447 L388 447 L353 269 L188 447 L94 447 L280 245 L-21 0 L74 0 L343 219 L300 0 L369 0 L412 219 L596 0 L691 0 L485 245 L751 447 Z " />
<glyph glyph-name="uni0437" unicode="&#x437;" horiz-adv-x="438" d="M395 344 C405 401 360 463 248 463 C191 463 143 449 100 425 L123 372 C152 389 191 406 242 406 C308 406 331 377 327 349 C323 318 302 297 270 284 C241 271 214 268 161 269 L151 212 C205 212 233 215 265 199 C294 184 309 160 302 125 C293 84 247 48 170 48 C101 48 70 67 46 88 L2 45 C38 12 84 -11 162 -11 C283 -11 355 42 371 117 C385 182 351 223 300 241 C348 257 386 292 395 344 L395 344 Z " />
<glyph glyph-name="uni0438" unicode="&#x438;" horiz-adv-x="527" d="M433 447 L117 106 L183 447 L114 447 L27 0 L95 0 L411 343 L345 0 L413 0 L501 447 L433 447 Z " />
<glyph glyph-name="uni0439" unicode="&#x439;" horiz-adv-x="527" d="M317 527 C400 527 456 572 472 639 L421 639 C412 609 378 574 320 574 C265 574 247 606 250 639 L200 639 C191 575 232 527 317 527 L317 527 Z M433 447 L117 106 L183 447 L114 447 L27 0 L95 0 L411 343 L345 0 L413 0 L501 447 L433 447 Z " />
<glyph glyph-name="uni043A" unicode="&#x43a;" horiz-adv-x="446" d="M456 447 L376 447 L147 261 L183 447 L114 447 L27 0 L96 0 L138 214 L300 0 L380 0 L196 238 L456 447 Z " />
<glyph glyph-name="uni043B" unicode="&#x43b;" horiz-adv-x="499" d="M473 447 L176 447 L164 387 L139 256 C119 151 91 57 13 57 C8 57 1 58 -6 59 L-12 -1 C-5 -2 26 -3 34 -3 C130 -3 175 85 206 248 L233 387 L392 387 L316 -1 L385 -1 L473 447 Z " />
<glyph glyph-name="uni043C" unicode="&#x43c;" horiz-adv-x="607" d="M517 447 L517 446 L516 447 L299 207 L176 445 L176 447 L114 447 L27 0 L96 0 L162 339 L283 109 L490 337 L424 0 L493 0 L581 447 L517 447 Z " />
<glyph glyph-name="uni043D" unicode="&#x43d;" horiz-adv-x="505" d="M409 447 L373 261 L147 261 L183 447 L114 447 L27 0 L96 0 L136 204 L362 204 L322 0 L391 0 L478 447 L409 447 Z " />
<glyph glyph-name="uni043E" unicode="&#x43e;" horiz-adv-x="562" d="M238 -11 C375 -11 491 93 516 222 C541 353 465 459 325 459 C187 459 71 355 46 226 C22 94 98 -11 238 -11 L238 -11 Z M246 49 C151 49 100 125 119 222 C138 321 221 399 317 399 C411 399 462 322 443 226 C424 127 341 49 246 49 L246 49 Z " />
<glyph glyph-name="uni043F" unicode="&#x43f;" horiz-adv-x="521" d="M494 447 L114 447 L102 389 L103 389 L27 0 L96 0 L172 389 L414 389 L337 0 L407 0 L483 389 L494 447 Z " />
<glyph glyph-name="uni0440" unicode="&#x440;" horiz-adv-x="558" d="M345 459 C274 459 212 428 167 376 L174 447 L114 447 L-14 -210 L55 -210 L110 72 C136 21 187 -10 258 -10 C374 -10 484 80 511 222 C539 367 463 459 345 459 L345 459 Z M440 226 C422 127 344 50 251 50 C157 50 110 125 130 222 C148 322 227 400 322 400 C414 400 460 324 440 226 L440 226 Z " />
<glyph glyph-name="uni0441" unicode="&#x441;" horiz-adv-x="453" d="M233 -11 C291 -11 346 7 391 38 L358 89 C325 64 285 48 241 48 C142 48 98 124 117 222 C137 322 212 400 313 400 C355 400 389 385 411 361 L461 408 C427 440 381 459 321 459 C184 459 71 355 46 226 C22 95 94 -11 233 -11 L233 -11 Z " />
<glyph glyph-name="uni0442" unicode="&#x442;" horiz-adv-x="430" d="M440 447 L77 447 L65 390 L214 390 L137 0 L206 0 L282 390 L429 390 L440 447 Z " />
<glyph glyph-name="uni0443" unicode="&#x443;" horiz-adv-x="479" d="M428 447 L213 93 L135 447 L62 447 L163 13 L22 -210 L96 -210 L504 447 L428 447 Z " />
<glyph glyph-name="uni0444" unicode="&#x444;" horiz-adv-x="648" d="M403 457 L445 680 L379 680 L337 458 C187 448 73 363 47 229 C21 94 102 4 245 -9 L206 -210 L272 -210 L311 -10 C460 0 575 85 601 219 C628 354 545 444 403 457 L403 457 Z M530 229 C509 127 426 63 321 51 L388 398 C490 390 549 330 530 229 L530 229 Z M118 219 C139 321 221 385 327 397 L259 50 C157 58 99 118 118 219 L118 219 Z " />
<glyph glyph-name="uni0445" unicode="&#x445;" horiz-adv-x="466" d="M470 447 L387 447 L243 285 L162 447 L84 447 L196 235 L-21 0 L63 0 L226 182 L319 0 L400 0 L273 232 L470 447 Z " />
<glyph glyph-name="uni0446" unicode="&#x446;" horiz-adv-x="523" d="M472 447 L403 447 L327 59 L107 59 L183 447 L114 447 L38 59 L27 0 L385 0 L373 -110 L427 -110 L460 59 L396 59 L472 447 Z " />
<glyph glyph-name="uni0447" unicode="&#x447;" horiz-adv-x="479" d="M383 447 L344 249 C305 221 266 211 218 211 C153 211 130 247 143 317 L169 447 L100 447 L73 311 C48 181 127 150 203 150 C252 150 296 168 332 189 L295 0 L365 0 L452 447 L383 447 Z " />
<glyph glyph-name="uni0448" unicode="&#x448;" horiz-adv-x="681" d="M654 447 L585 447 L509 58 L343 58 L419 447 L350 447 L274 58 L107 58 L183 447 L114 447 L38 58 L27 -1 L567 -1 L579 58 L578 58 L654 447 Z " />
<glyph glyph-name="uni0449" unicode="&#x449;" horiz-adv-x="706" d="M654 447 L585 447 L509 59 L343 59 L419 447 L350 447 L274 59 L107 59 L183 447 L114 447 L38 59 L27 0 L568 0 L556 -110 L610 -110 L643 59 L578 59 L654 447 Z " />
<glyph glyph-name="uni044A" unicode="&#x44a;" horiz-adv-x="532" d="M351 287 L239 287 L270 447 L78 447 L66 389 L189 389 L113 0 L182 0 L301 1 C378 2 470 45 488 138 C508 237 428 287 351 287 L351 287 Z M419 148 C408 92 358 58 285 59 L194 59 L227 228 L323 229 C397 229 429 200 419 148 L419 148 Z " />
<glyph glyph-name="uni044B" unicode="&#x44b;" horiz-adv-x="651" d="M265 287 L152 287 L183 447 L114 447 L27 0 L96 0 L214 1 C292 2 384 45 402 138 C422 237 342 287 265 287 L265 287 Z M555 447 L468 0 L537 0 L624 447 L555 447 Z M333 148 C321 92 272 58 199 59 L107 59 L140 228 L236 229 C310 229 342 200 333 148 L333 148 Z " />
<glyph glyph-name="uni044C" unicode="&#x44c;" horiz-adv-x="445" d="M265 287 L152 287 L183 447 L114 447 L27 0 L96 0 L214 1 C292 2 384 45 402 138 C422 237 342 287 265 287 L265 287 Z M333 148 C321 92 272 58 199 59 L107 59 L140 228 L236 229 C310 229 342 200 333 148 L333 148 Z " />
<glyph glyph-name="uni044D" unicode="&#x44d;" horiz-adv-x="455" d="M228 459 C167 459 112 439 65 407 L95 362 C127 386 167 400 207 400 C299 400 346 336 340 250 L131 250 L122 198 L331 198 C306 112 239 48 149 48 C103 48 69 65 46 90 L-10 38 C24 6 70 -11 128 -11 C267 -11 383 97 409 229 C434 357 364 459 228 459 L228 459 Z " />
<glyph glyph-name="uni044E" unicode="&#x44e;" horiz-adv-x="722" d="M494 459 C373 459 269 370 237 254 L145 254 L183 447 L114 447 L27 0 L96 0 L134 195 L226 195 C218 78 290 -11 412 -11 C541 -11 650 91 675 219 C701 352 627 459 494 459 L494 459 Z M604 229 C584 129 504 49 414 49 C328 49 283 124 302 219 C321 319 401 399 493 399 C578 399 623 324 604 229 L604 229 Z " />
<glyph glyph-name="uni044F" unicode="&#x44f;" horiz-adv-x="491" d="M464 447 L265 447 C176 447 104 399 90 329 C77 257 126 211 184 199 L-3 0 L79 0 L258 196 L346 196 L308 0 L377 0 L464 447 Z M236 253 C179 253 151 272 160 317 C168 364 210 391 274 391 L384 391 L357 253 L236 253 Z " />
<glyph glyph-name="uni0450" unicode="&#x450;" horiz-adv-x="505" d="M396 527 L430 527 L324 677 L249 664 L315 578 C354 529 373 527 396 527 L396 527 Z M311 459 C183 459 72 357 47 230 C22 97 95 -11 238 -11 C311 -11 380 15 428 63 L383 108 C347 70 298 48 239 48 C143 48 101 120 118 214 L237 214 C368 214 468 244 473 336 C477 406 402 459 311 459 L311 459 Z M408 333 C404 279 315 264 233 264 L132 264 C163 343 231 401 310 401 C372 401 410 369 408 333 L408 333 Z " />
<glyph glyph-name="uni0451" unicode="&#x451;" horiz-adv-x="505" d="M238 540 C262 540 286 559 292 584 C296 612 278 633 251 633 C226 633 205 614 200 590 C195 561 210 540 238 540 L238 540 Z M451 633 C426 633 405 614 400 590 C394 561 410 540 438 540 C462 540 486 559 491 584 C496 612 478 633 451 633 L451 633 Z M311 459 C183 459 72 357 47 230 C22 97 95 -11 238 -11 C311 -11 380 15 428 63 L383 108 C347 70 298 48 239 48 C143 48 101 120 118 214 L237 214 C368 214 468 244 473 336 C477 406 402 459 311 459 L311 459 Z M408 333 C404 279 315 264 233 264 L132 264 C163 343 231 401 310 401 C372 401 410 369 408 333 L408 333 Z " />
<glyph glyph-name="uni0452" unicode="&#x452;" horiz-adv-x="552" d="M339 300 C275 300 220 273 185 231 L216 389 L408 389 L420 447 L227 447 L272 680 L203 680 L158 447 L90 447 L78 389 L147 389 L71 0 L140 0 L161 108 L161 101 C181 201 256 240 323 240 C393 240 429 189 415 114 C397 26 322 -11 271 -11 C251 -11 242 -11 227 -7 L221 -62 C241 -67 254 -70 284 -70 C360 -70 460 -12 484 109 C511 252 416 300 339 300 L339 300 Z " />
<glyph glyph-name="uni0453" unicode="&#x453;" horiz-adv-x="372" d="M330 578 L425 664 L354 677 L198 527 L232 527 C255 527 274 529 330 578 L330 578 Z M114 447 L102 387 L27 0 L96 0 L171 387 L386 387 L398 447 L114 447 Z " />
<glyph glyph-name="uni0454" unicode="&#x454;" horiz-adv-x="455" d="M318 459 C182 459 72 357 47 229 C21 97 96 -11 235 -11 C293 -11 345 6 392 38 L356 90 C324 65 283 48 237 48 C147 48 105 112 114 198 L323 198 L333 250 L125 250 C152 336 224 400 316 400 C356 400 390 386 413 362 L461 407 C426 439 379 459 318 459 L318 459 Z " />
<glyph glyph-name="uni0455" unicode="&#x455;" horiz-adv-x="422" d="M6 68 C26 23 85 -11 163 -11 C264 -11 340 38 354 116 C387 287 130 208 153 328 C161 369 197 398 257 399 C292 400 326 385 348 358 L397 400 C374 432 327 459 263 459 C168 459 98 408 82 329 C49 157 304 230 282 119 C274 78 234 49 169 49 C122 49 86 67 65 107 L6 68 Z " />
<glyph glyph-name="uni0456" unicode="&#x456;" horiz-adv-x="240" d="M183 546 C210 546 238 569 243 597 C249 625 230 648 203 648 C175 648 147 625 142 597 C136 569 155 546 183 546 L183 546 Z M42 0 L111 0 L198 447 L129 447 L42 0 Z " />
<glyph glyph-name="uni0457" unicode="&#x457;" horiz-adv-x="240" d="M95 633 C70 633 49 614 44 590 C39 561 54 540 82 540 C106 540 130 559 136 584 C140 612 122 633 95 633 L95 633 Z M295 633 C270 633 249 614 244 590 C238 561 254 540 282 540 C306 540 330 559 335 584 C340 612 322 633 295 633 L295 633 Z M42 0 L111 0 L198 447 L129 447 L42 0 Z " />
<glyph glyph-name="uni0458" unicode="&#x458;" horiz-adv-x="262" d="M204 546 C231 546 259 569 264 597 C270 625 251 648 224 648 C196 648 168 625 163 597 C157 569 176 546 204 546 L204 546 Z M124 -48 L219 447 L150 447 L54 -47 C41 -118 10 -159 -76 -149 L-85 -207 C-8 -219 94 -203 124 -48 L124 -48 Z " />
<glyph glyph-name="uni0459" unicode="&#x459;" horiz-adv-x="735" d="M555 287 L442 287 L473 447 L176 447 L164 387 L139 256 C119 151 91 57 13 57 C8 57 1 58 -6 59 L-12 -1 C-5 -2 26 -3 34 -3 C130 -3 175 85 206 248 L233 387 L392 387 L316 0 L385 0 L504 1 C581 2 674 45 692 138 C711 237 632 287 555 287 L555 287 Z M622 148 C611 92 561 58 488 59 L397 59 L430 228 L526 229 C600 229 632 200 622 148 L622 148 Z " />
<glyph glyph-name="uni045A" unicode="&#x45a;" horiz-adv-x="745" d="M565 287 L435 287 L466 447 L397 447 L366 287 L152 287 L183 447 L114 447 L27 0 L96 0 L140 228 L354 229 L309 0 L378 0 L514 1 C592 2 684 45 702 138 C722 237 642 287 565 287 L565 287 Z M633 148 C621 92 572 58 499 59 L390 59 L423 229 L536 229 C609 229 642 200 633 148 L633 148 Z " />
<glyph glyph-name="uni045B" unicode="&#x45b;" horiz-adv-x="552" d="M332 300 C271 300 218 273 185 231 L216 389 L408 389 L420 447 L227 447 L272 680 L203 680 L158 447 L90 447 L78 389 L147 389 L71 0 L140 0 L160 103 L160 99 C180 200 251 240 316 240 C386 240 409 188 393 104 L373 0 L442 0 L463 111 C492 254 411 300 332 300 L332 300 Z " />
<glyph glyph-name="uni045C" unicode="&#x45c;" horiz-adv-x="446" d="M349 578 L444 664 L373 677 L217 527 L251 527 C274 527 293 529 349 578 L349 578 Z M456 447 L376 447 L147 261 L183 447 L114 447 L27 0 L96 0 L138 214 L300 0 L380 0 L196 238 L456 447 Z " />
<glyph glyph-name="uni045D" unicode="&#x45d;" horiz-adv-x="527" d="M376 527 L410 527 L304 677 L229 664 L295 578 C334 529 353 527 376 527 L376 527 Z M433 447 L117 106 L183 447 L114 447 L27 0 L95 0 L411 343 L345 0 L413 0 L501 447 L433 447 Z " />
<glyph glyph-name="uni045E" unicode="&#x45e;" horiz-adv-x="479" d="M300 527 C383 527 440 572 456 639 L404 639 C395 609 362 574 304 574 C249 574 231 606 234 639 L184 639 C174 575 215 527 300 527 L300 527 Z M428 447 L213 93 L135 447 L62 447 L163 13 L22 -210 L96 -210 L504 447 L428 447 Z " />
<glyph glyph-name="uni045F" unicode="&#x45f;" horiz-adv-x="498" d="M472 450 L403 450 L327 58 L108 58 L184 450 L115 450 L39 58 L38 58 L27 -1 L174 -1 L153 -111 L216 -111 L237 -1 L384 -1 L396 58 L472 450 Z " />
<glyph glyph-name="uni0462" unicode="&#x462;" horiz-adv-x="593" d="M363 370 L242 370 L262 470 L447 470 L458 529 L273 529 L295 640 L223 640 L201 529 L112 529 L102 470 L190 470 L98 0 L170 0 L297 1 C390 2 502 58 525 179 C550 306 456 370 363 370 L363 370 Z M452 190 C436 106 370 57 272 58 L181 59 L231 310 L326 312 C424 313 467 268 452 190 L452 190 Z " />
<glyph glyph-name="uni0463" unicode="&#x463;" horiz-adv-x="530" d="M310 288 L196 288 L216 389 L408 389 L420 447 L227 447 L272 680 L203 680 L158 447 L90 447 L78 389 L147 389 L71 0 L140 0 L259 1 C336 2 429 45 447 138 C467 238 387 288 310 288 L310 288 Z M378 149 C366 92 316 58 243 59 L151 59 L184 229 L281 230 C355 231 387 201 378 149 L378 149 Z " />
<glyph glyph-name="uni0472" unicode="&#x472;" horiz-adv-x="779" d="M467 654 C272 654 111 510 75 327 C39 139 148 -11 350 -11 C546 -11 707 134 742 317 C778 505 669 654 467 654 L467 654 Z M466 590 C612 590 688 483 671 350 L158 350 C198 484 318 590 466 590 L466 590 Z M352 53 C205 53 130 161 146 294 L659 294 C620 161 499 53 352 53 L352 53 Z " />
<glyph glyph-name="uni0473" unicode="&#x473;" horiz-adv-x="562" d="M325 459 C184 459 71 355 46 226 C21 94 95 -11 238 -11 C378 -11 491 93 516 222 C541 353 467 459 325 459 L325 459 Z M317 399 C407 399 455 334 446 247 L124 247 C150 334 227 399 317 399 L317 399 Z M246 49 C155 49 106 114 115 201 L437 201 C410 114 336 49 246 49 L246 49 Z " />
<glyph glyph-name="uni0474" unicode="&#x474;" horiz-adv-x="688" d="M690 644 C662 644 602 640 556 559 L289 91 L186 640 L109 640 L242 0 L304 0 L621 537 C637 567 669 581 688 581 C701 581 711 579 723 574 L750 632 C734 638 712 644 690 644 L690 644 Z " />
<glyph glyph-name="uni0475" unicode="&#x475;" horiz-adv-x="522" d="M509 456 C470 456 434 448 395 385 L211 82 L135 447 L62 447 L168 0 L225 0 L450 360 C466 387 488 398 505 398 C514 398 524 396 531 393 L558 446 C543 451 530 456 509 456 L509 456 Z " />
<glyph glyph-name="uni0490" unicode="&#x490;" horiz-adv-x="497" d="M492 760 L462 640 L177 640 L52 0 L124 0 L237 577 L513 577 L548 760 L492 760 Z " />
<glyph glyph-name="uni0491" unicode="&#x491;" horiz-adv-x="372" d="M421 570 L365 570 L334 447 L114 447 L102 387 L27 0 L96 0 L171 387 L386 387 L398 447 L397 447 L421 570 Z " />
<glyph glyph-name="uni04BB" unicode="&#x4bb;" horiz-adv-x="518" d="M325 459 C260 459 207 430 171 388 L228 680 L159 680 L27 0 L96 0 L149 274 C173 364 241 399 303 399 C379 399 405 345 389 262 L338 0 L408 0 L460 272 C487 415 405 459 325 459 L325 459 Z " />
<glyph glyph-name="uni04C0" unicode="&#x4c0;" horiz-adv-x="283" d="M259 640 L187 640 L62 0 L134 0 L259 640 Z " />
<glyph glyph-name="uni04D8" unicode="&#x4d8;" horiz-adv-x="723" d="M427 655 C323 655 227 616 158 549 L207 501 C267 558 336 589 418 589 C561 589 633 485 615 348 L80 348 L73 312 C37 121 131 -12 309 -12 C493 -12 651 136 686 320 C721 505 620 655 427 655 L427 655 Z M318 52 C188 52 122 142 144 287 L602 287 C562 153 452 52 318 52 L318 52 Z " />
<glyph glyph-name="uni04D9" unicode="&#x4d9;" horiz-adv-x="506" d="M267 458 C194 458 125 432 77 384 L122 339 C158 377 207 399 266 399 C362 399 404 327 387 233 L268 233 C137 233 37 203 32 111 C28 41 103 -12 194 -12 C322 -12 433 90 458 217 C483 350 410 458 267 458 L267 458 Z M195 46 C133 46 95 78 97 114 C101 168 190 183 272 183 L373 183 C342 104 274 46 195 46 L195 46 Z " />
<glyph glyph-name="uni04E2" unicode="&#x4e2;" horiz-adv-x="721" d="M600 769 L345 769 L336 723 L591 723 L600 769 Z M638 640 L148 121 L257 640 L187 640 L52 0 L120 0 L612 523 L501 0 L571 0 L707 640 L638 640 Z " />
<glyph glyph-name="uni04E3" unicode="&#x4e3;" horiz-adv-x="527" d="M457 606 L202 606 L193 560 L448 560 L457 606 Z M433 447 L117 106 L183 447 L114 447 L27 0 L95 0 L411 343 L345 0 L413 0 L501 447 L433 447 Z " />
<glyph glyph-name="uni04E8" unicode="&#x4e8;" horiz-adv-x="779" d="M467 654 C272 654 111 510 75 327 C39 139 148 -11 350 -11 C546 -11 707 134 742 317 C778 505 669 654 467 654 L467 654 Z M466 590 C612 590 688 483 671 350 L158 350 C198 484 318 590 466 590 L466 590 Z M352 53 C205 53 130 161 146 294 L659 294 C620 161 499 53 352 53 L352 53 Z " />
<glyph glyph-name="uni04E9" unicode="&#x4e9;" horiz-adv-x="562" d="M325 459 C184 459 71 355 46 226 C21 94 95 -11 238 -11 C378 -11 491 93 516 222 C541 353 467 459 325 459 L325 459 Z M317 399 C407 399 455 334 446 247 L124 247 C150 334 227 399 317 399 L317 399 Z M246 49 C155 49 106 114 115 201 L437 201 C410 114 336 49 246 49 L246 49 Z " />
<glyph glyph-name="uni04EE" unicode="&#x4ee;" horiz-adv-x="576" d="M520 769 L265 769 L256 723 L511 723 L520 769 Z M544 640 L300 302 L191 640 L109 640 L246 228 L81 0 L167 0 L630 640 L544 640 Z " />
<glyph glyph-name="uni04EF" unicode="&#x4ef;" horiz-adv-x="479" d="M440 606 L185 606 L176 560 L431 560 L440 606 Z M428 447 L213 93 L135 447 L62 447 L163 13 L22 -210 L96 -210 L504 447 L428 447 Z " />
<glyph glyph-name="uni0E3F" unicode="&#xe3f;" horiz-adv-x="560" d="M485 486 C500 567 454 622 362 636 L383 744 L335 744 L315 640 L310 640 L168 640 L45 0 L192 0 L173 -98 L221 -98 L240 1 C373 9 461 77 481 181 C499 276 449 342 344 355 C422 372 471 418 485 486 L485 486 Z M266 383 L190 383 L228 582 L304 582 L266 383 Z M409 489 C400 439 364 403 315 389 L351 578 C398 568 419 538 409 489 L409 489 Z M128 58 L178 317 L253 317 L203 58 L128 58 Z M407 191 C393 119 336 69 251 60 L301 316 C379 308 421 262 407 191 L407 191 Z " />
<glyph glyph-name="uni1E02" unicode="&#x1e02;" horiz-adv-x="558" d="M348 706 C376 706 404 729 409 757 C414 784 396 807 368 807 C340 807 313 784 307 757 C302 729 320 706 348 706 L348 706 Z M352 355 C431 372 480 418 493 486 C511 581 444 640 319 640 L177 640 L54 0 L222 0 C370 0 468 70 490 181 C508 276 458 342 352 355 L352 355 Z M418 489 C406 425 350 383 277 383 L199 383 L236 582 L318 582 C395 582 430 550 418 489 L418 489 Z M415 191 C400 110 331 58 228 58 L137 58 L186 317 L282 317 C379 317 431 270 415 191 L415 191 Z " />
<glyph glyph-name="uni1E03" unicode="&#x1e03;" horiz-adv-x="556" d="M343 459 C275 459 216 430 171 383 L228 680 L159 680 L27 0 L83 0 L107 75 C133 22 183 -10 256 -10 C372 -10 482 80 510 222 C537 367 461 459 343 459 L343 459 Z M364 543 C392 543 420 566 425 594 C430 621 412 644 384 644 C356 644 329 621 323 594 C318 566 336 543 364 543 L364 543 Z M438 226 C420 127 342 50 249 50 C155 50 108 125 128 222 C147 322 225 400 321 400 C412 400 458 324 438 226 L438 226 Z " />
<glyph glyph-name="uni1E04" unicode="&#x1e04;" horiz-adv-x="558" d="M352 355 C431 372 480 418 493 486 C511 581 444 640 319 640 L177 640 L54 0 L222 0 C370 0 468 70 490 181 C508 276 458 342 352 355 L352 355 Z M418 489 C406 425 350 383 277 383 L199 383 L236 582 L318 582 C395 582 430 550 418 489 L418 489 Z M415 191 C400 110 331 58 228 58 L137 58 L186 317 L282 317 C379 317 431 270 415 191 L415 191 Z M220 -63 C192 -63 164 -86 159 -114 C154 -141 172 -165 200 -165 C228 -165 255 -141 261 -114 C266 -86 248 -63 220 -63 L220 -63 Z " />
<glyph glyph-name="uni1E05" unicode="&#x1e05;" horiz-adv-x="556" d="M343 459 C275 459 216 430 171 383 L228 680 L159 680 L27 0 L83 0 L107 75 C133 22 183 -10 256 -10 C372 -10 482 80 510 222 C537 367 461 459 343 459 L343 459 Z M438 226 C420 127 342 50 249 50 C155 50 108 125 128 222 C147 322 225 400 321 400 C412 400 458 324 438 226 L438 226 Z M235 -63 C207 -63 179 -86 174 -114 C169 -141 187 -165 215 -165 C243 -165 270 -141 276 -114 C281 -86 263 -63 235 -63 L235 -63 Z " />
<glyph glyph-name="uni1E0A" unicode="&#x1e0a;" horiz-adv-x="664" d="M396 706 C424 706 452 729 457 757 C462 784 444 807 416 807 C388 807 361 784 355 757 C350 729 368 706 396 706 L396 706 Z M342 640 L177 640 L54 0 L221 0 C449 0 592 142 626 319 C660 497 570 640 342 640 L342 640 Z M552 323 C520 162 406 58 216 58 L137 58 L238 582 L320 582 C509 582 582 481 552 323 L552 323 Z " />
<glyph glyph-name="uni1E0B" unicode="&#x1e0b;" horiz-adv-x="560" d="M509 680 L449 383 C423 430 374 459 306 459 C189 459 76 367 46 222 C18 80 92 -10 208 -10 C280 -10 344 22 390 74 L385 0 L442 0 L578 680 L509 680 Z M318 543 C346 543 374 566 379 594 C384 621 366 644 338 644 C310 644 283 621 277 594 C272 566 290 543 318 543 L318 543 Z M239 50 C145 50 98 127 119 226 C138 324 214 400 305 400 C401 400 449 322 428 222 C409 125 333 50 239 50 L239 50 Z " />
<glyph glyph-name="uni1E0C" unicode="&#x1e0c;" horiz-adv-x="664" d="M342 640 L177 640 L54 0 L221 0 C449 0 592 142 626 319 C660 497 570 640 342 640 L342 640 Z M552 323 C520 162 406 58 216 58 L137 58 L238 582 L320 582 C509 582 582 481 552 323 L552 323 Z M248 -63 C220 -63 192 -86 187 -114 C182 -141 200 -165 228 -165 C256 -165 283 -141 289 -114 C294 -86 276 -63 248 -63 L248 -63 Z " />
<glyph glyph-name="uni1E0D" unicode="&#x1e0d;" horiz-adv-x="549" d="M509 680 L449 383 C423 430 374 459 306 459 C189 459 76 367 46 222 C18 80 92 -10 208 -10 C280 -10 344 22 390 74 L385 0 L442 0 L578 680 L509 680 Z M239 50 C145 50 98 127 119 226 C138 324 214 400 305 400 C401 400 449 322 428 222 C409 125 333 50 239 50 L239 50 Z M214 -63 C186 -63 159 -86 153 -114 C148 -141 167 -165 194 -165 C222 -165 250 -141 255 -114 C261 -86 242 -63 214 -63 L214 -63 Z " />
<glyph glyph-name="uni1E0E" unicode="&#x1e0e;" horiz-adv-x="664" d="M342 640 L177 640 L54 0 L221 0 C449 0 592 142 626 319 C660 497 570 640 342 640 L342 640 Z M552 323 C520 162 406 58 216 58 L137 58 L238 582 L320 582 C509 582 582 481 552 323 L552 323 Z M111 -126 L366 -126 L375 -79 L120 -79 L111 -126 Z " />
<glyph glyph-name="uni1E0F" unicode="&#x1e0f;" horiz-adv-x="549" d="M509 680 L449 383 C423 430 374 459 306 459 C189 459 76 367 46 222 C18 80 92 -10 208 -10 C280 -10 344 22 390 74 L385 0 L442 0 L578 680 L509 680 Z M239 50 C145 50 98 127 119 226 C138 324 214 400 305 400 C401 400 449 322 428 222 C409 125 333 50 239 50 L239 50 Z M78 -125 L333 -125 L342 -78 L87 -78 L78 -125 Z " />
<glyph glyph-name="uni1E12" unicode="&#x1e12;" horiz-adv-x="664" d="M342 640 L177 640 L54 0 L221 0 C449 0 592 142 626 319 C660 497 570 640 342 640 L342 640 Z M552 323 C520 162 406 58 216 58 L137 58 L238 582 L320 582 C509 582 582 481 552 323 L552 323 Z M219 -52 L91 -165 L138 -165 C158 -165 168 -159 185 -146 L242 -99 L280 -146 C292 -160 299 -165 320 -165 L367 -165 L283 -52 L219 -52 Z " />
<glyph glyph-name="uni1E13" unicode="&#x1e13;" horiz-adv-x="560" d="M509 680 L449 383 C423 430 374 459 306 459 C189 459 76 367 46 222 C18 80 92 -10 208 -10 C280 -10 344 22 390 74 L385 0 L442 0 L578 680 L509 680 Z M239 50 C145 50 98 127 119 226 C138 324 214 400 305 400 C401 400 449 322 428 222 C409 125 333 50 239 50 L239 50 Z M196 -52 L68 -165 L115 -165 C135 -165 145 -159 162 -146 L219 -99 L257 -146 C269 -160 276 -165 297 -165 L344 -165 L260 -52 L196 -52 Z " />
<glyph glyph-name="uni1E1E" unicode="&#x1e1e;" horiz-adv-x="504" d="M369 706 C397 706 425 729 430 757 C435 784 417 807 389 807 C361 807 334 784 328 757 C323 729 341 706 369 706 L369 706 Z M531 577 L543 640 L177 640 L54 0 L126 0 L182 290 L426 290 L437 350 L193 350 L237 577 L531 577 Z " />
<glyph glyph-name="uni1E1F" unicode="&#x1e1f;" horiz-adv-x="337" d="M304 745 C332 745 360 768 365 796 C370 823 352 846 324 846 C296 846 269 823 263 796 C258 768 276 745 304 745 L304 745 Z M335 634 C350 634 366 631 388 616 L422 665 C394 683 372 694 330 694 C265 694 198 653 180 557 L159 447 L90 447 L79 389 L147 389 L31 -210 L101 -210 L217 389 L328 389 L338 447 L229 447 L249 552 C259 600 284 634 335 634 L335 634 Z " />
<glyph glyph-name="uni1E24" unicode="&#x1e24;" horiz-adv-x="683" d="M595 640 L542 362 L196 362 L249 640 L177 640 L54 0 L126 0 L184 303 L530 303 L472 0 L544 0 L667 640 L595 640 Z M287 -63 C259 -63 231 -86 226 -114 C221 -141 239 -165 267 -165 C295 -165 322 -141 328 -114 C333 -86 315 -63 287 -63 L287 -63 Z " />
<glyph glyph-name="uni1E25" unicode="&#x1e25;" horiz-adv-x="518" d="M325 459 C260 459 207 430 171 388 L228 680 L159 680 L27 0 L96 0 L149 274 C173 364 241 399 303 399 C379 399 405 345 389 262 L338 0 L408 0 L460 272 C487 415 405 459 325 459 L325 459 Z M213 -63 C185 -63 157 -86 152 -114 C147 -141 165 -165 193 -165 C221 -165 248 -141 254 -114 C259 -86 241 -63 213 -63 L213 -63 Z " />
<glyph glyph-name="uni1E2E" unicode="&#x1e2e;" horiz-adv-x="283" d="M216 805 L256 805 C270 805 285 808 305 825 L405 910 L337 925 L216 805 Z M151 787 C126 787 104 768 100 744 C94 715 110 694 137 694 C161 694 185 713 191 738 C196 766 177 787 151 787 L151 787 Z M350 787 C325 787 304 768 299 744 C294 715 309 694 337 694 C361 694 385 713 391 738 C395 766 377 787 350 787 L350 787 Z M259 640 L187 640 L62 0 L134 0 L259 640 Z " />
<glyph glyph-name="uni1E2F" unicode="&#x1e2f;" horiz-adv-x="240" d="M262 706 L357 792 L286 805 L130 655 L164 655 C187 655 206 657 262 706 L262 706 Z M95 633 C70 633 49 614 44 590 C39 561 54 540 82 540 C106 540 130 559 136 584 C140 612 122 633 95 633 L95 633 Z M295 633 C270 633 249 614 244 590 C238 561 254 540 282 540 C306 540 330 559 335 584 C340 612 322 633 295 633 L295 633 Z M42 0 L111 0 L198 447 L129 447 L42 0 Z " />
<glyph glyph-name="uni1E36" unicode="&#x1e36;" horiz-adv-x="490" d="M138 63 L249 640 L177 640 L54 0 L401 0 L413 63 L138 63 Z M197 -63 C169 -63 141 -86 136 -114 C131 -141 149 -165 177 -165 C205 -165 232 -141 238 -114 C243 -86 225 -63 197 -63 L197 -63 Z " />
<glyph glyph-name="uni1E37" unicode="&#x1e37;" horiz-adv-x="218" d="M31 0 L100 0 L232 680 L163 680 L31 0 Z M34 -165 C62 -165 89 -141 95 -114 C100 -86 82 -63 54 -63 C26 -63 -2 -86 -7 -114 C-12 -141 6 -165 34 -165 L34 -165 Z " />
<glyph glyph-name="uni1E3C" unicode="&#x1e3c;" horiz-adv-x="490" d="M138 63 L249 640 L177 640 L54 0 L401 0 L413 63 L138 63 Z M168 -52 L40 -165 L87 -165 C107 -165 117 -159 134 -146 L191 -99 L229 -146 C241 -160 248 -165 269 -165 L316 -165 L232 -52 L168 -52 Z " />
<glyph glyph-name="uni1E3D" unicode="&#x1e3d;" horiz-adv-x="218" d="M31 0 L100 0 L232 680 L163 680 L31 0 Z M89 -52 L25 -52 L-103 -165 L-56 -165 C-36 -165 -26 -159 -9 -146 L48 -99 L86 -146 C98 -160 105 -165 126 -165 L173 -165 L89 -52 Z " />
<glyph glyph-name="uni1E3E" unicode="&#x1e3e;" horiz-adv-x="823" d="M561 741 L656 827 L585 840 L429 690 L463 690 C486 690 505 692 561 741 L561 741 Z M744 640 L424 291 L240 638 L240 640 L177 640 L54 0 L126 0 L225 515 L404 181 L711 514 L612 0 L684 0 L807 640 L744 640 Z " />
<glyph glyph-name="uni1E3F" unicode="&#x1e3f;" horiz-adv-x="776" d="M516 578 L611 664 L540 677 L384 527 L418 527 C441 527 460 529 516 578 L516 578 Z M593 459 C516 459 469 429 431 377 C412 438 360 459 310 459 C257 459 205 433 170 385 L174 447 L114 447 L29 0 L98 0 L147 257 C169 348 223 399 290 399 C359 399 379 343 363 261 L313 0 L382 0 L429 246 L429 241 C447 342 502 399 573 399 C645 399 663 343 647 260 L597 0 L666 0 L716 261 C745 414 669 459 593 459 L593 459 Z " />
<glyph glyph-name="uni1E44" unicode="&#x1e44;" horiz-adv-x="712" d="M449 706 C477 706 505 729 510 757 C515 784 497 807 469 807 C441 807 414 784 408 757 C403 729 421 706 449 706 L449 706 Z M626 640 L525 120 L245 640 L177 640 L54 0 L124 0 L224 524 L505 0 L573 0 L696 640 L626 640 Z " />
<glyph glyph-name="uni1E45" unicode="&#x1e45;" horiz-adv-x="519" d="M324 543 C352 543 380 566 385 594 C390 621 372 644 344 644 C316 644 289 621 283 594 C278 566 296 543 324 543 L324 543 Z M326 459 C261 459 206 430 171 386 L174 447 L114 447 L29 0 L98 0 L152 279 C177 366 243 399 304 399 C380 399 406 345 390 262 L339 0 L409 0 L461 272 C488 415 407 459 326 459 L326 459 Z " />
<glyph glyph-name="uni1E46" unicode="&#x1e46;" horiz-adv-x="712" d="M626 640 L525 120 L245 640 L177 640 L54 0 L124 0 L224 524 L505 0 L573 0 L696 640 L626 640 Z M302 -63 C274 -63 246 -86 241 -114 C236 -141 254 -165 282 -165 C310 -165 337 -141 343 -114 C348 -86 330 -63 302 -63 L302 -63 Z " />
<glyph glyph-name="uni1E47" unicode="&#x1e47;" horiz-adv-x="519" d="M326 459 C261 459 206 430 171 386 L174 447 L114 447 L29 0 L98 0 L152 279 C177 366 243 399 304 399 C380 399 406 345 390 262 L339 0 L409 0 L461 272 C488 415 407 459 326 459 L326 459 Z M207 -63 C179 -63 151 -86 146 -114 C141 -141 159 -165 187 -165 C215 -165 242 -141 248 -114 C253 -86 235 -63 207 -63 L207 -63 Z " />
<glyph glyph-name="uni1E4A" unicode="&#x1e4a;" horiz-adv-x="712" d="M626 640 L525 120 L245 640 L177 640 L54 0 L124 0 L224 524 L505 0 L573 0 L696 640 L626 640 Z M273 -52 L145 -165 L192 -165 C212 -165 222 -159 239 -146 L296 -99 L334 -146 C346 -160 353 -165 374 -165 L421 -165 L337 -52 L273 -52 Z " />
<glyph glyph-name="uni1E4B" unicode="&#x1e4b;" horiz-adv-x="519" d="M326 459 C261 459 206 430 171 386 L174 447 L114 447 L29 0 L98 0 L152 279 C177 366 243 399 304 399 C380 399 406 345 390 262 L339 0 L409 0 L461 272 C488 415 407 459 326 459 L326 459 Z M178 -52 L50 -165 L97 -165 C117 -165 127 -159 144 -146 L201 -99 L239 -146 C251 -160 258 -165 279 -165 L326 -165 L242 -52 L178 -52 Z " />
<glyph glyph-name="uni1E4C" unicode="&#x1e4c;" horiz-adv-x="779" d="M470 811 L510 811 C524 811 539 814 559 831 L659 916 L591 931 L470 811 Z M553 694 C605 694 633 740 646 760 L606 785 C594 765 583 746 552 746 C513 746 503 787 449 787 C399 787 374 749 355 728 L394 696 C404 711 419 736 450 736 C491 736 500 694 553 694 L553 694 Z M350 -11 C546 -11 707 134 742 317 C778 505 669 654 467 654 C272 654 111 510 75 327 C39 139 148 -11 350 -11 L350 -11 Z M352 53 C197 53 122 174 150 317 C179 466 306 590 466 590 C620 590 696 471 667 327 C639 179 511 53 352 53 L352 53 Z " />
<glyph glyph-name="uni1E4D" unicode="&#x1e4d;" horiz-adv-x="562" d="M320 648 L360 648 C374 648 389 651 409 668 L509 753 L441 768 L320 648 Z M403 531 C455 531 483 577 496 597 L456 622 C444 602 433 583 402 583 C363 583 353 624 299 624 C249 624 224 586 205 565 L244 533 C254 548 269 573 300 573 C341 573 350 531 403 531 L403 531 Z M238 -11 C375 -11 491 93 516 222 C541 353 465 459 325 459 C187 459 71 355 46 226 C22 94 98 -11 238 -11 L238 -11 Z M246 49 C151 49 100 125 119 222 C138 321 221 399 317 399 C411 399 462 322 443 226 C424 127 341 49 246 49 L246 49 Z " />
<glyph glyph-name="uni1E50" unicode="&#x1e50;" horiz-adv-x="779" d="M538 781 L464 901 L390 886 L457 801 C470 784 483 781 498 781 L538 781 Z M365 691 L620 691 L629 737 L374 737 L365 691 Z M350 -11 C546 -11 707 134 742 317 C778 505 669 654 467 654 C272 654 111 510 75 327 C39 139 148 -11 350 -11 L350 -11 Z M352 53 C197 53 122 174 150 317 C179 466 306 590 466 590 C620 590 696 471 667 327 C639 179 511 53 352 53 L352 53 Z " />
<glyph glyph-name="uni1E51" unicode="&#x1e51;" horiz-adv-x="562" d="M388 619 L314 739 L240 724 L307 639 C320 622 333 619 348 619 L388 619 Z M215 529 L470 529 L479 575 L224 575 L215 529 Z M238 -11 C375 -11 491 93 516 222 C541 353 465 459 325 459 C187 459 71 355 46 226 C22 94 98 -11 238 -11 L238 -11 Z M246 49 C151 49 100 125 119 222 C138 321 221 399 317 399 C411 399 462 322 443 226 C424 127 341 49 246 49 L246 49 Z " />
<glyph glyph-name="uni1E52" unicode="&#x1e52;" horiz-adv-x="779" d="M463 781 L503 781 C517 781 532 784 552 801 L652 886 L584 901 L463 781 Z M365 691 L620 691 L629 737 L374 737 L365 691 Z M350 -11 C546 -11 707 134 742 317 C778 505 669 654 467 654 C272 654 111 510 75 327 C39 139 148 -11 350 -11 L350 -11 Z M352 53 C197 53 122 174 150 317 C179 466 306 590 466 590 C620 590 696 471 667 327 C639 179 511 53 352 53 L352 53 Z " />
<glyph glyph-name="uni1E53" unicode="&#x1e53;" horiz-adv-x="562" d="M312 619 L352 619 C367 619 381 622 401 639 L501 724 L433 739 L312 619 Z M215 529 L470 529 L479 575 L224 575 L215 529 Z M238 -11 C375 -11 491 93 516 222 C541 353 465 459 325 459 C187 459 71 355 46 226 C22 94 98 -11 238 -11 L238 -11 Z M246 49 C151 49 100 125 119 222 C138 321 221 399 317 399 C411 399 462 322 443 226 C424 127 341 49 246 49 L246 49 Z " />
<glyph glyph-name="uni1E56" unicode="&#x1e56;" horiz-adv-x="530" d="M363 706 C391 706 419 729 424 757 C429 784 411 807 383 807 C355 807 328 784 322 757 C317 729 335 706 363 706 L363 706 Z M362 640 L177 640 L54 0 L126 0 L178 270 L294 270 C390 270 508 329 532 452 C556 578 458 640 362 640 L362 640 Z M456 458 C441 375 373 328 272 328 L189 328 L238 582 L323 582 C425 582 472 538 456 458 L456 458 Z " />
<glyph glyph-name="uni1E57" unicode="&#x1e57;" horiz-adv-x="558" d="M342 543 C370 543 398 566 403 594 C408 621 390 644 362 644 C334 644 307 621 301 594 C296 566 314 543 342 543 L342 543 Z M345 459 C274 459 212 428 167 376 L174 447 L114 447 L-14 -210 L55 -210 L110 72 C136 21 187 -10 258 -10 C374 -10 484 80 511 222 C539 367 463 459 345 459 L345 459 Z M440 226 C422 127 344 50 251 50 C157 50 110 125 130 222 C148 322 227 400 322 400 C414 400 460 324 440 226 L440 226 Z " />
<glyph glyph-name="uni1E60" unicode="&#x1e60;" horiz-adv-x="533" d="M360 706 C388 706 416 729 421 757 C426 784 408 807 380 807 C352 807 325 784 319 757 C314 729 332 706 360 706 L360 706 Z M222 -11 C315 -11 432 36 457 163 C476 261 409 319 323 355 C235 393 188 425 200 486 C212 546 271 590 336 590 C388 590 421 571 455 532 L514 579 C481 620 434 654 345 654 C245 654 146 589 127 491 C104 371 195 334 283 295 C344 267 394 233 380 163 C367 92 292 53 227 53 C158 53 115 79 83 135 L18 86 C55 28 114 -11 222 -11 L222 -11 Z " />
<glyph glyph-name="uni1E61" unicode="&#x1e61;" horiz-adv-x="422" d="M278 543 C306 543 334 566 339 594 C344 621 326 644 298 644 C270 644 243 621 237 594 C232 566 250 543 278 543 L278 543 Z M6 68 C26 23 85 -11 163 -11 C264 -11 340 38 354 116 C387 287 130 208 153 328 C161 369 197 398 257 399 C292 400 326 385 348 358 L397 400 C374 432 327 459 263 459 C168 459 98 408 82 329 C49 157 304 230 282 119 C274 78 234 49 169 49 C122 49 86 67 65 107 L6 68 Z " />
<glyph glyph-name="uni1E62" unicode="&#x1e62;" horiz-adv-x="533" d="M222 -11 C315 -11 432 36 457 163 C476 261 409 319 323 355 C235 393 188 425 200 486 C212 546 271 590 336 590 C388 590 421 571 455 532 L514 579 C481 620 434 654 345 654 C245 654 146 589 127 491 C104 371 195 334 283 295 C344 267 394 233 380 163 C367 92 292 53 227 53 C158 53 115 79 83 135 L18 86 C55 28 114 -11 222 -11 L222 -11 Z M192 -165 C220 -165 247 -141 253 -114 C258 -86 240 -63 212 -63 C184 -63 156 -86 151 -114 C146 -141 164 -165 192 -165 L192 -165 Z " />
<glyph glyph-name="uni1E63" unicode="&#x1e63;" horiz-adv-x="422" d="M6 68 C26 23 85 -11 163 -11 C264 -11 340 38 354 116 C387 287 130 208 153 328 C161 369 197 398 257 399 C292 400 326 385 348 358 L397 400 C374 432 327 459 263 459 C168 459 98 408 82 329 C49 157 304 230 282 119 C274 78 234 49 169 49 C122 49 86 67 65 107 L6 68 Z M142 -165 C170 -165 197 -141 203 -114 C208 -86 190 -63 162 -63 C134 -63 106 -86 101 -114 C96 -141 114 -165 142 -165 L142 -165 Z " />
<glyph glyph-name="uni1E6A" unicode="&#x1e6a;" horiz-adv-x="540" d="M365 706 C393 706 421 729 426 757 C431 784 413 807 385 807 C357 807 330 784 324 757 C319 729 337 706 365 706 L365 706 Z M568 640 L135 640 L122 577 L304 577 L193 0 L265 0 L376 577 L555 577 L568 640 Z " />
<glyph glyph-name="uni1E6B" unicode="&#x1e6b;" horiz-adv-x="334" d="M235 661 C263 661 291 684 296 712 C301 739 283 762 255 762 C227 762 200 739 194 712 C189 684 207 661 235 661 L235 661 Z M338 447 L228 447 L253 576 L184 576 L159 447 L90 447 L79 389 L148 389 L73 0 L142 0 L217 389 L328 389 L338 447 Z " />
<glyph glyph-name="uni1E6C" unicode="&#x1e6c;" horiz-adv-x="540" d="M568 640 L135 640 L122 577 L304 577 L193 0 L265 0 L376 577 L555 577 L568 640 Z M217 -63 C189 -63 161 -86 156 -114 C151 -141 169 -165 197 -165 C225 -165 252 -141 258 -114 C263 -86 245 -63 217 -63 L217 -63 Z " />
<glyph glyph-name="uni1E6D" unicode="&#x1e6d;" horiz-adv-x="334" d="M338 447 L228 447 L253 576 L184 576 L159 447 L90 447 L79 389 L148 389 L73 0 L142 0 L217 389 L328 389 L338 447 Z M96 -63 C68 -63 40 -86 35 -114 C30 -141 48 -165 76 -165 C104 -165 131 -141 137 -114 C142 -86 124 -63 96 -63 L96 -63 Z " />
<glyph glyph-name="uni1E6E" unicode="&#x1e6e;" horiz-adv-x="540" d="M568 640 L135 640 L122 577 L304 577 L193 0 L265 0 L376 577 L555 577 L568 640 Z M80 -126 L335 -126 L344 -79 L89 -79 L80 -126 Z " />
<glyph glyph-name="uni1E6F" unicode="&#x1e6f;" horiz-adv-x="334" d="M338 447 L228 447 L253 576 L184 576 L159 447 L90 447 L79 389 L148 389 L73 0 L142 0 L217 389 L328 389 L338 447 Z M6 -126 L181 -126 L187 -79 L12 -79 L6 -126 Z " />
<glyph glyph-name="uni1E70" unicode="&#x1e70;" horiz-adv-x="540" d="M568 640 L135 640 L122 577 L304 577 L193 0 L265 0 L376 577 L555 577 L568 640 Z M188 -52 L60 -165 L107 -165 C127 -165 137 -159 154 -146 L211 -99 L249 -146 C261 -160 268 -165 289 -165 L336 -165 L252 -52 L188 -52 Z " />
<glyph glyph-name="uni1E71" unicode="&#x1e71;" horiz-adv-x="334" d="M338 447 L228 447 L253 576 L184 576 L159 447 L90 447 L79 389 L148 389 L73 0 L142 0 L217 389 L328 389 L338 447 Z M67 -52 L-61 -165 L-14 -165 C6 -165 16 -159 33 -146 L90 -99 L128 -146 C140 -160 147 -165 168 -165 L215 -165 L131 -52 L67 -52 Z " />
<glyph glyph-name="Wgrave" unicode="&#x1e80;" horiz-adv-x="943" d="M625 690 L659 690 L553 840 L478 827 L544 741 C583 692 602 690 625 690 L625 690 Z M909 640 L639 103 L584 640 L523 640 L259 103 L196 640 L121 640 L210 0 L268 0 L535 545 L591 0 L649 0 L985 640 L909 640 Z " />
<glyph glyph-name="wgrave" unicode="&#x1e81;" horiz-adv-x="729" d="M486 527 L520 527 L414 677 L339 664 L405 578 C444 529 463 527 486 527 L486 527 Z M674 447 L480 90 L437 447 L377 447 L198 90 L141 447 L68 447 L153 0 L210 0 L392 364 L434 0 L491 0 L749 447 L674 447 Z " />
<glyph glyph-name="Wacute" unicode="&#x1e82;" horiz-adv-x="943" d="M622 741 L717 827 L646 840 L490 690 L524 690 C547 690 566 692 622 741 L622 741 Z M909 640 L639 103 L584 640 L523 640 L259 103 L196 640 L121 640 L210 0 L268 0 L535 545 L591 0 L649 0 L985 640 L909 640 Z " />
<glyph glyph-name="wacute" unicode="&#x1e83;" horiz-adv-x="729" d="M482 578 L577 664 L506 677 L350 527 L384 527 C407 527 426 529 482 578 L482 578 Z M674 447 L480 90 L437 447 L377 447 L198 90 L141 447 L68 447 L153 0 L210 0 L392 364 L434 0 L491 0 L749 447 L674 447 Z " />
<glyph glyph-name="Wdieresis" unicode="&#x1e84;" horiz-adv-x="943" d="M467 702 C491 702 515 721 521 746 C525 774 507 795 480 795 C455 795 434 776 429 752 C424 723 439 702 467 702 L467 702 Z M667 702 C691 702 715 721 720 746 C725 774 707 795 680 795 C655 795 634 776 629 752 C623 723 639 702 667 702 L667 702 Z M909 640 L639 103 L584 640 L523 640 L259 103 L196 640 L121 640 L210 0 L268 0 L535 545 L591 0 L649 0 L985 640 L909 640 Z " />
<glyph glyph-name="wdieresis" unicode="&#x1e85;" horiz-adv-x="729" d="M328 540 C352 540 376 559 382 584 C386 612 368 633 341 633 C316 633 295 614 290 590 C285 561 300 540 328 540 L328 540 Z M528 540 C552 540 576 559 581 584 C586 612 568 633 541 633 C516 633 495 614 490 590 C484 561 500 540 528 540 L528 540 Z M674 447 L480 90 L437 447 L377 447 L198 90 L141 447 L68 447 L153 0 L210 0 L392 364 L434 0 L491 0 L749 447 L674 447 Z " />
<glyph glyph-name="uni1E92" unicode="&#x1e92;" horiz-adv-x="567" d="M571 640 L153 640 L141 577 L466 577 L22 54 L12 0 L468 0 L479 63 L113 63 L561 586 L571 640 Z M221 -63 C193 -63 165 -86 160 -114 C155 -141 173 -165 201 -165 C229 -165 256 -141 262 -114 C267 -86 249 -63 221 -63 L221 -63 Z " />
<glyph glyph-name="uni1E93" unicode="&#x1e93;" horiz-adv-x="472" d="M452 447 L105 447 L93 386 L354 386 L14 52 L5 0 L384 0 L395 61 L106 61 L441 391 L452 447 Z M183 -63 C155 -63 127 -86 122 -114 C117 -141 135 -165 163 -165 C191 -165 218 -141 224 -114 C229 -86 211 -63 183 -63 L183 -63 Z " />
<glyph glyph-name="uni1E9E" unicode="&#x1e9e;" horiz-adv-x="611" d="M199 -4 C375 -28 517 45 547 198 C574 337 457 379 374 389 L573 586 L584 640 L388 640 C274 640 160 582 127 411 L47 0 L119 0 L198 410 C217 509 277 577 369 577 L483 577 L287 383 L277 332 L316 332 C406 332 489 289 470 196 C450 94 347 39 211 62 L199 -4 Z " />
<glyph glyph-name="uni1EA0" unicode="&#x1ea0;" horiz-adv-x="634" d="M563 0 L432 640 L360 640 L-16 0 L62 0 L170 188 L450 189 L486 0 L563 0 Z M204 248 L381 556 L439 248 L204 248 Z M263 -63 C235 -63 207 -86 202 -114 C197 -141 215 -165 243 -165 C271 -165 298 -141 304 -114 C309 -86 291 -63 263 -63 L263 -63 Z " />
<glyph glyph-name="uni1EA1" unicode="&#x1ea1;" horiz-adv-x="562" d="M478 449 L454 376 C430 428 380 459 309 459 C191 459 77 367 46 222 C17 80 90 -10 206 -10 C282 -10 348 25 395 81 L391 0 L448 0 L536 449 L478 449 Z M237 50 C144 50 98 127 119 226 C139 324 216 400 307 400 C403 400 450 322 428 222 C408 125 331 50 237 50 L237 50 Z M224 -63 C196 -63 168 -86 163 -114 C158 -141 176 -165 204 -165 C232 -165 259 -141 265 -114 C270 -86 252 -63 224 -63 L224 -63 Z " />
<glyph glyph-name="uni1EA4" unicode="&#x1ea4;" horiz-adv-x="634" d="M638 870 L517 750 L557 750 C571 750 586 753 606 770 L706 855 L638 870 Z M362 710 L419 757 L458 710 C470 696 477 691 497 691 L544 691 L460 804 L396 804 L268 691 L315 691 C336 691 345 697 362 710 L362 710 Z M360 640 L-16 0 L62 0 L170 188 L450 189 L486 0 L563 0 L432 640 L360 640 Z M204 248 L381 556 L439 248 L204 248 Z " />
<glyph glyph-name="uni1EA5" unicode="&#x1ea5;" horiz-adv-x="562" d="M533 607 L633 692 L565 707 L444 587 L484 587 C499 587 513 590 533 607 L533 607 Z M291 547 L348 594 L387 547 C399 533 406 528 426 528 L473 528 L389 641 L325 641 L197 528 L244 528 C265 528 274 534 291 547 L291 547 Z M454 376 C430 428 380 459 309 459 C191 459 77 367 46 222 C17 80 90 -10 206 -10 C282 -10 348 25 395 81 L391 0 L448 0 L536 449 L478 449 L454 376 Z M237 50 C144 50 98 127 119 226 C139 324 216 400 307 400 C403 400 450 322 428 222 C408 125 331 50 237 50 L237 50 Z " />
<glyph glyph-name="uni1EA6" unicode="&#x1ea6;" horiz-adv-x="634" d="M260 750 L300 750 L226 870 L152 855 L219 770 C232 753 245 750 260 750 L260 750 Z M315 691 C336 691 345 697 362 710 L419 757 L458 710 C470 696 477 691 497 691 L544 691 L460 804 L396 804 L268 691 L315 691 Z M486 0 L563 0 L432 640 L360 640 L-16 0 L62 0 L170 188 L450 189 L486 0 Z M204 248 L381 556 L439 248 L204 248 Z " />
<glyph glyph-name="uni1EA7" unicode="&#x1ea7;" horiz-adv-x="562" d="M183 587 L223 587 L149 707 L75 692 L142 607 C155 590 168 587 183 587 L183 587 Z M244 528 C265 528 274 534 291 547 L348 594 L387 547 C399 533 406 528 426 528 L473 528 L389 641 L325 641 L197 528 L244 528 Z M478 449 L454 376 C430 428 380 459 309 459 C191 459 77 367 46 222 C17 80 90 -10 206 -10 C282 -10 348 25 395 81 L391 0 L448 0 L536 449 L478 449 Z M237 50 C144 50 98 127 119 226 C139 324 216 400 307 400 C403 400 450 322 428 222 C408 125 331 50 237 50 L237 50 Z " />
<glyph glyph-name="uni1EAA" unicode="&#x1eaa;" horiz-adv-x="634" d="M389 859 C431 859 440 817 493 817 C545 817 573 863 586 883 L546 908 C533 888 523 869 491 869 C453 869 442 910 389 910 C339 910 314 873 295 851 L334 819 C344 834 358 859 389 859 L389 859 Z M362 710 L419 757 L458 710 C470 696 477 691 497 691 L544 691 L460 804 L396 804 L268 691 L315 691 C336 691 345 697 362 710 L362 710 Z M360 640 L-16 0 L62 0 L170 188 L450 189 L486 0 L563 0 L432 640 L360 640 Z M204 248 L381 556 L439 248 L204 248 Z " />
<glyph glyph-name="uni1EAB" unicode="&#x1eab;" horiz-adv-x="562" d="M318 696 C360 696 369 654 422 654 C474 654 502 700 515 720 L475 745 C462 725 452 706 420 706 C382 706 371 747 318 747 C268 747 243 710 224 688 L263 656 C273 671 287 696 318 696 L318 696 Z M291 547 L348 594 L387 547 C399 533 406 528 426 528 L473 528 L389 641 L325 641 L197 528 L244 528 C265 528 274 534 291 547 L291 547 Z M478 449 L454 376 C430 428 380 459 309 459 C191 459 77 367 46 222 C17 80 90 -10 206 -10 C282 -10 348 25 395 81 L391 0 L448 0 L536 449 L478 449 Z M237 50 C144 50 98 127 119 226 C139 324 216 400 307 400 C403 400 450 322 428 222 C408 125 331 50 237 50 L237 50 Z " />
<glyph glyph-name="uni1EAC" unicode="&#x1eac;" horiz-adv-x="634" d="M362 710 L419 757 L458 710 C470 696 477 691 497 691 L544 691 L460 804 L396 804 L268 691 L315 691 C336 691 345 697 362 710 L362 710 Z M563 0 L432 640 L360 640 L-16 0 L62 0 L170 188 L450 189 L486 0 L563 0 Z M204 248 L381 556 L439 248 L204 248 Z M263 -63 C235 -63 207 -86 202 -114 C197 -141 215 -165 243 -165 C271 -165 298 -141 304 -114 C309 -86 291 -63 263 -63 L263 -63 Z " />
<glyph glyph-name="uni1EAD" unicode="&#x1ead;" horiz-adv-x="562" d="M291 547 L348 594 L387 547 C399 533 406 528 426 528 L473 528 L389 641 L325 641 L197 528 L244 528 C265 528 274 534 291 547 L291 547 Z M478 449 L454 376 C430 428 380 459 309 459 C191 459 77 367 46 222 C17 80 90 -10 206 -10 C282 -10 348 25 395 81 L391 0 L448 0 L536 449 L478 449 Z M237 50 C144 50 98 127 119 226 C139 324 216 400 307 400 C403 400 450 322 428 222 C408 125 331 50 237 50 L237 50 Z M224 -63 C196 -63 168 -86 163 -114 C158 -141 176 -165 204 -165 C232 -165 259 -141 265 -114 C270 -86 252 -63 224 -63 L224 -63 Z " />
<glyph glyph-name="uni1EAE" unicode="&#x1eae;" horiz-adv-x="634" d="M474 817 L574 902 L506 917 L385 797 L425 797 C439 797 454 800 474 817 L474 817 Z M413 737 C358 737 340 769 343 802 L293 802 C284 738 325 690 410 690 C493 690 549 735 565 802 L514 802 C505 772 471 737 413 737 L413 737 Z M360 640 L-16 0 L62 0 L170 188 L450 189 L486 0 L563 0 L432 640 L360 640 Z M204 248 L381 556 L439 248 L204 248 Z " />
<glyph glyph-name="uni1EAF" unicode="&#x1eaf;" horiz-adv-x="562" d="M403 654 L504 740 L435 754 L314 635 L355 635 C369 635 383 638 403 654 L403 654 Z M340 527 C423 527 479 572 495 639 L444 639 C435 609 401 574 343 574 C288 574 270 606 273 639 L223 639 C214 575 255 527 340 527 L340 527 Z M478 449 L454 376 C430 428 380 459 309 459 C191 459 77 367 46 222 C17 80 90 -10 206 -10 C282 -10 348 25 395 81 L391 0 L448 0 L536 449 L478 449 Z M237 50 C144 50 98 127 119 226 C139 324 216 400 307 400 C403 400 450 322 428 222 C408 125 331 50 237 50 L237 50 Z " />
<glyph glyph-name="uni1EB0" unicode="&#x1eb0;" horiz-adv-x="634" d="M421 797 L461 797 L387 917 L313 902 L380 817 C393 800 406 797 421 797 L421 797 Z M410 690 C493 690 549 735 565 802 L514 802 C505 772 471 737 413 737 C358 737 340 769 343 802 L293 802 C284 738 325 690 410 690 L410 690 Z M360 640 L-16 0 L62 0 L170 188 L450 189 L486 0 L563 0 L432 640 L360 640 Z M204 248 L381 556 L439 248 L204 248 Z " />
<glyph glyph-name="uni1EB1" unicode="&#x1eb1;" horiz-adv-x="562" d="M350 635 L391 635 L317 754 L243 740 L309 654 C323 638 336 635 350 635 L350 635 Z M340 527 C423 527 479 572 495 639 L444 639 C435 609 401 574 343 574 C288 574 270 606 273 639 L223 639 C214 575 255 527 340 527 L340 527 Z M478 449 L454 376 C430 428 380 459 309 459 C191 459 77 367 46 222 C17 80 90 -10 206 -10 C282 -10 348 25 395 81 L391 0 L448 0 L536 449 L478 449 Z M237 50 C144 50 98 127 119 226 C139 324 216 400 307 400 C403 400 450 322 428 222 C408 125 331 50 237 50 L237 50 Z " />
<glyph glyph-name="uni1EB4" unicode="&#x1eb4;" horiz-adv-x="634" d="M388 854 C430 854 439 812 492 812 C544 812 572 857 585 877 L545 902 C532 883 522 863 491 863 C452 863 441 905 388 905 C338 905 313 867 294 846 L333 813 C343 829 357 854 388 854 L388 854 Z M413 737 C358 737 340 769 343 802 L293 802 C284 738 325 690 410 690 C493 690 549 735 565 802 L514 802 C505 772 471 737 413 737 L413 737 Z M360 640 L-16 0 L62 0 L170 188 L450 189 L486 0 L563 0 L432 640 L360 640 Z M204 248 L381 556 L439 248 L204 248 Z " />
<glyph glyph-name="uni1EB5" unicode="&#x1eb5;" horiz-adv-x="562" d="M318 691 C360 691 369 649 422 649 C474 649 502 694 515 714 L475 739 C462 720 452 700 421 700 C382 700 371 742 318 742 C268 742 243 704 224 683 L263 650 C273 666 287 691 318 691 L318 691 Z M340 527 C423 527 479 572 495 639 L444 639 C435 609 401 574 343 574 C288 574 270 606 273 639 L223 639 C214 575 255 527 340 527 L340 527 Z M478 449 L454 376 C430 428 380 459 309 459 C191 459 77 367 46 222 C17 80 90 -10 206 -10 C282 -10 348 25 395 81 L391 0 L448 0 L536 449 L478 449 Z M237 50 C144 50 98 127 119 226 C139 324 216 400 307 400 C403 400 450 322 428 222 C408 125 331 50 237 50 L237 50 Z " />
<glyph glyph-name="uni1EB6" unicode="&#x1eb6;" horiz-adv-x="634" d="M410 690 C493 690 549 735 565 802 L514 802 C505 772 471 737 413 737 C358 737 340 769 343 802 L293 802 C284 738 325 690 410 690 L410 690 Z M360 640 L-16 0 L62 0 L170 188 L450 189 L486 0 L563 0 L432 640 L360 640 Z M204 248 L381 556 L439 248 L204 248 Z M263 -63 C235 -63 207 -86 202 -114 C197 -141 215 -165 243 -165 C271 -165 298 -141 304 -114 C309 -86 291 -63 263 -63 L263 -63 Z " />
<glyph glyph-name="uni1EB7" unicode="&#x1eb7;" horiz-adv-x="562" d="M340 527 C423 527 479 572 495 639 L444 639 C435 609 401 574 343 574 C288 574 270 606 273 639 L223 639 C214 575 255 527 340 527 L340 527 Z M478 449 L454 376 C430 428 380 459 309 459 C191 459 77 367 46 222 C17 80 90 -10 206 -10 C282 -10 348 25 395 81 L391 0 L448 0 L536 449 L478 449 Z M237 50 C144 50 98 127 119 226 C139 324 216 400 307 400 C403 400 450 322 428 222 C408 125 331 50 237 50 L237 50 Z M224 -63 C196 -63 168 -86 163 -114 C158 -141 176 -165 204 -165 C232 -165 259 -141 265 -114 C270 -86 252 -63 224 -63 L224 -63 Z " />
<glyph glyph-name="uni1EB8" unicode="&#x1eb8;" horiz-adv-x="529" d="M531 577 L543 640 L177 640 L54 0 L420 0 L432 63 L138 63 L182 290 L426 290 L438 350 L193 350 L237 577 L531 577 Z M222 -63 C194 -63 166 -86 161 -114 C156 -141 174 -165 202 -165 C230 -165 257 -141 263 -114 C268 -86 250 -63 222 -63 L222 -63 Z " />
<glyph glyph-name="uni1EB9" unicode="&#x1eb9;" horiz-adv-x="505" d="M311 459 C183 459 72 357 47 230 C22 97 95 -11 238 -11 C311 -11 380 15 428 63 L383 108 C347 70 298 48 239 48 C143 48 101 120 118 214 L237 214 C368 214 468 244 473 336 C477 406 402 459 311 459 L311 459 Z M408 333 C404 279 315 264 233 264 L132 264 C163 343 231 401 310 401 C372 401 410 369 408 333 L408 333 Z M208 -63 C180 -63 152 -86 147 -114 C142 -141 160 -165 188 -165 C216 -165 243 -141 249 -114 C254 -86 236 -63 208 -63 L208 -63 Z " />
<glyph glyph-name="uni1EBC" unicode="&#x1ebc;" horiz-adv-x="529" d="M326 736 C367 736 376 694 429 694 C481 694 509 740 522 760 L482 785 C470 765 459 746 428 746 C389 746 379 787 325 787 C275 787 250 749 231 728 L270 696 C280 711 295 736 326 736 L326 736 Z M531 577 L543 640 L177 640 L54 0 L420 0 L432 63 L138 63 L182 290 L426 290 L438 350 L193 350 L237 577 L531 577 Z " />
<glyph glyph-name="uni1EBD" unicode="&#x1ebd;" horiz-adv-x="505" d="M293 573 C334 573 343 531 396 531 C448 531 476 577 489 597 L449 622 C437 602 426 583 395 583 C356 583 346 624 292 624 C242 624 217 586 198 565 L237 533 C247 548 262 573 293 573 L293 573 Z M311 459 C183 459 72 357 47 230 C22 97 95 -11 238 -11 C311 -11 380 15 428 63 L383 108 C347 70 298 48 239 48 C143 48 101 120 118 214 L237 214 C368 214 468 244 473 336 C477 406 402 459 311 459 L311 459 Z M408 333 C404 279 315 264 233 264 L132 264 C163 343 231 401 310 401 C372 401 410 369 408 333 L408 333 Z " />
</font>
</svg>
