<?xml version="1.0" encoding="UTF-8"?>
<svg xmlns="http://www.w3.org/2000/svg" xmlns:xlink="http://www.w3.org/1999/xlink" version="1.2" >
<font id="Clarika Pro Geometric Demi Italic">
<font-face  font-family="Clarika Pro Geometric" units-per-em="980" ascent="970" descent="-250" font-style="italic" font-weight="600" font-stretch="normal" slope="-11" cap-height="640" x-height="459" underline-position="-75" underline-thickness="50" />
<missing-glyph  horiz-adv-x="645" d="M643 640 L161 640 L37 0 L519 0 L643 640 Z M538 588 L349 364 L247 588 L538 588 Z M203 564 L314 322 L110 80 L203 564 Z M478 82 L369 322 L571 562 L478 82 Z M333 280 L437 52 L141 52 L333 280 Z " />
<glyph glyph-name="NULL" horiz-adv-x="596" d="" />
<glyph glyph-name="CR" unicode="&#xd;" horiz-adv-x="596" d="" />
<glyph glyph-name="space" unicode="&#x20;" horiz-adv-x="241" d="" />
<glyph glyph-name="exclam" unicode="&#x21;" horiz-adv-x="240" d="M268 640 L130 640 L63 185 L161 185 L268 640 Z M74 -10 C112 -10 150 21 158 59 C165 97 139 128 101 128 C61 128 23 97 16 59 C9 21 35 -10 74 -10 L74 -10 Z " />
<glyph glyph-name="quotedbl" unicode="&#x22;" horiz-adv-x="369" d="M104 380 L150 377 C184 490 220 541 229 586 C236 627 214 657 178 657 C146 657 113 630 106 593 C97 544 114 493 104 380 L104 380 Z M277 380 L324 377 C357 490 394 541 403 586 C410 627 387 657 351 657 C319 657 287 630 280 593 C270 544 288 493 277 380 L277 380 Z " />
<glyph glyph-name="numbersign" unicode="&#x23;" horiz-adv-x="562" d="M574 381 L589 459 L493 459 L578 643 L493 643 L408 459 L312 459 L397 643 L313 643 L228 459 L115 459 L100 381 L192 381 L137 261 L23 261 L9 183 L101 183 L16 -1 L99 -1 L184 183 L280 183 L195 -1 L280 -1 L365 183 L483 183 L498 261 L401 261 L457 381 L574 381 Z M316 261 L220 261 L276 381 L372 381 L316 261 Z " />
<glyph glyph-name="dollar" unicode="&#x24;" horiz-adv-x="550" d="M356 368 C279 399 241 425 250 470 C259 517 309 551 363 551 C406 551 439 535 473 498 L562 578 C524 618 474 650 395 655 L412 740 L339 740 L321 651 C227 634 139 566 121 473 C98 358 183 313 275 279 C332 256 372 233 362 177 C351 121 290 92 239 92 C187 92 142 110 107 167 L12 85 C56 30 114 -2 193 -11 L176 -99 L249 -99 L266 -13 C362 -5 471 49 495 176 C515 277 451 332 356 368 L356 368 Z " />
<glyph glyph-name="percent" unicode="&#x25;" horiz-adv-x="844" d="M236 357 C325 357 399 424 415 505 C431 589 384 660 289 660 C199 660 126 592 110 511 C94 427 142 357 236 357 L236 357 Z M191 0 L275 0 L684 640 L600 640 L191 0 Z M246 436 C207 436 188 466 196 505 C204 547 237 581 280 581 C319 581 336 550 329 511 C321 470 289 436 246 436 L246 436 Z M591 -12 C680 -12 754 55 770 136 C786 220 739 291 644 291 C553 291 481 223 465 143 C448 58 497 -12 591 -12 L591 -12 Z M601 67 C562 67 543 97 551 136 C559 178 592 212 634 212 C674 212 691 181 684 143 C676 101 643 67 601 67 L601 67 Z " />
<glyph glyph-name="ampersand" unicode="&#x26;" horiz-adv-x="645" d="M606 280 L516 325 C493 291 469 257 443 226 L323 387 C301 418 273 455 282 494 C291 531 321 560 360 561 C388 561 411 545 424 511 L518 561 C495 622 443 657 371 657 C267 656 194 598 172 512 C158 454 172 411 195 375 C93 323 39 248 24 172 C6 75 70 -14 210 -14 C292 -14 359 17 419 66 L482 -20 L574 51 L502 148 C537 188 571 233 606 280 L606 280 Z M247 92 C181 84 136 118 145 171 C153 220 195 269 251 298 L363 144 C327 116 288 97 247 92 L247 92 Z " />
<glyph glyph-name="quotesingle" unicode="&#x27;" horiz-adv-x="196" d="M104 380 L150 377 C184 490 220 541 229 586 C236 627 214 657 178 657 C146 657 113 630 106 593 C97 544 114 493 104 380 L104 380 Z " />
<glyph glyph-name="parenleft" unicode="&#x28;" horiz-adv-x="353" d="M197 -179 L271 -107 C214 -48 153 102 190 296 C227 488 348 640 430 702 L379 779 C275 708 123 530 79 302 C35 67 120 -111 197 -179 L197 -179 Z " />
<glyph glyph-name="parenright" unicode="&#x29;" horiz-adv-x="358" d="M-5 -179 C100 -111 257 67 307 302 C355 530 275 708 200 779 L118 702 C175 640 234 488 194 296 C153 102 31 -48 -50 -107 L-5 -179 Z " />
<glyph glyph-name="asterisk" unicode="&#x2a;" horiz-adv-x="409" d="M433 535 L421 621 L315 586 L337 686 L248 686 L231 587 L139 621 L95 536 L189 506 L105 419 L167 367 L246 456 L290 366 L373 419 L324 505 L433 535 Z " />
<glyph glyph-name="plus" unicode="&#x2b;" horiz-adv-x="527" d="M491 301 L324 301 L357 468 L262 468 L230 301 L63 301 L45 207 L211 207 L179 40 L273 40 L306 207 L473 207 L491 301 Z " />
<glyph glyph-name="comma" unicode="&#x2c;" horiz-adv-x="240" d="M-12 -148 C82 -117 142 -45 159 22 C173 74 155 121 104 125 C60 128 23 100 13 59 C1 14 33 -14 73 -8 C62 -43 28 -75 -22 -96 L-12 -148 Z " />
<glyph glyph-name="hyphen" unicode="&#x2d;" horiz-adv-x="355" d="M45 207 L302 207 L320 301 L63 301 L45 207 Z " />
<glyph glyph-name="period" unicode="&#x2e;" horiz-adv-x="240" d="M74 -10 C112 -10 150 21 158 59 C165 97 139 128 101 128 C61 128 23 97 16 59 C9 21 35 -10 74 -10 L74 -10 Z " />
<glyph glyph-name="slash" unicode="&#x2f;" horiz-adv-x="525" d="M-41 -120 L71 -120 L588 697 L477 697 L-41 -120 Z " />
<glyph glyph-name="zero" unicode="0" horiz-adv-x="534" d="M224 -14 C379 -14 483 114 522 317 C561 523 503 657 345 657 C191 657 87 529 47 326 C8 120 66 -14 224 -14 L224 -14 Z M235 87 C150 87 141 186 166 317 C192 452 245 556 334 556 C419 556 428 458 403 326 C377 191 325 87 235 87 L235 87 Z " />
<glyph glyph-name="one" unicode="1" horiz-adv-x="534" d="M387 640 L386 639 L386 640 L131 501 L165 411 L343 508 L247 0 L365 0 L488 640 L387 640 Z " />
<glyph glyph-name="two" unicode="2" horiz-adv-x="534" d="M528 460 C549 573 475 656 340 657 C223 658 146 587 105 535 L185 474 C214 510 260 556 326 556 C384 556 415 515 405 463 C395 411 357 373 313 336 L13 81 L-1 0 L449 0 L469 100 L192 100 L390 265 C463 325 512 379 528 460 L528 460 Z " />
<glyph glyph-name="three" unicode="3" horiz-adv-x="534" d="M547 640 L141 640 L122 540 L384 540 L173 355 L196 296 C247 301 283 306 323 289 C359 272 374 238 365 196 C353 137 293 88 213 88 C138 88 102 122 72 160 L-5 70 C46 20 108 -14 214 -12 C359 -11 462 66 485 182 C511 310 422 376 321 376 L533 562 L547 640 Z " />
<glyph glyph-name="four" unicode="4" horiz-adv-x="534" d="M512 226 L444 226 L475 389 L364 389 L333 226 L146 226 L456 640 L332 640 L24 224 L7 129 L314 129 L289 0 L401 0 L426 129 L493 129 L512 226 Z " />
<glyph glyph-name="five" unicode="5" horiz-adv-x="534" d="M511 540 L530 640 L201 640 L85 313 L168 270 C185 286 219 307 267 307 C332 306 368 267 356 205 C345 146 290 86 204 87 C141 87 98 119 67 158 L-7 67 C40 22 108 -14 205 -14 C365 -14 461 87 482 195 C505 315 435 398 313 399 C279 399 249 393 225 383 L282 540 L511 540 Z " />
<glyph glyph-name="six" unicode="6" horiz-adv-x="534" d="M229 -14 C362 -14 474 79 497 198 C522 328 447 410 341 413 C295 414 263 406 237 388 L466 640 L334 642 C108 382 50 317 29 207 C6 88 74 -14 229 -14 L229 -14 Z M236 82 C171 82 130 131 143 197 C157 267 224 321 290 321 C355 321 395 273 382 206 C369 137 304 82 236 82 L236 82 Z " />
<glyph glyph-name="seven" unicode="7" horiz-adv-x="534" d="M123 640 L103 540 L425 540 L61 0 L193 0 L560 560 L574 640 L123 640 Z " />
<glyph glyph-name="eight" unicode="8" horiz-adv-x="534" d="M527 482 C545 577 481 657 344 657 C213 657 123 582 105 492 C91 419 124 370 170 348 C96 326 38 266 22 187 C4 91 51 -14 224 -14 C392 -14 475 85 493 177 C509 259 472 321 409 346 C464 366 514 411 527 482 L527 482 Z M417 481 C406 427 351 387 293 387 C239 387 202 421 212 471 C222 526 277 563 335 563 C389 563 426 532 417 481 L417 481 Z M379 191 C368 127 303 80 233 80 C168 80 126 121 137 182 C150 247 216 293 283 293 C347 293 391 252 379 191 L379 191 Z " />
<glyph glyph-name="nine" unicode="9" horiz-adv-x="534" d="M340 654 C207 654 95 561 72 442 C47 312 122 230 228 227 C274 226 307 234 332 252 L104 0 L235 -2 C461 258 520 323 541 433 C563 552 495 654 340 654 L340 654 Z M334 558 C398 558 439 509 426 443 C412 373 345 319 279 319 C214 319 174 367 187 434 C201 503 265 558 334 558 L334 558 Z " />
<glyph glyph-name="colon" unicode="&#x3a;" horiz-adv-x="240" d="M138 333 C177 333 214 364 222 402 C229 440 203 471 164 471 C125 471 87 440 80 402 C73 364 99 333 138 333 L138 333 Z M74 -10 C112 -10 150 21 158 59 C165 97 139 128 101 128 C61 128 23 97 16 59 C9 21 35 -10 74 -10 L74 -10 Z " />
<glyph glyph-name="semicolon" unicode="&#x3b;" horiz-adv-x="257" d="M153 333 C191 333 229 365 236 402 C244 441 218 472 179 472 C140 472 102 441 95 402 C87 365 113 333 153 333 L153 333 Z M-3 -145 C90 -114 150 -42 168 24 C182 77 164 124 112 127 C69 131 32 102 21 62 C9 17 42 -12 81 -5 C70 -41 36 -73 -13 -94 L-3 -145 Z " />
<glyph glyph-name="less" unicode="&#x3c;" horiz-adv-x="534" d="M537 500 L70 333 L51 241 L453 74 L475 182 L174 288 L515 392 L537 500 Z " />
<glyph glyph-name="equal" unicode="&#x3d;" horiz-adv-x="527" d="M62 293 L490 293 L507 385 L80 385 L62 293 Z M30 126 L457 126 L475 218 L48 218 L30 126 Z " />
<glyph glyph-name="greater" unicode="&#x3e;" horiz-adv-x="535" d="M103 500 L83 392 L383 288 L41 182 L21 74 L488 241 L505 333 L103 500 Z " />
<glyph glyph-name="question" unicode="&#x3f;" horiz-adv-x="498" d="M175 187 L292 187 L312 282 C391 297 494 350 515 468 C535 583 455 657 327 657 C236 657 157 612 107 559 L177 490 C198 516 244 556 307 556 C367 556 400 515 390 461 C377 382 300 346 205 349 L175 187 Z M196 -10 C235 -10 272 21 280 59 C287 97 261 128 223 128 C184 128 146 97 138 59 C131 21 157 -10 196 -10 L196 -10 Z " />
<glyph glyph-name="at" unicode="&#x40;" horiz-adv-x="769" d="M481 633 C279 633 101 477 56 284 C14 96 113 -34 307 -34 C378 -34 442 -18 502 13 L477 72 C430 49 382 34 313 34 C171 34 98 133 130 273 C165 428 307 564 473 564 C632 564 703 478 666 316 C643 217 581 171 547 171 C517 171 510 187 533 241 L625 459 L551 459 L519 404 C503 443 470 470 414 470 C312 470 220 380 196 274 C172 170 216 103 300 103 C352 103 398 126 435 160 C448 129 480 102 526 102 C626 102 710 186 740 314 C783 503 680 633 481 633 L481 633 Z M296 276 C310 336 362 392 421 392 C475 392 497 349 476 289 C458 231 404 183 347 183 C302 183 283 217 296 276 L296 276 Z " />
<glyph glyph-name="A" unicode="A" horiz-adv-x="669" d="M473 0 L607 0 L477 640 L348 640 L-28 0 L110 0 L191 147 L449 147 L473 0 Z M243 243 L389 508 L433 243 L243 243 Z " />
<glyph glyph-name="B" unicode="B" horiz-adv-x="590" d="M539 481 C558 579 490 640 364 640 L161 640 L38 0 L266 0 C409 0 509 69 531 179 C549 272 503 333 409 351 C483 372 527 416 539 481 L539 481 Z M418 477 C408 422 361 389 298 389 L238 389 L269 550 L336 550 C400 550 428 526 418 477 L418 477 Z M404 199 C391 132 335 90 255 90 L182 90 L221 296 L296 296 C376 296 416 262 404 199 L404 199 Z " />
<glyph glyph-name="C" unicode="C" horiz-adv-x="627" d="M342 -14 C420 -14 493 8 557 47 L506 149 C465 118 414 98 360 98 C230 98 170 201 194 318 C217 440 319 544 451 544 C503 544 546 528 576 497 L660 593 C611 633 546 656 466 656 C262 656 99 509 64 325 C28 137 136 -14 342 -14 L342 -14 Z " />
<glyph glyph-name="D" unicode="D" horiz-adv-x="680" d="M368 640 L161 640 L38 0 L248 0 C467 0 617 137 652 317 C687 500 587 640 368 640 L368 640 Z M524 324 C497 187 398 104 249 104 L184 104 L267 536 L335 536 C484 536 549 457 524 324 L524 324 Z " />
<glyph glyph-name="E" unicode="E" horiz-adv-x="537" d="M545 536 L565 640 L161 640 L37 0 L441 0 L461 104 L183 104 L216 273 L449 273 L467 368 L234 368 L267 536 L545 536 Z " />
<glyph glyph-name="F" unicode="F" horiz-adv-x="517" d="M545 536 L565 640 L161 640 L37 0 L163 0 L215 266 L447 266 L466 363 L233 363 L267 536 L545 536 Z " />
<glyph glyph-name="G" unicode="G" horiz-adv-x="737" d="M433 357 L415 262 L576 262 C545 159 459 98 356 98 C228 98 170 200 193 320 C217 445 320 544 452 544 C518 544 561 520 581 501 L664 594 C640 617 573 656 470 656 C261 656 99 510 64 326 C27 137 135 -14 343 -14 C541 -14 679 129 711 297 L723 357 L433 357 Z " />
<glyph glyph-name="H" unicode="H" horiz-adv-x="691" d="M562 640 L512 379 L237 379 L287 640 L161 640 L38 0 L164 0 L217 277 L492 277 L439 0 L565 0 L688 640 L562 640 Z " />
<glyph glyph-name="I" unicode="I" horiz-adv-x="308" d="M297 640 L171 640 L46 0 L172 0 L297 640 Z " />
<glyph glyph-name="J" unicode="J" horiz-adv-x="472" d="M159 -14 C270 -14 372 50 404 213 L486 640 L360 640 L278 214 C264 138 220 98 162 98 C127 98 101 110 78 144 L0 46 C36 12 82 -14 159 -14 L159 -14 Z " />
<glyph glyph-name="K" unicode="K" horiz-adv-x="661" d="M683 640 L518 640 L238 384 L287 640 L161 640 L38 0 L164 0 L220 292 L416 0 L581 0 L337 339 L683 640 Z " />
<glyph glyph-name="L" unicode="L" horiz-adv-x="507" d="M185 107 L287 640 L161 640 L38 0 L427 0 L448 107 L185 107 Z " />
<glyph glyph-name="M" unicode="M" horiz-adv-x="836" d="M720 640 L720 639 L719 640 L437 325 L275 638 L275 640 L161 640 L38 0 L161 0 L245 440 L405 155 L672 438 L588 0 L710 0 L834 640 L720 640 Z " />
<glyph glyph-name="N" unicode="N" horiz-adv-x="718" d="M593 640 L508 198 L277 640 L161 640 L38 0 L160 0 L245 442 L475 0 L592 0 L715 640 L593 640 Z " />
<glyph glyph-name="O" unicode="O" horiz-adv-x="781" d="M349 -14 C554 -14 718 133 753 316 C789 505 678 656 468 656 C263 656 100 511 64 328 C28 139 139 -14 349 -14 L349 -14 Z M361 98 C231 98 171 200 194 316 C217 439 322 544 457 544 C587 544 647 445 624 328 C601 206 495 98 361 98 L361 98 Z " />
<glyph glyph-name="P" unicode="P" horiz-adv-x="570" d="M398 640 L161 640 L38 0 L164 0 L210 241 L325 241 C438 241 554 314 577 436 C601 562 510 640 398 640 L398 640 Z M448 445 C436 377 381 337 299 337 L229 337 L269 545 L343 545 C426 545 461 510 448 445 L448 445 Z " />
<glyph glyph-name="Q" unicode="Q" horiz-adv-x="780" d="M753 316 C789 505 678 656 468 656 C263 656 100 511 64 328 C28 139 139 -14 349 -14 L645 -139 L713 -26 L527 26 C644 82 729 190 753 316 L753 316 Z M624 328 C601 206 495 98 361 98 C231 98 171 200 194 316 C217 439 322 544 457 544 C587 544 647 445 624 328 L624 328 Z " />
<glyph glyph-name="R" unicode="R" horiz-adv-x="601" d="M567 444 C591 571 494 640 379 640 L161 640 L38 0 L164 0 L214 260 L255 260 L383 0 L535 0 L385 272 C473 295 549 349 567 444 L567 444 Z M437 452 C426 391 374 354 297 354 L232 354 L269 544 L333 544 C416 544 448 509 437 452 L437 452 Z " />
<glyph glyph-name="S" unicode="S" horiz-adv-x="549" d="M232 -14 C333 -14 459 38 486 176 C506 277 442 332 346 368 C270 399 232 425 240 470 C249 517 300 551 353 551 C397 551 430 535 464 498 L553 578 C511 622 453 656 361 656 C249 656 132 582 111 473 C89 358 174 313 265 279 C323 256 363 233 353 177 C342 121 280 92 229 92 C177 92 132 110 98 167 L3 85 C54 19 128 -14 232 -14 L232 -14 Z " />
<glyph glyph-name="T" unicode="T" horiz-adv-x="557" d="M594 640 L123 640 L103 534 L276 534 L173 0 L299 0 L402 534 L573 534 L594 640 Z " />
<glyph glyph-name="U" unicode="U" horiz-adv-x="645" d="M279 -14 C428 -14 549 64 584 248 L660 640 L534 640 L461 261 C439 146 372 98 295 98 C220 98 175 142 198 258 L271 640 L145 640 L70 251 C35 67 127 -14 279 -14 L279 -14 Z " />
<glyph glyph-name="V" unicode="V" horiz-adv-x="648" d="M572 640 L310 158 L235 640 L97 640 L226 0 L335 0 L711 640 L572 640 Z " />
<glyph glyph-name="W" unicode="W" horiz-adv-x="964" d="M881 640 L655 174 L614 640 L510 640 L289 173 L242 640 L109 640 L196 0 L307 0 L525 448 L571 0 L682 0 L1015 640 L881 640 Z " />
<glyph glyph-name="X" unicode="X" horiz-adv-x="677" d="M707 640 L558 640 L375 419 L277 640 L130 640 L279 328 L-10 0 L147 0 L340 233 L442 0 L597 0 L435 325 L707 640 Z " />
<glyph glyph-name="Y" unicode="Y" horiz-adv-x="617" d="M679 640 L535 640 L342 410 L240 640 L97 640 L258 295 L202 0 L328 0 L383 292 L679 640 Z " />
<glyph glyph-name="Z" unicode="Z" horiz-adv-x="576" d="M588 640 L147 640 L126 532 L409 532 L23 93 L6 0 L481 0 L502 108 L185 108 L572 550 L588 640 Z " />
<glyph glyph-name="bracketleft" unicode="&#x5b;" horiz-adv-x="330" d="M394 769 L186 769 L4 -173 L211 -173 L225 -100 L124 -100 L279 696 L380 696 L394 769 Z " />
<glyph glyph-name="backslash" unicode="&#x5c;" horiz-adv-x="525" d="M430 -120 L230 697 L118 697 L318 -120 L430 -120 Z " />
<glyph glyph-name="bracketright" unicode="&#x5d;" horiz-adv-x="329" d="M146 769 L131 696 L232 696 L78 -100 L-23 -100 L-38 -173 L170 -173 L354 769 L146 769 Z " />
<glyph glyph-name="asciicircum" unicode="&#x5e;" horiz-adv-x="526" d="M500 326 L393 643 L292 643 L64 326 L178 326 L328 552 L392 326 L500 326 Z " />
<glyph glyph-name="underscore" unicode="&#x5f;" horiz-adv-x="489" d="M-68 -118 L422 -118 L432 -63 L-57 -63 L-68 -118 Z " />
<glyph glyph-name="grave" unicode="&#x60;" horiz-adv-x="311" d="M188 561 C228 510 252 510 285 510 L330 510 L224 670 L118 654 L188 561 Z " />
<glyph glyph-name="a" unicode="a" horiz-adv-x="569" d="M456 459 L435 411 C409 447 366 471 303 471 C183 471 68 379 35 226 C4 78 78 -10 196 -10 C263 -10 320 17 363 57 L366 0 L464 0 L554 459 L456 459 Z M255 90 C180 90 141 150 158 233 C175 313 236 371 308 371 C384 371 425 310 407 226 C390 147 329 90 255 90 L255 90 Z " />
<glyph glyph-name="b" unicode="b" horiz-adv-x="572" d="M366 471 C306 471 255 449 214 414 L266 680 L148 680 L16 0 L113 0 L138 59 C165 17 211 -10 279 -10 C397 -10 507 78 536 226 C564 379 487 471 366 471 L366 471 Z M415 233 C400 150 335 90 261 90 C187 90 148 147 164 226 C180 310 245 371 321 371 C394 371 431 313 415 233 L415 233 Z " />
<glyph glyph-name="c" unicode="c" horiz-adv-x="459" d="M236 -14 C302 -14 356 4 406 36 L355 126 C326 103 290 88 254 88 C177 88 140 145 156 225 C173 309 234 369 314 369 C348 369 378 357 397 334 L478 419 C440 451 393 471 324 471 C183 471 62 368 36 232 C10 92 92 -14 236 -14 L236 -14 Z " />
<glyph glyph-name="d" unicode="d" horiz-adv-x="575" d="M484 680 L430 414 C404 449 362 471 301 471 C180 471 67 379 35 226 C5 78 80 -10 198 -10 C266 -10 323 17 366 59 L369 0 L466 0 L602 680 L484 680 Z M256 90 C181 90 141 150 158 233 C174 313 234 371 306 371 C383 371 424 310 406 226 C391 147 330 90 256 90 L256 90 Z " />
<glyph glyph-name="e" unicode="e" horiz-adv-x="526" d="M325 471 C183 471 63 371 37 236 C9 94 93 -14 253 -14 C331 -14 398 10 450 56 L377 126 C345 94 305 74 253 74 C178 74 146 126 154 201 L264 201 C419 201 502 248 505 333 C509 416 427 471 325 471 L325 471 Z M397 329 C394 287 327 271 261 271 L172 271 C200 340 255 382 318 382 C364 382 398 360 397 329 L397 329 Z " />
<glyph glyph-name="f" unicode="f" horiz-adv-x="379" d="M357 598 C370 598 386 596 412 582 L463 665 C426 689 395 699 349 699 C267 699 186 642 162 521 L150 459 L80 459 L63 367 L133 367 L22 -210 L136 -210 L250 367 L365 367 L382 459 L269 459 L282 527 C290 568 314 598 357 598 L357 598 Z " />
<glyph glyph-name="g" unicode="g" horiz-adv-x="568" d="M453 459 L434 413 C407 448 365 471 304 471 C183 471 69 380 36 229 C5 81 79 -6 196 -6 C258 -6 311 17 354 52 C332 -53 289 -112 196 -112 C172 -112 145 -107 124 -97 L82 -193 C113 -204 152 -210 190 -210 C342 -210 438 -126 471 46 L550 459 L453 459 Z M159 235 C176 315 236 372 308 372 C385 372 425 312 407 229 C391 150 329 93 256 93 C181 93 141 153 159 235 L159 235 Z " />
<glyph glyph-name="h" unicode="h" horiz-adv-x="546" d="M363 471 C302 471 251 446 213 408 L266 680 L148 680 L16 0 L134 0 L185 264 C207 342 262 370 310 370 C372 370 390 327 376 257 L327 0 L445 0 L500 285 C527 425 444 471 363 471 L363 471 Z " />
<glyph glyph-name="i" unicode="i" horiz-adv-x="269" d="M194 535 C233 535 271 566 278 604 C286 642 260 673 221 673 C182 673 144 642 136 604 C129 566 155 535 194 535 L194 535 Z M31 0 L148 0 L238 459 L120 459 L31 0 Z " />
<glyph glyph-name="j" unicode="j" horiz-adv-x="294" d="M217 535 C256 535 294 566 301 604 C309 642 283 673 244 673 C205 673 167 642 159 604 C152 566 178 535 217 535 L217 535 Z M168 -28 L262 459 L143 459 L51 -18 C37 -92 -2 -129 -82 -117 L-95 -207 C19 -229 136 -197 168 -28 L168 -28 Z " />
<glyph glyph-name="k" unicode="k" horiz-adv-x="518" d="M536 459 L383 459 L191 289 L266 680 L148 680 L17 0 L135 0 L175 209 L323 0 L474 0 L288 250 L536 459 Z " />
<glyph glyph-name="l" unicode="l" horiz-adv-x="247" d="M20 0 L138 0 L270 680 L152 680 L20 0 Z " />
<glyph glyph-name="m" unicode="m" horiz-adv-x="805" d="M626 471 C548 471 502 441 466 403 C446 449 404 471 349 471 C298 471 247 448 212 400 L209 459 L105 459 L18 0 L136 0 L186 258 C204 331 245 370 299 370 C353 370 365 326 352 259 L302 0 L421 0 L467 245 L467 240 C482 322 523 370 583 370 C637 370 650 326 637 260 L587 0 L705 0 L756 268 C783 408 726 471 626 471 L626 471 Z " />
<glyph glyph-name="n" unicode="n" horiz-adv-x="546" d="M364 471 C302 471 251 446 213 407 L209 459 L105 459 L17 0 L135 0 L185 260 C206 341 262 370 311 370 C372 370 391 327 377 257 L328 0 L446 0 L501 285 C528 425 444 471 364 471 L364 471 Z " />
<glyph glyph-name="o" unicode="o" horiz-adv-x="572" d="M242 -14 C388 -14 510 89 536 225 C562 365 479 471 330 471 C183 471 62 368 36 232 C9 92 92 -14 242 -14 L242 -14 Z M255 87 C182 87 141 145 157 225 C173 309 240 370 316 370 C389 370 430 311 415 232 C399 148 331 87 255 87 L255 87 Z " />
<glyph glyph-name="p" unicode="p" horiz-adv-x="573" d="M368 471 C303 471 249 446 208 407 L209 459 L105 459 L-25 -210 L93 -210 L144 51 C172 14 217 -10 281 -10 C398 -10 508 78 537 226 C566 379 488 471 368 471 L368 471 Z M416 233 C401 150 337 90 262 90 C188 90 150 147 166 226 C181 310 246 371 323 371 C395 371 432 313 416 233 L416 233 Z " />
<glyph glyph-name="q" unicode="q" horiz-adv-x="573" d="M453 459 L434 407 C407 446 364 471 299 471 C178 471 65 379 35 226 C6 78 81 -10 199 -10 C263 -10 317 14 359 51 L309 -210 L427 -210 L557 459 L453 459 Z M257 90 C182 90 141 150 158 233 C173 313 233 371 305 371 C382 371 423 310 406 226 C391 147 330 90 257 90 L257 90 Z " />
<glyph glyph-name="r" unicode="r" horiz-adv-x="358" d="M344 471 C291 471 244 437 210 398 L209 459 L105 459 L17 0 L136 0 L181 240 L179 225 C195 306 248 357 320 357 C333 357 348 355 359 351 L396 464 C382 468 367 471 344 471 L344 471 Z " />
<glyph glyph-name="s" unicode="s" horiz-adv-x="448" d="M-7 62 C24 19 89 -14 183 -14 C298 -14 375 42 391 123 C423 292 183 232 201 322 C207 355 236 378 284 378 C312 379 349 365 370 340 L441 411 C415 442 358 471 283 471 C171 471 96 413 79 329 C46 156 280 215 264 132 C258 100 226 77 174 77 C136 77 98 90 71 134 L-7 62 Z " />
<glyph glyph-name="t" unicode="t" horiz-adv-x="366" d="M383 459 L270 459 L295 591 L177 591 L152 459 L80 459 L63 367 L134 367 L63 0 L181 0 L252 367 L365 367 L383 459 Z " />
<glyph glyph-name="u" unicode="u" horiz-adv-x="540" d="M227 -12 C331 -12 447 32 479 203 L528 459 L410 459 L361 202 C348 133 305 88 240 88 C178 88 156 130 169 199 L219 459 L100 459 L52 206 C19 35 119 -12 227 -12 L227 -12 Z " />
<glyph glyph-name="v" unicode="v" horiz-adv-x="512" d="M421 459 L238 140 L177 459 L52 459 L163 0 L261 0 L549 459 L421 459 Z " />
<glyph glyph-name="w" unicode="w" horiz-adv-x="761" d="M664 459 L506 150 L472 459 L376 459 L224 152 L185 459 L58 459 L142 0 L241 0 L398 320 L432 0 L531 0 L792 459 L664 459 Z " />
<glyph glyph-name="x" unicode="x" horiz-adv-x="513" d="M527 459 L393 459 L272 317 L205 459 L76 459 L192 242 L-33 0 L104 0 L245 161 L325 0 L456 0 L325 237 L527 459 Z " />
<glyph glyph-name="y" unicode="y" horiz-adv-x="517" d="M425 459 L240 151 L176 459 L52 459 L157 16 L13 -210 L137 -210 L554 459 L425 459 Z " />
<glyph glyph-name="z" unicode="z" horiz-adv-x="480" d="M473 459 L97 459 L78 359 L299 359 L9 82 L-7 0 L401 0 L420 99 L166 99 L456 376 L473 459 Z " />
<glyph glyph-name="braceleft" unicode="&#x7b;" horiz-adv-x="369" d="M370 769 C302 769 235 704 222 633 L179 416 C168 360 120 337 86 334 L72 262 C105 259 144 235 133 180 L91 -38 C77 -109 119 -173 188 -173 L275 -173 L289 -100 L249 -100 C215 -100 189 -85 198 -38 L242 187 C255 255 210 290 173 298 C214 306 272 341 284 408 L328 634 C338 681 370 696 404 696 L444 696 L457 769 L370 769 Z " />
<glyph glyph-name="bar" unicode="&#x7c;" horiz-adv-x="286" d="M185 710 L15 -160 L119 -160 L289 710 L185 710 Z " />
<glyph glyph-name="braceright" unicode="&#x7d;" horiz-adv-x="368" d="M261 416 L304 633 C318 704 276 769 208 769 L121 769 L106 696 L145 696 C179 696 206 681 197 634 L153 408 C140 341 184 306 222 298 C182 290 123 255 110 187 L66 -38 C57 -85 25 -100 -9 -100 L-48 -100 L-63 -173 L24 -173 C92 -173 160 -109 173 -38 L216 180 C226 235 275 259 309 262 L323 334 C290 337 251 360 261 416 L261 416 Z " />
<glyph glyph-name="asciitilde" unicode="&#x7e;" horiz-adv-x="523" d="M332 219 C406 219 456 275 486 310 L431 353 C409 328 389 300 347 300 C294 300 287 358 212 358 C142 358 93 306 59 274 L111 223 C130 245 154 276 198 276 C255 276 260 219 332 219 L332 219 Z " />
<glyph glyph-name="uni00A0" unicode="&#xa0;" horiz-adv-x="241" d="" />
<glyph glyph-name="exclamdown" unicode="&#xa1;" horiz-adv-x="261" d="M187 471 C148 471 110 440 103 402 C96 364 122 332 160 332 C199 332 237 364 245 402 C252 440 226 471 187 471 L187 471 Z M-8 -179 L131 -179 L198 276 L100 276 L-8 -179 Z " />
<glyph glyph-name="cent" unicode="&#xa2;" horiz-adv-x="470" d="M353 217 C331 199 303 185 275 181 L331 459 C357 455 380 444 395 425 L477 510 C444 537 405 556 352 561 L368 640 L295 640 L278 559 C157 540 58 444 35 323 C12 201 71 105 182 82 L165 0 L238 0 L254 77 C311 81 360 98 405 127 L353 217 Z M155 316 C167 379 204 428 256 449 L203 189 C160 208 143 256 155 316 L155 316 Z " />
<glyph glyph-name="sterling" unicode="&#xa3;" horiz-adv-x="555" d="M422 657 C297 657 186 580 155 418 L139 333 L51 333 L37 260 L124 260 L92 93 L2 76 L-13 0 L453 0 L472 100 L212 100 L243 260 L435 260 L449 333 L257 333 L272 410 C290 503 346 551 417 551 C454 551 484 537 506 509 L584 590 C542 634 494 657 422 657 L422 657 Z " />
<glyph glyph-name="currency" unicode="&#xa4;" horiz-adv-x="550" d="M481 430 L562 498 L514 558 L431 489 C404 508 368 519 327 519 C288 519 252 510 219 493 L165 560 L93 500 L146 434 C122 405 105 369 97 330 C89 290 93 253 106 222 L25 153 L73 93 L155 162 C183 142 219 131 261 131 C299 131 335 140 367 157 L423 91 L493 152 L440 214 C465 244 483 280 491 320 C499 361 495 399 481 430 L481 430 Z M194 320 C206 383 260 431 319 431 C373 431 405 389 394 330 C382 267 328 220 269 220 C215 220 183 262 194 320 L194 320 Z " />
<glyph glyph-name="yen" unicode="&#xa5;" horiz-adv-x="635" d="M683 640 L551 640 L348 393 L242 640 L112 640 L248 340 L134 340 L122 275 L264 275 L252 215 L110 215 L98 150 L240 150 L211 0 L337 0 L366 150 L508 150 L520 215 L378 215 L390 275 L532 275 L544 340 L430 340 L683 640 Z " />
<glyph glyph-name="brokenbar" unicode="&#xa6;" horiz-adv-x="266" d="M158 625 L103 340 L207 340 L262 625 L158 625 Z M77 210 L22 -75 L126 -75 L181 210 L77 210 Z " />
<glyph glyph-name="section" unicode="&#xa7;" horiz-adv-x="502" d="M340 402 C260 444 235 470 242 503 C249 541 291 568 340 565 C378 561 407 539 419 522 L495 595 C468 623 405 659 327 657 C206 653 146 576 133 507 C124 463 138 430 162 404 C102 376 71 330 62 279 C45 185 123 130 190 95 C257 61 277 36 267 -1 C259 -38 216 -66 154 -62 C102 -58 65 -27 53 -4 L-29 -78 C-3 -113 67 -162 162 -160 C265 -159 358 -113 381 -16 C393 33 384 70 359 100 C403 126 436 164 448 214 C466 293 428 356 340 402 L340 402 Z M165 283 C171 313 200 337 239 347 C239 347 240 346 241 346 C329 296 358 268 346 224 C339 194 316 170 279 158 C185 210 156 244 165 283 L165 283 Z " />
<glyph glyph-name="dieresis" unicode="&#xa8;" horiz-adv-x="397" d="M168 638 C138 638 110 614 105 585 C98 551 119 522 154 522 C184 522 214 547 220 577 C226 610 202 638 168 638 L168 638 Z M377 638 C347 638 319 614 314 585 C307 551 328 522 363 522 C393 522 423 547 429 577 C434 610 411 638 377 638 L377 638 Z " />
<glyph glyph-name="copyright" unicode="&#xa9;" horiz-adv-x="762" d="M334 -12 C526 -12 698 136 734 320 C770 507 657 658 464 658 C270 658 99 507 63 320 C27 136 139 -12 334 -12 L334 -12 Z M345 48 C182 48 98 171 126 320 C156 471 289 597 452 597 C614 597 699 471 670 320 C641 171 505 48 345 48 L345 48 Z M366 127 C411 127 453 140 490 162 L460 225 C440 212 411 202 380 202 C312 202 281 258 293 321 C305 384 358 439 427 439 C458 439 482 430 497 416 L552 481 C524 503 487 516 442 516 C323 516 229 429 208 322 C187 213 248 127 366 127 L366 127 Z " />
<glyph glyph-name="ordfeminine" unicode="&#xaa;" horiz-adv-x="425" d="M393 650 L372 604 C353 635 322 655 276 655 C188 655 106 592 86 486 C65 377 124 311 216 311 C259 311 296 328 325 356 L329 317 L405 317 L469 650 L393 650 Z M245 393 C197 393 173 430 182 480 C193 534 234 574 285 574 C336 574 362 537 352 486 C342 433 299 393 245 393 L245 393 Z M43 188 L381 188 L395 262 L57 262 L43 188 Z " />
<glyph glyph-name="guillemotleft" unicode="&#xab;" horiz-adv-x="508" d="M333 420 L221 420 L38 242 L146 64 L258 64 L148 242 L333 420 Z M510 420 L398 420 L215 242 L323 64 L435 64 L325 242 L510 420 Z " />
<glyph glyph-name="logicalnot" unicode="&#xac;" horiz-adv-x="485" d="M61 289 L357 289 L333 168 L423 168 L464 379 L78 379 L61 289 Z " />
<glyph glyph-name="uni00AD" unicode="&#xad;" horiz-adv-x="355" d="M45 207 L302 207 L320 301 L63 301 L45 207 Z " />
<glyph glyph-name="registered" unicode="&#xae;" horiz-adv-x="500" d="M330 656 C205 656 100 563 78 446 C55 326 126 230 254 230 C379 230 483 323 505 440 C528 560 458 656 330 656 L330 656 Z M466 446 C447 350 362 270 255 270 C151 270 100 347 118 440 C137 536 221 616 328 616 C433 616 484 539 466 446 L466 446 Z M326 554 L228 554 L185 331 L240 331 L256 414 L260 414 L305 331 L374 331 L322 417 C354 422 383 443 391 481 C400 527 365 554 326 554 L326 554 Z M331 484 C327 466 314 457 294 457 L264 457 L274 505 L306 505 C326 505 334 499 331 484 L331 484 Z " />
<glyph glyph-name="macron" unicode="&#xaf;" horiz-adv-x="373" d="M120 665 L422 665 L434 724 L132 724 L120 665 Z " />
<glyph glyph-name="degree" unicode="&#xb0;" horiz-adv-x="373" d="M267 658 C185 658 107 592 91 513 C75 429 131 361 215 361 C297 361 376 426 391 506 C407 589 352 658 267 658 L267 658 Z M224 433 C183 433 157 466 166 506 C174 550 216 585 259 585 C299 585 326 552 318 513 C310 468 267 433 224 433 L224 433 Z " />
<glyph glyph-name="plusminus" unicode="&#xb1;" horiz-adv-x="527" d="M340 380 L372 547 L278 547 L246 380 L79 380 L60 286 L227 286 L195 119 L289 119 L321 286 L488 286 L507 380 L340 380 Z M5 -1 L432 -1 L450 91 L23 91 L5 -1 Z " />
<glyph glyph-name="uni00B2" unicode="&#xb2;" horiz-adv-x="383" d="M412 625 C427 703 373 750 293 750 C217 750 158 703 124 667 L180 610 C205 634 235 666 273 666 C305 666 315 646 310 622 C304 592 279 571 251 550 L81 414 L72 360 L369 360 L383 433 L230 433 L324 507 C379 546 404 582 412 625 L412 625 Z " />
<glyph glyph-name="uni00B3" unicode="&#xb3;" horiz-adv-x="385" d="M423 740 L153 740 L139 665 L281 665 L165 569 L183 519 C215 529 245 532 266 524 C286 513 290 498 284 478 C278 448 248 427 205 427 C163 426 138 446 119 468 L65 404 C102 371 144 350 210 351 C306 352 372 398 386 466 C402 544 344 583 279 582 L415 696 L423 740 Z " />
<glyph glyph-name="acute" unicode="&#xb4;" horiz-adv-x="306" d="M250 561 L352 654 L253 670 L90 510 L134 510 C168 510 192 510 250 561 L250 561 Z " />
<glyph glyph-name="uni00B5" unicode="&#xb5;" horiz-adv-x="551" d="M415 459 L366 207 C341 119 287 88 240 88 C178 88 161 132 175 202 L224 459 L105 459 L50 174 C49 169 48 165 48 160 L-19 -190 L78 -190 L126 5 C147 -6 169 -12 193 -12 C246 -12 296 9 337 50 L342 0 L446 0 L534 459 L415 459 Z " />
<glyph glyph-name="paragraph" unicode="&#xb6;" horiz-adv-x="504" d="M502 640 L274 640 C180 640 98 563 79 462 C59 358 113 279 207 279 L212 279 L129 -150 L198 -150 L338 576 L421 576 L281 -150 L350 -150 L502 640 Z " />
<glyph glyph-name="periodcentered" unicode="&#xb7;" horiz-adv-x="263" d="M127 207 C166 207 204 238 211 275 C219 314 193 345 154 345 C115 345 77 314 69 275 C62 238 88 207 127 207 L127 207 Z " />
<glyph glyph-name="cedilla" unicode="&#xb8;" horiz-adv-x="334" d="M178 -40 C155 -37 136 -41 128 -45 L189 5 L194 17 L144 22 L45 -65 L68 -92 C107 -75 150 -82 138 -112 C131 -128 113 -145 77 -145 C48 -145 23 -135 13 -127 L-31 -177 C-18 -186 20 -200 72 -198 C138 -196 198 -164 217 -115 C236 -67 208 -44 178 -40 L178 -40 Z " />
<glyph glyph-name="uni00B9" unicode="&#xb9;" horiz-adv-x="295" d="M225 740 L224 739 L224 740 L86 664 L109 594 L195 640 L142 360 L235 360 L309 740 L225 740 Z " />
<glyph glyph-name="ordmasculine" unicode="&#xba;" horiz-adv-x="432" d="M235 311 C340 311 427 385 446 480 C464 578 404 655 296 655 C191 655 104 580 86 487 C67 388 127 311 235 311 L235 311 Z M245 394 C197 394 175 432 184 480 C193 532 235 572 286 572 C334 572 356 535 347 487 C337 435 297 394 245 394 L245 394 Z M35 188 L382 188 L397 262 L49 262 L35 188 Z " />
<glyph glyph-name="guillemotright" unicode="&#xbb;" horiz-adv-x="505" d="M184 420 L73 420 L186 242 L4 64 L115 64 L295 242 L184 420 Z M361 420 L250 420 L363 242 L181 64 L292 64 L472 242 L361 420 Z " />
<glyph glyph-name="questiondown" unicode="&#xbf;" horiz-adv-x="440" d="M281 472 C242 472 204 441 197 403 C189 365 215 333 254 333 C293 333 331 365 338 403 C346 441 320 472 281 472 L281 472 Z M301 275 L184 275 L165 180 C85 165 -17 112 -38 -6 C-59 -121 21 -195 150 -195 C241 -195 319 -150 369 -97 L300 -29 C279 -54 233 -94 170 -94 C109 -94 77 -53 86 1 C100 80 177 116 271 113 L301 275 Z " />
<glyph glyph-name="Agrave" unicode="&#xc0;" horiz-adv-x="669" d="M492 690 L537 690 L431 850 L325 834 L394 741 C434 690 458 690 492 690 L492 690 Z M473 0 L607 0 L477 640 L348 640 L-28 0 L110 0 L191 147 L449 147 L473 0 Z M243 243 L389 508 L433 243 L243 243 Z " />
<glyph glyph-name="Aacute" unicode="&#xc1;" horiz-adv-x="669" d="M497 741 L599 834 L499 850 L336 690 L381 690 C415 690 439 690 497 741 L497 741 Z M473 0 L607 0 L477 640 L348 640 L-28 0 L110 0 L191 147 L449 147 L473 0 Z M243 243 L389 508 L433 243 L243 243 Z " />
<glyph glyph-name="Acircumflex" unicode="&#xc2;" horiz-adv-x="669" d="M391 718 L436 755 L466 718 C484 697 491 691 517 691 L582 691 L494 809 L398 809 L264 691 L329 691 C356 691 365 698 391 718 L391 718 Z M473 0 L607 0 L477 640 L348 640 L-28 0 L110 0 L191 147 L449 147 L473 0 Z M243 243 L389 508 L433 243 L243 243 Z " />
<glyph glyph-name="Atilde" unicode="&#xc3;" horiz-adv-x="669" d="M379 737 C423 737 435 692 491 692 C549 692 579 735 597 763 L548 797 C534 777 524 756 490 756 C449 756 435 801 377 801 C322 801 292 760 270 735 L319 696 C330 712 344 737 379 737 L379 737 Z M473 0 L607 0 L477 640 L348 640 L-28 0 L110 0 L191 147 L449 147 L473 0 Z M243 243 L389 508 L433 243 L243 243 Z " />
<glyph glyph-name="Adieresis" unicode="&#xc4;" horiz-adv-x="669" d="M324 702 C354 702 385 727 391 757 C397 790 373 818 339 818 C308 818 281 794 275 765 C269 731 290 702 324 702 L324 702 Z M533 702 C563 702 593 727 599 757 C605 790 582 818 548 818 C517 818 490 794 484 765 C478 731 499 702 533 702 L533 702 Z M473 0 L607 0 L477 640 L348 640 L-28 0 L110 0 L191 147 L449 147 L473 0 Z M243 243 L389 508 L433 243 L243 243 Z " />
<glyph glyph-name="Aring" unicode="&#xc5;" horiz-adv-x="669" d="M425 680 C483 680 536 724 546 777 C557 834 519 882 457 882 C399 882 347 837 336 785 C325 728 363 680 425 680 L425 680 Z M388 777 C394 808 421 832 454 832 C484 832 499 811 493 785 C488 754 460 729 427 729 C397 729 382 750 388 777 L388 777 Z M473 0 L607 0 L477 640 L348 640 L-28 0 L110 0 L191 147 L449 147 L473 0 Z M243 243 L389 508 L433 243 L243 243 Z " />
<glyph glyph-name="AE" unicode="&#xc6;" horiz-adv-x="825" d="M833 539 L854 643 L350 643 L-28 0 L107 0 L185 147 L402 147 L411 0 L730 0 L750 104 L521 104 L506 272 L732 272 L751 369 L498 369 L483 539 L833 539 Z M236 243 L380 513 L396 243 L236 243 Z " />
<glyph glyph-name="Ccedilla" unicode="&#xc7;" horiz-adv-x="627" d="M466 656 C262 656 99 509 64 325 C31 155 117 15 286 -10 L220 -68 L242 -95 C282 -78 324 -85 313 -115 C306 -131 288 -148 252 -148 C223 -148 198 -138 188 -130 L144 -180 C157 -189 195 -203 247 -201 C313 -199 373 -167 392 -118 C411 -70 382 -47 353 -43 C330 -40 311 -44 303 -48 L344 -14 C422 -14 494 8 557 47 L506 149 C465 118 414 98 360 98 C230 98 170 201 194 318 C217 440 319 544 451 544 C503 544 546 528 576 497 L660 593 C611 633 546 656 466 656 L466 656 Z " />
<glyph glyph-name="Egrave" unicode="&#xc8;" horiz-adv-x="537" d="M442 690 L487 690 L381 850 L275 834 L344 741 C384 690 408 690 442 690 L442 690 Z M545 536 L565 640 L161 640 L37 0 L441 0 L461 104 L183 104 L216 273 L449 273 L467 368 L234 368 L267 536 L545 536 Z " />
<glyph glyph-name="Eacute" unicode="&#xc9;" horiz-adv-x="537" d="M447 741 L549 834 L449 850 L286 690 L331 690 C365 690 389 690 447 741 L447 741 Z M545 536 L565 640 L161 640 L37 0 L441 0 L461 104 L183 104 L216 273 L449 273 L467 368 L234 368 L267 536 L545 536 Z " />
<glyph glyph-name="Ecircumflex" unicode="&#xca;" horiz-adv-x="537" d="M340 718 L385 755 L415 718 C433 697 440 691 466 691 L531 691 L443 809 L347 809 L213 691 L278 691 C305 691 314 698 340 718 L340 718 Z M545 536 L565 640 L161 640 L37 0 L441 0 L461 104 L183 104 L216 273 L449 273 L467 368 L234 368 L267 536 L545 536 Z " />
<glyph glyph-name="Edieresis" unicode="&#xcb;" horiz-adv-x="537" d="M274 702 C304 702 335 727 341 757 C347 790 323 818 289 818 C258 818 231 794 225 765 C219 731 240 702 274 702 L274 702 Z M483 702 C513 702 543 727 549 757 C555 790 532 818 498 818 C467 818 440 794 434 765 C428 731 449 702 483 702 L483 702 Z M545 536 L565 640 L161 640 L37 0 L441 0 L461 104 L183 104 L216 273 L449 273 L467 368 L234 368 L267 536 L545 536 Z " />
<glyph glyph-name="Igrave" unicode="&#xcc;" horiz-adv-x="308" d="M214 741 C254 690 278 690 312 690 L357 690 L251 850 L145 834 L214 741 Z M297 640 L171 640 L46 0 L172 0 L297 640 Z " />
<glyph glyph-name="Iacute" unicode="&#xcd;" horiz-adv-x="308" d="M317 741 L419 834 L319 850 L156 690 L201 690 C235 690 259 690 317 741 L317 741 Z M297 640 L171 640 L46 0 L172 0 L297 640 Z " />
<glyph glyph-name="Icircumflex" unicode="&#xce;" horiz-adv-x="308" d="M313 809 L217 809 L83 691 L148 691 C175 691 184 698 210 718 L255 755 L285 718 C303 697 310 691 336 691 L401 691 L313 809 Z M297 640 L171 640 L46 0 L172 0 L297 640 Z " />
<glyph glyph-name="Idieresis" unicode="&#xcf;" horiz-adv-x="308" d="M159 818 C128 818 101 794 95 765 C89 731 110 702 144 702 C174 702 205 727 211 757 C217 790 193 818 159 818 L159 818 Z M368 818 C337 818 310 794 304 765 C298 731 319 702 353 702 C383 702 413 727 419 757 C425 790 402 818 368 818 L368 818 Z M297 640 L171 640 L46 0 L172 0 L297 640 Z " />
<glyph glyph-name="Eth" unicode="&#xd0;" horiz-adv-x="680" d="M368 640 L161 640 L105 351 L52 351 L40 293 L94 293 L38 0 L248 0 C467 0 617 137 652 317 C687 500 587 640 368 640 L368 640 Z M524 324 C497 187 398 104 249 104 L184 104 L220 293 L341 293 L353 351 L231 351 L267 536 L335 536 C484 536 549 457 524 324 L524 324 Z " />
<glyph glyph-name="Ntilde" unicode="&#xd1;" horiz-adv-x="718" d="M403 737 C447 737 459 692 515 692 C573 692 603 735 621 763 L572 797 C558 777 548 756 514 756 C473 756 459 801 401 801 C346 801 316 760 294 735 L343 696 C354 712 368 737 403 737 L403 737 Z M593 640 L508 198 L277 640 L161 640 L38 0 L160 0 L245 442 L475 0 L592 0 L715 640 L593 640 Z " />
<glyph glyph-name="Ograve" unicode="&#xd2;" horiz-adv-x="781" d="M457 741 C497 690 521 690 555 690 L600 690 L494 850 L388 834 L457 741 Z M349 -14 C554 -14 718 133 753 316 C789 505 678 656 468 656 C263 656 100 511 64 328 C28 139 139 -14 349 -14 L349 -14 Z M361 98 C231 98 171 200 194 316 C217 439 322 544 457 544 C587 544 647 445 624 328 C601 206 495 98 361 98 L361 98 Z " />
<glyph glyph-name="Oacute" unicode="&#xd3;" horiz-adv-x="781" d="M560 741 L662 834 L562 850 L399 690 L444 690 C478 690 502 690 560 741 L560 741 Z M349 -14 C554 -14 718 133 753 316 C789 505 678 656 468 656 C263 656 100 511 64 328 C28 139 139 -14 349 -14 L349 -14 Z M361 98 C231 98 171 200 194 316 C217 439 322 544 457 544 C587 544 647 445 624 328 C601 206 495 98 361 98 L361 98 Z " />
<glyph glyph-name="Ocircumflex" unicode="&#xd4;" horiz-adv-x="781" d="M557 809 L461 809 L327 691 L392 691 C419 691 428 698 454 718 L499 755 L529 718 C547 697 554 691 580 691 L645 691 L557 809 Z M349 -14 C554 -14 718 133 753 316 C789 505 678 656 468 656 C263 656 100 511 64 328 C28 139 139 -14 349 -14 L349 -14 Z M361 98 C231 98 171 200 194 316 C217 439 322 544 457 544 C587 544 647 445 624 328 C601 206 495 98 361 98 L361 98 Z " />
<glyph glyph-name="Otilde" unicode="&#xd5;" horiz-adv-x="781" d="M554 692 C612 692 642 735 660 763 L611 797 C597 777 587 756 553 756 C512 756 498 801 440 801 C385 801 355 760 333 735 L382 696 C393 712 407 737 442 737 C486 737 498 692 554 692 L554 692 Z M349 -14 C554 -14 718 133 753 316 C789 505 678 656 468 656 C263 656 100 511 64 328 C28 139 139 -14 349 -14 L349 -14 Z M361 98 C231 98 171 200 194 316 C217 439 322 544 457 544 C587 544 647 445 624 328 C601 206 495 98 361 98 L361 98 Z " />
<glyph glyph-name="Odieresis" unicode="&#xd6;" horiz-adv-x="781" d="M402 818 C371 818 344 794 338 765 C332 731 353 702 387 702 C417 702 448 727 454 757 C460 790 436 818 402 818 L402 818 Z M611 818 C580 818 553 794 547 765 C541 731 562 702 596 702 C626 702 656 727 662 757 C668 790 645 818 611 818 L611 818 Z M349 -14 C554 -14 718 133 753 316 C789 505 678 656 468 656 C263 656 100 511 64 328 C28 139 139 -14 349 -14 L349 -14 Z M361 98 C231 98 171 200 194 316 C217 439 322 544 457 544 C587 544 647 445 624 328 C601 206 495 98 361 98 L361 98 Z " />
<glyph glyph-name="multiply" unicode="&#xd7;" horiz-adv-x="469" d="M446 372 L393 439 L252 321 L157 439 L78 372 L173 254 L31 136 L85 70 L226 188 L321 70 L401 137 L306 255 L446 372 Z " />
<glyph glyph-name="Oslash" unicode="&#xd8;" horiz-adv-x="781" d="M801 640 L762 681 L666 593 C617 633 550 656 468 656 C263 656 100 511 64 328 C46 235 64 150 112 88 L21 5 L60 -36 L152 48 C201 9 268 -14 349 -14 C554 -14 718 133 753 316 C771 409 753 492 706 553 L801 640 Z M194 316 C217 439 322 544 457 544 C505 544 544 530 572 508 L211 178 C190 216 184 265 194 316 L194 316 Z M624 328 C601 206 495 98 361 98 C313 98 275 112 247 135 L608 464 C628 426 634 379 624 328 L624 328 Z " />
<glyph glyph-name="Ugrave" unicode="&#xd9;" horiz-adv-x="645" d="M383 741 C423 690 447 690 481 690 L526 690 L420 850 L314 834 L383 741 Z M279 -14 C428 -14 549 64 584 248 L660 640 L534 640 L461 261 C439 146 372 98 295 98 C220 98 175 142 198 258 L271 640 L145 640 L70 251 C35 67 127 -14 279 -14 L279 -14 Z " />
<glyph glyph-name="Uacute" unicode="&#xda;" horiz-adv-x="645" d="M486 741 L588 834 L488 850 L325 690 L370 690 C404 690 428 690 486 741 L486 741 Z M279 -14 C428 -14 549 64 584 248 L660 640 L534 640 L461 261 C439 146 372 98 295 98 C220 98 175 142 198 258 L271 640 L145 640 L70 251 C35 67 127 -14 279 -14 L279 -14 Z " />
<glyph glyph-name="Ucircumflex" unicode="&#xdb;" horiz-adv-x="645" d="M483 809 L387 809 L253 691 L318 691 C345 691 354 698 380 718 L425 755 L455 718 C473 697 480 691 506 691 L571 691 L483 809 Z M279 -14 C428 -14 549 64 584 248 L660 640 L534 640 L461 261 C439 146 372 98 295 98 C220 98 175 142 198 258 L271 640 L145 640 L70 251 C35 67 127 -14 279 -14 L279 -14 Z " />
<glyph glyph-name="Udieresis" unicode="&#xdc;" horiz-adv-x="645" d="M328 818 C297 818 270 794 264 765 C258 731 279 702 313 702 C343 702 374 727 380 757 C386 790 362 818 328 818 L328 818 Z M537 818 C506 818 479 794 473 765 C467 731 488 702 522 702 C552 702 582 727 588 757 C594 790 571 818 537 818 L537 818 Z M279 -14 C428 -14 549 64 584 248 L660 640 L534 640 L461 261 C439 146 372 98 295 98 C220 98 175 142 198 258 L271 640 L145 640 L70 251 C35 67 127 -14 279 -14 L279 -14 Z " />
<glyph glyph-name="Yacute" unicode="&#xdd;" horiz-adv-x="617" d="M472 741 L574 834 L474 850 L311 690 L356 690 C390 690 414 690 472 741 L472 741 Z M679 640 L535 640 L342 410 L240 640 L97 640 L258 295 L202 0 L328 0 L383 292 L679 640 Z " />
<glyph glyph-name="Thorn" unicode="&#xde;" horiz-adv-x="562" d="M376 532 L263 532 L284 640 L161 639 L37 0 L161 0 L187 133 L303 134 C408 135 523 207 547 329 C571 455 481 531 376 532 L376 532 Z M419 336 C406 268 354 228 279 229 L205 230 L245 436 L323 437 C397 437 432 401 419 336 L419 336 Z " />
<glyph glyph-name="germandbls" unicode="&#xdf;" horiz-adv-x="591" d="M208 -4 C372 -30 507 47 534 192 C554 291 499 349 427 367 C470 384 529 422 546 509 C565 606 497 681 386 681 C277 681 154 630 118 446 L31 0 L149 0 L235 443 C250 521 293 573 359 573 C398 573 433 545 425 496 C413 437 359 406 315 406 L302 406 L284 311 L300 311 C366 311 429 273 413 196 C399 123 333 71 228 91 L208 -4 Z " />
<glyph glyph-name="agrave" unicode="&#xe0;" horiz-adv-x="569" d="M408 534 L453 534 L347 694 L241 678 L310 585 C350 534 374 534 408 534 L408 534 Z M456 459 L435 411 C409 447 366 471 303 471 C183 471 68 379 35 226 C4 78 78 -10 196 -10 C263 -10 320 17 363 57 L366 0 L464 0 L554 459 L456 459 Z M255 90 C180 90 141 150 158 233 C175 313 236 371 308 371 C384 371 425 310 407 226 C390 147 329 90 255 90 L255 90 Z " />
<glyph glyph-name="aacute" unicode="&#xe1;" horiz-adv-x="569" d="M413 585 L515 678 L415 694 L252 534 L297 534 C331 534 355 534 413 585 L413 585 Z M456 459 L435 411 C409 447 366 471 303 471 C183 471 68 379 35 226 C4 78 78 -10 196 -10 C263 -10 320 17 363 57 L366 0 L464 0 L554 459 L456 459 Z M255 90 C180 90 141 150 158 233 C175 313 236 371 308 371 C384 371 425 310 407 226 C390 147 329 90 255 90 L255 90 Z " />
<glyph glyph-name="acircumflex" unicode="&#xe2;" horiz-adv-x="569" d="M306 562 L351 599 L381 562 C399 541 406 535 432 535 L497 535 L409 653 L313 653 L179 535 L244 535 C271 535 280 542 306 562 L306 562 Z M456 459 L435 411 C409 447 366 471 303 471 C183 471 68 379 35 226 C4 78 78 -10 196 -10 C263 -10 320 17 363 57 L366 0 L464 0 L554 459 L456 459 Z M255 90 C180 90 141 150 158 233 C175 313 236 371 308 371 C384 371 425 310 407 226 C390 147 329 90 255 90 L255 90 Z " />
<glyph glyph-name="atilde" unicode="&#xe3;" horiz-adv-x="569" d="M295 581 C339 581 351 536 407 536 C465 536 495 579 513 607 L464 641 C450 621 440 600 406 600 C365 600 351 645 293 645 C238 645 208 604 186 579 L235 540 C246 556 260 581 295 581 L295 581 Z M456 459 L435 411 C409 447 366 471 303 471 C183 471 68 379 35 226 C4 78 78 -10 196 -10 C263 -10 320 17 363 57 L366 0 L464 0 L554 459 L456 459 Z M255 90 C180 90 141 150 158 233 C175 313 236 371 308 371 C384 371 425 310 407 226 C390 147 329 90 255 90 L255 90 Z " />
<glyph glyph-name="adieresis" unicode="&#xe4;" horiz-adv-x="569" d="M240 546 C270 546 301 571 307 601 C313 634 289 662 255 662 C224 662 197 638 191 609 C185 575 206 546 240 546 L240 546 Z M449 546 C479 546 509 571 515 601 C521 634 498 662 464 662 C433 662 406 638 400 609 C394 575 415 546 449 546 L449 546 Z M456 459 L435 411 C409 447 366 471 303 471 C183 471 68 379 35 226 C4 78 78 -10 196 -10 C263 -10 320 17 363 57 L366 0 L464 0 L554 459 L456 459 Z M255 90 C180 90 141 150 158 233 C175 313 236 371 308 371 C384 371 425 310 407 226 C390 147 329 90 255 90 L255 90 Z " />
<glyph glyph-name="aring" unicode="&#xe5;" horiz-adv-x="569" d="M341 525 C399 525 452 569 462 622 C473 679 435 727 373 727 C315 727 263 682 252 630 C241 573 279 525 341 525 L341 525 Z M304 622 C310 653 337 677 370 677 C400 677 415 656 409 630 C404 599 376 574 343 574 C313 574 298 595 304 622 L304 622 Z M456 459 L435 411 C409 447 366 471 303 471 C183 471 68 379 35 226 C4 78 78 -10 196 -10 C263 -10 320 17 363 57 L366 0 L464 0 L554 459 L456 459 Z M255 90 C180 90 141 150 158 233 C175 313 236 371 308 371 C384 371 425 310 407 226 C390 147 329 90 255 90 L255 90 Z " />
<glyph glyph-name="ae" unicode="&#xe6;" horiz-adv-x="916" d="M715 471 C652 471 594 451 546 418 L554 459 L456 459 L435 411 C409 447 366 471 303 471 C183 471 68 379 35 226 C4 78 78 -10 196 -10 C263 -10 320 17 363 57 L366 0 L464 0 L473 48 C511 9 569 -14 643 -14 C722 -14 788 10 840 56 L767 126 C736 94 695 74 644 74 C569 74 536 126 545 201 L655 201 C809 201 892 248 896 333 C899 416 817 471 715 471 L715 471 Z M787 329 C785 287 718 271 651 271 L562 271 C590 340 645 382 708 382 C754 382 789 360 787 329 L787 329 Z M255 90 C180 90 141 150 158 233 C175 313 236 371 308 371 C384 371 425 310 407 226 C390 147 329 90 255 90 L255 90 Z " />
<glyph glyph-name="ccedilla" unicode="&#xe7;" horiz-adv-x="459" d="M406 36 L355 126 C326 103 290 88 254 88 C177 88 140 145 156 225 C173 309 234 369 314 369 C348 369 378 357 397 334 L478 419 C440 451 393 471 324 471 C183 471 62 368 36 232 C13 108 74 11 188 -10 L125 -65 L147 -92 C187 -75 229 -82 218 -112 C211 -128 193 -145 157 -145 C128 -145 103 -135 93 -127 L49 -177 C62 -186 100 -200 152 -198 C218 -196 278 -164 297 -115 C316 -67 287 -44 258 -40 C235 -37 216 -41 208 -45 L246 -14 C307 -12 359 6 406 36 L406 36 Z " />
<glyph glyph-name="egrave" unicode="&#xe8;" horiz-adv-x="526" d="M417 534 L462 534 L356 694 L250 678 L319 585 C359 534 383 534 417 534 L417 534 Z M325 471 C183 471 63 371 37 236 C9 94 93 -14 253 -14 C331 -14 398 10 450 56 L377 126 C345 94 305 74 253 74 C178 74 146 126 154 201 L264 201 C419 201 502 248 505 333 C509 416 427 471 325 471 L325 471 Z M397 329 C394 287 327 271 261 271 L172 271 C200 340 255 382 318 382 C364 382 398 360 397 329 L397 329 Z " />
<glyph glyph-name="eacute" unicode="&#xe9;" horiz-adv-x="526" d="M422 585 L524 678 L424 694 L261 534 L306 534 C340 534 364 534 422 585 L422 585 Z M325 471 C183 471 63 371 37 236 C9 94 93 -14 253 -14 C331 -14 398 10 450 56 L377 126 C345 94 305 74 253 74 C178 74 146 126 154 201 L264 201 C419 201 502 248 505 333 C509 416 427 471 325 471 L325 471 Z M397 329 C394 287 327 271 261 271 L172 271 C200 340 255 382 318 382 C364 382 398 360 397 329 L397 329 Z " />
<glyph glyph-name="ecircumflex" unicode="&#xea;" horiz-adv-x="526" d="M315 562 L360 599 L390 562 C408 541 415 535 441 535 L506 535 L418 653 L322 653 L188 535 L253 535 C280 535 289 542 315 562 L315 562 Z M325 471 C183 471 63 371 37 236 C9 94 93 -14 253 -14 C331 -14 398 10 450 56 L377 126 C345 94 305 74 253 74 C178 74 146 126 154 201 L264 201 C419 201 502 248 505 333 C509 416 427 471 325 471 L325 471 Z M397 329 C394 287 327 271 261 271 L172 271 C200 340 255 382 318 382 C364 382 398 360 397 329 L397 329 Z " />
<glyph glyph-name="edieresis" unicode="&#xeb;" horiz-adv-x="526" d="M249 546 C279 546 310 571 316 601 C322 634 298 662 264 662 C233 662 206 638 200 609 C194 575 215 546 249 546 L249 546 Z M473 662 C442 662 415 638 409 609 C403 575 424 546 458 546 C488 546 518 571 524 601 C530 634 507 662 473 662 L473 662 Z M325 471 C183 471 63 371 37 236 C9 94 93 -14 253 -14 C331 -14 398 10 450 56 L377 126 C345 94 305 74 253 74 C178 74 146 126 154 201 L264 201 C419 201 502 248 505 333 C509 416 427 471 325 471 L325 471 Z M397 329 C394 287 327 271 261 271 L172 271 C200 340 255 382 318 382 C364 382 398 360 397 329 L397 329 Z " />
<glyph glyph-name="igrave" unicode="&#xec;" horiz-adv-x="269" d="M165 590 C205 539 229 539 263 539 L308 539 L202 699 L96 683 L165 590 Z M31 0 L148 0 L238 459 L120 459 L31 0 Z " />
<glyph glyph-name="iacute" unicode="&#xed;" horiz-adv-x="269" d="M268 590 L370 683 L270 699 L107 539 L152 539 C186 539 210 539 268 590 L268 590 Z M31 0 L148 0 L238 459 L120 459 L31 0 Z " />
<glyph glyph-name="icircumflex" unicode="&#xee;" horiz-adv-x="269" d="M264 658 L168 658 L34 540 L99 540 C126 540 135 547 161 567 L206 604 L236 567 C254 546 261 540 287 540 L352 540 L264 658 Z M31 0 L148 0 L238 459 L120 459 L31 0 Z " />
<glyph glyph-name="idieresis" unicode="&#xef;" horiz-adv-x="269" d="M110 667 C79 667 52 643 46 614 C40 580 61 551 95 551 C125 551 156 576 162 606 C168 639 144 667 110 667 L110 667 Z M319 667 C288 667 261 643 255 614 C249 580 270 551 304 551 C334 551 364 576 370 606 C376 639 353 667 319 667 L319 667 Z M31 0 L148 0 L238 459 L120 459 L31 0 Z " />
<glyph glyph-name="eth" unicode="&#xf0;" horiz-adv-x="557" d="M404 577 L516 624 L465 673 L362 630 C346 650 328 671 309 693 L198 639 C216 619 233 601 248 583 L139 538 L183 483 L293 530 C320 497 339 470 351 449 C327 455 310 455 293 455 C161 451 59 349 35 226 C9 90 91 -12 235 -12 C376 -12 494 87 520 219 C543 337 508 439 404 577 L404 577 Z M403 226 C388 146 326 88 249 88 C175 88 138 143 152 219 C167 298 228 357 306 357 C380 357 417 301 403 226 L403 226 Z " />
<glyph glyph-name="ntilde" unicode="&#xf1;" horiz-adv-x="546" d="M290 581 C334 581 346 536 402 536 C460 536 490 579 508 607 L459 641 C445 621 435 600 401 600 C360 600 346 645 288 645 C233 645 203 604 181 579 L230 540 C241 556 255 581 290 581 L290 581 Z M364 471 C302 471 251 446 213 407 L209 459 L105 459 L17 0 L135 0 L185 260 C206 341 262 370 311 370 C372 370 391 327 377 257 L328 0 L446 0 L501 285 C528 425 444 471 364 471 L364 471 Z " />
<glyph glyph-name="ograve" unicode="&#xf2;" horiz-adv-x="572" d="M316 585 C356 534 380 534 414 534 L459 534 L353 694 L247 678 L316 585 Z M242 -14 C388 -14 510 89 536 225 C562 365 479 471 330 471 C183 471 62 368 36 232 C9 92 92 -14 242 -14 L242 -14 Z M255 87 C182 87 141 145 157 225 C173 309 240 370 316 370 C389 370 430 311 415 232 C399 148 331 87 255 87 L255 87 Z " />
<glyph glyph-name="oacute" unicode="&#xf3;" horiz-adv-x="572" d="M419 585 L521 678 L421 694 L258 534 L303 534 C337 534 361 534 419 585 L419 585 Z M242 -14 C388 -14 510 89 536 225 C562 365 479 471 330 471 C183 471 62 368 36 232 C9 92 92 -14 242 -14 L242 -14 Z M255 87 C182 87 141 145 157 225 C173 309 240 370 316 370 C389 370 430 311 415 232 C399 148 331 87 255 87 L255 87 Z " />
<glyph glyph-name="ocircumflex" unicode="&#xf4;" horiz-adv-x="572" d="M416 653 L320 653 L186 535 L251 535 C278 535 287 542 313 562 L358 599 L388 562 C406 541 413 535 439 535 L504 535 L416 653 Z M242 -14 C388 -14 510 89 536 225 C562 365 479 471 330 471 C183 471 62 368 36 232 C9 92 92 -14 242 -14 L242 -14 Z M255 87 C182 87 141 145 157 225 C173 309 240 370 316 370 C389 370 430 311 415 232 C399 148 331 87 255 87 L255 87 Z " />
<glyph glyph-name="otilde" unicode="&#xf5;" horiz-adv-x="572" d="M413 536 C471 536 501 579 519 607 L470 641 C456 621 446 600 412 600 C371 600 357 645 299 645 C244 645 214 604 192 579 L241 540 C252 556 266 581 301 581 C345 581 357 536 413 536 L413 536 Z M242 -14 C388 -14 510 89 536 225 C562 365 479 471 330 471 C183 471 62 368 36 232 C9 92 92 -14 242 -14 L242 -14 Z M255 87 C182 87 141 145 157 225 C173 309 240 370 316 370 C389 370 430 311 415 232 C399 148 331 87 255 87 L255 87 Z " />
<glyph glyph-name="odieresis" unicode="&#xf6;" horiz-adv-x="572" d="M261 662 C230 662 203 638 197 609 C191 575 212 546 246 546 C276 546 307 571 313 601 C319 634 295 662 261 662 L261 662 Z M470 662 C439 662 412 638 406 609 C400 575 421 546 455 546 C485 546 515 571 521 601 C527 634 504 662 470 662 L470 662 Z M242 -14 C388 -14 510 89 536 225 C562 365 479 471 330 471 C183 471 62 368 36 232 C9 92 92 -14 242 -14 L242 -14 Z M255 87 C182 87 141 145 157 225 C173 309 240 370 316 370 C389 370 430 311 415 232 C399 148 331 87 255 87 L255 87 Z " />
<glyph glyph-name="divide" unicode="&#xf7;" horiz-adv-x="527" d="M293 359 C328 359 362 387 369 421 C375 455 352 482 317 482 C283 482 249 455 242 421 C235 387 259 359 293 359 L293 359 Z M45 207 L473 207 L491 301 L63 301 L45 207 Z M229 26 C263 26 297 54 304 88 C311 122 287 150 253 150 C218 150 184 122 177 88 C171 54 194 26 229 26 L229 26 Z " />
<glyph glyph-name="oslash" unicode="&#xf8;" horiz-adv-x="573" d="M569 452 L535 489 L470 430 C435 456 387 471 330 471 C182 471 63 368 36 232 C23 165 35 106 68 62 L4 4 L38 -32 L103 27 C138 1 186 -14 243 -14 C391 -14 510 89 537 225 C550 292 538 351 506 394 L569 452 Z M146 225 C163 316 234 383 320 383 C350 383 375 374 393 359 L151 139 C142 163 140 192 146 225 L146 225 Z M426 232 C409 141 339 74 254 74 C224 74 199 83 180 98 L422 318 C431 294 432 264 426 232 L426 232 Z " />
<glyph glyph-name="ugrave" unicode="&#xf9;" horiz-adv-x="540" d="M301 585 C341 534 365 534 399 534 L444 534 L338 694 L232 678 L301 585 Z M227 -12 C331 -12 447 32 479 203 L528 459 L410 459 L361 202 C348 133 305 88 240 88 C178 88 156 130 169 199 L219 459 L100 459 L52 206 C19 35 119 -12 227 -12 L227 -12 Z " />
<glyph glyph-name="uacute" unicode="&#xfa;" horiz-adv-x="540" d="M404 585 L506 678 L406 694 L243 534 L288 534 C322 534 346 534 404 585 L404 585 Z M227 -12 C331 -12 447 32 479 203 L528 459 L410 459 L361 202 C348 133 305 88 240 88 C178 88 156 130 169 199 L219 459 L100 459 L52 206 C19 35 119 -12 227 -12 L227 -12 Z " />
<glyph glyph-name="ucircumflex" unicode="&#xfb;" horiz-adv-x="540" d="M400 653 L304 653 L170 535 L235 535 C262 535 271 542 297 562 L342 599 L372 562 C390 541 397 535 423 535 L488 535 L400 653 Z M227 -12 C331 -12 447 32 479 203 L528 459 L410 459 L361 202 C348 133 305 88 240 88 C178 88 156 130 169 199 L219 459 L100 459 L52 206 C19 35 119 -12 227 -12 L227 -12 Z " />
<glyph glyph-name="udieresis" unicode="&#xfc;" horiz-adv-x="540" d="M246 662 C215 662 188 638 182 609 C176 575 197 546 231 546 C261 546 292 571 298 601 C304 634 280 662 246 662 L246 662 Z M455 662 C424 662 397 638 391 609 C385 575 406 546 440 546 C470 546 500 571 506 601 C512 634 489 662 455 662 L455 662 Z M227 -12 C331 -12 447 32 479 203 L528 459 L410 459 L361 202 C348 133 305 88 240 88 C178 88 156 130 169 199 L219 459 L100 459 L52 206 C19 35 119 -12 227 -12 L227 -12 Z " />
<glyph glyph-name="yacute" unicode="&#xfd;" horiz-adv-x="517" d="M390 585 L492 678 L392 694 L229 534 L274 534 C308 534 332 534 390 585 L390 585 Z M425 459 L240 151 L176 459 L52 459 L157 16 L13 -210 L137 -210 L554 459 L425 459 Z " />
<glyph glyph-name="thorn" unicode="&#xfe;" horiz-adv-x="573" d="M368 471 C307 471 255 448 214 413 L267 680 L149 680 L-21 -190 L97 -190 L144 51 C172 14 217 -10 281 -10 C398 -10 508 78 537 226 C566 379 488 471 368 471 L368 471 Z M416 233 C401 150 337 90 262 90 C188 90 150 147 166 226 C181 310 246 371 323 371 C395 371 432 313 416 233 L416 233 Z " />
<glyph glyph-name="ydieresis" unicode="&#xff;" horiz-adv-x="517" d="M217 546 C247 546 278 571 284 601 C290 634 266 662 232 662 C201 662 174 638 168 609 C162 575 183 546 217 546 L217 546 Z M426 546 C456 546 486 571 492 601 C498 634 475 662 441 662 C410 662 383 638 377 609 C371 575 392 546 426 546 L426 546 Z M425 459 L240 151 L176 459 L52 459 L157 16 L13 -210 L137 -210 L554 459 L425 459 Z " />
<glyph glyph-name="Amacron" unicode="&#x100;" horiz-adv-x="669" d="M588 783 L294 783 L282 720 L577 720 L588 783 Z M473 0 L607 0 L477 640 L348 640 L-28 0 L110 0 L191 147 L449 147 L473 0 Z M243 243 L389 508 L433 243 L243 243 Z " />
<glyph glyph-name="amacron" unicode="&#x101;" horiz-adv-x="569" d="M504 628 L210 628 L198 565 L493 565 L504 628 Z M456 459 L435 411 C409 447 366 471 303 471 C183 471 68 379 35 226 C4 78 78 -10 196 -10 C263 -10 320 17 363 57 L366 0 L464 0 L554 459 L456 459 Z M255 90 C180 90 141 150 158 233 C175 313 236 371 308 371 C384 371 425 310 407 226 C390 147 329 90 255 90 L255 90 Z " />
<glyph glyph-name="Abreve" unicode="&#x102;" horiz-adv-x="669" d="M428 690 C523 690 583 735 600 809 L533 809 C523 781 490 751 432 751 C379 751 360 775 362 809 L297 809 C285 741 330 690 428 690 L428 690 Z M473 0 L607 0 L477 640 L348 640 L-28 0 L110 0 L191 147 L449 147 L473 0 Z M243 243 L389 508 L433 243 L243 243 Z " />
<glyph glyph-name="abreve" unicode="&#x103;" horiz-adv-x="569" d="M343 534 C438 534 498 579 515 653 L448 653 C438 625 405 595 347 595 C294 595 275 619 277 653 L212 653 C200 585 245 534 343 534 L343 534 Z M456 459 L435 411 C409 447 366 471 303 471 C183 471 68 379 35 226 C4 78 78 -10 196 -10 C263 -10 320 17 363 57 L366 0 L464 0 L554 459 L456 459 Z M255 90 C180 90 141 150 158 233 C175 313 236 371 308 371 C384 371 425 310 407 226 C390 147 329 90 255 90 L255 90 Z " />
<glyph glyph-name="Aogonek" unicode="&#x104;" horiz-adv-x="669" d="M540 -11 L561 0 L607 0 L477 640 L348 640 L-28 0 L110 0 L191 147 L449 147 L473 0 C402 -39 362 -91 375 -144 C388 -199 470 -212 541 -174 L531 -120 C425 -160 422 -66 540 -11 L540 -11 Z M243 243 L389 508 L433 243 L243 243 Z " />
<glyph glyph-name="aogonek" unicode="&#x105;" horiz-adv-x="569" d="M456 459 L435 411 C409 447 366 471 303 471 C183 471 68 379 35 226 C4 78 78 -10 196 -10 C263 -10 320 17 363 57 L366 2 C294 -37 252 -90 265 -144 C278 -199 360 -212 431 -174 L421 -120 C315 -160 312 -66 430 -11 L451 0 L464 0 L554 459 L456 459 Z M255 90 C180 90 141 150 158 233 C175 313 236 371 308 371 C384 371 425 310 407 226 C390 147 329 90 255 90 L255 90 Z " />
<glyph glyph-name="Cacute" unicode="&#x106;" horiz-adv-x="627" d="M536 741 L638 834 L538 850 L375 690 L420 690 C454 690 478 690 536 741 L536 741 Z M342 -14 C420 -14 493 8 557 47 L506 149 C465 118 414 98 360 98 C230 98 170 201 194 318 C217 440 319 544 451 544 C503 544 546 528 576 497 L660 593 C611 633 546 656 466 656 C262 656 99 509 64 325 C28 137 136 -14 342 -14 L342 -14 Z " />
<glyph glyph-name="cacute" unicode="&#x107;" horiz-adv-x="459" d="M407 585 L509 678 L409 694 L246 534 L291 534 C325 534 349 534 407 585 L407 585 Z M236 -14 C302 -14 356 4 406 36 L355 126 C326 103 290 88 254 88 C177 88 140 145 156 225 C173 309 234 369 314 369 C348 369 378 357 397 334 L478 419 C440 451 393 471 324 471 C183 471 62 368 36 232 C10 92 92 -14 236 -14 L236 -14 Z " />
<glyph glyph-name="Ccircumflex" unicode="&#x108;" horiz-adv-x="627" d="M430 718 L475 755 L505 718 C523 697 530 691 556 691 L621 691 L533 809 L437 809 L303 691 L368 691 C395 691 404 698 430 718 L430 718 Z M466 656 C262 656 99 509 64 325 C28 137 136 -14 342 -14 C420 -14 493 8 557 47 L506 149 C465 118 414 98 360 98 C230 98 170 201 194 318 C217 440 319 544 451 544 C503 544 546 528 576 497 L660 593 C611 633 546 656 466 656 L466 656 Z " />
<glyph glyph-name="ccircumflex" unicode="&#x109;" horiz-adv-x="459" d="M404 653 L308 653 L174 535 L239 535 C266 535 275 542 301 562 L346 599 L376 562 C394 541 401 535 427 535 L492 535 L404 653 Z M236 -14 C302 -14 356 4 406 36 L355 126 C326 103 290 88 254 88 C177 88 140 145 156 225 C173 309 234 369 314 369 C348 369 378 357 397 334 L478 419 C440 451 393 471 324 471 C183 471 62 368 36 232 C10 92 92 -14 236 -14 L236 -14 Z " />
<glyph glyph-name="Cdotaccent" unicode="&#x10a;" horiz-adv-x="627" d="M465 698 C501 698 536 727 543 762 C550 798 526 827 490 827 C453 827 418 798 411 762 C404 727 428 698 465 698 L465 698 Z M342 -14 C420 -14 493 8 557 47 L506 149 C465 118 414 98 360 98 C230 98 170 201 194 318 C217 440 319 544 451 544 C503 544 546 528 576 497 L660 593 C611 633 546 656 466 656 C262 656 99 509 64 325 C28 137 136 -14 342 -14 L342 -14 Z " />
<glyph glyph-name="cdotaccent" unicode="&#x10b;" horiz-adv-x="459" d="M336 542 C372 542 407 571 414 606 C421 642 397 671 361 671 C324 671 289 642 282 606 C275 571 299 542 336 542 L336 542 Z M236 -14 C302 -14 356 4 406 36 L355 126 C326 103 290 88 254 88 C177 88 140 145 156 225 C173 309 234 369 314 369 C348 369 378 357 397 334 L478 419 C440 451 393 471 324 471 C183 471 62 368 36 232 C10 92 92 -14 236 -14 L236 -14 Z " />
<glyph glyph-name="Ccaron" unicode="&#x10c;" horiz-adv-x="627" d="M511 695 L645 813 L580 813 C554 813 544 806 518 786 L473 749 L443 786 C426 807 418 813 392 813 L327 813 L415 695 L511 695 Z M466 656 C262 656 99 509 64 325 C28 137 136 -14 342 -14 C420 -14 493 8 557 47 L506 149 C465 118 414 98 360 98 C230 98 170 201 194 318 C217 440 319 544 451 544 C503 544 546 528 576 497 L660 593 C611 633 546 656 466 656 L466 656 Z " />
<glyph glyph-name="ccaron" unicode="&#x10d;" horiz-adv-x="459" d="M285 540 L381 540 L515 658 L450 658 C424 658 414 651 388 631 L344 594 L313 631 C296 652 288 658 262 658 L197 658 L285 540 Z M236 -14 C302 -14 356 4 406 36 L355 126 C326 103 290 88 254 88 C177 88 140 145 156 225 C173 309 234 369 314 369 C348 369 378 357 397 334 L478 419 C440 451 393 471 324 471 C183 471 62 368 36 232 C10 92 92 -14 236 -14 L236 -14 Z " />
<glyph glyph-name="Dcaron" unicode="&#x10e;" horiz-adv-x="680" d="M448 695 L582 813 L517 813 C491 813 481 806 455 786 L410 749 L380 786 C363 807 355 813 329 813 L264 813 L352 695 L448 695 Z M368 640 L161 640 L38 0 L248 0 C467 0 617 137 652 317 C687 500 587 640 368 640 L368 640 Z M524 324 C497 187 398 104 249 104 L184 104 L267 536 L335 536 C484 536 549 457 524 324 L524 324 Z " />
<glyph glyph-name="dcaron" unicode="&#x10f;" horiz-adv-x="638" d="M764 708 C736 710 711 692 704 665 C696 635 718 616 744 620 C737 597 714 575 681 561 L688 527 C750 548 790 596 801 640 C811 675 798 706 764 708 L764 708 Z M430 414 C404 449 362 471 301 471 C180 471 67 379 35 226 C5 78 80 -10 198 -10 C266 -10 323 17 366 59 L369 0 L466 0 L602 680 L484 680 L430 414 Z M256 90 C181 90 141 150 158 233 C174 313 234 371 306 371 C383 371 424 310 406 226 C391 147 330 90 256 90 L256 90 Z " />
<glyph glyph-name="Dcroat" unicode="&#x110;" horiz-adv-x="680" d="M368 640 L161 640 L105 351 L52 351 L40 293 L94 293 L38 0 L248 0 C467 0 617 137 652 317 C687 500 587 640 368 640 L368 640 Z M524 324 C497 187 398 104 249 104 L184 104 L220 293 L341 293 L353 351 L231 351 L267 536 L335 536 C484 536 549 457 524 324 L524 324 Z " />
<glyph glyph-name="dcroat" unicode="&#x111;" horiz-adv-x="568" d="M645 584 L583 584 L602 680 L484 680 L465 584 L343 584 L331 525 L453 525 L430 414 C404 449 362 471 301 471 C180 471 67 379 35 226 C5 78 80 -10 198 -10 C266 -10 323 17 366 59 L369 0 L466 0 L571 525 L633 525 L645 584 Z M256 90 C181 90 141 150 158 233 C174 313 234 371 306 371 C383 371 424 310 406 226 C391 147 330 90 256 90 L256 90 Z " />
<glyph glyph-name="Emacron" unicode="&#x112;" horiz-adv-x="537" d="M538 783 L244 783 L232 720 L527 720 L538 783 Z M545 536 L565 640 L161 640 L37 0 L441 0 L461 104 L183 104 L216 273 L449 273 L467 368 L234 368 L267 536 L545 536 Z " />
<glyph glyph-name="emacron" unicode="&#x113;" horiz-adv-x="526" d="M513 628 L219 628 L207 565 L502 565 L513 628 Z M325 471 C183 471 63 371 37 236 C9 94 93 -14 253 -14 C331 -14 398 10 450 56 L377 126 C345 94 305 74 253 74 C178 74 146 126 154 201 L264 201 C419 201 502 248 505 333 C509 416 427 471 325 471 L325 471 Z M397 329 C394 287 327 271 261 271 L172 271 C200 340 255 382 318 382 C364 382 398 360 397 329 L397 329 Z " />
<glyph glyph-name="Ebreve" unicode="&#x114;" horiz-adv-x="537" d="M377 690 C472 690 532 735 549 809 L482 809 C472 781 439 751 381 751 C328 751 309 775 311 809 L246 809 C234 741 279 690 377 690 L377 690 Z M545 536 L565 640 L161 640 L37 0 L441 0 L461 104 L183 104 L216 273 L449 273 L467 368 L234 368 L267 536 L545 536 Z " />
<glyph glyph-name="ebreve" unicode="&#x115;" horiz-adv-x="526" d="M352 534 C447 534 507 579 524 653 L457 653 C447 625 414 595 356 595 C303 595 284 619 286 653 L221 653 C209 585 254 534 352 534 L352 534 Z M325 471 C183 471 63 371 37 236 C9 94 93 -14 253 -14 C331 -14 398 10 450 56 L377 126 C345 94 305 74 253 74 C178 74 146 126 154 201 L264 201 C419 201 502 248 505 333 C509 416 427 471 325 471 L325 471 Z M397 329 C394 287 327 271 261 271 L172 271 C200 340 255 382 318 382 C364 382 398 360 397 329 L397 329 Z " />
<glyph glyph-name="Edotaccent" unicode="&#x116;" horiz-adv-x="537" d="M376 698 C412 698 447 727 454 762 C461 798 437 827 401 827 C364 827 329 798 322 762 C315 727 339 698 376 698 L376 698 Z M545 536 L565 640 L161 640 L37 0 L441 0 L461 104 L183 104 L216 273 L449 273 L467 368 L234 368 L267 536 L545 536 Z " />
<glyph glyph-name="edotaccent" unicode="&#x117;" horiz-adv-x="526" d="M351 542 C387 542 422 571 429 606 C436 642 412 671 376 671 C339 671 304 642 297 606 C290 571 314 542 351 542 L351 542 Z M325 471 C183 471 63 371 37 236 C9 94 93 -14 253 -14 C331 -14 398 10 450 56 L377 126 C345 94 305 74 253 74 C178 74 146 126 154 201 L264 201 C419 201 502 248 505 333 C509 416 427 471 325 471 L325 471 Z M397 329 C394 287 327 271 261 271 L172 271 C200 340 255 382 318 382 C364 382 398 360 397 329 L397 329 Z " />
<glyph glyph-name="Eogonek" unicode="&#x118;" horiz-adv-x="537" d="M545 536 L565 640 L161 640 L37 0 L349 0 C278 -39 238 -91 251 -144 C264 -199 346 -212 417 -174 L407 -120 C301 -160 298 -66 416 -11 L437 0 L441 0 L461 104 L183 104 L216 273 L449 273 L467 368 L234 368 L267 536 L545 536 Z " />
<glyph glyph-name="eogonek" unicode="&#x119;" horiz-adv-x="526" d="M325 471 C183 471 63 371 37 236 C11 104 82 1 222 -13 C165 -50 133 -97 145 -144 C158 -199 240 -212 311 -174 L301 -120 C195 -160 192 -66 310 -11 L314 -9 C367 1 412 23 450 56 L377 126 C345 94 305 74 253 74 C178 74 146 126 154 201 L264 201 C419 201 502 248 505 333 C509 416 427 471 325 471 L325 471 Z M397 329 C394 287 327 271 261 271 L172 271 C200 340 255 382 318 382 C364 382 398 360 397 329 L397 329 Z " />
<glyph glyph-name="Ecaron" unicode="&#x11a;" horiz-adv-x="537" d="M421 695 L555 813 L490 813 C464 813 454 806 428 786 L383 749 L353 786 C336 807 328 813 302 813 L237 813 L325 695 L421 695 Z M545 536 L565 640 L161 640 L37 0 L441 0 L461 104 L183 104 L216 273 L449 273 L467 368 L234 368 L267 536 L545 536 Z " />
<glyph glyph-name="ecaron" unicode="&#x11b;" horiz-adv-x="526" d="M396 540 L530 658 L465 658 C439 658 429 651 403 631 L359 594 L328 631 C311 652 303 658 277 658 L212 658 L300 540 L396 540 Z M325 471 C183 471 63 371 37 236 C9 94 93 -14 253 -14 C331 -14 398 10 450 56 L377 126 C345 94 305 74 253 74 C178 74 146 126 154 201 L264 201 C419 201 502 248 505 333 C509 416 427 471 325 471 L325 471 Z M397 329 C394 287 327 271 261 271 L172 271 C200 340 255 382 318 382 C364 382 398 360 397 329 L397 329 Z " />
<glyph glyph-name="Gcircumflex" unicode="&#x11c;" horiz-adv-x="737" d="M432 718 L477 755 L507 718 C525 697 532 691 558 691 L623 691 L535 809 L439 809 L305 691 L370 691 C397 691 406 698 432 718 L432 718 Z M433 357 L415 262 L576 262 C545 159 459 98 356 98 C228 98 170 200 193 320 C217 445 320 544 452 544 C518 544 561 520 581 501 L664 594 C640 617 573 656 470 656 C261 656 99 510 64 326 C27 137 135 -14 343 -14 C541 -14 679 129 711 297 L723 357 L433 357 Z " />
<glyph glyph-name="gcircumflex" unicode="&#x11d;" horiz-adv-x="568" d="M306 562 L351 599 L381 562 C399 541 406 535 432 535 L497 535 L409 653 L313 653 L179 535 L244 535 C271 535 280 542 306 562 L306 562 Z M453 459 L434 413 C407 448 365 471 304 471 C183 471 69 380 36 229 C5 81 79 -6 196 -6 C258 -6 311 17 354 52 C332 -53 289 -112 196 -112 C172 -112 145 -107 124 -97 L82 -193 C113 -204 152 -210 190 -210 C342 -210 438 -126 471 46 L550 459 L453 459 Z M159 235 C176 315 236 372 308 372 C385 372 425 312 407 229 C391 150 329 93 256 93 C181 93 141 153 159 235 L159 235 Z " />
<glyph glyph-name="Gbreve" unicode="&#x11e;" horiz-adv-x="737" d="M469 690 C564 690 624 735 641 809 L574 809 C564 781 531 751 473 751 C420 751 401 775 403 809 L338 809 C326 741 371 690 469 690 L469 690 Z M433 357 L415 262 L576 262 C545 159 459 98 356 98 C228 98 170 200 193 320 C217 445 320 544 452 544 C518 544 561 520 581 501 L664 594 C640 617 573 656 470 656 C261 656 99 510 64 326 C27 137 135 -14 343 -14 C541 -14 679 129 711 297 L723 357 L433 357 Z " />
<glyph glyph-name="gbreve" unicode="&#x11f;" horiz-adv-x="568" d="M343 534 C438 534 498 579 515 653 L448 653 C438 625 405 595 347 595 C294 595 275 619 277 653 L212 653 C200 585 245 534 343 534 L343 534 Z M453 459 L434 413 C407 448 365 471 304 471 C183 471 69 380 36 229 C5 81 79 -6 196 -6 C258 -6 311 17 354 52 C332 -53 289 -112 196 -112 C172 -112 145 -107 124 -97 L82 -193 C113 -204 152 -210 190 -210 C342 -210 438 -126 471 46 L550 459 L453 459 Z M159 235 C176 315 236 372 308 372 C385 372 425 312 407 229 C391 150 329 93 256 93 C181 93 141 153 159 235 L159 235 Z " />
<glyph glyph-name="Gdotaccent" unicode="&#x120;" horiz-adv-x="737" d="M468 698 C504 698 539 727 546 762 C553 798 529 827 493 827 C456 827 421 798 414 762 C407 727 431 698 468 698 L468 698 Z M433 357 L415 262 L576 262 C545 159 459 98 356 98 C228 98 170 200 193 320 C217 445 320 544 452 544 C518 544 561 520 581 501 L664 594 C640 617 573 656 470 656 C261 656 99 510 64 326 C27 137 135 -14 343 -14 C541 -14 679 129 711 297 L723 357 L433 357 Z " />
<glyph glyph-name="gdotaccent" unicode="&#x121;" horiz-adv-x="568" d="M342 542 C378 542 413 571 420 606 C427 642 403 671 367 671 C330 671 295 642 288 606 C281 571 305 542 342 542 L342 542 Z M453 459 L434 413 C407 448 365 471 304 471 C183 471 69 380 36 229 C5 81 79 -6 196 -6 C258 -6 311 17 354 52 C332 -53 289 -112 196 -112 C172 -112 145 -107 124 -97 L82 -193 C113 -204 152 -210 190 -210 C342 -210 438 -126 471 46 L550 459 L453 459 Z M159 235 C176 315 236 372 308 372 C385 372 425 312 407 229 C391 150 329 93 256 93 C181 93 141 153 159 235 L159 235 Z " />
<glyph glyph-name="uni0122" unicode="&#x122;" horiz-adv-x="737" d="M433 357 L415 262 L576 262 C545 159 459 98 356 98 C228 98 170 200 193 320 C217 445 320 544 452 544 C518 544 561 520 581 501 L664 594 C640 617 573 656 470 656 C261 656 99 510 64 326 C27 137 135 -14 343 -14 C541 -14 679 129 711 297 L723 357 L433 357 Z M321 -45 C292 -43 268 -61 261 -88 C253 -118 274 -137 300 -133 C293 -156 271 -178 238 -192 L245 -226 C307 -205 346 -157 358 -113 C367 -78 355 -47 321 -45 L321 -45 Z " />
<glyph glyph-name="uni0123" unicode="&#x123;" horiz-adv-x="568" d="M349 538 C382 536 411 557 419 589 C428 623 403 646 373 641 C381 668 408 693 446 709 L438 749 C366 725 319 669 306 618 C295 577 309 541 349 538 L349 538 Z M453 459 L434 413 C407 448 365 471 304 471 C183 471 69 380 36 229 C5 81 79 -6 196 -6 C258 -6 311 17 354 52 C332 -53 289 -112 196 -112 C172 -112 145 -107 124 -97 L82 -193 C113 -204 152 -210 190 -210 C342 -210 438 -126 471 46 L550 459 L453 459 Z M159 235 C176 315 236 372 308 372 C385 372 425 312 407 229 C391 150 329 93 256 93 C181 93 141 153 159 235 L159 235 Z " />
<glyph glyph-name="Hcircumflex" unicode="&#x124;" horiz-adv-x="691" d="M402 718 L447 755 L477 718 C495 697 502 691 528 691 L593 691 L505 809 L409 809 L275 691 L340 691 C367 691 376 698 402 718 L402 718 Z M562 640 L512 379 L237 379 L287 640 L161 640 L38 0 L164 0 L217 277 L492 277 L439 0 L565 0 L688 640 L562 640 Z " />
<glyph glyph-name="hcircumflex" unicode="&#x125;" horiz-adv-x="541" d="M183 738 L228 775 L258 738 C276 717 283 711 309 711 L374 711 L286 829 L190 829 L56 711 L121 711 C147 711 157 718 183 738 L183 738 Z M363 471 C302 471 251 446 213 408 L266 680 L148 680 L16 0 L134 0 L185 264 C207 342 262 370 310 370 C372 370 390 327 376 257 L327 0 L445 0 L500 285 C527 425 444 471 363 471 L363 471 Z " />
<glyph glyph-name="Hbar" unicode="&#x126;" horiz-adv-x="691" d="M562 640 L541 530 L266 530 L287 640 L161 640 L38 0 L164 0 L217 277 L492 277 L439 0 L565 0 L688 640 L562 640 Z M237 379 L253 463 L528 463 L512 379 L237 379 Z " />
<glyph glyph-name="hbar" unicode="&#x127;" horiz-adv-x="546" d="M363 471 C302 471 251 446 213 408 L236 525 L353 525 L365 583 L247 583 L266 680 L148 680 L129 583 L64 583 L52 525 L118 525 L16 0 L134 0 L185 264 C207 342 262 370 310 370 C372 370 390 327 376 257 L327 0 L445 0 L500 285 C527 425 444 471 363 471 L363 471 Z " />
<glyph glyph-name="Itilde" unicode="&#x128;" horiz-adv-x="308" d="M311 692 C369 692 399 735 417 763 L368 797 C354 777 344 756 310 756 C269 756 255 801 197 801 C142 801 112 760 90 735 L139 696 C150 712 164 737 199 737 C243 737 255 692 311 692 L311 692 Z M297 640 L171 640 L46 0 L172 0 L297 640 Z " />
<glyph glyph-name="itilde" unicode="&#x129;" horiz-adv-x="269" d="M262 541 C320 541 350 584 368 612 L319 646 C305 626 295 605 261 605 C220 605 206 650 148 650 C93 650 63 609 41 584 L90 545 C101 561 115 586 150 586 C194 586 206 541 262 541 L262 541 Z M31 0 L148 0 L238 459 L120 459 L31 0 Z " />
<glyph glyph-name="Imacron" unicode="&#x12a;" horiz-adv-x="308" d="M102 720 L397 720 L408 783 L114 783 L102 720 Z M297 640 L171 640 L46 0 L172 0 L297 640 Z " />
<glyph glyph-name="imacron" unicode="&#x12b;" horiz-adv-x="269" d="M53 569 L348 569 L359 632 L65 632 L53 569 Z M31 0 L148 0 L238 459 L120 459 L31 0 Z " />
<glyph glyph-name="Ibreve" unicode="&#x12c;" horiz-adv-x="308" d="M247 690 C342 690 402 735 419 809 L352 809 C342 781 309 751 251 751 C198 751 179 775 181 809 L116 809 C104 741 149 690 247 690 L247 690 Z M297 640 L171 640 L46 0 L172 0 L297 640 Z " />
<glyph glyph-name="ibreve" unicode="&#x12d;" horiz-adv-x="269" d="M198 539 C293 539 353 584 370 658 L303 658 C293 630 260 600 202 600 C149 600 130 624 132 658 L67 658 C55 590 100 539 198 539 L198 539 Z M31 0 L148 0 L238 459 L120 459 L31 0 Z " />
<glyph glyph-name="Iogonek" unicode="&#x12e;" horiz-adv-x="308" d="M153 -11 L174 0 L172 1 L297 640 L171 640 L46 0 L86 0 C15 -39 -25 -91 -12 -144 C1 -199 83 -212 154 -174 L144 -120 C38 -160 35 -66 153 -11 L153 -11 Z " />
<glyph glyph-name="iogonek" unicode="&#x12f;" horiz-adv-x="269" d="M221 676 C184 676 149 647 142 611 C135 576 159 547 196 547 C232 547 267 576 274 611 C281 647 257 676 221 676 L221 676 Z M31 0 L54 0 C-17 -39 -57 -91 -44 -144 C-31 -199 51 -212 122 -174 L112 -120 C6 -160 3 -66 121 -11 L142 0 L148 0 L238 459 L120 459 L31 0 Z " />
<glyph glyph-name="Idotaccent" unicode="&#x130;" horiz-adv-x="308" d="M245 698 C281 698 316 727 323 762 C330 798 306 827 270 827 C233 827 198 798 191 762 C184 727 208 698 245 698 L245 698 Z M297 640 L171 640 L46 0 L172 0 L297 640 Z " />
<glyph glyph-name="dotlessi" unicode="&#x131;" horiz-adv-x="269" d="M31 0 L148 0 L238 459 L120 459 L31 0 Z " />
<glyph glyph-name="ij" unicode="&#x133;" horiz-adv-x="563" d="M194 535 C233 535 271 566 278 604 C286 642 260 673 221 673 C182 673 144 642 136 604 C129 566 155 535 194 535 L194 535 Z M486 535 C525 535 563 566 570 604 C578 642 552 673 513 673 C474 673 436 642 429 604 C421 566 447 535 486 535 L486 535 Z M31 0 L148 0 L238 459 L120 459 L31 0 Z M437 -28 L531 459 L412 459 L320 -18 C306 -92 267 -129 187 -117 L174 -207 C288 -229 405 -197 437 -28 L437 -28 Z " />
<glyph glyph-name="Jcircumflex" unicode="&#x134;" horiz-adv-x="472" d="M500 799 L404 799 L270 681 L335 681 C362 681 371 688 397 708 L442 745 L472 708 C490 687 497 681 523 681 L588 681 L500 799 Z M159 -14 C270 -14 372 50 404 213 L486 640 L360 640 L278 214 C264 138 220 98 162 98 C127 98 101 110 78 144 L0 46 C36 12 82 -14 159 -14 L159 -14 Z " />
<glyph glyph-name="jcircumflex" unicode="&#x135;" horiz-adv-x="294" d="M287 648 L191 648 L57 530 L122 530 C149 530 158 537 184 557 L229 594 L259 557 C277 536 284 530 310 530 L375 530 L287 648 Z M168 -28 L262 459 L143 459 L51 -18 C37 -92 -2 -129 -82 -117 L-95 -207 C19 -229 136 -197 168 -28 L168 -28 Z " />
<glyph glyph-name="uni0136" unicode="&#x136;" horiz-adv-x="661" d="M683 640 L518 640 L238 384 L287 640 L161 640 L38 0 L164 0 L220 292 L416 0 L581 0 L337 339 L683 640 Z M276 -45 C247 -43 223 -61 216 -88 C208 -118 229 -137 255 -133 C248 -156 226 -178 193 -192 L200 -226 C262 -205 301 -157 313 -113 C322 -78 310 -47 276 -45 L276 -45 Z " />
<glyph glyph-name="uni0137" unicode="&#x137;" horiz-adv-x="518" d="M536 459 L383 459 L191 289 L266 680 L148 680 L17 0 L135 0 L175 209 L323 0 L474 0 L288 250 L536 459 Z M216 -45 C187 -43 163 -61 156 -88 C148 -118 169 -137 195 -133 C188 -156 166 -178 133 -192 L140 -226 C202 -205 241 -157 253 -113 C262 -78 250 -47 216 -45 L216 -45 Z " />
<glyph glyph-name="kgreenlandic" unicode="&#x138;" horiz-adv-x="527" d="M531 459 L382 459 L194 302 L224 459 L105 459 L17 0 L136 0 L173 195 L319 0 L471 0 L275 250 L531 459 Z " />
<glyph glyph-name="Lacute" unicode="&#x139;" horiz-adv-x="507" d="M313 741 L415 834 L315 850 L152 690 L197 690 C231 690 255 690 313 741 L313 741 Z M185 107 L287 640 L161 640 L38 0 L427 0 L448 107 L185 107 Z " />
<glyph glyph-name="lacute" unicode="&#x13a;" horiz-adv-x="247" d="M294 782 L396 875 L297 891 L134 731 L178 731 C212 731 236 731 294 782 L294 782 Z M20 0 L138 0 L270 680 L152 680 L20 0 Z " />
<glyph glyph-name="uni013B" unicode="&#x13b;" horiz-adv-x="507" d="M185 107 L287 640 L161 640 L38 0 L427 0 L448 107 L185 107 Z M207 -45 C178 -43 154 -61 147 -88 C139 -118 160 -137 186 -133 C179 -156 157 -178 124 -192 L131 -226 C193 -205 232 -157 244 -113 C253 -78 241 -47 207 -45 L207 -45 Z " />
<glyph glyph-name="uni013C" unicode="&#x13c;" horiz-adv-x="247" d="M20 0 L138 0 L270 680 L152 680 L20 0 Z M-9 -226 C53 -205 92 -157 104 -113 C113 -78 101 -47 67 -45 C38 -43 14 -61 7 -88 C-1 -118 20 -137 46 -133 C39 -156 17 -178 -16 -192 L-9 -226 Z " />
<glyph glyph-name="Lcaron" unicode="&#x13d;" horiz-adv-x="490" d="M446 667 C417 669 393 650 386 623 C378 593 399 574 425 579 C418 555 396 534 363 520 L370 486 C432 506 471 554 483 598 C492 633 480 664 446 667 L446 667 Z M287 640 L161 640 L38 0 L427 0 L448 107 L185 107 L287 640 Z " />
<glyph glyph-name="lcaron" unicode="&#x13e;" horiz-adv-x="247" d="M319 535 C381 556 421 604 432 648 C441 683 429 714 395 716 C366 718 342 700 335 673 C327 643 349 624 375 628 C368 605 345 583 312 569 L319 535 Z M20 0 L138 0 L270 680 L152 680 L20 0 Z " />
<glyph glyph-name="Ldot" unicode="&#x13f;" horiz-adv-x="476" d="M287 640 L161 640 L38 0 L427 0 L448 107 L185 107 L287 640 Z M426 444 C390 444 354 415 347 379 C341 344 365 315 401 315 C437 315 472 344 479 379 C486 415 462 444 426 444 L426 444 Z " />
<glyph glyph-name="ldot" unicode="&#x140;" horiz-adv-x="440" d="M16 0 L134 0 L266 680 L148 680 L16 0 Z M352 285 C388 285 423 314 430 349 C437 385 413 414 377 414 C340 414 305 385 298 349 C291 314 315 285 352 285 L352 285 Z " />
<glyph glyph-name="Lslash" unicode="&#x141;" horiz-adv-x="507" d="M185 107 L226 323 L302 374 L320 466 L244 415 L287 640 L161 640 L99 318 L28 270 L10 178 L81 226 L38 0 L427 0 L448 107 L185 107 Z " />
<glyph glyph-name="lslash" unicode="&#x142;" horiz-adv-x="247" d="M301 480 L221 426 L270 680 L152 680 L85 335 L9 284 L-9 192 L67 243 L20 0 L138 0 L203 334 L283 388 L301 480 Z " />
<glyph glyph-name="Nacute" unicode="&#x143;" horiz-adv-x="718" d="M521 741 L623 834 L523 850 L360 690 L405 690 C439 690 463 690 521 741 L521 741 Z M593 640 L508 198 L277 640 L161 640 L38 0 L160 0 L245 442 L475 0 L592 0 L715 640 L593 640 Z " />
<glyph glyph-name="nacute" unicode="&#x144;" horiz-adv-x="546" d="M407 585 L509 678 L409 694 L246 534 L291 534 C325 534 349 534 407 585 L407 585 Z M364 471 C302 471 251 446 213 407 L209 459 L105 459 L17 0 L135 0 L185 260 C206 341 262 370 311 370 C372 370 391 327 377 257 L328 0 L446 0 L501 285 C528 425 444 471 364 471 L364 471 Z " />
<glyph glyph-name="uni0145" unicode="&#x145;" horiz-adv-x="718" d="M593 640 L508 198 L277 640 L161 640 L38 0 L160 0 L245 442 L475 0 L592 0 L715 640 L593 640 Z M303 -45 C274 -43 250 -61 243 -88 C235 -118 256 -137 282 -133 C275 -156 253 -178 220 -192 L227 -226 C289 -205 328 -157 340 -113 C349 -78 337 -47 303 -45 L303 -45 Z " />
<glyph glyph-name="uni0146" unicode="&#x146;" horiz-adv-x="546" d="M364 471 C302 471 251 446 213 407 L209 459 L105 459 L17 0 L135 0 L185 260 C206 341 262 370 311 370 C372 370 391 327 377 257 L328 0 L446 0 L501 285 C528 425 444 471 364 471 L364 471 Z M218 -45 C189 -43 165 -61 158 -88 C150 -118 171 -137 197 -133 C190 -156 168 -178 135 -192 L142 -226 C204 -205 243 -157 255 -113 C264 -78 252 -47 218 -45 L218 -45 Z " />
<glyph glyph-name="Ncaron" unicode="&#x147;" horiz-adv-x="718" d="M496 695 L630 813 L565 813 C539 813 529 806 503 786 L459 749 L428 786 C411 807 403 813 377 813 L312 813 L400 695 L496 695 Z M593 640 L508 198 L277 640 L161 640 L38 0 L160 0 L245 442 L475 0 L592 0 L715 640 L593 640 Z " />
<glyph glyph-name="ncaron" unicode="&#x148;" horiz-adv-x="546" d="M382 540 L516 658 L451 658 C425 658 415 651 389 631 L345 594 L314 631 C297 652 289 658 263 658 L198 658 L286 540 L382 540 Z M364 471 C302 471 251 446 213 407 L209 459 L105 459 L17 0 L135 0 L185 260 C206 341 262 370 311 370 C372 370 391 327 377 257 L328 0 L446 0 L501 285 C528 425 444 471 364 471 L364 471 Z " />
<glyph glyph-name="napostrophe" unicode="&#x149;" horiz-adv-x="699" d="M260 554 C274 607 256 653 205 657 C161 660 124 632 113 592 C101 547 134 518 173 525 C163 489 128 457 79 436 L89 385 C182 415 243 487 260 554 L260 554 Z M517 471 C455 471 404 446 366 407 L362 459 L258 459 L170 0 L288 0 L338 260 C359 341 415 370 464 370 C525 370 543 327 530 257 L481 0 L599 0 L654 285 C681 425 597 471 517 471 L517 471 Z " />
<glyph glyph-name="Eng" unicode="&#x14a;" horiz-adv-x="718" d="M593 640 L508 198 L277 640 L161 640 L38 0 L160 0 L245 442 L346 248 L473 0 L468 -30 C454 -98 391 -104 348 -90 L315 -195 C413 -223 554 -197 587 -25 L592 0 L715 640 L593 640 Z " />
<glyph glyph-name="eng" unicode="&#x14b;" horiz-adv-x="546" d="M364 471 C302 471 251 446 213 407 L209 459 L105 459 L17 0 L135 0 L185 260 C206 341 262 370 311 370 C372 370 391 327 377 257 L328 0 L327 0 L321 -29 C311 -78 286 -101 246 -96 L232 -193 C333 -210 416 -160 439 -34 L446 0 L501 285 C528 425 444 471 364 471 L364 471 Z " />
<glyph glyph-name="Omacron" unicode="&#x14c;" horiz-adv-x="781" d="M345 720 L640 720 L651 783 L357 783 L345 720 Z M349 -14 C554 -14 718 133 753 316 C789 505 678 656 468 656 C263 656 100 511 64 328 C28 139 139 -14 349 -14 L349 -14 Z M361 98 C231 98 171 200 194 316 C217 439 322 544 457 544 C587 544 647 445 624 328 C601 206 495 98 361 98 L361 98 Z " />
<glyph glyph-name="omacron" unicode="&#x14d;" horiz-adv-x="572" d="M205 565 L500 565 L511 628 L217 628 L205 565 Z M242 -14 C388 -14 510 89 536 225 C562 365 479 471 330 471 C183 471 62 368 36 232 C9 92 92 -14 242 -14 L242 -14 Z M255 87 C182 87 141 145 157 225 C173 309 240 370 316 370 C389 370 430 311 415 232 C399 148 331 87 255 87 L255 87 Z " />
<glyph glyph-name="Obreve" unicode="&#x14e;" horiz-adv-x="781" d="M491 690 C586 690 646 735 663 809 L596 809 C586 781 553 751 495 751 C442 751 423 775 425 809 L360 809 C348 741 393 690 491 690 L491 690 Z M349 -14 C554 -14 718 133 753 316 C789 505 678 656 468 656 C263 656 100 511 64 328 C28 139 139 -14 349 -14 L349 -14 Z M361 98 C231 98 171 200 194 316 C217 439 322 544 457 544 C587 544 647 445 624 328 C601 206 495 98 361 98 L361 98 Z " />
<glyph glyph-name="obreve" unicode="&#x14f;" horiz-adv-x="572" d="M350 534 C445 534 505 579 522 653 L455 653 C445 625 412 595 354 595 C301 595 282 619 284 653 L219 653 C207 585 252 534 350 534 L350 534 Z M242 -14 C388 -14 510 89 536 225 C562 365 479 471 330 471 C183 471 62 368 36 232 C9 92 92 -14 242 -14 L242 -14 Z M255 87 C182 87 141 145 157 225 C173 309 240 370 316 370 C389 370 430 311 415 232 C399 148 331 87 255 87 L255 87 Z " />
<glyph glyph-name="Ohungarumlaut" unicode="&#x150;" horiz-adv-x="781" d="M493 741 L596 834 L496 850 L333 690 L377 690 C411 690 435 690 493 741 L493 741 Z M660 741 L762 834 L662 850 L499 690 L544 690 C578 690 602 690 660 741 L660 741 Z M349 -14 C554 -14 718 133 753 316 C789 505 678 656 468 656 C263 656 100 511 64 328 C28 139 139 -14 349 -14 L349 -14 Z M361 98 C231 98 171 200 194 316 C217 439 322 544 457 544 C587 544 647 445 624 328 C601 206 495 98 361 98 L361 98 Z " />
<glyph glyph-name="ohungarumlaut" unicode="&#x151;" horiz-adv-x="572" d="M352 585 L455 678 L355 694 L192 534 L236 534 C270 534 294 534 352 585 L352 585 Z M519 585 L621 678 L521 694 L358 534 L403 534 C437 534 461 534 519 585 L519 585 Z M242 -14 C388 -14 510 89 536 225 C562 365 479 471 330 471 C183 471 62 368 36 232 C9 92 92 -14 242 -14 L242 -14 Z M255 87 C182 87 141 145 157 225 C173 309 240 370 316 370 C389 370 430 311 415 232 C399 148 331 87 255 87 L255 87 Z " />
<glyph glyph-name="OE" unicode="&#x152;" horiz-adv-x="1069" d="M1077 536 L1097 640 L693 640 L681 580 C631 628 559 656 468 656 C263 656 100 511 64 328 C28 139 139 -14 349 -14 C435 -14 515 12 580 56 L569 0 L973 0 L993 104 L715 104 L748 273 L981 273 L999 368 L766 368 L799 536 L1077 536 Z M361 98 C231 98 171 200 194 316 C217 439 322 544 457 544 C587 544 647 445 624 328 C601 206 495 98 361 98 L361 98 Z " />
<glyph glyph-name="oe" unicode="&#x153;" horiz-adv-x="907" d="M705 471 C628 471 558 441 505 392 C469 441 409 471 330 471 C183 471 62 368 36 232 C9 92 92 -14 242 -14 C322 -14 394 17 448 67 C485 17 548 -14 634 -14 C712 -14 779 10 831 56 L758 126 C726 94 686 74 634 74 C559 74 526 126 535 201 L645 201 C800 201 883 248 886 333 C890 416 807 471 705 471 L705 471 Z M778 329 C775 287 708 271 642 271 L553 271 C581 340 636 382 698 382 C745 382 779 360 778 329 L778 329 Z M255 87 C182 87 141 145 157 225 C173 309 240 370 316 370 C389 370 430 311 415 232 C399 148 331 87 255 87 L255 87 Z " />
<glyph glyph-name="Racute" unicode="&#x154;" horiz-adv-x="601" d="M453 741 L555 834 L455 850 L292 690 L337 690 C371 690 395 690 453 741 L453 741 Z M567 444 C591 571 494 640 379 640 L161 640 L38 0 L164 0 L214 260 L255 260 L383 0 L535 0 L385 272 C473 295 549 349 567 444 L567 444 Z M437 452 C426 391 374 354 297 354 L232 354 L269 544 L333 544 C416 544 448 509 437 452 L437 452 Z " />
<glyph glyph-name="racute" unicode="&#x155;" horiz-adv-x="358" d="M334 585 L436 678 L336 694 L173 534 L218 534 C252 534 276 534 334 585 L334 585 Z M210 398 L209 459 L105 459 L17 0 L136 0 L181 240 L179 225 C195 306 248 357 320 357 C333 357 348 355 359 351 L396 464 C382 468 367 471 344 471 C291 471 244 437 210 398 L210 398 Z " />
<glyph glyph-name="uni0156" unicode="&#x156;" horiz-adv-x="601" d="M567 444 C591 571 494 640 379 640 L161 640 L38 0 L164 0 L214 260 L255 260 L383 0 L535 0 L385 272 C473 295 549 349 567 444 L567 444 Z M437 452 C426 391 374 354 297 354 L232 354 L269 544 L333 544 C416 544 448 509 437 452 L437 452 Z M242 -45 C213 -43 189 -61 182 -88 C174 -118 195 -137 221 -133 C214 -156 192 -178 159 -192 L166 -226 C228 -205 267 -157 279 -113 C288 -78 276 -47 242 -45 L242 -45 Z " />
<glyph glyph-name="uni0157" unicode="&#x157;" horiz-adv-x="358" d="M344 471 C291 471 244 437 210 398 L209 459 L105 459 L17 0 L136 0 L181 240 L179 225 C195 306 248 357 320 357 C333 357 348 355 359 351 L396 464 C382 468 367 471 344 471 L344 471 Z M65 -45 C36 -43 12 -61 5 -88 C-3 -118 18 -137 44 -133 C37 -156 15 -178 -18 -192 L-11 -226 C51 -205 90 -157 102 -113 C111 -78 99 -47 65 -45 L65 -45 Z " />
<glyph glyph-name="Rcaron" unicode="&#x158;" horiz-adv-x="601" d="M427 695 L561 813 L496 813 C470 813 460 806 434 786 L390 749 L359 786 C342 807 334 813 308 813 L243 813 L331 695 L427 695 Z M567 444 C591 571 494 640 379 640 L161 640 L38 0 L164 0 L214 260 L255 260 L383 0 L535 0 L385 272 C473 295 549 349 567 444 L567 444 Z M437 452 C426 391 374 354 297 354 L232 354 L269 544 L333 544 C416 544 448 509 437 452 L437 452 Z " />
<glyph glyph-name="rcaron" unicode="&#x159;" horiz-adv-x="358" d="M309 540 L443 658 L378 658 C352 658 342 651 316 631 L272 594 L241 631 C224 652 216 658 190 658 L125 658 L213 540 L309 540 Z M210 398 L209 459 L105 459 L17 0 L136 0 L181 240 L179 225 C195 306 248 357 320 357 C333 357 348 355 359 351 L396 464 C382 468 367 471 344 471 C291 471 244 437 210 398 L210 398 Z " />
<glyph glyph-name="Sacute" unicode="&#x15a;" horiz-adv-x="549" d="M443 741 L545 834 L445 850 L282 690 L327 690 C361 690 385 690 443 741 L443 741 Z M232 -14 C333 -14 459 38 486 176 C506 277 442 332 346 368 C270 399 232 425 240 470 C249 517 300 551 353 551 C397 551 430 535 464 498 L553 578 C511 622 453 656 361 656 C249 656 132 582 111 473 C89 358 174 313 265 279 C323 256 363 233 353 177 C342 121 280 92 229 92 C177 92 132 110 98 167 L3 85 C54 19 128 -14 232 -14 L232 -14 Z " />
<glyph glyph-name="sacute" unicode="&#x15b;" horiz-adv-x="448" d="M368 585 L470 678 L370 694 L207 534 L252 534 C286 534 310 534 368 585 L368 585 Z M-7 62 C24 19 89 -14 183 -14 C298 -14 375 42 391 123 C423 292 183 232 201 322 C207 355 236 378 284 378 C312 379 349 365 370 340 L441 411 C415 442 358 471 283 471 C171 471 96 413 79 329 C46 156 280 215 264 132 C258 100 226 77 174 77 C136 77 98 90 71 134 L-7 62 Z " />
<glyph glyph-name="Scircumflex" unicode="&#x15c;" horiz-adv-x="549" d="M440 809 L344 809 L210 691 L275 691 C302 691 311 698 337 718 L382 755 L412 718 C430 697 437 691 463 691 L528 691 L440 809 Z M232 -14 C333 -14 459 38 486 176 C506 277 442 332 346 368 C270 399 232 425 240 470 C249 517 300 551 353 551 C397 551 430 535 464 498 L553 578 C511 622 453 656 361 656 C249 656 132 582 111 473 C89 358 174 313 265 279 C323 256 363 233 353 177 C342 121 280 92 229 92 C177 92 132 110 98 167 L3 85 C54 19 128 -14 232 -14 L232 -14 Z " />
<glyph glyph-name="scircumflex" unicode="&#x15d;" horiz-adv-x="448" d="M364 653 L268 653 L134 535 L199 535 C226 535 235 542 261 562 L306 599 L336 562 C354 541 361 535 387 535 L452 535 L364 653 Z M-7 62 C24 19 89 -14 183 -14 C298 -14 375 42 391 123 C423 292 183 232 201 322 C207 355 236 378 284 378 C312 379 349 365 370 340 L441 411 C415 442 358 471 283 471 C171 471 96 413 79 329 C46 156 280 215 264 132 C258 100 226 77 174 77 C136 77 98 90 71 134 L-7 62 Z " />
<glyph glyph-name="Scedilla" unicode="&#x15e;" horiz-adv-x="549" d="M346 368 C270 399 232 425 240 470 C249 517 300 551 353 551 C397 551 430 535 464 498 L553 578 C511 622 453 656 361 656 C249 656 132 582 111 473 C89 358 174 313 265 279 C323 256 363 233 353 177 C342 121 280 92 229 92 C177 92 132 110 98 167 L3 85 C47 28 108 -4 191 -12 L131 -65 L153 -92 C193 -75 235 -82 224 -112 C217 -128 199 -145 163 -145 C134 -145 109 -135 99 -127 L55 -177 C68 -186 106 -200 158 -198 C224 -196 284 -164 303 -115 C322 -67 293 -44 264 -40 C241 -37 222 -41 214 -45 L253 -13 C350 -7 461 47 486 176 C506 277 442 332 346 368 L346 368 Z " />
<glyph glyph-name="scedilla" unicode="&#x15f;" horiz-adv-x="448" d="M201 322 C207 355 236 378 284 378 C312 379 349 365 370 340 L441 411 C415 442 358 471 283 471 C171 471 96 413 79 329 C46 156 280 215 264 132 C258 100 226 77 174 77 C136 77 98 90 71 134 L-7 62 C19 25 71 -4 143 -12 L83 -65 L105 -92 C145 -75 187 -82 176 -112 C169 -128 151 -145 115 -145 C86 -145 61 -135 51 -127 L7 -177 C20 -186 58 -200 110 -198 C176 -196 236 -164 255 -115 C274 -67 245 -44 216 -40 C193 -37 174 -41 166 -45 L205 -13 C308 -7 376 47 391 123 C423 292 183 232 201 322 L201 322 Z " />
<glyph glyph-name="Scaron" unicode="&#x160;" horiz-adv-x="549" d="M322 695 L418 695 L552 813 L487 813 C461 813 451 806 425 786 L381 749 L350 786 C333 807 325 813 299 813 L234 813 L322 695 Z M232 -14 C333 -14 459 38 486 176 C506 277 442 332 346 368 C270 399 232 425 240 470 C249 517 300 551 353 551 C397 551 430 535 464 498 L553 578 C511 622 453 656 361 656 C249 656 132 582 111 473 C89 358 174 313 265 279 C323 256 363 233 353 177 C342 121 280 92 229 92 C177 92 132 110 98 167 L3 85 C54 19 128 -14 232 -14 L232 -14 Z " />
<glyph glyph-name="scaron" unicode="&#x161;" horiz-adv-x="448" d="M246 540 L342 540 L476 658 L411 658 C385 658 375 651 349 631 L305 594 L274 631 C257 652 249 658 223 658 L158 658 L246 540 Z M-7 62 C24 19 89 -14 183 -14 C298 -14 375 42 391 123 C423 292 183 232 201 322 C207 355 236 378 284 378 C312 379 349 365 370 340 L441 411 C415 442 358 471 283 471 C171 471 96 413 79 329 C46 156 280 215 264 132 C258 100 226 77 174 77 C136 77 98 90 71 134 L-7 62 Z " />
<glyph glyph-name="uni0162" unicode="&#x162;" horiz-adv-x="557" d="M299 0 L402 534 L573 534 L594 640 L123 640 L103 534 L276 534 L173 0 L205 0 L131 -65 L153 -92 C193 -75 235 -82 224 -112 C217 -128 199 -145 163 -145 C134 -145 109 -135 99 -127 L55 -177 C68 -186 106 -200 158 -198 C224 -196 284 -164 303 -115 C322 -67 293 -44 264 -40 C241 -37 222 -41 214 -45 L269 0 L299 0 Z " />
<glyph glyph-name="uni0163" unicode="&#x163;" horiz-adv-x="366" d="M181 0 L252 367 L365 367 L383 459 L270 459 L295 591 L177 591 L152 459 L80 459 L63 367 L134 367 L63 0 L91 0 L17 -65 L39 -92 C79 -75 121 -82 110 -112 C103 -128 85 -145 49 -145 C20 -145 -5 -135 -15 -127 L-59 -177 C-46 -186 -8 -200 44 -198 C110 -196 170 -164 189 -115 C208 -67 179 -44 150 -40 C127 -37 108 -41 100 -45 L155 0 L181 0 Z " />
<glyph glyph-name="Tcaron" unicode="&#x164;" horiz-adv-x="557" d="M417 695 L551 813 L486 813 C460 813 450 806 424 786 L380 749 L349 786 C332 807 324 813 298 813 L233 813 L321 695 L417 695 Z M594 640 L123 640 L103 534 L276 534 L173 0 L299 0 L402 534 L573 534 L594 640 Z " />
<glyph glyph-name="tcaron" unicode="&#x165;" horiz-adv-x="366" d="M463 711 C434 713 410 695 403 668 C395 638 417 619 443 623 C436 600 413 578 380 564 L387 530 C449 551 489 599 500 643 C509 678 497 709 463 711 L463 711 Z M295 591 L177 591 L152 459 L80 459 L63 367 L134 367 L63 0 L181 0 L252 367 L365 367 L383 459 L270 459 L295 591 Z " />
<glyph glyph-name="Tbar" unicode="&#x166;" horiz-adv-x="557" d="M573 534 L594 640 L123 640 L103 534 L276 534 L240 351 L154 351 L142 293 L229 293 L173 0 L299 0 L355 293 L443 293 L455 351 L366 351 L402 534 L573 534 Z " />
<glyph glyph-name="tbar" unicode="&#x167;" horiz-adv-x="366" d="M365 367 L383 459 L270 459 L295 591 L177 591 L152 459 L80 459 L63 367 L134 367 L121 303 L80 303 L71 245 L110 245 L63 0 L181 0 L228 245 L311 245 L321 303 L239 303 L252 367 L365 367 Z " />
<glyph glyph-name="Utilde" unicode="&#x168;" horiz-adv-x="645" d="M480 692 C538 692 568 735 586 763 L537 797 C523 777 513 756 479 756 C438 756 424 801 366 801 C311 801 281 760 259 735 L308 696 C319 712 333 737 368 737 C412 737 424 692 480 692 L480 692 Z M279 -14 C428 -14 549 64 584 248 L660 640 L534 640 L461 261 C439 146 372 98 295 98 C220 98 175 142 198 258 L271 640 L145 640 L70 251 C35 67 127 -14 279 -14 L279 -14 Z " />
<glyph glyph-name="utilde" unicode="&#x169;" horiz-adv-x="540" d="M398 536 C456 536 486 579 504 607 L455 641 C441 621 431 600 397 600 C356 600 342 645 284 645 C229 645 199 604 177 579 L226 540 C237 556 251 581 286 581 C330 581 342 536 398 536 L398 536 Z M227 -12 C331 -12 447 32 479 203 L528 459 L410 459 L361 202 C348 133 305 88 240 88 C178 88 156 130 169 199 L219 459 L100 459 L52 206 C19 35 119 -12 227 -12 L227 -12 Z " />
<glyph glyph-name="Umacron" unicode="&#x16a;" horiz-adv-x="645" d="M271 720 L566 720 L577 783 L283 783 L271 720 Z M279 -14 C428 -14 549 64 584 248 L660 640 L534 640 L461 261 C439 146 372 98 295 98 C220 98 175 142 198 258 L271 640 L145 640 L70 251 C35 67 127 -14 279 -14 L279 -14 Z " />
<glyph glyph-name="umacron" unicode="&#x16b;" horiz-adv-x="540" d="M189 565 L484 565 L495 628 L201 628 L189 565 Z M227 -12 C331 -12 447 32 479 203 L528 459 L410 459 L361 202 C348 133 305 88 240 88 C178 88 156 130 169 199 L219 459 L100 459 L52 206 C19 35 119 -12 227 -12 L227 -12 Z " />
<glyph glyph-name="Ubreve" unicode="&#x16c;" horiz-adv-x="645" d="M416 690 C511 690 571 735 588 809 L521 809 C511 781 478 751 420 751 C367 751 348 775 350 809 L285 809 C273 741 318 690 416 690 L416 690 Z M279 -14 C428 -14 549 64 584 248 L660 640 L534 640 L461 261 C439 146 372 98 295 98 C220 98 175 142 198 258 L271 640 L145 640 L70 251 C35 67 127 -14 279 -14 L279 -14 Z " />
<glyph glyph-name="ubreve" unicode="&#x16d;" horiz-adv-x="540" d="M334 534 C429 534 489 579 506 653 L439 653 C429 625 396 595 338 595 C285 595 266 619 268 653 L203 653 C191 585 236 534 334 534 L334 534 Z M227 -12 C331 -12 447 32 479 203 L528 459 L410 459 L361 202 C348 133 305 88 240 88 C178 88 156 130 169 199 L219 459 L100 459 L52 206 C19 35 119 -12 227 -12 L227 -12 Z " />
<glyph glyph-name="Uring" unicode="&#x16e;" horiz-adv-x="645" d="M446 882 C388 882 336 837 325 785 C314 728 352 680 414 680 C472 680 525 724 535 777 C546 834 508 882 446 882 L446 882 Z M416 729 C386 729 371 750 377 777 C383 808 410 832 443 832 C473 832 488 811 482 785 C477 754 449 729 416 729 L416 729 Z M279 -14 C428 -14 549 64 584 248 L660 640 L534 640 L461 261 C439 146 372 98 295 98 C220 98 175 142 198 258 L271 640 L145 640 L70 251 C35 67 127 -14 279 -14 L279 -14 Z " />
<glyph glyph-name="uring" unicode="&#x16f;" horiz-adv-x="540" d="M364 727 C306 727 254 682 243 630 C232 573 270 525 332 525 C390 525 443 569 453 622 C464 679 426 727 364 727 L364 727 Z M334 574 C304 574 289 595 295 622 C301 653 328 677 361 677 C391 677 406 656 400 630 C395 599 367 574 334 574 L334 574 Z M227 -12 C331 -12 447 32 479 203 L528 459 L410 459 L361 202 C348 133 305 88 240 88 C178 88 156 130 169 199 L219 459 L100 459 L52 206 C19 35 119 -12 227 -12 L227 -12 Z " />
<glyph glyph-name="Uhungarumlaut" unicode="&#x170;" horiz-adv-x="645" d="M419 741 L522 834 L422 850 L259 690 L303 690 C337 690 361 690 419 741 L419 741 Z M586 741 L688 834 L588 850 L425 690 L470 690 C504 690 528 690 586 741 L586 741 Z M279 -14 C428 -14 549 64 584 248 L660 640 L534 640 L461 261 C439 146 372 98 295 98 C220 98 175 142 198 258 L271 640 L145 640 L70 251 C35 67 127 -14 279 -14 L279 -14 Z " />
<glyph glyph-name="uhungarumlaut" unicode="&#x171;" horiz-adv-x="540" d="M337 585 L440 678 L340 694 L177 534 L221 534 C255 534 279 534 337 585 L337 585 Z M504 585 L606 678 L506 694 L343 534 L388 534 C422 534 446 534 504 585 L504 585 Z M227 -12 C331 -12 447 32 479 203 L528 459 L410 459 L361 202 C348 133 305 88 240 88 C178 88 156 130 169 199 L219 459 L100 459 L52 206 C19 35 119 -12 227 -12 L227 -12 Z " />
<glyph glyph-name="Uogonek" unicode="&#x172;" horiz-adv-x="645" d="M534 640 L461 261 C439 146 372 98 295 98 C220 98 175 142 198 258 L271 640 L145 640 L70 251 C36 74 120 -7 261 -14 C205 -51 174 -97 186 -144 C199 -199 281 -212 352 -174 L342 -120 C236 -160 233 -66 351 -11 L363 -5 C472 21 556 100 584 248 L660 640 L534 640 Z " />
<glyph glyph-name="uogonek" unicode="&#x173;" horiz-adv-x="540" d="M410 459 L361 202 C348 133 305 88 240 88 C178 88 156 130 169 199 L219 459 L100 459 L52 206 C21 46 106 -5 206 -11 C147 -49 115 -96 127 -144 C140 -199 222 -212 293 -174 L283 -120 C177 -160 174 -66 292 -11 L311 -1 C387 21 456 78 479 203 L528 459 L410 459 Z " />
<glyph glyph-name="Wcircumflex" unicode="&#x174;" horiz-adv-x="964" d="M539 718 L584 755 L614 718 C632 697 639 691 665 691 L730 691 L642 809 L546 809 L412 691 L477 691 C504 691 513 698 539 718 L539 718 Z M881 640 L655 174 L614 640 L510 640 L289 173 L242 640 L109 640 L196 0 L307 0 L525 448 L571 0 L682 0 L1015 640 L881 640 Z " />
<glyph glyph-name="wcircumflex" unicode="&#x175;" horiz-adv-x="761" d="M408 562 L453 599 L483 562 C501 541 508 535 534 535 L599 535 L511 653 L415 653 L281 535 L346 535 C373 535 382 542 408 562 L408 562 Z M664 459 L506 150 L472 459 L376 459 L224 152 L185 459 L58 459 L142 0 L241 0 L398 320 L432 0 L531 0 L792 459 L664 459 Z " />
<glyph glyph-name="Ycircumflex" unicode="&#x176;" horiz-adv-x="617" d="M365 718 L410 755 L440 718 C458 697 465 691 491 691 L556 691 L468 809 L372 809 L238 691 L303 691 C330 691 339 698 365 718 L365 718 Z M679 640 L535 640 L342 410 L240 640 L97 640 L258 295 L202 0 L328 0 L383 292 L679 640 Z " />
<glyph glyph-name="ycircumflex" unicode="&#x177;" horiz-adv-x="517" d="M284 562 L329 599 L359 562 C377 541 384 535 410 535 L475 535 L387 653 L291 653 L157 535 L222 535 C249 535 258 542 284 562 L284 562 Z M425 459 L240 151 L176 459 L52 459 L157 16 L13 -210 L137 -210 L554 459 L425 459 Z " />
<glyph glyph-name="Ydieresis" unicode="&#x178;" horiz-adv-x="617" d="M299 702 C329 702 360 727 366 757 C372 790 348 818 314 818 C283 818 256 794 250 765 C244 731 265 702 299 702 L299 702 Z M508 702 C538 702 568 727 574 757 C580 790 557 818 523 818 C492 818 465 794 459 765 C453 731 474 702 508 702 L508 702 Z M679 640 L535 640 L342 410 L240 640 L97 640 L258 295 L202 0 L328 0 L383 292 L679 640 Z " />
<glyph glyph-name="Zacute" unicode="&#x179;" horiz-adv-x="576" d="M447 741 L549 834 L449 850 L286 690 L331 690 C365 690 389 690 447 741 L447 741 Z M588 640 L147 640 L126 532 L409 532 L23 93 L6 0 L481 0 L502 108 L185 108 L572 550 L588 640 Z " />
<glyph glyph-name="zacute" unicode="&#x17a;" horiz-adv-x="480" d="M375 585 L477 678 L377 694 L214 534 L259 534 C293 534 317 534 375 585 L375 585 Z M78 359 L299 359 L9 82 L-7 0 L401 0 L420 99 L166 99 L456 376 L473 459 L97 459 L78 359 Z " />
<glyph glyph-name="Zdotaccent" unicode="&#x17b;" horiz-adv-x="576" d="M376 698 C412 698 447 727 454 762 C461 798 437 827 401 827 C364 827 329 798 322 762 C315 727 339 698 376 698 L376 698 Z M588 640 L147 640 L126 532 L409 532 L23 93 L6 0 L481 0 L502 108 L185 108 L572 550 L588 640 Z " />
<glyph glyph-name="zdotaccent" unicode="&#x17c;" horiz-adv-x="480" d="M304 542 C340 542 375 571 382 606 C389 642 365 671 329 671 C292 671 257 642 250 606 C243 571 267 542 304 542 L304 542 Z M473 459 L97 459 L78 359 L299 359 L9 82 L-7 0 L401 0 L420 99 L166 99 L456 376 L473 459 Z " />
<glyph glyph-name="Zcaron" unicode="&#x17d;" horiz-adv-x="576" d="M422 695 L556 813 L491 813 C465 813 455 806 429 786 L385 749 L354 786 C337 807 329 813 303 813 L238 813 L326 695 L422 695 Z M588 640 L147 640 L126 532 L409 532 L23 93 L6 0 L481 0 L502 108 L185 108 L572 550 L588 640 Z " />
<glyph glyph-name="zcaron" unicode="&#x17e;" horiz-adv-x="480" d="M349 540 L483 658 L418 658 C392 658 382 651 356 631 L312 594 L281 631 C264 652 256 658 230 658 L165 658 L253 540 L349 540 Z M78 359 L299 359 L9 82 L-7 0 L401 0 L420 99 L166 99 L456 376 L473 459 L97 459 L78 359 Z " />
<glyph glyph-name="uni0189" unicode="&#x189;" horiz-adv-x="680" d="M368 640 L161 640 L105 351 L52 351 L40 293 L94 293 L38 0 L248 0 C467 0 617 137 652 317 C687 500 587 640 368 640 L368 640 Z M524 324 C497 187 398 104 249 104 L184 104 L220 293 L342 293 L354 351 L231 351 L267 536 L335 536 C484 536 549 457 524 324 L524 324 Z " />
<glyph glyph-name="uni018F" unicode="&#x18f;" horiz-adv-x="725" d="M427 655 C323 655 226 616 155 547 L237 472 C287 520 343 545 412 545 C524 545 583 467 579 365 L72 365 L62 313 C25 120 126 -12 311 -12 C500 -12 662 136 697 319 C732 504 627 655 427 655 L427 655 Z M326 92 C221 92 168 163 180 275 L560 275 C521 170 433 92 326 92 L326 92 Z " />
<glyph glyph-name="florin" unicode="&#x192;" horiz-adv-x="510" d="M488 657 C400 657 333 595 292 492 L249 385 L147 385 L133 312 L219 312 L113 49 C88 -13 65 -48 26 -48 C12 -48 -2 -47 -18 -29 L-85 -109 C-52 -141 -15 -150 23 -150 C109 -150 172 -87 215 20 L332 312 L450 312 L464 385 L362 385 L391 458 C413 516 438 556 483 556 C500 556 520 552 540 531 L608 611 C570 645 531 657 488 657 L488 657 Z " />
<glyph glyph-name="uni0197" unicode="&#x197;" horiz-adv-x="308" d="M339 404 L251 404 L297 640 L171 640 L125 404 L38 404 L26 346 L114 346 L46 0 L172 0 L240 346 L327 346 L339 404 Z " />
<glyph glyph-name="uni019D" unicode="&#x19d;" horiz-adv-x="718" d="M593 640 L508 198 L277 640 L161 640 L38 0 L39 0 L34 -25 C20 -93 -45 -106 -86 -91 L-113 -194 C-17 -222 124 -202 155 -30 L162 10 L245 442 L475 0 L592 0 L715 640 L593 640 Z " />
<glyph glyph-name="uni01C3" unicode="&#x1c3;" horiz-adv-x="240" d="M268 640 L130 640 L63 185 L161 185 L268 640 Z M74 -10 C112 -10 150 21 158 59 C165 97 139 128 101 128 C61 128 23 97 16 59 C9 21 35 -10 74 -10 L74 -10 Z " />
<glyph glyph-name="uni01CD" unicode="&#x1cd;" horiz-adv-x="669" d="M472 695 L606 813 L541 813 C515 813 505 806 479 786 L434 749 L404 786 C387 807 379 813 353 813 L288 813 L376 695 L472 695 Z M473 0 L607 0 L477 640 L348 640 L-28 0 L110 0 L191 147 L449 147 L473 0 Z M243 243 L389 508 L433 243 L243 243 Z " />
<glyph glyph-name="uni01CE" unicode="&#x1ce;" horiz-adv-x="569" d="M387 540 L521 658 L456 658 C430 658 420 651 394 631 L350 594 L319 631 C302 652 294 658 268 658 L203 658 L291 540 L387 540 Z M456 459 L435 411 C409 447 366 471 303 471 C183 471 68 379 35 226 C4 78 78 -10 196 -10 C263 -10 320 17 363 57 L366 0 L464 0 L554 459 L456 459 Z M255 90 C180 90 141 150 158 233 C175 313 236 371 308 371 C384 371 425 310 407 226 C390 147 329 90 255 90 L255 90 Z " />
<glyph glyph-name="uni01CF" unicode="&#x1cf;" horiz-adv-x="308" d="M195 695 L291 695 L425 813 L360 813 C334 813 324 806 298 786 L254 749 L223 786 C206 807 198 813 172 813 L107 813 L195 695 Z M297 640 L171 640 L46 0 L172 0 L297 640 Z " />
<glyph glyph-name="uni01D0" unicode="&#x1d0;" horiz-adv-x="269" d="M146 544 L242 544 L376 662 L311 662 C285 662 275 655 249 635 L205 598 L174 635 C157 656 149 662 123 662 L58 662 L146 544 Z M31 0 L148 0 L238 459 L120 459 L31 0 Z " />
<glyph glyph-name="uni01D1" unicode="&#x1d1;" horiz-adv-x="781" d="M439 695 L535 695 L669 813 L604 813 C578 813 568 806 542 786 L498 749 L467 786 C450 807 442 813 416 813 L351 813 L439 695 Z M349 -14 C554 -14 718 133 753 316 C789 505 678 656 468 656 C263 656 100 511 64 328 C28 139 139 -14 349 -14 L349 -14 Z M361 98 C231 98 171 200 194 316 C217 439 322 544 457 544 C587 544 647 445 624 328 C601 206 495 98 361 98 L361 98 Z " />
<glyph glyph-name="uni01D2" unicode="&#x1d2;" horiz-adv-x="572" d="M298 540 L394 540 L528 658 L463 658 C437 658 427 651 401 631 L357 594 L326 631 C309 652 301 658 275 658 L210 658 L298 540 Z M242 -14 C388 -14 510 89 536 225 C562 365 479 471 330 471 C183 471 62 368 36 232 C9 92 92 -14 242 -14 L242 -14 Z M255 87 C182 87 141 145 157 225 C173 309 240 370 316 370 C389 370 430 311 415 232 C399 148 331 87 255 87 L255 87 Z " />
<glyph glyph-name="uni01D3" unicode="&#x1d3;" horiz-adv-x="645" d="M364 695 L460 695 L594 813 L529 813 C503 813 493 806 467 786 L423 749 L392 786 C375 807 367 813 341 813 L276 813 L364 695 Z M279 -14 C428 -14 549 64 584 248 L660 640 L534 640 L461 261 C439 146 372 98 295 98 C220 98 175 142 198 258 L271 640 L145 640 L70 251 C35 67 127 -14 279 -14 L279 -14 Z " />
<glyph glyph-name="uni01D4" unicode="&#x1d4;" horiz-adv-x="540" d="M282 540 L378 540 L512 658 L447 658 C421 658 411 651 385 631 L341 594 L310 631 C293 652 285 658 259 658 L194 658 L282 540 Z M227 -12 C331 -12 447 32 479 203 L528 459 L410 459 L361 202 C348 133 305 88 240 88 C178 88 156 130 169 199 L219 459 L100 459 L52 206 C19 35 119 -12 227 -12 L227 -12 Z " />
<glyph glyph-name="uni01D5" unicode="&#x1d5;" horiz-adv-x="645" d="M299 846 L594 846 L605 909 L311 909 L299 846 Z M327 808 C297 808 269 784 263 755 C257 721 278 692 313 692 C343 692 373 717 379 747 C385 780 361 808 327 808 L327 808 Z M536 808 C506 808 478 784 473 755 C466 721 487 692 522 692 C552 692 582 717 588 747 C593 780 570 808 536 808 L536 808 Z M279 -14 C428 -14 549 64 584 248 L660 640 L534 640 L461 261 C439 146 372 98 295 98 C220 98 175 142 198 258 L271 640 L145 640 L70 251 C35 67 127 -14 279 -14 L279 -14 Z " />
<glyph glyph-name="uni01D6" unicode="&#x1d6;" horiz-adv-x="540" d="M217 713 L512 713 L523 776 L229 776 L217 713 Z M246 662 C215 662 188 638 182 609 C176 575 197 546 231 546 C261 546 292 571 298 601 C304 634 280 662 246 662 L246 662 Z M455 662 C424 662 397 638 391 609 C385 575 406 546 440 546 C470 546 500 571 506 601 C512 634 489 662 455 662 L455 662 Z M227 -12 C331 -12 447 32 479 203 L528 459 L410 459 L361 202 C348 133 305 88 240 88 C178 88 156 130 169 199 L219 459 L100 459 L52 206 C19 35 119 -12 227 -12 L227 -12 Z " />
<glyph glyph-name="uni01D7" unicode="&#x1d7;" horiz-adv-x="645" d="M388 816 L431 816 C458 816 477 819 498 837 L599 919 L509 937 L388 816 Z M327 808 C297 808 269 784 263 755 C257 721 278 692 313 692 C343 692 373 717 379 747 C385 780 361 808 327 808 L327 808 Z M536 808 C506 808 478 784 473 755 C466 721 487 692 522 692 C552 692 582 717 588 747 C593 780 570 808 536 808 L536 808 Z M279 -14 C428 -14 549 64 584 248 L660 640 L534 640 L461 261 C439 146 372 98 295 98 C220 98 175 142 198 258 L271 640 L145 640 L70 251 C35 67 127 -14 279 -14 L279 -14 Z " />
<glyph glyph-name="uni01D8" unicode="&#x1d8;" horiz-adv-x="540" d="M306 683 L349 683 C376 683 395 686 416 704 L517 786 L427 804 L306 683 Z M246 662 C215 662 188 638 182 609 C176 575 197 546 231 546 C261 546 292 571 298 601 C304 634 280 662 246 662 L246 662 Z M455 662 C424 662 397 638 391 609 C385 575 406 546 440 546 C470 546 500 571 506 601 C512 634 489 662 455 662 L455 662 Z M227 -12 C331 -12 447 32 479 203 L528 459 L410 459 L361 202 C348 133 305 88 240 88 C178 88 156 130 169 199 L219 459 L100 459 L52 206 C19 35 119 -12 227 -12 L227 -12 Z " />
<glyph glyph-name="uni01D9" unicode="&#x1d9;" horiz-adv-x="645" d="M392 821 L488 821 L622 939 L557 939 C531 939 521 932 495 912 L451 875 L420 912 C403 933 395 939 369 939 L304 939 L392 821 Z M327 808 C297 808 269 784 263 755 C257 721 278 692 313 692 C343 692 373 717 379 747 C385 780 361 808 327 808 L327 808 Z M536 808 C506 808 478 784 473 755 C466 721 487 692 522 692 C552 692 582 717 588 747 C593 780 570 808 536 808 L536 808 Z M279 -14 C428 -14 549 64 584 248 L660 640 L534 640 L461 261 C439 146 372 98 295 98 C220 98 175 142 198 258 L271 640 L145 640 L70 251 C35 67 127 -14 279 -14 L279 -14 Z " />
<glyph glyph-name="uni01DA" unicode="&#x1da;" horiz-adv-x="540" d="M310 688 L406 688 L540 806 L475 806 C449 806 439 799 413 779 L369 742 L338 779 C321 800 313 806 287 806 L222 806 L310 688 Z M246 662 C215 662 188 638 182 609 C176 575 197 546 231 546 C261 546 292 571 298 601 C304 634 280 662 246 662 L246 662 Z M455 662 C424 662 397 638 391 609 C385 575 406 546 440 546 C470 546 500 571 506 601 C512 634 489 662 455 662 L455 662 Z M227 -12 C331 -12 447 32 479 203 L528 459 L410 459 L361 202 C348 133 305 88 240 88 C178 88 156 130 169 199 L219 459 L100 459 L52 206 C19 35 119 -12 227 -12 L227 -12 Z " />
<glyph glyph-name="uni01DB" unicode="&#x1db;" horiz-adv-x="645" d="M490 816 L416 937 L320 919 L388 837 C402 819 420 816 447 816 L490 816 Z M327 808 C297 808 269 784 263 755 C257 721 278 692 313 692 C343 692 373 717 379 747 C385 780 361 808 327 808 L327 808 Z M536 808 C506 808 478 784 473 755 C466 721 487 692 522 692 C552 692 582 717 588 747 C593 780 570 808 536 808 L536 808 Z M279 -14 C428 -14 549 64 584 248 L660 640 L534 640 L461 261 C439 146 372 98 295 98 C220 98 175 142 198 258 L271 640 L145 640 L70 251 C35 67 127 -14 279 -14 L279 -14 Z " />
<glyph glyph-name="uni01DC" unicode="&#x1dc;" horiz-adv-x="540" d="M408 683 L334 804 L238 786 L306 704 C320 686 338 683 365 683 L408 683 Z M246 662 C215 662 188 638 182 609 C176 575 197 546 231 546 C261 546 292 571 298 601 C304 634 280 662 246 662 L246 662 Z M455 662 C424 662 397 638 391 609 C385 575 406 546 440 546 C470 546 500 571 506 601 C512 634 489 662 455 662 L455 662 Z M227 -12 C331 -12 447 32 479 203 L528 459 L410 459 L361 202 C348 133 305 88 240 88 C178 88 156 130 169 199 L219 459 L100 459 L52 206 C19 35 119 -12 227 -12 L227 -12 Z " />
<glyph glyph-name="uni01DD" unicode="&#x1dd;" horiz-adv-x="526" d="M273 473 C195 473 128 449 76 403 L149 333 C181 365 221 385 273 385 C348 385 380 333 372 258 L262 258 C107 258 24 211 21 126 C17 43 99 -12 201 -12 C343 -12 463 88 489 223 C517 365 433 473 273 473 L273 473 Z M208 77 C162 77 128 99 129 130 C132 172 199 188 265 188 L354 188 C326 119 271 77 208 77 L208 77 Z " />
<glyph glyph-name="uni01DE" unicode="&#x1de;" horiz-adv-x="669" d="M616 909 L322 909 L310 846 L605 846 L616 909 Z M324 692 C354 692 384 717 390 747 C396 780 372 808 338 808 C308 808 280 784 274 755 C268 721 289 692 324 692 L324 692 Z M484 755 C477 721 498 692 533 692 C563 692 593 717 599 747 C604 780 581 808 547 808 C517 808 489 784 484 755 L484 755 Z M348 640 L-28 0 L110 0 L191 147 L449 147 L473 0 L607 0 L477 640 L348 640 Z M243 243 L389 508 L433 243 L243 243 Z " />
<glyph glyph-name="uni01DF" unicode="&#x1df;" horiz-adv-x="569" d="M532 776 L238 776 L226 713 L521 713 L532 776 Z M240 546 C270 546 301 571 307 601 C313 634 289 662 255 662 C224 662 197 638 191 609 C185 575 206 546 240 546 L240 546 Z M400 609 C394 575 415 546 449 546 C479 546 509 571 515 601 C521 634 498 662 464 662 C433 662 406 638 400 609 L400 609 Z M456 459 L435 411 C409 447 366 471 303 471 C183 471 68 379 35 226 C4 78 78 -10 196 -10 C263 -10 320 17 363 57 L366 0 L464 0 L554 459 L456 459 Z M255 90 C180 90 141 150 158 233 C175 313 236 371 308 371 C384 371 425 310 407 226 C390 147 329 90 255 90 L255 90 Z " />
<glyph glyph-name="Gcaron" unicode="&#x1e6;" horiz-adv-x="737" d="M513 695 L647 813 L582 813 C556 813 546 806 520 786 L476 749 L445 786 C428 807 420 813 394 813 L329 813 L417 695 L513 695 Z M433 357 L415 262 L576 262 C545 159 459 98 356 98 C228 98 170 200 193 320 C217 445 320 544 452 544 C518 544 561 520 581 501 L664 594 C640 617 573 656 470 656 C261 656 99 510 64 326 C27 137 135 -14 343 -14 C541 -14 679 129 711 297 L723 357 L433 357 Z " />
<glyph glyph-name="gcaron" unicode="&#x1e7;" horiz-adv-x="568" d="M387 540 L521 658 L456 658 C430 658 420 651 394 631 L350 594 L319 631 C302 652 294 658 268 658 L203 658 L291 540 L387 540 Z M453 459 L434 413 C407 448 365 471 304 471 C183 471 69 380 36 229 C5 81 79 -6 196 -6 C258 -6 311 17 354 52 C332 -53 289 -112 196 -112 C172 -112 145 -107 124 -97 L82 -193 C113 -204 152 -210 190 -210 C342 -210 438 -126 471 46 L550 459 L453 459 Z M159 235 C176 315 236 372 308 372 C385 372 425 312 407 229 C391 150 329 93 256 93 C181 93 141 153 159 235 L159 235 Z " />
<glyph glyph-name="uni01EA" unicode="&#x1ea;" horiz-adv-x="781" d="M468 656 C263 656 100 511 64 328 C30 149 127 3 316 -13 C258 -50 227 -97 239 -144 C252 -199 334 -212 405 -174 L395 -120 C289 -160 286 -66 404 -11 L405 -10 C584 14 721 150 753 316 C789 505 678 656 468 656 L468 656 Z M624 328 C601 206 495 98 361 98 C231 98 171 200 194 316 C217 439 322 544 457 544 C587 544 647 445 624 328 L624 328 Z " />
<glyph glyph-name="uni01EB" unicode="&#x1eb;" horiz-adv-x="572" d="M330 471 C183 471 62 368 36 232 C11 101 82 0 214 -13 C160 -49 132 -94 143 -140 C156 -195 238 -208 309 -170 L299 -116 C193 -156 190 -62 308 -7 L309 -7 C424 19 514 110 536 225 C562 365 479 471 330 471 L330 471 Z M415 232 C399 148 331 87 255 87 C182 87 141 145 157 225 C173 309 240 370 316 370 C389 370 430 311 415 232 L415 232 Z " />
<glyph glyph-name="Aringacute" unicode="&#x1fa;" horiz-adv-x="669" d="M526 831 L627 913 L537 931 L416 810 L459 810 C486 810 505 813 526 831 L526 831 Z M425 575 C483 575 536 619 546 672 C557 729 519 777 457 777 C399 777 347 732 336 680 C325 623 363 575 425 575 L425 575 Z M388 672 C394 703 421 727 454 727 C484 727 499 706 493 680 C488 649 460 624 427 624 C397 624 382 645 388 672 L388 672 Z M348 542 L-28 0 L110 0 L190 124 L449 125 L473 0 L607 0 L477 542 L348 542 Z M244 206 L389 430 L433 206 L244 206 Z " />
<glyph glyph-name="aringacute" unicode="&#x1fb;" horiz-adv-x="569" d="M441 781 L542 863 L452 881 L331 760 L374 760 C401 760 420 763 441 781 L441 781 Z M341 525 C399 525 452 569 462 622 C473 679 435 727 373 727 C315 727 263 682 252 630 C241 573 279 525 341 525 L341 525 Z M304 622 C310 653 337 677 370 677 C400 677 415 656 409 630 C404 599 376 574 343 574 C313 574 298 595 304 622 L304 622 Z M456 459 L435 411 C409 447 366 471 303 471 C183 471 68 379 35 226 C4 78 78 -10 196 -10 C263 -10 320 17 363 57 L366 0 L464 0 L554 459 L456 459 Z M255 90 C180 90 141 150 158 233 C175 313 236 371 308 371 C384 371 425 310 407 226 C390 147 329 90 255 90 L255 90 Z " />
<glyph glyph-name="AEacute" unicode="&#x1fc;" horiz-adv-x="825" d="M615 731 L717 824 L617 840 L454 680 L499 680 C533 680 557 680 615 731 L615 731 Z M833 539 L854 643 L350 643 L-28 0 L107 0 L185 147 L402 147 L411 0 L730 0 L750 104 L521 104 L506 272 L732 272 L751 369 L498 369 L483 539 L833 539 Z M236 243 L380 513 L396 243 L236 243 Z " />
<glyph glyph-name="aeacute" unicode="&#x1fd;" horiz-adv-x="916" d="M586 580 L688 673 L588 689 L425 529 L470 529 C504 529 528 529 586 580 L586 580 Z M715 471 C652 471 594 451 546 418 L554 459 L456 459 L435 411 C409 447 366 471 303 471 C183 471 68 379 35 226 C4 78 78 -10 196 -10 C263 -10 320 17 363 57 L366 0 L464 0 L473 48 C511 9 569 -14 643 -14 C722 -14 788 10 840 56 L767 126 C736 94 695 74 644 74 C569 74 536 126 545 201 L655 201 C809 201 892 248 896 333 C899 416 817 471 715 471 L715 471 Z M787 329 C785 287 718 271 651 271 L562 271 C590 340 645 382 708 382 C754 382 789 360 787 329 L787 329 Z M255 90 C180 90 141 150 158 233 C175 313 236 371 308 371 C384 371 425 310 407 226 C390 147 329 90 255 90 L255 90 Z " />
<glyph glyph-name="Oslashacute" unicode="&#x1fe;" horiz-adv-x="781" d="M555 741 L657 834 L557 850 L394 690 L439 690 C473 690 497 690 555 741 L555 741 Z M801 640 L762 681 L666 593 C617 633 550 656 468 656 C263 656 100 511 64 328 C46 235 64 150 112 88 L21 5 L60 -36 L152 48 C201 9 268 -14 349 -14 C554 -14 718 133 753 316 C771 409 753 492 706 553 L801 640 Z M194 316 C217 439 322 544 457 544 C505 544 544 530 572 508 L211 178 C190 216 184 265 194 316 L194 316 Z M624 328 C601 206 495 98 361 98 C313 98 275 112 247 135 L608 464 C628 426 634 379 624 328 L624 328 Z " />
<glyph glyph-name="oslashacute" unicode="&#x1ff;" horiz-adv-x="573" d="M420 590 L522 683 L422 699 L259 539 L304 539 C338 539 362 539 420 590 L420 590 Z M569 452 L535 489 L470 430 C435 456 387 471 330 471 C182 471 63 368 36 232 C23 165 35 106 68 62 L4 4 L38 -32 L103 27 C138 1 186 -14 243 -14 C391 -14 510 89 537 225 C550 292 538 351 506 394 L569 452 Z M146 225 C163 316 234 383 320 383 C350 383 375 374 393 359 L151 139 C142 163 140 192 146 225 L146 225 Z M426 232 C409 141 339 74 254 74 C224 74 199 83 180 98 L422 318 C431 294 432 264 426 232 L426 232 Z " />
<glyph glyph-name="uni0218" unicode="&#x218;" horiz-adv-x="549" d="M232 -14 C333 -14 459 38 486 176 C506 277 442 332 346 368 C270 399 232 425 240 470 C249 517 300 551 353 551 C397 551 430 535 464 498 L553 578 C511 622 453 656 361 656 C249 656 132 582 111 473 C89 358 174 313 265 279 C323 256 363 233 353 177 C342 121 280 92 229 92 C177 92 132 110 98 167 L3 85 C54 19 128 -14 232 -14 L232 -14 Z M148 -226 C210 -205 249 -157 261 -113 C270 -78 258 -47 224 -45 C195 -43 171 -61 164 -88 C156 -118 177 -137 203 -133 C196 -156 174 -178 141 -192 L148 -226 Z " />
<glyph glyph-name="uni0219" unicode="&#x219;" horiz-adv-x="448" d="M-7 62 C24 19 89 -14 183 -14 C298 -14 375 42 391 123 C423 292 183 232 201 322 C207 355 236 378 284 378 C312 379 349 365 370 340 L441 411 C415 442 358 471 283 471 C171 471 96 413 79 329 C46 156 280 215 264 132 C258 100 226 77 174 77 C136 77 98 90 71 134 L-7 62 Z M100 -226 C162 -205 201 -157 213 -113 C222 -78 210 -47 176 -45 C147 -43 123 -61 116 -88 C108 -118 129 -137 155 -133 C148 -156 126 -178 93 -192 L100 -226 Z " />
<glyph glyph-name="uni021A" unicode="&#x21a;" horiz-adv-x="557" d="M594 640 L123 640 L103 534 L276 534 L173 0 L299 0 L402 534 L573 534 L594 640 Z M224 -45 C195 -43 171 -61 164 -88 C156 -118 177 -137 203 -133 C196 -156 174 -178 141 -192 L148 -226 C210 -205 249 -157 261 -113 C270 -78 258 -47 224 -45 L224 -45 Z " />
<glyph glyph-name="uni021B" unicode="&#x21b;" horiz-adv-x="366" d="M383 459 L270 459 L295 591 L177 591 L152 459 L80 459 L63 367 L134 367 L63 0 L181 0 L252 367 L365 367 L383 459 Z M110 -45 C81 -43 57 -61 50 -88 C42 -118 63 -137 89 -133 C82 -156 60 -178 27 -192 L34 -226 C96 -205 135 -157 147 -113 C156 -78 144 -47 110 -45 L110 -45 Z " />
<glyph glyph-name="uni0228" unicode="&#x228;" horiz-adv-x="537" d="M545 536 L565 640 L161 640 L37 0 L209 0 L135 -65 L157 -92 C197 -75 239 -82 228 -112 C221 -128 203 -145 167 -145 C138 -145 113 -135 103 -127 L59 -177 C72 -186 110 -200 162 -198 C228 -196 288 -164 307 -115 C326 -67 297 -44 268 -40 C245 -37 226 -41 218 -45 L273 0 L441 0 L461 104 L183 104 L216 273 L449 273 L467 368 L234 368 L267 536 L545 536 Z " />
<glyph glyph-name="uni0229" unicode="&#x229;" horiz-adv-x="526" d="M325 471 C183 471 63 371 37 236 C13 113 72 16 192 -8 L124 -68 L146 -95 C186 -78 228 -85 217 -115 C210 -131 192 -148 156 -148 C127 -148 102 -138 92 -130 L48 -180 C61 -189 99 -203 151 -201 C217 -199 277 -167 296 -118 C315 -70 286 -47 257 -43 C234 -40 215 -44 207 -48 L249 -14 L253 -14 C331 -14 398 10 450 56 L377 126 C345 94 305 74 253 74 C178 74 146 126 154 201 L264 201 C419 201 502 248 505 333 C509 416 427 471 325 471 L325 471 Z M397 329 C394 287 327 271 261 271 L172 271 C200 340 255 382 318 382 C364 382 398 360 397 329 L397 329 Z " />
<glyph glyph-name="uni022A" unicode="&#x22a;" horiz-adv-x="781" d="M373 846 L668 846 L679 909 L385 909 L373 846 Z M401 808 C371 808 343 784 337 755 C331 721 352 692 387 692 C417 692 447 717 453 747 C459 780 435 808 401 808 L401 808 Z M610 808 C580 808 552 784 547 755 C540 721 561 692 596 692 C626 692 656 717 662 747 C667 780 644 808 610 808 L610 808 Z M349 -14 C554 -14 718 133 753 316 C789 505 678 656 468 656 C263 656 100 511 64 328 C28 139 139 -14 349 -14 L349 -14 Z M361 98 C231 98 171 200 194 316 C217 439 322 544 457 544 C587 544 647 445 624 328 C601 206 495 98 361 98 L361 98 Z " />
<glyph glyph-name="uni022B" unicode="&#x22b;" horiz-adv-x="572" d="M232 713 L527 713 L538 776 L244 776 L232 713 Z M261 662 C230 662 203 638 197 609 C191 575 212 546 246 546 C276 546 307 571 313 601 C319 634 295 662 261 662 L261 662 Z M470 662 C439 662 412 638 406 609 C400 575 421 546 455 546 C485 546 515 571 521 601 C527 634 504 662 470 662 L470 662 Z M242 -14 C388 -14 510 89 536 225 C562 365 479 471 330 471 C183 471 62 368 36 232 C9 92 92 -14 242 -14 L242 -14 Z M255 87 C182 87 141 145 157 225 C173 309 240 370 316 370 C389 370 430 311 415 232 C399 148 331 87 255 87 L255 87 Z " />
<glyph glyph-name="uni0232" unicode="&#x232;" horiz-adv-x="617" d="M563 783 L269 783 L257 720 L552 720 L563 783 Z M679 640 L535 640 L342 410 L240 640 L97 640 L258 295 L202 0 L328 0 L383 292 L679 640 Z " />
<glyph glyph-name="uni0233" unicode="&#x233;" horiz-adv-x="517" d="M481 628 L187 628 L175 565 L470 565 L481 628 Z M425 459 L240 151 L176 459 L52 459 L157 16 L13 -210 L137 -210 L554 459 L425 459 Z " />
<glyph glyph-name="uni0237" unicode="&#x237;" horiz-adv-x="294" d="M168 -28 L262 459 L143 459 L51 -18 C37 -92 -2 -129 -82 -117 L-95 -207 C19 -229 136 -197 168 -28 L168 -28 Z " />
<glyph glyph-name="uni0243" unicode="&#x243;" horiz-adv-x="590" d="M539 481 C558 579 490 640 364 640 L161 640 L81 224 L26 224 L14 166 L70 166 L38 0 L266 0 C409 0 509 69 531 179 C549 272 503 333 409 351 C483 372 527 416 539 481 L539 481 Z M418 477 C408 422 361 389 298 389 L238 389 L269 550 L336 550 C400 550 428 526 418 477 L418 477 Z M404 199 C391 132 335 90 255 90 L182 90 L196 166 L315 166 L327 224 L207 224 L221 296 L296 296 C376 296 416 262 404 199 L404 199 Z " />
<glyph glyph-name="uni0244" unicode="&#x244;" horiz-adv-x="645" d="M534 640 L513 530 L250 530 L271 640 L145 640 L70 251 C35 67 127 -14 279 -14 C428 -14 549 64 584 248 L660 640 L534 640 Z M461 261 C439 146 372 98 295 98 C220 98 175 142 198 258 L237 463 L500 463 L461 261 Z " />
<glyph glyph-name="uni0245" unicode="&#x245;" horiz-adv-x="648" d="M587 0 L469 640 L360 640 L-27 0 L110 0 L381 483 L448 0 L587 0 Z " />
<glyph glyph-name="uni024C" unicode="&#x24c;" horiz-adv-x="601" d="M567 444 C591 571 494 640 379 640 L161 640 L104 341 L40 341 L28 266 L89 266 L38 0 L164 0 L214 260 L255 260 L383 0 L535 0 L385 272 C473 295 549 349 567 444 L567 444 Z M437 452 C426 391 374 354 297 354 L232 354 L269 544 L333 544 C416 544 448 509 437 452 L437 452 Z " />
<glyph glyph-name="uni0250" unicode="&#x250;" horiz-adv-x="572" d="M367 471 C304 471 252 447 211 411 L209 459 L111 459 L16 0 L113 0 L139 57 C167 17 213 -10 280 -10 C397 -10 507 78 536 226 C565 379 487 471 367 471 L367 471 Z M416 233 C400 150 336 90 261 90 C188 90 149 147 165 226 C180 310 245 371 322 371 C394 371 431 313 416 233 L416 233 Z " />
<glyph glyph-name="uni0251" unicode="&#x251;" horiz-adv-x="537" d="M424 459 L399 404 C376 444 336 471 276 471 C168 471 65 379 35 226 C7 78 74 -10 180 -10 C241 -10 291 17 331 57 L334 0 L431 0 L521 459 L424 459 Z M233 90 C166 90 130 150 146 233 C161 313 216 371 281 371 C350 371 386 310 369 226 C355 147 299 90 233 90 L233 90 Z " />
<glyph glyph-name="uni0252" unicode="&#x252;" horiz-adv-x="539" d="M361 471 C301 471 251 444 211 404 L209 459 L111 459 L16 0 L113 0 L140 58 C162 17 202 -10 263 -10 C369 -10 471 78 503 226 C535 379 469 471 361 471 L361 471 Z M395 233 C378 150 318 90 250 90 C184 90 152 147 169 226 C186 310 247 371 316 371 C381 371 412 313 395 233 L395 233 Z " />
<glyph glyph-name="uni0258" unicode="&#x258;" horiz-adv-x="527" d="M300 471 C198 471 93 416 63 333 C33 248 97 201 251 201 L361 201 C339 126 286 74 211 74 C160 74 127 94 108 126 L7 56 C40 10 97 -14 176 -14 C336 -14 464 94 493 236 C521 371 441 471 300 471 L300 471 Z M170 329 C181 360 224 382 271 382 C334 382 371 340 372 271 L283 271 C216 271 156 287 170 329 L170 329 Z " />
<glyph glyph-name="uni0259" unicode="&#x259;" horiz-adv-x="526" d="M273 473 C195 473 128 449 76 403 L149 333 C181 365 221 385 273 385 C348 385 380 333 372 258 L262 258 C107 258 24 211 21 126 C17 43 99 -12 201 -12 C343 -12 463 88 489 223 C517 365 433 473 273 473 L273 473 Z M208 77 C162 77 128 99 129 130 C132 172 199 188 265 188 L354 188 C326 119 271 77 208 77 L208 77 Z " />
<glyph glyph-name="uni0265" unicode="&#x265;" horiz-adv-x="546" d="M412 459 L364 211 L364 213 C347 121 287 88 235 88 C174 88 156 132 169 202 L219 459 L100 459 L45 174 C18 34 102 -12 183 -12 C244 -12 295 13 333 52 L280 -221 L398 -221 L530 459 L412 459 Z " />
<glyph glyph-name="uni0268" unicode="&#x268;" horiz-adv-x="269" d="M196 547 C232 547 267 576 274 611 C281 647 257 676 221 676 C184 676 149 647 142 611 C135 576 159 547 196 547 L196 547 Z M310 356 L218 356 L238 459 L120 459 L100 356 L9 356 L-3 298 L89 298 L31 0 L148 0 L206 298 L298 298 L310 356 Z " />
<glyph glyph-name="uni026F" unicode="&#x26f;" horiz-adv-x="806" d="M669 459 L619 201 C601 128 560 89 506 89 C452 89 440 133 453 200 L503 459 L384 459 L338 214 L338 219 C323 137 282 89 222 89 C168 89 155 133 168 199 L218 459 L100 459 L49 191 C22 51 79 -12 179 -12 C257 -12 303 18 339 56 C359 10 401 -12 456 -12 C507 -12 558 11 593 59 L596 0 L700 0 L787 459 L669 459 Z " />
<glyph glyph-name="uni0272" unicode="&#x272;" horiz-adv-x="546" d="M364 471 C302 471 251 446 213 407 L209 459 L105 459 L17 0 L11 -29 C1 -78 -24 -101 -64 -96 L-78 -193 C23 -210 106 -160 129 -34 L136 0 L135 0 L185 260 C206 341 262 370 311 370 C372 370 391 327 377 257 L328 0 L446 0 L501 285 C528 425 444 471 364 471 L364 471 Z " />
<glyph glyph-name="uni0275" unicode="&#x275;" horiz-adv-x="573" d="M330 471 C182 471 63 368 36 232 C9 92 91 -14 243 -14 C391 -14 510 89 537 225 C564 365 482 471 330 471 L330 471 Z M320 383 C392 383 433 333 430 262 L156 262 C183 334 246 383 320 383 L320 383 Z M254 74 C182 74 140 124 142 195 L416 195 C389 123 327 74 254 74 L254 74 Z " />
<glyph glyph-name="uni0279" unicode="&#x279;" horiz-adv-x="358" d="M222 459 L177 219 L179 234 C163 153 110 102 38 102 C25 102 10 104 -1 108 L-38 -5 C-24 -9 -9 -12 14 -12 C67 -12 114 22 148 61 L149 0 L253 0 L341 459 L222 459 Z " />
<glyph glyph-name="uni0289" unicode="&#x289;" horiz-adv-x="540" d="M410 459 L385 327 L194 327 L219 459 L100 459 L52 206 C19 35 119 -12 227 -12 C331 -12 447 32 479 203 L528 459 L410 459 Z M240 88 C178 88 156 130 169 199 L181 260 L372 260 L361 202 C348 133 305 88 240 88 L240 88 Z " />
<glyph glyph-name="uni028C" unicode="&#x28c;" horiz-adv-x="512" d="M459 0 L349 459 L252 459 L-37 0 L88 0 L273 319 L332 0 L459 0 Z " />
<glyph glyph-name="uni028D" unicode="&#x28d;" horiz-adv-x="761" d="M702 0 L627 459 L527 459 L365 140 L337 459 L237 459 L-31 0 L95 0 L258 307 L286 0 L383 0 L541 307 L574 0 L702 0 Z " />
<glyph glyph-name="uni028E" unicode="&#x28e;" horiz-adv-x="525" d="M507 669 L384 669 L-33 1 L96 1 L281 308 L345 1 L468 1 L364 443 L507 669 Z " />
<glyph glyph-name="circumflex" unicode="&#x2c6;" horiz-adv-x="390" d="M322 636 L225 636 L91 518 L156 518 C183 518 193 525 218 545 L263 582 L294 545 C311 524 318 518 345 518 L409 518 L322 636 Z " />
<glyph glyph-name="caron" unicode="&#x2c7;" horiz-adv-x="390" d="M204 522 L300 522 L434 640 L369 640 C342 640 332 633 307 613 L262 576 L232 613 C214 634 207 640 181 640 L116 640 L204 522 Z " />
<glyph glyph-name="uni02C9" unicode="&#x2c9;" horiz-adv-x="349" d="M63 553 L412 553 L424 615 L75 615 L63 553 Z " />
<glyph glyph-name="breve" unicode="&#x2d8;" horiz-adv-x="375" d="M245 511 C340 511 400 556 416 630 L350 630 C340 602 306 572 249 572 C195 572 176 596 178 630 L113 630 C102 562 147 511 245 511 L245 511 Z " />
<glyph glyph-name="dotaccent" unicode="&#x2d9;" horiz-adv-x="200" d="M160 530 C196 530 231 559 238 594 C245 630 221 659 185 659 C148 659 113 630 106 594 C99 559 123 530 160 530 L160 530 Z " />
<glyph glyph-name="ring" unicode="&#x2da;" horiz-adv-x="283" d="M228 697 C171 697 118 652 108 600 C97 543 135 495 197 495 C255 495 307 539 318 592 C329 649 290 697 228 697 L228 697 Z M199 544 C169 544 154 565 160 592 C166 623 193 647 226 647 C256 647 271 626 265 600 C260 569 232 544 199 544 L199 544 Z " />
<glyph glyph-name="ogonek" unicode="&#x2db;" horiz-adv-x="276" d="M149 -174 L139 -120 C33 -160 30 -66 148 -11 L169 0 L115 17 C24 -23 -31 -83 -17 -144 C-3 -199 78 -212 149 -174 L149 -174 Z " />
<glyph glyph-name="tilde" unicode="&#x2dc;" horiz-adv-x="393" d="M329 559 C387 559 417 602 435 630 L385 664 C372 644 361 622 328 622 C287 622 273 668 215 668 C160 668 130 627 108 602 L156 563 C168 579 182 604 216 604 C261 604 273 559 329 559 L329 559 Z " />
<glyph glyph-name="hungarumlaut" unicode="&#x2dd;" horiz-adv-x="472" d="M250 561 L352 654 L253 670 L90 510 L134 510 C168 510 192 510 250 561 L250 561 Z M416 561 L519 654 L419 670 L256 510 L301 510 C334 510 358 510 416 561 L416 561 Z " />
<glyph glyph-name="gravecomb" unicode="&#x300;" d="M-126 561 C-86 510 -62 510 -28 510 L17 510 L-89 670 L-195 654 L-126 561 Z " />
<glyph glyph-name="acutecomb" unicode="&#x301;" d="M-94 561 L8 654 L-92 670 L-255 510 L-210 510 C-176 510 -152 510 -94 561 L-94 561 Z " />
<glyph glyph-name="uni0302" unicode="&#x302;" d="M-107 636 L-203 636 L-337 518 L-272 518 C-245 518 -236 525 -210 545 L-165 582 L-135 545 C-117 524 -110 518 -84 518 L-19 518 L-107 636 Z " />
<glyph glyph-name="tildecomb" unicode="&#x303;" d="M-116 527 C-58 527 -28 570 -10 598 L-59 632 C-73 612 -83 591 -117 591 C-158 591 -172 636 -230 636 C-285 636 -315 595 -337 570 L-288 531 C-277 547 -263 572 -228 572 C-184 572 -172 527 -116 527 L-116 527 Z " />
<glyph glyph-name="uni0304" unicode="&#x304;" d="M-314 525 L-19 525 L-8 588 L-302 588 L-314 525 Z " />
<glyph glyph-name="uni0306" unicode="&#x306;" d="M-175 511 C-80 511 -20 556 -3 630 L-70 630 C-80 602 -113 572 -171 572 C-224 572 -243 596 -241 630 L-306 630 C-318 562 -273 511 -175 511 L-175 511 Z " />
<glyph glyph-name="uni0307" unicode="&#x307;" d="M-86 530 C-50 530 -15 559 -8 594 C-1 630 -25 659 -61 659 C-98 659 -133 630 -140 594 C-147 559 -123 530 -86 530 L-86 530 Z " />
<glyph glyph-name="uni0308" unicode="&#x308;" d="M-262 638 C-293 638 -320 614 -326 585 C-332 551 -311 522 -277 522 C-247 522 -216 547 -210 577 C-204 610 -228 638 -262 638 L-262 638 Z M-53 638 C-84 638 -111 614 -117 585 C-123 551 -102 522 -68 522 C-38 522 -8 547 -2 577 C4 610 -19 638 -53 638 L-53 638 Z " />
<glyph glyph-name="uni030A" unicode="&#x30a;" d="M-9 697 C-67 697 -119 652 -130 600 C-141 543 -103 495 -41 495 C17 495 70 539 80 592 C91 649 53 697 -9 697 L-9 697 Z M-39 544 C-69 544 -84 565 -78 592 C-72 623 -45 647 -12 647 C18 647 33 626 27 600 C22 569 -6 544 -39 544 L-39 544 Z " />
<glyph glyph-name="uni030B" unicode="&#x30b;" d="M-338 561 L-235 654 L-335 670 L-498 510 L-454 510 C-420 510 -396 510 -338 561 L-338 561 Z M-171 561 L-69 654 L-169 670 L-332 510 L-287 510 C-253 510 -229 510 -171 561 L-171 561 Z " />
<glyph glyph-name="uni030C" unicode="&#x30c;" d="M-231 522 L-135 522 L-1 640 L-66 640 C-92 640 -102 633 -128 613 L-172 576 L-203 613 C-220 634 -228 640 -254 640 L-319 640 L-231 522 Z " />
<glyph glyph-name="uni0312" unicode="&#x312;" d="M-24 679 C-96 655 -143 599 -156 548 C-167 507 -153 471 -113 468 C-80 466 -51 487 -43 519 C-34 553 -59 576 -89 571 C-81 598 -54 623 -16 639 L-24 679 Z " />
<glyph glyph-name="dotbelowcomb" unicode="&#x323;" d="M-221 -186 C-185 -186 -149 -157 -143 -122 C-136 -86 -160 -57 -196 -57 C-232 -57 -268 -86 -274 -122 C-281 -157 -257 -186 -221 -186 L-221 -186 Z " />
<glyph glyph-name="uni0326" unicode="&#x326;" d="M-227 -226 C-165 -205 -126 -157 -114 -113 C-105 -78 -117 -47 -151 -45 C-180 -43 -204 -61 -211 -88 C-219 -118 -198 -137 -172 -133 C-179 -156 -201 -178 -234 -192 L-227 -226 Z " />
<glyph glyph-name="uni0327" unicode="&#x327;" d="M-189 -40 C-212 -37 -231 -41 -239 -45 L-178 5 L-173 17 L-223 22 L-322 -65 L-300 -92 C-260 -75 -218 -82 -229 -112 C-236 -128 -254 -145 -290 -145 C-319 -145 -344 -135 -354 -127 L-398 -177 C-385 -186 -347 -200 -295 -198 C-229 -196 -169 -164 -150 -115 C-131 -67 -160 -44 -189 -40 L-189 -40 Z " />
<glyph glyph-name="uni0328" unicode="&#x328;" d="M-160 -174 L-170 -120 C-276 -160 -279 -66 -161 -11 L-140 0 L-194 17 C-285 -23 -341 -83 -326 -144 C-313 -199 -231 -212 -160 -174 L-160 -174 Z " />
<glyph glyph-name="uni0331" unicode="&#x331;" d="M-397 -138 L-103 -138 L-91 -75 L-386 -75 L-397 -138 Z " />
<glyph glyph-name="uni0335" unicode="&#x335;" d="M-376 265 L-75 265 L-63 323 L-364 323 L-376 265 Z " />
<glyph glyph-name="uni0336" unicode="&#x336;" d="M-525 260 L-95 260 L-82 327 L-512 327 L-525 260 Z " />
<glyph glyph-name="uni0337" unicode="&#x337;" d="M-322 295 L-340 203 L-48 399 L-30 491 L-322 295 Z " />
<glyph glyph-name="uni0338" unicode="&#x338;" d="M72 682 L-669 6 L-630 -35 L111 641 L72 682 Z " />
<glyph glyph-name="uni0394" unicode="&#x394;" horiz-adv-x="638" d="M459 640 L336 640 L-12 78 L-27 0 L576 0 L590 78 L459 640 Z M376 521 L465 91 L122 91 L376 521 Z " />
<glyph glyph-name="uni03A9" unicode="&#x3a9;" horiz-adv-x="816" d="M762 366 C793 529 687 659 489 659 C294 659 141 532 109 372 C87 254 141 152 251 112 L246 91 L68 94 L50 0 L319 0 L337 95 L338 95 L341 115 L350 161 L348 161 L351 178 C253 190 213 271 230 358 C251 466 348 559 475 559 C599 559 659 468 638 364 C621 273 545 190 443 178 L437 143 L427 89 L410 0 L679 0 L697 94 L517 91 L521 111 C647 150 739 250 762 366 L762 366 Z " />
<glyph glyph-name="uni03BC" unicode="&#x3bc;" horiz-adv-x="551" d="M415 459 L366 207 C341 119 287 88 240 88 C178 88 161 132 175 202 L224 459 L105 459 L50 174 C49 169 48 165 48 160 L-19 -190 L78 -190 L126 5 C147 -6 169 -12 193 -12 C246 -12 296 9 337 50 L342 0 L446 0 L534 459 L415 459 Z " />
<glyph glyph-name="pi" unicode="&#x3c0;" horiz-adv-x="677" d="M540 367 L633 367 L650 459 L105 459 L88 367 L158 367 L88 0 L207 0 L277 367 L421 367 L378 142 C354 19 427 -10 492 -10 C526 -10 562 -3 577 3 L579 100 C575 98 560 91 535 91 C508 91 491 107 500 154 L540 367 Z " />
<glyph glyph-name="uni0400" unicode="&#x400;" horiz-adv-x="537" d="M442 690 L487 690 L381 850 L275 834 L344 741 C384 690 408 690 442 690 L442 690 Z M545 536 L565 640 L161 640 L37 0 L441 0 L461 104 L183 104 L216 273 L449 273 L467 368 L234 368 L267 536 L545 536 Z " />
<glyph glyph-name="uni0401" unicode="&#x401;" horiz-adv-x="537" d="M274 702 C304 702 335 727 341 757 C347 790 323 818 289 818 C258 818 231 794 225 765 C219 731 240 702 274 702 L274 702 Z M483 702 C513 702 543 727 549 757 C555 790 532 818 498 818 C467 818 440 794 434 765 C428 731 449 702 483 702 L483 702 Z M545 536 L565 640 L161 640 L37 0 L441 0 L461 104 L183 104 L216 273 L449 273 L467 368 L234 368 L267 536 L545 536 Z " />
<glyph glyph-name="uni0402" unicode="&#x402;" horiz-adv-x="722" d="M492 407 C441 407 396 395 355 377 L388 549 L544 549 L562 640 L123 640 L105 549 L262 549 L155 0 L281 0 L337 286 C367 300 399 307 444 307 C516 307 553 263 538 185 C521 99 445 57 361 72 L341 -33 C488 -51 635 17 668 188 C695 326 616 407 492 407 L492 407 Z " />
<glyph glyph-name="uni0403" unicode="&#x403;" horiz-adv-x="513" d="M438 741 L540 834 L440 850 L277 690 L322 690 C356 690 380 690 438 741 L438 741 Z M550 640 L161 640 L36 0 L162 0 L266 533 L529 533 L550 640 Z " />
<glyph glyph-name="uni0404" unicode="&#x404;" horiz-adv-x="629" d="M461 656 C260 656 100 512 65 331 C28 140 138 -14 347 -14 C422 -14 494 6 558 46 L503 151 C462 119 409 96 351 96 C238 96 182 176 187 274 L435 274 L453 366 L207 366 C247 468 339 547 455 547 C504 547 548 531 578 499 L658 592 C609 631 544 656 461 656 L461 656 Z " />
<glyph glyph-name="uni0405" unicode="&#x405;" horiz-adv-x="549" d="M232 -14 C333 -14 459 38 486 176 C506 277 442 332 346 368 C270 399 232 425 240 470 C249 517 300 551 353 551 C397 551 430 535 464 498 L553 578 C511 622 453 656 361 656 C249 656 132 582 111 473 C89 358 174 313 265 279 C323 256 363 233 353 177 C342 121 280 92 229 92 C177 92 132 110 98 167 L3 85 C54 19 128 -14 232 -14 L232 -14 Z " />
<glyph glyph-name="uni0406" unicode="&#x406;" horiz-adv-x="308" d="M297 640 L171 640 L46 0 L172 0 L297 640 Z " />
<glyph glyph-name="uni0407" unicode="&#x407;" horiz-adv-x="308" d="M159 818 C128 818 101 794 95 765 C89 731 110 702 144 702 C174 702 205 727 211 757 C217 790 193 818 159 818 L159 818 Z M368 818 C337 818 310 794 304 765 C298 731 319 702 353 702 C383 702 413 727 419 757 C425 790 402 818 368 818 L368 818 Z M297 640 L171 640 L46 0 L172 0 L297 640 Z " />
<glyph glyph-name="uni0408" unicode="&#x408;" horiz-adv-x="472" d="M159 -14 C270 -14 372 50 404 213 L486 640 L360 640 L278 214 C264 138 220 98 162 98 C127 98 101 110 78 144 L0 46 C36 12 82 -14 159 -14 L159 -14 Z " />
<glyph glyph-name="uni0409" unicode="&#x409;" horiz-adv-x="1000" d="M766 399 L648 399 L695 640 L261 640 L207 361 C180 222 138 101 48 101 C41 101 32 100 23 103 L11 0 C25 -2 42 -4 60 -4 C194 -4 280 102 330 353 L366 535 L548 535 L444 0 L570 0 L697 1 C808 1 920 71 943 190 C968 319 878 399 766 399 L766 399 Z M817 208 C803 138 747 94 667 95 L589 96 L629 302 L715 303 C796 305 828 270 817 208 L817 208 Z " />
<glyph glyph-name="uni040A" unicode="&#x40a;" horiz-adv-x="987" d="M752 390 L633 390 L682 640 L556 640 L507 390 L238 390 L287 640 L161 640 L36 0 L162 0 L219 294 L489 295 L431 0 L557 0 L684 1 C795 1 907 69 929 186 C954 312 863 390 752 390 L752 390 Z M803 204 C790 136 734 94 654 95 L576 96 L615 295 L701 295 C781 295 814 263 803 204 L803 204 Z " />
<glyph glyph-name="uni040B" unicode="&#x40b;" horiz-adv-x="721" d="M503 407 C449 407 397 393 353 372 L387 549 L545 549 L562 640 L123 640 L106 549 L261 549 L154 0 L280 0 L333 273 C370 295 411 307 457 307 C532 307 557 268 541 189 L504 0 L630 0 L671 206 C701 364 597 407 503 407 L503 407 Z " />
<glyph glyph-name="uni040C" unicode="&#x40c;" horiz-adv-x="661" d="M494 741 L596 834 L496 850 L333 690 L378 690 C412 690 436 690 494 741 L494 741 Z M683 640 L518 640 L238 384 L287 640 L161 640 L38 0 L164 0 L220 292 L416 0 L581 0 L337 339 L683 640 Z " />
<glyph glyph-name="uni040D" unicode="&#x40d;" horiz-adv-x="727" d="M527 690 L572 690 L466 850 L360 834 L429 741 C469 690 493 690 527 690 L527 690 Z M609 640 L200 198 L293 640 L172 640 L36 0 L153 0 L562 443 L468 0 L590 0 L725 640 L609 640 Z " />
<glyph glyph-name="uni040E" unicode="&#x40e;" horiz-adv-x="615" d="M399 690 C494 690 554 735 571 809 L504 809 C494 781 461 751 403 751 C350 751 331 775 333 809 L268 809 C256 741 301 690 399 690 L399 690 Z M532 640 L328 358 L238 640 L97 640 L235 231 L68 0 L214 0 L678 640 L532 640 Z " />
<glyph glyph-name="uni040F" unicode="&#x40f;" horiz-adv-x="682" d="M681 640 L557 640 L453 105 L183 105 L287 640 L161 640 L36 0 L239 0 L216 -120 L331 -120 L354 0 L556 0 L577 105 L681 640 Z " />
<glyph glyph-name="uni0410" unicode="&#x410;" horiz-adv-x="669" d="M473 0 L607 0 L477 640 L348 640 L-28 0 L110 0 L191 147 L449 147 L473 0 Z M243 243 L389 508 L433 243 L243 243 Z " />
<glyph glyph-name="uni0411" unicode="&#x411;" horiz-adv-x="601" d="M365 384 L238 384 L267 537 L543 537 L562 640 L161 640 L141 537 L38 0 L164 0 L296 1 C407 1 520 70 543 187 C567 309 476 384 365 384 L365 384 Z M413 197 C401 131 347 90 267 91 L182 92 L220 292 L311 294 C391 295 426 259 413 197 L413 197 Z " />
<glyph glyph-name="uni0412" unicode="&#x412;" horiz-adv-x="590" d="M539 481 C558 579 490 640 364 640 L161 640 L38 0 L266 0 C409 0 509 69 531 179 C549 272 503 333 409 351 C483 372 527 416 539 481 L539 481 Z M418 477 C408 422 361 389 298 389 L238 389 L269 550 L336 550 C400 550 428 526 418 477 L418 477 Z M404 199 C391 132 335 90 255 90 L182 90 L221 296 L296 296 C376 296 416 262 404 199 L404 199 Z " />
<glyph glyph-name="uni0413" unicode="&#x413;" horiz-adv-x="513" d="M550 640 L161 640 L36 0 L162 0 L266 533 L529 533 L550 640 Z " />
<glyph glyph-name="uni0414" unicode="&#x414;" horiz-adv-x="724" d="M686 640 L266 640 L233 470 C213 364 184 204 61 106 L61 105 L23 105 L-20 -120 L82 -120 L117 0 L524 0 L513 -120 L615 -120 L638 0 L658 105 L583 105 L686 640 Z M200 105 C272 187 325 298 348 421 L370 535 L541 535 L458 105 L200 105 Z " />
<glyph glyph-name="uni0415" unicode="&#x415;" horiz-adv-x="537" d="M545 536 L565 640 L161 640 L37 0 L441 0 L461 104 L183 104 L216 273 L449 273 L467 368 L234 368 L267 536 L545 536 Z " />
<glyph glyph-name="uni0416" unicode="&#x416;" horiz-adv-x="1032" d="M1058 640 L890 640 L611 385 L661 640 L535 640 L485 383 L303 640 L140 640 L368 339 L-10 0 L159 0 L467 293 L410 0 L536 0 L593 292 L790 0 L952 0 L709 339 L1058 640 Z " />
<glyph glyph-name="uni0417" unicode="&#x417;" horiz-adv-x="553" d="M521 475 C538 572 473 655 341 656 C264 657 198 640 131 600 L179 506 C222 535 267 559 329 559 C387 559 415 527 409 489 C402 448 375 416 331 402 C297 390 261 382 204 383 L193 295 C251 295 287 295 330 280 C369 266 381 233 372 194 C360 137 297 91 214 91 C140 90 100 123 69 161 L-6 71 C46 21 113 -14 220 -12 C366 -11 469 61 492 171 C509 255 472 311 415 341 C467 366 510 410 521 475 L521 475 Z " />
<glyph glyph-name="uni0418" unicode="&#x418;" horiz-adv-x="727" d="M609 640 L200 198 L293 640 L172 640 L36 0 L153 0 L562 443 L468 0 L590 0 L725 640 L609 640 Z " />
<glyph glyph-name="uni0419" unicode="&#x419;" horiz-adv-x="727" d="M463 690 C558 690 618 735 635 809 L568 809 C558 781 525 751 467 751 C414 751 395 775 397 809 L332 809 C320 741 365 690 463 690 L463 690 Z M609 640 L200 198 L293 640 L172 640 L36 0 L153 0 L562 443 L468 0 L590 0 L725 640 L609 640 Z " />
<glyph glyph-name="uni041A" unicode="&#x41a;" horiz-adv-x="661" d="M683 640 L518 640 L238 384 L287 640 L161 640 L38 0 L164 0 L220 292 L416 0 L581 0 L337 339 L683 640 Z " />
<glyph glyph-name="uni041B" unicode="&#x41b;" horiz-adv-x="694" d="M693 640 L261 640 L204 344 C180 222 138 101 48 101 C41 101 32 100 23 103 L11 0 C25 -2 42 -4 60 -4 C194 -4 280 102 326 336 L365 535 L548 535 L444 0 L568 0 L672 535 L673 535 L693 640 Z " />
<glyph glyph-name="uni041C" unicode="&#x41c;" horiz-adv-x="836" d="M720 640 L720 639 L719 640 L437 325 L275 638 L275 640 L161 640 L38 0 L161 0 L245 440 L405 155 L672 438 L588 0 L710 0 L834 640 L720 640 Z " />
<glyph glyph-name="uni041D" unicode="&#x41d;" horiz-adv-x="691" d="M562 640 L512 379 L237 379 L287 640 L161 640 L38 0 L164 0 L217 277 L492 277 L439 0 L565 0 L688 640 L562 640 Z " />
<glyph glyph-name="uni041E" unicode="&#x41e;" horiz-adv-x="781" d="M349 -14 C554 -14 718 133 753 316 C789 505 678 656 468 656 C263 656 100 511 64 328 C28 139 139 -14 349 -14 L349 -14 Z M361 98 C231 98 171 200 194 316 C217 439 322 544 457 544 C587 544 647 445 624 328 C601 206 495 98 361 98 L361 98 Z " />
<glyph glyph-name="uni041F" unicode="&#x41f;" horiz-adv-x="683" d="M682 640 L161 640 L36 0 L162 0 L266 534 L535 534 L431 0 L557 0 L682 640 Z " />
<glyph glyph-name="uni0420" unicode="&#x420;" horiz-adv-x="570" d="M398 640 L161 640 L38 0 L164 0 L210 241 L325 241 C438 241 554 314 577 436 C601 562 510 640 398 640 L398 640 Z M448 445 C436 377 381 337 299 337 L229 337 L269 545 L343 545 C426 545 461 510 448 445 L448 445 Z " />
<glyph glyph-name="uni0421" unicode="&#x421;" horiz-adv-x="627" d="M342 -14 C420 -14 493 8 557 47 L506 149 C465 118 414 98 360 98 C230 98 170 201 194 318 C217 440 319 544 451 544 C503 544 546 528 576 497 L660 593 C611 633 546 656 466 656 C262 656 99 509 64 325 C28 137 136 -14 342 -14 L342 -14 Z " />
<glyph glyph-name="uni0422" unicode="&#x422;" horiz-adv-x="557" d="M594 640 L123 640 L103 534 L276 534 L173 0 L299 0 L402 534 L573 534 L594 640 Z " />
<glyph glyph-name="uni0423" unicode="&#x423;" horiz-adv-x="615" d="M532 640 L328 358 L238 640 L97 640 L235 231 L68 0 L214 0 L678 640 L532 640 Z " />
<glyph glyph-name="uni0424" unicode="&#x424;" horiz-adv-x="797" d="M532 589 L549 680 L423 680 L406 591 C219 577 85 487 55 331 C24 172 122 74 301 54 L283 -40 L409 -40 L427 52 C614 67 748 157 778 313 C809 473 711 570 532 589 L532 589 Z M656 331 C636 230 557 174 443 159 L508 485 C618 475 674 429 656 331 L656 331 Z M177 313 C196 414 275 469 390 483 L325 157 C215 168 159 215 177 313 L177 313 Z " />
<glyph glyph-name="uni0425" unicode="&#x425;" horiz-adv-x="677" d="M707 640 L558 640 L375 419 L277 640 L130 640 L279 328 L-10 0 L147 0 L340 233 L442 0 L597 0 L435 325 L707 640 Z " />
<glyph glyph-name="uni0426" unicode="&#x426;" horiz-adv-x="717" d="M681 640 L557 640 L453 105 L183 105 L287 640 L161 640 L36 0 L519 0 L507 -120 L608 -120 L652 105 L577 105 L681 640 Z " />
<glyph glyph-name="uni0427" unicode="&#x427;" horiz-adv-x="603" d="M476 640 L423 367 C386 345 345 333 299 333 C224 333 199 372 215 451 L251 640 L125 640 L85 434 C55 276 159 233 253 233 C307 233 359 247 403 268 L351 0 L477 0 L602 640 L476 640 Z " />
<glyph glyph-name="uni0428" unicode="&#x428;" horiz-adv-x="925" d="M800 640 L696 105 L503 105 L607 640 L481 640 L377 105 L183 105 L287 640 L161 640 L36 0 L800 0 L925 640 L800 640 Z " />
<glyph glyph-name="uni0429" unicode="&#x429;" horiz-adv-x="960" d="M925 640 L800 640 L696 105 L503 105 L607 640 L481 640 L377 105 L183 105 L287 640 L161 640 L36 0 L762 0 L750 -120 L852 -120 L875 0 L895 105 L821 105 L925 640 Z " />
<glyph glyph-name="uni042A" unicode="&#x42a;" horiz-adv-x="659" d="M425 390 L306 390 L355 640 L91 640 L71 538 L209 538 L104 0 L230 0 L357 1 C468 1 579 69 602 186 C626 312 536 390 425 390 L425 390 Z M475 204 C462 136 407 95 326 95 L249 96 L287 294 L373 295 C453 295 486 263 475 204 L475 204 Z " />
<glyph glyph-name="uni042B" unicode="&#x42b;" horiz-adv-x="820" d="M357 390 L238 390 L287 640 L161 640 L36 0 L162 0 L289 1 C400 1 511 69 534 186 C559 312 468 390 357 390 L357 390 Z M692 640 L568 0 L694 0 L818 640 L692 640 Z M408 204 C395 136 339 95 259 95 L181 96 L219 294 L305 295 C386 295 419 263 408 204 L408 204 Z " />
<glyph glyph-name="uni042C" unicode="&#x42c;" horiz-adv-x="592" d="M357 390 L238 390 L287 640 L161 640 L36 0 L162 0 L289 1 C400 1 511 69 534 186 C559 312 468 390 357 390 L357 390 Z M408 204 C395 136 339 95 259 95 L181 96 L219 294 L305 295 C386 295 419 263 408 204 L408 204 Z " />
<glyph glyph-name="uni042D" unicode="&#x42d;" horiz-adv-x="634" d="M343 656 C260 656 185 631 120 592 L162 499 C206 531 256 547 305 547 C420 547 481 468 480 366 L234 366 L215 274 L463 274 C427 176 340 96 227 96 C169 96 125 119 97 151 L0 46 C48 6 112 -14 187 -14 C395 -14 568 140 608 331 C646 512 544 656 343 656 L343 656 Z " />
<glyph glyph-name="uni042E" unicode="&#x42e;" horiz-adv-x="983" d="M690 656 C515 656 376 538 325 379 L236 379 L287 640 L161 640 L36 0 L162 0 L216 277 L306 277 C295 111 395 -14 576 -14 C768 -14 918 130 954 313 C991 505 891 656 690 656 L690 656 Z M827 331 C803 207 707 98 582 98 C464 98 417 197 439 313 C463 437 559 544 685 544 C802 544 850 447 827 331 L827 331 Z " />
<glyph glyph-name="uni042F" unicode="&#x42f;" horiz-adv-x="610" d="M609 640 L391 640 C276 640 151 571 124 444 C104 349 158 295 236 272 L-24 0 L129 0 L362 260 L402 260 L347 0 L474 0 L609 640 Z M357 354 C280 354 244 391 257 452 C269 509 316 544 398 544 L463 544 L422 354 L357 354 Z " />
<glyph glyph-name="uni0430" unicode="&#x430;" horiz-adv-x="569" d="M456 459 L435 411 C409 447 366 471 303 471 C183 471 68 379 35 226 C4 78 78 -10 196 -10 C263 -10 320 17 363 57 L366 0 L464 0 L554 459 L456 459 Z M255 90 C180 90 141 150 158 233 C175 313 236 371 308 371 C384 371 425 310 407 226 C390 147 329 90 255 90 L255 90 Z " />
<glyph glyph-name="uni0431" unicode="&#x431;" horiz-adv-x="576" d="M257 -14 C408 -14 504 88 526 203 C546 306 499 419 348 419 C278 419 222 386 177 331 C200 435 275 520 360 541 C421 558 502 563 564 612 L518 694 C468 660 405 653 338 638 C221 611 100 514 64 325 C47 234 55 168 74 115 C99 36 157 -14 257 -14 L257 -14 Z M257 80 C190 80 158 131 171 197 C185 270 252 328 321 328 C384 328 420 280 408 216 C393 140 331 80 257 80 L257 80 Z " />
<glyph glyph-name="uni0432" unicode="&#x432;" horiz-adv-x="533" d="M363 253 C412 267 449 301 458 348 C471 417 418 459 322 459 L105 459 L16 0 L253 0 C361 0 443 52 458 133 C471 198 434 242 363 253 L363 253 Z M346 335 C339 301 309 281 269 281 L180 281 L200 384 L291 384 C325 384 353 370 346 335 L346 335 Z M343 141 C333 94 292 75 246 75 L140 75 L167 210 L270 210 C322 210 351 185 343 141 L343 141 Z " />
<glyph glyph-name="uni0433" unicode="&#x433;" horiz-adv-x="405" d="M442 459 L105 459 L16 0 L133 0 L204 358 L422 358 L442 459 Z " />
<glyph glyph-name="uni0434" unicode="&#x434;" horiz-adv-x="551" d="M515 459 L167 459 L146 352 C133 286 112 172 30 98 L-10 98 L-29 0 L-51 -114 L48 -114 L82 0 L376 0 L365 -114 L463 -114 L505 98 L444 98 L515 459 Z M250 315 L259 360 L384 360 L333 98 L146 98 C199 156 234 232 250 315 L250 315 Z " />
<glyph glyph-name="uni0435" unicode="&#x435;" horiz-adv-x="526" d="M325 471 C183 471 63 371 37 236 C9 94 93 -14 253 -14 C331 -14 398 10 450 56 L377 126 C345 94 305 74 253 74 C178 74 146 126 154 201 L264 201 C419 201 502 248 505 333 C509 416 427 471 325 471 L325 471 Z M397 329 C394 287 327 271 261 271 L172 271 C200 340 255 382 318 382 C364 382 398 360 397 329 L397 329 Z " />
<glyph glyph-name="uni0436" unicode="&#x436;" horiz-adv-x="822" d="M827 459 L676 459 L482 289 L515 459 L397 459 L364 289 L235 459 L84 459 L251 250 L-33 0 L120 0 L348 209 L307 0 L425 0 L466 209 L612 0 L765 0 L579 250 L827 459 Z " />
<glyph glyph-name="uni0437" unicode="&#x437;" horiz-adv-x="453" d="M418 345 C431 413 376 474 259 475 C190 475 140 462 89 435 L120 352 C154 370 188 385 244 385 C294 385 313 363 310 341 C307 316 289 301 259 290 C233 281 205 278 164 279 L151 209 C193 209 224 211 255 199 C279 189 291 170 285 141 C279 110 239 80 176 80 C107 80 77 99 55 119 L-10 48 C29 11 82 -14 173 -13 C300 -12 381 42 397 122 C409 183 376 224 329 245 C373 264 410 297 418 345 L418 345 Z " />
<glyph glyph-name="uni0438" unicode="&#x438;" horiz-adv-x="554" d="M427 459 L166 170 L221 459 L105 459 L16 0 L127 0 L388 289 L333 0 L448 0 L538 459 L427 459 Z " />
<glyph glyph-name="uni0439" unicode="&#x439;" horiz-adv-x="554" d="M335 539 C430 539 490 584 507 658 L440 658 C430 630 397 600 339 600 C286 600 267 624 269 658 L204 658 C192 590 237 539 335 539 L335 539 Z M427 459 L166 170 L221 459 L105 459 L16 0 L127 0 L388 289 L333 0 L448 0 L538 459 L427 459 Z " />
<glyph glyph-name="uni043A" unicode="&#x43a;" horiz-adv-x="497" d="M517 459 L378 459 L189 283 L223 459 L105 459 L16 0 L133 0 L173 202 L308 0 L440 0 L267 243 L517 459 Z " />
<glyph glyph-name="uni043B" unicode="&#x43b;" horiz-adv-x="544" d="M528 459 L162 459 L126 274 C107 174 77 97 11 97 C8 97 1 97 -5 98 L-16 -1 C-7 -2 18 -4 32 -4 C136 -4 204 71 240 251 L261 360 L391 360 L320 -1 L438 -1 L528 459 Z " />
<glyph glyph-name="uni043C" unicode="&#x43c;" horiz-adv-x="646" d="M518 459 L517 457 L516 459 L323 242 L216 456 L216 459 L105 459 L16 0 L132 0 L188 288 L297 87 L480 286 L424 0 L541 0 L630 459 L518 459 Z " />
<glyph glyph-name="uni043D" unicode="&#x43d;" horiz-adv-x="536" d="M403 459 L368 282 L189 282 L224 459 L105 459 L16 0 L134 0 L171 189 L350 189 L313 0 L431 0 L521 459 L403 459 Z " />
<glyph glyph-name="uni043E" unicode="&#x43e;" horiz-adv-x="572" d="M242 -14 C388 -14 510 89 536 225 C562 365 479 471 330 471 C183 471 62 368 36 232 C9 92 92 -14 242 -14 L242 -14 Z M255 87 C182 87 141 145 157 225 C173 309 240 370 316 370 C389 370 430 311 415 232 C399 148 331 87 255 87 L255 87 Z " />
<glyph glyph-name="uni043F" unicode="&#x43f;" horiz-adv-x="550" d="M534 459 L105 459 L87 367 L16 0 L134 0 L206 367 L398 367 L326 0 L444 0 L516 367 L534 459 Z " />
<glyph glyph-name="uni0440" unicode="&#x440;" horiz-adv-x="573" d="M368 471 C303 471 249 446 208 407 L209 459 L105 459 L-25 -210 L93 -210 L144 51 C172 14 217 -10 281 -10 C398 -10 508 78 537 226 C566 379 488 471 368 471 L368 471 Z M416 233 C401 150 337 90 262 90 C188 90 150 147 166 226 C181 310 246 371 323 371 C395 371 432 313 416 233 L416 233 Z " />
<glyph glyph-name="uni0441" unicode="&#x441;" horiz-adv-x="459" d="M236 -14 C302 -14 356 4 406 36 L355 126 C326 103 290 88 254 88 C177 88 140 145 156 225 C173 309 234 369 314 369 C348 369 378 357 397 334 L478 419 C440 451 393 471 324 471 C183 471 62 368 36 232 C10 92 92 -14 236 -14 L236 -14 Z " />
<glyph glyph-name="uni0442" unicode="&#x442;" horiz-adv-x="448" d="M470 459 L67 459 L48 363 L193 363 L123 0 L240 0 L311 363 L451 363 L470 459 Z " />
<glyph glyph-name="uni0443" unicode="&#x443;" horiz-adv-x="517" d="M425 459 L240 151 L176 459 L52 459 L157 16 L13 -210 L137 -210 L554 459 L425 459 Z " />
<glyph glyph-name="uni0444" unicode="&#x444;" horiz-adv-x="675" d="M442 466 L483 680 L367 680 L327 468 C176 453 62 367 37 238 C11 104 91 12 232 -9 L194 -210 L310 -210 L348 -11 C499 4 613 90 638 219 C663 353 583 445 442 466 L442 466 Z M523 238 C507 156 445 103 358 87 L416 372 C496 361 538 315 523 238 L523 238 Z M152 219 C168 301 230 354 316 370 L260 85 C178 96 136 141 152 219 L152 219 Z " />
<glyph glyph-name="uni0445" unicode="&#x445;" horiz-adv-x="513" d="M527 459 L393 459 L272 317 L205 459 L76 459 L192 242 L-33 0 L104 0 L245 161 L325 0 L456 0 L325 237 L527 459 Z " />
<glyph glyph-name="uni0446" unicode="&#x446;" horiz-adv-x="556" d="M520 459 L401 459 L331 98 L153 98 L224 459 L105 459 L35 98 L16 0 L381 0 L370 -114 L468 -114 L510 98 L449 98 L520 459 Z " />
<glyph glyph-name="uni0447" unicode="&#x447;" horiz-adv-x="512" d="M379 459 L342 268 C311 247 279 238 239 238 C187 238 171 267 181 320 L209 459 L90 459 L61 308 C34 172 124 138 205 138 C248 138 288 153 322 171 L289 0 L407 0 L497 459 L379 459 Z " />
<glyph glyph-name="uni0448" unicode="&#x448;" horiz-adv-x="738" d="M722 459 L604 459 L533 98 L402 98 L473 459 L355 459 L284 98 L153 98 L224 459 L105 459 L35 98 L16 -1 L632 -1 L652 98 L651 98 L722 459 Z " />
<glyph glyph-name="uni0449" unicode="&#x449;" horiz-adv-x="759" d="M722 459 L604 459 L533 98 L402 98 L473 459 L355 459 L284 98 L153 98 L224 459 L105 459 L35 98 L16 0 L583 0 L573 -114 L671 -114 L713 98 L651 98 L722 459 Z " />
<glyph glyph-name="uni044A" unicode="&#x44a;" horiz-adv-x="558" d="M378 300 L267 300 L298 459 L68 459 L50 367 L163 367 L91 0 L208 0 L328 1 C418 1 507 52 525 140 C544 238 468 300 378 300 L378 300 Z M410 159 C401 111 359 82 300 82 L224 83 L251 217 L335 218 C394 218 418 197 410 159 L410 159 Z " />
<glyph glyph-name="uni044B" unicode="&#x44b;" horiz-adv-x="734" d="M302 300 L191 300 L222 459 L105 459 L16 0 L133 0 L252 1 C343 1 432 52 449 140 C468 238 393 300 302 300 L302 300 Z M600 459 L511 0 L629 0 L719 459 L600 459 Z M335 159 C326 111 284 82 225 82 L149 83 L175 217 L259 218 C319 218 342 197 335 159 L335 159 Z " />
<glyph glyph-name="uni044C" unicode="&#x44c;" horiz-adv-x="482" d="M302 300 L191 300 L222 459 L105 459 L16 0 L133 0 L252 1 C343 1 432 52 449 140 C468 238 393 300 302 300 L302 300 Z M335 159 C326 111 284 82 225 82 L149 83 L175 217 L259 218 C319 218 342 197 335 159 L335 159 Z " />
<glyph glyph-name="uni044D" unicode="&#x44d;" horiz-adv-x="461" d="M235 471 C165 471 109 449 56 417 L102 349 C133 372 167 382 199 382 C271 382 313 336 315 267 L140 267 L125 190 L303 190 C280 121 226 75 156 75 C116 75 84 91 64 114 L-22 34 C15 2 62 -14 125 -14 C272 -14 400 95 427 238 C453 371 374 471 235 471 L235 471 Z " />
<glyph glyph-name="uni044E" unicode="&#x44e;" horiz-adv-x="763" d="M527 470 C402 470 297 389 259 274 L187 274 L223 458 L105 458 L16 0 L134 0 L170 183 L245 183 C244 68 322 -14 448 -14 C586 -14 700 85 726 219 C754 361 672 470 527 470 L527 470 Z M607 237 C590 151 525 86 452 86 C387 86 354 142 369 219 C385 305 451 370 524 370 C589 370 622 314 607 237 L607 237 Z " />
<glyph glyph-name="uni044F" unicode="&#x44f;" horiz-adv-x="529" d="M513 459 L280 459 C191 459 99 413 81 325 C67 252 106 207 163 186 L-15 0 L118 0 L274 172 L340 172 L306 0 L424 0 L513 459 Z M259 254 C209 254 188 272 195 309 C202 347 235 371 289 371 L379 371 L356 254 L259 254 Z " />
<glyph glyph-name="uni0450" unicode="&#x450;" horiz-adv-x="526" d="M417 534 L462 534 L356 694 L250 678 L319 585 C359 534 383 534 417 534 L417 534 Z M325 471 C183 471 63 371 37 236 C9 94 93 -14 253 -14 C331 -14 398 10 450 56 L377 126 C345 94 305 74 253 74 C178 74 146 126 154 201 L264 201 C419 201 502 248 505 333 C509 416 427 471 325 471 L325 471 Z M397 329 C394 287 327 271 261 271 L172 271 C200 340 255 382 318 382 C364 382 398 360 397 329 L397 329 Z " />
<glyph glyph-name="uni0451" unicode="&#x451;" horiz-adv-x="526" d="M249 546 C279 546 310 571 316 601 C322 634 298 662 264 662 C233 662 206 638 200 609 C194 575 215 546 249 546 L249 546 Z M473 662 C442 662 415 638 409 609 C403 575 424 546 458 546 C488 546 518 571 524 601 C530 634 507 662 473 662 L473 662 Z M325 471 C183 471 63 371 37 236 C9 94 93 -14 253 -14 C331 -14 398 10 450 56 L377 126 C345 94 305 74 253 74 C178 74 146 126 154 201 L264 201 C419 201 502 248 505 333 C509 416 427 471 325 471 L325 471 Z M397 329 C394 287 327 271 261 271 L172 271 C200 340 255 382 318 382 C364 382 398 360 397 329 L397 329 Z " />
<glyph glyph-name="uni0452" unicode="&#x452;" horiz-adv-x="585" d="M379 310 C316 310 265 287 227 247 L252 376 L452 376 L468 459 L268 459 L311 680 L193 680 L150 459 L80 459 L64 376 L134 376 L61 0 L179 0 L199 105 L199 97 C216 187 283 219 338 219 C394 219 424 179 413 120 C400 57 343 24 300 24 C282 24 273 25 260 28 L246 -60 C264 -66 281 -70 316 -70 C402 -70 504 -8 528 114 C555 256 467 310 379 310 L379 310 Z " />
<glyph glyph-name="uni0453" unicode="&#x453;" horiz-adv-x="405" d="M370 590 L472 683 L372 699 L209 539 L254 539 C288 539 312 539 370 590 L370 590 Z M442 459 L105 459 L16 0 L133 0 L204 358 L422 358 L442 459 Z " />
<glyph glyph-name="uni0454" unicode="&#x454;" horiz-adv-x="462" d="M245 75 C175 75 138 121 142 190 L321 190 L336 267 L160 267 C189 336 250 382 321 382 C353 382 383 372 405 349 L478 417 C438 449 390 471 320 471 C180 471 63 371 37 238 C9 95 95 -14 241 -14 C304 -14 357 2 408 34 L353 114 C323 91 285 75 245 75 L245 75 Z " />
<glyph glyph-name="uni0455" unicode="&#x455;" horiz-adv-x="448" d="M-7 62 C24 19 89 -14 183 -14 C298 -14 375 42 391 123 C423 292 183 232 201 322 C207 355 236 378 284 378 C312 379 349 365 370 340 L441 411 C415 442 358 471 283 471 C171 471 96 413 79 329 C46 156 280 215 264 132 C258 100 226 77 174 77 C136 77 98 90 71 134 L-7 62 Z " />
<glyph glyph-name="uni0456" unicode="&#x456;" horiz-adv-x="269" d="M194 535 C233 535 271 566 278 604 C286 642 260 673 221 673 C182 673 144 642 136 604 C129 566 155 535 194 535 L194 535 Z M31 0 L148 0 L238 459 L120 459 L31 0 Z " />
<glyph glyph-name="uni0457" unicode="&#x457;" horiz-adv-x="269" d="M110 667 C79 667 52 643 46 614 C40 580 61 551 95 551 C125 551 156 576 162 606 C168 639 144 667 110 667 L110 667 Z M319 667 C288 667 261 643 255 614 C249 580 270 551 304 551 C334 551 364 576 370 606 C376 639 353 667 319 667 L319 667 Z M31 0 L148 0 L238 459 L120 459 L31 0 Z " />
<glyph glyph-name="uni0458" unicode="&#x458;" horiz-adv-x="294" d="M217 535 C256 535 294 566 301 604 C309 642 283 673 244 673 C205 673 167 642 159 604 C152 566 178 535 217 535 L217 535 Z M168 -28 L262 459 L143 459 L51 -18 C37 -92 -2 -129 -82 -117 L-95 -207 C19 -229 136 -197 168 -28 L168 -28 Z " />
<glyph glyph-name="uni0459" unicode="&#x459;" horiz-adv-x="788" d="M608 300 L497 300 L528 459 L162 459 L126 274 C107 174 77 97 11 97 C8 97 1 97 -5 98 L-16 -1 C-7 -2 18 -4 32 -4 C136 -4 204 71 240 251 L261 360 L392 360 L321 0 L438 0 L558 1 C648 1 737 52 755 140 C774 238 698 300 608 300 L608 300 Z M640 159 C631 111 589 82 530 82 L454 83 L481 217 L564 218 C624 218 647 197 640 159 L640 159 Z " />
<glyph glyph-name="uni045A" unicode="&#x45a;" horiz-adv-x="781" d="M601 300 L479 300 L510 459 L391 459 L360 300 L193 300 L224 459 L105 459 L16 0 L134 0 L177 217 L344 218 L302 0 L420 0 L551 1 C641 1 731 52 748 140 C767 238 691 300 601 300 L601 300 Z M634 159 C624 111 582 82 523 82 L436 83 L463 218 L558 218 C617 218 641 197 634 159 L634 159 Z " />
<glyph glyph-name="uni045B" unicode="&#x45b;" horiz-adv-x="587" d="M371 310 C313 310 264 288 228 250 L252 376 L452 376 L468 459 L268 459 L311 680 L193 680 L150 459 L80 459 L64 376 L134 376 L61 0 L179 0 L198 100 L198 91 C213 174 275 210 328 210 C386 210 402 170 388 100 L369 0 L487 0 L510 121 C538 261 453 310 371 310 L371 310 Z " />
<glyph glyph-name="uni045C" unicode="&#x45c;" horiz-adv-x="497" d="M394 590 L496 683 L396 699 L233 539 L278 539 C312 539 336 539 394 590 L394 590 Z M517 459 L378 459 L189 283 L223 459 L105 459 L16 0 L133 0 L173 202 L308 0 L440 0 L267 243 L517 459 Z " />
<glyph glyph-name="uni045D" unicode="&#x45d;" horiz-adv-x="554" d="M400 539 L445 539 L339 699 L233 683 L302 590 C342 539 366 539 400 539 L400 539 Z M427 459 L166 170 L221 459 L105 459 L16 0 L127 0 L388 289 L333 0 L448 0 L538 459 L427 459 Z " />
<glyph glyph-name="uni045E" unicode="&#x45e;" horiz-adv-x="517" d="M321 534 C416 534 476 579 492 653 L426 653 C416 625 382 595 325 595 C271 595 252 619 254 653 L189 653 C178 585 223 534 321 534 L321 534 Z M425 459 L240 151 L176 459 L52 459 L157 16 L13 -210 L137 -210 L554 459 L425 459 Z " />
<glyph glyph-name="uni045F" unicode="&#x45f;" horiz-adv-x="535" d="M401 459 L331 97 L299 97 L299 98 L187 98 L187 97 L153 97 L224 459 L105 459 L16 -1 L167 -1 L145 -115 L258 -115 L280 -1 L430 -1 L520 459 L401 459 Z " />
<glyph glyph-name="uni0462" unicode="&#x462;" horiz-adv-x="640" d="M405 390 L286 390 L301 466 L488 466 L504 550 L317 550 L335 640 L209 640 L191 550 L106 550 L89 466 L175 466 L84 0 L210 0 L337 1 C448 1 559 69 582 186 C607 312 516 390 405 390 L405 390 Z M456 204 C443 136 387 95 307 95 L229 96 L267 294 L353 295 C434 295 467 263 456 204 L456 204 Z " />
<glyph glyph-name="uni0463" unicode="&#x463;" horiz-adv-x="568" d="M350 300 L236 300 L251 376 L452 376 L468 459 L267 459 L310 680 L193 680 L150 459 L80 459 L64 376 L134 376 L61 0 L178 0 L295 1 C386 1 478 55 496 146 C514 241 441 300 350 300 L350 300 Z M379 153 C370 108 332 82 273 82 L194 83 L220 217 L302 218 C362 218 387 194 379 153 L379 153 Z " />
<glyph glyph-name="uni0472" unicode="&#x472;" horiz-adv-x="781" d="M468 656 C263 656 100 511 64 328 C28 139 139 -14 349 -14 C554 -14 718 133 753 316 C789 505 678 656 468 656 L468 656 Z M457 544 C574 544 634 464 628 362 L207 362 C244 464 339 544 457 544 L457 544 Z M361 98 C244 98 184 180 190 281 L611 281 C573 180 477 98 361 98 L361 98 Z " />
<glyph glyph-name="uni0473" unicode="&#x473;" horiz-adv-x="573" d="M330 471 C182 471 63 368 36 232 C9 92 91 -14 243 -14 C391 -14 510 89 537 225 C564 365 482 471 330 471 L330 471 Z M320 383 C392 383 433 333 430 262 L156 262 C183 334 246 383 320 383 L320 383 Z M254 74 C182 74 140 124 142 195 L416 195 C389 123 327 74 254 74 L254 74 Z " />
<glyph glyph-name="uni0474" unicode="&#x474;" horiz-adv-x="712" d="M697 647 C660 647 591 638 539 547 L317 154 L232 640 L97 640 L235 0 L343 0 L631 491 C645 517 677 538 702 538 C713 538 723 536 735 532 L782 631 C757 640 730 647 697 647 L697 647 Z " />
<glyph glyph-name="uni0475" unicode="&#x475;" horiz-adv-x="549" d="M521 468 C479 468 428 457 381 380 L236 137 L176 459 L52 459 L162 0 L260 0 L463 326 C476 351 501 369 524 369 C532 369 543 368 551 364 L595 454 C572 462 552 468 521 468 L521 468 Z " />
<glyph glyph-name="uni0490" unicode="&#x490;" horiz-adv-x="513" d="M573 760 L476 760 L443 640 L161 640 L36 0 L162 0 L266 533 L529 533 L550 640 L573 760 Z " />
<glyph glyph-name="uni0491" unicode="&#x491;" horiz-adv-x="405" d="M466 585 L369 585 L334 459 L105 459 L16 0 L133 0 L204 358 L422 358 L442 459 L441 459 L466 585 Z " />
<glyph glyph-name="uni04BB" unicode="&#x4bb;" horiz-adv-x="546" d="M363 471 C302 471 251 446 213 408 L266 680 L148 680 L16 0 L134 0 L185 264 C207 342 262 370 310 370 C372 370 390 327 376 257 L327 0 L445 0 L500 285 C527 425 444 471 363 471 L363 471 Z " />
<glyph glyph-name="uni04C0" unicode="&#x4c0;" horiz-adv-x="308" d="M297 640 L171 640 L46 0 L172 0 L297 640 Z " />
<glyph glyph-name="uni04D8" unicode="&#x4d8;" horiz-adv-x="725" d="M427 655 C323 655 226 616 155 547 L237 472 C287 520 343 545 412 545 C524 545 583 467 579 365 L72 365 L62 313 C25 120 126 -12 311 -12 C500 -12 662 136 697 319 C732 504 627 655 427 655 L427 655 Z M326 92 C221 92 168 163 180 275 L560 275 C521 170 433 92 326 92 L326 92 Z " />
<glyph glyph-name="uni04D9" unicode="&#x4d9;" horiz-adv-x="526" d="M273 473 C195 473 128 449 76 403 L149 333 C181 365 221 385 273 385 C348 385 380 333 372 258 L262 258 C107 258 24 211 21 126 C17 43 99 -12 201 -12 C343 -12 463 88 489 223 C517 365 433 473 273 473 L273 473 Z M208 77 C162 77 128 99 129 130 C132 172 199 188 265 188 L354 188 C326 119 271 77 208 77 L208 77 Z " />
<glyph glyph-name="uni04E2" unicode="&#x4e2;" horiz-adv-x="727" d="M623 783 L329 783 L317 720 L612 720 L623 783 Z M609 640 L200 198 L293 640 L172 640 L36 0 L153 0 L562 443 L468 0 L590 0 L725 640 L609 640 Z " />
<glyph glyph-name="uni04E3" unicode="&#x4e3;" horiz-adv-x="554" d="M496 632 L202 632 L190 569 L485 569 L496 632 Z M427 459 L166 170 L221 459 L105 459 L16 0 L127 0 L388 289 L333 0 L448 0 L538 459 L427 459 Z " />
<glyph glyph-name="uni04E8" unicode="&#x4e8;" horiz-adv-x="781" d="M468 656 C263 656 100 511 64 328 C28 139 139 -14 349 -14 C554 -14 718 133 753 316 C789 505 678 656 468 656 L468 656 Z M457 544 C574 544 634 464 628 362 L207 362 C244 464 339 544 457 544 L457 544 Z M361 98 C244 98 184 180 190 281 L611 281 C573 180 477 98 361 98 L361 98 Z " />
<glyph glyph-name="uni04E9" unicode="&#x4e9;" horiz-adv-x="573" d="M330 471 C182 471 63 368 36 232 C9 92 91 -14 243 -14 C391 -14 510 89 537 225 C564 365 482 471 330 471 L330 471 Z M320 383 C392 383 433 333 430 262 L156 262 C183 334 246 383 320 383 L320 383 Z M254 74 C182 74 140 124 142 195 L416 195 C389 123 327 74 254 74 L254 74 Z " />
<glyph glyph-name="uni04EE" unicode="&#x4ee;" horiz-adv-x="615" d="M560 783 L266 783 L254 720 L549 720 L560 783 Z M532 640 L328 358 L238 640 L97 640 L235 231 L68 0 L214 0 L678 640 L532 640 Z " />
<glyph glyph-name="uni04EF" unicode="&#x4ef;" horiz-adv-x="517" d="M481 628 L187 628 L175 565 L470 565 L481 628 Z M425 459 L240 151 L176 459 L52 459 L157 16 L13 -210 L137 -210 L554 459 L425 459 Z " />
<glyph glyph-name="uni0E3F" unicode="&#xe3f;" horiz-adv-x="560" d="M507 481 C523 567 475 624 382 637 L402 744 L329 744 L309 640 L149 640 L26 0 L186 0 L167 -98 L240 -98 L259 0 C387 6 476 74 496 179 C514 272 471 333 380 351 C452 372 494 416 507 481 L507 481 Z M393 477 C382 422 337 389 276 389 L218 389 L249 550 L314 550 C375 550 402 526 393 477 L393 477 Z M378 199 C365 132 309 90 233 90 L162 90 L201 296 L274 296 C351 296 390 262 378 199 L378 199 Z " />
<glyph glyph-name="uni1E02" unicode="&#x1e02;" horiz-adv-x="590" d="M366 698 C402 698 437 727 444 762 C451 798 427 827 391 827 C354 827 319 798 312 762 C305 727 329 698 366 698 L366 698 Z M539 481 C558 579 490 640 364 640 L161 640 L38 0 L266 0 C409 0 509 69 531 179 C549 272 503 333 409 351 C483 372 527 416 539 481 L539 481 Z M418 477 C408 422 361 389 298 389 L238 389 L269 550 L336 550 C400 550 428 526 418 477 L418 477 Z M404 199 C391 132 335 90 255 90 L182 90 L221 296 L296 296 C376 296 416 262 404 199 L404 199 Z " />
<glyph glyph-name="uni1E03" unicode="&#x1e03;" horiz-adv-x="572" d="M366 471 C306 471 255 449 214 414 L266 680 L148 680 L16 0 L113 0 L138 59 C165 17 211 -10 279 -10 C397 -10 507 78 536 226 C564 379 487 471 366 471 L366 471 Z M396 542 C432 542 467 571 474 606 C481 642 457 671 421 671 C384 671 349 642 342 606 C335 571 359 542 396 542 L396 542 Z M415 233 C400 150 335 90 261 90 C187 90 148 147 164 226 C180 310 245 371 321 371 C394 371 431 313 415 233 L415 233 Z " />
<glyph glyph-name="uni1E04" unicode="&#x1e04;" horiz-adv-x="590" d="M539 481 C558 579 490 640 364 640 L161 640 L38 0 L266 0 C409 0 509 69 531 179 C549 272 503 333 409 351 C483 372 527 416 539 481 L539 481 Z M418 477 C408 422 361 389 298 389 L238 389 L269 550 L336 550 C400 550 428 526 418 477 L418 477 Z M404 199 C391 132 335 90 255 90 L182 90 L221 296 L296 296 C376 296 416 262 404 199 L404 199 Z M243 -57 C207 -57 171 -86 165 -122 C158 -157 182 -186 218 -186 C254 -186 290 -157 296 -122 C303 -86 279 -57 243 -57 L243 -57 Z " />
<glyph glyph-name="uni1E05" unicode="&#x1e05;" horiz-adv-x="572" d="M366 471 C306 471 255 449 214 414 L266 680 L148 680 L16 0 L113 0 L138 59 C165 17 211 -10 279 -10 C397 -10 507 78 536 226 C564 379 487 471 366 471 L366 471 Z M415 233 C400 150 335 90 261 90 C187 90 148 147 164 226 C180 310 245 371 321 371 C394 371 431 313 415 233 L415 233 Z M248 -57 C212 -57 176 -86 170 -122 C163 -157 187 -186 223 -186 C259 -186 295 -157 301 -122 C308 -86 284 -57 248 -57 L248 -57 Z " />
<glyph glyph-name="uni1E0A" unicode="&#x1e0a;" horiz-adv-x="680" d="M403 698 C439 698 474 727 481 762 C488 798 464 827 428 827 C391 827 356 798 349 762 C342 727 366 698 403 698 L403 698 Z M368 640 L161 640 L38 0 L248 0 C467 0 617 137 652 317 C687 500 587 640 368 640 L368 640 Z M524 324 C497 187 398 104 249 104 L184 104 L267 536 L335 536 C484 536 549 457 524 324 L524 324 Z " />
<glyph glyph-name="uni1E0B" unicode="&#x1e0b;" horiz-adv-x="575" d="M484 680 L430 414 C404 449 362 471 301 471 C180 471 67 379 35 226 C5 78 80 -10 198 -10 C266 -10 323 17 366 59 L369 0 L466 0 L602 680 L484 680 Z M301 542 C337 542 372 571 379 606 C386 642 362 671 326 671 C289 671 254 642 247 606 C240 571 264 542 301 542 L301 542 Z M256 90 C181 90 141 150 158 233 C174 313 234 371 306 371 C383 371 424 310 406 226 C391 147 330 90 256 90 L256 90 Z " />
<glyph glyph-name="uni1E0C" unicode="&#x1e0c;" horiz-adv-x="680" d="M368 640 L161 640 L38 0 L248 0 C467 0 617 137 652 317 C687 500 587 640 368 640 L368 640 Z M524 324 C497 187 398 104 249 104 L184 104 L267 536 L335 536 C484 536 549 457 524 324 L524 324 Z M256 -57 C220 -57 184 -86 178 -122 C171 -157 195 -186 231 -186 C267 -186 303 -157 309 -122 C316 -86 292 -57 256 -57 L256 -57 Z " />
<glyph glyph-name="uni1E0D" unicode="&#x1e0d;" horiz-adv-x="568" d="M484 680 L430 414 C404 449 362 471 301 471 C180 471 67 379 35 226 C5 78 80 -10 198 -10 C266 -10 323 17 366 59 L369 0 L466 0 L602 680 L484 680 Z M256 90 C181 90 141 150 158 233 C174 313 234 371 306 371 C383 371 424 310 406 226 C391 147 330 90 256 90 L256 90 Z M217 -57 C180 -57 145 -86 138 -122 C131 -157 155 -186 192 -186 C228 -186 263 -157 270 -122 C277 -86 253 -57 217 -57 L217 -57 Z " />
<glyph glyph-name="uni1E0E" unicode="&#x1e0e;" horiz-adv-x="680" d="M368 640 L161 640 L38 0 L248 0 C467 0 617 137 652 317 C687 500 587 640 368 640 L368 640 Z M524 324 C497 187 398 104 249 104 L184 104 L267 536 L335 536 C484 536 549 457 524 324 L524 324 Z M94 -138 L388 -138 L400 -75 L105 -75 L94 -138 Z " />
<glyph glyph-name="uni1E0F" unicode="&#x1e0f;" horiz-adv-x="568" d="M484 680 L430 414 C404 449 362 471 301 471 C180 471 67 379 35 226 C5 78 80 -10 198 -10 C266 -10 323 17 366 59 L369 0 L466 0 L602 680 L484 680 Z M256 90 C181 90 141 150 158 233 C174 313 234 371 306 371 C383 371 424 310 406 226 C391 147 330 90 256 90 L256 90 Z M55 -138 L350 -138 L361 -75 L67 -75 L55 -138 Z " />
<glyph glyph-name="uni1E12" unicode="&#x1e12;" horiz-adv-x="680" d="M368 640 L161 640 L38 0 L248 0 C467 0 617 137 652 317 C687 500 587 640 368 640 L368 640 Z M524 324 C497 187 398 104 249 104 L184 104 L267 536 L335 536 C484 536 549 457 524 324 L524 324 Z M211 -50 L78 -168 L142 -168 C169 -168 179 -161 204 -141 L249 -104 L280 -141 C297 -162 304 -168 331 -168 L396 -168 L308 -50 L211 -50 Z " />
<glyph glyph-name="uni1E13" unicode="&#x1e13;" horiz-adv-x="575" d="M484 680 L430 414 C404 449 362 471 301 471 C180 471 67 379 35 226 C5 78 80 -10 198 -10 C266 -10 323 17 366 59 L369 0 L466 0 L602 680 L484 680 Z M256 90 C181 90 141 150 158 233 C174 313 234 371 306 371 C383 371 424 310 406 226 C391 147 330 90 256 90 L256 90 Z M179 -50 L46 -168 L110 -168 C137 -168 147 -161 172 -141 L217 -104 L248 -141 C265 -162 272 -168 299 -168 L364 -168 L276 -50 L179 -50 Z " />
<glyph glyph-name="uni1E1E" unicode="&#x1e1e;" horiz-adv-x="517" d="M373 698 C409 698 444 727 451 762 C458 798 434 827 398 827 C361 827 326 798 319 762 C312 727 336 698 373 698 L373 698 Z M545 536 L565 640 L161 640 L37 0 L163 0 L215 266 L447 266 L466 363 L233 363 L267 536 L545 536 Z " />
<glyph glyph-name="uni1E1F" unicode="&#x1e1f;" horiz-adv-x="379" d="M329 742 C365 742 400 771 407 806 C414 842 390 871 354 871 C317 871 282 842 275 806 C268 771 292 742 329 742 L329 742 Z M357 598 C370 598 386 596 412 582 L463 665 C426 689 395 699 349 699 C267 699 186 642 162 521 L150 459 L80 459 L63 367 L133 367 L22 -210 L136 -210 L250 367 L365 367 L382 459 L269 459 L282 527 C290 568 314 598 357 598 L357 598 Z " />
<glyph glyph-name="uni1E24" unicode="&#x1e24;" horiz-adv-x="691" d="M562 640 L512 379 L237 379 L287 640 L161 640 L38 0 L164 0 L217 277 L492 277 L439 0 L565 0 L688 640 L562 640 Z M290 -57 C254 -57 218 -86 212 -122 C205 -157 229 -186 265 -186 C301 -186 337 -157 343 -122 C350 -86 326 -57 290 -57 L290 -57 Z " />
<glyph glyph-name="uni1E25" unicode="&#x1e25;" horiz-adv-x="546" d="M363 471 C302 471 251 446 213 408 L266 680 L148 680 L16 0 L134 0 L185 264 C207 342 262 370 310 370 C372 370 390 327 376 257 L327 0 L445 0 L500 285 C527 425 444 471 363 471 L363 471 Z M228 -57 C192 -57 156 -86 150 -122 C143 -157 167 -186 203 -186 C239 -186 275 -157 281 -122 C288 -86 264 -57 228 -57 L228 -57 Z " />
<glyph glyph-name="uni1E2E" unicode="&#x1e2e;" horiz-adv-x="308" d="M219 816 L262 816 C289 816 308 819 329 837 L430 919 L340 937 L219 816 Z M158 808 C128 808 100 784 94 755 C88 721 109 692 144 692 C174 692 204 717 210 747 C216 780 192 808 158 808 L158 808 Z M367 808 C337 808 309 784 304 755 C297 721 318 692 353 692 C383 692 413 717 419 747 C424 780 401 808 367 808 L367 808 Z M297 640 L171 640 L46 0 L172 0 L297 640 Z " />
<glyph glyph-name="uni1E2F" unicode="&#x1e2f;" horiz-adv-x="269" d="M295 738 L397 831 L297 847 L134 687 L179 687 C213 687 237 687 295 738 L295 738 Z M110 667 C79 667 52 643 46 614 C40 580 61 551 95 551 C125 551 156 576 162 606 C168 639 144 667 110 667 L110 667 Z M319 667 C288 667 261 643 255 614 C249 580 270 551 304 551 C334 551 364 576 370 606 C376 639 353 667 319 667 L319 667 Z M31 0 L148 0 L238 459 L120 459 L31 0 Z " />
<glyph glyph-name="uni1E36" unicode="&#x1e36;" horiz-adv-x="507" d="M185 107 L287 640 L161 640 L38 0 L427 0 L448 107 L185 107 Z M207 -57 C171 -57 135 -86 129 -122 C122 -157 146 -186 182 -186 C218 -186 254 -157 260 -122 C267 -86 243 -57 207 -57 L207 -57 Z " />
<glyph glyph-name="uni1E37" unicode="&#x1e37;" horiz-adv-x="247" d="M20 0 L138 0 L270 680 L152 680 L20 0 Z M42 -186 C78 -186 114 -157 120 -122 C127 -86 103 -57 67 -57 C31 -57 -5 -86 -11 -122 C-18 -157 6 -186 42 -186 L42 -186 Z " />
<glyph glyph-name="uni1E3C" unicode="&#x1e3c;" horiz-adv-x="507" d="M185 107 L287 640 L161 640 L38 0 L427 0 L448 107 L185 107 Z M163 -50 L30 -168 L94 -168 C121 -168 131 -161 156 -141 L201 -104 L232 -141 C249 -162 256 -168 283 -168 L348 -168 L260 -50 L163 -50 Z " />
<glyph glyph-name="uni1E3D" unicode="&#x1e3d;" horiz-adv-x="247" d="M20 0 L138 0 L270 680 L152 680 L20 0 Z M120 -50 L23 -50 L-110 -168 L-46 -168 C-19 -168 -9 -161 16 -141 L61 -104 L92 -141 C109 -162 116 -168 143 -168 L208 -168 L120 -50 Z " />
<glyph glyph-name="uni1E3E" unicode="&#x1e3e;" horiz-adv-x="836" d="M580 741 L682 834 L582 850 L419 690 L464 690 C498 690 522 690 580 741 L580 741 Z M720 640 L720 639 L719 640 L437 325 L275 638 L275 640 L161 640 L38 0 L161 0 L245 440 L405 155 L672 438 L588 0 L710 0 L834 640 L720 640 Z " />
<glyph glyph-name="uni1E3F" unicode="&#x1e3f;" horiz-adv-x="805" d="M556 585 L658 678 L558 694 L395 534 L440 534 C474 534 498 534 556 585 L556 585 Z M626 471 C548 471 502 441 466 403 C446 449 404 471 349 471 C298 471 247 448 212 400 L209 459 L105 459 L18 0 L136 0 L186 258 C204 331 245 370 299 370 C353 370 365 326 352 259 L302 0 L421 0 L467 245 L467 240 C482 322 523 370 583 370 C637 370 650 326 637 260 L587 0 L705 0 L756 268 C783 408 726 471 626 471 L626 471 Z " />
<glyph glyph-name="uni1E44" unicode="&#x1e44;" horiz-adv-x="718" d="M450 698 C486 698 521 727 528 762 C535 798 511 827 475 827 C438 827 403 798 396 762 C389 727 413 698 450 698 L450 698 Z M593 640 L508 198 L277 640 L161 640 L38 0 L160 0 L245 442 L475 0 L592 0 L715 640 L593 640 Z " />
<glyph glyph-name="uni1E45" unicode="&#x1e45;" horiz-adv-x="546" d="M336 542 C372 542 407 571 414 606 C421 642 397 671 361 671 C324 671 289 642 282 606 C275 571 299 542 336 542 L336 542 Z M364 471 C302 471 251 446 213 407 L209 459 L105 459 L17 0 L135 0 L185 260 C206 341 262 370 311 370 C372 370 391 327 377 257 L328 0 L446 0 L501 285 C528 425 444 471 364 471 L364 471 Z " />
<glyph glyph-name="uni1E46" unicode="&#x1e46;" horiz-adv-x="718" d="M593 640 L508 198 L277 640 L161 640 L38 0 L160 0 L245 442 L475 0 L592 0 L715 640 L593 640 Z M303 -57 C267 -57 231 -86 225 -122 C218 -157 242 -186 278 -186 C314 -186 350 -157 356 -122 C363 -86 339 -57 303 -57 L303 -57 Z " />
<glyph glyph-name="uni1E47" unicode="&#x1e47;" horiz-adv-x="546" d="M364 471 C302 471 251 446 213 407 L209 459 L105 459 L17 0 L135 0 L185 260 C206 341 262 370 311 370 C372 370 391 327 377 257 L328 0 L446 0 L501 285 C528 425 444 471 364 471 L364 471 Z M218 -57 C182 -57 146 -86 140 -122 C133 -157 157 -186 193 -186 C229 -186 265 -157 271 -122 C278 -86 254 -57 218 -57 L218 -57 Z " />
<glyph glyph-name="uni1E4A" unicode="&#x1e4a;" horiz-adv-x="718" d="M593 640 L508 198 L277 640 L161 640 L38 0 L160 0 L245 442 L475 0 L592 0 L715 640 L593 640 Z M259 -50 L126 -168 L190 -168 C217 -168 227 -161 252 -141 L297 -104 L328 -141 C345 -162 352 -168 379 -168 L444 -168 L356 -50 L259 -50 Z " />
<glyph glyph-name="uni1E4B" unicode="&#x1e4b;" horiz-adv-x="546" d="M364 471 C302 471 251 446 213 407 L209 459 L105 459 L17 0 L135 0 L185 260 C206 341 262 370 311 370 C372 370 391 327 377 257 L328 0 L446 0 L501 285 C528 425 444 471 364 471 L364 471 Z M173 -50 L40 -168 L104 -168 C131 -168 141 -161 166 -141 L211 -104 L242 -141 C259 -162 266 -168 293 -168 L358 -168 L270 -50 L173 -50 Z " />
<glyph glyph-name="uni1E4C" unicode="&#x1e4c;" horiz-adv-x="781" d="M459 821 L502 821 C529 821 548 824 569 842 L670 924 L580 942 L459 821 Z M554 692 C612 692 642 735 660 763 L611 797 C597 777 587 756 553 756 C512 756 498 801 440 801 C385 801 355 760 333 735 L382 696 C393 712 407 737 442 737 C486 737 498 692 554 692 L554 692 Z M349 -14 C554 -14 718 133 753 316 C789 505 678 656 468 656 C263 656 100 511 64 328 C28 139 139 -14 349 -14 L349 -14 Z M361 98 C231 98 171 200 194 316 C217 439 322 544 457 544 C587 544 647 445 624 328 C601 206 495 98 361 98 L361 98 Z " />
<glyph glyph-name="uni1E4D" unicode="&#x1e4d;" horiz-adv-x="572" d="M318 665 L361 665 C388 665 407 668 428 686 L529 768 L439 786 L318 665 Z M413 536 C471 536 501 579 519 607 L470 641 C456 621 446 600 412 600 C371 600 357 645 299 645 C244 645 214 604 192 579 L241 540 C252 556 266 581 301 581 C345 581 357 536 413 536 L413 536 Z M242 -14 C388 -14 510 89 536 225 C562 365 479 471 330 471 C183 471 62 368 36 232 C9 92 92 -14 242 -14 L242 -14 Z M255 87 C182 87 141 145 157 225 C173 309 240 370 316 370 C389 370 430 311 415 232 C399 148 331 87 255 87 L255 87 Z " />
<glyph glyph-name="uni1E50" unicode="&#x1e50;" horiz-adv-x="781" d="M557 798 L483 919 L387 901 L455 819 C469 801 487 798 514 798 L557 798 Z M339 692 L633 692 L645 755 L351 755 L339 692 Z M349 -14 C554 -14 718 133 753 316 C789 505 678 656 468 656 C263 656 100 511 64 328 C28 139 139 -14 349 -14 L349 -14 Z M361 98 C231 98 171 200 194 316 C217 439 322 544 457 544 C587 544 647 445 624 328 C601 206 495 98 361 98 L361 98 Z " />
<glyph glyph-name="uni1E51" unicode="&#x1e51;" horiz-adv-x="572" d="M415 643 L342 764 L245 746 L313 663 C328 646 345 643 372 643 L415 643 Z M198 536 L492 536 L504 599 L210 599 L198 536 Z M242 -14 C388 -14 510 89 536 225 C562 365 479 471 330 471 C183 471 62 368 36 232 C9 92 92 -14 242 -14 L242 -14 Z M255 87 C182 87 141 145 157 225 C173 309 240 370 316 370 C389 370 430 311 415 232 C399 148 331 87 255 87 L255 87 Z " />
<glyph glyph-name="uni1E52" unicode="&#x1e52;" horiz-adv-x="781" d="M455 798 L498 798 C525 798 544 801 565 819 L666 901 L576 919 L455 798 Z M339 692 L633 692 L645 755 L351 755 L339 692 Z M349 -14 C554 -14 718 133 753 316 C789 505 678 656 468 656 C263 656 100 511 64 328 C28 139 139 -14 349 -14 L349 -14 Z M361 98 C231 98 171 200 194 316 C217 439 322 544 457 544 C587 544 647 445 624 328 C601 206 495 98 361 98 L361 98 Z " />
<glyph glyph-name="uni1E53" unicode="&#x1e53;" horiz-adv-x="572" d="M314 643 L357 643 C384 643 403 646 424 663 L525 746 L435 764 L314 643 Z M198 536 L492 536 L504 599 L210 599 L198 536 Z M242 -14 C388 -14 510 89 536 225 C562 365 479 471 330 471 C183 471 62 368 36 232 C9 92 92 -14 242 -14 L242 -14 Z M255 87 C182 87 141 145 157 225 C173 309 240 370 316 370 C389 370 430 311 415 232 C399 148 331 87 255 87 L255 87 Z " />
<glyph glyph-name="uni1E56" unicode="&#x1e56;" horiz-adv-x="570" d="M380 698 C416 698 451 727 458 762 C465 798 441 827 405 827 C368 827 333 798 326 762 C319 727 343 698 380 698 L380 698 Z M398 640 L161 640 L38 0 L164 0 L210 241 L325 241 C438 241 554 314 577 436 C601 562 510 640 398 640 L398 640 Z M448 445 C436 377 381 337 299 337 L229 337 L269 545 L343 545 C426 545 461 510 448 445 L448 445 Z " />
<glyph glyph-name="uni1E57" unicode="&#x1e57;" horiz-adv-x="573" d="M353 542 C389 542 424 571 431 606 C438 642 414 671 378 671 C341 671 306 642 299 606 C292 571 316 542 353 542 L353 542 Z M368 471 C303 471 249 446 208 407 L209 459 L105 459 L-25 -210 L93 -210 L144 51 C172 14 217 -10 281 -10 C398 -10 508 78 537 226 C566 379 488 471 368 471 L368 471 Z M416 233 C401 150 337 90 262 90 C188 90 150 147 166 226 C181 310 246 371 323 371 C395 371 432 313 416 233 L416 233 Z " />
<glyph glyph-name="uni1E60" unicode="&#x1e60;" horiz-adv-x="549" d="M372 698 C408 698 443 727 450 762 C457 798 433 827 397 827 C360 827 325 798 318 762 C311 727 335 698 372 698 L372 698 Z M232 -14 C333 -14 459 38 486 176 C506 277 442 332 346 368 C270 399 232 425 240 470 C249 517 300 551 353 551 C397 551 430 535 464 498 L553 578 C511 622 453 656 361 656 C249 656 132 582 111 473 C89 358 174 313 265 279 C323 256 363 233 353 177 C342 121 280 92 229 92 C177 92 132 110 98 167 L3 85 C54 19 128 -14 232 -14 L232 -14 Z " />
<glyph glyph-name="uni1E61" unicode="&#x1e61;" horiz-adv-x="448" d="M297 542 C333 542 368 571 375 606 C382 642 358 671 322 671 C285 671 250 642 243 606 C236 571 260 542 297 542 L297 542 Z M-7 62 C24 19 89 -14 183 -14 C298 -14 375 42 391 123 C423 292 183 232 201 322 C207 355 236 378 284 378 C312 379 349 365 370 340 L441 411 C415 442 358 471 283 471 C171 471 96 413 79 329 C46 156 280 215 264 132 C258 100 226 77 174 77 C136 77 98 90 71 134 L-7 62 Z " />
<glyph glyph-name="uni1E62" unicode="&#x1e62;" horiz-adv-x="549" d="M232 -14 C333 -14 459 38 486 176 C506 277 442 332 346 368 C270 399 232 425 240 470 C249 517 300 551 353 551 C397 551 430 535 464 498 L553 578 C511 622 453 656 361 656 C249 656 132 582 111 473 C89 358 174 313 265 279 C323 256 363 233 353 177 C342 121 280 92 229 92 C177 92 132 110 98 167 L3 85 C54 19 128 -14 232 -14 L232 -14 Z M200 -186 C236 -186 272 -157 278 -122 C285 -86 261 -57 225 -57 C189 -57 153 -86 147 -122 C140 -157 164 -186 200 -186 L200 -186 Z " />
<glyph glyph-name="uni1E63" unicode="&#x1e63;" horiz-adv-x="448" d="M-7 62 C24 19 89 -14 183 -14 C298 -14 375 42 391 123 C423 292 183 232 201 322 C207 355 236 378 284 378 C312 379 349 365 370 340 L441 411 C415 442 358 471 283 471 C171 471 96 413 79 329 C46 156 280 215 264 132 C258 100 226 77 174 77 C136 77 98 90 71 134 L-7 62 Z M151 -186 C187 -186 223 -157 229 -122 C236 -86 212 -57 176 -57 C140 -57 104 -86 98 -122 C91 -157 115 -186 151 -186 L151 -186 Z " />
<glyph glyph-name="uni1E6A" unicode="&#x1e6a;" horiz-adv-x="557" d="M371 698 C407 698 442 727 449 762 C456 798 432 827 396 827 C359 827 324 798 317 762 C310 727 334 698 371 698 L371 698 Z M594 640 L123 640 L103 534 L276 534 L173 0 L299 0 L402 534 L573 534 L594 640 Z " />
<glyph glyph-name="uni1E6B" unicode="&#x1e6b;" horiz-adv-x="366" d="M250 660 C286 660 321 689 328 724 C335 760 311 789 275 789 C238 789 203 760 196 724 C189 689 213 660 250 660 L250 660 Z M383 459 L270 459 L295 591 L177 591 L152 459 L80 459 L63 367 L134 367 L63 0 L181 0 L252 367 L365 367 L383 459 Z " />
<glyph glyph-name="uni1E6C" unicode="&#x1e6c;" horiz-adv-x="557" d="M594 640 L123 640 L103 534 L276 534 L173 0 L299 0 L402 534 L573 534 L594 640 Z M224 -57 C188 -57 152 -86 146 -122 C139 -157 163 -186 199 -186 C235 -186 271 -157 277 -122 C284 -86 260 -57 224 -57 L224 -57 Z " />
<glyph glyph-name="uni1E6D" unicode="&#x1e6d;" horiz-adv-x="366" d="M383 459 L270 459 L295 591 L177 591 L152 459 L80 459 L63 367 L134 367 L63 0 L181 0 L252 367 L365 367 L383 459 Z M110 -57 C74 -57 38 -86 32 -122 C25 -157 49 -186 85 -186 C121 -186 157 -157 163 -122 C170 -86 146 -57 110 -57 L110 -57 Z " />
<glyph glyph-name="uni1E6E" unicode="&#x1e6e;" horiz-adv-x="557" d="M594 640 L123 640 L103 534 L276 534 L173 0 L299 0 L402 534 L573 534 L594 640 Z M63 -138 L357 -138 L369 -75 L74 -75 L63 -138 Z " />
<glyph glyph-name="uni1E6F" unicode="&#x1e6f;" horiz-adv-x="366" d="M383 459 L270 459 L295 591 L177 591 L152 459 L80 459 L63 367 L134 367 L63 0 L181 0 L252 367 L365 367 L383 459 Z M-9 -138 L215 -138 L224 -75 L0 -75 L-9 -138 Z " />
<glyph glyph-name="uni1E70" unicode="&#x1e70;" horiz-adv-x="557" d="M594 640 L123 640 L103 534 L276 534 L173 0 L299 0 L402 534 L573 534 L594 640 Z M180 -50 L47 -168 L111 -168 C138 -168 148 -161 173 -141 L218 -104 L249 -141 C266 -162 273 -168 300 -168 L365 -168 L277 -50 L180 -50 Z " />
<glyph glyph-name="uni1E71" unicode="&#x1e71;" horiz-adv-x="366" d="M383 459 L270 459 L295 591 L177 591 L152 459 L80 459 L63 367 L134 367 L63 0 L181 0 L252 367 L365 367 L383 459 Z M66 -50 L-67 -168 L-3 -168 C24 -168 34 -161 59 -141 L104 -104 L135 -141 C152 -162 159 -168 186 -168 L251 -168 L163 -50 L66 -50 Z " />
<glyph glyph-name="Wgrave" unicode="&#x1e80;" horiz-adv-x="964" d="M641 690 L686 690 L580 850 L474 834 L543 741 C583 690 607 690 641 690 L641 690 Z M881 640 L655 174 L614 640 L510 640 L289 173 L242 640 L109 640 L196 0 L307 0 L525 448 L571 0 L682 0 L1015 640 L881 640 Z " />
<glyph glyph-name="wgrave" unicode="&#x1e81;" horiz-adv-x="761" d="M509 534 L554 534 L448 694 L342 678 L411 585 C451 534 475 534 509 534 L509 534 Z M664 459 L506 150 L472 459 L376 459 L224 152 L185 459 L58 459 L142 0 L241 0 L398 320 L432 0 L531 0 L792 459 L664 459 Z " />
<glyph glyph-name="Wacute" unicode="&#x1e82;" horiz-adv-x="964" d="M646 741 L748 834 L648 850 L485 690 L530 690 C564 690 588 690 646 741 L646 741 Z M881 640 L655 174 L614 640 L510 640 L289 173 L242 640 L109 640 L196 0 L307 0 L525 448 L571 0 L682 0 L1015 640 L881 640 Z " />
<glyph glyph-name="wacute" unicode="&#x1e83;" horiz-adv-x="761" d="M514 585 L616 678 L516 694 L353 534 L398 534 C432 534 456 534 514 585 L514 585 Z M664 459 L506 150 L472 459 L376 459 L224 152 L185 459 L58 459 L142 0 L241 0 L398 320 L432 0 L531 0 L792 459 L664 459 Z " />
<glyph glyph-name="Wdieresis" unicode="&#x1e84;" horiz-adv-x="964" d="M473 702 C503 702 534 727 540 757 C546 790 522 818 488 818 C457 818 430 794 424 765 C418 731 439 702 473 702 L473 702 Z M682 702 C712 702 742 727 748 757 C754 790 731 818 697 818 C666 818 639 794 633 765 C627 731 648 702 682 702 L682 702 Z M881 640 L655 174 L614 640 L510 640 L289 173 L242 640 L109 640 L196 0 L307 0 L525 448 L571 0 L682 0 L1015 640 L881 640 Z " />
<glyph glyph-name="wdieresis" unicode="&#x1e85;" horiz-adv-x="761" d="M341 546 C371 546 402 571 408 601 C414 634 390 662 356 662 C325 662 298 638 292 609 C286 575 307 546 341 546 L341 546 Z M550 546 C580 546 610 571 616 601 C622 634 599 662 565 662 C534 662 507 638 501 609 C495 575 516 546 550 546 L550 546 Z M664 459 L506 150 L472 459 L376 459 L224 152 L185 459 L58 459 L142 0 L241 0 L398 320 L432 0 L531 0 L792 459 L664 459 Z " />
<glyph glyph-name="uni1E92" unicode="&#x1e92;" horiz-adv-x="576" d="M588 640 L147 640 L126 532 L409 532 L23 93 L6 0 L481 0 L502 108 L185 108 L572 550 L588 640 Z M229 -57 C193 -57 157 -86 151 -122 C144 -157 168 -186 204 -186 C240 -186 276 -157 282 -122 C289 -86 265 -57 229 -57 L229 -57 Z " />
<glyph glyph-name="uni1E93" unicode="&#x1e93;" horiz-adv-x="480" d="M473 459 L97 459 L78 359 L299 359 L9 82 L-7 0 L401 0 L420 99 L166 99 L456 376 L473 459 Z M186 -57 C150 -57 114 -86 108 -122 C101 -157 125 -186 161 -186 C197 -186 233 -157 239 -122 C246 -86 222 -57 186 -57 L186 -57 Z " />
<glyph glyph-name="uni1E9E" unicode="&#x1e9e;" horiz-adv-x="646" d="M232 -4 C414 -32 562 48 592 205 C619 340 513 380 443 392 L611 554 L628 640 L412 640 C278 640 144 577 106 385 L32 0 L158 0 L232 383 C248 470 298 533 381 533 L472 533 L315 382 L301 309 L336 309 C415 309 476 275 462 204 C447 127 364 83 252 102 L232 -4 Z " />
<glyph glyph-name="uni1EA0" unicode="&#x1ea0;" horiz-adv-x="669" d="M607 0 L477 640 L348 640 L-28 0 L110 0 L191 147 L449 147 L473 0 L607 0 Z M243 243 L389 508 L433 243 L243 243 Z M279 -57 C243 -57 207 -86 201 -122 C194 -157 218 -186 254 -186 C290 -186 326 -157 332 -122 C339 -86 315 -57 279 -57 L279 -57 Z " />
<glyph glyph-name="uni1EA1" unicode="&#x1ea1;" horiz-adv-x="569" d="M456 459 L435 411 C409 447 366 471 303 471 C183 471 68 379 35 226 C4 78 78 -10 196 -10 C263 -10 320 17 363 57 L366 0 L464 0 L554 459 L456 459 Z M255 90 C180 90 141 150 158 233 C175 313 236 371 308 371 C384 371 425 310 407 226 C390 147 329 90 255 90 L255 90 Z M226 -57 C190 -57 154 -86 148 -122 C141 -157 165 -186 201 -186 C237 -186 273 -157 279 -122 C286 -86 262 -57 226 -57 L226 -57 Z " />
<glyph glyph-name="uni1EA4" unicode="&#x1ea4;" horiz-adv-x="669" d="M676 873 L555 752 L598 752 C625 752 644 755 665 773 L766 855 L676 873 Z M391 718 L436 755 L466 718 C484 697 491 691 517 691 L582 691 L494 809 L398 809 L264 691 L329 691 C356 691 365 698 391 718 L391 718 Z M348 640 L-28 0 L110 0 L191 147 L449 147 L473 0 L607 0 L477 640 L348 640 Z M243 243 L389 508 L433 243 L243 243 Z " />
<glyph glyph-name="uni1EA5" unicode="&#x1ea5;" horiz-adv-x="569" d="M584 717 L463 596 L506 596 C533 596 552 599 573 617 L674 700 L584 717 Z M306 562 L351 599 L381 562 C399 541 406 535 432 535 L497 535 L409 653 L313 653 L179 535 L244 535 C271 535 280 542 306 562 L306 562 Z M435 411 C409 447 366 471 303 471 C183 471 68 379 35 226 C4 78 78 -10 196 -10 C263 -10 320 17 363 57 L366 0 L464 0 L554 459 L456 459 L435 411 Z M255 90 C180 90 141 150 158 233 C175 313 236 371 308 371 C384 371 425 310 407 226 C390 147 329 90 255 90 L255 90 Z " />
<glyph glyph-name="uni1EA6" unicode="&#x1ea6;" horiz-adv-x="669" d="M261 752 L304 752 L230 873 L134 855 L202 773 C216 755 234 752 261 752 L261 752 Z M329 691 C356 691 365 698 391 718 L436 755 L466 718 C484 697 491 691 517 691 L582 691 L494 809 L398 809 L264 691 L329 691 Z M473 0 L607 0 L477 640 L348 640 L-28 0 L110 0 L191 147 L449 147 L473 0 Z M243 243 L389 508 L433 243 L243 243 Z " />
<glyph glyph-name="uni1EA7" unicode="&#x1ea7;" horiz-adv-x="569" d="M169 596 L212 596 L139 717 L42 700 L110 617 C125 599 142 596 169 596 L169 596 Z M244 535 C271 535 280 542 306 562 L351 599 L381 562 C399 541 406 535 432 535 L497 535 L409 653 L313 653 L179 535 L244 535 Z M456 459 L435 411 C409 447 366 471 303 471 C183 471 68 379 35 226 C4 78 78 -10 196 -10 C263 -10 320 17 363 57 L366 0 L464 0 L554 459 L456 459 Z M255 90 C180 90 141 150 158 233 C175 313 236 371 308 371 C384 371 425 310 407 226 C390 147 329 90 255 90 L255 90 Z " />
<glyph glyph-name="uni1EAA" unicode="&#x1eaa;" horiz-adv-x="669" d="M406 866 C450 866 463 821 519 821 C576 821 607 865 625 892 L575 926 C562 907 551 885 517 885 C476 885 462 930 404 930 C350 930 319 889 298 865 L346 825 C358 842 372 866 406 866 L406 866 Z M391 718 L436 755 L466 718 C484 697 491 691 517 691 L582 691 L494 809 L398 809 L264 691 L329 691 C356 691 365 698 391 718 L391 718 Z M348 640 L-28 0 L110 0 L191 147 L449 147 L473 0 L607 0 L477 640 L348 640 Z M243 243 L389 508 L433 243 L243 243 Z " />
<glyph glyph-name="uni1EAB" unicode="&#x1eab;" horiz-adv-x="569" d="M321 710 C365 710 378 665 434 665 C491 665 522 709 540 736 L490 770 C477 751 466 729 432 729 C391 729 377 774 319 774 C265 774 234 733 213 709 L261 669 C273 686 287 710 321 710 L321 710 Z M306 562 L351 599 L381 562 C399 541 406 535 432 535 L497 535 L409 653 L313 653 L179 535 L244 535 C271 535 280 542 306 562 L306 562 Z M456 459 L435 411 C409 447 366 471 303 471 C183 471 68 379 35 226 C4 78 78 -10 196 -10 C263 -10 320 17 363 57 L366 0 L464 0 L554 459 L456 459 Z M255 90 C180 90 141 150 158 233 C175 313 236 371 308 371 C384 371 425 310 407 226 C390 147 329 90 255 90 L255 90 Z " />
<glyph glyph-name="uni1EAC" unicode="&#x1eac;" horiz-adv-x="669" d="M391 718 L436 755 L466 718 C484 697 491 691 517 691 L582 691 L494 809 L398 809 L264 691 L329 691 C356 691 365 698 391 718 L391 718 Z M607 0 L477 640 L348 640 L-28 0 L110 0 L191 147 L449 147 L473 0 L607 0 Z M243 243 L389 508 L433 243 L243 243 Z M279 -57 C243 -57 207 -86 201 -122 C194 -157 218 -186 254 -186 C290 -186 326 -157 332 -122 C339 -86 315 -57 279 -57 L279 -57 Z " />
<glyph glyph-name="uni1EAD" unicode="&#x1ead;" horiz-adv-x="569" d="M306 562 L351 599 L381 562 C399 541 406 535 432 535 L497 535 L409 653 L313 653 L179 535 L244 535 C271 535 280 542 306 562 L306 562 Z M456 459 L435 411 C409 447 366 471 303 471 C183 471 68 379 35 226 C4 78 78 -10 196 -10 C263 -10 320 17 363 57 L366 0 L464 0 L554 459 L456 459 Z M255 90 C180 90 141 150 158 233 C175 313 236 371 308 371 C384 371 425 310 407 226 C390 147 329 90 255 90 L255 90 Z M226 -57 C190 -57 154 -86 148 -122 C141 -157 165 -186 201 -186 C237 -186 273 -157 279 -122 C286 -86 262 -57 226 -57 L226 -57 Z " />
<glyph glyph-name="uni1EAE" unicode="&#x1eae;" horiz-adv-x="669" d="M507 832 L608 914 L518 932 L397 811 L440 811 C467 811 486 814 507 832 L507 832 Z M428 690 C523 690 583 735 600 809 L533 809 C523 781 490 751 432 751 C379 751 360 775 362 809 L297 809 C285 741 330 690 428 690 L428 690 Z M348 640 L-28 0 L110 0 L191 147 L449 147 L473 0 L607 0 L477 640 L348 640 Z M243 243 L389 508 L433 243 L243 243 Z " />
<glyph glyph-name="uni1EAF" unicode="&#x1eaf;" horiz-adv-x="569" d="M423 675 L523 758 L433 776 L312 655 L355 655 C382 655 401 658 423 675 L423 675 Z M343 534 C438 534 498 579 515 653 L448 653 C438 625 405 595 347 595 C294 595 275 619 277 653 L212 653 C200 585 245 534 343 534 L343 534 Z M456 459 L435 411 C409 447 366 471 303 471 C183 471 68 379 35 226 C4 78 78 -10 196 -10 C263 -10 320 17 363 57 L366 0 L464 0 L554 459 L456 459 Z M255 90 C180 90 141 150 158 233 C175 313 236 371 308 371 C384 371 425 310 407 226 C390 147 329 90 255 90 L255 90 Z " />
<glyph glyph-name="uni1EB0" unicode="&#x1eb0;" horiz-adv-x="669" d="M455 811 L498 811 L424 932 L328 914 L396 832 C410 814 428 811 455 811 L455 811 Z M428 690 C523 690 583 735 600 809 L533 809 C523 781 490 751 432 751 C379 751 360 775 362 809 L297 809 C285 741 330 690 428 690 L428 690 Z M473 0 L607 0 L477 640 L348 640 L-28 0 L110 0 L191 147 L449 147 L473 0 Z M243 243 L389 508 L433 243 L243 243 Z " />
<glyph glyph-name="uni1EB1" unicode="&#x1eb1;" horiz-adv-x="569" d="M370 655 L413 655 L340 776 L243 758 L311 675 C326 658 343 655 370 655 L370 655 Z M343 534 C438 534 498 579 515 653 L448 653 C438 625 405 595 347 595 C294 595 275 619 277 653 L212 653 C200 585 245 534 343 534 L343 534 Z M456 459 L435 411 C409 447 366 471 303 471 C183 471 68 379 35 226 C4 78 78 -10 196 -10 C263 -10 320 17 363 57 L366 0 L464 0 L554 459 L456 459 Z M255 90 C180 90 141 150 158 233 C175 313 236 371 308 371 C384 371 425 310 407 226 C390 147 329 90 255 90 L255 90 Z " />
<glyph glyph-name="uni1EB4" unicode="&#x1eb4;" horiz-adv-x="669" d="M407 865 C452 865 464 820 520 820 C578 820 608 864 626 891 L577 925 C563 905 552 884 519 884 C478 884 464 929 406 929 C351 929 321 888 299 863 L347 824 C359 841 373 865 407 865 L407 865 Z M428 690 C523 690 583 735 600 809 L533 809 C523 781 490 751 432 751 C379 751 360 775 362 809 L297 809 C285 741 330 690 428 690 L428 690 Z M348 640 L-28 0 L110 0 L191 147 L449 147 L473 0 L607 0 L477 640 L348 640 Z M243 243 L389 508 L433 243 L243 243 Z " />
<glyph glyph-name="uni1EB5" unicode="&#x1eb5;" horiz-adv-x="569" d="M322 709 C367 709 379 664 435 664 C493 664 523 708 541 735 L492 769 C478 749 467 728 434 728 C393 728 379 773 321 773 C266 773 236 732 214 707 L262 668 C274 685 288 709 322 709 L322 709 Z M343 534 C438 534 498 579 515 653 L448 653 C438 625 405 595 347 595 C294 595 275 619 277 653 L212 653 C200 585 245 534 343 534 L343 534 Z M456 459 L435 411 C409 447 366 471 303 471 C183 471 68 379 35 226 C4 78 78 -10 196 -10 C263 -10 320 17 363 57 L366 0 L464 0 L554 459 L456 459 Z M255 90 C180 90 141 150 158 233 C175 313 236 371 308 371 C384 371 425 310 407 226 C390 147 329 90 255 90 L255 90 Z " />
<glyph glyph-name="uni1EB6" unicode="&#x1eb6;" horiz-adv-x="669" d="M428 690 C523 690 583 735 600 809 L533 809 C523 781 490 751 432 751 C379 751 360 775 362 809 L297 809 C285 741 330 690 428 690 L428 690 Z M607 0 L477 640 L348 640 L-28 0 L110 0 L191 147 L449 147 L473 0 L607 0 Z M243 243 L389 508 L433 243 L243 243 Z M279 -57 C243 -57 207 -86 201 -122 C194 -157 218 -186 254 -186 C290 -186 326 -157 332 -122 C339 -86 315 -57 279 -57 L279 -57 Z " />
<glyph glyph-name="uni1EB7" unicode="&#x1eb7;" horiz-adv-x="569" d="M343 534 C438 534 498 579 515 653 L448 653 C438 625 405 595 347 595 C294 595 275 619 277 653 L212 653 C200 585 245 534 343 534 L343 534 Z M456 459 L435 411 C409 447 366 471 303 471 C183 471 68 379 35 226 C4 78 78 -10 196 -10 C263 -10 320 17 363 57 L366 0 L464 0 L554 459 L456 459 Z M255 90 C180 90 141 150 158 233 C175 313 236 371 308 371 C384 371 425 310 407 226 C390 147 329 90 255 90 L255 90 Z M226 -57 C190 -57 154 -86 148 -122 C141 -157 165 -186 201 -186 C237 -186 273 -157 279 -122 C286 -86 262 -57 226 -57 L226 -57 Z " />
<glyph glyph-name="uni1EB8" unicode="&#x1eb8;" horiz-adv-x="537" d="M545 536 L565 640 L161 640 L37 0 L441 0 L461 104 L183 104 L216 273 L449 273 L467 368 L234 368 L267 536 L545 536 Z M228 -57 C192 -57 156 -86 150 -122 C143 -157 167 -186 203 -186 C239 -186 275 -157 281 -122 C288 -86 264 -57 228 -57 L228 -57 Z " />
<glyph glyph-name="uni1EB9" unicode="&#x1eb9;" horiz-adv-x="526" d="M325 471 C183 471 63 371 37 236 C9 94 93 -14 253 -14 C331 -14 398 10 450 56 L377 126 C345 94 305 74 253 74 C178 74 146 126 154 201 L264 201 C419 201 502 248 505 333 C509 416 427 471 325 471 L325 471 Z M397 329 C394 287 327 271 261 271 L172 271 C200 340 255 382 318 382 C364 382 398 360 397 329 L397 329 Z M217 -60 C181 -60 145 -89 139 -125 C132 -160 156 -189 192 -189 C228 -189 264 -160 270 -125 C277 -89 253 -60 217 -60 L217 -60 Z " />
<glyph glyph-name="uni1EBC" unicode="&#x1ebc;" horiz-adv-x="537" d="M329 737 C373 737 385 692 441 692 C499 692 529 735 547 763 L498 797 C484 777 474 756 440 756 C399 756 385 801 327 801 C272 801 242 760 220 735 L269 696 C280 712 294 737 329 737 L329 737 Z M545 536 L565 640 L161 640 L37 0 L441 0 L461 104 L183 104 L216 273 L449 273 L467 368 L234 368 L267 536 L545 536 Z " />
<glyph glyph-name="uni1EBD" unicode="&#x1ebd;" horiz-adv-x="526" d="M304 581 C348 581 360 536 416 536 C474 536 504 579 522 607 L473 641 C459 621 449 600 415 600 C374 600 360 645 302 645 C247 645 217 604 195 579 L244 540 C255 556 269 581 304 581 L304 581 Z M325 471 C183 471 63 371 37 236 C9 94 93 -14 253 -14 C331 -14 398 10 450 56 L377 126 C345 94 305 74 253 74 C178 74 146 126 154 201 L264 201 C419 201 502 248 505 333 C509 416 427 471 325 471 L325 471 Z M397 329 C394 287 327 271 261 271 L172 271 C200 340 255 382 318 382 C364 382 398 360 397 329 L397 329 Z " />
</font>
</svg>
