<svg xmlns="http://www.w3.org/2000/svg" width="352.113" height="496" viewBox="0 0 352.113 496">
  <g id="_2" data-name="2" transform="translate(12041 -13343)">
    <rect id="Rectangle_276" data-name="Rectangle 276" width="352" height="496" transform="translate(-12041 13343)" fill="#fff"/>
    <g id="kikut" transform="translate(-13011.499 13006.981)">
      <path id="Path_2320" data-name="Path 2320" d="M1306.349,638.862c-6.535-2.456-14.789-5.858-15.153-6.708-.571-1.334,23.793-2.389,23.628-6.917s-26.3-10.424-26.3-11.66,19.506-2.561,19.436-6.386-21.342-10.48-21.342-11.814,17.6-4.56,17.531-7.813-19.437-6.289-19.628-6.4,12.577-.949,12.793-3.1-17.911-23.2-19.817-23.33-12.318,18.633-13.148,22.24,8.739,2.4,8.929,4.193-19.463,3.082-19.436,6.594,15.434,6.478,15.816,8.956-22.321,4.577-23.057,8.522,20.58,6.531,20.389,8.344-29.182,5.347-28.583,8.668,24.962,6.67,25.152,9.131c.085,1.1-6.567,2.81-13.968,4.556-24.478-8.183-43.244-12.544-54.824-13.989-14.153-1.767-58.425-2.018-80.458.589-9.738,1.152-34.322,2.667-53.883,10.638-5.234.454-9.811.917-9.811-.539,0-2.286,26.8-9.4,26.8-14.971,0-4.145-32.659-7.254-32.8-13.469-.054-2.363,28.513-5.561,27.942-12.256s-26.3-11.461-28.012-14.2,17.983-9.282,18.294-14.737c.142-2.509-25.3-10.685-25.868-13.035s17.149-1.091,16.578-5.053-18.721-31.945-21.866-31.847c-3.052.1-25.235,23.342-25.725,27.647-.428,3.77,15.541,5.679,15.435,9.252-.143,4.808-24.142,7.408-24.3,14.29-.068,3.038,18.008,8.037,18.008,13.482s-25,8.764-25.725,13.909,23.793,10.516,24.364,14.634-31.441,3.768-33.157,7.3,24.01,12.479,23.438,15.554c-.356,1.92-11.963,5.335-20.64,7.633-6.4-.887-12.891-7.2-12.891-7.2V812.413h352.113V639.635S1317.007,640.73,1306.349,638.862Z" transform="translate(0 19.189)" fill="#e6c2b0"/>
      <g id="Group_447" data-name="Group 447" transform="translate(1121.208 755.775)">
        <g id="Group_446" data-name="Group 446">
          <path id="Path_2321" data-name="Path 2321" d="M1104.343,716.162l-4.577-5.217v5.217h-1.874v-14.14h1.874v5.388l4.493-5.388h2.47l-5.985,7.176,6.134,6.963Z" transform="translate(-1097.892 -702.002)" fill="#212e3b"/>
          <path id="Path_2322" data-name="Path 2322" d="M1107.558,716.166V702.005h1.789v14.161Z" transform="translate(-1096.123 -702.005)" fill="#212e3b"/>
          <path id="Path_2323" data-name="Path 2323" d="M1117.771,716.162l-4.577-5.217v5.217h-1.874v-14.14h1.874v5.388l4.493-5.388h2.47l-5.985,7.176,6.134,6.963Z" transform="translate(-1095.434 -702.002)" fill="#212e3b"/>
          <path id="Path_2324" data-name="Path 2324" d="M1124.02,715.914a4.909,4.909,0,0,1-1.587-1.1,5.2,5.2,0,0,1-1.066-1.618,4.928,4.928,0,0,1-.382-1.917v-9.242h1.809v9.242a3.188,3.188,0,0,0,.235,1.214,3.055,3.055,0,0,0,.681,1.022,2.952,2.952,0,0,0,1,.692,3.128,3.128,0,0,0,2.426,0,3.189,3.189,0,0,0,1.023-.692,3.072,3.072,0,0,0,.681-1.022,3.184,3.184,0,0,0,.234-1.214v-9.242h1.789v9.242a4.906,4.906,0,0,1-.385,1.917,5.148,5.148,0,0,1-1.063,1.618,4.914,4.914,0,0,1-1.588,1.1,4.8,4.8,0,0,1-3.81,0Z" transform="translate(-1093.665 -701.998)" fill="#212e3b"/>
          <path id="Path_2325" data-name="Path 2325" d="M1136.709,703.815v12.351h-1.874V703.815h-3.428v-1.81h8.731v1.81Z" transform="translate(-1091.758 -702.005)" fill="#212e3b"/>
        </g>
      </g>
      <g id="kikut_kolor" data-name="kikut kolor" transform="translate(1113.824 429.544)">
        <path id="Path_2326" data-name="Path 2326" d="M1096,495.834c4.574-5.436,67.726-2.745,70.667-.539s8.079,176.5,5.874,181.6-70.52,6.365-76.541-3.874S1090.429,502.451,1096,495.834Z" transform="translate(-1091.65 -414.092)" fill="#efe8e5"/>
        <path id="Path_2327" data-name="Path 2327" d="M1100.266,459.276c3.055-3.246,58.4-3.676,60.075,0s.941,35.33-.67,39.7-62.581,3.633-63.595-1.145S1096.864,462.891,1100.266,459.276Z" transform="translate(-1090.891 -420.675)" fill="#ad6e42"/>
        <g id="Group_448" data-name="Group 448" transform="translate(31.286 47.397)">
          <path id="Path_2328" data-name="Path 2328" d="M1118.1,480.969s.762-15.018,4.42-14.653,4.152,13.371,3.373,14.653S1118.858,482.435,1118.1,480.969Z" transform="translate(-1118.096 -466.309)" fill="#d2c3b8"/>
          <line id="Line_1030" data-name="Line 1030" x2="7.379" y2="0.487" transform="translate(0.73 7.846)" fill="#d2c3b8"/>
          <line id="Line_1031" data-name="Line 1031" x1="0.366" y2="15.684" transform="translate(4.055 0.007)" fill="#d2c3b8"/>
        </g>
        <path id="Path_2329" data-name="Path 2329" d="M1114.976,635.137c1.636-3.409,15.808-2.665,16.91-1.195s-.014,18.447,0,19.668-13.233,1.286-14.153,0S1113.873,637.435,1114.976,635.137Z" transform="translate(-1087.426 -388.458)" fill="#212e3b"/>
        <path id="Path_2330" data-name="Path 2330" d="M1124.593,426.247c2.958.515,25.293,8.727,24.363,10.12s-47.119,4.24-49.435,3.146S1123.547,426.066,1124.593,426.247Z" transform="translate(-1090.236 -426.245)" fill="#efe8e5"/>
      </g>
      <g id="kikut-2" data-name="kikut" transform="translate(1090.423 408.222)">
        <path id="Path_2331" data-name="Path 2331" d="M1118.792,687.419c-15.351,0-28.7-.7-31.292-2.714-3.064-2.385-1.673-39.473.853-99.787l1.064-25.7c2.016-49.243,3.921-95.756,6.835-99.14h0c.336-.392,1.405-.836,6.781-1.164,14.672-.9,52.354-.028,54.14,1.6,1.654,1.5,8.881,105.612,8.953,106.664,3.541,51.141,7.008,108.577,6.12,116.4-.082.723-.2,1.026-.437,1.162C1169.9,685.813,1142.054,687.419,1118.792,687.419Zm-21.919-226.808c-2.729,3.173-4.714,51.7-6.635,98.637l-1.065,25.7c-1.993,47.619-4.054,96.859-1.169,99.106,2.579,2.006,18.637,2.906,42.956,2.394,19.9-.415,38.555-1.65,40.375-2.394,1.025-2.655-1.194-46.356-5.675-111.71-4.079-59.477-8.159-109.406-9.1-111.3C1154.023,459.192,1098.749,458.721,1096.873,460.611Z" transform="translate(-1069.33 -399.011)" fill="#212e3b"/>
        <path id="Path_2332" data-name="Path 2332" d="M1115.562,654.833c-.022-.582-.548-14.281.006-17.594.169-1.014,1.211-1.809,3.015-2.3,4.292-1.163,11.6-.407,13.695,2.1,2.826,3.392,2.326,16.847,2.3,17.418l-.82-.032c.006-.137.513-13.71-2.113-16.859-1.829-2.2-8.906-2.908-12.849-1.838-1.45.394-2.312.977-2.422,1.643-.538,3.23,0,17.284.006,17.425Z" transform="translate(-1063.918 -366.824)" fill="#212e3b"/>
        <rect id="Rectangle_333" data-name="Rectangle 333" width="0.82" height="25.977" transform="translate(35.101 33.967)" fill="#212e3b"/>
        <rect id="Rectangle_334" data-name="Rectangle 334" width="0.82" height="26.917" transform="translate(79.582 33.869)" fill="#212e3b"/>
        <path id="Path_2333" data-name="Path 2333" d="M1120.913,439.689c-8.766,0-21.569-.142-22.616-.957a.652.652,0,0,1-.237-.7c.641-2.475,22.877-11.529,26.157-12.037,2.232-.332,27.041,10.407,27.988,12.107a.489.489,0,0,1-.041.57c-.7.817-22.237.977-26.548,1C1124.3,439.683,1122.69,439.689,1120.913,439.689Zm-22-1.558c2.96.988,46.431,1,52.212.054-3.249-2.318-24.369-11.383-26.687-11.383a.656.656,0,0,0-.09.006h0C1120.517,427.4,1100.186,436.15,1098.909,438.131Z" transform="translate(-1067.081 -404.97)" fill="#212e3b"/>
        <path id="Path_2334" data-name="Path 2334" d="M1155.5,463.361l-.813-.11c.944-6.973,1.68-14.609,1.344-15.874-3.057-.776-23.11-1.761-30.419-1.612-13.006.27-27.129.93-29.041,1.585-.337,1.5-.01,9.818.29,14.916l-.821.048c-.083-1.422-.8-13.935-.187-15.42l.056-.134.125-.07c2.092-1.163,29.286-1.741,29.561-1.746,7.7-.17,28.382.881,30.866,1.7l.137.045.078.121C1157.5,448.068,1155.981,459.8,1155.5,463.361Z" transform="translate(-1067.525 -401.504)" fill="#212e3b"/>
        <path id="Path_2335" data-name="Path 2335" d="M1096.079,454.494l-.06-.819c.243-.019,24.3-1.795,29.508-1.795s30.252,1.337,30.505,1.351l-.044.82c-.252-.014-25.281-1.35-30.462-1.35S1096.322,454.477,1096.079,454.494Z" transform="translate(-1067.45 -400.231)" fill="#212e3b"/>
        <path id="Path_2336" data-name="Path 2336" d="M1111.575,461.383l-.815-.085c.117-1.139.337-15.565.339-15.711l.82.012C1111.91,446.2,1111.7,460.207,1111.575,461.383Z" transform="translate(-1064.752 -401.383)" fill="#212e3b"/>
        <rect id="Rectangle_335" data-name="Rectangle 335" width="0.82" height="16.336" transform="matrix(0.995, -0.1, 0.1, 0.995, 64.835, 43.984)" fill="#212e3b"/>
        <rect id="Rectangle_336" data-name="Rectangle 336" width="23.571" height="0.821" transform="translate(40.414 28.066) rotate(-88.386)" fill="#212e3b"/>
        <path id="Path_2337" data-name="Path 2337" d="M1110.785,433.682c-1.731-24.976-1.5-25.316-1.408-25.46l.342.227.4.1c-.123.831.822,15.45,1.489,25.074Z" transform="translate(-1065.017 -408.222)" fill="#212e3b"/>
        <path id="Path_2338" data-name="Path 2338" d="M1133.227,467.485h-.82V431.229l1.354-16.939.818.066-1.353,16.906Z" transform="translate(-1060.79 -407.111)" fill="#212e3b"/>
        <g id="Group_449" data-name="Group 449" transform="translate(52.874 68.309)">
          <path id="Path_2339" data-name="Path 2339" d="M1120.641,482.473c-.142,0-.275,0-.4-.006-1.133-.038-3.111-.251-3.63-1.246l-.052-.1.006-.111c.026-.495.647-12.13,3.469-14.555a1.838,1.838,0,0,1,1.4-.486c.9.09,1.67.775,2.3,2.035,1.84,3.7,2.151,11.98,1.383,13.24C1124.528,482.226,1122.121,482.473,1120.641,482.473Zm-3.244-1.553c.278.325,1.249.672,2.875.726,2.115.067,3.877-.379,4.15-.827.464-.761.407-8.786-1.416-12.448-.493-.991-1.047-1.524-1.644-1.584a1.03,1.03,0,0,0-.788.292C1118.479,468.88,1117.58,477.551,1117.4,480.92Z" transform="translate(-1116.564 -465.963)" fill="#212e3b"/>
          <path id="Path_2340" data-name="Path 2340" d="M1124.891,473.9l-7.38-.487.053-.819,7.38.487Z" transform="translate(-1116.391 -464.749)" fill="#212e3b"/>
          <rect id="Rectangle_337" data-name="Rectangle 337" width="15.689" height="0.82" transform="translate(4.057 16.091) rotate(-88.628)" fill="#212e3b"/>
        </g>
        <g id="Group_450" data-name="Group 450" transform="translate(30.798 114.533)">
          <path id="Path_2341" data-name="Path 2341" d="M1101.7,515.236a3.258,3.258,0,0,1-1.449-.291,1.729,1.729,0,0,1-.751-2.15c.355-1.421,1.758-3.137,2.839-3.105,2.17.053,3.789.641,4.44,1.615a1.625,1.625,0,0,1,.187,1.525c-.363.944-1.993,1.64-2.484,1.83A8.11,8.11,0,0,1,1101.7,515.236Zm.609-4.726c-.58,0-1.712,1.275-2.014,2.484-.155.622-.046,1.032.322,1.216a5.009,5.009,0,0,0,3.567-.316,3.766,3.766,0,0,0,2.014-1.359.8.8,0,0,0-.1-.774c-.494-.738-1.906-1.206-3.779-1.252h-.009Z" transform="translate(-1097.626 -504.184)" fill="#212e3b"/>
          <path id="Path_2342" data-name="Path 2342" d="M1136.542,549.786a3.259,3.259,0,0,1-1.449-.291,1.728,1.728,0,0,1-.751-2.15c.356-1.422,1.759-3.14,2.839-3.107,2.171.053,3.789.642,4.441,1.616a1.631,1.631,0,0,1,.184,1.526c-.362.944-1.992,1.639-2.483,1.829A8.088,8.088,0,0,1,1136.542,549.786Zm.609-4.726c-.579,0-1.711,1.274-2.012,2.484-.156.622-.047,1.032.321,1.217a5.018,5.018,0,0,0,3.567-.317,3.779,3.779,0,0,0,2.014-1.358.806.806,0,0,0-.1-.775c-.495-.738-1.907-1.206-3.78-1.252h-.01Z" transform="translate(-1091.25 -497.86)" fill="#212e3b"/>
          <path id="Path_2343" data-name="Path 2343" d="M1100.357,573.269a1.935,1.935,0,0,1-1.805-1.18,4.184,4.184,0,0,1,.625-4.138,1.679,1.679,0,0,1,2-.418c1.212.425,2.69,1.853,2.69,2.913C1103.868,571.834,1102.554,573.269,1100.357,573.269Zm.031-5.062a.692.692,0,0,0-.572.258h0a3.359,3.359,0,0,0-.525,3.269,1.125,1.125,0,0,0,1.066.713c1.661,0,2.69-1.038,2.69-2,0-.573-1.106-1.776-2.14-2.138A1.6,1.6,0,0,0,1100.388,568.207Z" transform="translate(-1097.839 -493.624)" fill="#212e3b"/>
          <path id="Path_2344" data-name="Path 2344" d="M1115.028,550.237a10.489,10.489,0,0,1-1.614-.118c-1.394-.221-2.169-.71-2.241-1.413-.138-1.314,1.365-3.243,2.5-4.129.744-.578,1.364-.782,1.846-.606h0a8.1,8.1,0,0,1,3.624,3.367,1.831,1.831,0,0,1,.057,1.492C1118.754,549.835,1116.809,550.237,1115.028,550.237Zm.137-5.506a1.894,1.894,0,0,0-.984.495c-1.21.943-2.275,2.593-2.192,3.4.02.18.448.511,1.555.687,2.025.319,4.591-.1,4.907-.812a1.051,1.051,0,0,0-.063-.839,7.505,7.505,0,0,0-3.148-2.916h0A.243.243,0,0,0,1115.165,544.731Z" transform="translate(-1095.475 -497.921)" fill="#212e3b"/>
          <path id="Path_2345" data-name="Path 2345" d="M1130.056,511.363a10.473,10.473,0,0,1-1.614-.12c-1.394-.22-2.169-.709-2.242-1.411-.137-1.315,1.365-3.243,2.5-4.129.744-.58,1.364-.783,1.847-.606h0a8.094,8.094,0,0,1,3.621,3.366,1.821,1.821,0,0,1,.058,1.492C1133.781,510.959,1131.837,511.363,1130.056,511.363Zm.136-5.506a1.9,1.9,0,0,0-.984.493c-1.209.943-2.275,2.593-2.192,3.4.02.181.448.512,1.555.687,2.026.319,4.592-.1,4.907-.812a1.05,1.05,0,0,0-.062-.839,7.508,7.508,0,0,0-3.149-2.915A.244.244,0,0,0,1130.192,505.857Z" transform="translate(-1092.725 -505.036)" fill="#212e3b"/>
          <path id="Path_2346" data-name="Path 2346" d="M1124.752,595.533a5.317,5.317,0,0,1-3.114-1.061,2.777,2.777,0,0,1-.782-3.555c.4-.927,1.191-1.787,1.925-1.656a7.48,7.48,0,0,1,4.425,3.57,1.685,1.685,0,0,1,.17,1.494,2.354,2.354,0,0,1-1.608,1.09A4.35,4.35,0,0,1,1124.752,595.533Zm-2.128-5.466a2.148,2.148,0,0,0-1.078,1.333,1.964,1.964,0,0,0,.58,2.411,4.258,4.258,0,0,0,3.45.8,1.592,1.592,0,0,0,1.066-.656c.048-.1.032-.355-.17-.764a6.637,6.637,0,0,0-3.841-3.128Z" transform="translate(-1093.76 -489.622)" fill="#212e3b"/>
          <path id="Path_2347" data-name="Path 2347" d="M1143.852,588.207a5.32,5.32,0,0,1-3.115-1.061,2.777,2.777,0,0,1-.781-3.555c.4-.927,1.189-1.8,1.925-1.656a7.477,7.477,0,0,1,4.423,3.569,1.685,1.685,0,0,1,.172,1.5,2.348,2.348,0,0,1-1.609,1.088A4.272,4.272,0,0,1,1143.852,588.207Zm-2.129-5.467a2.155,2.155,0,0,0-1.077,1.333,1.962,1.962,0,0,0,.578,2.411,4.261,4.261,0,0,0,3.45.806,1.588,1.588,0,0,0,1.067-.658c.049-.1.032-.354-.172-.763a6.631,6.631,0,0,0-3.84-3.128Z" transform="translate(-1090.264 -490.964)" fill="#212e3b"/>
          <path id="Path_2348" data-name="Path 2348" d="M1116.939,579.619a5.32,5.32,0,0,1-3.115-1.061,2.776,2.776,0,0,1-.781-3.555c.393-.9,1.2-1.791,1.925-1.657h0a7.366,7.366,0,0,1,4.422,3.569,1.686,1.686,0,0,1,.173,1.5,2.349,2.349,0,0,1-1.61,1.091A4.332,4.332,0,0,1,1116.939,579.619Zm-2.129-5.467a2.15,2.15,0,0,0-1.077,1.333,1.965,1.965,0,0,0,.578,2.412,4.267,4.267,0,0,0,3.448.8,1.592,1.592,0,0,0,1.068-.658c.048-.1.031-.355-.173-.764a6.63,6.63,0,0,0-3.839-3.127Z" transform="translate(-1095.19 -492.536)" fill="#212e3b"/>
          <path id="Path_2349" data-name="Path 2349" d="M1146.008,623.378a2.767,2.767,0,0,1-.615-.077,12.21,12.21,0,0,1-5.937-4.326c-.737-1.289-.08-3.036.911-4.023.7-.7,1.475-.922,2.062-.583h0c2.2,1.266,4.76,5.615,4.84,7.608a1.272,1.272,0,0,1-.463,1.182A1.375,1.375,0,0,1,1146.008,623.378Zm-4.174-8.344a1.449,1.449,0,0,0-.888.5,2.774,2.774,0,0,0-.777,3.036,11.562,11.562,0,0,0,5.406,3.932,1.083,1.083,0,0,0,.767-.019c.059-.04.119-.186.108-.473-.069-1.728-2.5-5.817-4.429-6.929h0A.384.384,0,0,0,1141.835,615.034Z" transform="translate(-1090.355 -485.053)" fill="#212e3b"/>
          <path id="Path_2350" data-name="Path 2350" d="M1106.848,615.984c-1.571,0-2.818-1.732-3.116-3.406-.293-1.651.323-2.969,1.609-3.443h0a2.572,2.572,0,0,1,2.074.287,5.5,5.5,0,0,1,2.588,2.95,2.916,2.916,0,0,1-.474,2.493A3.193,3.193,0,0,1,1106.848,615.984Zm-.851-6.141a1.077,1.077,0,0,0-.373.063h0c-1.336.491-1.168,2.06-1.084,2.528.233,1.312,1.182,2.729,2.307,2.729a2.466,2.466,0,0,0,2.034-.8,2.091,2.091,0,0,0,.324-1.789,4.734,4.734,0,0,0-2.175-2.424A2.35,2.35,0,0,0,1106,609.843Z" transform="translate(-1096.849 -486.003)" fill="#212e3b"/>
          <path id="Path_2351" data-name="Path 2351" d="M1101.09,638.082c-1.571,0-2.817-1.732-3.115-3.406-.295-1.65.322-2.969,1.607-3.443h0a2.552,2.552,0,0,1,2.074.289,5.481,5.481,0,0,1,2.588,2.949,2.916,2.916,0,0,1-.474,2.494A3.193,3.193,0,0,1,1101.09,638.082ZM1099.866,632c-1.336.491-1.167,2.06-1.084,2.529.234,1.312,1.183,2.728,2.308,2.728a2.46,2.46,0,0,0,2.032-.8,2.093,2.093,0,0,0,.325-1.789,4.734,4.734,0,0,0-2.176-2.423,1.849,1.849,0,0,0-1.406-.244Z" transform="translate(-1097.903 -481.959)" fill="#212e3b"/>
          <path id="Path_2352" data-name="Path 2352" d="M1142.281,528.4a5.533,5.533,0,0,1-1.663-.238c-.725-.235-1-1.008-.729-2.066.375-1.474,1.779-3.458,3.129-3.207h0c1.264.235,2.542.538,3.094,1.417a2.239,2.239,0,0,1,.156,1.851,2.7,2.7,0,0,1-1.4,1.651A5.559,5.559,0,0,1,1142.281,528.4Zm.5-4.711c-.677,0-1.779,1.349-2.1,2.61-.073.284-.2.957.187,1.082a5.121,5.121,0,0,0,3.608-.295,1.873,1.873,0,0,0,.995-1.145,1.477,1.477,0,0,0-.058-1.2c-.337-.538-1.263-.807-2.549-1.046h0A.5.5,0,0,0,1142.783,523.688Z" transform="translate(-1090.237 -501.772)" fill="#212e3b"/>
          <path id="Path_2353" data-name="Path 2353" d="M1137.714,571.372a2.375,2.375,0,0,1-2.075-1.439,4.25,4.25,0,0,1,.777-4.964c.575-.619,1.487-1.233,2.151-.938h0a3.114,3.114,0,0,1,1.66,2.674,6.3,6.3,0,0,0,.355,1.326c.452,1.026-.567,2.488-1.743,3.06A2.57,2.57,0,0,1,1137.714,571.372Zm.472-6.6a2.085,2.085,0,0,0-1.167.754,3.447,3.447,0,0,0-.655,4.019,1.463,1.463,0,0,0,2.118.807c.944-.46,1.562-1.512,1.35-1.992a6.854,6.854,0,0,1-.409-1.5c-.182-.946-.324-1.694-1.187-2.076h0A.132.132,0,0,0,1138.186,564.775Z" transform="translate(-1091.086 -494.252)" fill="#212e3b"/>
          <path id="Path_2354" data-name="Path 2354" d="M1102.874,540.787a2.375,2.375,0,0,1-2.075-1.439,4.248,4.248,0,0,1,.78-4.965c.571-.617,1.484-1.232,2.148-.936a3.111,3.111,0,0,1,1.66,2.672,6.384,6.384,0,0,0,.355,1.327c.452,1.027-.567,2.488-1.744,3.06A2.567,2.567,0,0,1,1102.874,540.787Zm.472-6.6a2.079,2.079,0,0,0-1.167.751,3.451,3.451,0,0,0-.656,4.02,1.464,1.464,0,0,0,2.116.808c.927-.451,1.558-1.523,1.351-1.992a6.879,6.879,0,0,1-.409-1.5c-.182-.946-.324-1.7-1.187-2.077h0A.135.135,0,0,0,1103.346,534.191Z" transform="translate(-1097.462 -499.849)" fill="#212e3b"/>
        </g>
        <rect id="Rectangle_338" data-name="Rectangle 338" width="13.825" height="0.821" transform="translate(115.214 33.958) rotate(-31.365)" fill="#212e3b"/>
        <rect id="Rectangle_339" data-name="Rectangle 339" width="12.542" height="0.821" transform="translate(115.394 41.283) rotate(-4.764)" fill="#212e3b"/>
        <rect id="Rectangle_340" data-name="Rectangle 340" width="0.821" height="8.612" transform="matrix(0.32, -0.947, 0.947, 0.32, 107.139, 53.207)" fill="#212e3b"/>
        <rect id="Rectangle_341" data-name="Rectangle 341" width="0.822" height="11.955" transform="translate(7.459 27.482) rotate(-64.18)" fill="#212e3b"/>
        <rect id="Rectangle_342" data-name="Rectangle 342" width="14.06" height="0.821" transform="translate(0 41.282)" fill="#212e3b"/>
        <rect id="Rectangle_343" data-name="Rectangle 343" width="6.722" height="0.821" transform="matrix(0.852, -0.524, 0.524, 0.852, 9.507, 55.23)" fill="#212e3b"/>
      </g>
    </g>
  </g>
</svg>
