<svg xmlns="http://www.w3.org/2000/svg" width="354.68" height="496" viewBox="0 0 354.68 496">
  <g id="_3" data-name="3" transform="translate(11626.309 -13343)">
    <rect id="Rectangle_275" data-name="Rectangle 275" width="352" height="496" transform="translate(-11624 13343)" fill="#fff"/>
    <g id="niechorze" transform="translate(-12951.138 13003.403)">
      <path id="Path_2609" data-name="Path 2609" d="M1679.508,554.45c-2.547-2.169-6.776-1.835-9.335.318s-5.36,4.85-8.669,4.361c-2.082-.307-5.94-.9-8.044-.97-4.8-.164-.823,10.253-5.476,11.44-2.17.554-8.375-4.619-10.511-3.949-3.127.98-8.45,8.593-10.987,10.668-5.309,4.341-10.73-3.259-15.143,1.989-2.5,2.977,1.755,7.14-1.555,9.183-2.607,1.61-10.174,1.326-13.081,2.3-6.273,2.093-2.037,13.362-7.649,16.859-2.328,1.45-9.519-.016-11.975,1.208-7.664,3.819-13,.18-15.281,8.433a11.975,11.975,0,0,1-4.119,6.71c-2.643,1.9-4.359-1.647-7.614-1.646-38.31.017-70.154-.017-108.464,0-13.772.006-14.375,4.891-27.983,2.779-6.1-.946-16.562-16.954-22.65-15.95-4.789.789-8.829,6.875-12.956,4.318-2.738-1.7-5.471-9.244-14.167-11.061-6.914-1.445-8.276,6.223-18.655,7.606-12.956,1.728-1.727,13.82-7.2,16.4-7.715,3.633-7.44,6.728-13.168,7.5V806.945h354.679Z" transform="translate(0 28.234)" fill="#e6c2b0"/>
      <g id="Group_463" data-name="Group 463" transform="translate(1451.72 759.82)">
        <path id="Path_2610" data-name="Path 2610" d="M1439.657,717.179l-6.435-10.467v10.467h-1.909V702.915h1.865l6.649,10.768V702.915h1.887v14.264Z" transform="translate(-1431.313 -702.851)" fill="#212e3b"/>
        <path id="Path_2611" data-name="Path 2611" d="M1442.294,717.179V702.915h1.8v14.264Z" transform="translate(-1429.208 -702.851)" fill="#212e3b"/>
        <path id="Path_2612" data-name="Path 2612" d="M1446.056,717.179V702.915h7.805v1.93h-5.942v4.333h3.992v1.759h-3.992v4.311h5.942v1.931Z" transform="translate(-1428.487 -702.851)" fill="#212e3b"/>
        <path id="Path_2613" data-name="Path 2613" d="M1458.173,716.716a7.021,7.021,0,0,1-2.295-1.565,7.171,7.171,0,0,1-1.543-2.3,7.041,7.041,0,0,1-.559-2.788,7.188,7.188,0,0,1,4.4-6.649,7.125,7.125,0,0,1,5.814.129,7.733,7.733,0,0,1,2.574,2.038l-1.46,1.244a5.36,5.36,0,0,0-4.161-2.016,5.07,5.07,0,0,0-2.007.408,5.345,5.345,0,0,0-2.821,2.821,5.245,5.245,0,0,0,0,4.054,5.346,5.346,0,0,0,2.821,2.821,5.07,5.07,0,0,0,2.007.407,5.36,5.36,0,0,0,4.161-2.016l1.46,1.244a7.95,7.95,0,0,1-2.586,2.038,7.088,7.088,0,0,1-5.8.128Z" transform="translate(-1427.008 -702.861)" fill="#212e3b"/>
        <path id="Path_2614" data-name="Path 2614" d="M1474.254,717.179v-6.156h-5.791v6.156h-1.888V702.915h1.888v6.177h5.791v-6.177h1.866v14.264Z" transform="translate(-1424.555 -702.851)" fill="#212e3b"/>
        <path id="Path_2615" data-name="Path 2615" d="M1481.041,716.736a6.887,6.887,0,0,1-2.283-1.555,7.184,7.184,0,0,1-1.546-2.306,7.2,7.2,0,0,1-.012-5.534,7.282,7.282,0,0,1,3.841-3.85,6.9,6.9,0,0,1,2.755-.558,6.989,6.989,0,0,1,2.768.558,7.208,7.208,0,0,1,3.84,3.839,6.96,6.96,0,0,1,.557,2.766,7.039,7.039,0,0,1-.557,2.779,7.19,7.19,0,0,1-3.84,3.85,7.18,7.18,0,0,1-5.523.011Zm.752-11.455a5.193,5.193,0,0,0-3.208,4.815,5.267,5.267,0,0,0,.407,2.05,5.2,5.2,0,0,0,9.611,0,5.308,5.308,0,0,0,.406-2.05,5.22,5.22,0,0,0-7.217-4.815Z" transform="translate(-1422.624 -702.847)" fill="#212e3b"/>
        <path id="Path_2616" data-name="Path 2616" d="M1499.245,717.176h-2.53l-4.1-4.869v4.869h-1.887V702.933h3.667a4.421,4.421,0,0,1,3.219,1.351,4.919,4.919,0,0,1,.965,1.512,4.9,4.9,0,0,1,.042,3.486,4.471,4.471,0,0,1-.858,1.416,4.658,4.658,0,0,1-1.309,1.019,4.256,4.256,0,0,1-1.566.483Zm-6.627-12.312v5.448h1.779a2.55,2.55,0,0,0,1.031-.216,2.733,2.733,0,0,0,.857-.578,2.865,2.865,0,0,0,.57-.879,2.707,2.707,0,0,0-1.427-3.561,2.572,2.572,0,0,0-1.031-.214Z" transform="translate(-1419.926 -702.847)" fill="#212e3b"/>
        <path id="Path_2617" data-name="Path 2617" d="M1499.226,715.484l7.25-10.639h-7.25v-1.93h9.7v1.737l-7.229,10.575h7.229v1.952h-9.7Z" transform="translate(-1418.297 -702.851)" fill="#212e3b"/>
        <path id="Path_2618" data-name="Path 2618" d="M1509.433,717.179V702.915h7.805v1.93H1511.3v4.333h3.992v1.759H1511.3v4.311h5.942v1.931Z" transform="translate(-1416.342 -702.851)" fill="#212e3b"/>
      </g>
      <g id="niechorze_kolor" data-name="niechorze kolor" transform="translate(1424.553 415.644)">
        <path id="Path_2619" data-name="Path 2619" d="M1463.459,468.618c.761-1.192,33.165-1.338,34.352-.871s.688,125.88,0,126.521-32.066,2.435-34.352,1.695S1461.967,470.956,1463.459,468.618Z" transform="translate(-1398.26 -403.792)" fill="#fff"/>
        <path id="Path_2620" data-name="Path 2620" d="M1481,414.038c3.7-.074,12.783,8.364,10.489,11.871s-26.193,3.318-26.653,1.793S1467.679,414.309,1481,414.038Z" transform="translate(-1397.73 -414.038)" fill="#efe8e5"/>
        <path id="Path_2621" data-name="Path 2621" d="M1457.761,586.04c.688,1.379,40.13,3.73,42.275,1.94s.471-8.374-.486-9.3c-.5-.49-9.862,1.024-19.12.695-8.324-.3-16.637-2.475-17.138-2.247C1462.234,577.6,1457.335,585.184,1457.761,586.04Z" transform="translate(-1399.082 -382.786)" fill="#efe8e5"/>
        <path id="Path_2622" data-name="Path 2622" d="M1466.6,597.056c2.458,1.384,3.372,16,1.571,17.46s-58.8,1.913-59.6,0,7.327-16.743,9.161-17.46S1465.327,596.339,1466.6,597.056Z" transform="translate(-1408.515 -379.066)" fill="#efe8e5"/>
        <path id="Path_2623" data-name="Path 2623" d="M1494.31,595.912c2.046-1.5,45.912.8,47.666,1.914s8.689,15.147,7.574,16.662-49.283,3.626-51.023,2.5S1493.441,596.55,1494.31,595.912Z" transform="translate(-1392.1 -379.276)" fill="#efe8e5"/>
        <path id="Path_2624" data-name="Path 2624" d="M1463.543,469.149c6.664-4.442,34.24-3.455,34.868-1.256s2.461,123.836.922,125.528c-2.082,2.292-12.072,3.66-17.843,3.7-5.732.035-16.824-.562-18.394-3.389S1461.658,470.406,1463.543,469.149Z" transform="translate(-1398.262 -404.074)" fill="#efe8e5"/>
        <g id="Group_464" data-name="Group 464" transform="translate(5.92 46.85)">
          <path id="Path_2625" data-name="Path 2625" d="M1503.973,454.153c-.7-.963-41.383-1.281-43.845.337-.886.584-.984,5.868,0,6.745s3.034,4.5,3.065,5.452c.021.707-.236,3.4-.19,4.835-.667,11.106-.549,122.958-.549,124.38,0,1.488,2.328,1.22,2.717.475.038-.073.073-1.347.1-3.576.925.1,3.061.249,5.825.411,0,2.792,0,4.434,0,4.6,0,1.527,2.2,1.791,2.382.815.088-.483.171-2.34.248-5.268,4.606.254,10.205.529,14.83.75.018,2.229.028,3.533.028,3.681,0,1.528,2.848.764,3.323,0,.046-.073.083-1.324.113-3.518l4.816.222v1.764c0,1.5,2.278,2.251,2.658,1.5.356-.7.378-111.009.067-125.313a.305.305,0,0,0,.086-.014c.914-.405.008-4.655.461-5.8s3.968-3.979,4.251-5.665S1504.672,455.115,1503.973,454.153ZM1465.307,589.99c.228-23.621.2-105.293-.065-117.781,1.523-.188,3.791-.462,6.447-.7-.5,7.419-.575,91.8-.587,118.36C1468.608,589.918,1466.551,589.962,1465.307,589.99Zm8.5-.167c.577-28.852.791-117.753.514-118.4a1,1,0,0,0-.058-.11c2.243-.153,4.653-.257,7.064-.25,2.359.007,4.717.119,6.917.279-.545,12.989.067,92.467.276,118.336C1483.962,589.673,1478.451,589.744,1473.809,589.823Zm18.256-.126c.169-25.414-.12-102.825-.474-118.077,2.4.229,4.451.478,5.887.643-.551,11.545-.628,93.861-.639,117.61C1495.886,589.779,1494.2,589.724,1492.065,589.7Z" transform="translate(-1404.678 -453.353)" fill="#ad6e42"/>
          <path id="Path_2626" data-name="Path 2626" d="M1569.192,621.191c-.638-1.594-54.689-1.115-56.439-1.689s-2.874-26.693-3.671-28.287-35.077-2.232-35.716-.956-1.813,23.279-1.115,24.56-1.914,5.574-3.771,5.415-51.168-.607-53.947.957c-2.551,1.435.155,42.164,1.754,44.8s24.873,2.073,29.657,1.984,39.541-.23,48.545.405,68.486,1.6,70.559.554S1569.829,622.785,1569.192,621.191ZM1431,660.556c-1.344,2.064-7.936,1.225-8.7.387s.448-14.057,4.1-14.444C1428.188,646.308,1432.338,658.493,1431,660.556Zm1.957-23.384c-1.256,1.913-7.414,1.136-8.132.359s.418-13.035,3.827-13.394C1430.329,623.96,1434.208,635.258,1432.952,637.172Zm17.3-11.062c1.795-.192,5.934,12.042,4.594,14.113s-7.912,1.231-8.678.388S1446.615,626.5,1450.253,626.11Zm6.244,33.423c-1.256,1.914-7.414,1.137-8.132.359s.418-13.034,3.826-13.393C1453.875,646.321,1457.754,657.621,1456.5,659.533Zm30.891-45.8c.478-.953,4.525-1.507,4.525-.753s1.507,11.31.754,12.819-3.016,0-3.77,0S1486.636,615.241,1487.389,613.732Zm6.647,42.16c-.754,0-5.279,0-5.279-.754s-.754-12.819,0-12.819,3.77-.753,4.525,0S1494.789,655.893,1494.036,655.893ZM1526.99,624.9c1.683-.178,5.562,11.12,4.306,13.034s-7.414,1.136-8.132.359S1523.582,625.263,1526.99,624.9Zm6.858,35.763c-1.256,2.015-7.415,1.2-8.132.378s.418-13.727,3.826-14.1C1531.225,646.753,1535.1,658.651,1533.848,660.667Zm13.472-21.576c-.718-.777.418-13.034,3.826-13.393,1.683-.178,5.562,11.121,4.306,13.034S1548.036,639.868,1547.319,639.091Zm10.343,19.157c-1.255,1.914-7.413,1.137-8.131.359s.418-13.034,3.826-13.393C1555.04,645.036,1558.919,656.335,1557.663,658.247Z" transform="translate(-1413.483 -427.246)" fill="#ad6e42"/>
        </g>
        <g id="Group_465" data-name="Group 465" transform="translate(14.509 243.739)">
          <path id="Path_2627" data-name="Path 2627" d="M1426.856,618.579c1.683-.176,5.561,11.122,4.305,13.035s-7.414,1.136-8.132.359S1423.448,618.938,1426.856,618.579Z" transform="translate(-1420.282 -618.577)" fill="#212e3b"/>
          <path id="Path_2628" data-name="Path 2628" d="M1425.006,637.345c1.8-.191,5.951,11.994,4.608,14.057s-7.936,1.225-8.7.387S1421.358,637.733,1425.006,637.345Z" transform="translate(-1420.691 -614.981)" fill="#212e3b"/>
          <path id="Path_2629" data-name="Path 2629" d="M1446.615,637.345c1.683-.178,5.561,11.122,4.305,13.034s-7.414,1.137-8.132.359S1443.208,637.7,1446.615,637.345Z" transform="translate(-1416.495 -614.981)" fill="#212e3b"/>
          <path id="Path_2630" data-name="Path 2630" d="M1509.383,619.223c1.683-.178,5.562,11.12,4.306,13.034s-7.415,1.136-8.132.359S1505.975,619.582,1509.383,619.223Z" transform="translate(-1404.466 -618.454)" fill="#212e3b"/>
          <path id="Path_2631" data-name="Path 2631" d="M1529.654,619.889c1.683-.178,5.561,11.121,4.306,13.034s-7.415,1.136-8.132.359S1526.246,620.248,1529.654,619.889Z" transform="translate(-1400.581 -618.326)" fill="#212e3b"/>
          <path id="Path_2632" data-name="Path 2632" d="M1511.525,637.715c1.683-.187,5.561,11.711,4.306,13.727s-7.415,1.2-8.132.378S1508.117,638.093,1511.525,637.715Z" transform="translate(-1404.055 -614.91)" fill="#212e3b"/>
          <path id="Path_2633" data-name="Path 2633" d="M1531.511,636.266c1.681-.178,5.56,11.122,4.305,13.034s-7.414,1.137-8.132.359S1528.1,636.625,1531.511,636.266Z" transform="translate(-1400.225 -615.188)" fill="#212e3b"/>
          <path id="Path_2634" data-name="Path 2634" d="M1445.032,620.235c1.795-.192,5.934,12.042,4.594,14.113s-7.912,1.231-8.677.388S1441.394,620.624,1445.032,620.235Z" transform="translate(-1416.85 -618.26)" fill="#212e3b"/>
        </g>
        <path id="Path_2635" data-name="Path 2635" d="M1475.536,610.026c.478-.953,4.525-1.507,4.525-.753s1.509,11.31.754,12.819-3.016,0-3.77,0S1474.783,611.534,1475.536,610.026Z" transform="translate(-1395.71 -376.689)" fill="#212e3b"/>
        <path id="Path_2636" data-name="Path 2636" d="M1476.7,633.892c.754,0,3.77-.753,4.525,0s1.507,13.573.754,13.573-5.279,0-5.279-.754S1475.95,633.892,1476.7,633.892Z" transform="translate(-1395.511 -371.967)" fill="#212e3b"/>
        <path id="Path_2637" data-name="Path 2637" d="M1476.135,528.63s-.4-9.714,1.877-9.173,1.631,9.173,1.631,9.173Z" transform="translate(-1395.561 -393.839)" fill="#25445e"/>
      </g>
      <g id="niechorze-2" data-name="niechorze" transform="translate(1423.042 405.654)">
        <rect id="Rectangle_422" data-name="Rectangle 422" width="8.332" height="0.85" transform="translate(110.059 22.479) rotate(-32.646)" fill="#212e3b"/>
        <rect id="Rectangle_423" data-name="Rectangle 423" width="4.497" height="0.851" transform="translate(115.865 32.125)" fill="#212e3b"/>
        <rect id="Rectangle_424" data-name="Rectangle 424" width="0.85" height="6.736" transform="translate(111.593 40.881) rotate(-71.434)" fill="#212e3b"/>
        <rect id="Rectangle_425" data-name="Rectangle 425" width="0.851" height="5.441" transform="matrix(0.413, -0.911, 0.911, 0.413, 56.336, 20.978)" fill="#212e3b"/>
        <rect id="Rectangle_426" data-name="Rectangle 426" width="7.153" height="0.851" transform="translate(51.836 31.406)" fill="#212e3b"/>
        <rect id="Rectangle_427" data-name="Rectangle 427" width="4.797" height="0.85" transform="translate(51.741 42.21) rotate(-12.971)" fill="#212e3b"/>
        <path id="Path_2638" data-name="Path 2638" d="M1481.161,600.1h-.62c-.182,0-18.286-.243-19.2-2.282-1.792-3.994-.574-125.165.06-132.33.042-.474.17-1.919,13.541-2.328.247-.007,24.566-.62,25,2.3.536,3.555,1.669,62.548,1.669,68.434,0,1.194.042,3.916.1,7.6.617,40.1.282,56.112-1.2,57.1C1498.65,599.832,1489.038,600.1,1481.161,600.1Zm-18.917-134.513c-.984,11.275-1.65,128.491-.129,131.882.783,1.065,13.488,1.78,18.426,1.78h.633c15.172,0,18.249-.954,18.867-1.367,1.66-1.864,1.05-41.468.82-56.377-.055-3.688-.1-6.414-.1-7.61,0-7.824-1.165-65.025-1.66-68.306-.467-.789-7.681-1.662-18.534-1.662h-.223C1469.66,463.938,1462.772,464.777,1462.244,465.586Z" transform="translate(-1397.06 -394.645)" fill="#212e3b"/>
        <path id="Path_2639" data-name="Path 2639" d="M1490.254,590.666c-12.224,0-28.526-.759-31.83-1.892-.56-.193-.853-.409-.951-.7-.789-2.368,3.919-11.236,4.458-12.239l.75.4c-1.97,3.666-4.907,10.048-4.4,11.569.613.658,8.569,1.552,22.539,1.889,13.062.316,22.015-.067,22.817-.6,1.351-.9-1.038-7.725-3.165-12.285l.77-.36c.908,1.945,5.31,11.725,2.868,13.352C1503.206,590.4,1497.431,590.666,1490.254,590.666Z" transform="translate(-1397.639 -373.039)" fill="#212e3b"/>
        <path id="Path_2640" data-name="Path 2640" d="M1438.425,616.89c-14.772,0-29.531-.186-30.645-.558h0a.786.786,0,0,1-.524-.678c-.355-2.65,9.727-16.082,11.734-17.422,2.58-1.72,46.67-3.72,48.63-3.065,2.081.694,3.424,11.141,3.23,16.18-.119,3.095-.692,4.73-1.754,4.994C1467.634,616.708,1453.022,616.89,1438.425,616.89Zm-30.33-1.351c2.814.719,57.888.705,60.8-.021.463-.116,1-1.281,1.111-4.2.252-6.568-1.566-14.979-2.65-15.341-2.7-.9-46.119,1.787-47.887,2.967C1416.457,600.945,1407.792,614.184,1408.1,615.539Z" transform="translate(-1407.247 -369.359)" fill="#212e3b"/>
        <path id="Path_2641" data-name="Path 2641" d="M1508.234,618.014c-6.808,0-11.249-.254-12.172-.946-2.188-1.641-2.881-9.117-3.042-11.369-.22-3.084-.313-8.582.733-9.631h0c1.645-1.643,46.336-1.693,48.8-.052,1.669,1.113,11.727,19.354,10.824,20.911a.508.508,0,0,1-.693.182c-.7-.222-8.643.029-17.055.294C1524.82,617.742,1515.264,618.014,1508.234,618.014Zm-13.889-21.334c-.437.48-.842,3.831-.477,8.958.4,5.6,1.461,9.817,2.7,10.75,1.787,1.339,24.2.631,39.026.164,10.449-.329,15.376-.461,16.945-.307-.754-2.84-8.548-18.243-10.465-19.522C1540.06,595.377,1496.449,595.34,1494.345,596.68Z" transform="translate(-1390.836 -369.403)" fill="#212e3b"/>
        <path id="Path_2642" data-name="Path 2642" d="M1443.084,664.448c-8.819,0-27.123-1.114-29.01-1.743-2.3-.765-3.734-35.167-4.246-49.922l.85-.029c.633,18.239,2.2,47.719,3.725,49.176,2.134.7,29.884,2.215,32.88,1.467s35.637-.758,40.137-.007c4.37.728,39.552-.7,43.581-1.505,1.631-.327,7.58-.245,14.467-.153,8.047.111,19.071.259,20.007-.49.738-.758.585-9.489.483-15.269-.092-5.152-.178-10.018.151-11.656.731-3.657-1.491-20.052-1.513-20.217l.843-.116c.093.68,2.263,16.7,1.5,20.5-.31,1.548-.224,6.369-.135,11.474.163,9.264.2,14.958-.736,15.888-.862.863-6.788.922-20.613.735-6.555-.088-12.748-.173-14.289.136-4.055.81-39.482,2.245-43.887,1.51-4.466-.744-36.821-.751-39.79-.007A25.452,25.452,0,0,1,1443.084,664.448Z" transform="translate(-1406.753 -365.964)" fill="#212e3b"/>
        <path id="Path_2643" data-name="Path 2643" d="M1459.977,631.886c-.037-.893-.781-21.964,8.978-32.129a16.774,16.774,0,0,1,12.56-5.262c21.291,0,21.537,33.267,21.537,33.6h-.85c0-.328-.244-32.752-20.687-32.752a15.958,15.958,0,0,0-11.946,5c-9.506,9.9-8.75,31.292-8.743,31.506Z" transform="translate(-1397.147 -369.463)" fill="#212e3b"/>
        <path id="Path_2644" data-name="Path 2644" d="M1500.219,467.934l-.652-.548c1.452-1.724,3.789-4.851,3.879-5.9.165-1.92.551-6.412-.166-7.127-.953-.953-12.956-1.468-23.764-1.468-.283,0-.8-.01-1.481-.024-15.538-.313-18.22.7-18.43,1.325a27.235,27.235,0,0,0-.03,7.588c.43,1.739,2.947,5.605,2.973,5.644l-.713.466c-.107-.163-2.62-4.028-3.086-5.906a27.352,27.352,0,0,1,.048-8.06c.54-1.619,6.113-2.174,19.255-1.908.678.014,1.186.024,1.465.024,3.782,0,22.732.083,24.365,1.717.832.832.781,3.49.411,7.8C1504.153,463.218,1500.621,467.457,1500.219,467.934Z" transform="translate(-1397.43 -396.78)" fill="#212e3b"/>
        <rect id="Rectangle_428" data-name="Rectangle 428" width="0.85" height="81.261" transform="translate(62.83 215.83)" fill="#212e3b"/>
        <path id="Path_2645" data-name="Path 2645" d="M1497.1,668.281c-.049-1-1.2-24.579-1.2-27.571V618.256c-3.716-4.282-3.047-29.467-3.016-30.548l.85.024c-.259,9.136.014,27.177,2.892,30.056l.124.125v22.8c0,2.971,1.189,27.285,1.2,27.529Z" transform="translate(-1390.847 -370.764)" fill="#212e3b"/>
        <path id="Path_2646" data-name="Path 2646" d="M1476.547,414.74c-.031-.338-.755-8.321-.755-9.086h.849c0,.582.492,6.148.753,9.01Z" transform="translate(-1394.111 -405.654)" fill="#212e3b"/>
        <path id="Path_2647" data-name="Path 2647" d="M1472.306,447.9l-.6-.6c.421-.925.11-13.04-.2-20.446l.85-.035C1472.67,434.356,1473.077,447.126,1472.306,447.9Z" transform="translate(-1394.932 -401.599)" fill="#212e3b"/>
        <path id="Path_2648" data-name="Path 2648" d="M1481.032,447.951c-.771-.77-.409-13.756-.125-21.429l.85.031c-.279,7.54-.548,19.867-.081,20.853Z" transform="translate(-1393.195 -401.655)" fill="#212e3b"/>
        <path id="Path_2649" data-name="Path 2649" d="M1478.5,622.809a5.8,5.8,0,0,1-1.859-.435,3.7,3.7,0,0,0-.781-.232.619.619,0,0,1-.529-.347c-.788-1.275-2.176-10.7-1.36-12.334h0c.515-1.03,3.534-1.528,4.625-1.269.636.15.7.543.7.705s.092.943.2,1.858c.554,4.782,1.1,9.982.511,11.151A1.56,1.56,0,0,1,1478.5,622.809Zm-2.475-1.505a4.909,4.909,0,0,1,.9.269c1.1.4,1.973.645,2.319-.046.521-1.041-.29-8.039-.595-10.674-.113-.982-.177-1.547-.2-1.822a5.776,5.776,0,0,0-2.442.2c-.89.236-1.228.5-1.283.614C1474.1,611.1,1475.358,620.162,1476.024,621.3Z" transform="translate(-1394.508 -366.851)" fill="#212e3b"/>
        <path id="Path_2650" data-name="Path 2650" d="M1480.915,648.2c-5.7,0-5.7-.738-5.7-1.18,0-.133-.025-.632-.061-1.359-.449-9.232-.3-11.288.114-11.722l.126-.131.245-.032a9.162,9.162,0,0,0,.923-.111c1.748-.257,3.249-.417,3.9.236.93.928,1.491,12.637.964,13.91A.55.55,0,0,1,1480.915,648.2Zm-4.854-1.287c.3.172,1.541.424,4.625.435.41-1.631-.239-11.962-.842-12.865-.387-.385-2.26-.108-3.159.024-.325.048-.6.089-.818.108-.225.856-.179,4.553.135,11C1476.033,646.241,1476.054,646.7,1476.061,646.918Z" transform="translate(-1394.286 -361.998)" fill="#212e3b"/>
        <path id="Path_2651" data-name="Path 2651" d="M1425,634.209c-1.547,0-3.024-.18-3.461-.615-.791-.792-.334-8.508,1.245-12.323.751-1.811,1.7-2.73,2.827-2.73a3.439,3.439,0,0,1,2.9,1.939c2.251,3.643,2.439,11.385,2.008,12.249-.306.612-1.2,1.031-2.726,1.279A18.277,18.277,0,0,1,1425,634.209Zm-2.842-1.2c.445.316,3.463.567,5.844.1,1.415-.279,1.7-.649,1.753-.757.3-.722.068-8.4-2.089-11.607a2.54,2.54,0,0,0-2.054-1.35c-.553,0-1.081.418-1.568,1.243C1422.092,623.934,1421.72,632.069,1422.156,633.005Z" transform="translate(-1404.581 -364.855)" fill="#212e3b"/>
        <path id="Path_2652" data-name="Path 2652" d="M1443.483,634.932a8.463,8.463,0,0,1-2-.191,1.5,1.5,0,0,1-1.142-.8c-.437-1.133-.994-10.73,1.32-14.122a2.551,2.551,0,0,1,2.125-1.279h.009c1.255,0,2.37,1.3,3.314,3.855,1.356,3.677,2.5,11.124,1.8,11.717C1448.493,634.459,1445.725,634.932,1443.483,634.932Zm.305-15.54a1.733,1.733,0,0,0-1.427.907c-2.124,3.115-1.631,12.3-1.229,13.336.02.051.125.141.355.222,1.538.543,5.931-.05,6.79-.366.18-1.39-.946-10.268-3.2-13.238a1.759,1.759,0,0,0-1.287-.86Z" transform="translate(-1400.981 -364.855)" fill="#212e3b"/>
        <path id="Path_2653" data-name="Path 2653" d="M1425.705,651.33c-1.683,0-3.432-.135-3.837-.58-.685-.753-.974-7.92.623-11.648.784-1.833,1.927-2.78,3.4-2.816h0c1.118-.021,2.045.639,2.84,1.971,2.108,3.533,2.626,11.322,2.137,12.179-.155.27-.544.574-2.267.763C1427.956,651.268,1426.846,651.33,1425.705,651.33Zm.2-14.194a2.693,2.693,0,0,0-2.283,1.592c-1.973,3.409-1.481,10.783-1.1,11.483.708.472,7.016.328,7.624-.229.248-.68-.205-8.564-2.4-11.669a2.3,2.3,0,0,0-1.807-1.177Z" transform="translate(-1404.55 -361.454)" fill="#212e3b"/>
        <path id="Path_2654" data-name="Path 2654" d="M1445.139,650.82a10.339,10.339,0,0,1-2.29-.2c-.545-.139-.863-.36-.975-.674-.293-.833-.866-9.492,1.323-12.536a2.387,2.387,0,0,1,1.979-1.126h.037c1.037.016,1.995,1.233,2.928,3.724,1.176,3.139,2.521,9.439,1.773,10.112C1449.455,650.534,1447.117,650.82,1445.139,650.82Zm.038-13.684a1.571,1.571,0,0,0-1.289.771c-1.944,2.7-1.471,11.02-1.211,11.757.509.565,5.675.318,6.613-.144.166-1.077-1.18-8.877-3.123-11.615-.35-.492-.692-.765-.968-.769Zm4.1,12.451Z" transform="translate(-1400.667 -361.454)" fill="#212e3b"/>
        <path id="Path_2655" data-name="Path 2655" d="M1510.028,634.284c-1.546,0-3.023-.18-3.458-.615h0c-.791-.791-.335-8.508,1.245-12.323.751-1.811,1.7-2.73,2.826-2.73a3.44,3.44,0,0,1,2.9,1.938c2.251,3.642,2.439,11.386,2.008,12.251-.306.611-1.2,1.03-2.724,1.277A18.3,18.3,0,0,1,1510.028,634.284Zm-2.841-1.2c.448.316,3.469.568,5.848.1,1.411-.278,1.7-.649,1.749-.757.3-.722.068-8.394-2.089-11.607a2.54,2.54,0,0,0-2.054-1.35c-.553,0-1.08.418-1.567,1.243C1507.124,624.009,1506.751,632.144,1507.187,633.081Z" transform="translate(-1388.285 -364.84)" fill="#212e3b"/>
        <path id="Path_2656" data-name="Path 2656" d="M1528.522,635a8.733,8.733,0,0,1-2.008-.185,1.494,1.494,0,0,1-1.144-.8c-.438-1.132-.994-10.728,1.318-14.121a2.555,2.555,0,0,1,2.126-1.28h.009c1.257,0,2.373,1.3,3.318,3.866,1.354,3.675,2.493,11.116,1.792,11.707C1533.477,634.573,1530.721,635,1528.522,635Zm.3-15.535a1.737,1.737,0,0,0-1.427.908c-2.124,3.115-1.63,12.294-1.228,13.335.019.051.124.141.355.222,1.536.543,5.931-.05,6.789-.366.18-1.388-.945-10.264-3.2-13.237a1.753,1.753,0,0,0-1.287-.862Z" transform="translate(-1384.685 -364.84)" fill="#212e3b"/>
        <path id="Path_2657" data-name="Path 2657" d="M1510.736,651.406c-1.683,0-3.432-.136-3.837-.582-.685-.753-.974-7.918.623-11.648.786-1.833,1.927-2.78,3.4-2.815h0c1.056-.058,2.042.636,2.838,1.971,2.108,3.534,2.626,11.321,2.137,12.179-.155.27-.545.573-2.266.763C1512.987,651.343,1511.877,651.406,1510.736,651.406Zm.24-14.195h-.037a2.691,2.691,0,0,0-2.283,1.592c-1.973,3.408-1.481,10.782-1.1,11.482.707.473,7.015.328,7.625-.228.248-.682-.206-8.566-2.4-11.67A2.3,2.3,0,0,0,1510.976,637.211Z" transform="translate(-1388.254 -361.44)" fill="#212e3b"/>
        <path id="Path_2658" data-name="Path 2658" d="M1530.171,650.894a10.332,10.332,0,0,1-2.29-.2c-.545-.138-.864-.36-.976-.674-.293-.833-.866-9.491,1.324-12.536a2.44,2.44,0,0,1,2.015-1.125c1.037.016,1.995,1.233,2.928,3.724,1.176,3.138,2.522,9.438,1.773,10.111C1534.487,650.609,1532.149,650.894,1530.171,650.894Zm.037-13.684a1.569,1.569,0,0,0-1.29.772c-1.944,2.7-1.47,11.019-1.211,11.757.51.564,5.675.317,6.613-.145.167-1.076-1.178-8.875-3.123-11.614-.35-.492-.692-.765-.968-.77Zm4.1,12.452Z" transform="translate(-1384.371 -361.44)" fill="#212e3b"/>
        <path id="Path_2659" data-name="Path 2659" d="M1465.884,429.9h-.849a26.032,26.032,0,0,1,1.63-8.448c2.166-5.6,6.182-8.567,11.614-8.567,13.02,0,16.223,16.019,16.253,16.18l-.835.16c-.03-.155-3.1-15.489-15.418-15.489-5.116,0-8.753,2.692-10.812,8A25.674,25.674,0,0,0,1465.884,429.9Z" transform="translate(-1396.173 -404.267)" fill="#212e3b"/>
        <path id="Path_2660" data-name="Path 2660" d="M1495.611,458.139l-.049-10.227.033-.05c.176-1.376-1.028-19.144-1.739-20.879-1.951-.512-26.548.117-28.007,1.417-.48.975-.024,13.273.384,20.783l-.306,8.2-.849-.031.306-8.159c-.178-3.242-1.027-19.69-.262-21.221.164-.329.624-.59,2.406-.879,5.819-.944,26.005-1.665,26.929-.739.712.711,2.331,19.221,1.953,21.688h0l.048,10.1Z" transform="translate(-1396.216 -401.77)" fill="#212e3b"/>
        <path id="Path_2661" data-name="Path 2661" d="M1495.868,445.049c-6.633-.835-30.454-.278-30.692-.272l-.021-.851c.983-.023,24.125-.564,30.821.279Z" transform="translate(-1396.15 -398.356)" fill="#212e3b"/>
        <path id="Path_2662" data-name="Path 2662" d="M1503.927,455.016l-.74-.421c1.009-1.777,2.043-4.475,1.359-4.918-1.608-.7-41.547-1.109-45.024-.472a42.757,42.757,0,0,0,.079,5.574l-.85.051c-.1-1.63-.287-5.491.045-6.151l.086-.17.265-.089c1.307-.356,14.569-.385,23.168-.318,8.076.063,21.766.259,22.695.862C1506.65,450.026,1504.395,454.191,1503.927,455.016Z" transform="translate(-1397.404 -397.525)" fill="#212e3b"/>
        <path id="Path_2663" data-name="Path 2663" d="M1479.362,528.217h-4.311l-.017-.409c-.033-.813-.281-7.987,1.385-9.362a1.139,1.139,0,0,1,1.014-.242c2.506.595,2.071,8.116,1.958,9.619Zm-3.493-.851h2.7c.211-3.408-.056-8.029-1.333-8.333a.289.289,0,0,0-.278.07C1476,519.9,1475.782,524.426,1475.869,527.367Z" transform="translate(-1394.262 -384.09)" fill="#212e3b"/>
      </g>
    </g>
  </g>
</svg>
