<svg xmlns="http://www.w3.org/2000/svg" width="355.331" height="496" viewBox="0 0 355.331 496">
  <g id="_4" data-name="4" transform="translate(11209.331 -13343)">
    <rect id="Rectangle_276" data-name="Rectangle 276" width="352" height="496" transform="translate(-11206 13343)" fill="#fff"/>
    <g id="kołobrzeg" transform="translate(-12888.499 13006.186)">
      <path id="Path_2238" data-name="Path 2238" d="M1680.234,699.217s42.517,6.922,45.979,0,2.6-49.915,13.844-50.917,213.73-10.232,220.653-8.646,18.171,62.255,25.094,62.639,48.693,3.845,48.693,3.845l-.036,84.5H1679.177Z" transform="translate(0.002 42.053)" fill="#e6c2b0"/>
      <g id="Group_434" data-name="Group 434" transform="translate(1801.893 754.629)">
        <path id="Path_2239" data-name="Path 2239" d="M1788.481,715.011l-4.62-5.265v5.265h-1.891V700.743h1.891v5.438l4.534-5.438h2.491l-6.037,7.242,6.187,7.027Z" transform="translate(-1781.97 -700.701)" fill="#212e3b"/>
        <path id="Path_2240" data-name="Path 2240" d="M1794.05,714.571a6.912,6.912,0,0,1-2.288-1.557,7.2,7.2,0,0,1-1.547-2.31,7.222,7.222,0,0,1-.011-5.544,7.162,7.162,0,0,1,1.558-2.311,7.258,7.258,0,0,1,2.288-1.546,6.919,6.919,0,0,1,2.76-.56,7,7,0,0,1,2.773.56,7.219,7.219,0,0,1,3.845,3.845,6.989,6.989,0,0,1,.56,2.773,7.064,7.064,0,0,1-.56,2.783,7.2,7.2,0,0,1-3.845,3.857,7.2,7.2,0,0,1-5.533.01Zm.752-11.474a5.205,5.205,0,0,0-3.214,4.824,5.268,5.268,0,0,0,.41,2.051,5.2,5.2,0,0,0,9.627,0,5.288,5.288,0,0,0,.407-2.051,5.227,5.227,0,0,0-7.229-4.824Z" transform="translate(-1780.48 -700.701)" fill="#212e3b"/>
        <path id="Path_2241" data-name="Path 2241" d="M1812.576,713.081v1.934h-6.146v-3.653l-1.117,2.084h-1.761l2.878-5.349v-7.372h1.849v3.934l1.7-3.159h1.761l-3.459,6.425v5.156Z" transform="translate(-1777.787 -700.705)" fill="#212e3b"/>
        <path id="Path_2242" data-name="Path 2242" d="M1817.4,714.571a6.9,6.9,0,0,1-2.289-1.557,7.188,7.188,0,0,1-1.547-2.31,7.219,7.219,0,0,1-.011-5.544,7.162,7.162,0,0,1,1.558-2.311,7.248,7.248,0,0,1,2.289-1.546,6.915,6.915,0,0,1,2.76-.56,7,7,0,0,1,2.772.56,7.214,7.214,0,0,1,3.846,3.845,6.985,6.985,0,0,1,.56,2.773,7.06,7.06,0,0,1-.56,2.783,7.194,7.194,0,0,1-3.846,3.857,7.2,7.2,0,0,1-5.532.01Zm.752-11.474a5.2,5.2,0,0,0-3.214,4.824,5.25,5.25,0,0,0,.409,2.051,5.2,5.2,0,0,0,9.626,0,5.267,5.267,0,0,0,.408-2.051,5.227,5.227,0,0,0-7.229-4.824Z" transform="translate(-1775.956 -700.701)" fill="#212e3b"/>
        <path id="Path_2243" data-name="Path 2243" d="M1833.373,701.266a3.683,3.683,0,0,1,1.386,1.44,4.258,4.258,0,0,1,.483,2.041,4.039,4.039,0,0,1-.312,1.581,4.543,4.543,0,0,1-.849,1.322,4.093,4.093,0,0,1,1.655,3.331,3.954,3.954,0,0,1-.537,2.02,4.107,4.107,0,0,1-1.44,1.471,3.765,3.765,0,0,1-2,.548h-4.684v-14.31h4.19A4.188,4.188,0,0,1,1833.373,701.266Zm-4.405,1.375V706.9h2.3a1.98,1.98,0,0,0,1.483-.623,2.112,2.112,0,0,0,.6-1.526,2.059,2.059,0,0,0-.591-1.5,2.006,2.006,0,0,0-1.493-.6Zm0,6.189v4.255h2.793a2,2,0,0,0,1.483-.611,2.053,2.053,0,0,0,.6-1.493,2.115,2.115,0,0,0-.6-1.527,1.984,1.984,0,0,0-1.483-.623Z" transform="translate(-1773.228 -700.708)" fill="#212e3b"/>
        <path id="Path_2244" data-name="Path 2244" d="M1844.932,715.011H1842.4l-4.1-4.877v4.877H1836.4V700.743h3.676a4.44,4.44,0,0,1,3.223,1.355,4.9,4.9,0,0,1,.966,1.515,4.893,4.893,0,0,1,.043,3.491,4.478,4.478,0,0,1-.858,1.418,4.666,4.666,0,0,1-1.312,1.021,4.269,4.269,0,0,1-1.567.485Zm-6.64-12.334v5.459h1.785a2.558,2.558,0,0,0,1.03-.215,2.757,2.757,0,0,0,.86-.58,2.85,2.85,0,0,0,.569-.882,2.718,2.718,0,0,0,.2-1.052,2.664,2.664,0,0,0-1.633-2.514,2.539,2.539,0,0,0-1.03-.216Z" transform="translate(-1771.421 -700.701)" fill="#212e3b"/>
        <path id="Path_2245" data-name="Path 2245" d="M1844.9,713.318l7.263-10.66H1844.9v-1.934h9.713v1.741l-7.24,10.594h7.24v1.955H1844.9Z" transform="translate(-1769.774 -700.705)" fill="#212e3b"/>
        <path id="Path_2246" data-name="Path 2246" d="M1855.1,715.015v-14.29h7.821v1.934h-5.952V707h4v1.762h-4v4.318h5.952v1.934Z" transform="translate(-1767.796 -700.705)" fill="#212e3b"/>
        <path id="Path_2247" data-name="Path 2247" d="M1873.65,714.26a6.975,6.975,0,0,1-3.331.837,6.9,6.9,0,0,1-2.106-.322,6.75,6.75,0,0,1-2.428-1.288A7.254,7.254,0,0,1,1864,711.3a6.7,6.7,0,0,1-.815-3.289,6.259,6.259,0,0,1,.043-.858,7.323,7.323,0,0,1,.611-2.247,6.821,6.821,0,0,1,1.257-1.879,7.421,7.421,0,0,1,1.773-1.375,7.045,7.045,0,0,1,2.138-.775,6.86,6.86,0,0,1,4.727.775,8.722,8.722,0,0,1,2.172,1.825l-1.483,1.246a6.43,6.43,0,0,0-2.214-1.653,5.494,5.494,0,0,0-1.956-.366,5.057,5.057,0,0,0-4.6,2.922,4.9,4.9,0,0,0-.56,2.3,5.092,5.092,0,0,0,.193,1.374,4.858,4.858,0,0,0,1.849,2.773,5.185,5.185,0,0,0,3.159,1.074,5.021,5.021,0,0,0,2.138-.463,5.6,5.6,0,0,0,1.773-1.3v-1.44h-1.977v-1.934h3.888v4.083a6.65,6.65,0,0,1-1.483,1.548A7.452,7.452,0,0,1,1873.65,714.26Z" transform="translate(-1766.23 -700.701)" fill="#212e3b"/>
      </g>
      <g id="kolobrzeg_kolor" data-name="kolobrzeg kolor" transform="translate(1787.217 423.845)">
        <path id="Path_2248" data-name="Path 2248" d="M1813.481,434.333c.8-1.146,6.993-1.479,7.663-.427s.485,20.456-.516,20.684c-2.251.513-6.213.842-7.261.558S1812.658,435.507,1813.481,434.333Z" transform="translate(-1761.335 -421.754)" fill="#efe8e5"/>
        <path id="Path_2249" data-name="Path 2249" d="M1838.478,455.054c-.521.341-5.416.223-6.426-.11-1.26-.415-1.85-21.342-1.01-21.589a21.15,21.15,0,0,1,6.848-.213C1839.139,433.429,1839.761,454.211,1838.478,455.054Z" transform="translate(-1757.859 -421.815)" fill="#efe8e5"/>
        <path id="Path_2250" data-name="Path 2250" d="M1818.433,445.354c1.59-.994,17.641-.864,17.814-.519s1,6.959-.216,7.523-17.555.808-18.592.333S1818.433,445.354,1818.433,445.354Z" transform="translate(-1760.476 -419.563)" fill="#efe8e5"/>
        <path id="Path_2251" data-name="Path 2251" d="M1777.234,604.509c4.215-10.354,128.811-.924,130.563,2.311s4.819,53.041,2.191,55.4-137.135-.873-139.763-4.107S1775.165,609.593,1777.234,604.509Z" transform="translate(-1769.676 -389.483)" fill="#ad6e42"/>
        <path id="Path_2252" data-name="Path 2252" d="M1875.424,616.817c2.834-1.031-6.336-134.513-8.686-138.614s-60.986,2.974-64.372,4.416c-1.517.646-9.158,128.182-6.973,132.375,0,0,12.112.372,14.188.372,1.3,0,.857-3.934,3.759-4.9a6.64,6.64,0,0,1,4.741-.063c6.011,1.8,4.212,5.314,5.768,5.055s8.782.518,10.229,0,.927-5.189,5.077-5.189,4.67,4.929,6.227,4.929,9.6.778,10.637.26,3.631-5.708,6.485-5.448,4.954,4.41,6.239,4.67S1873.816,617.4,1875.424,616.817Z" transform="translate(-1764.767 -413.291)" fill="#ad6e42"/>
        <path id="Path_2253" data-name="Path 2253" d="M1828.944,423.654c1.7.643,15.315,8.168,14.839,10.053s-29.35,2.748-30.66,1.189S1827.217,423,1828.944,423.654Z" transform="translate(-1761.271 -423.624)" fill="#212e3b"/>
        <path id="Path_2254" data-name="Path 2254" d="M1806.7,452.761c.758-.547,43.063-1.275,43.346-.638a5.04,5.04,0,0,1-.528,3.266c-.418.33-42.723-.519-42.818-.807A11.592,11.592,0,0,1,1806.7,452.761Z" transform="translate(-1762.508 -418.149)" fill="#9f311b"/>
        <path id="Path_2255" data-name="Path 2255" d="M1823.65,528.177c-.526-.871-.462-17.07,3.173-16.723s3.307,16.143,2.774,16.858C1829.093,528.99,1824.078,528.887,1823.65,528.177Z" transform="translate(-1759.262 -406.603)" fill="#fff"/>
        <path id="Path_2256" data-name="Path 2256" d="M1825.136,555.066c-.573-.966-.892-19.164,2.927-18.867s3.85,18.049,3.309,18.867C1830.859,555.84,1825.6,555.852,1825.136,555.066Z" transform="translate(-1758.994 -401.807)" fill="#fff"/>
        <path id="Path_2257" data-name="Path 2257" d="M1823.743,580.727c-.72-1.076-1.121-21.356,3.685-21.025s4.847,20.114,4.166,21.025C1830.949,581.59,1824.331,581.6,1823.743,580.727Z" transform="translate(-1759.281 -397.252)" fill="#fff"/>
      </g>
      <g id="kołobrzeg-2" data-name="kołobrzeg" transform="translate(1778.781 422.486)">
        <path id="Path_2258" data-name="Path 2258" d="M1782.205,660.09c-10.215,0-17.262-.612-18.3-2.335-4.527-7.477,3.92-51.91,8.908-56.151.79-.672,3.147-1.006,5.7-1.318.564-.068,1.059-.129,1.282-.174a10.749,10.749,0,0,0,.5-2.1c.368-2,.659-3.339,1.322-3.731a.791.791,0,0,1,.671-.072,5.148,5.148,0,0,0,2.108-.177c1.213-.247,2.464-.5,2.938.343a17.142,17.142,0,0,1,.855,2.242,17.691,17.691,0,0,0,1.143,2.882,22.286,22.286,0,0,1,2.3-.141c1.8-.068,6.008-.23,6.454-.74a5.686,5.686,0,0,0,.311-1.939c.086-1.335.168-2.594,1.018-2.87.963-.313,4.676-.723,5.642.074.8.658,1.357,3.774,1.447,5.051,5.144-.032,10.747-.185,11.6-.415a16.722,16.722,0,0,0,.493-2.249c.388-2.151.529-2.967,1.157-2.87.091.012.346.013.694.019,2.6.036,4.2.176,4.678.778.387.481.195,1.412-.029,2.489a4.937,4.937,0,0,0-.192,1.779l.424.037c12.5,1.792,14.286,1.419,14.532,1.261.745-.8,2.02-4.442,2.083-4.774l-.033-.289.278-.051c.4-.191,3.654-.186,4.23.39.633.633.7,2.93.7,3.731.925.888,11.279,1.819,12.385,1.368.4-.279.9-2.88,1.057-3.733.082-.427.146-.757.188-.9.1-.351.509-.559,1.4-.72.595-.106,3.725-.485,4.313.3a8.8,8.8,0,0,1,.749,2.9c.109.648.214,1.262.314,1.615,1.1.778,12.266,1.748,13.223,1.134a10.862,10.862,0,0,0,1-2.218,7.5,7.5,0,0,1,1.038-2.164,3.791,3.791,0,0,1,3.938,0c.365.365.425,1.159.492,2.423a6.321,6.321,0,0,0,.254,1.889c.051-.013.535.036,1.251.11,8.335.876,11.982,1.631,12.591,2.6h0c1.661,2.659,14.7,51.732,13.282,54.289a.517.517,0,0,1-.457.282h-77.676c-2.171,0-7.31.278-13.815.63C1807.853,659.381,1793.2,660.09,1782.205,660.09Zm-.179-65.1c-.371.147-.749,2.191-.929,3.173-.329,1.787-.5,2.583-1.027,2.725a14.6,14.6,0,0,1-1.464.213c-1.608.2-4.6.561-5.268,1.129-4.681,3.98-12.973,48.108-8.739,55.1,2.092,3.455,39.852,1.415,58,.433,6.518-.352,11.667-.63,13.86-.63H1913.9c.444-3.658-10.973-49.612-13.289-53.32h0c-.294-.472-2.612-1.239-11.982-2.224-.754-.079-1.268-.135-1.4-.161-.7-.137-.759-1.227-.832-2.607a6.263,6.263,0,0,0-.254-1.891,3.175,3.175,0,0,0-2.781,0,8.5,8.5,0,0,0-.851,1.875,10.173,10.173,0,0,1-1.167,2.479c-.843,1.011-9.781.076-12.442-.45-1.65-.327-2.034-.586-2.139-.925a16.39,16.39,0,0,1-.361-1.788,11.323,11.323,0,0,0-.6-2.55,9.187,9.187,0,0,0-4.291.232c-.037.153-.087.42-.15.752-.457,2.4-.836,3.863-1.426,4.269-.871.6-11.043-.192-13.07-1.255-.377-.2-.569-.445-.569-.731a7.4,7.4,0,0,0-.464-3.224,10.548,10.548,0,0,0-3.154-.242,18.683,18.683,0,0,1-2.248,4.967c-.285.3-.956,1.016-15.225-1.03l-.462-.066a.731.731,0,0,1-.512-.309c-.343-.481-.156-1.378.057-2.415a4.982,4.982,0,0,0,.191-1.815c-.158-.19-.989-.427-4.052-.47-.227,0-.421-.007-.565-.012a19.484,19.484,0,0,0-.468,2.189c-.309,1.716-.462,2.44-.731,2.712-.137.142-.556.568-12.566.628l-.469,0,.061-.464c.085-.646-.607-4.322-1.159-4.779s-3.752-.289-4.871.074c-.322.1-.4,1.381-.454,2.144a5.6,5.6,0,0,1-.437,2.324c-.456.738-2.657.949-7.113,1.12-.949.037-2.025.078-2.213.134a.526.526,0,0,1-.421-.016c-.481-.218-.86-1.207-1.61-3.413a18.449,18.449,0,0,0-.794-2.106c-.185-.327-1.269-.1-2.062.058A5.441,5.441,0,0,1,1782.026,594.987Z" transform="translate(-1762.61 -389.364)" fill="#212e3b"/>
        <path id="Path_2259" data-name="Path 2259" d="M1861.588,623.579l-.787-.226c.606-2.109-.512-30.935-2.85-73.435-2.069-37.607-4.251-70.559-4.764-71.955l.735-.357c.669,1.3,3.223,42.817,4.824,71.881C1859.656,566.02,1862.552,620.221,1861.588,623.579Z" transform="translate(-1745.056 -411.803)" fill="#212e3b"/>
        <path id="Path_2260" data-name="Path 2260" d="M1789.183,622.011c-.858-4.9,6.118-139.3,7.465-143.809l.783.235c-1.343,4.495-8.3,138.545-7.441,143.433Z" transform="translate(-1757.474 -411.688)" fill="#212e3b"/>
        <path id="Path_2261" data-name="Path 2261" d="M1827.344,581.216c-.15,0-.278,0-.377,0-1.675-.041-2.662-.3-2.935-.776-.584-1.014-.832-14.44,1.491-18.112a1.826,1.826,0,0,1,1.692-1.046c.729.057,1.36.616,1.877,1.658,2.045,4.133,2.221,16.543,1.595,17.518C1830.253,581.126,1828.333,581.216,1827.344,581.216Zm-2.6-1.194a5.829,5.829,0,0,0,2.591.376h0a5.763,5.763,0,0,0,2.674-.4c.377-.954.3-13.591-1.862-17.092-.318-.515-.653-.79-.994-.818-.11-.006-.439-.033-.844.531C1824.011,565.828,1824.365,579,1824.74,580.022Z" transform="translate(-1750.783 -395.589)" fill="#212e3b"/>
        <path id="Path_2262" data-name="Path 2262" d="M1827.344,555.935c-.151,0-.281,0-.381,0-1.673-.042-2.659-.3-2.931-.776h0c-.584-1.015-.832-14.443,1.491-18.114a1.84,1.84,0,0,1,1.692-1.046c.728.059,1.36.616,1.877,1.658,2.045,4.133,2.221,16.543,1.595,17.518C1830.253,555.845,1828.334,555.935,1827.344,555.935Zm-2.6-1.194a5.819,5.819,0,0,0,2.588.376h0a5.819,5.819,0,0,0,2.675-.4c.377-.955.3-13.593-1.862-17.093-.318-.515-.653-.789-.994-.817-.11-.008-.439-.033-.844.531C1824.011,540.548,1824.365,553.724,1824.74,554.741Z" transform="translate(-1750.783 -400.488)" fill="#212e3b"/>
        <path id="Path_2263" data-name="Path 2263" d="M1826.761,529.537c-.15,0-.278,0-.377,0-1.675-.042-2.662-.3-2.934-.776h0c-.584-1.015-.832-14.443,1.491-18.115a1.836,1.836,0,0,1,1.692-1.045c.728.058,1.36.616,1.877,1.658,2.045,4.132,2.222,16.541,1.595,17.518C1829.67,529.447,1827.75,529.537,1826.761,529.537Zm-2.6-1.194a5.828,5.828,0,0,0,2.591.376h0a5.744,5.744,0,0,0,2.674-.4c.377-.954.3-13.591-1.862-17.092-.318-.515-.653-.79-.994-.818-.111-.007-.439-.033-.844.532C1823.428,514.149,1823.783,527.325,1824.157,528.343Z" transform="translate(-1750.896 -405.604)" fill="#212e3b"/>
        <path id="Path_2264" data-name="Path 2264" d="M1802.147,495.918c-.167-3.828-1.135-9.992-3.017-10.237-2.544-.334-3.8,3.413-3.808,3.45l-.39-.118,0,.01-.4-.091c.01-.045,1.459-4.485,4.706-4.063,1.811.236,2.753,3.435,3.239,6.34.323-2.416.966-5.1,2.243-6.309a2.328,2.328,0,0,1,1.782-.69c2.346.131,3.441,3.244,3.95,6.08.51-2.783,1.7-5.829,4.466-6.082a2.752,2.752,0,0,1,2.354.856,6.68,6.68,0,0,1,1.394,3.713c.716-2.36,1.982-4.538,4.213-4.583a3.22,3.22,0,0,1,2.38.981,8.52,8.52,0,0,1,1.876,4.347c.489-2.462,1.49-5.083,3.545-5.327a2.293,2.293,0,0,1,1.8.568,7.738,7.738,0,0,1,1.948,3.886,6.9,6.9,0,0,1,1.388-3.7,2.342,2.342,0,0,1,1.856-.769c2.15.081,3.3,2.63,3.916,5.069a7.694,7.694,0,0,1,1.591-3.986,3.245,3.245,0,0,1,2.476-1.085h.026a3.632,3.632,0,0,1,2.7,1.166,7.847,7.847,0,0,1,1.723,3.924c.659-2.386,2.109-5.09,5.3-5.09h.033a3.694,3.694,0,0,1,2.994,1.348,6.632,6.632,0,0,1,1.209,3.677c.825-2.395,2.1-5.025,3.711-5.025h.018c2.8.037,3.343,7.72,3.424,9.26l-.817.043c-.186-3.512-1.121-8.465-2.615-8.484h-.011c-1.612,0-3.283,4.991-3.961,8.144l-.8-.167c.011-.048.953-4.778-.8-6.932a2.867,2.867,0,0,0-2.361-1.043h-.027c-4.565,0-5,7.036-5.028,7.785,0,.037,0,.062,0,.073l-.818-.026c0-.016,0-.044,0-.086.016-.627.049-4.914-1.775-6.833a2.8,2.8,0,0,0-2.107-.911h-.021a2.428,2.428,0,0,0-1.874.821c-1.713,1.862-1.614,6.235-1.547,7.507.017.2.024.327.025.367l-.815.058c0-.039-.018-.218-.033-.5-.211-2.656-1.181-8.154-3.768-8.25a1.613,1.613,0,0,0-1.232.513c-1.48,1.562-1.38,5.937-1.3,7.434.024.3.035.485.036.528l-.815.056c0-.042-.02-.23-.037-.529-.129-1.551-.645-6.174-2.344-7.611a1.464,1.464,0,0,0-1.176-.38c-2.551.3-3.226,6.214-3.282,8.723,0,.113,0,.186,0,.209l-.819-.016c0-.019,0-.056,0-.113.01-.811-.013-6.061-2-8.061a2.316,2.316,0,0,0-1.782-.74c-2.716.057-3.742,4.4-4.122,7.257-.061,1.362-.207,2.378-.223,2.487l-.813-.07c0-.13.037-1.15.217-2.507.1-2.185-.028-5.231-1.277-6.552a1.932,1.932,0,0,0-1.685-.6c-4.054.372-4.107,8.723-4.1,9.772,0,.057,0,.1,0,.116l-.818.014c0-.03,0-.11,0-.232-.061-2.841-.8-9.509-3.621-9.667a1.544,1.544,0,0,0-1.173.469c-2.287,2.163-2.315,10.323-2.315,10.405Z" transform="translate(-1756.424 -410.53)" fill="#212e3b"/>
        <path id="Path_2265" data-name="Path 2265" d="M1796.228,478.785l-.819-.007v-.148c.052-8.254.684-12.762,1.88-13.4,1.815-.968,23.072-2.586,32.479-2.5,7.26.082,32.039,1.2,33.947,3.075,1.009.992,1.147,9.55.924,10.823l-.806-.142c.266-1.521-.071-9.392-.694-10.1-1.3-1.284-21.778-2.709-33.38-2.838-9.826-.117-30.517,1.56-32.084,2.4-.634.338-1.392,3.863-1.447,12.684Z" transform="translate(-1756.253 -414.686)" fill="#212e3b"/>
        <path id="Path_2266" data-name="Path 2266" d="M1813.178,455.775c-.746-1.053-.616-20.647.147-22.07l.074-.14.15-.053c1.382-.486,26.189-.91,28.144-.667l.205.025.1.18c.616,1.1,1.471,21.009.261,22.316l-.6-.555c.7-1.144.43-18.788-.3-21.176-3.242-.224-25.013.266-27.373.615-.573,2.154-.7,19.712-.123,21.084Z" transform="translate(-1752.906 -420.492)" fill="#212e3b"/>
        <path id="Path_2267" data-name="Path 2267" d="M1812.876,436.442a5.283,5.283,0,0,1-2.475-.371.5.5,0,0,1-.138-.569c.6-1.755,15.268-12.938,17.924-13.014h.036c3.142,0,17.146,11.114,17.924,12.505a.507.507,0,0,1,.013.55c-.464.709-2.534.542-3.728.377l.111-.809a9.66,9.66,0,0,0,2.73.056c-1.7-2.018-14.624-11.86-17.038-11.86h-.025c-2.462.069-15.358,10.188-17.012,12.217a16.644,16.644,0,0,0,2.967.066l.045.817C1813.879,436.421,1813.394,436.442,1812.876,436.442Z" transform="translate(-1753.381 -422.486)" fill="#212e3b"/>
        <path id="Path_2268" data-name="Path 2268" d="M1809.2,479.766c0-.2-.426-20.119-.162-25.81l.816.038c-.262,5.663.16,25.553.165,25.754Z" transform="translate(-1753.629 -416.387)" fill="#212e3b"/>
        <path id="Path_2269" data-name="Path 2269" d="M1819.127,479.419c-.06-3.408,1.46-24.76,1.523-25.666l.817.057c-.017.222-1.581,22.223-1.521,25.594Z" transform="translate(-1751.657 -416.426)" fill="#212e3b"/>
        <path id="Path_2270" data-name="Path 2270" d="M1831.727,479.289l-.815-.044c.117-2.209-1.7-25-1.724-25.235l.817-.066C1830.08,454.886,1831.849,477.025,1831.727,479.289Z" transform="translate(-1749.707 -416.389)" fill="#212e3b"/>
        <path id="Path_2271" data-name="Path 2271" d="M1842.245,478.637l-.815-.047c.491-8.6-.016-24.275-.021-24.432l.819-.027C1842.232,454.289,1842.738,470,1842.245,478.637Z" transform="translate(-1747.339 -416.353)" fill="#212e3b"/>
        <path id="Path_2272" data-name="Path 2272" d="M1794.833,479.8c-.579,0-1.052-.118-1.228-.456a3.744,3.744,0,0,1-.291-2.434.862.862,0,0,1,.518-.525c.934-.326,35.393-1.572,37.661-1.51,1.59.036,10.338-.229,18.786-.487,10.5-.319,16.954-.511,17.428-.432.3.049.676.3.723,1.2.055,1.052-.428,3.8-1.237,4.017-.293.081-4.652-.01-18.481-.341-7.93-.191-16.114-.393-17.723-.364-3.278.048-33.119,1.052-34.371,1.094A8.662,8.662,0,0,1,1794.833,479.8Zm36.344-4.111c-4.442,0-35.979,1.248-37.1,1.477a2.976,2.976,0,0,0,.257,1.8,6.638,6.638,0,0,0,2.146-.209l.076-.011c.312-.01,31.087-1.046,34.426-1.095,1.6-.021,9.448.165,17.753.364,8.039.193,17.124.406,18.2.368.407-.528.937-3.24.583-3.649-.5-.043-9.368.234-17.212.473-8.463.257-17.228.523-18.829.485Z" transform="translate(-1756.68 -412.514)" fill="#212e3b"/>
        <path id="Path_2273" data-name="Path 2273" d="M1807.18,455.155h0c-.585,0-1.972-.079-2.213-.806-.153-.466-.363-1.946.365-2.347.679-.374,23.98-.63,24.183-.636.929.033,5.572-.059,10.478-.155,8.808-.175,11.79-.221,12.1-.138.565.144.625.948.646,1.212,0,.02.108,2.164-.586,2.462-.215.092-1.694.135-15.685.189-3.455.013-6.439.025-7.182.042-2.123.05-21.907.177-22.107.179Zm21.555-2.98c-4.251,0-22.212.382-23.086.574a3.253,3.253,0,0,0,.093,1.342,3.329,3.329,0,0,0,1.435.245c.3,0,19.981-.129,22.093-.177.749-.018,3.737-.03,7.2-.043,5.652-.021,14.056-.054,15.306-.133a4.42,4.42,0,0,0,.066-2.121c-.862-.051-6.925.068-11.831.165-4.921.1-9.567.192-10.523.155C1829.336,452.178,1829.08,452.176,1828.735,452.176Z" transform="translate(-1754.43 -416.954)" fill="#212e3b"/>
        <path id="Path_2274" data-name="Path 2274" d="M1805.9,453.672c-1.776-8.24-1.116-8.743-.9-8.908,1.122-.854,42.909-.271,45.652.162.371.06.6.124.719.3.638.919.45,6,.376,7.533l-.815-.038c.136-2.883.1-6.252-.191-6.95-2.45-.643-42.287-.935-45.253-.328-.168.6.474,4.627,1.213,8.056Z" transform="translate(-1754.453 -418.253)" fill="#212e3b"/>
        <path id="Path_2275" data-name="Path 2275" d="M1819.934,455.346l-.819-.013c.346-22,.657-22.324,1.165-22.324h.022l0,.409.35.187C1820.361,434.468,1820.063,447.079,1819.934,455.346Z" transform="translate(-1751.659 -420.447)" fill="#212e3b"/>
        <rect id="Rectangle_301" data-name="Rectangle 301" width="0.819" height="21.762" transform="translate(78.725 12.754) rotate(-1.989)" fill="#212e3b"/>
        <rect id="Rectangle_302" data-name="Rectangle 302" width="10.246" height="0.817" transform="translate(117.192 38.283) rotate(-18.978)" fill="#212e3b"/>
        <rect id="Rectangle_303" data-name="Rectangle 303" width="11.328" height="0.818" transform="translate(123.64 45.723)" fill="#212e3b"/>
        <rect id="Rectangle_304" data-name="Rectangle 304" width="0.818" height="8.126" transform="translate(120.841 57.334) rotate(-73.303)" fill="#212e3b"/>
        <path id="Path_2276" data-name="Path 2276" d="M1790.684,453.95l-11.416-4.622.308-.758,11.416,4.622Z" transform="translate(-1759.381 -417.431)" fill="#212e3b"/>
        <rect id="Rectangle_305" data-name="Rectangle 305" width="9.685" height="0.818" transform="translate(15.718 46.934)" fill="#212e3b"/>
        <rect id="Rectangle_306" data-name="Rectangle 306" width="6.156" height="0.818" transform="matrix(0.873, -0.487, 0.487, 0.873, 22.855, 58.918)" fill="#212e3b"/>
      </g>
      <path id="Path_2277" data-name="Path 2277" d="M1679.718,668.453a29.684,29.684,0,0,0,6.709-15.13c.414-3.1.4-6.451,2.21-9a33.83,33.83,0,0,1,3.568-3.585c6.353-6.591,4.076-17.5,7.419-26.018,1.453-3.7,3.954-6.882,5.858-10.372s3.226-7.627,2.044-11.423c-2.045-6.561-10.681-9.7-11.869-16.467-.415-2.364.189-4.772.356-7.166s-.253-5.092-2.145-6.569a10.69,10.69,0,0,0-3.192-1.441,37.666,37.666,0,0,1-11.508-7.067Z" transform="translate(0 25.529)" fill="#e6c2b0"/>
      <path id="Path_2278" data-name="Path 2278" d="M1978.66,579.957c-5.019,6.753-10.569,18.185-11.2,26.574-.214,2.845.116,5.74-.457,8.533" transform="translate(55.784 30.519)" fill="#e6c2b0"/>
      <path id="Path_2279" data-name="Path 2279" d="M1979.438,579.957l.055,94.306a11.217,11.217,0,0,0-3.88-4.776,13.868,13.868,0,0,0-3-1.465c-6.771-2.971-10.276-11.281-8.814-18.53.69-3.421,2.318-6.764,1.9-10.23-.366-3.063-2.3-5.772-2.655-8.838-.621-5.379,3.646-10.054,4.735-15.359" transform="translate(55.006 30.519)" fill="#e6c2b0"/>
    </g>
  </g>
</svg>
