<svg xmlns="http://www.w3.org/2000/svg" width="352.713" height="496.375" viewBox="0 0 352.713 496.375">
  <g id="_6" data-name="6" transform="translate(10371.713 -13343)">
    <rect id="Rectangle_276" data-name="Rectangle 276" width="352" height="496" transform="translate(-10371 13343)" fill="#fff"/>
    <g id="darłowo" transform="translate(-12759.499 13009.689)">
      <g id="Group_435" data-name="Group 435" transform="translate(2387.786 646.497)">
        <path id="Path_2280" data-name="Path 2280" d="M2740.5,794.685H2387.882l-.1-183.19s117.816,5.916,185.576,8.3,63.549-.069,92.749,2.55l2.576,48.276c6.584.859,21.615-2.5,31.205-10.625,9.447,9.909,12.313,10.6,18.917,10.6,7.735,0,17.727-9.848,17.727-9.848l3.964,5.545V794.685" transform="translate(-2387.786 -611.495)" fill="#e6c2b0"/>
      </g>
      <g id="Group_437" data-name="Group 437" transform="translate(2515.432 753.719)">
        <g id="Group_436" data-name="Group 436">
          <path id="Path_2281" data-name="Path 2281" d="M2495.515,716.191v-14.2h3.67a6.861,6.861,0,0,1,2.708.544,7.1,7.1,0,0,1,2.261,1.525,7.546,7.546,0,0,1,1.5,2.293,7.176,7.176,0,0,1,0,5.481,7.241,7.241,0,0,1-1.5,2.271,6.894,6.894,0,0,1-4.969,2.09Zm1.921-12.285v10.365h1.749a4.979,4.979,0,0,0,1.973-.405,5.2,5.2,0,0,0,1.652-1.109,5.3,5.3,0,0,0,1.1-1.674,5.255,5.255,0,0,0,0-3.988,5.309,5.309,0,0,0-1.1-1.674,5.2,5.2,0,0,0-1.652-1.109,4.98,4.98,0,0,0-1.973-.405Z" transform="translate(-2495.515 -701.987)" fill="#212e3b"/>
          <path id="Path_2282" data-name="Path 2282" d="M2516.383,716.185l-1.749-4.991H2510.2l-1.748,4.991h-2.027l4.927-14.162h2.134l4.926,14.162Zm-3.966-11.41L2510.8,709.4h3.219Z" transform="translate(-2493.498 -701.98)" fill="#212e3b"/>
          <path id="Path_2283" data-name="Path 2283" d="M2526.717,716.185H2524.2l-4.074-4.841v4.841h-1.877V702.023h3.648a4.4,4.4,0,0,1,3.2,1.344,4.842,4.842,0,0,1,.958,1.5,4.858,4.858,0,0,1,.043,3.466,4.434,4.434,0,0,1-.852,1.408,4.644,4.644,0,0,1-1.3,1.013,4.244,4.244,0,0,1-1.557.48Zm-6.592-12.242v5.417h1.771a2.538,2.538,0,0,0,1.023-.213,2.713,2.713,0,0,0,.854-.576,2.806,2.806,0,0,0,.564-.875,2.708,2.708,0,0,0,.2-1.045,2.646,2.646,0,0,0-1.622-2.5,2.539,2.539,0,0,0-1.023-.213Z" transform="translate(-2491.312 -701.98)" fill="#212e3b"/>
          <path id="Path_2284" data-name="Path 2284" d="M2536.242,714.268v1.919h-6.1v-3.626l-1.11,2.069h-1.746l2.856-5.311v-7.315h1.834v3.9l1.684-3.135h1.75l-3.434,6.377v5.119Z" transform="translate(-2489.641 -701.984)" fill="#212e3b"/>
          <path id="Path_2285" data-name="Path 2285" d="M2541.1,715.747a6.907,6.907,0,0,1-2.271-1.546,7.118,7.118,0,0,1-1.534-2.293,7.165,7.165,0,0,1-.011-5.5,7.11,7.11,0,0,1,1.545-2.293,7.236,7.236,0,0,1,2.271-1.536,6.87,6.87,0,0,1,2.742-.555,6.948,6.948,0,0,1,2.751.555,7.16,7.16,0,0,1,3.816,3.818,6.945,6.945,0,0,1,.556,2.751,7.023,7.023,0,0,1-.556,2.762,7.132,7.132,0,0,1-3.816,3.828,7.143,7.143,0,0,1-5.493.011Zm.746-11.389a5.175,5.175,0,0,0-3.188,4.788,5.233,5.233,0,0,0,.406,2.037,5.162,5.162,0,0,0,9.554,0,5.214,5.214,0,0,0,.405-2.037,5.192,5.192,0,0,0-7.177-4.788Z" transform="translate(-2487.894 -701.98)" fill="#212e3b"/>
          <path id="Path_2286" data-name="Path 2286" d="M2562.728,716.191h-1.9l-2.2-6.036-2.113,6.036H2554.6l-5.14-14.2h2.069l4.01,11.112,2.049-5.823-1.92-5.289h2.068l1.878,5.2,2.153,5.908,3.882-11.112h2.07Z" transform="translate(-2485.541 -701.987)" fill="#212e3b"/>
          <path id="Path_2287" data-name="Path 2287" d="M2570.131,715.747a6.873,6.873,0,0,1-2.271-1.546,7.091,7.091,0,0,1-1.536-2.293,7.159,7.159,0,0,1-.012-5.5,7.242,7.242,0,0,1,3.819-3.828,6.859,6.859,0,0,1,2.74-.555,6.944,6.944,0,0,1,2.751.555,7.166,7.166,0,0,1,3.817,3.818,6.915,6.915,0,0,1,.555,2.751,6.992,6.992,0,0,1-.555,2.762,7.138,7.138,0,0,1-3.817,3.828,7.138,7.138,0,0,1-5.491.011Zm.746-11.389a5.169,5.169,0,0,0-3.189,4.788,5.232,5.232,0,0,0,.405,2.037,5.164,5.164,0,0,0,9.555,0,5.236,5.236,0,0,0,.405-2.037,5.191,5.191,0,0,0-7.177-4.788Z" transform="translate(-2482.526 -701.98)" fill="#212e3b"/>
        </g>
      </g>
      <g id="darłowo_kolor" data-name="darłowo kolor" transform="translate(2475.982 430.097)">
        <path id="Path_2288" data-name="Path 2288" d="M2564.6,428.92c2.454-1.171,20.254,15.489,19.994,17.183s-33.12,1.379-36.233-.13S2562.411,429.963,2564.6,428.92Z" transform="translate(-2446.365 -428.861)" fill="#efe8e5"/>
        <path id="Path_2289" data-name="Path 2289" d="M2462.579,632.669c.441-1.249,82.721-.923,84.8,1.323s1.534,20.206,0,21.156-83.346,1.829-84.14,0S2461.785,634.92,2462.579,632.669Z" transform="translate(-2462.22 -391.315)" fill="#ad6e42"/>
        <path id="Path_2290" data-name="Path 2290" d="M2599.519,631.409c3.128.284,1.589,19.592,0,21.41s-57.452-1.1-58.247-3.743-2.118-15.355,0-16.945S2597.4,631.216,2599.519,631.409Z" transform="translate(-2447.817 -391.471)" fill="#ad6e42"/>
        <path id="Path_2291" data-name="Path 2291" d="M2539.324,481.3c2.192-2.507,57.991-5.692,58.855-2.647s6.153,175.9,2.707,179.21-54.169,4.123-57.566-.629S2536.106,484.987,2539.324,481.3Z" transform="translate(-2448.19 -419.886)" fill="#9f311b"/>
        <path id="Path_2292" data-name="Path 2292" d="M2509,555.428c4.415-.065,36.493,10.14,38.186,13.119s3.966,75.36,2.564,76.9-77.417,4.447-80.035-1.11-2.019-72.665,0-75.787S2505.394,555.481,2509,555.428Z" transform="translate(-2461.158 -405.462)" fill="#9f311b"/>
        <path id="Path_2293" data-name="Path 2293" d="M2551.906,567.84c3,1.14,7.364.241,7.12-1.493-.151-1.066-42.778-17.463-47.345-17.265s-48.034,15-48.96,17.052c-.846,1.872.83,3.507,3.507,3.507a19.168,19.168,0,0,0,4.747-1.3s35.538-11.592,40.038-11.856,40.894,11.352,40.894,11.352" transform="translate(-2462.169 -406.635)" fill="#fff"/>
        <g id="Group_438" data-name="Group 438" transform="translate(41.189 195.618)">
          <path id="Path_2294" data-name="Path 2294" d="M2497.2,596.836c.436-.961,5.846-2.879,8.334-2.879s7.309,1.29,7.828,2.383,0,25.417,0,25.417H2497.2S2496.707,597.927,2497.2,596.836Z" transform="translate(-2496.982 -593.957)" fill="#fff"/>
          <line id="Line_1018" data-name="Line 1018" x1="0.652" y1="27.8" transform="translate(8.555)" fill="#fff"/>
          <line id="Line_1019" data-name="Line 1019" y1="1.019" x2="16.611" transform="translate(0 8.612)" fill="#fff"/>
          <line id="Line_1020" data-name="Line 1020" x2="16.612" y2="0.767" transform="translate(0 18.566)" fill="#fff"/>
        </g>
        <g id="Group_439" data-name="Group 439" transform="translate(112.488 165.957)">
          <path id="Path_2295" data-name="Path 2295" d="M2557.577,587.867s-.562-16.232.5-17.158a6.316,6.316,0,0,1,5.281-1.773c3.09.133,5.067.865,5.606,1.589s0,17.342,0,17.342Z" transform="translate(-2557.106 -568.924)" fill="#fff"/>
          <line id="Line_1021" data-name="Line 1021" x2="0.386" y2="18.93" transform="translate(5.542 0.012)" fill="#fff"/>
          <line id="Line_1022" data-name="Line 1022" y1="0.874" x2="11.934" transform="translate(0.161 12.372)" fill="#fff"/>
          <line id="Line_1023" data-name="Line 1023" x2="11.867" y2="0.71" transform="translate(0 7.425)" fill="#fff"/>
        </g>
        <g id="Group_440" data-name="Group 440" transform="translate(112.729 212.467)">
          <path id="Path_2296" data-name="Path 2296" d="M2557.63,627.115s-.287-15.99.5-17.158c1.192-1.773,3.326-1.811,5.281-1.773,3.092.06,5.066.865,5.606,1.589s0,17.342,0,17.342Z" transform="translate(-2557.32 -608.177)" fill="#fff"/>
          <line id="Line_1024" data-name="Line 1024" x1="1.008" y2="18.904" transform="translate(5.767 0.035)" fill="#fff"/>
          <line id="Line_1025" data-name="Line 1025" x2="11.934" y2="0.755" transform="translate(0 13.241)" fill="#fff"/>
          <line id="Line_1026" data-name="Line 1026" y1="0.465" x2="11.605" transform="translate(0.329 6.307)" fill="#fff"/>
        </g>
        <g id="Group_441" data-name="Group 441" transform="translate(112.227 67.279)">
          <path id="Path_2297" data-name="Path 2297" d="M2557.407,504.585s-1.059-16.283,0-17.209,2.687-1.853,5.779-1.72a13.858,13.858,0,0,1,5.605,1.556v17.342Z" transform="translate(-2556.937 -485.642)" fill="#fff"/>
          <line id="Line_1027" data-name="Line 1027" x1="0.322" y2="18.93" transform="translate(5.928 0.012)" fill="#fff"/>
          <line id="Line_1028" data-name="Line 1028" y1="0.428" x2="11.605" transform="translate(0.251 14.574)" fill="#fff"/>
          <line id="Line_1029" data-name="Line 1029" x2="11.662" y2="0.717" transform="translate(0.194 6.103)" fill="#fff"/>
        </g>
      </g>
      <g id="darłowo-2" data-name="darłowo" transform="translate(2471.906 422.175)">
        <path id="Path_2298" data-name="Path 2298" d="M2554.84,681.827c-15.869,0-16.448-1.16-16.665-1.594l.731-.377c.209.28,2.575,1.635,28.764.96,14.245-.367,27.127-1.149,28.78-1.506.7-2.883,1.036-41.356.876-101.026-.133-49.988-.577-96.984-.943-100.406-1.668-.391-14.375-.7-29.9-.549-19.682.2-29.238,1-29.976,1.715-.374,1.454.067,38.663.534,78.055l.22,18.686-.821.01-.22-18.686c-.586-49.407-.9-77.411-.435-78.445.158-.354.593-.733,3.957-1.113,11.887-1.344,56.359-1.507,57.331-.212.758,1.011,1.067,98.164,1.07,99.144.065,23.137.192,98.947-.92,103.111a.611.611,0,0,1-.315.436c-1.059.455-15.9,1.269-29.405,1.614C2562.458,681.773,2558.288,681.827,2554.84,681.827Zm41.676-203.907Z" transform="translate(-2444.584 -412.141)" fill="#212e3b"/>
        <path id="Path_2299" data-name="Path 2299" d="M2536.175,480.392c-2.562-6.218-3.335-9.6-2.3-10.062,1.64-.73,66.115-1.951,67.636-1.28l.165.072.09.2c.265.8-2.172,5.653-4.262,9.589l-.727-.385a73.814,73.814,0,0,0,4.164-8.757c-4.7-.468-64.263.691-66.767,1.326-.3.576,1.174,5.128,2.763,8.987Z" transform="translate(-2444.979 -413.545)" fill="#212e3b"/>
        <path id="Path_2300" data-name="Path 2300" d="M2534.035,473.372l-.032-.821c2.612-.1,63.972-2.518,66.429-1.963l-.182.8C2598.375,470.963,2556.116,472.5,2534.035,473.372Z" transform="translate(-2444.873 -413.24)" fill="#212e3b"/>
        <path id="Path_2301" data-name="Path 2301" d="M2534.842,475.752l-.007-.822c2.474-.021,60.62-.52,63.458-.353l-.05.82C2595.45,475.236,2535.447,475.746,2534.842,475.752Z" transform="translate(-2444.719 -412.494)" fill="#212e3b"/>
        <path id="Path_2302" data-name="Path 2302" d="M2535.171,473.5c-.362-5.365-1.139-17.931-.593-18.753.237-.354.957-1.436,31.858-1.737,9.551-.095,30.76-.12,31.562.415,1.031.685.834,12.06.625,18.779l-.821-.025c.249-8.006.232-16.928-.277-18.056-1.443-.259-15.229-.444-31.013-.293-21.945.214-30.57.9-31.287,1.417-.261.8.323,11.6.765,18.2Z" transform="translate(-2444.801 -416.484)" fill="#212e3b"/>
        <rect id="Rectangle_307" data-name="Rectangle 307" width="0.822" height="19.066" transform="translate(95.619 37.822) rotate(-6.545)" fill="#212e3b"/>
        <rect id="Rectangle_308" data-name="Rectangle 308" width="0.822" height="19.211" transform="translate(109.437 37.498) rotate(-6.624)" fill="#212e3b"/>
        <rect id="Rectangle_309" data-name="Rectangle 309" width="18.947" height="0.823" transform="translate(118.404 55.883) rotate(-86.775)" fill="#212e3b"/>
        <rect id="Rectangle_310" data-name="Rectangle 310" width="18.78" height="0.822" transform="translate(124.851 55.686) rotate(-85.719)" fill="#212e3b"/>
        <rect id="Rectangle_311" data-name="Rectangle 311" width="0.823" height="18.63" transform="translate(131.705 36.921) rotate(-2.848)" fill="#212e3b"/>
        <path id="Path_2303" data-name="Path 2303" d="M2573.606,469.018" transform="translate(-2437.551 -413.515)" fill="none" stroke="#212e3b" stroke-miterlimit="10" stroke-width="0.694"/>
        <path id="Path_2304" data-name="Path 2304" d="M2573.159,453.314" transform="translate(-2437.634 -416.419)" fill="none" stroke="#212e3b" stroke-miterlimit="10" stroke-width="0.694"/>
        <path id="Path_2305" data-name="Path 2305" d="M2580.086,468.706" transform="translate(-2436.353 -413.573)" fill="none" stroke="#212e3b" stroke-miterlimit="10" stroke-width="0.694"/>
        <path id="Path_2306" data-name="Path 2306" d="M2580.086,453.393" transform="translate(-2436.353 -416.404)" fill="none" stroke="#212e3b" stroke-miterlimit="10" stroke-width="0.694"/>
        <rect id="Rectangle_312" data-name="Rectangle 312" width="18.116" height="0.822" transform="translate(145.928 55.467) rotate(-85.156)" fill="#212e3b"/>
        <path id="Path_2307" data-name="Path 2307" d="M2547.546,474.453h-.821V455.692c-.133-1.651-.762-10.118.058-11.485l.705.422c-.53.883-.247,7.234.057,11.031Z" transform="translate(-2442.587 -418.102)" fill="#212e3b"/>
        <rect id="Rectangle_313" data-name="Rectangle 313" width="0.822" height="28.167" transform="translate(138.557 27.11)" fill="#212e3b"/>
        <path id="Path_2308" data-name="Path 2308" d="M2574.511,448.948c-11.606,0-29.278-.549-30.415-1.2a.632.632,0,0,1-.271-.745c.589-2.513,18.469-18.8,20.793-18.939h0c3.094-.2,19.3,17.4,20.068,19.686.161.477-.042.7-.179.791C2584.076,448.827,2579.961,448.948,2574.511,448.948Zm-29.861-1.865c2.866.738,35.848,1.417,39.217.81-1.077-2.35-16.6-19.011-19.164-19.011h-.033C2562.746,429,2545.465,444.767,2544.65,447.083Z" transform="translate(-2443.061 -421.087)" fill="#212e3b"/>
        <g id="Group_442" data-name="Group 442" transform="translate(114.385 73.946)">
          <path id="Path_2309" data-name="Path 2309" d="M2555.818,504.349l-.024-.385c-.323-4.956-.955-16.588.139-17.546.973-.852,2.648-1.966,6.067-1.822a14.2,14.2,0,0,1,5.792,1.609l.207.118v17.991Zm5.591-18.944a6.92,6.92,0,0,0-4.935,1.632c-.534.738-.367,8.9.115,16.489l10.588-.031V486.812a13.615,13.615,0,0,0-5.212-1.393C2561.773,485.409,2561.589,485.405,2561.409,485.405Z" transform="translate(-2555.317 -484.583)" fill="#212e3b"/>
          <rect id="Rectangle_314" data-name="Rectangle 314" width="18.933" height="0.822" transform="translate(5.933 19.347) rotate(-89.032)" fill="#212e3b"/>
          <rect id="Rectangle_315" data-name="Rectangle 315" width="11.613" height="0.822" transform="translate(0.651 15.001) rotate(-2.097)" fill="#212e3b"/>
          <rect id="Rectangle_316" data-name="Rectangle 316" width="0.822" height="11.683" transform="matrix(0.061, -0.998, 0.998, 0.061, 0.584, 6.924)" fill="#212e3b"/>
        </g>
        <g id="Group_443" data-name="Group 443" transform="translate(115.019 172.177)">
          <path id="Path_2310" data-name="Path 2310" d="M2568.209,587.251H2556.03l-.014-.4c-.17-4.94-.45-16.53.637-17.482a6.737,6.737,0,0,1,5.569-1.874c2.94.127,5.207.8,5.92,1.755.542.729.283,11.339.08,17.6Zm-11.385-.821h10.589c.2-6.2.374-15.9.043-16.727-.417-.555-2.263-1.254-5.268-1.382a5.9,5.9,0,0,0-4.993,1.671C2556.647,570.716,2556.573,578.848,2556.823,586.43Z" transform="translate(-2555.853 -567.487)" fill="#212e3b"/>
          <rect id="Rectangle_317" data-name="Rectangle 317" width="0.822" height="18.934" transform="translate(5.234 0.431) rotate(-1.166)" fill="#212e3b"/>
          <rect id="Rectangle_318" data-name="Rectangle 318" width="11.966" height="0.821" transform="translate(0.234 13.248) rotate(-4.201)" fill="#212e3b"/>
          <rect id="Rectangle_319" data-name="Rectangle 319" width="0.822" height="11.889" transform="translate(0.078 8.246) rotate(-86.577)" fill="#212e3b"/>
        </g>
        <g id="Group_444" data-name="Group 444" transform="translate(115.167 220.764)">
          <path id="Path_2311" data-name="Path 2311" d="M2568.226,628.253h-12.185l-.007-.4c-.049-2.692-.249-16.182.568-17.4,1.37-2.037,3.827-1.986,5.629-1.954,3.24.063,5.312.927,5.928,1.755.544.729.283,11.339.08,17.6Zm-11.377-.821h10.581c.2-6.2.373-15.9.044-16.727-.375-.5-2.114-1.321-5.26-1.382-2.075-.04-3.895.051-4.93,1.59C2556.83,611.677,2556.722,619.914,2556.849,627.432Z" transform="translate(-2555.977 -608.493)" fill="#212e3b"/>
          <rect id="Rectangle_320" data-name="Rectangle 320" width="18.931" height="0.823" transform="matrix(0.053, -0.999, 0.999, 0.053, 5.512, 19.328)" fill="#212e3b"/>
          <path id="Path_2312" data-name="Path 2312" d="M2568.022,621.245l-11.933-.755.051-.82,11.933.755Z" transform="translate(-2555.956 -606.426)" fill="#212e3b"/>
          <rect id="Rectangle_321" data-name="Rectangle 321" width="11.614" height="0.822" transform="translate(0.47 6.769) rotate(-2.258)" fill="#212e3b"/>
        </g>
        <path id="Path_2313" data-name="Path 2313" d="M2483.556,669.473c-9.047,0-16.8-.145-17.425-.633l-.158-.122v-.2c-.141-23.645-.55-100.87.058-101.883.336-.559,7.318-3.042,20.753-7.377,2.058-.664,20.087-6.474,21.168-6.319.342.057,40.967,12.311,42.012,13.355l.09.09.024.124c.133.708,1.782,99.709,1.277,100.968a.554.554,0,0,1-.405.306c-1.962.533-23.645,1.152-43.05,1.462C2501.972,669.342,2492.176,669.473,2483.556,669.473Zm-16.762-1.245c4.792,1.025,78.906-.03,83.81-1.2.212-4.363-.97-95.405-1.317-100.21-2.724-1.395-41.181-13.019-41.469-13.068-2.046.022-38.811,11.954-41.062,13.323C2466.333,570.425,2466.593,634.277,2466.793,668.228Z" transform="translate(-2457.499 -398)" fill="#212e3b"/>
        <path id="Path_2314" data-name="Path 2314" d="M2462.919,569.456a4.351,4.351,0,0,1-3.748-1.64,2.494,2.494,0,0,1-.135-2.448c.672-1.487,16.557-7.1,23.356-9.44,10.754-3.706,23.465-7.744,25.962-7.853h.056c4.079,0,50.917,16.266,51.574,17.926a.981.981,0,0,1-.069.886c-.467.8-2.15,1.392-5,1.773-1.442.194-4.112-.608-4.315-.975l.36-.2.383.148-.383-.148.169-.375a9.1,9.1,0,0,0,3.677.733c2.879-.384,4.164-.961,4.4-1.372a.18.18,0,0,0,.031-.1c-2.335-1.614-46.592-17.682-50.848-17.472-4.978.217-47.229,14.842-48.612,16.826a1.67,1.67,0,0,0,.085,1.647,3.61,3.61,0,0,0,3.057,1.264,18.885,18.885,0,0,0,4.591-1.269l.308.763A19.157,19.157,0,0,1,2462.919,569.456Z" transform="translate(-2458.78 -398.899)" fill="#212e3b"/>
        <path id="Path_2315" data-name="Path 2315" d="M2501.456,583c-2.921,0-5.492-.123-5.93-.385l-.136-.082-.046-.153a77.715,77.715,0,0,1-.4-9.46c-.041-8.466.35-8.878.5-9.034.839-.885,4.281-1.414,7.32-1.545,3.538-.146,7.058.71,7.822,1.923.467.741,1.631,16.6-.072,18.144l-.081.075-.109.024A59.848,59.848,0,0,1,2501.456,583Zm-5.37-1.053a72.566,72.566,0,0,0,13.931-.217c.993-1.46.539-15.713-.135-17.035-.458-.725-3.44-1.694-7.089-1.531-3.981.171-6.349.855-6.757,1.288C2495.644,565.348,2495.674,579.628,2496.086,581.95Z" transform="translate(-2452.095 -396.264)" fill="#212e3b"/>
        <g id="Group_445" data-name="Group 445" transform="translate(42.705 204.577)">
          <path id="Path_2316" data-name="Path 2316" d="M2512.017,623.453h-16.967l-.008-.4c-.084-3.994-.473-23.978.037-25.1h0c.557-1.224,6.262-3.12,8.709-3.12,2.289,0,7.53,1.212,8.2,2.617.535,1.123.127,21.523.041,25.6Zm-16.162-.821h15.356c.2-9.6.37-23.858.027-24.842-.365-.765-4.735-2.135-7.451-2.135-2.479,0-7.611,1.935-7.957,2.633C2495.5,599.293,2495.663,613.233,2495.855,622.632Z" transform="translate(-2494.821 -594.832)" fill="#212e3b"/>
          <rect id="Rectangle_322" data-name="Rectangle 322" width="0.822" height="27.807" transform="translate(8.555 0.421) rotate(-1.345)" fill="#212e3b"/>
          <rect id="Rectangle_323" data-name="Rectangle 323" width="16.643" height="0.822" transform="translate(0.386 9.637) rotate(-3.551)" fill="#212e3b"/>
          <path id="Path_2317" data-name="Path 2317" d="M2511.765,612.09l-16.611-.767.037-.822,16.611.767Z" transform="translate(-2494.76 -591.935)" fill="#212e3b"/>
        </g>
        <rect id="Rectangle_324" data-name="Rectangle 324" width="143.027" height="0.822" transform="translate(9.133 248.171)" fill="#212e3b"/>
        <rect id="Rectangle_325" data-name="Rectangle 325" width="61.237" height="0.822" transform="translate(91.614 107.833) rotate(-1.614)" fill="#212e3b"/>
        <rect id="Rectangle_326" data-name="Rectangle 326" width="0.822" height="52.339" transform="matrix(0.015, -1, 1, 0.015, 100.817, 167.663)" fill="#212e3b"/>
        <rect id="Rectangle_327" data-name="Rectangle 327" width="84.185" height="0.822" transform="translate(8.608 191.148) rotate(-2.097)" fill="#212e3b"/>
        <path id="Path_2318" data-name="Path 2318" d="M2563.88,430.259l-.8-.2a15.82,15.82,0,0,0,.453-4.173c-.108-1.6-.727-2.619-1.742-2.872a.388.388,0,0,0-.384.111,3.183,3.183,0,0,0-.582,2.415,36.1,36.1,0,0,1,0,4.645l-.821-.047a36.138,36.138,0,0,0,0-4.49,3.92,3.92,0,0,1,.848-3.135,1.223,1.223,0,0,1,1.13-.3c.8.2,2.183.94,2.363,3.615A16.309,16.309,0,0,1,2563.88,430.259Z" transform="translate(-2440.07 -422.175)" fill="#212e3b"/>
        <rect id="Rectangle_328" data-name="Rectangle 328" width="11.122" height="0.822" transform="translate(167.081 31.046) rotate(-22.849)" fill="#212e3b"/>
        <rect id="Rectangle_329" data-name="Rectangle 329" width="12.86" height="0.822" transform="translate(176.449 38.482)" fill="#212e3b"/>
        <rect id="Rectangle_330" data-name="Rectangle 330" width="0.822" height="12.459" transform="translate(165.862 49.524) rotate(-67.009)" fill="#212e3b"/>
        <rect id="Rectangle_331" data-name="Rectangle 331" width="0.822" height="8.21" transform="translate(71.333 24.852) rotate(-68.646)" fill="#212e3b"/>
        <path id="Path_2319" data-name="Path 2319" d="M2524.814,454.653l-15.988-.786.039-.82,15.988.786Z" transform="translate(-2449.527 -416.468)" fill="#212e3b"/>
        <rect id="Rectangle_332" data-name="Rectangle 332" width="9.295" height="0.822" transform="matrix(0.935, -0.355, 0.355, 0.935, 64.559, 53.626)" fill="#212e3b"/>
      </g>
    </g>
  </g>
</svg>
