<svg xmlns="http://www.w3.org/2000/svg" width="352" height="496.004" viewBox="0 0 352 496.004">
  <g id="_7" data-name="7" transform="translate(9954 -13343)">
    <rect id="Rectangle_275" data-name="Rectangle 275" width="352" height="496" transform="translate(-9954 13343)" fill="#fff"/>
    <g id="jaroslawiec" transform="translate(-12695.499 13010.063)">
      <path id="Path_2664" data-name="Path 2664" d="M3085.444,592.807c6.5-.266,3.554,14.275,8.055,18.033V805.205H2742.157V550.092c40.114.526,71.374-1.108,111.487-.582,2.551.033,10.7-.577,12.977.582,3.708,1.89,12.266,23.442,15.754,29.412,3.775,6.464,6.017.524,12.589,4.108,23.55,12.843,38.377,37.762,46.095,63.452.541,1.8,1.118,3.715,2.538,4.946,2.141,1.858,5.352,1.511,8.151,1.055l8.69-1.413c2.225-.362,4.734-.909,5.882-2.848.986-1.663.635-3.869,1.624-5.53,2.046-3.43,8.377-2.571,9.729-6.329.487-1.353.088-2.864.331-4.28,1.193-6.985,14.087-4.409,17-10.868,1.183-2.626.2-6.008,1.9-8.335,1.124-1.54,3.1-2.145,4.939-2.655,7.086-1.969,15.061-3.845,21.46-.222,2.112,1.2,3.9,2.932,6.109,3.945,7.237,3.324,18.79-3.357,17.234-11.168-.574-2.878-3.194-3.751-3.069-7s6.614-3.245,7.987-5.117-1.248-5.366.374-8.985,7.239.5,8.987-.624.249-9.485,3.369-10.233,2.778,2.091,5.024,2.964,2.4-1.529,5.148,1.217-1.887,10.155,3.494,11.419C3081.227,587.772,3079.328,593.056,3085.444,592.807Z" transform="translate(0 23.736)" fill="#e6c2b0"/>
      <g id="Group_466" data-name="Group 466" transform="translate(2854.318 754.29)">
        <path id="Path_2665" data-name="Path 2665" d="M2837.174,715.133a2.108,2.108,0,0,0,1.541-.595,2,2,0,0,0,.605-1.487V702.915h1.742V713.05a4.166,4.166,0,0,1-.287,1.551,4.109,4.109,0,0,1-.8,1.275,3.772,3.772,0,0,1-1.254.861,3.911,3.911,0,0,1-1.551.308Z" transform="translate(-2837.174 -702.851)" fill="#212e3b"/>
        <path id="Path_2666" data-name="Path 2666" d="M2851.921,717.042l-1.742-4.972h-4.419l-1.741,4.972H2842l4.907-14.109h2.126l4.907,14.109Zm-3.952-11.368-1.615,4.611h3.208Z" transform="translate(-2836.303 -702.848)" fill="#212e3b"/>
        <path id="Path_2667" data-name="Path 2667" d="M2862.26,717.042h-2.507l-4.058-4.823v4.823h-1.87V702.933h3.633a4.379,4.379,0,0,1,3.187,1.339,4.833,4.833,0,0,1,.956,1.5,4.844,4.844,0,0,1,.042,3.453,4.425,4.425,0,0,1-.85,1.4,4.633,4.633,0,0,1-1.3,1.009,4.221,4.221,0,0,1-1.551.478Zm-6.566-12.2v5.4h1.764a2.514,2.514,0,0,0,1.02-.214,2.7,2.7,0,0,0,.85-.573,2.828,2.828,0,0,0,.563-.871,2.693,2.693,0,0,0,.2-1.041,2.639,2.639,0,0,0-1.615-2.486,2.533,2.533,0,0,0-1.02-.212Z" transform="translate(-2834.17 -702.848)" fill="#212e3b"/>
        <path id="Path_2668" data-name="Path 2668" d="M2866.845,716.606a6.863,6.863,0,0,1-2.263-1.54,7.129,7.129,0,0,1-1.53-2.284,7.144,7.144,0,0,1-.01-5.482,7.118,7.118,0,0,1,1.539-2.285,7.208,7.208,0,0,1,2.263-1.529,6.847,6.847,0,0,1,2.732-.552,6.919,6.919,0,0,1,2.741.552,7.13,7.13,0,0,1,3.8,3.8,6.935,6.935,0,0,1,.551,2.74,7.015,7.015,0,0,1-.551,2.753,7.113,7.113,0,0,1-3.8,3.814,7.116,7.116,0,0,1-5.472.011Zm.744-11.347a5.147,5.147,0,0,0-1.667,1.117,5.149,5.149,0,0,0-1.508,3.653,5.238,5.238,0,0,0,.4,2.03,5.146,5.146,0,0,0,9.52,0,5.239,5.239,0,0,0,.4-2.03,5.173,5.173,0,0,0-7.151-4.77Z" transform="translate(-2832.604 -702.848)" fill="#212e3b"/>
        <path id="Path_2669" data-name="Path 2669" d="M2883.345,705.917a2.324,2.324,0,0,0-.946-.839,3.367,3.367,0,0,0-1.434-.266,2.682,2.682,0,0,0-2.017.616,2.153,2.153,0,0,0-.554,1.594,2.343,2.343,0,0,0,.17.967,1.465,1.465,0,0,0,.51.606,3.554,3.554,0,0,0,1.678.467,11.736,11.736,0,0,1,2.008.329,5.393,5.393,0,0,1,1.434.606,3.355,3.355,0,0,1,1.551,3.06,3.742,3.742,0,0,1-.319,1.53,4.135,4.135,0,0,1-2.5,2.274,5.9,5.9,0,0,1-1.923.319,4.572,4.572,0,0,1-4.972-4.336l.041-.02h1.87a2.784,2.784,0,0,0,.765,1.679,3.16,3.16,0,0,0,2.231.765,3.362,3.362,0,0,0,2.126-.616,1.937,1.937,0,0,0,.786-1.594,2.3,2.3,0,0,0-.118-.776,1.3,1.3,0,0,0-.436-.584,5.38,5.38,0,0,0-2.7-.7,4.879,4.879,0,0,1-3.06-1.169,3.7,3.7,0,0,1-1.041-2.8,4,4,0,0,1,1.126-2.953,5.152,5.152,0,0,1,6.757.149,5.326,5.326,0,0,1,1.317,3.06h-1.912A3.276,3.276,0,0,0,2883.345,705.917Z" transform="translate(-2830.162 -702.858)" fill="#212e3b"/>
        <path id="Path_2670" data-name="Path 2670" d="M2895.076,715.133v1.912H2889v-3.612l-1.1,2.06h-1.741L2889,710.2v-7.288h1.829V706.8l1.678-3.123h1.741l-3.419,6.352v5.1Z" transform="translate(-2828.337 -702.851)" fill="#212e3b"/>
        <path id="Path_2671" data-name="Path 2671" d="M2905.525,717.042l-1.742-4.972h-4.419l-1.742,4.972H2895.6l4.907-14.109h2.126l4.907,14.109Zm-3.951-11.368-1.615,4.611h3.207Z" transform="translate(-2826.632 -702.848)" fill="#212e3b"/>
        <path id="Path_2672" data-name="Path 2672" d="M2918.4,717.048H2916.5l-2.188-6.013-2.1,6.013H2910.3l-5.121-14.151h2.061l3.995,11.07,2.041-5.8-1.912-5.269h2.061l1.87,5.184,2.146,5.886,3.866-11.07h2.062Z" transform="translate(-2824.904 -702.855)" fill="#212e3b"/>
        <path id="Path_2673" data-name="Path 2673" d="M2922.567,717.045v-14.13h1.785v14.13Z" transform="translate(-2821.766 -702.851)" fill="#212e3b"/>
        <path id="Path_2674" data-name="Path 2674" d="M2926.329,717.045v-14.13h7.733v1.912h-5.885v4.292h3.953v1.742h-3.953v4.271h5.885v1.912Z" transform="translate(-2821.087 -702.851)" fill="#212e3b"/>
        <path id="Path_2675" data-name="Path 2675" d="M2938.407,716.586a6.947,6.947,0,0,1-2.275-1.55,7.165,7.165,0,0,1-1.53-2.273,6.994,6.994,0,0,1-.552-2.762,7.117,7.117,0,0,1,4.357-6.587,7.054,7.054,0,0,1,5.758.128,7.645,7.645,0,0,1,2.55,2.018l-1.446,1.232a5.309,5.309,0,0,0-4.122-2,5.011,5.011,0,0,0-1.987.4,5.286,5.286,0,0,0-2.794,2.794,5.2,5.2,0,0,0,0,4.016,5.286,5.286,0,0,0,2.794,2.794,5.011,5.011,0,0,0,1.987.4,5.309,5.309,0,0,0,4.122-2l1.446,1.232a7.882,7.882,0,0,1-2.562,2.018,7.02,7.02,0,0,1-5.746.126Z" transform="translate(-2819.694 -702.861)" fill="#212e3b"/>
      </g>
      <g id="jarosławiec_kolor" data-name="jarosławiec kolor" transform="translate(2873.856 424.115)">
        <path id="Path_2676" data-name="Path 2676" d="M2893.561,423.169c2.192-.438,16.285,9.06,16.386,10.153s-24.995,2.508-26.859,1.511S2892.6,423.363,2893.561,423.169Z" transform="translate(-2848.464 -423.155)" fill="#212e3b"/>
        <path id="Path_2677" data-name="Path 2677" d="M2859.422,572.228c1.745-1.453,21.746-3.779,22.572-2.761s2.536,27.816.972,28.077-26.677,2.15-28.776.554S2857.678,573.681,2859.422,572.228Z" transform="translate(-2853.725 -396.8)" fill="#9f311b"/>
        <path id="Path_2678" data-name="Path 2678" d="M2858.5,596.881c1.073-1.711,18.022-4.215,18.6-2.761s5.087,53.223,3.924,54.79-17.619,3.563-19.663,2.8S2857.009,599.261,2858.5,596.881Z" transform="translate(-2852.949 -392.385)" fill="#efe8e5"/>
        <path id="Path_2679" data-name="Path 2679" d="M2883.679,457.786c3.333-4.107,23.39-2.455,23.663,0s16.373,213.365,13.362,215.878-42.067,5.3-43.668,0c-.835-2.76-3.7-59.823-2.195-114.6C2876.23,508.553,2881.9,459.985,2883.679,457.786Z" transform="translate(-2849.993 -417.357)" fill="#ad6e42"/>
        <g id="Group_467" data-name="Group 467" transform="translate(41.481 46.619)">
          <path id="Path_2680" data-name="Path 2680" d="M2895.2,470.635c.2-.539,1.19-7.863-1.577-7.986s-2.537,7.7-2.412,7.94S2895,471.173,2895.2,470.635Z" transform="translate(-2888.455 -462.648)" fill="#e3e1dc"/>
          <path id="Path_2681" data-name="Path 2681" d="M2894.128,482.673c.146-.463.858-6.747-1.138-6.854s-1.831,6.609-1.74,6.815S2893.983,483.136,2894.128,482.673Z" transform="translate(-2888.444 -460.271)" fill="#e3e1dc"/>
          <path id="Path_2682" data-name="Path 2682" d="M2892.726,518.3c.192-.766,1.133-11.16-1.5-11.335s-2.417,10.928-2.3,11.27S2892.535,519.069,2892.726,518.3Z" transform="translate(-2888.866 -454.651)" fill="#e3e1dc"/>
          <path id="Path_2683" data-name="Path 2683" d="M2894.058,558.849c.192-.66,1.133-9.631-1.5-9.782s-2.417,9.433-2.3,9.727S2893.867,559.51,2894.058,558.849Z" transform="translate(-2888.626 -447.055)" fill="#e3e1dc"/>
          <path id="Path_2684" data-name="Path 2684" d="M2898.792,609.846c.229-.774,1.355-11.306-1.794-11.482s-2.888,11.073-2.746,11.417S2898.563,610.622,2898.792,609.846Z" transform="translate(-2887.907 -438.16)" fill="#e3e1dc"/>
          <path id="Path_2685" data-name="Path 2685" d="M2898.792,632.834c.229-.735,1.355-10.725-1.794-10.893s-2.888,10.5-2.746,10.831S2898.563,633.571,2898.792,632.834Z" transform="translate(-2887.907 -433.906)" fill="#e3e1dc"/>
        </g>
      </g>
      <g id="jarosławiec" transform="translate(2871.34 417.83)">
        <path id="Path_2686" data-name="Path 2686" d="M2889.047,656.131c-5.957,0-10.75-.6-11.8-2.7h0c-1.093-2.185-2.342-15.951-3.633-31.084-.171-2-.326-3.819-.461-5.34-1.669-18.826-1.643-29.591.074-32,1.739-2.431,10.522-2.348,17.566-2.287,2.662.024,4.961.045,6.344-.08,4.431-.4,22.1-.764,24.547,1.192,2.587,2.07,2.717,22.922,2.717,27.08,0,1.44.111,4.552.249,8.492.563,15.974,1,31.761-.3,34.043-1.469,2.57-9.344,2.468-17.274,2.145-1.292-.053-2.378-.1-3.124-.1-.78,0-2.18.087-3.954.2C2896.294,655.932,2892.478,656.131,2889.047,656.131Zm-11.073-3.06c1.549,3.1,15.344,2.233,21.976,1.819,1.786-.111,3.2-.2,4-.2.752,0,1.852.045,3.156.1,5.31.215,15.192.619,16.539-1.738,1.3-2.272.581-22.658.195-33.612-.138-3.947-.248-7.066-.248-8.52,0-9.854-.644-25.03-2.417-26.448-2-1.6-18.221-1.539-23.966-1.019-1.421.13-3.74.11-6.424.084-6.135-.058-15.408-.141-16.9,1.948-.9,1.262-2.091,7.027.074,31.454.135,1.522.291,3.341.462,5.343.911,10.683,2.437,28.563,3.55,30.79Z" transform="translate(-2847.926 -388.149)" fill="#212e3b"/>
        <path id="Path_2687" data-name="Path 2687" d="M2874.662,593.486c-.405-1.516-1.263-15.054-1.687-28.7-.382-12.3-.52-27.5.994-30.02,1.723-2.872,25.8-3.815,36.9-3.062,7.256.492,7.686,1.494,7.848,1.871,1.573,3.671,3.12,56.779,1.722,59.193l-.7-.406c1.238-2.19-.363-55.194-1.766-58.467-.04-.094-.586-.936-7.157-1.382-14.655-.992-35.026.8-36.15,2.671-1.086,1.81-1.407,12.59-.878,29.576.414,13.354,1.274,27.067,1.661,28.511Z" transform="translate(-2847.781 -397.327)" fill="#212e3b"/>
        <path id="Path_2688" data-name="Path 2688" d="M2875.335,541.933c-.872-1.729.215-19.759.569-25.245.72-11.134,1.829-24.128,2.57-26.347a1.409,1.409,0,0,1,.89-.771c4.919-2.036,32.6-.309,34.292.537,2.153,1.077,3.081,50.073,3.042,50.543l-.807-.066c.082-2.675-1.135-47.907-2.657-49.8-1.525-.748-28.955-2.366-33.555-.471-.386.161-.436.279-.437.28-1.5,4.513-4.271,48.814-3.182,50.97Z" transform="translate(-2847.37 -405.058)" fill="#212e3b"/>
        <path id="Path_2689" data-name="Path 2689" d="M2912.092,496.908l-.8-.092c.37-3.217-.785-38.077-4.09-40.143-4-2.5-23.172-3.493-24.218-1.921-1.765,2.648-3.633,38.409-3.092,41.289l-.8.15c-.579-3.07,1.3-39.02,3.213-41.889,1.589-2.39,21.791-.524,25.321,1.683C2911.553,458.44,2912.437,493.907,2912.092,496.908Z" transform="translate(-2846.651 -411.45)" fill="#212e3b"/>
        <path id="Path_2690" data-name="Path 2690" d="M2908.647,458.593l-.648-.486c.837-1.113,5.05-6.688,5.857-7.2.441-.312.23-3.336-.09-4.247-2.414-.462-34.224-.423-35.9.059a7.79,7.79,0,0,0,.131,2.487,8.985,8.985,0,0,1,.119,1.081c.113.509,2.586,3.467,4.913,6.018l-.6.545c-1.913-2.1-5.123-5.742-5.123-6.563a9.086,9.086,0,0,0-.111-.967c-.238-1.666-.357-2.878.291-3.311.889-.59,34.388-.694,36.575-.112a.556.556,0,0,1,.378.268c.352.7.941,4.735-.144,5.425A84.165,84.165,0,0,0,2908.647,458.593Z" transform="translate(-2847.009 -412.836)" fill="#212e3b"/>
        <path id="Path_2691" data-name="Path 2691" d="M2906.249,453.238l-.786-.2c.383-1.507,1.054-17.655-.608-19.06-1.946-1.647-19.319-.593-20.267.511-.525,1.025-.454,16.739-.273,18.162l-.8.1c-.019-.15-.427-17.364.393-18.7.185-.3.68-.66,2.947-1.022,5.026-.8,16.774-1.159,18.526.323C2907.626,435.264,2906.448,452.449,2906.249,453.238Z" transform="translate(-2845.856 -415.211)" fill="#212e3b"/>
        <path id="Path_2692" data-name="Path 2692" d="M2882.434,436.847a1.927,1.927,0,0,1-1.5-.433.6.6,0,0,1-.016-.609c.639-1.472,11.342-13.808,13.054-14l.044,0c1.905,0,15.793,12.281,16.39,13.316l.134.229-.134.31c-.139.19-.464.634-6.259-.179l.112-.8a43.274,43.274,0,0,0,5.149.472c-2.113-2.323-13.994-12.376-15.375-12.537-1.17.319-11.3,11.335-12.314,13.373a9.089,9.089,0,0,0,2.911-.212l.159.794A12.864,12.864,0,0,1,2882.434,436.847Z" transform="translate(-2846.317 -417.113)" fill="#212e3b"/>
        <path id="Path_2693" data-name="Path 2693" d="M2892.055,423.456a1.612,1.612,0,0,1-.68-.164,4.006,4.006,0,0,1-2-2.638,2.85,2.85,0,0,1,.808-2.381,1.653,1.653,0,0,1,1.53-.393h0a3.2,3.2,0,0,1,2.807,2.715,1.928,1.928,0,0,1-1.3,2.37c-.17.092-.348.189-.524.3A1.174,1.174,0,0,1,2892.055,423.456Zm-.754-4.816a.835.835,0,0,0-.572.235,2.065,2.065,0,0,0-.549,1.672,3.226,3.226,0,0,0,1.535,2.01.563.563,0,0,0,.546.031c.195-.125.391-.233.58-.335.717-.387,1.074-.582.889-1.5-.25-1.226-.805-1.753-2.2-2.089h0A1.016,1.016,0,0,0,2891.3,418.64Z" transform="translate(-2844.781 -417.83)" fill="#212e3b"/>
        <path id="Path_2694" data-name="Path 2694" d="M2913.813,450.953c-2.061-.848-26.827-.956-36.211-.931l0-.81c1.374,0,33.888-.091,36.522.992Z" transform="translate(-2846.901 -412.168)" fill="#212e3b"/>
        <path id="Path_2695" data-name="Path 2695" d="M2879.546,450.586c-.418,0-.608,0-.869-4.473l.81-.047a30.647,30.647,0,0,0,.385,3.9l-.326.133Z" transform="translate(-2846.707 -412.735)" fill="#212e3b"/>
        <path id="Path_2696" data-name="Path 2696" d="M2880.856,450.251a33.157,33.157,0,0,1-.006-4.183l.81.041a31.241,31.241,0,0,0-.006,4Z" transform="translate(-2846.328 -412.735)" fill="#212e3b"/>
        <rect id="Rectangle_429" data-name="Rectangle 429" width="0.809" height="4.108" transform="translate(39.415 33.354)" fill="#212e3b"/>
        <rect id="Rectangle_430" data-name="Rectangle 430" width="4.145" height="0.809" transform="matrix(0.108, -0.994, 0.994, 0.108, 41.558, 37.431)" fill="#212e3b"/>
        <rect id="Rectangle_431" data-name="Rectangle 431" width="0.809" height="4.846" transform="translate(46.786 33.081)" fill="#212e3b"/>
        <rect id="Rectangle_432" data-name="Rectangle 432" width="0.809" height="4.364" transform="translate(48.997 33.081)" fill="#212e3b"/>
        <rect id="Rectangle_433" data-name="Rectangle 433" width="0.809" height="4.556" transform="translate(54.277 33.088)" fill="#212e3b"/>
        <rect id="Rectangle_434" data-name="Rectangle 434" width="0.809" height="4.824" transform="translate(56.867 33.104)" fill="#212e3b"/>
        <rect id="Rectangle_435" data-name="Rectangle 435" width="0.809" height="4.574" transform="translate(62.158 33.354)" fill="#212e3b"/>
        <rect id="Rectangle_436" data-name="Rectangle 436" width="0.809" height="5.056" transform="translate(64.634 33.354)" fill="#212e3b"/>
        <path id="Path_2697" data-name="Path 2697" d="M2889.606,452.638l-.8-.119.655-4.411-.658-15.041.809-.035.655,15.117Z" transform="translate(-2844.88 -415.087)" fill="#212e3b"/>
        <rect id="Rectangle_437" data-name="Rectangle 437" width="0.809" height="19.964" transform="translate(51.799 17.964)" fill="#212e3b"/>
        <path id="Path_2698" data-name="Path 2698" d="M2863.734,654.481a12.558,12.558,0,0,1-2.664-.225,2,2,0,0,1-1.466-.888c-1.182-2.4-3.816-56.706-2.819-58.1s17.354-2.631,18.351-2.315a.466.466,0,0,1,.366.445l-.81.006.405,0-.205.323c-1.086-.355-16.1,1.116-17.429,2.008-.693,3.021,1.916,55.341,2.867,57.279.043.083.213.292.923.456,4.27.984,17.849-1.637,18.881-2.44l.5.64C2879.52,652.53,2869.452,654.481,2863.734,654.481Z" transform="translate(-2850.697 -386.241)" fill="#212e3b"/>
        <path id="Path_2699" data-name="Path 2699" d="M2855.628,599.988c-1.734,0-3.688-.248-4.01-1.323-.288-.962,2.06-7.7,4.081-13.185,1.674-4.541,4.553-12.01,5.157-12.714.943-1.1,13.166-1.615,16.89-1.747l.027.81c-7.469.263-15.613.888-16.312,1.474-.792.964-9.362,23.438-9.064,25.141.21.694,3.051.877,5.571.6l.087.8A23.473,23.473,0,0,1,2855.628,599.988Z" transform="translate(-2851.594 -390.189)" fill="#212e3b"/>
        <path id="Path_2700" data-name="Path 2700" d="M2863.012,621.952a2.012,2.012,0,0,1-.815-.111l-.189-.1-.023-.213c-1.667-14.96-1.379-15.392-1.286-15.533.126-.186.418-.623,8.88-.93l.383-.015.035.382c.124,1.341,1.2,13.138,1.049,14.205-.058.4-.48.661-.793.819A23.263,23.263,0,0,1,2863.012,621.952Zm-.254-.793c1.329.128,7.066-.96,7.5-1.676.091-.68-.553-8.362-1.031-13.6a66.763,66.763,0,0,0-7.82.6C2861.352,607.817,2862.178,615.93,2862.758,621.158Z" transform="translate(-2849.965 -384.049)" fill="#212e3b"/>
        <path id="Path_2701" data-name="Path 2701" d="M2860.657,607.182c-.027-.159-.649-3.923.891-5.9a3.025,3.025,0,0,1,2.241-1.177c4.1-.323,6.126,5.873,6.21,6.137l-.772.244c-.019-.058-1.888-5.847-5.377-5.573a2.21,2.21,0,0,0-1.662.865c-1.322,1.7-.739,5.232-.733,5.268Z" transform="translate(-2849.985 -384.944)" fill="#212e3b"/>
        <rect id="Rectangle_438" data-name="Rectangle 438" width="0.81" height="15.697" transform="translate(14.876 221.454) rotate(-4.836)" fill="#212e3b"/>
        <rect id="Rectangle_439" data-name="Rectangle 439" width="8.715" height="0.81" transform="matrix(0.999, -0.048, 0.048, 0.999, 11.565, 229.062)" fill="#212e3b"/>
        <path id="Path_2702" data-name="Path 2702" d="M2896.643,633.575a9.969,9.969,0,0,1-3.483-.406h0c-.688-.509-.162-5.661.673-8.189.6-1.828,1.411-2.755,2.4-2.755a1.976,1.976,0,0,1,1.643,1.107c1.609,2.562,1.831,9.111,1.553,9.687a.864.864,0,0,1-.614.394A10.83,10.83,0,0,1,2896.643,633.575Zm-2.936-1.036a16.754,16.754,0,0,0,5,.067c.109-.845-.128-7.059-1.677-9.068-.553-.721-1.164-.669-1.73.17C2893.83,625.88,2893.512,631.607,2893.707,632.538Z" transform="translate(-2844.151 -380.95)" fill="#212e3b"/>
        <path id="Path_2703" data-name="Path 2703" d="M2897.088,610.606c-1.72,0-3.77-.2-3.8-.2h0c-.247-.068-.759-.21-.082-4.441.436-2.719,1.459-7.245,3.436-7.245h.064c.642.032,1.183.51,1.608,1.422,1.23,2.637,1.46,9.6,1.064,10.116C2899.176,610.523,2898.2,610.606,2897.088,610.606Zm1.6-.748Zm-4.992-.205a31.9,31.9,0,0,0,5.016.061c.135-1.21-.039-7.849-1.43-9.757a.873.873,0,0,0-.611-.43c-.213-.015-.492.164-.763.519C2894.314,602.149,2893.572,608.459,2893.692,609.652Z" transform="translate(-2844.146 -385.192)" fill="#212e3b"/>
        <path id="Path_2704" data-name="Path 2704" d="M2893.169,559.718a20.189,20.189,0,0,1-3.252-.219c-.656-.344-.79-6.03-.2-8.453.428-1.754,1.2-2.643,2.3-2.643.949,0,1.728.669,2.316,1.99,1.187,2.663,1.478,8.5,1.008,9.019A4.415,4.415,0,0,1,2893.169,559.718Zm1.513-.746Zm-4.273-.179a25.311,25.311,0,0,0,4.3.047c.127-1.061-.017-6.852-1.579-8.951-.644-.865-1.479-.918-2.041-.1C2889.721,551.784,2890.168,557.658,2890.409,558.792Z" transform="translate(-2844.782 -394.27)" fill="#212e3b"/>
        <path id="Path_2705" data-name="Path 2705" d="M2891.761,519.053a11.949,11.949,0,0,1-2.947-.274h0c-.683-.4.039-5.655.4-7.322.583-2.672,1.367-4.024,2.4-4.133.412-.04.973.1,1.482,1,1.321,2.331,1.718,9.606,1.229,10.257C2894.057,518.937,2892.928,519.053,2891.761,519.053Zm-2.415-.949a15.945,15.945,0,0,0,4.314-.024c.188-.99-.088-7.923-1.466-9.654-.255-.321-.433-.3-.5-.3-.253.027-.488.3-.641.531C2889.691,510.709,2889.212,516.911,2889.346,518.1Z" transform="translate(-2844.929 -401.683)" fill="#212e3b"/>
        <path id="Path_2706" data-name="Path 2706" d="M2892.426,483.11a7.078,7.078,0,0,1-1.043-.068c-.642-.1-1.032-.307-1.191-.628-.363-.731.143-4.985,1.29-6.71a1.6,1.6,0,0,1,1.434-.888c.582.037,1.034.464,1.342,1.269.71,1.853.6,6.164.14,6.64h0A3.54,3.54,0,0,1,2892.426,483.11Zm.412-7.486c-.192,0-.394.139-.6.416-1.119,1.494-1.489,5.549-1.315,6.023a5.194,5.194,0,0,0,2.865.1c.183-.72.391-4.783-.477-6.183-.21-.338-.388-.348-.447-.353Z" transform="translate(-2844.65 -407.548)" fill="#212e3b"/>
        <path id="Path_2707" data-name="Path 2707" d="M2893.217,471.377c-.845,0-2.833-.053-3.087-.538-.186-.356-.3-5.386,1.035-7.487a1.942,1.942,0,0,1,1.753-1.045,1.866,1.866,0,0,1,1.5.9c1.37,2.067.616,7.152.439,7.629h0c-.153.411-.725.5-1.262.534C2893.589,471.373,2893.444,471.377,2893.217,471.377Zm-2.361-1a9.717,9.717,0,0,0,3.262.107c.207-.81.685-5.26-.388-6.842a1.039,1.039,0,0,0-.849-.523,1.017,1.017,0,0,0-.851.42C2890.773,465.018,2890.777,469.4,2890.856,470.373Zm-.135-.045" transform="translate(-2844.661 -409.805)" fill="#212e3b"/>
        <rect id="Rectangle_440" data-name="Rectangle 440" width="7.207" height="0.811" transform="matrix(0.927, -0.375, 0.375, 0.927, 76.312, 16.08)" fill="#212e3b"/>
        <rect id="Rectangle_441" data-name="Rectangle 441" width="9.124" height="0.81" transform="translate(79.804 23.501)" fill="#212e3b"/>
        <rect id="Rectangle_442" data-name="Rectangle 442" width="0.81" height="5.339" transform="matrix(0.539, -0.843, 0.843, 0.539, 78.429, 32.729)" fill="#212e3b"/>
        <rect id="Rectangle_443" data-name="Rectangle 443" width="0.811" height="6.929" transform="translate(19.493 12.579) rotate(-65.324)" fill="#212e3b"/>
        <rect id="Rectangle_444" data-name="Rectangle 444" width="7.389" height="0.81" transform="translate(15.421 21.445)" fill="#212e3b"/>
        <rect id="Rectangle_445" data-name="Rectangle 445" width="4.798" height="0.81" transform="translate(17.208 32.005) rotate(-20.317)" fill="#212e3b"/>
        <path id="Path_2708" data-name="Path 2708" d="M2905.87,463.662l-.347-1.72c-.414-2.062-1.152-4-1.545-4.063-.641.2-1.707,1.9-2.256,3.043l-.668,1.393-.1-1.542c0-.033-.239-3.309-2.16-3.329h-.024a1.286,1.286,0,0,0-1.018.407,3.394,3.394,0,0,0-.489,2.246l-.8.137c-.189-.856-.987-3.313-2.127-3.38l-.05,0c-1.117,0-2.078,2.145-2.33,2.907l-.546,1.649-.24-1.72c0-.031-.464-3.046-2.12-2.824-1.526.186-2.787,2.542-3.144,3.433l-.89,2.222.11-2.39c.046-1.021-.139-3.161-1.014-3.264-.8-.109-1.886,2.381-2.357,4.089l-.781-.216c.227-.818,1.445-4.894,3.233-4.677,1.111.13,1.518,1.431,1.662,2.54.648-1.064,1.709-2.373,3.083-2.54,1.546-.185,2.342,1.2,2.718,2.288.518-1.042,1.464-2.357,2.715-2.3,1.071.063,1.8,1.137,2.261,2.165a2.546,2.546,0,0,1,.5-.9,2.143,2.143,0,0,1,1.656-.679c1.736.018,2.461,1.668,2.759,2.866.546-.94,1.381-2.148,2.184-2.4a.829.829,0,0,1,.678.092c.673.4,1.207,1.895,1.538,3.092.542-1.638,1.343-3.354,2.318-3.107l-.189.787h.006c-.4.041-1.248,1.944-1.782,3.995Z" transform="translate(-2846.292 -410.935)" fill="#212e3b"/>
      </g>
    </g>
  </g>
</svg>
