<svg xmlns="http://www.w3.org/2000/svg" width="356.354" height="496.221" viewBox="0 0 356.354 496.221">
  <g id="_10" data-name="10" transform="translate(12252.354 -13859)">
    <rect id="Rectangle_275" data-name="Rectangle 275" width="352" height="496" transform="translate(-12250 13859)" fill="#fff"/>
    <g id="czołpino" transform="translate(-16057.499 13517.845)">
      <path id="Path_2786" data-name="Path 2786" d="M4161.5,823.608H3805.15l0-255.346c1.514-.281,12.6-8.692,12.884-13.238s-10.8,0-11.287-5.7,17.843-36.424,24.407-37.627,18.918,22.08,25.82,34.834c-.888,3.565-8.318,1.576-8.842,5.213-.172,1.2.663,2.286,1.445,3.209l13.595,16.03c1.328,1.566,2.729,3.711,1.723,5.5-.7,1.244-2.254,1.663-3.649,1.967-3.852.842-11.586-1.913-11.555,2.523s21.823,18.355,15.411,21.795-17.239-5.958-18.038,3.892,57.507,10.405,57.816,4.114c.962-19.545-13.495-14.016-14.08-18.389s15.428-14.656,13.565-18.955-12.214,3.142-13.835-2.624,8.623-18.508,12.934-27.762a3.733,3.733,0,0,0,.468-2.954c-.49-1.141-1.919-1.473-3.147-1.658-3.281-.493-9.212,2.547-9.847-1.48s23.676-44.763,30.118-45.279,14.762,13.8,20.568,22c5.677,8.03,8.376,17.73,10.975,27.215l15.346,56.01a9.1,9.1,0,0,0,2.206,4.509c1.445,1.317,48.338,20.6,50.286,20.757,28.4,2.252,39.39-18.513,40.2-24.566,1.315-8.988-9.453-5.8-14.18-8.7a5.778,5.778,0,0,1-2.63-2.531,5.71,5.71,0,0,1,.4-3.913c3.436-9.6,13.289-21.032,12.842-27.719s-10.229-.062-10.436-4.627,9.308-18.233,14.161-25.134c2.995-4.259,1.626-8.957-2.7-11.847-1.89-1.262-8.7.3-9.445-1.845-.4-1.16.263-4.283.771-5.4,4.365-9.592,12.39-18.93,16.755-28.522.519-1.137,1.181-2.4,2.389-2.72,1.54-.4,2.935.941,3.958,2.16,5.869,6.986,7.557,14.124,13.346,21.176,1.433,1.747,6.2,11.58,5.4,13.692-.561,1.479-2.075,2.318-3.239,3.388-5.4,4.963-7.29.809-4.088,7.411s17.821,20.792,13.113,26.421c-1.1,1.315-8.585,1.971-9.059,3.618a5.078,5.078,0,0,0,.06,3.273c5.248,12.806,10.061,18.856,12.953,30.423,1.253,5.014-12.41,0-13.4,6.172s9.356,33,13,33.2c11.438.641,14.281-7.975,16.754-17.4.591-2.252-9.083-.982-8.532-3.265,1.081-4.481,11.779-20.288,15.546-24.123a3.453,3.453,0,0,0,.572-3.685c-1.084-1.712-10.968.208-12.728-.8-2.118-1.213-.162-4.506.965-6.672,4.481-8.617,3.694-9.676,7.78-17.628,2-3.891,7.122-11.385,2.853-12.334-1.522-.339-6.559-.047-7.572-1.232-.808-.946-.436-2.379-.023-3.552,4.7-13.325,11.355-38.524,13.24-38.568,3.853-.089,21.648,27.406,26.634,40.8.555,1.488,2.5,4.838,1.353,5.934-.461.438-2.9-.23-4.2.189-4.314,1.392-6.163,2.806-3.037,9.209s7.53,8.892,11.306,12.056Z" transform="translate(0 13.768)" fill="#e6c2b0"/>
      <g id="Group_471" data-name="Group 471" transform="translate(3934.555 761.661)">
        <path id="Path_2787" data-name="Path 2787" d="M3917.653,716.783a7.043,7.043,0,0,1-2.306-1.573,7.219,7.219,0,0,1-1.552-2.3,7.079,7.079,0,0,1-.562-2.8,7.224,7.224,0,0,1,4.419-6.681,7.148,7.148,0,0,1,5.84.128,7.772,7.772,0,0,1,2.586,2.047l-1.466,1.25a5.381,5.381,0,0,0-4.18-2.025,5.1,5.1,0,0,0-2.016.408,5.368,5.368,0,0,0-2.834,2.835,5.264,5.264,0,0,0,0,4.072,5.36,5.36,0,0,0,2.834,2.834,5.062,5.062,0,0,0,2.016.409,5.381,5.381,0,0,0,4.18-2.025l1.466,1.25a7.991,7.991,0,0,1-2.6,2.046,7.117,7.117,0,0,1-5.83.129Z" transform="translate(-3913.234 -702.861)" fill="#212e3b"/>
        <path id="Path_2788" data-name="Path 2788" d="M3925.853,715.545l7.284-10.689h-7.284v-1.94h9.741v1.746l-7.263,10.624h7.263v1.96h-9.741Z" transform="translate(-3910.745 -702.85)" fill="#212e3b"/>
        <path id="Path_2789" data-name="Path 2789" d="M3939.747,716.8a6.921,6.921,0,0,1-2.295-1.561,7.176,7.176,0,0,1-1.552-2.318,7.232,7.232,0,0,1-.012-5.56,7.317,7.317,0,0,1,3.858-3.868,6.952,6.952,0,0,1,2.768-.56,7.039,7.039,0,0,1,2.78.56,7.24,7.24,0,0,1,3.857,3.859,7.011,7.011,0,0,1,.561,2.779,7.09,7.09,0,0,1-.561,2.791,7.2,7.2,0,0,1-3.857,3.868,7.212,7.212,0,0,1-5.548.011Zm.753-11.508a5.225,5.225,0,0,0-3.222,4.838,5.29,5.29,0,0,0,.41,2.059,5.218,5.218,0,0,0,9.655,0,5.289,5.289,0,0,0,.409-2.059,5.246,5.246,0,0,0-7.252-4.838Z" transform="translate(-3908.874 -702.847)" fill="#212e3b"/>
        <path id="Path_2790" data-name="Path 2790" d="M3958.287,715.306v1.94h-6.165v-3.662l-1.12,2.089h-1.769l2.888-5.365v-7.392h1.853v3.944l1.7-3.169h1.769l-3.471,6.444v5.172Z" transform="translate(-3906.133 -702.85)" fill="#212e3b"/>
        <path id="Path_2791" data-name="Path 2791" d="M3960.761,712.268v4.978h-1.9v-14.33h4.029a4.41,4.41,0,0,1,1.746.356,4.627,4.627,0,0,1,1.488,1,4.878,4.878,0,0,1,1,1.519,4.671,4.671,0,0,1-1,5.1,4.82,4.82,0,0,1-1.488,1.013,4.318,4.318,0,0,1-1.746.365Zm0-7.392v5.475h2.132a2.511,2.511,0,0,0,1.9-.82,2.731,2.731,0,0,0,0-3.858,2.591,2.591,0,0,0-1.9-.8Z" transform="translate(-3904.233 -702.85)" fill="#212e3b"/>
        <path id="Path_2792" data-name="Path 2792" d="M3968.136,717.246v-14.33h1.809v14.33Z" transform="translate(-3902.404 -702.85)" fill="#212e3b"/>
        <path id="Path_2793" data-name="Path 2793" d="M3980.28,717.246l-6.465-10.517v10.517H3971.9v-14.33h1.875l6.681,10.818V702.916h1.9v14.33Z" transform="translate(-3901.663 -702.85)" fill="#212e3b"/>
        <path id="Path_2794" data-name="Path 2794" d="M3987.105,716.8a6.931,6.931,0,0,1-2.295-1.561,7.2,7.2,0,0,1-1.552-2.318,7.232,7.232,0,0,1-.012-5.56,7.212,7.212,0,0,1,1.563-2.317,7.285,7.285,0,0,1,2.295-1.552,6.951,6.951,0,0,1,2.768-.56,7.042,7.042,0,0,1,2.781.56,7.243,7.243,0,0,1,3.856,3.859,6.985,6.985,0,0,1,.56,2.779,7.064,7.064,0,0,1-.56,2.791,7.207,7.207,0,0,1-3.856,3.868,7.214,7.214,0,0,1-5.549.011Zm.754-11.508a5.224,5.224,0,0,0-3.223,4.838,5.308,5.308,0,0,0,.41,2.059,5.219,5.219,0,0,0,9.656,0,5.306,5.306,0,0,0,.408-2.059,5.245,5.245,0,0,0-7.25-4.838Z" transform="translate(-3899.532 -702.847)" fill="#212e3b"/>
      </g>
      <g id="czołpino_kolor" data-name="czołpino kolor" transform="translate(3924.859 404.77)">
        <path id="Path_2795" data-name="Path 2795" d="M3909.206,475.085c.413-2.517,96.82-2.476,100.257,0s5.974,10.9,4.438,12.548-4.7,5.343-4.7,5.87,17.417,185.741,17.153,187.589c-.167,1.171-37.5,5.561-69.393,5.276-18.37-.164-46.3-5.718-47.412-6.684-3.042-2.641,6.781-183.278,5.462-186.181s-2.9-2.506-4.221-5.87S3908.678,478.3,3909.206,475.085Z" transform="translate(-3904.381 -391.269)" fill="#efe8e5"/>
        <path id="Path_2796" data-name="Path 2796" d="M3928.1,459.711c.909-1.789,57.213-1.935,58.2-.7s1.113,14.423.214,16.622-57.359,2.639-58.416,1.232S3926.874,462.13,3928.1,459.711Z" transform="translate(-3900.774 -394.23)" fill="#ad6e42"/>
        <path id="Path_2797" data-name="Path 2797" d="M3953.422,404.77c2.246.352,3.478.7,3.478,2.639s-.924,3.015-3.3,3.458-2.59-.351-2.9-3.048S3953.422,404.77,3953.422,404.77Z" transform="translate(-3896.152 -404.77)" fill="#212e3b"/>
        <path id="Path_2798" data-name="Path 2798" d="M3962.379,411.673c3.142,0,25.749,16.277,24.8,20.407-.354,1.546-55.067-.524-58.044-2.283S3958.188,411.673,3962.379,411.673Z" transform="translate(-3900.44 -403.408)" fill="#212e3b"/>
        <path id="Path_2799" data-name="Path 2799" d="M3954.846,637.236c9.762,0,12.425,19.634,10.026,20.843s-15.963.678-16.886,0S3946.272,637.236,3954.846,637.236Z" transform="translate(-3896.791 -358.915)" fill="#212e3b"/>
        <path id="Path_2800" data-name="Path 2800" d="M3905.639,473.372c1.625-.339,107.469-.176,107.469.88s.433,3.913-2.07,4.924-105.047-2.238-105.4-2.966S3904.708,473.567,3905.639,473.372Z" transform="translate(-3905.135 -391.269)" fill="#ad6e42"/>
      </g>
      <g id="czołpino-2" data-name="czołpino" transform="translate(3911.645 406.599)">
        <path id="Path_2801" data-name="Path 2801" d="M3959.789,691.813c-16.848,0-51.074-3.142-55.695-7.194a1.544,1.544,0,0,1-.6-1.045h0c-.14-2.348,3.345-60.751,6.418-112.28,2.361-39.544,4.589-76.895,4.521-77.978-.171-.553-3.384-3.067-4.593-4.013-.315-.245-.588-.46-.795-.626-.524-.419-.878-1.724-1.048-3.879-.252-3.2-.046-8.238,1-9.39,1.606-1.767,40.107-.775,52.042-.134,7.268.388,19.118.108,29.574-.14,15.837-.372,19.885-.375,20.351.323.719,1.081-.131,5.255-1.63,11.188l-.072.287a6.269,6.269,0,0,1-2.714,3.387,10.036,10.036,0,0,0-2.891,3.033c1.072,9.323,21.308,186.23,17.058,191.856-3.347,4.429-24.865,5.213-42.155,5.844-5.049.184-9.819.358-13.293.606C3963.787,691.763,3961.927,691.813,3959.789,691.813ZM3925.85,475.247c-8.768,0-15.521.214-16.254.736-.669.739-1.058,5.08-.768,8.747.181,2.281.548,3.144.736,3.295.206.166.478.377.789.62,3,2.351,4.673,3.764,4.892,4.5.119.4-.908,17.974-4.5,78.2-3.075,51.506-6.558,109.883-6.421,112.182a.79.79,0,0,0,.317.468c4.676,4.1,46.414,7.847,60.568,6.834,3.489-.249,8.265-.423,13.322-.607,16.212-.591,38.414-1.4,41.522-5.515,3.38-4.474-11.295-139.674-17.235-191.391l-.016-.13.063-.115a10.655,10.655,0,0,1,3.175-3.406c1.118-.869,2.084-1.617,2.416-2.934l.073-.289c1.6-6.322,2.183-9.862,1.743-10.522-.792-.4-10.374-.172-19.641.047-10.47.248-22.338.529-29.637.138C3951.582,475.6,3937.067,475.247,3925.85,475.247Z" transform="translate(-3892.246 -392.863)" fill="#212e3b"/>
        <path id="Path_2802" data-name="Path 2802" d="M3956.347,434.618c-7.641,0-29.588-.672-30.765-3.149h0a1.111,1.111,0,0,1,.21-1.021c2.566-3.865,25.788-19.058,31.675-19.058l.141,0c5.523.249,27.217,14.33,29.383,19.072a1.294,1.294,0,0,1-.023,1.406c-1.858,2.35-12.925,2.618-26.115,2.712-1.211.01-2.369.018-3.448.029C3957.1,434.615,3956.74,434.618,3956.347,434.618Zm-29.991-3.47c1.037,1.469,18.8,2.754,31.042,2.633,1.079-.012,2.239-.02,3.45-.029,9.44-.067,23.706-.169,25.468-2.4.066-.084.036-.287-.083-.544-2.035-4.456-23.465-18.353-28.662-18.586-2.4-.12-9.166,3.164-17.646,8.542C3931.3,426.238,3926.552,430.271,3926.356,431.148Z" transform="translate(-3887.9 -405.293)" fill="#212e3b"/>
        <rect id="Rectangle_475" data-name="Rectangle 475" width="0.833" height="35.563" transform="translate(38.161 26.426) rotate(-0.656)" fill="#212e3b"/>
        <rect id="Rectangle_476" data-name="Rectangle 476" width="0.833" height="35.287" transform="matrix(1, -0.012, 0.012, 1, 98.327, 26.325)" fill="#212e3b"/>
        <path id="Path_2803" data-name="Path 2803" d="M4010.191,477.208l-.819-.151c.717-3.893.957-7.528.524-7.938-1.031-.358-17.6-.17-29.7-.032-8.2.093-15.273.174-17.914.107-1.37-.034-4.215-.134-7.917-.266-13.021-.461-43.333-1.536-45.572-.743-.413,1.024-.167,5.954.091,8.912l-.828.072c-.121-1.358-.677-8.2.053-9.476.458-.8,7.743-.961,46.286.4,3.7.131,6.541.231,7.909.266,2.624.063,9.7-.016,17.882-.108,20.743-.235,29.52-.263,30.179.177C4011.522,469.2,4010.629,474.827,4010.191,477.208Z" transform="translate(-3891.408 -394.309)" fill="#212e3b"/>
        <path id="Path_2804" data-name="Path 2804" d="M3928.081,494.975h-5.829l0-.42c0-.068.061-6.82-2.155-9.063a2.062,2.062,0,0,0-1.517-.674c-3.826,0-5.12,6.75-5.133,6.817l-.817-.151c.056-.306,1.433-7.5,5.95-7.5a2.884,2.884,0,0,1,2.11.922c2.14,2.167,2.372,7.656,2.393,9.236h4.611c.179-1.918,1.207-10.052,5.735-10.682a2.994,2.994,0,0,1,2.475.74c2.366,2.059,2.694,7.755,2.739,9.394l4.528-.221c-.192-1.517-.64-6.327,1.019-8.265a2.355,2.355,0,0,1,1.858-.86c3.719,0,5.146,6.771,5.435,8.4l3.249.176c.063-1.531.441-6.612,2.7-8.632a3.227,3.227,0,0,1,2.563-.836c2.373.248,2.385,6.7,2.326,8.8l5.733.571c.145-1.906.977-9.206,5.244-9.457a3.031,3.031,0,0,1,2.324.866c2.277,2.12,2.659,7.6,2.72,9.16h2.846c.171-2.035,1.024-9.807,4.048-10.026,2.993-.232,4.638,7.666,5,9.633l4.717.055c.1-3.278.548-9.888,2.379-9.888h.005c3.326.025,4.389,7.582,4.5,8.443l-.826.105c-.273-2.141-1.469-7.7-3.68-7.718h0c-.616,0-1.414,4.055-1.558,9.49l-.012.409-6.226-.073-.058-.342c-.616-3.66-2.244-9.434-4.176-9.285s-3.057,5.987-3.31,9.64l-.026.387h-4.432l-.006-.411c0-.067-.116-6.782-2.469-8.972a2.218,2.218,0,0,0-1.707-.644c-4.06.239-4.485,9.013-4.49,9.1l-.02.438-7.378-.735.017-.392c.138-3.375-.257-8.189-1.568-8.326a2.393,2.393,0,0,0-1.921.627c-2.348,2.1-2.44,8.39-2.44,8.454l0,.435-4.78-.257-.05-.336c-.334-2.231-1.826-8.023-4.667-8.023a1.533,1.533,0,0,0-1.226.57c-1.692,1.975-.777,7.993-.768,8.053l.071.457-6.306.308v-.437c0-.071-.031-7.085-2.463-9.2a2.173,2.173,0,0,0-1.812-.541c-4.36.6-5.045,10.2-5.051,10.3l-.026.388Z" transform="translate(-3890.442 -391.156)" fill="#212e3b"/>
        <path id="Path_2805" data-name="Path 2805" d="M3944.464,659.452c-.055-.664-1.3-16.326,4.235-21.976a6.446,6.446,0,0,1,5.213-1.99c4.719.3,8.069,4.5,9.686,12.138a54.677,54.677,0,0,1,1.033,11.381l-.832-.028c.007-.219.573-21.992-9.941-22.662a5.652,5.652,0,0,0-4.565,1.742c-5.274,5.38-4.013,21.165-4,21.324Z" transform="translate(-3884.194 -361.092)" fill="#212e3b"/>
        <path id="Path_2806" data-name="Path 2806" d="M3931.168,607.654h-8.763l-.036-.376c-.03-.3-.684-7.312,1.817-10.307a3.578,3.578,0,0,1,2.52-1.344,3,3,0,0,1,2.471.906c2.663,2.665,2.05,10.411,2.022,10.739Zm-8-.832h7.229c.087-1.58.274-7.619-1.807-9.7a2.18,2.18,0,0,0-1.816-.664,2.736,2.736,0,0,0-1.949,1.048C3922.854,599.865,3923.069,605.339,3923.168,606.821Z" transform="translate(-3888.541 -368.954)" fill="#212e3b"/>
        <path id="Path_2807" data-name="Path 2807" d="M3986.824,620.127h-9.168l-.014-.4c-.056-1.386-.407-13.552,4.349-13.832a2.527,2.527,0,0,1,1.949.757c2.92,2.77,2.892,12.642,2.889,13.061Zm-8.366-.831h7.534c-.026-1.9-.279-9.814-2.626-12.04a1.737,1.737,0,0,0-1.328-.529C3978.813,606.917,3978.36,615.508,3978.458,619.3Z" transform="translate(-3877.624 -366.927)" fill="#212e3b"/>
        <path id="Path_2808" data-name="Path 2808" d="M3932.309,532.662h-10.275l.01-.425c.012-.472.306-11.573,3.258-14.278a2.174,2.174,0,0,1,1.668-.638c4.377.279,5.231,13.408,5.315,14.9Zm-9.418-.831h8.537c-.28-4.132-1.532-13.49-4.512-13.68a1.407,1.407,0,0,0-1.052.42C3923.472,520.763,3922.974,529.76,3922.89,531.832Z" transform="translate(-3888.587 -384.399)" fill="#212e3b"/>
        <path id="Path_2809" data-name="Path 2809" d="M3981.7,543.337h-8.582l-.042-.369c-.052-.442-1.2-10.848,1.759-13.643a2.571,2.571,0,0,1,2.317-.678c5.587.964,4.624,13.762,4.581,14.307Zm-7.834-.831h7.061c.116-2.117.443-12.286-3.917-13.038a1.748,1.748,0,0,0-1.6.463C3973.03,532.17,3973.685,540.631,3973.863,542.506Z" transform="translate(-3878.572 -382.173)" fill="#212e3b"/>
        <rect id="Rectangle_477" data-name="Rectangle 477" width="0.831" height="33.373" transform="translate(44.216 27.873) rotate(-2.556)" fill="#212e3b"/>
        <rect id="Rectangle_478" data-name="Rectangle 478" width="32.702" height="0.833" transform="translate(53.609 61.864) rotate(-88.552)" fill="#212e3b"/>
        <rect id="Rectangle_479" data-name="Rectangle 479" width="0.833" height="32.838" transform="translate(63.959 28.925) rotate(-1.838)" fill="#212e3b"/>
        <rect id="Rectangle_480" data-name="Rectangle 480" width="0.832" height="32.283" transform="translate(76.075 28.911)" fill="#212e3b"/>
        <rect id="Rectangle_481" data-name="Rectangle 481" width="0.833" height="32.41" transform="translate(82.955 28.54) rotate(-1.244)" fill="#212e3b"/>
        <rect id="Rectangle_482" data-name="Rectangle 482" width="0.833" height="32.634" transform="translate(88.871 28.43) rotate(-4.442)" fill="#212e3b"/>
        <path id="Path_2810" data-name="Path 2810" d="M3951.814,413.344a1.959,1.959,0,0,1-1.218-.338c-.712-.526-.863-1.555-1.05-3.193a3.227,3.227,0,0,1,3.088-3.509l.056-.006.057.008c1.882.295,3.829.6,3.829,3.049,0,2.2-1.123,3.4-3.643,3.867A6.223,6.223,0,0,1,3951.814,413.344Zm.864-6.207c-.379.059-2.545.486-2.307,2.581.158,1.378.294,2.3.718,2.618.286.212.81.232,1.69.068,2.132-.4,2.963-1.252,2.963-3.049C3955.743,407.87,3955.013,407.507,3952.678,407.137Z" transform="translate(-3883.166 -406.298)" fill="#212e3b"/>
        <path id="Path_2811" data-name="Path 2811" d="M3993.21,430.927l-.225-.8,19.523-5.448.224.8Z" transform="translate(-3874.592 -402.672)" fill="#212e3b"/>
        <rect id="Rectangle_483" data-name="Rectangle 483" width="11.477" height="0.831" transform="translate(126.552 41.646)" fill="#212e3b"/>
        <rect id="Rectangle_484" data-name="Rectangle 484" width="0.831" height="12.442" transform="translate(121.028 53.644) rotate(-62.876)" fill="#212e3b"/>
        <path id="Path_2812" data-name="Path 2812" d="M3912.2,431.584c-1.785-1.457-13.9-7.067-14.026-7.124l.349-.755c.5.233,12.336,5.712,14.2,7.235Z" transform="translate(-3893.293 -402.864)" fill="#212e3b"/>
        <path id="Path_2813" data-name="Path 2813" d="M3896.248,441.251l-.035-.831,15.244-.659.035.831Z" transform="translate(-3893.681 -399.697)" fill="#212e3b"/>
        <rect id="Rectangle_485" data-name="Rectangle 485" width="13.196" height="0.833" transform="matrix(0.904, -0.427, 0.427, 0.904, 0, 61.362)" fill="#212e3b"/>
        <path id="Path_2814" data-name="Path 2814" d="M3988.559,479.373h-.011a.415.415,0,0,1-.4-.425c.182-7.5.2-19.107-.479-20.322-.964-1.239-17.531-1.178-30.6-.3a164.676,164.676,0,0,1-16.911-.163c-5.823-.25-12.42-.534-12.943.353-1.326,2.26-.411,15.011.055,19.733a.417.417,0,0,1-.373.455.411.411,0,0,1-.455-.374c-.068-.7-1.679-17.28.055-20.235.743-1.261,5.207-1.129,13.7-.764a163.6,163.6,0,0,0,16.819.163c.3-.019,29.942-1.847,31.384.721,1.013,1.805.632,18.816.585,20.75A.416.416,0,0,1,3988.559,479.373Z" transform="translate(-3887.866 -396.327)" fill="#040506"/>
      </g>
    </g>
  </g>
</svg>
