<svg xmlns="http://www.w3.org/2000/svg" width="300.249" height="424.181" viewBox="0 0 300.249 424.181">
  <g id="_11_ROZE" data-name="11 ROZE" transform="translate(186.034 -1011.665)">
    <g id="Group_133" data-name="Group 133" transform="translate(-186.033 1011.665)">
      <path id="Path_1086" data-name="Path 1086" d="M114.215,1434.873V1011.665H-186.034l2.789,289.668V1433Z" transform="translate(186.034 -1011.665)" fill="#fcf8f7"/>
    </g>
    <path id="Path_1087" data-name="Path 1087" d="M114.215,1114.325c-3.033,4.48-8.847,4.721-11.325,6.934s-3.033,7.7-6.185,8.744c-1.1.363-2.576-1.083-3.591-.539a8.648,8.648,0,0,0-2.488,2.358l-8.037,9.976c-4.313-1.823-6.152-9.147-10.7-8.042-1.184.287-2.173,1.174-3.375,1.375-3.577.6-5.231-4.609-8.566-6.029a9.227,9.227,0,0,0-5.048-.142l-7.511,1.2c-7.012,1.118-14.553,2.5-19.467,7.63-.956,1-1.926,2.195-3.3,2.356-2.146.249-3.771-2.166-5.924-2.34-2.222-.18-4.264,2.086-6.4,1.456-2.623-.772-2.345-4.66-4.017-6.822-2.282-2.953-7.142-1.685-10.36-3.573-2.289-1.342-3.535-4.186-6.025-5.106-3.034-1.121-6.3,1.132-9.529.989-5.39-.243-8.621-6.789-13.939-7.708a14.41,14.41,0,0,0-5.487.471l-22.949,4.99a11.488,11.488,0,0,0-3.744,1.28c-3.647,2.289-4.275,8.26-8.416,9.441-2.577.735-5.846-.709-7.761,1.168-1.788,1.752-.84,5.1-2.561,6.919-2.077,2.2-5.65.323-8.662.076-4.961-.406-10.084,4.054-14.49,1.741-3.1-1.627-4.458-6.157-7.941-6.542-1.992-.219-4.012,1.108-5.929.524-3.693-1.123-2.809-7.474-6.223-9.275-2.566-1.356-5.643.818-8.532.528-5.051-.51-8.3-8.22-13.077-6.5-2.374.854-3.513,3.813-5.913,4.592-3.887,1.264-7.741-3.985-11.6-2.643-2.566.894-3.459,4.213-5.815,5.57-2.57,1.48-5.753.143-8.688-.291s-3.95,7.156-6.669,4.861v218.359H114.215Z" transform="translate(0 83.538)" fill="#e9ccbd"/>
    <text id="ROZEWIE" transform="translate(-44.787 1381.851)" fill="#2e3c4b" font-size="18" font-family="SulphurPoint-Bold, Sulphur Point" font-weight="700" letter-spacing="0.025em"><tspan x="-35.136" y="0">ROZEWIE</tspan></text>
    <g id="rozewie_kolor" data-name="rozewie kolor" transform="translate(-68.807 1077.664)">
      <path id="Path_1088" data-name="Path 1088" d="M-109.365,1111.158c2.909-3.751,26.787-3.629,27.233.533s4.741,34.225,4.026,35.656-32.928,4.294-35.79,2.147S-111.275,1113.621-109.365,1111.158Z" transform="translate(126.847 -998.905)" fill="#ae4426"/>
      <path id="Path_1089" data-name="Path 1089" d="M-111.723,1137.14c5.271-7.758,48.523-7.5,49.332,1.1s8.588,70.768,7.291,73.728-59.645,8.88-64.83,4.44S-115.184,1142.234-111.723,1137.14Z" transform="translate(121.401 -980.115)" fill="#f1ece9"/>
      <path id="Path_1090" data-name="Path 1090" d="M-112,1071.689c1.6-1.6,25.053-2.147,25.77,0s-.256,67.516-2.276,68.476-23.493.208-23.493-1.923S-114.864,1074.553-112,1071.689Z" transform="translate(128.015 -1029.97)" fill="#ae4426"/>
      <path id="Path_1091" data-name="Path 1091" d="M-101.312,1048.063c1.357-.454,17.178,15.032,16.463,16.463s-28.358,3.579-28.853,1.431S-103.459,1048.78-101.312,1048.063Z" transform="translate(127.652 -1048.054)" fill="#f1ece9"/>
    </g>
    <g id="rozewie-2" data-name="rozewie" transform="translate(-73.239 1080.109)">
      <g id="Group_134" data-name="Group 134" transform="translate(24.478 45.494)">
        <circle id="Ellipse_32" data-name="Ellipse 32" cx="1.611" cy="1.611" r="1.611" transform="translate(7.874)" fill="#2e3c4b"/>
        <circle id="Ellipse_33" data-name="Ellipse 33" cx="1.611" cy="1.611" r="1.611" transform="translate(8.59 18.611)" fill="#2e3c4b"/>
        <circle id="Ellipse_34" data-name="Ellipse 34" cx="1.611" cy="1.611" r="1.611" transform="translate(7.874 40.085)" fill="#2e3c4b"/>
        <circle id="Ellipse_35" data-name="Ellipse 35" cx="1.611" cy="1.611" r="1.611" transform="translate(18.611 80.17)" fill="#2e3c4b"/>
        <circle id="Ellipse_36" data-name="Ellipse 36" cx="1.611" cy="1.611" r="1.611" transform="translate(0 90.191)" fill="#2e3c4b"/>
        <circle id="Ellipse_37" data-name="Ellipse 37" cx="1.611" cy="1.611" r="1.611" transform="translate(1.432 71.58)" fill="#2e3c4b"/>
      </g>
      <g id="rozewie-3" data-name="rozewie" transform="translate(0 0)">
        <path id="Path_1092" data-name="Path 1092" d="M-115.809,1150.8c-.716-1.432,1.431-15.749,2.147-20.043s2.864-20.758,4.295-22.189c.716-.717,7.873,0,11.454,0s13.6,0,14.316.714,5.01,22.191,5.726,25.053,2.474,13.741,2.438,16.552" transform="translate(130.266 -1001.515)" fill="none" stroke="#2e3c4b" stroke-miterlimit="10" stroke-width="0.9"/>
        <path id="Path_1093" data-name="Path 1093" d="M-109.071,1140.363c-1.732-1.114-1.016-26.167-1.732-35.471s-2.147-35.074-1.431-35.791c1.012-1.012,11.454.716,12.885.716s11.452-.716,12.168.715,1.431,35.076,1.431,39.37,0,30.779-.715,31.494" transform="translate(133.133 -1033.629)" fill="none" stroke="#2e3c4b" stroke-miterlimit="10" stroke-width="0.9"/>
        <path id="Path_1094" data-name="Path 1094" d="M-96.408,1049.415c2.117.8,13.919,16.572,14.064,18s-6.555-.773-9.4-.483-10.041.3-11.466.448-6.48-.062-7.193.011-5.057-.205-5.129-.916S-97.9,1048.848-96.408,1049.415Z" transform="translate(130.604 -1049.401)" fill="none" stroke="#2e3c4b" stroke-miterlimit="10" stroke-width="0.9"/>
        <path id="Path_1095" data-name="Path 1095" d="M-107.265,1059.093v8.588c0,2.864-.716,9.306-.716,9.306" transform="translate(136.753 -1041.515)" fill="none" stroke="#2e3c4b" stroke-miterlimit="10" stroke-width="0.9"/>
        <path id="Path_1096" data-name="Path 1096" d="M-103.318,1059.29c0,1.431-.716,3.221-.716,6.085s.716,12.526.716,12.526" transform="translate(139.965 -1041.355)" fill="none" stroke="#2e3c4b" stroke-miterlimit="10" stroke-width="0.9"/>
        <path id="Path_1097" data-name="Path 1097" d="M-98.655,1059.487s-1.433,17.18-1.433,17.9" transform="translate(143.176 -1041.194)" fill="none" stroke="#2e3c4b" stroke-miterlimit="10" stroke-width="0.9"/>
        <path id="Path_1098" data-name="Path 1098" d="M-111.533,1059.487v17.18" transform="translate(133.863 -1041.194)" fill="none" stroke="#2e3c4b" stroke-miterlimit="10" stroke-width="0.9"/>
        <path id="Path_1099" data-name="Path 1099" d="M-106.7,1137.2c.983-1.77,7.213-1.121,7.9-.375s2.12,17.289.658,17.941-7.928,1.09-7.866-.341S-107.472,1138.6-106.7,1137.2Z" transform="translate(137.62 -978.876)" fill="none" stroke="#2e3c4b" stroke-miterlimit="10" stroke-width="0.9"/>
        <path id="Path_1100" data-name="Path 1100" d="M-106.048,1150.3c.492-.885,7.152.31,7.152.31s1.433,16.54.657,17.94-5.068,1.213-6.468.437S-106.826,1151.7-106.048,1150.3Z" transform="translate(138.067 -967.563)" fill="none" stroke="#2e3c4b" stroke-miterlimit="10" stroke-width="0.9"/>
        <path id="Path_1101" data-name="Path 1101" d="M-105.069,1164.433c1.056-.969,4.353-1.246,5.753-.468s2.8,18.032,2.088,18-6.5,1.152-7.182.406S-105.815,1165.116-105.069,1164.433Z" transform="translate(138.866 -956.543)" fill="none" stroke="#2e3c4b" stroke-miterlimit="10" stroke-width="0.9"/>
        <path id="Path_1102" data-name="Path 1102" d="M-111.037,1112.547c0-.717-2.864-5.726-2.864-8.59,0-1.012,32.928-.716,32.928.717s-2.6,7.874-4.028,8.588" transform="translate(131.936 -1005.494)" fill="none" stroke="#2e3c4b" stroke-miterlimit="10" stroke-width="0.9"/>
        <path id="Path_1103" data-name="Path 1103" d="M-108.461,1103.37s-.8,7.917,0,9.08" transform="translate(136.072 -1005.485)" fill="none" stroke="#2e3c4b" stroke-miterlimit="10" stroke-width="0.9"/>
        <path id="Path_1104" data-name="Path 1104" d="M-100.624,1103.491s-.116,7.614-.417,8.949" transform="translate(142.401 -1005.387)" fill="none" stroke="#2e3c4b" stroke-miterlimit="10" stroke-width="0.9"/>
        <path id="Path_1105" data-name="Path 1105" d="M-105.2,1103.491s-1.018,8.949-.3,8.949" transform="translate(138.566 -1005.387)" fill="none" stroke="#2e3c4b" stroke-miterlimit="10" stroke-width="0.9"/>
        <path id="Path_1106" data-name="Path 1106" d="M-86.5,1073.455c0-.717,4.295-7.159,2.862-7.874s-30.063-1.433-30.063,0,2.147,6.442,2.147,6.442" transform="translate(132.097 -1036.909)" fill="none" stroke="#2e3c4b" stroke-miterlimit="10" stroke-width="0.9"/>
        <path id="Path_1107" data-name="Path 1107" d="M-119.682,1132.919c1.148-1.658,53.959-2.075,56.9,0s12.208,78,10.376,80.593-66.1,1.21-69.178-1.556S-121.24,1135.168-119.682,1132.919Z" transform="translate(124.674 -982.583)" fill="none" stroke="#2e3c4b" stroke-miterlimit="10" stroke-width="0.9"/>
        <line id="Line_546" data-name="Line 546" y1="1.566" x2="4.692" transform="translate(55.393 15.457)" fill="none" stroke="#2e3c4b" stroke-miterlimit="10" stroke-width="0.9"/>
        <line id="Line_547" data-name="Line 547" x2="7.719" transform="translate(56.604 23.898)" fill="none" stroke="#2e3c4b" stroke-miterlimit="10" stroke-width="0.9"/>
        <line id="Line_548" data-name="Line 548" x2="3.406" y2="1.696" transform="translate(54.333 31.284)" fill="none" stroke="#2e3c4b" stroke-miterlimit="10" stroke-width="0.9"/>
        <path id="Path_1108" data-name="Path 1108" d="M-118.287,1060.38a32.158,32.158,0,0,1-4.389-1.924" transform="translate(124.796 -1042.033)" fill="none" stroke="#2e3c4b" stroke-miterlimit="10" stroke-width="0.9"/>
        <line id="Line_549" data-name="Line 549" x1="5.499" transform="translate(0 23.199)" fill="none" stroke="#2e3c4b" stroke-miterlimit="10" stroke-width="0.9"/>
        <line id="Line_550" data-name="Line 550" x1="4.389" y2="1.514" transform="translate(2.119 29.859)" fill="none" stroke="#2e3c4b" stroke-miterlimit="10" stroke-width="0.9"/>
      </g>
    </g>
  </g>
</svg>
