<svg xmlns="http://www.w3.org/2000/svg" width="352" height="496.199" viewBox="0 0 352 496.199">
  <g id="_12" data-name="12" transform="translate(11415 -13859)">
    <rect id="Rectangle_275" data-name="Rectangle 275" width="352" height="496" transform="translate(-11415 13859)" fill="#fff"/>
    <g id="jastarnia" transform="translate(-15928.499 13523.866)">
      <path id="Path_2709" data-name="Path 2709" d="M4865.5,503.822c-25.072,4.853-10.236,28.877-19.647,37.076-1.594,1.39-13.132-6.851-16.6,7.6-1.829,7.632,6.717,14.2,6.136,22.03-.365,4.923-5.172,8.8-10.1,9s-9.634-2.719-12.524-6.722c-13.623-18.872,11.728-47.106.6-67.547-6.453-11.85-23.925-17.824-23.957-31.317-.006-2.527.674-5.054.34-7.559-.646-4.859-4.948-8.469-9.465-10.372-6.786-2.862-5.438,9.144-12.259,11.919-10.247,4.515-21-8.762-22.087,9.017.643,10.561-7.044,15.423-2.327,18.92s8.891,9.9,5.818,14.9c-1.642,2.672-4.951,4.058-6.341,6.867-2.272,4.59,1.777,9.821,6.045,12.653s9.368,9.463,3.088,15.173c-5.185,7.166-7.739,3.7-16.094.8s-14.993-9.254-21.122-15.629c-1.983-2.063-4.022-4.29-4.645-7.083-1.144-5.128,2.828-10.125,2.643-15.376-.212-6.073-5.689-10.444-10.663-13.936-6.337-4.448-12.881-8.99-20.421-10.75s-16.414-.1-21.115,6.052c-2.553,3.338-3.735,7.742-6.967,10.428-5.578,4.637-17.092,5.133-16.077,12.313.505,3.581,4.488,5.673,5.7,9.081,3.018,8.471-11.547,12.728-14.1,21.35-4.312,14.558,8.434,17.371,4.094,31.921-2.006,6.724-11.145-5.909-17.986-7.471s-5.271,20.113-12.275,19.7c-8.77-.52-9.869-2.932-13.984-10.693-1.956-3.69,4.942-7.212,1.755-18.61-1.746-6.248-7.756-4.956-5.558-15.923q5.73-7.737,10.749-15.97c1.93-3.164,3.844-6.817,2.922-10.406-2.417-9.4-18.815-6.086-23.942-14.333-5.572-8.962,7.026-23.367-1.116-30.081-4.553-3.754-11.351-.826-17.221-1.423-5.086-.516-9.434-3.747-14.216-5.555s-11.276-1.586-13.73,2.9c-3.057,5.582,2.629,12.5,1.029,18.663-1.342,5.168,2.421,14.33-9.448,22.078-9,5.871,2.623,26.61-6.621,36.307V822.492H4865.5Z" transform="translate(0 8.841)" fill="#e6c2b0"/>
      <g id="Group_468" data-name="Group 468" transform="translate(4643.68 756.631)">
        <path id="Path_2710" data-name="Path 2710" d="M4623.72,715.144a2.111,2.111,0,0,0,1.543-.6,2,2,0,0,0,.606-1.488V702.916h1.743v10.145a4.182,4.182,0,0,1-.286,1.551,4.083,4.083,0,0,1-.8,1.276,3.78,3.78,0,0,1-1.254.863,3.939,3.939,0,0,1-1.554.307Z" transform="translate(-4623.72 -702.873)" fill="#212e3b"/>
        <path id="Path_2711" data-name="Path 2711" d="M4638.478,717.055l-1.744-4.977h-4.424l-1.745,4.977h-2.021l4.915-14.122h2.126l4.914,14.122Zm-3.956-11.378-1.617,4.615h3.212Z" transform="translate(-4622.844 -702.87)" fill="#212e3b"/>
        <path id="Path_2712" data-name="Path 2712" d="M4646.967,705.921a2.312,2.312,0,0,0-.945-.84,3.355,3.355,0,0,0-1.435-.267,2.687,2.687,0,0,0-2.022.618,2.157,2.157,0,0,0-.553,1.594,2.336,2.336,0,0,0,.171.969,1.442,1.442,0,0,0,.51.6,3.572,3.572,0,0,0,1.68.469,11.657,11.657,0,0,1,2.011.328,5.378,5.378,0,0,1,1.436.607,3.359,3.359,0,0,1,1.554,3.063,3.738,3.738,0,0,1-.32,1.531,4.144,4.144,0,0,1-2.5,2.275,5.868,5.868,0,0,1-1.926.32,5,5,0,0,1-3.594-1.276,5.057,5.057,0,0,1-1.383-3.064l.043-.021h1.872a2.781,2.781,0,0,0,.766,1.68,3.156,3.156,0,0,0,2.232.767,3.348,3.348,0,0,0,2.127-.618,1.931,1.931,0,0,0,.787-1.594,2.331,2.331,0,0,0-.117-.778,1.331,1.331,0,0,0-.436-.585,5.4,5.4,0,0,0-2.7-.7,4.873,4.873,0,0,1-3.062-1.171,3.7,3.7,0,0,1-1.043-2.807,4,4,0,0,1,1.129-2.956,5.159,5.159,0,0,1,6.763.149,5.338,5.338,0,0,1,1.318,3.063h-1.914A3.27,3.27,0,0,0,4646.967,705.921Z" transform="translate(-4620.827 -702.88)" fill="#212e3b"/>
        <path id="Path_2713" data-name="Path 2713" d="M4654.162,704.723v12.336h-1.872V704.723h-3.424v-1.807h8.72v1.807Z" transform="translate(-4619.153 -702.873)" fill="#212e3b"/>
        <path id="Path_2714" data-name="Path 2714" d="M4666.27,717.055l-1.744-4.977H4660.1l-1.746,4.977h-2.021l4.915-14.122h2.125l4.915,14.122Zm-3.956-11.378-1.617,4.615h3.212Z" transform="translate(-4617.797 -702.87)" fill="#212e3b"/>
        <path id="Path_2715" data-name="Path 2715" d="M4676.606,717.055h-2.51l-4.061-4.828v4.828h-1.872V702.933h3.636a4.382,4.382,0,0,1,3.19,1.34,4.836,4.836,0,0,1,.958,1.5,4.841,4.841,0,0,1,.042,3.455,4.465,4.465,0,0,1-.852,1.4,4.612,4.612,0,0,1-1.3,1.009,4.238,4.238,0,0,1-1.553.48Zm-6.571-12.208v5.4h1.764a2.534,2.534,0,0,0,1.021-.214,2.708,2.708,0,0,0,.851-.573,2.825,2.825,0,0,0,.563-.873,2.665,2.665,0,0,0,.2-1.041,2.641,2.641,0,0,0-1.617-2.49,2.553,2.553,0,0,0-1.021-.213Z" transform="translate(-4615.649 -702.87)" fill="#212e3b"/>
        <path id="Path_2716" data-name="Path 2716" d="M4685.652,717.059l-6.381-10.379v10.379h-1.893V702.916h1.85l6.593,10.677V702.916h1.872v14.143Z" transform="translate(-4613.976 -702.873)" fill="#212e3b"/>
        <path id="Path_2717" data-name="Path 2717" d="M4688.36,717.059V702.916h1.787v14.143Z" transform="translate(-4611.982 -702.873)" fill="#212e3b"/>
        <path id="Path_2718" data-name="Path 2718" d="M4701.872,717.055l-1.742-4.977h-4.425l-1.745,4.977h-2.021l4.913-14.122h2.127l4.913,14.122Zm-3.954-11.378-1.618,4.615h3.212Z" transform="translate(-4611.331 -702.87)" fill="#212e3b"/>
      </g>
      <g id="jastarnia_kolor" data-name="jastarnia kolor" transform="translate(4667.444 409.093)">
        <path id="Path_2719" data-name="Path 2719" d="M4647.807,609.6c.88-1.382,50.2-2.086,50.46-.782s0,31.179-.435,31.7-47.767.521-49.157-.695S4646.591,611.507,4647.807,609.6Z" transform="translate(-4643.225 -372.549)" fill="#efe8e5"/>
        <path id="Path_2720" data-name="Path 2720" d="M4668.275,408.774c2.159.383,17.353,15.761,15.321,17.313s-34.058.514-34.727-1.28S4664.73,408.144,4668.275,408.774Z" transform="translate(-4642.921 -408.755)" fill="#efe8e5"/>
        <g id="Group_469" data-name="Group 469" transform="translate(0 35.823)">
          <path id="Path_2721" data-name="Path 2721" d="M4657.884,531.014c-2.454-1.674-1.708-39.937,0-42.907s24.222-4.29,25.4,0,1.484,42.247-1.777,42.907S4663.207,534.644,4657.884,531.014Z" transform="translate(-4641.567 -430.666)" fill="#9f311b"/>
          <path id="Path_2722" data-name="Path 2722" d="M4656.173,457.758c-2.55-.684-1.774-16.346,0-17.562s25.17-1.756,26.4,0,1.543,17.293-1.846,17.562S4661.7,459.244,4656.173,457.758Z" transform="translate(-4641.888 -439.072)" fill="#9f311b"/>
          <path id="Path_2723" data-name="Path 2723" d="M4655.346,609.62c-2.854-1.673-1.985-39.936,0-42.906s28.161-4.292,29.535,0,1.727,42.246-2.065,42.906S4661.535,613.251,4655.346,609.62Z" transform="translate(-4642.073 -416.391)" fill="#9f311b"/>
          <path id="Path_2724" data-name="Path 2724" d="M4661.574,619.128c1.958-1.558,14.031.061,14.167,1.175s-.437,19-1.438,19.563-13.58-.152-14.152-1.439S4660.139,620.272,4661.574,619.128Z" transform="translate(-4640.909 -406.491)" fill="#9f311b"/>
          <path id="Path_2725" data-name="Path 2725" d="M4644.314,604.615c1.233-1.425,52.309-.341,53.578,0s1.974,2.85.986,3.3-53.155-.113-54-.455A1.8,1.8,0,0,1,4644.314,604.615Z" transform="translate(-4643.832 -409.14)" fill="#9f311b"/>
        </g>
        <path id="Path_2726" data-name="Path 2726" d="M4653.479,527.524s10.792-1.216,16.41-1,8.25-1.431,11.06,1,3.918,44.147,1.243,46.135-14.557,1.986-20.6,1.773-6.977-.463-7.614-2.591S4652.285,530.015,4653.479,527.524Z" transform="translate(-4642.179 -387.431)" fill="#efe8e5"/>
        <path id="Path_2727" data-name="Path 2727" d="M4653.479,455.049s10.792-1.034,16.41-.852,8.25-1.217,11.06.852,3.918,37.583,1.243,39.276-14.557,1.692-20.6,1.511-6.977-.395-7.614-2.207S4652.285,457.17,4653.479,455.049Z" transform="translate(-4642.179 -400.556)" fill="#efe8e5"/>
      </g>
      <g id="jastarnia-2" data-name="jastarnia" transform="translate(4651.333 406.893)">
        <path id="Path_2728" data-name="Path 2728" d="M4667.2,643.585c-8.178,0-18-.308-20.4-1.709-.965-.562-1.436-6.323-1.4-17.118.024-7.549.356-16.507.843-17.816l.77.286c-.928,2.492-1.267,32.5.219,33.953,4.92,2.865,45.515,1.173,48.151.375.7-2.181,1.081-30.684.433-33.938l.805-.161c.391,1.961.6,33.458-.645,34.7-.724.723-15.6,1.263-23.034,1.379C4671.236,643.564,4669.272,643.585,4667.2,643.585Z" transform="translate(-4627.436 -370.564)" fill="#212e3b"/>
        <path id="Path_2729" data-name="Path 2729" d="M4677.906,630.312l-.821-.011c.008-.674.824-67.828-.015-98.861s-.858-76.355-.858-76.81h.823c0,.455.016,45.754.856,76.789S4677.914,629.638,4677.906,630.312Z" transform="translate(-4621.84 -398.224)" fill="#212e3b"/>
        <path id="Path_2730" data-name="Path 2730" d="M4655.75,630.986l-.821-.028c.008-.24.817-24.324-.021-56.189-.8-30.462-2.109-116.013-1.231-120.4l.806.162c-.824,4.121.347,86.007,1.248,120.22C4656.569,606.639,4655.758,630.746,4655.75,630.986Z" transform="translate(-4625.985 -398.272)" fill="#212e3b"/>
        <path id="Path_2731" data-name="Path 2731" d="M4653.751,460.1c-.222-1.29-.3-5.835-.371-10.644-.062-3.865-.125-7.862-.271-10.405-.087-1.535-.361-13.9.149-15.451l.781.256c-.415,1.261-.235,12.954-.11,15.148.146,2.559.21,6.564.271,10.437.077,4.778.149,9.291.362,10.519Z" transform="translate(-4626.063 -403.859)" fill="#212e3b"/>
        <path id="Path_2732" data-name="Path 2732" d="M4677.027,460.112l-.819-.057c.978-14.023,2.322-35.314,2.026-36.495l.785-.243C4679.475,424.744,4677.28,456.5,4677.027,460.112Z" transform="translate(-4621.84 -403.91)" fill="#212e3b"/>
        <path id="Path_2733" data-name="Path 2733" d="M4682.529,462.432l-.3-.764c2.876-1.128,7.594-3.333,8.012-4.445.631-1.681,2.428-16.334,2.028-18.071-3.06-.384-42.92-.026-45.161.419-.679,1.4.351,15.706.7,17.067.3.476,4.092,2.427,7.572,4.014l-.342.748c-3.542-1.616-7.812-3.719-8.026-4.557-.04-.157-1.854-17.079-.354-17.978,1.376-.827,45.752-.566,46.026-.458,1.561.616-1.611,18.934-1.677,19.105C4690.343,459.29,4683.829,461.923,4682.529,462.432Z" transform="translate(-4627.315 -401.193)" fill="#212e3b"/>
        <path id="Path_2734" data-name="Path 2734" d="M4667.63,447.609c-6.287,0-20.292-1.533-20.921-1.6l.09-.816c.161.019,16.33,1.789,21.851,1.581.165-.013,18.09-1.373,23.434-1.582l.032.82c-5.328.21-23.239,1.568-23.419,1.582C4668.373,447.6,4668.016,447.609,4667.63,447.609Z" transform="translate(-4627.198 -399.938)" fill="#212e3b"/>
        <path id="Path_2735" data-name="Path 2735" d="M4666.673,455.611a87.153,87.153,0,0,1-11.465-.451c-5.1-1-8.476-1.7-8.476-1.7l.167-.8s3.376.7,8.466,1.7c2.492.488,11.941.57,26.6.227,4.92-.115,8.522-.234,8.523-.234l.028.821s-3.607.119-8.533.234C4677.04,455.515,4671.489,455.611,4666.673,455.611Z" transform="translate(-4627.194 -398.582)" fill="#212e3b"/>
        <path id="Path_2736" data-name="Path 2736" d="M4662.08,427.315c-4.8,0-10.3-.2-11.543-.94-.226-.135-.46-.432-.292-1.086.883-3.408,14.189-18.276,18.106-18.4h0c.254.015.7-.017,9.064,8.721,3.965,4.142,8.54,9.079,9.213,10.132a.583.583,0,0,1,.1.579c-.206.412-.659.526-10.306.657-3.011.041-5.854.08-7.294.173C4667.924,427.233,4665.144,427.315,4662.08,427.315Zm6.212-19.6c-2.7.255-11.063,8.783-15.176,14.327-2.246,3.026-2.112,3.661-2.105,3.685,1.521.876,13.615.891,18.062.6,1.463-.095,4.314-.134,7.335-.175,3.4-.046,7.891-.108,9.32-.276C4683.651,423.158,4669.754,408.637,4668.292,407.719Z" transform="translate(-4626.566 -406.893)" fill="#212e3b"/>
        <path id="Path_2737" data-name="Path 2737" d="M4667.5,549.2c-1.836,0-4.419-1.224-4.878-2.686-.687-2.192,3.358-3.791,3.82-3.964l.145-.027a2.256,2.256,0,0,1,1.723.871,6.207,6.207,0,0,1,1.122,4.55,1.591,1.591,0,0,1-1.658,1.247C4667.681,549.2,4667.589,549.2,4667.5,549.2Zm-.84-5.854c-1.042.41-3.631,1.717-3.253,2.922.331,1.059,2.689,2.216,4.31,2.1.545-.04.851-.227.9-.556a5.382,5.382,0,0,0-.935-3.888A1.475,1.475,0,0,0,4666.655,543.349Z" transform="translate(-4624.323 -382.262)" fill="#212e3b"/>
        <path id="Path_2738" data-name="Path 2738" d="M4660.51,640.949l-.821-.021c.021-.744.486-18.258.962-20.1.149-.572.826-.978,2.131-1.28,3.026-.7,10.345-.734,11.312.4s1.771,16.236,2,20.843l-.821.04c-.36-7.378-1.17-19.428-1.8-20.357-.6-.636-7.4-.923-10.714-.072-1.208.31-1.3.619-1.3.633C4661.084,622.436,4660.675,634.674,4660.51,640.949Z" transform="translate(-4624.84 -368.365)" fill="#212e3b"/>
        <path id="Path_2739" data-name="Path 2739" d="M4660.278,643.824c-10.595,0-16.129-.282-16.493-.841-.9-1.392,2.236-5.7,3.219-6.987l.654.5c-1.8,2.351-3.468,5.246-3.214,5.978,2.746.983,53.467.359,55.633-.7a.245.245,0,0,0,.15-.221c.045-.941-2.579-3.272-4.457-4.627l.481-.665c.815.587,4.88,3.61,4.8,5.333a1.058,1.058,0,0,1-.561.893c-1.533.893-27.57,1.241-28.679,1.254Q4665.292,643.824,4660.278,643.824Z" transform="translate(-4627.758 -365.288)" fill="#212e3b"/>
        <path id="Path_2740" data-name="Path 2740" d="M4657.658,441.569c-.238-1.307,1.322-15.861,1.5-17.516l.818.089c-.7,6.453-1.676,16.379-1.512,17.28Z" transform="translate(-4625.214 -403.777)" fill="#212e3b"/>
        <path id="Path_2741" data-name="Path 2741" d="M4666.689,441.383l-.8-.193c.231-.957.1-10.981-.046-17.485l.822-.018C4666.7,425.354,4667.02,440.013,4666.689,441.383Z" transform="translate(-4623.723 -403.843)" fill="#212e3b"/>
        <path id="Path_2742" data-name="Path 2742" d="M4674.094,441.394l-.794-.208c.213-.844-.893-11.132-1.641-17.419l.814-.1C4672.8,426.415,4674.413,440.173,4674.094,441.394Z" transform="translate(-4622.667 -403.846)" fill="#212e3b"/>
        <path id="Path_2743" data-name="Path 2743" d="M4681.665,609.246c-16.408,0-37.7-.49-38.85-1.215a2.291,2.291,0,0,1-1.1-1.453,2.852,2.852,0,0,1,.375-1.956c.671-1.134,6.213-1.219,18.343-.983,2.669.052,4.972.1,6.293.067,1.347-.03,4.184-.154,7.777-.31,15.541-.677,23.591-.936,24.438-.47a5.811,5.811,0,0,1,2.207,3.909,1.964,1.964,0,0,1-.571,1.79C4700.056,609.06,4691.789,609.246,4681.665,609.246Zm-38.872-4.19a2.024,2.024,0,0,0-.271,1.348,1.5,1.5,0,0,0,.729.931c2.063.981,54.675,1.564,56.853.626a1.314,1.314,0,0,0,.231-1.048,5.022,5.022,0,0,0-1.785-3.267c-1.062-.427-15.988.222-24.007.572-3.6.156-6.438.279-7.795.311-1.337.026-3.651-.017-6.327-.067-5.869-.115-16.791-.33-17.625.586l0,.011Z" transform="translate(-4628.114 -371.336)" fill="#212e3b"/>
        <rect id="Rectangle_446" data-name="Rectangle 446" width="8.453" height="0.821" transform="translate(70.333 16.841) rotate(-24.584)" fill="#212e3b"/>
        <path id="Path_2744" data-name="Path 2744" d="M4691.983,428.3l-.042-.82,10.031-.521.042.82Z" transform="translate(-4618.984 -403.249)" fill="#212e3b"/>
        <rect id="Rectangle_447" data-name="Rectangle 447" width="0.822" height="6.757" transform="translate(71.754 31.262) rotate(-63.68)" fill="#212e3b"/>
        <rect id="Rectangle_448" data-name="Rectangle 448" width="0.821" height="8.782" transform="translate(3.397 13.43) rotate(-69.144)" fill="#212e3b"/>
        <rect id="Rectangle_449" data-name="Rectangle 449" width="0.822" height="8.745" transform="matrix(0.06, -0.998, 0.998, 0.06, 0, 24.008)" fill="#212e3b"/>
        <rect id="Rectangle_450" data-name="Rectangle 450" width="7.461" height="0.821" transform="translate(1.807 35.731) rotate(-24.764)" fill="#212e3b"/>
      </g>
    </g>
  </g>
</svg>
