<svg xmlns="http://www.w3.org/2000/svg" width="300.713" height="423.862" viewBox="0 0 300.713 423.862">
  <g id="SLIDER" transform="translate(922 -7242.137)">
    <g id="_14_SOPOT" data-name="14 SOPOT" transform="translate(-922 5977.473)">
      <g id="Group_131" data-name="Group 131" transform="translate(0 1264.665)">
        <path id="Path_1053" data-name="Path 1053" d="M300.713,1688.527V1264.665H0l.139,423.862Z" transform="translate(0 -1264.665)" fill="#fcf8f7"/>
      </g>
      <path id="Path_1054" data-name="Path 1054" d="M300.65,1622.338H.077V1345.725l2.178.69s.214,13,.856,14.927,6.194,5.553,5.768,11.629-6.2,11.083-6.2,11.083S12.938,1428,15.806,1425.186c4.254-4.167,7.273-9.439,11.226-13.9,1.386-1.564,3.866-4.467,4.492-6.461.779-2.481-2.725-6.883-2.928-9.477-.483-6.129,3.235-9.154,5.068-15.023l9.253-29.606a87.916,87.916,0,0,0,10.058,34.456c2.122,3.975,4.623,8.549,2.91,12.716-.59,1.435-1.651,2.676-2,4.189-.483,2.122.534,4.266,1.524,6.2L65.7,1428.454c1.927,3.776,3.951,7.675,7.277,10.3,4.934,3.9,11.7,4.249,17.98,4.436a18.175,18.175,0,0,0,5.855-.459c7.684-2.333,9.124-13.03,15.669-17.683,5.2-3.691,12.222-2.721,18.545-1.94,24.736,3.055,41.733.615,66.649,1.2,2.376.056,4.861.167,6.923,1.347a14.813,14.813,0,0,1,3.947,3.838c5.059,6.338,2.541,13.236,7.6,19.574,11.668-12.857,14.906-26.315,18.823-43.229,2.016-8.7,10.451-7.309,9.653-16.205-.176-1.963-.067-14.087-.162-16.236-.136-3.056-5.935-3.624-4.038-6.022l12.872-16.273q6.333,8.36,12.485,16.852c.865,1.2-5.417,2.52-5.29,3.989.205,2.383-.56,6.994-1.057,13.784-.872,11.867,6.648,8.938,9.275,20.542s-2.367,24.462,4.861,33.915c4.069,5.324,6.632-3.508,6.632-3.508,1.924-3.666,6.411-8.572,7.371-12.368s-.044-50.031-.427-51.758c-.214-.96-2.569.516-3.849-.777s4.917-21.94,6.839-22.17,10.518.205,10.518.205Z" transform="translate(0.063 66.189)" fill="#e9ccbd"/>
      <text id="SOPOT" transform="translate(149.372 1632.61)" fill="#2e3c4b" font-size="18" font-family="SulphurPoint-Bold, Sulphur Point" font-weight="700" letter-spacing="0.025em"><tspan x="-27.279" y="0">SOPOT</tspan></text>
      <g id="sopot_kolor" data-name="sopot kolor" transform="translate(119.389 1327.382)">
        <path id="Path_1055" data-name="Path 1055" d="M76.32,1377.5c1.353-1.415,18.392-1.735,18.639-.558s1.059,16.411.312,16.721-24.9-.062-25.64-.5S74.957,1378.927,76.32,1377.5Z" transform="translate(-64.403 -1238.109)" fill="#ae4426"/>
        <path id="Path_1056" data-name="Path 1056" d="M72.076,1401.545c.743-1.114,24.663-.463,24.8,0a33.753,33.753,0,0,1-.848,6.781c-.312.373-28.552.558-29.25-.788S72.076,1401.545,72.076,1401.545Z" transform="translate(-66.725 -1217.935)" fill="#ae4426"/>
        <path id="Path_1057" data-name="Path 1057" d="M68.189,1455.2c.994-1.455,27.719.743,29.094-.65s.946-103.576.7-104.32-1.488-2.554-1.333-3.691,29.568-1.114,31.117-.754,6.38,1.2,5.544,2.589-3.159,5.2-3.066,6.223,3.542,143.752,2.138,145.655-63.539,1.58-64.189-1.021S67.25,1456.576,68.189,1455.2Z" transform="translate(-66.02 -1263.14)" fill="#f1ece9"/>
        <path id="Path_1058" data-name="Path 1058" d="M94.546,1300.246c2.9-.917,6.44,10.033,6.316,10.651s-10.156-.124-10.527-.743S89.84,1301.733,94.546,1300.246Z" transform="translate(-47.578 -1300.192)" fill="#2e3c4b"/>
        <path id="Path_1059" data-name="Path 1059" d="M108.186,1313.8c.26.23,4.084,20.188,4.58,20.56s9.989,7.308,9.515,7.8-7.41.99-8.338,1.362-.311,3.1-1.177,3.468-22.667.247-22.79,0-.619-3.591-1.858-3.591-4.917.835-6.687,0,7.679-3.964,9.164-7.308,5.079-21.055,5.946-21.428S107.074,1312.813,108.186,1313.8Z" transform="translate(-54.898 -1289.351)" fill="#b98255"/>
        <path id="Path_1060" data-name="Path 1060" d="M81.65,1331.927c2-.349,5.746-.479,7.944.868s20.649,3.034,22.338,2.547,2.452-3.884,3.84-3.709,4.721-1.162,5.8-.007,1.515,24.305.93,25.046-7.867-2.062-10.569-2.062-26.857.732-27.279.609,1.41-.122-.42-.122-3.5-3.41-3.273-11.217S80.493,1332.129,81.65,1331.927Z" transform="translate(-55.118 -1274.913)" fill="#f1ece9"/>
        <path id="Path_1061" data-name="Path 1061" d="M70.219,1387.724c1.806-1.235,23.986-1.462,24.512-.732s1.1,23.09.365,24.391-24.649.407-25.373-.489S69.533,1388.194,70.219,1387.724Z" transform="translate(-64.559 -1229.656)" fill="#f1ece9"/>
        <path id="Path_1062" data-name="Path 1062" d="M107.092,1347.209s-.85-11.8-10.636-11.8c-9.406,0-9.406,11.875-9.406,11.875" transform="translate(-50.129 -1271.437)" fill="#2e3c4b"/>
        <path id="Path_1063" data-name="Path 1063" d="M81.4,1345.474s.743-8.25,2.044-8.063,3.064,8.063,3.064,8.063" transform="translate(-54.742 -1269.804)" fill="#2e3c4b"/>
        <path id="Path_1064" data-name="Path 1064" d="M100.185,1345.009s.249-7.3,1.642-6.93,1.591,7.423,1.591,7.423" transform="translate(-39.404 -1269.267)" fill="#2e3c4b"/>
      </g>
      <g id="sopot-2" data-name="sopot" transform="translate(117.937 1310.158)">
        <path id="Path_1065" data-name="Path 1065" d="M94.487,1386.09H70.154c-1.486,0-.992,27-.992,27" transform="translate(-63.346 -1212.829)" fill="none" stroke="#2e3c4b" stroke-miterlimit="10" stroke-width="0.9"/>
        <path id="Path_1066" data-name="Path 1066" d="M94.783,1376.606s-16.194-1.673-18.058,0-8.233,16.725-7.622,17.835h1.07" transform="translate(-63.364 -1221.18)" fill="none" stroke="#2e3c4b" stroke-miterlimit="10" stroke-width="0.9"/>
        <path id="Path_1067" data-name="Path 1067" d="M89.139,1373.393c.558-.432,2.044-.494,2.354,0s.494,8.67,0,9.043-1.8-.558-1.982-.93S89.139,1373.393,89.139,1373.393Z" transform="translate(-46.97 -1223.48)" fill="none" stroke="#2e3c4b" stroke-miterlimit="10" stroke-width="0.9"/>
        <path id="Path_1068" data-name="Path 1068" d="M93.879,1374.6c.311.186.185,8.979,0,9.29s-1.548,0-1.8-.249a51.039,51.039,0,0,1-.432-8.236C91.836,1374.912,93.879,1374.6,93.879,1374.6Z" transform="translate(-44.96 -1222.21)" fill="none" stroke="#2e3c4b" stroke-miterlimit="10" stroke-width="0.9"/>
        <path id="Path_1069" data-name="Path 1069" d="M94.19,1376.128c.311-.681,2.231,0,2.416.5s.309,9.66,0,9.969-2.663-.433-2.787-.743S94.19,1376.128,94.19,1376.128Z" transform="translate(-43.165 -1221.198)" fill="none" stroke="#2e3c4b" stroke-miterlimit="10" stroke-width="0.9"/>
        <path id="Path_1070" data-name="Path 1070" d="M89.61,1357.454c.589-.532,1.479-1.239,2.04-.309s.243,7.245,0,7.926-1.978.249-2.04,0S88.992,1358.012,89.61,1357.454Z" transform="translate(-46.822 -1236.833)" fill="none" stroke="#2e3c4b" stroke-miterlimit="10" stroke-width="0.9"/>
        <path id="Path_1071" data-name="Path 1071" d="M91.6,1358.7c.36-.62,2.1-.5,2.469,0s.374,7.74,0,8.113-2.456.558-2.469,0S91.6,1358.7,91.6,1358.7Z" transform="translate(-44.963 -1235.537)" fill="none" stroke="#2e3c4b" stroke-miterlimit="10" stroke-width="0.9"/>
        <path id="Path_1072" data-name="Path 1072" d="M94.389,1359.922c.34-.436,1.677,0,2.171.311s.251,8.483,0,8.67a3.7,3.7,0,0,1-2.171-.5C94.017,1368.1,93.955,1360.479,94.389,1359.922Z" transform="translate(-42.931 -1234.346)" fill="none" stroke="#2e3c4b" stroke-miterlimit="10" stroke-width="0.9"/>
        <path id="Path_1073" data-name="Path 1073" d="M76.723,1388.387c.65-.558,3.947-.743,4.574,0s.351,6.781-.487,7.246-3.064.186-4.087,0S76.723,1388.387,76.723,1388.387Z" transform="translate(-57.479 -1211.353)" fill="none" stroke="#2e3c4b" stroke-miterlimit="10" stroke-width="0.9"/>
        <path id="Path_1074" data-name="Path 1074" d="M76.812,1395.475c.558-.745,3.853-1.488,4.109-.93s.256,8.362-.392,8.917-3.531.465-3.717,0S76.812,1395.475,76.812,1395.475Z" transform="translate(-57.103 -1206.085)" fill="none" stroke="#2e3c4b" stroke-miterlimit="10" stroke-width="0.9"/>
        <path id="Path_1075" data-name="Path 1075" d="M67.919,1453.6s-3.075,46.162-1.588,47.152c3.522,2.349,65.357,2.765,65.6,1.279s-1.486-126.1-1.486-126.1a3.383,3.383,0,0,1-2.229-3.7c.247-2.974-.247-16.845-.247-16.845s-4.154-9.593-12.634-9.662c-8.1-.064-12.687,5.157-13.43,8.376s-1.023,14.663-1.724,16.149-2.434,2.229-2.434,3.963-1.239,79.764-1.239,79.764-27.744,0-29.726-.5,4.211-7.185,4.954-7.432,24.772,0,24.772,0" transform="translate(-65.925 -1245.789)" fill="none" stroke="#2e3c4b" stroke-miterlimit="10" stroke-width="0.9"/>
        <line id="Line_535" data-name="Line 535" x1="0.867" y1="48.81" transform="translate(30.588 208.189)" fill="none" stroke="#2e3c4b" stroke-miterlimit="10" stroke-width="0.9"/>
        <path id="Path_1076" data-name="Path 1076" d="M85.51,1386.4s.843-23.457-.687-24.2-2.832-3.715-3.575-7.06,0-24.338,0-24.338h7.8s1.168,28.362.616,35.484" transform="translate(-53.683 -1257.974)" fill="none" stroke="#2e3c4b" stroke-miterlimit="10" stroke-width="0.9"/>
        <path id="Path_1077" data-name="Path 1077" d="M102.944,1388.116s-1.312-20.156,0-22.573,3.17-4.062,3.17-7.7-.556-27.045-.556-27.045H99.612s.667,30.612.856,36.77" transform="translate(-38.419 -1257.974)" fill="none" stroke="#2e3c4b" stroke-miterlimit="10" stroke-width="0.9"/>
        <path id="Path_1078" data-name="Path 1078" d="M81.334,1345.439l7.758-.728H115.1c2.22,0,5.935,1.778,5.935,1.778" transform="translate(-53.343 -1246.616)" fill="none" stroke="#2e3c4b" stroke-miterlimit="10" stroke-width="0.9"/>
        <path id="Path_1079" data-name="Path 1079" d="M80.94,1342.013s5.8-.024,11.995,0c9.1.035,20.6.056,21.924-.055,2.229-.185,6.5,1.114,6.5,1.114" transform="translate(-53.665 -1248.879)" fill="none" stroke="#2e3c4b" stroke-miterlimit="10" stroke-width="0.9"/>
        <path id="Path_1080" data-name="Path 1080" d="M85.605,1333s22.819-.743,25.526,0" transform="translate(-49.856 -1256.452)" fill="none" stroke="#2e3c4b" stroke-miterlimit="10" stroke-width="0.9"/>
        <path id="Path_1081" data-name="Path 1081" d="M81.807,1345.1s-.952.233-1.548-1.068,9.731-6.921,9.731-6.921l6.75-23.815h11.13l5.335,22.329s9.637,7.593,9.637,8.568c0,.906-1.462.906-1.462.906" transform="translate(-54.241 -1272.27)" fill="none" stroke="#2e3c4b" stroke-miterlimit="10" stroke-width="0.9"/>
        <path id="Path_1082" data-name="Path 1082" d="M85.776,1326.4s1.048,6.292.85,7.277c-.185.928-1.23.712-1.23.712" transform="translate(-50.027 -1261.565)" fill="none" stroke="#2e3c4b" stroke-miterlimit="10" stroke-width="0.9"/>
        <path id="Path_1083" data-name="Path 1083" d="M100.67,1335.061c-1.115,0-1.951-.093-2.229-.743s0-8.732,0-8.732" transform="translate(-39.477 -1262.233)" fill="none" stroke="#2e3c4b" stroke-miterlimit="10" stroke-width="0.9"/>
        <path id="Path_1084" data-name="Path 1084" d="M89.321,1312.409h11.415s.961-12.819-4.8-13S89.321,1312.409,89.321,1312.409Z" transform="translate(-46.822 -1283.612)" fill="none" stroke="#2e3c4b" stroke-miterlimit="10" stroke-width="0.9"/>
        <line id="Line_536" data-name="Line 536" y2="12.228" transform="translate(42.5 28.797)" fill="none" stroke="#2e3c4b" stroke-miterlimit="10" stroke-width="0.9"/>
        <line id="Line_537" data-name="Line 537" x2="0.486" y2="12.228" transform="translate(46.123 28.797)" fill="none" stroke="#2e3c4b" stroke-miterlimit="10" stroke-width="0.9"/>
        <path id="Path_1085" data-name="Path 1085" d="M94.158,1306.563c-.185.463-.836,12.227-.836,12.227" transform="translate(-43.555 -1277.766)" fill="none" stroke="#2e3c4b" stroke-miterlimit="10" stroke-width="0.9"/>
        <line id="Line_538" data-name="Line 538" x1="0.286" y2="12.228" transform="translate(53.628 28.797)" fill="none" stroke="#2e3c4b" stroke-miterlimit="10" stroke-width="0.9"/>
        <line id="Line_539" data-name="Line 539" y1="15.792" transform="translate(49.117)" fill="none" stroke="#2e3c4b" stroke-miterlimit="10" stroke-width="0.9"/>
        <line id="Line_540" data-name="Line 540" y1="2.784" x2="9.049" transform="translate(76.588 78.889)" fill="none" stroke="#2e3c4b" stroke-miterlimit="10" stroke-width="0.9"/>
        <line id="Line_541" data-name="Line 541" y1="0.696" x2="10.441" transform="translate(79.372 85.154)" fill="none" stroke="#2e3c4b" stroke-miterlimit="10" stroke-width="0.9"/>
        <line id="Line_542" data-name="Line 542" x2="6.264" y2="1.392" transform="translate(77.98 91.418)" fill="none" stroke="#2e3c4b" stroke-miterlimit="10" stroke-width="0.9"/>
        <line id="Line_543" data-name="Line 543" x1="8.353" y1="2.784" transform="translate(14.64 77.497)" fill="none" stroke="#2e3c4b" stroke-miterlimit="10" stroke-width="0.9"/>
        <line id="Line_544" data-name="Line 544" x1="13.225" y2="0.696" transform="translate(6.983 85.154)" fill="none" stroke="#2e3c4b" stroke-miterlimit="10" stroke-width="0.9"/>
        <line id="Line_545" data-name="Line 545" x1="6.264" y2="3.48" transform="translate(11.856 90.722)" fill="none" stroke="#2e3c4b" stroke-miterlimit="10" stroke-width="0.9"/>
      </g>
    </g>
  </g>
</svg>
