<svg xmlns="http://www.w3.org/2000/svg" width="352.234" height="496" viewBox="0 0 352.234 496">
  <g id="_17" data-name="17" transform="translate(9328.234 -13859)">
    <rect id="Rectangle_276" data-name="Rectangle 276" width="352" height="496" transform="translate(-9328 13859)" fill="#fff"/>
    <g id="Layer_18" data-name="Layer 18" transform="translate(-15613.499 13522.18)">
      <path id="Path_2815" data-name="Path 2815" d="M6637.5,557.365c-7.841-1.814-13.414,7.921-13.819,15.959s1.109,17.11-4.056,23.283c-2.066,2.469-5.077,4.233-6.368,7.183-1.025,2.338-.777,5.009-.51,7.548q1.567,14.922,3.135,29.843c.126,1.2.179,2.609-.729,3.41a3.81,3.81,0,0,1-1.994.716,180.789,180.789,0,0,1-40.088,1.7c-3.1-.215-6.856-1.014-7.778-3.979-.49-1.577.8-18.551,1.319-20.117,2.985-8.921,5.212-2.562,8.2-11.483,1-2.982,1.994-6.261.863-9.2-.891-2.311-2.984-4.021-3.771-6.368-1.8-5.362,3.887-10.983,2.468-16.457-.652-2.524-2.743-4.534-3.189-7.1-1.091-6.293,7.964-11.454,6-17.532-1.417-4.4-7.6-5.4-9.795-9.461-1.9-3.52-.123-7.785.251-11.768.58-6.172-2.342-12.073-5.184-17.583-2.065-4.005-4.383-8.265-8.419-10.268s-10.161-.2-10.742,4.264c-.314,2.416,1.028,4.92.3,7.242-.726,2.3-3.23,3.59-4.34,5.736-2.8,5.417,4.534,12.273,1.6,17.617-1.921,3.494-7.539,4.509-8.012,8.469-.2,1.652.653,3.224,1.106,4.825a10.7,10.7,0,0,1-7.9,12.869c-5.8,2.593,1.611,10.709-.447,15.755-4.489,11.014-6.687,14.4.916,21.947,1.479,1.468,4.957,1.994,7.122,7.8,2.249,6.03-8.2,8.981-14.631,9.111a180.242,180.242,0,0,1-20.3-.739,20.952,20.952,0,0,1-7.907-1.859c-3.546-1.868-6.116,23.138-8.187,19.707-16.641-27.565-33.459-55.534-42.384-86.471-3.626-12.574-6.164-26.051-14.491-36.147-4.832-.485-8.875,3.655-11.26,7.884s-4.109,9.088-7.94,12.072c-2.213,1.724-5.158,2.873-6.246,5.46-1.574,3.744,1.716,7.656,2.41,11.658,1.225,7.064-5.718,13.119-6.2,20.273-.387,5.817,3.565,11.705,1.632,17.2-1.281,3.646-4.97,6.3-5.4,10.14-.763,6.756,11.282,3.511,9.036,9.928-1.084,3.1-4.622,4.734-5.983,7.72-3.3,7.24,8.418,4.782,8.787,12.729.379,8.222-10.19,11.939-18.419,12.132-9.074.214-9.7-5.977-18.539-8.04-2.042-.477-9.627-.52-11.119-2-1.445-1.428-3.875-5.353-4.25-7.35-1.928-10.263,9.3-2.613,10.237-16.886,2.484-8.537-8.718-3.773-8.553-9.8.083-2.978,8.363-6.16,7.224-16.717-.841-7.791-10.991-17.577-11.024-20.147-.268-20.878,8.725-6.779,8.458-27.657-.034-2.709-5.4-.76-8.837-8.458-2.377-5.322.97-10.2.094-13.305-1.9-6.743-7.452-3.776-13.5-7.319-5.512-3.231-9.842-9.821-13.214-6.8-4.847,4.344,1.812,13.633-2.442,18.56-1.38,1.6-3.6,2.242-5.071,3.761-3.451,3.568-1.162,9.631-2.8,14.318-1.474,4.227-6.16,7.365-5.853,11.831.264,3.828,4.131,6.388,5.441,9.994,1.069,2.941.316,6.2-.559,9.206-2.675,9.179-13.1,3.99-9.245,12.738,4.276,9.694-4,17.157-4.1,19.163-.379,7.627,12.662,11.791,10.582,19.14-.365,1.29-1.2,2.42-1.464,3.734-1.092,5.365-.954,8.578.97,13.7,2.663,5.761-13.775,6.648-23.206,5.432l-.109,174.3H6636.61Z" transform="translate(0 18.287)" fill="#e6c2b0"/>
      <g id="Group_472" data-name="Group 472" transform="translate(6379.648 758.079)">
        <path id="Path_2816" data-name="Path 2816" d="M6371.682,717.037l-4.566-5.2v5.2h-1.869v-14.1h1.869v5.373l4.481-5.373h2.464l-5.969,7.158,6.118,6.946Z" transform="translate(-6365.247 -702.848)" fill="#212e3b"/>
        <path id="Path_2817" data-name="Path 2817" d="M6383.345,717.037h-2.508l-4.056-4.822v4.822h-1.87v-14.1h3.631a4.372,4.372,0,0,1,3.187,1.338,4.8,4.8,0,0,1,.957,1.5,4.839,4.839,0,0,1,.042,3.452,4.423,4.423,0,0,1-.851,1.4,4.6,4.6,0,0,1-1.294,1.009,4.227,4.227,0,0,1-1.552.478Zm-6.563-12.193v5.4h1.761a2.512,2.512,0,0,0,1.02-.214,2.689,2.689,0,0,0,.85-.572,2.867,2.867,0,0,0,.564-.871,2.691,2.691,0,0,0,.2-1.041,2.641,2.641,0,0,0-1.616-2.485,2.531,2.531,0,0,0-1.02-.212Z" transform="translate(-6363.505 -702.848)" fill="#212e3b"/>
        <path id="Path_2818" data-name="Path 2818" d="M6388.98,711.836v5.2h-1.889v-5.162l-4.313-8.964h2.1l3.145,6.542,3.144-6.542h2.1Z" transform="translate(-6362.09 -702.851)" fill="#212e3b"/>
        <path id="Path_2819" data-name="Path 2819" d="M6401.912,717.041l-6.373-10.366v10.366h-1.891V702.915h1.848l6.585,10.663V702.915h1.869v14.126Z" transform="translate(-6360.131 -702.851)" fill="#212e3b"/>
        <path id="Path_2820" data-name="Path 2820" d="M6404.63,717.041V702.915h1.785v14.126Z" transform="translate(-6358.154 -702.851)" fill="#212e3b"/>
        <path id="Path_2821" data-name="Path 2821" d="M6412.565,716.582a6.955,6.955,0,0,1-2.272-1.549,7.113,7.113,0,0,1-1.528-2.273,6.949,6.949,0,0,1-.554-2.761,7.117,7.117,0,0,1,4.354-6.585,7.052,7.052,0,0,1,5.756.127,7.614,7.614,0,0,1,2.549,2.018l-1.444,1.232a5.308,5.308,0,0,0-4.12-2,5.006,5.006,0,0,0-1.987.4,5.285,5.285,0,0,0-2.793,2.793,5.2,5.2,0,0,0,0,4.015,5.285,5.285,0,0,0,2.793,2.793,5.006,5.006,0,0,0,1.987.4,5.308,5.308,0,0,0,4.12-2l1.444,1.232a7.875,7.875,0,0,1-2.56,2.018,7.021,7.021,0,0,1-5.746.126Z" transform="translate(-6357.51 -702.861)" fill="#212e3b"/>
        <path id="Path_2822" data-name="Path 2822" d="M6430.39,717.037l-1.742-4.971h-4.418l-1.742,4.971h-2.018l4.906-14.1h2.125l4.906,14.1Zm-3.951-11.364-1.614,4.609h3.207Z" transform="translate(-6355.302 -702.848)" fill="#212e3b"/>
        <path id="Path_2823" data-name="Path 2823" d="M6452.951,717.041V705.974l-4.2,6.074H6447.3l-4.186-6.074v11.067h-1.911V702.915h2.1l4.716,6.818,4.716-6.818h2.124v14.126Z" transform="translate(-6351.568 -702.851)" fill="#212e3b"/>
        <path id="Path_2824" data-name="Path 2824" d="M6459.193,716.6a6.851,6.851,0,0,1-2.262-1.54,7.1,7.1,0,0,1-1.529-2.283,7.135,7.135,0,0,1-.01-5.48,7.11,7.11,0,0,1,1.54-2.285,7.2,7.2,0,0,1,2.262-1.528,6.834,6.834,0,0,1,2.729-.552,6.915,6.915,0,0,1,2.74.552,7.131,7.131,0,0,1,3.8,3.8,6.905,6.905,0,0,1,.551,2.739,6.985,6.985,0,0,1-.551,2.752,7.114,7.114,0,0,1-3.8,3.813,7.111,7.111,0,0,1-5.47.011Zm.744-11.344a5.147,5.147,0,0,0-3.175,4.769,5.231,5.231,0,0,0,.4,2.03,5.145,5.145,0,0,0,9.517,0,5.232,5.232,0,0,0,.4-2.03,5.139,5.139,0,0,0-.393-1.985,5.086,5.086,0,0,0-1.116-1.667,5.187,5.187,0,0,0-5.638-1.116Z" transform="translate(-6349.111 -702.848)" fill="#212e3b"/>
        <path id="Path_2825" data-name="Path 2825" d="M6477.358,717.037h-2.507l-4.056-4.822v4.822h-1.869v-14.1h3.631a4.378,4.378,0,0,1,3.187,1.338,4.838,4.838,0,0,1,.957,1.5,4.846,4.846,0,0,1,.042,3.452,4.439,4.439,0,0,1-.851,1.4,4.634,4.634,0,0,1-1.3,1.009,4.222,4.222,0,0,1-1.551.478Zm-6.562-12.193v5.4h1.762a2.514,2.514,0,0,0,1.02-.214,2.705,2.705,0,0,0,.85-.572,2.828,2.828,0,0,0,.563-.871,2.673,2.673,0,0,0,.2-1.041,2.638,2.638,0,0,0-1.614-2.485,2.533,2.533,0,0,0-1.02-.212Z" transform="translate(-6346.577 -702.848)" fill="#212e3b"/>
        <path id="Path_2826" data-name="Path 2826" d="M6485.268,705.917a2.32,2.32,0,0,0-.945-.839,3.364,3.364,0,0,0-1.433-.266,2.689,2.689,0,0,0-2.02.616,2.159,2.159,0,0,0-.552,1.593,2.334,2.334,0,0,0,.17.966,1.454,1.454,0,0,0,.51.605,3.554,3.554,0,0,0,1.678.467,11.747,11.747,0,0,1,2.008.329,5.405,5.405,0,0,1,1.434.605,3.354,3.354,0,0,1,1.55,3.059,3.723,3.723,0,0,1-.318,1.529,4.133,4.133,0,0,1-2.5,2.273,5.889,5.889,0,0,1-1.922.319,4.57,4.57,0,0,1-4.97-4.334l.042-.02h1.869a2.776,2.776,0,0,0,.765,1.678,3.16,3.16,0,0,0,2.23.765,3.354,3.354,0,0,0,2.124-.616,1.933,1.933,0,0,0,.786-1.593,2.326,2.326,0,0,0-.117-.775,1.312,1.312,0,0,0-.435-.584,5.382,5.382,0,0,0-2.7-.7,4.878,4.878,0,0,1-3.059-1.168,3.7,3.7,0,0,1-1.041-2.8,3.993,3.993,0,0,1,1.126-2.953,5.15,5.15,0,0,1,6.755.149,5.332,5.332,0,0,1,1.316,3.059h-1.912A3.261,3.261,0,0,0,6485.268,705.917Z" transform="translate(-6344.95 -702.858)" fill="#212e3b"/>
        <path id="Path_2827" data-name="Path 2827" d="M6494.693,717.037l-4.566-5.2v5.2h-1.869v-14.1h1.869v5.373l4.482-5.373h2.463l-5.969,7.158,6.117,6.946Z" transform="translate(-6343.095 -702.848)" fill="#212e3b"/>
        <path id="Path_2828" data-name="Path 2828" d="M6506.762,717.037l-1.742-4.971H6500.6l-1.742,4.971h-2.018l4.907-14.1h2.124l4.907,14.1Zm-3.951-11.364-1.614,4.609h3.207Z" transform="translate(-6341.55 -702.848)" fill="#212e3b"/>
      </g>
      <g id="krynica_kolor" data-name="krynica kolor" transform="translate(6433.95 431.534)">
        <path id="Path_2829" data-name="Path 2829" d="M6418.023,470.395c.313-3.8,40.182-3.48,42.494,0s10.663,207.87,8.924,212.338-53.98,8.645-57.267,6.9S6415.327,503.108,6418.023,470.395Z" transform="translate(-6411.262 -418.669)" fill="#9f311b"/>
        <g id="Group_473" data-name="Group 473" transform="translate(4.952 61.84)">
          <path id="Path_2830" data-name="Path 2830" d="M6415.641,642.626a4.084,4.084,0,0,1,3.263-.479c.913.36.261,9.1,0,9.817s-2.2,1.367-2.74.479C6416.055,652.264,6415.054,643.245,6415.641,642.626Z" transform="translate(-6415.458 -449.116)" fill="#efe8e5"/>
          <path id="Path_2831" data-name="Path 2831" d="M6442.572,579.6c.392-.772,2.871-.883,3.524-.551s.652,9.934,0,10.486-1.958.11-2.61,0S6442.572,579.6,6442.572,579.6Z" transform="translate(-6410.576 -460.482)" fill="#efe8e5"/>
          <path id="Path_2832" data-name="Path 2832" d="M6428.71,478.924c.356-.712,3.085-.237,3.8,0s-.355,10.677-.593,11.389-2.61,1.068-3.2.713S6428.71,478.924,6428.71,478.924Z" transform="translate(-6413.119 -478.549)" fill="#efe8e5"/>
          <path id="Path_2833" data-name="Path 2833" d="M6442.416,661.2s.768-17.944-.8-18.679-10.434-1.355-11.876,0c-.782.735,0,19.459,0,19.459C6430.288,662.135,6442.416,661.2,6442.416,661.2Z" transform="translate(-6412.949 -449.166)" fill="#efe8e5"/>
        </g>
        <path id="Path_2834" data-name="Path 2834" d="M6435.45,426.145c1.832,0,21.4,18.922,20.619,20.88-.114.286-1.066.535-2.613.749-9.064,1.251-36.337,1.7-37.34.586C6414.94,447.057,6432.578,426.145,6435.45,426.145Z" transform="translate(-6410.397 -426.145)" fill="#efe8e5"/>
      </g>
      <g id="krynica" transform="translate(6393.601 396.217)">
        <path id="Path_2835" data-name="Path 2835" d="M6421.521,694.5c-6.14,0-12.359-.341-13.662-1.644-2.309-2.309-.789-70.822.475-110.942,1.695-53.812,4.444-109.939,6.767-114.025h0c1.47-2.59,38.754-2.725,43.362-.157.339.189.638.722,1.009,2.717,2.334,12.555,4.554,68.883,5.855,117.411.919,34.351,2.222,99.841.561,101.836-1.776,2.131-21.308,3.973-33.948,4.547C6429.386,694.362,6425.47,694.5,6421.521,694.5Zm-5.707-226.2c-1.914,3.39-4.646,49.923-6.643,113.177-1.932,61.13-2.241,108.766-.723,110.806,1.293,1.3,10.285,1.736,23.452,1.138,16.216-.735,32.114-2.763,33.354-4.251,1.1-2.07.65-52.688-1.007-110.509-1.839-64.154-4.333-108.449-6.208-110.224C6453,465.634,6417.164,466.522,6415.815,468.3Z" transform="translate(-6371.741 -383.672)" fill="#212e3b"/>
        <path id="Path_2836" data-name="Path 2836" d="M6427.755,662.419c-.295-7.511-.67-20.228.122-21.019,1.654-1.656,10.858-.822,12.35-.077,1.627.813,1.26,14.443,1.027,20.265l-.824-.033c.362-9,.24-18.762-.591-19.509-1.634-.815-10.178-1.266-11.38-.065-.448.924-.17,13.013.12,20.4Z" transform="translate(-6368.006 -352.239)" fill="#212e3b"/>
        <path id="Path_2837" data-name="Path 2837" d="M6416.438,653.913a1.406,1.406,0,0,1-1.3-.681c-.04-.073-1.28-10.243-.472-11.172h0a4.128,4.128,0,0,1,3.735-.63c.32.138.858.368.689,5.595a41.281,41.281,0,0,1-.461,5.615,2.38,2.38,0,0,1-1.982,1.263C6416.577,653.909,6416.506,653.913,6416.438,653.913Zm-1.132-11.331c-.378.905.4,9.568.586,10.327.106.172.429.2.68.175a1.671,1.671,0,0,0,1.278-.7c.255-.764.774-9.437.159-10.241A3.612,3.612,0,0,0,6415.306,642.582Z" transform="translate(-6370.349 -352.096)" fill="#212e3b"/>
        <path id="Path_2838" data-name="Path 2838" d="M6443.988,591.688a5.612,5.612,0,0,1-1.386-.234c-.145-.037-.274-.072-.387-.094-.364-.072-.974-.195-1.243-12.139l0-.09.035-.081a1.745,1.745,0,0,1,1.159-.88,4.475,4.475,0,0,1,2.953.037c.217.13.355.384.475,1.352.3,2.449.369,10.926-.395,11.69A1.645,1.645,0,0,1,6443.988,591.688Zm-1.453-1.1c.085.02.178.045.275.07.605.159,1.436.375,1.806.008.476-.834.5-10.629.018-11.785a4.128,4.128,0,0,0-2.216.071,1.3,1.3,0,0,0-.621.361C6441.911,584.272,6442.213,589.677,6442.535,590.588Z" transform="translate(-6365.563 -363.493)" fill="#212e3b"/>
        <path id="Path_2839" data-name="Path 2839" d="M6429.034,492.055a2.232,2.232,0,0,1-1.088-.214c-.236-.142-.863-.518-.2-13.685l.044-.163c.652-1.3,4.636-.219,4.675-.206,1.383.461-.354,12.93-.393,13.048a1.629,1.629,0,0,1-1.087.878A6.024,6.024,0,0,1,6429.034,492.055Zm-.589-.886a4.478,4.478,0,0,0,2.256-.228c.438-.162.574-.319.59-.366.3-.911,1.2-10.8.8-12.045-1.123-.339-3.168-.5-3.526-.209C6428.28,483.953,6428.15,490.224,6428.445,491.168Z" transform="translate(-6367.997 -381.606)" fill="#212e3b"/>
        <path id="Path_2840" data-name="Path 2840" d="M6427.162,450.146c-7.751,0-14.332-.27-14.939-.944-.31-.342-.082-.852,0-1.044,1.683-3.775,18.97-21.436,21.835-21.436,2.032,0,17.172,14.869,20.288,19.474.662.977.876,1.566.713,1.971-.128.32-.461.661-2.94,1C6448.008,449.737,6436.7,450.146,6427.162,450.146Zm-14.264-1.462c2.117.883,30.2.9,39.11-.33,1.987-.275,2.292-.522,2.322-.548.139-1.713-18-19.941-20.277-20.262-.917.017-5.093,3.316-11.318,9.608C6416.83,443.123,6413.114,447.688,6412.9,448.684Z" transform="translate(-6370.768 -390.723)" fill="#212e3b"/>
        <rect id="Rectangle_486" data-name="Rectangle 486" width="0.823" height="25.274" transform="translate(81.662 57.918)" fill="#212e3b"/>
        <path id="Path_2841" data-name="Path 2841" d="M6417.194,424.9l-.359-.741c.534-.266,30.212-10.123,33.595-11.245l.259.781C6439.389,417.449,6417.847,424.619,6417.194,424.9Z" transform="translate(-6369.909 -393.209)" fill="#212e3b"/>
        <rect id="Rectangle_487" data-name="Rectangle 487" width="10.717" height="0.822" transform="translate(62.883 36.387) rotate(-86.865)" fill="#212e3b"/>
        <rect id="Rectangle_488" data-name="Rectangle 488" width="77.911" height="0.823" transform="matrix(0.014, -1, 1, 0.014, 33.91, 77.903)" fill="#212e3b"/>
        <rect id="Rectangle_489" data-name="Rectangle 489" width="0.822" height="14.936" transform="matrix(0.715, -0.699, 0.699, 0.715, 34.574, 42.577)" fill="#212e3b"/>
        <rect id="Rectangle_490" data-name="Rectangle 490" width="24.277" height="0.823" transform="translate(46.151 83.639) rotate(-88.716)" fill="#212e3b"/>
        <rect id="Rectangle_491" data-name="Rectangle 491" width="0.823" height="83.521" transform="translate(96.724 22.663)" fill="#212e3b"/>
        <rect id="Rectangle_492" data-name="Rectangle 492" width="16.307" height="0.824" transform="translate(81.917 53.777) rotate(-22.546)" fill="#212e3b"/>
        <rect id="Rectangle_493" data-name="Rectangle 493" width="10.338" height="0.823" transform="translate(88.376 97.77) rotate(-34.447)" fill="#212e3b"/>
        <rect id="Rectangle_494" data-name="Rectangle 494" width="14.891" height="0.823" transform="translate(55.046 74.25) rotate(-88.235)" fill="#212e3b"/>
        <rect id="Rectangle_495" data-name="Rectangle 495" width="0.823" height="23.815" transform="translate(69.146 59.01)" fill="#212e3b"/>
        <path id="Path_2842" data-name="Path 2842" d="M6423.4,468.038a4.367,4.367,0,0,1-3.048-.936,4.419,4.419,0,0,1-1.168-3.446c0-2.953.1-4.18,2.645-4.929h0a4.716,4.716,0,0,1,4.2.689,4.946,4.946,0,0,1,1.937,4.012l0,.617c.025,2.735-.131,3.616-3.551,3.94Q6423.883,468.038,6423.4,468.038Zm-1.339-8.521c-1.9.561-2.054,1.139-2.054,4.14a3.678,3.678,0,0,0,.9,2.837c.67.609,1.791.828,3.437.674,2.832-.269,2.828-.648,2.8-3.113l0-.624a4.128,4.128,0,0,0-1.606-3.354,3.854,3.854,0,0,0-3.478-.559Z" transform="translate(-6369.486 -384.998)" fill="#212e3b"/>
        <rect id="Rectangle_496" data-name="Rectangle 496" width="0.823" height="15.171" transform="matrix(0.593, -0.805, 0.805, 0.593, 34.154, 72.759)" fill="#212e3b"/>
        <path id="Path_2843" data-name="Path 2843" d="M6441.606,467.858a2.989,2.989,0,0,1-1.822-.611,5.121,5.121,0,0,1-1.806-3.434c-.01-.139-.031-.284-.054-.433-.222-1.506-.1-2.912,3.786-3.584a3.433,3.433,0,0,1,2.836.617,4.415,4.415,0,0,1,1.473,3.124c.072,1.265-.306,3.5-3.627,4.232A3.6,3.6,0,0,1,6441.606,467.858Zm.881-7.309a3.8,3.8,0,0,0-.636.058h0c-3.416.59-3.269,1.592-3.113,2.653.025.17.049.336.061.494a4.354,4.354,0,0,0,1.478,2.833,2.286,2.286,0,0,0,1.938.379c2.591-.575,3.054-2.157,2.984-3.383a3.564,3.564,0,0,0-1.163-2.525A2.422,2.422,0,0,0,6442.487,460.549Z" transform="translate(-6366.124 -384.78)" fill="#212e3b"/>
        <path id="Path_2844" data-name="Path 2844" d="M6467.148,446.344l-.681-.464c.8-1.177,10.358-4.212,13.269-5.114l.244.786C6474.052,443.389,6467.632,445.685,6467.148,446.344Z" transform="translate(-6360.971 -388.194)" fill="#212e3b"/>
        <rect id="Rectangle_497" data-name="Rectangle 497" width="14.616" height="0.823" transform="translate(112.362 66.737)" fill="#212e3b"/>
        <rect id="Rectangle_498" data-name="Rectangle 498" width="0.823" height="12.466" transform="matrix(0.335, -0.942, 0.942, 0.335, 105.698, 79.399)" fill="#212e3b"/>
        <rect id="Rectangle_499" data-name="Rectangle 499" width="0.823" height="11.574" transform="translate(14.068 51.411) rotate(-67.602)" fill="#212e3b"/>
        <rect id="Rectangle_500" data-name="Rectangle 500" width="16.443" height="0.823" transform="translate(0 66.737)" fill="#212e3b"/>
        <rect id="Rectangle_501" data-name="Rectangle 501" width="12.636" height="0.823" transform="matrix(0.847, -0.532, 0.532, 0.847, 10.874, 83.3)" fill="#212e3b"/>
      </g>
    </g>
  </g>
</svg>
