<svg xmlns="http://www.w3.org/2000/svg" width="184.755" height="231.739" viewBox="0 0 184.755 231.739">
  <g id="paszport_gdańsk" data-name="paszport gdańsk" transform="matrix(0.978, -0.208, 0.208, 0.978, 0, 30.164)">
    <rect id="Rectangle_502" data-name="Rectangle 502" width="145.079" height="206.078" fill="#fff"/>
    <line id="Line_1033" data-name="Line 1033" x2="82.295" transform="translate(33.184 174.983)" fill="none" stroke="#2e3c4b" stroke-miterlimit="10" stroke-width="0.5"/>
    <path id="Path_2845" data-name="Path 2845" d="M61.8,76.782A40.8,40.8,0,0,0,76.782,61.8,40.35,40.35,0,0,0,82.3,41.148,40.354,40.354,0,0,0,76.782,20.5,40.827,40.827,0,0,0,61.8,5.513,40.354,40.354,0,0,0,41.147,0,40.353,40.353,0,0,0,20.5,5.513,40.8,40.8,0,0,0,5.513,20.5,40.331,40.331,0,0,0,0,41.148,40.327,40.327,0,0,0,5.513,61.8,40.774,40.774,0,0,0,20.5,76.782,40.336,40.336,0,0,0,41.147,82.3,40.337,40.337,0,0,0,61.8,76.782Z" transform="translate(33.184 61.773)" fill="#e9ccbd"/>
    <g id="gdansk_nowy_kolor" data-name="gdansk nowy kolor" transform="translate(67.203 70.76)">
      <path id="Path_2846" data-name="Path 2846" d="M1.194.637c.835-.928,8.148-.772,8.5.016s1.329,39.613.76,40.752-9.96.9-10.352.2S.564,1.338,1.194.637Z" transform="translate(1.844 9.411)" fill="#ba8356"/>
      <path id="Path_2847" data-name="Path 2847" d="M2.844,0c2.2,0,3.565,3.083,3.187,3.57s-6.1.654-6.03.066C.03,3.39.231,0,2.844,0Z" transform="translate(3.649 0)" fill="#ba8356"/>
      <path id="Path_2848" data-name="Path 2848" d="M12.591,6.046c-.159-.7.206-4.607-.059-5.555S1.986.128,1.561.905c-.294.537-.1,4.675,0,5.332C1.619,6.611-.263,9.474.031,9.77s14,.329,14.207-.362S12.709,6.566,12.591,6.046Z" transform="translate(0 52.03)" fill="#f2edea"/>
      <path id="Path_2849" data-name="Path 2849" d="M.064.194c.073-.322,1.511-.188,1.679,0a10.478,10.478,0,0,1,.271,3.087c-.141.174-1.886.4-1.95.117A20.357,20.357,0,0,1,.064.194Z" transform="translate(7.68 4.241)" fill="#f2edea"/>
      <path id="Path_2850" data-name="Path 2850" d="M1.992,3.339c-.073.322-1.511.188-1.679,0A10.5,10.5,0,0,1,.042.252c.141-.175,1.886-.4,1.95-.118A20.293,20.293,0,0,1,1.992,3.339Z" transform="translate(3.005 4.432)" fill="#f2edea"/>
      <path id="Path_2851" data-name="Path 2851" d="M.134.353a59.459,59.459,0,0,1,6.713-.3c.164.2.337,2.019.076,1.968C6.632,1.961.644,1.856.134,2-.167,2.082.134.353.134.353Z" transform="translate(3.005 7.767)" fill="#fff"/>
      <path id="Path_2852" data-name="Path 2852" d="M.035.208C.2-.134.95.031,1.119.107A35.214,35.214,0,0,1,1.23,4.369c0,.19-.908.189-1.111.075A29.749,29.749,0,0,1,.035.208Z" transform="translate(6.508 44.414)" fill="#d9cec4"/>
      <path id="Path_2853" data-name="Path 2853" d="M.957,3.66c-.283.151-.811.152-.9-.038A16.647,16.647,0,0,1,.144.13c.1-.157.638-.19.736,0A11.45,11.45,0,0,1,.957,3.66Z" transform="translate(6.074 27.774)" fill="#d9cec4"/>
      <path id="Path_2854" data-name="Path 2854" d="M.589,2.882c-.052.032-.447.19-.552.038A24.836,24.836,0,0,1,.084.1c0-.076.365-.189.446,0A13.661,13.661,0,0,1,.589,2.882Z" transform="translate(6.764 18.585)" fill="#d9cec4"/>
      <path id="Path_2855" data-name="Path 2855" d="M2.322,3.83S2.187,0,.967,0,.028,3.83.028,3.83A4.339,4.339,0,0,0,2.322,3.83Z" transform="translate(5.631 55.059)" fill="#2e3c4b"/>
      <path id="Path_2856" data-name="Path 2856" d="M.046.12C.232-.146,11.223.071,11.386.367s-.515,1.069-.765,1.234a88.466,88.466,0,0,1-9.81-.2C.628,1.206-.2.477.046.12Z" transform="translate(1.059 15.412)" fill="#2e3c4b"/>
    </g>
    <path id="Path_2860" data-name="Path 2860" d="M12.953,7.057a3.133,3.133,0,0,1-.412.26,2.9,2.9,0,0,1-1.388.349,2.869,2.869,0,0,1-.878-.134,2.81,2.81,0,0,1-1.012-.537,3,3,0,0,1-.743-.913,2.793,2.793,0,0,1-.34-1.37A2.708,2.708,0,0,1,8.2,4.352a3.044,3.044,0,0,1,.255-.936,2.836,2.836,0,0,1,.524-.784,3.085,3.085,0,0,1,.739-.573,2.924,2.924,0,0,1,.891-.322,2.825,2.825,0,0,1,.555-.054,2.854,2.854,0,0,1,1.415.376,3.632,3.632,0,0,1,.9.761l-.618.519a2.684,2.684,0,0,0-.922-.69,2.29,2.29,0,0,0-.815-.152A2.107,2.107,0,0,0,9.21,3.716a2.047,2.047,0,0,0-.233.958,2.108,2.108,0,0,0,.081.573A2.021,2.021,0,0,0,9.828,6.4a2.164,2.164,0,0,0,1.316.448,2.1,2.1,0,0,0,.891-.193,2.329,2.329,0,0,0,.739-.542v-.6h-.824V4.71h1.621v1.7A2.777,2.777,0,0,1,12.953,7.057Zm1.513.573V1.666h1.54a2.877,2.877,0,0,1,1.137.228,2.977,2.977,0,0,1,.949.64,3.147,3.147,0,0,1,.631.963,3.014,3.014,0,0,1,0,2.3,3.037,3.037,0,0,1-.631.954,2.908,2.908,0,0,1-.949.649,2.877,2.877,0,0,1-1.137.228Zm.806-5.158V6.824h.734a2.089,2.089,0,0,0,.828-.17,2.183,2.183,0,0,0,.694-.466,2.227,2.227,0,0,0,.461-.7,2.2,2.2,0,0,0,0-1.675,2.227,2.227,0,0,0-.461-.7,2.183,2.183,0,0,0-.694-.466,2.089,2.089,0,0,0-.828-.17ZM23.852,7.63l-.734-2.1H21.255l-.734,2.1H19.67l2.069-5.946h.9L24.7,7.63ZM22.186,2.839l-.681,1.943h1.352ZM28.992,7.63,26.305,3.26V7.63h-.8V1.675h.779l2.776,4.5v-4.5h.788V7.63ZM27.917,1.236h-.6L27.649,0h.7ZM33.926,3.51a1.38,1.38,0,0,0-.188-.573.979.979,0,0,0-.4-.354,1.419,1.419,0,0,0-.6-.112,1.132,1.132,0,0,0-.851.26.909.909,0,0,0-.233.672.987.987,0,0,0,.072.407.615.615,0,0,0,.215.255,1.5,1.5,0,0,0,.707.2,4.944,4.944,0,0,1,.846.139,2.275,2.275,0,0,1,.6.255,1.414,1.414,0,0,1,.654,1.29,1.58,1.58,0,0,1-.134.645,1.743,1.743,0,0,1-1.052.958,2.469,2.469,0,0,1-.81.134,2.1,2.1,0,0,1-1.513-.537,2.126,2.126,0,0,1-.582-1.29l.018-.009h.788a1.171,1.171,0,0,0,.322.707,1.332,1.332,0,0,0,.94.322,1.414,1.414,0,0,0,.9-.26.815.815,0,0,0,.331-.672.978.978,0,0,0-.049-.327.553.553,0,0,0-.184-.246,2.268,2.268,0,0,0-1.137-.3,2.056,2.056,0,0,1-1.29-.493A1.561,1.561,0,0,1,30.855,3.4a1.683,1.683,0,0,1,.475-1.245,2.171,2.171,0,0,1,2.848.063,2.244,2.244,0,0,1,.555,1.29ZM38.269,7.63,36.344,5.436V7.63h-.788V1.684h.788V3.949l1.89-2.266h1.039L36.756,4.7,39.335,7.63ZM3.484,18.29.8,13.92v4.37H0V12.335H.779l2.776,4.5v-4.5h.788V18.29Zm4.648.045a2.932,2.932,0,0,1-1.151-.228,2.9,2.9,0,0,1-.954-.649,3,3,0,0,1-.645-.963,3.009,3.009,0,0,1,0-2.31,3.037,3.037,0,0,1,1.6-1.607,2.883,2.883,0,0,1,1.151-.233,2.916,2.916,0,0,1,1.155.233,3.009,3.009,0,0,1,1.6,1.6,2.916,2.916,0,0,1,.233,1.155,2.948,2.948,0,0,1-.233,1.16,3,3,0,0,1-1.6,1.607A2.916,2.916,0,0,1,8.131,18.335Zm0-5.176a2.17,2.17,0,0,0-2.176,2.176,2.2,2.2,0,0,0,.17.855,2.168,2.168,0,0,0,4.012,0,2.2,2.2,0,0,0,.17-.855,2.171,2.171,0,0,0-2.176-2.176Zm8.7,5.131h-.8l-.922-2.534-.887,2.534h-.806l-2.158-5.964h.869l1.684,4.666.86-2.445-.806-2.221h.869l.788,2.185.9,2.481,1.63-4.666h.869ZM21.985,16.1V18.29h-.8V16.114L19.37,12.335h.887l1.325,2.758,1.325-2.758h.887Zm7.388.125V18.29h-.788V12.335h1.675a1.844,1.844,0,0,1,.725.148,1.929,1.929,0,0,1,.618.416,2.02,2.02,0,0,1,.416.631,1.941,1.941,0,0,1-.416,2.118,1.992,1.992,0,0,1-.618.421,1.8,1.8,0,0,1-.725.152Zm0-3.072v2.275h.887a1.044,1.044,0,0,0,.788-.34,1.135,1.135,0,0,0,0-1.6,1.076,1.076,0,0,0-.788-.331Zm6.492,5.185a2.932,2.932,0,0,1-1.151-.228,2.9,2.9,0,0,1-.954-.649,3,3,0,0,1-.645-.963,3.009,3.009,0,0,1,0-2.31,3.037,3.037,0,0,1,1.6-1.607,2.883,2.883,0,0,1,1.151-.233,2.916,2.916,0,0,1,1.155.233,3.009,3.009,0,0,1,1.6,1.6,2.916,2.916,0,0,1,.233,1.155,2.948,2.948,0,0,1-.233,1.16,3,3,0,0,1-1.6,1.607A2.916,2.916,0,0,1,35.865,18.335Zm0-5.176a2.171,2.171,0,0,0-2.176,2.176,2.2,2.2,0,0,0,.17.855,2.168,2.168,0,0,0,4.012,0,2.2,2.2,0,0,0,.17-.855,2.171,2.171,0,0,0-2.176-2.176Zm7.352,5.131H42.16l-1.71-2.033V18.29h-.788V12.344h1.531a1.845,1.845,0,0,1,1.343.564,2.034,2.034,0,0,1,.4.631A2.04,2.04,0,0,1,42.957,15a1.867,1.867,0,0,1-.358.591,1.953,1.953,0,0,1-.546.425,1.789,1.789,0,0,1-.654.2ZM40.45,13.15v2.275h.743a1.067,1.067,0,0,0,.43-.09,1.149,1.149,0,0,0,.358-.242,1.194,1.194,0,0,0,.237-.367,1.138,1.138,0,0,0,.085-.439,1.112,1.112,0,0,0-.681-1.048,1.067,1.067,0,0,0-.43-.09Zm5.713-.054V18.29h-.788V13.1H43.933v-.761h3.672V13.1Z" transform="translate(49.289 15.225)" fill="#2e3c4b"/>
    <path id="Path_2859" data-name="Path 2859" d="M0,4.26V0H1.1a2.055,2.055,0,0,1,.812.163A2.126,2.126,0,0,1,2.591.62a2.248,2.248,0,0,1,.451.688A2.094,2.094,0,0,1,3.2,2.13a2.094,2.094,0,0,1-.163.822,2.17,2.17,0,0,1-.451.681,2.077,2.077,0,0,1-.678.464A2.055,2.055,0,0,1,1.1,4.26ZM.576.576V3.684H1.1a1.492,1.492,0,0,0,.592-.122,1.559,1.559,0,0,0,.5-.333,1.591,1.591,0,0,0,.329-.5,1.571,1.571,0,0,0,0-1.2,1.591,1.591,0,0,0-.329-.5A1.559,1.559,0,0,0,1.692.7,1.492,1.492,0,0,0,1.1.576ZM6.7,4.26l-.525-1.5H4.849l-.525,1.5H3.716L5.194.013h.64L7.311,4.26ZM5.514.838,5.028,2.226h.966ZM8.968.55V4.26H8.4V.55H7.375V.006H10V.55Zm3.889,3.71-.525-1.5H11l-.525,1.5H9.87L11.347.013h.64L13.465,4.26ZM11.667.838l-.486,1.388h.966Z" transform="translate(66.893 181.638)" fill="#2e3c4b"/>
  </g>
</svg>
