<?xml version="1.0" encoding="UTF-8"?>
<svg xmlns="http://www.w3.org/2000/svg" xmlns:xlink="http://www.w3.org/1999/xlink" version="1.2" >
<font id="Clarika Pro Geometric Hairline Italic">
<font-face  font-family="Clarika Pro Geometric" units-per-em="980" ascent="970" descent="-250" font-style="italic" font-weight="100" font-stretch="normal" slope="-11" cap-height="640" x-height="427" underline-position="-75" underline-thickness="50" />
<missing-glyph  horiz-adv-x="695" d="M671 640 L189 640 L65 0 L547 0 L671 640 Z M566 588 L377 364 L275 588 L566 588 Z M231 564 L342 322 L138 80 L231 564 Z M506 82 L397 322 L599 562 L506 82 Z M361 280 L465 52 L169 52 L361 280 Z " />
<glyph glyph-name="NULL" horiz-adv-x="605" d="" />
<glyph glyph-name="CR" unicode="&#xd;" horiz-adv-x="605" d="" />
<glyph glyph-name="space" unicode="&#x20;" horiz-adv-x="266" d="" />
<glyph glyph-name="exclam" unicode="&#x21;" horiz-adv-x="240" d="M207 640 L195 640 L102 151 L111 151 L207 640 Z M78 -1 C89 -1 99 7 101 18 C103 29 96 38 86 38 C75 38 65 29 62 18 C60 7 67 -1 78 -1 L78 -1 Z " />
<glyph glyph-name="quotedbl" unicode="&#x22;" horiz-adv-x="164" d="M95 472 L102 472 C131 624 134 616 138 639 C140 646 137 649 132 649 C129 649 125 645 123 640 C119 616 123 623 95 472 L95 472 Z M163 472 L170 472 C199 624 202 616 206 639 C208 646 204 649 199 649 C197 649 193 645 191 640 C187 616 190 623 163 472 L163 472 Z " />
<glyph glyph-name="numbersign" unicode="&#x23;" horiz-adv-x="541" d="M544 418 L545 427 L432 427 L532 643 L523 643 L423 427 L263 427 L363 643 L353 643 L253 427 L134 427 L132 418 L249 418 L160 225 L40 225 L39 216 L156 216 L56 0 L66 0 L166 216 L325 216 L225 0 L234 0 L334 216 L450 216 L452 225 L338 225 L428 418 L544 418 Z M329 225 L170 225 L259 418 L419 418 L329 225 Z " />
<glyph glyph-name="dollar" unicode="&#x24;" horiz-adv-x="550" d="M361 649 L379 740 L371 740 L353 649 C278 647 198 601 179 502 C163 413 227 370 292 332 L228 3 C145 6 100 39 79 80 L69 74 C84 40 131 -3 226 -6 L208 -99 L216 -99 L234 -6 L237 -6 C341 -6 423 53 440 141 C459 236 400 282 321 328 C315 332 308 336 301 340 L360 640 C428 639 470 608 492 579 L502 586 C483 617 433 648 361 649 L361 649 Z M189 501 C204 585 273 638 352 640 L294 344 C234 379 173 419 189 501 L189 501 Z M311 321 C394 272 447 229 430 142 C415 62 338 3 239 3 L236 3 L299 328 L311 321 Z " />
<glyph glyph-name="percent" unicode="&#x25;" horiz-adv-x="724" d="M230 405 C300 405 358 462 370 525 C383 589 347 646 277 646 C207 646 149 590 136 525 C125 461 161 405 230 405 L230 405 Z M169 0 L179 0 L588 640 L578 640 L169 0 Z M232 414 C169 414 137 464 149 525 C160 583 211 636 276 636 C340 636 370 583 359 525 C347 466 297 414 232 414 L232 414 Z M489 -12 C558 -12 617 44 628 107 C641 172 605 228 535 228 C465 228 407 172 395 108 C383 44 419 -12 489 -12 L489 -12 Z M490 -3 C428 -3 395 46 407 107 C418 166 469 219 534 219 C598 219 628 166 617 108 C606 48 555 -3 490 -3 L490 -3 Z " />
<glyph glyph-name="ampersand" unicode="&#x26;" horiz-adv-x="596" d="M552 265 L544 268 C508 212 468 159 424 115 L246 374 C213 424 189 465 199 519 C211 586 270 640 337 641 C382 641 415 614 428 580 L439 585 C425 620 391 649 340 649 C264 649 202 591 189 519 C177 459 210 408 240 364 C112 300 51 221 36 148 C20 65 75 -11 192 -11 C279 -11 355 35 421 100 L496 -10 L506 -3 L429 108 C476 155 517 211 552 265 L552 265 Z M192 -1 C85 -1 33 72 47 147 C63 223 130 303 244 357 L416 107 C349 41 273 -2 192 -1 L192 -1 Z " />
<glyph glyph-name="quotesingle" unicode="&#x27;" horiz-adv-x="96" d="M95 472 L102 472 C131 624 134 616 138 639 C140 646 137 649 132 649 C129 649 125 645 123 640 C119 616 123 623 95 472 L95 472 Z " />
<glyph glyph-name="parenleft" unicode="&#x28;" horiz-adv-x="293" d="M186 -132 L191 -127 C134 -66 72 90 112 299 C154 511 276 667 355 727 L352 732 C270 673 145 514 103 301 C62 87 126 -73 186 -132 L186 -132 Z " />
<glyph glyph-name="parenright" unicode="&#x29;" horiz-adv-x="299" d="M-28 -132 C56 -73 184 87 230 301 C274 514 214 673 155 732 L150 727 C205 667 264 511 220 299 C176 90 50 -66 -31 -127 L-28 -132 Z " />
<glyph glyph-name="asterisk" unicode="&#x2a;" horiz-adv-x="304" d="M333 572 L332 579 L218 544 L239 655 L231 655 L211 545 L114 578 L110 571 L208 537 L123 446 L128 441 L212 533 L261 442 L268 446 L219 537 L333 572 Z " />
<glyph glyph-name="plus" unicode="&#x2b;" horiz-adv-x="483" d="M433 259 L254 259 L289 438 L280 438 L245 259 L66 259 L65 250 L244 250 L209 71 L218 71 L253 250 L431 250 L433 259 Z " />
<glyph glyph-name="comma" unicode="&#x2c;" horiz-adv-x="240" d="M33 -94 C70 -77 94 -43 105 -14 C115 14 110 38 90 38 C76 38 68 29 66 16 C64 1 81 -6 99 3 C98 -10 83 -61 31 -87 L33 -94 Z " />
<glyph glyph-name="hyphen" unicode="&#x2d;" horiz-adv-x="337" d="M65 250 L285 250 L287 259 L67 259 L65 250 Z " />
<glyph glyph-name="period" unicode="&#x2e;" horiz-adv-x="240" d="M78 -1 C89 -1 99 7 101 18 C103 29 96 38 86 38 C75 38 65 29 62 18 C60 7 67 -1 78 -1 L78 -1 Z " />
<glyph glyph-name="slash" unicode="&#x2f;" horiz-adv-x="465" d="M-17 -121 L-8 -121 L510 696 L501 696 L-17 -121 Z " />
<glyph glyph-name="zero" unicode="0" horiz-adv-x="534" d="M225 -6 C357 -6 469 127 505 320 C543 514 483 649 350 649 C219 649 107 514 69 322 C32 126 92 -6 225 -6 L225 -6 Z M226 3 C94 2 46 141 80 320 C114 499 218 640 349 640 C481 640 530 500 495 322 C460 142 358 4 226 3 L226 3 Z " />
<glyph glyph-name="one" unicode="1" horiz-adv-x="534" d="M431 640 L202 503 L206 494 L429 629 L307 0 L317 0 L440 640 L431 640 Z " />
<glyph glyph-name="two" unicode="2" horiz-adv-x="534" d="M491 479 C510 576 455 648 347 648 C259 649 200 600 174 574 L181 567 C211 597 268 640 346 639 C441 638 499 575 481 480 C465 398 402 333 334 274 L33 9 L32 0 L421 0 L422 9 L48 9 L348 273 C405 324 475 394 491 479 L491 479 Z " />
<glyph glyph-name="three" unicode="3" horiz-adv-x="534" d="M522 640 L176 640 L175 631 L507 631 L216 347 L220 341 C249 348 303 353 347 341 C406 325 464 276 445 176 C429 86 343 3 220 3 C146 3 90 25 44 83 L35 76 C83 14 152 -6 214 -6 C353 -7 438 82 455 177 C478 292 400 377 233 353 L521 632 L522 640 Z " />
<glyph glyph-name="four" unicode="4" horiz-adv-x="534" d="M476 179 L402 179 L445 401 L435 401 L392 179 L57 179 L435 640 L423 640 L43 177 L42 170 L390 170 L357 0 L367 0 L400 170 L475 170 L476 179 Z " />
<glyph glyph-name="five" unicode="5" horiz-adv-x="534" d="M509 631 L510 640 L240 640 L129 333 L137 328 C164 348 217 376 289 375 C394 374 469 304 444 185 C422 82 329 3 204 3 C107 3 54 57 36 87 L28 79 C44 52 98 -6 203 -6 C337 -6 431 79 454 182 C482 312 397 386 286 385 C210 384 161 356 142 343 L247 631 L509 631 Z " />
<glyph glyph-name="six" unicode="6" horiz-adv-x="534" d="M228 -7 C342 -7 445 81 466 189 C490 310 407 390 304 390 C240 390 185 366 143 327 L409 640 L398 640 C128 319 82 288 63 191 C43 80 107 -7 228 -7 L228 -7 Z M229 2 C115 2 54 86 74 190 C92 281 178 380 303 380 C409 380 476 296 457 192 C436 87 337 2 229 2 L229 2 Z " />
<glyph glyph-name="seven" unicode="7" horiz-adv-x="534" d="M125 0 L136 0 L537 632 L539 640 L159 640 L158 631 L527 631 L530 634 L125 0 Z " />
<glyph glyph-name="eight" unicode="8" horiz-adv-x="534" d="M495 493 C510 572 458 649 351 649 C243 649 162 572 147 494 C131 414 177 360 245 342 C143 322 68 252 52 169 C36 87 84 -6 225 -6 C366 -6 449 86 464 169 C480 252 432 322 338 342 C411 360 479 413 495 493 L495 493 Z M292 346 C197 346 142 411 157 493 C173 574 255 640 349 640 C444 640 499 574 484 494 C469 412 386 346 292 346 L292 346 Z M454 170 C436 79 345 3 226 3 C107 3 45 78 62 169 C80 257 174 336 291 336 C410 336 471 257 454 170 L454 170 Z " />
<glyph glyph-name="nine" unicode="9" horiz-adv-x="534" d="M348 647 C234 647 130 559 109 451 C86 330 168 250 271 250 C336 250 390 274 433 313 L166 0 L178 0 C447 321 494 352 512 449 C532 560 469 647 348 647 L348 647 Z M346 638 C461 638 521 554 502 450 C483 359 398 260 272 260 C167 260 99 344 119 448 C140 553 239 638 346 638 L346 638 Z " />
<glyph glyph-name="colon" unicode="&#x3a;" horiz-adv-x="240" d="M157 400 C168 400 178 409 180 419 C182 430 176 439 165 439 C154 439 144 430 142 419 C140 409 147 400 157 400 L157 400 Z M78 -1 C89 -1 99 7 101 18 C103 29 96 38 86 38 C75 38 65 29 62 18 C60 7 67 -1 78 -1 L78 -1 Z " />
<glyph glyph-name="semicolon" unicode="&#x3b;" horiz-adv-x="267" d="M184 400 C195 400 205 409 207 419 C210 430 203 439 192 439 C181 439 171 430 169 419 C167 409 174 400 184 400 L184 400 Z M44 -94 C82 -77 105 -43 116 -15 C126 14 121 38 101 38 C87 38 79 29 77 16 C75 1 92 -6 110 3 C109 -10 94 -62 42 -87 L44 -94 Z " />
<glyph glyph-name="less" unicode="&#x3c;" horiz-adv-x="492" d="M481 461 L73 288 L71 279 L412 107 L414 117 L84 283 L479 450 L481 461 Z " />
<glyph glyph-name="equal" unicode="&#x3d;" horiz-adv-x="483" d="M78 319 L445 319 L447 328 L80 328 L78 319 Z M52 183 L418 183 L420 193 L54 193 L52 183 Z " />
<glyph glyph-name="greater" unicode="&#x3e;" horiz-adv-x="491" d="M105 461 L104 450 L433 283 L39 117 L37 107 L445 279 L447 288 L105 461 Z " />
<glyph glyph-name="question" unicode="&#x3f;" horiz-adv-x="464" d="M199 145 L209 145 L240 303 C341 302 446 360 467 484 C484 584 416 649 313 649 C236 649 179 613 132 563 L140 557 C168 592 225 640 312 640 C404 640 474 583 456 483 C437 380 344 307 231 312 L199 145 Z M177 -1 C188 -1 198 7 200 18 C202 29 195 38 185 38 C174 38 164 29 162 18 C159 7 166 -1 177 -1 L177 -1 Z " />
<glyph glyph-name="at" unicode="&#x40;" horiz-adv-x="778" d="M472 594 C288 594 107 436 72 249 C38 69 130 -57 315 -57 C388 -57 443 -40 502 -5 L499 4 C446 -28 396 -46 319 -46 C141 -46 49 71 84 249 C117 429 295 583 471 583 C647 583 750 473 715 289 C699 206 633 86 545 90 C517 92 487 120 531 239 L609 427 L600 427 L549 310 L544 297 C562 391 526 440 446 440 C346 440 250 349 222 251 C191 142 234 76 318 76 C389 76 460 130 502 193 C481 119 503 81 545 81 C638 81 709 198 727 291 C762 475 660 594 472 594 L472 594 Z M323 84 C244 84 205 148 234 250 C262 344 352 432 445 432 C530 432 560 375 525 261 C500 174 404 84 323 84 L323 84 Z " />
<glyph glyph-name="A" unicode="A" horiz-adv-x="599" d="M509 0 L520 0 L386 640 L376 640 L-4 0 L8 0 L148 236 L460 236 L509 0 Z M153 245 L379 628 L458 245 L153 245 Z " />
<glyph glyph-name="B" unicode="B" horiz-adv-x="528" d="M305 359 C374 364 436 428 448 493 C466 584 415 640 301 640 L189 640 L66 0 L172 0 C342 0 431 73 451 179 C469 273 409 352 305 359 L305 359 Z M197 630 L303 630 C408 630 456 581 439 495 C424 415 349 362 279 362 L145 362 L197 630 Z M441 180 C421 76 336 10 179 10 L78 10 L143 352 L278 352 C387 352 461 282 441 180 L441 180 Z " />
<glyph glyph-name="C" unicode="C" horiz-adv-x="621" d="M344 -10 C412 -10 477 7 531 36 L526 46 C477 17 415 -1 346 -1 C164 -1 65 146 98 319 C132 492 289 640 470 640 C539 640 594 622 632 595 L640 603 C597 632 539 649 470 649 C288 649 123 503 87 321 C52 136 161 -10 344 -10 L344 -10 Z " />
<glyph glyph-name="D" unicode="D" horiz-adv-x="637" d="M304 640 L189 640 L66 0 L182 0 C415 0 558 142 592 319 C626 498 539 640 304 640 L304 640 Z M581 321 C538 102 360 9 188 9 L78 9 L197 631 L308 631 C479 631 623 539 581 321 L581 321 Z " />
<glyph glyph-name="E" unicode="E" horiz-adv-x="509" d="M512 630 L515 640 L189 640 L66 0 L392 0 L393 10 L78 10 L137 316 L402 316 L404 325 L138 325 L197 630 L512 630 Z " />
<glyph glyph-name="F" unicode="F" horiz-adv-x="481" d="M510 630 L512 640 L189 640 L66 0 L76 0 L137 316 L400 316 L401 326 L139 326 L197 630 L510 630 Z " />
<glyph glyph-name="G" unicode="G" horiz-adv-x="734" d="M460 321 L458 310 L681 310 C649 131 521 3 345 3 C155 3 64 146 98 322 C132 499 281 640 474 640 C573 640 631 603 649 586 L658 596 C631 619 563 649 474 649 C280 649 122 506 87 323 C52 140 149 -6 344 -6 C542 -6 659 147 692 305 L695 321 L460 321 Z " />
<glyph glyph-name="H" unicode="H" horiz-adv-x="688" d="M653 640 L596 341 L142 341 L199 640 L189 640 L66 0 L76 0 L140 332 L594 332 L530 0 L540 0 L663 640 L653 640 Z " />
<glyph glyph-name="I" unicode="I" horiz-adv-x="242" d="M209 640 L199 640 L74 0 L84 0 L209 640 Z " />
<glyph glyph-name="J" unicode="J" horiz-adv-x="367" d="M116 -6 C192 -6 244 46 262 136 L359 640 L349 640 L251 129 C236 52 187 3 118 3 C69 3 49 20 33 51 L23 45 C39 15 64 -6 116 -6 L116 -6 Z " />
<glyph glyph-name="K" unicode="K" horiz-adv-x="559" d="M199 640 L189 640 L66 0 L76 0 L199 640 Z M152 340 L445 0 L462 0 L167 340 L577 640 L561 640 L152 340 Z " />
<glyph glyph-name="L" unicode="L" horiz-adv-x="466" d="M78 10 L199 640 L189 640 L66 0 L369 0 L370 10 L78 10 Z " />
<glyph glyph-name="M" unicode="M" horiz-adv-x="819" d="M786 640 L418 256 L197 640 L189 640 L66 0 L77 0 L196 620 L414 239 L780 621 L661 0 L671 0 L794 640 L786 640 Z " />
<glyph glyph-name="N" unicode="N" horiz-adv-x="742" d="M707 640 L586 18 L199 640 L189 640 L66 0 L77 0 L196 623 L583 0 L594 0 L717 640 L707 640 Z " />
<glyph glyph-name="O" unicode="O" horiz-adv-x="791" d="M353 -6 C542 -6 711 139 746 320 C782 504 668 649 478 649 C291 649 122 505 87 322 C51 140 164 -6 353 -6 L353 -6 Z M354 3 C169 3 64 146 97 320 C132 497 293 640 479 640 C663 640 770 499 736 322 C702 147 539 3 354 3 L354 3 Z " />
<glyph glyph-name="P" unicode="P" horiz-adv-x="479" d="M318 640 L189 640 L66 0 L76 0 L134 304 L255 304 C347 304 452 355 475 471 C498 590 411 640 318 640 L318 640 Z M464 472 C445 369 354 314 253 314 L136 314 L197 631 L315 631 C416 631 484 575 464 472 L464 472 Z " />
<glyph glyph-name="Q" unicode="Q" horiz-adv-x="791" d="M478 649 C291 649 122 505 87 322 C52 145 158 2 338 -6 L624 -118 L630 -109 L359 -6 C546 -3 711 141 746 320 C782 504 668 649 478 649 L478 649 Z M736 322 C702 147 539 3 354 3 C169 3 64 146 97 320 C132 497 293 640 479 640 C663 640 770 499 736 322 L736 322 Z " />
<glyph glyph-name="R" unicode="R" horiz-adv-x="499" d="M324 640 L189 640 L66 0 L76 0 L139 326 L209 326 L402 0 L415 0 L222 326 L264 326 C357 326 457 372 478 480 C499 590 417 640 324 640 L324 640 Z M468 482 C448 379 357 335 259 335 L140 335 L197 631 L319 631 C417 631 486 581 468 482 L468 482 Z " />
<glyph glyph-name="S" unicode="S" horiz-adv-x="490" d="M197 -6 C301 -6 383 53 400 141 C419 236 360 282 281 328 C215 368 130 407 149 501 C165 587 237 640 316 640 C387 640 430 609 452 579 L462 586 C443 617 391 649 318 649 C241 649 158 603 139 502 C121 404 201 362 271 321 C354 272 407 229 390 142 C375 62 298 3 199 3 C110 3 61 37 39 80 L29 74 C45 39 94 -6 197 -6 L197 -6 Z " />
<glyph glyph-name="T" unicode="T" horiz-adv-x="516" d="M536 640 L147 640 L145 630 L334 630 L213 0 L223 0 L344 630 L534 630 L536 640 Z " />
<glyph glyph-name="U" unicode="U" horiz-adv-x="599" d="M258 -6 C407 -6 486 92 512 231 L591 640 L581 640 L503 233 C478 104 404 3 259 3 C113 3 80 104 105 234 L183 640 L173 640 L95 231 C68 92 109 -6 258 -6 L258 -6 Z " />
<glyph glyph-name="V" unicode="V" horiz-adv-x="579" d="M613 640 L252 17 L133 640 L121 640 L246 0 L253 0 L625 640 L613 640 Z " />
<glyph glyph-name="W" unicode="W" horiz-adv-x="968" d="M990 640 L652 18 L572 640 L564 640 L243 18 L145 640 L133 640 L236 0 L243 0 L564 622 L646 0 L653 0 L1002 640 L990 640 Z " />
<glyph glyph-name="X" unicode="X" horiz-adv-x="586" d="M600 640 L587 640 L316 333 L162 640 L149 640 L308 325 L14 0 L28 0 L313 316 L475 0 L488 0 L320 325 L600 640 Z " />
<glyph glyph-name="Y" unicode="Y" horiz-adv-x="517" d="M563 640 L550 640 L281 325 L134 640 L121 640 L275 316 L214 0 L224 0 L285 315 L563 640 Z " />
<glyph glyph-name="Z" unicode="Z" horiz-adv-x="571" d="M573 640 L162 640 L160 631 L556 631 L25 8 L24 0 L464 0 L466 9 L39 9 L571 632 L573 640 Z " />
<glyph glyph-name="bracketleft" unicode="&#x5b;" horiz-adv-x="283" d="M329 726 L207 726 L40 -126 L163 -126 L165 -118 L52 -118 L214 718 L328 718 L329 726 Z " />
<glyph glyph-name="backslash" unicode="&#x5c;" horiz-adv-x="464" d="M351 -121 L151 696 L142 696 L342 -121 L351 -121 Z " />
<glyph glyph-name="bracketright" unicode="&#x5d;" horiz-adv-x="283" d="M152 726 L151 718 L264 718 L102 -118 L-11 -118 L-12 -126 L110 -126 L275 726 L152 726 Z " />
<glyph glyph-name="asciicircum" unicode="&#x5e;" horiz-adv-x="471" d="M427 326 L323 643 L316 643 L88 326 L100 326 L317 630 L417 326 L427 326 Z " />
<glyph glyph-name="underscore" unicode="&#x5f;" horiz-adv-x="426" d="M-58 -85 L368 -85 L369 -78 L-57 -78 L-58 -85 Z " />
<glyph glyph-name="grave" unicode="&#x60;" horiz-adv-x="220" d="M213 527 C224 514 227 510 234 510 L238 510 L135 650 L124 647 L213 527 Z " />
<glyph glyph-name="a" unicode="a" horiz-adv-x="533" d="M496 438 L465 285 L464 280 C460 371 399 438 302 438 C186 438 76 345 49 215 C22 87 92 -7 208 -7 C310 -7 403 68 444 169 L439 149 L411 0 L419 0 L505 438 L496 438 Z M211 2 C100 2 33 94 60 217 C85 337 189 429 299 429 C409 429 476 337 450 215 C424 93 320 2 211 2 L211 2 Z " />
<glyph glyph-name="b" unicode="b" horiz-adv-x="531" d="M320 438 C225 438 139 374 97 286 L173 680 L163 680 L31 0 L39 0 L70 152 C76 59 137 -7 234 -7 C350 -7 458 87 482 215 C508 345 436 438 320 438 L320 438 Z M472 217 C449 94 346 2 235 2 C126 2 58 93 82 215 C106 337 209 429 319 429 C429 429 496 337 472 217 L472 217 Z " />
<glyph glyph-name="c" unicode="c" horiz-adv-x="423" d="M218 -6 C269 -6 320 12 361 41 L355 48 C318 20 269 3 219 3 C95 3 37 97 59 216 C82 336 178 430 302 430 C352 430 393 413 420 384 L427 392 C398 421 356 439 303 439 C174 439 73 338 50 218 C26 93 87 -6 218 -6 L218 -6 Z " />
<glyph glyph-name="d" unicode="d" horiz-adv-x="534" d="M543 680 L463 286 C455 374 395 438 300 438 C184 438 75 345 49 215 C23 87 94 -7 210 -7 C307 -7 394 59 437 152 L407 0 L416 0 L552 680 L543 680 Z M213 2 C102 2 35 94 60 217 C84 337 187 429 297 429 C407 429 475 337 450 215 C426 93 322 2 213 2 L213 2 Z " />
<glyph glyph-name="e" unicode="e" horiz-adv-x="463" d="M306 438 C181 438 76 345 51 225 C27 96 84 -6 212 -6 C282 -6 341 23 385 61 L378 69 C338 33 283 4 213 4 C91 4 40 99 61 225 C62 228 62 232 63 235 L187 235 C303 235 419 255 427 338 C431 386 386 438 306 438 L306 438 Z M417 337 C409 282 347 246 193 246 L66 246 C96 347 192 428 306 428 C380 428 422 381 417 337 L417 337 Z " />
<glyph glyph-name="f" unicode="f" horiz-adv-x="268" d="M292 689 C247 689 194 658 180 584 L150 427 L91 427 L89 419 L148 419 L27 -210 L35 -210 L158 419 L272 419 L273 427 L159 427 L190 584 C203 653 253 680 288 680 C316 680 335 670 348 659 L356 668 C340 679 318 689 292 689 L292 689 Z " />
<glyph glyph-name="g" unicode="g" horiz-adv-x="534" d="M492 427 L464 283 C458 373 397 438 302 438 C186 438 76 345 49 215 C22 87 92 -7 208 -7 C307 -7 397 63 440 158 L412 10 C385 -124 319 -201 184 -201 C159 -201 143 -199 125 -194 L121 -203 C140 -207 159 -210 183 -210 C320 -210 392 -138 423 20 L500 427 L492 427 Z M211 2 C100 2 33 94 60 216 C85 337 189 429 299 429 C409 429 476 337 450 215 C424 93 320 2 211 2 L211 2 Z " />
<glyph glyph-name="h" unicode="h" horiz-adv-x="469" d="M281 439 C203 439 138 386 102 313 L173 680 L163 680 L31 0 L41 0 L94 272 C125 366 195 430 281 430 C362 430 422 381 395 246 L349 0 L358 0 L406 247 C435 401 355 439 281 439 L281 439 Z " />
<glyph glyph-name="i" unicode="i" horiz-adv-x="185" d="M159 548 C169 548 180 556 182 567 C184 578 177 587 166 587 C155 587 145 578 143 567 C141 556 148 548 159 548 L159 548 Z M46 0 L56 0 L139 427 L130 427 L46 0 Z " />
<glyph glyph-name="j" unicode="j" horiz-adv-x="210" d="M182 548 C192 548 203 556 205 567 C207 578 200 587 189 587 C178 587 168 578 166 567 C164 556 171 548 182 548 L182 548 Z M63 -96 L163 427 L154 427 L54 -95 C39 -172 -6 -207 -81 -199 L-82 -209 C-12 -217 45 -188 63 -96 L63 -96 Z " />
<glyph glyph-name="k" unicode="k" horiz-adv-x="393" d="M32 0 L42 0 L173 680 L163 680 L32 0 Z M322 0 L338 0 L113 235 L393 427 L377 427 L97 235 L322 0 Z " />
<glyph glyph-name="l" unicode="l" horiz-adv-x="163" d="M35 0 L45 0 L177 680 L167 680 L35 0 Z " />
<glyph glyph-name="m" unicode="m" horiz-adv-x="732" d="M558 439 C487 439 422 392 386 297 C392 408 318 439 267 439 C206 439 135 394 100 303 L101 306 L123 427 L115 427 L33 0 L43 0 L93 266 C123 365 191 430 264 430 C348 430 391 362 373 267 L322 0 L331 0 L376 234 C404 359 471 430 554 430 C650 430 682 363 661 257 L612 0 L622 0 L671 255 C699 401 628 439 558 439 L558 439 Z " />
<glyph glyph-name="n" unicode="n" horiz-adv-x="471" d="M283 439 C203 439 136 383 101 307 L123 427 L115 427 L33 0 L43 0 L89 244 C113 353 189 430 283 430 C364 430 424 381 398 246 L351 0 L361 0 L408 247 C437 401 357 439 283 439 L283 439 Z " />
<glyph glyph-name="o" unicode="o" horiz-adv-x="540" d="M229 -6 C353 -6 467 91 491 215 C516 341 438 438 313 438 C187 438 75 341 50 217 C26 91 102 -6 229 -6 L229 -6 Z M230 3 C109 3 38 98 60 215 C83 334 192 429 313 429 C433 429 505 334 481 217 C458 98 350 3 230 3 L230 3 Z " />
<glyph glyph-name="p" unicode="p" horiz-adv-x="531" d="M320 438 C225 438 138 373 96 284 L123 427 L115 427 L76 227 C75 223 75 220 74 217 C74 215 73 213 73 211 L-9 -210 L0 -210 L70 149 C78 58 138 -7 234 -7 C350 -7 458 87 482 215 C508 345 436 438 320 438 L320 438 Z M472 217 C449 94 346 2 235 2 C126 2 58 93 82 215 C105 337 209 429 319 429 C429 429 496 337 472 217 L472 217 Z " />
<glyph glyph-name="q" unicode="q" horiz-adv-x="530" d="M490 427 L462 281 C456 372 394 438 298 438 C183 438 74 345 49 215 C24 87 95 -7 211 -7 C307 -7 394 59 437 151 L366 -210 L375 -210 L499 427 L490 427 Z M214 2 C103 2 35 94 60 217 C83 337 186 429 296 429 C406 429 474 337 450 215 C426 93 323 2 214 2 L214 2 Z " />
<glyph glyph-name="r" unicode="r" horiz-adv-x="245" d="M246 439 C175 439 129 384 104 327 L122 427 L115 427 L33 0 L43 0 L101 306 L95 271 C111 365 171 428 238 428 C249 428 253 427 263 425 L268 436 C261 438 254 439 246 439 L246 439 Z M95 271 C94 270 94 269 94 268 L95 271 Z " />
<glyph glyph-name="s" unicode="s" horiz-adv-x="359" d="M9 59 C22 30 63 -6 129 -6 C208 -6 276 37 290 111 C322 274 62 190 87 328 C97 392 152 429 218 428 C273 428 302 409 321 387 L330 396 C310 417 278 438 219 438 C147 438 88 395 77 330 C49 175 309 264 280 111 C267 44 208 3 132 3 C70 3 31 37 20 67 L9 59 Z " />
<glyph glyph-name="t" unicode="t" horiz-adv-x="272" d="M273 427 L159 427 L184 557 L174 557 L149 427 L91 427 L89 419 L148 419 L68 0 L78 0 L158 419 L272 419 L273 427 Z " />
<glyph glyph-name="u" unicode="u" horiz-adv-x="467" d="M192 -12 C263 -12 363 28 390 169 L439 427 L430 427 L381 169 C360 63 292 -3 193 -3 C92 -3 51 63 71 169 L120 427 L111 427 L62 169 C34 27 118 -12 192 -12 L192 -12 Z " />
<glyph glyph-name="v" unicode="v" horiz-adv-x="437" d="M447 427 L181 12 L74 427 L63 427 L174 0 L182 0 L458 427 L447 427 Z " />
<glyph glyph-name="w" unicode="w" horiz-adv-x="656" d="M660 427 L425 16 L373 427 L366 427 L155 16 L79 427 L69 427 L150 0 L157 0 L368 416 L418 0 L425 0 L671 427 L660 427 Z " />
<glyph glyph-name="x" unicode="x" horiz-adv-x="398" d="M391 427 L378 427 L207 240 L208 240 L203 235 L200 240 L201 240 L102 427 L90 427 L197 228 L-17 0 L-3 0 L196 214 L195 214 L201 220 L204 214 L203 214 L319 0 L331 0 L207 227 L391 427 Z " />
<glyph glyph-name="y" unicode="y" horiz-adv-x="423" d="M433 427 L172 21 L74 427 L63 427 L165 10 L25 -210 L35 -210 L443 427 L433 427 Z " />
<glyph glyph-name="z" unicode="z" horiz-adv-x="424" d="M405 427 L106 427 L104 418 L391 418 L11 9 L9 0 L336 0 L337 9 L25 9 L403 419 L405 427 Z " />
<glyph glyph-name="braceleft" unicode="&#x7b;" horiz-adv-x="318" d="M350 726 C286 726 251 692 241 636 L193 391 C183 337 135 310 103 304 L103 296 C132 291 168 263 158 209 L111 -35 C100 -91 120 -126 184 -126 L215 -126 L217 -118 L188 -118 C136 -118 109 -92 119 -39 L167 209 C178 264 145 293 117 300 C147 307 192 337 203 392 L251 639 C261 692 299 718 350 718 L380 718 L381 726 L350 726 Z " />
<glyph glyph-name="bar" unicode="&#x7c;" horiz-adv-x="241" d="M213 710 L43 -160 L51 -160 L221 710 L213 710 Z " />
<glyph glyph-name="braceright" unicode="&#x7d;" horiz-adv-x="317" d="M193 391 L241 636 C252 692 230 726 166 726 L135 726 L134 718 L163 718 C215 718 242 692 231 639 L184 392 C173 337 207 307 234 300 C203 293 158 264 148 209 L100 -39 C90 -92 52 -118 1 -118 L-28 -118 L-30 -126 L2 -126 C66 -126 99 -91 110 -35 L157 209 C169 263 215 291 247 296 L249 304 C219 310 182 337 193 391 L193 391 Z " />
<glyph glyph-name="asciitilde" unicode="&#x7e;" horiz-adv-x="377" d="M244 249 C279 249 311 269 337 302 L327 307 C311 285 282 260 251 260 C210 260 190 306 150 306 C118 306 90 288 67 260 L76 255 C91 274 115 295 143 295 C183 295 199 249 244 249 L244 249 Z " />
<glyph glyph-name="uni00A0" unicode="&#xa0;" horiz-adv-x="266" d="" />
<glyph glyph-name="exclamdown" unicode="&#xa1;" horiz-adv-x="185" d="M107 439 C97 439 86 431 84 420 C82 409 89 400 100 400 C110 400 121 409 123 420 C125 431 118 439 107 439 L107 439 Z M-22 -202 L-10 -202 L83 287 L74 287 L-22 -202 Z " />
<glyph glyph-name="cent" unicode="&#xa2;" horiz-adv-x="470" d="M314 546 L305 546 L323 640 L315 640 L297 545 C176 537 83 440 61 324 C38 204 94 107 215 100 L196 0 L204 0 L223 100 L229 100 C280 100 331 118 372 148 L366 155 C329 126 280 109 230 109 L224 109 L304 537 L313 537 C363 537 404 519 431 491 L439 498 C409 528 367 546 314 546 L314 546 Z M216 109 C102 116 49 207 71 323 C92 437 180 528 296 536 L216 109 Z " />
<glyph glyph-name="sterling" unicode="&#xa3;" horiz-adv-x="555" d="M419 649 C334 649 261 600 239 486 L206 311 L118 311 L116 303 L204 303 L148 9 L59 9 L59 0 L432 0 L434 9 L157 9 L213 303 L420 303 L421 311 L214 311 L248 487 C268 592 334 641 418 641 C463 641 499 627 529 594 L536 602 C508 634 470 649 419 649 L419 649 Z " />
<glyph glyph-name="currency" unicode="&#xa4;" horiz-adv-x="550" d="M533 521 L528 527 L448 461 C422 494 381 514 332 514 C282 514 234 492 195 458 L140 525 L133 519 L187 451 C152 417 126 373 117 326 C107 276 117 231 140 197 L61 130 L66 123 L145 190 C171 157 211 136 260 136 C311 136 360 158 400 193 L453 126 L461 133 L408 200 C442 234 468 277 477 324 C487 374 477 420 453 454 L533 521 Z M467 326 C448 226 359 145 261 145 C167 145 108 227 127 324 C145 424 238 505 331 505 C426 505 486 423 467 326 L467 326 Z " />
<glyph glyph-name="yen" unicode="&#xa5;" horiz-adv-x="635" d="M622 640 L608 640 L339 326 L193 640 L179 640 L328 324 L174 324 L173 315 L332 315 L315 224 L156 224 L154 215 L313 215 L272 0 L282 0 L323 215 L483 215 L485 224 L325 224 L342 315 L503 315 L503 324 L350 324 L622 640 Z " />
<glyph glyph-name="brokenbar" unicode="&#xa6;" horiz-adv-x="221" d="M186 625 L131 340 L139 340 L194 625 L186 625 Z M105 210 L50 -75 L58 -75 L113 210 L105 210 Z " />
<glyph glyph-name="section" unicode="&#xa7;" horiz-adv-x="480" d="M308 649 C237 650 169 605 155 533 C147 492 161 460 189 431 C138 412 93 372 83 321 C66 230 136 186 233 109 C285 68 327 35 315 -31 C301 -108 228 -152 140 -152 C71 -152 22 -115 3 -88 L-4 -95 C14 -123 65 -161 138 -161 C227 -161 309 -117 325 -30 C333 11 319 42 295 69 C355 95 391 143 400 194 C413 269 365 311 278 372 C213 420 152 463 166 530 C177 596 235 640 307 641 C362 641 398 617 412 600 L420 608 C404 625 370 649 308 649 L308 649 Z M281 358 C354 302 401 265 388 194 C382 149 347 100 288 76 C273 92 254 106 236 121 C146 193 79 240 94 317 C104 366 141 406 196 424 C218 403 247 382 281 358 L281 358 Z " />
<glyph glyph-name="dieresis" unicode="&#xa8;" horiz-adv-x="268" d="M125 556 C115 556 105 548 104 540 C102 529 108 521 119 521 C128 521 137 529 138 538 C140 548 134 556 125 556 L125 556 Z M278 556 C268 556 259 548 257 540 C256 529 261 521 272 521 C281 521 290 529 292 538 C293 548 288 556 278 556 L278 556 Z " />
<glyph glyph-name="copyright" unicode="&#xa9;" horiz-adv-x="782" d="M348 -6 C533 -6 702 141 737 322 C772 504 661 649 475 649 C291 649 122 504 87 322 C51 141 163 -6 348 -6 L348 -6 Z M350 6 C171 6 70 149 103 322 C137 496 294 637 473 637 C652 637 754 496 720 322 C686 149 528 6 350 6 L350 6 Z M375 120 C416 120 455 130 488 151 L485 161 C458 143 416 131 377 131 C271 131 213 218 233 322 C253 425 345 512 451 512 C490 512 527 500 546 482 L554 492 C529 513 494 523 453 523 C344 523 243 434 221 321 C200 209 265 120 375 120 L375 120 Z " />
<glyph glyph-name="ordfeminine" unicode="&#xaa;" horiz-adv-x="391" d="M417 647 L397 548 C392 610 349 655 281 655 C198 655 122 591 104 502 C87 412 138 348 222 348 C290 348 351 394 380 456 L379 450 L362 357 L368 357 L423 647 L417 647 Z M224 355 C145 355 97 417 114 500 C129 586 202 648 281 648 C356 648 404 584 389 502 C372 418 300 355 224 355 L224 355 Z M75 274 L354 274 L356 282 L76 282 L75 274 Z " />
<glyph glyph-name="guillemotleft" unicode="&#xab;" horiz-adv-x="409" d="M261 420 L250 420 L54 242 L175 64 L185 64 L65 241 L261 420 Z M400 420 L389 420 L193 242 L314 64 L324 64 L204 241 L400 420 Z " />
<glyph glyph-name="logicalnot" unicode="&#xac;" horiz-adv-x="408" d="M81 331 L362 331 L336 196 L346 196 L374 341 L82 341 L81 331 Z " />
<glyph glyph-name="uni00AD" unicode="&#xad;" horiz-adv-x="337" d="M65 250 L285 250 L287 259 L67 259 L65 250 Z " />
<glyph glyph-name="registered" unicode="&#xae;" horiz-adv-x="440" d="M303 649 C198 649 109 569 90 470 C70 369 128 289 235 289 C340 289 431 368 449 469 C469 569 411 649 303 649 L303 649 Z M437 470 C418 375 339 300 236 300 C135 300 84 376 102 469 C120 563 200 638 302 638 C403 638 455 562 437 470 L437 470 Z M284 573 L240 574 L235 574 L229 573 L188 362 L199 362 L218 459 L244 459 L307 362 L323 362 L258 459 L262 459 C293 460 332 475 340 515 C348 558 314 573 284 573 L284 573 Z M329 517 C322 485 295 471 264 471 L220 471 L238 562 L281 562 C313 562 334 548 329 517 L329 517 Z " />
<glyph glyph-name="macron" unicode="&#xaf;" horiz-adv-x="284" d="M128 665 L331 665 L333 674 L130 674 L128 665 Z " />
<glyph glyph-name="degree" unicode="&#xb0;" horiz-adv-x="322" d="M244 649 C178 649 113 595 101 527 C87 457 131 404 197 404 C264 404 329 458 343 526 C355 596 311 649 244 649 L244 649 Z M199 412 C139 412 100 461 112 526 C124 592 183 640 243 640 C304 640 344 592 331 527 C319 461 259 412 199 412 L199 412 Z " />
<glyph glyph-name="plusminus" unicode="&#xb1;" horiz-adv-x="483" d="M258 281 L293 459 L284 459 L249 281 L71 281 L69 272 L248 272 L213 93 L222 93 L257 272 L435 272 L437 281 L258 281 Z M17 1 L384 1 L385 11 L19 11 L17 1 Z " />
<glyph glyph-name="uni00B2" unicode="&#xb2;" horiz-adv-x="348" d="M364 649 C374 705 340 749 272 750 C219 750 185 721 168 704 L173 698 C193 717 225 743 273 742 C329 742 364 704 354 652 C344 602 307 563 269 527 L89 367 L87 360 L316 360 L318 368 L105 369 L274 521 C314 557 354 599 364 649 L364 649 Z " />
<glyph glyph-name="uni00B3" unicode="&#xb3;" horiz-adv-x="355" d="M377 740 L173 740 L171 732 L364 732 L195 566 L198 559 C219 564 251 567 278 557 C310 546 339 518 329 462 C318 406 269 359 197 359 C158 359 125 369 98 405 L88 398 C115 363 153 350 194 350 C276 350 327 405 338 462 C352 538 293 583 211 570 L376 734 L377 740 Z " />
<glyph glyph-name="acute" unicode="&#xb4;" horiz-adv-x="222" d="M129 527 L266 647 L256 650 L98 510 L102 510 C108 510 114 514 129 527 L129 527 Z " />
<glyph glyph-name="uni00B5" unicode="&#xb5;" horiz-adv-x="476" d="M434 427 L387 183 L386 180 C362 72 286 -3 188 -3 C111 -3 61 43 72 150 L125 427 L115 427 L-4 -190 L4 -190 L62 100 C71 17 128 -12 188 -12 C261 -12 338 30 377 128 L353 0 L362 0 L443 427 L434 427 Z " />
<glyph glyph-name="paragraph" unicode="&#xb6;" horiz-adv-x="389" d="M365 640 L239 640 C184 640 126 591 114 526 C101 460 141 412 195 412 L203 412 L95 -150 L105 -150 L255 631 L352 631 L202 -150 L213 -150 L365 640 Z " />
<glyph glyph-name="periodcentered" unicode="&#xb7;" horiz-adv-x="185" d="M101 259 C112 259 122 267 124 278 C126 289 119 298 109 298 C98 298 88 289 85 278 C83 267 90 259 101 259 L101 259 Z " />
<glyph glyph-name="cedilla" unicode="&#xb8;" horiz-adv-x="371" d="M167 -64 C146 -63 120 -67 107 -70 L172 2 L173 3 L166 3 L91 -78 L94 -83 C142 -64 208 -69 192 -112 C182 -138 148 -161 96 -158 C70 -156 49 -146 43 -139 L34 -147 C45 -156 70 -168 103 -168 C142 -167 188 -151 204 -112 C215 -82 193 -67 167 -64 L167 -64 Z " />
<glyph glyph-name="uni00B9" unicode="&#xb9;" horiz-adv-x="246" d="M234 740 L110 671 L113 663 L231 729 L160 360 L169 360 L242 740 L234 740 Z " />
<glyph glyph-name="ordmasculine" unicode="&#xba;" horiz-adv-x="404" d="M227 348 C317 348 394 416 411 500 C427 589 376 655 286 655 C197 655 121 589 104 502 C88 416 138 348 227 348 L227 348 Z M228 357 C146 357 99 420 115 500 C131 586 202 646 285 646 C368 646 416 586 399 502 C384 420 312 357 228 357 L228 357 Z M78 274 L349 274 L350 282 L78 282 L78 274 Z " />
<glyph glyph-name="guillemotright" unicode="&#xbb;" horiz-adv-x="407" d="M100 420 L89 420 L213 241 L21 64 L31 64 L224 242 L100 420 Z M239 420 L228 420 L351 241 L160 64 L170 64 L363 242 L239 420 Z " />
<glyph glyph-name="questiondown" unicode="&#xbf;" horiz-adv-x="393" d="M260 440 C250 440 239 432 237 421 C235 410 242 401 253 401 C264 401 274 410 276 421 C278 432 271 440 260 440 L260 440 Z M238 294 L229 294 L198 136 C96 137 -9 79 -29 -46 C-46 -145 22 -210 125 -210 C201 -210 259 -174 305 -124 L298 -118 C269 -153 212 -201 125 -201 C33 -201 -36 -144 -18 -44 C0 59 93 132 206 126 L238 294 Z " />
<glyph glyph-name="Agrave" unicode="&#xc0;" horiz-adv-x="599" d="M452 690 L456 690 L353 830 L342 827 L431 707 C442 694 445 690 452 690 L452 690 Z M509 0 L520 0 L386 640 L376 640 L-4 0 L8 0 L148 236 L460 236 L509 0 Z M153 245 L379 628 L458 245 L153 245 Z " />
<glyph glyph-name="Aacute" unicode="&#xc1;" horiz-adv-x="599" d="M370 707 L507 827 L497 830 L338 690 L343 690 C349 690 354 694 370 707 L370 707 Z M509 0 L520 0 L386 640 L376 640 L-4 0 L8 0 L148 236 L460 236 L509 0 Z M153 245 L379 628 L458 245 L153 245 Z " />
<glyph glyph-name="Acircumflex" unicode="&#xc2;" horiz-adv-x="599" d="M312 695 L406 771 L470 695 C472 693 476 690 482 690 L488 690 L411 782 L405 782 L293 690 L299 690 C305 690 310 693 312 695 L312 695 Z M509 0 L520 0 L386 640 L376 640 L-4 0 L8 0 L148 236 L460 236 L509 0 Z M153 245 L379 628 L458 245 L153 245 Z " />
<glyph glyph-name="Atilde" unicode="&#xc3;" horiz-adv-x="599" d="M350 750 C383 750 404 711 443 711 C472 711 495 728 511 755 L502 760 C492 742 472 721 446 721 C412 721 387 759 354 759 C328 759 306 744 292 721 L300 716 C310 732 326 750 350 750 L350 750 Z M509 0 L520 0 L386 640 L376 640 L-4 0 L8 0 L148 236 L460 236 L509 0 Z M153 245 L379 628 L458 245 L153 245 Z " />
<glyph glyph-name="Adieresis" unicode="&#xc4;" horiz-adv-x="599" d="M320 711 C329 711 338 719 339 728 C341 738 336 746 326 746 C316 746 306 738 305 730 C303 719 309 711 320 711 L320 711 Z M473 711 C482 711 491 719 493 728 C494 738 489 746 479 746 C469 746 460 738 458 730 C457 719 462 711 473 711 L473 711 Z M509 0 L520 0 L386 640 L376 640 L-4 0 L8 0 L148 236 L460 236 L509 0 Z M153 245 L379 628 L458 245 L153 245 Z " />
<glyph glyph-name="Aring" unicode="&#xc5;" horiz-adv-x="599" d="M392 690 C435 690 478 724 486 767 C495 811 466 846 421 846 C378 846 335 811 328 769 C319 724 348 690 392 690 L392 690 Z M337 767 C344 805 382 834 420 834 C457 834 483 805 476 769 C469 730 432 700 393 700 C357 700 330 730 337 767 L337 767 Z M509 0 L520 0 L386 640 L376 640 L-4 0 L8 0 L148 236 L460 236 L509 0 Z M153 245 L379 628 L458 245 L153 245 Z " />
<glyph glyph-name="AE" unicode="&#xc6;" horiz-adv-x="793" d="M798 633 L799 643 L377 643 L141 245 L139 245 L131 236 L136 236 L-4 0 L8 0 L148 236 L422 236 L448 0 L675 0 L678 10 L459 10 L425 307 L676 307 L678 316 L424 316 L388 633 L798 633 Z M153 245 L378 625 L421 245 L153 245 Z " />
<glyph glyph-name="Ccedilla" unicode="&#xc7;" horiz-adv-x="621" d="M470 640 C539 640 594 622 632 595 L640 603 C597 632 539 649 470 649 C288 649 123 503 87 321 C53 143 153 1 324 -9 L252 -87 L255 -92 C303 -73 369 -78 353 -121 C342 -147 309 -170 257 -167 C231 -165 210 -155 204 -148 L195 -156 C206 -165 231 -177 264 -177 C303 -176 349 -160 365 -121 C376 -91 354 -76 328 -73 C307 -72 281 -76 268 -79 L331 -10 L344 -10 C412 -10 477 7 531 36 L526 46 C477 17 415 -1 346 -1 C164 -1 65 146 98 319 C132 492 289 640 470 640 L470 640 Z " />
<glyph glyph-name="Egrave" unicode="&#xc8;" horiz-adv-x="509" d="M418 690 L422 690 L319 830 L308 827 L397 707 C408 694 411 690 418 690 L418 690 Z M512 630 L515 640 L189 640 L66 0 L392 0 L393 10 L78 10 L137 316 L402 316 L404 325 L138 325 L197 630 L512 630 Z " />
<glyph glyph-name="Eacute" unicode="&#xc9;" horiz-adv-x="509" d="M336 707 L473 827 L463 830 L304 690 L309 690 C315 690 320 694 336 707 L336 707 Z M512 630 L515 640 L189 640 L66 0 L392 0 L393 10 L78 10 L137 316 L402 316 L404 325 L138 325 L197 630 L512 630 Z " />
<glyph glyph-name="Ecircumflex" unicode="&#xca;" horiz-adv-x="509" d="M278 695 L372 771 L436 695 C438 693 442 690 448 690 L454 690 L377 782 L371 782 L259 690 L265 690 C271 690 276 693 278 695 L278 695 Z M512 630 L515 640 L189 640 L66 0 L392 0 L393 10 L78 10 L137 316 L402 316 L404 325 L138 325 L197 630 L512 630 Z " />
<glyph glyph-name="Edieresis" unicode="&#xcb;" horiz-adv-x="509" d="M287 711 C296 711 305 719 306 728 C308 738 303 746 293 746 C283 746 273 738 272 730 C270 719 276 711 287 711 L287 711 Z M440 711 C449 711 458 719 460 728 C461 738 456 746 446 746 C436 746 427 738 425 730 C424 719 429 711 440 711 L440 711 Z M512 630 L515 640 L189 640 L66 0 L392 0 L393 10 L78 10 L137 316 L402 316 L404 325 L138 325 L197 630 L512 630 Z " />
<glyph glyph-name="Igrave" unicode="&#xcc;" horiz-adv-x="242" d="M253 707 C264 694 267 690 274 690 L278 690 L175 830 L164 827 L253 707 Z M209 640 L199 640 L74 0 L84 0 L209 640 Z " />
<glyph glyph-name="Iacute" unicode="&#xcd;" horiz-adv-x="242" d="M192 707 L329 827 L319 830 L160 690 L165 690 C171 690 176 694 192 707 L192 707 Z M209 640 L199 640 L74 0 L84 0 L209 640 Z " />
<glyph glyph-name="Icircumflex" unicode="&#xce;" horiz-adv-x="242" d="M233 782 L227 782 L115 690 L121 690 C127 690 132 693 134 695 L228 771 L292 695 C294 693 298 690 304 690 L310 690 L233 782 Z M209 640 L199 640 L74 0 L84 0 L209 640 Z " />
<glyph glyph-name="Idieresis" unicode="&#xcf;" horiz-adv-x="242" d="M148 746 C138 746 128 738 127 730 C125 719 131 711 142 711 C151 711 160 719 161 728 C163 738 158 746 148 746 L148 746 Z M301 746 C291 746 282 738 280 730 C279 719 284 711 295 711 C304 711 313 719 315 728 C316 738 311 746 301 746 L301 746 Z M209 640 L199 640 L74 0 L84 0 L209 640 Z " />
<glyph glyph-name="Eth" unicode="&#xd0;" horiz-adv-x="637" d="M304 640 L189 640 L129 327 L56 327 L54 317 L127 317 L66 0 L182 0 C415 0 558 142 592 319 C626 498 539 640 304 640 L304 640 Z M581 321 C538 102 360 9 188 9 L78 9 L137 317 L257 317 L259 327 L139 327 L197 631 L308 631 C479 631 623 539 581 321 L581 321 Z " />
<glyph glyph-name="Ntilde" unicode="&#xd1;" horiz-adv-x="742" d="M420 750 C453 750 474 711 513 711 C542 711 565 728 581 755 L572 760 C562 742 542 721 516 721 C482 721 457 759 424 759 C398 759 376 744 362 721 L370 716 C380 732 396 750 420 750 L420 750 Z M707 640 L586 18 L199 640 L189 640 L66 0 L77 0 L196 623 L583 0 L594 0 L717 640 L707 640 Z " />
<glyph glyph-name="Ograve" unicode="&#xd2;" horiz-adv-x="791" d="M544 707 C555 694 558 690 565 690 L569 690 L466 830 L455 827 L544 707 Z M353 -6 C542 -6 711 139 746 320 C782 504 668 649 478 649 C291 649 122 505 87 322 C51 140 164 -6 353 -6 L353 -6 Z M354 3 C169 3 64 146 97 320 C132 497 293 640 479 640 C663 640 770 499 736 322 C702 147 539 3 354 3 L354 3 Z " />
<glyph glyph-name="Oacute" unicode="&#xd3;" horiz-adv-x="791" d="M483 707 L620 827 L610 830 L451 690 L456 690 C462 690 467 694 483 707 L483 707 Z M353 -6 C542 -6 711 139 746 320 C782 504 668 649 478 649 C291 649 122 505 87 322 C51 140 164 -6 353 -6 L353 -6 Z M354 3 C169 3 64 146 97 320 C132 497 293 640 479 640 C663 640 770 499 736 322 C702 147 539 3 354 3 L354 3 Z " />
<glyph glyph-name="Ocircumflex" unicode="&#xd4;" horiz-adv-x="791" d="M524 782 L518 782 L406 690 L412 690 C418 690 423 693 425 695 L519 771 L583 695 C585 693 589 690 595 690 L601 690 L524 782 Z M353 -6 C542 -6 711 139 746 320 C782 504 668 649 478 649 C291 649 122 505 87 322 C51 140 164 -6 353 -6 L353 -6 Z M354 3 C169 3 64 146 97 320 C132 497 293 640 479 640 C663 640 770 499 736 322 C702 147 539 3 354 3 L354 3 Z " />
<glyph glyph-name="Otilde" unicode="&#xd5;" horiz-adv-x="791" d="M557 711 C586 711 609 728 625 755 L616 760 C606 742 586 721 560 721 C526 721 501 759 468 759 C442 759 420 744 406 721 L414 716 C424 732 440 750 464 750 C497 750 518 711 557 711 L557 711 Z M353 -6 C542 -6 711 139 746 320 C782 504 668 649 478 649 C291 649 122 505 87 322 C51 140 164 -6 353 -6 L353 -6 Z M354 3 C169 3 64 146 97 320 C132 497 293 640 479 640 C663 640 770 499 736 322 C702 147 539 3 354 3 L354 3 Z " />
<glyph glyph-name="Odieresis" unicode="&#xd6;" horiz-adv-x="791" d="M440 746 C430 746 420 738 419 730 C417 719 423 711 434 711 C443 711 452 719 453 728 C455 738 450 746 440 746 L440 746 Z M593 746 C583 746 574 738 572 730 C571 719 576 711 587 711 C596 711 605 719 607 728 C608 738 603 746 593 746 L593 746 Z M353 -6 C542 -6 711 139 746 320 C782 504 668 649 478 649 C291 649 122 505 87 322 C51 140 164 -6 353 -6 L353 -6 Z M354 3 C169 3 64 146 97 320 C132 497 293 640 479 640 C663 640 770 499 736 322 C702 147 539 3 354 3 L354 3 Z " />
<glyph glyph-name="multiply" unicode="&#xd7;" horiz-adv-x="383" d="M357 379 L351 385 L200 259 L98 385 L90 379 L192 252 L42 126 L47 119 L198 245 L299 119 L307 126 L205 252 L357 379 Z " />
<glyph glyph-name="Oslash" unicode="&#xd8;" horiz-adv-x="791" d="M776 643 L769 650 L682 570 C634 620 564 649 478 649 C291 649 122 505 87 322 C68 226 91 140 144 80 L57 1 L63 -5 L150 74 C197 24 267 -6 353 -6 C542 -6 711 139 746 320 C765 417 742 504 688 563 L776 643 Z M97 320 C132 497 293 640 479 640 C562 640 629 611 675 564 L151 87 C101 145 80 228 97 320 L97 320 Z M736 322 C702 147 539 3 354 3 C270 3 203 32 157 81 L681 557 C733 499 754 416 736 322 L736 322 Z " />
<glyph glyph-name="Ugrave" unicode="&#xd9;" horiz-adv-x="599" d="M431 707 C442 694 445 690 452 690 L456 690 L353 830 L342 827 L431 707 Z M258 -6 C407 -6 486 92 512 231 L591 640 L581 640 L503 233 C478 104 404 3 259 3 C113 3 80 104 105 234 L183 640 L173 640 L95 231 C68 92 109 -6 258 -6 L258 -6 Z " />
<glyph glyph-name="Uacute" unicode="&#xda;" horiz-adv-x="599" d="M370 707 L507 827 L497 830 L338 690 L343 690 C349 690 354 694 370 707 L370 707 Z M258 -6 C407 -6 486 92 512 231 L591 640 L581 640 L503 233 C478 104 404 3 259 3 C113 3 80 104 105 234 L183 640 L173 640 L95 231 C68 92 109 -6 258 -6 L258 -6 Z " />
<glyph glyph-name="Ucircumflex" unicode="&#xdb;" horiz-adv-x="599" d="M411 782 L405 782 L293 690 L299 690 C305 690 310 693 312 695 L406 771 L470 695 C472 693 476 690 482 690 L488 690 L411 782 Z M258 -6 C407 -6 486 92 512 231 L591 640 L581 640 L503 233 C478 104 404 3 259 3 C113 3 80 104 105 234 L183 640 L173 640 L95 231 C68 92 109 -6 258 -6 L258 -6 Z " />
<glyph glyph-name="Udieresis" unicode="&#xdc;" horiz-adv-x="599" d="M326 746 C316 746 306 738 305 730 C303 719 309 711 320 711 C329 711 338 719 339 728 C341 738 336 746 326 746 L326 746 Z M479 746 C469 746 460 738 458 730 C457 719 462 711 473 711 C482 711 491 719 493 728 C494 738 489 746 479 746 L479 746 Z M258 -6 C407 -6 486 92 512 231 L591 640 L581 640 L503 233 C478 104 404 3 259 3 C113 3 80 104 105 234 L183 640 L173 640 L95 231 C68 92 109 -6 258 -6 L258 -6 Z " />
<glyph glyph-name="Yacute" unicode="&#xdd;" horiz-adv-x="517" d="M331 707 L468 827 L458 830 L299 690 L304 690 C310 690 315 694 331 707 L331 707 Z M563 640 L550 640 L280 325 L134 640 L121 640 L275 316 L214 0 L224 0 L285 315 L563 640 Z " />
<glyph glyph-name="Thorn" unicode="&#xde;" horiz-adv-x="472" d="M292 501 L173 501 L200 640 L189 640 L66 0 L77 0 L109 166 L228 166 C321 166 416 215 439 333 C462 452 386 502 292 501 L292 501 Z M428 334 C409 231 329 175 227 175 L111 175 L172 492 L287 492 C391 492 448 437 428 334 L428 334 Z " />
<glyph glyph-name="germandbls" unicode="&#xdf;" horiz-adv-x="534" d="M181 -1 C313 -30 432 46 459 182 C479 286 419 351 334 364 C377 373 461 418 481 514 C500 610 434 665 344 665 C258 665 178 612 151 468 L59 0 L70 0 L162 468 C183 581 245 655 344 655 C417 655 488 612 469 516 C452 423 367 368 294 368 L279 368 L278 357 L305 357 C384 357 471 299 446 180 C420 48 304 -20 182 10 L181 -1 Z " />
<glyph glyph-name="agrave" unicode="&#xe0;" horiz-adv-x="533" d="M387 508 L391 508 L288 648 L277 645 L366 525 C377 512 380 508 387 508 L387 508 Z M496 438 L465 285 L464 280 C460 371 399 438 302 438 C186 438 76 345 49 215 C22 87 92 -7 208 -7 C310 -7 403 68 444 169 L439 149 L411 0 L419 0 L505 438 L496 438 Z M211 2 C100 2 33 94 60 217 C85 337 189 429 299 429 C409 429 476 337 450 215 C424 93 320 2 211 2 L211 2 Z " />
<glyph glyph-name="aacute" unicode="&#xe1;" horiz-adv-x="533" d="M305 524 L442 644 L432 647 L273 507 L278 507 C284 507 289 511 305 524 L305 524 Z M496 438 L465 285 L464 280 C460 371 399 438 302 438 C186 438 76 345 49 215 C22 87 92 -7 208 -7 C310 -7 403 68 444 169 L439 149 L411 0 L419 0 L505 438 L496 438 Z M211 2 C100 2 33 94 60 217 C85 337 189 429 299 429 C409 429 476 337 450 215 C424 93 320 2 211 2 L211 2 Z " />
<glyph glyph-name="acircumflex" unicode="&#xe2;" horiz-adv-x="533" d="M247 512 L341 588 L405 512 C407 510 411 507 417 507 L423 507 L346 599 L340 599 L228 507 L234 507 C240 507 245 510 247 512 L247 512 Z M496 438 L465 285 L464 280 C460 371 399 438 302 438 C186 438 76 345 49 215 C22 87 92 -7 208 -7 C310 -7 403 68 444 169 L439 149 L411 0 L419 0 L505 438 L496 438 Z M211 2 C100 2 33 94 60 217 C85 337 189 429 299 429 C409 429 476 337 450 215 C424 93 320 2 211 2 L211 2 Z " />
<glyph glyph-name="atilde" unicode="&#xe3;" horiz-adv-x="533" d="M286 567 C319 567 340 528 379 528 C408 528 431 545 447 572 L438 577 C428 559 408 538 382 538 C348 538 323 576 290 576 C264 576 242 561 228 538 L236 533 C246 549 262 567 286 567 L286 567 Z M496 438 L465 285 L464 280 C460 371 399 438 302 438 C186 438 76 345 49 215 C22 87 92 -7 208 -7 C310 -7 403 68 444 169 L439 149 L411 0 L419 0 L505 438 L496 438 Z M211 2 C100 2 33 94 60 217 C85 337 189 429 299 429 C409 429 476 337 450 215 C424 93 320 2 211 2 L211 2 Z " />
<glyph glyph-name="adieresis" unicode="&#xe4;" horiz-adv-x="533" d="M256 529 C265 529 274 537 275 546 C277 556 272 564 262 564 C252 564 242 556 241 548 C239 537 245 529 256 529 L256 529 Z M409 529 C418 529 427 537 429 546 C430 556 425 564 415 564 C405 564 396 556 394 548 C393 537 398 529 409 529 L409 529 Z M496 438 L465 285 L464 280 C460 371 399 438 302 438 C186 438 76 345 49 215 C22 87 92 -7 208 -7 C310 -7 403 68 444 169 L439 149 L411 0 L419 0 L505 438 L496 438 Z M211 2 C100 2 33 94 60 217 C85 337 189 429 299 429 C409 429 476 337 450 215 C424 93 320 2 211 2 L211 2 Z " />
<glyph glyph-name="aring" unicode="&#xe5;" horiz-adv-x="533" d="M327 508 C370 508 413 542 421 585 C430 629 401 664 356 664 C313 664 270 629 263 587 C254 542 283 508 327 508 L327 508 Z M272 585 C279 623 317 652 355 652 C392 652 418 623 411 587 C404 548 367 518 328 518 C292 518 265 548 272 585 L272 585 Z M496 438 L465 285 L464 280 C460 371 399 438 302 438 C186 438 76 345 49 215 C22 87 92 -7 208 -7 C310 -7 403 68 444 169 L439 149 L411 0 L419 0 L505 438 L496 438 Z M211 2 C100 2 33 94 60 217 C85 337 189 429 299 429 C409 429 476 337 450 215 C424 93 320 2 211 2 L211 2 Z " />
<glyph glyph-name="ae" unicode="&#xe6;" horiz-adv-x="864" d="M706 438 C608 438 522 381 477 298 L505 438 L496 438 L465 285 L464 280 C460 371 399 438 302 438 C186 438 76 345 49 215 C22 87 92 -7 208 -7 C310 -7 403 68 444 169 L439 149 L411 0 L419 0 L447 144 C456 56 513 -6 613 -6 C682 -6 741 23 785 61 L778 69 C739 33 683 4 614 4 C498 4 446 88 459 203 L465 235 L587 235 C703 235 819 255 827 338 C832 386 786 438 706 438 L706 438 Z M211 2 C100 2 33 94 60 217 C85 337 189 429 299 429 C402 429 468 348 454 237 C453 233 452 229 451 225 L448 208 C420 89 318 2 211 2 L211 2 Z M817 337 C810 282 747 246 593 246 L467 246 L468 249 C498 348 593 428 707 428 C781 428 822 381 817 337 L817 337 Z " />
<glyph glyph-name="ccedilla" unicode="&#xe7;" horiz-adv-x="423" d="M303 439 C174 439 73 338 50 218 C27 101 80 6 195 -5 L127 -78 L130 -83 C178 -64 244 -69 228 -112 C217 -138 184 -161 132 -158 C106 -156 85 -146 79 -139 L70 -147 C81 -156 106 -168 139 -168 C178 -167 224 -151 240 -112 C251 -82 229 -67 203 -64 C182 -63 156 -67 143 -70 L201 -5 C207 -6 212 -6 218 -6 C269 -6 320 12 361 41 L355 48 C318 20 269 3 219 3 C95 3 37 97 59 216 C82 336 178 430 302 430 C352 430 393 413 420 384 L427 392 C398 421 356 439 303 439 L303 439 Z " />
<glyph glyph-name="egrave" unicode="&#xe8;" horiz-adv-x="463" d="M371 508 L375 508 L272 648 L261 645 L350 525 C361 512 364 508 371 508 L371 508 Z M306 438 C181 438 76 345 51 225 C27 96 84 -6 212 -6 C282 -6 341 23 385 61 L378 69 C338 33 283 4 213 4 C91 4 40 99 61 225 C62 228 62 232 63 235 L187 235 C303 235 419 255 427 338 C431 386 386 438 306 438 L306 438 Z M417 337 C409 282 347 246 193 246 L66 246 C96 347 192 428 306 428 C380 428 422 381 417 337 L417 337 Z " />
<glyph glyph-name="eacute" unicode="&#xe9;" horiz-adv-x="463" d="M289 524 L426 644 L416 647 L257 507 L262 507 C268 507 273 511 289 524 L289 524 Z M306 438 C181 438 76 345 51 225 C27 96 84 -6 212 -6 C282 -6 341 23 385 61 L378 69 C338 33 283 4 213 4 C91 4 40 99 61 225 C62 228 62 232 63 235 L187 235 C303 235 419 255 427 338 C431 386 386 438 306 438 L306 438 Z M417 337 C409 282 347 246 193 246 L66 246 C96 347 192 428 306 428 C380 428 422 381 417 337 L417 337 Z " />
<glyph glyph-name="ecircumflex" unicode="&#xea;" horiz-adv-x="463" d="M231 512 L325 588 L389 512 C391 510 395 507 401 507 L407 507 L330 599 L324 599 L212 507 L218 507 C224 507 229 510 231 512 L231 512 Z M306 438 C181 438 76 345 51 225 C27 96 84 -6 212 -6 C282 -6 341 23 385 61 L378 69 C338 33 283 4 213 4 C91 4 40 99 61 225 C62 228 62 232 63 235 L187 235 C303 235 419 255 427 338 C431 386 386 438 306 438 L306 438 Z M417 337 C409 282 347 246 193 246 L66 246 C96 347 192 428 306 428 C380 428 422 381 417 337 L417 337 Z " />
<glyph glyph-name="edieresis" unicode="&#xeb;" horiz-adv-x="463" d="M240 529 C249 529 258 537 259 546 C261 556 256 564 246 564 C236 564 226 556 225 548 C223 537 229 529 240 529 L240 529 Z M393 529 C402 529 411 537 413 546 C414 556 409 564 399 564 C389 564 380 556 378 548 C377 537 382 529 393 529 L393 529 Z M306 438 C181 438 76 345 51 225 C27 96 84 -6 212 -6 C282 -6 341 23 385 61 L378 69 C338 33 283 4 213 4 C91 4 40 99 61 225 C62 228 62 232 63 235 L187 235 C303 235 419 255 427 338 C431 386 386 438 306 438 L306 438 Z M417 337 C409 282 347 246 193 246 L66 246 C96 347 192 428 306 428 C380 428 422 381 417 337 L417 337 Z " />
<glyph glyph-name="igrave" unicode="&#xec;" horiz-adv-x="185" d="M190 524 C201 511 204 507 211 507 L215 507 L112 647 L101 644 L190 524 Z M46 0 L56 0 L139 427 L130 427 L46 0 Z " />
<glyph glyph-name="iacute" unicode="&#xed;" horiz-adv-x="185" d="M129 524 L266 644 L256 647 L97 507 L102 507 C108 507 113 511 129 524 L129 524 Z M46 0 L56 0 L139 427 L130 427 L46 0 Z " />
<glyph glyph-name="icircumflex" unicode="&#xee;" horiz-adv-x="185" d="M170 599 L164 599 L52 507 L58 507 C64 507 69 510 71 512 L165 588 L229 512 C231 510 235 507 241 507 L247 507 L170 599 Z M46 0 L56 0 L139 427 L130 427 L46 0 Z " />
<glyph glyph-name="idieresis" unicode="&#xef;" horiz-adv-x="185" d="M85 563 C75 563 65 555 64 547 C62 536 68 528 79 528 C88 528 97 536 98 545 C100 555 95 563 85 563 L85 563 Z M238 563 C228 563 219 555 217 547 C216 536 221 528 232 528 C241 528 250 536 252 545 C253 555 248 563 238 563 L238 563 Z M46 0 L56 0 L139 427 L130 427 L46 0 Z " />
<glyph glyph-name="eth" unicode="&#xf0;" horiz-adv-x="511" d="M307 561 L413 614 L408 619 L303 567 L251 638 L240 631 L292 562 L188 511 L192 504 L296 556 C340 498 376 447 417 379 C370 426 315 425 298 425 C173 426 71 328 48 207 C25 87 89 -12 213 -12 C334 -12 436 87 460 206 C484 326 411 422 307 561 L307 561 Z M449 207 C427 91 334 -1 214 -1 C96 -1 37 91 60 206 C84 323 174 414 295 414 C415 414 470 323 449 207 L449 207 Z " />
<glyph glyph-name="ntilde" unicode="&#xf1;" horiz-adv-x="471" d="M259 567 C292 567 313 528 352 528 C381 528 404 545 420 572 L411 577 C401 559 381 538 355 538 C321 538 296 576 263 576 C237 576 215 561 201 538 L209 533 C219 549 235 567 259 567 L259 567 Z M283 439 C203 439 136 383 101 307 L123 427 L115 427 L33 0 L43 0 L89 244 C113 353 189 430 283 430 C364 430 424 381 398 246 L351 0 L361 0 L408 247 C437 401 357 439 283 439 L283 439 Z " />
<glyph glyph-name="ograve" unicode="&#xf2;" horiz-adv-x="540" d="M367 525 C378 512 381 508 388 508 L392 508 L289 648 L278 645 L367 525 Z M229 -6 C353 -6 467 91 491 215 C516 341 438 438 313 438 C187 438 75 341 50 217 C26 91 102 -6 229 -6 L229 -6 Z M230 3 C109 3 38 98 60 215 C83 334 192 429 313 429 C433 429 505 334 481 217 C458 98 350 3 230 3 L230 3 Z " />
<glyph glyph-name="oacute" unicode="&#xf3;" horiz-adv-x="540" d="M306 524 L443 644 L433 647 L274 507 L279 507 C285 507 290 511 306 524 L306 524 Z M229 -6 C353 -6 467 91 491 215 C516 341 438 438 313 438 C187 438 75 341 50 217 C26 91 102 -6 229 -6 L229 -6 Z M230 3 C109 3 38 98 60 215 C83 334 192 429 313 429 C433 429 505 334 481 217 C458 98 350 3 230 3 L230 3 Z " />
<glyph glyph-name="ocircumflex" unicode="&#xf4;" horiz-adv-x="540" d="M347 599 L341 599 L229 507 L235 507 C241 507 246 510 248 512 L342 588 L406 512 C408 510 412 507 418 507 L424 507 L347 599 Z M229 -6 C353 -6 467 91 491 215 C516 341 438 438 313 438 C187 438 75 341 50 217 C26 91 102 -6 229 -6 L229 -6 Z M230 3 C109 3 38 98 60 215 C83 334 192 429 313 429 C433 429 505 334 481 217 C458 98 350 3 230 3 L230 3 Z " />
<glyph glyph-name="otilde" unicode="&#xf5;" horiz-adv-x="540" d="M379 528 C408 528 431 545 447 572 L438 577 C428 559 408 538 382 538 C348 538 323 576 290 576 C264 576 242 561 228 538 L236 533 C246 549 262 567 286 567 C319 567 340 528 379 528 L379 528 Z M229 -6 C353 -6 467 91 491 215 C516 341 438 438 313 438 C187 438 75 341 50 217 C26 91 102 -6 229 -6 L229 -6 Z M230 3 C109 3 38 98 60 215 C83 334 192 429 313 429 C433 429 505 334 481 217 C458 98 350 3 230 3 L230 3 Z " />
<glyph glyph-name="odieresis" unicode="&#xf6;" horiz-adv-x="540" d="M262 564 C252 564 242 556 241 548 C239 537 245 529 256 529 C265 529 274 537 275 546 C277 556 272 564 262 564 L262 564 Z M415 564 C405 564 396 556 394 548 C393 537 398 529 409 529 C418 529 427 537 429 546 C430 556 425 564 415 564 L415 564 Z M229 -6 C353 -6 467 91 491 215 C516 341 438 438 313 438 C187 438 75 341 50 217 C26 91 102 -6 229 -6 L229 -6 Z M230 3 C109 3 38 98 60 215 C83 334 192 429 313 429 C433 429 505 334 481 217 C458 98 350 3 230 3 L230 3 Z " />
<glyph glyph-name="divide" unicode="&#xf7;" horiz-adv-x="483" d="M279 359 C289 359 298 367 300 377 C302 387 296 395 286 395 C276 395 266 387 264 377 C262 367 269 359 279 359 L279 359 Z M65 250 L431 250 L433 259 L66 259 L65 250 Z M232 113 C242 113 251 121 253 131 C255 141 249 149 239 149 C229 149 219 141 217 131 C215 121 222 113 232 113 L232 113 Z " />
<glyph glyph-name="oslash" unicode="&#xf8;" horiz-adv-x="540" d="M524 441 L519 447 L449 384 C417 418 370 438 313 438 C187 438 75 341 50 217 C37 152 52 94 86 54 L17 -9 L22 -16 L92 48 C124 14 171 -6 229 -6 C352 -6 467 91 491 215 C503 280 489 338 455 378 L524 441 Z M61 215 C84 335 192 428 312 428 C367 428 411 409 441 376 L95 62 C63 100 50 154 61 215 L61 215 Z M480 217 C456 97 349 4 230 4 C175 4 130 23 100 55 L447 371 C479 332 492 278 480 217 L480 217 Z " />
<glyph glyph-name="ugrave" unicode="&#xf9;" horiz-adv-x="467" d="M331 525 C342 512 345 508 352 508 L356 508 L253 648 L242 645 L331 525 Z M192 -12 C263 -12 363 28 390 169 L439 427 L430 427 L381 169 C360 63 292 -3 193 -3 C92 -3 51 63 71 169 L120 427 L111 427 L62 169 C34 27 118 -12 192 -12 L192 -12 Z " />
<glyph glyph-name="uacute" unicode="&#xfa;" horiz-adv-x="467" d="M270 524 L407 644 L397 647 L238 507 L243 507 C249 507 254 511 270 524 L270 524 Z M192 -12 C263 -12 363 28 390 169 L439 427 L430 427 L381 169 C360 63 292 -3 193 -3 C92 -3 51 63 71 169 L120 427 L111 427 L62 169 C34 27 118 -12 192 -12 L192 -12 Z " />
<glyph glyph-name="ucircumflex" unicode="&#xfb;" horiz-adv-x="467" d="M311 599 L305 599 L193 507 L199 507 C205 507 210 510 212 512 L306 588 L370 512 C372 510 376 507 382 507 L388 507 L311 599 Z M192 -12 C263 -12 363 28 390 169 L439 427 L430 427 L381 169 C360 63 292 -3 193 -3 C92 -3 51 63 71 169 L120 427 L111 427 L62 169 C34 27 118 -12 192 -12 L192 -12 Z " />
<glyph glyph-name="udieresis" unicode="&#xfc;" horiz-adv-x="467" d="M227 564 C217 564 207 556 206 548 C204 537 210 529 221 529 C230 529 239 537 240 546 C242 556 237 564 227 564 L227 564 Z M380 564 C370 564 361 556 359 548 C358 537 363 529 374 529 C383 529 392 537 394 546 C395 556 390 564 380 564 L380 564 Z M192 -12 C263 -12 363 28 390 169 L439 427 L430 427 L381 169 C360 63 292 -3 193 -3 C92 -3 51 63 71 169 L120 427 L111 427 L62 169 C34 27 118 -12 192 -12 L192 -12 Z " />
<glyph glyph-name="yacute" unicode="&#xfd;" horiz-adv-x="423" d="M246 524 L383 644 L373 647 L214 507 L219 507 C225 507 230 511 246 524 L246 524 Z M433 427 L172 21 L74 427 L63 427 L165 10 L25 -210 L35 -210 L443 427 L433 427 Z " />
<glyph glyph-name="thorn" unicode="&#xfe;" horiz-adv-x="531" d="M320 438 C225 438 138 374 96 285 L173 680 L163 680 L-5 -190 L4 -190 L70 152 C76 59 137 -7 234 -7 C350 -7 458 87 482 215 C508 345 436 438 320 438 L320 438 Z M472 217 C449 94 346 2 235 2 C126 2 58 93 82 215 C105 337 209 429 319 429 C429 429 496 337 472 217 L472 217 Z " />
<glyph glyph-name="ydieresis" unicode="&#xff;" horiz-adv-x="423" d="M197 529 C206 529 215 537 216 546 C218 556 213 564 203 564 C193 564 183 556 182 548 C180 537 186 529 197 529 L197 529 Z M350 529 C359 529 368 537 370 546 C371 556 366 564 356 564 C346 564 337 556 335 548 C334 537 339 529 350 529 L350 529 Z M433 427 L172 21 L74 427 L63 427 L165 10 L25 -210 L35 -210 L443 427 L433 427 Z " />
<glyph glyph-name="Amacron" unicode="&#x100;" horiz-adv-x="599" d="M488 744 L315 744 L313 735 L485 735 L488 744 Z M509 0 L520 0 L386 640 L376 640 L-4 0 L8 0 L148 236 L460 236 L509 0 Z M153 245 L379 628 L458 245 L153 245 Z " />
<glyph glyph-name="amacron" unicode="&#x101;" horiz-adv-x="533" d="M424 561 L251 561 L249 552 L421 552 L424 561 Z M496 438 L465 285 L464 280 C460 371 399 438 302 438 C186 438 76 345 49 215 C22 87 92 -7 208 -7 C310 -7 403 68 444 169 L439 149 L411 0 L419 0 L505 438 L496 438 Z M211 2 C100 2 33 94 60 217 C85 337 189 429 299 429 C409 429 476 337 450 215 C424 93 320 2 211 2 L211 2 Z " />
<glyph glyph-name="Abreve" unicode="&#x102;" horiz-adv-x="599" d="M392 690 C448 690 494 724 507 770 L498 770 C488 734 450 699 394 699 C339 699 315 734 321 770 L311 770 C304 723 340 690 392 690 L392 690 Z M509 0 L520 0 L386 640 L376 640 L-4 0 L8 0 L148 236 L460 236 L509 0 Z M153 245 L379 628 L458 245 L153 245 Z " />
<glyph glyph-name="abreve" unicode="&#x103;" horiz-adv-x="533" d="M327 507 C383 507 429 541 442 587 L433 587 C423 551 385 516 329 516 C274 516 250 551 256 587 L246 587 C239 540 275 507 327 507 L327 507 Z M496 438 L465 285 L464 280 C460 371 399 438 302 438 C186 438 76 345 49 215 C22 87 92 -7 208 -7 C310 -7 403 68 444 169 L439 149 L411 0 L419 0 L505 438 L496 438 Z M211 2 C100 2 33 94 60 217 C85 337 189 429 299 429 C409 429 476 337 450 215 C424 93 320 2 211 2 L211 2 Z " />
<glyph glyph-name="Aogonek" unicode="&#x104;" horiz-adv-x="599" d="M386 640 L376 640 L-4 0 L8 0 L148 236 L460 236 L509 0 L510 0 C430 -41 411 -89 419 -114 C427 -141 461 -147 496 -130 L495 -122 C416 -158 392 -75 501 -11 L519 0 L520 0 L386 640 Z M153 245 L379 628 L458 245 L153 245 Z " />
<glyph glyph-name="aogonek" unicode="&#x105;" horiz-adv-x="533" d="M505 438 L496 438 L465 285 L464 280 C460 371 399 438 302 438 C186 438 76 345 49 215 C22 87 92 -7 208 -7 C310 -7 403 68 444 169 L439 149 L411 0 C331 -41 312 -89 320 -114 C328 -141 362 -147 397 -130 L396 -122 C317 -158 293 -75 402 -11 L420 0 L419 0 L505 438 Z M211 2 C100 2 33 94 60 217 C85 337 189 429 299 429 C409 429 476 337 450 215 C424 93 320 2 211 2 L211 2 Z " />
<glyph glyph-name="Cacute" unicode="&#x106;" horiz-adv-x="621" d="M441 707 L578 827 L568 830 L409 690 L414 690 C420 690 425 694 441 707 L441 707 Z M344 -10 C412 -10 477 7 531 36 L526 46 C477 17 415 -1 346 -1 C164 -1 65 146 98 319 C132 492 289 640 470 640 C539 640 594 622 632 595 L640 603 C597 632 539 649 470 649 C288 649 123 503 87 321 C52 136 161 -10 344 -10 L344 -10 Z " />
<glyph glyph-name="cacute" unicode="&#x107;" horiz-adv-x="423" d="M278 524 L415 644 L405 647 L246 507 L251 507 C257 507 262 511 278 524 L278 524 Z M218 -6 C269 -6 320 12 361 41 L355 48 C318 20 269 3 219 3 C95 3 37 97 59 216 C82 336 178 430 302 430 C352 430 393 413 420 384 L427 392 C398 421 356 439 303 439 C174 439 73 338 50 218 C26 93 87 -6 218 -6 L218 -6 Z " />
<glyph glyph-name="Ccircumflex" unicode="&#x108;" horiz-adv-x="621" d="M383 695 L477 771 L541 695 C543 693 547 690 553 690 L559 690 L482 782 L476 782 L364 690 L370 690 C376 690 381 693 383 695 L383 695 Z M470 640 C539 640 594 622 632 595 L640 603 C597 632 539 649 470 649 C288 649 123 503 87 321 C52 136 161 -10 344 -10 C412 -10 477 7 531 36 L526 46 C477 17 415 -1 346 -1 C164 -1 65 146 98 319 C132 492 289 640 470 640 L470 640 Z " />
<glyph glyph-name="ccircumflex" unicode="&#x109;" horiz-adv-x="423" d="M319 599 L313 599 L201 507 L207 507 C213 507 218 510 220 512 L314 588 L378 512 C380 510 384 507 390 507 L396 507 L319 599 Z M218 -6 C269 -6 320 12 361 41 L355 48 C318 20 269 3 219 3 C95 3 37 97 59 216 C82 336 178 430 302 430 C352 430 393 413 420 384 L427 392 C398 421 356 439 303 439 C174 439 73 338 50 218 C26 93 87 -6 218 -6 L218 -6 Z " />
<glyph glyph-name="Cdotaccent" unicode="&#x10a;" horiz-adv-x="621" d="M467 721 C478 721 488 729 491 740 C493 751 486 760 475 760 C464 760 454 751 452 740 C450 729 457 721 467 721 L467 721 Z M344 -10 C412 -10 477 7 531 36 L526 46 C477 17 415 -1 346 -1 C164 -1 65 146 98 319 C132 492 289 640 470 640 C539 640 594 622 632 595 L640 603 C597 632 539 649 470 649 C288 649 123 503 87 321 C52 136 161 -10 344 -10 L344 -10 Z " />
<glyph glyph-name="cdotaccent" unicode="&#x10b;" horiz-adv-x="423" d="M305 538 C316 538 326 546 329 557 C331 568 324 577 313 577 C302 577 292 568 290 557 C288 546 295 538 305 538 L305 538 Z M218 -6 C269 -6 320 12 361 41 L355 48 C318 20 269 3 219 3 C95 3 37 97 59 216 C82 336 178 430 302 430 C352 430 393 413 420 384 L427 392 C398 421 356 439 303 439 C174 439 73 338 50 218 C26 93 87 -6 218 -6 L218 -6 Z " />
<glyph glyph-name="Ccaron" unicode="&#x10c;" horiz-adv-x="621" d="M467 690 L579 781 L573 781 C567 781 562 779 559 776 L466 701 L401 776 C400 779 396 781 389 781 L384 781 L461 690 L467 690 Z M470 640 C539 640 594 622 632 595 L640 603 C597 632 539 649 470 649 C288 649 123 503 87 321 C52 136 161 -10 344 -10 C412 -10 477 7 531 36 L526 46 C477 17 415 -1 346 -1 C164 -1 65 146 98 319 C132 492 289 640 470 640 L470 640 Z " />
<glyph glyph-name="ccaron" unicode="&#x10d;" horiz-adv-x="423" d="M299 507 L305 507 L417 598 L411 598 C405 598 400 596 397 593 L304 517 L239 593 C238 596 234 598 227 598 L222 598 L299 507 Z M218 -6 C269 -6 320 12 361 41 L355 48 C318 20 269 3 219 3 C95 3 37 97 59 216 C82 336 178 430 302 430 C352 430 393 413 420 384 L427 392 C398 421 356 439 303 439 C174 439 73 338 50 218 C26 93 87 -6 218 -6 L218 -6 Z " />
<glyph glyph-name="Dcaron" unicode="&#x10e;" horiz-adv-x="637" d="M382 690 L494 781 L488 781 C482 781 477 779 474 776 L381 701 L316 776 C315 779 311 781 304 781 L299 781 L376 690 L382 690 Z M304 640 L189 640 L66 0 L182 0 C415 0 558 142 592 319 C626 498 539 640 304 640 L304 640 Z M581 321 C538 102 360 9 188 9 L78 9 L197 631 L308 631 C479 631 623 539 581 321 L581 321 Z " />
<glyph glyph-name="dcaron" unicode="&#x10f;" horiz-adv-x="534" d="M463 286 C455 374 395 438 300 438 C184 438 75 345 49 215 C23 87 94 -7 210 -7 C307 -7 394 59 437 152 L407 0 L416 0 L552 680 L543 680 L463 286 Z M670 654 C660 654 655 648 653 639 C652 628 664 622 677 629 C676 620 666 582 628 564 L630 559 C656 571 674 596 681 616 C688 637 685 655 670 654 L670 654 Z M213 2 C102 2 35 94 60 217 C84 337 187 429 297 429 C407 429 475 337 450 215 C426 93 322 2 213 2 L213 2 Z " />
<glyph glyph-name="Dcroat" unicode="&#x110;" horiz-adv-x="637" d="M304 640 L189 640 L129 327 L56 327 L54 317 L127 317 L66 0 L182 0 C415 0 558 142 592 319 C626 498 539 640 304 640 L304 640 Z M581 321 C538 102 360 9 188 9 L78 9 L137 317 L257 317 L259 327 L139 327 L197 631 L308 631 C479 631 623 539 581 321 L581 321 Z " />
<glyph glyph-name="dcroat" unicode="&#x111;" horiz-adv-x="535" d="M592 543 L525 543 L552 680 L543 680 L515 543 L389 543 L387 534 L513 534 L463 286 C455 374 395 438 300 438 C184 438 75 345 49 215 C23 87 94 -7 210 -7 C307 -7 394 59 437 152 L407 0 L416 0 L523 534 L590 534 L592 543 Z M213 2 C102 2 35 94 60 217 C84 337 187 429 297 429 C407 429 475 337 450 215 C426 93 322 2 213 2 L213 2 Z " />
<glyph glyph-name="Emacron" unicode="&#x112;" horiz-adv-x="509" d="M455 744 L282 744 L280 735 L452 735 L455 744 Z M512 630 L515 640 L189 640 L66 0 L392 0 L393 10 L78 10 L137 316 L402 316 L404 325 L138 325 L197 630 L512 630 Z " />
<glyph glyph-name="emacron" unicode="&#x113;" horiz-adv-x="463" d="M408 561 L235 561 L233 552 L405 552 L408 561 Z M306 438 C181 438 76 345 51 225 C27 96 84 -6 212 -6 C282 -6 341 23 385 61 L378 69 C338 33 283 4 213 4 C91 4 40 99 61 225 C62 228 62 232 63 235 L187 235 C303 235 419 255 427 338 C431 386 386 438 306 438 L306 438 Z M417 337 C409 282 347 246 193 246 L66 246 C96 347 192 428 306 428 C380 428 422 381 417 337 L417 337 Z " />
<glyph glyph-name="Ebreve" unicode="&#x114;" horiz-adv-x="509" d="M358 690 C414 690 460 724 473 770 L464 770 C454 734 416 699 360 699 C305 699 281 734 287 770 L277 770 C270 723 306 690 358 690 L358 690 Z M512 630 L515 640 L189 640 L66 0 L392 0 L393 10 L78 10 L137 316 L402 316 L404 325 L138 325 L197 630 L512 630 Z " />
<glyph glyph-name="ebreve" unicode="&#x115;" horiz-adv-x="463" d="M311 507 C367 507 413 541 426 587 L417 587 C407 551 369 516 313 516 C258 516 234 551 240 587 L230 587 C223 540 259 507 311 507 L311 507 Z M306 438 C181 438 76 345 51 225 C27 96 84 -6 212 -6 C282 -6 341 23 385 61 L378 69 C338 33 283 4 213 4 C91 4 40 99 61 225 C62 228 62 232 63 235 L187 235 C303 235 419 255 427 338 C431 386 386 438 306 438 L306 438 Z M417 337 C409 282 347 246 193 246 L66 246 C96 347 192 428 306 428 C380 428 422 381 417 337 L417 337 Z " />
<glyph glyph-name="Edotaccent" unicode="&#x116;" horiz-adv-x="509" d="M363 721 C374 721 384 729 387 740 C389 751 382 760 371 760 C360 760 350 751 348 740 C346 729 353 721 363 721 L363 721 Z M512 630 L515 640 L189 640 L66 0 L392 0 L393 10 L78 10 L137 316 L402 316 L404 325 L138 325 L197 630 L512 630 Z " />
<glyph glyph-name="edotaccent" unicode="&#x117;" horiz-adv-x="463" d="M316 538 C327 538 337 546 340 557 C342 568 335 577 324 577 C313 577 303 568 301 557 C299 546 306 538 316 538 L316 538 Z M306 438 C181 438 76 345 51 225 C27 96 84 -6 212 -6 C282 -6 341 23 385 61 L378 69 C338 33 283 4 213 4 C91 4 40 99 61 225 C62 228 62 232 63 235 L187 235 C303 235 419 255 427 338 C431 386 386 438 306 438 L306 438 Z M417 337 C409 282 347 246 193 246 L66 246 C96 347 192 428 306 428 C380 428 422 381 417 337 L417 337 Z " />
<glyph glyph-name="Eogonek" unicode="&#x118;" horiz-adv-x="509" d="M512 630 L515 640 L189 640 L66 0 L382 0 C302 -41 283 -89 291 -114 C299 -141 333 -147 368 -130 L367 -122 C288 -158 264 -75 373 -11 L391 0 L392 0 L393 10 L78 10 L137 316 L402 316 L404 325 L138 325 L197 630 L512 630 Z " />
<glyph glyph-name="eogonek" unicode="&#x119;" horiz-adv-x="463" d="M306 438 C181 438 76 345 51 225 C27 96 84 -6 212 -6 C224 -6 235 -5 246 -4 C172 -44 154 -90 162 -114 C170 -141 204 -147 239 -130 L238 -122 C159 -158 135 -75 244 -11 L260 -1 C309 8 351 32 385 61 L378 69 C338 33 283 4 213 4 C91 4 40 99 61 225 C62 228 62 232 63 235 L187 235 C303 235 419 255 427 338 C431 386 386 438 306 438 L306 438 Z M417 337 C409 282 347 246 193 246 L66 246 C96 347 192 428 306 428 C380 428 422 381 417 337 L417 337 Z " />
<glyph glyph-name="Ecaron" unicode="&#x11a;" horiz-adv-x="509" d="M363 690 L475 781 L469 781 C463 781 458 779 455 776 L362 701 L297 776 C296 779 292 781 285 781 L280 781 L357 690 L363 690 Z M512 630 L515 640 L189 640 L66 0 L392 0 L393 10 L78 10 L137 316 L402 316 L404 325 L138 325 L197 630 L512 630 Z " />
<glyph glyph-name="ecaron" unicode="&#x11b;" horiz-adv-x="463" d="M316 507 L428 598 L422 598 C416 598 411 596 408 593 L315 517 L250 593 C249 596 245 598 238 598 L233 598 L310 507 L316 507 Z M306 438 C181 438 76 345 51 225 C27 96 84 -6 212 -6 C282 -6 341 23 385 61 L378 69 C338 33 283 4 213 4 C91 4 40 99 61 225 C62 228 62 232 63 235 L187 235 C303 235 419 255 427 338 C431 386 386 438 306 438 L306 438 Z M417 337 C409 282 347 246 193 246 L66 246 C96 347 192 428 306 428 C380 428 422 381 417 337 L417 337 Z " />
<glyph glyph-name="Gcircumflex" unicode="&#x11c;" horiz-adv-x="734" d="M391 695 L485 771 L549 695 C551 693 555 690 561 690 L567 690 L490 782 L484 782 L372 690 L378 690 C384 690 389 693 391 695 L391 695 Z M460 321 L458 310 L681 310 C649 131 521 3 345 3 C155 3 64 146 98 322 C132 499 281 640 474 640 C573 640 631 603 649 586 L658 596 C631 619 563 649 474 649 C280 649 122 506 87 323 C52 140 149 -6 344 -6 C542 -6 659 147 692 305 L695 321 L460 321 Z " />
<glyph glyph-name="gcircumflex" unicode="&#x11d;" horiz-adv-x="534" d="M253 512 L347 588 L411 512 C413 510 417 507 423 507 L429 507 L352 599 L346 599 L234 507 L240 507 C246 507 251 510 253 512 L253 512 Z M492 427 L464 283 C458 373 397 438 302 438 C186 438 76 345 49 215 C22 87 92 -7 208 -7 C307 -7 397 63 440 158 L412 10 C385 -124 319 -201 184 -201 C159 -201 143 -199 125 -194 L121 -203 C140 -207 159 -210 183 -210 C320 -210 392 -138 423 20 L500 427 L492 427 Z M211 2 C100 2 33 94 60 216 C85 337 189 429 299 429 C409 429 476 337 450 215 C424 93 320 2 211 2 L211 2 Z " />
<glyph glyph-name="Gbreve" unicode="&#x11e;" horiz-adv-x="734" d="M471 690 C527 690 573 724 586 770 L577 770 C567 734 529 699 473 699 C418 699 394 734 400 770 L390 770 C383 723 419 690 471 690 L471 690 Z M460 321 L458 310 L681 310 C649 131 521 3 345 3 C155 3 64 146 98 322 C132 499 281 640 474 640 C573 640 631 603 649 586 L658 596 C631 619 563 649 474 649 C280 649 122 506 87 323 C52 140 149 -6 344 -6 C542 -6 659 147 692 305 L695 321 L460 321 Z " />
<glyph glyph-name="gbreve" unicode="&#x11f;" horiz-adv-x="534" d="M333 507 C389 507 435 541 448 587 L439 587 C429 551 391 516 335 516 C280 516 256 551 262 587 L252 587 C245 540 281 507 333 507 L333 507 Z M492 427 L464 283 C458 373 397 438 302 438 C186 438 76 345 49 215 C22 87 92 -7 208 -7 C307 -7 397 63 440 158 L412 10 C385 -124 319 -201 184 -201 C159 -201 143 -199 125 -194 L121 -203 C140 -207 159 -210 183 -210 C320 -210 392 -138 423 20 L500 427 L492 427 Z M211 2 C100 2 33 94 60 216 C85 337 189 429 299 429 C409 429 476 337 450 215 C424 93 320 2 211 2 L211 2 Z " />
<glyph glyph-name="Gdotaccent" unicode="&#x120;" horiz-adv-x="734" d="M476 721 C487 721 497 729 500 740 C502 751 495 760 484 760 C473 760 463 751 461 740 C459 729 466 721 476 721 L476 721 Z M460 321 L458 310 L681 310 C649 131 521 3 345 3 C155 3 64 146 98 322 C132 499 281 640 474 640 C573 640 631 603 649 586 L658 596 C631 619 563 649 474 649 C280 649 122 506 87 323 C52 140 149 -6 344 -6 C542 -6 659 147 692 305 L695 321 L460 321 Z " />
<glyph glyph-name="gdotaccent" unicode="&#x121;" horiz-adv-x="534" d="M337 538 C348 538 358 546 361 557 C363 568 356 577 345 577 C334 577 324 568 322 557 C320 546 327 538 337 538 L337 538 Z M492 427 L464 283 C458 373 397 438 302 438 C186 438 76 345 49 215 C22 87 92 -7 208 -7 C307 -7 397 63 440 158 L412 10 C385 -124 319 -201 184 -201 C159 -201 143 -199 125 -194 L121 -203 C140 -207 159 -210 183 -210 C320 -210 392 -138 423 20 L500 427 L492 427 Z M211 2 C100 2 33 94 60 216 C85 337 189 429 299 429 C409 429 476 337 450 215 C424 93 320 2 211 2 L211 2 Z " />
<glyph glyph-name="uni0122" unicode="&#x122;" horiz-adv-x="734" d="M460 321 L458 310 L681 310 C649 131 521 3 345 3 C155 3 64 146 98 322 C132 499 281 640 474 640 C573 640 631 603 649 586 L658 596 C631 619 563 649 474 649 C280 649 122 506 87 323 C52 140 149 -6 344 -6 C542 -6 659 147 692 305 L695 321 L460 321 Z M309 -76 C298 -76 293 -82 291 -91 C290 -102 302 -108 315 -101 C314 -110 304 -148 266 -166 L268 -171 C294 -159 312 -134 319 -114 C326 -93 323 -75 309 -76 L309 -76 Z " />
<glyph glyph-name="uni0123" unicode="&#x123;" horiz-adv-x="534" d="M354 541 C365 541 371 549 373 559 C374 571 361 577 346 569 C347 579 359 621 401 641 L399 647 C369 634 350 606 341 583 C334 560 337 541 354 541 L354 541 Z M492 427 L464 283 C458 373 397 438 302 438 C186 438 76 345 49 215 C22 87 92 -7 208 -7 C307 -7 397 63 440 158 L412 10 C385 -124 319 -201 184 -201 C159 -201 143 -199 125 -194 L121 -203 C140 -207 159 -210 183 -210 C320 -210 392 -138 423 20 L500 427 L492 427 Z M211 2 C100 2 33 94 60 216 C85 337 189 429 299 429 C409 429 476 337 450 215 C424 93 320 2 211 2 L211 2 Z " />
<glyph glyph-name="Hcircumflex" unicode="&#x124;" horiz-adv-x="688" d="M356 695 L450 771 L514 695 C516 693 520 690 526 690 L532 690 L455 782 L449 782 L337 690 L343 690 C349 690 354 693 356 695 L356 695 Z M653 640 L596 341 L142 341 L199 640 L189 640 L66 0 L76 0 L140 332 L594 332 L530 0 L540 0 L663 640 L653 640 Z " />
<glyph glyph-name="hcircumflex" unicode="&#x125;" horiz-adv-x="470" d="M98 715 L191 791 L256 715 C257 713 261 710 267 710 L273 710 L196 801 L190 801 L78 710 L84 710 C90 710 95 713 98 715 L98 715 Z M281 439 C203 439 138 386 102 313 L173 680 L163 680 L31 0 L41 0 L94 272 C125 366 195 430 281 430 C362 430 422 381 395 246 L349 0 L358 0 L406 247 C435 401 355 439 281 439 L281 439 Z " />
<glyph glyph-name="Hbar" unicode="&#x126;" horiz-adv-x="688" d="M653 640 L625 494 L171 494 L199 640 L189 640 L66 0 L76 0 L140 332 L594 332 L530 0 L540 0 L663 640 L653 640 Z M142 341 L169 486 L623 486 L596 341 L142 341 Z " />
<glyph glyph-name="hbar" unicode="&#x127;" horiz-adv-x="469" d="M281 439 C203 439 138 386 102 313 L145 534 L272 534 L274 544 L147 544 L173 680 L163 680 L137 544 L71 544 L69 534 L135 534 L31 0 L41 0 L94 272 C125 366 195 430 281 430 C362 430 422 381 395 246 L349 0 L358 0 L406 247 C435 401 355 439 281 439 L281 439 Z " />
<glyph glyph-name="Itilde" unicode="&#x128;" horiz-adv-x="242" d="M265 711 C294 711 317 728 333 755 L324 760 C314 742 294 721 268 721 C234 721 209 759 176 759 C150 759 128 744 114 721 L122 716 C132 732 148 750 172 750 C205 750 226 711 265 711 L265 711 Z M209 640 L199 640 L74 0 L84 0 L209 640 Z " />
<glyph glyph-name="itilde" unicode="&#x129;" horiz-adv-x="185" d="M202 528 C231 528 254 545 270 572 L261 577 C251 559 231 538 205 538 C171 538 146 576 113 576 C87 576 65 561 51 538 L59 533 C69 549 85 567 109 567 C142 567 163 528 202 528 L202 528 Z M46 0 L56 0 L139 427 L130 427 L46 0 Z " />
<glyph glyph-name="Imacron" unicode="&#x12a;" horiz-adv-x="198" d="M113 734 L286 734 L288 743 L115 743 L113 734 Z M209 640 L199 640 L74 0 L84 0 L209 640 Z " />
<glyph glyph-name="imacron" unicode="&#x12b;" horiz-adv-x="185" d="M72 552 L244 552 L247 561 L74 561 L72 552 Z M46 0 L56 0 L139 427 L130 427 L46 0 Z " />
<glyph glyph-name="Ibreve" unicode="&#x12c;" horiz-adv-x="242" d="M214 690 C270 690 316 724 329 770 L320 770 C310 734 272 699 216 699 C161 699 137 734 143 770 L133 770 C126 723 162 690 214 690 L214 690 Z M209 640 L199 640 L74 0 L84 0 L209 640 Z " />
<glyph glyph-name="ibreve" unicode="&#x12d;" horiz-adv-x="185" d="M150 507 C206 507 252 541 265 587 L256 587 C246 551 208 516 152 516 C97 516 73 551 79 587 L69 587 C62 540 98 507 150 507 L150 507 Z M46 0 L56 0 L139 427 L130 427 L46 0 Z " />
<glyph glyph-name="Iogonek" unicode="&#x12e;" horiz-adv-x="242" d="M209 640 L199 640 L74 0 L77 0 C-3 -41 -22 -89 -14 -114 C-6 -141 28 -147 63 -130 L62 -122 C-17 -158 -41 -75 68 -11 L86 0 L84 0 L209 640 Z " />
<glyph glyph-name="iogonek" unicode="&#x12f;" horiz-adv-x="185" d="M163 577 C152 577 142 568 140 557 C138 546 145 538 155 538 C166 538 176 546 179 557 C181 568 174 577 163 577 L163 577 Z M46 0 L47 0 C-33 -41 -52 -89 -44 -114 C-36 -141 -2 -147 33 -130 L32 -122 C-47 -158 -71 -75 38 -11 L56 0 L139 427 L130 427 L46 0 Z " />
<glyph glyph-name="Idotaccent" unicode="&#x130;" horiz-adv-x="242" d="M219 721 C230 721 240 729 243 740 C245 751 238 760 227 760 C216 760 206 751 204 740 C202 729 209 721 219 721 L219 721 Z M209 640 L199 640 L74 0 L84 0 L209 640 Z " />
<glyph glyph-name="dotlessi" unicode="&#x131;" horiz-adv-x="185" d="M46 0 L56 0 L139 427 L130 427 L46 0 Z " />
<glyph glyph-name="ij" unicode="&#x133;" horiz-adv-x="395" d="M159 548 C169 548 180 556 182 567 C184 578 177 587 166 587 C155 587 145 578 143 567 C141 556 148 548 159 548 L159 548 Z M366 548 C377 548 387 556 390 567 C392 578 385 587 374 587 C363 587 353 578 351 567 C349 556 356 548 366 548 L366 548 Z M46 0 L56 0 L139 427 L130 427 L46 0 Z M248 -96 L348 427 L339 427 L239 -95 C224 -172 179 -207 104 -199 L103 -209 C173 -217 230 -188 248 -96 L248 -96 Z " />
<glyph glyph-name="Jcircumflex" unicode="&#x134;" horiz-adv-x="367" d="M382 772 L376 772 L264 680 L270 680 C276 680 281 683 283 685 L377 761 L441 685 C443 683 447 680 453 680 L459 680 L382 772 Z M116 -6 C192 -6 244 46 262 136 L359 640 L349 640 L251 129 C236 52 187 3 118 3 C69 3 49 20 33 51 L23 45 C39 15 64 -6 116 -6 L116 -6 Z " />
<glyph glyph-name="jcircumflex" unicode="&#x135;" horiz-adv-x="210" d="M194 600 L188 600 L76 508 L82 508 C88 508 93 511 95 513 L189 589 L253 513 C255 511 259 508 265 508 L271 508 L194 600 Z M63 -96 L163 427 L154 427 L54 -95 C39 -172 -6 -207 -81 -199 L-82 -209 C-12 -217 45 -188 63 -96 L63 -96 Z " />
<glyph glyph-name="uni0136" unicode="&#x136;" horiz-adv-x="559" d="M199 640 L189 640 L66 0 L76 0 L199 640 Z M152 340 L445 0 L462 0 L167 340 L577 640 L561 640 L152 340 Z M166 -171 C192 -159 210 -134 217 -114 C224 -93 221 -75 207 -76 C196 -76 191 -82 189 -91 C188 -102 200 -108 213 -101 C212 -110 202 -148 164 -166 L166 -171 Z " />
<glyph glyph-name="uni0137" unicode="&#x137;" horiz-adv-x="393" d="M32 0 L42 0 L173 680 L163 680 L32 0 Z M322 0 L338 0 L113 235 L393 427 L377 427 L97 235 L322 0 Z M107 -171 C133 -159 151 -134 158 -114 C165 -93 162 -75 148 -76 C137 -76 132 -82 130 -91 C129 -102 141 -108 154 -101 C153 -110 143 -148 105 -166 L107 -171 Z " />
<glyph glyph-name="kgreenlandic" unicode="&#x138;" horiz-adv-x="411" d="M33 0 L43 0 L126 438 L117 438 L33 0 Z M331 0 L345 0 L115 240 L403 438 L388 438 L100 240 L331 0 Z " />
<glyph glyph-name="Lacute" unicode="&#x139;" horiz-adv-x="466" d="M199 707 L336 827 L326 830 L167 690 L172 690 C178 690 183 694 199 707 L199 707 Z M78 10 L199 640 L189 640 L66 0 L369 0 L370 10 L78 10 Z " />
<glyph glyph-name="lacute" unicode="&#x13a;" horiz-adv-x="163" d="M161 748 L298 868 L288 871 L130 731 L134 731 C140 731 146 735 161 748 L161 748 Z M35 0 L45 0 L177 680 L167 680 L35 0 Z " />
<glyph glyph-name="uni013B" unicode="&#x13b;" horiz-adv-x="466" d="M78 10 L199 640 L189 640 L66 0 L369 0 L370 10 L78 10 Z M167 -76 C156 -76 151 -82 149 -91 C148 -102 160 -108 173 -101 C172 -110 162 -148 124 -166 L126 -171 C152 -159 170 -134 177 -114 C184 -93 181 -75 167 -76 L167 -76 Z " />
<glyph glyph-name="uni013C" unicode="&#x13c;" horiz-adv-x="163" d="M35 0 L45 0 L177 680 L167 680 L35 0 Z M-29 -171 C-3 -159 15 -134 22 -114 C29 -93 26 -75 12 -76 C1 -76 -4 -82 -6 -91 C-7 -102 5 -108 18 -101 C17 -110 7 -148 -31 -166 L-29 -171 Z " />
<glyph glyph-name="Lcaron" unicode="&#x13d;" horiz-adv-x="469" d="M199 640 L189 640 L66 0 L369 0 L370 10 L78 10 L199 640 Z M367 622 C356 622 351 615 349 606 C348 595 360 590 373 597 C373 587 362 550 324 532 L326 527 C353 538 370 563 377 584 C385 605 381 622 367 622 L367 622 Z " />
<glyph glyph-name="lcaron" unicode="&#x13e;" horiz-adv-x="163" d="M35 0 L45 0 L177 680 L167 680 L35 0 Z M274 567 C300 579 318 604 325 624 C332 645 329 663 314 662 C304 662 299 656 297 647 C295 636 308 630 321 637 C320 628 310 590 272 572 L274 567 Z " />
<glyph glyph-name="Ldot" unicode="&#x13f;" horiz-adv-x="430" d="M199 640 L189 640 L66 0 L369 0 L370 10 L78 10 L199 640 Z M362 383 C351 383 341 375 339 364 C336 353 343 344 354 344 C365 344 375 353 377 364 C380 375 373 383 362 383 L362 383 Z " />
<glyph glyph-name="ldot" unicode="&#x140;" horiz-adv-x="285" d="M31 0 L41 0 L173 680 L163 680 L31 0 Z M235 314 C246 314 257 323 259 334 C261 345 254 353 243 353 C232 353 222 345 220 334 C218 323 225 314 235 314 L235 314 Z " />
<glyph glyph-name="Lslash" unicode="&#x141;" horiz-adv-x="466" d="M78 10 L137 320 L206 366 L209 377 L139 330 L199 640 L189 640 L128 322 L60 276 L58 266 L126 312 L66 0 L369 0 L370 10 L78 10 Z " />
<glyph glyph-name="lslash" unicode="&#x142;" horiz-adv-x="163" d="M183 402 L114 355 L177 680 L167 680 L102 347 L34 301 L32 291 L100 337 L35 0 L45 0 L112 345 L180 391 L183 402 Z " />
<glyph glyph-name="Nacute" unicode="&#x143;" horiz-adv-x="742" d="M440 707 L577 827 L567 830 L408 690 L413 690 C419 690 424 694 440 707 L440 707 Z M707 640 L586 18 L199 640 L189 640 L66 0 L77 0 L196 623 L583 0 L594 0 L717 640 L707 640 Z " />
<glyph glyph-name="nacute" unicode="&#x144;" horiz-adv-x="471" d="M279 524 L416 644 L406 647 L247 507 L252 507 C258 507 263 511 279 524 L279 524 Z M283 439 C203 439 136 383 101 307 L123 427 L115 427 L33 0 L43 0 L89 244 C113 353 189 430 283 430 C364 430 424 381 398 246 L351 0 L361 0 L408 247 C437 401 357 439 283 439 L283 439 Z " />
<glyph glyph-name="uni0145" unicode="&#x145;" horiz-adv-x="742" d="M707 640 L586 18 L199 640 L189 640 L66 0 L77 0 L196 623 L583 0 L594 0 L717 640 L707 640 Z M302 -76 C291 -76 286 -82 284 -91 C283 -102 295 -108 308 -101 C307 -110 297 -148 259 -166 L261 -171 C287 -159 305 -134 312 -114 C319 -93 316 -75 302 -76 L302 -76 Z " />
<glyph glyph-name="uni0146" unicode="&#x146;" horiz-adv-x="471" d="M283 439 C203 439 136 383 101 307 L123 427 L115 427 L33 0 L43 0 L89 244 C113 353 189 430 283 430 C364 430 424 381 398 246 L351 0 L361 0 L408 247 C437 401 357 439 283 439 L283 439 Z M173 -76 C162 -76 157 -82 155 -91 C154 -102 166 -108 179 -101 C178 -110 168 -148 130 -166 L132 -171 C158 -159 176 -134 183 -114 C190 -93 187 -75 173 -76 L173 -76 Z " />
<glyph glyph-name="Ncaron" unicode="&#x147;" horiz-adv-x="742" d="M467 690 L579 781 L573 781 C567 781 562 779 559 776 L466 700 L401 776 C400 779 396 781 389 781 L384 781 L461 690 L467 690 Z M707 640 L586 18 L199 640 L189 640 L66 0 L77 0 L196 623 L583 0 L594 0 L717 640 L707 640 Z " />
<glyph glyph-name="ncaron" unicode="&#x148;" horiz-adv-x="471" d="M305 507 L417 598 L411 598 C405 598 400 596 397 593 L304 517 L239 593 C238 596 234 598 227 598 L222 598 L299 507 L305 507 Z M283 439 C203 439 136 383 101 307 L123 427 L115 427 L33 0 L43 0 L89 244 C113 353 189 430 283 430 C364 430 424 381 398 246 L351 0 L361 0 L408 247 C437 401 357 439 283 439 L283 439 Z " />
<glyph glyph-name="napostrophe" unicode="&#x149;" horiz-adv-x="490" d="M174 596 C184 624 179 648 159 648 C144 648 137 639 135 626 C133 611 150 604 168 613 C167 600 152 549 100 523 L102 516 C139 533 163 567 174 596 L174 596 Z M302 439 C221 439 155 384 120 308 L142 427 L133 427 L52 0 L61 0 L111 258 C139 360 212 430 302 430 C382 430 442 381 416 246 L369 0 L379 0 L426 247 C456 401 376 439 302 439 L302 439 Z " />
<glyph glyph-name="Eng" unicode="&#x14a;" horiz-adv-x="742" d="M707 640 L586 18 L199 640 L189 640 L66 0 L77 0 L196 623 L347 380 L324 415 L456 205 L583 0 L584 0 L575 -44 C553 -155 484 -167 439 -147 L435 -156 C486 -181 563 -165 587 -36 L594 0 L717 640 L707 640 Z " />
<glyph glyph-name="eng" unicode="&#x14b;" horiz-adv-x="471" d="M283 439 C203 439 136 383 101 307 L123 427 L115 427 L33 0 L43 0 L89 244 C113 353 189 430 283 430 C364 430 424 381 398 246 L351 0 L338 -67 C329 -113 303 -127 267 -120 L265 -128 C306 -140 337 -118 348 -67 L360 0 L361 0 L408 247 C437 401 357 439 283 439 L283 439 Z " />
<glyph glyph-name="Omacron" unicode="&#x14c;" horiz-adv-x="791" d="M427 735 L599 735 L602 744 L429 744 L427 735 Z M353 -6 C542 -6 711 139 746 320 C782 504 668 649 478 649 C291 649 122 505 87 322 C51 140 164 -6 353 -6 L353 -6 Z M354 3 C169 3 64 146 97 320 C132 497 293 640 479 640 C663 640 770 499 736 322 C702 147 539 3 354 3 L354 3 Z " />
<glyph glyph-name="omacron" unicode="&#x14d;" horiz-adv-x="540" d="M249 552 L421 552 L424 561 L251 561 L249 552 Z M229 -6 C353 -6 467 91 491 215 C516 341 438 438 313 438 C187 438 75 341 50 217 C26 91 102 -6 229 -6 L229 -6 Z M230 3 C109 3 38 98 60 215 C83 334 192 429 313 429 C433 429 505 334 481 217 C458 98 350 3 230 3 L230 3 Z " />
<glyph glyph-name="Obreve" unicode="&#x14e;" horiz-adv-x="791" d="M505 690 C561 690 607 724 620 770 L611 770 C601 734 563 699 507 699 C452 699 428 734 434 770 L424 770 C417 723 453 690 505 690 L505 690 Z M353 -6 C542 -6 711 139 746 320 C782 504 668 649 478 649 C291 649 122 505 87 322 C51 140 164 -6 353 -6 L353 -6 Z M354 3 C169 3 64 146 97 320 C132 497 293 640 479 640 C663 640 770 499 736 322 C702 147 539 3 354 3 L354 3 Z " />
<glyph glyph-name="obreve" unicode="&#x14f;" horiz-adv-x="540" d="M328 507 C384 507 430 541 443 587 L434 587 C424 551 386 516 330 516 C275 516 251 551 257 587 L247 587 C240 540 276 507 328 507 L328 507 Z M229 -6 C353 -6 467 91 491 215 C516 341 438 438 313 438 C187 438 75 341 50 217 C26 91 102 -6 229 -6 L229 -6 Z M230 3 C109 3 38 98 60 215 C83 334 192 429 313 429 C433 429 505 334 481 217 C458 98 350 3 230 3 L230 3 Z " />
<glyph glyph-name="Ohungarumlaut" unicode="&#x150;" horiz-adv-x="791" d="M457 707 L594 827 L585 830 L426 690 L430 690 C436 690 442 694 457 707 L457 707 Z M556 707 L693 827 L683 830 L525 690 L529 690 C535 690 540 694 556 707 L556 707 Z M353 -6 C542 -6 711 139 746 320 C782 504 668 649 478 649 C291 649 122 505 87 322 C51 140 164 -6 353 -6 L353 -6 Z M354 3 C169 3 64 146 97 320 C132 497 293 640 479 640 C663 640 770 499 736 322 C702 147 539 3 354 3 L354 3 Z " />
<glyph glyph-name="ohungarumlaut" unicode="&#x151;" horiz-adv-x="540" d="M279 524 L416 644 L407 647 L248 507 L252 507 C258 507 264 511 279 524 L279 524 Z M378 524 L515 644 L505 647 L347 507 L351 507 C357 507 362 511 378 524 L378 524 Z M229 -6 C353 -6 467 91 491 215 C516 341 438 438 313 438 C187 438 75 341 50 217 C26 91 102 -6 229 -6 L229 -6 Z M230 3 C109 3 38 98 60 215 C83 334 192 429 313 429 C433 429 505 334 481 217 C458 98 350 3 230 3 L230 3 Z " />
<glyph glyph-name="OE" unicode="&#x152;" horiz-adv-x="1128" d="M478 649 C291 649 122 505 87 322 C51 140 164 -6 353 -6 C542 -6 711 139 746 320 C782 504 668 649 478 649 L478 649 Z M736 322 C702 147 539 3 354 3 C169 3 64 146 97 320 C132 497 293 640 479 640 C663 640 770 499 736 322 L736 322 Z M1131 630 L1133 640 L808 640 L685 0 L1010 0 L1012 10 L697 10 L756 316 L1021 316 L1022 325 L757 325 L816 630 L1131 630 Z " />
<glyph glyph-name="oe" unicode="&#x153;" horiz-adv-x="896" d="M738 438 C628 438 533 365 496 265 C494 366 421 438 313 438 C187 438 75 341 50 217 C26 91 102 -6 229 -6 C338 -6 440 69 479 172 C478 69 535 -6 645 -6 C714 -6 773 23 818 61 L811 69 C771 33 716 4 646 4 C523 4 473 99 494 225 C495 228 495 232 496 235 L620 235 C736 235 851 255 860 338 C864 386 819 438 738 438 L738 438 Z M230 3 C109 3 38 98 60 215 C83 334 192 429 313 429 C433 429 505 334 481 217 C458 98 350 3 230 3 L230 3 Z M849 337 C842 282 779 246 626 246 L499 246 C529 347 625 428 739 428 C813 428 855 381 849 337 L849 337 Z " />
<glyph glyph-name="Racute" unicode="&#x154;" horiz-adv-x="499" d="M314 707 L451 827 L441 830 L282 690 L287 690 C293 690 298 694 314 707 L314 707 Z M324 640 L189 640 L66 0 L76 0 L139 326 L209 326 L402 0 L415 0 L222 326 L264 326 C357 326 457 372 478 480 C499 590 417 640 324 640 L324 640 Z M468 482 C448 379 357 335 259 335 L140 335 L197 631 L319 631 C417 631 486 581 468 482 L468 482 Z " />
<glyph glyph-name="racute" unicode="&#x155;" horiz-adv-x="245" d="M178 524 L315 644 L305 647 L146 507 L151 507 C157 507 162 511 178 524 L178 524 Z M104 327 L122 427 L115 427 L33 0 L43 0 L101 306 L95 271 C111 365 171 428 238 428 C249 428 253 427 263 425 L268 436 C261 438 254 439 246 439 C175 439 129 384 104 327 L104 327 Z M95 271 C94 270 94 269 94 268 L95 271 Z " />
<glyph glyph-name="uni0156" unicode="&#x156;" horiz-adv-x="499" d="M324 640 L189 640 L66 0 L76 0 L139 326 L209 326 L402 0 L415 0 L222 326 L264 326 C357 326 457 372 478 480 C499 590 417 640 324 640 L324 640 Z M468 482 C448 379 357 335 259 335 L140 335 L197 631 L319 631 C417 631 486 581 468 482 L468 482 Z M196 -76 C185 -76 180 -82 178 -91 C177 -102 189 -108 202 -101 C201 -110 191 -148 153 -166 L155 -171 C181 -159 199 -134 206 -114 C213 -93 210 -75 196 -76 L196 -76 Z " />
<glyph glyph-name="uni0157" unicode="&#x157;" horiz-adv-x="245" d="M246 439 C175 439 129 384 104 327 L122 427 L115 427 L33 0 L43 0 L101 306 L95 271 C111 365 171 428 238 428 C249 428 253 427 263 425 L268 436 C261 438 254 439 246 439 L246 439 Z M95 271 C94 270 94 269 94 268 L95 271 Z M10 -76 C-1 -76 -6 -82 -8 -91 C-9 -102 3 -108 16 -101 C15 -110 5 -148 -33 -166 L-31 -171 C-5 -159 13 -134 20 -114 C27 -93 24 -75 10 -76 L10 -76 Z " />
<glyph glyph-name="Rcaron" unicode="&#x158;" horiz-adv-x="499" d="M340 690 L452 781 L446 781 C440 781 435 779 432 776 L339 700 L274 776 C273 779 269 781 262 781 L257 781 L334 690 L340 690 Z M324 640 L189 640 L66 0 L76 0 L139 326 L209 326 L402 0 L415 0 L222 326 L264 326 C357 326 457 372 478 480 C499 590 417 640 324 640 L324 640 Z M468 482 C448 379 357 335 259 335 L140 335 L197 631 L319 631 C417 631 486 581 468 482 L468 482 Z " />
<glyph glyph-name="rcaron" unicode="&#x159;" horiz-adv-x="245" d="M204 507 L316 598 L310 598 C304 598 299 596 296 593 L203 517 L138 593 C137 596 133 598 126 598 L121 598 L198 507 L204 507 Z M104 327 L122 427 L115 427 L33 0 L43 0 L101 306 L95 271 C111 365 171 428 238 428 C249 428 253 427 263 425 L268 436 C261 438 254 439 246 439 C175 439 129 384 104 327 L104 327 Z M95 271 C94 270 94 269 94 268 L95 271 Z " />
<glyph glyph-name="Sacute" unicode="&#x15a;" horiz-adv-x="490" d="M315 707 L452 827 L442 830 L283 690 L288 690 C294 690 299 694 315 707 L315 707 Z M197 -6 C301 -6 383 53 400 141 C419 236 360 282 281 328 C215 368 130 407 149 501 C165 587 237 640 316 640 C387 640 430 609 452 579 L462 586 C443 617 391 649 318 649 C241 649 158 603 139 502 C121 404 201 362 271 321 C354 272 407 229 390 142 C375 62 298 3 199 3 C110 3 61 37 39 80 L29 74 C45 39 94 -6 197 -6 L197 -6 Z " />
<glyph glyph-name="sacute" unicode="&#x15b;" horiz-adv-x="359" d="M223 524 L360 644 L350 647 L191 507 L196 507 C202 507 207 511 223 524 L223 524 Z M9 59 C22 30 63 -6 129 -6 C208 -6 276 37 290 111 C322 274 62 190 87 328 C97 392 152 429 218 428 C273 428 302 409 321 387 L330 396 C310 417 278 438 219 438 C147 438 88 395 77 330 C49 175 309 264 280 111 C267 44 208 3 132 3 C70 3 31 37 20 67 L9 59 Z " />
<glyph glyph-name="Scircumflex" unicode="&#x15c;" horiz-adv-x="490" d="M356 782 L350 782 L238 690 L244 690 C250 690 255 693 257 695 L351 771 L415 695 C417 693 421 690 427 690 L433 690 L356 782 Z M197 -6 C301 -6 383 53 400 141 C419 236 360 282 281 328 C215 368 130 407 149 501 C165 587 237 640 316 640 C387 640 430 609 452 579 L462 586 C443 617 391 649 318 649 C241 649 158 603 139 502 C121 404 201 362 271 321 C354 272 407 229 390 142 C375 62 298 3 199 3 C110 3 61 37 39 80 L29 74 C45 39 94 -6 197 -6 L197 -6 Z " />
<glyph glyph-name="scircumflex" unicode="&#x15d;" horiz-adv-x="359" d="M264 599 L258 599 L146 507 L152 507 C158 507 163 510 165 512 L259 588 L323 512 C325 510 329 507 335 507 L341 507 L264 599 Z M9 59 C22 30 63 -6 129 -6 C208 -6 276 37 290 111 C322 274 62 190 87 328 C97 392 152 429 218 428 C273 428 302 409 321 387 L330 396 C310 417 278 438 219 438 C147 438 88 395 77 330 C49 175 309 264 280 111 C267 44 208 3 132 3 C70 3 31 37 20 67 L9 59 Z " />
<glyph glyph-name="Scedilla" unicode="&#x15e;" horiz-adv-x="490" d="M318 649 C241 649 158 603 139 502 C121 404 201 362 271 321 C354 272 407 229 390 142 C375 62 298 3 199 3 C110 3 61 37 39 80 L29 74 C45 40 92 -4 192 -6 L125 -78 L128 -83 C176 -64 242 -69 226 -112 C215 -138 182 -161 130 -158 C104 -156 83 -146 77 -139 L68 -147 C79 -156 104 -168 137 -168 C176 -167 222 -151 238 -112 C249 -82 227 -67 201 -64 C180 -63 154 -67 141 -70 L199 -6 C302 -5 383 54 400 141 C419 236 360 282 281 328 C215 368 130 407 149 501 C165 587 237 640 316 640 C387 640 430 609 452 579 L462 586 C443 617 391 649 318 649 L318 649 Z " />
<glyph glyph-name="scedilla" unicode="&#x15f;" horiz-adv-x="359" d="M219 438 C147 438 88 395 77 330 C49 175 309 264 280 111 C267 44 208 3 132 3 C70 3 31 37 20 67 L9 59 C22 30 63 -6 129 -6 L139 -6 L72 -78 L75 -83 C123 -64 189 -69 173 -112 C162 -138 129 -161 77 -158 C51 -156 30 -146 24 -139 L15 -147 C26 -156 51 -168 84 -168 C123 -167 169 -151 185 -112 C196 -82 174 -67 148 -64 C127 -63 101 -67 88 -70 L146 -5 C218 1 277 43 290 111 C322 274 62 190 87 328 C97 392 152 429 218 428 C273 428 302 409 321 387 L330 396 C310 417 278 438 219 438 L219 438 Z " />
<glyph glyph-name="Scaron" unicode="&#x160;" horiz-adv-x="490" d="M335 690 L341 690 L453 781 L447 781 C441 781 436 779 433 776 L340 700 L275 776 C274 779 270 781 263 781 L258 781 L335 690 Z M197 -6 C301 -6 383 53 400 141 C419 236 360 282 281 328 C215 368 130 407 149 501 C165 587 237 640 316 640 C387 640 430 609 452 579 L462 586 C443 617 391 649 318 649 C241 649 158 603 139 502 C121 404 201 362 271 321 C354 272 407 229 390 142 C375 62 298 3 199 3 C110 3 61 37 39 80 L29 74 C45 39 94 -6 197 -6 L197 -6 Z " />
<glyph glyph-name="scaron" unicode="&#x161;" horiz-adv-x="359" d="M244 507 L250 507 L362 598 L356 598 C350 598 345 596 342 593 L249 517 L184 593 C183 596 179 598 172 598 L167 598 L244 507 Z M9 59 C22 30 63 -6 129 -6 C208 -6 276 37 290 111 C322 274 62 190 87 328 C97 392 152 429 218 428 C273 428 302 409 321 387 L330 396 C310 417 278 438 219 438 C147 438 88 395 77 330 C49 175 309 264 280 111 C267 44 208 3 132 3 C70 3 31 37 20 67 L9 59 Z " />
<glyph glyph-name="uni0162" unicode="&#x162;" horiz-adv-x="516" d="M534 630 L536 640 L147 640 L145 630 L334 630 L213 0 L214 0 L142 -78 L145 -83 C193 -64 259 -69 243 -112 C232 -138 199 -161 147 -158 C121 -156 100 -146 94 -139 L85 -147 C96 -156 121 -168 154 -168 C193 -167 239 -151 255 -112 C266 -82 244 -67 218 -64 C197 -63 171 -67 158 -70 L221 0 L223 0 L223 2 L224 3 L344 630 L534 630 Z " />
<glyph glyph-name="uni0163" unicode="&#x163;" horiz-adv-x="272" d="M272 419 L273 427 L159 427 L184 557 L174 557 L149 427 L91 427 L89 419 L148 419 L68 0 L69 0 L-3 -78 L0 -83 C48 -64 114 -69 98 -112 C87 -138 54 -161 2 -158 C-24 -156 -45 -146 -51 -139 L-60 -147 C-49 -156 -24 -168 9 -168 C48 -167 94 -151 110 -112 C121 -82 99 -67 73 -64 C52 -63 26 -67 13 -70 L76 0 L78 0 L78 2 L79 3 L158 419 L272 419 Z " />
<glyph glyph-name="Tcaron" unicode="&#x164;" horiz-adv-x="516" d="M357 690 L469 781 L463 781 C457 781 452 779 449 776 L356 700 L291 776 C290 779 286 781 279 781 L274 781 L351 690 L357 690 Z M536 640 L147 640 L145 630 L334 630 L213 0 L223 0 L344 630 L534 630 L536 640 Z " />
<glyph glyph-name="tcaron" unicode="&#x165;" horiz-adv-x="272" d="M321 585 C311 585 306 579 304 570 C302 559 315 553 328 560 C327 551 317 513 279 495 L281 490 C307 502 325 527 332 547 C339 568 336 586 321 585 L321 585 Z M184 557 L174 557 L149 427 L91 427 L89 419 L148 419 L68 0 L78 0 L158 419 L272 419 L273 427 L159 427 L184 557 Z " />
<glyph glyph-name="Tbar" unicode="&#x166;" horiz-adv-x="516" d="M534 630 L536 640 L147 640 L145 630 L334 630 L276 327 L181 327 L179 317 L274 317 L213 0 L223 0 L284 317 L382 317 L384 327 L286 327 L344 630 L534 630 Z " />
<glyph glyph-name="tbar" unicode="&#x167;" horiz-adv-x="272" d="M272 419 L273 427 L159 427 L184 557 L174 557 L149 427 L91 427 L89 419 L148 419 L126 306 L83 306 L82 296 L124 296 L68 0 L78 0 L134 296 L207 296 L208 306 L136 306 L158 419 L272 419 Z " />
<glyph glyph-name="Utilde" unicode="&#x168;" horiz-adv-x="599" d="M443 711 C472 711 495 728 511 755 L502 760 C492 742 472 721 446 721 C412 721 387 759 354 759 C328 759 306 744 292 721 L300 716 C310 732 326 750 350 750 C383 750 404 711 443 711 L443 711 Z M258 -6 C407 -6 486 92 512 231 L591 640 L581 640 L503 233 C478 104 404 3 259 3 C113 3 80 104 105 234 L183 640 L173 640 L95 231 C68 92 109 -6 258 -6 L258 -6 Z " />
<glyph glyph-name="utilde" unicode="&#x169;" horiz-adv-x="467" d="M343 528 C372 528 395 545 411 572 L402 577 C392 559 372 538 346 538 C312 538 287 576 254 576 C228 576 206 561 192 538 L200 533 C210 549 226 567 250 567 C283 567 304 528 343 528 L343 528 Z M192 -12 C263 -12 363 28 390 169 L439 427 L430 427 L381 169 C360 63 292 -3 193 -3 C92 -3 51 63 71 169 L120 427 L111 427 L62 169 C34 27 118 -12 192 -12 L192 -12 Z " />
<glyph glyph-name="Umacron" unicode="&#x16a;" horiz-adv-x="599" d="M313 735 L485 735 L488 744 L315 744 L313 735 Z M258 -6 C407 -6 486 92 512 231 L591 640 L581 640 L503 233 C478 104 404 3 259 3 C113 3 80 104 105 234 L183 640 L173 640 L95 231 C68 92 109 -6 258 -6 L258 -6 Z " />
<glyph glyph-name="umacron" unicode="&#x16b;" horiz-adv-x="467" d="M214 552 L386 552 L389 561 L216 561 L214 552 Z M192 -12 C263 -12 363 28 390 169 L439 427 L430 427 L381 169 C360 63 292 -3 193 -3 C92 -3 51 63 71 169 L120 427 L111 427 L62 169 C34 27 118 -12 192 -12 L192 -12 Z " />
<glyph glyph-name="Ubreve" unicode="&#x16c;" horiz-adv-x="599" d="M392 690 C448 690 494 724 507 770 L498 770 C488 734 450 699 394 699 C339 699 315 734 321 770 L311 770 C304 723 340 690 392 690 L392 690 Z M258 -6 C407 -6 486 92 512 231 L591 640 L581 640 L503 233 C478 104 404 3 259 3 C113 3 80 104 105 234 L183 640 L173 640 L95 231 C68 92 109 -6 258 -6 L258 -6 Z " />
<glyph glyph-name="ubreve" unicode="&#x16d;" horiz-adv-x="467" d="M292 507 C348 507 394 541 407 587 L398 587 C388 551 350 516 294 516 C239 516 215 551 221 587 L211 587 C204 540 240 507 292 507 L292 507 Z M192 -12 C263 -12 363 28 390 169 L439 427 L430 427 L381 169 C360 63 292 -3 193 -3 C92 -3 51 63 71 169 L120 427 L111 427 L62 169 C34 27 118 -12 192 -12 L192 -12 Z " />
<glyph glyph-name="Uring" unicode="&#x16e;" horiz-adv-x="599" d="M421 846 C378 846 335 811 328 769 C319 724 348 690 392 690 C435 690 478 724 486 767 C495 811 466 846 421 846 L421 846 Z M393 700 C357 700 330 730 337 767 C344 805 382 834 420 834 C457 834 483 805 476 769 C469 730 432 700 393 700 L393 700 Z M258 -6 C407 -6 486 92 512 231 L591 640 L581 640 L503 233 C478 104 404 3 259 3 C113 3 80 104 105 234 L183 640 L173 640 L95 231 C68 92 109 -6 258 -6 L258 -6 Z " />
<glyph glyph-name="uring" unicode="&#x16f;" horiz-adv-x="467" d="M321 664 C278 664 235 629 228 587 C219 542 248 508 292 508 C335 508 378 542 386 585 C395 629 366 664 321 664 L321 664 Z M293 518 C257 518 230 548 237 585 C244 623 282 652 320 652 C357 652 383 623 376 587 C369 548 332 518 293 518 L293 518 Z M192 -12 C263 -12 363 28 390 169 L439 427 L430 427 L381 169 C360 63 292 -3 193 -3 C92 -3 51 63 71 169 L120 427 L111 427 L62 169 C34 27 118 -12 192 -12 L192 -12 Z " />
<glyph glyph-name="Uhungarumlaut" unicode="&#x170;" horiz-adv-x="599" d="M343 707 L480 827 L471 830 L312 690 L316 690 C322 690 328 694 343 707 L343 707 Z M442 707 L579 827 L569 830 L411 690 L415 690 C421 690 426 694 442 707 L442 707 Z M258 -6 C407 -6 486 92 512 231 L591 640 L581 640 L503 233 C478 104 404 3 259 3 C113 3 80 104 105 234 L183 640 L173 640 L95 231 C68 92 109 -6 258 -6 L258 -6 Z " />
<glyph glyph-name="uhungarumlaut" unicode="&#x171;" horiz-adv-x="467" d="M243 524 L380 644 L371 647 L212 507 L216 507 C222 507 228 511 243 524 L243 524 Z M342 524 L479 644 L469 647 L311 507 L315 507 C321 507 326 511 342 524 L342 524 Z M192 -12 C263 -12 363 28 390 169 L439 427 L430 427 L381 169 C360 63 292 -3 193 -3 C92 -3 51 63 71 169 L120 427 L111 427 L62 169 C34 27 118 -12 192 -12 L192 -12 Z " />
<glyph glyph-name="Uogonek" unicode="&#x172;" horiz-adv-x="599" d="M581 640 L503 233 C478 104 404 3 259 3 C113 3 80 104 105 234 L183 640 L173 640 L95 231 C68 92 109 -6 258 -6 C273 -6 286 -5 300 -3 C223 -44 205 -91 213 -115 C221 -142 255 -148 290 -131 L289 -123 C210 -159 186 -76 295 -12 L313 -1 C427 20 489 110 512 231 L591 640 L581 640 Z " />
<glyph glyph-name="uogonek" unicode="&#x173;" horiz-adv-x="467" d="M430 427 L381 169 C360 63 292 -3 193 -3 C92 -3 51 63 71 169 L120 427 L111 427 L62 169 C34 27 118 -12 192 -12 C204 -12 218 -11 231 -8 C163 -47 148 -91 155 -114 C163 -141 197 -147 232 -130 L231 -122 C152 -158 128 -75 237 -11 L249 -3 C309 14 370 63 390 169 L439 427 L430 427 Z " />
<glyph glyph-name="Wcircumflex" unicode="&#x174;" horiz-adv-x="968" d="M498 695 L592 771 L656 695 C658 693 662 690 668 690 L674 690 L597 782 L591 782 L479 690 L485 690 C491 690 496 693 498 695 L498 695 Z M990 640 L652 18 L572 640 L564 640 L243 18 L145 640 L133 640 L236 0 L243 0 L564 622 L646 0 L653 0 L1002 640 L990 640 Z " />
<glyph glyph-name="wcircumflex" unicode="&#x175;" horiz-adv-x="656" d="M307 512 L401 588 L465 512 C467 510 471 507 477 507 L483 507 L406 599 L400 599 L288 507 L294 507 C300 507 305 510 307 512 L307 512 Z M660 427 L425 16 L373 427 L366 427 L155 16 L79 427 L69 427 L150 0 L157 0 L368 416 L418 0 L425 0 L671 427 L660 427 Z " />
<glyph glyph-name="Ycircumflex" unicode="&#x176;" horiz-adv-x="517" d="M273 695 L367 771 L431 695 C433 693 437 690 443 690 L449 690 L372 782 L366 782 L254 690 L260 690 C266 690 271 693 273 695 L273 695 Z M563 640 L550 640 L280 325 L134 640 L121 640 L275 316 L214 0 L224 0 L285 315 L563 640 Z " />
<glyph glyph-name="ycircumflex" unicode="&#x177;" horiz-adv-x="423" d="M188 512 L282 588 L346 512 C348 510 352 507 358 507 L364 507 L287 599 L281 599 L169 507 L175 507 C181 507 186 510 188 512 L188 512 Z M433 427 L172 21 L74 427 L63 427 L165 10 L25 -210 L35 -210 L443 427 L433 427 Z " />
<glyph glyph-name="Ydieresis" unicode="&#x178;" horiz-adv-x="504" d="M232 711 C241 711 250 719 251 728 C253 738 248 746 238 746 C228 746 219 738 217 730 C215 719 221 711 232 711 L232 711 Z M385 711 C394 711 403 719 405 728 C406 738 401 746 391 746 C381 746 372 738 370 730 C369 719 374 711 385 711 L385 711 Z M563 640 L550 640 L280 325 L134 640 L121 640 L275 316 L214 0 L224 0 L285 315 L563 640 Z " />
<glyph glyph-name="Zacute" unicode="&#x179;" horiz-adv-x="571" d="M352 707 L489 827 L479 830 L320 690 L325 690 C331 690 336 694 352 707 L352 707 Z M573 640 L162 640 L160 631 L556 631 L25 8 L24 0 L464 0 L466 9 L39 9 L571 632 L573 640 Z " />
<glyph glyph-name="zacute" unicode="&#x17a;" horiz-adv-x="424" d="M249 524 L386 644 L376 647 L217 507 L222 507 C228 507 233 511 249 524 L249 524 Z M405 427 L106 427 L104 418 L391 418 L11 9 L9 0 L336 0 L337 9 L25 9 L403 419 L405 427 Z " />
<glyph glyph-name="Zdotaccent" unicode="&#x17b;" horiz-adv-x="571" d="M378 721 C389 721 399 729 402 740 C404 751 397 760 386 760 C375 760 365 751 363 740 C361 729 368 721 378 721 L378 721 Z M573 640 L162 640 L160 631 L556 631 L25 8 L24 0 L464 0 L466 9 L39 9 L571 632 L573 640 Z " />
<glyph glyph-name="zdotaccent" unicode="&#x17c;" horiz-adv-x="424" d="M275 538 C286 538 296 546 299 557 C301 568 294 577 283 577 C272 577 262 568 260 557 C258 546 265 538 275 538 L275 538 Z M405 427 L106 427 L104 418 L391 418 L11 9 L9 0 L336 0 L337 9 L25 9 L403 419 L405 427 Z " />
<glyph glyph-name="Zcaron" unicode="&#x17d;" horiz-adv-x="571" d="M378 690 L490 781 L484 781 C478 781 473 779 470 776 L377 700 L312 776 C311 779 307 781 300 781 L295 781 L372 690 L378 690 Z M573 640 L162 640 L160 631 L556 631 L25 8 L24 0 L464 0 L466 9 L39 9 L571 632 L573 640 Z " />
<glyph glyph-name="zcaron" unicode="&#x17e;" horiz-adv-x="424" d="M275 507 L387 598 L381 598 C375 598 370 596 367 593 L274 517 L209 593 C208 596 204 598 197 598 L192 598 L269 507 L275 507 Z M405 427 L106 427 L104 418 L391 418 L11 9 L9 0 L336 0 L337 9 L25 9 L403 419 L405 427 Z " />
<glyph glyph-name="uni0189" unicode="&#x189;" horiz-adv-x="637" d="M304 640 L189 640 L129 327 L56 327 L54 317 L127 317 L66 0 L182 0 C415 0 558 142 592 319 C626 498 539 640 304 640 L304 640 Z M581 321 C538 102 360 9 188 9 L78 9 L137 317 L257 317 L259 327 L139 327 L197 631 L308 631 C479 631 623 539 581 321 L581 321 Z " />
<glyph glyph-name="uni018F" unicode="&#x18f;" horiz-adv-x="708" d="M416 656 C317 656 230 615 172 561 L179 557 C234 607 318 647 414 647 C591 647 689 505 654 323 L654 321 L86 321 L84 307 C49 129 129 -11 296 -11 C477 -11 629 138 664 322 C699 506 600 656 416 656 L416 656 Z M297 -2 C141 -2 61 124 94 311 L652 311 C612 134 465 -2 297 -2 L297 -2 Z " />
<glyph glyph-name="florin" unicode="&#x192;" horiz-adv-x="510" d="M507 649 C462 649 431 616 400 540 L340 394 L237 394 L235 385 L336 385 L164 -33 C138 -98 113 -141 65 -141 C48 -141 29 -131 19 -119 L11 -127 C19 -137 36 -150 65 -150 C109 -150 142 -116 172 -41 L347 385 L441 385 L443 394 L351 394 L408 532 C434 598 461 640 508 640 C526 640 539 631 550 620 L558 628 C550 636 534 649 507 649 L507 649 Z " />
<glyph glyph-name="uni0197" unicode="&#x197;" horiz-adv-x="242" d="M254 371 L156 371 L209 640 L199 640 L146 371 L51 371 L49 361 L145 361 L74 0 L84 0 L155 361 L252 361 L254 371 Z " />
<glyph glyph-name="uni019D" unicode="&#x19d;" horiz-adv-x="742" d="M707 640 L586 18 L199 640 L189 640 L66 0 L58 -43 C36 -154 -34 -168 -80 -147 L-83 -157 C-32 -180 44 -166 69 -36 L76 0 L77 0 L196 623 L583 0 L594 0 L717 640 L707 640 Z " />
<glyph glyph-name="uni01C3" unicode="&#x1c3;" horiz-adv-x="240" d="M208 640 L196 640 L102 151 L112 151 L208 640 Z M78 -1 C89 -1 99 7 101 18 C103 29 96 38 86 38 C75 38 65 29 62 18 C60 7 67 -1 78 -1 L78 -1 Z " />
<glyph glyph-name="uni01CD" unicode="&#x1cd;" horiz-adv-x="599" d="M396 690 L508 781 L502 781 C496 781 491 779 488 776 L395 701 L330 776 C329 779 325 781 318 781 L313 781 L390 690 L396 690 Z M509 0 L520 0 L386 640 L376 640 L-4 0 L8 0 L148 236 L460 236 L509 0 Z M153 245 L379 628 L458 245 L153 245 Z " />
<glyph glyph-name="uni01CE" unicode="&#x1ce;" horiz-adv-x="533" d="M332 507 L444 598 L438 598 C432 598 427 596 424 593 L331 517 L266 593 C265 596 261 598 254 598 L249 598 L326 507 L332 507 Z M496 438 L465 285 L464 280 C460 371 399 438 302 438 C186 438 76 345 49 215 C22 87 92 -7 208 -7 C310 -7 403 68 444 169 L439 149 L411 0 L419 0 L505 438 L496 438 Z M211 2 C100 2 33 94 60 217 C85 337 189 429 299 429 C409 429 476 337 450 215 C424 93 320 2 211 2 L211 2 Z " />
<glyph glyph-name="uni01CF" unicode="&#x1cf;" horiz-adv-x="242" d="M212 690 L218 690 L330 781 L324 781 C318 781 313 779 310 776 L217 700 L152 776 C151 779 147 781 140 781 L135 781 L212 690 Z M209 640 L199 640 L74 0 L84 0 L209 640 Z " />
<glyph glyph-name="uni01D0" unicode="&#x1d0;" horiz-adv-x="185" d="M149 507 L155 507 L267 598 L261 598 C255 598 250 596 247 593 L154 517 L89 593 C88 596 84 598 77 598 L72 598 L149 507 Z M46 0 L56 0 L139 427 L130 427 L46 0 Z " />
<glyph glyph-name="uni01D1" unicode="&#x1d1;" horiz-adv-x="791" d="M504 690 L510 690 L622 781 L616 781 C610 781 605 779 602 776 L509 700 L444 776 C443 779 439 781 432 781 L427 781 L504 690 Z M353 -6 C542 -6 711 139 746 320 C782 504 668 649 478 649 C291 649 122 505 87 322 C51 140 164 -6 353 -6 L353 -6 Z M354 3 C169 3 64 146 97 320 C132 497 293 640 479 640 C663 640 770 499 736 322 C702 147 539 3 354 3 L354 3 Z " />
<glyph glyph-name="uni01D2" unicode="&#x1d2;" horiz-adv-x="540" d="M326 507 L332 507 L444 598 L438 598 C432 598 427 596 424 593 L331 517 L266 593 C265 596 261 598 254 598 L249 598 L326 507 Z M229 -6 C353 -6 467 91 491 215 C516 341 438 438 313 438 C187 438 75 341 50 217 C26 91 102 -6 229 -6 L229 -6 Z M230 3 C109 3 38 98 60 215 C83 334 192 429 313 429 C433 429 505 334 481 217 C458 98 350 3 230 3 L230 3 Z " />
<glyph glyph-name="uni01D3" unicode="&#x1d3;" horiz-adv-x="599" d="M390 690 L396 690 L508 781 L502 781 C496 781 491 779 488 776 L395 700 L330 776 C329 779 325 781 318 781 L313 781 L390 690 Z M258 -6 C407 -6 486 92 512 231 L591 640 L581 640 L503 233 C478 104 404 3 259 3 C113 3 80 104 105 234 L183 640 L173 640 L95 231 C68 92 109 -6 258 -6 L258 -6 Z " />
<glyph glyph-name="uni01D4" unicode="&#x1d4;" horiz-adv-x="467" d="M291 507 L297 507 L409 598 L403 598 C397 598 392 596 389 593 L296 517 L231 593 C230 596 226 598 219 598 L214 598 L291 507 Z M192 -12 C263 -12 363 28 390 169 L439 427 L430 427 L381 169 C360 63 292 -3 193 -3 C92 -3 51 63 71 169 L120 427 L111 427 L62 169 C34 27 118 -12 192 -12 L192 -12 Z " />
<glyph glyph-name="uni01D5" unicode="&#x1d5;" horiz-adv-x="599" d="M341 823 L513 823 L516 832 L343 832 L341 823 Z M330 749 C320 749 311 741 309 733 C308 722 313 714 324 714 C333 714 342 722 344 731 C345 741 340 749 330 749 L330 749 Z M484 749 C474 749 464 741 463 733 C461 722 467 714 478 714 C487 714 496 722 497 731 C499 741 493 749 484 749 L484 749 Z M258 -6 C407 -6 486 92 512 231 L591 640 L581 640 L503 233 C478 104 404 3 259 3 C113 3 80 104 105 234 L183 640 L173 640 L95 231 C68 92 109 -6 258 -6 L258 -6 Z " />
<glyph glyph-name="uni01D6" unicode="&#x1d6;" horiz-adv-x="467" d="M231 636 L403 636 L406 645 L233 645 L231 636 Z M227 564 C217 564 207 556 206 548 C204 537 210 529 221 529 C230 529 239 537 240 546 C242 556 237 564 227 564 L227 564 Z M380 564 C370 564 361 556 359 548 C358 537 363 529 374 529 C383 529 392 537 394 546 C395 556 390 564 380 564 L380 564 Z M192 -12 C263 -12 363 28 390 169 L439 427 L430 427 L381 169 C360 63 292 -3 193 -3 C92 -3 51 63 71 169 L120 427 L111 427 L62 169 C34 27 118 -12 192 -12 L192 -12 Z " />
<glyph glyph-name="uni01D7" unicode="&#x1d7;" horiz-adv-x="599" d="M400 779 L405 779 C409 779 418 783 422 788 L525 880 L513 882 L400 779 Z M330 749 C320 749 311 741 309 733 C308 722 313 714 324 714 C333 714 342 722 344 731 C345 741 340 749 330 749 L330 749 Z M484 749 C474 749 464 741 463 733 C461 722 467 714 478 714 C487 714 496 722 497 731 C499 741 493 749 484 749 L484 749 Z M258 -6 C407 -6 486 92 512 231 L591 640 L581 640 L503 233 C478 104 404 3 259 3 C113 3 80 104 105 234 L183 640 L173 640 L95 231 C68 92 109 -6 258 -6 L258 -6 Z " />
<glyph glyph-name="uni01D8" unicode="&#x1d8;" horiz-adv-x="467" d="M289 591 L294 591 C298 591 307 595 311 600 L414 692 L402 694 L289 591 Z M227 564 C217 564 207 556 206 548 C204 537 210 529 221 529 C230 529 239 537 240 546 C242 556 237 564 227 564 L227 564 Z M380 564 C370 564 361 556 359 548 C358 537 363 529 374 529 C383 529 392 537 394 546 C395 556 390 564 380 564 L380 564 Z M192 -12 C263 -12 363 28 390 169 L439 427 L430 427 L381 169 C360 63 292 -3 193 -3 C92 -3 51 63 71 169 L120 427 L111 427 L62 169 C34 27 118 -12 192 -12 L192 -12 Z " />
<glyph glyph-name="uni01D9" unicode="&#x1d9;" horiz-adv-x="599" d="M418 778 L424 778 L536 869 L530 869 C524 869 519 867 516 864 L423 788 L358 864 C357 867 353 869 346 869 L341 869 L418 778 Z M330 749 C320 749 311 741 309 733 C308 722 313 714 324 714 C333 714 342 722 344 731 C345 741 340 749 330 749 L330 749 Z M484 749 C474 749 464 741 463 733 C461 722 467 714 478 714 C487 714 496 722 497 731 C499 741 493 749 484 749 L484 749 Z M258 -6 C407 -6 486 92 512 231 L591 640 L581 640 L503 233 C478 104 404 3 259 3 C113 3 80 104 105 234 L183 640 L173 640 L95 231 C68 92 109 -6 258 -6 L258 -6 Z " />
<glyph glyph-name="uni01DA" unicode="&#x1da;" horiz-adv-x="467" d="M308 591 L314 591 L426 682 L420 682 C414 682 409 680 406 677 L313 601 L248 677 C247 680 243 682 236 682 L231 682 L308 591 Z M227 564 C217 564 207 556 206 548 C204 537 210 529 221 529 C230 529 239 537 240 546 C242 556 237 564 227 564 L227 564 Z M380 564 C370 564 361 556 359 548 C358 537 363 529 374 529 C383 529 392 537 394 546 C395 556 390 564 380 564 L380 564 Z M192 -12 C263 -12 363 28 390 169 L439 427 L430 427 L381 169 C360 63 292 -3 193 -3 C92 -3 51 63 71 169 L120 427 L111 427 L62 169 C34 27 118 -12 192 -12 L192 -12 Z " />
<glyph glyph-name="uni01DB" unicode="&#x1db;" horiz-adv-x="599" d="M423 779 L351 882 L338 880 L405 788 C408 783 414 779 418 779 L423 779 Z M330 749 C320 749 311 741 309 733 C308 722 313 714 324 714 C333 714 342 722 344 731 C345 741 340 749 330 749 L330 749 Z M484 749 C474 749 464 741 463 733 C461 722 467 714 478 714 C487 714 496 722 497 731 C499 741 493 749 484 749 L484 749 Z M258 -6 C407 -6 486 92 512 231 L591 640 L581 640 L503 233 C478 104 404 3 259 3 C113 3 80 104 105 234 L183 640 L173 640 L95 231 C68 92 109 -6 258 -6 L258 -6 Z " />
<glyph glyph-name="uni01DC" unicode="&#x1dc;" horiz-adv-x="467" d="M312 592 L240 695 L227 693 L294 601 C297 596 303 592 307 592 L312 592 Z M227 564 C217 564 207 556 206 548 C204 537 210 529 221 529 C230 529 239 537 240 546 C242 556 237 564 227 564 L227 564 Z M380 564 C370 564 361 556 359 548 C358 537 363 529 374 529 C383 529 392 537 394 546 C395 556 390 564 380 564 L380 564 Z M192 -12 C263 -12 363 28 390 169 L439 427 L430 427 L381 169 C360 63 292 -3 193 -3 C92 -3 51 63 71 169 L120 427 L111 427 L62 169 C34 27 118 -12 192 -12 L192 -12 Z " />
<glyph glyph-name="uni01DD" unicode="&#x1dd;" horiz-adv-x="463" d="M251 433 C181 433 122 404 78 366 L85 358 C125 394 180 423 250 423 C372 423 423 328 402 202 C401 199 401 195 400 192 L276 192 C160 192 44 172 36 89 C32 41 77 -11 157 -11 C282 -11 387 82 412 202 C436 331 379 433 251 433 L251 433 Z M157 -1 C83 -1 41 46 46 90 C54 145 116 181 270 181 L397 181 C367 80 271 -1 157 -1 L157 -1 Z " />
<glyph glyph-name="uni01DE" unicode="&#x1de;" horiz-adv-x="599" d="M516 832 L343 832 L341 823 L513 823 L516 832 Z M324 714 C333 714 342 722 344 731 C345 741 340 749 330 749 C320 749 311 741 309 733 C308 722 313 714 324 714 L324 714 Z M463 733 C461 722 467 714 478 714 C487 714 496 722 497 731 C499 741 493 749 484 749 C474 749 464 741 463 733 L463 733 Z M509 0 L520 0 L386 640 L376 640 L-4 0 L8 0 L148 236 L460 236 L509 0 Z M153 245 L379 628 L458 245 L153 245 Z " />
<glyph glyph-name="uni01DF" unicode="&#x1df;" horiz-adv-x="533" d="M441 645 L268 645 L266 636 L438 636 L441 645 Z M256 529 C265 529 274 537 275 546 C277 556 272 564 262 564 C252 564 242 556 241 548 C239 537 245 529 256 529 L256 529 Z M394 548 C393 537 398 529 409 529 C418 529 427 537 429 546 C430 556 425 564 415 564 C405 564 396 556 394 548 L394 548 Z M496 438 L465 285 L464 280 C460 371 399 438 302 438 C186 438 76 345 49 215 C22 87 92 -7 208 -7 C310 -7 403 68 444 169 L439 149 L411 0 L419 0 L505 438 L496 438 Z M211 2 C100 2 33 94 60 217 C85 337 189 429 299 429 C409 429 476 337 450 215 C424 93 320 2 211 2 L211 2 Z " />
<glyph glyph-name="Gcaron" unicode="&#x1e6;" horiz-adv-x="734" d="M476 690 L588 781 L582 781 C576 781 571 779 568 776 L475 700 L410 776 C409 779 405 781 398 781 L393 781 L470 690 L476 690 Z M460 321 L458 310 L681 310 C649 131 521 3 345 3 C155 3 64 146 98 322 C132 499 281 640 474 640 C573 640 631 603 649 586 L658 596 C631 619 563 649 474 649 C280 649 122 506 87 323 C52 140 149 -6 344 -6 C542 -6 659 147 692 305 L695 321 L460 321 Z " />
<glyph glyph-name="gcaron" unicode="&#x1e7;" horiz-adv-x="534" d="M337 507 L449 598 L443 598 C437 598 432 596 429 593 L336 517 L271 593 C270 596 266 598 259 598 L254 598 L331 507 L337 507 Z M492 427 L464 283 C458 373 397 438 302 438 C186 438 76 345 49 215 C22 87 92 -7 208 -7 C307 -7 397 63 440 158 L412 10 C385 -124 319 -201 184 -201 C159 -201 143 -199 125 -194 L121 -203 C140 -207 159 -210 183 -210 C320 -210 392 -138 423 20 L500 427 L492 427 Z M211 2 C100 2 33 94 60 216 C85 337 189 429 299 429 C409 429 476 337 450 215 C424 93 320 2 211 2 L211 2 Z " />
<glyph glyph-name="uni01EA" unicode="&#x1ea;" horiz-adv-x="791" d="M478 649 C291 649 122 505 87 322 C51 140 164 -6 353 -6 L364 -6 C293 -45 276 -90 284 -114 C292 -141 326 -147 361 -130 L360 -122 C281 -158 257 -75 366 -11 L375 -5 C555 6 712 146 746 320 C782 504 668 649 478 649 L478 649 Z M736 322 C702 147 539 3 354 3 C169 3 64 146 97 320 C132 497 293 640 479 640 C663 640 770 499 736 322 L736 322 Z " />
<glyph glyph-name="uni01EB" unicode="&#x1eb;" horiz-adv-x="540" d="M313 438 C187 438 75 341 50 217 C26 91 102 -6 229 -6 C242 -6 256 -5 269 -3 C193 -43 175 -90 183 -114 C191 -141 225 -147 260 -130 L259 -122 C180 -158 156 -75 265 -11 L283 0 C385 23 471 109 491 215 C516 341 438 438 313 438 L313 438 Z M481 217 C458 98 350 3 230 3 C109 3 38 98 60 215 C83 334 192 429 313 429 C433 429 505 334 481 217 L481 217 Z " />
<glyph glyph-name="Aringacute" unicode="&#x1fa;" horiz-adv-x="599" d="M429 774 L532 866 L520 868 L407 765 L412 765 C416 765 425 769 429 774 L429 774 Z M392 587 C435 587 478 621 486 664 C495 708 466 743 421 743 C378 743 335 708 328 666 C319 621 348 587 392 587 L392 587 Z M337 664 C344 702 382 731 420 731 C457 731 483 702 476 666 C469 627 432 597 393 597 C357 597 330 627 337 664 L337 664 Z M376 544 L-4 0 L8 0 L147 200 L460 200 L509 0 L520 0 L386 544 L376 544 Z M153 208 L379 534 L458 208 L153 208 Z " />
<glyph glyph-name="aringacute" unicode="&#x1fb;" horiz-adv-x="533" d="M365 695 L468 787 L456 789 L343 686 L348 686 C352 686 361 690 365 695 L365 695 Z M327 508 C370 508 413 542 421 585 C430 629 401 664 356 664 C313 664 270 629 263 587 C254 542 283 508 327 508 L327 508 Z M272 585 C279 623 317 652 355 652 C392 652 418 623 411 587 C404 548 367 518 328 518 C292 518 265 548 272 585 L272 585 Z M496 438 L465 285 L464 280 C460 371 399 438 302 438 C186 438 76 345 49 215 C22 87 92 -7 208 -7 C310 -7 403 68 444 169 L439 149 L411 0 L419 0 L505 438 L496 438 Z M211 2 C100 2 33 94 60 217 C85 337 189 429 299 429 C409 429 476 337 450 215 C424 93 320 2 211 2 L211 2 Z " />
<glyph glyph-name="AEacute" unicode="&#x1fc;" horiz-adv-x="793" d="M511 697 L648 817 L638 820 L479 680 L484 680 C490 680 495 684 511 697 L511 697 Z M798 633 L799 643 L377 643 L141 245 L139 245 L131 236 L136 236 L-4 0 L8 0 L148 236 L422 236 L448 0 L675 0 L678 10 L459 10 L425 307 L676 307 L678 316 L424 316 L388 633 L798 633 Z M153 245 L378 625 L421 245 L153 245 Z " />
<glyph glyph-name="aeacute" unicode="&#x1fd;" horiz-adv-x="864" d="M492 525 L629 645 L619 648 L460 508 L465 508 C471 508 476 512 492 525 L492 525 Z M706 438 C608 438 522 381 477 298 L505 438 L496 438 L465 285 L464 280 C460 371 399 438 302 438 C186 438 76 345 49 215 C22 87 92 -7 208 -7 C310 -7 403 68 444 169 L439 149 L411 0 L419 0 L447 144 C456 56 513 -6 613 -6 C682 -6 741 23 785 61 L778 69 C739 33 683 4 614 4 C498 4 446 88 459 203 L465 235 L587 235 C703 235 819 255 827 338 C832 386 786 438 706 438 L706 438 Z M211 2 C100 2 33 94 60 217 C85 337 189 429 299 429 C402 429 468 348 454 237 C453 233 452 229 451 225 L448 208 C420 89 318 2 211 2 L211 2 Z M817 337 C810 282 747 246 593 246 L467 246 L468 249 C498 348 593 428 707 428 C781 428 822 381 817 337 L817 337 Z " />
<glyph glyph-name="Oslashacute" unicode="&#x1fe;" horiz-adv-x="791" d="M473 707 L610 827 L600 830 L441 690 L446 690 C452 690 457 694 473 707 L473 707 Z M776 643 L769 650 L682 570 C634 620 564 649 478 649 C291 649 122 505 87 322 C68 226 91 140 144 80 L57 1 L63 -5 L150 74 C197 24 267 -6 353 -6 C542 -6 711 139 746 320 C765 417 742 504 688 563 L776 643 Z M97 320 C132 497 293 640 479 640 C562 640 629 611 675 564 L151 87 C101 145 80 228 97 320 L97 320 Z M736 322 C702 147 539 3 354 3 C270 3 203 32 157 81 L681 557 C733 499 754 416 736 322 L736 322 Z " />
<glyph glyph-name="oslashacute" unicode="&#x1ff;" horiz-adv-x="540" d="M306 524 L443 644 L433 647 L274 507 L279 507 C285 507 290 511 306 524 L306 524 Z M524 441 L519 447 L449 384 C417 418 370 438 313 438 C187 438 75 341 50 217 C37 152 52 94 86 54 L17 -9 L22 -16 L92 48 C124 14 171 -6 229 -6 C352 -6 467 91 491 215 C503 280 489 338 455 378 L524 441 Z M61 215 C84 335 192 428 312 428 C367 428 411 409 441 376 L95 62 C63 100 50 154 61 215 L61 215 Z M480 217 C456 97 349 4 230 4 C175 4 130 23 100 55 L447 371 C479 332 492 278 480 217 L480 217 Z " />
<glyph glyph-name="uni0218" unicode="&#x218;" horiz-adv-x="490" d="M197 -6 C301 -6 383 53 400 141 C419 236 360 282 281 328 C215 368 130 407 149 501 C165 587 237 640 316 640 C387 640 430 609 452 579 L462 586 C443 617 391 649 318 649 C241 649 158 603 139 502 C121 404 201 362 271 321 C354 272 407 229 390 142 C375 62 298 3 199 3 C110 3 61 37 39 80 L29 74 C45 39 94 -6 197 -6 L197 -6 Z M132 -171 C158 -159 176 -134 183 -114 C190 -93 187 -75 173 -76 C162 -76 157 -82 155 -91 C154 -102 166 -108 179 -101 C178 -110 168 -148 130 -166 L132 -171 Z " />
<glyph glyph-name="uni0219" unicode="&#x219;" horiz-adv-x="359" d="M9 59 C22 30 63 -6 129 -6 C208 -6 276 37 290 111 C322 274 62 190 87 328 C97 392 152 429 218 428 C273 428 302 409 321 387 L330 396 C310 417 278 438 219 438 C147 438 88 395 77 330 C49 175 309 264 280 111 C267 44 208 3 132 3 C70 3 31 37 20 67 L9 59 Z M78 -171 C104 -159 122 -134 129 -114 C136 -93 133 -75 119 -76 C108 -76 103 -82 101 -91 C100 -102 112 -108 125 -101 C124 -110 114 -148 76 -166 L78 -171 Z " />
<glyph glyph-name="uni021A" unicode="&#x21a;" horiz-adv-x="516" d="M536 640 L147 640 L145 630 L334 630 L213 0 L223 0 L344 630 L534 630 L536 640 Z M189 -76 C178 -76 173 -82 171 -91 C170 -102 182 -108 195 -101 C194 -110 184 -148 146 -166 L148 -171 C174 -159 192 -134 199 -114 C206 -93 203 -75 189 -76 L189 -76 Z " />
<glyph glyph-name="uni021B" unicode="&#x21b;" horiz-adv-x="272" d="M273 427 L159 427 L184 557 L174 557 L149 427 L91 427 L89 419 L148 419 L68 0 L78 0 L158 419 L272 419 L273 427 Z M44 -76 C33 -76 28 -82 26 -91 C25 -102 37 -108 50 -101 C49 -110 39 -148 1 -166 L3 -171 C29 -159 47 -134 54 -114 C61 -93 58 -75 44 -76 L44 -76 Z " />
<glyph glyph-name="uni0228" unicode="&#x228;" horiz-adv-x="509" d="M512 630 L515 640 L189 640 L66 0 L221 0 L149 -78 L152 -83 C200 -64 266 -69 250 -112 C239 -138 206 -161 154 -158 C128 -156 107 -146 101 -139 L92 -147 C103 -156 128 -168 161 -168 C200 -167 246 -151 262 -112 C273 -82 251 -67 225 -64 C204 -63 178 -67 165 -70 L228 0 L392 0 L393 10 L78 10 L137 316 L402 316 L404 325 L138 325 L197 630 L512 630 Z " />
<glyph glyph-name="uni0229" unicode="&#x229;" horiz-adv-x="463" d="M306 438 C181 438 76 345 51 225 C29 106 75 11 182 -4 L114 -78 L117 -83 C165 -64 231 -69 215 -112 C204 -138 171 -161 119 -158 C93 -156 72 -146 66 -139 L57 -147 C68 -156 93 -168 126 -168 C165 -167 211 -151 227 -112 C238 -82 216 -67 190 -64 C169 -63 143 -67 130 -70 L189 -5 C196 -6 204 -6 212 -6 C282 -6 341 23 385 61 L378 69 C338 33 283 4 213 4 C91 4 40 99 61 225 C62 228 62 232 63 235 L187 235 C303 235 419 255 427 338 C431 386 386 438 306 438 L306 438 Z M417 337 C409 282 347 246 193 246 L66 246 C96 347 192 428 306 428 C380 428 422 381 417 337 L417 337 Z " />
<glyph glyph-name="uni022A" unicode="&#x22a;" horiz-adv-x="791" d="M455 823 L627 823 L630 832 L457 832 L455 823 Z M444 749 C434 749 425 741 423 733 C422 722 427 714 438 714 C447 714 456 722 458 731 C459 741 454 749 444 749 L444 749 Z M598 749 C588 749 578 741 577 733 C575 722 581 714 592 714 C601 714 610 722 611 731 C613 741 607 749 598 749 L598 749 Z M353 -6 C542 -6 711 139 746 320 C782 504 668 649 478 649 C291 649 122 505 87 322 C51 140 164 -6 353 -6 L353 -6 Z M354 3 C169 3 64 146 97 320 C132 497 293 640 479 640 C663 640 770 499 736 322 C702 147 539 3 354 3 L354 3 Z " />
<glyph glyph-name="uni022B" unicode="&#x22b;" horiz-adv-x="540" d="M266 636 L438 636 L441 645 L268 645 L266 636 Z M262 564 C252 564 242 556 241 548 C239 537 245 529 256 529 C265 529 274 537 275 546 C277 556 272 564 262 564 L262 564 Z M415 564 C405 564 396 556 394 548 C393 537 398 529 409 529 C418 529 427 537 429 546 C430 556 425 564 415 564 L415 564 Z M229 -6 C353 -6 467 91 491 215 C516 341 438 438 313 438 C187 438 75 341 50 217 C26 91 102 -6 229 -6 L229 -6 Z M230 3 C109 3 38 98 60 215 C83 334 192 429 313 429 C433 429 505 334 481 217 C458 98 350 3 230 3 L230 3 Z " />
<glyph glyph-name="uni0232" unicode="&#x232;" horiz-adv-x="517" d="M449 744 L276 744 L274 735 L446 735 L449 744 Z M563 640 L550 640 L280 325 L134 640 L121 640 L275 316 L214 0 L224 0 L285 315 L563 640 Z " />
<glyph glyph-name="uni0233" unicode="&#x233;" horiz-adv-x="423" d="M365 561 L192 561 L190 552 L362 552 L365 561 Z M433 427 L172 21 L74 427 L63 427 L165 10 L25 -210 L35 -210 L443 427 L433 427 Z " />
<glyph glyph-name="uni0237" unicode="&#x237;" horiz-adv-x="210" d="M63 -96 L163 427 L154 427 L54 -95 C39 -172 -6 -207 -81 -199 L-82 -209 C-12 -217 45 -188 63 -96 L63 -96 Z " />
<glyph glyph-name="uni0243" unicode="&#x243;" horiz-adv-x="528" d="M305 359 C374 364 436 428 448 493 C466 584 415 640 301 640 L189 640 L102 186 L54 186 L52 176 L100 176 L66 0 L172 0 C342 0 431 73 451 179 C469 273 409 352 305 359 L305 359 Z M197 630 L303 630 C408 630 456 581 439 495 C424 415 349 362 279 362 L145 362 L197 630 Z M441 180 C421 76 336 10 179 10 L78 10 L110 176 L255 176 L257 186 L111 186 L143 352 L278 352 C387 352 461 282 441 180 L441 180 Z " />
<glyph glyph-name="uni0244" unicode="&#x244;" horiz-adv-x="599" d="M581 640 L553 494 L155 494 L183 640 L173 640 L95 231 C68 92 109 -6 258 -6 C407 -6 486 92 512 231 L591 640 L581 640 Z M503 233 C478 104 404 3 259 3 C113 3 80 104 105 234 L153 486 L551 486 L503 233 Z " />
<glyph glyph-name="uni0245" unicode="&#x245;" horiz-adv-x="579" d="M500 0 L387 640 L380 640 L-4 0 L9 0 L379 623 L488 0 L500 0 Z " />
<glyph glyph-name="uni024C" unicode="&#x24c;" horiz-adv-x="499" d="M324 640 L189 640 L130 335 L78 335 L76 325 L128 325 L66 0 L76 0 L138 325 L210 325 L402 0 L415 0 L222 326 L264 326 C357 326 457 372 478 480 C499 590 417 640 324 640 L324 640 Z M468 482 C448 379 357 335 259 335 L140 335 L197 631 L319 631 C417 631 486 581 468 482 L468 482 Z " />
<glyph glyph-name="uni0250" unicode="&#x250;" horiz-adv-x="537" d="M325 438 C228 438 141 371 99 280 L100 285 L131 438 L123 438 L31 0 L39 0 L72 149 L74 166 C75 66 138 -7 239 -7 C355 -7 463 87 488 215 C513 345 441 438 325 438 L325 438 Z M477 217 C455 94 351 2 240 2 C131 2 63 93 87 215 C111 337 214 429 324 429 C434 429 501 337 477 217 L477 217 Z " />
<glyph glyph-name="uni0251" unicode="&#x251;" horiz-adv-x="495" d="M458 438 L426 285 L425 279 L423 264 C425 363 369 438 276 438 C172 438 73 345 49 215 C25 87 88 -7 192 -7 C285 -7 370 70 406 173 L400 149 L372 0 L380 0 L466 438 L458 438 Z M195 2 C95 2 35 94 59 217 C82 337 175 429 274 429 C373 429 433 337 410 215 C387 93 293 2 195 2 L195 2 Z " />
<glyph glyph-name="uni0252" unicode="&#x252;" horiz-adv-x="498" d="M312 438 C219 438 132 362 94 261 L99 279 L100 285 L131 438 L123 438 L31 0 L39 0 L72 149 L75 173 C70 70 124 -7 217 -7 C321 -7 422 87 449 215 C478 345 416 438 312 438 L312 438 Z M440 217 C414 94 318 2 218 2 C120 2 62 93 88 215 C115 337 212 429 310 429 C410 429 466 337 440 217 L440 217 Z " />
<glyph glyph-name="uni0258" unicode="&#x258;" horiz-adv-x="465" d="M250 438 C170 438 104 386 88 338 C63 255 171 235 287 235 L410 235 C409 232 409 228 408 225 C379 99 290 4 167 4 C97 4 54 33 29 69 L19 61 C47 23 95 -6 164 -6 C292 -6 390 96 419 225 C442 345 375 438 250 438 L250 438 Z M285 246 C131 246 83 282 98 337 C111 381 171 428 246 428 C360 428 423 347 411 246 L285 246 Z " />
<glyph glyph-name="uni0259" unicode="&#x259;" horiz-adv-x="463" d="M251 433 C181 433 122 404 78 366 L85 358 C125 394 180 423 250 423 C372 423 423 328 402 202 C401 199 401 195 400 192 L276 192 C160 192 44 172 36 89 C32 41 77 -11 157 -11 C282 -11 387 82 412 202 C436 331 379 433 251 433 L251 433 Z M157 -1 C83 -1 41 46 46 90 C54 145 116 181 270 181 L397 181 C367 80 271 -1 157 -1 L157 -1 Z " />
<glyph glyph-name="uni0265" unicode="&#x265;" horiz-adv-x="469" d="M428 427 L375 155 C345 62 274 -3 188 -3 C107 -3 47 46 74 182 L120 427 L111 427 L63 181 C34 26 114 -12 188 -12 C266 -12 331 41 367 114 L296 -253 L306 -253 L438 427 L428 427 Z " />
<glyph glyph-name="uni0268" unicode="&#x268;" horiz-adv-x="185" d="M155 538 C166 538 176 546 179 557 C181 568 174 577 163 577 C152 577 142 568 140 557 C138 546 145 538 155 538 L155 538 Z M218 326 L119 326 L139 427 L130 427 L110 326 L15 326 L13 316 L108 316 L46 0 L56 0 L117 316 L216 316 L218 326 Z " />
<glyph glyph-name="uni026F" unicode="&#x26f;" horiz-adv-x="733" d="M689 427 L639 161 C609 62 541 -3 468 -3 C384 -3 341 65 359 160 L410 427 L401 427 L356 193 C328 68 261 -3 178 -3 C82 -3 50 64 71 170 L120 427 L110 427 L61 172 C33 26 104 -12 174 -12 C245 -12 310 35 346 130 C340 19 414 -12 465 -12 C526 -12 597 33 632 124 L631 121 L609 0 L617 0 L699 427 L689 427 Z " />
<glyph glyph-name="uni0272" unicode="&#x272;" horiz-adv-x="471" d="M283 439 C203 439 136 383 101 307 L123 427 L115 427 L33 0 L20 -67 C11 -113 -15 -127 -51 -120 L-53 -128 C-12 -140 19 -118 30 -67 L42 0 L43 0 L89 244 C113 353 189 430 283 430 C364 430 424 381 398 246 L351 0 L361 0 L408 247 C437 401 357 439 283 439 L283 439 Z " />
<glyph glyph-name="uni0275" unicode="&#x275;" horiz-adv-x="540" d="M313 438 C187 438 75 341 50 217 C25 91 102 -6 229 -6 C352 -6 467 91 491 215 C515 341 438 438 313 438 L313 438 Z M312 428 C431 428 503 336 481 220 L62 220 C87 338 194 428 312 428 L312 428 Z M230 4 C110 4 40 95 60 212 L479 212 C453 94 347 4 230 4 L230 4 Z " />
<glyph glyph-name="uni0279" unicode="&#x279;" horiz-adv-x="245" d="M202 427 L144 121 L150 156 C134 62 74 -1 7 -1 C-4 -1 -8 0 -18 2 L-23 -9 C-16 -11 -9 -12 -1 -12 C70 -12 116 43 141 100 L123 0 L130 0 L212 427 L202 427 Z M150 156 C151 157 151 158 151 159 L150 156 Z " />
<glyph glyph-name="uni0289" unicode="&#x289;" horiz-adv-x="467" d="M430 427 L402 282 L92 282 L120 427 L111 427 L62 169 C34 27 118 -12 192 -12 C263 -12 363 28 390 169 L439 427 L430 427 Z M381 169 C360 63 292 -3 193 -3 C92 -3 51 63 71 169 L91 274 L401 274 L381 169 Z " />
<glyph glyph-name="uni028C" unicode="&#x28c;" horiz-adv-x="437" d="M375 0 L265 427 L256 427 L-21 0 L-10 0 L258 416 L364 0 L375 0 Z " />
<glyph glyph-name="uni028D" unicode="&#x28d;" horiz-adv-x="656" d="M588 0 L515 427 L508 427 L290 13 L247 427 L240 427 L-14 0 L-5 0 L239 411 L283 0 L290 0 L508 413 L577 0 L588 0 Z " />
<glyph glyph-name="uni028E" unicode="&#x28e;" horiz-adv-x="431" d="M402 637 L392 637 L-17 0 L-6 0 L255 406 L353 0 L364 0 L262 416 L402 637 Z " />
<glyph glyph-name="circumflex" unicode="&#x2c6;" horiz-adv-x="275" d="M218 612 L212 612 L100 520 L105 520 C111 520 116 523 119 525 L213 601 L277 525 C279 523 283 520 289 520 L294 520 L218 612 Z " />
<glyph glyph-name="caron" unicode="&#x2c7;" horiz-adv-x="275" d="M198 541 L204 541 L316 632 L311 632 C304 632 299 630 297 627 L203 551 L139 627 C137 630 133 632 127 632 L121 632 L198 541 Z " />
<glyph glyph-name="uni02C9" unicode="&#x2c9;" horiz-adv-x="276" d="M76 606 L352 606 L354 615 L78 615 L76 606 Z " />
<glyph glyph-name="breve" unicode="&#x2d8;" horiz-adv-x="277" d="M198 531 C254 531 301 565 313 611 L305 611 C295 575 256 540 200 540 C145 540 122 575 127 611 L117 611 C111 564 146 531 198 531 L198 531 Z " />
<glyph glyph-name="dotaccent" unicode="&#x2d9;" horiz-adv-x="120" d="M123 536 C133 536 144 544 146 555 C148 566 141 575 130 575 C119 575 109 566 107 555 C105 544 112 536 123 536 L123 536 Z " />
<glyph glyph-name="ring" unicode="&#x2da;" horiz-adv-x="239" d="M207 670 C164 670 121 635 113 593 C105 548 134 514 178 514 C221 514 264 548 272 591 C281 635 251 670 207 670 L207 670 Z M179 524 C142 524 115 554 122 591 C130 629 168 658 206 658 C243 658 269 629 262 593 C255 554 218 524 179 524 L179 524 Z " />
<glyph glyph-name="ogonek" unicode="&#x2db;" horiz-adv-x="293" d="M122 -130 L121 -122 C42 -158 18 -75 127 -11 L145 0 L138 1 C56 -40 37 -89 45 -114 C53 -141 87 -147 122 -130 L122 -130 Z " />
<glyph glyph-name="tilde" unicode="&#x2dc;" horiz-adv-x="294" d="M259 554 C289 554 312 572 328 599 L319 603 C309 585 289 564 263 564 C228 564 204 603 171 603 C144 603 123 587 109 564 L117 560 C127 576 143 593 167 593 C200 593 221 554 259 554 L259 554 Z " />
<glyph glyph-name="hungarumlaut" unicode="&#x2dd;" horiz-adv-x="321" d="M129 527 L266 647 L256 650 L98 510 L102 510 C108 510 114 514 129 527 L129 527 Z M228 527 L365 647 L355 650 L197 510 L201 510 C207 510 212 514 228 527 L228 527 Z " />
<glyph glyph-name="gravecomb" unicode="&#x300;" d="M-26 527 C-15 514 -12 510 -5 510 L-1 510 L-104 650 L-115 647 L-26 527 Z " />
<glyph glyph-name="acutecomb" unicode="&#x301;" d="M-151 527 L-14 647 L-24 650 L-183 510 L-178 510 C-172 510 -167 514 -151 527 L-151 527 Z " />
<glyph glyph-name="uni0302" unicode="&#x302;" d="M-119 612 L-125 612 L-237 520 L-231 520 C-225 520 -220 523 -218 525 L-124 601 L-60 525 C-58 523 -54 520 -48 520 L-42 520 L-119 612 Z " />
<glyph glyph-name="tildecomb" unicode="&#x303;" d="M-101 547 C-72 547 -49 564 -33 591 L-42 596 C-52 578 -72 557 -98 557 C-132 557 -157 595 -190 595 C-216 595 -238 580 -252 557 L-244 552 C-234 568 -218 586 -194 586 C-161 586 -140 547 -101 547 L-101 547 Z " />
<glyph glyph-name="uni0304" unicode="&#x304;" d="M-219 541 L-47 541 L-44 550 L-217 550 L-219 541 Z " />
<glyph glyph-name="uni0306" unicode="&#x306;" d="M-144 531 C-88 531 -42 565 -29 611 L-38 611 C-48 575 -86 540 -142 540 C-197 540 -221 575 -215 611 L-225 611 C-232 564 -196 531 -144 531 L-144 531 Z " />
<glyph glyph-name="uni0307" unicode="&#x307;" d="M-64 536 C-53 536 -43 544 -40 555 C-38 566 -45 575 -56 575 C-67 575 -77 566 -79 555 C-81 544 -74 536 -64 536 L-64 536 Z " />
<glyph glyph-name="uni0308" unicode="&#x308;" d="M-187 556 C-197 556 -207 548 -208 540 C-210 529 -204 521 -193 521 C-184 521 -175 529 -174 538 C-172 548 -177 556 -187 556 L-187 556 Z M-34 556 C-44 556 -53 548 -55 540 C-56 529 -51 521 -40 521 C-31 521 -22 529 -20 538 C-19 548 -24 556 -34 556 L-34 556 Z " />
<glyph glyph-name="uni030A" unicode="&#x30a;" d="M1 670 C-42 670 -85 635 -92 593 C-101 548 -72 514 -28 514 C15 514 58 548 66 591 C75 635 46 670 1 670 L1 670 Z M-27 524 C-63 524 -90 554 -83 591 C-76 629 -38 658 0 658 C37 658 63 629 56 593 C49 554 12 524 -27 524 L-27 524 Z " />
<glyph glyph-name="uni030B" unicode="&#x30b;" d="M-225 527 L-88 647 L-97 650 L-256 510 L-252 510 C-246 510 -240 514 -225 527 L-225 527 Z M-126 527 L11 647 L1 650 L-157 510 L-153 510 C-147 510 -142 514 -126 527 L-126 527 Z " />
<glyph glyph-name="uni030C" unicode="&#x30c;" d="M-143 541 L-137 541 L-25 632 L-31 632 C-37 632 -42 630 -45 627 L-138 551 L-203 627 C-204 630 -208 632 -215 632 L-220 632 L-143 541 Z " />
<glyph glyph-name="uni0312" unicode="&#x312;" d="M-54 610 C-84 597 -103 569 -112 546 C-119 523 -116 504 -99 504 C-88 504 -82 512 -80 522 C-79 534 -92 540 -107 532 C-106 542 -94 584 -52 604 L-54 610 Z " />
<glyph glyph-name="dotbelowcomb" unicode="&#x323;" d="M-182 -108 C-172 -108 -161 -100 -159 -89 C-157 -78 -164 -69 -175 -69 C-186 -69 -196 -78 -198 -89 C-200 -100 -193 -108 -182 -108 L-182 -108 Z " />
<glyph glyph-name="uni0326" unicode="&#x326;" d="M-175 -171 C-149 -159 -131 -134 -124 -114 C-117 -93 -120 -75 -134 -76 C-145 -76 -150 -82 -152 -91 C-153 -102 -141 -108 -128 -101 C-129 -110 -139 -148 -177 -166 L-175 -171 Z " />
<glyph glyph-name="uni0327" unicode="&#x327;" d="M-206 -64 C-227 -63 -253 -67 -266 -70 L-201 2 L-200 3 L-207 3 L-282 -78 L-279 -83 C-231 -64 -165 -69 -181 -112 C-192 -138 -225 -161 -277 -158 C-303 -156 -324 -146 -330 -139 L-339 -147 C-328 -156 -303 -168 -270 -168 C-231 -167 -185 -151 -169 -112 C-158 -82 -180 -67 -206 -64 L-206 -64 Z " />
<glyph glyph-name="uni0328" unicode="&#x328;" d="M-173 -130 L-174 -122 C-253 -158 -277 -75 -168 -11 L-150 0 L-157 1 C-239 -40 -258 -89 -250 -114 C-242 -141 -208 -147 -173 -130 L-173 -130 Z " />
<glyph glyph-name="uni0331" unicode="&#x331;" d="M-295 -83 L-122 -83 L-120 -74 L-293 -74 L-295 -83 Z " />
<glyph glyph-name="uni0335" unicode="&#x335;" d="M-294 289 L-91 289 L-89 299 L-292 299 L-294 289 Z " />
<glyph glyph-name="uni0336" unicode="&#x336;" d="M-436 289 L-25 289 L-23 297 L-434 297 L-436 289 Z " />
<glyph glyph-name="uni0337" unicode="&#x337;" d="M-221 284 L-223 274 L-75 374 L-72 385 L-221 284 Z " />
<glyph glyph-name="uni0338" unicode="&#x338;" d="M99 647 L-613 -2 L-607 -8 L106 640 L99 647 Z " />
<glyph glyph-name="uni0394" unicode="&#x394;" horiz-adv-x="608" d="M391 640 L381 640 L-2 9 L-3 0 L529 0 L530 9 L391 640 Z M518 10 L10 10 L382 628 L518 10 Z " />
<glyph glyph-name="uni03A9" unicode="&#x3a9;" horiz-adv-x="800" d="M725 369 C756 529 653 655 485 655 C318 655 167 529 136 371 C109 233 176 123 291 105 L274 10 L80 9 L78 0 L284 0 L304 107 L305 112 C182 126 121 238 147 368 C174 515 318 646 484 646 C649 646 742 515 714 370 C689 238 584 126 456 112 L454 103 L435 0 L641 0 L642 9 L449 10 L466 105 C589 123 699 233 725 369 L725 369 Z " />
<glyph glyph-name="uni03BC" unicode="&#x3bc;" horiz-adv-x="476" d="M434 427 L387 183 L386 180 C362 72 286 -3 188 -3 C111 -3 61 43 72 150 L125 427 L115 427 L-4 -190 L4 -190 L62 100 C71 17 128 -12 188 -12 C261 -12 338 30 377 128 L353 0 L362 0 L443 427 L434 427 Z " />
<glyph glyph-name="pi" unicode="&#x3c0;" horiz-adv-x="556" d="M442 419 L523 419 L524 427 L115 427 L113 419 L186 419 L107 0 L117 0 L196 419 L433 419 L365 61 C354 7 383 -2 408 -2 C423 -2 438 2 447 6 L445 16 C437 11 422 7 408 7 C391 7 366 13 375 60 L442 419 Z " />
<glyph glyph-name="uni0400" unicode="&#x400;" horiz-adv-x="509" d="M418 690 L422 690 L319 830 L308 827 L397 707 C408 694 411 690 418 690 L418 690 Z M512 630 L515 640 L189 640 L66 0 L392 0 L393 10 L78 10 L137 316 L402 316 L404 325 L138 325 L197 630 L512 630 Z " />
<glyph glyph-name="uni0401" unicode="&#x401;" horiz-adv-x="509" d="M287 711 C296 711 305 719 306 728 C308 738 303 746 293 746 C283 746 273 738 272 730 C270 719 276 711 287 711 L287 711 Z M440 711 C449 711 458 719 460 728 C461 738 456 746 446 746 C436 746 427 738 425 730 C424 719 429 711 440 711 L440 711 Z M512 630 L515 640 L189 640 L66 0 L392 0 L393 10 L78 10 L137 316 L402 316 L404 325 L138 325 L197 630 L512 630 Z " />
<glyph glyph-name="uni0402" unicode="&#x402;" horiz-adv-x="640" d="M413 362 C337 362 271 320 237 297 L302 631 L448 631 L449 640 L147 640 L146 631 L292 631 L169 0 L179 0 L235 286 C275 314 337 353 411 353 C514 353 577 285 554 166 C525 20 407 -42 288 -24 L287 -34 C419 -50 536 20 565 167 C589 290 523 362 413 362 L413 362 Z " />
<glyph glyph-name="uni0403" unicode="&#x403;" horiz-adv-x="484" d="M334 707 L471 827 L461 830 L302 690 L307 690 C313 690 318 694 334 707 L334 707 Z M503 640 L189 640 L64 0 L74 0 L197 630 L501 630 L503 640 Z " />
<glyph glyph-name="uni0404" unicode="&#x404;" horiz-adv-x="619" d="M469 640 C539 640 593 622 631 594 L639 603 C596 633 538 649 470 649 C289 649 122 504 87 320 C51 137 161 -10 344 -10 C411 -10 474 7 529 37 L524 45 C475 17 413 0 343 0 C164 0 65 144 96 316 L432 316 L434 325 L98 325 C134 496 290 640 469 640 L469 640 Z " />
<glyph glyph-name="uni0405" unicode="&#x405;" horiz-adv-x="490" d="M197 -6 C301 -6 383 53 400 141 C419 236 360 282 281 328 C215 368 130 407 149 501 C165 587 237 640 316 640 C387 640 430 609 452 579 L462 586 C443 617 391 649 318 649 C241 649 158 603 139 502 C121 404 201 362 271 321 C354 272 407 229 390 142 C375 62 298 3 199 3 C110 3 61 37 39 80 L29 74 C45 39 94 -6 197 -6 L197 -6 Z " />
<glyph glyph-name="uni0406" unicode="&#x406;" horiz-adv-x="242" d="M209 640 L199 640 L74 0 L84 0 L209 640 Z " />
<glyph glyph-name="uni0407" unicode="&#x407;" horiz-adv-x="242" d="M148 746 C138 746 128 738 127 730 C125 719 131 711 142 711 C151 711 160 719 161 728 C163 738 158 746 148 746 L148 746 Z M301 746 C291 746 282 738 280 730 C279 719 284 711 295 711 C304 711 313 719 315 728 C316 738 311 746 301 746 L301 746 Z M209 640 L199 640 L74 0 L84 0 L209 640 Z " />
<glyph glyph-name="uni0408" unicode="&#x408;" horiz-adv-x="367" d="M116 -6 C192 -6 244 46 262 136 L359 640 L349 640 L251 129 C236 52 187 3 118 3 C69 3 49 20 33 51 L23 45 C39 15 64 -6 116 -6 L116 -6 Z " />
<glyph glyph-name="uni0409" unicode="&#x409;" horiz-adv-x="935" d="M711 336 L571 336 L630 640 L310 640 L308 630 L248 327 C225 203 185 6 63 6 C45 6 38 8 28 10 L27 1 C36 -1 41 -3 62 -3 C185 -3 228 168 262 343 L318 630 L618 630 L495 0 L647 0 C740 0 834 49 857 167 C879 285 804 336 711 336 L711 336 Z M847 167 C826 66 747 10 646 9 L507 9 L569 326 L708 326 C809 326 866 271 847 167 L847 167 Z " />
<glyph glyph-name="uni040A" unicode="&#x40a;" horiz-adv-x="925" d="M701 336 L561 336 L620 640 L610 640 L551 336 L140 336 L199 640 L189 640 L64 0 L74 0 L138 327 L549 327 L485 0 L636 0 C729 0 823 49 846 167 C869 285 794 336 701 336 L701 336 Z M836 168 C816 66 737 10 635 9 L497 9 L559 327 L697 327 C799 327 856 272 836 168 L836 168 Z " />
<glyph glyph-name="uni040B" unicode="&#x40b;" horiz-adv-x="635" d="M414 362 C343 362 271 327 231 298 L296 631 L448 631 L451 640 L148 640 L145 631 L286 631 L163 0 L173 0 L229 287 C274 320 337 353 415 353 C514 353 579 317 551 169 L517 0 L527 0 L560 172 C593 335 504 362 414 362 L414 362 Z " />
<glyph glyph-name="uni040C" unicode="&#x40c;" horiz-adv-x="559" d="M347 707 L484 827 L474 830 L315 690 L320 690 C326 690 331 694 347 707 L347 707 Z M199 640 L189 640 L66 0 L76 0 L199 640 Z M152 340 L445 0 L462 0 L167 340 L577 640 L561 640 L152 340 Z " />
<glyph glyph-name="uni040D" unicode="&#x40d;" horiz-adv-x="751" d="M536 690 L540 690 L437 830 L426 827 L515 707 C526 694 529 690 536 690 L536 690 Z M718 640 L79 17 L210 640 L200 640 L64 0 L75 0 L714 622 L582 0 L592 0 L728 640 L718 640 Z " />
<glyph glyph-name="uni040E" unicode="&#x40e;" horiz-adv-x="517" d="M352 690 C408 690 454 724 467 770 L458 770 C448 734 410 699 354 699 C299 699 275 734 281 770 L271 770 C264 723 300 690 352 690 L352 690 Z M552 640 L261 230 L131 640 L121 640 L255 221 L98 0 L108 0 L563 640 L552 640 Z " />
<glyph glyph-name="uni040F" unicode="&#x40f;" horiz-adv-x="642" d="M620 640 L610 640 L487 10 L76 10 L199 640 L189 640 L64 0 L277 0 L253 -120 L261 -120 L284 0 L495 0 L497 10 L620 640 Z " />
<glyph glyph-name="uni0410" unicode="&#x410;" horiz-adv-x="599" d="M509 0 L520 0 L386 640 L376 640 L-4 0 L8 0 L148 236 L460 236 L509 0 Z M153 245 L379 628 L458 245 L153 245 Z " />
<glyph glyph-name="uni0411" unicode="&#x411;" horiz-adv-x="509" d="M466 630 L469 640 L189 640 L187 630 L66 0 L180 0 C294 0 411 67 434 184 C456 302 365 369 251 369 L147 369 L197 630 L466 630 Z M247 359 C373 359 442 287 423 185 C403 82 306 10 180 10 L78 10 L145 359 L247 359 Z " />
<glyph glyph-name="uni0412" unicode="&#x412;" horiz-adv-x="528" d="M305 359 C374 364 436 428 448 493 C466 584 415 640 301 640 L189 640 L66 0 L172 0 C342 0 431 73 451 179 C469 273 409 352 305 359 L305 359 Z M197 630 L303 630 C408 630 456 581 439 495 C424 415 349 362 279 362 L145 362 L197 630 Z M441 180 C421 76 336 10 179 10 L78 10 L143 352 L278 352 C387 352 461 282 441 180 L441 180 Z " />
<glyph glyph-name="uni0413" unicode="&#x413;" horiz-adv-x="484" d="M503 640 L189 640 L64 0 L74 0 L197 630 L501 630 L503 640 Z " />
<glyph glyph-name="uni0414" unicode="&#x414;" horiz-adv-x="667" d="M496 10 L617 640 L315 640 L313 630 L277 439 C256 334 223 100 68 10 L28 10 L3 -120 L10 -120 L33 0 L552 0 L528 -120 L535 -120 L558 0 L559 0 L560 10 L496 10 Z M78 10 C237 99 269 354 299 505 L323 630 L605 630 L486 10 L78 10 Z " />
<glyph glyph-name="uni0415" unicode="&#x415;" horiz-adv-x="509" d="M512 630 L515 640 L189 640 L66 0 L392 0 L393 10 L78 10 L137 316 L402 316 L404 325 L138 325 L197 630 L512 630 Z " />
<glyph glyph-name="uni0416" unicode="&#x416;" horiz-adv-x="892" d="M454 340 L162 640 L146 640 L439 340 L14 0 L31 0 L454 340 Z M524 640 L399 0 L409 0 L534 640 L524 640 Z M486 340 L777 0 L795 0 L501 340 L912 640 L895 640 L486 340 Z " />
<glyph glyph-name="uni0417" unicode="&#x417;" horiz-adv-x="503" d="M466 496 C477 565 433 649 320 649 C251 649 211 632 171 606 L178 598 C210 623 260 639 319 639 C422 639 469 564 457 496 C444 423 401 379 346 361 C323 353 305 348 274 346 L254 346 L210 345 L209 335 C284 334 308 333 346 320 C408 297 428 237 414 171 C395 77 306 3 187 3 C106 3 63 42 28 79 L18 69 C64 23 104 -6 187 -6 C313 -7 403 67 425 171 C446 271 389 324 317 341 C393 357 452 410 466 496 L466 496 Z " />
<glyph glyph-name="uni0418" unicode="&#x418;" horiz-adv-x="751" d="M718 640 L79 17 L210 640 L200 640 L64 0 L75 0 L714 622 L582 0 L592 0 L728 640 L718 640 Z " />
<glyph glyph-name="uni0419" unicode="&#x419;" horiz-adv-x="751" d="M476 690 C532 690 578 724 591 770 L582 770 C572 734 534 699 478 699 C423 699 399 734 405 770 L395 770 C388 723 424 690 476 690 L476 690 Z M718 640 L79 17 L210 640 L200 640 L64 0 L75 0 L714 622 L582 0 L592 0 L728 640 L718 640 Z " />
<glyph glyph-name="uni041A" unicode="&#x41a;" horiz-adv-x="559" d="M199 640 L189 640 L66 0 L76 0 L199 640 Z M152 340 L445 0 L462 0 L167 340 L577 640 L561 640 L152 340 Z " />
<glyph glyph-name="uni041B" unicode="&#x41b;" horiz-adv-x="653" d="M630 640 L310 640 L308 630 L245 312 C226 210 185 6 63 6 C45 6 38 8 28 10 L27 1 C36 -1 41 -3 62 -3 C185 -3 226 157 259 327 L318 630 L618 630 L495 0 L505 0 L630 640 Z " />
<glyph glyph-name="uni041C" unicode="&#x41c;" horiz-adv-x="819" d="M786 640 L418 256 L197 640 L189 640 L66 0 L77 0 L196 620 L414 239 L780 621 L661 0 L671 0 L794 640 L786 640 Z " />
<glyph glyph-name="uni041D" unicode="&#x41d;" horiz-adv-x="688" d="M653 640 L596 341 L142 341 L199 640 L189 640 L66 0 L76 0 L140 332 L594 332 L530 0 L540 0 L663 640 L653 640 Z " />
<glyph glyph-name="uni041E" unicode="&#x41e;" horiz-adv-x="791" d="M353 -6 C542 -6 711 139 746 320 C782 504 668 649 478 649 C291 649 122 505 87 322 C51 140 164 -6 353 -6 L353 -6 Z M354 3 C169 3 64 146 97 320 C132 497 293 640 479 640 C663 640 770 499 736 322 C702 147 539 3 354 3 L354 3 Z " />
<glyph glyph-name="uni041F" unicode="&#x41f;" horiz-adv-x="642" d="M620 640 L189 640 L64 0 L74 0 L197 630 L608 630 L485 0 L495 0 L620 640 Z " />
<glyph glyph-name="uni0420" unicode="&#x420;" horiz-adv-x="479" d="M318 640 L189 640 L66 0 L76 0 L134 304 L255 304 C347 304 452 355 475 471 C498 590 411 640 318 640 L318 640 Z M464 472 C445 369 354 314 253 314 L136 314 L197 631 L315 631 C416 631 484 575 464 472 L464 472 Z " />
<glyph glyph-name="uni0421" unicode="&#x421;" horiz-adv-x="621" d="M344 -10 C412 -10 477 7 531 36 L526 46 C477 17 415 -1 346 -1 C164 -1 65 146 98 319 C132 492 289 640 470 640 C539 640 594 622 632 595 L640 603 C597 632 539 649 470 649 C288 649 123 503 87 321 C52 136 161 -10 344 -10 L344 -10 Z " />
<glyph glyph-name="uni0422" unicode="&#x422;" horiz-adv-x="516" d="M536 640 L147 640 L145 630 L334 630 L213 0 L223 0 L344 630 L534 630 L536 640 Z " />
<glyph glyph-name="uni0423" unicode="&#x423;" horiz-adv-x="517" d="M552 640 L261 230 L131 640 L121 640 L255 221 L98 0 L108 0 L563 640 L552 640 Z " />
<glyph glyph-name="uni0424" unicode="&#x424;" horiz-adv-x="790" d="M473 590 L490 680 L480 680 L463 590 C271 588 110 493 77 322 C44 153 167 55 358 53 L340 -40 L350 -40 L368 53 C560 54 722 151 756 322 C789 491 664 588 473 590 L473 590 Z M745 322 C713 159 558 65 370 63 L375 86 L376 89 L466 553 L467 556 L471 580 C659 579 776 487 745 322 L745 322 Z M88 322 C120 485 273 578 461 580 L457 557 L456 552 L365 88 L365 86 L360 63 C172 64 55 157 88 322 L88 322 Z " />
<glyph glyph-name="uni0425" unicode="&#x425;" horiz-adv-x="586" d="M600 640 L587 640 L316 333 L162 640 L149 640 L308 325 L14 0 L28 0 L313 316 L475 0 L488 0 L320 325 L600 640 Z " />
<glyph glyph-name="uni0426" unicode="&#x426;" horiz-adv-x="667" d="M497 10 L620 640 L610 640 L487 10 L76 10 L199 640 L189 640 L64 0 L553 0 L530 -120 L537 -120 L562 10 L497 10 Z " />
<glyph glyph-name="uni0427" unicode="&#x427;" horiz-adv-x="536" d="M504 640 L448 354 C403 321 339 287 261 287 C162 287 97 323 125 471 L159 640 L149 640 L116 468 C84 305 172 278 262 278 C334 278 406 314 446 343 L379 0 L389 0 L514 640 L504 640 Z " />
<glyph glyph-name="uni0428" unicode="&#x428;" horiz-adv-x="885" d="M862 640 L852 640 L729 10 L407 10 L530 640 L520 640 L397 10 L76 10 L199 640 L189 640 L64 0 L737 0 L739 10 L862 640 Z " />
<glyph glyph-name="uni0429" unicode="&#x429;" horiz-adv-x="909" d="M739 10 L862 640 L852 640 L729 10 L407 10 L530 640 L520 640 L397 10 L76 10 L199 640 L189 640 L64 0 L795 0 L772 -120 L779 -120 L804 10 L739 10 Z " />
<glyph glyph-name="uni042A" unicode="&#x42a;" horiz-adv-x="577" d="M353 336 L213 336 L272 640 L119 640 L117 630 L260 630 L137 0 L288 0 C381 0 475 49 498 167 C521 285 446 336 353 336 L353 336 Z M488 168 C468 66 388 10 287 9 L149 9 L211 327 L349 327 C451 327 508 272 488 168 L488 168 Z " />
<glyph glyph-name="uni042B" unicode="&#x42b;" horiz-adv-x="632" d="M281 336 L140 336 L199 640 L189 640 L64 0 L216 0 C309 0 403 49 426 167 C449 285 373 336 281 336 L281 336 Z M599 640 L475 0 L485 0 L609 640 L599 640 Z M416 168 C395 66 316 10 215 9 L76 9 L138 327 L277 327 C379 327 436 272 416 168 L416 168 Z " />
<glyph glyph-name="uni042C" unicode="&#x42c;" horiz-adv-x="505" d="M281 336 L140 336 L199 640 L189 640 L64 0 L216 0 C309 0 403 49 426 167 C449 285 373 336 281 336 L281 336 Z M416 168 C395 66 316 10 215 9 L76 9 L138 327 L277 327 C379 327 436 272 416 168 L416 168 Z " />
<glyph glyph-name="uni042D" unicode="&#x42d;" horiz-adv-x="623" d="M328 649 C259 649 195 633 140 603 L144 594 C194 622 255 640 325 640 C504 640 602 496 569 325 L233 325 L231 316 L567 316 C530 144 372 0 192 0 C122 0 67 17 30 45 L21 37 C64 7 121 -10 188 -10 C371 -10 540 137 578 320 C617 504 509 649 328 649 L328 649 Z " />
<glyph glyph-name="uni042E" unicode="&#x42e;" horiz-adv-x="944" d="M647 649 C474 649 318 521 274 341 L141 341 L199 640 L189 640 L64 0 L74 0 L139 332 L272 332 C271 329 271 325 270 322 C233 133 341 -6 521 -6 C701 -6 862 132 899 322 C935 511 827 649 647 649 L647 649 Z M888 322 C853 140 698 3 522 3 C346 3 245 139 281 322 C316 504 471 640 647 640 C822 640 923 505 888 322 L888 322 Z " />
<glyph glyph-name="uni042F" unicode="&#x42f;" horiz-adv-x="508" d="M485 640 L350 640 C257 640 155 590 131 480 C109 372 190 326 283 326 L325 326 L0 0 L13 0 L338 326 L408 326 L339 0 L349 0 L485 640 Z M292 335 C194 335 121 379 142 482 C164 581 253 631 351 631 L473 631 L410 335 L292 335 Z " />
<glyph glyph-name="uni0430" unicode="&#x430;" horiz-adv-x="533" d="M496 438 L465 285 L464 280 C460 371 399 438 302 438 C186 438 76 345 49 215 C22 87 92 -7 208 -7 C310 -7 403 68 444 169 L439 149 L411 0 L419 0 L505 438 L496 438 Z M211 2 C100 2 33 94 60 217 C85 337 189 429 299 429 C409 429 476 337 450 215 C424 93 320 2 211 2 L211 2 Z " />
<glyph glyph-name="uni0431" unicode="&#x431;" horiz-adv-x="547" d="M240 -6 C356 -6 456 88 478 200 C504 329 420 410 318 410 C209 410 107 325 83 215 C89 390 192 550 314 597 C367 619 440 618 517 673 L512 681 C430 624 376 632 310 608 C198 563 109 437 82 298 C68 223 65 146 88 88 C110 31 164 -6 240 -6 L240 -6 Z M241 3 C128 3 69 90 90 201 C112 313 210 400 319 400 C423 400 490 314 469 202 C447 92 346 3 241 3 L241 3 Z " />
<glyph glyph-name="uni0432" unicode="&#x432;" horiz-adv-x="446" d="M254 239 C306 243 349 283 358 329 C369 388 336 427 254 427 L115 427 L31 0 L165 0 C291 0 344 45 359 120 C371 181 336 234 254 239 L254 239 Z M123 417 L254 417 C326 417 358 389 348 331 C337 277 287 243 238 243 L89 243 L123 417 Z M348 120 C335 50 282 10 182 10 L44 10 L87 233 L236 233 C313 233 362 188 348 120 L348 120 Z " />
<glyph glyph-name="uni0433" unicode="&#x433;" horiz-adv-x="319" d="M340 427 L114 427 L111 417 L113 417 L31 0 L41 0 L123 417 L338 417 L340 427 Z " />
<glyph glyph-name="uni0434" unicode="&#x434;" horiz-adv-x="459" d="M332 10 L413 427 L182 427 L159 310 C147 247 132 110 17 10 L-10 10 L-13 0 L-12 0 L-34 -110 L-26 -110 L-5 0 L377 0 L355 -110 L363 -110 L386 10 L332 10 Z M165 283 L191 417 L401 417 L322 10 L31 10 C138 105 157 245 165 283 L165 283 Z " />
<glyph glyph-name="uni0435" unicode="&#x435;" horiz-adv-x="463" d="M306 438 C181 438 76 345 51 225 C27 96 84 -6 212 -6 C282 -6 341 23 385 61 L378 69 C338 33 283 4 213 4 C91 4 40 99 61 225 C62 228 62 232 63 235 L187 235 C303 235 419 255 427 338 C431 386 386 438 306 438 L306 438 Z M417 337 C409 282 347 246 193 246 L66 246 C96 347 192 428 306 428 C380 428 422 381 417 337 L417 337 Z " />
<glyph glyph-name="uni0436" unicode="&#x436;" horiz-adv-x="652" d="M-17 -1 L-1 -1 L314 233 L109 426 L94 426 L299 233 L-17 -1 Z M279 -1 L289 -1 L372 426 L363 426 L279 -1 Z M569 -1 L585 -1 L361 233 L642 426 L627 426 L345 233 L569 -1 Z " />
<glyph glyph-name="uni0437" unicode="&#x437;" horiz-adv-x="381" d="M340 326 C348 382 314 443 217 443 C173 443 125 431 96 413 L103 404 C127 423 178 433 215 433 C303 433 337 378 329 328 C321 282 292 256 253 244 C240 240 221 238 198 237 L189 237 L138 237 L136 226 C188 226 227 226 253 217 C297 200 309 157 300 113 C286 50 226 3 129 3 C80 3 31 20 12 37 L3 27 C31 6 81 -6 129 -6 C233 -6 296 43 312 112 C327 180 293 218 243 231 C295 243 330 278 340 326 L340 326 Z " />
<glyph glyph-name="uni0438" unicode="&#x438;" horiz-adv-x="462" d="M422 427 L44 13 L124 427 L115 427 L31 0 L41 0 L418 410 L338 0 L348 0 L431 427 L422 427 Z " />
<glyph glyph-name="uni0439" unicode="&#x439;" horiz-adv-x="462" d="M290 507 C346 507 392 541 405 587 L396 587 C386 551 348 516 292 516 C237 516 213 551 219 587 L209 587 C202 540 238 507 290 507 L290 507 Z M422 427 L44 13 L124 427 L115 427 L31 0 L41 0 L418 410 L338 0 L348 0 L431 427 L422 427 Z " />
<glyph glyph-name="uni043A" unicode="&#x43a;" horiz-adv-x="367" d="M124 427 L115 427 L31 0 L41 0 L124 427 Z M93 226 L287 0 L301 0 L106 226 L379 427 L367 427 L93 226 Z " />
<glyph glyph-name="uni043B" unicode="&#x43b;" horiz-adv-x="434" d="M404 427 L178 427 L176 418 L137 217 C124 151 99 5 14 5 C1 5 -7 7 -12 8 L-13 0 C-8 -2 0 -3 14 -3 C98 -3 127 116 145 209 L186 418 L392 418 L310 -1 L320 -1 L401 418 L402 418 L404 427 Z " />
<glyph glyph-name="uni043C" unicode="&#x43c;" horiz-adv-x="564" d="M525 427 L524 426 L524 427 L274 170 L123 425 L123 427 L115 427 L31 0 L41 0 L120 411 L272 157 L520 410 L440 0 L449 0 L533 427 L525 427 Z " />
<glyph glyph-name="uni043D" unicode="&#x43d;" horiz-adv-x="445" d="M404 427 L365 228 L85 228 L124 427 L115 427 L31 0 L41 0 L84 220 L363 220 L320 0 L330 0 L413 427 L404 427 Z " />
<glyph glyph-name="uni043E" unicode="&#x43e;" horiz-adv-x="540" d="M229 -6 C353 -6 467 91 491 215 C516 341 438 438 313 438 C187 438 75 341 50 217 C26 91 102 -6 229 -6 L229 -6 Z M230 3 C109 3 38 98 60 215 C83 334 192 429 313 429 C433 429 505 334 481 217 C458 98 350 3 230 3 L230 3 Z " />
<glyph glyph-name="uni043F" unicode="&#x43f;" horiz-adv-x="473" d="M442 427 L115 427 L113 419 L31 0 L41 0 L122 419 L430 419 L349 0 L358 0 L442 427 Z " />
<glyph glyph-name="uni0440" unicode="&#x440;" horiz-adv-x="531" d="M320 438 C225 438 138 373 96 284 L123 427 L115 427 L76 227 C75 223 75 220 74 217 C74 215 73 213 73 211 L-9 -210 L0 -210 L70 149 C78 58 138 -7 234 -7 C350 -7 458 87 482 215 C508 345 436 438 320 438 L320 438 Z M472 217 C449 94 346 2 235 2 C126 2 58 93 82 215 C105 337 209 429 319 429 C429 429 496 337 472 217 L472 217 Z " />
<glyph glyph-name="uni0441" unicode="&#x441;" horiz-adv-x="423" d="M218 -6 C269 -6 320 12 361 41 L355 48 C318 20 269 3 219 3 C95 3 37 97 59 216 C82 336 178 430 302 430 C352 430 393 413 420 384 L427 392 C398 421 356 439 303 439 C174 439 73 338 50 218 C26 93 87 -6 218 -6 L218 -6 Z " />
<glyph glyph-name="uni0442" unicode="&#x442;" horiz-adv-x="391" d="M396 427 L78 427 L76 419 L231 419 L149 0 L158 0 L239 419 L395 419 L396 427 Z " />
<glyph glyph-name="uni0443" unicode="&#x443;" horiz-adv-x="423" d="M433 427 L172 21 L74 427 L63 427 L165 10 L25 -210 L35 -210 L443 427 L433 427 Z " />
<glyph glyph-name="uni0444" unicode="&#x444;" horiz-adv-x="595" d="M346 438 L393 680 L383 680 L336 438 C196 436 76 352 50 216 C23 81 112 -4 250 -6 L210 -210 L220 -210 L260 -6 C399 -4 519 80 546 216 C573 350 483 436 346 438 L346 438 Z M60 216 C85 344 200 427 335 429 L253 3 C118 4 35 86 60 216 L60 216 Z M536 216 C511 88 394 5 262 3 L344 429 C476 427 561 346 536 216 L536 216 Z " />
<glyph glyph-name="uni0445" unicode="&#x445;" horiz-adv-x="398" d="M391 427 L378 427 L207 240 L208 240 L203 235 L200 240 L201 240 L102 427 L90 427 L197 228 L-17 0 L-3 0 L196 214 L195 214 L201 220 L204 214 L203 214 L319 0 L331 0 L207 227 L391 427 Z " />
<glyph glyph-name="uni0446" unicode="&#x446;" horiz-adv-x="492" d="M364 10 L445 427 L436 427 L354 10 L43 10 L124 427 L115 427 L31 0 L409 0 L388 -110 L395 -110 L418 10 L364 10 Z " />
<glyph glyph-name="uni0447" unicode="&#x447;" horiz-adv-x="401" d="M360 427 L320 225 C281 198 235 177 184 177 C118 177 66 200 85 301 L110 427 L101 427 L76 300 C53 186 124 168 185 168 C234 168 287 192 318 215 L276 0 L286 0 L369 427 L360 427 Z " />
<glyph glyph-name="uni0448" unicode="&#x448;" horiz-adv-x="632" d="M601 427 L592 427 L510 10 L281 10 L363 427 L353 427 L272 10 L43 10 L124 427 L115 427 L31 0 L518 0 L520 10 L601 427 Z " />
<glyph glyph-name="uni0449" unicode="&#x449;" horiz-adv-x="647" d="M520 10 L601 427 L592 427 L510 10 L281 10 L363 427 L353 427 L272 10 L43 10 L124 427 L115 427 L31 0 L565 0 L544 -110 L551 -110 L574 10 L520 10 Z " />
<glyph glyph-name="uni044A" unicode="&#x44a;" horiz-adv-x="455" d="M285 244 L163 244 L199 427 L79 427 L77 419 L187 419 L106 0 L239 0 C316 0 391 36 408 121 C425 207 362 244 285 244 L285 244 Z M398 121 C384 51 321 10 239 10 L117 10 L161 233 L283 233 C365 233 412 193 398 121 L398 121 Z " />
<glyph glyph-name="uni044B" unicode="&#x44b;" horiz-adv-x="535" d="M211 244 L88 244 L124 427 L115 427 L31 0 L164 0 C241 0 317 36 334 121 C350 207 288 244 211 244 L211 244 Z M495 427 L411 0 L421 0 L504 427 L495 427 Z M324 121 C309 51 247 10 165 10 L43 10 L86 233 L209 233 C290 233 337 193 324 121 L324 121 Z " />
<glyph glyph-name="uni044C" unicode="&#x44c;" horiz-adv-x="381" d="M211 244 L88 244 L124 427 L115 427 L31 0 L164 0 C241 0 317 36 334 121 C350 207 288 244 211 244 L211 244 Z M324 121 C309 51 247 10 165 10 L43 10 L86 233 L209 233 C290 233 337 193 324 121 L324 121 Z " />
<glyph glyph-name="uni044D" unicode="&#x44d;" horiz-adv-x="422" d="M209 439 C157 439 106 421 65 392 L68 383 C106 412 156 429 207 429 C328 429 384 338 365 222 L119 222 L117 212 L363 212 C337 94 246 4 125 4 C74 4 30 21 5 49 L-5 42 C26 12 69 -6 122 -6 C250 -6 351 94 374 217 C398 339 338 439 209 439 L209 439 Z " />
<glyph glyph-name="uni044E" unicode="&#x44e;" horiz-adv-x="662" d="M451 438 C335 438 230 343 205 220 L84 220 L124 427 L115 427 L31 0 L41 0 L82 212 L203 212 C181 90 250 -6 366 -6 C482 -6 589 90 613 216 C638 340 567 438 451 438 L451 438 Z M604 216 C580 98 477 3 367 3 C254 3 191 97 213 216 C237 333 338 429 451 429 C560 429 626 335 604 216 L604 216 Z " />
<glyph glyph-name="uni044F" unicode="&#x44f;" horiz-adv-x="403" d="M370 427 L227 427 C160 427 93 394 79 321 C65 248 123 218 192 218 L215 218 L1 0 L15 0 L227 218 L321 218 L280 0 L289 0 L370 427 Z M194 227 C124 227 77 256 89 321 C102 386 160 418 229 418 L359 418 L323 227 L194 227 Z " />
<glyph glyph-name="uni0450" unicode="&#x450;" horiz-adv-x="463" d="M371 508 L375 508 L272 648 L261 645 L350 525 C361 512 364 508 371 508 L371 508 Z M306 438 C181 438 76 345 51 225 C27 96 84 -6 212 -6 C282 -6 341 23 385 61 L378 69 C338 33 283 4 213 4 C91 4 40 99 61 225 C62 228 62 232 63 235 L187 235 C303 235 419 255 427 338 C431 386 386 438 306 438 L306 438 Z M417 337 C409 282 347 246 193 246 L66 246 C96 347 192 428 306 428 C380 428 422 381 417 337 L417 337 Z " />
<glyph glyph-name="uni0451" unicode="&#x451;" horiz-adv-x="463" d="M240 529 C249 529 258 537 259 546 C261 556 256 564 246 564 C236 564 226 556 225 548 C223 537 229 529 240 529 L240 529 Z M393 529 C402 529 411 537 413 546 C414 556 409 564 399 564 C389 564 380 556 378 548 C377 537 382 529 393 529 L393 529 Z M306 438 C181 438 76 345 51 225 C27 96 84 -6 212 -6 C282 -6 341 23 385 61 L378 69 C338 33 283 4 213 4 C91 4 40 99 61 225 C62 228 62 232 63 235 L187 235 C303 235 419 255 427 338 C431 386 386 438 306 438 L306 438 Z M417 337 C409 282 347 246 193 246 L66 246 C96 347 192 428 306 428 C380 428 422 381 417 337 L417 337 Z " />
<glyph glyph-name="uni0452" unicode="&#x452;" horiz-adv-x="498" d="M287 279 C214 279 142 225 105 150 L157 418 L356 418 L357 427 L159 427 L208 680 L198 680 L149 427 L91 427 L89 418 L147 418 L66 0 L76 0 L95 96 C124 198 206 269 287 269 C368 269 438 217 416 102 C392 -16 299 -58 244 -58 C216 -58 203 -55 188 -49 L183 -59 C207 -66 218 -68 247 -68 C308 -68 403 -22 427 99 C452 229 367 279 287 279 L287 279 Z " />
<glyph glyph-name="uni0453" unicode="&#x453;" horiz-adv-x="319" d="M221 524 L358 644 L348 647 L189 507 L194 507 C200 507 205 511 221 524 L221 524 Z M340 427 L114 427 L111 417 L113 417 L31 0 L41 0 L123 417 L338 417 L340 427 Z " />
<glyph glyph-name="uni0454" unicode="&#x454;" horiz-adv-x="423" d="M301 439 C172 439 74 339 50 217 C25 94 87 -6 216 -6 C269 -6 318 12 361 42 L354 49 C317 21 267 4 216 4 C95 4 40 94 59 212 L305 212 L307 222 L61 222 C87 338 179 429 300 429 C351 429 394 412 420 383 L427 392 C397 421 354 439 301 439 L301 439 Z " />
<glyph glyph-name="uni0455" unicode="&#x455;" horiz-adv-x="359" d="M9 59 C22 30 63 -6 129 -6 C208 -6 276 37 290 111 C322 274 62 190 87 328 C97 392 152 429 218 428 C273 428 302 409 321 387 L330 396 C310 417 278 438 219 438 C147 438 88 395 77 330 C49 175 309 264 280 111 C267 44 208 3 132 3 C70 3 31 37 20 67 L9 59 Z " />
<glyph glyph-name="uni0456" unicode="&#x456;" horiz-adv-x="185" d="M159 548 C169 548 180 556 182 567 C184 578 177 587 166 587 C155 587 145 578 143 567 C141 556 148 548 159 548 L159 548 Z M46 0 L56 0 L139 427 L130 427 L46 0 Z " />
<glyph glyph-name="uni0457" unicode="&#x457;" horiz-adv-x="185" d="M85 563 C75 563 65 555 64 547 C62 536 68 528 79 528 C88 528 97 536 98 545 C100 555 95 563 85 563 L85 563 Z M238 563 C228 563 219 555 217 547 C216 536 221 528 232 528 C241 528 250 536 252 545 C253 555 248 563 238 563 L238 563 Z M46 0 L56 0 L139 427 L130 427 L46 0 Z " />
<glyph glyph-name="uni0458" unicode="&#x458;" horiz-adv-x="210" d="M182 548 C192 548 203 556 205 567 C207 578 200 587 189 587 C178 587 168 578 166 567 C164 556 171 548 182 548 L182 548 Z M63 -96 L163 427 L154 427 L54 -95 C39 -172 -6 -207 -81 -199 L-82 -209 C-12 -217 45 -188 63 -96 L63 -96 Z " />
<glyph glyph-name="uni0459" unicode="&#x459;" horiz-adv-x="660" d="M490 244 L367 244 L401 418 L402 418 L404 427 L178 427 L176 418 L137 217 C124 151 99 5 14 5 C1 5 -7 7 -12 8 L-13 0 C-8 -2 0 -3 14 -3 C98 -3 127 116 145 209 L186 418 L391 418 L310 0 L443 0 C520 0 596 36 613 121 C629 207 567 244 490 244 L490 244 Z M603 121 C588 51 525 10 444 10 L322 10 L365 233 L487 233 C569 233 616 193 603 121 L603 121 Z " />
<glyph glyph-name="uni045A" unicode="&#x45a;" horiz-adv-x="658" d="M489 244 L368 244 L404 427 L394 427 L358 244 L88 244 L124 427 L115 427 L31 0 L41 0 L86 233 L356 233 L311 0 L442 0 C519 0 594 36 611 121 C628 207 566 244 489 244 L489 244 Z M602 121 C587 51 524 10 442 10 L322 10 L366 233 L486 233 C568 233 615 193 602 121 L602 121 Z " />
<glyph glyph-name="uni045B" unicode="&#x45b;" horiz-adv-x="498" d="M283 279 C205 279 140 226 105 150 L157 418 L356 418 L357 427 L159 427 L208 680 L198 680 L149 427 L91 427 L89 418 L147 418 L66 0 L76 0 L95 99 C124 201 196 270 284 270 C360 270 421 222 394 85 L378 0 L387 0 L405 86 C434 240 353 279 283 279 L283 279 Z " />
<glyph glyph-name="uni045C" unicode="&#x45c;" horiz-adv-x="367" d="M240 524 L377 644 L367 647 L208 507 L213 507 C219 507 224 511 240 524 L240 524 Z M124 427 L115 427 L31 0 L41 0 L124 427 Z M93 226 L287 0 L301 0 L106 226 L379 427 L367 427 L93 226 Z " />
<glyph glyph-name="uni045D" unicode="&#x45d;" horiz-adv-x="462" d="M350 507 L354 507 L251 647 L240 644 L329 524 C340 511 343 507 350 507 L350 507 Z M422 427 L44 13 L124 427 L115 427 L31 0 L41 0 L418 410 L338 0 L348 0 L431 427 L422 427 Z " />
<glyph glyph-name="uni045E" unicode="&#x45e;" horiz-adv-x="423" d="M268 507 C324 507 371 541 383 587 L375 587 C365 551 326 516 270 516 C215 516 192 551 197 587 L187 587 C181 540 216 507 268 507 L268 507 Z M433 427 L172 21 L74 427 L63 427 L165 10 L25 -210 L35 -210 L443 427 L433 427 Z " />
<glyph glyph-name="uni045F" unicode="&#x45f;" horiz-adv-x="476" d="M450 449 L440 449 L354 9 L43 9 L129 449 L119 449 L31 -1 L193 -1 L171 -111 L179 -111 L201 -1 L362 -1 L364 9 L450 449 Z " />
<glyph glyph-name="uni0462" unicode="&#x462;" horiz-adv-x="543" d="M319 336 L178 336 L211 508 L397 508 L400 517 L213 517 L237 640 L227 640 L203 517 L124 517 L121 508 L201 508 L102 0 L254 0 C347 0 441 49 464 167 C487 285 411 336 319 336 L319 336 Z M454 168 C433 66 354 10 253 9 L114 9 L176 327 L315 327 C417 327 474 272 454 168 L454 168 Z " />
<glyph glyph-name="uni0463" unicode="&#x463;" horiz-adv-x="456" d="M248 255 L126 255 L157 418 L356 418 L357 427 L159 427 L208 680 L198 680 L149 427 L91 427 L89 418 L147 418 L66 0 L199 0 C277 0 353 38 370 126 C388 215 325 255 248 255 L248 255 Z M360 127 C346 54 281 10 199 10 L78 10 L123 244 L246 244 C328 244 374 203 360 127 L360 127 Z " />
<glyph glyph-name="uni0472" unicode="&#x472;" horiz-adv-x="791" d="M478 649 C291 649 122 505 87 322 C51 140 164 -6 353 -6 C542 -6 711 139 746 320 C782 504 668 649 478 649 L478 649 Z M737 327 L98 327 C136 501 295 640 479 640 C661 640 768 502 737 327 L737 327 Z M354 3 C170 3 65 145 97 318 L735 318 C700 145 538 3 354 3 L354 3 Z " />
<glyph glyph-name="uni0473" unicode="&#x473;" horiz-adv-x="540" d="M313 438 C187 438 75 341 50 217 C25 91 102 -6 229 -6 C352 -6 467 91 491 215 C515 341 438 438 313 438 L313 438 Z M312 428 C431 428 503 336 481 220 L62 220 C87 338 194 428 312 428 L312 428 Z M230 4 C110 4 40 95 60 212 L479 212 C453 94 347 4 230 4 L230 4 Z " />
<glyph glyph-name="uni0474" unicode="&#x474;" horiz-adv-x="679" d="M693 644 C674 644 630 638 592 574 L260 17 L132 640 L121 640 L254 0 L261 0 L606 572 C640 630 680 632 696 632 C706 632 718 630 727 625 L733 635 C722 642 707 644 693 644 L693 644 Z " />
<glyph glyph-name="uni0475" unicode="&#x475;" horiz-adv-x="492" d="M491 435 C473 435 444 428 413 380 L178 12 L74 427 L63 427 L172 0 L180 0 L421 375 C450 420 476 426 490 426 C501 426 511 423 517 418 L523 426 C514 432 503 435 491 435 L491 435 Z " />
<glyph glyph-name="uni0490" unicode="&#x490;" horiz-adv-x="484" d="M526 760 L518 760 L495 640 L189 640 L64 0 L74 0 L197 630 L501 630 L503 640 L526 760 Z " />
<glyph glyph-name="uni0491" unicode="&#x491;" horiz-adv-x="319" d="M363 547 L355 547 L332 427 L114 427 L111 417 L113 417 L31 0 L41 0 L123 417 L338 417 L340 427 L363 547 Z " />
<glyph glyph-name="uni04BB" unicode="&#x4bb;" horiz-adv-x="469" d="M281 439 C203 439 138 386 102 313 L173 680 L163 680 L31 0 L41 0 L94 272 C125 366 195 430 281 430 C362 430 422 381 395 246 L349 0 L358 0 L406 247 C435 401 355 439 281 439 L281 439 Z " />
<glyph glyph-name="uni04C0" unicode="&#x4c0;" horiz-adv-x="242" d="M209 640 L199 640 L74 0 L84 0 L209 640 Z " />
<glyph glyph-name="uni04D8" unicode="&#x4d8;" horiz-adv-x="708" d="M416 656 C317 656 230 615 172 561 L179 557 C234 607 318 647 414 647 C591 647 689 505 654 323 L654 321 L86 321 L84 307 C49 129 129 -11 296 -11 C477 -11 629 138 664 322 C699 506 600 656 416 656 L416 656 Z M297 -2 C141 -2 61 124 94 311 L652 311 C612 134 465 -2 297 -2 L297 -2 Z " />
<glyph glyph-name="uni04D9" unicode="&#x4d9;" horiz-adv-x="463" d="M251 433 C181 433 122 404 78 366 L85 358 C125 394 180 423 250 423 C372 423 423 328 402 202 C401 199 401 195 400 192 L276 192 C160 192 44 172 36 89 C32 41 77 -11 157 -11 C282 -11 387 82 412 202 C436 331 379 433 251 433 L251 433 Z M157 -1 C83 -1 41 46 46 90 C54 145 116 181 270 181 L397 181 C367 80 271 -1 157 -1 L157 -1 Z " />
<glyph glyph-name="uni04E2" unicode="&#x4e2;" horiz-adv-x="751" d="M573 744 L400 744 L398 735 L570 735 L573 744 Z M718 640 L79 17 L210 640 L200 640 L64 0 L75 0 L714 622 L582 0 L592 0 L728 640 L718 640 Z " />
<glyph glyph-name="uni04E3" unicode="&#x4e3;" horiz-adv-x="462" d="M386 561 L213 561 L211 552 L383 552 L386 561 Z M422 427 L44 13 L124 427 L115 427 L31 0 L41 0 L418 410 L338 0 L348 0 L431 427 L422 427 Z " />
<glyph glyph-name="uni04E8" unicode="&#x4e8;" horiz-adv-x="791" d="M478 649 C291 649 122 505 87 322 C51 140 164 -6 353 -6 C542 -6 711 139 746 320 C782 504 668 649 478 649 L478 649 Z M737 327 L98 327 C136 501 295 640 479 640 C661 640 768 502 737 327 L737 327 Z M354 3 C170 3 65 145 97 318 L735 318 C700 145 538 3 354 3 L354 3 Z " />
<glyph glyph-name="uni04E9" unicode="&#x4e9;" horiz-adv-x="540" d="M313 438 C187 438 75 341 50 217 C25 91 102 -6 229 -6 C352 -6 467 91 491 215 C515 341 438 438 313 438 L313 438 Z M312 428 C431 428 503 336 481 220 L62 220 C87 338 194 428 312 428 L312 428 Z M230 4 C110 4 40 95 60 212 L479 212 C453 94 347 4 230 4 L230 4 Z " />
<glyph glyph-name="uni04EE" unicode="&#x4ee;" horiz-adv-x="517" d="M448 744 L275 744 L273 735 L445 735 L448 744 Z M552 640 L261 230 L131 640 L121 640 L255 221 L98 0 L108 0 L563 640 L552 640 Z " />
<glyph glyph-name="uni04EF" unicode="&#x4ef;" horiz-adv-x="423" d="M365 561 L192 561 L190 552 L362 552 L365 561 Z M433 427 L172 21 L74 427 L63 427 L165 10 L25 -210 L35 -210 L443 427 L433 427 Z " />
<glyph glyph-name="uni0E3F" unicode="&#xe3f;" horiz-adv-x="560" d="M316 359 C384 364 447 428 459 493 C476 580 430 635 327 640 L347 744 L339 744 L319 640 L311 640 L198 640 L75 0 L182 0 L196 0 L177 -98 L185 -98 L204 0 C360 6 443 78 462 179 C480 273 419 352 316 359 L316 359 Z M207 630 L313 630 L317 630 L266 362 L155 362 L207 630 Z M449 495 C434 415 359 362 289 362 L274 362 L325 630 C422 626 465 578 449 495 L449 495 Z M189 10 L88 10 L153 352 L264 352 L198 10 L189 10 Z M452 180 C432 80 352 15 206 10 L272 352 L287 352 C397 352 471 282 452 180 L452 180 Z " />
<glyph glyph-name="uni1E02" unicode="&#x1e02;" horiz-adv-x="528" d="M340 721 C351 721 361 729 364 740 C366 751 359 760 348 760 C337 760 327 751 325 740 C323 729 330 721 340 721 L340 721 Z M305 359 C374 364 436 428 448 493 C466 584 415 640 301 640 L189 640 L66 0 L172 0 C342 0 431 73 451 179 C469 273 409 352 305 359 L305 359 Z M197 630 L303 630 C408 630 456 581 439 495 C424 415 349 362 279 362 L145 362 L197 630 Z M441 180 C421 76 336 10 179 10 L78 10 L143 352 L278 352 C387 352 461 282 441 180 L441 180 Z " />
<glyph glyph-name="uni1E03" unicode="&#x1e03;" horiz-adv-x="531" d="M320 438 C225 438 139 374 97 286 L173 680 L163 680 L31 0 L39 0 L70 152 C76 59 137 -7 234 -7 C350 -7 458 87 482 215 C508 345 436 438 320 438 L320 438 Z M338 538 C349 538 359 546 362 557 C364 568 357 577 346 577 C335 577 325 568 323 557 C321 546 328 538 338 538 L338 538 Z M472 217 C449 94 346 2 235 2 C126 2 58 93 82 215 C106 337 209 429 319 429 C429 429 496 337 472 217 L472 217 Z " />
<glyph glyph-name="uni1E04" unicode="&#x1e04;" horiz-adv-x="528" d="M305 359 C374 364 436 428 448 493 C466 584 415 640 301 640 L189 640 L66 0 L172 0 C342 0 431 73 451 179 C469 273 409 352 305 359 L305 359 Z M197 630 L303 630 C408 630 456 581 439 495 C424 415 349 362 279 362 L145 362 L197 630 Z M441 180 C421 76 336 10 179 10 L78 10 L143 352 L278 352 C387 352 461 282 441 180 L441 180 Z M190 -69 C179 -69 169 -78 167 -89 C165 -100 172 -108 183 -108 C193 -108 204 -100 206 -89 C208 -78 201 -69 190 -69 L190 -69 Z " />
<glyph glyph-name="uni1E05" unicode="&#x1e05;" horiz-adv-x="531" d="M320 438 C225 438 139 374 97 286 L173 680 L163 680 L31 0 L39 0 L70 152 C76 59 137 -7 234 -7 C350 -7 458 87 482 215 C508 345 436 438 320 438 L320 438 Z M472 217 C449 94 346 2 235 2 C126 2 58 93 82 215 C106 337 209 429 319 429 C429 429 496 337 472 217 L472 217 Z M229 -69 C218 -69 208 -78 206 -89 C204 -100 211 -108 222 -108 C232 -108 243 -100 245 -89 C247 -78 240 -69 229 -69 L229 -69 Z " />
<glyph glyph-name="uni1E0A" unicode="&#x1e0a;" horiz-adv-x="637" d="M382 721 C393 721 403 729 406 740 C408 751 401 760 390 760 C379 760 369 751 367 740 C365 729 372 721 382 721 L382 721 Z M304 640 L189 640 L66 0 L182 0 C415 0 558 142 592 319 C626 498 539 640 304 640 L304 640 Z M581 321 C538 102 360 9 188 9 L78 9 L197 631 L308 631 C479 631 623 539 581 321 L581 321 Z " />
<glyph glyph-name="uni1E0B" unicode="&#x1e0b;" horiz-adv-x="534" d="M543 680 L463 286 C455 374 395 438 300 438 C184 438 75 345 49 215 C23 87 94 -7 210 -7 C307 -7 394 59 437 152 L407 0 L416 0 L552 680 L543 680 Z M319 538 C330 538 340 546 343 557 C345 568 338 577 327 577 C316 577 306 568 304 557 C302 546 309 538 319 538 L319 538 Z M213 2 C102 2 35 94 60 217 C84 337 187 429 297 429 C407 429 475 337 450 215 C426 93 322 2 213 2 L213 2 Z " />
<glyph glyph-name="uni1E0C" unicode="&#x1e0c;" horiz-adv-x="637" d="M304 640 L189 640 L66 0 L182 0 C415 0 558 142 592 319 C626 498 539 640 304 640 L304 640 Z M581 321 C538 102 360 9 188 9 L78 9 L197 631 L308 631 C479 631 623 539 581 321 L581 321 Z M233 -69 C222 -69 212 -78 210 -89 C208 -100 215 -108 226 -108 C236 -108 247 -100 249 -89 C251 -78 244 -69 233 -69 L233 -69 Z " />
<glyph glyph-name="uni1E0D" unicode="&#x1e0d;" horiz-adv-x="535" d="M543 680 L463 286 C455 374 395 438 300 438 C184 438 75 345 49 215 C23 87 94 -7 210 -7 C307 -7 394 59 437 152 L407 0 L416 0 L552 680 L543 680 Z M213 2 C102 2 35 94 60 217 C84 337 187 429 297 429 C407 429 475 337 450 215 C426 93 322 2 213 2 L213 2 Z M214 -69 C204 -69 193 -78 191 -89 C189 -100 196 -108 207 -108 C217 -108 228 -100 230 -89 C232 -78 225 -69 214 -69 L214 -69 Z " />
<glyph glyph-name="uni1E0E" unicode="&#x1e0e;" horiz-adv-x="637" d="M304 640 L189 640 L66 0 L182 0 C415 0 558 142 592 319 C626 498 539 640 304 640 L304 640 Z M581 321 C538 102 360 9 188 9 L78 9 L197 631 L308 631 C479 631 623 539 581 321 L581 321 Z M145 -96 L318 -96 L320 -87 L147 -87 L145 -96 Z " />
<glyph glyph-name="uni1E0F" unicode="&#x1e0f;" horiz-adv-x="535" d="M543 680 L463 286 C455 374 395 438 300 438 C184 438 75 345 49 215 C23 87 94 -7 210 -7 C307 -7 394 59 437 152 L407 0 L416 0 L552 680 L543 680 Z M213 2 C102 2 35 94 60 217 C84 337 187 429 297 429 C407 429 475 337 450 215 C426 93 322 2 213 2 L213 2 Z M127 -96 L299 -96 L301 -87 L129 -87 L127 -96 Z " />
<glyph glyph-name="uni1E12" unicode="&#x1e12;" horiz-adv-x="637" d="M304 640 L189 640 L66 0 L182 0 C415 0 558 142 592 319 C626 498 539 640 304 640 L304 640 Z M581 321 C538 102 360 9 188 9 L78 9 L197 631 L308 631 C479 631 623 539 581 321 L581 321 Z M228 -56 L116 -147 L121 -147 C127 -147 132 -144 135 -142 L229 -66 L293 -142 C295 -144 299 -147 305 -147 L310 -147 L234 -56 L228 -56 Z " />
<glyph glyph-name="uni1E13" unicode="&#x1e13;" horiz-adv-x="534" d="M543 680 L463 286 C455 374 395 438 300 438 C184 438 75 345 49 215 C23 87 94 -7 210 -7 C307 -7 394 59 437 152 L407 0 L416 0 L552 680 L543 680 Z M213 2 C102 2 35 94 60 217 C84 337 187 429 297 429 C407 429 475 337 450 215 C426 93 322 2 213 2 L213 2 Z M208 -56 L96 -147 L101 -147 C107 -147 112 -144 115 -142 L209 -66 L273 -142 C275 -144 279 -147 285 -147 L290 -147 L214 -56 L208 -56 Z " />
<glyph glyph-name="uni1E1E" unicode="&#x1e1e;" horiz-adv-x="481" d="M357 721 C368 721 378 729 381 740 C383 751 376 760 365 760 C354 760 344 751 342 740 C340 729 347 721 357 721 L357 721 Z M510 630 L512 640 L189 640 L66 0 L76 0 L137 316 L400 316 L401 326 L139 326 L197 630 L510 630 Z " />
<glyph glyph-name="uni1E1F" unicode="&#x1e1f;" horiz-adv-x="268" d="M256 759 C267 759 277 767 280 778 C282 789 275 798 264 798 C253 798 243 789 241 778 C239 767 246 759 256 759 L256 759 Z M292 689 C247 689 194 658 180 584 L150 427 L91 427 L89 419 L148 419 L27 -210 L35 -210 L158 419 L272 419 L273 427 L159 427 L190 584 C203 653 253 680 288 680 C316 680 335 670 348 659 L356 668 C340 679 318 689 292 689 L292 689 Z " />
<glyph glyph-name="uni1E24" unicode="&#x1e24;" horiz-adv-x="688" d="M653 640 L596 341 L142 341 L199 640 L189 640 L66 0 L76 0 L140 332 L594 332 L530 0 L540 0 L663 640 L653 640 Z M293 -69 C282 -69 272 -78 270 -89 C268 -100 275 -108 286 -108 C296 -108 307 -100 309 -89 C311 -78 304 -69 293 -69 L293 -69 Z " />
<glyph glyph-name="uni1E25" unicode="&#x1e25;" horiz-adv-x="469" d="M281 439 C203 439 138 386 102 313 L173 680 L163 680 L31 0 L41 0 L94 272 C125 366 195 430 281 430 C362 430 422 381 395 246 L349 0 L358 0 L406 247 C435 401 355 439 281 439 L281 439 Z M193 -69 C182 -69 172 -78 170 -89 C168 -100 175 -108 186 -108 C196 -108 207 -100 209 -89 C211 -78 204 -69 193 -69 L193 -69 Z " />
<glyph glyph-name="uni1E2E" unicode="&#x1e2e;" horiz-adv-x="242" d="M222 779 L227 779 C231 779 240 783 244 788 L347 880 L335 882 L222 779 Z M152 749 C142 749 133 741 131 733 C130 722 135 714 146 714 C155 714 164 722 166 731 C167 741 162 749 152 749 L152 749 Z M306 749 C296 749 286 741 285 733 C283 722 289 714 300 714 C309 714 318 722 319 731 C321 741 315 749 306 749 L306 749 Z M209 640 L199 640 L74 0 L84 0 L209 640 Z " />
<glyph glyph-name="uni1E2F" unicode="&#x1e2f;" horiz-adv-x="185" d="M146 608 L283 728 L273 731 L114 591 L119 591 C125 591 130 595 146 608 L146 608 Z M85 563 C75 563 65 555 64 547 C62 536 68 528 79 528 C88 528 97 536 98 545 C100 555 95 563 85 563 L85 563 Z M238 563 C228 563 219 555 217 547 C216 536 221 528 232 528 C241 528 250 536 252 545 C253 555 248 563 238 563 L238 563 Z M46 0 L56 0 L139 427 L130 427 L46 0 Z " />
<glyph glyph-name="uni1E36" unicode="&#x1e36;" horiz-adv-x="466" d="M78 10 L199 640 L189 640 L66 0 L369 0 L370 10 L78 10 Z M184 -69 C173 -69 163 -78 161 -89 C159 -100 166 -108 177 -108 C187 -108 198 -100 200 -89 C202 -78 195 -69 184 -69 L184 -69 Z " />
<glyph glyph-name="uni1E37" unicode="&#x1e37;" horiz-adv-x="163" d="M35 0 L45 0 L177 680 L167 680 L35 0 Z M23 -108 C33 -108 44 -100 46 -89 C48 -78 41 -69 30 -69 C19 -69 9 -78 7 -89 C5 -100 12 -108 23 -108 L23 -108 Z " />
<glyph glyph-name="uni1E3C" unicode="&#x1e3c;" horiz-adv-x="466" d="M78 10 L199 640 L189 640 L66 0 L369 0 L370 10 L78 10 Z M179 -56 L67 -147 L72 -147 C78 -147 83 -144 86 -142 L180 -66 L244 -142 C246 -144 250 -147 256 -147 L261 -147 L185 -56 L179 -56 Z " />
<glyph glyph-name="uni1E3D" unicode="&#x1e3d;" horiz-adv-x="163" d="M35 0 L45 0 L177 680 L167 680 L35 0 Z M30 -56 L24 -56 L-88 -147 L-83 -147 C-77 -147 -72 -144 -69 -142 L25 -66 L89 -142 C91 -144 95 -147 101 -147 L106 -147 L30 -56 Z " />
<glyph glyph-name="uni1E3E" unicode="&#x1e3e;" horiz-adv-x="819" d="M480 707 L617 827 L607 830 L448 690 L453 690 C459 690 464 694 480 707 L480 707 Z M786 640 L418 256 L197 640 L189 640 L66 0 L77 0 L196 620 L414 239 L780 621 L661 0 L671 0 L794 640 L786 640 Z " />
<glyph glyph-name="uni1E3F" unicode="&#x1e3f;" horiz-adv-x="732" d="M408 524 L545 644 L535 647 L376 507 L381 507 C387 507 392 511 408 524 L408 524 Z M558 439 C487 439 422 392 386 297 C392 408 318 439 267 439 C206 439 135 394 100 303 L101 306 L123 427 L115 427 L33 0 L43 0 L93 266 C123 365 191 430 264 430 C348 430 391 362 373 267 L322 0 L331 0 L376 234 C404 359 471 430 554 430 C650 430 682 363 661 257 L612 0 L622 0 L671 255 C699 401 628 439 558 439 L558 439 Z " />
<glyph glyph-name="uni1E44" unicode="&#x1e44;" horiz-adv-x="742" d="M467 721 C478 721 488 729 491 740 C493 751 486 760 475 760 C464 760 454 751 452 740 C450 729 457 721 467 721 L467 721 Z M707 640 L586 18 L199 640 L189 640 L66 0 L77 0 L196 623 L583 0 L594 0 L717 640 L707 640 Z " />
<glyph glyph-name="uni1E45" unicode="&#x1e45;" horiz-adv-x="471" d="M305 538 C316 538 326 546 329 557 C331 568 324 577 313 577 C302 577 292 568 290 557 C288 546 295 538 305 538 L305 538 Z M283 439 C203 439 136 383 101 307 L123 427 L115 427 L33 0 L43 0 L89 244 C113 353 189 430 283 430 C364 430 424 381 398 246 L351 0 L361 0 L408 247 C437 401 357 439 283 439 L283 439 Z " />
<glyph glyph-name="uni1E46" unicode="&#x1e46;" horiz-adv-x="742" d="M707 640 L586 18 L199 640 L189 640 L66 0 L77 0 L196 623 L583 0 L594 0 L717 640 L707 640 Z M319 -69 C308 -69 298 -78 296 -89 C294 -100 301 -108 312 -108 C322 -108 333 -100 335 -89 C337 -78 330 -69 319 -69 L319 -69 Z " />
<glyph glyph-name="uni1E47" unicode="&#x1e47;" horiz-adv-x="471" d="M283 439 C203 439 136 383 101 307 L123 427 L115 427 L33 0 L43 0 L89 244 C113 353 189 430 283 430 C364 430 424 381 398 246 L351 0 L361 0 L408 247 C437 401 357 439 283 439 L283 439 Z M191 -69 C180 -69 170 -78 168 -89 C166 -100 173 -108 184 -108 C194 -108 205 -100 207 -89 C209 -78 202 -69 191 -69 L191 -69 Z " />
<glyph glyph-name="uni1E4A" unicode="&#x1e4a;" horiz-adv-x="742" d="M707 640 L586 18 L199 640 L189 640 L66 0 L77 0 L196 623 L583 0 L594 0 L717 640 L707 640 Z M314 -56 L202 -147 L207 -147 C213 -147 218 -144 221 -142 L315 -66 L379 -142 C381 -144 385 -147 391 -147 L396 -147 L320 -56 L314 -56 Z " />
<glyph glyph-name="uni1E4B" unicode="&#x1e4b;" horiz-adv-x="471" d="M283 439 C203 439 136 383 101 307 L123 427 L115 427 L33 0 L43 0 L89 244 C113 353 189 430 283 430 C364 430 424 381 398 246 L351 0 L361 0 L408 247 C437 401 357 439 283 439 L283 439 Z M185 -56 L73 -147 L78 -147 C84 -147 89 -144 92 -142 L186 -66 L250 -142 C252 -144 256 -147 262 -147 L267 -147 L191 -56 L185 -56 Z " />
<glyph glyph-name="uni1E4C" unicode="&#x1e4c;" horiz-adv-x="791" d="M505 789 L510 789 C514 789 523 793 527 798 L630 890 L618 892 L505 789 Z M557 711 C586 711 609 728 625 755 L616 760 C606 742 586 721 560 721 C526 721 501 759 468 759 C442 759 420 744 406 721 L414 716 C424 732 440 750 464 750 C497 750 518 711 557 711 L557 711 Z M353 -6 C542 -6 711 139 746 320 C782 504 668 649 478 649 C291 649 122 505 87 322 C51 140 164 -6 353 -6 L353 -6 Z M354 3 C169 3 64 146 97 320 C132 497 293 640 479 640 C663 640 770 499 736 322 C702 147 539 3 354 3 L354 3 Z " />
<glyph glyph-name="uni1E4D" unicode="&#x1e4d;" horiz-adv-x="540" d="M328 606 L333 606 C337 606 346 610 350 615 L453 707 L441 709 L328 606 Z M379 528 C408 528 431 545 447 572 L438 577 C428 559 408 538 382 538 C348 538 323 576 290 576 C264 576 242 561 228 538 L236 533 C246 549 262 567 286 567 C319 567 340 528 379 528 L379 528 Z M229 -6 C353 -6 467 91 491 215 C516 341 438 438 313 438 C187 438 75 341 50 217 C26 91 102 -6 229 -6 L229 -6 Z M230 3 C109 3 38 98 60 215 C83 334 192 429 313 429 C433 429 505 334 481 217 C458 98 350 3 230 3 L230 3 Z " />
<glyph glyph-name="uni1E50" unicode="&#x1e50;" horiz-adv-x="791" d="M515 746 L443 849 L430 847 L497 755 C500 750 506 746 510 746 L515 746 Z M423 697 L595 697 L597 706 L425 706 L423 697 Z M353 -6 C542 -6 711 139 746 320 C782 504 668 649 478 649 C291 649 122 505 87 322 C51 140 164 -6 353 -6 L353 -6 Z M354 3 C169 3 64 146 97 320 C132 497 293 640 479 640 C663 640 770 499 736 322 C702 147 539 3 354 3 L354 3 Z " />
<glyph glyph-name="uni1E51" unicode="&#x1e51;" horiz-adv-x="540" d="M338 563 L266 667 L253 664 L320 572 C322 568 329 563 333 563 L338 563 Z M246 514 L418 514 L420 523 L248 523 L246 514 Z M229 -6 C353 -6 467 91 491 215 C516 341 438 438 313 438 C187 438 75 341 50 217 C26 91 102 -6 229 -6 L229 -6 Z M230 3 C109 3 38 98 60 215 C83 334 192 429 313 429 C433 429 505 334 481 217 C458 98 350 3 230 3 L230 3 Z " />
<glyph glyph-name="uni1E52" unicode="&#x1e52;" horiz-adv-x="791" d="M492 746 L497 746 C501 746 510 750 514 755 L617 847 L605 849 L492 746 Z M423 697 L595 697 L597 706 L425 706 L423 697 Z M353 -6 C542 -6 711 139 746 320 C782 504 668 649 478 649 C291 649 122 505 87 322 C51 140 164 -6 353 -6 L353 -6 Z M354 3 C169 3 64 146 97 320 C132 497 293 640 479 640 C663 640 770 499 736 322 C702 147 539 3 354 3 L354 3 Z " />
<glyph glyph-name="uni1E53" unicode="&#x1e53;" horiz-adv-x="540" d="M316 563 L321 563 C325 563 333 568 337 572 L440 664 L429 667 L316 563 Z M246 514 L418 514 L420 523 L248 523 L246 514 Z M229 -6 C353 -6 467 91 491 215 C516 341 438 438 313 438 C187 438 75 341 50 217 C26 91 102 -6 229 -6 L229 -6 Z M230 3 C109 3 38 98 60 215 C83 334 192 429 313 429 C433 429 505 334 481 217 C458 98 350 3 230 3 L230 3 Z " />
<glyph glyph-name="uni1E56" unicode="&#x1e56;" horiz-adv-x="479" d="M337 721 C348 721 358 729 361 740 C363 751 356 760 345 760 C334 760 324 751 322 740 C320 729 327 721 337 721 L337 721 Z M318 640 L189 640 L66 0 L76 0 L134 304 L255 304 C347 304 452 355 475 471 C498 590 411 640 318 640 L318 640 Z M464 472 C445 369 354 314 253 314 L136 314 L197 631 L315 631 C416 631 484 575 464 472 L464 472 Z " />
<glyph glyph-name="uni1E57" unicode="&#x1e57;" horiz-adv-x="531" d="M330 538 C341 538 351 546 354 557 C356 568 349 577 338 577 C327 577 317 568 315 557 C313 546 320 538 330 538 L330 538 Z M320 438 C225 438 138 373 96 284 L123 427 L115 427 L76 227 C75 223 75 220 74 217 C74 215 73 213 73 211 L-9 -210 L0 -210 L70 149 C78 58 138 -7 234 -7 C350 -7 458 87 482 215 C508 345 436 438 320 438 L320 438 Z M472 217 C449 94 346 2 235 2 C126 2 58 93 82 215 C105 337 209 429 319 429 C429 429 496 337 472 217 L472 217 Z " />
<glyph glyph-name="uni1E60" unicode="&#x1e60;" horiz-adv-x="490" d="M341 721 C352 721 362 729 365 740 C367 751 360 760 349 760 C338 760 328 751 326 740 C324 729 331 721 341 721 L341 721 Z M197 -6 C301 -6 383 53 400 141 C419 236 360 282 281 328 C215 368 130 407 149 501 C165 587 237 640 316 640 C387 640 430 609 452 579 L462 586 C443 617 391 649 318 649 C241 649 158 603 139 502 C121 404 201 362 271 321 C354 272 407 229 390 142 C375 62 298 3 199 3 C110 3 61 37 39 80 L29 74 C45 39 94 -6 197 -6 L197 -6 Z " />
<glyph glyph-name="uni1E61" unicode="&#x1e61;" horiz-adv-x="359" d="M250 538 C261 538 271 546 274 557 C276 568 269 577 258 577 C247 577 237 568 235 557 C233 546 240 538 250 538 L250 538 Z M9 59 C22 30 63 -6 129 -6 C208 -6 276 37 290 111 C322 274 62 190 87 328 C97 392 152 429 218 428 C273 428 302 409 321 387 L330 396 C310 417 278 438 219 438 C147 438 88 395 77 330 C49 175 309 264 280 111 C267 44 208 3 132 3 C70 3 31 37 20 67 L9 59 Z " />
<glyph glyph-name="uni1E62" unicode="&#x1e62;" horiz-adv-x="490" d="M197 -6 C301 -6 383 53 400 141 C419 236 360 282 281 328 C215 368 130 407 149 501 C165 587 237 640 316 640 C387 640 430 609 452 579 L462 586 C443 617 391 649 318 649 C241 649 158 603 139 502 C121 404 201 362 271 321 C354 272 407 229 390 142 C375 62 298 3 199 3 C110 3 61 37 39 80 L29 74 C45 39 94 -6 197 -6 L197 -6 Z M183 -108 C193 -108 204 -100 206 -89 C208 -78 201 -69 190 -69 C179 -69 169 -78 167 -89 C165 -100 172 -108 183 -108 L183 -108 Z " />
<glyph glyph-name="uni1E63" unicode="&#x1e63;" horiz-adv-x="359" d="M9 59 C22 30 63 -6 129 -6 C208 -6 276 37 290 111 C322 274 62 190 87 328 C97 392 152 429 218 428 C273 428 302 409 321 387 L330 396 C310 417 278 438 219 438 C147 438 88 395 77 330 C49 175 309 264 280 111 C267 44 208 3 132 3 C70 3 31 37 20 67 L9 59 Z M130 -108 C140 -108 151 -100 153 -89 C155 -78 148 -69 137 -69 C126 -69 116 -78 114 -89 C112 -100 119 -108 130 -108 L130 -108 Z " />
<glyph glyph-name="uni1E6A" unicode="&#x1e6a;" horiz-adv-x="516" d="M357 721 C368 721 378 729 381 740 C383 751 376 760 365 760 C354 760 344 751 342 740 C340 729 347 721 357 721 L357 721 Z M536 640 L147 640 L145 630 L334 630 L213 0 L223 0 L344 630 L534 630 L536 640 Z " />
<glyph glyph-name="uni1E6B" unicode="&#x1e6b;" horiz-adv-x="272" d="M201 670 C212 670 222 678 225 689 C227 700 220 709 209 709 C198 709 188 700 186 689 C184 678 191 670 201 670 L201 670 Z M273 427 L159 427 L184 557 L174 557 L149 427 L91 427 L89 419 L148 419 L68 0 L78 0 L158 419 L272 419 L273 427 Z " />
<glyph glyph-name="uni1E6C" unicode="&#x1e6c;" horiz-adv-x="516" d="M536 640 L147 640 L145 630 L334 630 L213 0 L223 0 L344 630 L534 630 L536 640 Z M207 -69 C196 -69 186 -78 184 -89 C182 -100 189 -108 200 -108 C210 -108 221 -100 223 -89 C225 -78 218 -69 207 -69 L207 -69 Z " />
<glyph glyph-name="uni1E6D" unicode="&#x1e6d;" horiz-adv-x="272" d="M273 427 L159 427 L184 557 L174 557 L149 427 L91 427 L89 419 L148 419 L68 0 L78 0 L158 419 L272 419 L273 427 Z M62 -69 C51 -69 41 -78 39 -89 C37 -100 44 -108 55 -108 C65 -108 76 -100 78 -89 C80 -78 73 -69 62 -69 L62 -69 Z " />
<glyph glyph-name="uni1E6E" unicode="&#x1e6e;" horiz-adv-x="516" d="M536 640 L147 640 L145 630 L334 630 L213 0 L223 0 L344 630 L534 630 L536 640 Z M119 -96 L292 -96 L294 -87 L121 -87 L119 -96 Z " />
<glyph glyph-name="uni1E6F" unicode="&#x1e6f;" horiz-adv-x="272" d="M273 427 L159 427 L184 557 L174 557 L149 427 L91 427 L89 419 L148 419 L68 0 L78 0 L158 419 L272 419 L273 427 Z M16 -96 L116 -96 L118 -87 L17 -87 L16 -96 Z " />
<glyph glyph-name="uni1E70" unicode="&#x1e70;" horiz-adv-x="516" d="M536 640 L147 640 L145 630 L334 630 L213 0 L223 0 L344 630 L534 630 L536 640 Z M201 -56 L89 -147 L94 -147 C100 -147 105 -144 108 -142 L202 -66 L266 -142 C268 -144 272 -147 278 -147 L283 -147 L207 -56 L201 -56 Z " />
<glyph glyph-name="uni1E71" unicode="&#x1e71;" horiz-adv-x="272" d="M273 427 L159 427 L184 557 L174 557 L149 427 L91 427 L89 419 L148 419 L68 0 L78 0 L158 419 L272 419 L273 427 Z M56 -56 L-56 -147 L-51 -147 C-45 -147 -40 -144 -37 -142 L57 -66 L121 -142 C123 -144 127 -147 133 -147 L138 -147 L62 -56 L56 -56 Z " />
<glyph glyph-name="Wgrave" unicode="&#x1e80;" horiz-adv-x="968" d="M638 690 L642 690 L539 830 L528 827 L617 707 C628 694 631 690 638 690 L638 690 Z M990 640 L652 18 L572 640 L564 640 L243 18 L145 640 L133 640 L236 0 L243 0 L564 622 L646 0 L653 0 L1002 640 L990 640 Z " />
<glyph glyph-name="wgrave" unicode="&#x1e81;" horiz-adv-x="656" d="M447 508 L451 508 L348 648 L337 645 L426 525 C437 512 440 508 447 508 L447 508 Z M660 427 L425 16 L373 427 L366 427 L155 16 L79 427 L69 427 L150 0 L157 0 L368 416 L418 0 L425 0 L671 427 L660 427 Z " />
<glyph glyph-name="Wacute" unicode="&#x1e82;" horiz-adv-x="968" d="M556 707 L693 827 L683 830 L524 690 L529 690 C535 690 540 694 556 707 L556 707 Z M990 640 L652 18 L572 640 L564 640 L243 18 L145 640 L133 640 L236 0 L243 0 L564 622 L646 0 L653 0 L1002 640 L990 640 Z " />
<glyph glyph-name="wacute" unicode="&#x1e83;" horiz-adv-x="656" d="M365 524 L502 644 L492 647 L333 507 L338 507 C344 507 349 511 365 524 L365 524 Z M660 427 L425 16 L373 427 L366 427 L155 16 L79 427 L69 427 L150 0 L157 0 L368 416 L418 0 L425 0 L671 427 L660 427 Z " />
<glyph glyph-name="Wdieresis" unicode="&#x1e84;" horiz-adv-x="968" d="M506 711 C515 711 524 719 525 728 C527 738 522 746 512 746 C502 746 492 738 491 730 C489 719 495 711 506 711 L506 711 Z M659 711 C668 711 677 719 679 728 C680 738 675 746 665 746 C655 746 646 738 644 730 C643 719 648 711 659 711 L659 711 Z M990 640 L652 18 L572 640 L564 640 L243 18 L145 640 L133 640 L236 0 L243 0 L564 622 L646 0 L653 0 L1002 640 L990 640 Z " />
<glyph glyph-name="wdieresis" unicode="&#x1e85;" horiz-adv-x="656" d="M315 529 C324 529 333 537 334 546 C336 556 331 564 321 564 C311 564 301 556 300 548 C298 537 304 529 315 529 L315 529 Z M468 529 C477 529 486 537 488 546 C489 556 484 564 474 564 C464 564 455 556 453 548 C452 537 457 529 468 529 L468 529 Z M660 427 L425 16 L373 427 L366 427 L155 16 L79 427 L69 427 L150 0 L157 0 L368 416 L418 0 L425 0 L671 427 L660 427 Z " />
<glyph glyph-name="uni1E92" unicode="&#x1e92;" horiz-adv-x="571" d="M573 640 L162 640 L160 631 L556 631 L25 8 L24 0 L464 0 L466 9 L39 9 L571 632 L573 640 Z M229 -69 C218 -69 208 -78 206 -89 C204 -100 211 -108 222 -108 C232 -108 243 -100 245 -89 C247 -78 240 -69 229 -69 L229 -69 Z " />
<glyph glyph-name="uni1E93" unicode="&#x1e93;" horiz-adv-x="424" d="M405 427 L106 427 L104 418 L391 418 L11 9 L9 0 L336 0 L337 9 L25 9 L403 419 L405 427 Z M162 -69 C151 -69 141 -78 139 -89 C137 -100 144 -108 155 -108 C165 -108 176 -100 178 -89 C180 -78 173 -69 162 -69 L162 -69 Z " />
<glyph glyph-name="uni1E9E" unicode="&#x1e9e;" horiz-adv-x="575" d="M159 -3 C346 -24 470 34 499 180 C525 316 429 374 282 370 L536 635 L536 640 L361 640 C258 640 173 586 146 446 L60 0 L70 0 L155 441 C180 567 246 630 365 630 L516 630 L263 364 L262 359 L290 359 C432 359 512 301 488 178 C460 36 331 -12 161 8 L159 -3 Z " />
<glyph glyph-name="uni1EA0" unicode="&#x1ea0;" horiz-adv-x="599" d="M520 0 L386 640 L376 640 L-4 0 L8 0 L148 236 L460 236 L509 0 L520 0 Z M153 245 L379 628 L458 245 L153 245 Z M248 -69 C237 -69 227 -78 225 -89 C223 -100 230 -108 241 -108 C251 -108 262 -100 264 -89 C266 -78 259 -69 248 -69 L248 -69 Z " />
<glyph glyph-name="uni1EA1" unicode="&#x1ea1;" horiz-adv-x="533" d="M496 438 L465 285 L464 280 C460 371 399 438 302 438 C186 438 76 345 49 215 C22 87 92 -7 208 -7 C310 -7 403 68 444 169 L439 149 L411 0 L419 0 L505 438 L496 438 Z M211 2 C100 2 33 94 60 217 C85 337 189 429 299 429 C409 429 476 337 450 215 C424 93 320 2 211 2 L211 2 Z M217 -69 C206 -69 196 -78 194 -89 C192 -100 199 -108 210 -108 C220 -108 231 -100 233 -89 C235 -78 228 -69 217 -69 L217 -69 Z " />
<glyph glyph-name="uni1EA4" unicode="&#x1ea4;" horiz-adv-x="599" d="M497 756 L600 848 L588 850 L475 747 L480 747 C484 747 493 751 497 756 L497 756 Z M312 695 L406 771 L470 695 C472 693 476 690 482 690 L488 690 L411 782 L405 782 L293 690 L299 690 C305 690 310 693 312 695 L312 695 Z M376 640 L-4 0 L8 0 L148 236 L460 236 L509 0 L520 0 L386 640 L376 640 Z M153 245 L379 628 L458 245 L153 245 Z " />
<glyph glyph-name="uni1EA5" unicode="&#x1ea5;" horiz-adv-x="533" d="M430 573 L533 664 L522 667 L409 564 L414 564 C418 564 426 568 430 573 L430 573 Z M247 512 L341 588 L405 512 C407 510 411 507 417 507 L423 507 L346 599 L340 599 L228 507 L234 507 C240 507 245 510 247 512 L247 512 Z M465 285 L464 280 C460 371 399 438 302 438 C186 438 76 345 49 215 C22 87 92 -7 208 -7 C310 -7 403 68 444 169 L439 149 L411 0 L419 0 L505 438 L496 438 L465 285 Z M211 2 C100 2 33 94 60 217 C85 337 189 429 299 429 C409 429 476 337 450 215 C424 93 320 2 211 2 L211 2 Z " />
<glyph glyph-name="uni1EA6" unicode="&#x1ea6;" horiz-adv-x="599" d="M307 747 L312 747 L240 850 L227 848 L294 756 C297 751 303 747 307 747 L307 747 Z M299 690 C305 690 310 693 312 695 L406 771 L470 695 C472 693 476 690 482 690 L488 690 L411 782 L405 782 L293 690 L299 690 Z M509 0 L520 0 L386 640 L376 640 L-4 0 L8 0 L148 236 L460 236 L509 0 Z M153 245 L379 628 L458 245 L153 245 Z " />
<glyph glyph-name="uni1EA7" unicode="&#x1ea7;" horiz-adv-x="533" d="M255 564 L260 564 L187 667 L175 664 L242 573 C244 568 251 564 255 564 L255 564 Z M234 507 C240 507 245 510 247 512 L341 588 L405 512 C407 510 411 507 417 507 L423 507 L346 599 L340 599 L228 507 L234 507 Z M496 438 L465 285 L464 280 C460 371 399 438 302 438 C186 438 76 345 49 215 C22 87 92 -7 208 -7 C310 -7 403 68 444 169 L439 149 L411 0 L419 0 L505 438 L496 438 Z M211 2 C100 2 33 94 60 217 C85 337 189 429 299 429 C409 429 476 337 450 215 C424 93 320 2 211 2 L211 2 Z " />
<glyph glyph-name="uni1EAA" unicode="&#x1eaa;" horiz-adv-x="599" d="M373 849 C406 849 427 810 465 810 C495 810 518 827 534 855 L525 859 C515 841 495 820 469 820 C435 820 410 859 377 859 C351 859 329 843 315 820 L323 816 C333 832 349 849 373 849 L373 849 Z M312 695 L406 771 L470 695 C472 693 476 690 482 690 L488 690 L411 782 L405 782 L293 690 L299 690 C305 690 310 693 312 695 L312 695 Z M376 640 L-4 0 L8 0 L148 236 L460 236 L509 0 L520 0 L386 640 L376 640 Z M153 245 L379 628 L458 245 L153 245 Z " />
<glyph glyph-name="uni1EAB" unicode="&#x1eab;" horiz-adv-x="533" d="M308 666 C341 666 362 627 400 627 C430 627 453 644 469 672 L460 676 C450 658 430 637 404 637 C370 637 345 676 312 676 C286 676 264 660 250 637 L258 633 C268 649 284 666 308 666 L308 666 Z M247 512 L341 588 L405 512 C407 510 411 507 417 507 L423 507 L346 599 L340 599 L228 507 L234 507 C240 507 245 510 247 512 L247 512 Z M496 438 L465 285 L464 280 C460 371 399 438 302 438 C186 438 76 345 49 215 C22 87 92 -7 208 -7 C310 -7 403 68 444 169 L439 149 L411 0 L419 0 L505 438 L496 438 Z M211 2 C100 2 33 94 60 217 C85 337 189 429 299 429 C409 429 476 337 450 215 C424 93 320 2 211 2 L211 2 Z " />
<glyph glyph-name="uni1EAC" unicode="&#x1eac;" horiz-adv-x="599" d="M312 695 L406 771 L470 695 C472 693 476 690 482 690 L488 690 L411 782 L405 782 L293 690 L299 690 C305 690 310 693 312 695 L312 695 Z M520 0 L386 640 L376 640 L-4 0 L8 0 L148 236 L460 236 L509 0 L520 0 Z M153 245 L379 628 L458 245 L153 245 Z M248 -69 C237 -69 227 -78 225 -89 C223 -100 230 -108 241 -108 C251 -108 262 -100 264 -89 C266 -78 259 -69 248 -69 L248 -69 Z " />
<glyph glyph-name="uni1EAD" unicode="&#x1ead;" horiz-adv-x="533" d="M247 512 L341 588 L405 512 C407 510 411 507 417 507 L423 507 L346 599 L340 599 L228 507 L234 507 C240 507 245 510 247 512 L247 512 Z M496 438 L465 285 L464 280 C460 371 399 438 302 438 C186 438 76 345 49 215 C22 87 92 -7 208 -7 C310 -7 403 68 444 169 L439 149 L411 0 L419 0 L505 438 L496 438 Z M211 2 C100 2 33 94 60 217 C85 337 189 429 299 429 C409 429 476 337 450 215 C424 93 320 2 211 2 L211 2 Z M217 -69 C206 -69 196 -78 194 -89 C192 -100 199 -108 210 -108 C220 -108 231 -100 233 -89 C235 -78 228 -69 217 -69 L217 -69 Z " />
<glyph glyph-name="uni1EAE" unicode="&#x1eae;" horiz-adv-x="599" d="M409 771 L512 863 L500 865 L387 762 L392 762 C396 762 405 766 409 771 L409 771 Z M392 690 C448 690 494 724 507 770 L498 770 C488 734 450 699 394 699 C339 699 315 734 321 770 L311 770 C304 723 340 690 392 690 L392 690 Z M509 0 L520 0 L386 640 L376 640 L-4 0 L8 0 L148 236 L460 236 L509 0 Z M153 245 L379 628 L458 245 L153 245 Z " />
<glyph glyph-name="uni1EAF" unicode="&#x1eaf;" horiz-adv-x="533" d="M344 588 L448 680 L436 683 L323 579 L328 579 C332 579 340 584 344 588 L344 588 Z M327 507 C383 507 429 541 442 587 L433 587 C423 551 385 516 329 516 C274 516 250 551 256 587 L246 587 C239 540 275 507 327 507 L327 507 Z M496 438 L465 285 L464 280 C460 371 399 438 302 438 C186 438 76 345 49 215 C22 87 92 -7 208 -7 C310 -7 403 68 444 169 L439 149 L411 0 L419 0 L505 438 L496 438 Z M211 2 C100 2 33 94 60 217 C85 337 189 429 299 429 C409 429 476 337 450 215 C424 93 320 2 211 2 L211 2 Z " />
<glyph glyph-name="uni1EB0" unicode="&#x1eb0;" horiz-adv-x="599" d="M405 763 L410 763 L338 866 L325 864 L392 772 C395 767 401 763 405 763 L405 763 Z M392 690 C448 690 494 724 507 770 L498 770 C488 734 450 699 394 699 C339 699 315 734 321 770 L311 770 C304 723 340 690 392 690 L392 690 Z M509 0 L520 0 L386 640 L376 640 L-4 0 L8 0 L148 236 L460 236 L509 0 Z M153 245 L379 628 L458 245 L153 245 Z " />
<glyph glyph-name="uni1EB1" unicode="&#x1eb1;" horiz-adv-x="533" d="M340 579 L345 579 L273 683 L260 680 L327 588 C330 584 336 579 340 579 L340 579 Z M327 507 C383 507 429 541 442 587 L433 587 C423 551 385 516 329 516 C274 516 250 551 256 587 L246 587 C239 540 275 507 327 507 L327 507 Z M496 438 L465 285 L464 280 C460 371 399 438 302 438 C186 438 76 345 49 215 C22 87 92 -7 208 -7 C310 -7 403 68 444 169 L439 149 L411 0 L419 0 L505 438 L496 438 Z M211 2 C100 2 33 94 60 217 C85 337 189 429 299 429 C409 429 476 337 450 215 C424 93 320 2 211 2 L211 2 Z " />
<glyph glyph-name="uni1EB4" unicode="&#x1eb4;" horiz-adv-x="599" d="M370 825 C403 825 424 787 462 787 C492 787 515 804 531 831 L522 835 C512 818 492 797 466 797 C431 797 407 835 374 835 C347 835 326 820 312 797 L320 792 C330 808 346 825 370 825 L370 825 Z M392 690 C448 690 494 724 507 770 L498 770 C488 734 450 699 394 699 C339 699 315 734 321 770 L311 770 C304 723 340 690 392 690 L392 690 Z M376 640 L-4 0 L8 0 L148 236 L460 236 L509 0 L520 0 L386 640 L376 640 Z M153 245 L379 628 L458 245 L153 245 Z " />
<glyph glyph-name="uni1EB5" unicode="&#x1eb5;" horiz-adv-x="533" d="M305 642 C338 642 359 604 397 604 C427 604 450 621 466 648 L457 652 C447 635 427 614 401 614 C366 614 342 652 309 652 C282 652 261 637 247 614 L255 609 C265 625 281 642 305 642 L305 642 Z M327 507 C383 507 429 541 442 587 L433 587 C423 551 385 516 329 516 C274 516 250 551 256 587 L246 587 C239 540 275 507 327 507 L327 507 Z M496 438 L465 285 L464 280 C460 371 399 438 302 438 C186 438 76 345 49 215 C22 87 92 -7 208 -7 C310 -7 403 68 444 169 L439 149 L411 0 L419 0 L505 438 L496 438 Z M211 2 C100 2 33 94 60 217 C85 337 189 429 299 429 C409 429 476 337 450 215 C424 93 320 2 211 2 L211 2 Z " />
<glyph glyph-name="uni1EB6" unicode="&#x1eb6;" horiz-adv-x="599" d="M392 690 C448 690 494 724 507 770 L498 770 C488 734 450 699 394 699 C339 699 315 734 321 770 L311 770 C304 723 340 690 392 690 L392 690 Z M520 0 L386 640 L376 640 L-4 0 L8 0 L148 236 L460 236 L509 0 L520 0 Z M153 245 L379 628 L458 245 L153 245 Z M248 -69 C237 -69 227 -78 225 -89 C223 -100 230 -108 241 -108 C251 -108 262 -100 264 -89 C266 -78 259 -69 248 -69 L248 -69 Z " />
<glyph glyph-name="uni1EB7" unicode="&#x1eb7;" horiz-adv-x="533" d="M327 507 C383 507 429 541 442 587 L433 587 C423 551 385 516 329 516 C274 516 250 551 256 587 L246 587 C239 540 275 507 327 507 L327 507 Z M496 438 L465 285 L464 280 C460 371 399 438 302 438 C186 438 76 345 49 215 C22 87 92 -7 208 -7 C310 -7 403 68 444 169 L439 149 L411 0 L419 0 L505 438 L496 438 Z M211 2 C100 2 33 94 60 217 C85 337 189 429 299 429 C409 429 476 337 450 215 C424 93 320 2 211 2 L211 2 Z M217 -69 C206 -69 196 -78 194 -89 C192 -100 199 -108 210 -108 C220 -108 231 -100 233 -89 C235 -78 228 -69 217 -69 L217 -69 Z " />
<glyph glyph-name="uni1EB8" unicode="&#x1eb8;" horiz-adv-x="509" d="M512 630 L515 640 L189 640 L66 0 L392 0 L393 10 L78 10 L137 316 L402 316 L404 325 L138 325 L197 630 L512 630 Z M214 -69 C203 -69 193 -78 191 -89 C189 -100 196 -108 207 -108 C217 -108 228 -100 230 -89 C232 -78 225 -69 214 -69 L214 -69 Z " />
<glyph glyph-name="uni1EB9" unicode="&#x1eb9;" horiz-adv-x="463" d="M306 438 C181 438 76 345 51 225 C27 96 84 -6 212 -6 C282 -6 341 23 385 61 L378 69 C338 33 283 4 213 4 C91 4 40 99 61 225 C62 228 62 232 63 235 L187 235 C303 235 419 255 427 338 C431 386 386 438 306 438 L306 438 Z M417 337 C409 282 347 246 193 246 L66 246 C96 347 192 428 306 428 C380 428 422 381 417 337 L417 337 Z M178 -69 C167 -69 157 -78 155 -89 C153 -100 160 -108 171 -108 C181 -108 192 -100 194 -89 C196 -78 189 -69 178 -69 L178 -69 Z " />
<glyph glyph-name="uni1EBC" unicode="&#x1ebc;" horiz-adv-x="509" d="M316 750 C349 750 370 711 409 711 C438 711 461 728 477 755 L468 760 C458 742 438 721 412 721 C378 721 353 759 320 759 C294 759 272 744 258 721 L266 716 C276 732 292 750 316 750 L316 750 Z M512 630 L515 640 L189 640 L66 0 L392 0 L393 10 L78 10 L137 316 L402 316 L404 325 L138 325 L197 630 L512 630 Z " />
<glyph glyph-name="uni1EBD" unicode="&#x1ebd;" horiz-adv-x="463" d="M269 567 C302 567 323 528 362 528 C391 528 414 545 430 572 L421 577 C411 559 391 538 365 538 C331 538 306 576 273 576 C247 576 225 561 211 538 L219 533 C229 549 245 567 269 567 L269 567 Z M306 438 C181 438 76 345 51 225 C27 96 84 -6 212 -6 C282 -6 341 23 385 61 L378 69 C338 33 283 4 213 4 C91 4 40 99 61 225 C62 228 62 232 63 235 L187 235 C303 235 419 255 427 338 C431 386 386 438 306 438 L306 438 Z M417 337 C409 282 347 246 193 246 L66 246 C96 347 192 428 306 428 C380 428 422 381 417 337 L417 337 Z " />
<glyph glyph-name="uni1EBE" unicode="&#x1ebe;" horiz-adv-x="509" d="M463 756 L566 848 L554 850 L441 747 L446 747 C450 747 459 751 463 756 L463 756 Z M278 695 L372 771 L436 695 C438 693 442 690 448 690 L454 690 L377 782 L371 782 L259 690 L265 690 C271 690 276 693 278 695 L278 695 Z M515 640 L189 640 L66 0 L392 0 L393 10 L78 10 L137 316 L402 316 L404 325 L138 325 L197 630 L512 630 L515 640 Z " />
<glyph glyph-name="uni1EBF" unicode="&#x1ebf;" horiz-adv-x="463" d="M414 573 L517 664 L506 667 L393 564 L398 564 C402 564 410 568 414 573 L414 573 Z M231 512 L325 588 L389 512 C391 510 395 507 401 507 L407 507 L330 599 L324 599 L212 507 L218 507 C224 507 229 510 231 512 L231 512 Z M306 438 C181 438 76 345 51 225 C27 96 84 -6 212 -6 C282 -6 341 23 385 61 L378 69 C338 33 283 4 213 4 C91 4 40 99 61 225 C62 228 62 232 63 235 L187 235 C303 235 419 255 427 338 C431 386 386 438 306 438 L306 438 Z M417 337 C409 282 347 246 193 246 L66 246 C96 347 192 428 306 428 C380 428 422 381 417 337 L417 337 Z " />
</font>
</svg>
