<svg xmlns="http://www.w3.org/2000/svg" width="353.298" height="496.056" viewBox="0 0 353.298 496.056">
  <g id="_1" data-name="1" transform="translate(12459 -13343)">
    <rect id="Rectangle_275" data-name="Rectangle 275" width="352" height="496" transform="translate(-12459 13343)" fill="#fff"/>
    <g id="Group_433" data-name="Group 433" transform="translate(-13075.168 13005.436)">
      <path id="Path_2184" data-name="Path 2184" d="M969.466,616.542c-3.486-4.832-10.263-15.325-16.244-17.18-4.583-1.422-9.8.938-14.256-.836-4.242-1.687-6.237-6.394-8.555-10.327s-6.6-7.834-10.906-6.324c-2.97,1.04-4.657,4.318-7.553,5.552-6.36,2.71-14.573-5.593-19.891-1.174-3.028,2.518-2.581,7.644-5.516,10.271-4.484,4.013-13.233-.643-16.948,4.092-1.664,2.12-1.4,5.28-3.01,7.444-1.9,2.553-5.571,2.779-8.752,2.769-22-.063-44.11-.242-65.867,3.03-10.139,1.524-20.491,3.795-30.531,1.715-6.661-1.379-13.14-4.659-19.9-3.905-5.357.6-10.963,3.665-15.8,1.283-2.5-1.23-4.223-3.742-6.807-4.774-4.146-1.658-8.611.991-12.62,2.957s-9.733,2.884-12.188-.844c-1.01-1.535-1.162-3.533-2.259-5.007-4.05-5.446-13,2.2-19.31-.3-3.619-1.436-5.038-5.668-7.142-8.944s-7.07-5.82-9.614-2.871c-.389,4.957-5.193,8.565-10.054,9.612s-9.9.218-14.872.084a7.083,7.083,0,0,0-4.355.893c-2.154,1.538-2.089,4.682-2.952,7.182s-6.294,4.542-7.4,2.135v187.54h353.3Z" transform="translate(0 33.006)" fill="#e6c2b0"/>
      <g id="Group_432" data-name="Group 432" transform="translate(726.184 754.623)">
        <path id="Path_2185" data-name="Path 2185" d="M716.2,706.557a2.344,2.344,0,0,0-.951-.844,3.39,3.39,0,0,0-1.442-.267,2.707,2.707,0,0,0-2.031.62,2.174,2.174,0,0,0-.554,1.6,2.336,2.336,0,0,0,.171.972,1.458,1.458,0,0,0,.513.609,3.57,3.57,0,0,0,1.688.47,11.822,11.822,0,0,1,2.019.331,5.428,5.428,0,0,1,1.442.609,3.374,3.374,0,0,1,1.56,3.077,3.769,3.769,0,0,1-.321,1.538,4.156,4.156,0,0,1-2.512,2.286,5.912,5.912,0,0,1-1.934.32,4.6,4.6,0,0,1-5-4.36l.043-.02h1.88a2.788,2.788,0,0,0,.769,1.688,3.178,3.178,0,0,0,2.243.769,3.374,3.374,0,0,0,2.137-.62,1.945,1.945,0,0,0,.791-1.6,2.365,2.365,0,0,0-.117-.78,1.336,1.336,0,0,0-.438-.588,5.411,5.411,0,0,0-2.714-.705,4.9,4.9,0,0,1-3.077-1.175,3.724,3.724,0,0,1-1.047-2.82,4.013,4.013,0,0,1,1.132-2.97,5.18,5.18,0,0,1,6.794.15,5.362,5.362,0,0,1,1.325,3.077h-1.923A3.329,3.329,0,0,0,716.2,706.557Zm-1.9-4.06h-1.432l.791-2.948h1.668Z" transform="translate(-708.852 -699.549)" fill="#212e3b"/>
        <path id="Path_2186" data-name="Path 2186" d="M732.168,717.127h-1.9l-2.2-6.047-2.115,6.047h-1.923l-5.149-14.23h2.073l4.017,11.132,2.051-5.833-1.923-5.3h2.073l1.88,5.213,2.158,5.918,3.889-11.132h2.073Z" transform="translate(-706.977 -698.923)" fill="#212e3b"/>
        <path id="Path_2187" data-name="Path 2187" d="M736.267,717.123V702.915h1.794v14.208Z" transform="translate(-703.725 -698.92)" fill="#212e3b"/>
        <path id="Path_2188" data-name="Path 2188" d="M748.338,717.123l-6.41-10.427v10.427h-1.9V702.915h1.859l6.623,10.726V702.915h1.88v14.208Z" transform="translate(-703.022 -698.92)" fill="#212e3b"/>
        <path id="Path_2189" data-name="Path 2189" d="M755.2,716.682a6.864,6.864,0,0,1-2.275-1.549,7.113,7.113,0,0,1-1.538-2.3,7.172,7.172,0,0,1-.012-5.512,7.244,7.244,0,0,1,3.826-3.835,6.87,6.87,0,0,1,2.744-.556,6.952,6.952,0,0,1,2.756.556,7.169,7.169,0,0,1,3.825,3.825,6.934,6.934,0,0,1,.556,2.755,7.014,7.014,0,0,1-.556,2.768,7.153,7.153,0,0,1-3.825,3.835,7.15,7.15,0,0,1-5.5.011Zm.748-11.411a5.18,5.18,0,0,0-3.2,4.8,5.245,5.245,0,0,0,.406,2.042,5.173,5.173,0,0,0,9.572,0,5.245,5.245,0,0,0,.406-2.042,5.2,5.2,0,0,0-7.189-4.8Z" transform="translate(-701.003 -698.916)" fill="#212e3b"/>
        <path id="Path_2190" data-name="Path 2190" d="M767.949,716.871a4.943,4.943,0,0,1-1.592-1.1,5.212,5.212,0,0,1-1.069-1.624,4.951,4.951,0,0,1-.383-1.923v-9.273h1.816v9.273a3.2,3.2,0,0,0,.235,1.218,3.076,3.076,0,0,0,.684,1.024,2.961,2.961,0,0,0,1,.694,3.139,3.139,0,0,0,2.435,0,3.2,3.2,0,0,0,1.027-.694,3.078,3.078,0,0,0,.684-1.024,3.2,3.2,0,0,0,.235-1.218v-9.273h1.795v9.273a4.954,4.954,0,0,1-.385,1.923,5.19,5.19,0,0,1-1.068,1.624,4.95,4.95,0,0,1-1.593,1.1,4.821,4.821,0,0,1-3.823,0Z" transform="translate(-698.37 -698.913)" fill="#212e3b"/>
        <path id="Path_2191" data-name="Path 2191" d="M774.967,715.2a2.118,2.118,0,0,0,1.549-.6,2.011,2.011,0,0,0,.609-1.5V702.915h1.752v10.192a4.188,4.188,0,0,1-.288,1.56,4.1,4.1,0,0,1-.8,1.282,3.806,3.806,0,0,1-1.261.865,3.935,3.935,0,0,1-1.56.31Z" transform="translate(-696.488 -698.92)" fill="#212e3b"/>
        <path id="Path_2192" data-name="Path 2192" d="M787.681,706.557a2.334,2.334,0,0,0-.95-.844,3.394,3.394,0,0,0-1.442-.267,2.7,2.7,0,0,0-2.031.62,2.169,2.169,0,0,0-.556,1.6,2.335,2.335,0,0,0,.172.972,1.455,1.455,0,0,0,.512.609,3.575,3.575,0,0,0,1.688.47,11.8,11.8,0,0,1,2.019.331,5.426,5.426,0,0,1,1.442.609,3.375,3.375,0,0,1,1.561,3.077,3.75,3.75,0,0,1-.322,1.538,4.158,4.158,0,0,1-2.51,2.286,5.923,5.923,0,0,1-1.934.32,5.021,5.021,0,0,1-3.611-1.282,5.072,5.072,0,0,1-1.389-3.078l.043-.02h1.88a2.8,2.8,0,0,0,.77,1.688,3.173,3.173,0,0,0,2.242.769,3.371,3.371,0,0,0,2.137-.62,1.945,1.945,0,0,0,.791-1.6,2.335,2.335,0,0,0-.117-.78,1.319,1.319,0,0,0-.438-.588,5.411,5.411,0,0,0-2.714-.705,4.9,4.9,0,0,1-3.077-1.175,3.724,3.724,0,0,1-1.047-2.82,4.014,4.014,0,0,1,1.134-2.97,5.178,5.178,0,0,1,6.793.15,5.347,5.347,0,0,1,1.325,3.077H788.13A3.293,3.293,0,0,0,787.681,706.557Zm-1.9-4.06h-1.432l.791-2.948H786.8Z" transform="translate(-695.485 -699.549)" fill="#212e3b"/>
        <path id="Path_2193" data-name="Path 2193" d="M794.827,716.662a6.981,6.981,0,0,1-2.286-1.559A7.165,7.165,0,0,1,791,712.818a6.994,6.994,0,0,1-.557-2.778,7.162,7.162,0,0,1,4.381-6.624,7.093,7.093,0,0,1,5.79.128,7.691,7.691,0,0,1,2.564,2.03l-1.454,1.239a5.335,5.335,0,0,0-4.144-2.008,5.04,5.04,0,0,0-2,.406,5.314,5.314,0,0,0-2.81,2.81,5.223,5.223,0,0,0,0,4.038,5.314,5.314,0,0,0,2.81,2.81,5.041,5.041,0,0,0,2,.406,5.335,5.335,0,0,0,4.144-2.008l1.454,1.239a7.93,7.93,0,0,1-2.575,2.03,7.062,7.062,0,0,1-5.779.127Z" transform="translate(-693.594 -698.93)" fill="#212e3b"/>
        <path id="Path_2194" data-name="Path 2194" d="M803.245,717.123V702.915h1.795v14.208Z" transform="translate(-691.2 -698.92)" fill="#212e3b"/>
        <path id="Path_2195" data-name="Path 2195" d="M807.007,717.123V702.915h7.777v1.923h-5.92v4.316h3.975v1.752h-3.975V715.2h5.92v1.923Z" transform="translate(-690.497 -698.92)" fill="#212e3b"/>
      </g>
      <g id="swinoujscie_kolor" data-name="swinoujscie kolor" transform="translate(722.938 405.467)">
        <path id="Path_2196" data-name="Path 2196" d="M760.094,429.186c.983-1.346,14.618-1.161,16.76,0s1.281,8.034.462,9.463-15.636.8-16.53,0S759.312,430.257,760.094,429.186Z" transform="translate(-696.092 -401.129)" fill="#ad6e42"/>
        <path id="Path_2197" data-name="Path 2197" d="M709.758,601.666c2.318-2.222,40.751-3.6,42.4-2.141,2.977,2.619,3.62,24.1,1.294,24.995-4.4,1.7-42.523,3.371-45.971.535S707.995,603.356,709.758,601.666Z" transform="translate(-706.117 -369.211)" fill="#9f311b"/>
        <path id="Path_2198" data-name="Path 2198" d="M785.218,600.018c.673-1.142,44.857.4,46.2,1.874s.579,21.291-.849,22.763-41.732,1.072-43.74,0S783.879,602.287,785.218,600.018Z" transform="translate(-691.442 -369.08)" fill="#9f311b"/>
        <path id="Path_2199" data-name="Path 2199" d="M708.221,630.431c2.393-3.492,41.257,1.071,45.355-.535s1.957-28.209,3.118-30.352,37.689-2.182,40.349-.421-.576,27.233,2.052,29.019,39.726.5,42.85,1.575,4.463,33.744,0,36.6-130.054,4.353-132.474,0S706.072,633.569,708.221,630.431Z" transform="translate(-705.946 -369.409)" fill="#ad6e42"/>
        <path id="Path_2200" data-name="Path 2200" d="M767.448,405.412c.929.145,2.071.548,2.071,1.487s-.849,1.559-2.071,1.88-1.921.078-1.921-1.253A2.011,2.011,0,0,1,767.448,405.412Z" transform="translate(-695.007 -405.401)" fill="#212e3b"/>
        <path id="Path_2201" data-name="Path 2201" d="M768.219,408.606c2.421-1.267,11.85,6.13,11.047,7.561s-18,1.148-19.51.134S766.232,409.646,768.219,408.606Z" transform="translate(-696.122 -404.828)" fill="#212e3b"/>
        <path id="Path_2202" data-name="Path 2202" d="M760.536,439.392c3.029-.785,27.617-1.607,28.7,1.63s-.686,10.2-1.02,13.413-.285,122.923,1.02,124.53,7.06-.114,7.5,3.022-2.467,39.558-3.226,41.434-40.1,5.533-41.5,2.051-5.218-38.128-4.555-39.812,7.27-6.695,6.754-9.641,5.9-119.708,5.283-122.119S754.424,440.975,760.536,439.392Z" transform="translate(-698.402 -399.177)" fill="#efe8e5"/>
      </g>
      <g id="swinoujscie" transform="translate(718.845 405.045)">
        <path id="Path_2203" data-name="Path 2203" d="M748.541,676.934H747.7V635.345c.186-7.4-1.35-28.248-1.365-28.458-.053-1.5.158-6.087.4-11.4.348-7.585.874-19.049.434-20.012a39.248,39.248,0,0,0-2.347-4.259c-.448-.684-1.779-8.51-1.32-10.45a.954.954,0,0,1,.4-.653,7.568,7.568,0,0,1,4.39-1h.032c.329,0,33.365-.348,38.273-.353h.009c2.186,0,6.461.672,7.268,1.255,1.071.773-.589,9.713-.62,9.794a11.763,11.763,0,0,1-.616,1.2,11.366,11.366,0,0,0-1.453,3.332c0,.174.011.959.027,2.172.342,24.8.151,28.648-.108,29.115l-.738-.408.369.2-.386-.171c.265-.818.271-10.484.019-28.728-.018-1.22-.027-2.008-.027-2.184a10.244,10.244,0,0,1,1.559-3.74c.254-.459.494-.894.563-1.081.246-.665,1.251-8.092.853-8.882a25.234,25.234,0,0,0-6.709-1.029H786.6c-4.9,0-37.937.349-38.269.353H748.3a6.786,6.786,0,0,0-3.885.833c-.594.818.652,9.109,1.118,9.971a39.739,39.739,0,0,1,2.4,4.352c.494,1.039.165,9.115-.354,20.412-.242,5.294-.452,9.869-.4,11.314.014.195,1.554,21.09,1.366,28.515Z" transform="translate(-695.051 -376.299)" fill="#212e3b"/>
        <path id="Path_2204" data-name="Path 2204" d="M750.324,582.346l-.842-.065c2.059-26.746,5.39-126.653,4.655-129.206-.179-.22-.411-.51-.642-.8a10,10,0,0,1-2.159-3.8c-.416-1.574-1.119-9.248.126-10.368,2.09-1.879,26.635-1.132,31.957-.25,1.233.2,1.555.389,1.7.641.813,1.452.353,4.286-.053,6.786-.158.971-.306,1.889-.35,2.569a10.6,10.6,0,0,1-1.6,3.692,13.305,13.305,0,0,0-.8,1.51c-.292,2.133,2.14,100.965,3.568,128.893l-.843.043c-1.318-25.773-3.953-128.049-3.517-129.228a13.183,13.183,0,0,1,.858-1.639,10.519,10.519,0,0,0,1.485-3.322c.046-.723.2-1.659.36-2.652.364-2.247.819-5.044.15-6.239-1.992-1.385-30.764-1.6-32.351-.174-.684.615-.488,7.2.126,9.524a9.2,9.2,0,0,0,2,3.492c.239.3.476.6.706.908C756.011,454.214,751.993,560.681,750.324,582.346Z" transform="translate(-693.915 -399.081)" fill="#212e3b"/>
        <path id="Path_2205" data-name="Path 2205" d="M778.913,439.78h-.844c0-5.1-.432-10.91-1.126-11.412-1.188-.857-16.072-.84-17.5.019-.815.491-.531,5.983.2,10.79l-.834.126c-.376-2.475-1.474-10.632.2-11.639s17.018-1,18.429.019C778.806,428.673,778.913,437.192,778.913,439.78Z" transform="translate(-692.303 -400.956)" fill="#212e3b"/>
        <path id="Path_2206" data-name="Path 2206" d="M746.57,604.829l-.563-.63c4.614-4.12,11.932-11.213,11.927-12.706-.007-2.246.009-4.528.026-6.715.047-6.28.091-12.212-.493-13.353-1.586-3.1-1.982-11.631-2-11.994l.844-.037c0,.085.4,8.708,1.906,11.646.646,1.262.643,6.044.586,13.743-.017,2.184-.033,4.463-.027,6.707C758.785,593.8,748.61,603.007,746.57,604.829Z" transform="translate(-694.565 -376.18)" fill="#212e3b"/>
        <path id="Path_2207" data-name="Path 2207" d="M785.555,605.659c-1.6-1.048-15.671-10.342-15.67-14.08a107.5,107.5,0,0,1,2.1-20.7c.887-2.973,1.41-11.406,1.415-11.49l.843.051c-.021.35-.534,8.614-1.449,11.68a106.477,106.477,0,0,0-2.059,20.458c0,2.486,9.142,9.36,15.287,13.373Z" transform="translate(-690.1 -376.182)" fill="#212e3b"/>
        <path id="Path_2208" data-name="Path 2208" d="M765.65,522.381h-5.225v-.421c0-1.784.159-7.616,2.209-7.788,2.072-.154,2.8,5.886,2.972,7.749Zm-4.378-.844h3.447c-.348-3.226-1.264-6.607-2.014-6.524C761.883,515.082,761.319,518.364,761.273,521.537Z" transform="translate(-691.869 -384.638)" fill="#212e3b"/>
        <path id="Path_2209" data-name="Path 2209" d="M765.781,584.711h-3.93l-.024-.4c-.055-.9-.218-5.4,1.906-5.583a1.27,1.27,0,0,1,1.008.368c1.187,1.137,1.074,4.793,1.057,5.206Zm-3.129-.844h2.312c.013-1.441-.182-3.557-.807-4.157a.415.415,0,0,0-.353-.136C762.909,579.648,762.6,582.048,762.652,583.867Z" transform="translate(-691.611 -372.565)" fill="#212e3b"/>
        <path id="Path_2210" data-name="Path 2210" d="M768.439,618.543h-4.734l-.015-.4c-.065-1.7-.263-10.186,2.271-10.518a1.158,1.158,0,0,1,.947.312c1.715,1.547,1.564,9.319,1.542,10.2Zm-3.919-.843h3.095c.05-3.213-.241-8.212-1.273-9.14a.314.314,0,0,0-.272-.1C764.933,608.606,764.392,613.292,764.52,617.7Z" transform="translate(-691.264 -367.164)" fill="#212e3b"/>
        <path id="Path_2211" data-name="Path 2211" d="M774.571,480.108h-4.595l-.053-.36c-.118-.791-1.1-7.769.495-9.311a1.212,1.212,0,0,1,1.107-.329c2.8.518,3.022,8.645,3.039,9.571Zm-3.865-.843h3c-.108-3.242-.8-8.043-2.336-8.327a.378.378,0,0,0-.368.108C770.075,471.943,770.315,476.412,770.706,479.266Z" transform="translate(-690.169 -392.882)" fill="#212e3b"/>
        <path id="Path_2212" data-name="Path 2212" d="M759.91,451.647h-3.8l-.12-.221c-.334-.617-3.232-6.083-2.246-7.98a1.3,1.3,0,0,1,1.054-.706c2.985-.338,4.8,7.5,5,8.395Zm-3.3-.844h2.242c-.755-3.089-2.408-7.381-3.96-7.225a.465.465,0,0,0-.4.258C753.921,444.93,755.444,448.593,756.61,450.8Z" transform="translate(-693.157 -397.997)" fill="#212e3b"/>
        <path id="Path_2213" data-name="Path 2213" d="M764.543,452.086l-3.863-.117-.055-.344c-.393-2.457-1.1-8.207.806-8.557a1.35,1.35,0,0,1,1.3.567c1.459,1.7,2.242,7.206,1.912,8.158Zm-3.137-.94,2.48.076c.047-1.29-.624-5.675-1.795-7.037-.189-.22-.358-.315-.506-.288C760.913,444.02,760.837,447.368,761.405,451.146Z" transform="translate(-691.917 -397.938)" fill="#212e3b"/>
        <path id="Path_2214" data-name="Path 2214" d="M769.956,451.737h-3.883l.068-.48c.267-1.912,1.345-8.135,3.524-7.959a1.12,1.12,0,0,1,.846.495c1.105,1.561-.307,7.014-.472,7.631Zm-2.908-.844h2.258c.56-2.215,1.148-5.72.516-6.612a.278.278,0,0,0-.223-.142C768.714,444.065,767.581,447.488,767.048,450.893Z" transform="translate(-690.813 -397.892)" fill="#212e3b"/>
        <path id="Path_2215" data-name="Path 2215" d="M775.83,451.512H771.5l.177-.551c.57-1.777,2.566-7.5,4.619-7.5.031,0,.06,0,.09,0a1.014,1.014,0,0,1,.8.491c.919,1.465-.885,6.327-1.257,7.287Zm-3.163-.844h2.583c.832-2.227,1.716-5.483,1.227-6.264a.175.175,0,0,0-.157-.1C775.411,444.209,773.761,447.451,772.666,450.668Z" transform="translate(-689.797 -397.861)" fill="#212e3b"/>
        <path id="Path_2216" data-name="Path 2216" d="M754.52,573.084h-4.587l-.095-.289c-.218-.655-2.094-6.45-.948-8.161a1.2,1.2,0,0,1,.939-.549l.089,0c2.465,0,4.168,7.057,4.487,8.487Zm-3.974-.844h2.915c-.785-3.247-2.293-7.407-3.574-7.312a.358.358,0,0,0-.3.177C748.929,566.094,749.792,569.883,750.546,572.24Z" transform="translate(-694.095 -375.304)" fill="#212e3b"/>
        <path id="Path_2217" data-name="Path 2217" d="M764,572.7a.6.6,0,0,1-.065,0l-4.31,0-.074-.33c-.242-1.085-1.383-6.565-.052-7.936a1.151,1.151,0,0,1,1.1-.326c1.964.379,3.007,2.794,3.454,4.2.44,1.388.851,3.693.331,4.233A.526.526,0,0,1,764,572.7Zm-3.7-.852,3.467,0a10.891,10.891,0,0,0-1.179-4.893,3.582,3.582,0,0,0-2.157-2.031.316.316,0,0,0-.331.086C759.392,565.749,759.778,569.339,760.3,571.849Z" transform="translate(-692.16 -375.306)" fill="#212e3b"/>
        <path id="Path_2218" data-name="Path 2218" d="M770.344,572.852H765.3l-.04-.377c-.024-.224-.565-5.527,1.187-7.473a2.145,2.145,0,0,1,1.65-.749h0c2.084,0,2.246,6.26,2.245,8.179Zm-4.276-.844H769.5c-.044-3.352-.605-6.911-1.4-6.912h0a1.311,1.311,0,0,0-1.022.47C765.928,566.842,765.941,570.35,766.068,572.008Z" transform="translate(-690.982 -375.272)" fill="#212e3b"/>
        <path id="Path_2219" data-name="Path 2219" d="M780.884,572.7h-4.862l.094-.5c.368-1.969,1.734-8.387,3.954-8.112a1.217,1.217,0,0,1,.852.522c1.187,1.629.151,7.127.03,7.748Zm-3.841-.844h3.144c.407-2.246.748-5.8.052-6.748a.371.371,0,0,0-.268-.182C779.049,564.857,777.755,568.332,777.043,571.853Z" transform="translate(-688.952 -375.305)" fill="#212e3b"/>
        <path id="Path_2220" data-name="Path 2220" d="M785.055,439.749l-.722-.44c1.414-2.316,2.5-4.64,2.457-5.237-2.8-.409-33.951-1.259-36.163-.19-.2,1.206.969,4.133,1.449,5.19l-.769.35c-.195-.427-1.892-4.228-1.477-5.853.133-.519.329-1.3,18.5-.977,8.569.153,18.071.534,18.729.668a.683.683,0,0,1,.5.406C788.009,434.711,785.957,438.267,785.055,439.749Z" transform="translate(-693.862 -399.908)" fill="#212e3b"/>
        <path id="Path_2221" data-name="Path 2221" d="M758.454,430.635l-.356-15.116h20.162l-1.345,14.44-.84-.079,1.259-13.517H758.963l.335,14.253Z" transform="translate(-692.304 -403.086)" fill="#212e3b"/>
        <path id="Path_2222" data-name="Path 2222" d="M759.212,417.786l-2.337-.315.036-.519c.2-1.268,6.781-9.221,9.587-9.063,2.633.15,11.915,7.444,12.257,9.123a.551.551,0,0,1-.286.624l-.374-.757a.3.3,0,0,0-.167.3c-.309-1.143-9.058-8.315-11.477-8.451-2.133-.1-7.53,6.327-8.545,8.028l1.418.189Z" transform="translate(-692.533 -404.513)" fill="#212e3b"/>
        <path id="Path_2223" data-name="Path 2223" d="M764.377,409.4a1.5,1.5,0,0,1-.944-.285,1.788,1.788,0,0,1-.573-1.518,2.659,2.659,0,0,1,.927-2.027,1.9,1.9,0,0,1,1.481-.5c1.542.241,2.427.935,2.427,1.905,0,1.072-.848,1.884-2.386,2.289A3.744,3.744,0,0,1,764.377,409.4Zm.677-3.506a1.187,1.187,0,0,0-.718.318,1.816,1.816,0,0,0-.632,1.385,1.151,1.151,0,0,0,.245.85c.191.148.577.145,1.147,0,.656-.173,1.757-.593,1.757-1.472,0-.745-1.312-1.008-1.714-1.071h0A.471.471,0,0,0,765.054,405.889Z" transform="translate(-691.413 -405.045)" fill="#212e3b"/>
        <path id="Path_2224" data-name="Path 2224" d="M805.926,666.3c-38.731,0-94.985-1.109-97.438-3.626-3.529-3.618-2.641-38.934-2.6-40.435l.844.021c-.267,10.13-.362,37.032,2.362,39.825,1.42,1.392,28.4,2.673,67.138,3.185,34.868.462,65.687.11,67.3-.766,1.123-1.367,1.433-26.319,1.35-41.713l.844,0c.023,4.107.166,40.193-1.6,42.312-.2.235-.465.555-7.648.831C830.138,666.17,819.035,666.3,805.926,666.3Z" transform="translate(-702.091 -364.429)" fill="#212e3b"/>
        <path id="Path_2225" data-name="Path 2225" d="M745.48,598.1" transform="translate(-694.663 -368.943)" fill="none" stroke="#212e3b" stroke-miterlimit="10" stroke-width="0.711"/>
        <path id="Path_2226" data-name="Path 2226" d="M783.769,670.157l-.844-.027,1.244-39.973-1.244-32.068.844-.032,1.244,32.1Z" transform="translate(-687.661 -368.95)" fill="#212e3b"/>
        <path id="Path_2227" data-name="Path 2227" d="M716.088,641.149a3.891,3.891,0,0,1-1.02-.115,1.244,1.244,0,0,1-.888-.687c-.469-1.125-2.215-9.845-1.288-11.654a.826.826,0,0,1,.547-.466h0c.694-.16,7.23-.738,7.993.133.559.636.976,6.44.666,9.267-.128,1.173-.355,1.821-.735,2.1A11.546,11.546,0,0,1,716.088,641.149Zm-2.425-12.107c-.748.834.637,9.4,1.3,10.981.031.075.153.147.335.2,1.322.368,4.657-.507,5.572-1.177.826-.6.512-9.1-.087-10.154C720.239,628.57,714.954,628.757,713.663,629.042Zm-.031.006Z" transform="translate(-700.808 -363.372)" fill="#212e3b"/>
        <path id="Path_2228" data-name="Path 2228" d="M732.035,641.241c-1.283,0-2.412-.18-2.716-.737-.622-1.142-1.054-11.235-.717-12.213h0c.077-.223.311-.9,2.854-1.014.956-.042,4.9,0,5.338.978.421.938.964,10.169.212,11.95a.816.816,0,0,1-.453.494A20.01,20.01,0,0,1,732.035,641.241ZM729.4,628.569c-.322.96.24,10.745.661,11.529.429.564,4.995.247,6.2-.193.6-.783.161-10.275-.242-11.307a13.693,13.693,0,0,0-5.616-.375C729.569,628.357,729.411,628.553,729.4,628.569Z" transform="translate(-697.842 -363.488)" fill="#212e3b"/>
        <path id="Path_2229" data-name="Path 2229" d="M719.737,653.523c-1,0-2.29-.1-3.826-.259-.388-.04-.667-.07-.767-.07-.927,0-1.562-5-1.734-6.532-.523-4.644.24-4.818.607-4.9.309-.069,6.963-.927,7.889-.046a.586.586,0,0,1,.182.531c-.042.239.04,1.532.119,2.784.323,5.137.363,7.52-.256,8.062A3.693,3.693,0,0,1,719.737,653.523Zm-4.385-1.161c.155.013.376.034.645.062,3.227.33,5.042.339,5.4.031.4-.554.109-5.159-.031-7.372-.092-1.474-.146-2.361-.126-2.793-.958-.341-6.035.1-6.984.285C713.647,643.412,714.71,651.048,715.352,652.362Z" transform="translate(-700.694 -360.86)" fill="#212e3b"/>
        <path id="Path_2230" data-name="Path 2230" d="M733.449,653.9a8.139,8.139,0,0,1-2.978-.391c-.191-.1-.546-.3-1.016-2.766-.437-2.3-1.149-8.216-.312-9.23h0c.609-.736,5.721-.343,6.466-.138.378.1.609.531.8,1.478.474,2.33.788,10.025.038,10.618A7.033,7.033,0,0,1,733.449,653.9Zm-3.677-11.814c-.59,1.022.341,9.851,1.145,10.712a12.891,12.891,0,0,0,4.957.034c.4-1.232.129-9.934-.572-10.685A21.208,21.208,0,0,0,729.771,642.088Zm6.077,10.81Z" transform="translate(-697.791 -360.904)" fill="#212e3b"/>
        <rect id="Rectangle_277" data-name="Rectangle 277" width="8.416" height="0.844" transform="translate(12.544 270.341)" fill="#212e3b"/>
        <rect id="Rectangle_278" data-name="Rectangle 278" width="0.845" height="11.87" transform="translate(16.184 264.974) rotate(-2.58)" fill="#212e3b"/>
        <rect id="Rectangle_279" data-name="Rectangle 279" width="0.844" height="11.297" transform="translate(16.718 280.942)" fill="#212e3b"/>
        <rect id="Rectangle_280" data-name="Rectangle 280" width="0.845" height="8.024" transform="translate(12.943 286.666) rotate(-87.524)" fill="#212e3b"/>
        <rect id="Rectangle_281" data-name="Rectangle 281" width="0.844" height="8.078" transform="translate(31.024 270.839) rotate(-86.689)" fill="#212e3b"/>
        <rect id="Rectangle_282" data-name="Rectangle 282" width="0.844" height="13.115" transform="translate(34.186 264.215) rotate(-2.069)" fill="#212e3b"/>
        <rect id="Rectangle_283" data-name="Rectangle 283" width="0.845" height="11.625" transform="matrix(0.999, -0.045, 0.045, 0.999, 34.607, 280.644)" fill="#212e3b"/>
        <rect id="Rectangle_284" data-name="Rectangle 284" width="0.845" height="7.118" transform="matrix(0.113, -0.994, 0.994, 0.113, 31.53, 286.663)" fill="#212e3b"/>
        <path id="Path_2231" data-name="Path 2231" d="M814.29,654.57c-1.442,0-2.715-.115-3.026-.469-.559-.639-.977-6.443-.667-9.271.129-1.172.355-1.818.735-2.1,1.086-.8,4.677-1.764,6.3-1.309a1.242,1.242,0,0,1,.887.687c.469,1.125,2.215,9.849,1.288,11.654a.828.828,0,0,1-.548.466h0A37.074,37.074,0,0,1,814.29,654.57Zm2.321-12.418a10.99,10.99,0,0,0-4.78,1.264c-.825.6-.51,9.1.088,10.154.538.32,5.822.131,7.116-.152.747-.833-.639-9.4-1.3-10.981-.031-.076-.153-.147-.336-.2A3.022,3.022,0,0,0,816.611,642.152Zm2.455,11.26Z" transform="translate(-682.506 -360.862)" fill="#212e3b"/>
        <path id="Path_2232" data-name="Path 2232" d="M800.526,655.307c-1.572,0-4.375-.2-4.73-.99-.421-.939-.964-10.173-.214-11.95a.816.816,0,0,1,.453-.494c.715-.26,6.485-1.179,7.234.195.623,1.143,1.054,11.235.717,12.213h0c-.076.222-.31.9-2.845,1.014C800.972,655.3,800.763,655.307,800.526,655.307Zm.113-13.138a17.184,17.184,0,0,0-4.315.5c-.6.783-.16,10.274.242,11.309a13.736,13.736,0,0,0,5.615.374c.839-.134,1-.33,1.009-.347.322-.957-.24-10.744-.662-11.531A3.378,3.378,0,0,0,800.639,642.169Z" transform="translate(-685.364 -360.858)" fill="#212e3b"/>
        <path id="Path_2233" data-name="Path 2233" d="M813.135,640.972a4.492,4.492,0,0,1-2.4-.393.589.589,0,0,1-.183-.531c.042-.241-.039-1.537-.119-2.791-.323-5.133-.362-7.515.258-8.055.673-.591,2.808-.5,6.038-.175.388.04.667.07.767.07.927,0,1.562,5,1.734,6.532.523,4.644-.241,4.818-.608,4.9A44.1,44.1,0,0,1,813.135,640.972ZM811.4,640c.958.343,6.037-.094,6.986-.285.6-.837-.457-8.473-1.1-9.788-.154-.013-.376-.034-.645-.063-3.225-.329-5.042-.338-5.4-.03-.4.553-.109,5.155.03,7.368C811.368,638.683,811.42,639.572,811.4,640Z" transform="translate(-682.56 -363.207)" fill="#212e3b"/>
        <path id="Path_2234" data-name="Path 2234" d="M800.682,641.3a22.773,22.773,0,0,1-3.823-.29c-.376-.1-.608-.531-.8-1.474-.448-2.195-.779-10.036-.039-10.621.7-.552,5-.579,5.979-.038.19.1.546.3,1.016,2.767.437,2.3,1.148,8.216.311,9.229h0C803.06,641.2,801.931,641.3,800.682,641.3Zm-4.088-11.745c-.4,1.232-.128,9.934.572,10.685a21.268,21.268,0,0,0,5.531.061c.589-1.023-.342-9.851-1.145-10.711A12.921,12.921,0,0,0,796.594,629.555Z" transform="translate(-685.294 -363.26)" fill="#212e3b"/>
        <rect id="Rectangle_285" data-name="Rectangle 285" width="8.416" height="0.844" transform="translate(128.423 287.041)" fill="#212e3b"/>
        <rect id="Rectangle_286" data-name="Rectangle 286" width="0.845" height="11.87" transform="translate(131.821 281.431) rotate(-2.58)" fill="#212e3b"/>
        <rect id="Rectangle_287" data-name="Rectangle 287" width="0.844" height="11.297" transform="translate(131.821 265.987)" fill="#212e3b"/>
        <rect id="Rectangle_288" data-name="Rectangle 288" width="0.845" height="8.024" transform="matrix(0.043, -0.999, 0.999, 0.043, 128.388, 272.057)" fill="#212e3b"/>
        <rect id="Rectangle_289" data-name="Rectangle 289" width="0.844" height="8.079" transform="translate(110.245 287.762) rotate(-86.689)" fill="#212e3b"/>
        <rect id="Rectangle_290" data-name="Rectangle 290" width="0.844" height="13.115" transform="translate(113.881 280.935) rotate(-2.069)" fill="#212e3b"/>
        <rect id="Rectangle_291" data-name="Rectangle 291" width="0.845" height="11.625" transform="matrix(0.999, -0.045, 0.045, 0.999, 113.408, 266.006)" fill="#212e3b"/>
        <rect id="Rectangle_292" data-name="Rectangle 292" width="0.845" height="7.118" transform="matrix(0.113, -0.994, 0.994, 0.113, 110.686, 271.597)" fill="#212e3b"/>
        <rect id="Rectangle_293" data-name="Rectangle 293" width="0.845" height="13.525" transform="translate(72.463 12.942) rotate(-2.697)" fill="#212e3b"/>
        <rect id="Rectangle_294" data-name="Rectangle 294" width="13.642" height="0.844" transform="translate(80.485 26.541) rotate(-86.615)" fill="#212e3b"/>
        <rect id="Rectangle_295" data-name="Rectangle 295" width="8.752" height="0.844" transform="translate(97.354 11.191) rotate(-21.845)" fill="#212e3b"/>
        <rect id="Rectangle_296" data-name="Rectangle 296" width="9.574" height="0.845" transform="translate(99.982 19.136) rotate(-3.934)" fill="#212e3b"/>
        <rect id="Rectangle_297" data-name="Rectangle 297" width="0.844" height="6.643" transform="translate(98.661 26.742) rotate(-63.328)" fill="#212e3b"/>
        <rect id="Rectangle_298" data-name="Rectangle 298" width="0.844" height="6.226" transform="translate(47.252 8.783) rotate(-64.847)" fill="#212e3b"/>
        <rect id="Rectangle_299" data-name="Rectangle 299" width="9.253" height="0.845" transform="translate(40.988 18.48) rotate(-2.203)" fill="#212e3b"/>
        <rect id="Rectangle_300" data-name="Rectangle 300" width="6.337" height="0.845" transform="matrix(0.902, -0.432, 0.432, 0.902, 42.696, 30.215)" fill="#212e3b"/>
        <path id="Path_2235" data-name="Path 2235" d="M729.743,628.359c-12.5,0-25.11-.509-26.871-2.007-.2-.169-.719-.614,1.4-12.86.216-1.239,2.125-12.142,2.964-13.261.667-.889,9.373-1.39,29.941-2.246,8.387-.349,15.632-.651,17.136-.928l.153.83c-1.562.29-8.834.591-17.253.941-11.225.468-28.189,1.173-29.342,1.951-.9,1.214-4.733,22.977-4.381,24.985,3.645,2.544,47.805,1.929,52.136.782l.215.817C753.888,627.88,741.864,628.359,729.743,628.359Z" transform="translate(-702.669 -369.138)" fill="#212e3b"/>
        <path id="Path_2236" data-name="Path 2236" d="M809.221,628.6c-10.539,0-22.751-.286-24.78-.769l.2-.823c4.049.965,46.82,1.17,48.705-.413.969-1.905-3.251-24.47-4.79-25.365-2.852-.743-42.984-3.116-45.174-2.671l-.17-.826c2.216-.458,42.684,1.93,45.58,2.689.357.094.655.461,1,1.229,2.031,4.546,5.223,23.523,4.268,25.382-.195.379-.787,1.529-23.906,1.567Z" transform="translate(-687.608 -369.022)" fill="#212e3b"/>
        <path id="Path_2237" data-name="Path 2237" d="M768.622,649.753l-5.834-.268-.049-.345c-.114-.8-.268-10.547,3.021-11.234a1.351,1.351,0,0,1,1.192.312c2.012,1.7,1.727,10.154,1.688,11.113Zm-5.077-1.078,4.265.2c.078-2.753-.039-8.854-1.4-10.009a.513.513,0,0,0-.474-.131C763.777,639.182,763.432,646.647,763.545,648.675Z" transform="translate(-691.444 -361.505)" fill="#212e3b"/>
      </g>
    </g>
  </g>
</svg>
