<svg xmlns="http://www.w3.org/2000/svg" width="302.401" height="426.24" viewBox="0 0 302.401 426.24">
  <g id="SLIDER" transform="translate(2974.304 -2367)">
    <g id="_1_SWINO" data-name="1 SWINO" transform="translate(-2789.028 2367.335)">
      <g id="Group_100" data-name="Group 100" transform="translate(-185.275 -0.335)">
        <rect id="Rectangle_29" data-name="Rectangle 29" width="302.4" height="426.24" fill="#fcf8f7"/>
      </g>
      <path id="Path_802" data-name="Path 802" d="M117.125,160.309c-2.983-4.136-8.785-13.118-13.9-14.705-3.924-1.217-8.385.8-12.2-.714-3.632-1.445-5.338-5.475-7.323-8.84s-5.646-6.706-9.333-5.414c-2.543.891-3.988,3.7-6.465,4.753-5.445,2.32-12.475-4.788-17.025-1.007-2.594,2.156-2.21,6.543-4.722,8.792-3.838,3.436-11.328-.55-14.506,3.5-1.425,1.816-1.2,4.521-2.578,6.372-1.624,2.185-4.768,2.378-7.491,2.371-18.832-.055-37.755-.206-56.377,2.594-8.679,1.3-17.54,3.248-26.133,1.469-5.7-1.182-11.247-3.99-17.034-3.343-4.583.511-9.382,3.136-13.521,1.1-2.135-1.052-3.615-3.2-5.827-4.086-3.547-1.419-7.369.848-10.8,2.532s-8.33,2.468-10.432-.723c-.864-1.313-.994-3.023-1.933-4.286-3.467-4.662-11.13,1.885-16.528-.258-3.1-1.231-4.313-4.852-6.114-7.656s-6.05-4.981-8.228-2.459c-.334,4.243-4.444,7.332-8.606,8.228s-8.474.186-12.73.073a6.049,6.049,0,0,0-3.727.764c-1.845,1.317-1.788,4.006-2.528,6.149s-5.385,3.885-6.331,1.827V317.863h302.4Z" transform="translate(0 108.043)" fill="#e9ccbd"/>
      <text id="ŚWINOUJŚCIE" transform="translate(-36.919 370.498)" fill="#2e3c4b" font-size="18" font-family="SulphurPoint-Bold, Sulphur Point" font-weight="700" letter-spacing="0.025em"><tspan x="-53.163" y="0">ŚWINOUJŚCIE</tspan></text>
      <g id="swinoujscie_kolor" data-name="swinoujscie kolor" transform="translate(-93.886 59.433)">
        <path id="Path_803" data-name="Path 803" d="M-105.116,45.894c.84-1.151,12.511-.992,14.345,0s1.1,6.878.395,8.1-13.384.689-14.148,0S-105.786,46.811-105.116,45.894Z" transform="translate(159.897 -21.879)" fill="#b98255"/>
        <path id="Path_804" data-name="Path 804" d="M-132.131,142.367c1.984-1.9,34.88-3.08,36.293-1.834,2.548,2.241,3.1,20.626,1.107,21.395-3.767,1.452-36.4,2.884-39.348.459S-133.64,143.814-132.131,142.367Z" transform="translate(135.247 56.601)" fill="#ae4426"/>
        <path id="Path_805" data-name="Path 805" d="M-91.066,140.747c.577-.977,38.4.343,39.541,1.6s.5,18.224-.725,19.484-35.722.917-37.441,0S-92.211,142.687-91.066,140.747Z" transform="translate(171.33 56.923)" fill="#ae4426"/>
        <path id="Path_806" data-name="Path 806" d="M-133.72,167.3c2.048-2.99,35.313.915,38.822-.459s1.675-24.146,2.669-25.98,32.258-1.867,34.536-.36-.493,23.309,1.755,24.838,34,.431,36.677,1.348,3.82,28.882,0,31.327-111.317,3.727-113.389,0S-135.562,169.99-133.72,167.3Z" transform="translate(135.668 56.114)" fill="#b98255"/>
        <path id="Path_807" data-name="Path 807" d="M-100.56,32.393c.795.124,1.772.469,1.772,1.273s-.725,1.334-1.772,1.609-1.644.066-1.644-1.072A1.721,1.721,0,0,1-100.56,32.393Z" transform="translate(162.564 -32.384)" fill="#2e3c4b"/>
        <path id="Path_808" data-name="Path 808" d="M-98.113,34.21c2.072-1.085,10.142,5.246,9.455,6.47s-15.4.985-16.7.115S-99.814,35.1-98.113,34.21Z" transform="translate(159.824 -30.977)" fill="#2e3c4b"/>
        <path id="Path_809" data-name="Path 809" d="M-101.035,51.5c2.592-.672,23.638-1.376,24.564,1.4s-.586,8.73-.873,11.481-.243,105.212.873,106.588,6.045-.1,6.423,2.588-2.112,33.858-2.762,35.464-34.324,4.735-35.524,1.756-4.468-32.636-3.9-34.078,6.222-5.73,5.78-8.251S-101.4,65.982-101.93,63.92-106.267,52.857-101.035,51.5Z" transform="translate(154.218 -17.08)" fill="#f1ece9"/>
      </g>
      <g id="swinoujscie" transform="translate(-97.054 59.433)">
        <path id="Path_810" data-name="Path 810" d="M-74.156,157.455c.446-.8.024-25.6.024-26.6s1.571-3.4,1.794-4,1.215-7.563.658-7.965-4.086-1.008-6.017-1.007c-4.247,0-32.759.3-32.759.3a6.043,6.043,0,0,0-3.6.806c-.806.468.548,8.447.906,8.995a34.069,34.069,0,0,1,2.031,3.688c.669,1.407-.8,23.693-.681,27.014,0,0,1.332,17.975,1.171,24.385v35.6" transform="translate(155.721 38.298)" fill="none" stroke="#2e3c4b" stroke-miterlimit="10" stroke-width="0.9"/>
        <path id="Path_811" data-name="Path 811" d="M-110.931,174.192c1.728-22.46,4.722-109.721,3.953-110.764-.891-1.206-1.931-2.2-2.377-3.887s-.818-7.778,0-8.514c1.728-1.553,27.633-.855,28.247.241.9,1.606-.261,5.767-.391,7.809-.077,1.226-1.692,3.445-2.026,4.349-.287.775,1.816,86.682,3.031,110.468" transform="translate(158.517 -17.717)" fill="none" stroke="#2e3c4b" stroke-miterlimit="10" stroke-width="0.9"/>
        <path id="Path_812" data-name="Path 812" d="M-105.539,54.741s-1.337-8.794,0-9.6,14.263-.806,15.377,0,1.114,10.06,1.114,10.06" transform="translate(162.484 -22.334)" fill="none" stroke="#2e3c4b" stroke-miterlimit="10" stroke-width="0.9"/>
        <path id="Path_813" data-name="Path 813" d="M-104.711,118.042s.334,7.5,1.671,10.116c.72,1.407.417,9.621.438,17.339.005,1.916-10.328,11.147-10.328,11.147" transform="translate(156.865 38.433)" fill="none" stroke="#2e3c4b" stroke-miterlimit="10" stroke-width="0.9"/>
        <path id="Path_814" data-name="Path 814" d="M-96.578,118.042s-.446,7.3-1.226,9.915a91.557,91.557,0,0,0-1.779,17.615c0,3.094,13.249,11.748,13.249,11.748" transform="translate(167.899 38.433)" fill="none" stroke="#2e3c4b" stroke-miterlimit="10" stroke-width="0.9"/>
        <path id="Path_815" data-name="Path 815" d="M-104.844,99.384s0-6.174,1.56-6.306,2.154,6.306,2.154,6.306Z" transform="translate(163.55 17.792)" fill="none" stroke="#2e3c4b" stroke-miterlimit="10" stroke-width="0.9"/>
        <path id="Path_816" data-name="Path 816" d="M-104.06,133.383s-.259-4.267,1.3-4.4,1.376,4.4,1.376,4.4Z" transform="translate(164.185 47.478)" fill="none" stroke="#2e3c4b" stroke-miterlimit="10" stroke-width="0.9"/>
        <path id="Path_817" data-name="Path 817" d="M-103.022,153.684s-.323-8.376,1.629-8.631,1.723,8.631,1.723,8.631Z" transform="translate(165.039 60.758)" fill="none" stroke="#2e3c4b" stroke-miterlimit="10" stroke-width="0.9"/>
        <path id="Path_818" data-name="Path 818" d="M-99.444,76.415s-1.226-8.246.948-7.842,2.305,7.842,2.305,7.842Z" transform="translate(167.729 -2.477)" fill="none" stroke="#2e3c4b" stroke-miterlimit="10" stroke-width="0.9"/>
        <path id="Path_819" data-name="Path 819" d="M-106.619,60.254s-3.588-6.637-1.3-6.9,3.887,6.9,3.887,6.9Z" transform="translate(160.378 -15.056)" fill="none" stroke="#2e3c4b" stroke-miterlimit="10" stroke-width="0.9"/>
        <path id="Path_820" data-name="Path 820" d="M-104.608,60.443s-1.061-6.644.4-6.912c1.64-.3,2.629,6.169,2.342,6.995Z" transform="translate(163.437 -14.909)" fill="none" stroke="#2e3c4b" stroke-miterlimit="10" stroke-width="0.9"/>
        <path id="Path_821" data-name="Path 821" d="M-101.673,60.161s.93-6.637,2.63-6.5,0,6.5,0,6.5Z" transform="translate(166.171 -14.796)" fill="none" stroke="#2e3c4b" stroke-miterlimit="10" stroke-width="0.9"/>
        <path id="Path_822" data-name="Path 822" d="M-98.609,59.918s2.02-6.3,3.655-6.167-.7,6.167-.7,6.167Z" transform="translate(168.704 -14.72)" fill="none" stroke="#2e3c4b" stroke-miterlimit="10" stroke-width="0.9"/>
        <path id="Path_823" data-name="Path 823" d="M-110.354,127.822s-2.274-6.847-.325-6.982,3.538,6.982,3.538,6.982Z" transform="translate(158.073 40.744)" fill="none" stroke="#2e3c4b" stroke-miterlimit="10" stroke-width="0.9"/>
        <path id="Path_824" data-name="Path 824" d="M-105.134,127.488s-1.571-7.031.473-6.638c2.76.532,3.591,6.816,2.957,6.642Z" transform="translate(162.833 40.74)" fill="none" stroke="#2e3c4b" stroke-miterlimit="10" stroke-width="0.9"/>
        <path id="Path_825" data-name="Path 825" d="M-102.127,127.57s-.705-6.638,2.068-6.638c1.562,0,1.56,6.638,1.56,6.638Z" transform="translate(165.73 40.822)" fill="none" stroke="#2e3c4b" stroke-miterlimit="10" stroke-width="0.9"/>
        <path id="Path_826" data-name="Path 826" d="M-96.129,127.49s1.279-6.852,2.987-6.651.442,6.651.442,6.651Z" transform="translate(170.754 40.741)" fill="none" stroke="#2e3c4b" stroke-miterlimit="10" stroke-width="0.9"/>
        <path id="Path_827" data-name="Path 827" d="M-109.484,53.061s-1.578-3.462-1.244-4.77,30.455-.2,31.44,0S-81.237,53.3-81.237,53.3" transform="translate(158.647 -19.752)" fill="none" stroke="#2e3c4b" stroke-miterlimit="10" stroke-width="0.9"/>
        <path id="Path_828" data-name="Path 828" d="M-105.837,50.778l-.3-12.569h16.491l-1.114,11.965" transform="translate(162.484 -27.568)" fill="none" stroke="#2e3c4b" stroke-miterlimit="10" stroke-width="0.9"/>
        <path id="Path_829" data-name="Path 829" d="M-88.868,41.624c.818-.4-7.738-7.524-10.105-7.658s-8.306,7.4-7.8,7.532l1.633.219" transform="translate(161.928 -31.076)" fill="none" stroke="#2e3c4b" stroke-miterlimit="10" stroke-width="0.9"/>
        <path id="Path_830" data-name="Path 830" d="M-101.846,32.393c.8.124,1.774.469,1.774,1.273s-.727,1.334-1.774,1.609-1.644.066-1.644-1.072A1.721,1.721,0,0,1-101.846,32.393Z" transform="translate(164.669 -32.384)" fill="none" stroke="#2e3c4b" stroke-miterlimit="10" stroke-width="0.9"/>
        <path id="Path_831" data-name="Path 831" d="M-135.141,152.989s-.826,31.325,2.124,34.35,114.078,3.86,115.552,2.1,1.291-35.983,1.291-35.983" transform="translate(138.414 67.324)" fill="none" stroke="#2e3c4b" stroke-miterlimit="10" stroke-width="0.9"/>
        <path id="Path_832" data-name="Path 832" d="M-113.354,139.559" transform="translate(156.514 56.221)" fill="none" stroke="#2e3c4b" stroke-miterlimit="10" stroke-width="0.9"/>
        <path id="Path_833" data-name="Path 833" d="M-92.33,139.544l1.065,27.474-1.065,34.214" transform="translate(173.895 56.209)" fill="none" stroke="#2e3c4b" stroke-miterlimit="10" stroke-width="0.9"/>
        <path id="Path_834" data-name="Path 834" d="M-131.01,156.605c.912-.212,6.045-.5,6.487,0s1.032,8.443,0,9.2-5.161,1.748-5.6.685S-132.19,156.881-131.01,156.605Z" transform="translate(141.568 70.083)" fill="none" stroke="#2e3c4b" stroke-miterlimit="10" stroke-width="0.9"/>
        <path id="Path_835" data-name="Path 835" d="M-122.521,156.614c.353-1.023,6.045-.656,6.339,0s.886,9.841,0,10.164-5.307.811-5.751,0S-122.816,157.471-122.521,156.614Z" transform="translate(148.856 69.795)" fill="none" stroke="#2e3c4b" stroke-miterlimit="10" stroke-width="0.9"/>
        <path id="Path_836" data-name="Path 836" d="M-130.7,164.165c.6-.139,6.6-.756,6.47,0s.722,8.443,0,9.072-5.144,0-5.586,0S-131.807,164.417-130.7,164.165Z" transform="translate(141.85 76.259)" fill="none" stroke="#2e3c4b" stroke-miterlimit="10" stroke-width="0.9"/>
        <path id="Path_837" data-name="Path 837" d="M-122.207,163.9c.311-.374,4.276-.243,5.161,0s1.032,9.371.59,9.722a9.958,9.958,0,0,1-4.718,0C-121.913,173.216-122.945,164.793-122.207,163.9Z" transform="translate(148.985 76.153)" fill="none" stroke="#2e3c4b" stroke-miterlimit="10" stroke-width="0.9"/>
        <line id="Line_407" data-name="Line 407" x2="7.204" transform="translate(10.401 231.394)" fill="none" stroke="#2e3c4b" stroke-miterlimit="10" stroke-width="0.9"/>
        <line id="Line_408" data-name="Line 408" x2="0.457" y2="10.149" transform="translate(13.878 226.423)" fill="none" stroke="#2e3c4b" stroke-miterlimit="10" stroke-width="0.9"/>
        <line id="Line_409" data-name="Line 409" y2="9.669" transform="translate(14.335 240.107)" fill="none" stroke="#2e3c4b" stroke-miterlimit="10" stroke-width="0.9"/>
        <line id="Line_410" data-name="Line 410" x2="6.862" y2="0.297" transform="translate(10.758 244.645)" fill="none" stroke="#2e3c4b" stroke-miterlimit="10" stroke-width="0.9"/>
        <line id="Line_411" data-name="Line 411" x2="6.903" y2="0.399" transform="translate(26.24 231.099)" fill="none" stroke="#2e3c4b" stroke-miterlimit="10" stroke-width="0.9"/>
        <line id="Line_412" data-name="Line 412" x2="0.405" y2="11.218" transform="translate(29.286 225.776)" fill="none" stroke="#2e3c4b" stroke-miterlimit="10" stroke-width="0.9"/>
        <line id="Line_413" data-name="Line 413" x2="0.448" y2="9.941" transform="translate(29.647 239.836)" fill="none" stroke="#2e3c4b" stroke-miterlimit="10" stroke-width="0.9"/>
        <line id="Line_414" data-name="Line 414" x2="6.054" y2="0.688" transform="translate(26.692 244.645)" fill="none" stroke="#2e3c4b" stroke-miterlimit="10" stroke-width="0.9"/>
        <path id="Path_838" data-name="Path 838" d="M-69.937,174.14c-.912.212-6.046.5-6.489,0s-1.032-8.443,0-9.2,5.161-1.748,5.6-.685S-68.757,173.864-69.937,174.14Z" transform="translate(186.57 76.254)" fill="none" stroke="#2e3c4b" stroke-miterlimit="10" stroke-width="0.9"/>
        <path id="Path_839" data-name="Path 839" d="M-78.689,174.408c-.353,1.025-6.045.658-6.341,0s-.884-9.841,0-10.162,5.308-.811,5.751,0S-78.393,173.553-78.689,174.408Z" transform="translate(179.545 76.264)" fill="none" stroke="#2e3c4b" stroke-miterlimit="10" stroke-width="0.9"/>
        <path id="Path_840" data-name="Path 840" d="M-70.394,166.17c-.6.137-6.6.756-6.472,0s-.72-8.443,0-9.073,5.144,0,5.588,0S-69.289,165.918-70.394,166.17Z" transform="translate(186.437 70.489)" fill="none" stroke="#2e3c4b" stroke-miterlimit="10" stroke-width="0.9"/>
        <path id="Path_841" data-name="Path 841" d="M-79.3,166.667c-.311.374-4.276.243-5.161,0s-1.032-9.371-.59-9.722a9.933,9.933,0,0,1,4.718,0C-79.594,157.351-78.562,165.776-79.3,166.667Z" transform="translate(179.714 70.36)" fill="none" stroke="#2e3c4b" stroke-miterlimit="10" stroke-width="0.9"/>
        <line id="Line_415" data-name="Line 415" x1="7.204" transform="translate(109.586 245.688)" fill="none" stroke="#2e3c4b" stroke-miterlimit="10" stroke-width="0.9"/>
        <line id="Line_416" data-name="Line 416" x1="0.457" y1="10.149" transform="translate(112.856 240.509)" fill="none" stroke="#2e3c4b" stroke-miterlimit="10" stroke-width="0.9"/>
        <line id="Line_417" data-name="Line 417" y1="9.669" transform="translate(112.856 227.306)" fill="none" stroke="#2e3c4b" stroke-miterlimit="10" stroke-width="0.9"/>
        <line id="Line_418" data-name="Line 418" x1="6.862" y1="0.297" transform="translate(109.571 232.141)" fill="none" stroke="#2e3c4b" stroke-miterlimit="10" stroke-width="0.9"/>
        <line id="Line_419" data-name="Line 419" x1="6.903" y1="0.399" transform="translate(94.048 245.584)" fill="none" stroke="#2e3c4b" stroke-miterlimit="10" stroke-width="0.9"/>
        <line id="Line_420" data-name="Line 420" x1="0.405" y1="11.218" transform="translate(97.5 240.088)" fill="none" stroke="#2e3c4b" stroke-miterlimit="10" stroke-width="0.9"/>
        <line id="Line_421" data-name="Line 421" x1="0.448" y1="9.941" transform="translate(97.096 227.306)" fill="none" stroke="#2e3c4b" stroke-miterlimit="10" stroke-width="0.9"/>
        <line id="Line_422" data-name="Line 422" x1="6.054" y1="0.688" transform="translate(94.445 231.749)" fill="none" stroke="#2e3c4b" stroke-miterlimit="10" stroke-width="0.9"/>
        <line id="Line_423" data-name="Line 423" x2="0.544" y2="11.564" transform="translate(62.049 10.699)" fill="none" stroke="#2e3c4b" stroke-miterlimit="10" stroke-width="0.9"/>
        <line id="Line_424" data-name="Line 424" x1="0.688" y2="11.657" transform="translate(68.916 10.721)" fill="none" stroke="#2e3c4b" stroke-miterlimit="10" stroke-width="0.9"/>
        <line id="Line_425" data-name="Line 425" y1="2.788" x2="6.953" transform="translate(83.127 6.765)" fill="none" stroke="#2e3c4b" stroke-miterlimit="10" stroke-width="0.9"/>
        <line id="Line_426" data-name="Line 426" y1="0.559" x2="8.176" transform="translate(85.267 15.818)" fill="none" stroke="#2e3c4b" stroke-miterlimit="10" stroke-width="0.9"/>
        <line id="Line_427" data-name="Line 427" x2="5.081" y2="2.552" transform="translate(84.273 22.205)" fill="none" stroke="#2e3c4b" stroke-miterlimit="10" stroke-width="0.9"/>
        <line id="Line_428" data-name="Line 428" x1="4.824" y1="2.265" transform="translate(40.262 6.829)" fill="none" stroke="#2e3c4b" stroke-miterlimit="10" stroke-width="0.9"/>
        <line id="Line_429" data-name="Line 429" x1="7.913" y2="0.306" transform="translate(34.761 15.512)" fill="none" stroke="#2e3c4b" stroke-miterlimit="10" stroke-width="0.9"/>
        <line id="Line_430" data-name="Line 430" x1="4.89" y2="2.346" transform="translate(36.366 23.481)" fill="none" stroke="#2e3c4b" stroke-miterlimit="10" stroke-width="0.9"/>
        <path id="Path_842" data-name="Path 842" d="M-91.894,164.41c-3.664.97-42.214,1.593-45.016-.793-.61-.519,2.879-20.642,3.8-21.866s36.7-1.955,40.069-2.578" transform="translate(136.981 55.903)" fill="none" stroke="#2e3c4b" stroke-miterlimit="10" stroke-width="0.9"/>
        <path id="Path_843" data-name="Path 843" d="M-92.33,139.568c2-.411,36.511,1.686,38.849,2.3,1.633.427,5.115,20.635,4.278,22.262s-38.853,1.26-42.062.5" transform="translate(173.895 56.185)" fill="none" stroke="#2e3c4b" stroke-miterlimit="10" stroke-width="0.9"/>
        <path id="Path_844" data-name="Path 844" d="M-103.545,171.109c-.115-.8-.133-8.7,2.3-9.21s2.029,9.409,2.029,9.409Z" transform="translate(164.591 74.674)" fill="none" stroke="#2e3c4b" stroke-miterlimit="10" stroke-width="0.9"/>
      </g>
    </g>
  </g>
</svg>
