<?xml version="1.0" encoding="utf-8"?>
<!-- Generator: Adobe Illustrator 24.0.3, SVG Export Plug-In . SVG Version: 6.00 Build 0)  -->
<svg version="1.1" id="Layer_1" xmlns="http://www.w3.org/2000/svg" xmlns:xlink="http://www.w3.org/1999/xlink" x="0px" y="0px"
	 viewBox="0 0 106 149.9" style="enable-background:new 0 0 106 149.9;" xml:space="preserve">
<style type="text/css">
	.st0{fill:#EACEBE;}
	.st1{enable-background:new    ;}
	.st2{fill:#2E3D4B;}
	.st3{fill:#F2EDEB;}
	.st4{fill:#BA8356;}
	.st5{fill:#D9CEC4;}
	.st6{fill:none;}
	.st7{fill:none;stroke:#2E3D4B;stroke-width:0.2475;stroke-miterlimit:10;}
</style>
<title>Artboard 2</title>
<path class="st0" d="M101.1,97.6c-2-0.7-4.5-1.8-4.6-2c-0.2-0.4,7.2-0.7,7.1-2.1c0-1.4-7.9-3.1-7.9-3.5s5.9-0.8,5.9-1.9
	s-6.4-3.2-6.4-3.6s5.3-1.4,5.3-2.4s-5.9-1.9-5.9-1.9s3.8-0.3,3.9-0.9s-5.4-7-6-7.1c-0.6,0-3.7,5.6-4,6.7s2.6,0.7,2.7,1.3
	c0.1,0.5-5.9,0.9-5.9,2s4.6,2,4.8,2.7s-6.7,1.4-6.9,2.6c-0.2,1.2,6.2,2,6.1,2.5s-8.8,1.6-8.6,2.6c0.2,1,7.5,2,7.6,2.8
	c0,0.3-2,0.8-4.2,1.4c-7.4-2.5-13-3.8-16.5-4.2C63.3,92.1,50,92,43.4,92.8c-3,0.2-10.4,0.7-16.3,3.1c-1.6,0.1-3,0.3-3-0.2
	c0-0.7,8.1-2.8,8.1-4.5c0-1.2-9.8-2.2-9.9-4.1c0-0.7,8.6-1.7,8.4-3.7s-7.9-3.5-8.4-4.3s5.4-2.8,5.5-4.5c0-0.8-7.6-3.2-7.8-3.9
	c-0.2-0.7,5.2-0.3,5-1.5s-5.6-9.6-6.6-9.6c-0.9,0-7.6,7.1-7.7,8.4c-0.1,1.1,4.7,1.7,4.6,2.8c0,1.5-7.3,2.2-7.3,4.3
	c0,0.9,5.4,2.4,5.4,4.1c0,1.6-7.5,2.6-7.7,4.2s7.2,3.2,7.3,4.4S3.6,88.9,3,90c-0.5,1.1,7.2,3.8,7.1,4.7C10,95.2,6.5,96.3,3.9,97
	C2,96.7,0,94.8,0,94.8V150h106V97.8C106,97.8,104.3,98.2,101.1,97.6z"/>
<g class="st1">
	<path class="st2" d="M47.3,131.4l-1.4-1.6v1.6h-0.6v-4.3h0.6v1.6l1.4-1.6H48l-1.8,2.2l1.9,2.1H47.3z"/>
	<path class="st2" d="M48.6,131.4v-4.3h0.5v4.3H48.6z"/>
	<path class="st2" d="M51.8,131.4l-1.4-1.6v1.6h-0.6v-4.3h0.6v1.6l1.4-1.6h0.7l-1.8,2.2l1.9,2.1H51.8z"/>
	<path class="st2" d="M54,131.3c-0.2-0.1-0.3-0.2-0.5-0.3s-0.2-0.3-0.3-0.5c-0.1-0.2-0.1-0.4-0.1-0.6v-2.8h0.5v2.8
		c0,0.1,0,0.3,0.1,0.4c0,0.1,0.1,0.2,0.2,0.3c0.1,0.1,0.2,0.2,0.3,0.2c0.1,0,0.2,0.1,0.4,0.1s0.3,0,0.4-0.1c0.1,0,0.2-0.1,0.3-0.2
		c0.1-0.1,0.2-0.2,0.2-0.3c0-0.1,0.1-0.2,0.1-0.4v-2.8h0.5v2.8c0,0.2,0,0.4-0.1,0.6c-0.1,0.2-0.2,0.3-0.3,0.5
		c-0.1,0.1-0.3,0.3-0.5,0.3c-0.2,0.1-0.4,0.1-0.6,0.1S54.2,131.4,54,131.3z"/>
	<path class="st2" d="M58.3,127.7v3.7h-0.6v-3.7h-1v-0.5h2.6v0.5H58.3z"/>
</g>
<g id="kikut_kolor">
	<path class="st3" d="M44.4,53.3c1.4-1.6,20.5-0.8,21.3-0.2c0.9,0.7,2.4,53.3,1.8,54.8c-0.7,1.5-21.3,1.9-23.1-1.2
		C42.6,103.7,42.7,55.3,44.4,53.3z"/>
	<path class="st4" d="M45.9,40.2c0.9-1,17.6-1.1,18.1,0s0.3,10.7-0.2,12S45,53.3,44.7,51.9C44.4,50.4,44.9,41.3,45.9,40.2z"/>
	<path class="st5" d="M52.6,47.3c0,0,0.2-4.5,1.3-4.4s1.3,4,1,4.4C54.7,47.7,52.8,47.8,52.6,47.3z"/>
	<line class="st6" x1="52.8" y1="45.3" x2="55" y2="45.4"/>
	<line class="st6" x1="53.9" y1="42.9" x2="53.8" y2="47.6"/>
	<path class="st2" d="M51.4,103.1c0.5-1,4.8-0.8,5.1-0.4s0,5.6,0,5.9s-4,0.4-4.3,0C52,108.3,51.1,103.8,51.4,103.1z"/>
	<path class="st3" d="M53.5,28.6c0.9,0.2,7.6,2.6,7.4,3.1c-0.3,0.4-14.2,1.3-14.9,1C45.2,32.3,53.2,28.5,53.5,28.6z"/>
</g>
<g id="kikut">
	<path class="st7" d="M44.3,40.7c0.6-0.7,17.6-0.4,18.2,0.1s5.3,67,4.5,67.5c-0.9,0.5-23.4,1.5-25.3,0c-1-0.8-0.3-16.3,0.4-33.1
		C42.7,59.1,43.3,41.8,44.3,40.7z"/>
	<path class="st7" d="M51.8,109.1c0,0-0.2-4.3,0-5.3s4-1,4.8,0s0.7,5.2,0.7,5.2"/>
	<line class="st7" x1="46.8" y1="40.2" x2="46.8" y2="32.4"/>
	<line class="st7" x1="60.2" y1="32.4" x2="60.2" y2="40.5"/>
	<path class="st7" d="M53.3,28.6c0.7-0.1,8.5,3.4,8.3,3.6c-0.2,0.3-15.5,0.4-16.1,0C45,31.8,52.2,28.8,53.3,28.6z"/>
	<path class="st7" d="M44.8,40.5c0,0-0.2-4.2-0.1-4.6c0.5-0.3,5.9-0.5,8.9-0.5c2.3,0,8.5,0.3,9.3,0.5c0.2,0.4-0.4,4.9-0.4,4.9"/>
	<path class="st7" d="M44.7,38.4c0,0,7.3-0.5,8.9-0.5s9.2,0.4,9.2,0.4"/>
	<path class="st7" d="M50.2,35.5c0,0-0.1,4.4-0.1,4.8"/>
	<line class="st7" x1="55.8" y1="35.4" x2="56.2" y2="40.3"/>
	<line class="st7" x1="48.6" y1="23.5" x2="48.4" y2="30.6"/>
	<path class="st7" d="M49.5,22.2c-0.1,0.1,0.4,7.6,0.4,7.6"/>
	<polyline class="st7" points="58.2,24.3 57.8,29.4 57.8,40.4 	"/>
	<path class="st7" d="M52.1,47.3c0,0,0.2-4.5,1.3-4.4s1.2,4,1,4.4C54.3,47.7,52.4,47.8,52.1,47.3z"/>
	<line class="st7" x1="52.4" y1="45.3" x2="54.6" y2="45.4"/>
	<line class="st7" x1="53.5" y1="42.9" x2="53.4" y2="47.6"/>
	<path class="st7" d="M46.8,58.5c1,0,1.4,0.4,1.3,0.8c-0.1,0.4-1.3,0.8-1.9,0.6C45.7,59.6,46.4,58.5,46.8,58.5z"/>
	<path class="st7" d="M59.2,70.9c1,0,1.4,0.4,1.3,0.8c-0.1,0.4-1.3,0.8-1.9,0.6C58.1,72,58.8,70.9,59.2,70.9z"/>
	<path class="st7" d="M45.8,79.3c0.3-0.4,1.2,0.3,1.2,0.7s-0.4,0.7-0.9,0.7S45.4,79.8,45.8,79.3z"/>
	<path class="st7" d="M51.4,70.8c0.3,0.1,1.2,0.8,1,1.3s-2.1,0.5-2.2,0C50.2,71.6,51,70.6,51.4,70.8z"/>
	<path class="st7" d="M56.7,56.9c0.3,0.1,1.2,0.8,1,1.3s-2.1,0.5-2.2,0C55.5,57.7,56.4,56.7,56.7,56.9z"/>
	<path class="st7" d="M54.1,87c0.7,0.1,1.5,1,1.3,1.4c-0.2,0.3-0.9,0.5-1.5,0C53.2,87.8,53.8,86.9,54.1,87z"/>
	<path class="st7" d="M60.9,84.3c0.7,0.1,1.5,1,1.3,1.4s-0.9,0.5-1.5,0C60,85.2,60.6,84.3,60.9,84.3z"/>
	<path class="st7" d="M51.3,81.3c0.7,0.1,1.5,1,1.3,1.4c-0.2,0.3-0.9,0.5-1.5,0C50.4,82.2,51,81.2,51.3,81.3z"/>
	<path class="st7" d="M61,95.9c0.8,0.4,1.7,2.2,1.3,2.4c-0.4,0.3-1.7-0.7-2-1.2S60.7,95.7,61,95.9z"/>
	<path class="st7" d="M48,94c0.4-0.2,1.1,0.5,1.2,0.9c0.1,0.4-0.1,0.9-0.8,0.9C47.6,95.9,47.1,94.3,48,94z"/>
	<path class="st7" d="M45.9,101.9c0.4-0.2,1.1,0.5,1.2,0.9c0.1,0.4-0.1,0.9-0.8,0.9C45.6,103.8,45.1,102.2,45.9,101.9z"/>
	<path class="st7" d="M61.3,63.2c0.6,0.1,1,0.3,0.9,0.8c-0.1,0.6-1.1,0.7-1.5,0.5C60.1,64.4,60.8,63.1,61.3,63.2z"/>
	<path class="st7" d="M59.6,77.9c0.5,0.2,0.4,0.7,0.5,1.1c0.2,0.4-0.8,1.3-1.3,0.5C58.4,78.7,59.4,77.8,59.6,77.9z"/>
	<path class="st7" d="M47.2,67c0.5,0.2,0.4,0.7,0.5,1.1s-0.8,1.3-1.3,0.5C46,67.7,46.9,66.9,47.2,67z"/>
	<line class="st7" x1="70.9" y1="32.5" x2="74.5" y2="30.3"/>
	<line class="st7" x1="70.9" y1="34.7" x2="74.7" y2="34.4"/>
	<line class="st7" x1="68.4" y1="38.1" x2="70.9" y2="38.9"/>
	<line class="st7" x1="41.6" y1="31.9" x2="38.4" y2="30.3"/>
	<line class="st7" x1="40.3" y1="34.7" x2="36" y2="34.7"/>
	<line class="st7" x1="40.7" y1="37.9" x2="39" y2="38.9"/>
</g>
</svg>
