<?xml version="1.0" encoding="utf-8"?>
<!-- Generator: Adobe Illustrator 24.0.3, SVG Export Plug-In . SVG Version: 6.00 Build 0)  -->
<svg version="1.1" id="Layer_1" xmlns="http://www.w3.org/2000/svg" xmlns:xlink="http://www.w3.org/1999/xlink" x="0px" y="0px"
	 viewBox="0 0 106 149.9" style="enable-background:new 0 0 106 149.9;" xml:space="preserve">
<style type="text/css">
	.st0{fill:#EACEBE;}
	.st1{enable-background:new    ;}
	.st2{fill:#2E3D4B;}
	.st3{fill:#FFFFFF;}
	.st4{fill:#F2EDEB;}
	.st5{fill:#BA8356;}
	.st6{fill:#365670;}
	.st7{fill:none;stroke:#2E3D4B;stroke-width:0.2538;stroke-miterlimit:10;}
</style>
<title>Artboard 3</title>
<path class="st0" d="M106.1,74.5c-0.8-0.6-2-0.5-2.8,0.1s-1.6,1.4-2.6,1.3c-0.6-0.1-1.8-0.3-2.4-0.3c-1.4,0-0.2,3.1-1.6,3.4
	c-0.6,0.2-2.5-1.4-3.1-1.2c-0.9,0.3-2.5,2.6-3.3,3.2c-1.6,1.3-3.2-1-4.5,0.6c-0.7,0.9,0.5,2.1-0.5,2.7c-0.8,0.5-3,0.4-3.9,0.7
	c-1.9,0.6-0.6,4-2.3,5c-0.7,0.4-2.8,0-3.6,0.4c-2.3,1.1-3.9,0.1-4.6,2.5c-0.2,0.8-0.6,1.5-1.2,2c-0.8,0.6-1.3-0.5-2.3-0.5
	c-11.4,0-21,0-32.4,0c-4.1,0-4.3,1.5-8.4,0.8c-1.8-0.3-4.9-5.1-6.8-4.8c-1.4,0.2-2.6,2.1-3.9,1.3c-0.8-0.5-1.6-2.8-4.2-3.3
	c-2.1-0.4-2.5,1.9-5.6,2.3c-3.9,0.5-0.5,4.1-2.2,4.9c-2.3,1.1-2.2,2-3.9,2.2v52h106V74.5H106.1z"/>
<g class="st1">
	<path class="st2" d="M40.5,131.7l-1.9-3.1v3.1H38v-4.3h0.6l2,3.2v-3.2h0.6v4.3H40.5z"/>
	<path class="st2" d="M41.8,131.7v-4.3h0.5v4.3H41.8z"/>
</g>
<g class="st1">
	<path class="st2" d="M43.3,131.7v-4.3h2.3v0.6h-1.8v1.3H45v0.5h-1.2v1.3h1.8v0.6H43.3z"/>
</g>
<g class="st1">
	<path class="st2" d="M47.3,131.5c-0.3-0.1-0.5-0.3-0.7-0.5c-0.2-0.2-0.4-0.4-0.5-0.7c-0.1-0.3-0.2-0.5-0.2-0.8s0.1-0.6,0.2-0.8
		c0.1-0.3,0.3-0.5,0.5-0.7c0.2-0.2,0.4-0.3,0.7-0.5s0.5-0.2,0.8-0.2c0.3,0,0.6,0.1,0.9,0.2s0.5,0.3,0.8,0.6l-0.4,0.4
		c-0.4-0.4-0.8-0.6-1.2-0.6c-0.2,0-0.4,0-0.6,0.1c-0.2,0.1-0.4,0.2-0.5,0.3c-0.1,0.1-0.3,0.3-0.3,0.5c-0.1,0.2-0.1,0.4-0.1,0.6
		c0,0.2,0,0.4,0.1,0.6c0.1,0.2,0.2,0.4,0.3,0.5c0.1,0.1,0.3,0.3,0.5,0.3c0.2,0.1,0.4,0.1,0.6,0.1c0.5,0,0.9-0.2,1.2-0.6l0.4,0.4
		c-0.2,0.3-0.5,0.5-0.8,0.6c-0.3,0.1-0.6,0.2-0.9,0.2C47.9,131.7,47.6,131.6,47.3,131.5z"/>
	<path class="st2" d="M52.7,131.7v-1.8H51v1.8h-0.6v-4.3H51v1.8h1.7v-1.8h0.6v4.3H52.7z"/>
	<path class="st2" d="M55.2,131.5c-0.3-0.1-0.5-0.3-0.7-0.5c-0.2-0.2-0.4-0.4-0.5-0.7c-0.1-0.3-0.2-0.5-0.2-0.8s0.1-0.6,0.2-0.8
		c0.1-0.3,0.3-0.5,0.5-0.7c0.2-0.2,0.4-0.4,0.7-0.5s0.5-0.2,0.8-0.2c0.3,0,0.6,0.1,0.8,0.2s0.5,0.3,0.7,0.5c0.2,0.2,0.4,0.4,0.5,0.7
		c0.1,0.3,0.2,0.5,0.2,0.8s-0.1,0.6-0.2,0.8c-0.1,0.3-0.3,0.5-0.5,0.7c-0.2,0.2-0.4,0.3-0.7,0.5s-0.5,0.2-0.8,0.2
		C55.7,131.7,55.4,131.7,55.2,131.5z M55.4,128.1c-0.2,0.1-0.4,0.2-0.5,0.3c-0.1,0.1-0.3,0.3-0.3,0.5c-0.1,0.2-0.1,0.4-0.1,0.6
		c0,0.2,0,0.4,0.1,0.6c0.1,0.2,0.2,0.4,0.3,0.5c0.1,0.1,0.3,0.3,0.5,0.3c0.2,0.1,0.4,0.1,0.6,0.1c0.2,0,0.4,0,0.6-0.1
		c0.2-0.1,0.4-0.2,0.5-0.3c0.1-0.1,0.3-0.3,0.3-0.5c0.1-0.2,0.1-0.4,0.1-0.6c0-0.2,0-0.4-0.1-0.6c-0.1-0.2-0.2-0.4-0.3-0.5
		c-0.1-0.1-0.3-0.3-0.5-0.3c-0.2-0.1-0.4-0.1-0.6-0.1C55.8,128,55.6,128,55.4,128.1z"/>
</g>
<g class="st1">
	<path class="st2" d="M61.7,131.7H61l-1.2-1.5v1.5h-0.6v-4.3h1.1c0.2,0,0.4,0,0.5,0.1c0.2,0.1,0.3,0.2,0.4,0.3
		c0.1,0.1,0.2,0.3,0.3,0.5c0.1,0.2,0.1,0.3,0.1,0.5c0,0.2,0,0.3-0.1,0.5c-0.1,0.2-0.1,0.3-0.3,0.4c-0.1,0.1-0.2,0.2-0.4,0.3
		c-0.2,0.1-0.3,0.1-0.5,0.1L61.7,131.7z M59.8,128v1.6h0.5c0.1,0,0.2,0,0.3-0.1c0.1,0,0.2-0.1,0.3-0.2c0.1-0.1,0.1-0.2,0.2-0.3
		s0.1-0.2,0.1-0.3c0-0.2-0.1-0.4-0.2-0.6c-0.1-0.1-0.2-0.1-0.3-0.2c-0.1,0-0.2-0.1-0.3-0.1H59.8z"/>
</g>
<g class="st1">
	<path class="st2" d="M62.2,131.2l2.2-3.2h-2.2v-0.6h2.9v0.5l-2.2,3.2h2.2v0.6h-2.9V131.2z"/>
	<path class="st2" d="M65.7,131.7v-4.3H68v0.6h-1.8v1.3h1.2v0.5h-1.2v1.3H68v0.6H65.7z"/>
</g>
<g id="niechorze_kolor">
	<path class="st3" d="M49.4,43.9c0.2-0.4,9.9-0.4,10.3-0.3s0.2,37.6,0,37.8c-0.2,0.2-9.6,0.7-10.3,0.5S48.9,44.6,49.4,43.9z"/>
	<path class="st4" d="M54.8,24.5c1.1,0,3.8,2.5,3.1,3.5c-0.7,1.1-7.8,1-8,0.5C49.8,28.2,50.8,24.6,54.8,24.5z"/>
	<path class="st4" d="M47.4,85.3c0.2,0.4,12,1.1,12.6,0.6s0.1-2.5-0.1-2.8c-0.2-0.1-2.9,0.3-5.7,0.2c-2.5-0.1-5-0.7-5.1-0.7
		C48.8,82.8,47.3,85,47.4,85.3z"/>
	<path class="st4" d="M47.3,89.7c0.7,0.4,1,4.8,0.5,5.2c-0.5,0.4-17.6,0.6-17.8,0c-0.2-0.6,2.2-5,2.7-5.2S46.9,89.5,47.3,89.7z"/>
	<path class="st4" d="M60.5,89.3c0.6-0.4,13.7,0.2,14.2,0.6c0.5,0.3,2.6,4.5,2.3,5S62.3,96,61.8,95.6C61.2,95.2,60.2,89.5,60.5,89.3
		z"/>
	<path class="st4" d="M49.4,44c2-1.3,10.2-1,10.4-0.4c0.2,0.7,0.7,37,0.3,37.5c-0.6,0.7-3.6,1.1-5.3,1.1s-5-0.2-5.5-1
		S48.9,44.4,49.4,44z"/>
	<path class="st5" d="M61.4,38.8c-0.2-0.3-12.4-0.4-13.1,0.1c-0.3,0.2-0.3,1.8,0,2c0.3,0.3,0.9,1.3,0.9,1.6c0,0.2-0.1,1-0.1,1.4
		c-0.2,3.3-0.2,36.7-0.2,37.2c0,0.4,0.7,0.4,0.8,0.1c0,0,0-0.4,0-1.1c0.3,0,0.9,0.1,1.7,0.1c0,0.8,0,1.3,0,1.4
		c0,0.5,0.7,0.5,0.7,0.2c0-0.1,0.1-0.7,0.1-1.6c1.4,0.1,3.1,0.2,4.4,0.2c0,0.7,0,1.1,0,1.1c0,0.5,0.9,0.2,1,0c0,0,0-0.4,0-1.1
		l1.4,0.1V81c0,0.4,0.7,0.7,0.8,0.4c0.1-0.2,0.1-33.2,0-37.4l0,0c0.3-0.1,0-1.4,0.1-1.7s1.2-1.2,1.3-1.7S61.6,39.1,61.4,38.8z
		 M49.8,79.4c0.1-7.1,0.1-31.5,0-35.2c0.5-0.1,1.1-0.1,1.9-0.2c-0.1,2.2-0.2,27.4-0.2,35.4H49.8z M52.3,79.3
		c0.2-8.6,0.2-35.2,0.2-35.4l0,0c0.7,0,1.4-0.1,2.1-0.1s1.4,0,2.1,0.1c-0.2,3.9,0,27.6,0.1,35.4C55.4,79.3,53.7,79.3,52.3,79.3
		L52.3,79.3z M57.8,79.3c0.1-7.6,0-30.7-0.1-35.3c0.7,0.1,1.3,0.1,1.8,0.2c-0.2,3.5-0.2,28.1-0.2,35.1
		C58.9,79.3,58.4,79.3,57.8,79.3z"/>
	<path class="st5" d="M78.2,96.5C78,96,61.9,96.2,61.3,96s-0.9-8-1.1-8.5C60,87,49.7,86.8,49.5,87.2s-0.5,7-0.3,7.3
		c0.2,0.4-0.6,1.7-1.1,1.6c-0.6,0-15.3-0.2-16.1,0.3c-0.8,0.4,0,12.6,0.5,13.4s7.4,0.6,8.9,0.6c1.4,0,11.8-0.1,14.5,0.1
		s20.5,0.5,21.1,0.2C77.6,110.5,78.4,97,78.2,96.5z M36.9,108.3c-0.4,0.6-2.4,0.4-2.6,0.1c-0.2-0.3,0.1-4.2,1.2-4.3
		C36.1,104,37.3,107.6,36.9,108.3z M37.5,101.3c-0.4,0.6-2.2,0.3-2.4,0.1c-0.2-0.2,0.1-3.9,1.1-4C36.7,97.3,37.9,100.7,37.5,101.3z
		 M42.7,98c0.5-0.1,1.8,3.6,1.4,4.2c-0.4,0.6-2.4,0.4-2.6,0.1S41.6,98.1,42.7,98z M44.5,108c-0.4,0.6-2.2,0.3-2.4,0.1
		c-0.2-0.2,0.1-3.9,1.1-4C43.7,104,44.9,107.4,44.5,108L44.5,108z M53.8,94.3c0.1-0.3,1.4-0.5,1.4-0.2s0.5,3.4,0.2,3.8
		c-0.2,0.5-0.9,0-1.1,0C54,97.9,53.5,94.7,53.8,94.3L53.8,94.3z M55.7,106.9c-0.2,0-1.6,0-1.6-0.2s-0.2-3.8,0-3.8s1.1-0.2,1.4,0
		C55.7,103,56,106.9,55.7,106.9L55.7,106.9z M65.6,97.6c0.5-0.1,1.7,3.3,1.3,3.9s-2.2,0.3-2.4,0.1C64.2,101.4,64.6,97.7,65.6,97.6z
		 M67.6,108.3c-0.4,0.6-2.2,0.4-2.4,0.1s0.1-4.1,1.1-4.2C66.9,104.1,68,107.7,67.6,108.3L67.6,108.3z M71.7,101.8
		c-0.2-0.2,0.1-3.9,1.1-4c0.5-0.1,1.7,3.3,1.3,3.9C73.7,102.3,71.9,102.1,71.7,101.8L71.7,101.8z M74.8,107.6
		c-0.4,0.6-2.2,0.3-2.4,0.1c-0.2-0.2,0.1-3.9,1.1-4C74,103.6,75.1,107,74.8,107.6L74.8,107.6z"/>
	<path class="st2" d="M36.2,97.4c0.5-0.1,1.7,3.3,1.3,3.9s-2.2,0.3-2.4,0.1C34.8,101.2,35.2,97.5,36.2,97.4z"/>
	<path class="st2" d="M35.5,104.1c0.5-0.1,1.8,3.6,1.4,4.2s-2.4,0.4-2.6,0.1C34.1,108.1,34.4,104.2,35.5,104.1z"/>
	<path class="st2" d="M43.2,104.1c0.5-0.1,1.7,3.3,1.3,3.9s-2.2,0.3-2.4,0.1C41.9,107.8,42.2,104.2,43.2,104.1z"/>
	<path class="st2" d="M65.6,97.6c0.5-0.1,1.7,3.3,1.3,3.9s-2.2,0.3-2.4,0.1C64.2,101.4,64.6,97.7,65.6,97.6z"/>
	<path class="st2" d="M72.8,97.8c0.5-0.1,1.7,3.3,1.3,3.9c-0.4,0.6-2.2,0.3-2.4,0.1S71.8,98,72.8,97.8z"/>
	<path class="st2" d="M66.4,104.2c0.5-0.1,1.7,3.5,1.3,4.1c-0.4,0.6-2.2,0.4-2.4,0.1C65,108.2,65.3,104.3,66.4,104.2z"/>
	<path class="st2" d="M73.5,103.7c0.5-0.1,1.7,3.3,1.3,3.9c-0.4,0.6-2.2,0.3-2.4,0.1C72.1,107.4,72.5,103.8,73.5,103.7z"/>
	<path class="st2" d="M42.7,98c0.5-0.1,1.8,3.6,1.4,4.2c-0.4,0.6-2.4,0.4-2.6,0.1S41.6,98.1,42.7,98z"/>
	<path class="st2" d="M53.8,94.3c0.1-0.3,1.4-0.5,1.4-0.2s0.5,3.4,0.2,3.8c-0.2,0.5-0.9,0-1.1,0S53.5,94.7,53.8,94.3z"/>
	<path class="st2" d="M54.2,102.8c0.2,0,1.1-0.2,1.4,0c0.2,0.2,0.5,4.1,0.2,4.1s-1.6,0-1.6-0.2C54.2,106.4,53.9,102.8,54.2,102.8z"
		/>
	<path class="st6" d="M54,64.8c0,0-0.1-2.9,0.6-2.7s0.5,2.7,0.5,2.7H54z"/>
</g>
<g id="niechorze">
	<line class="st7" x1="62.4" y1="28.4" x2="64.5" y2="27"/>
	<line class="st7" x1="64.1" y1="31.3" x2="65.4" y2="31.3"/>
	<line class="st7" x1="62.8" y1="33.6" x2="64.8" y2="34.3"/>
	<line class="st7" x1="47.8" y1="28.4" x2="46.3" y2="27.7"/>
	<line class="st7" x1="47.1" y1="31.1" x2="44.9" y2="31.1"/>
	<line class="st7" x1="46.3" y1="34" x2="44.9" y2="34.3"/>
	<path class="st7" d="M48.8,42.7c0.1-0.8,11.1-0.8,11.3,0c0.2,1,0.5,18.4,0.5,20.4s0.4,18.8-0.3,19.2c-0.7,0.5-5.2,0.4-5.9,0.4
		s-5.4-0.1-5.6-0.6C48.3,81.1,48.5,45.8,48.8,42.7z"/>
	<path class="st7" d="M48.8,82.2c0,0-1.5,2.9-1.3,3.6s13.1,0.9,13.7,0.5c0.7-0.5-0.9-3.8-0.9-3.8"/>
	<path class="st7" d="M29.7,95.2c-0.6-0.2,2.7-4.7,3.4-5.2c0.7-0.4,13.7-1.1,14.4-0.9c0.7,0.2,1.4,5.9,0.5,6.1S30.3,95.5,29.7,95.2z
		"/>
	<path class="st7" d="M60.3,89.4c0.5-0.5,13.7-0.5,14.4,0s3.6,6.3,3.2,6.1c-0.4-0.2-16,0.7-16.9,0C60.1,94.8,59.9,89.8,60.3,89.4z"
		/>
	<path class="st7" d="M30.5,95.3c0,0,0.5,14.6,1.2,14.8c0.7,0.2,9,0.7,9.9,0.5c0.9-0.2,10.6-0.2,11.9,0c1.4,0.2,11.9-0.2,13.1-0.5
		c1.1-0.2,9.9,0.2,10.4-0.2c0.5-0.5,0-7,0.2-8.1s-0.5-6.1-0.5-6.1"/>
	<path class="st7" d="M48.4,100c0,0-0.5-11,6.3-11c6.3,0,6.3,9.9,6.3,9.9"/>
	<path class="st7" d="M48.8,42.7c0,0-0.8-1.2-0.9-1.7c-0.1-0.5-0.1-2,0-2.3c0.2-0.7,5.4-0.5,6.1-0.5c0.7,0,6.7,0,7.2,0.5
		c0.2,0.2,0.2,1.3,0.1,2.2c0,0.5-1.2,1.8-1.2,1.8"/>
	<path class="st7" d="M48.4,86.1v24.3"/>
	<path class="st7" d="M60.1,86.4c0,0-0.2,7.9,0.9,9.1v6.8c0,0.9,0.4,8.2,0.4,8.2"/>
	<path class="st7" d="M54.2,24.3c0,0-0.2-2.5-0.2-2.7"/>
	<path class="st7" d="M52.5,29.1c0,0,0.2,6,0,6.2"/>
	<path class="st7" d="M55.8,29c0,0-0.2,6.1,0,6.3"/>
	<path class="st7" d="M53.3,94.1c0.1-0.3,1.4-0.5,1.4-0.2s0.5,3.4,0.2,3.8s-0.9,0-1.1,0S53.1,94.6,53.3,94.1z"/>
	<path class="st7" d="M53.8,102.9c0.2,0,1.1-0.2,1.4,0s0.5,4.1,0.2,4.1s-1.6,0-1.6-0.2S53.5,102.9,53.8,102.9z"/>
	<path class="st7" d="M34.6,101.8c-0.2-0.2,0-4.3,1.1-4.3c1.4,0,1.5,3.8,1.4,4.1C36.9,102,34.8,102,34.6,101.8z"/>
	<path class="st7" d="M42.2,97.5c1.1,0,1.6,4.3,1.4,4.4c-0.1,0.1-2.2,0.4-2.4,0C41.2,101.5,41,97.5,42.2,97.5z"/>
	<path class="st7" d="M35.8,103.8c1.3,0,1.5,3.8,1.4,4s-2.3,0.3-2.5,0.1S34.3,103.8,35.8,103.8z"/>
	<path class="st7" d="M42.8,103.8c0.8,0,1.5,3.8,1.3,3.9c-0.2,0.2-2.1,0.3-2.2,0C41.8,107.4,41.6,103.8,42.8,103.8z"/>
	<path class="st7" d="M64.9,101.8c-0.2-0.2,0-4.3,1.1-4.3c1.4,0,1.5,3.8,1.4,4.1C67.2,102,65.1,102,64.9,101.8z"/>
	<path class="st7" d="M72.5,97.5c1.1,0,1.6,4.3,1.4,4.4s-2.2,0.4-2.4,0C71.5,101.5,71.3,97.5,72.5,97.5z"/>
	<path class="st7" d="M66.1,103.8c1.3,0,1.5,3.8,1.4,4c-0.1,0.3-2.3,0.3-2.5,0.1C64.8,107.8,64.6,103.9,66.1,103.8z"/>
	<path class="st7" d="M73,103.8c0.8,0,1.5,3.8,1.3,3.9c-0.2,0.2-2.1,0.3-2.2,0S71.9,103.8,73,103.8z"/>
	<path class="st7" d="M50.2,29.2c0,0,0-5,3.8-5s4.7,4.7,4.7,4.7"/>
	<path class="st7" d="M50.2,38.2l0.1-2.4c0,0-0.3-5.8-0.1-6.3s8.3-0.7,8.6-0.5s0.6,6.3,0.5,6.4v3"/>
	<path class="st7" d="M50.1,35.3c0,0,7.2-0.2,9.2,0.1"/>
	<path class="st7" d="M47.9,38.7c0,0-0.1-1.6,0-1.8s13.2-0.1,13.6,0.1c0.4,0.3-0.4,1.6-0.4,1.6"/>
	<path class="st7" d="M53.7,64.5c0,0-0.1-2.9,0.6-2.7c0.7,0.2,0.5,2.7,0.5,2.7H53.7z"/>
</g>
</svg>
