<svg xmlns="http://www.w3.org/2000/svg" width="300.682" height="423.818" viewBox="0 0 300.682 423.818">
  <g id="SLIDER" transform="translate(2597.152 -3296.182)">
    <g id="_4_KOŁO" data-name="4 KOŁO" transform="translate(-2597.135 3296.517)">
      <g id="Group_108" data-name="Group 108" transform="translate(-0.017 -0.335)">
        <path id="Path_892" data-name="Path 892" d="M300.651,423.483,300.665-.335H-.017L0,423.483Z" transform="translate(0.017 0.335)" fill="#fcf8f7"/>
      </g>
      <path id="Path_893" data-name="Path 893" d="M-.008,200.717s35.98,5.858,38.908,0,2.2-42.239,11.717-43.086,180.863-8.659,186.721-7.316S252.715,203,258.573,203.322s41.206,3.253,41.206,3.253l.865,94.05H-.008Z" transform="translate(0.007 122.857)" fill="#e9ccbd"/>
      <text id="KOŁOBRZEG" transform="translate(147.307 365.365)" fill="#2e3c4b" font-size="18" font-family="SulphurPoint-Bold, Sulphur Point" font-weight="700" letter-spacing="0.025em"><tspan x="-46.926" y="0">KOŁOBRZEG</tspan></text>
      <g id="kolobrzeg_kolor" data-name="kolobrzeg kolor" transform="translate(90.943 53.146)">
        <path id="Path_894" data-name="Path 894" d="M74.648,35.374c.681-.97,5.918-1.251,6.484-.361s.41,17.31-.436,17.5a21.072,21.072,0,0,1-6.145.472C73.665,52.745,73.952,36.366,74.648,35.374Z" transform="translate(-30.521 -24.729)" fill="#f1ece9"/>
        <path id="Path_895" data-name="Path 895" d="M90.6,53a17.543,17.543,0,0,1-5.436-.093c-1.066-.352-1.568-18.06-.856-18.269a17.871,17.871,0,0,1,5.794-.18C91.159,34.7,91.686,52.285,90.6,53Z" transform="translate(-22.377 -24.871)" fill="#f1ece9"/>
        <path id="Path_896" data-name="Path 896" d="M77.555,41.42c1.344-.843,14.929-.732,15.074-.44s.845,5.889-.183,6.366-14.854.683-15.733.282S77.555,41.42,77.555,41.42Z" transform="translate(-28.509 -19.594)" fill="#f1ece9"/>
        <path id="Path_897" data-name="Path 897" d="M56.458,131.085c3.567-8.762,109-.783,110.485,1.954s4.08,44.886,1.854,46.884-116.046-.737-118.271-3.475S54.707,135.386,56.458,131.085Z" transform="translate(-50.062 50.876)" fill="#b98255"/>
        <path id="Path_898" data-name="Path 898" d="M132.2,177.131c2.4-.874-5.362-113.829-7.351-117.3s-51.608,2.516-54.474,3.736c-1.282.547-7.749,108.472-5.9,112.02,0,0,10.25.316,12.006.316,1.1,0,.725-3.329,3.18-4.15a5.61,5.61,0,0,1,4.012-.053c5.086,1.526,3.564,4.5,4.881,4.276s7.433.44,8.657,0,.785-4.39,4.3-4.39,3.952,4.17,5.269,4.17,8.123.659,9,.22,3.073-4.83,5.487-4.61,4.194,3.733,5.28,3.952S130.842,177.625,132.2,177.131Z" transform="translate(-38.562 -4.902)" fill="#b98255"/>
        <path id="Path_899" data-name="Path 899" d="M87.637,29.134c1.442.545,12.961,6.913,12.558,8.508s-24.837,2.325-25.947,1S86.177,28.582,87.637,29.134Z" transform="translate(-30.371 -29.109)" fill="#2e3c4b"/>
        <path id="Path_900" data-name="Path 900" d="M70.667,45.572c.641-.463,36.441-1.079,36.681-.539A4.272,4.272,0,0,1,106.9,47.8c-.354.278-36.153-.441-36.234-.685A9.771,9.771,0,0,1,70.667,45.572Z" transform="translate(-33.269 -16.282)" fill="#ae4426"/>
        <path id="Path_901" data-name="Path 901" d="M80.151,92.111c-.445-.737-.392-14.444,2.685-14.151s2.8,13.661,2.349,14.266C84.755,92.8,80.514,92.712,80.151,92.111Z" transform="translate(-25.663 10.766)" fill="#fff"/>
        <path id="Path_902" data-name="Path 902" d="M81.007,107.689c-.483-.817-.754-16.218,2.477-15.966s3.259,15.274,2.8,15.966C85.851,108.343,81.4,108.354,81.007,107.689Z" transform="translate(-25.037 22.003)" fill="#fff"/>
        <path id="Path_903" data-name="Path 903" d="M80.259,122.587c-.608-.912-.948-18.073,3.119-17.793s4.1,17.023,3.526,17.793C86.356,123.318,80.756,123.329,80.259,122.587Z" transform="translate(-25.709 32.674)" fill="#fff"/>
      </g>
      <g id="kołobrzeg-2" data-name="kołobrzeg" transform="translate(84.129 52.343)">
        <path id="Path_904" data-name="Path 904" d="M163.061,132.01c1.885,3.019,12.691,45.65,11.147,45.65H108.476c-7.714,0-58.634,4.08-61.1,0-3.851-6.361,3.707-43.878,7.467-47.072.886-.754,5.213-1.039,5.83-1.206s.741-5.356,1.854-4.986,3.584-.9,4.078-.02,1.475,4.733,1.969,4.53,7.193-.071,7.719-.919.074-3.649.941-3.929,3.793-.543,4.448,0c.627.518,1.173,3.818,1.1,4.356,0,0,10.019-.051,10.39-.427s.741-4.317,1.112-4.263,3.831-.069,4.327.549-.866,3.6,0,3.714,12.231,1.824,12.974,1.032a16.656,16.656,0,0,0,1.869-4.252c-.015-.123,2.828-.123,3.2.247s.5,1.911.5,2.973,10.371,1.829,11,1.395,1.068-3.627,1.213-4.121,3.854-.741,4.225-.247.614,2.979.863,3.776,11.125,1.791,11.743,1.046,1.237-3.215,1.731-3.711a2.911,2.911,0,0,1,2.843,0c.494.5.124,3.589.741,3.711S162.285,130.77,163.061,132.01Z" transform="translate(-46.31 48.933)" fill="none" stroke="#2e3c4b" stroke-miterlimit="10" stroke-width="0.9"/>
        <path id="Path_905" data-name="Path 905" d="M96.683,59.221c.926,1.8,7.7,118.944,6.461,123.272" transform="translate(-5.188 -3.724)" fill="none" stroke="#2e3c4b" stroke-miterlimit="10" stroke-width="0.9"/>
        <path id="Path_906" data-name="Path 906" d="M61.126,181.055c-.823-4.7,5.267-118.05,6.308-121.535" transform="translate(-34.277 -3.48)" fill="none" stroke="#2e3c4b" stroke-miterlimit="10" stroke-width="0.9"/>
        <path id="Path_907" data-name="Path 907" d="M80.548,121.555c-.463-.8-.719-15.942,2.367-15.7s3.111,15.016,2.674,15.7C85.174,122.2,80.926,122.209,80.548,121.555Z" transform="translate(-18.587 34.348)" fill="none" stroke="#2e3c4b" stroke-miterlimit="10" stroke-width="0.9"/>
        <path id="Path_908" data-name="Path 908" d="M80.548,107.494c-.463-.8-.719-15.942,2.367-15.7s3.111,15.016,2.674,15.7C85.174,108.139,80.926,108.15,80.548,107.494Z" transform="translate(-18.587 22.869)" fill="none" stroke="#2e3c4b" stroke-miterlimit="10" stroke-width="0.9"/>
        <path id="Path_909" data-name="Path 909" d="M80.224,92.812c-.463-.8-.721-15.942,2.365-15.7s3.113,15.016,2.675,15.7C84.851,93.457,80.6,93.466,80.224,92.812Z" transform="translate(-18.852 10.883)" fill="none" stroke="#2e3c4b" stroke-miterlimit="10" stroke-width="0.9"/>
        <path id="Path_910" data-name="Path 910" d="M64.071,66.731c-.033.078,1.112-3.493,3.6-3.168s2.855,8.991,2.855,8.991,0-9.734,3.317-9.549,3.395,8.713,3.395,8.713S77.006,63.372,81.018,63s2.7,8.53,2.7,8.53.232-8.462,4.012-8.54,3.549,7.892,3.549,7.892.076-7.536,3.086-7.892,3.395,7.521,3.395,7.521-.7-7.652,2.468-7.534,3.549,7.719,3.549,7.719-.7-7.749,3.24-7.721,3.625,6.98,3.625,6.98.154-7.007,4.628-6.98,3.01,7.165,3.01,7.165,1.544-7.193,3.7-7.165,2.554,7.509,2.554,7.509" transform="translate(-31.812 -0.657)" fill="none" stroke="#2e3c4b" stroke-miterlimit="10" stroke-width="0.9"/>
        <path id="Path_911" data-name="Path 911" d="M64.565,64.288c.007-.99.02-10.422,1.41-11.163s19.068-2.163,27.316-2.071,27.151,1.188,28.488,2.5c.676.665.9,7.62.685,8.853" transform="translate(-31.408 -10.395)" fill="none" stroke="#2e3c4b" stroke-miterlimit="10" stroke-width="0.9"/>
        <path id="Path_912" data-name="Path 912" d="M74.523,53.308c-.489-.69-.481-17.137.147-18.311,1.053-.371,21.914-.765,23.66-.549.665,1.184,1.053,17.629.267,18.48" transform="translate(-23.562 -23.997)" fill="none" stroke="#2e3c4b" stroke-miterlimit="10" stroke-width="0.9"/>
        <path id="Path_913" data-name="Path 913" d="M99.76,39.345s2.485.34,2.817-.167S90.064,28.6,87.667,28.667s-15.452,10.38-14.84,10.882c.414.34,2.984.205,2.984.205" transform="translate(-24.68 -28.667)" fill="none" stroke="#2e3c4b" stroke-miterlimit="10" stroke-width="0.9"/>
        <path id="Path_914" data-name="Path 914" d="M72.309,67.806s-.365-16.957-.138-21.818" transform="translate(-25.259 -14.527)" fill="none" stroke="#2e3c4b" stroke-miterlimit="10" stroke-width="0.9"/>
        <path id="Path_915" data-name="Path 915" d="M79.046,45.88s-1.34,18.786-1.29,21.687" transform="translate(-20.64 -14.615)" fill="none" stroke="#2e3c4b" stroke-miterlimit="10" stroke-width="0.9"/>
        <path id="Path_916" data-name="Path 916" d="M83.352,45.988s1.56,19.488,1.459,21.4" transform="translate(-16.071 -14.527)" fill="none" stroke="#2e3c4b" stroke-miterlimit="10" stroke-width="0.9"/>
        <path id="Path_917" data-name="Path 917" d="M90.149,46.083s.438,13.327.016,20.706" transform="translate(-10.523 -14.449)" fill="none" stroke="#2e3c4b" stroke-miterlimit="10" stroke-width="0.9"/>
        <path id="Path_918" data-name="Path 918" d="M65.837,61.356s-1.967.445-2.2,0-.541-1.829,0-2.018,29.007-1.32,31.746-1.259,29.826-.908,30.6-.783-.007,3.616-.47,3.742-27.7-.65-30.551-.608S65.837,61.356,65.837,61.356Z" transform="translate(-32.409 -5.305)" fill="none" stroke="#2e3c4b" stroke-miterlimit="10" stroke-width="0.9"/>
        <path id="Path_919" data-name="Path 919" d="M71.451,47.34s-1.4,0-1.544-.443-.2-1.386.147-1.575,18.543-.559,20.283-.5,18.547-.385,19.037-.26.294,2.33,0,2.456-17.406.125-19.221.167S71.451,47.34,71.451,47.34Z" transform="translate(-27.138 -15.706)" fill="none" stroke="#2e3c4b" stroke-miterlimit="10" stroke-width="0.9"/>
        <path id="Path_920" data-name="Path 920" d="M70.744,48.3s-1.459-6.759-.89-7.191,38.232-.427,38.746.314.256,6.163.256,6.163" transform="translate(-27.198 -18.747)" fill="none" stroke="#2e3c4b" stroke-miterlimit="10" stroke-width="0.9"/>
        <path id="Path_921" data-name="Path 921" d="M78.406,34.52c-.363,0-.656,18.55-.656,18.55" transform="translate(-20.644 -23.889)" fill="none" stroke="#2e3c4b" stroke-miterlimit="10" stroke-width="0.9"/>
        <line id="Line_437" data-name="Line 437" x2="0.639" y2="18.404" transform="translate(66.641 10.434)" fill="none" stroke="#2e3c4b" stroke-miterlimit="10" stroke-width="0.9"/>
        <line id="Line_438" data-name="Line 438" y1="2.827" x2="8.196" transform="translate(98.961 29.554)" fill="none" stroke="#2e3c4b" stroke-miterlimit="10" stroke-width="0.9"/>
        <line id="Line_439" data-name="Line 439" x2="9.586" transform="translate(104.303 38.692)" fill="none" stroke="#2e3c4b" stroke-miterlimit="10" stroke-width="0.9"/>
        <line id="Line_440" data-name="Line 440" x2="6.586" y2="1.976" transform="translate(102.034 47.839)" fill="none" stroke="#2e3c4b" stroke-miterlimit="10" stroke-width="0.9"/>
        <line id="Line_441" data-name="Line 441" x1="9.66" y1="3.912" transform="translate(16.635 26.325)" fill="none" stroke="#2e3c4b" stroke-miterlimit="10" stroke-width="0.9"/>
        <line id="Line_442" data-name="Line 442" x1="8.196" transform="translate(12.977 39.716)" fill="none" stroke="#2e3c4b" stroke-miterlimit="10" stroke-width="0.9"/>
        <line id="Line_443" data-name="Line 443" x1="4.548" y2="2.541" transform="translate(19.185 47.274)" fill="none" stroke="#2e3c4b" stroke-miterlimit="10" stroke-width="0.9"/>
      </g>
    </g>
  </g>
</svg>
