<svg xmlns="http://www.w3.org/2000/svg" width="352.009" height="496.068" viewBox="0 0 352.009 496.068">
  <g id="_5" data-name="5" transform="translate(10789.009 -13343)">
    <rect id="Rectangle_275" data-name="Rectangle 275" width="352" height="496" transform="translate(-10789 13343)" fill="#fff"/>
    <g id="gąski" transform="translate(-12822.499 13009.997)">
      <path id="Path_2355" data-name="Path 2355" d="M2385.5,809.411H2033.491V589.273c3.488-3.377,4.491-10.441,8.052-12.481s5.141-3.14,9.24-3.323,8.652-1.1,10.993-4.474c3.124-4.5,1.735-12.422,6.9-14.244,3.737-1.319,7.291,2.095,10.969,3.569,6.565,2.634,13.75-1.051,20.646-2.629s16.54,1.336,16.25,8.405c-.173,4.219-4.109,7.781-3.64,11.978.446,4.006,4.768,6.477,8.772,6.947s8.09-.371,12.074.244c5.775.892,10.6,4.69,15.858,7.25s12.191,3.651,16.462-.338c1.889-1.763,2.93-4.253,4.653-6.178,4.279-4.783,11.646-5.07,17.984-4.067s12.836,2.929,19.043,1.3,11.518-8.8,8.39-14.4l33.354-1.475c5.007-.221,11.586-1.962,11.612-6.973.009-1.833-.992-3.562-.956-5.394.077-3.845,4.424-6.067,8.214-6.727s8.093-.83,10.683-3.672c1.379-1.513,2.008-3.542,2.971-5.349a15.591,15.591,0,0,1,29.29,5.97c.333,3.813-.712,7.843.756,11.378,3.591,8.654,17.2,6.208,24.284,12.344,5.323,4.614,5.742,13.089,10.883,17.906,5.115,4.791,8.819,6.333,15.731,7.489,6.565,1.1,9.753,7.286,10.5,12.351s-5.815,11.548-3.939,16.465,15.978,5.423,15.978,5.423Z" transform="translate(0 19.66)" fill="#e6c2b0"/>
      <g id="Group_451" data-name="Group 451" transform="translate(2178.329 753.225)">
        <path id="Path_2356" data-name="Path 2356" d="M2166.327,715.413a6.9,6.9,0,0,1-3.3.83,6.835,6.835,0,0,1-2.088-.319,6.675,6.675,0,0,1-2.4-1.277,7.119,7.119,0,0,1-1.767-2.171,6.639,6.639,0,0,1-.81-3.257,6.2,6.2,0,0,1,.044-.851,7.264,7.264,0,0,1,.605-2.225,6.743,6.743,0,0,1,1.247-1.863,7.352,7.352,0,0,1,1.755-1.362,6.974,6.974,0,0,1,2.118-.766,6.8,6.8,0,0,1,4.683.766,8.638,8.638,0,0,1,2.151,1.809l-1.469,1.235a6.394,6.394,0,0,0-2.193-1.639,5.45,5.45,0,0,0-1.939-.362,5.009,5.009,0,0,0-4.554,2.9,4.852,4.852,0,0,0-.553,2.278,5.014,5.014,0,0,0,.191,1.363,4.8,4.8,0,0,0,1.831,2.746,5.131,5.131,0,0,0,5.248.607,5.534,5.534,0,0,0,1.756-1.288v-1.426h-1.958v-1.916h3.852v4.045a6.616,6.616,0,0,1-1.468,1.533A7.533,7.533,0,0,1,2166.327,715.413Z" transform="translate(-2155.958 -701.959)" fill="#212e3b"/>
        <path id="Path_2357" data-name="Path 2357" d="M2181.957,719.65a2.105,2.105,0,0,1-1.533.83h-.17a2.985,2.985,0,0,1-.49-.043,1.709,1.709,0,0,1-.682-.341,2.161,2.161,0,0,1-.511-.575,2.016,2.016,0,0,1-.319-1.086,2.588,2.588,0,0,1,.043-.4,1.931,1.931,0,0,1,1.235-1.533l.021-.341h-.745l-1.746-4.981h-4.428l-1.746,4.981h-2.022l4.917-14.135h2.129l4.917,14.135h-.042l-.021,1.511a2.529,2.529,0,0,0-.383-.021,1.011,1.011,0,0,0-.543.138.753.753,0,0,0-.309.5.647.647,0,0,0-.021.192.635.635,0,0,0,.2.5.723.723,0,0,0,.5.181,1.049,1.049,0,0,0,.809-.383Zm-5.514-10.261-1.6-4.62-1.618,4.62Z" transform="translate(-2153.6 -701.959)" fill="#212e3b"/>
        <path id="Path_2358" data-name="Path 2358" d="M2188.194,705.013a2.328,2.328,0,0,0-.947-.841,3.374,3.374,0,0,0-1.437-.266,2.7,2.7,0,0,0-2.024.617,2.166,2.166,0,0,0-.552,1.6,2.327,2.327,0,0,0,.17.969,1.45,1.45,0,0,0,.511.607,3.561,3.561,0,0,0,1.682.468,11.756,11.756,0,0,1,2.012.33,5.411,5.411,0,0,1,1.437.607,3.362,3.362,0,0,1,1.554,3.065,3.752,3.752,0,0,1-.319,1.533,4.141,4.141,0,0,1-2.5,2.278,5.856,5.856,0,0,1-1.925.319,4.581,4.581,0,0,1-4.981-4.343l.042-.021h1.873a2.779,2.779,0,0,0,.766,1.682,3.167,3.167,0,0,0,2.235.766,3.361,3.361,0,0,0,2.129-.617,1.938,1.938,0,0,0,.788-1.6,2.355,2.355,0,0,0-.117-.777,1.312,1.312,0,0,0-.436-.585,5.393,5.393,0,0,0-2.7-.7,4.887,4.887,0,0,1-3.066-1.171,3.71,3.71,0,0,1-1.043-2.81,4,4,0,0,1,1.128-2.959,5.161,5.161,0,0,1,6.77.149,5.345,5.345,0,0,1,1.32,3.065h-1.916A3.319,3.319,0,0,0,2188.194,705.013Z" transform="translate(-2151.407 -701.969)" fill="#212e3b"/>
        <path id="Path_2359" data-name="Path 2359" d="M2197.616,716.158l-4.577-5.216v5.216h-1.873V702.023h1.873v5.386l4.492-5.386H2200l-5.982,7.174,6.131,6.961Z" transform="translate(-2149.527 -701.959)" fill="#212e3b"/>
        <path id="Path_2360" data-name="Path 2360" d="M2200.833,716.162V702.005h1.787v14.157Z" transform="translate(-2147.761 -701.962)" fill="#212e3b"/>
      </g>
      <g id="gąski_kolor" data-name="gąski kolor" transform="translate(2174.393 422.845)">
        <path id="Path_2361" data-name="Path 2361" d="M2159.195,617.32c.9-1.406,60.976-1.071,62.62,0s3.6,43.834,1.286,44.748-62.373,3.6-63.906,0S2158.073,619.065,2159.195,617.32Z" transform="translate(-2151.613 -387.223)" fill="#ad6e42"/>
        <path id="Path_2362" data-name="Path 2362" d="M2176.832,657.179s-.593-10.25,3.357-10.053,3.95,10.088,3.95,10.088Z" transform="translate(-2148.214 -381.608)" fill="#212e3b"/>
        <path id="Path_2363" data-name="Path 2363" d="M2165.3,629.137c2.79,2.4,48.542,1.719,50.5,1.245s-6.545-170.593-7.436-172.775,3.106-4.268,2.522-5.735-35.663-3.122-38.917-1.561S2161.186,625.591,2165.3,629.137Z" transform="translate(-2150.533 -417.675)" fill="#ad6e42"/>
        <path id="Path_2364" data-name="Path 2364" d="M2153.329,609.378c1.54-1.515,66.979-1.593,68.541,0s1.964,5.884.538,7.385-68.536.9-69.079.137S2152.071,610.616,2153.329,609.378Z" transform="translate(-2152.629 -388.716)" fill="#ad6e42"/>
        <path id="Path_2365" data-name="Path 2365" d="M2172.663,442.738c0-1.993,24.123-.6,23.979.3S2172.664,443.357,2172.663,442.738Z" transform="translate(-2148.97 -419.13)" fill="#9f311b"/>
        <path id="Path_2366" data-name="Path 2366" d="M2178.765,590.67c-.375-.5-.613-9.473,1.261-9.694s2.8,8.676,2.458,9.51C2182.237,591.076,2179.011,590.994,2178.765,590.67Z" transform="translate(-2147.902 -393.692)" fill="#fff"/>
        <path id="Path_2367" data-name="Path 2367" d="M2195.329,573.437c-.376-.5-.613-9.473,1.26-9.694s2.8,8.676,2.456,9.51C2198.8,573.843,2195.575,573.762,2195.329,573.437Z" transform="translate(-2144.877 -396.84)" fill="#fff"/>
        <path id="Path_2368" data-name="Path 2368" d="M2170.6,498.225c-.375-.416-.613-7.957,1.26-8.143s2.8,7.288,2.456,7.988C2174.069,498.566,2170.844,498.5,2170.6,498.225Z" transform="translate(-2149.394 -410.296)" fill="#fff"/>
        <path id="Path_2369" data-name="Path 2369" d="M2180.3,478.057c-.376-.416-.612-7.957,1.261-8.143s2.8,7.288,2.456,7.988C2183.774,478.4,2180.549,478.33,2180.3,478.057Z" transform="translate(-2147.621 -413.98)" fill="#fff"/>
        <g id="Group_452" data-name="Group 452" transform="translate(29.788 235.622)">
          <path id="Path_2370" data-name="Path 2370" d="M2180.721,621.855c1.459.241,3.2.969,3.054,4.078s-1.933,3.16-3.054,3.057-2.9-2.013-2.9-3.554S2179.8,621.7,2180.721,621.855Z" transform="translate(-2177.816 -621.848)" fill="#fff"/>
          <line id="Line_1032" data-name="Line 1032" x1="0.393" y2="7.058" transform="translate(2.905 0.085)" fill="#fff"/>
        </g>
        <path id="Path_2371" data-name="Path 2371" d="M2183.6,422.62c4.431-.111,9.844,7.05,9.652,8.862-5.336.106-17.937-.633-17.937-.633S2175.877,422.813,2183.6,422.62Z" transform="translate(-2148.485 -422.619)" fill="#e29038"/>
      </g>
      <g id="gąski-2" data-name="gąski" transform="translate(2171.644 421.379)">
        <path id="Path_2372" data-name="Path 2372" d="M2183.805,663.93c-10.776,0-28.883-.065-29.652-.5-.22-.125-.389-.35-.571-2.1-.8-7.692-1.141-43.863.5-45.327h0c.273-.242,1-.886,16.534-1.1,15.382-.218,47.663.156,48.765,1.1,1.594,1.368,2.153,42.492,1.535,46.517-.079.517-.173.818-.44.933-1.012.434-31.831.48-33.142.481C2186.3,663.93,2185.1,663.93,2183.805,663.93Zm-29.2-1.183c2.82.565,61.667.558,65.463-.021.94-2.921-.129-43.549-1.222-46.112-1.975-.59-28.733-1.192-48.219-.919-13.649.19-15.7.723-16.005.9C2153.437,618.539,2153.434,659.892,2154.609,662.747Z" transform="translate(-2149.828 -386.04)" fill="#212e3b"/>
        <path id="Path_2373" data-name="Path 2373" d="M2167.577,663.45c-.344-4.692-.014-46.453,0-48.229l.8.007c0,.434-.344,43.5,0,48.163Z" transform="translate(-2147.178 -385.969)" fill="#212e3b"/>
        <rect id="Rectangle_344" data-name="Rectangle 344" width="0.799" height="48.117" transform="translate(50.39 229.374)" fill="#212e3b"/>
        <path id="Path_2374" data-name="Path 2374" d="M2219.922,617.775l-.686-.409c.995-1.665,3.405-6.341,2.637-7.958-1.834-1.352-42.776-.63-70.227.209l3.523,7.789-.728.329-4.016-8.88.6-.018c.177-.006,17.749-.545,35.22-.812,35.6-.549,36.108.524,36.352,1.04C2223.683,611.357,2220.31,617.125,2219.922,617.775Z" transform="translate(-2150.283 -387.312)" fill="#212e3b"/>
        <path id="Path_2375" data-name="Path 2375" d="M2154.76,618.607l-.365-3.689c0-.031-.335-3.134-2.479-3.181l.018-.8a3.155,3.155,0,0,1,2.785,2.128c.281-1.118.775-2.364,1.591-2.6a1,1,0,0,1,.821.127c.716.443,1.227,1.849,1.522,2.921.556-1.282,1.555-3.063,2.823-3.063,1.284,0,2.071,1.65,2.468,2.841.553-1.173,1.607-2.843,3.116-2.843l.085,0c1.5.063,2.108,1.691,2.356,2.953.654-1.267,1.776-2.954,3.112-2.954h0c1.355,0,2.034,1.645,2.358,2.928.572-1.264,1.624-2.928,3.21-2.928h0c1.549,0,2.273,1.532,2.609,2.789.555-1.271,1.612-2.842,3.488-2.789a2.436,2.436,0,0,1,1.884.859,3.163,3.163,0,0,1,.622,1.364,3.616,3.616,0,0,1,2.962-2.223h0c1.027,0,1.59,1.176,1.886,2.236a3.065,3.065,0,0,1,2.757-2.236c1.4.056,2.121,1.313,2.491,2.471.385-1.182,1.1-2.472,2.374-2.472h0c1.449,0,2.525,1.687,3.128,2.957.321-1.286,1.073-2.957,2.825-2.957h0c.944,0,1.747,1.517,2.261,2.811a4.475,4.475,0,0,1,1.256-2.24,2.54,2.54,0,0,1,2.009-.588,3.67,3.67,0,0,1,2.847,2.778c.436-1.254,1.267-2.78,2.72-2.78,1.479,0,2.071,1.792,2.3,3.108a4.421,4.421,0,0,1,3.193-2.365l.044.8c-1.909.105-3.1,3.028-3.114,3.057l-.689,1.717-.081-1.849c-.041-.951-.435-3.667-1.658-3.667-1.443,0-2.185,2.68-2.349,3.712l-.475,3-.315-3.021c0-.034-.385-3.453-2.518-3.693a1.727,1.727,0,0,0-1.4.4c-1.128.964-1.241,3.248-1.242,3.27l-.1,2.378-.677-2.281c-.526-1.772-1.483-3.746-2.015-3.747h0c-2.033,0-2.255,3.618-2.258,3.654l-.116,2.1-.661-2c-.345-1.044-1.543-3.755-2.921-3.759h0c-1.317,0-1.89,2.653-2,3.675l-.795-.015c0-.037-.291-3.586-2.1-3.657-1.847-.092-2.412,3.148-2.417,3.181l-.5,2.958-.294-2.985c-.1-1.028-.577-3.153-1.4-3.154h0c-1.982,0-2.9,3.356-2.9,3.39l-.781-.162a3.962,3.962,0,0,0-.514-2.657,1.646,1.646,0,0,0-1.294-.569h-.07c-2.325,0-3.117,3.675-3.126,3.711l-.6,2.873-.19-2.927c0-.038-.289-3.654-2.086-3.656h0c-1.575,0-2.668,2.7-2.957,3.736l-.56,2.014-.223-2.079c-.1-.952-.655-3.67-1.828-3.671h0c-1.109,0-2.409,2.313-2.967,3.772l-.726,1.891-.047-2.025c0-.036-.128-3.569-1.759-3.637h-.051c-1.408,0-2.5,2.452-2.809,3.407l-.46,1.439-.31-1.478c-.183-.874-.947-3.367-2.008-3.367-.921,0-2.035,2.193-2.533,3.749l-.481,1.509-.291-1.556c-.227-1.215-.824-3.287-1.46-3.68a.2.2,0,0,0-.18-.037c-.643.183-1.18,2.31-1.341,3.69Z" transform="translate(-2150.011 -386.848)" fill="#212e3b"/>
        <path id="Path_2376" data-name="Path 2376" d="M2150.663,610.1c-.173-1.267-.336-6.06-.343-6.263l-.016-.423.425.011c.178,0,18.117.477,35.833,1.089,36.2,1.251,36.236,1.791,36.273,2.362a21.11,21.11,0,0,1-.183,3.224l-.792-.1a22.456,22.456,0,0,0,.189-2.849c-3.213-.851-43.683-2.2-70.917-2.912.045,1.225.184,4.746.32,5.76Z" transform="translate(-2150.305 -388.126)" fill="#212e3b"/>
        <path id="Path_2377" data-name="Path 2377" d="M2206.11,632.637c-2.734-58.779-8.33-170.736-9.945-173.753l.222-.118.291-.47c.466.287,1.432.888,5.96,87.777,2.234,42.846,4.248,86.095,4.268,86.527Z" transform="translate(-2141.927 -414.635)" fill="#212e3b"/>
        <path id="Path_2378" data-name="Path 2378" d="M2159.615,630.81l-.8-.039c.861-17.351,8.468-169.589,10.237-172.37l.674.428C2168.341,461.731,2162.506,572.595,2159.615,630.81Z" transform="translate(-2148.75 -414.616)" fill="#212e3b"/>
        <path id="Path_2379" data-name="Path 2379" d="M2180.043,591.478a4.535,4.535,0,0,1-2.392-.4c-.61-.673-.656-6.894.318-9.426.376-.978.9-1.507,1.551-1.571a1.762,1.762,0,0,1,1.6.961c1.549,2.25,2.408,8.812,1.941,9.749-.154.307-.551.485-1.329.592A14.284,14.284,0,0,1,2180.043,591.478Zm-1.8-.951c.654.234,3.728.216,4.125-.128.256-.665-.447-6.949-1.984-9-.277-.37-.551-.543-.789-.518s-.468.229-.677.611C2177.745,583.635,2177.967,589.681,2178.246,590.528Z" transform="translate(-2145.39 -392.388)" fill="#212e3b"/>
        <path id="Path_2380" data-name="Path 2380" d="M2196.976,573.664a4.524,4.524,0,0,1-2.389-.4h0c-.562-.617-.319-6.336.749-9.109.458-1.185,1.05-1.821,1.764-1.892a1.552,1.552,0,0,1,1.45.829c1.535,2.228,1.9,8.967,1.443,9.886-.154.307-.55.485-1.326.591A14.121,14.121,0,0,1,2196.976,573.664Zm-1.786-.947c.666.232,3.723.211,4.117-.131.266-.628-.031-7.128-1.447-9.082-.345-.477-.6-.448-.681-.441-.325.032-.6.395-.774.694C2195.093,566.018,2194.969,571.864,2195.19,572.717Z" transform="translate(-2142.27 -395.644)" fill="#212e3b"/>
        <path id="Path_2381" data-name="Path 2381" d="M2173.005,498.547a6.976,6.976,0,0,1-2.629-.382h0c-.833-.478-.11-5.582.576-7.445.452-1.23,1.025-1.791,1.706-1.662.621.116,1.154.769,1.63,1.994.848,2.18,1.5,6.435,1.069,7.006C2175.1,498.406,2174.071,498.547,2173.005,498.547Zm-2.152-1.035a8.989,8.989,0,0,0,3.84.064c.1-.784-.451-5.305-1.591-7.156-.284-.458-.493-.557-.594-.577s-.249.112-.34.226C2171.1,491.432,2170.607,496.641,2170.853,497.513Z" transform="translate(-2146.707 -409.019)" fill="#212e3b"/>
        <path id="Path_2382" data-name="Path 2382" d="M2181.626,478.24c-.212,0-.42-.008-.617-.025a2.412,2.412,0,0,1-1.794-.687c-.589-.824-.364-5.727.76-7.911.447-.87,1.014-1.312,1.684-1.312.452,0,.841.474,1.3,1.585.762,1.837,2.117,6.9,1.324,7.687A4.316,4.316,0,0,1,2181.626,478.24Zm-.01-9.134c-.3.021-.588.267-.855.734-1.152,2.01-1.215,6.682-.894,7.227.07.1.4.285,1.209.351a4.693,4.693,0,0,0,2.645-.406C2184.129,476.16,2182.419,469.661,2181.617,469.107Z" transform="translate(-2145.082 -412.807)" fill="#212e3b"/>
        <path id="Path_2383" data-name="Path 2383" d="M2167.988,460.015c-1.426-2.285-3.749-6.259-3.271-7.194.116-.229.356-.318,1.116-.413,3.807-.473,37.872-1,39.034.331.973,1.112-1.28,5.447-2.294,7.259l-.7-.389c1.651-2.951,2.768-5.915,2.391-6.345-1.457-.727-36.011-.742-38.844.012.043.752,1.667,3.792,3.242,6.315Z" transform="translate(-2147.684 -415.804)" fill="#212e3b"/>
        <path id="Path_2384" data-name="Path 2384" d="M2198.463,462.5l-.059-3.113c-.027-1.55-.459-4.105-1.495-4.368a.44.44,0,0,0-.4.08c-.729.5-1.228,2.636-1.371,3.864l-.8-.038c-.03-1.532-.433-3.75-1.231-3.889a.406.406,0,0,0-.327.091c-.672.473-1.215,2.361-1.4,3.439l-.793-.067c0-1.393-.347-3.453-1.086-3.457h0c-.822,0-1.194,2.207-1.24,3.219v0l-.8-.036c.025-.594-.047-2.279-.673-2.934a.683.683,0,0,0-.577-.253c-1.225,0-2.3,2.584-2.581,3.49l-.529,1.713-.247-1.775c-.238-1.7-.76-3.336-1.1-3.429-.427.073-1.126,1.668-1.481,3.054l-.78,3.054-.006-3.152c0-.028-.045-2.883-1.494-2.948-1.24-.074-2.06,2.777-2.247,3.774l-.792-.089c.026-.624-.052-2.385-.706-3.037a.756.756,0,0,0-.6-.234c-1.477.062-1.727,3.281-1.729,3.313l-.795.027c-.111-.831-.66-3.229-1.678-3.338a.332.332,0,0,0-.271.1c-.57.536-.694,2.613-.639,3.8l-.8.038c-.017-.35-.133-3.453.887-4.415a1.113,1.113,0,0,1,.9-.311c.992.106,1.6,1.176,1.948,2.19.331-1.044.958-2.148,2.133-2.2a1.545,1.545,0,0,1,1.2.468,3.168,3.168,0,0,1,.74,1.5c.467-1.165,1.233-2.385,2.4-2.385h.076c1.173.053,1.736,1.043,2.007,1.993.374-.928.917-1.876,1.6-1.988a.8.8,0,0,1,.625.161,4.944,4.944,0,0,1,1.126,2.54c.548-1.187,1.508-2.712,2.824-2.712h.006a1.541,1.541,0,0,1,1.15.5,2.7,2.7,0,0,1,.562.973c.3-.8.782-1.474,1.568-1.474h.006c.954,0,1.425,1.008,1.657,2.053a3.963,3.963,0,0,1,1.158-1.821,1.214,1.214,0,0,1,.925-.226c.879.153,1.351,1.173,1.6,2.233a3.967,3.967,0,0,1,1.2-2.042,1.261,1.261,0,0,1,1.052-.2c1.135.289,1.656,1.806,1.895,3.122.48-1.264,1.165-2.572,2.174-2.53a.941.941,0,0,1,.719.4c.717.984.071,3.7-.065,4.239l-.773-.2c.3-1.18.56-3.069.194-3.572a.148.148,0,0,0-.125-.075h-.015c-.594,0-1.467,1.972-1.916,3.838Z" transform="translate(-2147.12 -415.382)" fill="#212e3b"/>
        <path id="Path_2385" data-name="Path 2385" d="M2204.981,453.469l-.776-.188a8.3,8.3,0,0,0,.293-2.206c-2.818-.261-36.731-.555-39.167-.337a10.867,10.867,0,0,0,.16,2.575l-.788.123c-.3-1.919-.253-3.054.144-3.372.7-.559,39.868.167,40.1.3C2205.12,450.465,2205.638,450.767,2204.981,453.469Z" transform="translate(-2147.71 -416.177)" fill="#212e3b"/>
        <path id="Path_2386" data-name="Path 2386" d="M2196.68,454.181l-.8-.051c.658-10.4.958-21.956.22-22.876-1.327-.795-20.977-.828-23.014-.48-.345,1.65.045,14.9.382,23.125l-.8.033c-.956-23.249-.335-23.665-.1-23.82.706-.47,22.5-.5,24,.5C2197.955,431.535,2197.107,447.4,2196.68,454.181Zm-23.56-23.521" transform="translate(-2146.313 -419.841)" fill="#212e3b"/>
        <path id="Path_2387" data-name="Path 2387" d="M2193.724,432.173c-.039-.4-1.075-9.888-9.916-9.995a8.073,8.073,0,0,0-6.031,2.193c-2.784,2.783-2.766,7.286-2.765,7.333l-.8.008c0-.2-.019-4.888,3-7.906a8.816,8.816,0,0,1,6.6-2.426c9.561.115,10.693,10.61,10.7,10.716Z" transform="translate(-2145.938 -421.379)" fill="#212e3b"/>
        <path id="Path_2388" data-name="Path 2388" d="M2204.344,451.627c-.022-1.728-.05-4.462-.018-5.51-2.117-.211-14.867-.3-19.981-.3-.786,0-2.107-.024-3.7-.053-4.591-.086-14.049-.263-15.233.253a34.613,34.613,0,0,0,.078,5.271l-.8.056c-.033-.478-.322-4.7-.019-5.661.213-.686,1.853-.98,15.985-.718,1.586.03,2.9.054,3.685.054,20.292,0,20.6.4,20.709.526l.119.151-.04.2c-.043.3-.018,3.672.011,5.724Z" transform="translate(-2147.705 -417.088)" fill="#212e3b"/>
        <path id="Path_2389" data-name="Path 2389" d="M2197.032,445.3l-.4-.021c-23.689-1.262-23.977-1.47-24.1-1.558-.344-.25-.414-.928-.206-2.018l.047-.252.248-.062c.181-.046,23.752-.118,24.39.4l.155.125,0,.208c-.011.326-.114,2.771-.114,2.771Zm-24.008-2.257c1.582.213,14.426.946,23.243,1.417.024-.544.063-1.5.084-2.029-2.609-.272-20.781-.386-23.292-.281A3.715,3.715,0,0,0,2173.024,443.043Z" transform="translate(-2146.304 -417.729)" fill="#212e3b"/>
        <rect id="Rectangle_345" data-name="Rectangle 345" width="13.725" height="0.799" transform="matrix(0.106, -0.994, 0.994, 0.106, 30.936, 23.94)" fill="#212e3b"/>
        <rect id="Rectangle_346" data-name="Rectangle 346" width="0.799" height="13.653" transform="translate(37.983 10.329)" fill="#212e3b"/>
        <rect id="Rectangle_347" data-name="Rectangle 347" width="0.799" height="13.302" transform="translate(43.356 10.798) rotate(-6.096)" fill="#212e3b"/>
        <path id="Path_2390" data-name="Path 2390" d="M2184.987,658.234l-9.031-.044-.022-.374c-.019-.341-.452-8.353,2.123-10.948a2.635,2.635,0,0,1,2.089-.834c4.788.239,4.842,11.326,4.842,11.8Zm-8.271-.838,7.47.037c-.063-3.244-.873-10.441-4.079-10.6a1.9,1.9,0,0,0-1.482.6C2176.591,649.479,2176.662,655.789,2176.716,657.4Z" transform="translate(-2145.63 -380.342)" fill="#212e3b"/>
        <g id="Group_453" data-name="Group 453" transform="translate(31.147 236.319)">
          <path id="Path_2391" data-name="Path 2391" d="M2180.781,629.841c-.207,0-.408-.013-.6-.031-1.431-.13-3.543-2.41-3.543-4.287a5.552,5.552,0,0,1,2.017-3.633,2.289,2.289,0,0,1,1.626-.68h0c2.609.432,3.812,2.027,3.676,4.875a4.215,4.215,0,0,1-1.165,3.091A2.958,2.958,0,0,1,2180.781,629.841Zm-.666-7.847a1.778,1.778,0,0,0-.939.505,4.845,4.845,0,0,0-1.735,3.024,4.324,4.324,0,0,0,2.816,3.492,2.6,2.6,0,0,0,2.015-.441,3.491,3.491,0,0,0,.892-2.527c.149-3.123-1.529-3.8-3.007-4.049A.233.233,0,0,0,2180.114,621.994Z" transform="translate(-2176.641 -621.197)" fill="#212e3b"/>
          <rect id="Rectangle_348" data-name="Rectangle 348" width="7.737" height="0.798" transform="translate(3.183 8.195) rotate(-86.848)" fill="#212e3b"/>
        </g>
        <path id="Path_2392" data-name="Path 2392" d="M2201.1,430.928l-.291-.744,6.33-2.469.291.744Z" transform="translate(-2141.079 -420.221)" fill="#212e3b"/>
        <rect id="Rectangle_349" data-name="Rectangle 349" width="8.102" height="0.798" transform="translate(64.01 15.484)" fill="#212e3b"/>
        <path id="Path_2393" data-name="Path 2393" d="M2207.228,445.211c-.849-.488-5.1-2.932-5.353-3.116l.467-.648-.233.324.232-.325c.208.145,3.275,1.917,5.284,3.074Z" transform="translate(-2140.885 -417.713)" fill="#212e3b"/>
        <rect id="Rectangle_350" data-name="Rectangle 350" width="0.798" height="6.678" transform="translate(12.975 6.381) rotate(-69.272)" fill="#212e3b"/>
        <rect id="Rectangle_351" data-name="Rectangle 351" width="7.68" height="0.798" transform="translate(7.293 13.627)" fill="#212e3b"/>
        <rect id="Rectangle_352" data-name="Rectangle 352" width="5.467" height="0.799" transform="translate(9.323 25.204) rotate(-24.417)" fill="#212e3b"/>
      </g>
    </g>
  </g>
</svg>
