<svg xmlns="http://www.w3.org/2000/svg" width="300.16" height="423.076" viewBox="0 0 300.16 423.076">
  <g id="SLIDER" transform="translate(2471.153 -3658.924)">
    <g id="_5_GĄSKI" data-name="5 GĄSKI" transform="translate(-2285.492 3406.259)">
      <g id="Group_123" data-name="Group 123" transform="translate(-185.661 252.665)">
        <path id="Path_953" data-name="Path 953" d="M114.494,675.741l0-423.076h-300.16V675.741Z" transform="translate(185.661 -252.665)" fill="#fcf8f7"/>
      </g>
      <path id="Path_954" data-name="Path 954" d="M114.495,593.231H-185.661V405.519c2.972-2.877,3.828-8.9,6.865-10.641s4.382-2.676,7.88-2.834,7.378-.939,9.372-3.815c2.663-3.839,1.48-10.593,5.886-12.146,3.186-1.124,6.216,1.786,9.352,3.044,5.6,2.245,11.724-.9,17.6-2.241s14.1,1.139,13.856,7.165c-.147,3.6-3.5,6.636-3.1,10.214.381,3.416,4.067,5.523,7.481,5.925s6.9-.319,10.3.207c4.925.76,9.042,4,13.523,6.181s10.395,3.113,14.036-.287c1.61-1.5,2.5-3.628,3.967-5.269,3.65-4.08,9.931-4.324,15.336-3.469s10.944,2.5,16.237,1.111,9.822-7.506,7.155-12.282l28.44-1.258c4.27-.189,9.88-1.672,9.9-5.945.009-1.563-.845-3.039-.814-4.6.065-3.278,3.773-5.173,7-5.737s6.9-.707,9.111-3.131c1.175-1.289,1.712-3.019,2.531-4.56a13.675,13.675,0,0,1,14.387-6.774,13.673,13.673,0,0,1,10.589,11.864c.285,3.253-.607,6.689.644,9.7,3.062,7.378,14.67,5.293,20.708,10.525,4.538,3.933,4.9,11.16,9.28,15.267,4.361,4.085,7.519,5.4,13.414,6.386,5.6.936,8.315,6.214,8.955,10.531s-4.957,9.847-3.358,14.039,13.624,4.625,13.624,4.625Z" transform="translate(0 82.51)" fill="#e9ccbd"/>
      <text id="GĄSKI" transform="translate(-36.822 618.037)" fill="#2e3c4b" font-size="17" font-family="SulphurPoint-Bold, Sulphur Point" font-weight="700" letter-spacing="0.025em"><tspan x="-22.669" y="0">GĄSKI</tspan></text>
      <g id="gąski_kolor" data-name="gąski kolor" transform="translate(-65.515 329.354)">
        <path id="Path_955" data-name="Path 955" d="M-115.449,403.527c.771-1.2,51.993-.914,53.4,0s3.072,37.378,1.1,38.156-53.186,3.07-54.491,0S-116.406,405.015-115.449,403.527Z" transform="translate(121.915 -207.325)" fill="#b98255"/>
        <path id="Path_956" data-name="Path 956" d="M-105.928,428.4s-.5-8.741,2.863-8.573,3.367,8.6,3.367,8.6Z" transform="translate(130.329 -193.423)" fill="#2e3c4b"/>
        <path id="Path_957" data-name="Path 957" d="M-111.994,463.033c2.379,2.051,41.393,1.467,43.063,1.063s-5.581-145.463-6.341-147.325,2.649-3.639,2.15-4.888-30.409-2.664-33.185-1.333S-115.5,460.01-111.994,463.033Z" transform="translate(124.586 -282.721)" fill="#b98255"/>
        <path id="Path_958" data-name="Path 958" d="M-118.8,399.179c1.313-1.293,57.113-1.358,58.444,0s1.675,5.017.459,6.3-58.44.765-58.9.116S-119.873,400.234-118.8,399.179Z" transform="translate(119.398 -211.022)" fill="#b98255"/>
        <path id="Path_959" data-name="Path 959" d="M-108.256,306.453c0-1.7,20.57-.511,20.447.256S-108.254,306.98-108.256,306.453Z" transform="translate(128.458 -286.322)" fill="#ae4426"/>
        <path id="Path_960" data-name="Path 960" d="M-104.785,391.3c-.319-.422-.522-8.076,1.075-8.264s2.392,7.4,2.094,8.109C-101.824,391.648-104.574,391.579-104.785,391.3Z" transform="translate(131.101 -223.342)" fill="#fff"/>
        <path id="Path_961" data-name="Path 961" d="M-95.571,381.719c-.321-.422-.522-8.078,1.073-8.266s2.392,7.4,2.1,8.109C-92.612,382.065-95.363,382-95.571,381.719Z" transform="translate(138.592 -231.136)" fill="#fff"/>
        <path id="Path_962" data-name="Path 962" d="M-109.326,339.428c-.321-.355-.522-6.785,1.073-6.944s2.392,6.214,2.1,6.812C-106.367,339.718-109.118,339.66-109.326,339.428Z" transform="translate(127.407 -264.45)" fill="#fff"/>
        <path id="Path_963" data-name="Path 963" d="M-103.93,328.209c-.319-.355-.522-6.785,1.075-6.943s2.392,6.214,2.094,6.812C-100.969,328.5-103.719,328.443-103.93,328.209Z" transform="translate(131.796 -273.572)" fill="#fff"/>
        <g id="Group_124" data-name="Group 124" transform="translate(25.399 200.914)">
          <path id="Path_964" data-name="Path 964" d="M-102.911,405.775c1.244.2,2.729.825,2.6,3.478s-1.646,2.694-2.6,2.607a3.639,3.639,0,0,1-2.479-3.032C-105.39,407.514-103.7,405.644-102.911,405.775Z" transform="translate(105.39 -405.768)" fill="#fff"/>
          <line id="Line_485" data-name="Line 485" x1="0.335" y2="6.018" transform="translate(2.478 0.073)" fill="#fff"/>
        </g>
        <path id="Path_965" data-name="Path 965" d="M-99.715,294.961c3.777-.094,8.393,6.012,8.228,7.555-4.549.091-15.294-.538-15.294-.538S-106.3,295.125-99.715,294.961Z" transform="translate(129.658 -294.96)" fill="#e4a24b"/>
      </g>
      <g id="gąski-2" data-name="gąski" transform="translate(-67.506 328.444)">
        <path id="Path_966" data-name="Path 966" d="M-118.169,402.967c.546-.486,6.286-.751,13.878-.856,16.144-.228,40.658.259,41.355.856,1.023.876,2.045,39.451,1.023,39.888s-55.233.586-56.255,0S-119.484,404.134-118.169,402.967Z" transform="translate(121.672 -206.966)" fill="none" stroke="#2e3c4b" stroke-miterlimit="10" stroke-width="0.9"/>
        <path id="Path_967" data-name="Path 967" d="M-110.851,402.085s-.3,37.063,0,41.1" transform="translate(128.232 -206.94)" fill="none" stroke="#2e3c4b" stroke-miterlimit="10" stroke-width="0.9"/>
        <line id="Line_486" data-name="Line 486" y2="41.029" transform="translate(42.955 195.246)" fill="none" stroke="#2e3c4b" stroke-miterlimit="10" stroke-width="0.9"/>
        <path id="Path_968" data-name="Path 968" d="M-117.122,406.112l-.412-.914-2.8-6.194s59.835-1.846,60.712,0-2.265,7.108-2.265,7.108" transform="translate(120.625 -210.112)" fill="none" stroke="#2e3c4b" stroke-miterlimit="10" stroke-width="0.9"/>
        <path id="Path_969" data-name="Path 969" d="M-60.185,400.245c-1.868.1-2.954,2.819-2.954,2.819s-.145-3.452-1.753-3.452c-1.79,0-2.337,3.452-2.337,3.452s-.328-3.215-2.448-3.452c-2.473-.279-2.629,3.452-2.629,3.452s-1.019-3.436-2.045-3.438c-2.082,0-2.266,3.438-2.266,3.438s-1.131-3.434-2.812-3.438-2.045,3.438-2.045,3.438-.219-3.36-2.12-3.436-2.41,3-2.41,3-.292-3-1.534-3c-1.973,0-2.809,3.144-2.809,3.144s.47-3.068-1.868-3.142-3.068,3.434-3.068,3.434-.219-3.434-2.12-3.434-2.848,3.434-2.848,3.434-.366-3.434-1.9-3.434S-105,403.064-105,403.064s-.074-3.36-1.828-3.434-2.776,3.142-2.776,3.142-.656-3.142-2.045-3.142-2.484,3.434-2.484,3.434-.7-3.755-1.826-3.434c-1.023.292-1.389,3.434-1.389,3.434s-.286-2.972-2.444-3.021" transform="translate(121.069 -208.963)" fill="none" stroke="#2e3c4b" stroke-miterlimit="10" stroke-width="0.9"/>
        <path id="Path_970" data-name="Path 970" d="M-120.208,401.017c-.145-1.075-.288-5.307-.288-5.307s61.089,1.6,61.155,2.624a18.161,18.161,0,0,1-.154,2.684" transform="translate(120.496 -212.124)" fill="none" stroke="#2e3c4b" stroke-miterlimit="10" stroke-width="0.9"/>
        <path id="Path_971" data-name="Path 971" d="M-95.042,314.963c1.713,1.061,8.562,148.355,8.562,148.355" transform="translate(141.194 -277.785)" fill="none" stroke="#2e3c4b" stroke-miterlimit="10" stroke-width="0.9"/>
        <path id="Path_972" data-name="Path 972" d="M-115.769,461.775s7.173-144.45,8.678-146.812" transform="translate(124.34 -277.785)" fill="none" stroke="#2e3c4b" stroke-miterlimit="10" stroke-width="0.9"/>
        <path id="Path_973" data-name="Path 973" d="M-105.253,391.54c-.41-.451-.669-8.609,1.374-8.81s3.057,7.884,2.678,8.641C-101.469,391.908-104.986,391.834-105.253,391.54Z" transform="translate(132.66 -222.682)" fill="none" stroke="#2e3c4b" stroke-miterlimit="10" stroke-width="0.9"/>
        <path id="Path_974" data-name="Path 974" d="M-95.876,381.632c-.41-.452-.12-8.613,1.924-8.814s2.508,7.889,2.129,8.647C-92.092,382-95.61,381.928-95.876,381.632Z" transform="translate(140.386 -230.742)" fill="none" stroke="#2e3c4b" stroke-miterlimit="10" stroke-width="0.9"/>
        <path id="Path_975" data-name="Path 975" d="M-109.4,339.234c-.468-.267.19-7.42,1.712-7.135s2.379,6.754,2.094,7.135S-108.735,339.615-109.4,339.234Z" transform="translate(129.398 -263.857)" fill="none" stroke="#2e3c4b" stroke-miterlimit="10" stroke-width="0.9"/>
        <path id="Path_976" data-name="Path 976" d="M-102.589,320.559c.878,0,2.569,6.754,2,7.325s-3.331.666-3.806,0S-104.587,320.559-102.589,320.559Z" transform="translate(133.425 -273.235)" fill="none" stroke="#2e3c4b" stroke-miterlimit="10" stroke-width="0.9"/>
        <path id="Path_977" data-name="Path 977" d="M-109.724,317.836s-3.155-5.055-2.776-5.8,32.916-.87,33.678,0-2,5.8-2,5.8" transform="translate(126.973 -280.658)" fill="none" stroke="#2e3c4b" stroke-miterlimit="10" stroke-width="0.9"/>
        <path id="Path_978" data-name="Path 978" d="M-110.8,316.79s-.181-3.819,1.151-3.677,1.733,3.14,1.733,3.14.2-3.077,1.8-3.144,1.467,3.144,1.467,3.144.665-3.568,2.265-3.5,1.6,2.854,1.6,2.854.693-2.714,1.545-2.856,1.32,3.211,1.32,3.211.994-3.22,2.529-3.215,1.4,3.073,1.4,3.073.132-3.079,1.4-3.073,1.266,3.287,1.266,3.287.6-3.507,1.866-3.287,1.333,3.645,1.333,3.645.468-4.027,1.933-3.655,1.532,4.049,1.532,4.049.867-3.6,2-3.534.248,3.534.248,3.534" transform="translate(128.376 -279.612)" fill="none" stroke="#2e3c4b" stroke-miterlimit="10" stroke-width="0.9"/>
        <path id="Path_979" data-name="Path 979" d="M-78.765,312.958s.5-2.058.132-2.272-33.453-.571-33.81-.285,0,2.557,0,2.557" transform="translate(126.916 -281.581)" fill="none" stroke="#2e3c4b" stroke-miterlimit="10" stroke-width="0.9"/>
        <path id="Path_980" data-name="Path 980" d="M-107.908,319.375s-.809-19.635-.238-20.014,18.946-.334,20.086.428-.06,19.791-.06,19.791" transform="translate(130.373 -290.661)" fill="none" stroke="#2e3c4b" stroke-miterlimit="10" stroke-width="0.9"/>
        <path id="Path_981" data-name="Path 981" d="M-107.206,302.925s-.1-8.56,7.846-8.466,8.79,8.83,8.79,8.83" transform="translate(131.303 -294.459)" fill="none" stroke="#2e3c4b" stroke-miterlimit="10" stroke-width="0.9"/>
        <path id="Path_982" data-name="Path 982" d="M-112.454,312.682a28.862,28.862,0,0,1-.031-4.7c.247-.785,13.312-.328,16.447-.328s17.455.065,17.394.328,0,4.963,0,4.963" transform="translate(126.927 -283.837)" fill="none" stroke="#2e3c4b" stroke-miterlimit="10" stroke-width="0.9"/>
        <path id="Path_983" data-name="Path 983" d="M-108.23,305.605c.582-.145,20.516,0,20.505.283s-.1,2.363-.1,2.363-20.1-1.07-20.367-1.264S-108.23,305.605-108.23,305.605Z" transform="translate(130.398 -285.44)" fill="none" stroke="#2e3c4b" stroke-miterlimit="10" stroke-width="0.9"/>
        <line id="Line_487" data-name="Line 487" x1="1.234" y2="11.638" transform="translate(26.365 8.471)" fill="none" stroke="#2e3c4b" stroke-miterlimit="10" stroke-width="0.9"/>
        <line id="Line_488" data-name="Line 488" y2="11.642" transform="translate(32.376 8.467)" fill="none" stroke="#2e3c4b" stroke-miterlimit="10" stroke-width="0.9"/>
        <line id="Line_489" data-name="Line 489" x2="1.204" y2="11.278" transform="translate(36.955 8.83)" fill="none" stroke="#2e3c4b" stroke-miterlimit="10" stroke-width="0.9"/>
        <path id="Path_984" data-name="Path 984" d="M-106.238,429.1s-.571-9.876,3.235-9.686,3.8,9.72,3.8,9.72Z" transform="translate(132.065 -192.855)" fill="none" stroke="#2e3c4b" stroke-miterlimit="10" stroke-width="0.9"/>
        <g id="Group_125" data-name="Group 125" transform="translate(26.547 201.507)">
          <path id="Path_985" data-name="Path 985" d="M-103.144,405.6c1.362.225,2.988.9,2.85,3.806s-1.8,2.948-2.85,2.854a3.986,3.986,0,0,1-2.711-3.318C-105.855,407.5-104.006,405.458-103.144,405.6Z" transform="translate(105.855 -405.594)" fill="none" stroke="#2e3c4b" stroke-miterlimit="10" stroke-width="0.9"/>
          <line id="Line_490" data-name="Line 490" x1="0.366" y2="6.587" transform="translate(2.711 0.079)" fill="none" stroke="#2e3c4b" stroke-miterlimit="10" stroke-width="0.9"/>
        </g>
        <line id="Line_491" data-name="Line 491" y1="2.106" x2="5.398" transform="translate(50.701 6.365)" fill="none" stroke="#2e3c4b" stroke-miterlimit="10" stroke-width="0.9"/>
        <line id="Line_492" data-name="Line 492" x2="6.909" transform="translate(54.228 13.202)" fill="none" stroke="#2e3c4b" stroke-miterlimit="10" stroke-width="0.9"/>
        <path id="Path_986" data-name="Path 986" d="M-91.9,305.584c.216.154,4.533,2.638,4.533,2.638" transform="translate(143.751 -285.412)" fill="none" stroke="#2e3c4b" stroke-miterlimit="10" stroke-width="0.9"/>
        <line id="Line_493" data-name="Line 493" x1="5.326" y1="2.015" transform="translate(10.831 4.782)" fill="none" stroke="#2e3c4b" stroke-miterlimit="10" stroke-width="0.9"/>
        <line id="Line_494" data-name="Line 494" x1="6.549" transform="translate(5.865 11.619)" fill="none" stroke="#2e3c4b" stroke-miterlimit="10" stroke-width="0.9"/>
        <line id="Line_495" data-name="Line 495" x1="4.246" y2="1.924" transform="translate(7.736 19.536)" fill="none" stroke="#2e3c4b" stroke-miterlimit="10" stroke-width="0.9"/>
      </g>
    </g>
  </g>
</svg>
