<svg xmlns="http://www.w3.org/2000/svg" width="300.441" height="423.364" viewBox="0 0 300.441 423.364">
  <g id="SLIDER" transform="translate(2351 -4042.636)">
    <g id="_6_DARŁ" data-name="6 DARŁ" transform="translate(-2350.961 3789.971)">
      <g id="Group_112" data-name="Group 112" transform="translate(-0.039 252.665)">
        <path id="Path_922" data-name="Path 922" d="M299.1,674.738l1.3-422.073H-.039L.042,676.029Z" transform="translate(0.039 -252.665)" fill="#fcf8f7"/>
      </g>
      <g id="Group_113" data-name="Group 113" transform="translate(-0.039 520.01)">
        <path id="Path_923" data-name="Path 923" d="M300.321,556.03H.043L-.039,400.011s62.352,5.039,120.063,7.069,54.122-.058,78.992,2.172l2.2,41.116c5.607.731,18.407-2.128,26.576-9.05,8.047,8.441,10.487,9.025,16.112,9.025,6.586,0,15.1-8.386,15.1-8.386s7.559,8.087,13.9,8.167c9.631.121,13.167-9.386,13.167-9.386s5.559,8.357,14.261,9.335Z" transform="translate(0.039 -400.011)" fill="#e9ccbd"/>
      </g>
      <text id="DARŁOWO" transform="translate(149.23 621.012)" fill="#2e3c4b" font-size="17" font-family="SulphurPoint-Bold, Sulphur Point" font-weight="700" letter-spacing="0.025em"><tspan x="-39.61" y="0">DARŁOWO</tspan></text>
      <g id="darłowo_kolor" data-name="darłowo kolor" transform="translate(44.762 335.706)">
        <path id="Path_924" data-name="Path 924" d="M86.5,298.483c2.09-1,17.25,13.191,17.028,14.635s-28.207,1.174-30.859-.112S84.641,299.37,86.5,298.483Z" transform="translate(14.192 -298.432)" fill="#f1ece9"/>
        <path id="Path_925" data-name="Path 925" d="M24.958,412c.376-1.063,70.451-.786,72.224,1.129s1.306,17.208,0,18.017-70.985,1.559-71.66,0S24.281,413.918,24.958,412Z" transform="translate(-24.653 -206.443)" fill="#b98255"/>
        <path id="Path_926" data-name="Path 926" d="M118.567,411.176c2.664.243,1.352,16.687,0,18.235s-48.933-.933-49.609-3.188-1.8-13.076,0-14.43S116.761,411.013,118.567,411.176Z" transform="translate(10.636 -206.826)" fill="#b98255"/>
        <path id="Path_927" data-name="Path 927" d="M67.9,328.751c1.867-2.137,49.392-4.848,50.127-2.255s5.24,149.812,2.3,152.63-46.135,3.513-49.027-.535S65.154,331.888,67.9,328.751Z" transform="translate(9.722 -276.442)" fill="#ae4426"/>
        <path id="Path_928" data-name="Path 928" d="M62.8,368.827c3.759-.056,31.081,8.637,32.521,11.173S98.7,444.183,97.5,445.493s-65.935,3.787-68.165-.947-1.718-61.888,0-64.546S59.724,368.872,62.8,368.827Z" transform="translate(-22.049 -241.103)" fill="#ae4426"/>
        <path id="Path_929" data-name="Path 929" d="M100.953,381.273c2.558.971,6.272.205,6.066-1.272-.129-.907-36.435-14.873-40.325-14.7S25.785,378.073,25,379.82c-.72,1.595.708,2.988,2.988,2.988a16.327,16.327,0,0,0,4.042-1.1s30.266-9.874,34.1-10.1,34.827,9.669,34.827,9.669" transform="translate(-24.527 -243.978)" fill="#fff"/>
        <g id="Group_114" data-name="Group 114" transform="translate(35.079 166.605)">
          <path id="Path_930" data-name="Path 930" d="M44.174,392.707c.372-.818,4.981-2.451,7.1-2.451s6.225,1.1,6.666,2.029,0,21.648,0,21.648H44.174S43.752,393.638,44.174,392.707Z" transform="translate(-43.986 -390.256)" fill="#fff"/>
          <line id="Line_444" data-name="Line 444" x1="0.556" y1="23.677" transform="translate(7.286)" fill="#fff"/>
          <line id="Line_445" data-name="Line 445" y1="0.868" x2="14.148" transform="translate(0 7.335)" fill="#fff"/>
          <line id="Line_446" data-name="Line 446" x2="14.148" y2="0.653" transform="translate(0 15.813)" fill="#fff"/>
        </g>
        <g id="Group_115" data-name="Group 115" transform="translate(95.804 141.344)">
          <path id="Path_931" data-name="Path 931" d="M77.732,392.466s-.477-13.824.425-14.613a5.381,5.381,0,0,1,4.5-1.51c2.633.113,4.315.737,4.774,1.352s0,14.771,0,14.771Z" transform="translate(-77.331 -376.333)" fill="#fff"/>
          <line id="Line_447" data-name="Line 447" x2="0.329" y2="16.123" transform="translate(4.72 0.01)" fill="#fff"/>
          <line id="Line_448" data-name="Line 448" y1="0.745" x2="10.164" transform="translate(0.137 10.536)" fill="#fff"/>
          <line id="Line_449" data-name="Line 449" x2="10.107" y2="0.605" transform="translate(0 6.323)" fill="#fff"/>
        </g>
        <g id="Group_116" data-name="Group 116" transform="translate(96.009 180.956)">
          <path id="Path_932" data-name="Path 932" d="M77.733,414.293s-.245-13.617.425-14.613c1.014-1.508,2.832-1.54,4.5-1.508,2.635.051,4.315.735,4.774,1.352s0,14.769,0,14.769Z" transform="translate(-77.469 -398.165)" fill="#fff"/>
          <line id="Line_450" data-name="Line 450" x1="0.858" y2="16.1" transform="translate(4.912 0.028)" fill="#fff"/>
          <line id="Line_451" data-name="Line 451" x2="10.164" y2="0.643" transform="translate(0 11.277)" fill="#fff"/>
          <line id="Line_452" data-name="Line 452" y1="0.396" x2="9.884" transform="translate(0.28 5.37)" fill="#fff"/>
        </g>
        <g id="Group_117" data-name="Group 117" transform="translate(95.582 57.3)">
          <path id="Path_933" data-name="Path 933" d="M77.733,346.147s-.9-13.869,0-14.657a6.479,6.479,0,0,1,4.922-1.466,11.813,11.813,0,0,1,4.774,1.324v14.769Z" transform="translate(-77.332 -330.013)" fill="#fff"/>
          <line id="Line_453" data-name="Line 453" x1="0.274" y2="16.123" transform="translate(5.049 0.01)" fill="#fff"/>
          <line id="Line_454" data-name="Line 454" y1="0.365" x2="9.884" transform="translate(0.214 12.412)" fill="#fff"/>
          <line id="Line_455" data-name="Line 455" x2="9.932" y2="0.611" transform="translate(0.165 5.197)" fill="#fff"/>
        </g>
      </g>
      <g id="darłowo-2" data-name="darłowo" transform="translate(41.639 329.308)">
        <path id="Path_934" data-name="Path 934" d="M67.825,498.139c1.232,2.462,47.991.337,49.569-.339s.677-171.194,0-172.1-50.7-.969-51.6,1.061c-.437.98.113,41.675.588,82.577" transform="translate(11.848 -270.314)" fill="none" stroke="#2e3c4b" stroke-miterlimit="10" stroke-width="0.9"/>
        <path id="Path_935" data-name="Path 935" d="M118.375,328.933s3.834-7.216,3.609-7.893-56.428.659-57.35,1.069c-1.014.45,2.143,8.118,2.143,8.118" transform="translate(10.868 -273.775)" fill="none" stroke="#2e3c4b" stroke-miterlimit="10" stroke-width="0.9"/>
        <path id="Path_936" data-name="Path 936" d="M64.584,323.531s54.418-2.15,56.486-1.68" transform="translate(10.99 -273.017)" fill="none" stroke="#2e3c4b" stroke-miterlimit="10" stroke-width="0.9"/>
        <path id="Path_937" data-name="Path 937" d="M65.041,324.362s51.6-.443,54.022-.3" transform="translate(11.363 -271.185)" fill="none" stroke="#2e3c4b" stroke-miterlimit="10" stroke-width="0.9"/>
        <path id="Path_938" data-name="Path 938" d="M119,328.061s.472-15.128-.376-15.691S66.156,311.8,65.093,313.4c-.45.677.562,15.754.562,15.754" transform="translate(11.311 -280.963)" fill="none" stroke="#2e3c4b" stroke-miterlimit="10" stroke-width="0.9"/>
        <line id="Line_456" data-name="Line 456" x2="1.851" y2="16.132" transform="translate(81.436 31.823)" fill="none" stroke="#2e3c4b" stroke-miterlimit="10" stroke-width="0.9"/>
        <line id="Line_457" data-name="Line 457" x2="1.887" y2="16.252" transform="translate(93.205 31.547)" fill="none" stroke="#2e3c4b" stroke-miterlimit="10" stroke-width="0.9"/>
        <line id="Line_458" data-name="Line 458" x1="0.911" y2="16.111" transform="translate(100.842 31.154)" fill="none" stroke="#2e3c4b" stroke-miterlimit="10" stroke-width="0.9"/>
        <line id="Line_459" data-name="Line 459" x1="1.184" y2="15.951" transform="translate(106.338 31.154)" fill="none" stroke="#2e3c4b" stroke-miterlimit="10" stroke-width="0.9"/>
        <line id="Line_460" data-name="Line 460" x2="0.788" y2="15.847" transform="translate(112.172 31.078)" fill="none" stroke="#2e3c4b" stroke-miterlimit="10" stroke-width="0.9"/>
        <path id="Path_939" data-name="Path 939" d="M86.6,320.767" transform="translate(28.924 -273.845)" fill="none" stroke="#2e3c4b" stroke-miterlimit="10" stroke-width="0.9"/>
        <path id="Path_940" data-name="Path 940" d="M86.355,312.032" transform="translate(28.721 -280.959)" fill="none" stroke="#2e3c4b" stroke-miterlimit="10" stroke-width="0.9"/>
        <path id="Path_941" data-name="Path 941" d="M90.208,320.593" transform="translate(31.859 -273.987)" fill="none" stroke="#2e3c4b" stroke-miterlimit="10" stroke-width="0.9"/>
        <path id="Path_942" data-name="Path 942" d="M90.208,312.077" transform="translate(31.859 -280.922)" fill="none" stroke="#2e3c4b" stroke-miterlimit="10" stroke-width="0.9"/>
        <line id="Line_461" data-name="Line 461" x1="1.293" y2="15.374" transform="translate(124.289 31.547)" fill="none" stroke="#2e3c4b" stroke-miterlimit="10" stroke-width="0.9"/>
        <path id="Path_943" data-name="Path 943" d="M71.949,307.066c-.677,1.129,0,9.6,0,9.6v15.979" transform="translate(16.744 -285.003)" fill="none" stroke="#2e3c4b" stroke-miterlimit="10" stroke-width="0.9"/>
        <line id="Line_462" data-name="Line 462" y1="23.99" transform="translate(118.007 22.74)" fill="none" stroke="#2e3c4b" stroke-miterlimit="10" stroke-width="0.9"/>
        <path id="Path_944" data-name="Path 944" d="M87.621,298.18c2.3-.14,17.738,16.123,16.723,16.8s-32.7.091-34.049-.688S85.78,298.293,87.621,298.18Z" transform="translate(15.579 -292.24)" fill="none" stroke="#2e3c4b" stroke-miterlimit="10" stroke-width="0.9"/>
        <g id="Group_118" data-name="Group 118" transform="translate(97.425 62.98)">
          <path id="Path_945" data-name="Path 945" d="M77.028,345.751s-.9-13.868,0-14.657a6.474,6.474,0,0,1,4.921-1.466,11.828,11.828,0,0,1,4.776,1.324v14.769Z" transform="translate(-76.627 -329.617)" fill="none" stroke="#2e3c4b" stroke-miterlimit="10" stroke-width="0.9"/>
          <line id="Line_463" data-name="Line 463" x1="0.274" y2="16.123" transform="translate(5.048 0.01)" fill="none" stroke="#2e3c4b" stroke-miterlimit="10" stroke-width="0.9"/>
          <line id="Line_464" data-name="Line 464" y1="0.365" x2="9.884" transform="translate(0.213 12.413)" fill="none" stroke="#2e3c4b" stroke-miterlimit="10" stroke-width="0.9"/>
          <line id="Line_465" data-name="Line 465" x2="9.932" y2="0.611" transform="translate(0.164 5.198)" fill="none" stroke="#2e3c4b" stroke-miterlimit="10" stroke-width="0.9"/>
        </g>
        <g id="Group_119" data-name="Group 119" transform="translate(97.699 146.641)">
          <path id="Path_946" data-name="Path 946" d="M77.056,391.859s-.479-13.824.423-14.613a5.381,5.381,0,0,1,4.5-1.51c2.633.114,4.316.737,4.776,1.354s0,14.769,0,14.769Z" transform="translate(-76.654 -375.726)" fill="none" stroke="#2e3c4b" stroke-miterlimit="10" stroke-width="0.9"/>
          <line id="Line_466" data-name="Line 466" x2="0.329" y2="16.123" transform="translate(4.72 0.011)" fill="none" stroke="#2e3c4b" stroke-miterlimit="10" stroke-width="0.9"/>
          <line id="Line_467" data-name="Line 467" y1="0.745" x2="10.164" transform="translate(0.137 10.537)" fill="none" stroke="#2e3c4b" stroke-miterlimit="10" stroke-width="0.9"/>
          <line id="Line_468" data-name="Line 468" x2="10.107" y2="0.605" transform="translate(0 6.325)" fill="none" stroke="#2e3c4b" stroke-miterlimit="10" stroke-width="0.9"/>
        </g>
        <g id="Group_120" data-name="Group 120" transform="translate(97.87 188.024)">
          <path id="Path_947" data-name="Path 947" d="M77.038,414.664s-.245-13.619.425-14.615c1.014-1.508,2.832-1.54,4.5-1.508,2.635.051,4.316.737,4.775,1.352s0,14.771,0,14.771Z" transform="translate(-76.773 -398.534)" fill="none" stroke="#2e3c4b" stroke-miterlimit="10" stroke-width="0.9"/>
          <line id="Line_469" data-name="Line 469" x1="0.858" y2="16.1" transform="translate(4.912 0.029)" fill="none" stroke="#2e3c4b" stroke-miterlimit="10" stroke-width="0.9"/>
          <line id="Line_470" data-name="Line 470" x2="10.164" y2="0.643" transform="translate(0 11.277)" fill="none" stroke="#2e3c4b" stroke-miterlimit="10" stroke-width="0.9"/>
          <line id="Line_471" data-name="Line 471" y1="0.396" x2="9.884" transform="translate(0.28 5.371)" fill="none" stroke="#2e3c4b" stroke-miterlimit="10" stroke-width="0.9"/>
        </g>
        <path id="Path_948" data-name="Path 948" d="M27.01,465.724s-.506-85.743,0-86.589,34.332-11.67,35.346-11.5,34.915,10.6,35.591,11.276c.25,1.33,1.446,84.952,1.107,85.8S28.532,466.907,27.01,465.724Z" transform="translate(-19.793 -235.678)" fill="none" stroke="#2e3c4b" stroke-miterlimit="10" stroke-width="0.9"/>
        <path id="Path_949" data-name="Path 949" d="M101.086,381.112a8.008,8.008,0,0,0,3.322.653c2.442-.327,4.382-.936,4.043-1.789s-39.743-15.214-43.633-15.045-40.909,12.775-41.7,14.522c-.72,1.595.708,2.988,2.988,2.988a16.307,16.307,0,0,0,4.041-1.1" transform="translate(-22.932 -237.879)" fill="none" stroke="#2e3c4b" stroke-miterlimit="10" stroke-width="0.9"/>
        <path id="Path_950" data-name="Path 950" d="M43.371,389.488c.631.377,9.832.4,12.347-.134,1.183-1.072.506-14.2,0-15.007s-3.233-1.609-6.352-1.475-5.487.671-5.995,1.207S43.008,388.278,43.371,389.488Z" transform="translate(-6.553 -231.423)" fill="none" stroke="#2e3c4b" stroke-miterlimit="10" stroke-width="0.9"/>
        <g id="Group_121" data-name="Group 121" transform="translate(36.371 174.236)">
          <path id="Path_951" data-name="Path 951" d="M43.165,393.387c.372-.818,4.981-2.451,7.1-2.451s6.225,1.1,6.666,2.029,0,21.648,0,21.648H43.165S42.743,394.318,43.165,393.387Z" transform="translate(-42.977 -390.935)" fill="none" stroke="#2e3c4b" stroke-miterlimit="10" stroke-width="0.9"/>
          <line id="Line_472" data-name="Line 472" x1="0.556" y1="23.677" transform="translate(7.286)" fill="none" stroke="#2e3c4b" stroke-miterlimit="10" stroke-width="0.9"/>
          <line id="Line_473" data-name="Line 473" y1="0.868" x2="14.148" transform="translate(0 7.335)" fill="none" stroke="#2e3c4b" stroke-miterlimit="10" stroke-width="0.9"/>
          <line id="Line_474" data-name="Line 474" x2="14.148" y2="0.653" transform="translate(0 15.813)" fill="none" stroke="#2e3c4b" stroke-miterlimit="10" stroke-width="0.9"/>
        </g>
        <line id="Line_475" data-name="Line 475" x2="121.814" transform="translate(7.429 211.364)" fill="none" stroke="#2e3c4b" stroke-miterlimit="10" stroke-width="0.9"/>
        <line id="Line_476" data-name="Line 476" y1="1.509" x2="52.133" transform="translate(77.687 90.352)" fill="none" stroke="#2e3c4b" stroke-miterlimit="10" stroke-width="0.9"/>
        <line id="Line_477" data-name="Line 477" x2="44.572" y2="0.65" transform="translate(85.519 142.097)" fill="none" stroke="#2e3c4b" stroke-miterlimit="10" stroke-width="0.9"/>
        <line id="Line_478" data-name="Line 478" y1="2.575" x2="71.653" transform="translate(6.993 160.199)" fill="none" stroke="#2e3c4b" stroke-miterlimit="10" stroke-width="0.9"/>
        <path id="Path_952" data-name="Path 952" d="M79.244,301.354a30.677,30.677,0,0,0,0-3.89c-.154-1.183.352-2.761,1.256-2.536s1.635,1.07,1.747,2.762a13.733,13.733,0,0,1-.4,3.665" transform="translate(22.907 -294.906)" fill="none" stroke="#2e3c4b" stroke-miterlimit="10" stroke-width="0.9"/>
        <line id="Line_479" data-name="Line 479" y1="3.671" x2="8.733" transform="translate(142.085 22.74)" fill="none" stroke="#2e3c4b" stroke-miterlimit="10" stroke-width="0.9"/>
        <line id="Line_480" data-name="Line 480" x2="10.953" transform="translate(149.93 32.775)" fill="none" stroke="#2e3c4b" stroke-miterlimit="10" stroke-width="0.9"/>
        <line id="Line_481" data-name="Line 481" x2="9.769" y2="4.144" transform="translate(141.049 41.508)" fill="none" stroke="#2e3c4b" stroke-miterlimit="10" stroke-width="0.9"/>
        <line id="Line_482" data-name="Line 482" x1="6.512" y1="2.547" transform="translate(60.531 20.49)" fill="none" stroke="#2e3c4b" stroke-miterlimit="10" stroke-width="0.9"/>
        <line id="Line_483" data-name="Line 483" x1="13.617" y1="0.669" transform="translate(50.171 31.154)" fill="none" stroke="#2e3c4b" stroke-miterlimit="10" stroke-width="0.9"/>
        <line id="Line_484" data-name="Line 484" x1="7.401" y2="2.812" transform="translate(54.759 42.84)" fill="none" stroke="#2e3c4b" stroke-miterlimit="10" stroke-width="0.9"/>
      </g>
    </g>
  </g>
</svg>
