<svg xmlns="http://www.w3.org/2000/svg" width="300.383" height="423.397" viewBox="0 0 300.383 423.397">
  <g id="SLIDER" transform="translate(2211 -4457.603)">
    <g id="_7_JARO" data-name="7 JARO" transform="translate(-2025.194 3951.938)">
      <g id="Group_141" data-name="Group 141" transform="translate(-185.805 505.665)">
        <rect id="Rectangle_34" data-name="Rectangle 34" width="300.383" height="423.397" fill="#fcf8f7"/>
      </g>
      <path id="Path_1146" data-name="Path 1146" d="M107.691,655.591c5.56-.227,3.039,12.207,6.886,15.42V837.184H-185.8V619.072c34.295.452,61.021-.947,95.316-.5,2.181.029,9.151-.494,11.094.5,3.17,1.617,10.488,20.043,13.469,25.148,3.228,5.525,5.144.446,10.764,3.511,20.134,10.98,32.811,32.284,39.408,54.25a8.62,8.62,0,0,0,2.17,4.228c1.831,1.588,4.576,1.292,6.97.9L.816,705.9c1.9-.308,4.048-.777,5.03-2.435.842-1.421.543-3.308,1.388-4.727,1.749-2.934,7.162-2.2,8.318-5.411.417-1.158.076-2.45.283-3.662,1.02-5.97,12.045-3.769,14.533-9.291,1.011-2.246.171-5.137,1.622-7.126.96-1.317,2.651-1.834,4.222-2.272,6.059-1.682,12.876-3.286,18.347-.189,1.807,1.023,3.337,2.508,5.222,3.373,6.189,2.842,16.066-2.87,14.736-9.548-.49-2.46-2.731-3.208-2.624-5.983s5.654-2.775,6.828-4.375-1.067-4.587.319-7.681,6.189.426,7.683-.533.214-8.111,2.881-8.75,2.373,1.787,4.3,2.533,2.054-1.307,4.4,1.042-1.613,8.682,2.989,9.762C104.085,651.287,102.463,655.805,107.691,655.591Z" transform="translate(0 91.879)" fill="#e9ccbd"/>
      <text id="JAROSŁAWIEC" transform="translate(-40.578 874.04)" fill="#2e3c4b" font-size="17" font-family="SulphurPoint-Bold, Sulphur Point" font-weight="700" letter-spacing="0.025em"><tspan x="-51.493" y="0">JAROSŁAWIEC</tspan></text>
      <g id="jarosławiec_kolor" data-name="jarosławiec kolor" transform="translate(-73.209 582.952)">
        <path id="Path_1147" data-name="Path 1147" d="M-98.407,548.271c1.874-.374,13.923,7.746,14.008,8.681s-21.368,2.145-22.961,1.292S-99.231,548.436-98.407,548.271Z" transform="translate(136.963 -548.258)" fill="#2e3c4b"/>
        <path id="Path_1148" data-name="Path 1148" d="M-118.883,632.07c1.492-1.243,18.592-3.23,19.3-2.361s2.167,23.781.831,24-22.809,1.838-24.6.474S-120.372,633.313-118.883,632.07Z" transform="translate(123.753 -482.086)" fill="#ae4426"/>
        <path id="Path_1149" data-name="Path 1149" d="M-120.954,645.837c.916-1.462,15.407-3.6,15.9-2.361s4.349,45.505,3.355,46.844-15.064,3.045-16.812,2.4S-122.23,647.873-120.954,645.837Z" transform="translate(125.701 -471.002)" fill="#f1ece9"/>
        <path id="Path_1150" data-name="Path 1150" d="M-104.324,568.266c2.849-3.511,20-2.1,20.23,0s14,182.42,11.426,184.567-35.966,4.536-37.336,0c-.713-2.359-3.166-51.147-1.876-97.975C-110.691,611.67-105.85,570.146-104.324,568.266Z" transform="translate(133.124 -533.701)" fill="#b98255"/>
        <g id="Group_142" data-name="Group 142" transform="translate(35.466 39.857)">
          <path id="Path_1151" data-name="Path 1151" d="M-99.474,577.053c.171-.461,1.016-6.723-1.348-6.828s-2.17,6.583-2.063,6.788S-99.646,577.514-99.474,577.053Z" transform="translate(105.24 -570.223)" fill="#e7e6e2"/>
          <path id="Path_1152" data-name="Path 1152" d="M-100.408,583.41c.123-.4.733-5.77-.973-5.861s-1.564,5.651-1.488,5.826S-100.531,583.806-100.408,583.41Z" transform="translate(105.267 -564.257)" fill="#e7e6e2"/>
          <path id="Path_1153" data-name="Path 1153" d="M-100.908,604.566c.163-.655.969-9.541-1.283-9.691s-2.067,9.345-1.963,9.635S-101.071,605.221-100.908,604.566Z" transform="translate(104.208 -550.145)" fill="#e7e6e2"/>
          <path id="Path_1154" data-name="Path 1154" d="M-100.166,626.654c.163-.566.969-8.236-1.283-8.365s-2.067,8.066-1.965,8.316S-100.329,627.218-100.166,626.654Z" transform="translate(104.811 -531.073)" fill="#e7e6e2"/>
          <path id="Path_1155" data-name="Path 1155" d="M-97.308,655.525c.2-.662,1.158-9.666-1.535-9.817s-2.47,9.467-2.346,9.76S-97.5,656.189-97.308,655.525Z" transform="translate(106.614 -508.739)" fill="#e7e6e2"/>
          <path id="Path_1156" data-name="Path 1156" d="M-97.308,668.135c.2-.628,1.158-9.171-1.535-9.314s-2.47,8.982-2.346,9.261S-97.5,668.765-97.308,668.135Z" transform="translate(106.614 -498.058)" fill="#e7e6e2"/>
        </g>
      </g>
      <g id="jarosławiec-2" data-name="jarosławiec" transform="translate(-75.021 577.925)">
        <path id="Path_1157" data-name="Path 1157" d="M-108.922,697.274c1.773,3.546,19.055,1.575,22.52,1.575s15.6,1.12,17.138-1.575,0-31.188,0-36.193-.269-21.343-2.194-22.883-16.5-1.33-20.738-.945-18.267-.815-20.192,1.88-.769,18.44,0,27.124S-110.078,694.964-108.922,697.274Z" transform="translate(133.965 -470.966)" fill="none" stroke="#2e3c4b" stroke-miterlimit="10" stroke-width="0.9"/>
        <path id="Path_1158" data-name="Path 1158" d="M-111.35,661.283c-.666-2.486-2.943-46.078-.631-49.929,1.7-2.842,36.485-3.756,37.641-1.062s2.646,48.3,1.492,50.3" transform="translate(134.329 -494.012)" fill="none" stroke="#2e3c4b" stroke-miterlimit="10" stroke-width="0.9"/>
        <path id="Path_1159" data-name="Path 1159" d="M-111.48,629.936c-1.054-2.087,1.546-40.377,2.7-43.843.778-2.339,28.055-.769,29.6,0s2.441,42.517,2.41,42.874" transform="translate(135.362 -513.416)" fill="none" stroke="#2e3c4b" stroke-miterlimit="10" stroke-width="0.9"/>
        <path id="Path_1160" data-name="Path 1160" d="M-109.427,601.525c-.483-2.562,1.156-33.246,2.7-35.556,1.209-1.813,18.1-.387,21.176,1.539s3.981,31.834,3.658,34.654" transform="translate(137.164 -529.485)" fill="none" stroke="#2e3c4b" stroke-miterlimit="10" stroke-width="0.9"/>
        <path id="Path_1161" data-name="Path 1161" d="M-106.067,570s-4.291-4.705-4.291-5.378-.577-2.983,0-3.369,30.8-.577,31.092,0,.675,3.763,0,4.191-4.917,6.074-4.917,6.074" transform="translate(136.267 -532.947)" fill="none" stroke="#2e3c4b" stroke-miterlimit="10" stroke-width="0.9"/>
        <path id="Path_1162" data-name="Path 1162" d="M-106.957,570.62c-.1-.776-.288-14.825.287-15.761.762-1.236,16.173-1.923,17.841-.512s.86,15.745.633,16.645" transform="translate(139.156 -538.911)" fill="none" stroke="#2e3c4b" stroke-miterlimit="10" stroke-width="0.9"/>
        <path id="Path_1163" data-name="Path 1163" d="M-105.52,559.635s-2.566.514-2.95,0,9.753-11.807,10.909-11.936,14.01,10.92,13.732,11.3-5.024-.292-5.024-.292" transform="translate(138.005 -543.688)" fill="none" stroke="#2e3c4b" stroke-miterlimit="10" stroke-width="0.9"/>
        <path id="Path_1164" data-name="Path 1164" d="M-102.154,545.521a2.391,2.391,0,0,1,2.141,2.052c.261,1.285-.6,1.4-1.406,1.925s-2.183-1.025-2.31-1.989S-103.222,545.263-102.154,545.521Z" transform="translate(141.863 -545.488)" fill="none" stroke="#2e3c4b" stroke-miterlimit="10" stroke-width="0.9"/>
        <path id="Path_1165" data-name="Path 1165" d="M-110.474,562.942s28.878-.087,31.092.822" transform="translate(136.382 -531.272)" fill="none" stroke="#2e3c4b" stroke-miterlimit="10" stroke-width="0.9"/>
        <path id="Path_1166" data-name="Path 1166" d="M-109.684,561.012a21.653,21.653,0,0,0,.4,3.5" transform="translate(137.025 -532.842)" fill="none" stroke="#2e3c4b" stroke-miterlimit="10" stroke-width="0.9"/>
        <path id="Path_1167" data-name="Path 1167" d="M-108.453,561.012a28.422,28.422,0,0,0,0,3.5" transform="translate(137.978 -532.842)" fill="none" stroke="#2e3c4b" stroke-miterlimit="10" stroke-width="0.9"/>
        <line id="Line_573" data-name="Line 573" y2="3.513" transform="translate(33.706 28.17)" fill="none" stroke="#2e3c4b" stroke-miterlimit="10" stroke-width="0.9"/>
        <line id="Line_574" data-name="Line 574" x1="0.384" y2="3.523" transform="translate(35.536 28.17)" fill="none" stroke="#2e3c4b" stroke-miterlimit="10" stroke-width="0.9"/>
        <line id="Line_575" data-name="Line 575" y2="4.144" transform="translate(40.008 27.937)" fill="none" stroke="#2e3c4b" stroke-miterlimit="10" stroke-width="0.9"/>
        <line id="Line_576" data-name="Line 576" y2="3.731" transform="translate(41.898 27.937)" fill="none" stroke="#2e3c4b" stroke-miterlimit="10" stroke-width="0.9"/>
        <line id="Line_577" data-name="Line 577" y2="3.895" transform="translate(46.412 27.942)" fill="none" stroke="#2e3c4b" stroke-miterlimit="10" stroke-width="0.9"/>
        <line id="Line_578" data-name="Line 578" y2="4.124" transform="translate(48.626 27.956)" fill="none" stroke="#2e3c4b" stroke-miterlimit="10" stroke-width="0.9"/>
        <line id="Line_579" data-name="Line 579" y2="3.911" transform="translate(53.15 28.17)" fill="none" stroke="#2e3c4b" stroke-miterlimit="10" stroke-width="0.9"/>
        <line id="Line_580" data-name="Line 580" y2="4.323" transform="translate(55.267 28.17)" fill="none" stroke="#2e3c4b" stroke-miterlimit="10" stroke-width="0.9"/>
        <path id="Path_1168" data-name="Path 1168" d="M-104.054,553.761l.56,12.925-.56,3.772" transform="translate(141.611 -538.749)" fill="none" stroke="#2e3c4b" stroke-miterlimit="10" stroke-width="0.9"/>
        <path id="Path_1169" data-name="Path 1169" d="M-100.341,553.761v17.068" transform="translate(144.636 -538.748)" fill="none" stroke="#2e3c4b" stroke-miterlimit="10" stroke-width="0.9"/>
        <path id="Path_1170" data-name="Path 1170" d="M-101.966,692.495c-1.156.9-16.429,3.665-17.456,1.575s-3.079-48.421-2.437-49.319,15.369-2.313,15.375-1.8" transform="translate(127.009 -466.188)" fill="none" stroke="#2e3c4b" stroke-miterlimit="10" stroke-width="0.9"/>
        <path id="Path_1171" data-name="Path 1171" d="M-102.72,630.688s-13.419.475-14.188,1.374-8.214,20.535-7.83,21.818,5.135.771,5.135.771" transform="translate(124.752 -476.088)" fill="none" stroke="#2e3c4b" stroke-miterlimit="10" stroke-width="0.9"/>
        <path id="Path_1172" data-name="Path 1172" d="M-118.552,663.316s-1.412-12.665-1.156-13.05,7.316-.642,7.316-.642,1.027,11.167.9,12.065S-117.912,663.66-118.552,663.316Z" transform="translate(128.835 -460.665)" fill="none" stroke="#2e3c4b" stroke-miterlimit="10" stroke-width="0.9"/>
        <path id="Path_1173" data-name="Path 1173" d="M-119.669,652.517s-.922-5.391,2.363-5.649,4.954,5.006,4.954,5.006" transform="translate(128.796 -462.916)" fill="none" stroke="#2e3c4b" stroke-miterlimit="10" stroke-width="0.9"/>
        <line id="Line_581" data-name="Line 581" x2="1.131" y2="13.373" transform="translate(12.726 188.959)" fill="none" stroke="#2e3c4b" stroke-miterlimit="10" stroke-width="0.9"/>
        <line id="Line_582" data-name="Line 582" y1="0.359" x2="7.442" transform="translate(9.566 195.479)" fill="none" stroke="#2e3c4b" stroke-miterlimit="10" stroke-width="0.9"/>
        <path id="Path_1174" data-name="Path 1174" d="M-101.676,667.9c.41.3,4.627.441,4.839,0s-.105-8.733-2.421-8.733S-102.086,667.6-101.676,667.9Z" transform="translate(143.444 -452.889)" fill="none" stroke="#2e3c4b" stroke-miterlimit="10" stroke-width="0.9"/>
        <path id="Path_1175" data-name="Path 1175" d="M-101.688,655.4c.452.123,4.627.28,4.839,0s.136-9.205-2.027-9.311S-102.14,655.28-101.688,655.4Z" transform="translate(143.457 -463.539)" fill="none" stroke="#2e3c4b" stroke-miterlimit="10" stroke-width="0.9"/>
        <path id="Path_1176" data-name="Path 1176" d="M-103.445,626.943c.234.122,3.981.274,4.226,0s.152-8.835-2.584-8.835S-103.677,626.822-103.445,626.943Z" transform="translate(141.853 -486.333)" fill="none" stroke="#2e3c4b" stroke-miterlimit="10" stroke-width="0.9"/>
        <path id="Path_1177" data-name="Path 1177" d="M-104.128,604.413c.31.185,3.947.334,4.259-.08s-.007-9.28-2.005-9.071S-104.438,604.23-104.128,604.413Z" transform="translate(141.486 -504.947)" fill="none" stroke="#2e3c4b" stroke-miterlimit="10" stroke-width="0.9"/>
        <path id="Path_1178" data-name="Path 1178" d="M-100.242,583.358c.26-.265.586-6.07-1.042-6.175s-2.285,5.416-2,6S-100.5,583.623-100.242,583.358Z" transform="translate(142.189 -519.672)" fill="none" stroke="#2e3c4b" stroke-miterlimit="10" stroke-width="0.9"/>
        <path id="Path_1179" data-name="Path 1179" d="M-99.91,577.053c.171-.461,1.016-6.723-1.348-6.828s-2.17,6.583-2.063,6.788S-100.082,577.514-99.91,577.053Z" transform="translate(142.163 -525.339)" fill="none" stroke="#2e3c4b" stroke-miterlimit="10" stroke-width="0.9"/>
        <line id="Line_583" data-name="Line 583" y1="2.307" x2="5.713" transform="translate(65.034 11.413)" fill="none" stroke="#2e3c4b" stroke-miterlimit="10" stroke-width="0.9"/>
        <line id="Line_584" data-name="Line 584" x2="7.801" transform="translate(67.891 20.092)" fill="none" stroke="#2e3c4b" stroke-miterlimit="10" stroke-width="0.9"/>
        <line id="Line_585" data-name="Line 585" x2="3.845" y2="2.459" transform="translate(66.902 27.344)" fill="none" stroke="#2e3c4b" stroke-miterlimit="10" stroke-width="0.9"/>
        <line id="Line_586" data-name="Line 586" x1="5.384" y1="2.473" transform="translate(16.472 10.093)" fill="none" stroke="#2e3c4b" stroke-miterlimit="10" stroke-width="0.9"/>
        <path id="Path_1180" data-name="Path 1180" d="M-111.356,555.592h-6.316" transform="translate(130.519 -537.257)" fill="none" stroke="#2e3c4b" stroke-miterlimit="10" stroke-width="0.9"/>
        <line id="Line_587" data-name="Line 587" x1="3.845" y2="1.428" transform="translate(14.495 25.915)" fill="none" stroke="#2e3c4b" stroke-miterlimit="10" stroke-width="0.9"/>
        <path id="Path_1181" data-name="Path 1181" d="M-85.484,567.7c-.922-.221-1.934,3.665-1.934,3.665s-.811-4.028-1.758-3.736-2.143,2.784-2.143,2.784-.2-3.148-2.19-3.17-1.655,2.658-1.655,2.658-.677-3.078-2.138-3.161-2.384,2.722-2.384,2.722-.4-2.93-2.2-2.711-2.967,3.15-2.967,3.15.14-3-1.172-3.15-2.39,3.747-2.39,3.747" transform="translate(138.061 -528.175)" fill="none" stroke="#2e3c4b" stroke-miterlimit="10" stroke-width="0.9"/>
      </g>
    </g>
  </g>
</svg>
