<svg xmlns="http://www.w3.org/2000/svg" width="300.723" height="423.876" viewBox="0 0 300.723 423.876">
  <g id="SLIDER" transform="translate(2031 -4851.124)">
    <g id="_8_USTKA" data-name="8 USTKA" transform="translate(-2031.168 4345.459)">
      <g id="Group_147" data-name="Group 147" transform="translate(0.168 505.665)">
        <rect id="Rectangle_36" data-name="Rectangle 36" width="300.723" height="423.876" fill="#fcf8f7"/>
      </g>
      <path id="Path_1208" data-name="Path 1208" d="M300.889,653.525a18.187,18.187,0,0,0-2.4,2.643c-1.372,1.573-3.293,1.37-5.039,2.514a3.073,3.073,0,0,1-2.814.643c-1.086-.492-1.277-1.927-1.315-3.119-.038-1.243,4.393-3.675,5.023-4.745a3.076,3.076,0,0,0-.311-3.521,2.142,2.142,0,0,0-.923-.77c-2.133-1.132-2.1-.643-4.214-1.8s-5.194.042-5.014-2.364a5.564,5.564,0,0,1,2.414-3.922c1.283-.932,4.067,1.7,5.59,1.266,1.757-.507.748-4.914,4.06-5.662,2.888-.652-2.778-6.089-2.492-8.9.561-5.552-4.839-3.684-7.123-8.776-1.117-2.5,2.269-6.919,2.7-9.621.467-2.961-2.589-1.686-1.253-7.364,1.283-5.448-4.309-3.889-4.647-5.023-.867-2.918,2.227-6.289-.32-7.955s-8.511-4.49-9.955-1.811c-.565,1.048-.685,2.314-1.377,3.283a6.083,6.083,0,0,1-2.928,1.893c-4.027,1.522-1.521,6.405-5.78,6.587-2.785.118-6.947-.4-8.54,2.51-.7,1.275-.589,2.818-.808,4.253-.707,4.618-16.117,5.237-10.189,11.91,6.031,6.93.861,7.591-4.253,9.926-2.561,1.168-6.038,1.653-6.881,4.338-.832,2.654,1.735,5.7.431,8.158-1.043,1.969-3.744,2.084-5.808,2.923-4.314,1.751-5.893,8.069-2.907,11.644-9.69,3.217.912,15.127-7.166,16.12-5.29.652-2.127,6.073-3.012,7-1.215,1.273-11.3,4.069-11.688,5.786-1.5,6.58-3.873-7.6-10.435-6.016s-13.426.792-20.159.3a225.544,225.544,0,0,0-31.1-.136c-4.785.311-9.653.767-14.328-.3s-9.232-3.975-10.887-8.474c-1.177-3.2-.848-7-2.892-9.735-2.422-3.235-7.056-3.593-11.1-3.633q-36.113-.352-72.161,2.6a13.89,13.89,0,0,0-4.472.876c-2.712,1.19-4.363,3.922-5.795,6.513C11.173,677.024,5.291,684.921.168,699.425v166.04H300.889V653.525" transform="translate(0 64.075)" fill="#e9ccbd"/>
      <text id="USTKA" transform="translate(159.822 875.441)" fill="#2e3c4b" font-size="18" font-family="SulphurPoint-Bold, Sulphur Point" font-weight="700" letter-spacing="0.025em"><tspan x="-24.705" y="0">USTKA</tspan></text>
      <g id="ustka_kolor" data-name="ustka kolor" transform="translate(103.123 575.384)">
        <path id="Path_1209" data-name="Path 1209" d="M92.177,568.625c.073-.316,29.422-.381,29.845,0,.643.578.781,9.655.055,9.886-.981.311-29.216.158-29.718-.316S91.983,569.475,92.177,568.625Z" transform="translate(-28.128 -524.185)" fill="#e7e6e2"/>
        <path id="Path_1210" data-name="Path 1210" d="M59.651,595.278c1.462-3.337,51.088,1.5,53.206,2.788s2.856,25,.692,26.45-54.189,2.616-55.642,0S58.2,598.591,59.651,595.278Z" transform="translate(-56.42 -503.149)" fill="#ae4426"/>
        <path id="Path_1211" data-name="Path 1211" d="M101.449,544.064c.654-.369,3.591,4.432,2.736,5.6s-4.778,1.526-5.359,0S100.3,544.718,101.449,544.064Z" transform="translate(-22.642 -544.044)" fill="#f1ece9"/>
        <path id="Path_1212" data-name="Path 1212" d="M106.709,548.58c1.789-.454,19.283,12.135,18.993,14.1s-32.77,3.561-34.95,2.034S104.422,549.162,106.709,548.58Z" transform="translate(-29.32 -540.349)" fill="#f1ece9"/>
        <path id="Path_1213" data-name="Path 1213" d="M59.912,615.129c6.244-4.213,49.5-1.179,53.788.925,2.621,1.288,4.015,108.881,0,111.5s-53.061,1.829-55.023-.992S55.337,618.214,59.912,615.129Z" transform="translate(-56.843 -487.722)" fill="#b98255"/>
        <path id="Path_1214" data-name="Path 1214" d="M139.871,754.29c2.65-1.279-3.858-163.7-2.8-166.893s.042-11.1-.885-11.977c-1.246-1.175-45.449-2.879-46.049-.844s-3.393,9.462-2.262,11.141,4.925,20.228,5.355,22.317S93.643,750.119,95.1,752.2,134.93,756.673,139.871,754.29Z" transform="translate(-31.72 -519.885)" fill="#b98255"/>
        <path id="Path_1215" data-name="Path 1215" d="M73.341,641.018c-.69-.461-1-21.254,0-22.251s3.321-3.155,5.481-2.988,7.388,1.826,7.346,2.988.374,22.417,0,22.915S74.339,641.681,73.341,641.018Z" transform="translate(-43.89 -485.473)" fill="#fff"/>
        <path id="Path_1216" data-name="Path 1216" d="M73.334,665.275c-.732-.22-.331-22.168,0-22.749s2.907-2.821,4.983-2.9,5.977,1.577,6.765,2.574.872,22.25.291,23.08S74.164,665.524,73.334,665.275Z" transform="translate(-43.712 -465.998)" fill="#fff"/>
        <path id="Path_1217" data-name="Path 1217" d="M101.063,658.344s-.051-15.029,1.693-15,2.325,15,2.325,15Z" transform="translate(-20.732 -462.956)" fill="#fff"/>
        <path id="Path_1218" data-name="Path 1218" d="M99.968,635.305s-.051-14.32,1.693-14.291,2.325,14.291,2.325,14.291Z" transform="translate(-21.627 -481.19)" fill="#fff"/>
        <path id="Path_1219" data-name="Path 1219" d="M100.192,615.787s-.051-14.32,1.693-14.293,2.325,14.293,2.325,14.293Z" transform="translate(-21.444 -497.13)" fill="#fff"/>
      </g>
      <g id="ustka-2" data-name="ustka" transform="translate(107.288 559.201)">
        <path id="Path_1220" data-name="Path 1220" d="M60.323,612.124c-.472,41.618-.676,111.459.623,112.238,3.321,1.993,93.985.887,97.306.887" transform="translate(-58.461 -472.267)" fill="none" stroke="#2e3c4b" stroke-miterlimit="10" stroke-width="0.9"/>
        <path id="Path_1221" data-name="Path 1221" d="M61.041,597.161c1.62-2.207,48.734-1.853,51.059-1.853s4.925,28.183,2.932,30.175-54.9,1.328-55.9,0C59.135,625.484,59.309,599.517,61.041,597.161Z" transform="translate(-59.135 -486.016)" fill="none" stroke="#2e3c4b" stroke-miterlimit="10" stroke-width="0.9"/>
        <path id="Path_1222" data-name="Path 1222" d="M133.739,613.666a199.96,199.96,0,0,0-21.761-1.771c-9.686-.08-22.075.981-22.075.981s-.222-22.584-.443-23.912-2.214-4.429-2.877-6.2,0-5.535,1.106-7.748,46.937-.985,47.855,0,.067,8.147,0,8.856a17.774,17.774,0,0,1-1.8,4.427c-.663,1.108,2.99,168.266,2.99,168.266" transform="translate(-36.938 -503.583)" fill="none" stroke="#2e3c4b" stroke-miterlimit="10" stroke-width="0.9"/>
        <path id="Path_1223" data-name="Path 1223" d="M87.183,580.909s-.554-12.509,0-13.728,46.383-.332,47.048,0,.332,13.728.332,13.728" transform="translate(-36.432 -509.476)" fill="none" stroke="#2e3c4b" stroke-miterlimit="10" stroke-width="0.9"/>
        <path id="Path_1224" data-name="Path 1224" d="M86.944,568.406s44.568-.227,47.695,0" transform="translate(-36.426 -508.049)" fill="none" stroke="#2e3c4b" stroke-miterlimit="10" stroke-width="0.9"/>
        <line id="Line_594" data-name="Line 594" x2="1.001" y2="10.151" transform="translate(51.964 60.622)" fill="none" stroke="#2e3c4b" stroke-miterlimit="10" stroke-width="0.9"/>
        <line id="Line_595" data-name="Line 595" x2="0.916" y2="10.204" transform="translate(55.615 60.256)" fill="none" stroke="#2e3c4b" stroke-miterlimit="10" stroke-width="0.9"/>
        <line id="Line_596" data-name="Line 596" y2="9.885" transform="translate(59.689 60.306)" fill="none" stroke="#2e3c4b" stroke-miterlimit="10" stroke-width="0.9"/>
        <line id="Line_597" data-name="Line 597" x1="0.647" y2="9.835" transform="translate(62.761 60.357)" fill="none" stroke="#2e3c4b" stroke-miterlimit="10" stroke-width="0.9"/>
        <line id="Line_598" data-name="Line 598" x2="0.53" y2="9.941" transform="translate(69.621 60.256)" fill="none" stroke="#2e3c4b" stroke-miterlimit="10" stroke-width="0.9"/>
        <path id="Path_1225" data-name="Path 1225" d="M100.432,568.361s-.886,9.341-.8,9.835" transform="translate(-26.073 -508.004)" fill="none" stroke="#2e3c4b" stroke-miterlimit="10" stroke-width="0.9"/>
        <line id="Line_599" data-name="Line 599" x1="0.507" y2="9.929" transform="translate(77.125 60.262)" fill="none" stroke="#2e3c4b" stroke-miterlimit="10" stroke-width="0.9"/>
        <line id="Line_600" data-name="Line 600" y2="9.841" transform="translate(83.601 60.357)" fill="none" stroke="#2e3c4b" stroke-miterlimit="10" stroke-width="0.9"/>
        <line id="Line_601" data-name="Line 601" x1="1.01" y2="9.835" transform="translate(86.922 60.357)" fill="none" stroke="#2e3c4b" stroke-miterlimit="10" stroke-width="0.9"/>
        <path id="Path_1226" data-name="Path 1226" d="M111.67,568.361s-.765,8.215-.847,10.516" transform="translate(-16.927 -508.004)" fill="none" stroke="#2e3c4b" stroke-miterlimit="10" stroke-width="0.9"/>
        <path id="Path_1227" data-name="Path 1227" d="M108.9,557.987c.256.948-.176,18.795-.176,18.795v10.36" transform="translate(-18.644 -516.475)" fill="none" stroke="#2e3c4b" stroke-miterlimit="10" stroke-width="0.9"/>
        <path id="Path_1228" data-name="Path 1228" d="M92.457,576.527S91.146,558.8,91.478,558.3" transform="translate(-32.768 -516.22)" fill="none" stroke="#2e3c4b" stroke-miterlimit="10" stroke-width="0.9"/>
        <path id="Path_1229" data-name="Path 1229" d="M107.863,547.722c2.432-.256,18.967,16.605,17.721,18.348s-34.039,1.457-35.949.4S105.5,547.971,107.863,547.722Z" transform="translate(-34.346 -524.86)" fill="none" stroke="#2e3c4b" stroke-miterlimit="10" stroke-width="0.9"/>
        <path id="Path_1230" data-name="Path 1230" d="M100.984,543a6.7,6.7,0,0,0,1.034,3.737c.708.747,2.556,2.458,1.539,4.151s-4.233,1-5.146.416-.167-3.82,1.079-4.9A6.1,6.1,0,0,0,100.984,543Z" transform="translate(-27.394 -528.713)" fill="none" stroke="#2e3c4b" stroke-miterlimit="10" stroke-width="0.9"/>
        <path id="Path_1231" data-name="Path 1231" d="M72.451,641.018c-.69-.461-1-21.254,0-22.251s3.321-3.155,5.481-2.988,7.388,1.826,7.346,2.988.374,22.417,0,22.915S73.449,641.681,72.451,641.018Z" transform="translate(-48.781 -469.291)" fill="none" stroke="#2e3c4b" stroke-miterlimit="10" stroke-width="0.9"/>
        <line id="Line_602" data-name="Line 602" x2="13.385" y2="0.879" transform="translate(23.112 154.298)" fill="none" stroke="#2e3c4b" stroke-miterlimit="10" stroke-width="0.9"/>
        <line id="Line_603" data-name="Line 603" y1="0.192" x2="13.543" transform="translate(23.112 161.155)" fill="none" stroke="#2e3c4b" stroke-miterlimit="10" stroke-width="0.9"/>
        <line id="Line_604" data-name="Line 604" x2="13.066" y2="1.006" transform="translate(23.432 164.689)" fill="none" stroke="#2e3c4b" stroke-miterlimit="10" stroke-width="0.9"/>
        <line id="Line_605" data-name="Line 605" x2="0.699" y2="25.968" transform="translate(29.43 146.517)" fill="none" stroke="#2e3c4b" stroke-miterlimit="10" stroke-width="0.9"/>
        <path id="Path_1232" data-name="Path 1232" d="M71.61,684.885s-.441-18.953,0-20.17,5.041-3.477,7.808-3.255,4.921,1.262,5.808,2.59,1.106,20.924,1.106,20.924" transform="translate(-49.108 -431.992)" fill="none" stroke="#2e3c4b" stroke-miterlimit="10" stroke-width="0.9"/>
        <path id="Path_1233" data-name="Path 1233" d="M72.447,664.875c-.734-.22-.332-22.168,0-22.747s2.9-2.823,4.981-2.907S83.4,640.8,84.195,641.8s.872,22.25.291,23.08S73.277,665.124,72.447,664.875Z" transform="translate(-48.602 -450.142)" fill="none" stroke="#2e3c4b" stroke-miterlimit="10" stroke-width="0.9"/>
        <line id="Line_606" data-name="Line 606" x2="12.527" y2="0.903" transform="translate(23.734 197.06)" fill="none" stroke="#2e3c4b" stroke-miterlimit="10" stroke-width="0.9"/>
        <line id="Line_607" data-name="Line 607" x2="12.711" transform="translate(23.55 203.775)" fill="none" stroke="#2e3c4b" stroke-miterlimit="10" stroke-width="0.9"/>
        <line id="Line_608" data-name="Line 608" x2="12.711" y2="0.272" transform="translate(23.55 208.65)" fill="none" stroke="#2e3c4b" stroke-miterlimit="10" stroke-width="0.9"/>
        <line id="Line_609" data-name="Line 609" x2="0.322" y2="26.015" transform="translate(29.584 189.15)" fill="none" stroke="#2e3c4b" stroke-miterlimit="10" stroke-width="0.9"/>
        <path id="Path_1234" data-name="Path 1234" d="M60.005,659.654s46.6-1.219,53.461-1.359c6.505-.133,42.868,2.574,44.75,2.906" transform="translate(-58.425 -434.568)" fill="none" stroke="#2e3c4b" stroke-miterlimit="10" stroke-width="0.9"/>
        <path id="Path_1235" data-name="Path 1235" d="M60.005,635.079s48.294,1.453,51.837,1.675,41.664-2.338,44.874-1.675" transform="translate(-58.425 -453.612)" fill="none" stroke="#2e3c4b" stroke-miterlimit="10" stroke-width="0.9"/>
        <line id="Line_610" data-name="Line 610" x2="0.416" y2="113.82" transform="translate(54.733 139.468)" fill="none" stroke="#2e3c4b" stroke-miterlimit="10" stroke-width="0.9"/>
        <path id="Path_1236" data-name="Path 1236" d="M99.625,617.2s.563-17.73,2.162-17.439,2.471,17.439,2.471,17.439Z" transform="translate(-26.071 -482.363)" fill="none" stroke="#2e3c4b" stroke-miterlimit="10" stroke-width="0.9"/>
        <path id="Path_1237" data-name="Path 1237" d="M99.619,636.59s-.272-17.294,2.334-17.149,2.316,17.149,2.316,17.149Z" transform="translate(-26.083 -466.292)" fill="none" stroke="#2e3c4b" stroke-miterlimit="10" stroke-width="0.9"/>
        <path id="Path_1238" data-name="Path 1238" d="M100.443,658.344s-.051-15.029,1.693-15,2.325,15,2.325,15Z" transform="translate(-25.403 -446.773)" fill="none" stroke="#2e3c4b" stroke-miterlimit="10" stroke-width="0.9"/>
        <path id="Path_1239" data-name="Path 1239" d="M87.91,586.407h2.461s-.405-9.368,1.339-9.223,3.1,9.223,3.1,9.223h2.156s1.163-10.774,3.052-10.484,2.325,10.484,2.325,10.484h3.446s.467-9.594,2.667-9.3,2.462,9.3,2.462,9.3l3.924.071s1.439-9.236,3.5-8.64,1.907,8.04,1.907,8.04l3.2.6s-.727-10.554,2.035-10.518,3.094,10.518,3.094,10.518l3.86.071" transform="translate(-35.637 -501.833)" fill="none" stroke="#2e3c4b" stroke-miterlimit="10" stroke-width="0.9"/>
        <path id="Path_1240" data-name="Path 1240" d="M99.669,549.425l-.045-12.109-.008-2.18" transform="translate(-26.079 -535.135)" fill="none" stroke="#2e3c4b" stroke-miterlimit="10" stroke-width="0.9"/>
        <path id="Path_1241" data-name="Path 1241" d="M99.665,542.485s8.166-.218,8.166-.509-2.471-2.323-2.543-2.832,2.325-1.744,2.18-2.4-7.846,0-7.846,0" transform="translate(-26.074 -534.057)" fill="none" stroke="#2e3c4b" stroke-miterlimit="10" stroke-width="0.9"/>
        <line id="Line_611" data-name="Line 611" x2="8.248" y2="0.926" transform="translate(69.403 11.117)" fill="none" stroke="#2e3c4b" stroke-miterlimit="10" stroke-width="0.9"/>
        <line id="Line_612" data-name="Line 612" y1="3.161" x2="7.63" transform="translate(106.787 35.859)" fill="none" stroke="#2e3c4b" stroke-miterlimit="10" stroke-width="0.9"/>
        <line id="Line_613" data-name="Line 613" x2="8.175" transform="translate(108.64 46.976)" fill="none" stroke="#2e3c4b" stroke-miterlimit="10" stroke-width="0.9"/>
        <line id="Line_614" data-name="Line 614" x2="9.373" y2="3.706" transform="translate(109.948 55.042)" fill="none" stroke="#2e3c4b" stroke-miterlimit="10" stroke-width="0.9"/>
        <line id="Line_615" data-name="Line 615" x1="6.322" y1="4.087" transform="translate(35.615 33.352)" fill="none" stroke="#2e3c4b" stroke-miterlimit="10" stroke-width="0.9"/>
        <line id="Line_616" data-name="Line 616" x1="9.046" y2="0.654" transform="translate(29.729 45.014)" fill="none" stroke="#2e3c4b" stroke-miterlimit="10" stroke-width="0.9"/>
        <line id="Line_617" data-name="Line 617" x1="6.213" y2="3.161" transform="translate(32.018 55.042)" fill="none" stroke="#2e3c4b" stroke-miterlimit="10" stroke-width="0.9"/>
        <path id="Path_1242" data-name="Path 1242" d="M96.1,558.476V576.7l-.385,9.885" transform="translate(-29.262 -516.076)" fill="none" stroke="#2e3c4b" stroke-miterlimit="10" stroke-width="0.9"/>
        <path id="Path_1243" data-name="Path 1243" d="M102.87,558.462v17.882l.664,9.935" transform="translate(-23.421 -516.087)" fill="none" stroke="#2e3c4b" stroke-miterlimit="10" stroke-width="0.9"/>
      </g>
    </g>
  </g>
</svg>
