<svg xmlns="http://www.w3.org/2000/svg" width="353.012" height="496" viewBox="0 0 353.012 496">
  <g id="_8" data-name="8" transform="translate(9537.012 -13343)">
    <rect id="Rectangle_276" data-name="Rectangle 276" width="352" height="496" transform="translate(-9536 13343)" fill="#fff"/>
    <g id="ustka" transform="translate(-12633.499 13004.386)">
      <path id="Path_2745" data-name="Path 2745" d="M3449.5,569.112a21.389,21.389,0,0,0-2.816,3.1c-1.612,1.846-3.866,1.608-5.916,2.95-.988.648-2.227,1.244-3.3.757-1.276-.578-1.5-2.263-1.543-3.663-.046-1.458,5.156-4.312,5.895-5.57a3.614,3.614,0,0,0-.364-4.132,2.519,2.519,0,0,0-1.084-.9c-2.5-1.328-2.46-.755-4.947-2.11s-6.1.049-5.885-2.777a6.532,6.532,0,0,1,2.834-4.6c1.5-1.095,4.774,2,6.562,1.486,2.062-.594.878-5.769,4.765-6.647,3.392-.766-3.26-7.147-2.926-10.451.66-6.517-5.681-4.323-8.359-10.3-1.313-2.93,2.661-8.124,3.162-11.295.549-3.474-3.037-1.98-1.469-8.644,1.505-6.4-5.06-4.565-5.455-5.9-1.017-3.425,2.613-7.382-.376-9.34s-9.992-5.27-11.686-2.124c-.663,1.23-.8,2.715-1.617,3.852a7.129,7.129,0,0,1-3.438,2.223c-4.727,1.787-1.785,7.52-6.785,7.732-3.268.139-8.153-.469-10.026,2.947-.82,1.5-.688,3.307-.946,4.993-.832,5.42-18.921,6.146-11.962,13.98,7.08,8.134,1.01,8.912-4.993,11.652-3.005,1.371-7.089,1.939-8.077,5.092-.977,3.117,2.035,6.692.506,9.577-1.225,2.31-4.4,2.446-6.818,3.43-5.066,2.057-6.917,9.473-3.412,13.669-11.374,3.778,1.071,17.758-8.414,18.924-6.209.765-2.5,7.129-3.533,8.216-1.428,1.494-13.26,4.776-13.72,6.791-1.766,7.725-4.547-8.919-12.251-7.062s-15.761.93-23.663.347a264.557,264.557,0,0,0-36.512-.16c-5.617.364-11.332.9-16.821-.351s-10.836-4.666-12.778-9.95c-1.382-3.758-1-8.219-3.4-11.426-2.842-3.8-8.282-4.218-13.025-4.265q-42.4-.414-84.708,3.058a16.294,16.294,0,0,0-5.252,1.028c-3.183,1.395-5.12,4.6-6.8,7.645-8.737,15.8-15.642,25.072-21.656,42.1V817.9H3449.5V569.112" transform="translate(0 16.389)" fill="#e6c2b0"/>
      <g id="Group_470" data-name="Group 470" transform="translate(3253.498 759.31)">
        <path id="Path_2746" data-name="Path 2746" d="M3231.911,716.86a4.943,4.943,0,0,1-1.591-1.1,5.206,5.206,0,0,1-1.067-1.622,4.928,4.928,0,0,1-.385-1.921v-9.265h1.815v9.265a3.2,3.2,0,0,0,.235,1.217,3.076,3.076,0,0,0,.683,1.023,2.97,2.97,0,0,0,1,.694,3.14,3.14,0,0,0,2.434,0,3.2,3.2,0,0,0,1.025-.694,3.079,3.079,0,0,0,.683-1.023,3.191,3.191,0,0,0,.235-1.217v-9.265h1.793v9.265a4.923,4.923,0,0,1-.384,1.921,5.185,5.185,0,0,1-1.067,1.622,4.938,4.938,0,0,1-1.591,1.1,4.819,4.819,0,0,1-3.821,0Z" transform="translate(-3228.869 -702.866)" fill="#212e3b"/>
        <path id="Path_2747" data-name="Path 2747" d="M3246.636,705.932a2.342,2.342,0,0,0-.95-.843,3.387,3.387,0,0,0-1.441-.267,2.7,2.7,0,0,0-2.029.619,2.172,2.172,0,0,0-.555,1.6,2.33,2.33,0,0,0,.172.971,1.456,1.456,0,0,0,.512.608,3.567,3.567,0,0,0,1.686.47,11.806,11.806,0,0,1,2.019.331,5.4,5.4,0,0,1,1.44.609,3.372,3.372,0,0,1,1.56,3.074,3.749,3.749,0,0,1-.322,1.537,4.249,4.249,0,0,1-.9,1.3,4.293,4.293,0,0,1-1.613.982,5.907,5.907,0,0,1-1.932.32,5.019,5.019,0,0,1-3.608-1.281,5.076,5.076,0,0,1-1.388-3.075l.043-.02h1.879a2.794,2.794,0,0,0,.77,1.687,3.174,3.174,0,0,0,2.241.769,3.368,3.368,0,0,0,2.134-.619,1.94,1.94,0,0,0,.79-1.6,2.357,2.357,0,0,0-.116-.779,1.333,1.333,0,0,0-.437-.587,5.411,5.411,0,0,0-2.713-.7,4.9,4.9,0,0,1-3.073-1.174,3.72,3.72,0,0,1-1.046-2.818,4.008,4.008,0,0,1,1.132-2.967,5.175,5.175,0,0,1,6.789.149,5.356,5.356,0,0,1,1.323,3.074h-1.921A3.328,3.328,0,0,0,3246.636,705.932Z" transform="translate(-3226.93 -702.879)" fill="#212e3b"/>
        <path id="Path_2748" data-name="Path 2748" d="M3253.825,704.728v12.384h-1.879V704.728h-3.438v-1.813h8.753v1.813Z" transform="translate(-3225.215 -702.872)" fill="#212e3b"/>
        <path id="Path_2749" data-name="Path 2749" d="M3264.424,717.109l-4.588-5.23v5.23h-1.879V702.933h1.879v5.4l4.5-5.4h2.477l-6,7.195,6.148,6.981Z" transform="translate(-3223.457 -702.869)" fill="#212e3b"/>
        <path id="Path_2750" data-name="Path 2750" d="M3276.513,717.109l-1.751-5h-4.44l-1.751,5h-2.028l4.933-14.176h2.134l4.933,14.176Zm-3.971-11.422-1.623,4.633h3.224Z" transform="translate(-3221.86 -702.869)" fill="#212e3b"/>
      </g>
      <g id="ustka_kolor" data-name="ustka kolor" transform="translate(3217.345 418.558)">
        <path id="Path_2751" data-name="Path 2751" d="M3261.81,459.609c.085-.371,34.539-.447,35.036,0,.753.678.917,11.335.064,11.6-1.152.364-34.3.186-34.886-.371S3261.582,460.607,3261.81,459.609Z" transform="translate(-3186.625 -407.443)" fill="#e3e1dc"/>
        <path id="Path_2752" data-name="Path 2752" d="M3202.006,506.973c1.718-3.918,59.971,1.758,62.458,3.276s3.352,29.342.812,31.047-63.612,3.071-65.318,0S3200.3,510.863,3202.006,506.973Z" transform="translate(-3198.214 -398.826)" fill="#9f311b"/>
        <path id="Path_2753" data-name="Path 2753" d="M3276.887,415.6c.767-.434,4.215,5.2,3.212,6.568s-5.609,1.791-6.292,0S3275.532,416.369,3276.887,415.6Z" transform="translate(-3184.377 -415.578)" fill="#efe8e5"/>
        <path id="Path_2754" data-name="Path 2754" d="M3277.959,423.727c2.1-.534,22.637,14.244,22.3,16.548s-38.468,4.18-41.028,2.388S3275.275,424.409,3277.959,423.727Z" transform="translate(-3187.113 -414.064)" fill="#efe8e5"/>
        <path id="Path_2755" data-name="Path 2755" d="M3201.989,542.066c7.33-4.943,58.112-1.383,63.14,1.086,3.077,1.511,4.712,127.814,0,130.885s-62.288,2.147-64.591-1.165S3196.62,545.687,3201.989,542.066Z" transform="translate(-3198.387 -392.507)" fill="#ad6e42"/>
        <path id="Path_2756" data-name="Path 2756" d="M3315.052,680.843c3.111-1.5-4.529-192.158-3.288-195.911s.05-13.036-1.038-14.059c-1.465-1.379-53.353-3.379-54.056-.99s-3.984,11.107-2.655,13.078,5.78,23.745,6.286,26.2.483,166.791,2.2,169.229S3309.253,683.642,3315.052,680.843Z" transform="translate(-3188.095 -405.682)" fill="#ad6e42"/>
        <path id="Path_2757" data-name="Path 2757" d="M3227.653,574.175c-.81-.541-1.169-24.951,0-26.12s3.9-3.7,6.433-3.508,8.672,2.144,8.625,3.508.439,26.315,0,26.9S3228.823,574.954,3227.653,574.175Z" transform="translate(-3193.081 -391.586)" fill="#fff"/>
        <path id="Path_2758" data-name="Path 2758" d="M3227.782,617.536c-.861-.258-.39-26.022,0-26.7s3.411-3.314,5.847-3.411,7.017,1.853,7.943,3.022,1.024,26.119.342,27.094S3228.757,617.827,3227.782,617.536Z" transform="translate(-3193.008 -383.608)" fill="#fff"/>
        <path id="Path_2759" data-name="Path 2759" d="M3277.894,611.722s-.061-17.641,1.987-17.606,2.729,17.606,2.729,17.606Z" transform="translate(-3183.595 -382.362)" fill="#fff"/>
        <path id="Path_2760" data-name="Path 2760" d="M3275.925,570.744s-.061-16.811,1.987-16.778,2.73,16.778,2.73,16.778Z" transform="translate(-3183.961 -389.832)" fill="#fff"/>
        <path id="Path_2761" data-name="Path 2761" d="M3276.328,535.648s-.061-16.81,1.986-16.777,2.73,16.777,2.73,16.777Z" transform="translate(-3183.886 -396.361)" fill="#fff"/>
      </g>
      <g id="ustka-2" data-name="ustka" transform="translate(3221.829 399.559)">
        <path id="Path_2762" data-name="Path 2762" d="M3257.75,671.539c-33.443,0-51.13-.486-52.744-1.455-2.342-1.405-.943-130.8-.927-132.105l.806.01c-.587,51.795-.7,127.99.607,131.441,1.713.754,18.524,1.842,109.161.987,2.666-.025,4.353-.042,4.785-.042v.808c-.431,0-2.116.015-4.779.04Q3281.122,671.539,3257.75,671.539Z" transform="translate(-3201.892 -373.807)" fill="#212e3b"/>
        <path id="Path_2763" data-name="Path 2763" d="M3239.788,545.087c-12.712,0-26.188-.337-32.488-.784-4.668-.331-4.89-.625-5.05-.84l-.082-.109v-.136c.021-3.132.266-30.691,2.313-33.481h0c1.575-2.143,33.041-2.455,59.149-2.347l1.115,0c.638,0,1.043.8,1.291,1.4,2.36,5.7,4.7,32.453,2.437,34.714C3267.315,544.665,3254.031,545.087,3239.788,545.087Zm-36.81-2.07c1.544.589,15.893,1.174,32.437,1.264,21.2.122,31.711-.616,32.488-1.346,1.607-1.607.363-22.221-1.9-31.51-.738-3.026-1.249-3.219-1.27-3.226l-1.105,0c-41.713-.173-57.561.924-58.5,2.017C3203.544,512.387,3203.041,534.425,3202.978,543.018Z" transform="translate(-3202.168 -379.502)" fill="#212e3b"/>
        <path id="Path_2764" data-name="Path 2764" d="M3310.218,683.675c-.524-24.006-2.559-118.144-3.3-167.372a233.951,233.951,0,0,0-25.357-2.058c-11.257-.1-25.731,1.136-25.876,1.149l-.434.037,0-.434c-.09-9.159-.313-26.8-.515-28.007a18.733,18.733,0,0,0-1.762-3.909,32.919,32.919,0,0,1-1.6-3.292c-.833-2.22.007-6.8,1.315-9.418.162-.323.6-.663,2.672-.961,9.229-1.333,52.758-.636,54.158.866.276.3,1.121,1.205.137,10.411l-.031.3a21.151,21.151,0,0,1-2.17,5.366c-.528,2.557,2.1,130.189,3.565,197.306Zm-29.873-170.242c.413,0,.819,0,1.225,0a234.552,234.552,0,0,1,25.338,2.049c-.262-17.557-.353-29.2-.141-29.55a20.628,20.628,0,0,0,2.059-5.029l.032-.307c.878-8.2.28-9.557.075-9.775-.843-.422-12.954-1.089-27.818-1.281-18.223-.238-27.045.434-27.711,1.2-1.2,2.4-2.022,6.758-1.273,8.758a32.729,32.729,0,0,0,1.555,3.2,18.385,18.385,0,0,1,1.844,4.152c.247,1.48.485,24.136.522,27.7C3258.457,514.359,3270.4,513.433,3280.345,513.433Z" transform="translate(-3193.075 -386.696)" fill="#212e3b"/>
        <path id="Path_2765" data-name="Path 2765" d="M3252.444,472.983c-.067-1.512-.634-14.823.036-16.3a.681.681,0,0,1,.421-.331c2.09-.74,18.878-.678,28.7-.575,8.706.091,26.036.4,26.654.713.276.138,1.01.5.613,16.484l-.806-.019c.172-6.93.142-14.663-.241-15.758-3.1-.528-51.914-1.147-54.638-.093-.4,1.344-.177,10.34.066,15.842Zm.677-15.849Zm54.667-.011Z" transform="translate(-3192.868 -389.112)" fill="#212e3b"/>
        <path id="Path_2766" data-name="Path 2766" d="M3252.51,459.783l0-.806c2.137-.012,52.377-.263,56.022,0l-.058.8C3304.857,459.519,3253.031,459.78,3252.51,459.783Z" transform="translate(-3192.803 -388.527)" fill="#212e3b"/>
        <rect id="Rectangle_451" data-name="Rectangle 451" width="0.808" height="11.974" transform="translate(61.001 71.204) rotate(-5.634)" fill="#212e3b"/>
        <rect id="Rectangle_452" data-name="Rectangle 452" width="0.807" height="12.026" transform="translate(65.287 70.771) rotate(-5.128)" fill="#212e3b"/>
        <rect id="Rectangle_453" data-name="Rectangle 453" width="0.806" height="11.604" transform="translate(70.068 70.794)" fill="#212e3b"/>
        <rect id="Rectangle_454" data-name="Rectangle 454" width="11.57" height="0.808" transform="translate(73.673 82.371) rotate(-86.219)" fill="#212e3b"/>
        <rect id="Rectangle_455" data-name="Rectangle 455" width="0.807" height="11.686" transform="translate(81.727 70.756) rotate(-3.051)" fill="#212e3b"/>
        <path id="Path_2767" data-name="Path 2767" d="M3274.975,470.915c-.1-.586.694-9.065.939-11.649l.8.076c-.4,4.151-1,10.931-.948,11.449Z" transform="translate(-3188.624 -388.451)" fill="#212e3b"/>
        <rect id="Rectangle_456" data-name="Rectangle 456" width="11.671" height="0.807" transform="translate(90.532 82.376) rotate(-87.039)" fill="#212e3b"/>
        <rect id="Rectangle_457" data-name="Rectangle 457" width="0.806" height="11.552" transform="translate(98.137 70.853)" fill="#212e3b"/>
        <rect id="Rectangle_458" data-name="Rectangle 458" width="11.606" height="0.806" transform="translate(102.039 82.357) rotate(-84.142)" fill="#212e3b"/>
        <path id="Path_2768" data-name="Path 2768" d="M3295.909,471.665l-.807-.03c.1-2.682.987-12.272,1-12.369l.8.076C3296.893,459.438,3296,469.006,3295.909,471.665Z" transform="translate(-3184.878 -388.451)" fill="#212e3b"/>
        <path id="Path_2769" data-name="Path 2769" d="M3292.127,474.888h-.805V462.725c.2-8.376.427-21.126.218-21.957l.778-.21c.308,1.137-.139,20.028-.191,22.177Z" transform="translate(-3185.581 -391.932)" fill="#212e3b"/>
        <path id="Path_2770" data-name="Path 2770" d="M3261.432,462.669c-.707-9.557-1.468-21.071-1.083-21.65l.672.448c-.185.805.621,13.1,1.215,21.142Z" transform="translate(-3191.363 -391.846)" fill="#212e3b"/>
        <path id="Path_2771" data-name="Path 2771" d="M3278.82,445.608c-10.289,0-20.683-.438-21.7-1a.8.8,0,0,1-.348-.954c.682-3.352,18.9-21.488,21.9-21.8h0c.028,0,.058,0,.089,0,3.094,0,17.75,15.062,20.588,19.932.653,1.12.807,1.813.5,2.248C3299.023,445.182,3288.973,445.608,3278.82,445.608Zm-.059-22.955c-1.973.208-16.29,13.647-20.337,19.554-.948,1.385-.869,1.73-.866,1.745.8.42,9.432.9,20.98.9,13.373-.014,20.083-.685,20.66-1.3,0-.009.189-.535-1.713-3.105-4.9-6.625-16.64-17.794-18.673-17.794l-.051,0Z" transform="translate(-3192.013 -395.413)" fill="#212e3b"/>
        <path id="Path_2772" data-name="Path 2772" d="M3276.129,425.065a7.218,7.218,0,0,1-3.411-.824,1.687,1.687,0,0,1-.652-1.392,7.081,7.081,0,0,1,1.872-5,6.346,6.346,0,0,0,1.582-3.491,1.088,1.088,0,0,1,.062-.35l1.086-2.722-.312,2.914c0,.021-.014.127-.04.293a8.2,8.2,0,0,0,1.148,3.773l.182.19c.958.989,2.948,3.048,1.678,5.168a2.929,2.929,0,0,1-1.937,1.311A5.552,5.552,0,0,1,3276.129,425.065Zm-.324-8.668a5.173,5.173,0,0,1-1.341,2.057,6.349,6.349,0,0,0-1.594,4.335,1.03,1.03,0,0,0,.28.77,6.468,6.468,0,0,0,4.05.586,2.154,2.154,0,0,0,1.43-.939c.952-1.589-.686-3.283-1.564-4.193l-.19-.2A6.131,6.131,0,0,1,3275.806,416.4Z" transform="translate(-3189.166 -397.379)" fill="#212e3b"/>
        <path id="Path_2773" data-name="Path 2773" d="M3238.165,575.671c-4.416,0-11.675-.7-12.272-1.1h0c-.2-.13-.345-.346-.5-1.959-.452-4.552-.822-23.516.443-24.781,2.555-2.555,4.829-3.774,6.749-3.626,2.2.17,9.064,2.039,9,3.925-.013.37.017,2.657.053,5.551.228,18.007.143,21.209-.132,21.577C3241.275,575.555,3239.953,575.671,3238.165,575.671Zm-11.764-1.735c1.276.592,12.958,1.226,14.462.789.211-1.224.042-14.565-.039-21.031-.038-3.02-.065-5.2-.052-5.59.029-.847-5.37-2.87-8.254-3.092-1.134-.081-3.15.427-6.116,3.392C3225.561,549.593,3225.563,571.909,3226.4,573.936Z" transform="translate(-3197.927 -372.651)" fill="#212e3b"/>
        <rect id="Rectangle_459" data-name="Rectangle 459" width="0.807" height="15.748" transform="translate(27.508 181.531) rotate(-86.245)" fill="#212e3b"/>
        <rect id="Rectangle_460" data-name="Rectangle 460" width="15.9" height="0.806" transform="translate(27.529 189.001) rotate(-0.823)" fill="#212e3b"/>
        <rect id="Rectangle_461" data-name="Rectangle 461" width="0.806" height="15.384" transform="matrix(0.077, -0.997, 0.997, 0.077, 27.879, 193.728)" fill="#212e3b"/>
        <rect id="Rectangle_462" data-name="Rectangle 462" width="0.806" height="30.494" transform="translate(34.548 172.006) rotate(-1.543)" fill="#212e3b"/>
        <path id="Path_2774" data-name="Path 2774" d="M3241.758,654.346c-.1-8.847-.523-23.277-1.232-24.341-1.018-1.525-3.513-2.622-6.512-2.863-3.227-.255-8.341,2.419-8.754,3.557-.361,1-.183,14.617.024,23.529l-.806.019c-.053-2.284-.505-22.364.024-23.823.618-1.707,6.25-4.361,9.576-4.085,3.24.259,5.968,1.492,7.12,3.218,1.052,1.58,1.323,20.919,1.367,24.781Z" transform="translate(-3198.06 -357.372)" fill="#212e3b"/>
        <path id="Path_2775" data-name="Path 2775" d="M3235.74,617.791c-.677,0-1.447-.011-2.326-.033a62.371,62.371,0,0,1-7.281-.491h0a.542.542,0,0,1-.342-.35c-.647-1.62-.55-25.792.108-26.942.407-.713,3.548-3.508,6.18-3.614,2.519-.105,7.237,1.863,8.275,3.174.976,1.231,1.3,26.23.356,27.577C3240.55,617.343,3240.235,617.791,3235.74,617.791Zm-9.233-1.265c1.662.307,12.643.809,13.568.095.628-1.467.34-25.38-.362-26.6-.8-1-5.011-2.858-7.426-2.858-.061,0-.118,0-.176,0-2.264.09-5.175,2.616-5.511,3.208C3226.271,591.5,3225.851,614.337,3226.507,616.525Zm-.142-.032h0Z" transform="translate(-3197.855 -364.807)" fill="#212e3b"/>
        <rect id="Rectangle_463" data-name="Rectangle 463" width="0.807" height="14.743" transform="matrix(0.072, -0.997, 0.997, 0.072, 28.236, 231.728)" fill="#212e3b"/>
        <rect id="Rectangle_464" data-name="Rectangle 464" width="14.922" height="0.807" transform="translate(28.048 238.804)" fill="#212e3b"/>
        <path id="Path_2776" data-name="Path 2776" d="M3240.732,606.856l-14.922-.32.016-.806,14.922.32Z" transform="translate(-3197.77 -361.202)" fill="#212e3b"/>
        <rect id="Rectangle_465" data-name="Rectangle 465" width="0.806" height="30.541" transform="translate(34.728 222.045) rotate(-0.708)" fill="#212e3b"/>
        <path id="Path_2777" data-name="Path 2777" d="M3319.291,624.867c-2.284-.4-44.777-3.539-52.451-3.406-7.965.161-62.208,1.58-62.754,1.594l-.021-.806c.547-.014,54.791-1.433,62.758-1.594,7.661-.152,50.316,3.013,52.608,3.418Z" transform="translate(-3201.815 -358.427)" fill="#212e3b"/>
        <path id="Path_2778" data-name="Path 2778" d="M3265.646,581.635c-.318,0-.568-.006-.747-.017-4.1-.256-60.269-1.948-60.835-1.965l.023-.805c.568.017,56.745,1.708,60.863,1.965,1.694.1,10.174-.336,20-.846,14.277-.741,30.459-1.581,32.731-1.111l-.165.79c-2.167-.449-19,.426-32.525,1.127C3276.156,581.232,3268.4,581.635,3265.646,581.635Z" transform="translate(-3201.815 -366.227)" fill="#212e3b"/>
        <rect id="Rectangle_466" data-name="Rectangle 466" width="0.806" height="133.611" transform="translate(64.252 163.721) rotate(-0.209)" fill="#212e3b"/>
        <path id="Path_2779" data-name="Path 2779" d="M3281.233,536.7h-6.275l.013-.416c.1-3.209.7-19.286,2.446-20.7a.676.676,0,0,1,.565-.155c1.977.358,2.919,14.7,3.232,20.847Zm-5.443-.808h4.595c-.481-9.116-1.532-18.719-2.515-19.635C3276.939,517.222,3276.094,526.813,3275.791,535.888Z" transform="translate(-3188.626 -378.006)" fill="#212e3b"/>
        <path id="Path_2780" data-name="Path 2780" d="M3281.21,571.736h-6.252l0-.4c-.03-1.815-.209-17.8,2.268-20.175a1.178,1.178,0,0,1,.9-.364c3.2.178,3.181,15.766,3.1,20.539Zm-5.456-.808h4.662c.131-9.3-.717-19.233-2.342-19.323a.4.4,0,0,0-.294.14C3275.947,553.507,3275.7,565.822,3275.754,570.929Z" transform="translate(-3188.63 -371.422)" fill="#212e3b"/>
        <path id="Path_2781" data-name="Path 2781" d="M3281.978,612.19h-5.538v-.4c-.006-1.631,0-15.981,1.789-17.747a.812.812,0,0,1,.607-.265c2.193.038,2.917,12.6,3.126,17.994Zm-4.732-.808h3.893c-.328-7.9-1.3-16.461-2.326-16.8C3277.836,594.983,3277.239,603.534,3277.246,611.382Z" transform="translate(-3188.351 -363.427)" fill="#212e3b"/>
        <path id="Path_2782" data-name="Path 2782" d="M3296.4,485.838l-4.608-.862.007-.342c.064-3.26-.408-8.6-1.951-9.045a.451.451,0,0,0-.391.079c-1.535.977-2.832,7.361-3.2,9.739l-.055.348-5.342-.1-.012-.384c-.124-4.244-1-10.315-2.54-10.525a.528.528,0,0,0-.426.151c-1.489,1.237-2.128,7.914-2.248,10.383l-.019.384H3270.8l-.015-.387c-.24-5.595-1.222-11.743-2.389-11.924a.279.279,0,0,0-.216.081c-1.3,1-2.448,7.645-2.9,11.87l-.038.361H3262l-.051-.344c-.744-4.973-2.208-10.4-3.275-10.486-.026,0-.075-.007-.158.076-1,.956-1.128,6.846-.977,10.333l.018.421h-3.312v-.808h2.47c-.065-1.982-.2-9.141,1.241-10.529a.993.993,0,0,1,.785-.3c2.105.176,3.5,7.923,3.952,10.826h1.822c.24-2.093,1.328-10.644,3.175-12.063a1.079,1.079,0,0,1,.83-.237c2.265.35,2.9,9.045,3.054,12.3h3.277c.113-1.907.657-9.034,2.517-10.58a1.329,1.329,0,0,1,1.05-.329c2.619.355,3.13,8.458,3.225,10.915l3.874.07c.3-1.8,1.561-8.706,3.51-9.946a1.257,1.257,0,0,1,1.05-.174c2.431.7,2.549,7.681,2.537,9.493l2.92.546c-.108-2.081-.358-9.658,1.562-11.687a1.6,1.6,0,0,1,1.265-.57c3.292.044,3.913,9.982,4.015,12.354l4.151.076-.014.806-4.918-.09-.011-.384c-.147-4.607-1.154-11.928-3.234-11.955a.919.919,0,0,0-.667.318c-1.614,1.706-1.5,8.95-1.314,11.6Z" transform="translate(-3192.479 -385.981)" fill="#212e3b"/>
        <rect id="Rectangle_467" data-name="Rectangle 467" width="0.806" height="16.774" transform="matrix(1, -0.004, 0.004, 1, 86.323, 0.003)" fill="#212e3b"/>
        <path id="Path_2783" data-name="Path 2783" d="M3275.367,409.482l-.021-.807c3.563-.095,7.509-.269,8.906-.436-.235-.246-.561-.56-.827-.817-1.224-1.186-1.809-1.79-1.868-2.21-.072-.505.507-.963,1.307-1.6a7.329,7.329,0,0,0,1.2-1.092c-.945-.249-5.037-.095-8.729.217l-.066-.8c9.391-.795,9.557-.046,9.638.314.146.661-.638,1.281-1.545,2a5.126,5.126,0,0,0-1.012.922,21.769,21.769,0,0,0,1.633,1.67c1.12,1.083,1.359,1.344,1.359,1.64C3285.345,408.954,3285.345,409.215,3275.367,409.482Zm9.2-.881Z" transform="translate(-3188.567 -399.183)" fill="#212e3b"/>
        <rect id="Rectangle_468" data-name="Rectangle 468" width="0.807" height="9.743" transform="translate(81.83 13.453) rotate(-83.594)" fill="#212e3b"/>
        <rect id="Rectangle_469" data-name="Rectangle 469" width="9.694" height="0.806" transform="translate(125.604 45.431) rotate(-22.474)" fill="#212e3b"/>
        <rect id="Rectangle_470" data-name="Rectangle 470" width="9.596" height="0.807" transform="translate(127.934 54.742)" fill="#212e3b"/>
        <rect id="Rectangle_471" data-name="Rectangle 471" width="0.807" height="11.832" transform="translate(129.321 64.989) rotate(-68.43)" fill="#212e3b"/>
        <rect id="Rectangle_472" data-name="Rectangle 472" width="0.807" height="8.837" transform="translate(41.993 39.491) rotate(-57.115)" fill="#212e3b"/>
        <rect id="Rectangle_473" data-name="Rectangle 473" width="10.647" height="0.807" transform="translate(35.273 53.206) rotate(-4.115)" fill="#212e3b"/>
        <rect id="Rectangle_474" data-name="Rectangle 474" width="8.183" height="0.807" transform="matrix(0.891, -0.454, 0.454, 0.891, 37.806, 67.965)" fill="#212e3b"/>
        <path id="Path_2784" data-name="Path 2784" d="M3268.749,474.536l-.806-.031.453-11.6V441.526h.806v21.391Z" transform="translate(-3189.931 -391.752)" fill="#212e3b"/>
        <path id="Path_2785" data-name="Path 2785" d="M3281.584,474.181l-.78-11.663V441.5h.806v20.991l.778,11.636Z" transform="translate(-3187.538 -391.757)" fill="#212e3b"/>
      </g>
    </g>
  </g>
</svg>
