<svg xmlns="http://www.w3.org/2000/svg" width="300.622" height="423.732" viewBox="0 0 300.622 423.732">
  <g id="SLIDER" transform="translate(1934 -5293.267)">
    <g id="_9_STILO" data-name="9 STILO" transform="translate(-1748.267 4534.603)">
      <g id="Group_136" data-name="Group 136" transform="translate(-185.733 758.665)">
        <path id="Path_1109" data-name="Path 1109" d="M114.888,1182.4V758.665H-185.733l2.793,290.027v131.833Z" transform="translate(185.733 -758.665)" fill="#fcf8f7"/>
      </g>
      <path id="Path_1110" data-name="Path 1110" d="M114.886,878.311c-3.28,1.246-13.38,6.763-19.288,3.708-2.359-1.218-4.021-3.846-6.648-4.222-2.591-.37-4.912,1.627-7.495,2.047-8.294,1.351-12.325-12.819-20.719-12.454-5.728.247-9.345,7.367-15.071,7.629-3.543.163-7.035-2.43-10.422-1.382a15.87,15.87,0,0,0-3.576,2.054c-5.11,3.209-11.586,2.915-17.606,2.513-2.873-.193-5.842-.41-8.4-1.745-1.771-.926-3.247-2.346-5.028-3.25-6-3.047-13.173.5-19.9.234-1.865-.074-3.815-.438-5.541.274-1.76.725-2.924,2.428-4.565,3.391-5.43,3.187-12.327-2.962-18.387-1.248-2.194.621-4.108,2.254-6.387,2.324-3.162.1-5.639-2.8-8.74-3.423-4.18-.835-9.236,2.432-12.4-.426-1.115-1.008-1.643-2.588-2.887-3.431-3.2-2.159-6.883,2.13-10.671,2.862-4.15.8-8.833-2.8-12.363-.481-1.157.759-1.9,2.037-3.056,2.793-2,1.3-4.6.736-6.981.8-6.49.173-13.716,5.092-18.792,1.043-1.4-1.115-2.306-2.766-3.765-3.8-4.375-3.1-10.725.841-15.719-1.108-2.7-1.055-4.823-3.781-7.723-3.745-4.222.052-6.354,5.789-10.5,6.567-1.83.343-3.67-.365-5.5-.712-4.03-.761-9.3,4.115-12.489,6.693v211.867H114.888Z" transform="translate(0 88.712)" fill="#e9ccbd"/>
      <text id="STILO" transform="translate(-38.536 1128.418) rotate(-0.119)" fill="#2e3c4b" font-size="18" font-family="SulphurPoint-Bold, Sulphur Point" font-weight="700" letter-spacing="0.025em"><tspan x="-20.916" y="0">STILO</tspan></text>
      <g id="stilo_kolor" data-name="stilo kolor" transform="translate(-59.612 819.448)">
        <path id="Path_1111" data-name="Path 1111" d="M-93.745,792.136c1.845,0,13.128,17.784,10.794,18.481s-28.008,1.395-28.591-.7S-97.246,792.136-93.745,792.136Z" transform="translate(120.138 -792.136)" fill="#2e3c4b"/>
        <path id="Path_1112" data-name="Path 1112" d="M-113.737,887.864c1.881-4.5,35.593-4.881,39.094-2.092s8.168,76.017,5.25,79.5-46.1,4.883-46.68,0S-116.073,893.444-113.737,887.864Z" transform="translate(116.283 -717.172)" fill="#2e3c4b"/>
        <path id="Path_1113" data-name="Path 1113" d="M-106.364,816.6c2.243-3.572,24.058-1.636,23.991,2.669S-77.624,865.1-79.74,867s-25.456-.189-28.958-.189S-108.114,819.388-106.364,816.6Z" transform="translate(121.351 -773.694)" fill="#ae4426"/>
        <path id="Path_1114" data-name="Path 1114" d="M-109.7,846.622c2.7-4.881,29-2.234,28.925,3.648s5.726,62.626,3.174,65.224-30.694-.258-34.914-.258S-111.816,850.433-109.7,846.622Z" transform="translate(118.001 -749.753)" fill="#f1ece9"/>
      </g>
      <g id="stilo-2" data-name="stilo" transform="translate(-63.019 812.652)">
        <path id="Path_1115" data-name="Path 1115" d="M-91.178,803.817c.222-.074,5.272-2.84,5.272-2.84" transform="translate(140.174 -778.126)" fill="none" stroke="#2e3c4b" stroke-miterlimit="10" stroke-width="1"/>
        <line id="Line_551" data-name="Line 551" x2="5.728" y2="0.559" transform="translate(50.84 29.45)" fill="none" stroke="#2e3c4b" stroke-miterlimit="10" stroke-width="1"/>
        <line id="Line_552" data-name="Line 552" x2="4.387" y2="2.012" transform="translate(48.65 34.988)" fill="none" stroke="#2e3c4b" stroke-miterlimit="10" stroke-width="1"/>
        <line id="Line_553" data-name="Line 553" x1="4.362" y1="2.454" transform="translate(2.569 21.946)" fill="none" stroke="#2e3c4b" stroke-miterlimit="10" stroke-width="1"/>
        <line id="Line_554" data-name="Line 554" x1="5.235" transform="translate(0 29.414)" fill="none" stroke="#2e3c4b" stroke-miterlimit="10" stroke-width="1"/>
        <line id="Line_555" data-name="Line 555" x1="4.079" y2="2.084" transform="translate(2.199 34.158)" fill="none" stroke="#2e3c4b" stroke-miterlimit="10" stroke-width="1"/>
        <path id="Path_1116" data-name="Path 1116" d="M-107.611,826.586c-.521,4.366-2.626,66.6-4.375,96.59s-4.669,94.847-2.335,97.636,18.381,1.046,27.133,1.046,16.046,1.743,18.381-.349-5.252-100.426-5.835-112.979S-79.6,822.4-79.6,818.216s-25.673-4.184-26.84-3.487S-107.026,821.7-107.611,826.586Z" transform="translate(120.582 -767.187)" fill="none" stroke="#2e3c4b" stroke-miterlimit="10" stroke-width="1"/>
        <path id="Path_1117" data-name="Path 1117" d="M-109.283,818.25c-.583-.525-2.918-4.714-2.334-6.285s14-1.048,16.921-1.048,14.878.263,15.754,2.619c.292.786-3.111,6.118-4.035,6.594" transform="translate(123.421 -770.083)" fill="none" stroke="#2e3c4b" stroke-miterlimit="10" stroke-width="1"/>
        <path id="Path_1118" data-name="Path 1118" d="M-96.171,802.672c.577,1.64.358,22.326-.225,23.539" transform="translate(135.917 -776.743)" fill="none" stroke="#2e3c4b" stroke-miterlimit="10" stroke-width="1"/>
        <path id="Path_1119" data-name="Path 1119" d="M-108.95,824.2s-1.186-20.324-.643-21.719" transform="translate(125.032 -776.903)" fill="none" stroke="#2e3c4b" stroke-miterlimit="10" stroke-width="1"/>
        <path id="Path_1120" data-name="Path 1120" d="M-96.848,792.111c2.381-.407,19.255,18.133,18.089,18.83s-30.926.7-33.26-.7S-100.932,792.808-96.848,792.111Z" transform="translate(122.948 -785.366)" fill="none" stroke="#2e3c4b" stroke-miterlimit="10" stroke-width="1"/>
        <path id="Path_1121" data-name="Path 1121" d="M-109.695,847.676c.369-.883,2.918-.7,3.5,0s1.166,7.672,0,7.672-2.918,1.395-3.5,0A17.049,17.049,0,0,1-109.695,847.676Z" transform="translate(124.709 -740.506)" fill="none" stroke="#2e3c4b" stroke-miterlimit="10" stroke-width="1"/>
        <path id="Path_1122" data-name="Path 1122" d="M-103.67,857.629c.583-.7,3.5-.7,3.5,0s1.166,9.067,0,9.764-3.5.7-3.5,0S-104.253,858.326-103.67,857.629Z" transform="translate(129.77 -732.326)" fill="none" stroke="#2e3c4b" stroke-miterlimit="10" stroke-width="1"/>
        <path id="Path_1123" data-name="Path 1123" d="M-97.885,872.679c.923-1.1,2.916-.7,4.084,0s.583,9.065,0,9.762-4.084,0-4.084-.7S-98.47,873.376-97.885,872.679Z" transform="translate(134.489 -720.177)" fill="none" stroke="#2e3c4b" stroke-miterlimit="10" stroke-width="1"/>
        <line id="Line_556" data-name="Line 556" y2="6.425" transform="translate(19.256 40.772)" fill="none" stroke="#2e3c4b" stroke-miterlimit="10" stroke-width="1"/>
        <line id="Line_557" data-name="Line 557" y2="6.425" transform="translate(22.908 40.772)" fill="none" stroke="#2e3c4b" stroke-miterlimit="10" stroke-width="1"/>
        <line id="Line_558" data-name="Line 558" y2="6.394" transform="translate(26.448 40.803)" fill="none" stroke="#2e3c4b" stroke-miterlimit="10" stroke-width="1"/>
        <line id="Line_559" data-name="Line 559" y2="6.771" transform="translate(30.12 40.849)" fill="none" stroke="#2e3c4b" stroke-miterlimit="10" stroke-width="1"/>
        <line id="Line_560" data-name="Line 560" x1="0.876" y2="6.949" transform="translate(33.098 40.995)" fill="none" stroke="#2e3c4b" stroke-miterlimit="10" stroke-width="1"/>
        <line id="Line_561" data-name="Line 561" x1="1.801" y2="7.131" transform="translate(36.269 41.338)" fill="none" stroke="#2e3c4b" stroke-miterlimit="10" stroke-width="1"/>
        <path id="Path_1124" data-name="Path 1124" d="M-108.809,810.644s-1.151.105-1.594-.447a8.613,8.613,0,0,1-.81-3.836c.049-.16,2.524.04,5.161.009,7.912-.094,24.338.12,24.752.619.554.663-.378,3.325-1.041,3.755S-107.216,811.091-108.809,810.644Z" transform="translate(123.799 -773.783)" fill="none" stroke="#2e3c4b" stroke-miterlimit="10" stroke-width="1"/>
        <line id="Line_562" data-name="Line 562" y2="4.485" transform="translate(18.152 32.584)" fill="none" stroke="#2e3c4b" stroke-miterlimit="10" stroke-width="1"/>
        <line id="Line_563" data-name="Line 563" y2="4.489" transform="translate(21.618 32.579)" fill="none" stroke="#2e3c4b" stroke-miterlimit="10" stroke-width="1"/>
        <line id="Line_564" data-name="Line 564" x1="0.444" y2="4.442" transform="translate(25.526 32.627)" fill="none" stroke="#2e3c4b" stroke-miterlimit="10" stroke-width="1"/>
        <line id="Line_565" data-name="Line 565" y2="4.479" transform="translate(30.12 32.713)" fill="none" stroke="#2e3c4b" stroke-miterlimit="10" stroke-width="1"/>
        <line id="Line_566" data-name="Line 566" x1="0.876" y2="4.24" transform="translate(33.098 32.828)" fill="none" stroke="#2e3c4b" stroke-miterlimit="10" stroke-width="1"/>
        <line id="Line_567" data-name="Line 567" y2="4.104" transform="translate(37.236 32.964)" fill="none" stroke="#2e3c4b" stroke-miterlimit="10" stroke-width="1"/>
        <path id="Path_1125" data-name="Path 1125" d="M-104.358,795.338s-.668-6.944.726-6.944,2.294,6.914,1.5,6.944S-104.358,795.338-104.358,795.338Z" transform="translate(129.289 -788.394)" fill="none" stroke="#2e3c4b" stroke-miterlimit="10" stroke-width="1"/>
      </g>
    </g>
  </g>
</svg>
