<svg xmlns="http://www.w3.org/2000/svg" width="352" height="496" viewBox="0 0 352 496">
  <g id="_9" data-name="9" transform="translate(9119 -13343)">
    <rect id="Rectangle_275" data-name="Rectangle 275" width="352" height="496" transform="translate(-9119 13343)" fill="#fff"/>
    <g id="stilo" transform="translate(-12569.499 13006.217)">
      <path id="Path_2564" data-name="Path 2564" d="M3802.5,554.83c-3.838,1.457-15.654,7.911-22.565,4.338-2.759-1.426-4.7-4.5-7.777-4.939-3.03-.434-5.746,1.9-8.767,2.4-9.7,1.581-14.417-15-24.239-14.571-6.7.291-10.931,8.621-17.63,8.927-4.145.189-8.228-2.844-12.191-1.619a18.635,18.635,0,0,0-4.183,2.4c-5.977,3.753-13.554,3.41-20.6,2.94-3.362-.224-6.835-.478-9.821-2.041-2.072-1.083-3.8-2.745-5.883-3.8-7.023-3.565-15.41.587-23.28.274-2.181-.087-4.463-.512-6.482.321-2.059.848-3.42,2.839-5.34,3.967-6.354,3.728-14.421-3.466-21.511-1.46-2.566.727-4.806,2.637-7.472,2.719-3.7.115-6.6-3.279-10.224-4-4.891-.977-10.807,2.845-14.507-.5-1.3-1.178-1.924-3.028-3.379-4.013-3.738-2.527-8.051,2.491-12.482,3.347-4.854.938-10.334-3.28-14.464-.564-1.352.89-2.219,2.384-3.575,3.267-2.333,1.518-5.382.863-8.166.936-7.593.2-16.046,5.958-21.983,1.219-1.633-1.3-2.7-3.235-4.4-4.443-5.118-3.625-12.546.984-18.389-1.295-3.161-1.234-5.645-4.423-9.037-4.38-4.939.061-7.432,6.77-12.288,7.681-2.141.4-4.292-.428-6.433-.832-4.716-.891-10.88,4.813-14.611,7.83V806.784H3802.5Z" transform="translate(0 25.85)" fill="#e6c2b0"/>
      <g id="Group_460" data-name="Group 460" transform="translate(3604.202 757.96)">
        <path id="Path_2565" data-name="Path 2565" d="M3587.934,705.948a2.343,2.343,0,0,0-.949-.838,3.381,3.381,0,0,0-1.436-.263,2.7,2.7,0,0,0-2.021.622,2.169,2.169,0,0,0-.549,1.6,2.3,2.3,0,0,0,.174.968,1.432,1.432,0,0,0,.512.6,3.544,3.544,0,0,0,1.679.464,11.792,11.792,0,0,1,2.012.325,5.4,5.4,0,0,1,1.436.6,3.361,3.361,0,0,1,1.561,3.06,3.716,3.716,0,0,1-.317,1.531,4.14,4.14,0,0,1-2.494,2.28,5.9,5.9,0,0,1-1.924.324,5,5,0,0,1-3.6-1.269,5.06,5.06,0,0,1-1.389-3.06l.042-.021,1.872,0a2.785,2.785,0,0,0,.771,1.678,3.152,3.152,0,0,0,2.234.761,3.353,3.353,0,0,0,2.126-.62,1.937,1.937,0,0,0,.783-1.6,2.348,2.348,0,0,0-.118-.775,1.315,1.315,0,0,0-.438-.585,5.386,5.386,0,0,0-2.7-.7,4.871,4.871,0,0,1-3.063-1.164,3.7,3.7,0,0,1-1.048-2.805,4,4,0,0,1,1.12-2.959,5.159,5.159,0,0,1,6.765.136,5.335,5.335,0,0,1,1.325,3.06l-1.915,0A3.332,3.332,0,0,0,3587.934,705.948Z" transform="translate(-3580.631 -702.901)" fill="#212e3b"/>
        <path id="Path_2566" data-name="Path 2566" d="M3595.132,704.738l.024,12.336-1.872,0-.024-12.336-3.425.007,0-1.808,8.72-.018,0,1.808Z" transform="translate(-3578.961 -702.899)" fill="#212e3b"/>
        <path id="Path_2567" data-name="Path 2567" d="M3599.31,717.062l-.029-14.143,1.785,0,.031,14.143Z" transform="translate(-3577.245 -702.901)" fill="#212e3b"/>
        <path id="Path_2568" data-name="Path 2568" d="M3603.071,717.055l-.03-14.145,1.829,0,.026,12.229,4.252-.008,0,1.914Z" transform="translate(-3576.562 -702.902)" fill="#212e3b"/>
        <path id="Path_2569" data-name="Path 2569" d="M3613.375,716.6a6.865,6.865,0,0,1-2.269-1.536,7.107,7.107,0,0,1-1.535-2.284,7.136,7.136,0,0,1-.024-5.487,7.217,7.217,0,0,1,3.8-3.825,6.845,6.845,0,0,1,2.732-.56,6.928,6.928,0,0,1,2.745.548,7.151,7.151,0,0,1,3.814,3.8,6.9,6.9,0,0,1,.559,2.742,6.973,6.973,0,0,1-.547,2.757,7.125,7.125,0,0,1-3.8,3.825,7.127,7.127,0,0,1-5.477.021Zm.722-11.358a5.131,5.131,0,0,0-1.667,1.12,5.071,5.071,0,0,0-1.114,1.672,5.156,5.156,0,0,0-.39,1.99,5.215,5.215,0,0,0,.409,2.03,5.15,5.15,0,0,0,9.528-.02,5.212,5.212,0,0,0,.4-2.031,5.177,5.177,0,0,0-7.165-4.76Z" transform="translate(-3575.478 -702.903)" fill="#212e3b"/>
      </g>
      <g id="stilo_kolor" data-name="stilo kolor" transform="translate(3598.36 408.037)">
        <path id="Path_2570" data-name="Path 2570" d="M3605.02,406.753c2.159,0,15.359,20.805,12.629,21.62s-32.765,1.632-33.448-.815S3600.925,406.753,3605.02,406.753Z" transform="translate(-3574.145 -406.753)" fill="#212e3b"/>
        <path id="Path_2571" data-name="Path 2571" d="M3578.664,576.445c2.2-5.262,41.639-5.71,45.734-2.447s9.557,88.929,6.144,93.008-53.925,5.711-54.608,0S3575.934,582.972,3578.664,576.445Z" transform="translate(-3575.688 -376.761)" fill="#212e3b"/>
        <path id="Path_2572" data-name="Path 2572" d="M3591.192,449.567c2.622-4.179,28.143-1.914,28.065,3.123s5.556,53.615,3.08,55.841-29.78-.222-33.875-.222S3589.145,452.83,3591.192,449.567Z" transform="translate(-3573.66 -399.375)" fill="#9f311b"/>
        <path id="Path_2573" data-name="Path 2573" d="M3584.7,503.119c3.162-5.711,33.933-2.615,33.839,4.267s6.7,73.263,3.714,76.3-35.907-.3-40.845-.3S3582.235,507.578,3584.7,503.119Z" transform="translate(-3575 -389.796)" fill="#efe8e5"/>
      </g>
      <g id="stilo-2" data-name="stilo" transform="translate(3594.375 399.68)">
        <path id="Path_2574" data-name="Path 2574" d="M3620.975,426.413l-.272-.769c.284-.117,3.812-2.036,6.115-3.3l.392.715C3625.424,424.04,3621.242,426.325,3620.975,426.413Z" transform="translate(-3563.529 -395.564)" fill="#212e3b"/>
        <rect id="Rectangle_401" data-name="Rectangle 401" width="0.816" height="6.734" transform="translate(59.435 35.266) rotate(-84.429)" fill="#212e3b"/>
        <path id="Path_2575" data-name="Path 2575" d="M3625.469,437.447l-5.132-2.353.339-.742,5.132,2.353Z" transform="translate(-3563.595 -393.384)" fill="#212e3b"/>
        <rect id="Rectangle_402" data-name="Rectangle 402" width="0.815" height="5.855" transform="matrix(0.49, -0.872, 0.872, 0.49, 2.805, 26.437)" fill="#212e3b"/>
        <rect id="Rectangle_403" data-name="Rectangle 403" width="6.124" height="0.816" transform="translate(0 34.41)" fill="#212e3b"/>
        <rect id="Rectangle_404" data-name="Rectangle 404" width="5.358" height="0.816" transform="matrix(0.89, -0.455, 0.455, 0.89, 2.387, 42.442)" fill="#212e3b"/>
        <path id="Path_2576" data-name="Path 2576" d="M3626.692,690.746c-1.809,0-3.944-.157-6.358-.336-2.959-.218-6.315-.464-9.861-.464-2.715,0-6.012.143-9.5.294-10.041.435-20.419.886-22.551-1.664-3.143-3.756,1.279-91.274,2.636-114.506,1.134-19.431,2.389-50.3,3.4-75.107.808-19.9,1.448-35.62,1.723-37.914.263-2.2.321-4.692.375-6.887.1-4.382.2-6.7,1.186-7.284,1.609-.961,24.807-.779,30.519,2.462.993.565,1.5,1.226,1.5,1.967,0,2.794,1.724,33.011,3.245,59.669,1.165,20.414,2.265,39.695,2.557,45.966.171,3.687.868,13.844,1.752,26.7,4.517,65.755,6.773,104.144,4.939,105.787C3631.131,690.435,3629.233,690.746,3626.692,690.746Zm-16.22-1.615c3.577,0,6.948.248,9.922.467,5.4.4,9.659.711,11.309-.77,1.835-2.581-2.746-69.287-5.208-105.123-.884-12.866-1.581-23.028-1.754-26.724-.292-6.266-1.391-25.546-2.557-45.956-1.6-27.974-3.247-56.9-3.247-59.717,0-.384-.3-.768-.888-1.14-5.191-3.279-28.507-3.247-29.9-2.584-.633.378-.712,3.683-.781,6.6-.053,2.214-.114,4.724-.382,6.965h0c-.27,2.263-.909,17.967-1.718,37.849-1.007,24.808-2.265,55.684-3.4,75.122-2.683,45.975-5.159,111.146-2.824,113.936,1.876,2.24,12.975,1.759,21.891,1.372C3604.435,689.273,3607.741,689.13,3610.472,689.13Z" transform="translate(-3571.407 -391.203)" fill="#212e3b"/>
        <path id="Path_2577" data-name="Path 2577" d="M3617.774,451.671l-.374-.725c.968-.5,4.642-6.375,4.52-7.228-.757-2.034-11.207-2.778-18.043-2.778-.523,0-1.337-.014-2.341-.032-10.946-.2-16.687.139-17.071.991-.6,1.62,1.977,6.33,2.62,6.906l-.545.606c-.793-.71-3.609-5.725-2.839-7.8.5-1.351,5.165-1.751,17.85-1.524,1,.018,1.806.033,2.327.033,2.936,0,17.636.16,18.813,3.329C3623.156,444.705,3618.854,451.114,3617.774,451.671Z" transform="translate(-3570.271 -392.353)" fill="#212e3b"/>
        <path id="Path_2578" data-name="Path 2578" d="M3611.867,453.431l-.736-.354c.674-1.471.892-25.388.247-27.223l.771-.271C3612.872,427.645,3612.628,451.849,3611.867,453.431Z" transform="translate(-3565.267 -394.977)" fill="#212e3b"/>
        <path id="Path_2579" data-name="Path 2579" d="M3588.031,450.8c-.142-2.442-1.372-23.913-.723-25.58l.758.3c-.441,1.137.225,15.716.779,25.237Z" transform="translate(-3569.626 -395.043)" fill="#212e3b"/>
        <path id="Path_2580" data-name="Path 2580" d="M3607.006,429.727c-10.306,0-22.283-.391-23.969-1.4-.308-.183-.64-.6-.467-1.516,1.016-5.441,14.521-19.794,18.355-20.448h0a.688.688,0,0,1,.124-.009c3.319,0,20.335,18.741,21.494,21.879.211.573-.022.816-.18.911C3621.771,429.5,3614.875,429.727,3607.006,429.727Zm-5.945-22.559c-4.13.7-16.925,15.7-17.689,19.794-.032.167-.086.565.083.666,2.461,1.471,35.244,1.5,38.323.86-.717-2.036-11.837-14.706-18-19.672-2.067-1.666-2.626-1.659-2.715-1.648Z" transform="translate(-3570.461 -398.468)" fill="#212e3b"/>
        <path id="Path_2581" data-name="Path 2581" d="M3588.369,516.4a1.428,1.428,0,0,1-1.424-.97c-.727-1.737-.727-7.553,0-9.29h0a1.751,1.751,0,0,1,1.481-.9,4.148,4.148,0,0,1,3.3.792c.773.924,1.261,7.382.49,9.03a.884.884,0,0,1-.8.614,4.889,4.889,0,0,0-1.385.34A5.466,5.466,0,0,1,3588.369,516.4Zm-.673-9.944c-.643,1.537-.643,7.121,0,8.659.263.631.748.587,2.071.135a5.444,5.444,0,0,1,1.646-.385,2.282,2.282,0,0,0,.264-.885c.375-2.341-.193-6.933-.574-7.42a3.548,3.548,0,0,0-2.555-.508c-.449.069-.775.223-.852.405Z" transform="translate(-3569.757 -380.521)" fill="#212e3b"/>
        <path id="Path_2582" data-name="Path 2582" d="M3599.795,536.681a3.119,3.119,0,0,1-1.464-.286.831.831,0,0,1-.475-.731c0-.157-.026-.648-.062-1.342-.362-6.97-.318-9.773.157-10.341h0c.673-.8,3.047-.93,4.095-.549.627.228.722.606.722.812,0,.138.057.686.123,1.321.73,7.042.643,9.874-.323,10.451A5.834,5.834,0,0,1,3599.795,536.681Zm-1.212-12.184c-.293.5-.284,3.793.027,9.782.037.717.063,1.223.063,1.385.2.274,2.244.388,3.48-.351.4-.239.71-2.109-.072-9.666-.086-.827-.127-1.232-.127-1.4a3.683,3.683,0,0,0-1.322-.2A3.409,3.409,0,0,0,3598.583,524.5Z" transform="translate(-3567.732 -377.248)" fill="#212e3b"/>
        <path id="Path_2583" data-name="Path 2583" d="M3612.149,563.369a8.717,8.717,0,0,1-2.67-.47c-.822-.3-1.223-.656-1.223-1.093,0-.16-.026-.642-.064-1.315-.361-6.48-.32-8.98.16-9.553,1.321-1.577,3.953-.893,5.3-.089.375.224.624.768.783,1.711.477,2.809.038,9.466-.679,10.323A2.121,2.121,0,0,1,3612.149,563.369Zm-3.167-11.913c-.292.471-.284,3.5.023,8.988.039.7.067,1.2.067,1.361a5.581,5.581,0,0,0,2.545.721c1.047.093,1.448-.089,1.511-.167.444-.627,1.024-7.21.451-9.933-.16-.757-.339-.872-.346-.877C3612.072,550.855,3609.919,550.346,3608.982,551.457Z" transform="translate(-3565.844 -372.388)" fill="#212e3b"/>
        <rect id="Rectangle_405" data-name="Rectangle 405" width="0.817" height="7.516" transform="translate(22.119 48.105)" fill="#212e3b"/>
        <rect id="Rectangle_406" data-name="Rectangle 406" width="0.817" height="7.516" transform="translate(26.39 48.105)" fill="#212e3b"/>
        <rect id="Rectangle_407" data-name="Rectangle 407" width="0.817" height="7.48" transform="translate(30.532 48.141)" fill="#212e3b"/>
        <rect id="Rectangle_408" data-name="Rectangle 408" width="0.817" height="7.921" transform="translate(34.828 48.195)" fill="#212e3b"/>
        <rect id="Rectangle_409" data-name="Rectangle 409" width="8.193" height="0.816" transform="translate(38.316 56.444) rotate(-82.855)" fill="#212e3b"/>
        <rect id="Rectangle_410" data-name="Rectangle 410" width="8.605" height="0.816" transform="matrix(0.245, -0.97, 0.97, 0.245, 42.034, 57.01)" fill="#212e3b"/>
        <path id="Path_2584" data-name="Path 2584" d="M3607.789,438.227c-8.455,0-18.865-.234-20.158-.453a2.734,2.734,0,0,1-2.158-.678,9.973,9.973,0,0,1-1.019-4.865c.125-.4.364-.389,2.653-.326,1.069.03,2.393.066,3.771.051.281,0,28.425-.148,29.274.871a2.115,2.115,0,0,1,.239,1.664,5.884,5.884,0,0,1-1.55,3.334C3618.387,438.119,3613.54,438.227,3607.789,438.227Zm-20.095-1.276.071.02c1.728.482,29.256.612,30.682.143a5.829,5.829,0,0,0,1.136-2.746,1.9,1.9,0,0,0-.026-.964c-1.573-.475-19.071-.747-28.671-.632-1.388.018-2.728-.021-3.8-.051-.745-.021-1.5-.04-1.879-.027a10.878,10.878,0,0,0,.9,3.892c.309.384,1.218.4,1.509.371Z" transform="translate(-3570.12 -393.834)" fill="#212e3b"/>
        <rect id="Rectangle_411" data-name="Rectangle 411" width="0.817" height="5.247" transform="translate(20.826 38.526)" fill="#212e3b"/>
        <rect id="Rectangle_412" data-name="Rectangle 412" width="0.817" height="5.252" transform="translate(24.881 38.52)" fill="#212e3b"/>
        <rect id="Rectangle_413" data-name="Rectangle 413" width="5.222" height="0.816" transform="translate(29.457 43.732) rotate(-84.322)" fill="#212e3b"/>
        <rect id="Rectangle_414" data-name="Rectangle 414" width="0.817" height="5.24" transform="translate(34.828 38.677)" fill="#212e3b"/>
        <rect id="Rectangle_415" data-name="Rectangle 415" width="5.065" height="0.815" transform="translate(38.319 43.69) rotate(-78.324)" fill="#212e3b"/>
        <rect id="Rectangle_416" data-name="Rectangle 416" width="0.817" height="4.802" transform="translate(43.152 38.97)" fill="#212e3b"/>
        <path id="Path_2585" data-name="Path 2585" d="M3598.6,408.635c-.753,0-1.469-.014-1.514-.015l-.364-.008-.034-.36c-.111-1.151-.6-6.959.566-8.249a.915.915,0,0,1,.688-.323c1.806,0,2.478,5.438,2.506,6.976.018.9-.052,1.938-.741,1.964C3599.386,408.632,3598.987,408.635,3598.6,408.635Zm-1.133-.825c.506.007,1.431.017,2.081,0a14.488,14.488,0,0,0-1.087-6.725c-.246-.463-.44-.586-.518-.586C3597.173,401.3,3597.244,405.255,3597.464,407.81Z" transform="translate(-3567.926 -399.68)" fill="#212e3b"/>
      </g>
    </g>
  </g>
</svg>
