<svg xmlns="http://www.w3.org/2000/svg" width="301.225" height="423.21" viewBox="0 0 301.225 423.21">
  <g id="SLIDER" transform="translate(1693 -5658.79)">
    <g id="_10_CZOŁP" data-name="10 CZOŁP" transform="translate(-1693.274 4899.827)">
      <g id="Group_149" data-name="Group 149" transform="translate(1.249 758.964)">
        <path id="Path_1244" data-name="Path 1244" d="M301.062,1182.173V758.963H.812l2.79,289.67V1180.3Z" transform="translate(-0.812 -758.963)" fill="#fcf8f7"/>
      </g>
      <path id="Path_1245" data-name="Path 1245" d="M300.528,1123.945H.278l0-215.148c1.275-.236,10.621-7.324,10.855-11.153s-9.1,0-9.509-4.8,15.034-30.69,20.564-31.7,15.941,18.6,21.756,29.35c-.749,3-7.01,1.328-7.449,4.391a3.679,3.679,0,0,0,1.217,2.7l11.454,13.507c1.119,1.321,2.3,3.127,1.453,4.636-.589,1.048-1.9,1.4-3.074,1.658-3.247.709-9.763-1.612-9.736,2.125s18.388,15.466,12.985,18.364-14.524-5.021-15.2,3.279,48.454,8.766,48.715,3.466c.811-16.469-11.37-11.811-11.864-15.495s13-12.348,11.428-15.97-10.291,2.646-11.657-2.211,7.266-15.594,10.9-23.392a3.146,3.146,0,0,0,.394-2.49c-.412-.959-1.616-1.241-2.65-1.395-2.766-.417-7.765,2.144-8.3-1.248S92.5,844.7,97.933,844.27s12.439,11.623,17.33,18.538c4.785,6.765,7.057,14.94,9.246,22.931l12.932,47.192a7.669,7.669,0,0,0,1.857,3.8c1.219,1.108,40.728,17.359,42.371,17.49,23.927,1.9,33.188-15.6,33.868-20.7,1.108-7.572-7.966-4.89-11.949-7.333a4.887,4.887,0,0,1-2.216-2.133,4.82,4.82,0,0,1,.341-3.3c2.895-8.089,11.194-17.72,10.819-23.356s-8.619-.052-8.793-3.9,7.843-15.362,11.931-21.177c2.523-3.589,1.369-7.547-2.278-9.983-1.592-1.063-7.333.256-7.959-1.555-.337-.978.221-3.607.651-4.549,3.676-8.082,10.44-15.95,14.116-24.032.437-.959.994-2.024,2.013-2.292,1.3-.341,2.472.793,3.335,1.819,4.944,5.888,6.366,11.9,11.245,17.844,1.206,1.471,5.224,9.756,4.549,11.535-.473,1.246-1.748,1.953-2.73,2.855-4.554,4.182-6.143.682-3.444,6.245s15.016,17.519,11.049,22.262c-.927,1.108-7.235,1.66-7.634,3.049a4.281,4.281,0,0,0,.051,2.757c4.422,10.79,8.477,15.888,10.913,25.636,1.056,4.224-10.454,0-11.292,5.2s7.883,27.807,10.951,27.977c9.636.541,12.032-6.718,14.116-14.659.5-1.9-7.654-.827-7.19-2.75.91-3.776,9.925-17.095,13.1-20.327a2.91,2.91,0,0,0,.482-3.1c-.914-1.442-9.241.176-10.725-.673-1.785-1.021-.136-3.8.813-5.621,3.776-7.26,3.114-8.155,6.555-14.854,1.685-3.277,6-9.591,2.4-10.393-1.282-.285-5.526-.038-6.381-1.037-.68-.8-.366-2-.018-2.993,3.958-11.227,9.566-32.461,11.155-32.5,3.247-.074,18.241,23.092,22.441,34.378.466,1.253,2.109,4.075,1.139,5-.388.37-2.445-.192-3.539.16-3.637,1.173-5.193,2.365-2.561,7.759s6.346,7.492,9.528,10.159Z" transform="translate(0 57.687)" fill="#e9ccbd"/>
      <text id="CZOŁPINO" transform="translate(146.049 1127.637)" fill="#2e3c4b" font-size="18" font-family="SulphurPoint-Bold, Sulphur Point" font-weight="700" letter-spacing="0.025em"><tspan x="-41.454" y="0">CZOŁPINO</tspan></text>
      <g id="czołpino_kolor" data-name="czołpino kolor" transform="translate(101.142 817.129)">
        <path id="Path_1246" data-name="Path 1246" d="M58.221,830.678c.348-2.12,81.579-2.086,84.475,0s5.033,9.183,3.74,10.572-3.963,4.5-3.963,4.946,14.675,156.5,14.454,158.057c-.141.989-31.6,4.687-58.47,4.447-15.477-.14-39.01-4.819-39.948-5.631-2.563-2.227,5.713-154.426,4.6-156.873s-2.447-2.111-3.557-4.946A25.039,25.039,0,0,1,58.221,830.678Z" transform="translate(-54.156 -760.056)" fill="#f1ece9"/>
        <path id="Path_1247" data-name="Path 1247" d="M68.906,822.021c.765-1.506,48.207-1.629,49.038-.591s.938,12.152.181,14-48.331,2.224-49.22,1.037S67.872,824.06,68.906,822.021Z" transform="translate(-45.88 -766.849)" fill="#b98255"/>
        <path id="Path_1248" data-name="Path 1248" d="M83.53,791.033c1.892.3,2.929.593,2.929,2.223s-.778,2.539-2.782,2.913-2.182-.3-2.441-2.568S83.53,791.033,83.53,791.033Z" transform="translate(-35.275 -791.033)" fill="#2e3c4b"/>
        <path id="Path_1249" data-name="Path 1249" d="M97.3,794.872c2.648,0,21.7,13.716,20.9,17.194-.3,1.3-46.4-.441-48.908-1.922S93.77,794.872,97.3,794.872Z" transform="translate(-45.113 -787.909)" fill="#2e3c4b"/>
        <path id="Path_1250" data-name="Path 1250" d="M85.657,920.327c8.225,0,10.469,16.543,8.447,17.563s-13.449.569-14.227,0S78.431,920.327,85.657,920.327Z" transform="translate(-36.74 -685.821)" fill="#2e3c4b"/>
        <path id="Path_1251" data-name="Path 1251" d="M56.311,829.234c1.369-.286,90.551-.149,90.551.742s.365,3.3-1.743,4.148-88.511-1.885-88.808-2.5S55.526,829.4,56.311,829.234Z" transform="translate(-55.887 -760.057)" fill="#b98255"/>
      </g>
      <g id="czołpino-2" data-name="czołpino" transform="translate(90.155 819.025)">
        <path id="Path_1252" data-name="Path 1252" d="M55.169,1005.823c.229,3.849,39.226,7.371,51.675,6.482s42.906-.589,46.463-5.3-14.452-161.514-14.452-161.514c1.482-2.733,4.15-3.074,4.743-5.423s2.149-8.389,1.482-9.388-29.345.666-41.792,0-42.46-1.224-43.572,0-1.112,9.782,0,10.67,4.445,3.392,4.669,4.141S54.958,1002.306,55.169,1005.823Z" transform="translate(-45.488 -761.252)" fill="none" stroke="#2e3c4b" stroke-miterlimit="10" stroke-width="1"/>
        <path id="Path_1253" data-name="Path 1253" d="M67.437,811.326c.782,1.641,17.626,2.544,26.493,2.449,8.494-.093,22.86.072,24.638-2.177S99.036,795.132,94.09,794.911,66.655,809.684,67.437,811.326Z" transform="translate(-35.518 -789.775)" fill="none" stroke="#2e3c4b" stroke-miterlimit="10" stroke-width="1"/>
        <line id="Line_618" data-name="Line 618" x1="0.343" y1="29.962" transform="translate(32.356 21.907)" fill="none" stroke="#2e3c4b" stroke-miterlimit="10" stroke-width="1"/>
        <line id="Line_619" data-name="Line 619" x1="0.362" y1="29.73" transform="translate(83.05 21.822)" fill="none" stroke="#2e3c4b" stroke-miterlimit="10" stroke-width="1"/>
        <path id="Path_1254" data-name="Path 1254" d="M57.792,834s-.593-6.744,0-7.781,39.422.593,45.349.742,39.422-.593,40.31,0-.3,7.039-.3,7.039" transform="translate(-43.565 -764.572)" fill="none" stroke="#2e3c4b" stroke-miterlimit="10" stroke-width="1"/>
        <path id="Path_1255" data-name="Path 1255" d="M60.248,841.58s1.11-6.031,4.669-6.031,3.444,8.559,3.444,8.559h4.558s.555-8.448,4.556-9,4,8.559,4,8.559l4.556-.223s-1.2-7.669,2.026-7.669,4.279,7.057,4.279,7.057l3.377.183s.082-8.412,4.061-8c1.93.2,1.634,7.376,1.634,7.376l5.519.551s.334-7.781,4.114-8,3.891,8.448,3.891,8.448H118s.57-8.263,3.111-8.448c2.5-.18,3.89,8.115,3.89,8.115l4.609.053s.223-8.347,1.667-8.336c2.579.02,3.446,6.809,3.446,6.809" transform="translate(-41.352 -757.337)" fill="none" stroke="#2e3c4b" stroke-miterlimit="10" stroke-width="1"/>
        <path id="Path_1256" data-name="Path 1256" d="M77.995,939.366s-1.714-20.406,7.589-19.815,8.7,19.456,8.7,19.456" transform="translate(-27.012 -688.358)" fill="none" stroke="#2e3c4b" stroke-miterlimit="10" stroke-width="1"/>
        <path id="Path_1257" data-name="Path 1257" d="M65.691,906.813s-.891-9.085,3.334-9.433,3.408,9.433,3.408,9.433Z" transform="translate(-36.986 -706.397)" fill="none" stroke="#2e3c4b" stroke-miterlimit="10" stroke-width="1"/>
        <path id="Path_1258" data-name="Path 1258" d="M96.411,914.381s-.444-11.068,3.335-11.291,3.705,11.291,3.705,11.291Z" transform="translate(-11.937 -701.745)" fill="none" stroke="#2e3c4b" stroke-miterlimit="10" stroke-width="1"/>
        <path id="Path_1259" data-name="Path 1259" d="M65.483,866.053s.294-12.449,3.778-12.226,4.152,12.226,4.152,12.226Z" transform="translate(-37.092 -741.833)" fill="none" stroke="#2e3c4b" stroke-miterlimit="10" stroke-width="1"/>
        <path id="Path_1260" data-name="Path 1260" d="M93.938,871.814s-1.42-12.448,3.025-11.68,3.569,11.68,3.569,11.68Z" transform="translate(-14.112 -736.726)" fill="none" stroke="#2e3c4b" stroke-miterlimit="10" stroke-width="1"/>
        <line id="Line_620" data-name="Line 620" x2="1.254" y2="28.091" transform="translate(37.458 23.115)" fill="none" stroke="#2e3c4b" stroke-miterlimit="10" stroke-width="1"/>
        <line id="Line_621" data-name="Line 621" x1="0.682" y2="27.546" transform="translate(45.38 24.234)" fill="none" stroke="#2e3c4b" stroke-miterlimit="10" stroke-width="1"/>
        <line id="Line_622" data-name="Line 622" x2="0.888" y2="27.654" transform="translate(54.093 24.006)" fill="none" stroke="#2e3c4b" stroke-miterlimit="10" stroke-width="1"/>
        <line id="Line_623" data-name="Line 623" y2="27.2" transform="translate(64.302 24.006)" fill="none" stroke="#2e3c4b" stroke-miterlimit="10" stroke-width="1"/>
        <line id="Line_624" data-name="Line 624" x2="0.593" y2="27.302" transform="translate(70.099 23.685)" fill="none" stroke="#2e3c4b" stroke-miterlimit="10" stroke-width="1"/>
        <line id="Line_625" data-name="Line 625" x2="2.13" y2="27.414" transform="translate(75.082 23.573)" fill="none" stroke="#2e3c4b" stroke-miterlimit="10" stroke-width="1"/>
        <path id="Path_1261" data-name="Path 1261" d="M83.08,792.078c1.894.3,2.931.591,2.931,2.222s-.778,2.541-2.784,2.915-2.182-.3-2.441-2.568S83.08,792.078,83.08,792.078Z" transform="translate(-24.655 -792.078)" fill="none" stroke="#2e3c4b" stroke-miterlimit="10" stroke-width="1"/>
        <line id="Line_626" data-name="Line 626" y1="4.591" x2="16.45" transform="translate(99.702 18.524)" fill="none" stroke="#2e3c4b" stroke-miterlimit="10" stroke-width="1"/>
        <line id="Line_627" data-name="Line 627" x2="9.67" transform="translate(106.483 35.086)" fill="none" stroke="#2e3c4b" stroke-miterlimit="10" stroke-width="1"/>
        <line id="Line_628" data-name="Line 628" x2="9.331" y2="4.779" transform="translate(101.987 44.534)" fill="none" stroke="#2e3c4b" stroke-miterlimit="10" stroke-width="1"/>
        <path id="Path_1262" data-name="Path 1262" d="M63.99,807.789c-1.556-1.27-11.893-6.049-11.893-6.049" transform="translate(-47.984 -784.216)" fill="none" stroke="#2e3c4b" stroke-miterlimit="10" stroke-width="1"/>
        <line id="Line_629" data-name="Line 629" x1="12.844" y2="0.556" transform="translate(2.001 33.752)" fill="none" stroke="#2e3c4b" stroke-miterlimit="10" stroke-width="1"/>
        <line id="Line_630" data-name="Line 630" x1="10.059" y2="4.737" transform="translate(0 46.924)" fill="none" stroke="#2e3c4b" stroke-miterlimit="10" stroke-width="1"/>
        <path id="Path_1263" data-name="Path 1263" d="M68.143,837.911s-1.422-14.419,0-16.839c.978-1.667,15.7.321,25.43-.334,9.533-.64,25.331-.965,26.114.43.831,1.48.45,17.3.45,17.3" transform="translate(-35.442 -769.203)" fill="none" stroke="#000" stroke-linecap="round" stroke-miterlimit="10" stroke-width="1"/>
      </g>
    </g>
  </g>
</svg>
