<svg xmlns="http://www.w3.org/2000/svg" width="352.02" height="496.021" viewBox="0 0 352.02 496.021">
  <g id="_11" data-name="11" transform="translate(11833.02 -13859)">
    <rect id="Rectangle_276" data-name="Rectangle 276" width="352" height="496" transform="translate(-11833 13859)" fill="#fff"/>
    <g id="rozewie" transform="translate(-15992.499 13524.045)">
      <path id="Path_2535" data-name="Path 2535" d="M4511.5,530.187c-3.555,5.251-10.374,5.534-13.277,8.128s-3.557,9.03-7.253,10.253c-1.283.426-3.018-1.27-4.21-.633a10.142,10.142,0,0,0-2.917,2.765l-9.423,11.695c-5.056-2.135-7.213-10.721-12.547-9.429-1.39.337-2.549,1.377-3.96,1.613-4.191.7-6.132-5.4-10.044-7.068-1.84-.783-3.941-.481-5.917-.167l-8.8,1.4c-8.223,1.31-17.064,2.933-22.825,8.946-1.121,1.17-2.258,2.574-3.869,2.76-2.514.293-4.42-2.538-6.944-2.742-2.605-.211-5,2.445-7.507,1.707-3.074-.9-2.75-5.463-4.709-8-2.675-3.461-8.374-1.974-12.146-4.188-2.684-1.575-4.146-4.908-7.065-5.987-3.558-1.314-7.382,1.328-11.172,1.158-6.322-.283-10.106-7.958-16.341-9.037a16.925,16.925,0,0,0-6.433.553l-26.908,5.85a13.5,13.5,0,0,0-4.389,1.5c-4.275,2.685-5.011,9.684-9.865,11.069-3.023.862-6.855-.83-9.1,1.368-2.1,2.054-.986,5.981-3,8.115-2.436,2.575-6.625.378-10.156.089-5.815-.477-11.823,4.753-16.99,2.041-3.636-1.909-5.226-7.22-9.308-7.67-2.336-.258-4.7,1.3-6.952.614-4.33-1.316-3.293-8.763-7.295-10.875-3.01-1.59-6.616.959-10,.619-5.922-.6-9.732-9.637-15.333-7.622-2.783,1-4.118,4.469-6.931,5.384-4.558,1.482-9.078-4.673-13.6-3.1-3.01,1.047-4.055,4.939-6.817,6.53-3.014,1.735-6.745.167-10.186-.339s-4.633,8.388-7.819,5.7V809.205H4511.5Z" transform="translate(0 21.771)" fill="#e6c2b0"/>
      <g id="Group_458" data-name="Group 458" transform="translate(4288.398 756.224)">
        <path id="Path_2536" data-name="Path 2536" d="M4276.933,717.069h-2.512l-4.065-4.833v4.833h-1.873V702.933h3.639a4.384,4.384,0,0,1,3.193,1.341,4.82,4.82,0,0,1,.959,1.5,4.85,4.85,0,0,1,.043,3.459,4.468,4.468,0,0,1-.854,1.405,4.624,4.624,0,0,1-1.3,1.011,4.247,4.247,0,0,1-1.554.479Zm-6.577-12.22v5.407h1.766a2.535,2.535,0,0,0,1.021-.213,2.736,2.736,0,0,0,.853-.575,2.837,2.837,0,0,0,.563-.873,2.689,2.689,0,0,0,.2-1.043,2.64,2.64,0,0,0-1.618-2.491,2.535,2.535,0,0,0-1.021-.213Z" transform="translate(-4268.482 -702.89)" fill="#212e3b"/>
        <path id="Path_2537" data-name="Path 2537" d="M4281.512,716.632a6.874,6.874,0,0,1-2.268-1.543,7.113,7.113,0,0,1-1.533-2.289,7.148,7.148,0,0,1-.011-5.492,7.223,7.223,0,0,1,3.812-3.821,6.848,6.848,0,0,1,2.735-.554,6.937,6.937,0,0,1,2.747.554,7.144,7.144,0,0,1,3.809,3.811,6.912,6.912,0,0,1,.554,2.746,6.988,6.988,0,0,1-.554,2.757,7.117,7.117,0,0,1-3.809,3.821,7.127,7.127,0,0,1-5.482.011Zm.745-11.368a5.161,5.161,0,0,0-3.183,4.779,5.244,5.244,0,0,0,.4,2.033,5.156,5.156,0,0,0,9.539,0,5.244,5.244,0,0,0,.4-2.033,5.182,5.182,0,0,0-7.164-4.779Z" transform="translate(-4266.897 -702.89)" fill="#212e3b"/>
        <path id="Path_2538" data-name="Path 2538" d="M4290.514,715.39l7.2-10.559h-7.2v-1.916h9.624v1.724l-7.175,10.5h7.175v1.937h-9.624Z" transform="translate(-4264.457 -702.894)" fill="#212e3b"/>
        <path id="Path_2539" data-name="Path 2539" d="M4300.72,717.072V702.915h7.749v1.916h-5.9v4.3h3.96v1.746h-3.96v4.279h5.9v1.916Z" transform="translate(-4262.592 -702.894)" fill="#212e3b"/>
        <path id="Path_2540" data-name="Path 2540" d="M4322.493,717.075H4320.6l-2.192-6.025-2.108,6.025h-1.917l-5.13-14.178h2.065l4,11.092,2.045-5.812-1.917-5.28h2.066l1.874,5.195,2.149,5.9,3.874-11.092h2.065Z" transform="translate(-4261.033 -702.897)" fill="#212e3b"/>
        <path id="Path_2541" data-name="Path 2541" d="M4326.64,717.072V702.915h1.788v14.157Z" transform="translate(-4257.856 -702.894)" fill="#212e3b"/>
        <path id="Path_2542" data-name="Path 2542" d="M4330.4,717.072V702.915h7.748v1.916h-5.9v4.3h3.961v1.746h-3.961v4.279h5.9v1.916Z" transform="translate(-4257.169 -702.894)" fill="#212e3b"/>
      </g>
      <g id="rozewie_kolor" data-name="rozewie kolor" transform="translate(4296.918 411.032)">
        <path id="Path_2543" data-name="Path 2543" d="M4293.985,522.8c3.411-4.4,31.406-4.254,31.93.624s5.558,40.127,4.719,41.805-38.6,5.036-41.962,2.518S4291.745,525.689,4293.985,522.8Z" transform="translate(-4273.487 -391.191)" fill="#9f311b"/>
        <path id="Path_2544" data-name="Path 2544" d="M4287.033,567.705c6.18-9.094,56.891-8.8,57.839,1.292s10.068,82.968,8.548,86.44-69.929,10.411-76.009,5.205S4282.976,573.678,4287.033,567.705Z" transform="translate(-4275.687 -383.605)" fill="#efe8e5"/>
        <path id="Path_2545" data-name="Path 2545" d="M4291.793,452.644c1.876-1.876,29.373-2.517,30.211,0s-.3,79.159-2.667,80.283-27.544.245-27.544-2.253S4288.436,456,4291.793,452.644Z" transform="translate(-4273.016 -403.732)" fill="#9f311b"/>
        <path id="Path_2546" data-name="Path 2546" d="M4304.045,411.044c1.592-.53,20.141,17.625,19.3,19.3s-33.248,4.2-33.828,1.678S4301.527,411.884,4304.045,411.044Z" transform="translate(-4273.163 -411.032)" fill="#efe8e5"/>
      </g>
      <g id="rozewie-2" data-name="rozewie" transform="translate(4291.723 413.476)">
        <g id="Group_459" data-name="Group 459" transform="translate(28.699 53.761)">
          <circle id="Ellipse_83" data-name="Ellipse 83" cx="1.888" cy="1.888" r="1.888" transform="translate(9.232)" fill="#212e3b"/>
          <circle id="Ellipse_84" data-name="Ellipse 84" cx="1.888" cy="1.888" r="1.888" transform="translate(10.071 21.82)" fill="#212e3b"/>
          <circle id="Ellipse_85" data-name="Ellipse 85" cx="1.888" cy="1.888" r="1.888" transform="translate(9.232 46.997)" fill="#212e3b"/>
          <circle id="Ellipse_86" data-name="Ellipse 86" cx="1.888" cy="1.888" r="1.888" transform="translate(21.82 93.993)" fill="#212e3b"/>
          <circle id="Ellipse_87" data-name="Ellipse 87" cx="1.888" cy="1.888" r="1.888" transform="translate(0 105.743)" fill="#212e3b"/>
          <circle id="Ellipse_88" data-name="Ellipse 88" cx="1.888" cy="1.888" r="1.888" transform="translate(1.679 83.923)" fill="#212e3b"/>
        </g>
        <g id="rozewie-3" data-name="rozewie">
          <path id="Path_2547" data-name="Path 2547" d="M4285.338,569.4c-1.064-2.126,2.443-23.541,2.479-23.756.166-1,.4-2.574.682-4.459,1.6-10.72,3.139-20.454,4.469-21.784.628-.627,3.261-.571,8.706-.3,1.883.093,3.66.181,5.018.181,14.167,0,16.583.462,17.082.962.569.57,2.1,7.444,5.114,21.676.814,3.839,1.455,6.872,1.709,7.893.818,3.264,2.916,16.117,2.872,19.511l-.839-.009c.043-3.347-2.038-16.064-2.845-19.3-.26-1.036-.9-4.076-1.717-7.924-1.616-7.631-4.318-20.4-4.908-21.278-.425-.3-3.659-.692-16.467-.692-1.379,0-3.166-.089-5.058-.182-3-.148-7.536-.371-8.077.063-1.24,1.241-3.259,14.8-4.229,21.31-.281,1.891-.517,3.467-.684,4.473-1.2,7.184-3.247,21.862-2.556,23.243Z" transform="translate(-4268.764 -393.766)" fill="#212e3b"/>
          <path id="Path_2548" data-name="Path 2548" d="M4322.615,533.8l-.593-.594c.424-.945.716-15,.716-36.629,0-6.086-.863-44.237-1.635-45.973-.262-.523-2.6-1.064-12.27-.66-.762.032-1.335.056-1.622.056-.5,0-1.761-.155-3.508-.369-3.169-.389-10.6-1.3-11.3-.593-.6,1.464.843,29.189,1.8,41.631.313,4.073.391,10.584.476,17.476.116,9.673.276,22.921,1.366,23.8l-.458.7c-1.319-.849-1.554-8.484-1.747-24.488-.084-6.879-.162-13.375-.473-17.421-.265-3.445-2.756-41.092-1.558-42.29.845-.842,4.7-.542,12,.354,1.587.194,2.959.362,3.407.362.28,0,.842-.024,1.588-.054,7.557-.315,12.373-.239,13.055,1.126.938,1.878,1.722,43.162,1.722,46.346C4323.577,532.839,4322.879,533.538,4322.615,533.8Z" transform="translate(-4267.604 -406.731)" fill="#212e3b"/>
          <path id="Path_2549" data-name="Path 2549" d="M4324.029,435.624a28.583,28.583,0,0,1-4.139-.537,26.1,26.1,0,0,0-5.663-.6c-1.973.2-5.737.289-8.762.361-2.15.051-4.007.095-4.681.163-1,.1-3.388.061-5.49.026-1.351-.022-2.625-.045-2.945-.012-.068.008-6.324.02-6.474-1.45-.12-1.165,14.714-14.893,19.541-18.6,2.524-1.94,3.107-1.963,3.455-1.831,2.739,1.038,16.573,19.646,16.756,21.448a.8.8,0,0,1-.249.682A1.96,1.96,0,0,1,4324.029,435.624Zm-9.157-2a34.02,34.02,0,0,1,5.16.641c1.761.3,4.426.763,4.772.4-.239-1.637-13.738-19.685-16.2-20.721-.73.045-4.535,2.922-11.443,9.289a137.3,137.3,0,0,0-10.4,10.3c.6.392,4.492.765,5.506.662.353-.035,1.387-.02,3.045.008,1.979.033,4.438.076,5.39-.022.708-.072,2.579-.116,4.747-.168,3.01-.071,6.757-.159,8.7-.356A7.075,7.075,0,0,1,4314.872,433.619Z" transform="translate(-4268.629 -413.099)" fill="#212e3b"/>
          <path id="Path_2550" data-name="Path 2550" d="M4300.3,451.907l-.833-.092c.008-.076.837-7.569.837-10.864v-10.07h.839v10.07C4301.139,444.293,4300.331,451.6,4300.3,451.907Z" transform="translate(-4266.146 -409.849)" fill="#212e3b"/>
          <path id="Path_2551" data-name="Path 2551" d="M4307.4,453.087c-.036-.464-.841-11.384-.841-14.718a24.814,24.814,0,0,1,.533-4.849,13.153,13.153,0,0,0,.307-2.285h.838a13.676,13.676,0,0,1-.32,2.44,24.08,24.08,0,0,0-.52,4.694c0,3.3.83,14.542.839,14.655Z" transform="translate(-4264.85 -409.785)" fill="#212e3b"/>
          <path id="Path_2552" data-name="Path 2552" d="M4314.492,452.575h-.839c0-.847,1.611-20.192,1.678-21.014l.836.069C4315.588,438.591,4314.492,451.926,4314.492,452.575Z" transform="translate(-4263.553 -409.725)" fill="#212e3b"/>
          <rect id="Rectangle_396" data-name="Rectangle 396" width="0.839" height="20.141" transform="translate(25.762 21.87)" fill="#212e3b"/>
          <path id="Path_2553" data-name="Path 2553" d="M4306.708,592.414a7.791,7.791,0,0,1-3.757-.651,1.02,1.02,0,0,1-.51-.91c.021-.491-.142-2.544-.329-4.921-.611-7.776-1.065-14.306-.427-15.459h0c.427-.769,1.483-1.258,3.136-1.455,2.558-.3,6.112.187,6.8.934.949,1.035,2.169,16.43,1.347,20.4-.154.746-.374,1.147-.714,1.3A17.531,17.531,0,0,1,4306.708,592.414Zm-4.289-21.534c-.569,1.027.146,10.107.53,14.986.2,2.6.353,4.482.33,5.023q0,.08.145.181c1.239.843,7,.484,8.489-.183,1.188-1.021-.063-18.991-.928-20.389-.352-.38-3.469-.956-6.063-.646-1.333.157-2.221.523-2.5,1.028Z" transform="translate(-4265.797 -384.627)" fill="#212e3b"/>
          <path id="Path_2554" data-name="Path 2554" d="M4308.511,617.757a9.23,9.23,0,0,1-3.986-.757c-1.122-.623-1.684-6.338-1.959-11.023-.2-3.458-.417-10.3.222-11.456h0c.63-1.13,5.8-.39,8.827.153l.316.057.028.32c.282,3.26,1.645,19.6.719,21.273-.655,1.179-2.708,1.4-3.875,1.429C4308.707,617.756,4308.608,617.757,4308.511,617.757Zm-5-22.813c-1.02,1.949.208,20.4,1.424,21.327a8.9,8.9,0,0,0,3.845.643c1.63-.038,2.841-.42,3.16-1,.61-1.1-.153-13-.793-20.473C4307.782,594.861,4304.006,594.527,4303.514,594.944Z" transform="translate(-4265.616 -380.059)" fill="#212e3b"/>
          <path id="Path_2555" data-name="Path 2555" d="M4307.151,641.509a2.479,2.479,0,0,1-1.77-.423c-.674-.734-2-20.471-.745-21.626h0c1.378-1.266,5.436-1.6,7.231-.607,1.961,1.088,3.251,19.69,2.763,21.42a.547.547,0,0,1-.537.472,14.05,14.05,0,0,0-1.814.227A40.194,40.194,0,0,1,4307.151,641.509Zm-1.919-21.457c-.644,1.358.036,19.2.789,20.492.487.422,4.592-.176,6.137-.4.825-.121,1.366-.2,1.7-.226a65.118,65.118,0,0,0-.5-10.223c-.664-6.46-1.449-9.769-1.9-10.11C4310.006,618.778,4306.371,619.057,4305.232,620.052Z" transform="translate(-4265.296 -375.611)" fill="#212e3b"/>
          <path id="Path_2556" data-name="Path 2556" d="M4323.307,522.522l-.375-.751c1.4-.7,4.324-7.684,4.482-9.55-2.337-1.141-34.668-1.791-37.755-.768.093,2.15,1.5,5.322,2.446,7.445a9,9,0,0,1,.905,2.409h-.418l-.42,0a14.732,14.732,0,0,0-.834-2.071c-1-2.26-2.521-5.676-2.521-8,0-.5,0-1.121,13.851-1.121,5.871,0,12.146.147,16.788.392,8.8.465,8.8,1.051,8.8,1.568C4328.26,513.889,4325.188,521.58,4323.307,522.522Z" transform="translate(-4268.091 -395.372)" fill="#212e3b"/>
          <path id="Path_2557" data-name="Path 2557" d="M4298.448,521.379c-.979-1.419-.231-9.349-.07-10.925l.834.085c-.357,3.528-.693,9.463-.072,10.363Z" transform="translate(-4266.422 -395.311)" fill="#212e3b"/>
          <path id="Path_2558" data-name="Path 2558" d="M4312.766,521.292l-.819-.185c.271-1.2.433-7.334.48-10.406l.838.013C4313.26,511.081,4313.124,519.7,4312.766,521.292Z" transform="translate(-4263.865 -395.265)" fill="#212e3b"/>
          <path id="Path_2559" data-name="Path 2559" d="M4304.183,521.626l-.4-.186c-.686-.768-.083-7.08.338-10.773l.834.095c-.515,4.514-.852,9.543-.529,10.144a.294.294,0,0,0-.243-.119Z" transform="translate(-4265.413 -395.272)" fill="#212e3b"/>
          <path id="Path_2560" data-name="Path 2560" d="M4321.9,451.339l-.838-.018a8.749,8.749,0,0,1,1.181-2.571c1.046-1.947,2.795-5.2,2.487-6.173-.026-.086-.061-.1-.08-.112-1.435-.684-32.217-1.533-34.635-.239.11,1.456,1.81,5.691,2.479,7.251l-.771.33c-.1-.242-2.552-5.973-2.552-7.717a.626.626,0,0,1,.336-.536c2.494-1.541,33.977-.613,35.518.16a1,1,0,0,1,.507.609c.382,1.209-.928,3.806-2.549,6.824A17.06,17.06,0,0,0,4321.9,451.339Z" transform="translate(-4268.026 -408.051)" fill="#212e3b"/>
          <path id="Path_2561" data-name="Path 2561" d="M4330.453,659.28c-22.8,0-53.6-1.264-56.086-3.5-2.271-2.042-1.639-30.253-1.06-46.886.734-21.1,2.176-44.811,3.226-46.328h0c.148-.214.465-.4,1.529-.583,9.161-1.625,62.563-1.784,65.768.479,2.525,1.782,7.4,39.72,8.354,47.307,2.11,16.81,5.309,45.789,3.913,47.766-.238.337-.895.727-3.953,1.07C4348.049,659.062,4339.944,659.28,4330.453,659.28Zm-53.244-96.217c-.749,1.423-2.21,21.249-3.067,45.973-.928,26.749-.621,44.852.786,46.116,2.7,2.429,52.594,4.116,72.864,2.956,6.7-.386,7.525-.954,7.623-1.064.867-1.4-.921-22.163-4.074-47.271-3.7-29.483-6.824-45.774-7.994-46.63C4340.49,561.128,4280.184,561.064,4277.209,563.063Z" transform="translate(-4271.024 -386.119)" fill="#212e3b"/>
          <rect id="Rectangle_397" data-name="Rectangle 397" width="5.8" height="0.839" transform="translate(64.811 19.983) rotate(-18.46)" fill="#212e3b"/>
          <rect id="Rectangle_398" data-name="Rectangle 398" width="9.051" height="0.84" transform="translate(66.364 28.021)" fill="#212e3b"/>
          <rect id="Rectangle_399" data-name="Rectangle 399" width="0.839" height="4.46" transform="translate(63.515 37.476) rotate(-63.534)" fill="#212e3b"/>
          <path id="Path_2562" data-name="Path 2562" d="M4278.5,432.464a35.586,35.586,0,0,1-5.271-2.3l.381-.747a35.194,35.194,0,0,0,5.02,2.215Z" transform="translate(-4270.938 -410.116)" fill="#212e3b"/>
          <rect id="Rectangle_400" data-name="Rectangle 400" width="6.447" height="0.84" transform="translate(0 27.202)" fill="#212e3b"/>
          <path id="Path_2563" data-name="Path 2563" d="M4273.551,445.288l-.273-.794,5.146-1.775.273.794Z" transform="translate(-4270.93 -407.686)" fill="#212e3b"/>
        </g>
      </g>
    </g>
  </g>
</svg>
