<svg xmlns="http://www.w3.org/2000/svg" width="300.188" height="423.122" viewBox="0 0 300.188 423.122">
  <g id="SLIDER" transform="translate(1271 -6435.878)">
    <g id="_12_JAST" data-name="12 JAST" transform="translate(-1271.095 5424.213)">
      <g id="Group_144" data-name="Group 144" transform="translate(0.096 1011.665)">
        <rect id="Rectangle_35" data-name="Rectangle 35" width="300.188" height="423.122" fill="#fcf8f7"/>
      </g>
      <path id="Path_1182" data-name="Path 1182" d="M300.283,1113.471c-21.4,4.144-8.737,24.649-16.77,31.647-1.36,1.186-11.208-5.848-14.166,6.489-1.561,6.515,5.734,12.122,5.239,18.8-.314,4.2-4.416,7.512-8.624,7.683s-8.225-2.321-10.69-5.737c-11.629-16.11,10.01-40.208.508-57.656-5.509-10.115-20.422-15.214-20.449-26.731,0-2.158.575-4.314.29-6.452-.551-4.147-4.223-7.228-8.079-8.853-5.792-2.442-4.642,7.8-10.465,10.173-8.746,3.853-17.923-7.478-18.852,7.7.549,9.016-6.013,13.165-1.986,16.15s7.589,8.45,4.965,12.72c-1.4,2.281-4.225,3.464-5.413,5.863-1.94,3.917,1.516,8.383,5.161,10.8s8,8.079,2.635,12.951c-4.425,6.116-6.606,3.155-13.738.682s-12.8-7.9-18.028-13.341c-1.692-1.761-3.433-3.661-3.964-6.046-.976-4.376,2.414-8.643,2.256-13.123-.181-5.185-4.856-8.917-9.1-11.9-5.411-3.8-10.994-7.672-17.43-9.176s-14.01-.085-18.025,5.166c-2.178,2.849-3.188,6.608-5.946,8.9-4.76,3.957-14.589,4.381-13.724,10.51.433,3.057,3.833,4.842,4.869,7.75,2.577,7.232-9.856,10.864-12.035,18.225-3.679,12.427,7.2,14.828,3.494,27.246-1.712,5.741-9.511-5.043-15.352-6.378s-4.5,17.169-10.478,16.815c-7.486-.444-8.423-2.5-11.936-9.129-1.67-3.15,4.218-6.156,1.5-15.885-1.491-5.333-6.621-4.229-4.744-13.591q4.891-6.6,9.176-13.631c1.645-2.7,3.28-5.819,2.493-8.882-2.064-8.028-16.059-5.2-20.435-12.235-4.756-7.651,5.995-19.945-.954-25.677-3.886-3.2-9.689-.7-14.7-1.213-4.341-.441-8.053-3.2-12.133-4.742s-9.625-1.353-11.72,2.473c-2.609,4.766,2.243,10.674.878,15.932-1.144,4.41,2.065,12.231-8.064,18.844-7.678,5.012,2.24,22.712-5.65,30.99v237.868H300.283Z" transform="translate(0 49.311)" fill="#e9ccbd"/>
      <text id="JASTARNIA" transform="translate(144.924 1379.808)" fill="#2e3c4b" font-size="17" font-family="SulphurPoint-Bold, Sulphur Point" font-weight="700" letter-spacing="0.025em"><tspan x="-37.672" y="0">JASTARNIA</tspan></text>
      <g id="jastarnia_kolor" data-name="jastarnia kolor" transform="translate(125.784 1074.378)">
        <path id="Path_1183" data-name="Path 1183" d="M74.809,1158.391c.751-1.179,42.848-1.779,43.071-.667s0,26.615-.372,27.059-40.772.444-41.958-.593S73.772,1160.023,74.809,1158.391Z" transform="translate(-70.897 -956.058)" fill="#f1ece9"/>
        <path id="Path_1184" data-name="Path 1184" d="M91.783,1046.266c1.842.326,14.812,13.453,13.078,14.777s-29.07.441-29.641-1.092S88.756,1045.729,91.783,1046.266Z" transform="translate(-70.142 -1046.249)" fill="#f1ece9"/>
        <g id="Group_145" data-name="Group 145" transform="translate(0 30.577)">
          <path id="Path_1185" data-name="Path 1185" d="M80.694,1127.824c-2.094-1.429-1.458-34.087,0-36.625s20.676-3.661,21.684,0,1.268,36.061-1.516,36.625S85.239,1130.923,80.694,1127.824Z" transform="translate(-66.767 -1042.17)" fill="#ae4426"/>
          <path id="Path_1186" data-name="Path 1186" d="M79.762,1079.062c-2.178-.586-1.516-13.954,0-14.991s21.483-1.5,22.531,0,1.317,14.76-1.576,14.991S84.482,1080.329,79.762,1079.062Z" transform="translate(-67.569 -1063.111)" fill="#ae4426"/>
          <path id="Path_1187" data-name="Path 1187" d="M79.359,1171.543c-2.435-1.427-1.694-34.088,0-36.623s24.036-3.663,25.209,0,1.474,36.061-1.763,36.623S84.641,1174.642,79.359,1171.543Z" transform="translate(-68.031 -1006.61)" fill="#ae4426"/>
          <path id="Path_1188" data-name="Path 1188" d="M82.769,1163.448c1.672-1.331,11.977.052,12.092,1s-.374,16.217-1.228,16.7-11.591-.131-12.079-1.229S81.543,1164.423,82.769,1163.448Z" transform="translate(-65.13 -981.948)" fill="#ae4426"/>
          <path id="Path_1189" data-name="Path 1189" d="M72.822,1155.4c1.054-1.217,44.65-.292,45.733,0s1.685,2.432.843,2.822-45.372-.1-46.094-.39A1.532,1.532,0,0,1,72.822,1155.4Z" transform="translate(-72.412 -988.546)" fill="#ae4426"/>
        </g>
        <path id="Path_1190" data-name="Path 1190" d="M77.939,1112.708a129.4,129.4,0,0,1,14.006-.854c4.795.183,7.041-1.222,9.44.854s3.344,37.681,1.059,39.379-12.425,1.7-17.579,1.514-5.955-.4-6.5-2.212S76.92,1114.833,77.939,1112.708Z" transform="translate(-68.293 -993.129)" fill="#f1ece9"/>
        <path id="Path_1191" data-name="Path 1191" d="M77.939,1072.339s9.21-.883,14.006-.727,7.041-1.041,9.44.727,3.344,32.078,1.059,33.524-12.425,1.443-17.579,1.289-5.955-.336-6.5-1.882S76.92,1074.149,77.939,1072.339Z" transform="translate(-68.293 -1025.825)" fill="#f1ece9"/>
      </g>
      <g id="jastarnia-2" data-name="jastarnia" transform="translate(112.052 1072.852)">
        <path id="Path_1192" data-name="Path 1192" d="M116.507,1156.932c.549,2.765.267,28.58-.457,29.3s-37.2,2.24-41.551-.3c-1.563-.912-1.048-27.441-.321-29.394" transform="translate(-57.813 -955.011)" fill="none" stroke="#2e3c4b" stroke-miterlimit="10" stroke-width="0.9"/>
        <path id="Path_1193" data-name="Path 1193" d="M91.359,1221.716s.711-57.6-.013-84.4-.733-65.553-.733-65.553" transform="translate(-43.875 -1023.969)" fill="none" stroke="#2e3c4b" stroke-miterlimit="10" stroke-width="0.9"/>
        <path id="Path_1194" data-name="Path 1194" d="M78.16,1071.655c-.724,3.621.335,75.169,1.059,102.695s.018,47.981.018,47.981" transform="translate(-54.202 -1024.058)" fill="none" stroke="#2e3c4b" stroke-miterlimit="10" stroke-width="0.9"/>
        <path id="Path_1195" data-name="Path 1195" d="M78.351,1085.554c-.335-1.944-.267-13.054-.542-17.927-.092-1.628-.281-11.87.109-13.06" transform="translate(-54.394 -1037.957)" fill="none" stroke="#2e3c4b" stroke-miterlimit="10" stroke-width="0.9"/>
        <path id="Path_1196" data-name="Path 1196" d="M92.327,1054.407c.381,1.189-1.715,31.277-1.715,31.277" transform="translate(-43.877 -1038.087)" fill="none" stroke="#2e3c4b" stroke-miterlimit="10" stroke-width="0.9"/>
        <path id="Path_1197" data-name="Path 1197" d="M81.3,1081.96s-6.477-2.954-6.659-3.657-1.367-14.415-.461-14.958,38.253-.651,38.976-.366-1.086,14.411-1.63,15.86-7.036,4-7.036,4" transform="translate(-57.513 -1031.24)" fill="none" stroke="#2e3c4b" stroke-miterlimit="10" stroke-width="0.9"/>
        <path id="Path_1198" data-name="Path 1198" d="M112.739,1066.706c-4.61.181-20.005,1.351-20.005,1.351-4.778.181-18.7-1.351-18.7-1.351" transform="translate(-57.362 -1028.083)" fill="none" stroke="#2e3c4b" stroke-miterlimit="10" stroke-width="0.9"/>
        <path id="Path_1199" data-name="Path 1199" d="M74.064,1070.856s2.881.6,7.23,1.449c2.845.557,14.831.384,22.781.2,4.2-.1,7.279-.2,7.279-.2" transform="translate(-57.336 -1024.708)" fill="none" stroke="#2e3c4b" stroke-miterlimit="10" stroke-width="0.9"/>
        <path id="Path_1200" data-name="Path 1200" d="M91.3,1045.407c.627-.018,15.564,15.667,15.359,16.079s-11.528.31-14.732.517-14.106.308-15.664-.62S87.9,1045.51,91.3,1045.407Z" transform="translate(-55.648 -1045.407)" fill="none" stroke="#2e3c4b" stroke-miterlimit="10" stroke-width="0.9"/>
        <path id="Path_1201" data-name="Path 1201" d="M86.11,1120.844c1.543,0,2.348,2.541,2.08,4.222s-4.626.341-5.13-1.269S86.11,1120.844,86.11,1120.844Z" transform="translate(-50.059 -984.049)" fill="none" stroke="#2e3c4b" stroke-miterlimit="10" stroke-width="0.9"/>
        <path id="Path_1202" data-name="Path 1202" d="M81.424,1181.739s.41-15.526.812-17.078,10.062-1.552,10.867-.613,1.618,17.581,1.618,17.581" transform="translate(-51.35 -949.431)" fill="none" stroke="#2e3c4b" stroke-miterlimit="10" stroke-width="0.9"/>
        <path id="Path_1203" data-name="Path 1203" d="M75.308,1172.755s-3.427,4.486-2.731,5.56,46.315.4,47.925-.537-3.643-4.728-3.643-4.728" transform="translate(-58.622 -941.827)" fill="none" stroke="#2e3c4b" stroke-miterlimit="10" stroke-width="0.9"/>
        <path id="Path_1204" data-name="Path 1204" d="M81.582,1054.779s-1.485,13.753-1.284,14.85" transform="translate(-52.281 -1037.784)" fill="none" stroke="#2e3c4b" stroke-miterlimit="10" stroke-width="0.9"/>
        <path id="Path_1205" data-name="Path 1205" d="M84.848,1054.559s.308,13.856.029,15.015" transform="translate(-48.565 -1037.963)" fill="none" stroke="#2e3c4b" stroke-miterlimit="10" stroke-width="0.9"/>
        <path id="Path_1206" data-name="Path 1206" d="M88.08,1054.567s1.661,13.968,1.393,15" transform="translate(-45.936 -1037.957)" fill="none" stroke="#2e3c4b" stroke-miterlimit="10" stroke-width="0.9"/>
        <path id="Path_1207" data-name="Path 1207" d="M71.715,1155.787c.72-1.311,16.507-.517,20.736-.611s26.261-1.291,27.32-.711,2.376,3.433,1.342,4.287-47.425.392-48.9-.533A1.718,1.718,0,0,1,71.715,1155.787Z" transform="translate(-59.503 -956.832)" fill="none" stroke="#2e3c4b" stroke-miterlimit="10" stroke-width="0.9"/>
        <line id="Line_588" data-name="Line 588" y1="3.002" x2="6.561" transform="translate(60.158 11.341)" fill="none" stroke="#2e3c4b" stroke-miterlimit="10" stroke-width="0.9"/>
        <line id="Line_589" data-name="Line 589" y1="0.445" x2="8.562" transform="translate(62.271 20.237)" fill="none" stroke="#2e3c4b" stroke-miterlimit="10" stroke-width="0.9"/>
        <line id="Line_590" data-name="Line 590" x2="5.171" y2="2.558" transform="translate(61.381 26.019)" fill="none" stroke="#2e3c4b" stroke-miterlimit="10" stroke-width="0.9"/>
        <line id="Line_591" data-name="Line 591" x1="7.005" y1="2.669" transform="translate(3.002 10.785)" fill="none" stroke="#2e3c4b" stroke-miterlimit="10" stroke-width="0.9"/>
        <line id="Line_592" data-name="Line 592" x1="7.45" y1="0.445" transform="translate(0 19.792)" fill="none" stroke="#2e3c4b" stroke-miterlimit="10" stroke-width="0.9"/>
        <line id="Line_593" data-name="Line 593" x1="5.782" y2="2.669" transform="translate(1.668 27.798)" fill="none" stroke="#2e3c4b" stroke-miterlimit="10" stroke-width="0.9"/>
      </g>
    </g>
  </g>
</svg>
