<svg xmlns="http://www.w3.org/2000/svg" width="352.357" height="496.075" viewBox="0 0 352.357 496.075">
  <g id="_13" data-name="13" transform="translate(10998.357 -13859)">
    <rect id="Rectangle_276" data-name="Rectangle 276" width="352" height="496" transform="translate(-10998 13859)" fill="#fff"/>
    <g id="hel" transform="translate(-15866.499 13523.991)">
      <path id="Path_2586" data-name="Path 2586" d="M5220.5,499.066c-5.5,1.728-9.562-6.145-12.3-11.223s-4.937-11.116-10.134-13.62c-3.925-1.892-8.9-1.334-12.332-4.022-3.446-2.7-4.21-7.854-7.671-10.534-3.591-2.782-8.826-1.931-12.937,0s-7.833,4.805-12.242,5.9c-3.064.761-6.454.667-9.095,2.4-3.692,2.416-4.539,7.4-7.05,11.025-3.424,4.946-9.89,7.249-12.929,12.441-3.216,5.5-1.777,12.872-5.213,18.235-2.7,4.209-8.031,6.536-9.736,11.234-3.388,9.331,10.039,18.786,6.461,28.048-2.689,6.962-13.39,8.435-15.357,15.634-1.652,6.054,4.037,12.922.967,18.4-2.188,3.9-7.7,4.69-10.384,8.273-3.694,4.938-.866,13.5-5.924,17.026-4.269,2.979-9.857-.491-14.87-1.9-11.172-3.13-22.873,4.778-34.342,3.021-9.926-1.521-18.922-10.142-28.639-7.607-7.613,1.985-14.481,10.578-21.57,7.165-8.887-4.278-3.167-20.737-11.585-25.876-4.46-2.723-11.468-1.008-14.3-5.4-3.047-4.72,2.245-11.553-.593-16.4-1.506-2.573-4.8-3.561-6.62-5.918a13.278,13.278,0,0,1-2.015-4.954l-7.116-27.8a24.488,24.488,0,0,0-3.069-7.966c-1.614-2.35-4.063-4.16-5.112-6.812-1.559-3.943.388-8.745-1.586-12.5-2.311-4.4-8.994-5.391-10.625-10.082-1.749-5.027,3.549-11.153.492-15.51-1.977-2.819-6.208-2.743-9.473-1.651s-6.474,2.917-9.9,2.589c-3.188-.3-5.862-2.413-8.75-3.8s-6.81-1.859-8.906.561a11.386,11.386,0,0,0-1.772,3.9c-2.487,7.2-7.272,30.415-16.13,31.729v319.7H5220.5Z" transform="translate(0 8.318)" fill="#e6c2b0"/>
      <g id="Group_461" data-name="Group 461" transform="translate(5030.096 756.164)">
        <path id="Path_2587" data-name="Path 2587" d="M5012.572,716.985V710.87h-5.752v6.116h-1.876V702.816h1.876v6.136h5.752v-6.136h1.855v14.169Z" transform="translate(-5004.944 -702.816)" fill="#212e3b"/>
        <path id="Path_2588" data-name="Path 2588" d="M5015.2,716.985V702.816h7.755v1.918h-5.9v4.3h3.965v1.747h-3.965v4.283h5.9v1.918Z" transform="translate(-5003.058 -702.816)" fill="#212e3b"/>
        <path id="Path_2589" data-name="Path 2589" d="M5024.006,716.985V702.816h1.833v12.252h4.261v1.918Z" transform="translate(-5001.44 -702.816)" fill="#212e3b"/>
      </g>
      <g id="hel_kolor" data-name="hel kolor" transform="translate(5016.729 423.85)">
        <path id="Path_2590" data-name="Path 2590" d="M4997.742,446.959c.9-.527,19.786-2.417,20.3-2s.041,10.349-.709,11.03-16.868,3.959-18.169,3.959S4996.793,447.512,4997.742,446.959Z" transform="translate(-4992.969 -417.92)" fill="#9f311b"/>
        <path id="Path_2591" data-name="Path 2591" d="M4995.842,461.457c1.471-2.724,17.966-5.772,20.724-3.883,1.329.91,11.254,49.269,17.857,99.468,7.1,54,10.852,110.112,10.445,110.825-.786,1.374-17.842,4.541-17.851,2.969s-4.907-13.877-7.086-12.921-4.76,11.782-6.417,13.348-15.1,1.655-17.673,0S4992.6,467.467,4995.842,461.457Z" transform="translate(-4993.654 -415.698)" fill="#9f311b"/>
        <path id="Path_2592" data-name="Path 2592" d="M5009.468,542.449c.931-.983,4.286-1.395,4.764-1.055s.714,11.6.305,11.944-3.845.646-4.695.17S5008.854,543.1,5009.468,542.449Z" transform="translate(-4990.815 -400.201)" fill="#fff"/>
        <path id="Path_2593" data-name="Path 2593" d="M5010.483,476.354a6.293,6.293,0,0,1-3.612,1.192c-.4-.167-1.591-7.347-1.3-7.609a8.5,8.5,0,0,1,3.638-.619C5009.91,469.531,5010.9,475.873,5010.483,476.354Z" transform="translate(-4991.472 -413.439)" fill="#fff"/>
        <path id="Path_2594" data-name="Path 2594" d="M5012.446,432.528c.494-.893,5.716-.764,5.768,0s-.687,11.944-1.315,12.351-3.687.868-3.993.305A95.751,95.751,0,0,1,5012.446,432.528Z" transform="translate(-4990.214 -420.309)" fill="#9f311b"/>
        <path id="Path_2595" data-name="Path 2595" d="M5000.649,433.351c.715.494,2.042,12.692,1.786,12.948a9.242,9.242,0,0,1-3.317.51c-.664-.1-1.553-11.391-1.429-12.507S5000.649,433.351,5000.649,433.351Z" transform="translate(-4992.914 -420.045)" fill="#9f311b"/>
        <path id="Path_2596" data-name="Path 2596" d="M5010.529,422.129c1.841-.475,12.084,8,10.752,8.842s-22.555,3.393-23.667,2.434S5008.624,422.62,5010.529,422.129Z" transform="translate(-4992.939 -422.11)" fill="#efe8e5"/>
      </g>
      <g id="hel-2" data-name="hel" transform="translate(4998.36 412.643)">
        <g id="Group_462" data-name="Group 462" transform="translate(14.831)">
          <path id="Path_2597" data-name="Path 2597" d="M5005.724,676.7c-5.622,0-10.4-.615-11.591-2.537-2.207-3.547-2.621-47.6-2.741-94.683l-.023-8.542c-.088-23.58,5.452-108.571,7.783-112.1,1.533-2.323,19.5-4.325,20.347-4.325h0c.418.006,1.194.014,6.831,21.862,2.665,10.326,5.791,23.425,6.362,27.785.184,1.406.579,4.237,1.108,8.036,2.505,17.975,8.373,60.074,8.563,71.516.1,6.143,1.994,24.608,3.825,42.466,3.169,30.936,4.565,45.63,3.671,46.722-.994,1.212-4.831,1.3-11.01,1.345a76.319,76.319,0,0,0-10.492.517A179.54,179.54,0,0,1,5005.724,676.7Zm13.614-221.342c-2.215.1-18.341,2.215-19.48,3.941h0c-2.022,3.065-7.738,86.531-7.646,111.635l.025,8.543c.075,29.345.229,90.407,2.612,94.239.607.977,3.37,2.541,15.03,2.047a176.384,176.384,0,0,0,18.346-1.839,76.546,76.546,0,0,1,10.623-.528c4.485-.033,9.569-.07,10.361-1.036.712-1.507-1.716-25.2-3.858-46.1-1.916-18.7-3.725-36.358-3.828-42.537-.19-11.391-6.051-53.453-8.556-71.413-.53-3.8-.924-6.635-1.108-8.043C5030.823,496.344,5020.971,457.932,5019.338,455.363Z" transform="translate(-4990.536 -404.945)" fill="#212e3b"/>
          <path id="Path_2598" data-name="Path 2598" d="M4998.738,463.47c-2.007-3.25-8.524-13.986-8.048-15.652.363-1.273,4.722-2.082,17.275-3.2,1.156-.1,2.106-.188,2.726-.256.544-.058,1.251-.144,2.065-.244,6.912-.841,13.221-1.487,14.5-.176,1.557,1.6-4.379,12.339-6.238,15.594l-.733-.418c4.12-7.221,7.035-13.9,6.365-14.585-1.09-1.118-9.993-.038-13.794.425-.818.1-1.528.186-2.076.245-.624.067-1.578.153-2.741.257-3.933.352-15.9,1.423-16.542,2.607-.207.962,3.884,8.369,7.958,14.964Z" transform="translate(-4990.665 -407.027)" fill="#212e3b"/>
          <path id="Path_2599" data-name="Path 2599" d="M4999.516,462.532c-.849-8.425-2.745-28.133-1.983-29.175s12.621-2.12,17.215-2.268c4.062-.135,4.369.223,4.546.433.884,1.056-.036,19.758-.473,27.751l-.844-.046c.542-9.9,1.2-26.041.646-27.2-1.176-.677-19.186.894-20.437,1.86-.388,1.11,1.118,18.118,2.172,28.558Z" transform="translate(-4989.435 -409.257)" fill="#212e3b"/>
          <path id="Path_2600" data-name="Path 2600" d="M4997.158,435.9a2.4,2.4,0,0,1-1.906-.771c-.352-.419.01-1.058.147-1.3,1.472-2.6,11.192-12.079,13.639-12.079a.7.7,0,0,1,.123.009c1.655.262,15.134,9.853,15.09,11.365a.5.5,0,0,1-.469.485c-1.32.131-4.249.3-4.374.313l-.051-.844c.028,0,2.318-.137,3.769-.257-1.922-2.017-12.33-9.948-14.1-10.227-.345-.06-1.716.6-4.928,3.351-4.312,3.7-8.015,7.8-8.151,8.7.7.729,2.194.272,2.21.266l.255.8A4.453,4.453,0,0,1,4997.158,435.9Z" transform="translate(-4989.849 -410.968)" fill="#212e3b"/>
          <path id="Path_2601" data-name="Path 2601" d="M5003.1,447.524c-1.333-1.709-2.266-13.695-2.368-15.056l.842-.064c.393,5.243,1.3,13.458,2.191,14.6Z" transform="translate(-4988.813 -409.01)" fill="#212e3b"/>
          <path id="Path_2602" data-name="Path 2602" d="M5008.328,446.882l-.844-.011c.02-1.723-1.414-14.871-1.428-15l.839-.091C5006.956,432.319,5008.349,445.108,5008.328,446.882Z" transform="translate(-4987.835 -409.125)" fill="#212e3b"/>
          <path id="Path_2603" data-name="Path 2603" d="M5012.726,446.361l-.839-.1c.147-1.213-.417-10.188-.736-14.765l.844-.058C5012.031,431.98,5012.917,444.765,5012.726,446.361Z" transform="translate(-4986.899 -409.188)" fill="#212e3b"/>
          <path id="Path_2604" data-name="Path 2604" d="M5008.046,424.2l-.839-.1c.141-1.147-.1-7.969-.245-11.416l.843-.036C5007.822,413.053,5008.231,422.7,5008.046,424.2Z" transform="translate(-4987.669 -412.643)" fill="#212e3b"/>
          <path id="Path_2605" data-name="Path 2605" d="M5007.6,478.53a1.852,1.852,0,0,1-.4-.04.845.845,0,0,1-.66-.516l-.044-.116c-2.708-7.165-1.916-7.784-1.578-8.048h0c.461-.36,2.741-1.5,3.784-1.179a.834.834,0,0,1,.574.543c.022.07,1.913,7.343.829,8.4A4.081,4.081,0,0,1,5007.6,478.53Zm-2.153-8.063c-.046.078-.457,1.018,1.837,7.092l.045.12a3.151,3.151,0,0,0,2.184-.71c.452-.658-.626-6.231-1.044-7.539C5008.13,469.2,5006.062,469.994,5005.445,470.467Zm-.01.007Z" transform="translate(-4988.114 -402.36)" fill="#212e3b"/>
          <path id="Path_2606" data-name="Path 2606" d="M5010.364,554.725a4.94,4.94,0,0,1-.883-.072c-1.056-.2-1.371-.73-1.448-1.144-.274-1.453-.5-10.16.164-11.6h0a1.949,1.949,0,0,1,1.815-1.019c1.41-.1,3.461.521,3.787,1.023.445.687.332,11.052-.129,11.8C5013.289,554.327,5011.683,554.725,5010.364,554.725Zm-1.4-12.465c-.541,1.18-.4,9.531-.1,11.093.047.255.387.384.664.446a5.321,5.321,0,0,0,3.425-.535c.368-.832.335-10.232.11-10.951a6.687,6.687,0,0,0-3.319-.54,1,1,0,0,0-.777.487Z" transform="translate(-4987.521 -389.067)" fill="#212e3b"/>
          <path id="Path_2607" data-name="Path 2607" d="M5013.495,643.846l-.844-.026c.014-.472.388-11.61,4.128-14.938a3.489,3.489,0,0,1,2.7-.947,3.73,3.73,0,0,1,2.7,1.5c2.865,3.673,1.427,12.9,1.364,13.293l-.834-.134c.015-.092,1.444-9.256-1.2-12.64a2.873,2.873,0,0,0-2.1-1.178,2.672,2.672,0,0,0-2.062.736C5013.871,632.6,5013.5,643.734,5013.495,643.846Z" transform="translate(-4986.623 -373.064)" fill="#212e3b"/>
        </g>
        <rect id="Rectangle_417" data-name="Rectangle 417" width="10.923" height="0.845" transform="translate(57.085 21.747) rotate(-34.517)" fill="#212e3b"/>
        <rect id="Rectangle_418" data-name="Rectangle 418" width="6.652" height="0.845" transform="translate(58.233 27.654)" fill="#212e3b"/>
        <rect id="Rectangle_419" data-name="Rectangle 419" width="0.845" height="9.584" transform="translate(58.693 34.507) rotate(-80.225)" fill="#212e3b"/>
        <path id="Path_2608" data-name="Path 2608" d="M4991.72,434.846c-1.378-.295-12.338-6.032-13.583-6.684l.393-.748c4.849,2.543,12.41,6.4,13.365,6.6Z" transform="translate(-4978.137 -409.927)" fill="#212e3b"/>
        <rect id="Rectangle_420" data-name="Rectangle 420" width="13.48" height="0.845" transform="matrix(1, -0.03, 0.03, 1, 0.184, 30.824)" fill="#212e3b"/>
        <rect id="Rectangle_421" data-name="Rectangle 421" width="8.347" height="0.845" transform="matrix(0.832, -0.555, 0.555, 0.832, 3.364, 40.876)" fill="#212e3b"/>
      </g>
    </g>
  </g>
</svg>
