<svg xmlns="http://www.w3.org/2000/svg" width="353.891" height="496" viewBox="0 0 353.891 496">
  <g id="_14" data-name="14" transform="translate(10580.891 -13859)">
    <rect id="Rectangle_275" data-name="Rectangle 275" width="352" height="496" transform="translate(-10580 13859)" fill="#fff"/>
    <g id="sopot" transform="translate(-15803.499 13518.161)">
      <path id="Path_2494" data-name="Path 2494" d="M5576.5,817.995h-353.89V492.317l2.566.811s.252,15.311,1.006,17.574,7.294,6.539,6.791,13.693-7.294,13.048-7.294,13.048,12.074,51.737,15.451,48.429c5.01-4.908,8.564-11.113,13.217-16.361,1.633-1.841,4.554-5.258,5.291-7.606.917-2.923-3.209-8.1-3.449-11.158-.567-7.217,3.809-10.777,5.969-17.687l10.894-34.858a103.482,103.482,0,0,0,11.843,40.567c2.5,4.68,5.443,10.067,3.425,14.973-.694,1.689-1.945,3.151-2.351,4.932-.568,2.5.629,5.022,1.794,7.305l12.108,23.741c2.268,4.447,4.651,9.037,8.568,12.131,5.809,4.587,13.771,5,21.169,5.223a21.489,21.489,0,0,0,6.894-.54c9.045-2.748,10.741-15.343,18.448-20.819,6.116-4.345,14.389-3.2,21.836-2.284,29.122,3.6,49.134.724,78.469,1.416,2.8.065,5.723.2,8.15,1.587a17.385,17.385,0,0,1,4.646,4.519c5.958,7.462,2.993,15.583,8.95,23.045,13.737-15.138,17.55-30.983,22.163-50.9,2.372-10.243,12.3-8.606,11.364-19.079-.207-2.314-.078-16.587-.191-19.118-.16-3.6-6.986-4.266-4.753-7.088q7.578-9.578,15.153-19.159,7.457,9.841,14.7,19.84c1.019,1.407-6.376,2.967-6.227,4.7.241,2.807-.658,8.235-1.246,16.23-1.027,13.972,7.828,10.522,10.921,24.186s-2.786,28.8,5.721,39.929c4.793,6.268,7.811-4.129,7.811-4.129,2.264-4.318,7.546-10.094,8.678-14.564s-.051-58.907-.5-60.938c-.251-1.132-3.022.608-4.531-.916s5.789-25.83,8.053-26.1,12.383.241,12.383.241Z" transform="translate(0 18.749)" fill="#e6c2b0"/>
      <g id="Group_457" data-name="Group 457" transform="translate(5369.156 761.538)">
        <path id="Path_2495" data-name="Path 2495" d="M5353.172,705.94a2.364,2.364,0,0,0-.953-.846,3.4,3.4,0,0,0-1.445-.268,2.715,2.715,0,0,0-2.035.621,2.18,2.18,0,0,0-.557,1.606,2.336,2.336,0,0,0,.173.975,1.444,1.444,0,0,0,.512.609,3.587,3.587,0,0,0,1.691.471,11.666,11.666,0,0,1,2.023.333,5.452,5.452,0,0,1,1.445.609,3.384,3.384,0,0,1,1.564,3.084,3.767,3.767,0,0,1-.322,1.542,4.226,4.226,0,0,1-.9,1.3,4.27,4.27,0,0,1-1.617.985,5.891,5.891,0,0,1-1.937.321A5.033,5.033,0,0,1,5347.2,716a5.085,5.085,0,0,1-1.392-3.083l.042-.021h1.884a2.791,2.791,0,0,0,.772,1.692,3.179,3.179,0,0,0,2.247.771,3.38,3.38,0,0,0,2.142-.621,1.944,1.944,0,0,0,.792-1.6,2.377,2.377,0,0,0-.117-.783,1.331,1.331,0,0,0-.44-.589,5.418,5.418,0,0,0-2.719-.705,4.912,4.912,0,0,1-3.082-1.179,3.732,3.732,0,0,1-1.049-2.826,4.025,4.025,0,0,1,1.134-2.976,5.194,5.194,0,0,1,6.808.15,5.368,5.368,0,0,1,1.329,3.084h-1.927A3.346,3.346,0,0,0,5353.172,705.94Z" transform="translate(-5345.805 -702.879)" fill="#212e3b"/>
        <path id="Path_2496" data-name="Path 2496" d="M5359.942,716.71a6.865,6.865,0,0,1-2.28-1.551,7.14,7.14,0,0,1-1.542-2.3,7.193,7.193,0,0,1-.012-5.526,7.267,7.267,0,0,1,3.834-3.842,6.885,6.885,0,0,1,2.75-.558,6.967,6.967,0,0,1,2.762.558,7.185,7.185,0,0,1,3.833,3.832,6.955,6.955,0,0,1,.557,2.762,7.034,7.034,0,0,1-.557,2.774,7.157,7.157,0,0,1-3.833,3.842,7.163,7.163,0,0,1-5.512.011Zm.749-11.434a5.188,5.188,0,0,0-3.2,4.807,5.245,5.245,0,0,0,.407,2.045,5.184,5.184,0,0,0,9.592,0,5.246,5.246,0,0,0,.407-2.045,5.211,5.211,0,0,0-7.2-4.807Z" transform="translate(-5343.956 -702.869)" fill="#212e3b"/>
        <path id="Path_2497" data-name="Path 2497" d="M5371.523,712.207v4.946h-1.884V702.914h4a4.383,4.383,0,0,1,1.734.354,4.6,4.6,0,0,1,1.479.995,4.831,4.831,0,0,1,1,1.511,4.641,4.641,0,0,1-1,5.063,4.773,4.773,0,0,1-1.479,1.008,4.29,4.29,0,0,1-1.734.363Zm0-7.344v5.44h2.118a2.494,2.494,0,0,0,1.884-.814,2.716,2.716,0,0,0,0-3.834,2.574,2.574,0,0,0-1.884-.792Z" transform="translate(-5341.288 -702.872)" fill="#212e3b"/>
        <path id="Path_2498" data-name="Path 2498" d="M5383.108,716.71a6.875,6.875,0,0,1-2.28-1.551,7.139,7.139,0,0,1-1.542-2.3,7.193,7.193,0,0,1-.012-5.526,7.264,7.264,0,0,1,3.834-3.842,6.885,6.885,0,0,1,2.75-.558,6.967,6.967,0,0,1,2.762.558,7.185,7.185,0,0,1,3.833,3.832,6.963,6.963,0,0,1,.556,2.762,7.042,7.042,0,0,1-.556,2.774,7.157,7.157,0,0,1-3.833,3.842,7.164,7.164,0,0,1-5.512.011Zm.75-11.434a5.188,5.188,0,0,0-3.2,4.807,5.245,5.245,0,0,0,.407,2.045,5.184,5.184,0,0,0,9.592,0,5.255,5.255,0,0,0,.407-2.045,5.211,5.211,0,0,0-7.2-4.807Z" transform="translate(-5339.565 -702.869)" fill="#212e3b"/>
        <path id="Path_2499" data-name="Path 2499" d="M5396.876,704.734v12.419h-1.884V704.734h-3.448v-1.82h8.779v1.82Z" transform="translate(-5337.136 -702.872)" fill="#212e3b"/>
      </g>
      <g id="sopot_kolor" data-name="sopot kolor" transform="translate(5365.155 413.68)">
        <path id="Path_2500" data-name="Path 2500" d="M5355.5,548.658c1.595-1.667,21.656-2.041,21.947-.657s1.246,19.322.368,19.687-29.314-.073-30.189-.583S5353.9,550.335,5355.5,548.658Z" transform="translate(-5341.473 -384.538)" fill="#9f311b"/>
        <path id="Path_2501" data-name="Path 2501" d="M5348.742,592.3c.875-1.313,29.038-.547,29.2,0s-.63,7.546-1,7.984-33.616.655-34.437-.93S5348.742,592.3,5348.742,592.3Z" transform="translate(-5342.441 -376.118)" fill="#9f311b"/>
        <path id="Path_2502" data-name="Path 2502" d="M5344.7,621.118c1.171-1.713,32.636.874,34.254-.766s1.115-121.948.819-122.823-1.75-3.008-1.57-4.348,34.814-1.311,36.638-.887,7.511,1.407,6.527,3.048-3.718,6.125-3.609,7.328,4.169,169.251,2.515,171.493-74.809,1.859-75.574-1.2S5343.595,622.732,5344.7,621.118Z" transform="translate(-5342.147 -394.985)" fill="#efe8e5"/>
        <path id="Path_2503" data-name="Path 2503" d="M5389.749,410.513c3.417-1.079,7.583,11.812,7.437,12.541s-11.958-.146-12.4-.875S5384.207,412.263,5389.749,410.513Z" transform="translate(-5334.451 -410.449)" fill="#212e3b"/>
        <path id="Path_2504" data-name="Path 2504" d="M5400.245,434.717c.306.272,4.808,23.769,5.391,24.207s11.761,8.6,11.2,9.187-8.724,1.167-9.817,1.6-.365,3.646-1.386,4.084-26.686.291-26.831,0-.729-4.229-2.188-4.229-5.79.984-7.874,0,9.04-4.667,10.791-8.6,5.979-24.79,7-25.228S5398.936,433.55,5400.245,434.717Z" transform="translate(-5337.506 -405.924)" fill="#ad6e42"/>
        <path id="Path_2505" data-name="Path 2505" d="M5368.834,467.027c2.358-.41,6.765-.565,9.352,1.022s24.313,3.572,26.3,3,2.886-4.571,4.521-4.368,5.56-1.368,6.827-.007,1.785,28.616,1.1,29.489-9.263-2.429-12.442-2.429-31.623.861-32.118.719,1.659-.144-.5-.144-4.118-4.016-3.854-13.208S5367.472,467.263,5368.834,467.027Z" transform="translate(-5337.597 -399.899)" fill="#efe8e5"/>
        <path id="Path_2506" data-name="Path 2506" d="M5348.2,567.117c2.126-1.455,28.239-1.724,28.86-.862s1.292,27.185.429,28.716-29.02.479-29.873-.573S5347.392,567.671,5348.2,567.117Z" transform="translate(-5341.538 -381.01)" fill="#efe8e5"/>
        <path id="Path_2507" data-name="Path 2507" d="M5402.582,487.659s-1-13.891-12.523-13.891c-11.075,0-11.075,13.978-11.075,13.978" transform="translate(-5335.515 -398.447)" fill="#212e3b"/>
        <path id="Path_2508" data-name="Path 2508" d="M5368.827,486.858s.874-9.713,2.406-9.494,3.609,9.494,3.609,9.494" transform="translate(-5337.44 -397.766)" fill="#212e3b"/>
        <path id="Path_2509" data-name="Path 2509" d="M5402.6,486.719s.292-8.6,1.933-8.158,1.873,8.74,1.873,8.74" transform="translate(-5331.039 -397.542)" fill="#212e3b"/>
      </g>
      <g id="sopot-2" data-name="sopot" transform="translate(5363.075 393.402)">
        <path id="Path_2510" data-name="Path 2510" d="M5346.433,596.754c-.094-5.057-.473-30.367,1.148-32.018a.587.587,0,0,1,.428-.189h28.648v.818h-28.533c-1.023,1.633-1.081,20.008-.872,31.374Z" transform="translate(-5339.625 -360.963)" fill="#212e3b"/>
        <path id="Path_2511" data-name="Path 2511" d="M5348.012,568.851h-1.5l-.117-.212c-.96-1.747,7.118-19.756,9.061-21.5,2.267-2.031,19.611-.306,21.579-.1l-.083.815c-7.594-.784-19.438-1.46-20.947-.1-2.2,1.971-8.731,17.806-8.893,20.283h.9Z" transform="translate(-5339.628 -364.448)" fill="#212e3b"/>
        <path id="Path_2512" data-name="Path 2512" d="M5385.234,553.07a1.588,1.588,0,0,1-.367-.046,3.7,3.7,0,0,1-1.989-1.376,96.99,96.99,0,0,1-.48-9.724l0-.207.164-.127a3.436,3.436,0,0,1,2.38-.448,1.4,1.4,0,0,1,.988.555c.346.554.41,4.753.417,5.59.056,5.17-.333,5.46-.519,5.6A.959.959,0,0,1,5385.234,553.07Zm-2.012-10.934c.083,3.387.261,8.685.4,9.182a3.264,3.264,0,0,0,1.428.908c.172.04.258.02.278,0,.362-.732.2-9.356-.115-10.125a.874.874,0,0,0-.422-.157A2.914,2.914,0,0,0,5383.222,542.136Z" transform="translate(-5332.79 -365.408)" fill="#212e3b"/>
        <path id="Path_2513" data-name="Path 2513" d="M5389.429,555.8a3.436,3.436,0,0,1-1.921-.564c-.509-.509-.808-9.591-.6-10.131.263-.7,1.959-1.059,2.946-1.209l.146-.021.126.075c.79.472.191,11.415.142,11.5a.775.775,0,0,1-.612.338A1.593,1.593,0,0,1,5389.429,555.8Zm-1.294-1.11a3.34,3.34,0,0,0,1.417.288,93.151,93.151,0,0,0,.062-10.211,4.859,4.859,0,0,0-1.951.645A71.938,71.938,0,0,0,5388.135,554.691Z" transform="translate(-5331.947 -364.881)" fill="#212e3b"/>
        <path id="Path_2514" data-name="Path 2514" d="M5394.128,559.687a4.159,4.159,0,0,1-.807-.1c-.022,0-2.241-.479-2.5-1.122-.119-.3.019-4.206.41-11.619l.035-.149c.1-.226.369-.6,1.192-.576.791.026,2.156.514,2.408,1.186.035.088.585,11.493-.094,12.171A.821.821,0,0,1,5394.128,559.687Zm-2.533-1.557a7.1,7.1,0,0,0,2.565.742,97.859,97.859,0,0,0-.062-11.291,2.743,2.743,0,0,0-1.759-.641.6.6,0,0,0-.293.064C5391.838,550.955,5391.546,557.189,5391.6,558.13Z" transform="translate(-5331.199 -364.455)" fill="#212e3b"/>
        <path id="Path_2515" data-name="Path 2515" d="M5384.938,522.807c-.05,0-.1,0-.157,0-.016,0-1.543-.093-1.7-.736-.021-.077-.873-8.472.123-9.372h0a2.815,2.815,0,0,1,2.049-.988,1.378,1.378,0,0,1,.979.716c.767,1.273.322,8.879.034,9.683C5386.166,522.373,5385.867,522.807,5384.938,522.807Zm-1.082-1.041a2.619,2.619,0,0,0,1.449.178c.059-.017.163-.055.184-.117.268-.748.6-8.041.036-8.983-.181-.3-.343-.321-.4-.33-.419-.052-1.1.535-1.369.776C5383.3,514.018,5383.695,520.566,5383.856,521.766Zm-.107-8.465Z" transform="translate(-5332.728 -370.981)" fill="#212e3b"/>
        <path id="Path_2516" data-name="Path 2516" d="M5388.352,525.819a2.876,2.876,0,0,1-1-.144.729.729,0,0,1-.526-.667c-.014-.653,0-9.2,0-9.562v-.109l.057-.1a1.75,1.75,0,0,1,1.49-.692,2.636,2.636,0,0,1,2.1.653c.436.583.646,9.408-.04,10.087A3.473,3.473,0,0,1,5388.352,525.819Zm-.711-.906a3.665,3.665,0,0,0,2.209-.2c.307-.705.3-8.278-.059-9.043a2.172,2.172,0,0,0-1.376-.3,1.379,1.379,0,0,0-.773.222C5387.639,516.7,5387.63,523.913,5387.641,524.912Z" transform="translate(-5331.952 -370.441)" fill="#212e3b"/>
        <path id="Path_2517" data-name="Path 2517" d="M5394.273,528.826a5.249,5.249,0,0,1-2.476-.73c-.505-.421-.843-9.547-.061-10.555h0c.659-.845,2.628-.025,3.1.27.231.145.417.419.5,2.445,0,.079.148,7.981-.47,8.439A1.018,1.018,0,0,1,5394.273,528.826Zm-.014-.651Zm-1.884-.671a5.377,5.377,0,0,0,1.922.513c.256-1.372.381-8.619.032-9.554a2.98,2.98,0,0,0-1.937-.427C5392.038,518.8,5392.03,526.494,5392.375,527.5Zm-.314-9.711.323.251Z" transform="translate(-5331.106 -369.943)" fill="#212e3b"/>
        <path id="Path_2518" data-name="Path 2518" d="M5363.2,578.023a18.852,18.852,0,0,1-3.069-.306c-1.056-.192-1.168-3.218-.332-8.992l.021-.152.117-.1c.635-.545,2.559-.763,3.969-.646a2.923,2.923,0,0,1,1.995.694c.718.848.546,5.151.18,7.158-.272,1.494-.606,1.851-.866,2A4.478,4.478,0,0,1,5363.2,578.023Zm-2.615-9c-.5,3.5-.713,7.472-.25,7.915,1.62.281,3.756.426,4.483.02a5.729,5.729,0,0,0,.628-2.635c.278-2.611.093-4.962-.169-5.272a2.409,2.409,0,0,0-1.437-.407A7.785,7.785,0,0,0,5360.583,569.02Z" transform="translate(-5337.177 -360.347)" fill="#212e3b"/>
        <path id="Path_2519" data-name="Path 2519" d="M5362.729,591.4a7.635,7.635,0,0,1-1.671-.163c-.478-.118-.746-.29-.849-.546-.225-.564-.095-6.879-.028-9.567l0-.131.08-.1c.665-.889,3.53-1.6,4.728-1.471a.913.913,0,0,1,.81.452c.245.532.481,10.081-.567,10.982A4.393,4.393,0,0,1,5362.729,591.4ZM5361,581.29c-.078,3.314-.153,8.594-.019,9.113.313.218,3.142.319,3.721-.178.524-.705.686-9.07.354-10.029A7.794,7.794,0,0,0,5361,581.29Z" transform="translate(-5337.018 -358.148)" fill="#212e3b"/>
        <path id="Path_2520" data-name="Path 2520" d="M5393.762,677.849c-4.433,0-9.065-.036-13.55-.1-8.435-.125-36.168-.673-38.9-2.494-1.788-1.192.783-42.224,1.663-55.48a7.45,7.45,0,0,1-1-.124.964.964,0,0,1-.767-.953c-.084-2.207,5.665-8.28,6.572-8.583.875-.293,23.759-.077,29.038-.024.375-23.7,1.3-82.551,1.3-84.167a4.581,4.581,0,0,1,1.635-3.161,6.941,6.941,0,0,0,1.27-1.681c.4-.84.7-5.02.992-9.062a90.232,90.232,0,0,1,1.009-9.867c.956-4.15,6.738-10.248,16.215-10.179,10.134.081,15.2,11.506,15.247,11.622l.034.147c.023.669.581,16.4.29,19.881a3.561,3.561,0,0,0,2.333,3.929l.288.087,0,.3c.083,5.992,2.039,146.778,1.745,148.544a.586.586,0,0,1-.393.433C5417.293,677.567,5406.325,677.849,5393.762,677.849Zm-49.97-58.021c-1.41,21.242-3.081,53.073-1.972,54.793,1.628,1.072,16.885,2,38.817,2.314,19.247.274,35.912-.052,37.75-.732.212-5.51-1.663-140.918-1.76-147.977a4.417,4.417,0,0,1-2.628-4.67c.276-3.311-.245-18.456-.289-19.7-.429-.93-5.273-10.987-14.472-11.062h-.169c-8.893,0-14.347,5.678-15.239,9.545a90.453,90.453,0,0,0-.99,9.742c-.378,5.211-.64,8.441-1.069,9.352a7.579,7.579,0,0,1-1.411,1.888,3.847,3.847,0,0,0-1.416,2.6c0,2.021-1.446,93-1.458,93.919l-.007.4h-.4C5375.89,620.245,5351.021,620.239,5343.792,619.828Zm12.081-9.045c-4.34,0-7.477.032-7.85.114-.788.346-6.126,6.186-5.993,7.792.009.1.028.138.146.167,1.786.446,23.107.569,34.5.571.017-1.06.066-4.119.134-8.516C5370.3,610.843,5361.917,610.782,5355.873,610.782Z" transform="translate(-5340.693 -374.719)" fill="#212e3b"/>
        <rect id="Rectangle_389" data-name="Rectangle 389" width="0.82" height="57.477" transform="matrix(1, -0.018, 0.018, 1, 35.971, 245.124)" fill="#212e3b"/>
        <path id="Path_2521" data-name="Path 2521" d="M5373.841,531.024l-.818-.03c.462-12.912.408-27.157-.607-28.124-1.743-.842-3.4-4.055-4.4-8.575-.877-3.943-.045-27.747-.011-28.758l.016-.395h9.973l.017.393c.015.334,1.37,33.513.726,41.828l-.817-.063c.6-7.776-.559-37.559-.711-41.339h-8.4c-.107,3.188-.79,24.585,0,28.158.937,4.215,2.463,7.293,3.986,8.032C5374.644,503.045,5374.142,522.64,5373.841,531.024Z" transform="translate(-5335.591 -379.804)" fill="#212e3b"/>
        <path id="Path_2522" data-name="Path 2522" d="M5405.151,533.058c-.064-.974-1.535-23.885.048-26.8.393-.722.827-1.388,1.247-2.034,1.254-1.923,2.437-3.74,2.437-6.833,0-3.944-.565-28.02-.645-31.432h-6.183c.09,4.055.792,36.128,1,42.871l-.82.025c-.219-7.169-1-42.935-1.007-43.3l-.009-.418h7.819l.009.4c.006.276.656,27.615.656,31.851,0,3.336-1.307,5.341-2.57,7.28-.411.632-.836,1.285-1.213,1.978-1.22,2.247-.378,19.787.049,26.354Z" transform="translate(-5329.221 -379.804)" fill="#212e3b"/>
        <path id="Path_2523" data-name="Path 2523" d="M5415.283,493.02c-.043-.02-4.321-2.052-6.81-2.052h-30.625l-9.1.855-.078-.816,9.136-.856h30.663c2.675,0,6.981,2.045,7.163,2.132Z" transform="translate(-5335.39 -375.064)" fill="#212e3b"/>
        <path id="Path_2524" data-name="Path 2524" d="M5415.469,487.3c-.05-.016-4.995-1.51-7.5-1.3-1.56.132-14.917.108-25.847.065-7.3-.027-14.118,0-14.119,0l0-.82s6.827-.03,14.124,0c15.652.059,24.564.039,25.777-.062,2.661-.226,7.6,1.265,7.808,1.328Z" transform="translate(-5335.518 -376.009)" fill="#212e3b"/>
        <path id="Path_2525" data-name="Path 2525" d="M5376.4,469.7l-.026-.818c1.1-.037,26.966-.867,30.174.014l-.217.79C5403.244,468.836,5376.672,469.691,5376.4,469.7Z" transform="translate(-5333.93 -379.169)" fill="#212e3b"/>
        <path id="Path_2526" data-name="Path 2526" d="M5368.437,471.945a2.193,2.193,0,0,1-1.988-1.516c-.743-1.617,6.8-6.042,11.484-8.6l7.984-28.171h13.736l6.323,26.465c4.309,3.4,11.393,9.159,11.393,10.323s-1.34,1.475-2.132,1.475v-.818c.013,0,1.312-.034,1.312-.657-.237-.767-5.876-5.581-11.19-9.767l-.112-.089-.033-.138-6.206-25.974h-12.469l-7.91,27.907-.152.082c-5.413,2.945-11.262,6.705-11.274,7.646.527,1.135,1.267,1.016,1.351,1l.189.8A1.324,1.324,0,0,1,5368.437,471.945Z" transform="translate(-5335.821 -385.771)" fill="#212e3b"/>
        <path id="Path_2527" data-name="Path 2527" d="M5376.325,467.431a1.963,1.963,0,0,1-.386-.036l.168-.8c.132.027.835.127.964-.517.159-.791-.531-5.585-1-8.42l.809-.134c.128.766,1.238,7.516,1,8.715a1.415,1.415,0,0,1-.6.934A1.728,1.728,0,0,1,5376.325,467.431Z" transform="translate(-5334.013 -381.249)" fill="#212e3b"/>
        <path id="Path_2528" data-name="Path 2528" d="M5402.077,467.674c-1.275,0-2.558-.087-3-1.123-.337-.789-.109-8.2-.033-10.456l.821.029a94.4,94.4,0,0,0-.032,10.111c.223.515,1.025.621,2.247.621Z" transform="translate(-5329.662 -381.519)" fill="#212e3b"/>
        <path id="Path_2529" data-name="Path 2529" d="M5396.957,424.819H5382.7l.027-.437c.042-.645,1.1-15.7,8.056-15.7l.156,0a4.471,4.471,0,0,1,3.277,1.568c3.5,3.892,2.8,13.765,2.77,14.184ZM5383.583,424h12.608c.092-1.852.314-9.972-2.582-13.2a3.634,3.634,0,0,0-2.693-1.3l-.127,0C5385.2,409.506,5383.807,421.535,5383.583,424Z" transform="translate(-5332.731 -390.505)" fill="#212e3b"/>
        <rect id="Rectangle_390" data-name="Rectangle 390" width="0.82" height="14.398" transform="translate(49.996 33.904)" fill="#212e3b"/>
        <rect id="Rectangle_391" data-name="Rectangle 391" width="0.818" height="14.409" transform="translate(54.264 33.921) rotate(-2.278)" fill="#212e3b"/>
        <path id="Path_2530" data-name="Path 2530" d="M5390.735,436.349l-.817-.046c.179-3.264.786-13.961,1.011-14.527l.763.3-.382-.152.389.131C5391.539,422.649,5391.035,430.928,5390.735,436.349Z" transform="translate(-5331.363 -388.024)" fill="#212e3b"/>
        <rect id="Rectangle_392" data-name="Rectangle 392" width="14.402" height="0.82" transform="translate(63.093 48.292) rotate(-88.62)" fill="#212e3b"/>
        <rect id="Rectangle_393" data-name="Rectangle 393" width="0.82" height="18.593" transform="translate(57.786)" fill="#212e3b"/>
        <rect id="Rectangle_394" data-name="Rectangle 394" width="11.147" height="0.819" transform="translate(90.422 95.774) rotate(-17.151)" fill="#212e3b"/>
        <path id="Path_2531" data-name="Path 2531" d="M5419.594,478.978l-.053-.818,12.292-.819.054.818Z" transform="translate(-5325.749 -377.492)" fill="#212e3b"/>
        <path id="Path_2532" data-name="Path 2532" d="M5425.485,485.988l-7.376-1.639.18-.8,7.375,1.639Z" transform="translate(-5326.019 -376.315)" fill="#212e3b"/>
        <path id="Path_2533" data-name="Path 2533" d="M5365.218,473.835l-9.834-3.278.26-.777,9.834,3.278Z" transform="translate(-5337.909 -378.925)" fill="#212e3b"/>
        <path id="Path_2534" data-name="Path 2534" d="M5347.94,478.978l-.045-.818,15.571-.819.044.818Z" transform="translate(-5339.328 -377.492)" fill="#212e3b"/>
        <rect id="Rectangle_395" data-name="Rectangle 395" width="8.437" height="0.819" transform="translate(14.126 110.55) rotate(-28.999)" fill="#212e3b"/>
      </g>
    </g>
  </g>
</svg>
