<svg xmlns="http://www.w3.org/2000/svg" width="352" height="496.132" viewBox="0 0 352 496.132">
  <g id="_15" data-name="15" transform="translate(10163 -13859)">
    <rect id="Rectangle_276" data-name="Rectangle 276" width="352" height="496" transform="translate(-10163 13859)" fill="#fff"/>
    <g id="gdansk_nowy_port" data-name="gdansk nowy port" transform="translate(-15739.499 13519.934)">
      <path id="Path_2394" data-name="Path 2394" d="M5928.409,513.471c-14.839.557-30.509.9-45.347,1.459-1.647.062-3.441.18-4.667,1.281-1.5,1.351-1.587,3.638-1.563,5.66q.289,22.9.579,45.8c.085,6.813-.865,15.261-7.221,17.717a16.078,16.078,0,0,1-5.375.8,173.552,173.552,0,0,1-50.462-6.008c-3.279-.892-6.744-2.021-8.846-4.693-1.72-2.189-2.369-5.245-4.623-6.881a10.827,10.827,0,0,0-4.132-1.522L5759.9,559.01c-6.818-1.493-13.7-3-20.682-2.992-2.876,0-5.79.255-8.6-.354-3.723-.809-7.812-3.047-11.018-.99-1.855,1.189-2.7,3.493-4.411,4.879-4.772,3.862-12.727-1.373-17.8,2.089-3.906,2.664-3.574,8.792-6.885,12.168-6.141,6.263-19.466-1.1-24.514,6.073a22.279,22.279,0,0,0-2.08,4.966c-3.158,8.161-13.451,12.719-21.618,9.573a383.7,383.7,0,0,0-4.307-92.929c-.243-1.432-.558-2.981-1.656-3.933-1.149-1-2.819-1.049-4.342-1.048l-55.207.022.028,318.513H5928.5Z" transform="translate(0 20.152)" fill="#e6c2b0"/>
      <g id="Group_455" data-name="Group 455" transform="translate(5700.334 747.574)">
        <g id="Group_454" data-name="Group 454" transform="translate(0 0)">
          <path id="Path_2395" data-name="Path 2395" d="M5704.549,708.7a6.908,6.908,0,0,1-3.3.828,6.818,6.818,0,0,1-2.084-.319,6.669,6.669,0,0,1-2.4-1.275,7.134,7.134,0,0,1-1.765-2.169,6.631,6.631,0,0,1-.809-3.255,6.249,6.249,0,0,1,.043-.85,7.251,7.251,0,0,1,.6-2.224,6.772,6.772,0,0,1,1.245-1.86,7.344,7.344,0,0,1,1.754-1.361,6.956,6.956,0,0,1,2.116-.767,6.791,6.791,0,0,1,4.679.767,8.625,8.625,0,0,1,2.148,1.808l-1.468,1.232a6.373,6.373,0,0,0-2.191-1.636,5.442,5.442,0,0,0-1.936-.362,5,5,0,0,0-4.551,2.891,4.855,4.855,0,0,0-.553,2.277,5,5,0,0,0,.191,1.36,4.8,4.8,0,0,0,1.829,2.745,5.141,5.141,0,0,0,3.126,1.063,4.97,4.97,0,0,0,2.116-.458,5.525,5.525,0,0,0,1.754-1.286v-1.426h-1.957v-1.914h3.849v4.041a6.6,6.6,0,0,1-1.467,1.532A7.5,7.5,0,0,1,5704.549,708.7Z" transform="translate(-5679.017 -691.327)" fill="#212e3b"/>
          <path id="Path_2396" data-name="Path 2396" d="M5707.278,709.453V695.289h3.657a6.834,6.834,0,0,1,2.7.542,7.077,7.077,0,0,1,2.255,1.52,7.5,7.5,0,0,1,1.5,2.286,7.161,7.161,0,0,1,0,5.466,7.186,7.186,0,0,1-1.5,2.265,6.92,6.92,0,0,1-2.255,1.543,6.832,6.832,0,0,1-2.7.542Zm1.913-12.251v10.336h1.744a4.956,4.956,0,0,0,1.967-.4,5.179,5.179,0,0,0,1.648-1.106,5.3,5.3,0,0,0,1.1-1.671,5.218,5.218,0,0,0,0-3.976,5.3,5.3,0,0,0-1.1-1.669,5.179,5.179,0,0,0-1.648-1.106,4.96,4.96,0,0,0-1.967-.405Z" transform="translate(-5676.641 -691.333)" fill="#212e3b"/>
          <path id="Path_2397" data-name="Path 2397" d="M5728.118,709.447l-1.744-4.977h-4.424l-1.744,4.977h-2.021l4.913-14.123h2.127l4.912,14.123Zm-3.956-11.378-1.616,4.614h3.212Z" transform="translate(-5674.661 -691.327)" fill="#212e3b"/>
          <path id="Path_2398" data-name="Path 2398" d="M5738.644,710.061l-6.38-10.38v10.38h-1.893V695.917h1.85l6.593,10.676V695.917h1.872v14.144Zm-2.552-15.186h-1.425l.787-2.934h1.659Z" transform="translate(-5672.449 -691.941)" fill="#212e3b"/>
          <path id="Path_2399" data-name="Path 2399" d="M5748.488,698.311a2.348,2.348,0,0,0-.946-.84,3.4,3.4,0,0,0-1.435-.266,2.7,2.7,0,0,0-2.022.617,2.163,2.163,0,0,0-.553,1.6,2.323,2.323,0,0,0,.171.969,1.441,1.441,0,0,0,.51.6,3.542,3.542,0,0,0,1.68.468,11.75,11.75,0,0,1,2.01.331,5.435,5.435,0,0,1,1.436.6,3.362,3.362,0,0,1,1.553,3.064,3.734,3.734,0,0,1-.32,1.531,4.2,4.2,0,0,1-.893,1.3,4.251,4.251,0,0,1-1.606.978,5.827,5.827,0,0,1-1.925.319,5,5,0,0,1-3.595-1.276,5.057,5.057,0,0,1-1.382-3.061l.043-.023h1.872a2.779,2.779,0,0,0,.767,1.68,3.16,3.16,0,0,0,2.232.766,3.355,3.355,0,0,0,2.126-.617,1.932,1.932,0,0,0,.787-1.594,2.341,2.341,0,0,0-.116-.776,1.322,1.322,0,0,0-.437-.586,5.389,5.389,0,0,0-2.7-.7,4.882,4.882,0,0,1-3.062-1.171,3.708,3.708,0,0,1-1.042-2.807,4,4,0,0,1,1.127-2.956,5.158,5.158,0,0,1,6.762.149,5.332,5.332,0,0,1,1.319,3.064h-1.915A3.294,3.294,0,0,0,5748.488,698.311Z" transform="translate(-5670.488 -691.336)" fill="#212e3b"/>
          <path id="Path_2400" data-name="Path 2400" d="M5757.911,709.447l-4.572-5.212v5.212h-1.871V695.324h1.871v5.382l4.488-5.382h2.467l-5.978,7.167,6.127,6.956Z" transform="translate(-5668.619 -691.327)" fill="#212e3b"/>
          <path id="Path_2401" data-name="Path 2401" d="M5689.622,731.05l-6.382-10.38v10.38h-1.892V716.906h1.85l6.593,10.678V716.906h1.872V731.05Z" transform="translate(-5681.349 -687.408)" fill="#212e3b"/>
          <path id="Path_2402" data-name="Path 2402" d="M5696.5,730.61a6.854,6.854,0,0,1-2.265-1.541,7.11,7.11,0,0,1-1.531-2.286,7.147,7.147,0,0,1-.011-5.487,7.219,7.219,0,0,1,3.807-3.818,6.847,6.847,0,0,1,2.733-.554,6.924,6.924,0,0,1,2.743.554,7.149,7.149,0,0,1,3.807,3.806,6.934,6.934,0,0,1,.553,2.745,7.005,7.005,0,0,1-.553,2.754,7.118,7.118,0,0,1-3.807,3.818,7.127,7.127,0,0,1-5.477.009Zm.745-11.356a5.155,5.155,0,0,0-3.18,4.775,5.206,5.206,0,0,0,.4,2.03,5.149,5.149,0,0,0,9.528,0,5.215,5.215,0,0,0,.4-2.03,5.177,5.177,0,0,0-7.157-4.775Z" transform="translate(-5679.388 -687.405)" fill="#212e3b"/>
          <path id="Path_2403" data-name="Path 2403" d="M5718.1,731.053h-1.894l-2.19-6.02-2.106,6.02H5710l-5.125-14.165h2.063l4,11.081,2.043-5.806-1.914-5.275h2.063l1.872,5.188,2.147,5.892,3.871-11.081h2.063Z" transform="translate(-5677.078 -687.411)" fill="#212e3b"/>
          <path id="Path_2404" data-name="Path 2404" d="M5727.843,725.839v5.212h-1.893v-5.168l-4.317-8.976h2.105l3.148,6.552,3.147-6.552h2.106Z" transform="translate(-5674.035 -687.408)" fill="#212e3b"/>
          <path id="Path_2405" data-name="Path 2405" d="M5742.928,726.136v4.914h-1.872V716.906h3.976a4.381,4.381,0,0,1,1.723.352,4.558,4.558,0,0,1,1.468.989,4.756,4.756,0,0,1,.989,1.5,4.673,4.673,0,0,1,0,3.552,4.511,4.511,0,0,1-.989,1.478,4.726,4.726,0,0,1-1.468,1,4.268,4.268,0,0,1-1.723.36Zm0-7.294v5.4h2.1a2.479,2.479,0,0,0,1.872-.808,2.7,2.7,0,0,0,0-3.807,2.554,2.554,0,0,0-1.872-.787Z" transform="translate(-5670.509 -687.408)" fill="#212e3b"/>
          <path id="Path_2406" data-name="Path 2406" d="M5754.494,730.61a6.851,6.851,0,0,1-2.265-1.541,7.091,7.091,0,0,1-1.53-2.286,7.138,7.138,0,0,1-.012-5.487,7.214,7.214,0,0,1,3.807-3.818,6.848,6.848,0,0,1,2.733-.554,6.924,6.924,0,0,1,2.743.554,7.145,7.145,0,0,1,3.807,3.806,6.934,6.934,0,0,1,.553,2.745,7.005,7.005,0,0,1-.553,2.754,7.114,7.114,0,0,1-3.807,3.818,7.126,7.126,0,0,1-5.476.009Zm.744-11.356a5.153,5.153,0,0,0-3.179,4.775,5.206,5.206,0,0,0,.4,2.03,5.148,5.148,0,0,0,9.528,0,5.207,5.207,0,0,0,.4-2.03,5.177,5.177,0,0,0-7.157-4.775Z" transform="translate(-5668.858 -687.405)" fill="#212e3b"/>
          <path id="Path_2407" data-name="Path 2407" d="M5772.664,731.047h-2.51l-4.061-4.828v4.828h-1.872V716.924h3.635a4.406,4.406,0,0,1,1.755.352,4.341,4.341,0,0,1,1.435.989,4.83,4.83,0,0,1,.958,1.5,4.844,4.844,0,0,1,.042,3.456,4.44,4.44,0,0,1-.852,1.4,4.6,4.6,0,0,1-1.3,1.01,4.252,4.252,0,0,1-1.554.478Zm-6.571-12.208v5.4h1.764a2.535,2.535,0,0,0,1.021-.213,2.7,2.7,0,0,0,.85-.574,2.846,2.846,0,0,0,.565-.872,2.691,2.691,0,0,0,.2-1.042,2.728,2.728,0,0,0-.766-1.914,2.684,2.684,0,0,0-.85-.574,2.535,2.535,0,0,0-1.021-.213Z" transform="translate(-5666.303 -687.405)" fill="#212e3b"/>
          <path id="Path_2408" data-name="Path 2408" d="M5778.552,718.715V731.05h-1.872V718.715h-3.425v-1.809h8.721v1.809Z" transform="translate(-5664.663 -687.408)" fill="#212e3b"/>
        </g>
      </g>
      <g id="gdansk_nowy_kolor" data-name="gdansk nowy kolor" transform="translate(5735.047 442.769)">
        <path id="Path_2409" data-name="Path 2409" d="M5721.54,467.735c3.279-3.643,31.978-3.031,33.351.061s5.215,155.473,2.982,159.946-39.093,3.536-40.631.788S5719.066,470.485,5721.54,467.735Z" transform="translate(-5709.615 -428.296)" fill="#ad6e42"/>
        <path id="Path_2410" data-name="Path 2410" d="M5734.009,433.972c8.638,0,13.99,12.1,12.505,14.013s-23.94,2.568-23.665.259C5722.963,447.275,5723.752,433.974,5734.009,433.972Z" transform="translate(-5708.527 -433.972)" fill="#ad6e42"/>
        <path id="Path_2411" data-name="Path 2411" d="M5760.144,630.529c-.625-2.76.808-18.083-.231-21.8s-41.39-1.42-43.059,1.631c-1.156,2.107-.407,18.348,0,20.925.23,1.468-7.158,12.7-6,13.866s54.951,1.293,55.759-1.42S5760.6,632.571,5760.144,630.529Z" transform="translate(-5710.727 -402.594)" fill="#efe8e5"/>
        <path id="Path_2412" data-name="Path 2412" d="M5736.488,448.823c.286-1.262,5.931-.74,6.589,0s1.62,11.427,1.064,12.113-7.4,1.573-7.653.463S5736.081,450.62,5736.488,448.823Z" transform="translate(-5706.096 -431.414)" fill="#efe8e5"/>
        <path id="Path_2413" data-name="Path 2413" d="M5728.528,461.8c-.286,1.262-5.93.74-6.59,0s-1.62-11.427-1.064-12.115,7.4-1.571,7.654-.462S5728.936,460,5728.528,461.8Z" transform="translate(-5708.915 -431.299)" fill="#efe8e5"/>
        <path id="Path_2414" data-name="Path 2414" d="M5721.232,461.156c.388-.2,25.7-1.968,26.349-1.184s1.323,7.926.3,7.724c-1.14-.224-24.646-.642-26.647-.082C5720.053,467.944,5721.232,461.156,5721.232,461.156Z" transform="translate(-5708.915 -429.288)" fill="#fff"/>
        <path id="Path_2415" data-name="Path 2415" d="M5732.48,582.317c.666-1.339,3.59-.695,4.255-.4s.435,15.985.435,16.728-3.563.741-4.361.294S5732.48,582.317,5732.48,582.317Z" transform="translate(-5706.803 -407.187)" fill="#d2c3b8"/>
        <path id="Path_2416" data-name="Path 2416" d="M5734.659,540.6c-1.112.592-3.182.594-3.552-.149s-.237-12.731.361-13.707c.377-.614,2.5-.743,2.89,0C5735.121,528.207,5735.349,540.229,5734.659,540.6Z" transform="translate(-5707.064 -417.222)" fill="#d2c3b8"/>
        <path id="Path_2417" data-name="Path 2417" d="M5735.506,507.017c-.207.125-1.753.743-2.167.149s.185-10.755.185-11.052,1.433-.744,1.75,0S5735.938,506.755,5735.506,507.017Z" transform="translate(-5706.649 -422.764)" fill="#d2c3b8"/>
        <path id="Path_2418" data-name="Path 2418" d="M5738.543,631.9s-.53-15.033-5.315-15.033-3.689,15.033-3.689,15.033C5730.077,632.6,5737.543,632.808,5738.543,631.9Z" transform="translate(-5707.332 -400.767)" fill="#212e3b"/>
        <path id="Path_2419" data-name="Path 2419" d="M5714.425,485.639c.73-1.043,43.868-.194,44.5.969s-2.021,4.2-3,4.843-37.78,0-38.5-.775S5713.446,487.039,5714.425,485.639Z" transform="translate(-5710.089 -424.677)" fill="#212e3b"/>
      </g>
      <g id="gdansk_nowy" data-name="gdansk nowy" transform="translate(5723.428 385.518)">
        <path id="Path_2420" data-name="Path 2420" d="M5734.463,660.187c-6.467,0-12.6-.206-15.682-.573-3.1-.369-3.817-.809-3.936-1.355-.642-2.982-.264-45.786,1.166-94.469.587-20.014.987-40.729,1.309-57.374.469-24.3.734-37.042,1.168-38.336.162-.479.737-1.091,3.784-1.576,7.7-1.228,29.1-.8,30.785,1.463,1.191,1.6,2.54,67.2,3.066,95.326.672,36.046,1.5,93.727.859,95.056C5756.361,659.642,5744.97,660.187,5734.463,660.187ZM5734,466.626a80.142,80.142,0,0,0-11.593.682c-2.87.457-3.121.974-3.141,1.032h0c-.416,1.236-.73,17.5-1.127,38.091-.32,16.647-.721,37.364-1.309,57.382-1.39,47.278-1.812,91.353-1.184,94.274.023.012.5.5,4.719.87,11.526,1.017,34.653.177,35.918-1,.39-1.528-.025-43.993-.97-94.585-1.044-56.018-2.193-93.287-2.927-94.95C5751.635,467.418,5742.6,466.626,5734,466.626Z" transform="translate(-5698.415 -370.937)" fill="#212e3b"/>
        <path id="Path_2421" data-name="Path 2421" d="M5739.734,646.992c-13.882,0-30.192-.657-31.252-1.844-1.7-1.9,6.376-15.387,7.6-16.76l.607.542c-2.431,2.72-8.5,14.677-7.6,15.676,1.679,1.3,37.857,2.441,51.178.744,3.287-.419,3.873-.88,3.975-1.013.811-1.048-2.836-8.69-6.831-15.471l.7-.414c1.4,2.383,8.328,14.374,6.774,16.383-.291.377-1.178,1.525-14.11,1.987C5747.588,646.937,5743.762,646.992,5739.734,646.992Z" transform="translate(-5699.558 -341.423)" fill="#212e3b"/>
        <path id="Path_2422" data-name="Path 2422" d="M5714.93,607.042l-.066-.812c.294-.024,29.408-2.359,41.965,0l-.15.8C5744.228,604.69,5715.222,607.019,5714.93,607.042Z" transform="translate(-5698.357 -345.637)" fill="#212e3b"/>
        <path id="Path_2423" data-name="Path 2423" d="M5753.953,511.69c-14.066-1.313-36.674-.067-36.9-.054l-.046-.813c.228-.013,22.894-1.26,37.023.056Z" transform="translate(-5697.968 -362.867)" fill="#212e3b"/>
        <path id="Path_2424" data-name="Path 2424" d="M5749.149,490.872c-10.154,0-30.178-.344-31.273-.363h-.105l-.092-.054c-1.306-.759-5.584-3.338-5.814-4.655a.72.72,0,0,1,.152-.6c.16-.191.458-.546,9.8-.937,7.153-.3,36.472-1.08,38.454.911a.96.96,0,0,1,.276.839c-.231,1.652-4.672,4.206-5.561,4.7l-.128.046C5754.392,490.84,5752.223,490.872,5749.149,490.872ZM5718,489.7c11.946.207,34.634.522,36.658.269,2.059-1.157,4.96-3.157,5.086-4.067a.152.152,0,0,0-.045-.151c-1.815-1.826-44.177-.906-47.046.008C5712.811,486.265,5715.2,488.061,5718,489.7Z" transform="translate(-5698.903 -367.664)" fill="#212e3b"/>
        <path id="Path_2425" data-name="Path 2425" d="M5760.812,487.8l-.811-.076c.4-4.273.54-10.616-.378-11.342-2.076-1.165-45.427-1.815-47.317-.7-.612.879,0,7.5.535,11.452l-.808.11c-.24-1.761-1.386-10.617-.333-12.093.133-.185.377-.318,1.234-.44,5.693-.812,45.478-.323,47.194,1.031C5761.726,477.008,5760.977,486.01,5760.812,487.8Z" transform="translate(-5699.011 -369.395)" fill="#212e3b"/>
        <path id="Path_2426" data-name="Path 2426" d="M5747.994,470.555c-.407-7.861-1.384-20.706-2.283-21.711-1.151-1.218-21.455-1.094-23.357.144-1.025.668-1.273,11.369-.921,21.329l-.814.028c-.171-4.861-.585-20.82,1.292-22.042,1.772-1.151,22.788-1.816,24.408,0,1.355,1.516,2.311,18.768,2.487,22.211Z" transform="translate(-5697.342 -374.323)" fill="#212e3b"/>
        <path id="Path_2427" data-name="Path 2427" d="M5718.32,469.586c-.353-.6-3.406-5.9-2.473-7.821.915-1.887,26.442-2.6,34.485-2.323,4.79.161,4.947.549,5.072.861.631,1.563-1.975,7.965-2.5,9.233l-.753-.314c1.148-2.753,2.815-7.43,2.523-8.544-2.421-1.3-36.542.009-38.123,1.486-.53,1.112,1.229,4.9,2.471,7.008Zm36.4-8.878Z" transform="translate(-5698.21 -372.106)" fill="#212e3b"/>
        <path id="Path_2428" data-name="Path 2428" d="M5721.781,452.07a2.546,2.546,0,0,1-1.565-.384.643.643,0,0,1-.2-.469,6.389,6.389,0,0,1,1.309-2.43c.124-.181.236-.346.329-.484.027-.079.095-.567.158-1.04.507-3.686,2.048-14.907,12.58-14.922h.019c6.72,0,10.653,5.056,11.692,15.026.034.324.069.657.091.734a2.844,2.844,0,0,0,.558.613,2.319,2.319,0,0,1,.975,1.58.939.939,0,0,1-.3.694,2.673,2.673,0,0,1-1.742.456l.04-.813a1.965,1.965,0,0,0,1.142-.233.126.126,0,0,0,.046-.1c0-.315-.364-.656-.716-.984a3.07,3.07,0,0,1-.754-.9,3.677,3.677,0,0,1-.147-.958c-.989-9.486-4.651-14.294-10.885-14.294h-.018c-9.822.014-11.239,10.333-11.773,14.218a3.969,3.969,0,0,1-.286,1.378c-.094.142-.211.312-.337.5a12.308,12.308,0,0,0-1.147,1.886,3.546,3.546,0,0,0,1.107.12l.027.813C5721.924,452.068,5721.856,452.07,5721.781,452.07Z" transform="translate(-5697.422 -377.017)" fill="#212e3b"/>
        <rect id="Rectangle_353" data-name="Rectangle 353" width="55.728" height="0.815" transform="matrix(0.03, -1, 1, 0.03, 35.963, 55.703)" fill="#212e3b"/>
        <path id="Path_2429" data-name="Path 2429" d="M5732.855,426.327a4.865,4.865,0,0,1-3.3-1.42,6.819,6.819,0,0,1-1.948-5.013,7.3,7.3,0,0,1,1.377-4.8,4.99,4.99,0,0,1,4.021-1.631h.005a4.9,4.9,0,0,1,3.715,1.4c1.1,1.163,1.6,3.039,1.465,5.577-.27,5.239-2.6,5.774-5.161,5.888C5732.97,426.325,5732.913,426.327,5732.855,426.327Zm.148-12.049a4.22,4.22,0,0,0-3.4,1.342,6.531,6.531,0,0,0-1.185,4.274,6.015,6.015,0,0,0,1.7,4.425,4.119,4.119,0,0,0,2.873,1.191c2.032-.089,4.131-.181,4.386-5.115.12-2.306-.3-3.981-1.243-4.976a4.131,4.131,0,0,0-3.124-1.141H5733Z" transform="translate(-5696.044 -380.444)" fill="#212e3b"/>
        <path id="Path_2430" data-name="Path 2430" d="M5733.861,600.56a5.785,5.785,0,0,1-2.3-.357c-.25-.139-1.013-.566-.536-16.992l.043-.17c.82-1.651,4.038-.922,4.784-.587.377.169.845.378.683,16.5l-.006.6a.724.724,0,0,1-.409.63A5.22,5.22,0,0,1,5733.861,600.56Zm-1.835-1.033a7.136,7.136,0,0,0,3.687-.046l0-.532c.128-12.638-.155-15.281-.312-15.8-.812-.306-3.034-.657-3.572.182C5731.628,590.527,5731.628,598.518,5732.026,599.527Zm3.686.024v0Z" transform="translate(-5695.451 -349.845)" fill="#212e3b"/>
        <path id="Path_2431" data-name="Path 2431" d="M5733.734,541.234c-.045,0-.09,0-.135,0a1.833,1.833,0,0,1-1.588-.728c-.594-1.141-1.33-13.763-.131-14.4h0a4.742,4.742,0,0,1,3.247-.321,1.362,1.362,0,0,1,.86.649c.4.8.313,12.975-.378,14.1A2.274,2.274,0,0,1,5733.734,541.234Zm-1.395-14.453c-.45,1.144-.334,11.948.394,13.347.068.131.4.273.895.289a1.888,1.888,0,0,0,1.288-.314c.52-.954.634-12.5.338-13.327a.706.706,0,0,0-.375-.222A3.966,3.966,0,0,0,5732.34,526.781Zm-.075.039Z" transform="translate(-5695.384 -360.081)" fill="#212e3b"/>
        <path id="Path_2432" data-name="Path 2432" d="M5733.972,508.346a1.435,1.435,0,0,1-1.336-.622c-.495-.9-.833-9.8-.419-11.077a.623.623,0,0,1,.3-.39h0c.024-.011,2.46-.955,3.265-.052.285.319.514,1.4-.085,10.567-.027.427-.045.7-.047.76,0,.321-.293.56-.871.709A3.346,3.346,0,0,1,5733.972,508.346Zm-1-11.395c-.362,1.2.051,9.653.382,10.388.053.1.221.144.316.163a2.3,2.3,0,0,0,1.174-.139c.008-.141.024-.36.043-.644.524-8.046.387-9.729.258-10.015C5734.912,496.454,5733.5,496.753,5732.972,496.952Zm1.865,10.564v0Zm-1.97-10.522Z" transform="translate(-5695.24 -365.492)" fill="#212e3b"/>
        <path id="Path_2433" data-name="Path 2433" d="M5728.264,632.246c-.033-.464-.795-11.409,2.145-14.571a2.594,2.594,0,0,1,1.951-.9c5.034,0,5.667,13.848,5.724,15.426l-.815.03c-.144-4.073-1.307-14.642-4.908-14.642a1.789,1.789,0,0,0-1.354.639c-2.7,2.9-1.937,13.848-1.928,13.958Z" transform="translate(-5695.945 -343.531)" fill="#212e3b"/>
        <path id="Path_2434" data-name="Path 2434" d="M5742.834,662.9l-.812-.064c.436-5.445-3.188-191.137-3.225-193.012l-2.9-22.231.807-.105,2.905,22.275C5739.761,477.466,5743.274,657.417,5742.834,662.9Z" transform="translate(-5694.539 -374.266)" fill="#212e3b"/>
        <path id="Path_2435" data-name="Path 2435" d="M5760.5,478.878c-3.393-.763-48.427-.332-48.883-.328l-.006-.814c1.856-.019,45.585-.435,49.067.347Z" transform="translate(-5698.948 -368.798)" fill="#212e3b"/>
        <path id="Path_2436" data-name="Path 2436" d="M5711.868,482.278l-.011-.814c1.86-.025,45.566-.611,48.828.006l-.152.8C5757.356,481.669,5712.322,482.271,5711.868,482.278Z" transform="translate(-5698.903 -368.148)" fill="#212e3b"/>
        <path id="Path_2437" data-name="Path 2437" d="M5724.015,662.938l-.815-.022c.7-25.878,3.508-191.608,3.536-193.279l1.672-22,.812.061-1.671,21.98C5727.521,471.32,5724.715,637.054,5724.015,662.938Z" transform="translate(-5696.844 -374.24)" fill="#212e3b"/>
        <rect id="Rectangle_354" data-name="Rectangle 354" width="0.814" height="6.256" transform="translate(34.758 4.445) rotate(-85.26)" fill="#212e3b"/>
        <path id="Path_2438" data-name="Path 2438" d="M5755.683,448.684l-.337-.742,8.595-3.891.337.742Z" transform="translate(-5691.007 -374.891)" fill="#212e3b"/>
        <rect id="Rectangle_355" data-name="Rectangle 355" width="8.303" height="0.815" transform="translate(67.51 79.071) rotate(-5.363)" fill="#212e3b"/>
        <rect id="Rectangle_356" data-name="Rectangle 356" width="0.814" height="9.421" transform="matrix(0.48, -0.877, 0.877, 0.48, 67.353, 86.033)" fill="#212e3b"/>
        <rect id="Rectangle_357" data-name="Rectangle 357" width="0.814" height="11.59" transform="matrix(0.344, -0.939, 0.939, 0.344, 3.312, 69.397)" fill="#212e3b"/>
        <rect id="Rectangle_358" data-name="Rectangle 358" width="9.428" height="0.815" transform="translate(0 78.681)" fill="#212e3b"/>
        <rect id="Rectangle_359" data-name="Rectangle 359" width="7.943" height="0.814" transform="matrix(0.948, -0.318, 0.318, 0.948, 0.904, 89.811)" fill="#212e3b"/>
      </g>
    </g>
  </g>
</svg>
