<?xml version="1.0" encoding="utf-8"?>
<!-- Generator: Adobe Illustrator 24.0.3, SVG Export Plug-In . SVG Version: 6.00 Build 0)  -->
<svg version="1.1" id="Layer_1" xmlns="http://www.w3.org/2000/svg" xmlns:xlink="http://www.w3.org/1999/xlink" x="0px" y="0px"
	 viewBox="0 0 106 149.9" style="enable-background:new 0 0 106 149.9;" xml:space="preserve">
<style type="text/css">
	.st0{fill:#EACEBE;}
	.st1{fill:#2E3D4B;}
	.st2{fill:#BA8356;}
	.st3{fill:#F2EDEB;}
	.st4{fill:#FFFFFF;}
	.st5{fill:#D9CEC4;}
</style>
<title>Artboard 28</title>
<path class="st0" d="M106,58.7c-4.5,0.2-9.2,0.3-13.7,0.4c-0.5,0-1,0.1-1.4,0.4c-0.5,0.4-0.5,1.1-0.5,1.7c0.1,4.6,0.1,9.2,0.2,13.8
	c0,2.1-0.3,4.6-2.2,5.3c-0.5,0.2-1.1,0.2-1.6,0.2c-5.1,0.1-10.3-0.5-15.2-1.8c-1-0.3-2-0.6-2.7-1.4c-0.5-0.7-0.7-1.6-1.4-2.1
	c-0.4-0.3-0.8-0.4-1.2-0.5l-11.1-2.4c-2.1-0.5-4.1-0.9-6.2-0.9c-0.9,0-1.7,0.1-2.6-0.1c-1.1-0.2-2.4-0.9-3.3-0.3
	c-0.6,0.4-0.8,1.1-1.3,1.5c-1.4,1.2-3.8-0.4-5.4,0.6c-1.2,0.8-1.1,2.6-2.1,3.7c-1.9,1.9-5.9-0.3-7.4,1.8c-0.3,0.4-0.4,1-0.6,1.5
	c-1,2.5-4.1,3.8-6.5,2.9c0.7-9.4,0.3-18.8-1.3-28c-0.1-0.4-0.2-0.9-0.5-1.2c-0.3-0.3-0.8-0.3-1.3-0.3L0,53.6l0,96h106L106,58.7z"/>
<path class="st1" d="M45.8,126.6v1.2c-0.1,0.2-0.3,0.3-0.4,0.4c-0.1,0.1-0.2,0.1-0.3,0.2c-0.7,0.3-1.5,0.3-2.1-0.1
	c-0.3-0.2-0.6-0.5-0.8-0.8c-0.1-0.2-0.2-0.3-0.2-0.5c0-0.2-0.1-0.3-0.1-0.5c0-0.3,0.1-0.6,0.2-0.9c0.1-0.2,0.2-0.4,0.4-0.5
	c0.2-0.2,0.3-0.3,0.5-0.4c0.4-0.2,0.9-0.3,1.3-0.3c0.3,0,0.5,0.1,0.7,0.2c0.2,0.1,0.4,0.3,0.6,0.5l-0.3,0.3
	c-0.2-0.2-0.4-0.4-0.7-0.5c-0.2-0.1-0.4-0.1-0.6-0.1c-0.3,0-0.6,0.1-0.8,0.2c-0.2,0.1-0.3,0.2-0.4,0.3c-0.3,0.3-0.5,0.7-0.5,1.2
	c0,0.1,0,0.3,0.1,0.4c0.1,0.4,0.3,0.7,0.6,0.9c0.1,0.1,0.3,0.2,0.5,0.3c0.2,0.1,0.4,0.1,0.5,0.1c0.2,0,0.5-0.1,0.7-0.2
	c0.2-0.1,0.4-0.3,0.6-0.4l0-0.6h-0.6v-0.4L45.8,126.6z"/>
<path class="st1" d="M46.6,128.7v-4.3h1.1c0.4,0,0.7,0.1,1.1,0.3c0.3,0.2,0.6,0.5,0.8,0.8c0.4,0.7,0.4,1.5,0,2.1
	c-0.2,0.3-0.5,0.6-0.8,0.8c-0.3,0.2-0.7,0.3-1.1,0.3L46.6,128.7z M47.6,128.2c0.3,0,0.6-0.1,0.9-0.2c0.8-0.5,1.1-1.5,0.6-2.3
	c-0.1-0.3-0.4-0.5-0.6-0.6c-0.3-0.2-0.6-0.2-0.9-0.2H47v3.4L47.6,128.2z"/>
<path class="st1" d="M53,127.1h-1.5l-0.6,1.6h-0.5l1.5-4.3h0.6l1.5,4.3h-0.5L53,127.1z M52.8,126.7l-0.6-1.7l-0.6,1.7H52.8z"/>
<path class="st1" d="M57.8,124.4v4.3h-0.5l-2.1-3.4v3.4h-0.4v-4.3h0.5l2.2,3.5v-3.5H57.8z M57.1,123.2l-0.3,0.9h-0.4l0.3-0.9H57.1z"
	/>
<path class="st1" d="M61,125.6c0-0.2-0.1-0.3-0.2-0.4c-0.2-0.3-0.4-0.4-0.8-0.4c-0.3,0-0.6,0.1-0.7,0.2c-0.1,0.2-0.2,0.4-0.2,0.6
	c0,0.3,0.1,0.4,0.2,0.5c0.2,0.1,0.4,0.2,0.6,0.2c0.2,0,0.4,0,0.6,0.1c0.2,0,0.3,0.1,0.4,0.2c0.3,0.2,0.5,0.5,0.5,0.9
	c0,0.2,0,0.3-0.1,0.4c-0.1,0.1-0.2,0.3-0.3,0.4c-0.3,0.3-0.6,0.4-1.1,0.4s-0.8-0.1-1.1-0.4c-0.2-0.2-0.4-0.5-0.4-0.8H59
	c0,0.2,0.1,0.4,0.3,0.5c0.4,0.3,1,0.3,1.5,0c0.2-0.1,0.3-0.3,0.3-0.5c0-0.1,0-0.3-0.1-0.4c-0.1-0.1-0.2-0.2-0.3-0.2
	c-0.2-0.1-0.5-0.1-0.7-0.1c-0.8-0.1-1.2-0.5-1.2-1.2c0-0.2,0-0.3,0.1-0.5c0.1-0.1,0.1-0.3,0.3-0.4c0.2-0.2,0.6-0.4,1-0.4h0
	c0.4,0,0.8,0.1,1,0.4c0.2,0.2,0.4,0.6,0.4,0.9L61,125.6L61,125.6z"/>
<path class="st1" d="M62.6,126.9v1.8h-0.4v-4.3h0.4v1.8l1.6-1.8h0.6l-1.8,2.2l1.9,2.1h-0.6L62.6,126.9z"/>
<path class="st1" d="M40.4,132.1v4.3h-0.5l-2.1-3.4v3.4h-0.4v-4.3h0.5l2.2,3.5v-3.5H40.4z"/>
<path class="st1" d="M42.2,136.1c-0.3-0.2-0.6-0.5-0.8-0.8c-0.4-0.7-0.4-1.5,0-2.1c0.2-0.3,0.5-0.6,0.8-0.8c0.7-0.4,1.5-0.4,2.1,0
	c0.3,0.2,0.6,0.5,0.8,0.8c0.4,0.7,0.4,1.5,0,2.1c-0.2,0.3-0.5,0.6-0.8,0.8C43.7,136.5,42.9,136.5,42.2,136.1L42.2,136.1z
	 M44.1,135.7c0.8-0.5,1.1-1.5,0.6-2.3c-0.1-0.3-0.4-0.5-0.6-0.6c-0.8-0.5-1.9-0.2-2.3,0.6c-0.5,0.8-0.2,1.9,0.6,2.3
	C43,136,43.6,136,44.1,135.7z"/>
<path class="st1" d="M47.5,135.7l0.7-2.1l-0.6-1.6h0.5l0.6,1.6l0.7,2.1l1.3-3.6h0.5l-1.5,4.3h-0.5l-0.7-2l-0.7,2h-0.5l-1.5-4.3h0.5
	L47.5,135.7z"/>
<path class="st1" d="M53.4,134.8v1.6H53v-1.6l-1.3-2.7h0.5l1.1,2.1l1.1-2.1h0.5L53.4,134.8z"/>
<path class="st1" d="M60.4,132.3c0.2,0.1,0.4,0.3,0.5,0.5c0.2,0.4,0.2,0.9,0,1.4c-0.1,0.2-0.3,0.4-0.5,0.5c-0.2,0.1-0.4,0.2-0.7,0.2
	H59v1.5h-0.4v-4.3h1.2C60,132.1,60.2,132.1,60.4,132.3z M60.2,134.3c0.1-0.1,0.3-0.2,0.3-0.3c0.1-0.1,0.1-0.3,0.1-0.5
	c0-0.2,0-0.3-0.1-0.5c-0.1-0.1-0.2-0.3-0.3-0.3c-0.1-0.1-0.3-0.1-0.5-0.1H59v1.9h0.8C59.9,134.4,60,134.3,60.2,134.3L60.2,134.3z"/>
<path class="st1" d="M62.8,136.1c-0.3-0.2-0.6-0.5-0.8-0.8c-0.4-0.7-0.4-1.5,0-2.1c0.2-0.3,0.5-0.6,0.8-0.8c0.7-0.4,1.5-0.4,2.1,0
	c0.3,0.2,0.6,0.5,0.8,0.8c0.4,0.7,0.4,1.5,0,2.1c-0.2,0.3-0.5,0.6-0.8,0.8C64.3,136.5,63.5,136.5,62.8,136.1L62.8,136.1z
	 M64.8,135.7c0.8-0.5,1.1-1.5,0.6-2.3c-0.1-0.3-0.4-0.5-0.6-0.6c-0.5-0.3-1.2-0.3-1.7,0c-0.8,0.5-1.1,1.5-0.6,2.3
	S63.9,136.2,64.8,135.7L64.8,135.7z"/>
<path class="st1" d="M67.9,134.8l1.4,1.5h-0.6l-1.4-1.5h0v1.5h-0.4v-4.3h1.1c0.2,0,0.5,0.1,0.7,0.2c0.2,0.1,0.4,0.3,0.5,0.5
	c0.1,0.2,0.2,0.4,0.2,0.7c0,0.2-0.1,0.5-0.2,0.7c-0.1,0.2-0.3,0.4-0.5,0.5C68.3,134.8,68.1,134.8,67.9,134.8L67.9,134.8z
	 M67.2,132.5v1.9h0.6c0.2,0,0.3,0,0.5-0.1c0.1-0.1,0.3-0.2,0.3-0.3c0.1-0.1,0.1-0.3,0.1-0.5c0-0.2,0-0.3-0.1-0.5
	c-0.1-0.1-0.2-0.3-0.3-0.3c-0.1-0.1-0.3-0.1-0.5-0.1L67.2,132.5z"/>
<path class="st1" d="M72.5,132.5h-1.1v3.8H71v-3.8h-1.1v-0.4h2.6L72.5,132.5z"/>
<g id="gdansk_nowy_kolor">
	<path class="st2" d="M51.3,43.2c1-1.1,9.6-0.9,10.1,0c0.4,0.9,1.6,46.9,0.9,48.2S50.5,92.5,50,91.7C49.5,90.9,50.5,44,51.3,43.2z"
		/>
	<path class="st2" d="M55.4,31.3c2.6,0,4.2,3.7,3.8,4.2c-0.4,0.6-7.2,0.8-7.1,0.1C52,35.3,52.3,31.3,55.4,31.3z"/>
	<path class="st3" d="M62.6,100c-0.2-0.8,0.2-5.5-0.1-6.6C62.2,92.3,50,93,49.6,94c-0.3,0.6-0.1,5.5,0,6.3c0.1,0.4-2.2,3.8-1.8,4.2
		c0.3,0.4,16.6,0.4,16.8-0.4C64.8,103.2,62.7,100.6,62.6,100z"/>
	<path class="st3" d="M56.9,36.6c0.1-0.4,1.8-0.2,2,0c0.2,0.2,0.5,3.4,0.3,3.7c-0.2,0.2-2.2,0.5-2.3,0.1
		C56.8,40,56.7,37.1,56.9,36.6z"/>
	<path class="st3" d="M53.6,40.5c-0.1,0.4-1.8,0.2-2,0c-0.2-0.2-0.5-3.4-0.3-3.7c0.2-0.2,2.2-0.5,2.3-0.1
		C53.7,37.1,53.7,40,53.6,40.5z"/>
	<path class="st4" d="M51.4,40.9c0.1-0.1,7.7-0.6,7.9-0.4c0.2,0.2,0.4,2.4,0.1,2.3c-0.3-0.1-7.4-0.2-8,0
		C51.1,43,51.4,40.9,51.4,40.9z"/>
	<path class="st5" d="M55.4,84.1c0.2-0.4,1.1-0.2,1.3-0.1c0.2,0.1,0.1,4.8,0.1,5c0,0.2-1.1,0.2-1.3,0.1C55.3,89,55.4,84.1,55.4,84.1
		z"/>
	<path class="st5" d="M56,68.5c-0.3,0.2-1,0.2-1.1,0s-0.1-3.8,0.1-4.1c0.1-0.2,0.8-0.2,0.9,0C56.2,64.8,56.2,68.4,56,68.5z"/>
	<path class="st5" d="M56.4,56.7c-0.1,0-0.5,0.2-0.7,0c-0.1-0.2,0.1-3.2,0.1-3.3c0-0.1,0.4-0.2,0.5,0C56.4,53.7,56.5,56.6,56.4,56.7
		z"/>
	<path class="st1" d="M57.1,101c0,0-0.2-4.5-1.6-4.5s-1.1,4.5-1.1,4.5C54.6,101.2,56.8,101.3,57.1,101z"/>
	<path class="st1" d="M49,49.7c0.2-0.3,13.2-0.1,13.4,0.3c0.2,0.4-0.6,1.3-0.9,1.5c-0.3,0.2-11.4,0-11.6-0.2S48.7,50.1,49,49.7z"/>
</g>
<g id="gdansk_nowy">
	<path class="st1" d="M54.8,101.3c-1.9,0-3.5-0.1-4.5-0.2c-0.9-0.1-1.1-0.2-1.2-0.4c-0.2-0.9-0.1-13.8,0.4-28.5
		c0.2-6,0.3-12.3,0.4-17.3c0.1-7.3,0.2-11.2,0.4-11.6c0-0.1,0.2-0.3,1.1-0.5c2.3-0.4,8.8-0.2,9.3,0.4c0.4,0.5,0.8,20.3,0.9,28.7
		c0.2,10.9,0.5,28.2,0.3,28.6c-0.1,0.3-1.7,0.5-4.8,0.5C56.3,101.3,55.6,101.3,54.8,101.3z M49.4,100.6c0,0,0.2,0.2,1.4,0.3
		c3.5,0.3,10.4,0.1,10.8-0.3c0.1-0.6,0-13.3-0.3-28.5C61,55.2,60.7,44,60.5,43.5c-0.1-0.2-1.3-0.4-3.7-0.5c-2.1-0.1-4.2,0-5.3,0.2
		c-0.9,0.1-0.9,0.3-0.9,0.3l0,0c-0.1,0.4-0.2,5.3-0.3,11.5c-0.1,5-0.2,11.3-0.4,17.3C49.3,86.4,49.2,99.7,49.4,100.6L49.4,100.6z"/>
	<path class="st1" d="M56.3,106.2c-4.2,0-9.1-0.2-9.4-0.6c-0.5-0.6,1.9-4.6,2.3-5.1l0.2,0.2c-0.2,0.3-0.9,1.3-1.5,2.5
		c-0.8,1.6-0.9,2.2-0.8,2.3c0.5,0.4,11.4,0.7,15.4,0.2c1-0.1,1.2-0.3,1.2-0.3c0.2-0.3-0.5-2.1-2.1-4.7l0.2-0.1c0,0,0.6,1.1,1.2,2.2
		c1.2,2.3,0.9,2.6,0.8,2.7c-0.1,0.1-0.4,0.5-4.3,0.6C58.7,106.2,57.5,106.2,56.3,106.2z"/>
	<path class="st1" d="M49.2,92.9l0-0.2c0.1,0,8.9-0.7,12.6,0l0,0.2C58,92.2,49.3,92.9,49.2,92.9z"/>
	<path class="st1" d="M61.1,58.9c-4.2-0.4-11.1,0-11.1,0l0-0.2c0.1,0,6.9-0.4,11.2,0L61.1,58.9z"/>
	<path class="st1" d="M59.3,51.2c-3.1,0-9.1-0.1-9.4-0.1h0l0,0c-0.4-0.2-1.7-1-1.8-1.4c0-0.1,0-0.1,0-0.2c0.1-0.1,0.1-0.2,2.9-0.3
		c2.2-0.1,5-0.1,7.1-0.1c4.2,0,4.4,0.3,4.5,0.4c0.1,0.1,0.1,0.2,0.1,0.3c-0.1,0.5-1.4,1.3-1.7,1.4l0,0h0
		C60.9,51.2,60.3,51.2,59.3,51.2z M50,50.9c3.6,0.1,10.4,0.2,11,0.1c0.6-0.3,1.5-1,1.5-1.2c0,0,0,0,0,0c-0.5-0.5-13.2-0.3-14.2,0
		C48.4,49.9,49.1,50.4,50,50.9z"/>
	<path class="st1" d="M62.8,49.8l-0.2,0c0.1-1.3,0.2-3.2-0.1-3.4c-0.6-0.3-13.6-0.5-14.3-0.2c-0.2,0.3,0,2.3,0.2,3.5l-0.2,0
		C48,49.1,47.7,46.4,48,46c0-0.1,0.1-0.1,0.4-0.1c1.7-0.2,13.7-0.1,14.2,0.3C63.1,46.5,62.9,49.2,62.8,49.8z"/>
	<path class="st1" d="M59.5,43.1c-0.1-2.4-0.4-6.2-0.7-6.5c-0.1-0.1-1.4-0.3-3.5-0.3c-2,0-3.4,0.2-3.6,0.3c-0.3,0.2-0.4,3.4-0.3,6.4
		l-0.2,0c-0.1-1.5-0.2-6.3,0.4-6.6c0.5-0.3,6.9-0.5,7.4,0c0.4,0.5,0.7,5.7,0.7,6.7L59.5,43.1z"/>
	<path class="st1" d="M50.3,43.5c-0.1-0.2-1-1.8-0.7-2.4c0-0.1,0.2-0.4,4.2-0.6c2.2-0.1,4.7-0.2,6.2-0.1c1.4,0,1.5,0.2,1.5,0.3
		c0.2,0.5-0.6,2.4-0.8,2.8l-0.2-0.1c0.3-0.8,0.8-2.2,0.8-2.6c-0.3-0.1-2.5-0.2-5.8-0.1c-3.5,0.1-5.5,0.4-5.7,0.5
		c-0.2,0.4,0.4,1.5,0.7,2.1L50.3,43.5z"/>
	<path class="st1" d="M51.5,36.7c-0.1,0-0.4,0-0.5-0.1c0,0-0.1-0.1-0.1-0.1c0-0.1,0.2-0.4,0.4-0.7l0.1-0.1c0,0,0-0.2,0-0.3
		c0.2-1.1,0.6-4.5,3.8-4.5h0c2,0,3.2,1.5,3.5,4.5c0,0.1,0,0.2,0,0.2c0,0.1,0.1,0.1,0.2,0.2c0.1,0.1,0.3,0.3,0.3,0.5
		c0,0.1,0,0.2-0.1,0.2c-0.2,0.1-0.5,0.1-0.5,0.1l0-0.2c0.1,0,0.2,0,0.3-0.1c0,0,0,0,0,0c0-0.1-0.1-0.2-0.2-0.3
		c-0.1-0.1-0.2-0.2-0.2-0.3c0-0.1,0-0.2,0-0.3c-0.3-2.9-1.4-4.3-3.3-4.3l0,0c-3,0-3.4,3.1-3.5,4.3c0,0.3-0.1,0.4-0.1,0.4
		s-0.1,0.1-0.1,0.1c-0.1,0.2-0.2,0.4-0.3,0.6c0.1,0,0.2,0,0.3,0L51.5,36.7L51.5,36.7z"/>
	
		<rect x="47" y="22.4" transform="matrix(2.914284e-02 -0.9996 0.9996 2.914284e-02 31.3264 77.2107)" class="st1" width="16.8" height="0.2"/>
	<path class="st1" d="M55.3,27.9c-0.4,0-0.7-0.2-1-0.4c-0.4-0.4-0.6-0.9-0.6-1.5c0-0.6,0.1-1.1,0.4-1.4c0.3-0.3,0.7-0.5,1.2-0.5l0,0
		c0.5,0,0.9,0.1,1.1,0.4c0.3,0.4,0.5,0.9,0.4,1.7C56.8,27.7,56.1,27.9,55.3,27.9L55.3,27.9z M55.3,24.3c-0.5,0-0.8,0.1-1,0.4
		C54.1,25,54,25.4,54,26c0,0.5,0.2,1,0.5,1.3c0.2,0.2,0.5,0.4,0.9,0.4c0.6,0,1.2-0.1,1.3-1.5c0-0.7-0.1-1.2-0.4-1.5
		C56.1,24.4,55.7,24.3,55.3,24.3L55.3,24.3L55.3,24.3z"/>
	<path class="st1" d="M55.8,89.6c-0.2,0-0.5,0-0.7-0.1c-0.1,0-0.3-0.2-0.2-5.1v0l0,0c0.3-0.5,1.2-0.3,1.4-0.2c0.1,0.1,0.3,0.1,0.2,5
		c0,0.1,0,0.2,0,0.2c0,0.1-0.1,0.2-0.1,0.2C56.2,89.6,56,89.7,55.8,89.6z M55.2,89.3c0.2,0.1,1,0.1,1.1,0c0,0,0-0.1,0-0.2
		c0-3.8,0-4.6-0.1-4.8c-0.2-0.1-0.9-0.2-1.1,0.1C55.1,86.6,55.1,89,55.2,89.3z"/>
	<path class="st1" d="M55.8,68.7L55.8,68.7c-0.2,0-0.4,0-0.5-0.2c-0.2-0.3-0.2-1.9-0.2-2.3c0-2,0.1-2,0.2-2.1l0,0
		c0.3-0.1,0.7-0.2,1-0.1c0.1,0,0.2,0.1,0.3,0.2c0.1,0.2,0.1,3.9-0.1,4.3C56.2,68.6,56,68.7,55.8,68.7z M55.3,64.3
		c-0.1,0.3-0.1,3.6,0.1,4c0,0,0.1,0.1,0.3,0.1c0.1,0,0.3,0,0.4-0.1c0.2-0.3,0.2-3.8,0.1-4c0,0-0.1-0.1-0.1-0.1
		C55.8,64.2,55.6,64.2,55.3,64.3L55.3,64.3z"/>
	<path class="st1" d="M55.9,57.1c-0.2,0-0.3-0.1-0.4-0.2c-0.1-0.3-0.3-3-0.1-3.3c0,0,0-0.1,0.1-0.1l0,0c0,0,0.7-0.3,1,0
		c0.1,0.1,0.2,0.4,0,3.2c0,0.1,0,0.2,0,0.2c0,0.1-0.1,0.2-0.3,0.2C56,57.1,56,57.1,55.9,57.1z M55.6,53.7c-0.1,0.4,0,2.9,0.1,3.1
		c0,0,0.1,0,0.1,0c0.1,0,0.2,0,0.4,0c0,0,0-0.1,0-0.2c0.2-2.4,0.1-2.9,0.1-3C56.1,53.6,55.7,53.6,55.6,53.7L55.6,53.7z M56.1,56.9
		L56.1,56.9z"/>
	<path class="st1" d="M53.9,101.1c0-0.1-0.2-3.4,0.6-4.4c0.1-0.2,0.4-0.3,0.6-0.3c0.7,0,1.2,0.8,1.5,2.4c0.1,0.8,0.2,1.5,0.3,2.3
		l-0.2,0c0-1.2-0.4-4.4-1.5-4.4c-0.2,0-0.3,0.1-0.4,0.2c-0.8,0.9-0.6,4.2-0.6,4.2L53.9,101.1z"/>
	<path class="st1" d="M58.8,101.1l-0.3,0c0.1-1.6-1-57.3-1-58.2l-0.9-6.7l0.2,0l0.9,6.7C57.8,45.2,58.9,99.4,58.8,101.1z"/>
	<path class="st1" d="M62.7,47.3c-1-0.2-14.6-0.1-14.7-0.1v-0.2c0.6,0,13.7-0.1,14.8,0.1L62.7,47.3z"/>
	<path class="st1" d="M48.1,48.5v-0.2c0.6,0,13.7-0.2,14.7,0l0,0.2C61.8,48.3,48.2,48.5,48.1,48.5z"/>
	<path class="st1" d="M52.4,101.1l-0.2,0c0.2-7.8,1.1-57.7,1.1-58.2l0.5-6.6l0.2,0l-0.5,6.6C53.4,43.3,52.6,93.3,52.4,101.1z"/>
	
		<rect x="55.5" y="14.4" transform="matrix(8.263423e-02 -0.9966 0.9966 8.263423e-02 35.7055 69.5382)" class="st1" width="0.2" height="1.9"/>
	<rect x="63.5" y="35.5" transform="matrix(0.9108 -0.4128 0.4128 0.9108 -8.9143 29.98)" class="st1" width="2.8" height="0.2"/>
	
		<rect x="64.6" y="37.8" transform="matrix(0.9956 -9.323949e-02 9.323949e-02 0.9956 -3.2482 6.3005)" class="st1" width="2.5" height="0.2"/>
	<rect x="65.7" y="39.2" transform="matrix(0.4798 -0.8774 0.8774 0.4798 -1.3721 78.8396)" class="st1" width="0.2" height="2.8"/>
	<rect x="46.8" y="33.7" transform="matrix(0.3435 -0.9392 0.9392 0.3435 -2.5448 67.3168)" class="st1" width="0.2" height="3.5"/>
	<rect x="44.2" y="37.8" class="st1" width="2.8" height="0.2"/>
	
		<rect x="44.4" y="40.8" transform="matrix(0.9482 -0.3176 0.3176 0.9482 -10.6227 16.6149)" class="st1" width="2.4" height="0.2"/>
</g>
</svg>
