<?xml version="1.0" encoding="utf-8"?>
<!-- Generator: Adobe Illustrator 24.0.3, SVG Export Plug-In . SVG Version: 6.00 Build 0)  -->
<svg version="1.1" id="Layer_1" xmlns="http://www.w3.org/2000/svg" xmlns:xlink="http://www.w3.org/1999/xlink" x="0px" y="0px"
	 viewBox="0 0 106 149.9" style="enable-background:new 0 0 106 149.9;" xml:space="preserve">
<style type="text/css">
	.st0{fill:#EACEBE;}
	.st1{fill:#2E3D4B;}
	.st2{fill:#F2EDEB;}
</style>
<title>Artboard 25</title>
<path class="st0" d="M0.1,119.3c0,0,13.9,0.9,15.1-0.3c1.6-1.6-0.3-10.5,3.1-10.8c3.3-0.3,65.4-0.3,67.5,0.2
	c2.1,0.5,1.1,10,3.2,10.1s17.1,1.1,17.1,1.1v30.6H0.1V119.3z"/>
<path class="st1" d="M43.9,124.5v1.2c-0.2,0.3-0.4,0.5-0.7,0.6c-0.7,0.4-1.5,0.3-2.1-0.1c-0.3-0.2-0.6-0.5-0.8-0.8
	c-0.1-0.2-0.2-0.3-0.2-0.5c0-0.2-0.1-0.3-0.1-0.5c0-0.3,0.1-0.6,0.2-0.9c0.1-0.2,0.2-0.4,0.4-0.5c0.2-0.2,0.3-0.3,0.5-0.4
	c0.3-0.2,0.7-0.3,1.1-0.3c0.1,0,0.2,0,0.3,0c0.3,0,0.5,0.1,0.7,0.2c0.2,0.1,0.4,0.3,0.6,0.5l-0.3,0.3c-0.2-0.2-0.4-0.4-0.7-0.5
	c-0.2-0.1-0.4-0.1-0.6-0.1c-0.3,0-0.5,0.1-0.8,0.2c-0.2,0.1-0.3,0.2-0.4,0.3c-0.1,0.1-0.2,0.3-0.3,0.4c-0.1,0.2-0.2,0.5-0.2,0.8
	c0,0.1,0,0.3,0.1,0.4c0.1,0.4,0.3,0.7,0.6,0.9c0.1,0.1,0.3,0.2,0.5,0.3c0.2,0.1,0.4,0.1,0.5,0.1c0.2,0,0.5-0.1,0.7-0.2
	c0.2-0.1,0.4-0.3,0.6-0.4l0-0.6h-0.6v-0.4L43.9,124.5z"/>
<path class="st1" d="M44.7,126.5v-4.3h1.1c0.4,0,0.7,0.1,1.1,0.3c0.3,0.2,0.6,0.5,0.8,0.8c0.4,0.7,0.4,1.5,0,2.1
	c-0.2,0.3-0.5,0.6-0.8,0.8c-0.3,0.2-0.7,0.3-1.1,0.3L44.7,126.5z M45.8,126.1c0.3,0,0.6-0.1,0.9-0.2c0.3-0.1,0.5-0.4,0.6-0.6
	c0.3-0.5,0.3-1.2,0-1.7c-0.1-0.3-0.4-0.5-0.6-0.6c-0.3-0.2-0.6-0.2-0.9-0.2h-0.6v3.4L45.8,126.1z"/>
<path class="st1" d="M51.1,124.9h-1.5l-0.5,1.6h-0.5l1.5-4.3h0.6l1.5,4.3h-0.5L51.1,124.9z M51,124.5l-0.6-1.7l-0.6,1.7H51z"/>
<path class="st1" d="M56,122.2v4.3h-0.5l-2.1-3.4v3.4h-0.4v-4.3h0.5l2.2,3.5v-3.5H56z M55.2,121l-0.3,0.9h-0.4l0.3-0.9H55.2z"/>
<path class="st1" d="M59.2,123.5c0-0.1-0.1-0.3-0.1-0.4c-0.2-0.3-0.4-0.4-0.8-0.4c-0.3,0-0.6,0.1-0.7,0.2c-0.1,0.2-0.2,0.4-0.2,0.6
	c0,0.3,0.1,0.4,0.2,0.5c0.2,0.1,0.4,0.2,0.6,0.2c0.2,0,0.4,0,0.6,0.1c0.2,0,0.3,0.1,0.4,0.2c0.3,0.2,0.5,0.5,0.5,0.9
	c0,0.2,0,0.3-0.1,0.4c-0.1,0.1-0.2,0.3-0.3,0.4c-0.3,0.3-0.6,0.4-1.1,0.4c-0.5,0-0.8-0.1-1.1-0.4c-0.2-0.2-0.4-0.5-0.4-0.8h0.4
	c0,0.2,0.1,0.4,0.3,0.5c0.4,0.3,1,0.3,1.5,0c0.2-0.1,0.3-0.3,0.3-0.6c0-0.1,0-0.3-0.1-0.4c-0.1-0.1-0.2-0.2-0.3-0.2
	c-0.2-0.1-0.5-0.1-0.7-0.1c-0.8-0.1-1.2-0.5-1.2-1.2c0-0.2,0-0.3,0.1-0.5c0.1-0.1,0.1-0.3,0.3-0.4c0.2-0.2,0.6-0.4,1-0.4l0,0
	c0.4,0,0.8,0.1,1,0.4c0.2,0.2,0.4,0.6,0.4,0.9L59.2,123.5L59.2,123.5z"/>
<path class="st1" d="M60.8,124.7v1.8h-0.4v-4.3h0.4v1.8l1.6-1.8h0.6l-1.8,2.2l1.9,2.1h-0.6L60.8,124.7z"/>
<path class="st1" d="M30.1,130.1c0.2,0.1,0.4,0.3,0.5,0.5c0.2,0.4,0.2,0.9,0,1.4c-0.1,0.2-0.3,0.4-0.5,0.5c-0.2,0.1-0.4,0.2-0.7,0.2
	h-0.7v1.5h-0.4v-4.3h1.2C29.7,129.9,29.9,130,30.1,130.1z M29.9,132.1c0.1-0.1,0.3-0.2,0.3-0.3c0.1-0.1,0.1-0.3,0.1-0.5
	c0-0.2,0-0.3-0.1-0.5c-0.1-0.1-0.2-0.3-0.3-0.3c-0.1-0.1-0.3-0.1-0.5-0.1h-0.7v1.9h0.7C29.6,132.2,29.7,132.2,29.9,132.1L29.9,132.1
	z"/>
<path class="st1" d="M32.5,133.9c-0.3-0.2-0.6-0.5-0.8-0.8c-0.2-0.3-0.3-0.7-0.3-1.1c0-0.4,0.1-0.7,0.3-1.1c0.2-0.3,0.5-0.6,0.8-0.8
	c0.7-0.4,1.5-0.4,2.1,0c0.3,0.2,0.6,0.5,0.8,0.8c0.4,0.7,0.4,1.5,0,2.1c-0.2,0.3-0.5,0.6-0.8,0.8c-0.3,0.2-0.7,0.3-1.1,0.3
	C33.2,134.2,32.9,134.1,32.5,133.9z M34.5,133.5c0.8-0.5,1.1-1.5,0.6-2.3c-0.5-0.8-1.5-1.1-2.3-0.6c-0.8,0.5-1.1,1.5-0.6,2.3
	c0.3,0.5,0.9,0.9,1.5,0.9C33.9,133.8,34.2,133.7,34.5,133.5L34.5,133.5z"/>
<path class="st1" d="M37.5,132.7l1.4,1.5h-0.6l-1.4-1.5h0v1.5h-0.4v-4.3h1.1c0.2,0,0.5,0.1,0.7,0.2c0.2,0.1,0.4,0.3,0.5,0.5
	c0.1,0.2,0.2,0.4,0.2,0.7c0,0.2-0.1,0.5-0.2,0.7c-0.1,0.2-0.3,0.4-0.5,0.5C38.1,132.6,37.8,132.7,37.5,132.7L37.5,132.7z
	 M36.9,130.4v1.9h0.6c0.2,0,0.3,0,0.5-0.1c0.1-0.1,0.3-0.2,0.3-0.3c0.1-0.1,0.1-0.3,0.1-0.5c0-0.2,0-0.3-0.1-0.5
	c-0.1-0.1-0.2-0.3-0.3-0.3c-0.1-0.1-0.3-0.1-0.5-0.1L36.9,130.4z"/>
<path class="st1" d="M42.2,130.4h-1.1v3.8h-0.4v-3.8h-1.1v-0.4h2.6V130.4z"/>
<path class="st1" d="M47.9,130.1c0.2,0.1,0.4,0.3,0.5,0.5c0.2,0.4,0.2,0.9,0,1.4c-0.1,0.2-0.3,0.4-0.5,0.5c-0.2,0.1-0.4,0.2-0.7,0.2
	h-0.8v1.5H46v-4.3h1.2C47.4,129.9,47.7,130,47.9,130.1z M47.7,132.1c0.1-0.1,0.3-0.2,0.3-0.3c0.1-0.1,0.1-0.3,0.1-0.5
	c0-0.2,0-0.3-0.1-0.5c-0.1-0.1-0.2-0.3-0.3-0.3c-0.1-0.1-0.3-0.1-0.5-0.1h-0.8v1.9h0.8C47.4,132.2,47.5,132.2,47.7,132.1L47.7,132.1
	z"/>
<path class="st1" d="M50.3,133.9c-0.3-0.2-0.6-0.5-0.8-0.8c-0.2-0.3-0.3-0.7-0.3-1.1c0-0.4,0.1-0.7,0.3-1.1c0.2-0.3,0.5-0.6,0.8-0.8
	c0.7-0.4,1.5-0.4,2.1,0c0.3,0.2,0.6,0.5,0.8,0.8c0.4,0.7,0.4,1.5,0,2.1c-0.2,0.3-0.5,0.6-0.8,0.8C51.8,134.3,51,134.3,50.3,133.9
	L50.3,133.9z M52.2,133.5c0.8-0.5,1.1-1.5,0.6-2.3c-0.5-0.8-1.5-1.1-2.3-0.6c-0.8,0.5-1.1,1.5-0.6,2.3c0.3,0.5,0.9,0.9,1.5,0.9
	C51.7,133.8,52,133.7,52.2,133.5L52.2,133.5z M52.2,128.7l-0.3,0.9h-0.4l0.3-0.9H52.2z"/>
<path class="st1" d="M57,133.7v0.4h-1.8v-1.3l-0.5,0.9h-0.5l1-1.9v-2.1h0.4v1.2l0.5-0.9h0.5l-1,1.8v1.7L57,133.7z"/>
<path class="st1" d="M60.8,129.9v4.3h-0.5l-2.1-3.4v3.4h-0.4v-4.3h0.5l2.2,3.5v-3.5H60.8z"/>
<path class="st1" d="M62.6,133.9c-0.3-0.2-0.6-0.5-0.8-0.8c-0.2-0.3-0.3-0.7-0.3-1.1c0-0.4,0.1-0.7,0.3-1.1c0.2-0.3,0.5-0.6,0.8-0.8
	c0.7-0.4,1.5-0.4,2.1,0c0.3,0.2,0.6,0.5,0.8,0.8c0.4,0.7,0.4,1.5,0,2.1c-0.2,0.3-0.5,0.6-0.8,0.8C64.1,134.3,63.3,134.3,62.6,133.9
	L62.6,133.9z M64.5,133.5c0.8-0.5,1.1-1.5,0.6-2.3c-0.5-0.8-1.5-1.1-2.3-0.6c-0.8,0.5-1.1,1.5-0.6,2.3c0.3,0.5,0.9,0.9,1.5,0.9
	C64,133.8,64.3,133.7,64.5,133.5L64.5,133.5z"/>
<path class="st1" d="M67.6,133.9c-0.3-0.2-0.6-0.5-0.8-0.8c-0.4-0.7-0.4-1.5,0-2.2c0.2-0.3,0.5-0.6,0.8-0.8c0.3-0.2,0.7-0.3,1.1-0.3
	c0.3,0,0.6,0.1,0.9,0.2c0.3,0.1,0.5,0.3,0.7,0.6l-0.3,0.3c-0.3-0.4-0.8-0.6-1.3-0.6c-0.3,0-0.6,0.1-0.9,0.2
	c-0.3,0.2-0.5,0.4-0.6,0.6c-0.3,0.5-0.3,1.2,0,1.7c0.2,0.3,0.4,0.5,0.6,0.6c0.3,0.2,0.6,0.2,0.9,0.2c0.5,0,1-0.2,1.3-0.6l0.3,0.3
	c-0.2,0.2-0.4,0.4-0.7,0.6C68.9,134.3,68.2,134.3,67.6,133.9L67.6,133.9z"/>
<path class="st1" d="M74.1,129.9v4.3h-0.5l-2.1-3.4v3.4H71v-4.3h0.5l2.2,3.5v-3.5H74.1z"/>
<path class="st1" d="M76.6,132.6v1.6h-0.4v-1.6l-1.3-2.7h0.5l1.1,2.1l1.1-2.1h0.5L76.6,132.6z"/>
<g id="gdansk_port_kolor">
	<path class="st1" d="M37.8,34.3c0.7-0.3,10.5-0.9,11.1-0.9s11.8,1.5,11.9,1.7c0.1,0.2-0.3,1.6-0.5,1.7c-0.2,0.1-10.1-1.9-11.1-1.9
		c-1,0-10.9,1-11.2,1C37.8,35.9,37.8,34.3,37.8,34.3z"/>
	<path class="st1" d="M43.3,26.5c0.2-0.1,8.1-0.1,9.2,0c1.1,0.1,1.9,0.2,1.9,0.3c0,0.1,0.1,0.7,0,0.8c-0.1,0.1-6.6-0.2-7.1-0.2
		c-0.5,0-3.9,0-4,0C43.2,27.4,43.3,26.8,43.3,26.5C43.4,26.4,43.3,26.5,43.3,26.5z"/>
	<path class="st2" d="M34.4,98c0.5-0.7,33.6-1.3,34-0.8c0.4,0.5,1.4,9.1,0.3,9.7c-1,0.6-33.4,0.9-33.8,0.2
		C34.5,106.4,34.1,98.6,34.4,98z"/>
	<path class="st2" d="M39.1,36.2c0.3-0.7,10.2-0.8,10.6-0.8c0.4,0,10.5,1.8,10.7,2.2c0.1,0.4-3.3,16.6-3.7,16.7
		c-0.4,0.1-14.5-0.9-14.8-1.2C41.5,52.6,38.8,36.7,39.1,36.2z"/>
	<path class="st2" d="M43.4,27.9c0.2-0.4,11.3-0.8,11.4-0.3c0.1,0.4-0.3,4.9-0.5,5.2S44.1,33.1,43.8,33
		C43.6,32.9,43.4,27.9,43.4,27.9z"/>
	<path class="st1" d="M45.5,54.8c0.5-0.4,9-0.1,9.3,0.4c0.3,0.5,1,41.1,0.5,41.4s-8.7,0.6-9.2,0.2C45.6,96.5,45,55.2,45.5,54.8z"/>
</g>
<g id="gdansk_port">
	<path class="st1" d="M47,108c-6,0-12.6-0.1-12.9-0.2c-0.1-0.1-0.4-0.2-0.5-3.3c-0.1-1.7,0-3.5,0.1-5.2c0.2-2,0.4-2.1,0.5-2.1l0,0.1
		l0-0.1c0.5-0.2,9.1-0.4,16.8-0.4c3.8,0,16.1-0.2,16.4,0.1c0.4,0.3,0.6,4.8,0.6,5.3c0.1,1.2,0.2,5-0.2,5.4
		c-0.4,0.4-11.8,0.4-16.8,0.5C49.7,108,48.4,108,47,108z M34.1,97.4c-0.3,0.2-0.6,4.2-0.4,7.7c0.1,2.3,0.4,2.5,0.4,2.5
		c0.4,0.1,7.7,0.2,16.7,0.2c9.6,0,16.3-0.2,16.7-0.4c0.2-0.2,0.2-2,0.1-5.2c-0.1-2.9-0.4-5-0.5-5.2C66,96.7,35.2,97.1,34.1,97.4
		L34.1,97.4z"/>
	<path class="st1" d="M38.3,103.8c-0.4,0-1,0-1.6-0.1c-0.6,0-1.4-0.1-1.5,0c0,0-0.1,0-0.1,0c-0.1,0-0.2-0.1-0.2-1.9
		c0-0.9,0-1.8,0-1.8v0l0,0c0.2-0.5,4-0.5,4.3-0.3c0.1,0,0.2,0.2,0.3,0.9c0.1,0.9,0,3-0.3,3.2C39,103.8,38.7,103.8,38.3,103.8z
		 M35.4,103.5c0.3,0,0.7,0,1.3,0.1c0.8,0,2.1,0.1,2.3,0c0.2-0.1,0.3-1.8,0.2-3c-0.1-0.6-0.2-0.7-0.2-0.7c-0.4-0.2-3.8-0.1-4,0.2
		c0,1.5,0.1,3.1,0.2,3.5C35.2,103.5,35.3,103.5,35.4,103.5z"/>
	<path class="st1" d="M43.3,103.8c-0.2,0-0.4,0-0.7,0c-0.7,0-2.1-0.1-2.2-0.1c-0.1,0-0.1-0.1-0.1-1.8c0-0.7,0-1.7,0.1-1.9
		c0-0.1,0.1-0.1,0.2-0.1c0.6-0.2,4.3-0.5,4.7-0.2c0.4,0.3-0.1,3.8-0.3,4C44.8,103.6,44.7,103.8,43.3,103.8z M40.5,103.4
		c0.2,0,1,0.1,2.1,0.1c1.5,0,2,0,2.1-0.1c0.1-0.3,0.5-3.4,0.3-3.7c-0.3-0.2-4,0.1-4.5,0.3C40.4,100.4,40.4,103,40.5,103.4
		L40.5,103.4z"/>
	<path class="st1" d="M49.1,103.9c-2.4,0-2.5-0.1-2.5-0.1c-0.1-0.2-0.3-2.8-0.4-4l0-0.1l0.1,0c0.1,0,3,0,4.9,0c4.9,0,4.9,0.1,5,0.2
		l0,0c0.1,0.3,0.1,3.2,0,3.6c0,0.1-0.1,0.2-0.9,0.3c-1,0.1-2.9,0.2-5.1,0.2C49.8,103.9,49.4,103.9,49.1,103.9z M46.8,103.6
		c0.7,0.1,8.6,0.1,9.2-0.3c0.1-0.4,0.1-3,0-3.4c-0.7-0.1-8.5-0.1-9.6-0.1C46.5,101.2,46.7,103.2,46.8,103.6z M46.8,103.6l9.2-0.3
		L46.8,103.6z"/>
	<path class="st1" d="M59.5,104c-0.8,0-1.6,0-1.7-0.1c-0.3-0.2-1-3.4-0.8-4c0-0.2,0.1-0.2,0.2-0.2l0,0c0,0,4.5-0.5,4.7,0.1
		c0.2,0.4,0.4,3.7,0,4C61.6,103.9,60.5,104,59.5,104z M57.9,103.7c0.1,0.1,0.9,0.1,1.9,0.1c1.2,0,1.8-0.1,1.9-0.2
		c0.3-0.2,0.2-3.3,0-3.8c-0.2-0.3-3.8,0-4.5,0.1c-0.1,0.1,0,0.7,0.2,1.9C57.6,102.9,57.9,103.6,57.9,103.7z"/>
	<path class="st1" d="M63.8,103.9h-0.2c-0.5,0-0.5-0.1-0.6-0.1c-0.1-0.2-0.3-3.4-0.1-3.9c0-0.1,0.1-0.1,0.1-0.1l0,0c0,0,3-0.5,3.6,0
		s0.2,3.5,0,3.8C66.5,103.8,64.5,103.9,63.8,103.9z M63.2,103.6c0.1,0,0.8,0.1,1.7,0c1.1-0.1,1.6-0.2,1.7-0.3c0.2-0.3,0.5-3.1,0-3.5
		c-0.5-0.4-3-0.1-3.4,0C63,100.2,63.1,103.2,63.2,103.6L63.2,103.6z M63.2,103.6l0-3.7l0,0L63.2,103.6z"/>
	<path class="st1" d="M54.4,96.8c-0.3-14.3-0.9-41.5-1.1-42.5c-0.5-0.3-7.4-0.6-8.6-0.3l0.6,42.8H45l-0.6-43l0.1,0
		c0.5-0.1,2.8-0.1,4.7-0.1c1.8,0.1,4.1,0.2,4.3,0.5c0.1,0.1,0.2,0.3,0.7,21.5c0.3,10.5,0.5,21,0.5,21.1L54.4,96.8z"/>
	<path class="st1" d="M53.4,54.4l0-0.2c1.6-0.1,2.3-0.2,2.5-0.5c0.2-0.3,0.8-3.8,1.5-8.7c0.6-4.5,1.1-8.3,1.1-8.7
		c-0.5-0.3-8.4-1.7-8.9-1.7c-0.7,0-8.5,0.5-9,0.8c-0.1,0.5,0.3,4.4,0.9,9c0.6,5,1.2,8.6,1.5,8.9c0.4,0.4,0.6,0.4,1.8,0.5l0,0.2
		c-1.3-0.1-1.5-0.1-2-0.5c-0.4-0.3-1.2-6.3-1.5-8.9c-0.4-3.4-1.1-8.7-0.9-9.2c0-0.1,0.1-0.3,4.5-0.7c2.2-0.2,4.5-0.3,4.7-0.3
		s2.5,0.4,4.6,0.7c4.3,0.8,4.4,1,4.5,1c0.2,0.3-0.8,7.3-1,8.7s-1.2,8.4-1.5,8.9C55.8,54.1,55.1,54.3,53.4,54.4z"/>
	<path class="st1" d="M60.4,36.3c-0.3,0-0.6,0-0.7,0l0-0.2c0.4,0,0.9,0,1,0c0.1-0.2,0.2-1,0-1.3c-0.5-0.3-9.9-1.5-11.2-1.6
		c-0.8-0.1-11.2,0.8-11.8,0.9c0,0.1,0,0.2,0,0.3c0.1,0.4,0.2,0.9,0.3,0.9c0.2,0.1,1.8,0,2.4-0.1l0,0.2c-0.3,0-2.3,0.3-2.5,0.1
		c-0.2-0.1-0.5-1-0.4-1.4c0-0.1,0.1-0.2,0.2-0.3c0.3-0.1,11-1,11.9-0.9c0.1,0,11,1.3,11.3,1.7c0.2,0.3,0.2,1.1,0.1,1.4
		c0,0.1-0.1,0.2-0.1,0.2C60.6,36.3,60.5,36.3,60.4,36.3z"/>
	<path class="st1" d="M54.5,33.6l-0.2,0c0.2-2.5,0.3-6.6,0.1-7c-0.6-0.3-10.1-0.5-10.8-0.2c-0.1,0.4,0.1,4.5,0.3,7l-0.2,0
		c-0.1-1.1-0.4-6.8-0.2-7.1c0-0.1,0.1-0.1,0.4-0.1c1.3-0.2,10.4-0.1,10.8,0.3C54.9,26.8,54.6,32,54.5,33.6z"/>
	<path class="st1" d="M54.7,26.7l-0.2,0c0.1-0.5,0.2-0.9,0.3-1.4c-0.9-0.2-10.5-0.5-11.3-0.4c0,0.2,0.1,0.9,0.2,1.6l-0.2,0
		c-0.2-1.1-0.3-1.7-0.1-1.8c0,0,0.1-0.1,5.6,0c2.5,0.1,5.6,0.2,6,0.3c0.1,0,0.1,0,0.1,0.1C55,25.3,54.8,26.3,54.7,26.7z"/>
	<rect x="44.2" y="24.7" transform="matrix(0.9938 -0.1108 0.1108 0.9938 -2.5449 5.0625)" class="st1" width="0.2" height="1.4"/>
	<rect x="45.3" y="24.7" class="st1" width="0.2" height="1.4"/>
	<rect x="47.7" y="25.4" transform="matrix(0.1699 -0.9855 0.9855 0.1699 15.0699 68.8557)" class="st1" width="1.4" height="0.2"/>
	
		<rect x="48.8" y="25.4" transform="matrix(7.236788e-02 -0.9974 0.9974 7.236788e-02 20.4442 73.0108)" class="st1" width="1.3" height="0.2"/>
	<rect x="50.3" y="24.9" class="st1" width="0.2" height="1.3"/>
	
		<rect x="51.8" y="25.5" transform="matrix(8.454739e-02 -0.9964 0.9964 8.454739e-02 22.5271 75.7189)" class="st1" width="1.3" height="0.2"/>
	
		<rect x="53" y="25.6" transform="matrix(8.159062e-02 -0.9967 0.9967 8.159062e-02 23.6457 77.0501)" class="st1" width="1.4" height="0.2"/>
	<path class="st1" d="M48.6,22.8h-3.4l0-0.1c0-0.3-0.1-0.9,0-1.1c0,0,0.1-0.1,1.7,0c1.6,0.1,1.6,0.1,1.7,0.1
		C48.6,21.8,48.8,21.9,48.6,22.8L48.6,22.8z M45.4,22.6h3c0-0.2,0-0.4,0-0.6c-0.4,0-2.7-0.1-3.1-0.1C45.3,22.1,45.4,22.4,45.4,22.6
		L45.4,22.6z"/>
	<rect x="46.4" y="21.8" class="st1" width="0.2" height="1"/>
	<rect x="47.1" y="21.8" class="st1" width="0.2" height="0.9"/>
	<path class="st1" d="M59.6,40.4l-1.5-0.6c-0.4,0-6-0.3-8.4-0.4s-8.6,0.4-8.9,0.4l-1.5,0.5l-0.1-0.2l1.5-0.5c0.1,0,6.5-0.6,9-0.4
		c2.5,0.1,8.4,0.4,8.5,0.4l0,0l1.5,0.6L59.6,40.4z"/>
	<path class="st1" d="M40,44.4l0-0.2l1.3-0.3c0.1,0,6.6-0.5,8.3-0.5c1.7,0,8,0.3,8.1,0.3l1.3,0.1l0,0.2l-1.3-0.1
		c-0.1,0-6.3-0.3-8-0.3c-1.7,0-8,0.5-8.3,0.5L40,44.4z"/>
	<rect x="43.7" y="39.5" class="st1" width="0.2" height="4.3"/>
	<rect x="46.4" y="39.3" class="st1" width="0.2" height="4.3"/>
	
		<rect x="51.7" y="39.3" transform="matrix(0.9983 -5.808675e-02 5.808675e-02 0.9983 -2.3216 3.0821)" class="st1" width="0.2" height="4.3"/>
	<path class="st1" d="M54.7,43.6l-0.2,0c0.1-0.9,0.2-4,0.3-4.2l0.2,0.1l-0.1,0l0.1,0C54.9,39.7,54.8,42,54.7,43.6z"/>
	<path class="st1" d="M57.9,48.4l-1-0.3c-0.3,0-6.1,0.1-7.5,0c-1.3-0.1-7.6,0-7.7,0l-1,0.1l0-0.2l1-0.1c0.1,0,6.4-0.1,7.7,0
		s7.4,0,7.5,0h0l1,0.3L57.9,48.4z"/>
	<path class="st1" d="M57.3,51.2h-0.8c-0.1,0-6.2-0.4-7-0.4c-0.8,0-6.9,0-7.3,0L41.4,51l-0.1-0.2l0.9-0.2h0c0.1,0,6.5,0,7.3,0
		c0.8,0,6.8,0.4,7,0.4h0.8L57.3,51.2z"/>
	<path class="st1" d="M57.8,49.1l-1-0.2c-0.3,0-6.3,0-7.4,0c-1.1,0-7.3,0-7.5,0l-1,0.1l0-0.2l1-0.1h0c0.1,0,6.4,0,7.6,0
		c1.1,0,7.3,0,7.4,0h0l1,0.2L57.8,49.1z"/>
	
		<rect x="43.9" y="48" transform="matrix(0.9986 -5.338169e-02 5.338169e-02 0.9986 -2.5724 2.419)" class="st1" width="0.2" height="2.7"/>
	
		<rect x="46.5" y="48" transform="matrix(0.9978 -6.662219e-02 6.662219e-02 0.9978 -3.1852 3.2153)" class="st1" width="0.2" height="2.7"/>
	<polygon class="st1" points="49.5,53.7 49.3,53.7 49.4,50.7 49.4,48 49.4,43.5 49.6,39.3 49.7,34.9 49.9,34.9 49.8,39.3 49.6,43.5 
		49.6,48 49.6,50.7 	"/>
	<rect x="51.7" y="48.1" class="st1" width="0.2" height="2.7"/>
	
		<rect x="53" y="49.4" transform="matrix(7.341225e-02 -0.9973 0.9973 7.341225e-02 1.0987 100.2056)" class="st1" width="2.9" height="0.2"/>
	<polygon class="st1" points="46.9,33.2 46.4,26.2 46.4,22.6 47.4,22.6 47.5,24.8 47.5,26.2 47.3,26.2 47.3,24.8 47.1,22.8 
		46.6,22.8 46.6,26.2 47.1,33.2 	"/>
	<polygon class="st1" points="51.2,33.2 51,33.2 51.3,26.2 51.3,24.9 51.6,24.9 51.5,26.3 	"/>
	<path class="st1" d="M54.5,30.5c-0.6-0.1-7.4-0.3-10.9-0.3V30c0.4,0,10.2,0.1,11,0.3L54.5,30.5z"/>
	<path class="st1" d="M54.5,27.5c-0.4-0.1-8.1-0.2-11-0.3V27c0.4,0,10.6,0.1,11.1,0.3L54.5,27.5z"/>
	<rect x="34.9" y="100.4" class="st1" width="4.2" height="0.2"/>
	
		<rect x="40.4" y="100.3" transform="matrix(0.9998 -1.867394e-02 1.867394e-02 0.9998 -1.868 0.8158)" class="st1" width="4.8" height="0.2"/>
	
		<rect x="51.1" y="95.6" transform="matrix(1.186797e-02 -0.9999 0.9999 1.186797e-02 -49.858 150.5441)" class="st1" width="0.2" height="9.8"/>
	
		<rect x="57.1" y="100.3" transform="matrix(0.9993 -3.786459e-02 3.786459e-02 0.9993 -3.7609 2.3243)" class="st1" width="4.8" height="0.2"/>
	<rect x="62.9" y="100.3" class="st1" width="3.9" height="0.2"/>
	<rect x="36.9" y="99.7" transform="matrix(1 -3.141572e-03 3.141572e-03 1 -0.3192 0.1169)" class="st1" width="0.2" height="4"/>
	
		<rect x="40.7" y="101.5" transform="matrix(3.316162e-03 -1 1 3.316162e-03 -59.0373 144.0347)" class="st1" width="4" height="0.2"/>
	
		<rect x="51.3" y="99.7" transform="matrix(0.9975 -7.010469e-02 7.010469e-02 0.9975 -7.0047 3.8515)" class="st1" width="0.2" height="4"/>
	
		<rect x="53.8" y="99.8" transform="matrix(0.9985 -5.390453e-02 5.390453e-02 0.9985 -5.4052 3.0516)" class="st1" width="0.2" height="3.9"/>
	
		<rect x="48.7" y="99.7" transform="matrix(0.9951 -9.914608e-02 9.914608e-02 0.9951 -9.8451 5.3389)" class="st1" width="0.2" height="4"/>
	
		<rect x="59.6" y="99.6" transform="matrix(0.9951 -9.879873e-02 9.879873e-02 0.9951 -9.7626 6.3939)" class="st1" width="0.2" height="4.2"/>
	
		<rect x="64.9" y="99.5" transform="matrix(0.999 -4.414248e-02 4.414248e-02 0.999 -4.4223 2.9692)" class="st1" width="0.2" height="4.2"/>
	<path class="st1" d="M43.2,53.8c-0.1,0-1.1-0.3-1.3-0.5c-0.5-0.4-3.1-14.8-3.7-17.7l0.2,0c1.3,6.8,3.3,17.2,3.6,17.6
		c0.1,0.1,0.8,0.4,1.2,0.5L43.2,53.8z"/>
	<path class="st1" d="M55.3,54.1l0-0.2c0.5-0.1,1.2-0.2,1.4-0.3c0.2-0.5,2.2-10.3,3.5-16.8l0.2,0c-1,5-3.3,16.7-3.6,16.9
		C56.6,53.9,55.5,54.1,55.3,54.1z"/>
	<rect x="63.4" y="39" transform="matrix(0.9724 -0.2333 0.2333 0.9724 -7.3026 16.5465)" class="st1" width="5.8" height="0.2"/>
	<path class="st1" d="M69.1,42.6c-2.1-0.1-4.4-0.2-4.6,0l-0.2-0.2c0.2-0.2,3.4-0.1,4.8,0L69.1,42.6z"/>
	<rect x="65.3" y="45.1" transform="matrix(0.4856 -0.8742 0.8742 0.4856 -6.7589 80.9483)" class="st1" width="0.2" height="2.3"/>
	<path class="st1" d="M35.4,39.9c-1.1,0-3.5-0.7-3.6-0.7l0.1-0.2c0,0,2.5,0.7,3.6,0.7V39.9z"/>
	<path class="st1" d="M30.5,42.6l0-0.2c0.2,0,4.1-0.2,5,0l-0.1,0.2C34.5,42.4,30.5,42.6,30.5,42.6z"/>
	
		<rect x="31.7" y="45.9" transform="matrix(0.9544 -0.2984 0.2984 0.9544 -12.1948 12.1197)" class="st1" width="3.8" height="0.2"/>
</g>
</svg>
