<svg xmlns="http://www.w3.org/2000/svg" width="352.367" height="496" viewBox="0 0 352.367 496">
  <g id="_16" data-name="16" transform="translate(9745.367 -13859)">
    <rect id="Rectangle_275" data-name="Rectangle 275" width="352" height="496" transform="translate(-9745 13859)" fill="#fff"/>
    <g id="gdansk_port_poln" data-name="gdansk port poln" transform="translate(-15676.499 13522.312)">
      <path id="Path_2439" data-name="Path 2439" d="M5931.133,685.383s46.073,2.86,50.078-1.145c5.427-5.427-.858-35,10.3-35.99s217.431-.858,224.3.715,3.817,33.116,10.681,33.5,57.015,3.684,57.015,3.684V787.887H5931.133Z" transform="translate(0 44.555)" fill="#e6c2b0"/>
      <g id="Group_456" data-name="Group 456" transform="translate(6024.657 735.808)">
        <path id="Path_2440" data-name="Path 2440" d="M6053.62,701.264a6.913,6.913,0,0,1-3.3.83,6.787,6.787,0,0,1-2.088-.32,6.65,6.65,0,0,1-2.407-1.277,7.1,7.1,0,0,1-1.769-2.174,6.639,6.639,0,0,1-.812-3.26,6.267,6.267,0,0,1,.043-.852,7.262,7.262,0,0,1,.606-2.228,6.744,6.744,0,0,1,1.249-1.863,7.291,7.291,0,0,1,1.757-1.364,6.994,6.994,0,0,1,2.121-.768,6.822,6.822,0,0,1,4.687.768,8.624,8.624,0,0,1,2.152,1.811l-1.471,1.236a6.376,6.376,0,0,0-2.193-1.641,5.443,5.443,0,0,0-1.94-.362,5.015,5.015,0,0,0-4.56,2.9,4.874,4.874,0,0,0-.552,2.281,4.939,4.939,0,0,0,.191,1.364,4.791,4.791,0,0,0,1.832,2.749,5.148,5.148,0,0,0,3.132,1.065,5,5,0,0,0,2.121-.458,5.541,5.541,0,0,0,1.757-1.289v-1.428h-1.961v-1.918h3.857v4.048a6.588,6.588,0,0,1-1.468,1.535A7.648,7.648,0,0,1,6053.62,701.264Z" transform="translate(-6004.043 -683.854)" fill="#212e3b"/>
        <path id="Path_2441" data-name="Path 2441" d="M6056.328,702.016V687.824h3.665a6.852,6.852,0,0,1,2.705.543,7.1,7.1,0,0,1,2.259,1.522,7.516,7.516,0,0,1,1.5,2.292,7.17,7.17,0,0,1,0,5.477,7.234,7.234,0,0,1-1.5,2.269,6.89,6.89,0,0,1-4.964,2.088Zm1.917-12.274V700.1h1.749a4.956,4.956,0,0,0,1.97-.4,5.17,5.17,0,0,0,1.65-1.108,5.3,5.3,0,0,0,1.1-1.673,5.216,5.216,0,0,0,0-3.985,5.3,5.3,0,0,0-1.1-1.673,5.169,5.169,0,0,0-1.65-1.108,4.956,4.956,0,0,0-1.97-.4Z" transform="translate(-6001.636 -683.86)" fill="#212e3b"/>
        <path id="Path_2442" data-name="Path 2442" d="M6077.186,702.01l-1.745-4.987h-4.433l-1.748,4.987h-2.025l4.923-14.15h2.132l4.923,14.15Zm-3.962-11.4-1.619,4.624h3.216Z" transform="translate(-5999.631 -683.854)" fill="#212e3b"/>
        <path id="Path_2443" data-name="Path 2443" d="M6087.71,702.632l-6.395-10.4v10.4h-1.9V688.46h1.854l6.606,10.7v-10.7h1.875v14.172Zm-2.558-15.215h-1.427l.789-2.941h1.662Z" transform="translate(-5997.39 -684.476)" fill="#212e3b"/>
        <path id="Path_2444" data-name="Path 2444" d="M6097.551,690.853a2.317,2.317,0,0,0-.949-.842,3.373,3.373,0,0,0-1.438-.266,2.7,2.7,0,0,0-2.025.617,2.176,2.176,0,0,0-.551,1.6,2.317,2.317,0,0,0,.17.97,1.448,1.448,0,0,0,.511.607,3.565,3.565,0,0,0,1.684.469,11.67,11.67,0,0,1,2.014.33,5.427,5.427,0,0,1,1.438.607,3.367,3.367,0,0,1,1.556,3.069,3.74,3.74,0,0,1-.321,1.534,4.155,4.155,0,0,1-2.5,2.28,5.863,5.863,0,0,1-1.927.32,4.583,4.583,0,0,1-4.985-4.347l.041-.021h1.875a2.781,2.781,0,0,0,.767,1.683,3.173,3.173,0,0,0,2.239.766,3.357,3.357,0,0,0,2.13-.618,1.933,1.933,0,0,0,.788-1.6,2.388,2.388,0,0,0-.116-.778,1.31,1.31,0,0,0-.437-.586,5.4,5.4,0,0,0-2.708-.7,4.894,4.894,0,0,1-3.068-1.172,3.714,3.714,0,0,1-1.043-2.813,4,4,0,0,1,1.128-2.962,5.168,5.168,0,0,1,6.778.149,5.358,5.358,0,0,1,1.32,3.069H6098A3.328,3.328,0,0,0,6097.551,690.853Z" transform="translate(-5995.404 -683.864)" fill="#212e3b"/>
        <path id="Path_2445" data-name="Path 2445" d="M6106.974,702.01l-4.582-5.221v5.221h-1.875V687.86h1.875v5.391l4.5-5.391h2.472l-5.988,7.18,6.138,6.969Z" transform="translate(-5993.511 -683.854)" fill="#212e3b"/>
        <path id="Path_2446" data-name="Path 2446" d="M6012.006,718.69v4.922h-1.875V709.442h3.984a4.379,4.379,0,0,1,1.725.352,4.562,4.562,0,0,1,1.47.991,4.76,4.76,0,0,1,.993,1.5,4.685,4.685,0,0,1,0,3.559,4.515,4.515,0,0,1-.993,1.481,4.709,4.709,0,0,1-1.47,1,4.269,4.269,0,0,1-1.725.362Zm0-7.309v5.413h2.109a2.486,2.486,0,0,0,1.875-.81,2.7,2.7,0,0,0,0-3.815,2.561,2.561,0,0,0-1.875-.788Z" transform="translate(-6010.131 -679.885)" fill="#212e3b"/>
        <path id="Path_2447" data-name="Path 2447" d="M6023.577,723.173a6.865,6.865,0,0,1-2.269-1.545,7.15,7.15,0,0,1-1.535-2.291,7.165,7.165,0,0,1-.011-5.5,7.237,7.237,0,0,1,3.814-3.825,6.86,6.86,0,0,1,2.738-.554,6.939,6.939,0,0,1,2.749.554,7.175,7.175,0,0,1,3.815,3.815,6.94,6.94,0,0,1,.552,2.749,7.017,7.017,0,0,1-.552,2.76,7.147,7.147,0,0,1-3.815,3.825,7.134,7.134,0,0,1-5.487.011Zm.746-11.379a5.162,5.162,0,0,0-3.186,4.784,5.219,5.219,0,0,0,.405,2.035,5.161,5.161,0,0,0,9.547,0,5.253,5.253,0,0,0,.4-2.035,5.187,5.187,0,0,0-7.171-4.784Z" transform="translate(-6008.46 -679.882)" fill="#212e3b"/>
        <path id="Path_2448" data-name="Path 2448" d="M6041.754,723.61h-2.513l-4.069-4.837v4.837H6033.3V709.46h3.642a4.393,4.393,0,0,1,3.2,1.342,4.889,4.889,0,0,1,.959,1.5,4.862,4.862,0,0,1,.042,3.463,4.42,4.42,0,0,1-.853,1.406,4.62,4.62,0,0,1-1.3,1.012,4.245,4.245,0,0,1-1.556.48Zm-6.583-12.232v5.413h1.767a2.542,2.542,0,0,0,1.024-.213,2.715,2.715,0,0,0,.852-.575,2.847,2.847,0,0,0,.566-.874,2.688,2.688,0,0,0-1.417-3.537,2.543,2.543,0,0,0-1.024-.213Z" transform="translate(-6005.871 -679.882)" fill="#212e3b"/>
        <path id="Path_2449" data-name="Path 2449" d="M6047.636,711.253v12.36h-1.875v-12.36h-3.431v-1.811h8.738v1.811Z" transform="translate(-6004.21 -679.885)" fill="#212e3b"/>
        <path id="Path_2450" data-name="Path 2450" d="M6062.206,718.69v4.922h-1.875V709.442h3.983a4.4,4.4,0,0,1,1.728.352,4.562,4.562,0,0,1,1.47.991,4.777,4.777,0,0,1,.99,1.5,4.622,4.622,0,0,1-.99,5.04,4.709,4.709,0,0,1-1.47,1,4.286,4.286,0,0,1-1.728.362Zm0-7.309v5.413h2.108a2.481,2.481,0,0,0,1.875-.81,2.7,2.7,0,0,0,0-3.815,2.557,2.557,0,0,0-1.875-.788Z" transform="translate(-6000.9 -679.885)" fill="#212e3b"/>
        <path id="Path_2451" data-name="Path 2451" d="M6073.778,723.8a6.868,6.868,0,0,1-2.268-1.545,7.124,7.124,0,0,1-1.534-2.291,7.15,7.15,0,0,1-.012-5.5,7.242,7.242,0,0,1,3.814-3.825,6.869,6.869,0,0,1,2.738-.554,6.939,6.939,0,0,1,2.749.554,7.166,7.166,0,0,1,3.815,3.815,6.932,6.932,0,0,1,.553,2.749,7.009,7.009,0,0,1-.553,2.76,7.138,7.138,0,0,1-3.815,3.825,7.134,7.134,0,0,1-5.487.011Zm.747-11.379a5.161,5.161,0,0,0-3.186,4.784,5.209,5.209,0,0,0,.4,2.035,5.161,5.161,0,0,0,9.547,0,5.254,5.254,0,0,0,.405-2.035,5.187,5.187,0,0,0-7.171-4.784Zm2.566-3.4h-1.427l.789-2.941h1.663Z" transform="translate(-5999.229 -680.504)" fill="#212e3b"/>
        <path id="Path_2452" data-name="Path 2452" d="M6092.267,721.7v1.918h-6.1V719.99l-1.107,2.067h-1.749l2.855-5.306v-7.309H6088v3.9l1.684-3.133h1.748L6088,716.581V721.7Z" transform="translate(-5996.674 -679.885)" fill="#212e3b"/>
        <path id="Path_2453" data-name="Path 2453" d="M6101.237,723.613l-6.394-10.4v10.4h-1.9V709.442h1.853l6.605,10.7v-10.7h1.876v14.171Z" transform="translate(-5994.904 -679.885)" fill="#212e3b"/>
        <path id="Path_2454" data-name="Path 2454" d="M6108.105,723.173a6.85,6.85,0,0,1-2.269-1.545,7.112,7.112,0,0,1-1.536-2.291,7.153,7.153,0,0,1-.012-5.5,7.246,7.246,0,0,1,3.816-3.825,6.854,6.854,0,0,1,2.737-.554,6.935,6.935,0,0,1,2.749.554,7.174,7.174,0,0,1,3.816,3.815,6.915,6.915,0,0,1,.553,2.749,6.992,6.992,0,0,1-.553,2.76,7.145,7.145,0,0,1-3.816,3.825,7.13,7.13,0,0,1-5.486.011Zm.746-11.379a5.159,5.159,0,0,0-3.186,4.784,5.2,5.2,0,0,0,.4,2.035,5.16,5.16,0,0,0,9.546,0,5.245,5.245,0,0,0,.405-2.035,5.187,5.187,0,0,0-7.171-4.784Z" transform="translate(-5992.917 -679.882)" fill="#212e3b"/>
        <path id="Path_2455" data-name="Path 2455" d="M6122.013,723.154a6.974,6.974,0,0,1-2.28-1.556,7.167,7.167,0,0,1-1.536-2.28,6.987,6.987,0,0,1-.555-2.77,7.145,7.145,0,0,1,4.371-6.606,7.071,7.071,0,0,1,5.773.128,7.659,7.659,0,0,1,2.558,2.024l-1.451,1.236a5.317,5.317,0,0,0-4.132-2,5.009,5.009,0,0,0-1.992.4,5.289,5.289,0,0,0-2.8,2.8,5.229,5.229,0,0,0,0,4.028,5.289,5.289,0,0,0,2.8,2.8,5.009,5.009,0,0,0,1.992.4,5.317,5.317,0,0,0,4.132-2l1.451,1.236a7.908,7.908,0,0,1-2.567,2.024,7.049,7.049,0,0,1-5.764.128Z" transform="translate(-5990.362 -679.895)" fill="#212e3b"/>
        <path id="Path_2456" data-name="Path 2456" d="M6138.73,723.613l-6.393-10.4v10.4h-1.9V709.442h1.855l6.606,10.7v-10.7h1.875v14.171Z" transform="translate(-5988.009 -679.885)" fill="#212e3b"/>
        <path id="Path_2457" data-name="Path 2457" d="M6147.375,718.392v5.221h-1.9v-5.178l-4.328-8.993h2.109l3.155,6.563,3.154-6.563h2.11Z" transform="translate(-5986.04 -679.885)" fill="#212e3b"/>
      </g>
      <g id="gdansk_port_kolor" data-name="gdansk port kolor" transform="translate(6044.974 421.277)">
        <path id="Path_2458" data-name="Path 2458" d="M6037,441.351c2.252-.83,34.834-2.963,36.972-2.963s39.235,5.1,39.709,5.688-.854,5.215-1.612,5.69-33.607-6.4-36.8-6.282-36.137,3.295-37.084,3.188S6037,441.351,6037,441.351Z" transform="translate(-6025.509 -415.194)" fill="#212e3b"/>
        <path id="Path_2459" data-name="Path 2459" d="M6052.654,419.037c.632-.4,27.021-.238,30.736,0s6.163.592,6.32.829.316,2.49,0,2.726-22.083-.632-23.7-.632-13,.118-13.353,0-.2-2.054,0-2.627S6052.654,419.037,6052.654,419.037Z" transform="translate(-6022.669 -418.796)" fill="#212e3b"/>
        <path id="Path_2460" data-name="Path 2460" d="M6027.755,620.309c1.654-2.48,111.724-4.424,112.988-2.686s4.5,30.262,1.107,32.238-110.934,3-112.357.631S6026.491,622.206,6027.755,620.309Z" transform="translate(-6027.293 -382.359)" fill="#efe8e5"/>
        <path id="Path_2461" data-name="Path 2461" d="M6040.639,446.547c.995-2.21,33.921-2.653,35.251-2.653s35.025,5.867,35.5,7.171-11.023,55.153-12.208,55.547-48.191-2.945-49.376-4.131S6039.839,448.323,6040.639,446.547Z" transform="translate(-6024.849 -414.182)" fill="#efe8e5"/>
        <path id="Path_2462" data-name="Path 2462" d="M6052.911,423.3c.712-1.244,37.688-2.625,37.926-1.164s-1.024,16.275-1.757,17.341-33.918,1.135-34.807.8S6052.911,423.3,6052.911,423.3Z" transform="translate(-6022.583 -418.298)" fill="#efe8e5"/>
        <path id="Path_2463" data-name="Path 2463" d="M6058.778,498.482c1.5-1.414,29.867-.337,30.973,1.4s3.2,136.8,1.776,137.746-28.919,2.054-30.658.79S6057.208,499.96,6058.778,498.482Z" transform="translate(-6021.61 -404.264)" fill="#212e3b"/>
      </g>
      <g id="gdansk_port" data-name="gdansk port" transform="translate(6032.15 405.305)">
        <path id="Path_2464" data-name="Path 2464" d="M6069.869,653.823c-19.88,0-41.858-.191-43.034-.778-2.157-1.078-2.144-20.353-1.56-28.2.5-6.734,1.25-6.978,1.611-7.1,1.8-.588,30.2-1.172,55.827-1.464,12.517-.143,53.447-.542,54.514.348,1.216,1.013,1.931,16.082,2.008,17.8.176,3.877.652,16.623-.562,17.835-1.169,1.17-39.341,1.461-55.7,1.532C6078.9,653.813,6074.441,653.823,6069.869,653.823Zm-42.739-35.368c-1.145.835-1.838,14.932-1.256,25.619.42,7.746,1.26,8.284,1.3,8.3,1.253.5,25.614.8,55.454.674,31.96-.135,54.288-.676,55.563-1.346,1.327-1.423.051-32.736-1.449-34.509C6134.109,616.185,6030.814,617.329,6027.13,618.454Z" transform="translate(-6014.902 -366.551)" fill="#212e3b"/>
        <path id="Path_2465" data-name="Path 2465" d="M6040.324,638.436c-1.351,0-3.174-.088-5.425-.208a35.682,35.682,0,0,0-5.124-.1.438.438,0,0,1-.442,0c-.6-.337-.9-4.489-.9-12.338l.033-.151c.794-1.789,13.134-1.7,14.4-1.138.356.157.8.639,1.032,2.974.313,3.092.115,9.857-.966,10.63A5.755,5.755,0,0,1,6040.324,638.436Zm-9.547-1.125c.87,0,2.2.064,4.163.169,2.8.149,7.036.379,7.558.011.535-.468,1.076-6.072.644-10.069-.217-2.022-.575-2.242-.58-2.245-1.429-.636-12.5-.3-13.379.714,0,4.975.2,10.379.525,11.484A6.324,6.324,0,0,1,6030.777,637.311Z" transform="translate(-6014.259 -365.067)" fill="#212e3b"/>
        <path id="Path_2466" data-name="Path 2466" d="M6054.374,638.172c-4.353,0-9.993-.427-10.067-.462-.821-.368-.236-12.18-.208-12.289.069-.258.336-.359.578-.433a56.059,56.059,0,0,1,8.149-.953c4.4-.279,6.883-.207,7.364.215,1.218,1.062-.48,12.657-.872,13.311C6059.04,638.025,6056.93,638.172,6054.374,638.172Zm-9.626-1.117c1.711.29,13.065.626,13.986.059.387-.751,1.663-11.42.957-12.309-.9-.562-13.295.208-14.887.92C6044.661,627.011,6044.552,635.708,6044.748,637.055Z" transform="translate(-6011.421 -365.116)" fill="#212e3b"/>
        <path id="Path_2467" data-name="Path 2467" d="M6070.391,638.481c-4.567,0-8.1-.13-8.309-.474-.323-.549-1.136-9.386-1.473-13.16l-.028-.32.313-.076c.349-.085,10.069-.118,16.454-.1,16.263.051,16.382.294,16.527.6h0c.459.979.472,10.6.016,11.97-.107.321-.411.609-3.046.891C6087.79,638.144,6077.754,638.481,6070.391,638.481Zm-7.687-.955c2.48.469,28.75.226,30.5-.9.409-1.477.337-9.821.037-11.217-2.351-.363-28.281-.4-31.848-.251C6061.787,629.622,6062.45,636.394,6062.7,637.526Zm30.528-.921Z" transform="translate(-6008.349 -365.028)" fill="#212e3b"/>
        <path id="Path_2468" data-name="Path 2468" d="M6099.5,638.974c-2.754,0-5.29-.162-5.743-.456-.98-.635-3.222-11.345-2.789-13.325.111-.507.371-.648.568-.677l.054.371-.054-.371c.146-.02,14.891-1.663,15.724.219.6,1.35,1.226,12.4-.108,13.468C6106.491,638.736,6102.835,638.974,6099.5,638.974Zm-7.774-13.728c-.385.966,1.313,11.416,2.466,12.667.947.474,11.562.457,12.493-.292.835-.721.544-11.108-.108-12.582C6105.875,624.123,6094.968,624.79,6091.728,625.245Z" transform="translate(-6002.771 -365.123)" fill="#212e3b"/>
        <path id="Path_2469" data-name="Path 2469" d="M6110.52,638.521c-.235,0-.43,0-.576-.007-1.616-.044-1.828-.2-1.951-.4-.445-.751-.959-11.377-.221-13.124a.7.7,0,0,1,.455-.455h0c.093-.023,9.9-1.7,12.021.077s.747,11.655.071,12.669S6112.95,638.521,6110.52,638.521Zm-1.9-.859c1.3.376,10.34-.089,11.087-.815.64-.964,1.721-10.276.061-11.666-1.62-1.353-10.029-.212-11.3.06C6107.844,626.275,6108.285,636.276,6108.622,637.661Zm-.081-.028" transform="translate(-5999.74 -365.131)" fill="#212e3b"/>
        <path id="Path_2470" data-name="Path 2470" d="M6088.848,638.654c-.963-47.536-2.977-137.747-3.74-141.281-1.657-1-24.485-1.853-28.67-1.1l2.029,142.366-.747.011-2.037-142.964.282-.073c2.413-.635,28.554-.268,29.761,1.314.973,1.275,3.395,118.27,3.87,141.71Z" transform="translate(-6009.25 -388.753)" fill="#212e3b"/>
        <path id="Path_2471" data-name="Path 2471" d="M6087.616,507.516l-.032-.747c5.2-.231,7.6-.753,8.264-1.8,1.206-1.886,8.813-54.476,8.359-57.681-1.793-1.088-28.078-5.531-29.534-5.531-2.265,0-28.325,1.5-30,2.706-.793,3.766,6.363,57.632,7.909,59.428,1.482,1.2,1.9,1.433,6.147,1.608l-.03.747c-4.288-.178-4.929-.432-6.6-1.788-1.711-1.387-9.158-56.576-8.131-60.257.528-1.9,30.4-3.192,30.7-3.192.263,0,29.22,4.414,30.177,5.864.825,1.251-7.079,56.47-8.374,58.5C6095.639,506.683,6093.238,507.265,6087.616,507.516Zm-42.972-63.028Z" transform="translate(-6011.42 -398.74)" fill="#212e3b"/>
        <path id="Path_2472" data-name="Path 2472" d="M6112.362,448.178c-.9,0-1.981-.044-2.29-.057l.032-.747a31.976,31.976,0,0,0,3.242.027c.279-.527.513-3.43-.113-4.183-1.4-.885-33-4.937-37.168-5.4-2.705-.284-37.964,2.748-39.223,3.1a3.979,3.979,0,0,0,.018,1.038,7.749,7.749,0,0,0,1.009,3.108c.586.273,5.935-.117,7.839-.408l.113.739c-.822.125-7.492.837-8.35.3-.7-.431-1.5-3.336-1.388-4.588.04-.476.208-.777.5-.893.895-.358,36.537-3.489,39.567-3.146.362.04,36.672,4.481,37.656,5.664.8.955.6,3.786.31,4.726-.08.257-.21.561-.5.641A6.709,6.709,0,0,1,6112.362,448.178Z" transform="translate(-6012.854 -399.468)" fill="#212e3b"/>
        <path id="Path_2473" data-name="Path 2473" d="M6089.7,442.819l-.747-.047c.539-8.442,1.128-22.219.419-23.245-1.617-.983-33.548-1.566-35.78-.641-.36,1.352.351,14.9.9,23.263l-.747.049c-.244-3.764-1.434-22.592-.78-23.737.129-.226.427-.336,1.177-.437,4.42-.593,34.452-.336,35.773.986C6091.048,420.148,6090.036,437.521,6089.7,442.819Z" transform="translate(-6009.785 -403.022)" fill="#212e3b"/>
        <path id="Path_2474" data-name="Path 2474" d="M6090.507,420.558l-.729-.163a38.487,38.487,0,0,0,.833-4.681c-2.859-.509-35.175-1.594-37.685-1.257a26.087,26.087,0,0,0,.684,5.175l-.734.149c-.715-3.513-.87-5.5-.462-5.909.127-.128.468-.466,18.619.112,8.337.266,18.548.7,19.889,1.035a.5.5,0,0,1,.4.313C6091.5,415.95,6090.813,419.193,6090.507,420.558Z" transform="translate(-6009.891 -403.769)" fill="#212e3b"/>
        <rect id="Rectangle_360" data-name="Rectangle 360" width="0.747" height="4.817" transform="translate(45.379 10.298) rotate(-6.352)" fill="#212e3b"/>
        <rect id="Rectangle_361" data-name="Rectangle 361" width="0.747" height="4.743" transform="translate(49.525 10.302)" fill="#212e3b"/>
        <rect id="Rectangle_362" data-name="Rectangle 362" width="4.555" height="0.748" transform="matrix(0.17, -0.985, 0.985, 0.17, 58.952, 14.981)" fill="#212e3b"/>
        <rect id="Rectangle_363" data-name="Rectangle 363" width="4.487" height="0.747" transform="translate(62.718 15.112) rotate(-85.826)" fill="#212e3b"/>
        <rect id="Rectangle_364" data-name="Rectangle 364" width="0.747" height="4.453" transform="translate(65.942 10.768)" fill="#212e3b"/>
        <rect id="Rectangle_365" data-name="Rectangle 365" width="4.28" height="0.747" transform="matrix(0.085, -0.996, 0.996, 0.085, 72.695, 15.3)" fill="#212e3b"/>
        <rect id="Rectangle_366" data-name="Rectangle 366" width="4.493" height="0.747" transform="matrix(0.082, -0.997, 0.997, 0.082, 76.532, 15.722)" fill="#212e3b"/>
        <path id="Path_2475" data-name="Path 2475" d="M6069.288,409.291h-11.3l-.053-.309c-.152-.877-.449-2.977.1-3.529.466-.466,11.049.314,11.121.356.174.1.636.366.183,3.168Zm-10.67-.747h10.031a7.933,7.933,0,0,0,.1-2.077c-1.2-.163-9.06-.475-10.218-.41A7.853,7.853,0,0,0,6058.617,408.544Z" transform="translate(-6008.875 -405.305)" fill="#212e3b"/>
        <rect id="Rectangle_367" data-name="Rectangle 367" width="0.747" height="3.167" transform="translate(53.08 0.446)" fill="#212e3b"/>
        <rect id="Rectangle_368" data-name="Rectangle 368" width="0.747" height="3.064" transform="translate(55.51 0.547)" fill="#212e3b"/>
        <path id="Path_2476" data-name="Path 2476" d="M6108.937,458.669l-5.016-1.893c-1.2-.058-19.946-.974-28.074-1.43-8.333-.464-29.559,1.414-29.773,1.432l-4.945,1.644-.234-.71,5.029-1.661c.3-.037,21.584-1.918,29.965-1.451,8.354.469,27.932,1.423,28.128,1.432l.113.024,5.071,1.913Z" transform="translate(-6011.969 -396.255)" fill="#212e3b"/>
        <path id="Path_2477" data-name="Path 2477" d="M6043.187,469.9l-.155-.73,4.27-.9c.266-.025,22.026-1.773,27.688-1.773,5.81,0,26.583,1.006,26.792,1.016l4.3.407-.07.744-4.285-.4c-.191-.009-20.947-1.015-26.739-1.015-5.634,0-27.363,1.747-27.582,1.764Z" transform="translate(-6011.575 -394.055)" fill="#212e3b"/>
        <rect id="Rectangle_369" data-name="Rectangle 369" width="0.747" height="14.32" transform="translate(43.955 59.341)" fill="#212e3b"/>
        <rect id="Rectangle_370" data-name="Rectangle 370" width="0.747" height="14.363" transform="translate(53.08 58.718)" fill="#212e3b"/>
        <rect id="Rectangle_371" data-name="Rectangle 371" width="0.748" height="14.203" transform="translate(70.39 58.924) rotate(-3.327)" fill="#212e3b"/>
        <path id="Path_2478" data-name="Path 2478" d="M6084.679,469.206l-.747-.039c.164-3.129.713-13.375.855-13.832l.713.224-.356-.112.361.1C6085.4,456.035,6084.954,463.983,6084.679,469.206Z" transform="translate(-6004.055 -396.106)" fill="#212e3b"/>
        <path id="Path_2479" data-name="Path 2479" d="M6102.5,480.661l-3.313-.846c-1.125.015-20.408.289-24.8.091-4.479-.206-25.423,0-25.635,0l-3.369.286-.062-.745,3.4-.288c.236,0,21.205-.206,25.7,0,4.474.2,24.6-.09,24.8-.092h.05l3.409.871Z" transform="translate(-6011.154 -391.742)" fill="#212e3b"/>
        <path id="Path_2480" data-name="Path 2480" d="M6100.307,488.726H6097.5c-.231-.014-20.664-1.48-23.367-1.331-2.742.143-23.435.007-24.314,0l-2.7.651-.171-.727,2.791-.661c.189,0,9.606.053,16.74.053,3.646,0,6.7-.015,7.618-.063,2.754-.147,22.59,1.27,23.434,1.331h2.783Z" transform="translate(-6010.857 -390.35)" fill="#212e3b"/>
        <path id="Path_2481" data-name="Path 2481" d="M6101.953,482.63l-3.274-.517h-.011c-.524,0-20.83-.155-24.5-.046-3.72.112-24.916,0-25.131,0l-3.135.436-.1-.74,3.188-.438c.121,0,9.554.045,16.941.045,3.742,0,6.968-.012,8.215-.049,3.723-.11,24.385.049,24.594.05l3.33.522Z" transform="translate(-6011.066 -391.335)" fill="#212e3b"/>
        <rect id="Rectangle_372" data-name="Rectangle 372" width="0.748" height="8.896" transform="matrix(0.999, -0.053, 0.053, 0.999, 44.429, 87.8)" fill="#212e3b"/>
        <rect id="Rectangle_373" data-name="Rectangle 373" width="0.746" height="8.903" transform="matrix(0.998, -0.067, 0.067, 0.998, 53.081, 87.805)" fill="#212e3b"/>
        <path id="Path_2482" data-name="Path 2482" d="M6070.1,505.209l-.747-.018.257-10.095v-8.874l.163-14.985.932-28.554.747.023-.932,28.548-.163,14.972v8.88Z" transform="translate(-6006.735 -398.432)" fill="#212e3b"/>
        <rect id="Rectangle_374" data-name="Rectangle 374" width="0.747" height="9.131" transform="translate(70.801 87.862)" fill="#212e3b"/>
        <rect id="Rectangle_375" data-name="Rectangle 375" width="9.688" height="0.747" transform="translate(79.171 97.497) rotate(-85.826)" fill="#212e3b"/>
        <path id="Path_2483" data-name="Path 2483" d="M6062.883,443.165l-1.585-23.291V408.039h3.146l.622,7.181v4.626h-.747v-4.594l-.561-6.467h-1.714v11.063l1.583,23.265Z" transform="translate(-6008.217 -404.802)" fill="#212e3b"/>
        <path id="Path_2484" data-name="Path 2484" d="M6074.917,442.193l-.747-.028.877-23.233.3-4.435.744.051-.3,4.424Z" transform="translate(-6005.85 -403.615)" fill="#212e3b"/>
        <path id="Path_2485" data-name="Path 2485" d="M6089.643,430.607c-1.9-.459-24.563-.891-36.286-1.056l.012-.747c1.386.019,34,.483,36.449,1.077Z" transform="translate(-6009.677 -400.984)" fill="#212e3b"/>
        <path id="Path_2486" data-name="Path 2486" d="M6089.695,422.019c-1.188-.284-26.834-.688-36.616-.819l.009-.747c1.44.019,35.268.478,36.779.839Z" transform="translate(-6009.728 -402.52)" fill="#212e3b"/>
        <rect id="Rectangle_376" data-name="Rectangle 376" width="14.105" height="0.747" transform="translate(14.885 262.023)" fill="#212e3b"/>
        <rect id="Rectangle_377" data-name="Rectangle 377" width="15.903" height="0.747" transform="matrix(1, -0.019, 0.019, 1, 32.933, 261.787)" fill="#212e3b"/>
        <rect id="Rectangle_378" data-name="Rectangle 378" width="0.747" height="32.59" transform="translate(52.832 262.386) rotate(-89.324)" fill="#212e3b"/>
        <rect id="Rectangle_379" data-name="Rectangle 379" width="16.032" height="0.747" transform="translate(88.489 262.019) rotate(-2.128)" fill="#212e3b"/>
        <rect id="Rectangle_380" data-name="Rectangle 380" width="13.064" height="0.747" transform="translate(108.037 261.42)" fill="#212e3b"/>
        <rect id="Rectangle_381" data-name="Rectangle 381" width="0.747" height="13.408" transform="matrix(1, -0.003, 0.003, 1, 21.564, 259.449)" fill="#212e3b"/>
        <rect id="Rectangle_382" data-name="Rectangle 382" width="13.329" height="0.747" transform="translate(40.473 272.657) rotate(-89.823)" fill="#212e3b"/>
        <rect id="Rectangle_383" data-name="Rectangle 383" width="0.746" height="13.195" transform="translate(68.758 259.72) rotate(-4.024)" fill="#212e3b"/>
        <rect id="Rectangle_384" data-name="Rectangle 384" width="0.748" height="13.111" transform="matrix(0.999, -0.054, 0.054, 0.999, 77.154, 259.785)" fill="#212e3b"/>
        <rect id="Rectangle_385" data-name="Rectangle 385" width="0.748" height="13.157" transform="matrix(0.995, -0.099, 0.099, 0.995, 59.965, 259.801)" fill="#212e3b"/>
        <rect id="Rectangle_386" data-name="Rectangle 386" width="0.748" height="14.116" transform="translate(96.14 259.453) rotate(-5.673)" fill="#212e3b"/>
        <rect id="Rectangle_387" data-name="Rectangle 387" width="0.748" height="13.836" transform="matrix(0.999, -0.044, 0.044, 0.999, 114.28, 259.051)" fill="#212e3b"/>
        <path id="Path_2487" data-name="Path 2487" d="M6054.787,504.967c-.368-.1-3.616-1.034-4.384-1.756-1.533-1.44-10.452-49.336-12.223-58.923l.734-.136c4.2,22.739,10.87,57.088,12.011,58.525a16.932,16.932,0,0,0,4.065,1.571Z" transform="translate(-6012.468 -398.162)" fill="#212e3b"/>
        <path id="Path_2488" data-name="Path 2488" d="M6086.176,505.57l-.095-.741c1.566-.2,4.241-.7,4.752-1.177.649-1.219,7.292-34.092,11.587-55.877l.733.144c-3.288,16.674-11.018,55.534-11.811,56.278C6090.508,504.982,6086.892,505.479,6086.176,505.57Z" transform="translate(-6003.66 -397.496)" fill="#212e3b"/>
        <path id="Path_2489" data-name="Path 2489" d="M6109.374,457.5l-.173-.727,18.684-4.484.174.727Z" transform="translate(-5999.409 -396.667)" fill="#212e3b"/>
        <path id="Path_2490" data-name="Path 2490" d="M6127.516,464.437c-6.946-.348-14.718-.5-15.44-.085l-.5-.552c.78-.781,11.435-.336,15.976-.11Z" transform="translate(-5998.972 -394.631)" fill="#212e3b"/>
        <rect id="Rectangle_388" data-name="Rectangle 388" width="0.747" height="7.695" transform="translate(112.687 80.222) rotate(-60.947)" fill="#212e3b"/>
        <path id="Path_2491" data-name="Path 2491" d="M6032.238,457.156c-3.743,0-11.717-2.163-12.055-2.255l.2-.721c.083.022,8.215,2.229,11.858,2.229Z" transform="translate(-6015.777 -396.318)" fill="#212e3b"/>
        <path id="Path_2492" data-name="Path 2492" d="M6016.5,464.437l-.042-.746c.55-.032,13.543-.742,16.552.011l-.18.725C6029.929,463.7,6016.636,464.43,6016.5,464.437Z" transform="translate(-6016.461 -394.631)" fill="#212e3b"/>
        <path id="Path_2493" data-name="Path 2493" d="M6020.395,476.308l-.222-.713,11.957-3.737.222.713Z" transform="translate(-6015.778 -393.067)" fill="#212e3b"/>
      </g>
    </g>
  </g>
</svg>
