<?xml version="1.0" encoding="utf-8"?>
<!-- Generator: Adobe Illustrator 24.0.3, SVG Export Plug-In . SVG Version: 6.00 Build 0)  -->
<svg version="1.1" id="Layer_1" xmlns="http://www.w3.org/2000/svg" xmlns:xlink="http://www.w3.org/1999/xlink" x="0px" y="0px"
	 viewBox="0 0 106 149.9" style="enable-background:new 0 0 106 149.9;" xml:space="preserve">
<style type="text/css">
	.st0{fill:#EACEBE;}
	.st1{fill:#2E3D4B;}
	.st2{fill:#B04527;}
	.st3{fill:#F2EDEB;}
</style>
<title>Artboard 26</title>
<path class="st0" d="M106,72.3c-2.4-0.5-4,2.4-4.1,4.8s0.3,5.2-1.2,7c-0.6,0.7-1.5,1.3-1.9,2.2c-0.3,0.7-0.2,1.5-0.2,2.3l0.9,9
	c0,0.4,0.1,0.8-0.2,1c-0.2,0.1-0.4,0.2-0.6,0.2c-4,0.6-8,0.8-12,0.5c-0.9-0.1-2.1-0.3-2.3-1.2c-0.1-0.5,0.2-5.6,0.4-6.1
	c0.9-2.7,1.6-0.8,2.5-3.5c0.3-0.9,0.6-1.9,0.3-2.8c-0.3-0.7-0.9-1.2-1.1-1.9c-0.5-1.6,1.2-3.3,0.7-5c-0.2-0.8-0.8-1.4-1-2.1
	c-0.3-1.9,2.4-3.5,1.8-5.3c-0.4-1.3-2.3-1.6-2.9-2.9c-0.6-1.1,0-2.4,0.1-3.6c0.2-1.9-0.7-3.6-1.6-5.3c-0.6-1.2-1.3-2.5-2.5-3.1
	c-1.2-0.6-3.1-0.1-3.2,1.3c-0.1,0.7,0.3,1.5,0.1,2.2c-0.2,0.7-1,1.1-1.3,1.7c-0.8,1.6,1.4,3.7,0.5,5.3c-0.6,1.1-2.3,1.4-2.4,2.6
	c-0.1,0.5,0.2,1,0.3,1.5c0.5,1.6-0.7,3.6-2.4,3.9c-1.7,0.8,0.5,3.2-0.1,4.8c-1.3,3.3-2,4.3,0.3,6.6c0.4,0.4,1.5,0.6,2.1,2.4
	c0.7,1.8-2.5,2.7-4.4,2.8c-2,0-4.1,0-6.1-0.2c-0.8-0.1-1.7-0.2-2.4-0.6c-1.1-0.6-1.8,7-2.5,6c-5-8.3-10.1-16.8-12.7-26.1
	c-1.1-3.8-1.9-7.9-4.4-10.9c-1.5-0.1-2.7,1.1-3.4,2.4c-0.7,1.3-1.2,2.7-2.4,3.6c-0.7,0.5-1.5,0.9-1.9,1.6c-0.5,1.1,0.5,2.3,0.7,3.5
	c0.4,2.1-1.7,4-1.9,6.1c-0.1,1.8,1.1,3.5,0.5,5.2c-0.4,1.1-1.5,1.9-1.6,3.1c-0.2,2,3.4,1.1,2.7,3c-0.3,0.9-1.4,1.4-1.8,2.3
	c-1,2.2,2.5,1.4,2.6,3.8c0.1,2.5-3.1,3.6-5.5,3.7c-2.7,0.1-2.9-1.8-5.6-2.4c-0.6-0.1-2.9-0.2-3.3-0.6s-1.2-1.6-1.3-2.2
	c-0.6-3.1,2.8-0.8,3.1-5.1c0.7-2.6-2.6-1.1-2.6-3c0-0.9,2.5-1.9,2.2-5c-0.3-2.4-3.3-5.3-3.3-6.1c-0.1-6.3,2.6-2,2.5-8.4
	c0-0.8-1.6-0.2-2.7-2.6c-0.7-1.6,0.3-3.1,0-4c-0.6-2-2.2-1.1-4.1-2.2c-1.7-1-3-3-4-2.1c-1.5,1.3,0.5,4.1-0.7,5.6
	c-0.4,0.5-1.1,0.7-1.5,1.1c-1,1.1-0.3,2.9-0.8,4.3c-0.4,1.3-1.9,2.2-1.8,3.6c0.1,1.2,1.2,1.9,1.6,3C8.6,73,8.4,74,8.1,74.9
	c-0.8,2.8-3.9,1.2-2.8,3.8c1.3,2.9-1.2,5.2-1.2,5.8c-0.1,2.3,3.8,3.6,3.2,5.8c-0.1,0.4-0.4,0.7-0.4,1.1c-0.3,1.6-0.3,2.6,0.3,4.1
	c0.8,1.7-4.1,2-7,1.6l0,52.6h105.6L106,72.3z"/>
<path class="st1" d="M29.5,130.2v1.8h-0.4v-4.3h0.4v1.8l1.6-1.8h0.6l-1.9,2.2l1.9,2.1h-0.6L29.5,130.2z"/>
<path class="st1" d="M33.5,130.4l1.4,1.5h-0.6l-1.4-1.5h0v1.5h-0.4v-4.3h1.1c0.2,0,0.5,0.1,0.7,0.2c0.4,0.2,0.7,0.7,0.7,1.2
	c0,0.2-0.1,0.5-0.2,0.7c-0.1,0.2-0.3,0.4-0.5,0.5C34,130.4,33.8,130.4,33.5,130.4L33.5,130.4z M32.9,128.1v1.9h0.6
	c0.2,0,0.3,0,0.5-0.1c0.1-0.1,0.3-0.2,0.3-0.3c0.1-0.1,0.1-0.3,0.1-0.5c0-0.2,0-0.3-0.1-0.5c-0.1-0.1-0.2-0.3-0.3-0.3
	c-0.1-0.1-0.3-0.1-0.5-0.1L32.9,128.1z"/>
<path class="st1" d="M36.9,130.4v1.6h-0.4v-1.6l-1.3-2.7h0.5l1.1,2.2l1.1-2.2h0.5L36.9,130.4z"/>
<path class="st1" d="M42.1,127.7v4.3h-0.5l-2.2-3.5v3.5H39v-4.3h0.5l2.2,3.6v-3.6H42.1z"/>
<path class="st1" d="M43.4,127.7v4.3h-0.4v-4.3H43.4z"/>
<path class="st1" d="M45.2,131.7c-0.3-0.2-0.6-0.5-0.8-0.8c-0.4-0.7-0.4-1.5,0-2.2c0.2-0.3,0.5-0.6,0.8-0.8c0.3-0.2,0.7-0.3,1.1-0.3
	c0.3,0,0.6,0.1,0.9,0.2c0.3,0.1,0.5,0.3,0.7,0.6l-0.3,0.3c-0.3-0.4-0.8-0.6-1.3-0.6c-0.3,0-0.6,0.1-0.9,0.2
	c-0.3,0.2-0.5,0.4-0.6,0.6c-0.2,0.3-0.2,0.6-0.2,0.9c0,0.3,0.1,0.6,0.2,0.9c0.2,0.3,0.4,0.5,0.6,0.6c0.3,0.2,0.6,0.2,0.9,0.2
	c0.5,0,1-0.2,1.3-0.6l0.3,0.3c-0.2,0.2-0.5,0.4-0.7,0.6c-0.3,0.1-0.6,0.2-0.9,0.2C45.9,132,45.5,131.9,45.2,131.7z"/>
<path class="st1" d="M51,130.4h-1.5l-0.6,1.6h-0.5l1.5-4.3h0.6L52,132h-0.5L51,130.4z M50.9,130l-0.6-1.8l-0.6,1.8H50.9z"/>
<path class="st1" d="M60,127.7v4.3h-0.4v-3.6l-1.4,2.1h-0.4l-1.4-2.1v3.7h-0.4v-4.3h0.5l1.5,2.2l1.5-2.2L60,127.7z"/>
<path class="st1" d="M61.8,131.7c-0.3-0.2-0.6-0.5-0.8-0.8c-0.4-0.7-0.4-1.5,0-2.2c0.2-0.3,0.5-0.6,0.8-0.8c0.7-0.4,1.5-0.4,2.1,0
	c0.3,0.2,0.6,0.5,0.8,0.8c0.4,0.7,0.4,1.5,0,2.1c-0.2,0.3-0.5,0.6-0.8,0.8C63.3,132.1,62.4,132.1,61.8,131.7z M63.7,131.3
	c0.3-0.1,0.5-0.4,0.6-0.6c0.3-0.5,0.3-1.2,0-1.7c-0.3-0.5-0.9-0.9-1.5-0.8c-0.9,0-1.7,0.8-1.7,1.7c0,0.9,0.8,1.7,1.7,1.7
	C63.2,131.6,63.5,131.5,63.7,131.3z"/>
<path class="st1" d="M66.8,130.4l1.4,1.5h-0.6l-1.4-1.5h0v1.5h-0.4v-4.3h1.1c0.2,0,0.5,0.1,0.7,0.2c0.4,0.2,0.7,0.7,0.7,1.2
	c0,0.2-0.1,0.5-0.2,0.7c-0.1,0.2-0.3,0.4-0.5,0.5C67.3,130.4,67.1,130.4,66.8,130.4L66.8,130.4z M66.2,128.1v1.9h0.7
	c0.2,0,0.3,0,0.5-0.1c0.1-0.1,0.3-0.2,0.3-0.3c0.1-0.1,0.1-0.3,0.1-0.5c0-0.2,0-0.3-0.1-0.5c-0.1-0.1-0.2-0.3-0.3-0.3
	c-0.1-0.1-0.3-0.1-0.5-0.1L66.2,128.1z"/>
<path class="st1" d="M71.4,128.9c0-0.2-0.1-0.3-0.2-0.4c-0.2-0.3-0.4-0.4-0.8-0.4c-0.3,0-0.6,0.1-0.7,0.2c-0.1,0.2-0.2,0.4-0.2,0.6
	c0,0.3,0.1,0.4,0.2,0.5c0.2,0.1,0.4,0.2,0.6,0.2c0.2,0,0.4,0.1,0.6,0.1c0.2,0,0.3,0.1,0.4,0.2c0.3,0.2,0.5,0.5,0.5,0.9
	c0,0.2,0,0.3-0.1,0.5c-0.1,0.1-0.2,0.3-0.3,0.4c-0.3,0.3-0.6,0.4-1.1,0.4s-0.8-0.1-1.1-0.4c-0.2-0.2-0.4-0.5-0.4-0.8h0.4
	c0,0.2,0.1,0.4,0.3,0.5c0.4,0.3,1,0.3,1.5,0c0.3-0.2,0.4-0.6,0.2-0.9c-0.1-0.1-0.2-0.2-0.3-0.2c-0.2-0.1-0.5-0.1-0.7-0.1
	c-0.8-0.1-1.2-0.5-1.2-1.2c0-0.2,0-0.3,0.1-0.5c0.1-0.1,0.1-0.3,0.3-0.4c0.2-0.2,0.6-0.4,1-0.4l0,0c0.4,0,0.8,0.1,1,0.4
	c0.2,0.2,0.4,0.6,0.4,0.9L71.4,128.9L71.4,128.9z"/>
<path class="st1" d="M73,130.2v1.8h-0.4v-4.3H73v1.8l1.6-1.8h0.6l-1.9,2.2l1.9,2.1h-0.6L73,130.2z"/>
<path class="st1" d="M78,130.4h-1.5L76,132h-0.5l1.5-4.3h0.6l1.5,4.3h-0.5L78,130.4z M77.9,130l-0.6-1.8l-0.6,1.8H77.9z"/>
<g id="krynica_kolor">
	<path class="st2" d="M47.2,44.3c0.1-1.2,12.2-1.1,12.9,0c0.7,1.1,3.2,63,2.7,64.4c-0.5,1.4-16.4,2.6-17.4,2.1S46.4,54.3,47.2,44.3z
		"/>
	<path class="st3" d="M46.7,106.1c0.1-0.2,0.7-0.3,1-0.1s0.1,2.8,0,3c-0.1,0.2-0.7,0.4-0.8,0.1C46.9,109,46.6,106.3,46.7,106.1z"/>
	<path class="st3" d="M56.4,83.5c0.1-0.2,0.9-0.3,1.1-0.2c0.2,0.1,0.2,3,0,3.2s-0.6,0-0.8,0S56.4,83.5,56.4,83.5z"/>
	<path class="st3" d="M51.4,47.5c0.1-0.2,0.9-0.1,1.2,0c0.2,0.1-0.1,3.2-0.2,3.5s-0.8,0.3-1,0.2C51.2,51.1,51.4,47.5,51.4,47.5z"/>
	<path class="st3" d="M55.6,111.7c0,0,0.2-5.4-0.2-5.7c-0.5-0.2-3.2-0.4-3.6,0c-0.2,0.2,0,5.9,0,5.9C51.9,112,55.6,111.7,55.6,111.7
		z"/>
	<path class="st3" d="M52.8,28.6c0.6,0,6.5,5.7,6.3,6.3c0,0.1-0.3,0.2-0.8,0.2c-2.7,0.4-11,0.5-11.3,0.2
		C46.6,35,51.9,28.6,52.8,28.6z"/>
</g>
<g id="krynica">
	<path class="st1" d="M48,112.2c-1.9,0-3.7-0.1-4.1-0.5c-0.1-0.1-0.4-0.4-0.3-10.9c0-6.1,0.2-14.2,0.5-22.8
		c0.5-16.3,1.3-33.3,2.1-34.6l0,0c0.3-0.6,5.2-0.6,6.2-0.6c2.7,0,6.1,0.1,6.9,0.6c0.1,0.1,0.2,0.2,0.3,0.8
		c0.7,3.8,1.4,20.9,1.8,35.6c0.3,10.4,0.7,30.3,0.2,30.9c-0.5,0.6-6.5,1.2-10.3,1.4C50.4,112.1,49.2,112.2,48,112.2z M46.3,43.6
		c-0.6,1-1.4,15.1-2,34.3c-0.6,18.5-0.7,33-0.2,33.6c0.4,0.4,3.1,0.5,7.1,0.3c4.9-0.2,9.7-0.8,10.1-1.3c0.3-0.6,0.2-16-0.3-33.5
		c-0.6-19.5-1.3-32.9-1.9-33.4c-0.6-0.3-3.3-0.6-6.8-0.5C48.8,43.1,46.5,43.4,46.3,43.6z"/>
	<path class="st1" d="M51.1,112c-0.1-2.3-0.2-6.1,0-6.4c0.5-0.5,3.3-0.3,3.7,0c0.1,0.1,0.4,0.2,0.4,3.2c0,1.5-0.1,2.9-0.1,2.9
		l-0.3,0c0.1-2.7,0.1-5.7-0.2-5.9c-0.5-0.2-3.1-0.4-3.4,0c-0.1,0.3-0.1,4,0,6.2L51.1,112z"/>
	<path class="st1" d="M46.9,109.5c-0.2,0-0.3-0.1-0.4-0.2c-0.1-0.1-0.2-1.4-0.2-1.6c-0.1-1.6,0-1.7,0-1.8l0,0
		c0.2-0.2,0.8-0.3,1.1-0.2c0.1,0,0.3,0.1,0.2,1.7c0,0.7-0.1,1.6-0.1,1.7C47.5,109.3,47.2,109.4,46.9,109.5L46.9,109.5z M46.8,109.1
		c0.1,0.1,0.1,0.1,0.2,0.1c0.2,0,0.4-0.1,0.4-0.2c0.1-0.2,0.2-2.8,0.1-3.1c-0.2-0.1-0.7,0-0.8,0.1C46.5,106.3,46.7,108.8,46.8,109.1
		L46.8,109.1z"/>
	<path class="st1" d="M56.7,87.1c-0.1,0-0.3,0-0.4-0.1c0,0-0.1,0-0.1,0c-0.1,0-0.3-0.1-0.4-3.7v0l0,0c0.1-0.1,0.2-0.2,0.4-0.3
		c0.3-0.1,0.7-0.1,0.9,0c0.1,0,0.1,0.1,0.1,0.4c0.1,0.7,0.1,3.3-0.1,3.5C57,87.1,56.9,87.1,56.7,87.1z M56.3,86.8L56.3,86.8
		c0.3,0.1,0.5,0.1,0.6,0c0.1-0.3,0.2-3.2,0-3.6c-0.2-0.1-0.5,0-0.7,0c-0.1,0-0.1,0.1-0.2,0.1C56.1,84.9,56.2,86.5,56.3,86.8z"/>
	<path class="st1" d="M51.5,51.4c-0.1,0-0.2,0-0.3-0.1c-0.1,0-0.3-0.2-0.1-4.1v0l0,0c0.2-0.4,1.4-0.1,1.4-0.1c0.1,0,0.3,0.1,0.1,2
		c-0.1,0.9-0.2,1.8-0.2,2c-0.1,0.1-0.2,0.2-0.3,0.3C51.9,51.4,51.7,51.4,51.5,51.4z M51.3,51.2c0.2,0,0.5,0,0.7-0.1
		c0.1,0,0.2-0.1,0.2-0.1c0.1-0.3,0.4-3.3,0.2-3.7c-0.3-0.1-1-0.1-1.1-0.1C51.2,49,51.2,50.9,51.3,51.2L51.3,51.2z"/>
	<path class="st1" d="M50.3,36c-2.5,0-4.6-0.1-4.8-0.3c-0.1-0.1,0-0.3,0-0.3c0.5-1.1,5.8-6.5,6.6-6.5c0.4,0,2.2,1.7,2.9,2.4
		c1.1,1.1,2.7,2.7,3.2,3.5c0.2,0.3,0.3,0.5,0.2,0.6c0,0.1-0.1,0.2-0.9,0.3C56.3,35.8,53.1,36,50.3,36z M45.7,35.5
		c0.7,0.3,9.2,0.3,11.9-0.1c0.5-0.1,0.7-0.1,0.7-0.2c0-0.2-1-1.4-2.8-3.3c-1.7-1.7-3.1-2.8-3.3-2.9c-0.3,0-1.5,1-3.4,2.9
		C46.9,33.8,45.8,35.2,45.7,35.5L45.7,35.5z M45.7,35.5l12.6-0.3L45.7,35.5z"/>
	<rect x="57.7" y="35.5" class="st1" width="0.3" height="7.7"/>
	<path class="st1" d="M47.3,27.5l-0.1-0.2c0.2-0.1,9.2-3.1,10.2-3.4l0.1,0.2C54,25.3,47.5,27.5,47.3,27.5z"/>
	
		<rect x="50.6" y="27.2" transform="matrix(5.477590e-02 -0.9985 0.9985 5.477590e-02 22.0594 78.0083)" class="st1" width="3.3" height="0.3"/>
	
		<rect x="31.7" y="29.6" transform="matrix(1.396223e-02 -0.9999 0.9999 1.396223e-02 13.1719 72.8523)" class="st1" width="23.6" height="0.2"/>
	<rect x="45" y="30.1" transform="matrix(0.7147 -0.6994 0.6994 0.7147 -9.7737 40.7866)" class="st1" width="0.3" height="4.5"/>
	
		<rect x="43.5" y="39.5" transform="matrix(2.268739e-02 -0.9997 0.9997 2.268739e-02 6.473 85.8707)" class="st1" width="7.4" height="0.2"/>
	<rect x="62.3" y="24.8" class="st1" width="0.3" height="25.3"/>
	<rect x="57.7" y="33.3" transform="matrix(0.9235 -0.3835 0.3835 0.9235 -8.2187 25.612)" class="st1" width="4.9" height="0.3"/>
	
		<rect x="59.5" y="46.7" transform="matrix(0.8252 -0.5648 0.5648 0.8252 -15.7483 42.6985)" class="st1" width="3.1" height="0.3"/>
	
		<rect x="47.6" y="38.1" transform="matrix(3.123633e-02 -0.9995 0.9995 3.123633e-02 10.104 86.8212)" class="st1" width="4.5" height="0.3"/>
	<rect x="53.9" y="35.8" class="st1" width="0.3" height="7.2"/>
	<path class="st1" d="M49.3,43.1c-0.4,0-0.7-0.1-0.9-0.3c-0.2-0.2-0.4-0.6-0.4-1c0-0.9,0-1.3,0.8-1.5l0,0c0.4-0.1,0.9-0.1,1.3,0.2
		c0.4,0.3,0.6,0.7,0.6,1.2c0,0.1,0,0.1,0,0.2c0,0.8,0,1.1-1.1,1.2C49.5,43.1,49.4,43.1,49.3,43.1z M48.9,40.5
		c-0.6,0.2-0.6,0.3-0.6,1.3c0,0.4,0.1,0.7,0.3,0.9c0.2,0.2,0.5,0.3,1,0.2c0.9-0.1,0.9-0.2,0.9-0.9c0-0.1,0-0.1,0-0.2
		c0-0.4-0.2-0.8-0.5-1C49.6,40.5,49.3,40.4,48.9,40.5L48.9,40.5z"/>
	
		<rect x="44.8" y="39.1" transform="matrix(0.5935 -0.8048 0.8048 0.5935 -15.0331 52.9255)" class="st1" width="0.2" height="4.6"/>
	<path class="st1" d="M55.8,43.1c-0.2,0-0.4-0.1-0.6-0.2c-0.3-0.3-0.5-0.6-0.5-1c0,0,0-0.1,0-0.1c-0.1-0.5,0-0.9,1.1-1.1l0,0
		c0.3-0.1,0.6,0,0.9,0.2c0.4,0.3,0.4,0.8,0.4,0.9c0,0.4-0.1,1.1-1.1,1.3C56,43.1,55.9,43.1,55.8,43.1z M55.9,40.9
		c-1,0.2-1,0.5-0.9,0.8c0,0.1,0,0.1,0,0.2c0,0.3,0.2,0.6,0.4,0.9c0.2,0.1,0.4,0.2,0.6,0.1c0.8-0.2,0.9-0.7,0.9-1
		c0-0.3-0.1-0.6-0.4-0.8C56.4,40.9,56.1,40.9,55.9,40.9L55.9,40.9z"/>
	<path class="st1" d="M65.1,35.6l-0.2-0.1c0.2-0.4,3.1-1.3,4-1.6l0.1,0.2C67.2,34.7,65.3,35.4,65.1,35.6z"/>
	<rect x="67" y="38.2" class="st1" width="4.4" height="0.3"/>
	<rect x="66.7" y="40.6" transform="matrix(0.3353 -0.9421 0.9421 0.3353 4.356 91.2222)" class="st1" width="0.3" height="3.8"/>
	<rect x="38.8" y="32.3" transform="matrix(0.3811 -0.9245 0.9245 0.3811 -7.4387 57.0496)" class="st1" width="0.2" height="3.5"/>
	<rect x="33" y="38.2" class="st1" width="5" height="0.3"/>
	<rect x="36" y="42.2" transform="matrix(0.8467 -0.5321 0.5321 0.8467 -16.6831 26.6729)" class="st1" width="3.8" height="0.3"/>
</g>
</svg>
