<svg xmlns="http://www.w3.org/2000/svg" width="187.313" height="94.368" viewBox="0 0 187.313 94.368">
  <g id="dowiedz_sie_wiecej" data-name="dowiedz sie wiecej" transform="translate(-927.739 -1990)">
    <path id="Path_113" data-name="Path 113" d="M253.653,863.4c8.38-12.323,165.225-12.369,172.653,0s5.831,63.486-3.431,74.815-151.754,14.5-169.222,3.434S245.273,875.721,253.653,863.4Z" transform="translate(684.063 1135.861)" fill="#b04527"/>
    <path id="Path_2861" data-name="Path 2861" d="M69.224,19V3.016h4.128a7.712,7.712,0,0,1,3.048.612,7.977,7.977,0,0,1,2.544,1.716,8.435,8.435,0,0,1,1.692,2.58,8.076,8.076,0,0,1,0,6.168,8.14,8.14,0,0,1-1.692,2.556,7.793,7.793,0,0,1-2.544,1.74A7.712,7.712,0,0,1,73.352,19Zm2.16-13.824V16.84h1.968a5.6,5.6,0,0,0,2.22-.456,5.85,5.85,0,0,0,1.86-1.248,5.968,5.968,0,0,0,1.236-1.884,5.893,5.893,0,0,0,0-4.488A5.968,5.968,0,0,0,77.432,6.88a5.85,5.85,0,0,0-1.86-1.248,5.6,5.6,0,0,0-2.22-.456ZM91.16,19.12a7.859,7.859,0,0,1-3.084-.612,7.759,7.759,0,0,1-2.556-1.74,8.033,8.033,0,0,1-1.728-2.58A8.064,8.064,0,0,1,83.78,8a8.141,8.141,0,0,1,4.3-4.308,7.728,7.728,0,0,1,3.084-.624,7.814,7.814,0,0,1,3.1.624,8.065,8.065,0,0,1,4.3,4.3,7.814,7.814,0,0,1,.624,3.1,7.9,7.9,0,0,1-.624,3.108,8.034,8.034,0,0,1-4.3,4.308A7.814,7.814,0,0,1,91.16,19.12Zm0-13.872a5.817,5.817,0,0,0-5.832,5.832,5.889,5.889,0,0,0,.456,2.292,5.811,5.811,0,0,0,10.752,0,5.889,5.889,0,0,0,.456-2.292A5.817,5.817,0,0,0,91.16,5.248ZM114.464,19h-2.136l-2.472-6.792L107.48,19h-2.16L99.536,3.016h2.328l4.512,12.5,2.3-6.552-2.16-5.952h2.328l2.112,5.856,2.424,6.648,4.368-12.5h2.328Zm7.656,0V3.04h2.016V19Zm4.416,0V3.04h8.736V5.2h-6.648v4.848h4.464v1.968h-4.464V16.84h6.648V19Zm11.136,0V3.016H141.8a7.712,7.712,0,0,1,3.048.612,7.977,7.977,0,0,1,2.544,1.716,8.436,8.436,0,0,1,1.692,2.58,8.076,8.076,0,0,1,0,6.168,8.14,8.14,0,0,1-1.692,2.556,7.793,7.793,0,0,1-2.544,1.74A7.712,7.712,0,0,1,141.8,19Zm2.16-13.824V16.84H141.8a5.6,5.6,0,0,0,2.22-.456,5.85,5.85,0,0,0,1.86-1.248,5.968,5.968,0,0,0,1.236-1.884,5.893,5.893,0,0,0,0-4.488A5.968,5.968,0,0,0,145.88,6.88a5.85,5.85,0,0,0-1.86-1.248,5.6,5.6,0,0,0-2.22-.456ZM150.152,17.1l8.112-11.9h-8.112V3.04H161V4.984l-8.088,11.832H161V19H150.152ZM182.48,7.96a3.7,3.7,0,0,0-.5-1.536,2.625,2.625,0,0,0-1.068-.948,3.8,3.8,0,0,0-1.62-.3,3.035,3.035,0,0,0-2.28.7,2.437,2.437,0,0,0-.624,1.8,2.646,2.646,0,0,0,.192,1.092,1.647,1.647,0,0,0,.576.684,4.016,4.016,0,0,0,1.9.528,13.25,13.25,0,0,1,2.268.372,6.1,6.1,0,0,1,1.62.684,3.79,3.79,0,0,1,1.752,3.456,4.234,4.234,0,0,1-.36,1.728,4.67,4.67,0,0,1-2.82,2.568,6.616,6.616,0,0,1-2.172.36,5.638,5.638,0,0,1-4.056-1.44,5.7,5.7,0,0,1-1.56-3.456l.048-.024h2.112a3.14,3.14,0,0,0,.864,1.9,3.57,3.57,0,0,0,2.52.864,3.789,3.789,0,0,0,2.4-.7,2.184,2.184,0,0,0,.888-1.8,2.621,2.621,0,0,0-.132-.876,1.481,1.481,0,0,0-.492-.66,6.079,6.079,0,0,0-3.048-.792,5.509,5.509,0,0,1-3.456-1.32,4.183,4.183,0,0,1-1.176-3.168,4.511,4.511,0,0,1,1.272-3.336,5.818,5.818,0,0,1,7.632.168A6.015,6.015,0,0,1,184.64,7.96ZM186.848,19V3.04h2.016V19Zm14.472,3.936a2.368,2.368,0,0,1-1.728.936H199.4a3.36,3.36,0,0,1-.552-.048,1.931,1.931,0,0,1-.768-.384,2.435,2.435,0,0,1-.576-.648,2.271,2.271,0,0,1-.36-1.224,2.939,2.939,0,0,1,.048-.456,2.177,2.177,0,0,1,1.392-1.728l.024-.384h-7.344V3.04H200V5.2h-6.648v4.848h4.464v1.968h-4.464V16.84H200V19l-.024,1.7a2.854,2.854,0,0,0-.432-.024,1.141,1.141,0,0,0-.612.156.854.854,0,0,0-.348.564.728.728,0,0,0-.024.216.718.718,0,0,0,.228.564.815.815,0,0,0,.564.2,1.182,1.182,0,0,0,.912-.432ZM114.536,48H112.4l-2.472-6.792L107.552,48h-2.16L99.608,32.016h2.328l4.512,12.5,2.3-6.552-2.16-5.952h2.328l2.112,5.856,2.424,6.648,4.368-12.5h2.328Zm7.656,0V32.04h2.016V48Zm14.472,3.936a2.368,2.368,0,0,1-1.728.936h-.192a3.359,3.359,0,0,1-.552-.048,1.931,1.931,0,0,1-.768-.384,2.435,2.435,0,0,1-.576-.648,2.271,2.271,0,0,1-.36-1.224,2.939,2.939,0,0,1,.048-.456,2.177,2.177,0,0,1,1.392-1.728l.024-.384h-7.344V32.04h8.736V34.2H128.7v4.848h4.464v1.968H128.7V45.84h6.648V48l-.024,1.7a2.854,2.854,0,0,0-.432-.024,1.141,1.141,0,0,0-.612.156.854.854,0,0,0-.348.564.728.728,0,0,0-.024.216.718.718,0,0,0,.228.564.815.815,0,0,0,.564.2,1.182,1.182,0,0,0,.912-.432Zm8.856-3.84a7.89,7.89,0,0,1-5.664-2.376,8.069,8.069,0,0,1-1.728-2.568,7.873,7.873,0,0,1-.624-3.12,8.041,8.041,0,0,1,4.92-7.44,7.968,7.968,0,0,1,6.5.144,8.612,8.612,0,0,1,2.88,2.28l-1.632,1.392a6,6,0,0,0-4.656-2.256,5.656,5.656,0,0,0-2.244.456,5.971,5.971,0,0,0-3.156,3.156,5.868,5.868,0,0,0,0,4.536,5.971,5.971,0,0,0,3.156,3.156,5.656,5.656,0,0,0,2.244.456,6,6,0,0,0,4.656-2.256l1.632,1.392a8.9,8.9,0,0,1-2.892,2.28A7.732,7.732,0,0,1,145.52,48.1Zm8.448-.1V32.04H162.7V34.2h-6.648v4.848h4.464v1.968h-4.464V45.84H162.7V48Zm10.9-2.16a2.38,2.38,0,0,0,1.74-.672,2.259,2.259,0,0,0,.684-1.68V32.04h1.968V43.488a4.7,4.7,0,0,1-.324,1.752,4.61,4.61,0,0,1-.9,1.44,4.26,4.26,0,0,1-1.416.972,4.419,4.419,0,0,1-1.752.348Z" transform="translate(886 2012.183)" fill="#f2edeb"/>
  </g>
</svg>
