<?xml version="1.0" encoding="utf-8"?>
<!-- Generator: Adobe Illustrator 24.0.3, SVG Export Plug-In . SVG Version: 6.00 Build 0)  -->
<svg version="1.1" id="Layer_1" xmlns="http://www.w3.org/2000/svg" xmlns:xlink="http://www.w3.org/1999/xlink" x="0px" y="0px"
	 viewBox="0 0 132 43.9" style="enable-background:new 0 0 132 43.9;" xml:space="preserve">
<style type="text/css">
	.st0{fill:#B04527;}
	.st1{enable-background:new    ;}
	.st2{fill:#F2EDEB;}
</style>
<g id="Group_423" transform="translate(-206.02 -984)">
	<path id="Path_113" class="st0" d="M213,988.3c5.9-5.7,116.4-5.8,121.6,0s4.1,29.5-2.4,34.8s-106.9,6.7-119.2,1.6
		S207.1,994,213,988.3z"/>
	<g class="st1">
		<path class="st2" d="M234.3,1002v-9.3h2.4c0.6,0,1.2,0.1,1.8,0.4c0.6,0.2,1.1,0.6,1.5,1c0.4,0.4,0.7,0.9,1,1.5
			c0.2,0.6,0.4,1.2,0.4,1.8s-0.1,1.2-0.4,1.8c-0.2,0.6-0.6,1.1-1,1.5c-0.4,0.4-0.9,0.8-1.5,1c-0.6,0.2-1.2,0.4-1.8,0.4H234.3z
			 M235.6,993.9v6.8h1.1c0.4,0,0.9-0.1,1.3-0.3c0.4-0.2,0.8-0.4,1.1-0.7c0.3-0.3,0.5-0.7,0.7-1.1c0.2-0.4,0.3-0.9,0.3-1.3
			s-0.1-0.9-0.3-1.3s-0.4-0.8-0.7-1.1c-0.3-0.3-0.7-0.5-1.1-0.7c-0.4-0.2-0.8-0.3-1.3-0.3H235.6z"/>
		<path class="st2" d="M245.3,1001.7c-0.6-0.2-1.1-0.6-1.5-1c-0.4-0.4-0.8-0.9-1-1.5c-0.2-0.6-0.4-1.2-0.4-1.8s0.1-1.2,0.4-1.8
			s0.6-1.1,1-1.5c0.4-0.4,0.9-0.8,1.5-1c0.6-0.2,1.2-0.4,1.8-0.4c0.6,0,1.2,0.1,1.8,0.4c0.6,0.2,1.1,0.6,1.5,1s0.8,0.9,1,1.5
			c0.2,0.6,0.4,1.2,0.4,1.8s-0.1,1.2-0.4,1.8c-0.2,0.6-0.6,1.1-1,1.5c-0.4,0.4-0.9,0.8-1.5,1c-0.6,0.2-1.2,0.4-1.8,0.4
			C246.5,1002.1,245.9,1002,245.3,1001.7z M245.8,994.2c-0.4,0.2-0.8,0.4-1.1,0.7c-0.3,0.3-0.6,0.7-0.7,1.1
			c-0.2,0.4-0.3,0.9-0.3,1.3c0,0.5,0.1,0.9,0.3,1.3s0.4,0.8,0.7,1.1c0.3,0.3,0.7,0.6,1.1,0.7c0.4,0.2,0.9,0.3,1.3,0.3
			c0.5,0,0.9-0.1,1.3-0.3c0.4-0.2,0.8-0.4,1.1-0.7c0.3-0.3,0.6-0.7,0.7-1.1s0.3-0.9,0.3-1.3c0-0.5-0.1-0.9-0.3-1.3
			c-0.2-0.4-0.4-0.8-0.7-1.1c-0.3-0.3-0.7-0.6-1.1-0.7c-0.4-0.2-0.9-0.3-1.3-0.3C246.6,994,246.2,994.1,245.8,994.2z"/>
		<path class="st2" d="M260.7,1002h-1.2l-1.4-4l-1.4,4h-1.3l-3.4-9.3h1.4l2.6,7.3l1.3-3.8l-1.3-3.5h1.4l1.2,3.4l1.4,3.9l2.5-7.3h1.4
			L260.7,1002z"/>
		<path class="st2" d="M265.2,1002v-9.3h1.2v9.3H265.2z"/>
		<path class="st2" d="M267.7,1002v-9.3h5.1v1.3h-3.9v2.8h2.6v1.1h-2.6v2.8h3.9v1.3H267.7z"/>
		<path class="st2" d="M274.2,1002v-9.3h2.4c0.6,0,1.2,0.1,1.8,0.4c0.6,0.2,1.1,0.6,1.5,1c0.4,0.4,0.7,0.9,1,1.5s0.4,1.2,0.4,1.8
			s-0.1,1.2-0.4,1.8c-0.2,0.6-0.6,1.1-1,1.5c-0.4,0.4-0.9,0.8-1.5,1c-0.6,0.2-1.2,0.4-1.8,0.4H274.2z M275.5,993.9v6.8h1.1
			c0.4,0,0.9-0.1,1.3-0.3c0.4-0.2,0.8-0.4,1.1-0.7c0.3-0.3,0.5-0.7,0.7-1.1c0.2-0.4,0.3-0.9,0.3-1.3s-0.1-0.9-0.3-1.3
			s-0.4-0.8-0.7-1.1c-0.3-0.3-0.7-0.5-1.1-0.7s-0.8-0.3-1.3-0.3H275.5z"/>
		<path class="st2" d="M281.5,1000.9l4.7-6.9h-4.7v-1.3h6.3v1.1l-4.7,6.9h4.7v1.3h-6.3V1000.9z"/>
		<path class="st2" d="M300.1,994.7c-0.2-0.3-0.4-0.4-0.6-0.6c-0.2-0.1-0.6-0.2-0.9-0.2c-0.6,0-1.1,0.1-1.3,0.4
			c-0.2,0.2-0.4,0.6-0.4,1c0,0.3,0,0.5,0.1,0.6c0.1,0.2,0.2,0.3,0.3,0.4c0.2,0.2,0.6,0.3,1.1,0.3c0.5,0,1,0.1,1.3,0.2
			s0.7,0.2,0.9,0.4c0.7,0.4,1,1.1,1,2c0,0.4-0.1,0.7-0.2,1c-0.1,0.3-0.3,0.6-0.6,0.9c-0.3,0.3-0.7,0.5-1.1,0.6
			c-0.4,0.1-0.8,0.2-1.3,0.2c-1,0-1.8-0.3-2.4-0.8c-0.5-0.5-0.8-1.2-0.9-2l0,0h1.2c0.1,0.5,0.2,0.9,0.5,1.1c0.4,0.3,0.9,0.5,1.5,0.5
			c0.6,0,1.1-0.1,1.4-0.4c0.3-0.3,0.5-0.6,0.5-1c0-0.2,0-0.4-0.1-0.5c-0.1-0.1-0.1-0.3-0.3-0.4c-0.3-0.2-0.9-0.4-1.8-0.5
			c-0.9-0.1-1.6-0.3-2-0.8c-0.5-0.4-0.7-1.1-0.7-1.8c0-0.8,0.2-1.5,0.7-1.9c0.5-0.5,1.2-0.8,2.2-0.8c1,0,1.7,0.3,2.3,0.9
			c0.5,0.5,0.8,1.2,0.9,2h-1.3C300.3,995.2,300.2,994.9,300.1,994.7z"/>
		<path class="st2" d="M302.9,1002v-9.3h1.2v9.3H302.9z"/>
		<path class="st2" d="M311.4,1004.3c-0.3,0.4-0.6,0.5-1,0.5h-0.1c-0.1,0-0.2,0-0.3,0c-0.2,0-0.3-0.1-0.4-0.2
			c-0.1-0.1-0.3-0.2-0.3-0.4c-0.1-0.2-0.2-0.5-0.2-0.7c0-0.1,0-0.2,0-0.3c0.1-0.5,0.4-0.8,0.8-1l0-0.2h-4.3v-9.3h5.1v1.3h-3.9v2.8
			h2.6v1.1h-2.6v2.8h3.9v1.3l0,1c-0.1,0-0.1,0-0.3,0c-0.1,0-0.3,0-0.4,0.1c-0.1,0.1-0.2,0.2-0.2,0.3c0,0,0,0.1,0,0.1
			c0,0.1,0,0.2,0.1,0.3c0.1,0.1,0.2,0.1,0.3,0.1c0.2,0,0.4-0.1,0.5-0.3L311.4,1004.3z"/>
	</g>
	<g class="st1">
		<path class="st2" d="M260.7,1019h-1.2l-1.4-4l-1.4,4h-1.3l-3.4-9.3h1.4l2.6,7.3l1.3-3.8l-1.3-3.5h1.4l1.2,3.4l1.4,3.9l2.5-7.3h1.4
			L260.7,1019z"/>
		<path class="st2" d="M265.2,1019v-9.3h1.2v9.3H265.2z"/>
		<path class="st2" d="M273.6,1021.3c-0.3,0.4-0.6,0.5-1,0.5h-0.1c-0.1,0-0.2,0-0.3,0c-0.2,0-0.3-0.1-0.4-0.2
			c-0.1-0.1-0.3-0.2-0.3-0.4c-0.1-0.2-0.2-0.5-0.2-0.7c0-0.1,0-0.2,0-0.3c0.1-0.5,0.4-0.8,0.8-1l0-0.2h-4.3v-9.3h5.1v1.3H269v2.8
			h2.6v1.1H269v2.8h3.9v1.3l0,1c-0.1,0-0.1,0-0.3,0c-0.1,0-0.3,0-0.4,0.1c-0.1,0.1-0.2,0.2-0.2,0.3c0,0,0,0.1,0,0.1
			c0,0.1,0,0.2,0.1,0.3c0.1,0.1,0.2,0.1,0.3,0.1c0.2,0,0.4-0.1,0.5-0.3L273.6,1021.3z"/>
		<path class="st2" d="M277,1018.7c-0.6-0.2-1.1-0.6-1.5-1c-0.4-0.4-0.8-0.9-1-1.5c-0.2-0.6-0.4-1.2-0.4-1.8c0-0.6,0.1-1.2,0.4-1.8
			c0.2-0.6,0.6-1.1,1-1.5c0.4-0.4,0.9-0.8,1.5-1c0.6-0.2,1.2-0.4,1.8-0.4c0.7,0,1.4,0.1,2,0.4c0.6,0.3,1.2,0.7,1.7,1.3l-1,0.8
			c-0.8-0.9-1.7-1.3-2.7-1.3c-0.5,0-0.9,0.1-1.3,0.3c-0.4,0.2-0.8,0.4-1.1,0.7c-0.3,0.3-0.6,0.7-0.7,1.1c-0.2,0.4-0.3,0.9-0.3,1.3
			c0,0.5,0.1,0.9,0.3,1.3c0.2,0.4,0.4,0.8,0.7,1.1c0.3,0.3,0.7,0.6,1.1,0.7c0.4,0.2,0.9,0.3,1.3,0.3c1,0,2-0.4,2.7-1.3l1,0.8
			c-0.5,0.6-1.1,1-1.7,1.3c-0.6,0.3-1.3,0.4-2,0.4C278.2,1019.1,277.6,1018.9,277,1018.7z"/>
		<path class="st2" d="M283.7,1019v-9.3h5.1v1.3h-3.9v2.8h2.6v1.1h-2.6v2.8h3.9v1.3H283.7z"/>
		<path class="st2" d="M290.1,1017.7c0.4,0,0.7-0.1,1-0.4c0.3-0.3,0.4-0.6,0.4-1v-6.7h1.1v6.7c0,0.4-0.1,0.7-0.2,1
			c-0.1,0.3-0.3,0.6-0.5,0.8c-0.2,0.2-0.5,0.4-0.8,0.6c-0.3,0.1-0.7,0.2-1,0.2V1017.7z"/>
	</g>
</g>
</svg>
