<?xml version="1.0" encoding="utf-8"?>
<!-- Generator: Adobe Illustrator 24.0.3, SVG Export Plug-In . SVG Version: 6.00 Build 0)  -->
<svg version="1.1" id="Layer_1" xmlns="http://www.w3.org/2000/svg" xmlns:xlink="http://www.w3.org/1999/xlink" x="0px" y="0px"
	 viewBox="0 0 270 108.2" style="enable-background:new 0 0 270 108.2;" xml:space="preserve">
<style type="text/css">
	.st0{fill:#B04527;}
	.st1{enable-background:new    ;}
	.st2{fill:#F2EDEB;}
</style>
<g id="Group_475" transform="translate(-886 -1990)">
	<path id="Path_113" class="st0" d="M937.7,1999.3c8.4-12.3,165.2-12.4,172.7,0c7.4,12.4,5.8,63.5-3.4,74.8
		c-9.3,11.3-151.8,14.5-169.2,3.4C920.2,2066.4,929.3,2011.6,937.7,1999.3z"/>
	<g class="st1">
		<path class="st2" d="M955.2,2031.2v-16h4.1c1.1,0,2.1,0.2,3,0.6s1.8,1,2.5,1.7c0.7,0.8,1.3,1.6,1.7,2.6c0.4,1,0.6,2,0.6,3.1
			c0,1.1-0.2,2.1-0.6,3.1c-0.4,1-1,1.8-1.7,2.6c-0.7,0.8-1.6,1.3-2.5,1.7c-1,0.4-2,0.6-3,0.6H955.2z M957.4,2017.4v11.7h2
			c0.8,0,1.5-0.2,2.2-0.5c0.7-0.3,1.3-0.7,1.9-1.2c0.5-0.5,0.9-1.2,1.2-1.9c0.3-0.7,0.4-1.5,0.4-2.2c0-0.8-0.1-1.5-0.4-2.2
			c-0.3-0.7-0.7-1.3-1.2-1.9c-0.5-0.5-1.1-0.9-1.9-1.2c-0.7-0.3-1.5-0.5-2.2-0.5H957.4z"/>
		<path class="st2" d="M974.1,2030.7c-1-0.4-1.8-1-2.6-1.7c-0.7-0.7-1.3-1.6-1.7-2.6c-0.4-1-0.6-2-0.6-3.1s0.2-2.1,0.6-3.1
			c0.4-1,1-1.8,1.7-2.6c0.7-0.7,1.6-1.3,2.6-1.7c1-0.4,2-0.6,3.1-0.6c1.1,0,2.1,0.2,3.1,0.6s1.8,1,2.6,1.7c0.7,0.7,1.3,1.6,1.7,2.6
			c0.4,1,0.6,2,0.6,3.1s-0.2,2.1-0.6,3.1c-0.4,1-1,1.8-1.7,2.6c-0.7,0.7-1.6,1.3-2.6,1.7s-2,0.6-3.1,0.6
			C976.1,2031.3,975,2031.1,974.1,2030.7z M974.9,2017.9c-0.7,0.3-1.3,0.7-1.9,1.3c-0.5,0.5-1,1.2-1.3,1.9c-0.3,0.7-0.4,1.5-0.4,2.2
			c0,0.8,0.2,1.6,0.5,2.3c0.3,0.7,0.7,1.4,1.2,1.9c0.5,0.5,1.2,1,1.9,1.3c0.7,0.3,1.5,0.4,2.2,0.4c0.8,0,1.5-0.1,2.2-0.4
			c0.7-0.3,1.3-0.7,1.9-1.3c0.5-0.5,0.9-1.2,1.2-1.9c0.3-0.7,0.5-1.5,0.5-2.3c0-0.8-0.1-1.5-0.4-2.2s-0.7-1.3-1.3-1.9
			c-0.5-0.5-1.2-1-1.9-1.3s-1.5-0.4-2.2-0.4C976.4,2017.4,975.6,2017.6,974.9,2017.9z"/>
		<path class="st2" d="M1000.5,2031.2h-2.1l-2.5-6.8l-2.4,6.8h-2.2l-5.8-16h2.3l4.5,12.5l2.3-6.6l-2.2-6h2.3l2.1,5.9l2.4,6.6
			l4.4-12.5h2.3L1000.5,2031.2z"/>
		<path class="st2" d="M1008.1,2031.2v-16h2v16H1008.1z"/>
		<path class="st2" d="M1012.5,2031.2v-16h8.7v2.2h-6.6v4.8h4.5v2h-4.5v4.8h6.6v2.2H1012.5z"/>
		<path class="st2" d="M1023.7,2031.2v-16h4.1c1.1,0,2.1,0.2,3,0.6s1.8,1,2.5,1.7c0.7,0.8,1.3,1.6,1.7,2.6c0.4,1,0.6,2,0.6,3.1
			c0,1.1-0.2,2.1-0.6,3.1c-0.4,1-1,1.8-1.7,2.6c-0.7,0.8-1.6,1.3-2.5,1.7c-1,0.4-2,0.6-3,0.6H1023.7z M1025.8,2017.4v11.7h2
			c0.8,0,1.5-0.2,2.2-0.5c0.7-0.3,1.3-0.7,1.9-1.2c0.5-0.5,0.9-1.2,1.2-1.9s0.4-1.5,0.4-2.2c0-0.8-0.1-1.5-0.4-2.2
			c-0.3-0.7-0.7-1.3-1.2-1.9c-0.5-0.5-1.1-0.9-1.9-1.2c-0.7-0.3-1.5-0.5-2.2-0.5H1025.8z"/>
		<path class="st2" d="M1036.2,2029.3l8.1-11.9h-8.1v-2.2h10.8v1.9l-8.1,11.8h8.1v2.2h-10.8V2029.3z"/>
		<path class="st2" d="M1068,2018.6c-0.3-0.4-0.6-0.7-1.1-0.9c-0.4-0.2-1-0.3-1.6-0.3c-1.1,0-1.8,0.2-2.3,0.7
			c-0.4,0.4-0.6,1-0.6,1.8c0,0.4,0.1,0.8,0.2,1.1c0.1,0.3,0.3,0.5,0.6,0.7c0.4,0.3,1,0.4,1.9,0.5c0.9,0.1,1.7,0.2,2.3,0.4
			c0.6,0.2,1.2,0.4,1.6,0.7c1.2,0.7,1.8,1.9,1.8,3.5c0,0.6-0.1,1.2-0.4,1.7s-0.6,1-1,1.5c-0.5,0.5-1.1,0.9-1.8,1.1s-1.4,0.4-2.2,0.4
			c-1.7,0-3-0.5-4.1-1.4c-0.9-0.9-1.4-2-1.6-3.5l0,0h2.1c0.1,0.8,0.4,1.5,0.9,1.9c0.6,0.6,1.5,0.9,2.5,0.9c1,0,1.8-0.2,2.4-0.7
			s0.9-1.1,0.9-1.8c0-0.3,0-0.6-0.1-0.9s-0.3-0.5-0.5-0.7c-0.5-0.4-1.6-0.7-3-0.8c-1.5-0.1-2.7-0.6-3.5-1.3s-1.2-1.8-1.2-3.2
			c0-1.4,0.4-2.5,1.3-3.3c0.9-0.9,2.1-1.3,3.7-1.3c1.7,0,3,0.5,3.9,1.5c0.8,0.9,1.3,2,1.5,3.5h-2.2
			C1068.4,2019.5,1068.2,2019,1068,2018.6z"/>
		<path class="st2" d="M1072.8,2031.2v-16h2v16H1072.8z"/>
		<path class="st2" d="M1087.3,2035.1c-0.5,0.6-1.1,0.9-1.7,0.9h-0.2c-0.2,0-0.4,0-0.6,0c-0.3-0.1-0.5-0.2-0.8-0.4
			c-0.2-0.2-0.4-0.4-0.6-0.6c-0.2-0.4-0.4-0.8-0.4-1.2c0-0.1,0-0.3,0-0.5c0.2-0.9,0.6-1.4,1.4-1.7l0-0.4h-7.3v-16h8.7v2.2h-6.6v4.8
			h4.5v2h-4.5v4.8h6.6v2.2l0,1.7c-0.1,0-0.2,0-0.4,0c-0.2,0-0.4,0.1-0.6,0.2c-0.2,0.1-0.3,0.3-0.3,0.6c0,0,0,0.1,0,0.2
			c0,0.2,0.1,0.4,0.2,0.6s0.3,0.2,0.6,0.2c0.4,0,0.7-0.1,0.9-0.4L1087.3,2035.1z"/>
	</g>
	<g class="st1">
		<path class="st2" d="M1000.5,2060.2h-2.1l-2.5-6.8l-2.4,6.8h-2.2l-5.8-16h2.3l4.5,12.5l2.3-6.6l-2.2-6h2.3l2.1,5.9l2.4,6.6
			l4.4-12.5h2.3L1000.5,2060.2z"/>
		<path class="st2" d="M1008.2,2060.2v-16h2v16H1008.2z"/>
		<path class="st2" d="M1022.7,2064.1c-0.5,0.6-1.1,0.9-1.7,0.9h-0.2c-0.2,0-0.4,0-0.6,0c-0.3-0.1-0.5-0.2-0.8-0.4
			c-0.2-0.2-0.4-0.4-0.6-0.6c-0.2-0.4-0.4-0.8-0.4-1.2c0-0.1,0-0.3,0-0.5c0.2-0.9,0.6-1.4,1.4-1.7l0-0.4h-7.3v-16h8.7v2.2h-6.6v4.8
			h4.5v2h-4.5v4.8h6.6v2.2l0,1.7c-0.1,0-0.2,0-0.4,0c-0.2,0-0.4,0.1-0.6,0.2c-0.2,0.1-0.3,0.3-0.3,0.6c0,0,0,0.1,0,0.2
			c0,0.2,0.1,0.4,0.2,0.6c0.2,0.1,0.3,0.2,0.6,0.2c0.4,0,0.7-0.1,0.9-0.4L1022.7,2064.1z"/>
		<path class="st2" d="M1028.4,2059.7c-1-0.4-1.8-1-2.6-1.8c-0.7-0.7-1.3-1.6-1.7-2.6c-0.4-1-0.6-2-0.6-3.1c0-1.1,0.2-2.1,0.6-3.1
			s1-1.8,1.7-2.6c0.7-0.7,1.6-1.3,2.6-1.7c1-0.4,2-0.6,3.1-0.6c1.2,0,2.3,0.3,3.4,0.8c1.1,0.5,2,1.3,2.9,2.3l-1.6,1.4
			c-1.3-1.5-2.9-2.3-4.7-2.3c-0.8,0-1.5,0.2-2.2,0.5s-1.3,0.7-1.9,1.3c-0.5,0.5-1,1.2-1.3,1.9c-0.3,0.7-0.5,1.5-0.5,2.3
			s0.2,1.6,0.5,2.3s0.7,1.3,1.3,1.9c0.5,0.5,1.2,1,1.9,1.3s1.5,0.5,2.2,0.5c1.8,0,3.3-0.8,4.7-2.3l1.6,1.4c-0.9,1-1.8,1.8-2.9,2.3
			s-2.2,0.8-3.4,0.8C1030.4,2060.3,1029.4,2060.1,1028.4,2059.7z"/>
		<path class="st2" d="M1040,2060.2v-16h8.7v2.2h-6.6v4.8h4.5v2h-4.5v4.8h6.6v2.2H1040z"/>
		<path class="st2" d="M1050.9,2058c0.7,0,1.3-0.2,1.7-0.7c0.5-0.4,0.7-1,0.7-1.7v-11.4h2v11.4c0,0.6-0.1,1.2-0.3,1.8
			s-0.5,1-0.9,1.4c-0.4,0.4-0.9,0.7-1.4,1c-0.5,0.2-1.1,0.3-1.8,0.3V2058z"/>
	</g>
</g>
</svg>
