<svg xmlns="http://www.w3.org/2000/svg" width="131.98" height="43.904" viewBox="0 0 131.98 43.904">
  <g id="dowiedz_sie_wiecej" data-name="dowiedz sie wiecej" transform="translate(-206.02 -984)">
    <path id="Path_113" data-name="Path 113" d="M250.706,858.447c5.9-5.733,116.417-5.755,121.65,0s4.109,29.536-2.417,34.807-106.925,6.744-119.233,1.6S244.8,864.18,250.706,858.447Z" transform="translate(-37.657 129.861)" fill="#b04527"/>
    <path id="Path_2202" data-name="Path 2202" d="M10.154,11V1.676h2.408a4.5,4.5,0,0,1,1.778.357,4.653,4.653,0,0,1,1.484,1,4.921,4.921,0,0,1,.987,1.505,4.711,4.711,0,0,1,0,3.6,4.748,4.748,0,0,1-.987,1.491,4.546,4.546,0,0,1-1.484,1.015A4.5,4.5,0,0,1,12.562,11Zm1.26-8.064v6.8h1.148a3.265,3.265,0,0,0,1.3-.266,3.412,3.412,0,0,0,1.085-.728,3.481,3.481,0,0,0,.721-1.1,3.437,3.437,0,0,0,0-2.618,3.481,3.481,0,0,0-.721-1.1A3.412,3.412,0,0,0,13.857,3.2a3.265,3.265,0,0,0-1.3-.266ZM22.95,11.07a4.584,4.584,0,0,1-1.8-.357A4.526,4.526,0,0,1,19.66,9.7a4.686,4.686,0,0,1-1.008-1.505,4.7,4.7,0,0,1-.007-3.612,4.749,4.749,0,0,1,2.506-2.513,4.508,4.508,0,0,1,1.8-.364,4.558,4.558,0,0,1,1.806.364,4.7,4.7,0,0,1,2.506,2.506,4.558,4.558,0,0,1,.364,1.806,4.609,4.609,0,0,1-.364,1.813,4.686,4.686,0,0,1-2.506,2.513A4.558,4.558,0,0,1,22.95,11.07Zm0-8.092a3.393,3.393,0,0,0-3.4,3.4,3.435,3.435,0,0,0,.266,1.337,3.39,3.39,0,0,0,6.272,0,3.435,3.435,0,0,0,.266-1.337,3.393,3.393,0,0,0-3.4-3.4ZM36.544,11H35.3L33.856,7.038,32.47,11H31.21L27.836,1.676h1.358L31.826,8.97,33.17,5.148,31.91,1.676h1.358L34.5,5.092,35.914,8.97l2.548-7.294H39.82Zm4.466,0V1.69h1.176V11Zm2.576,0V1.69h5.1V2.95H44.8V5.778h2.6V6.926H44.8V9.74h3.878V11Zm6.5,0V1.676H52.49a4.5,4.5,0,0,1,1.778.357,4.653,4.653,0,0,1,1.484,1,4.921,4.921,0,0,1,.987,1.505,4.711,4.711,0,0,1,0,3.6,4.748,4.748,0,0,1-.987,1.491,4.546,4.546,0,0,1-1.484,1.015A4.5,4.5,0,0,1,52.49,11Zm1.26-8.064v6.8H52.49a3.265,3.265,0,0,0,1.295-.266,3.412,3.412,0,0,0,1.085-.728,3.481,3.481,0,0,0,.721-1.1,3.437,3.437,0,0,0,0-2.618,3.481,3.481,0,0,0-.721-1.1A3.412,3.412,0,0,0,53.785,3.2a3.265,3.265,0,0,0-1.295-.266Zm6.02,6.958L62.094,2.95H57.362V1.69H63.69V2.824l-4.718,6.9H63.69V11H57.362ZM76.22,4.56a2.158,2.158,0,0,0-.294-.9,1.531,1.531,0,0,0-.623-.553,2.219,2.219,0,0,0-.945-.175,1.77,1.77,0,0,0-1.33.406,1.421,1.421,0,0,0-.364,1.05,1.543,1.543,0,0,0,.112.637.961.961,0,0,0,.336.4,2.343,2.343,0,0,0,1.106.308,7.729,7.729,0,0,1,1.323.217,3.557,3.557,0,0,1,.945.4,2.211,2.211,0,0,1,1.022,2.016,2.47,2.47,0,0,1-.21,1.008,2.724,2.724,0,0,1-1.645,1.5,3.859,3.859,0,0,1-1.267.21,3.289,3.289,0,0,1-2.366-.84,3.323,3.323,0,0,1-.91-2.016l.028-.014H72.37a1.831,1.831,0,0,0,.5,1.106,2.082,2.082,0,0,0,1.47.5,2.21,2.21,0,0,0,1.4-.406,1.274,1.274,0,0,0,.518-1.05,1.529,1.529,0,0,0-.077-.511.864.864,0,0,0-.287-.385A3.546,3.546,0,0,0,74.12,7.01,3.214,3.214,0,0,1,72.1,6.24a2.44,2.44,0,0,1-.686-1.848,2.631,2.631,0,0,1,.742-1.946,3.394,3.394,0,0,1,4.452.1A3.508,3.508,0,0,1,77.48,4.56ZM78.768,11V1.69h1.176V11Zm8.442,2.3a1.381,1.381,0,0,1-1.008.546H86.09a1.96,1.96,0,0,1-.322-.028,1.126,1.126,0,0,1-.448-.224,1.421,1.421,0,0,1-.336-.378,1.325,1.325,0,0,1-.21-.714,1.714,1.714,0,0,1,.028-.266,1.27,1.27,0,0,1,.812-1.008L85.628,11H81.344V1.69h5.1V2.95H82.562V5.778h2.6V6.926h-2.6V9.74H86.44V11l-.014.994a1.665,1.665,0,0,0-.252-.014.665.665,0,0,0-.357.091.5.5,0,0,0-.2.329.425.425,0,0,0-.014.126.419.419,0,0,0,.133.329.475.475,0,0,0,.329.119.69.69,0,0,0,.532-.252ZM36.586,28H35.34L33.9,24.038,32.512,28h-1.26l-3.374-9.324h1.358l2.632,7.294,1.344-3.822-1.26-3.472H33.31l1.232,3.416,1.414,3.878L38.5,18.676h1.358Zm4.466,0V18.69h1.176V28Zm8.442,2.3a1.381,1.381,0,0,1-1.008.546h-.112a1.96,1.96,0,0,1-.322-.028,1.127,1.127,0,0,1-.448-.224,1.421,1.421,0,0,1-.336-.378,1.325,1.325,0,0,1-.21-.714,1.714,1.714,0,0,1,.028-.266,1.27,1.27,0,0,1,.812-1.008L47.912,28H43.628V18.69h5.1v1.26H44.846v2.828h2.6v1.148h-2.6V26.74h3.878V28l-.014.994a1.665,1.665,0,0,0-.252-.014.665.665,0,0,0-.357.091.5.5,0,0,0-.2.329.425.425,0,0,0-.014.126.419.419,0,0,0,.133.329.475.475,0,0,0,.329.119.69.69,0,0,0,.532-.252Zm5.166-2.24a4.6,4.6,0,0,1-3.3-1.386,4.707,4.707,0,0,1-1.008-1.5,4.593,4.593,0,0,1-.364-1.82,4.691,4.691,0,0,1,2.87-4.34,4.648,4.648,0,0,1,3.794.084,5.024,5.024,0,0,1,1.68,1.33l-.952.812a3.5,3.5,0,0,0-2.716-1.316,3.3,3.3,0,0,0-1.309.266,3.483,3.483,0,0,0-1.841,1.841,3.423,3.423,0,0,0,0,2.646,3.483,3.483,0,0,0,1.841,1.841,3.3,3.3,0,0,0,1.309.266,3.5,3.5,0,0,0,2.716-1.316l.952.812a5.189,5.189,0,0,1-1.687,1.33A4.51,4.51,0,0,1,54.66,28.056ZM59.588,28V18.69h5.1v1.26H60.806v2.828h2.6v1.148h-2.6V26.74h3.878V28Zm6.356-1.26a1.388,1.388,0,0,0,1.015-.392,1.318,1.318,0,0,0,.4-.98V18.69h1.148v6.678a2.744,2.744,0,0,1-.189,1.022,2.689,2.689,0,0,1-.525.84,2.485,2.485,0,0,1-.826.567,2.578,2.578,0,0,1-1.022.2Z" transform="translate(224.144 991)" fill="#f2edeb"/>
  </g>
</svg>
