<svg xmlns="http://www.w3.org/2000/svg" width="385.73" height="506.87" viewBox="0 0 385.73 506.87">
  <g id="Group_256" data-name="Group 256" transform="translate(0 40.328) rotate(-7)">
    <rect id="Rectangle_79" data-name="Rectangle 79" width="330.912" height="470.046" fill="#2e3c4b"/>
    <g id="Group_250" data-name="Group 250" transform="translate(23.974 184.061)">
      <text id="PASZPORT" transform="translate(36.133 36.282)" fill="#fcf8f7" font-size="46" font-family="SulphurPoint-Bold, Sulphur Point" font-weight="700" letter-spacing="0.025em"><tspan x="0" y="0">PASZPORT</tspan></text>
      <text id="MIŁOŚNIKA_LATARNI_MORSKICH_POLSKIEGO_WYBRZEŻA" data-name="MIŁOŚNIKA LATARNI MORSKICH
POLSKIEGO WYBRZEŻA" transform="translate(134.369 89.777)" fill="#fcf8f7" font-size="14" font-family="SulphurPoint-Bold, Sulphur Point" font-weight="700"><tspan x="-91.917" y="0">MIŁOŚNIKA LATARNI MORSKICH</tspan><tspan x="-68.173" y="18">POLSKIEGO WYBRZEŻA</tspan></text>
      <g id="Group_249" data-name="Group 249">
        <line id="Line_944" data-name="Line 944" y1="4.692" x2="16.162" transform="translate(260.592 3.344)" fill="none" stroke="#e5a34c" stroke-miterlimit="10" stroke-width="0.948"/>
        <line id="Line_945" data-name="Line 945" y1="0.521" x2="14.077" transform="translate(265.247 20.735)" fill="none" stroke="#e5a34c" stroke-miterlimit="10" stroke-width="0.948"/>
        <line id="Line_946" data-name="Line 946" x2="12.252" y2="7.299" transform="translate(260.64 33.777)" fill="none" stroke="#e5a34c" stroke-miterlimit="10" stroke-width="0.948"/>
        <line id="Line_947" data-name="Line 947" x1="13.556" y1="7.56" transform="translate(4.692)" fill="none" stroke="#e5a34c" stroke-miterlimit="10" stroke-width="0.948"/>
        <line id="Line_948" data-name="Line 948" x1="15.641" transform="translate(0 21.637)" fill="none" stroke="#e5a34c" stroke-miterlimit="10" stroke-width="0.948"/>
        <line id="Line_949" data-name="Line 949" x1="13.947" y2="6.778" transform="translate(2.868 33.107)" fill="none" stroke="#e5a34c" stroke-miterlimit="10" stroke-width="0.948"/>
      </g>
      <path id="Path_1842" data-name="Path 1842" d="M253.259,183.271H47.015v-4.218H253.259Z" transform="translate(-8.62 -125.587)" fill="#af4427"/>
    </g>
    <g id="Group_253" data-name="Group 253" transform="translate(116.415 414.24)">
      <g id="Group_251" data-name="Group 251">
        <path id="Path_1843" data-name="Path 1843" d="M93.107,312.813a4.006,4.006,0,0,1,1.425,1.425,3.806,3.806,0,0,1,0,3.872,3.908,3.908,0,0,1-1.425,1.415,3.817,3.817,0,0,1-1.955.521H89.015v4.383H87.756V312.284h3.4A3.772,3.772,0,0,1,93.107,312.813Zm-.63,5.654a2.639,2.639,0,0,0,.968-.968,2.583,2.583,0,0,0,.356-1.324,2.541,2.541,0,0,0-.356-1.316,2.661,2.661,0,0,0-.968-.958,2.577,2.577,0,0,0-1.325-.357H89.015v5.278h2.137A2.588,2.588,0,0,0,92.477,318.467Z" transform="translate(-87.756 -312.256)" fill="#fcf8f7"/>
        <path id="Path_1844" data-name="Path 1844" d="M100.414,320.061l3.927,4.364H102.66l-3.927-4.364h-.11v4.364h-1.26V312.3h3.106a3.763,3.763,0,0,1,1.945.52,3.878,3.878,0,0,1,1.406,1.415,3.815,3.815,0,0,1,.521,1.954,3.766,3.766,0,0,1-.521,1.946,3.883,3.883,0,0,1-1.406,1.406,3.764,3.764,0,0,1-1.945.521Zm-1.791-6.521v5.278h1.845a2.536,2.536,0,0,0,1.315-.356,2.68,2.68,0,0,0,.959-.959,2.539,2.539,0,0,0,.357-1.316,2.588,2.588,0,0,0-.357-1.324,2.651,2.651,0,0,0-.959-.967,2.525,2.525,0,0,0-1.315-.357Z" transform="translate(-84.619 -312.252)" fill="#fcf8f7"/>
        <path id="Path_1845" data-name="Path 1845" d="M109.174,323.687a6.2,6.2,0,0,1-2.21-2.21,6.085,6.085,0,0,1,0-6.11,6.157,6.157,0,0,1,2.219-2.219,6.051,6.051,0,0,1,6.092,0,6.107,6.107,0,0,1,2.229,2.229,6.059,6.059,0,0,1,0,6.092,6.159,6.159,0,0,1-2.219,2.219,6.094,6.094,0,0,1-6.11,0Zm5.48-1.069a4.789,4.789,0,0,0,1.762-1.763,4.872,4.872,0,0,0,0-4.858,4.84,4.84,0,0,0-9.031,2.429,4.738,4.738,0,0,0,.649,2.429,4.856,4.856,0,0,0,6.621,1.763Z" transform="translate(-81.752 -312.243)" fill="#e5a34c"/>
        <path id="Path_1846" data-name="Path 1846" d="M120.721,322.568a2.022,2.022,0,0,0,.622-1.479v-8.8h1.242v8.8a3.269,3.269,0,0,1-.448,1.679,3.322,3.322,0,0,1-1.214,1.215,3.276,3.276,0,0,1-1.681.447v-1.242A2.018,2.018,0,0,0,120.721,322.568Z" transform="translate(-77.474 -312.256)" fill="#fcf8f7"/>
        <path id="Path_1847" data-name="Path 1847" d="M136.991,319.4v5.005h-1.169V312.277h1.169v5.188l4.439-5.188h1.644l-5.261,6.155,5.37,5.974H141.5Z" transform="translate(-72.059 -312.258)" fill="#fcf8f7"/>
        <path id="Path_1848" data-name="Path 1848" d="M152.746,313.487h-3.124V324.41H148.38V313.487h-3.124v-1.224h7.49Z" transform="translate(-68.978 -312.263)" fill="#fcf8f7"/>
      </g>
      <g id="Group_252" data-name="Group 252" transform="translate(14.494 17.292)">
        <path id="Path_1849" data-name="Path 1849" d="M103.906,336.2v1.242H98.682V325.3h1.26v10.9Z" transform="translate(-98.682 -325.298)" fill="#fcf8f7"/>
        <path id="Path_1850" data-name="Path 1850" d="M114.113,332.979h-4.274l-1.572,4.474h-1.333l4.257-12.129h1.571l4.256,12.129h-1.333Zm-.4-1.17-1.735-4.968-1.736,4.968Z" transform="translate(-95.987 -325.289)" fill="#fcf8f7"/>
        <path id="Path_1851" data-name="Path 1851" d="M124.367,326.521h-3.123v10.923H120V326.521h-3.123V325.3h7.489Z" transform="translate(-92.74 -325.298)" fill="#fcf8f7"/>
        <path id="Path_1852" data-name="Path 1852" d="M138.848,333.074l3.927,4.366H141.1l-3.928-4.366h-.109v4.366H135.8V325.312h3.1a3.768,3.768,0,0,1,1.946.52,3.878,3.878,0,0,1,1.406,1.415,3.814,3.814,0,0,1,.52,1.954,3.765,3.765,0,0,1-.52,1.946,3.9,3.9,0,0,1-1.406,1.406,3.768,3.768,0,0,1-1.946.52Zm-1.79-6.52v5.278H138.9a2.541,2.541,0,0,0,1.316-.355,2.68,2.68,0,0,0,.959-.959,2.554,2.554,0,0,0,.356-1.316,2.6,2.6,0,0,0-.356-1.324,2.664,2.664,0,0,0-.959-.968,2.541,2.541,0,0,0-1.316-.355Z" transform="translate(-86.561 -325.293)" fill="#fcf8f7"/>
        <path id="Path_1853" data-name="Path 1853" d="M153.909,325.3v12.146H152.43l-6.119-9.809v9.809h-1.26V325.3h1.316l6.3,10.082V325.3Z" transform="translate(-83.539 -325.298)" fill="#fcf8f7"/>
        <path id="Path_1854" data-name="Path 1854" d="M162.394,332.965H158.12l-1.571,4.475h-1.333l4.256-12.128h1.571L165.3,337.44h-1.333Zm-.4-1.169-1.735-4.969-1.735,4.969Z" transform="translate(-80.22 -325.293)" fill="#fcf8f7"/>
      </g>
      <path id="Path_1855" data-name="Path 1855" d="M126.655,312.614H133.3v1.243h-6.649Zm0,10.906H133.3v1.242h-6.649Zm0-4.238V318.1l1.242.009,5.407-.009v1.169l-5.407.009Z" transform="translate(-75.053 -312.148)" fill="#ae4426"/>
      <path id="Path_1856" data-name="Path 1856" d="M126.655,325.3H133.3v1.242h-6.649Zm0,10.9H133.3v1.242h-6.649Zm0-4.238v-1.178l1.242.009,5.407-.009v1.17l-5.407.008Z" transform="translate(-75.053 -308.006)" fill="#ae4426"/>
    </g>
    <g id="Group_255" data-name="Group 255" transform="translate(62.628 32.9)">
      <path id="Path_1857" data-name="Path 1857" d="M131.77,84.4c8.576-.677,30.252,1.807,38.72,3.335,5.022.906,10,2.2,15.1,2.416,4.7.2,33.858-1.153,38.558-1.312" transform="translate(-19.595 -5.376)" fill="none" stroke="#fcf8f7" stroke-miterlimit="10" stroke-width="0.464"/>
      <path id="Path_1858" data-name="Path 1858" d="M140.939,84.575c-9.65.23-25.96,6.1-35.6,6.632-4.843.268-9.672-.561-14.517-.8-10.15-.507-33.663-.046-43.615,2.011" transform="translate(-47.21 -5.28)" fill="none" stroke="#fcf8f7" stroke-miterlimit="10" stroke-width="0.464"/>
      <g id="Group_254" data-name="Group 254" transform="translate(83.215)">
        <path id="Path_1859" data-name="Path 1859" d="M120.667,44.437c.4-.7,11.675-.8,13.115,0s3.039,66.853,2.239,67.812-16.473,2.08-17.592.96S119.289,46.862,120.667,44.437Z" transform="translate(-107.274 -18.573)" fill="none" stroke="#fcf8f7" stroke-miterlimit="10" stroke-width="0.464"/>
        <path id="Path_1860" data-name="Path 1860" d="M127.742,97.8s.235-5.852-.244-6.092-3.2-.442-3.639,0c-.24.24,0,6.345,0,6.345" transform="translate(-105.428 -3.035)" fill="none" stroke="#fcf8f7" stroke-miterlimit="10" stroke-width="0.464"/>
        <path id="Path_1861" data-name="Path 1861" d="M120.26,91.882a1.166,1.166,0,0,1,1-.161c.28.121.08,3.039,0,3.279s-.675.456-.84.159A16.409,16.409,0,0,1,120.26,91.882Z" transform="translate(-106.587 -2.963)" fill="none" stroke="#fcf8f7" stroke-miterlimit="10" stroke-width="0.464"/>
        <path id="Path_1862" data-name="Path 1862" d="M127.45,74.685c.119-.28.88-.32,1.079-.2a12.081,12.081,0,0,1,0,3.8c-.2.2-.6.04-.8,0A22.124,22.124,0,0,1,127.45,74.685Z" transform="translate(-104.22 -8.596)" fill="none" stroke="#fcf8f7" stroke-miterlimit="10" stroke-width="0.464"/>
        <path id="Path_1863" data-name="Path 1863" d="M123.855,47.134c.119-.24,1.04-.08,1.279,0s-.119,3.6-.2,3.838-.88.361-1.08.24A27.7,27.7,0,0,1,123.855,47.134Z" transform="translate(-105.424 -17.549)" fill="none" stroke="#fcf8f7" stroke-miterlimit="10" stroke-width="0.464"/>
        <path id="Path_1864" data-name="Path 1864" d="M126.184,33.209c.561,0,6.557,5.8,6.317,6.4-.034.088-.326.163-.8.229-2.777.383-11.805.391-12.113.05C119.227,39.485,125.3,33.209,126.184,33.209Z" transform="translate(-106.793 -22.055)" fill="none" stroke="#fcf8f7" stroke-miterlimit="10" stroke-width="0.464"/>
        <line id="Line_950" data-name="Line 950" y1="7.743" transform="translate(25.145 17.743)" fill="none" stroke="#fcf8f7" stroke-miterlimit="10" stroke-width="0.464"/>
        <path id="Path_1865" data-name="Path 1865" d="M120.819,32.879c.161-.08,10.276-3.438,10.276-3.438" transform="translate(-106.386 -23.286)" fill="none" stroke="#fcf8f7" stroke-miterlimit="10" stroke-width="0.464"/>
        <line id="Line_951" data-name="Line 951" x1="0.18" y2="3.279" transform="translate(19.391 7.875)" fill="none" stroke="#fcf8f7" stroke-miterlimit="10" stroke-width="0.464"/>
        <line id="Line_952" data-name="Line 952" x1="0.335" y2="23.868" transform="translate(10.515)" fill="none" stroke="#fcf8f7" stroke-miterlimit="10" stroke-width="0.464"/>
        <line id="Line_953" data-name="Line 953" x2="3.2" y2="3.271" transform="translate(10.682 12.955)" fill="none" stroke="#fcf8f7" stroke-miterlimit="10" stroke-width="0.464"/>
        <line id="Line_954" data-name="Line 954" y1="7.436" x2="0.169" transform="translate(14.264 18.19)" fill="none" stroke="#fcf8f7" stroke-miterlimit="10" stroke-width="0.464"/>
        <path id="Path_1866" data-name="Path 1866" d="M132.372,30.034V55.622" transform="translate(-102.613 -23.092)" fill="none" stroke="#fcf8f7" stroke-miterlimit="10" stroke-width="0.464"/>
        <line id="Line_955" data-name="Line 955" y1="1.915" x2="4.615" transform="translate(25.145 14.676)" fill="none" stroke="#fcf8f7" stroke-miterlimit="10" stroke-width="0.464"/>
        <line id="Line_956" data-name="Line 956" y1="1.79" x2="2.613" transform="translate(27.146 28.266)" fill="none" stroke="#fcf8f7" stroke-miterlimit="10" stroke-width="0.464"/>
        <line id="Line_957" data-name="Line 957" x1="0.142" y2="4.56" transform="translate(16.989 18.19)" fill="none" stroke="#fcf8f7" stroke-miterlimit="10" stroke-width="0.464"/>
        <line id="Line_958" data-name="Line 958" y2="7.296" transform="translate(21.31 18.077)" fill="none" stroke="#fcf8f7" stroke-miterlimit="10" stroke-width="0.464"/>
        <path id="Path_1867" data-name="Path 1867" d="M122.232,41.934a1.322,1.322,0,0,1,1.719,1.319c0,.923.086,1.171-.974,1.271s-1.466-.292-1.466-1.2S121.552,42.134,122.232,41.934Z" transform="translate(-106.16 -19.226)" fill="none" stroke="#fcf8f7" stroke-miterlimit="10" stroke-width="0.464"/>
        <line id="Line_959" data-name="Line 959" x2="3.741" y2="2.758" transform="translate(10.538 22.188)" fill="none" stroke="#fcf8f7" stroke-miterlimit="10" stroke-width="0.464"/>
        <path id="Path_1868" data-name="Path 1868" d="M127.678,42.223a.993.993,0,0,1,1.173,1.029c.027.474-.184.983-1.012,1.166s-1.173-.73-1.2-1.1S126.344,42.454,127.678,42.223Z" transform="translate(-104.498 -19.118)" fill="none" stroke="#fcf8f7" stroke-miterlimit="10" stroke-width="0.464"/>
        <path id="Path_1869" data-name="Path 1869" d="M134.382,38.55c.24-.353,4-1.518,4-1.518" transform="translate(-101.957 -20.807)" fill="none" stroke="#fcf8f7" stroke-miterlimit="10" stroke-width="0.464"/>
        <line id="Line_960" data-name="Line 960" x2="4.478" transform="translate(34.424 20.571)" fill="none" stroke="#fcf8f7" stroke-miterlimit="10" stroke-width="0.464"/>
        <line id="Line_961" data-name="Line 961" x2="3.598" y2="1.281" transform="translate(32.425 24.205)" fill="none" stroke="#fcf8f7" stroke-miterlimit="10" stroke-width="0.464"/>
        <line id="Line_962" data-name="Line 962" x1="3.279" y1="1.351" transform="translate(4.358 15.633)" fill="none" stroke="#fcf8f7" stroke-miterlimit="10" stroke-width="0.464"/>
        <path id="Path_1870" data-name="Path 1870" d="M114.976,40.308h-5.037" transform="translate(-109.939 -19.737)" fill="none" stroke="#fcf8f7" stroke-miterlimit="10" stroke-width="0.464"/>
        <line id="Line_963" data-name="Line 963" x1="3.279" y2="2.059" transform="translate(3.398 23.567)" fill="none" stroke="#fcf8f7" stroke-miterlimit="10" stroke-width="0.464"/>
      </g>
    </g>
  </g>
</svg>
