<svg xmlns="http://www.w3.org/2000/svg" width="378.332" height="484.931" viewBox="0 0 378.332 484.931">
  <g id="Group_89" data-name="Group 89" transform="translate(0 48.986) rotate(-9)">
    <g id="Group_85" data-name="Group 85">
      <rect id="Rectangle_13" data-name="Rectangle 13" width="313.14" height="441.378" fill="#fcf7f6"/>
    </g>
    <path id="Path_639" data-name="Path 639" d="M298.677,111.872c-5.811-2.184-13.152-5.21-13.476-5.966-.508-1.186,21.16-2.123,21.013-6.152s-23.386-9.269-23.386-10.368,17.347-2.278,17.286-5.679-18.981-9.32-18.981-10.507,15.653-4.055,15.591-6.948-17.285-5.592-17.454-5.694,11.184-.844,11.377-2.759S274.718,37.17,273.023,37.05,262.07,53.621,261.33,56.829s7.772,2.136,7.941,3.729S251.964,63.3,251.987,66.42s13.727,5.762,14.065,7.965-19.851,4.07-20.505,7.579,18.3,5.809,18.133,7.42-25.952,4.755-25.419,7.709,22.2,5.931,22.369,8.12c.075.975-5.841,2.5-12.422,4.051-21.769-7.276-38.459-11.154-48.757-12.44-12.586-1.573-51.958-1.8-71.552.524-8.66,1.025-30.523,2.371-47.919,9.46-4.654.4-8.725.815-8.725-.48,0-2.034,23.833-8.358,23.833-13.315,0-3.685-29.044-6.451-29.171-11.977-.048-2.1,25.358-4.946,24.85-10.9S67.38,59.945,65.855,57.513s15.992-8.255,16.268-13.106c.127-2.233-22.5-9.5-23-11.592s15.252-.97,14.743-4.493S57.212-.087,54.416,0C51.7.084,31.974,20.759,31.538,24.586c-.381,3.354,13.821,5.05,13.727,8.229-.127,4.276-21.47,6.588-21.607,12.708-.06,2.7,16.015,7.148,16.015,11.99S17.437,65.307,16.8,69.883,37.955,79.235,38.463,82.9,10.5,86.248,8.976,89.385s21.353,11.1,20.844,13.833c-.317,1.708-10.639,4.745-18.356,6.788C5.77,109.216,0,103.605,0,103.605V266.213H313.14V112.56S308.156,113.533,298.677,111.872Z" transform="translate(0 175.165)" fill="#e6c2b0"/>
    <text id="KIKUT" transform="translate(149.415 377.017)" fill="#212e3b" font-size="1" font-family="SulphurPoint-Bold, Sulphur Point" font-weight="700" letter-spacing="0.025em"><tspan x="0" y="0">KIKUT</tspan></text>
    <g id="kikut_kolor" data-name="kikut kolor" transform="translate(127.462 83.822)">
      <path id="Path_640" data-name="Path 640" d="M3.866,2.835C7.933-2,64.1.4,66.711,2.357s7.185,156.967,5.224,161.5-62.714,5.661-68.069-3.444S-1.085,8.721,3.866,2.835Z" transform="translate(0 69.858)" fill="#efe8e5"/>
      <path id="Path_641" data-name="Path 641" d="M3.976,2.311C6.692-.576,55.912-.958,57.4,2.311s.835,31.419-.6,35.308S1.153,40.85.251,36.6.952,5.525,3.976,2.311Z" transform="translate(4.36 32.017)" fill="#ad6e42"/>
      <g id="Group_86" data-name="Group 86" transform="translate(27.823 42.151)">
        <path id="Path_642" data-name="Path 642" d="M0,13.037S.678-.32,3.932.006s3.693,11.891,3,13.031S.678,14.341,0,13.037Z" transform="translate(0 0)" fill="#d2c3b8"/>
        <line id="Line_327" data-name="Line 327" x2="6.563" y2="0.433" transform="translate(0.649 6.977)" fill="#d2c3b8"/>
        <line id="Line_328" data-name="Line 328" x1="0.325" y2="13.948" transform="translate(3.606 0.006)" fill="#d2c3b8"/>
      </g>
      <path id="Path_643" data-name="Path 643" d="M.217,2.162C1.673-.87,14.275-.208,15.255,1.1s-.013,16.4,0,17.49-11.769,1.145-12.586,0S-.764,4.205.217,2.162Z" transform="translate(24.284 217.214)" fill="#212e3b"/>
      <path id="Path_644" data-name="Path 644" d="M22.425,0c2.629.458,22.494,7.761,21.666,9S2.188,12.771.128,11.8,21.5-.16,22.425,0Z" transform="translate(8.13 0)" fill="#efe8e5"/>
    </g>
    <g id="kikut-2" data-name="kikut" transform="translate(106.651 65.062)">
      <path id="Path_645" data-name="Path 645" d="M9.25,1.233C11.088-.9,61.161.065,62.905,1.651S78.606,199,75.989,200.475s-68.905,4.414-74.575,0c-2.891-2.25-.78-48.034,1.274-97.423C4.663,55.584,6.472,4.459,9.25,1.233Z" transform="translate(14.968 53.108)" fill="none" stroke="#212e3b" stroke-miterlimit="10" stroke-width="1"/>
      <path id="Path_646" data-name="Path 646" d="M.218,17.778s-.49-12.629,0-15.572,11.769-2.942,14.221,0S16.4,17.448,16.4,17.448" transform="translate(46.074 238.136)" fill="none" stroke="#212e3b" stroke-miterlimit="10" stroke-width="1"/>
      <line id="Line_329" data-name="Line 329" y1="23.102" transform="translate(31.58 30.005)" fill="none" stroke="#212e3b" stroke-miterlimit="10" stroke-width="1"/>
      <line id="Line_330" data-name="Line 330" y2="23.938" transform="translate(71.138 29.917)" fill="none" stroke="#212e3b" stroke-miterlimit="10" stroke-width="1"/>
      <path id="Path_647" data-name="Path 647" d="M22.974.006C24.9-.292,48.148,9.92,47.493,10.683s-45.769,1.271-47.4,0S19.706.515,22.974.006Z" transform="translate(27.894 18.852)" fill="none" stroke="#212e3b" stroke-miterlimit="10" stroke-width="1"/>
      <path id="Path_648" data-name="Path 648" d="M.385,15.074S-.333,2.8.192,1.521C1.564.76,17.56.2,26.312.014,32.941-.124,51.486.8,53.64,1.51c.711,1.09-1.1,14.468-1.1,14.468" transform="translate(25.336 38.781)" fill="none" stroke="#212e3b" stroke-miterlimit="10" stroke-width="1"/>
      <path id="Path_649" data-name="Path 649" d="M0,1.595S21.546,0,26.215,0,53.324,1.2,53.324,1.2" transform="translate(25.433 46.096)" fill="none" stroke="#212e3b" stroke-miterlimit="10" stroke-width="1"/>
      <path id="Path_650" data-name="Path 650" d="M.3,0S.107,12.963,0,14" transform="translate(41.278 39.114)" fill="none" stroke="#212e3b" stroke-miterlimit="10" stroke-width="1"/>
      <line id="Line_331" data-name="Line 331" x2="1.458" y2="14.455" transform="translate(58.021 38.877)" fill="none" stroke="#212e3b" stroke-miterlimit="10" stroke-width="1"/>
      <line id="Line_332" data-name="Line 332" x1="0.582" y2="20.954" transform="translate(36.309 3.814)" fill="none" stroke="#212e3b" stroke-miterlimit="10" stroke-width="1"/>
      <path id="Path_651" data-name="Path 651" d="M.021,0C-.2.326,1.333,22.415,1.333,22.415" transform="translate(39.732 0)" fill="none" stroke="#212e3b" stroke-miterlimit="10" stroke-width="1"/>
      <path id="Path_652" data-name="Path 652" d="M1.2,0,0,15.035V47.278" transform="translate(64.055 6.211)" fill="none" stroke="#212e3b" stroke-miterlimit="10" stroke-width="1"/>
      <g id="Group_87" data-name="Group 87" transform="translate(47.392 60.911)">
        <path id="Path_653" data-name="Path 653" d="M0,13.037S.679-.32,3.932.006s3.693,11.891,3,13.031S.679,14.341,0,13.037Z" transform="translate(0 0)" fill="none" stroke="#212e3b" stroke-miterlimit="10" stroke-width="1"/>
        <line id="Line_333" data-name="Line 333" x2="6.563" y2="0.433" transform="translate(0.65 6.977)" fill="none" stroke="#212e3b" stroke-miterlimit="10" stroke-width="1"/>
        <line id="Line_334" data-name="Line 334" x1="0.325" y2="13.948" transform="translate(3.606 0.006)" fill="none" stroke="#212e3b" stroke-miterlimit="10" stroke-width="1"/>
      </g>
      <g id="Group_88" data-name="Group 88" transform="translate(27.753 102.02)">
        <path id="Path_654" data-name="Path 654" d="M2.232,0C5.145.072,6.425,1.226,6.013,2.3S2.079,4.748.547,3.982,1.064-.028,2.232,0Z" transform="translate(1.587 4.895)" fill="none" stroke="#212e3b" stroke-miterlimit="10" stroke-width="1"/>
        <path id="Path_655" data-name="Path 655" d="M2.232,0C5.145.072,6.425,1.226,6.013,2.3S2.079,4.748.547,3.982,1.064-.028,2.232,0Z" transform="translate(38.242 41.245)" fill="none" stroke="#212e3b" stroke-miterlimit="10" stroke-width="1"/>
        <path id="Path_656" data-name="Path 656" d="M.746.365c.975-1.219,3.522.919,3.522,1.992S3.2,4.5,1.511,4.5-.48,1.9.746.365Z" transform="translate(0.363 65.598)" fill="none" stroke="#212e3b" stroke-miterlimit="10" stroke-width="1"/>
        <path id="Path_657" data-name="Path 657" d="M3.385.032c.875.32,3.677,2.45,3.064,3.83S.15,5.24.006,3.861,2.4-.329,3.385.032Z" transform="translate(13.951 40.9)" fill="none" stroke="#212e3b" stroke-miterlimit="10" stroke-width="1"/>
        <path id="Path_658" data-name="Path 658" d="M3.385.032c.874.321,3.676,2.451,3.064,3.83s-6.3,1.378-6.443,0S2.4-.328,3.385.032Z" transform="translate(29.762 0)" fill="none" stroke="#212e3b" stroke-miterlimit="10" stroke-width="1"/>
        <path id="Path_659" data-name="Path 659" d="M1.556.006C3.512.375,5.841,3.07,5.383,3.989s-2.688,1.378-4.56,0S.744-.146,1.556.006Z" transform="translate(23.821 88.596)" fill="none" stroke="#212e3b" stroke-miterlimit="10" stroke-width="1"/>
        <path id="Path_660" data-name="Path 660" d="M1.556.006C3.512.375,5.841,3.07,5.383,3.989S2.7,5.367.823,3.989.744-.147,1.556.006Z" transform="translate(43.915 80.888)" fill="none" stroke="#212e3b" stroke-miterlimit="10" stroke-width="1"/>
        <path id="Path_661" data-name="Path 661" d="M1.556.006C3.512.375,5.841,3.07,5.383,3.988S2.7,5.368.823,3.988.744-.147,1.556.006Z" transform="translate(15.6 71.852)" fill="none" stroke="#212e3b" stroke-miterlimit="10" stroke-width="1"/>
        <path id="Path_662" data-name="Path 662" d="M2.379.09C4.6,1.371,7.36,6.522,6.248,7.288S1.153,5.3.234,3.689,1.328-.516,2.379.09Z" transform="translate(43.384 114.863)" fill="none" stroke="#212e3b" stroke-miterlimit="10" stroke-width="1"/>
        <path id="Path_663" data-name="Path 663" d="M1.254.077C2.566-.4,4.614,1.477,4.92,2.7S4.614,5.46,2.47,5.46-1.186.975,1.254.077Z" transform="translate(6.058 109.403)" fill="none" stroke="#212e3b" stroke-miterlimit="10" stroke-width="1"/>
        <path id="Path_664" data-name="Path 664" d="M1.254.077C2.566-.4,4.614,1.478,4.92,2.7S4.614,5.461,2.469,5.461-1.186.976,1.254.077Z" transform="translate(0 132.652)" fill="none" stroke="#212e3b" stroke-miterlimit="10" stroke-width="1"/>
        <path id="Path_665" data-name="Path 665" d="M2.443.013c1.814.337,3.064.766,2.6,2.45S1.9,4.455.488,3.995,1.047-.247,2.443.013Z" transform="translate(44.064 18.761)" fill="none" stroke="#212e3b" stroke-miterlimit="10" stroke-width="1"/>
        <path id="Path_666" data-name="Path 666" d="M2.526.036c1.4.621,1.067,2.145,1.605,3.37S1.78,7.376.391,4.779,1.695-.332,2.526.036Z" transform="translate(39.187 61.989)" fill="none" stroke="#212e3b" stroke-miterlimit="10" stroke-width="1"/>
        <path id="Path_667" data-name="Path 667" d="M2.526.036c1.4.621,1.067,2.144,1.605,3.37S1.78,7.376.391,4.778,1.695-.332,2.526.036Z" transform="translate(2.533 29.811)" fill="none" stroke="#212e3b" stroke-miterlimit="10" stroke-width="1"/>
      </g>
      <line id="Line_335" data-name="Line 335" y1="6.401" x2="10.497" transform="translate(102.652 23.909)" fill="none" stroke="#212e3b" stroke-miterlimit="10" stroke-width="1"/>
      <line id="Line_336" data-name="Line 336" y1="0.926" x2="11.114" transform="translate(102.652 35.949)" fill="none" stroke="#212e3b" stroke-miterlimit="10" stroke-width="1"/>
      <line id="Line_337" data-name="Line 337" x2="7.255" y2="2.455" transform="translate(95.397 46.77)" fill="none" stroke="#212e3b" stroke-miterlimit="10" stroke-width="1"/>
      <line id="Line_338" data-name="Line 338" x1="9.571" y1="4.631" transform="translate(6.792 23.909)" fill="none" stroke="#212e3b" stroke-miterlimit="10" stroke-width="1"/>
      <line id="Line_339" data-name="Line 339" x1="12.503" transform="translate(0 36.875)" fill="none" stroke="#212e3b" stroke-miterlimit="10" stroke-width="1"/>
      <line id="Line_340" data-name="Line 340" x1="5.094" y2="3.129" transform="translate(8.644 46.096)" fill="none" stroke="#212e3b" stroke-miterlimit="10" stroke-width="1"/>
    </g>
  </g>
</svg>
