<?xml version="1.0" encoding="utf-8"?>
<!-- Generator: Adobe Illustrator 24.0.3, SVG Export Plug-In . SVG Version: 6.00 Build 0)  -->
<svg version="1.1" id="Layer_1" xmlns="http://www.w3.org/2000/svg" xmlns:xlink="http://www.w3.org/1999/xlink" x="0px" y="0px"
	 viewBox="0 0 149.6 191" style="enable-background:new 0 0 149.6 191;" xml:space="preserve">
<style type="text/css">
	.st0{fill:#2E3C4B;}
	.st1{enable-background:new    ;}
	.st2{fill:#FCF8F7;}
	.st3{fill:#E5A34C;}
	.st4{fill:#AF4427;}
	.st5{fill:#AE4426;}
</style>
<g id="Group_422" transform="matrix(0.985, -0.174, 0.174, 0.985, 0, 21.088)">
	
		<rect id="Rectangle_79" x="0" y="0" transform="matrix(-1 2.527765e-06 -2.527765e-06 -1 121.4422 172.5029)" class="st0" width="121.4" height="172.5"/>
	<g id="Group_250" transform="translate(8.798 67.549)">
		<g class="st1">
			<path class="st2" d="M15.5,9.4l0,3.7l-1.4,0l0-10.6l3,0c0.4,0,0.9,0.1,1.3,0.3c0.4,0.2,0.8,0.4,1.1,0.7c0.3,0.3,0.6,0.7,0.7,1.1
				c0.2,0.4,0.3,0.9,0.3,1.3c0,0.5-0.1,0.9-0.3,1.3c-0.2,0.4-0.4,0.8-0.7,1.1c-0.3,0.3-0.7,0.6-1.1,0.8c-0.4,0.2-0.8,0.3-1.3,0.3
				L15.5,9.4z M15.5,3.9l0,4.1l1.6,0c0.6,0,1-0.2,1.4-0.6c0.4-0.4,0.6-0.9,0.6-1.4c0-0.6-0.2-1-0.6-1.4c-0.4-0.4-0.9-0.6-1.4-0.6
				L15.5,3.9z"/>
			<path class="st2" d="M28.2,13.1l-1.3-3.7l-3.3,0l-1.3,3.7l-1.5,0l3.7-10.6l1.6,0l3.7,10.6L28.2,13.1z M25.2,4.5L24,8l2.4,0
				L25.2,4.5z"/>
			<path class="st2" d="M36.1,4.7c-0.2-0.3-0.4-0.5-0.7-0.6c-0.3-0.1-0.6-0.2-1.1-0.2c-0.7,0-1.2,0.2-1.5,0.5
				c-0.3,0.3-0.4,0.7-0.4,1.2c0,0.3,0,0.5,0.1,0.7c0.1,0.2,0.2,0.3,0.4,0.5c0.3,0.2,0.7,0.3,1.3,0.4c0.6,0.1,1.1,0.1,1.5,0.2
				c0.4,0.1,0.8,0.3,1.1,0.5c0.8,0.5,1.2,1.3,1.2,2.3c0,0.4-0.1,0.8-0.2,1.2c-0.2,0.4-0.4,0.7-0.7,1c-0.3,0.3-0.7,0.6-1.2,0.7
				c-0.5,0.2-0.9,0.2-1.4,0.2c-1.1,0-2-0.3-2.7-1c-0.6-0.6-0.9-1.3-1-2.3l0,0l1.4,0c0.1,0.6,0.3,1,0.6,1.3c0.4,0.4,1,0.6,1.7,0.6
				c0.7,0,1.2-0.2,1.6-0.5c0.4-0.3,0.6-0.7,0.6-1.2c0-0.2,0-0.4-0.1-0.6c-0.1-0.2-0.2-0.3-0.3-0.4c-0.4-0.3-1-0.5-2-0.5
				c-1-0.1-1.8-0.4-2.3-0.9c-0.5-0.5-0.8-1.2-0.8-2.1c0-0.9,0.3-1.7,0.8-2.2c0.6-0.6,1.4-0.9,2.5-0.9c1.1,0,2,0.3,2.6,1
				c0.5,0.6,0.9,1.4,1,2.3l-1.4,0C36.4,5.3,36.2,5,36.1,4.7z"/>
			<path class="st2" d="M39.6,11.8L45,3.9l-5.4,0l0-1.4l7.2,0l0,1.3l-5.4,7.9l5.4,0l0,1.5l-7.2,0L39.6,11.8z"/>
			<path class="st2" d="M50,9.4l0,3.7l-1.4,0l0-10.6l3,0c0.4,0,0.9,0.1,1.3,0.3c0.4,0.2,0.8,0.4,1.1,0.7c0.3,0.3,0.6,0.7,0.7,1.1
				C54.9,5,55,5.5,55,5.9c0,0.5-0.1,0.9-0.3,1.3c-0.2,0.4-0.4,0.8-0.7,1.1c-0.3,0.3-0.7,0.6-1.1,0.8c-0.4,0.2-0.8,0.3-1.3,0.3
				L50,9.4z M50,3.9L50,8l1.6,0c0.6,0,1-0.2,1.4-0.6c0.4-0.4,0.6-0.9,0.6-1.4c0-0.6-0.2-1-0.6-1.4c-0.4-0.4-0.9-0.6-1.4-0.6L50,3.9z
				"/>
			<path class="st2" d="M60,12.8c-0.6-0.3-1.2-0.7-1.7-1.2c-0.5-0.5-0.9-1.1-1.2-1.7c-0.3-0.7-0.4-1.3-0.4-2.1
				c0-0.7,0.1-1.4,0.4-2.1c0.3-0.6,0.7-1.2,1.2-1.7c0.5-0.5,1.1-0.9,1.7-1.2c0.6-0.3,1.3-0.4,2.1-0.4c0.7,0,1.4,0.1,2.1,0.4
				c0.6,0.3,1.2,0.7,1.7,1.2c0.5,0.5,0.9,1.1,1.2,1.7c0.3,0.7,0.4,1.3,0.4,2.1c0,0.7-0.1,1.4-0.4,2.1c-0.3,0.7-0.7,1.2-1.2,1.7
				c-0.5,0.5-1.1,0.9-1.7,1.2c-0.7,0.3-1.3,0.4-2.1,0.4C61.3,13.2,60.6,13,60,12.8z M60.5,4.2c-0.5,0.2-0.9,0.5-1.3,0.8
				c-0.4,0.4-0.6,0.8-0.8,1.3c-0.2,0.5-0.3,1-0.3,1.5c0,0.5,0.1,1,0.3,1.5c0.2,0.5,0.5,0.9,0.8,1.3c0.4,0.4,0.8,0.6,1.3,0.8
				c0.5,0.2,1,0.3,1.5,0.3c0.5,0,1-0.1,1.5-0.3c0.5-0.2,0.9-0.5,1.3-0.8c0.4-0.4,0.6-0.8,0.8-1.3c0.2-0.5,0.3-1,0.3-1.5
				c0-0.5-0.1-1-0.3-1.5c-0.2-0.5-0.5-0.9-0.8-1.3c-0.4-0.4-0.8-0.6-1.3-0.8s-1-0.3-1.5-0.3C61.5,3.9,61,4,60.5,4.2z"/>
			<path class="st2" d="M75.6,13.1l-1.9,0l-3.1-3.6l0,3.6l-1.4,0l0-10.6l2.7,0c0.5,0,0.9,0.1,1.3,0.3c0.4,0.2,0.8,0.4,1.1,0.7
				c0.3,0.3,0.5,0.7,0.7,1.1C75.3,5,75.3,5.5,75.3,6c0,0.4-0.1,0.9-0.2,1.3C75,7.6,74.8,8,74.5,8.3c-0.3,0.3-0.6,0.6-1,0.8
				c-0.4,0.2-0.8,0.3-1.2,0.4L75.6,13.1z M70.6,3.9l0,4.1L72,8c0.3,0,0.5-0.1,0.8-0.2c0.2-0.1,0.5-0.3,0.6-0.4
				c0.2-0.2,0.3-0.4,0.4-0.7c0.1-0.2,0.2-0.5,0.2-0.8c0-0.5-0.2-1-0.6-1.4c-0.2-0.2-0.4-0.3-0.6-0.4C72.5,4,72.2,3.9,72,3.9
				L70.6,3.9z"/>
			<path class="st2" d="M81.2,3.8l0,9.3l-1.4,0l0-9.3l-2.6,0l0-1.4l6.6,0l0,1.4L81.2,3.8z"/>
		</g>
		<g class="st1">
			<path class="st2" d="M18.7,32.5l0-2.6l-1,1.4l-0.3,0l-1-1.4l0,2.6l-0.5,0l0-3.3l0.5,0l1.1,1.6l1.1-1.6l0.5,0l0,3.3L18.7,32.5z"/>
			<path class="st2" d="M19.7,32.5l0-3.3l0.4,0l0,3.3L19.7,32.5z"/>
			<path class="st2" d="M22.7,32.1l0,0.5l-1.4,0l0-0.9L21,32.2l-0.4,0l0.7-1.2l0-1.7l0.4,0l0,0.9l0.4-0.7l0.4,0l-0.8,1.5l0,1.2
				L22.7,32.1z"/>
			<path class="st2" d="M24.1,32.4c-0.2-0.1-0.4-0.2-0.5-0.4c-0.2-0.2-0.3-0.3-0.4-0.5c-0.1-0.2-0.1-0.4-0.1-0.6
				c0-0.2,0-0.4,0.1-0.6c0.1-0.2,0.2-0.4,0.4-0.5c0.2-0.2,0.3-0.3,0.5-0.4c0.2-0.1,0.4-0.1,0.6-0.1c0.2,0,0.4,0,0.6,0.1
				c0.2,0.1,0.4,0.2,0.5,0.4c0.2,0.2,0.3,0.3,0.4,0.5c0.1,0.2,0.1,0.4,0.1,0.6c0,0.2,0,0.4-0.1,0.6c-0.1,0.2-0.2,0.4-0.4,0.5
				c-0.2,0.2-0.3,0.3-0.5,0.4c-0.2,0.1-0.4,0.1-0.6,0.1C24.5,32.6,24.3,32.5,24.1,32.4z M24.3,29.8c-0.1,0.1-0.3,0.1-0.4,0.3
				c-0.1,0.1-0.2,0.2-0.3,0.4c-0.1,0.1-0.1,0.3-0.1,0.5c0,0.2,0,0.3,0.1,0.5c0.1,0.2,0.1,0.3,0.3,0.4c0.1,0.1,0.2,0.2,0.4,0.3
				c0.1,0.1,0.3,0.1,0.5,0.1c0.2,0,0.3,0,0.5-0.1c0.1-0.1,0.3-0.1,0.4-0.3c0.1-0.1,0.2-0.2,0.3-0.4c0.1-0.2,0.1-0.3,0.1-0.5
				c0-0.2,0-0.3-0.1-0.5c-0.1-0.1-0.1-0.3-0.3-0.4c-0.1-0.1-0.2-0.2-0.4-0.3c-0.1-0.1-0.3-0.1-0.5-0.1
				C24.6,29.7,24.4,29.7,24.3,29.8z"/>
			<path class="st2" d="M28.5,29.9c-0.1-0.1-0.1-0.2-0.2-0.2c-0.1,0-0.2-0.1-0.3-0.1c-0.2,0-0.4,0-0.5,0.1c-0.1,0.1-0.1,0.2-0.1,0.4
				c0,0.1,0,0.2,0,0.2c0,0.1,0.1,0.1,0.1,0.1c0.1,0.1,0.2,0.1,0.4,0.1c0.2,0,0.3,0,0.5,0.1c0.1,0,0.2,0.1,0.3,0.1
				c0.2,0.2,0.4,0.4,0.4,0.7c0,0.1,0,0.2-0.1,0.4c0,0.1-0.1,0.2-0.2,0.3c-0.1,0.1-0.2,0.2-0.4,0.2c-0.1,0-0.3,0.1-0.5,0.1
				c-0.4,0-0.6-0.1-0.8-0.3c-0.2-0.2-0.3-0.4-0.3-0.7l0,0l0.4,0c0,0.2,0.1,0.3,0.2,0.4c0.1,0.1,0.3,0.2,0.5,0.2c0.2,0,0.4,0,0.5-0.1
				c0.1-0.1,0.2-0.2,0.2-0.4c0-0.1,0-0.1,0-0.2c0-0.1-0.1-0.1-0.1-0.1c-0.1-0.1-0.3-0.1-0.6-0.2c-0.3,0-0.6-0.1-0.7-0.3
				c-0.2-0.2-0.2-0.4-0.2-0.7c0-0.3,0.1-0.5,0.3-0.7c0.2-0.2,0.4-0.3,0.8-0.3c0.3,0,0.6,0.1,0.8,0.3c0.2,0.2,0.3,0.4,0.3,0.7l-0.5,0
				C28.6,30.1,28.6,30,28.5,29.9z M28.1,29l-0.3,0l0.2-0.7l0.4,0L28.1,29z"/>
			<path class="st2" d="M31.5,32.5L30,30.1l0,2.4l-0.4,0l0-3.3l0.4,0l1.6,2.5l0-2.5l0.4,0l0,3.3L31.5,32.5z"/>
			<path class="st2" d="M32.5,32.5l0-3.3l0.4,0l0,3.3L32.5,32.5z"/>
			<path class="st2" d="M34.9,32.5l-1.1-1.2l0,1.2l-0.4,0l0-3.3l0.4,0l0,1.3l1.1-1.3l0.6,0L34,30.9l1.4,1.6L34.9,32.5z"/>
			<path class="st2" d="M38,32.5l-0.4-1.2l-1,0l-0.4,1.2l-0.5,0l1.2-3.3l0.5,0l1.2,3.3L38,32.5z M37,29.9L36.7,31l0.8,0L37,29.9z"/>
			<path class="st2" d="M41.1,32.5l0-3.3l0.4,0l0,2.9l1,0l0,0.5L41.1,32.5z"/>
			<path class="st2" d="M45.3,32.5l-0.4-1.2l-1,0l-0.4,1.2l-0.5,0l1.2-3.3l0.5,0l1.2,3.3L45.3,32.5z M44.4,29.9L44,31l0.8,0
				L44.4,29.9z"/>
			<path class="st2" d="M47.1,29.6l0,2.9l-0.4,0l0-2.9l-0.8,0l0-0.4l2,0l0,0.4L47.1,29.6z"/>
			<path class="st2" d="M50.1,32.5l-0.4-1.2l-1,0l-0.4,1.2l-0.5,0l1.2-3.3l0.5,0l1.2,3.3L50.1,32.5z M49.2,29.9L48.8,31l0.8,0
				L49.2,29.9z"/>
			<path class="st2" d="M52.9,32.5l-0.6,0l-1-1.1l0,1.1l-0.4,0l0-3.3l0.9,0c0.1,0,0.3,0,0.4,0.1c0.1,0.1,0.2,0.1,0.3,0.2
				c0.1,0.1,0.2,0.2,0.2,0.4c0.1,0.1,0.1,0.3,0.1,0.4c0,0.1,0,0.3-0.1,0.4s-0.1,0.2-0.2,0.3c-0.1,0.1-0.2,0.2-0.3,0.2
				c-0.1,0.1-0.2,0.1-0.4,0.1L52.9,32.5z M51.4,29.7l0,1.3l0.4,0c0.1,0,0.2,0,0.2-0.1c0.1,0,0.1-0.1,0.2-0.1
				c0.1-0.1,0.1-0.1,0.1-0.2c0-0.1,0-0.2,0-0.2c0-0.2-0.1-0.3-0.2-0.5c-0.1-0.1-0.1-0.1-0.2-0.1c-0.1,0-0.2-0.1-0.2-0.1L51.4,29.7z"
				/>
			<path class="st2" d="M55.3,32.5l-1.5-2.4l0,2.4l-0.4,0l0-3.3l0.4,0l1.6,2.5l0-2.5l0.4,0l0,3.3L55.3,32.5z"/>
			<path class="st2" d="M56.3,32.5l0-3.3l0.4,0l0,3.3L56.3,32.5z"/>
			<path class="st2" d="M62.2,32.5l0-2.6l-1,1.4l-0.3,0l-1-1.4l0,2.6l-0.5,0l0-3.3l0.5,0l1.1,1.6l1.1-1.6l0.5,0l0,3.3L62.2,32.5z"/>
			<path class="st2" d="M64.2,32.4c-0.2-0.1-0.4-0.2-0.5-0.4c-0.2-0.2-0.3-0.3-0.4-0.5c-0.1-0.2-0.1-0.4-0.1-0.6
				c0-0.2,0-0.4,0.1-0.6c0.1-0.2,0.2-0.4,0.4-0.5c0.2-0.2,0.3-0.3,0.5-0.4c0.2-0.1,0.4-0.1,0.6-0.1c0.2,0,0.4,0,0.6,0.1
				c0.2,0.1,0.4,0.2,0.5,0.4c0.2,0.2,0.3,0.3,0.4,0.5c0.1,0.2,0.1,0.4,0.1,0.6c0,0.2,0,0.4-0.1,0.6c-0.1,0.2-0.2,0.4-0.4,0.5
				c-0.2,0.2-0.3,0.3-0.5,0.4c-0.2,0.1-0.4,0.1-0.6,0.1C64.6,32.6,64.4,32.5,64.2,32.4z M64.3,29.8c-0.1,0.1-0.3,0.1-0.4,0.3
				c-0.1,0.1-0.2,0.2-0.3,0.4c-0.1,0.1-0.1,0.3-0.1,0.5c0,0.2,0,0.3,0.1,0.5c0.1,0.2,0.1,0.3,0.3,0.4c0.1,0.1,0.2,0.2,0.4,0.3
				c0.1,0.1,0.3,0.1,0.5,0.1c0.2,0,0.3,0,0.5-0.1c0.1-0.1,0.3-0.1,0.4-0.3c0.1-0.1,0.2-0.2,0.3-0.4c0.1-0.2,0.1-0.3,0.1-0.5
				c0-0.2,0-0.3-0.1-0.5c-0.1-0.1-0.1-0.3-0.3-0.4c-0.1-0.1-0.2-0.2-0.4-0.3c-0.1-0.1-0.3-0.1-0.5-0.1
				C64.6,29.7,64.5,29.7,64.3,29.8z"/>
			<path class="st2" d="M68.9,32.5l-0.6,0l-1-1.1l0,1.1l-0.4,0l0-3.3l0.9,0c0.1,0,0.3,0,0.4,0.1c0.1,0.1,0.2,0.1,0.3,0.2
				c0.1,0.1,0.2,0.2,0.2,0.4c0.1,0.1,0.1,0.3,0.1,0.4c0,0.1,0,0.3-0.1,0.4c0,0.1-0.1,0.2-0.2,0.3c-0.1,0.1-0.2,0.2-0.3,0.2
				c-0.1,0.1-0.2,0.1-0.4,0.1L68.9,32.5z M67.4,29.7l0,1.3l0.4,0c0.1,0,0.2,0,0.2-0.1c0.1,0,0.1-0.1,0.2-0.1
				c0.1-0.1,0.1-0.1,0.1-0.2c0-0.1,0-0.2,0-0.2c0-0.2-0.1-0.3-0.2-0.5c-0.1-0.1-0.1-0.1-0.2-0.1c-0.1,0-0.2-0.1-0.2-0.1L67.4,29.7z"
				/>
			<path class="st2" d="M71,29.9c-0.1-0.1-0.1-0.2-0.2-0.2c-0.1,0-0.2-0.1-0.3-0.1c-0.2,0-0.4,0-0.5,0.1c-0.1,0.1-0.1,0.2-0.1,0.4
				c0,0.1,0,0.2,0,0.2c0,0.1,0.1,0.1,0.1,0.1c0.1,0.1,0.2,0.1,0.4,0.1c0.2,0,0.3,0,0.5,0.1c0.1,0,0.2,0.1,0.3,0.1
				c0.2,0.2,0.4,0.4,0.4,0.7c0,0.1,0,0.2-0.1,0.4c0,0.1-0.1,0.2-0.2,0.3c-0.1,0.1-0.2,0.2-0.4,0.2c-0.1,0-0.3,0.1-0.5,0.1
				c-0.4,0-0.6-0.1-0.8-0.3c-0.2-0.2-0.3-0.4-0.3-0.7l0,0l0.4,0c0,0.2,0.1,0.3,0.2,0.4c0.1,0.1,0.3,0.2,0.5,0.2c0.2,0,0.4,0,0.5-0.1
				c0.1-0.1,0.2-0.2,0.2-0.4c0-0.1,0-0.1,0-0.2c0-0.1-0.1-0.1-0.1-0.1c-0.1-0.1-0.3-0.1-0.6-0.2c-0.3,0-0.6-0.1-0.7-0.3
				c-0.2-0.2-0.2-0.4-0.2-0.7c0-0.3,0.1-0.5,0.3-0.7c0.2-0.2,0.4-0.3,0.8-0.3c0.3,0,0.6,0.1,0.8,0.3c0.2,0.2,0.3,0.4,0.3,0.7l-0.5,0
				C71.1,30.1,71.1,30,71,29.9z"/>
			<path class="st2" d="M73.6,32.5l-1.1-1.2l0,1.2l-0.4,0l0-3.3l0.4,0l0,1.3l1.1-1.3l0.6,0l-1.4,1.7l1.4,1.6L73.6,32.5z"/>
			<path class="st2" d="M74.6,32.5l0-3.3l0.4,0l0,3.3L74.6,32.5z"/>
			<path class="st2" d="M76.5,32.4c-0.2-0.1-0.4-0.2-0.5-0.4c-0.2-0.2-0.3-0.3-0.4-0.5c-0.1-0.2-0.1-0.4-0.1-0.7
				c0-0.2,0-0.4,0.1-0.6c0.1-0.2,0.2-0.4,0.4-0.5c0.2-0.2,0.3-0.3,0.5-0.4c0.2-0.1,0.4-0.1,0.6-0.1c0.2,0,0.5,0.1,0.7,0.2
				c0.2,0.1,0.4,0.3,0.6,0.5l-0.3,0.3c-0.3-0.3-0.6-0.5-1-0.5c-0.2,0-0.3,0-0.5,0.1c-0.1,0.1-0.3,0.2-0.4,0.3
				c-0.1,0.1-0.2,0.2-0.3,0.4c-0.1,0.1-0.1,0.3-0.1,0.5c0,0.2,0,0.3,0.1,0.5c0.1,0.1,0.2,0.3,0.3,0.4c0.1,0.1,0.2,0.2,0.4,0.3
				c0.1,0.1,0.3,0.1,0.5,0.1c0.4,0,0.7-0.2,1-0.5l0.3,0.3c-0.2,0.2-0.4,0.4-0.6,0.5c-0.2,0.1-0.5,0.2-0.7,0.2
				C76.9,32.6,76.7,32.5,76.5,32.4z"/>
			<path class="st2" d="M80.7,32.5l0-1.4l-1.4,0l0,1.4l-0.4,0l0-3.3l0.4,0l0,1.4l1.4,0l0-1.4l0.4,0l0,3.3L80.7,32.5z"/>
		</g>
		<g class="st1">
			<path class="st2" d="M24.9,37.4l0,1.2l-0.4,0l0-3.3l0.9,0c0.1,0,0.3,0,0.4,0.1c0.1,0.1,0.2,0.1,0.3,0.2c0.1,0.1,0.2,0.2,0.2,0.4
				c0.1,0.1,0.1,0.3,0.1,0.4c0,0.1,0,0.3-0.1,0.4c-0.1,0.1-0.1,0.2-0.2,0.3c-0.1,0.1-0.2,0.2-0.3,0.2c-0.1,0.1-0.3,0.1-0.4,0.1
				L24.9,37.4z M24.9,35.7l0,1.3l0.5,0c0.2,0,0.3-0.1,0.4-0.2c0.1-0.1,0.2-0.3,0.2-0.4c0-0.2-0.1-0.3-0.2-0.4
				c-0.1-0.1-0.3-0.2-0.4-0.2L24.9,35.7z"/>
			<path class="st2" d="M27.9,38.4c-0.2-0.1-0.4-0.2-0.5-0.4c-0.2-0.2-0.3-0.3-0.4-0.5c-0.1-0.2-0.1-0.4-0.1-0.6
				c0-0.2,0-0.4,0.1-0.6c0.1-0.2,0.2-0.4,0.4-0.5c0.2-0.2,0.3-0.3,0.5-0.4c0.2-0.1,0.4-0.1,0.6-0.1c0.2,0,0.4,0,0.6,0.1
				c0.2,0.1,0.4,0.2,0.5,0.4c0.2,0.2,0.3,0.3,0.4,0.5c0.1,0.2,0.1,0.4,0.1,0.6c0,0.2,0,0.4-0.1,0.6c-0.1,0.2-0.2,0.4-0.4,0.5
				c-0.2,0.2-0.3,0.3-0.5,0.4c-0.2,0.1-0.4,0.1-0.6,0.1C28.3,38.6,28.1,38.5,27.9,38.4z M28.1,35.8c-0.1,0.1-0.3,0.2-0.4,0.3
				c-0.1,0.1-0.2,0.2-0.3,0.4c-0.1,0.1-0.1,0.3-0.1,0.5c0,0.2,0,0.3,0.1,0.5c0.1,0.2,0.2,0.3,0.3,0.4c0.1,0.1,0.2,0.2,0.4,0.3
				c0.1,0.1,0.3,0.1,0.5,0.1c0.2,0,0.3,0,0.5-0.1c0.1-0.1,0.3-0.2,0.4-0.3c0.1-0.1,0.2-0.2,0.3-0.4c0.1-0.2,0.1-0.3,0.1-0.5
				c0-0.2,0-0.3-0.1-0.5c-0.1-0.1-0.1-0.3-0.3-0.4c-0.1-0.1-0.2-0.2-0.4-0.3c-0.1-0.1-0.3-0.1-0.5-0.1
				C28.4,35.7,28.2,35.7,28.1,35.8z"/>
			<path class="st2" d="M30.6,38.5l0-3.3l0.4,0l0,2.9l1,0l0,0.5L30.6,38.5z"/>
			<path class="st2" d="M34.1,35.9c-0.1-0.1-0.1-0.2-0.2-0.2c-0.1,0-0.2-0.1-0.3-0.1c-0.2,0-0.4,0-0.5,0.1c-0.1,0.1-0.1,0.2-0.1,0.4
				c0,0.1,0,0.2,0,0.2c0,0.1,0.1,0.1,0.1,0.1c0.1,0.1,0.2,0.1,0.4,0.1c0.2,0,0.3,0,0.5,0.1c0.1,0,0.2,0.1,0.3,0.1
				c0.2,0.2,0.4,0.4,0.4,0.7c0,0.1,0,0.2-0.1,0.4c-0.1,0.1-0.1,0.2-0.2,0.3c-0.1,0.1-0.2,0.2-0.4,0.2c-0.1,0-0.3,0.1-0.5,0.1
				c-0.4,0-0.6-0.1-0.8-0.3c-0.2-0.2-0.3-0.4-0.3-0.7l0,0l0.4,0c0,0.2,0.1,0.3,0.2,0.4c0.1,0.1,0.3,0.2,0.5,0.2c0.2,0,0.4,0,0.5-0.1
				c0.1-0.1,0.2-0.2,0.2-0.4c0-0.1,0-0.1,0-0.2c0-0.1-0.1-0.1-0.1-0.1c-0.1-0.1-0.3-0.1-0.6-0.2c-0.3,0-0.6-0.1-0.7-0.3
				c-0.2-0.2-0.2-0.4-0.2-0.7c0-0.3,0.1-0.5,0.3-0.7c0.2-0.2,0.4-0.3,0.8-0.3c0.3,0,0.6,0.1,0.8,0.3c0.2,0.2,0.3,0.4,0.3,0.7l-0.5,0
				C34.2,36.1,34.1,36,34.1,35.9z"/>
			<path class="st2" d="M36.6,38.5l-1.1-1.2l0,1.2l-0.4,0l0-3.3l0.4,0l0,1.3l1.1-1.3l0.6,0l-1.4,1.7l1.4,1.6L36.6,38.5z"/>
			<path class="st2" d="M37.7,38.5l0-3.3l0.4,0l0,3.3L37.7,38.5z"/>
			<path class="st2" d="M38.6,38.5l0-3.3l1.8,0l0,0.5l-1.4,0l0,1l0.9,0l0,0.4l-0.9,0l0,1l1.4,0l0,0.5L38.6,38.5z"/>
			<path class="st2" d="M43.1,38.4c-0.2,0.1-0.5,0.2-0.8,0.2c-0.2,0-0.3,0-0.5-0.1c-0.2-0.1-0.4-0.2-0.6-0.3
				c-0.2-0.1-0.3-0.3-0.4-0.5c-0.1-0.2-0.2-0.5-0.2-0.8c0-0.1,0-0.2,0-0.2c0-0.2,0.1-0.4,0.1-0.5c0.1-0.2,0.2-0.3,0.3-0.4
				c0.1-0.1,0.3-0.2,0.4-0.3c0.2-0.1,0.3-0.1,0.5-0.2c0.1,0,0.2,0,0.3,0c0.3,0,0.5,0.1,0.8,0.2c0.2,0.1,0.4,0.3,0.5,0.4l-0.3,0.3
				c-0.2-0.2-0.3-0.3-0.5-0.4c-0.2-0.1-0.3-0.1-0.5-0.1c-0.2,0-0.4,0-0.6,0.1c-0.2,0.1-0.4,0.3-0.5,0.5c-0.1,0.2-0.1,0.3-0.1,0.5
				c0,0.1,0,0.2,0,0.3c0.1,0.3,0.2,0.5,0.4,0.6c0.1,0.1,0.2,0.1,0.3,0.2c0.1,0,0.3,0.1,0.4,0.1c0.2,0,0.3,0,0.5-0.1
				c0.2-0.1,0.3-0.2,0.4-0.3l0-0.3l-0.5,0l0-0.5l0.9,0l0,1c-0.1,0.1-0.2,0.3-0.3,0.4C43.3,38.3,43.2,38.3,43.1,38.4z"/>
			<path class="st2" d="M45.2,38.4c-0.2-0.1-0.4-0.2-0.5-0.4c-0.2-0.2-0.3-0.3-0.4-0.5c-0.1-0.2-0.1-0.4-0.1-0.6
				c0-0.2,0-0.4,0.1-0.6c0.1-0.2,0.2-0.4,0.4-0.5c0.2-0.2,0.3-0.3,0.5-0.4c0.2-0.1,0.4-0.1,0.6-0.1c0.2,0,0.4,0,0.6,0.1
				c0.2,0.1,0.4,0.2,0.5,0.4c0.2,0.2,0.3,0.3,0.4,0.5c0.1,0.2,0.1,0.4,0.1,0.6c0,0.2,0,0.4-0.1,0.6c-0.1,0.2-0.2,0.4-0.4,0.5
				c-0.2,0.2-0.3,0.3-0.5,0.4c-0.2,0.1-0.4,0.1-0.6,0.1C45.6,38.6,45.4,38.5,45.2,38.4z M45.4,35.8c-0.1,0.1-0.3,0.1-0.4,0.3
				c-0.1,0.1-0.2,0.2-0.3,0.4c-0.1,0.1-0.1,0.3-0.1,0.5c0,0.2,0,0.3,0.1,0.5c0.1,0.2,0.1,0.3,0.3,0.4c0.1,0.1,0.2,0.2,0.4,0.3
				c0.1,0.1,0.3,0.1,0.5,0.1c0.2,0,0.3,0,0.5-0.1s0.3-0.2,0.4-0.3c0.1-0.1,0.2-0.2,0.3-0.4c0.1-0.2,0.1-0.3,0.1-0.5
				c0-0.2,0-0.3-0.1-0.5c-0.1-0.1-0.1-0.3-0.3-0.4c-0.1-0.1-0.2-0.2-0.4-0.3c-0.1-0.1-0.3-0.1-0.5-0.1
				C45.7,35.7,45.5,35.7,45.4,35.8z"/>
			<path class="st2" d="M53.2,38.5l-0.4,0l-0.5-1.4l-0.5,1.4l-0.5,0l-1.2-3.3l0.5,0l0.9,2.6l0.5-1.4l-0.5-1.2l0.5,0l0.4,1.2l0.5,1.4
				l0.9-2.6l0.5,0L53.2,38.5z"/>
			<path class="st2" d="M56.1,37.3l0,1.2l-0.4,0l0-1.2l-1-2.1l0.5,0l0.7,1.5l0.7-1.5l0.5,0L56.1,37.3z"/>
			<path class="st2" d="M59,35.3c0.1,0.1,0.2,0.2,0.3,0.3c0.1,0.1,0.1,0.3,0.1,0.5c0,0.1,0,0.3-0.1,0.4c0,0.1-0.1,0.2-0.2,0.3
				c0.1,0.1,0.2,0.2,0.3,0.3c0.1,0.1,0.1,0.3,0.1,0.4c0,0.2,0,0.3-0.1,0.5c-0.1,0.1-0.2,0.3-0.3,0.3s-0.3,0.1-0.5,0.1l-1.1,0l0-3.3
				l1,0C58.7,35.2,58.9,35.3,59,35.3z M58,35.7l0,1l0.5,0c0.1,0,0.3,0,0.3-0.1c0.1-0.1,0.1-0.2,0.1-0.4c0-0.1,0-0.3-0.1-0.3
				c-0.1-0.1-0.2-0.1-0.3-0.1L58,35.7z M58,37.1l0,1l0.7,0c0.1,0,0.3,0,0.3-0.1c0.1-0.1,0.1-0.2,0.1-0.3c0-0.1,0-0.3-0.1-0.4
				c-0.1-0.1-0.2-0.1-0.3-0.1L58,37.1z"/>
			<path class="st2" d="M62,38.5l-0.6,0l-1-1.1l0,1.1l-0.4,0l0-3.3l0.9,0c0.1,0,0.3,0,0.4,0.1c0.1,0.1,0.2,0.1,0.3,0.2
				c0.1,0.1,0.2,0.2,0.2,0.4c0.1,0.1,0.1,0.3,0.1,0.4c0,0.1,0,0.3-0.1,0.4c0,0.1-0.1,0.2-0.2,0.3c-0.1,0.1-0.2,0.2-0.3,0.2
				c-0.1,0.1-0.2,0.1-0.4,0.1L62,38.5z M60.5,35.7l0,1.3l0.4,0c0.1,0,0.2,0,0.2,0c0.1,0,0.1-0.1,0.2-0.1c0.1-0.1,0.1-0.1,0.1-0.2
				c0-0.1,0-0.2,0-0.2c0-0.2-0.1-0.3-0.2-0.5c-0.1-0.1-0.1-0.1-0.2-0.1c-0.1,0-0.2-0.1-0.2-0.1L60.5,35.7z"/>
			<path class="st2" d="M62.2,38.1l1.7-2.5l-1.7,0l0-0.5l2.3,0l0,0.4l-1.7,2.5l1.7,0l0,0.5l-2.3,0L62.2,38.1z"/>
			<path class="st2" d="M65,38.5l0-3.3l1.8,0l0,0.5l-1.4,0l0,1l0.9,0l0,0.4l-0.9,0l0,1l1.4,0l0,0.5L65,38.5z"/>
			<path class="st2" d="M67.2,38.1l1.7-2.5l-1.7,0l0-0.5l2.3,0l0,0.4l-1.7,2.5l1.7,0l0,0.5l-2.3,0L67.2,38.1z M68.2,34.8
				c0,0-0.1-0.1-0.1-0.2c0-0.1,0-0.1,0.1-0.2c0,0,0.1-0.1,0.2-0.1c0.1,0,0.1,0,0.2,0.1c0,0,0.1,0.1,0.1,0.2c0,0.1,0,0.1-0.1,0.2
				c0,0-0.1,0.1-0.2,0.1C68.3,34.9,68.2,34.9,68.2,34.8z"/>
			<path class="st2" d="M72.2,38.5l-0.4-1.2l-1,0l-0.4,1.2l-0.5,0l1.2-3.3l0.5,0l1.2,3.3L72.2,38.5z M71.3,35.9L70.9,37l0.8,0
				L71.3,35.9z"/>
		</g>
		<g id="Group_249">
			<rect x="95.5" y="1.6" transform="matrix(0.8975 -0.441 0.441 0.8975 9.186 43.6988)" class="st3" width="6.2" height="0.9"/>
			<rect x="97.3" y="7.2" transform="matrix(0.9777 -0.2102 0.2102 0.9777 0.6123 21.173)" class="st3" width="5.2" height="0.9"/>
			
				<rect x="97.4" y="11.1" transform="matrix(0.3546 -0.935 0.935 0.3546 50.3392 100.4023)" class="st3" width="0.9" height="5.2"/>
			<rect x="3.7" y="-1.5" transform="matrix(0.3276 -0.9448 0.9448 0.3276 1.5196 4.9096)" class="st3" width="0.9" height="5.7"/>
			<rect x="0" y="7.5" transform="matrix(0.9847 -0.1741 0.1741 0.9847 -1.3386 0.6208)" class="st3" width="5.7" height="0.9"/>
			<rect x="0.8" y="12.9" transform="matrix(0.8095 -0.5871 0.5871 0.8095 -7.1752 4.6709)" class="st3" width="5.7" height="0.9"/>
		</g>
		<path id="Path_1842" class="st4" d="M89.8,21.2H14.1v-1.5h75.7V21.2z"/>
	</g>
	<g id="Group_253" transform="translate(42.723 152.023)">
		<g id="Group_251">
			<path id="Path_1843" class="st2" d="M2,0.2c0.2,0.1,0.4,0.3,0.5,0.5c0.3,0.4,0.3,1,0,1.4C2.4,2.4,2.2,2.5,2,2.7
				C1.7,2.8,1.5,2.9,1.2,2.9H0.5v1.6H0L0,0l1.2,0C1.5,0,1.7,0.1,2,0.2z M1.7,2.3C1.9,2.2,2,2.1,2.1,1.9c0.1-0.1,0.1-0.3,0.1-0.5
				c0-0.2,0-0.3-0.1-0.5C2,0.8,1.9,0.7,1.7,0.6C1.6,0.5,1.4,0.5,1.2,0.5H0.5l0,1.9h0.8C1.4,2.4,1.6,2.4,1.7,2.3z"/>
			<path id="Path_1844" class="st2" d="M5.8,2.9l1.4,1.6H6.6L5.2,2.9h0v1.6H4.7V0l1.1,0c0.3,0,0.5,0.1,0.7,0.2
				C6.7,0.3,6.9,0.5,7,0.7c0.1,0.2,0.2,0.5,0.2,0.7c0,0.3-0.1,0.5-0.2,0.7C6.9,2.4,6.7,2.6,6.5,2.7C6.3,2.8,6.1,2.9,5.8,2.9L5.8,2.9
				z M5.1,0.5v1.9h0.7c0.2,0,0.3,0,0.5-0.1c0.1-0.1,0.3-0.2,0.4-0.4c0.1-0.1,0.1-0.3,0.1-0.5c0-0.2,0-0.3-0.1-0.5
				C6.6,0.8,6.4,0.7,6.3,0.6C6.2,0.5,6,0.5,5.8,0.5H5.1z"/>
			<path id="Path_1845" class="st3" d="M10.1,4.2C9.7,4,9.4,3.7,9.3,3.4c-0.4-0.7-0.4-1.5,0-2.2c0.2-0.3,0.5-0.6,0.8-0.8
				c0.7-0.4,1.5-0.4,2.2,0c0.3,0.2,0.6,0.5,0.8,0.8c0.4,0.7,0.4,1.5,0,2.2c-0.2,0.3-0.5,0.6-0.8,0.8C11.6,4.6,10.8,4.6,10.1,4.2
				L10.1,4.2z M12.1,3.8c0.3-0.2,0.5-0.4,0.6-0.6c0.3-0.6,0.3-1.2,0-1.8c-0.5-0.8-1.6-1.1-2.4-0.6C10,0.9,9.8,1.1,9.6,1.4
				c-0.5,0.9-0.2,1.9,0.7,2.4C10.8,4.1,11.5,4.1,12.1,3.8L12.1,3.8z"/>
			<path id="Path_1846" class="st2" d="M15.9,3.8c0.1-0.1,0.2-0.3,0.2-0.5V0l0.5,0v3.2c0,0.2-0.1,0.4-0.2,0.6
				c-0.1,0.2-0.3,0.3-0.4,0.4c-0.2,0.1-0.4,0.2-0.6,0.2V4C15.5,4,15.7,3.9,15.9,3.8z"/>
			<path id="Path_1847" class="st2" d="M23.8,2.6v1.8h-0.4V0l0.4,0v1.9L25.5,0l0.6,0l-1.9,2.3l2,2.2h-0.6L23.8,2.6z"/>
			<path id="Path_1848" class="st2" d="M30.7,0.4h-1.1v4h-0.5v-4l-1.1,0V0l2.7,0V0.4z"/>
		</g>
		<g id="Group_252" transform="translate(5.319 6.346)">
			<path id="Path_1849" class="st2" d="M1.9,4v0.5H0L0,0l0.5,0l0,4H1.9z"/>
			<path id="Path_1850" class="st2" d="M6.7,2.8H5.1L4.5,4.5H4L5.6,0l0.6,0l1.6,4.5H7.2L6.7,2.8z M6.5,2.4L5.9,0.6L5.2,2.4H6.5z"/>
			<path id="Path_1851" class="st2" d="M11.6,0.4h-1.1v4H10v-4l-1.1,0V0l2.7,0V0.4z"/>
			<path id="Path_1852" class="st2" d="M19.2,2.9l1.4,1.6H20l-1.4-1.6h0v1.6h-0.5V0l1.1,0c0.3,0,0.5,0.1,0.7,0.2
				c0.2,0.1,0.4,0.3,0.5,0.5c0.1,0.2,0.2,0.5,0.2,0.7c0,0.3-0.1,0.5-0.2,0.7c-0.1,0.2-0.3,0.4-0.5,0.5C19.7,2.8,19.5,2.9,19.2,2.9
				L19.2,2.9z M18.5,0.5v1.9h0.7c0.2,0,0.3,0,0.5-0.1C19.8,2.2,20,2.1,20,1.9c0.1-0.1,0.1-0.3,0.1-0.5c0-0.2,0-0.3-0.1-0.5
				c-0.1-0.1-0.2-0.3-0.4-0.4c-0.1-0.1-0.3-0.1-0.5-0.1L18.5,0.5z"/>
			<path id="Path_1853" class="st2" d="M25.8,0v4.5h-0.5L23,0.9v3.6h-0.5V0l0.5,0l2.3,3.7V0L25.8,0z"/>
			<path id="Path_1854" class="st2" d="M30.2,2.8h-1.6L28,4.5h-0.5L29.1,0l0.6,0l1.6,4.5h-0.5L30.2,2.8z M30,2.4l-0.6-1.8l-0.6,1.8
				H30z"/>
		</g>
		<path id="Path_1855" class="st5" d="M18.9,0.2l2.4,0v0.5h-2.4V0.2z M18.9,4.2h2.4v0.5h-2.4V4.2z M18.9,2.6V2.2h0.5h2v0.4h-2
			L18.9,2.6z"/>
		<path id="Path_1856" class="st5" d="M18.9,6.3h2.4v0.5h-2.4V6.3z M18.9,10.3h2.4v0.5h-2.4V10.3z M18.9,8.8V8.4h0.5h2v0.4h-2
			L18.9,8.8z"/>
	</g>
	<g id="Group_255" transform="translate(22.984 12.074)">
		<path class="st2" d="M41.2,29.2l0-0.5c3.1-0.2,11,0.6,14.2,1.2c0,0,0.1,0,0.1,0c1.8,0.4,3.7,0.7,5.5,0.9c1.3,0.1,7.7-0.2,11.6-0.4
			c1.2,0,2.1-0.1,2.5-0.1l0,0.5c-0.4,0-1.3,0.1-2.5,0.1c-3.9,0.2-10.3,0.4-11.6,0.4c-1.9-0.2-3.8-0.5-5.6-0.9
			C52.2,29.9,44.3,29,41.2,29.2z"/>
		<path class="st2" d="M0,32.2L0,31.8C3.7,31,12.5,30.8,16,31c1.8,0.2,3.6,0.3,5.3,0.3c1.7-0.1,4-0.6,6.2-1.2c2.5-0.6,5-1.2,6.9-1.2
			l0,0.5c-1.8,0-4.3,0.6-6.8,1.2c-2.2,0.5-4.6,1.1-6.3,1.2c-1.8,0-3.6-0.1-5.4-0.3C12.5,31.3,3.7,31.4,0,32.2z"/>
		<g id="Group_254" transform="translate(30.539)">
			<path class="st2" d="M4.4,35.1C4,35,4,34.9,3.9,34.9c-0.3-0.3-0.2-7,0-12.6C4,20.2,4.3,10,4.7,9.4l0.1-0.1l0.1,0
				C6.5,9,8.1,9,9.8,9.3l0.1,0C10,9.4,10,9.5,10,9.7c0.3,1.6,1.2,24.2,0.7,24.8c-0.3,0.4-3.6,0.6-3.9,0.6
				C5.4,35.2,4.7,35.1,4.4,35.1z M4.3,34.6c0.6,0.2,5.4,0,6.1-0.3c0.3-1.7-0.4-22.9-0.8-24.5c-1.5-0.2-3-0.2-4.5,0
				C4.6,11.6,3.9,33.1,4.3,34.6z"/>
			<path class="st2" d="M6.5,34.9c0-0.8,0-1.6,0-2.4l0-0.2l0.2,0c0.5-0.1,1-0.1,1.5,0l0.1,0l0,0.1c0.1,0.8,0.1,1.5,0.1,2.3l-0.5,0
				c0.1-0.7,0-1.4-0.1-2c-0.3-0.1-0.6-0.1-0.9,0c0,0.7,0,1.4,0,2.1L6.5,34.9z"/>
			<path class="st2" d="M5.1,34.1c-0.1,0-0.2-0.1-0.2-0.2l0-0.1c-0.1-0.4-0.1-0.8-0.1-1.2l0-0.1l0.1-0.1c0.2-0.1,0.4-0.1,0.6-0.1
				l0.1,0l0,0.1c0.1,0.4,0.1,0.9,0,1.3c-0.1,0.2-0.2,0.3-0.4,0.3C5.2,34.1,5.1,34.1,5.1,34.1z"/>
			<path class="st2" d="M8.7,25.8C8.7,25.8,8.6,25.8,8.7,25.8l-0.2-0.1l-0.1-0.2c-0.1-0.4-0.1-0.9-0.1-1.4l0,0l0,0
				c0-0.1,0.1-0.1,0.2-0.2c0.1,0,0.4-0.1,0.5,0L9.1,24l0,0.1c0.1,0.5,0.1,1,0,1.5l0,0.1l-0.1,0.1C9,25.9,8.8,25.9,8.7,25.8z"/>
			<path class="st2" d="M6.8,12.6c0,0-0.1,0-0.1,0l-0.1-0.1l0-0.1c0-0.5,0-1,0-1.5l0,0l0,0c0.2-0.3,0.7-0.1,0.7-0.1l0.1,0l0,0.2
				c0,0.5,0,1-0.1,1.5c0,0.1-0.1,0.2-0.2,0.2C7.1,12.6,6.9,12.6,6.8,12.6z M7,11c0,0.3,0,0.6,0,0.9C7,11.7,7,11.4,7,11
				C7,11,7,11,7,11z"/>
			<path class="st2" d="M4.3,6.7l0.2-0.3C5.2,5.4,6,4.6,7,3.9l0.1-0.1l0.1,0.1C8.2,4.6,9,5.4,9.6,6.3l0.1,0.1l0,0.1
				C9.6,6.7,9.4,6.7,9.2,6.8c-1.5,0.1-3,0.1-4.5,0L4.3,6.7z M7.1,4.4c-0.8,0.6-1.4,1.2-2,2c1.3,0.1,2.6,0.1,3.9,0
				C8.5,5.6,7.8,4.9,7.1,4.4z"/>
			<rect x="9" y="6.5" transform="matrix(0.9847 -0.174 0.174 0.9847 -1.2394 1.7267)" class="st2" width="0.5" height="2.8"/>
			<path class="st2" d="M5.4,3.7L5.2,3.3c0,0,0.1,0,3.8-1.3l0.1,0.4C7.7,3,5.5,3.7,5.4,3.7z"/>
			<rect x="6.9" y="2.9" transform="matrix(0.9928 -0.1199 0.1199 0.9928 -0.367 0.8823)" class="st2" width="0.5" height="1.2"/>
			<rect x="3.7" y="0" transform="matrix(0.9871 -0.1601 0.1601 0.9871 -0.6506 0.6842)" class="st2" width="0.5" height="8.8"/>
			<polygon class="st2" points="4.9,6.1 3.8,4.9 4.1,4.6 5.3,5.8 			"/>
			<rect x="5" y="6.7" transform="matrix(0.9885 -0.1515 0.1515 0.9885 -1.1572 0.8905)" class="st2" width="0.5" height="2.7"/>
			<rect x="10.7" y="2.5" transform="matrix(0.9847 -0.174 0.174 0.9847 -1.0937 2.0106)" class="st2" width="0.5" height="9.4"/>
			<rect x="9.2" y="5.5" transform="matrix(0.8429 -0.5381 0.5381 0.8429 -1.5044 6.3229)" class="st2" width="1.8" height="0.5"/>
			<polygon class="st2" points="10.1,11.2 9.8,10.8 10.8,10.2 11.1,10.6 			"/>
			<rect x="6" y="6.7" transform="matrix(0.9897 -0.1434 0.1434 0.9897 -1.0128 0.9756)" class="st2" width="0.5" height="1.7"/>
			<rect x="7.6" y="6.6" transform="matrix(0.9848 -0.1739 0.1739 0.9848 -1.2672 1.4814)" class="st2" width="0.5" height="2.7"/>
			<path class="st2" d="M5.9,9.5c-0.1,0-0.2-0.1-0.3-0.1C5.5,9.3,5.4,9.1,5.4,8.8c0-0.3,0-0.6,0.4-0.7C6.2,8,6.6,8.2,6.7,8.6
				c0,0.1,0,0.2,0,0.2l0,0.1c0,0.3,0,0.6-0.6,0.6C6.1,9.5,6,9.5,5.9,9.5z M6.1,8.6c0,0-0.1,0-0.1,0l0,0c-0.1,0-0.1,0-0.1,0
				c0,0,0,0.2,0,0.3c0,0.1,0,0.2,0,0.2c0,0,0.1,0,0.2,0c0.1,0,0.2,0,0.2,0c0,0,0-0.1,0-0.1l0-0.1c0,0,0-0.1,0-0.1
				C6.3,8.6,6.2,8.6,6.1,8.6z"/>
			<rect x="4.3" y="7.8" transform="matrix(0.4442 -0.8959 0.8959 0.4442 -5.2174 8.8871)" class="st2" width="0.5" height="1.7"/>
			<path class="st2" d="M8.4,9.5c-0.1,0-0.2,0-0.2-0.1C8,9.3,7.9,9,7.9,8.9C7.8,8.5,8,8.3,8.5,8.3l0,0c0.2,0,0.3,0,0.4,0.1
				C9,8.4,9.1,8.6,9.2,8.7c0,0,0,0.1,0,0.1c0,0.3-0.2,0.6-0.6,0.6C8.5,9.5,8.5,9.5,8.4,9.5z M8.6,8.7C8.6,8.7,8.6,8.7,8.6,8.7
				L8.6,8.7c-0.2,0-0.3,0.1-0.3,0.1l0,0.1c0,0,0,0.1,0.1,0.2c0,0,0,0,0.1,0c0.2,0,0.2-0.1,0.2-0.2l0-0.1C8.7,8.8,8.7,8.7,8.6,8.7
				C8.6,8.7,8.6,8.7,8.6,8.7z"/>
			<path class="st2" d="M12,6.7l-0.2-0.4c0.5-0.2,1-0.4,1.5-0.6l0.1,0.4C12.9,6.3,12.5,6.5,12,6.7z"/>
			<rect x="12.6" y="7.3" transform="matrix(0.9846 -0.1746 0.1746 0.9846 -1.1115 2.4655)" class="st2" width="1.6" height="0.5"/>
			<rect x="12.3" y="8.4" transform="matrix(0.1661 -0.9861 0.9861 0.1661 1.483 19.9898)" class="st2" width="0.5" height="1.4"/>
			<rect x="2" y="5.3" transform="matrix(0.2145 -0.9767 0.9767 0.2145 -4.1173 6.85)" class="st2" width="0.5" height="1.3"/>
			<rect x="0" y="7.3" transform="matrix(0.9846 -0.1746 0.1746 0.9846 -1.304 0.2775)" class="st2" width="1.8" height="0.5"/>
			<rect x="1.1" y="8.8" transform="matrix(0.741 -0.6715 0.6715 0.741 -5.583 3.5795)" class="st2" width="1.4" height="0.5"/>
		</g>
	</g>
</g>
</svg>
