<?xml version="1.0" encoding="utf-8"?>
<!-- Generator: Adobe Illustrator 24.0.3, SVG Export Plug-In . SVG Version: 6.00 Build 0)  -->
<svg version="1.1" id="Layer_1" xmlns="http://www.w3.org/2000/svg" xmlns:xlink="http://www.w3.org/1999/xlink" x="0px" y="0px"
	 viewBox="0 0 378.3 484.9" style="enable-background:new 0 0 378.3 484.9;" xml:space="preserve">
<style type="text/css">
	.st0{fill:#FCF7F6;}
	.st1{fill:#E6C2B0;}
	.st2{fill:#212E3B;}
	.st3{font-family:'SulphurPoint-Bold';}
	.st4{font-size:1px;}
	.st5{fill:#EFE8E5;}
	.st6{fill:#AD6E42;}
	.st7{fill:#D2C3B8;}
	.st8{fill:none;}
</style>
<g id="Group_89" transform="translate(0 48.986) rotate(-9)">
	<g id="Group_85">
		
			<rect id="Rectangle_13" x="0" y="0" transform="matrix(-1 2.934252e-06 -2.934252e-06 -1 313.141 441.3776)" class="st0" width="313.1" height="441.4"/>
	</g>
	<path id="Path_639" class="st1" d="M298.7,287c-5.8-2.2-13.2-5.2-13.5-6c-0.5-1.2,21.2-2.1,21-6.2c-0.1-4-23.4-9.3-23.4-10.4
		s17.3-2.3,17.3-5.7s-19-9.3-19-10.5c0-1.2,15.7-4.1,15.6-6.9s-17.3-5.6-17.5-5.7c-0.2-0.1,11.2-0.8,11.4-2.8
		c0.2-1.9-15.9-20.6-17.6-20.7c-1.7-0.1-11,16.6-11.7,19.8s7.8,2.1,7.9,3.7c0.2,1.6-17.3,2.7-17.3,5.9c0,3.1,13.7,5.8,14.1,8
		c0.3,2.2-19.9,4.1-20.5,7.6s18.3,5.8,18.1,7.4c-0.2,1.6-26,4.8-25.4,7.7c0.5,3,22.2,5.9,22.4,8.1c0.1,1-5.8,2.5-12.4,4.1
		c-21.8-7.3-38.5-11.2-48.8-12.4c-12.6-1.6-52-1.8-71.6,0.5c-8.7,1-30.5,2.4-47.9,9.5c-4.7,0.4-8.7,0.8-8.7-0.5
		c0-2,23.8-8.4,23.8-13.3c0-3.7-29-6.5-29.2-12c0-2.1,25.4-4.9,24.9-10.9s-23.4-10.2-24.9-12.6c-1.5-2.4,16-8.3,16.3-13.1
		c0.1-2.2-22.5-9.5-23-11.6c-0.5-2.1,15.3-1,14.7-4.5c-0.5-3.5-16.7-28.4-19.5-28.3c-2.7,0.1-22.4,20.8-22.9,24.6
		c-0.4,3.4,13.8,5.1,13.7,8.2c-0.1,4.3-21.5,6.6-21.6,12.7c-0.1,2.7,16,7.1,16,12c0,4.8-22.2,7.8-22.9,12.4s21.2,9.4,21.7,13
		c0.5,3.7-28,3.3-29.5,6.5s21.4,11.1,20.8,13.8c-0.3,1.7-10.6,4.7-18.4,6.8C5.8,284.4,0,278.8,0,278.8l0,162.6l313.1,0l0-153.7
		C313.1,287.7,308.2,288.7,298.7,287z"/>
	<text transform="matrix(1 0 0 1 149.4152 377.0171)" class="st2 st3 st4">KIKUT</text>
	<g id="kikut_kolor" transform="translate(127.462 83.822)">
		<path id="Path_640" class="st5" d="M3.9,72.7c4.1-4.8,60.2-2.4,62.8-0.5s7.2,157,5.2,161.5s-62.7,5.7-68.1-3.4
			C-1.5,221.2-1.1,78.6,3.9,72.7z"/>
		<path id="Path_641" class="st6" d="M8.3,34.3c2.7-2.9,51.9-3.3,53.4,0c1.5,3.3,0.8,31.4-0.6,35.3c-1.4,3.9-55.6,3.2-56.5-1
			C3.7,64.4,5.3,37.5,8.3,34.3z"/>
		<g id="Group_86" transform="translate(27.823 42.151)">
			<path id="Path_642" class="st7" d="M0,13C0,13,0.7-0.3,3.9,0s3.7,11.9,3,13S0.7,14.3,0,13z"/>
			<line id="Line_327" class="st8" x1="0.6" y1="7" x2="7.2" y2="7.4"/>
			<line id="Line_328" class="st8" x1="3.9" y1="0" x2="3.6" y2="14"/>
		</g>
		<path id="Path_643" class="st2" d="M24.5,219.4c1.5-3,14.1-2.4,15-1.1c1,1.3,0,16.4,0,17.5s-11.8,1.1-12.6,0
			S23.5,221.4,24.5,219.4z"/>
		<path id="Path_644" class="st5" d="M30.6,0C33.2,0.5,53,7.8,52.2,9s-41.9,3.8-44,2.8S29.6-0.2,30.6,0z"/>
	</g>
	<g id="kikut-2" transform="translate(106.651 65.062)">
		<path class="st2" d="M20.4,255.3c-2.2-0.3-3.7-0.8-4.3-1.3c-2.8-2.2-1.5-35.2,0.7-88.8l0.9-22.9c2.2-53,3.7-85.4,6.1-88.2l0,0
			c0.2-0.3,0.6-0.7,6.1-1.1c12.3-0.8,46.5-0.1,48.2,1.5c1.5,1.4,7.7,91.1,8,94.9c3.1,45.5,6.2,96.6,5.4,103.6
			c-0.1,0.6-0.2,1-0.5,1.1C88.7,255.4,36.6,257.8,20.4,255.3z M24.6,54.7c-2.4,2.9-4.2,45.9-5.9,87.6l-0.9,22.9
			c-1.8,42.3-3.6,86-1.1,88c2.3,1.8,16.5,2.6,38.1,2.1c18.8-0.4,34.1-1.5,35.8-2.1c0.8-2.9-1.2-42.6-5.1-99.3
			c-3.6-52.1-7.2-96-8-98.8c-1.2-0.5-11.5-1.2-26.4-1.4C34,53.4,25.4,54,24.6,54.7z M90.6,253.3L90.6,253.3L90.6,253.3z"/>
		<path class="st2" d="M45.8,255.9c0-0.5-0.5-12.7,0-15.7c0.1-0.7,0.7-1.6,2.8-2.2c3.4-0.9,10.3-0.5,12.3,1.9
			c2.5,3.1,2.1,15.1,2.1,15.6l-1,0c0.1-3.4,0.1-12.6-1.8-14.9c-1.6-1.9-7.8-2.5-11.3-1.6c-1.2,0.3-2,0.8-2.1,1.4
			c-0.5,2.9,0,15.3,0,15.5L45.8,255.9z"/>
		<rect x="31.1" y="30" transform="matrix(0.9877 -0.1564 0.1564 0.9877 -6.1116 5.4515)" class="st2" width="1" height="23.1"/>
		<rect x="70.6" y="29.9" transform="matrix(0.9877 -0.1564 0.1564 0.9877 -5.6765 11.644)" class="st2" width="1" height="23.9"/>
		<path class="st2" d="M28.5,30.2c-0.4-0.1-0.7-0.1-0.8-0.2c-0.2-0.2-0.3-0.5-0.3-0.8c0.6-2.4,20.7-10.4,23.4-10.8l0,0
			c2-0.3,24.2,9.3,25,10.8l0.2,0.3l-0.2,0.4C74.8,31,34.9,31.2,28.5,30.2z M28.6,29.2c1.6,0.3,9.1,0.6,23.2,0.6
			c11.2-0.1,19.8-0.3,22.5-0.6c-3.8-2.4-21.8-10.1-23.4-9.9C46.6,20,30.5,27.5,28.6,29.2z"/>
		<path class="st2" d="M25.2,53.9c-0.1-2.1-0.7-12.5-0.2-13.8l0.1-0.2l0.2-0.1c1.9-1,25.4-1.5,26.4-1.6c6.9-0.1,25.3,0.8,27.5,1.5
			l0.2,0.1l0.1,0.1c0.7,1.1-0.5,10.7-1,14.8l-1-0.1c0.8-6,1.5-12.7,1.2-14c-2.9-0.7-20.5-1.5-26.9-1.4c-11.4,0.2-23.8,0.8-25.7,1.4
			c-0.2,1.3,0,7.6,0.3,13.2L25.2,53.9z"/>
		<path class="st2" d="M25.5,48.2l-0.1-1c0.9-0.1,21.6-1.6,26.3-1.6c4.6,0,26.9,1.2,27.1,1.2l-0.1,1c-0.2,0-22.5-1.2-27.1-1.2
			C47.1,46.6,25.7,48.2,25.5,48.2z"/>
		<path class="st2" d="M40.8,53.1c0.1-0.8,0.2-9.5,0.3-14l1,0c0,0.5-0.2,13-0.3,14L40.8,53.1z"/>
		<rect x="58.3" y="38.8" transform="matrix(0.967 -0.2547 0.2547 0.967 -9.8068 16.4877)" class="st2" width="1" height="14.5"/>
		<rect x="36.1" y="3.8" transform="matrix(0.9917 -0.129 0.129 0.9917 -1.5373 4.839)" class="st2" width="1" height="21"/>
		<path class="st2" d="M40.6,22.4C39,0.2,39.2-0.1,39.3-0.3l0.8,0.6L39.8,0l0.5,0.1c-0.1,0.8,0.7,13.8,1.3,22.3L40.6,22.4z"/>
		<polygon class="st2" points="63.6,53.5 63.6,21.2 64.8,6.2 65.8,6.3 64.6,21.3 64.6,53.5 		"/>
		<g id="Group_87" transform="translate(47.392 60.911)">
			<path class="st2" d="M1.7,14.3c-0.9-0.1-1.8-0.4-2.1-1.1l-0.1-0.1l0-0.1c0.1-1.1,0.6-10.9,3.1-13C3-0.4,3.5-0.5,4-0.5
				c0.9,0.1,1.6,0.7,2.1,1.9c1.7,3.3,1.9,10.8,1.2,11.9c-0.6,1-3.1,1.2-4.5,1.2C2.6,14.4,2.1,14.4,1.7,14.3z M0.5,12.9
				c0.2,0.2,1,0.5,2.4,0.6c1.9,0.1,3.4-0.4,3.6-0.7C7,12,6.8,4.9,5.2,1.7C4.8,1,4.4,0.6,3.9,0.5c-0.1,0-0.3,0-0.6,0.2
				C1.5,2.3,0.7,9.9,0.5,12.9z"/>
			
				<rect x="0.6" y="6.7" transform="matrix(0.9959 -9.079984e-02 9.079984e-02 0.9959 -0.6369 0.3867)" class="st2" width="6.6" height="1"/>
			<rect x="3.3" y="0" transform="matrix(0.9911 -0.1334 0.1334 0.9911 -0.8975 0.5652)" class="st2" width="1" height="14"/>
		</g>
		<g id="Group_88" transform="translate(27.753 102.02)">
			<path class="st2" d="M2.7,9.6c-0.3,0-0.5-0.1-0.7-0.2C1.2,9,0.9,8.2,1.2,7.3c0.3-1.3,1.6-2.9,2.7-2.9l0,0c2,0,3.5,0.6,4.1,1.5
				c0.3,0.5,0.4,1,0.2,1.5C7.7,8.2,6.4,8.9,5.8,9.1C4.9,9.4,3.6,9.7,2.7,9.6z M3.8,5.4c-0.4,0-1.4,1-1.7,2.1C2,8,2.1,8.3,2.4,8.4
				C3,8.7,4.2,8.6,5.4,8.1C6.4,7.8,7,7.3,7.1,7c0.1-0.2,0-0.4-0.1-0.6C6.7,6,5.7,5.4,3.8,5.4L3.8,5.4z"/>
			<path class="st2" d="M39.3,45.9c-0.3,0-0.5-0.1-0.7-0.2c-0.7-0.4-1-1.1-0.7-2.1c0.3-1.3,1.6-2.9,2.7-2.9l0,0
				c2,0.1,3.5,0.6,4.1,1.5c0.3,0.5,0.4,1,0.2,1.5c-0.3,0.9-1.7,1.5-2.3,1.7C41.5,45.8,40.3,46.1,39.3,45.9z M40.5,41.7
				c-0.4,0-1.4,1-1.7,2.1c-0.1,0.5,0,0.8,0.2,0.9c0.6,0.3,1.8,0.2,3.1-0.3c1-0.4,1.6-0.9,1.7-1.1c0.1-0.2,0-0.4-0.1-0.6
				C43.4,42.3,42.4,41.8,40.5,41.7L40.5,41.7z"/>
			<path class="st2" d="M1.6,70.6c-0.6-0.1-1.1-0.5-1.4-1.1c-0.5-1.1-0.3-2.7,0.6-3.8l0,0c0.4-0.5,1.1-0.7,1.9-0.4
				c1.1,0.4,2.5,1.7,2.5,2.7c0,1.3-1.2,2.6-3.3,2.6C1.8,70.6,1.7,70.6,1.6,70.6z M1.5,66.3C0.8,67.1,0.7,68.4,1,69
				c0.2,0.4,0.5,0.6,0.8,0.6c1.4,0,2.3-0.9,2.3-1.6c0-0.4-0.9-1.5-1.8-1.8C1.7,66,1.6,66.2,1.5,66.3L1.5,66.3z"/>
			<path class="st2" d="M15.6,46.2c-1.7-0.3-2.1-0.9-2.1-1.4c-0.1-1.3,1.3-3,2.3-3.8c0.7-0.5,1.3-0.7,1.8-0.6l0,0
				c0.8,0.3,2.7,1.7,3.3,3.1c0.2,0.5,0.2,1,0,1.4C20.3,46.3,17.1,46.4,15.6,46.2C15.6,46.2,15.6,46.2,15.6,46.2z M17.2,41.4
				c-0.1,0-0.4,0-1,0.5c-1,0.8-1.8,2.1-1.7,2.8c0,0,0.3,0.3,1.3,0.5c0,0,0,0,0,0c1.8,0.3,4-0.1,4.2-0.6c0.1-0.2,0.1-0.4-0.1-0.6
				C19.4,42.8,17.7,41.6,17.2,41.4C17.2,41.4,17.2,41.4,17.2,41.4z"/>
			<path class="st2" d="M31.4,5.3c-1.7-0.3-2.1-0.9-2.1-1.4c-0.1-1.2,1.2-3,2.3-3.8c0.7-0.5,1.3-0.7,1.8-0.6l0,0
				c0.8,0.3,2.7,1.7,3.3,3.1c0.2,0.5,0.2,1,0,1.4C36.1,5.3,33.2,5.6,31.4,5.3z M33,0.5c-0.1,0-0.4,0-1,0.5c-1,0.8-1.8,2.2-1.7,2.8
				c0,0,0.3,0.3,1.3,0.5c1.8,0.3,4-0.1,4.2-0.6c0.1-0.2,0.1-0.4-0.1-0.6C35.2,1.9,33.5,0.7,33,0.5C33,0.5,33,0.5,33,0.5z"/>
			<path class="st2" d="M26.5,93.9c-0.8-0.1-1.5-0.4-2.2-0.9c-1-0.8-1.3-2-0.7-3.3c0.4-0.9,1.2-1.7,1.9-1.6l0,0
				c1.6,0.3,3.4,1.9,4,3.2c0.3,0.6,0.3,1.1,0.2,1.4c-0.2,0.5-0.8,0.9-1.5,1C27.6,94,27.1,94,26.5,93.9z M25.3,89.1
				c-0.2,0.1-0.7,0.6-0.9,1.4c-0.1,0.5-0.1,1.2,0.6,1.7c0.9,0.7,2,0.9,3,0.7c0.5-0.1,0.8-0.3,0.9-0.5c0,0,0-0.2-0.2-0.6
				C28,90.7,26.5,89.3,25.3,89.1z M25.3,89.1L25.3,89.1z"/>
			<path class="st2" d="M46.6,86.2c-0.8-0.1-1.5-0.4-2.2-0.9c-1-0.8-1.3-2-0.7-3.3c0.4-0.9,1.1-1.7,1.9-1.6c1.6,0.3,3.4,1.9,4,3.2
				c0.3,0.6,0.3,1.1,0.2,1.4c-0.2,0.5-0.8,0.9-1.5,1C47.7,86.3,47.2,86.3,46.6,86.2z M45.4,81.4c-0.2,0.1-0.7,0.6-0.9,1.4
				c-0.1,0.5-0.1,1.2,0.6,1.7c0.9,0.7,2,0.9,3,0.7c0.5-0.1,0.8-0.3,0.9-0.5c0,0,0-0.2-0.2-0.6C48.1,83,46.6,81.6,45.4,81.4z
				 M45.4,81.4L45.4,81.4z"/>
			<path class="st2" d="M18.3,77.2c-0.8-0.1-1.5-0.4-2.2-0.9c-1-0.8-1.3-2-0.7-3.3c0.4-0.9,1.1-1.7,1.9-1.6c1.6,0.3,3.4,1.9,4,3.2
				c0.3,0.6,0.3,1.1,0.2,1.4c-0.2,0.5-0.8,0.9-1.5,1C19.4,77.2,18.8,77.2,18.3,77.2z M17.1,72.4c-0.2,0.1-0.7,0.6-0.9,1.4
				c-0.1,0.5-0.1,1.2,0.6,1.7c0.9,0.7,2,0.9,3,0.7c0.5-0.1,0.8-0.3,0.9-0.5c0,0,0-0.2-0.2-0.6C19.8,73.9,18.3,72.6,17.1,72.4z
				 M17.1,72.3L17.1,72.3L17.1,72.3L17.1,72.3z M17.1,72.4L17.1,72.4z"/>
			<path class="st2" d="M48.8,122.8c-0.1,0-0.1,0-0.2,0c-1.7-0.4-4.5-2.5-5.4-3.9c-0.7-1.2-0.1-2.8,0.8-3.7c0.7-0.7,1.4-0.9,2-0.5
				l0,0c2,1.2,4.3,5,4.4,6.9c0,0.7-0.2,1-0.5,1.2C49.6,122.8,49.2,122.8,48.8,122.8z M45.5,115.4c-0.2,0-0.4,0.1-0.7,0.4
				c-0.6,0.6-1.1,1.8-0.7,2.5c0.6,1.1,3.2,3.1,4.7,3.4c0.4,0.1,0.6,0,0.6,0c0,0,0.1-0.2,0-0.6C49.1,119.5,47.1,116.3,45.5,115.4
				L45.5,115.4C45.5,115.4,45.5,115.4,45.5,115.4z"/>
			<path class="st2" d="M8.2,115.3c-1.4-0.2-2.3-1.7-2.6-3.1c-0.3-1.5,0.3-2.8,1.5-3.2l0,0c0.6-0.2,1.2-0.1,2,0.3
				c1.1,0.6,2.1,1.8,2.4,2.7c0.2,0.8,0,1.7-0.4,2.3c-0.4,0.5-1.1,1-2.5,1C8.4,115.4,8.3,115.4,8.2,115.3z M7.5,109.9
				c-1.1,0.4-0.9,1.7-0.9,2.1c0.2,1.1,1,2.3,1.9,2.3c0.8,0,1.4-0.2,1.7-0.7c0.3-0.4,0.4-0.9,0.3-1.5c-0.1-0.6-0.9-1.6-1.9-2.1
				C8.2,109.9,7.8,109.8,7.5,109.9z"/>
			<path class="st2" d="M2.1,138.6c-1.3-0.2-2.3-1.7-2.6-3.1c-0.3-1.5,0.3-2.8,1.5-3.2l0,0c0.6-0.2,1.2-0.1,2,0.3
				c1.1,0.6,2.1,1.8,2.4,2.7c0.2,0.8,0,1.7-0.4,2.3c-0.4,0.5-1.1,1-2.5,1C2.4,138.6,2.2,138.6,2.1,138.6z M1.4,133.2
				c-1.1,0.4-0.9,1.7-0.9,2.1c0.2,1.1,1,2.3,1.9,2.3c0.8,0,1.4-0.2,1.7-0.7c0.3-0.4,0.4-0.9,0.3-1.5c-0.1-0.6-0.9-1.6-1.9-2.1
				C2.1,133.2,1.7,133.1,1.4,133.2z"/>
			<path class="st2" d="M45,23.4c-0.2,0-0.4-0.1-0.6-0.2c-0.3-0.1-1.1-0.5-0.7-2c0.3-1.3,1.6-3.2,2.9-3c0,0,0,0,0,0
				c1.2,0.2,2.3,0.5,2.8,1.3c0.3,0.5,0.3,1.1,0.2,1.8c-0.2,0.6-0.6,1.2-1.3,1.6C47.3,23.4,46,23.5,45,23.4z M46.4,19.3
				c-0.5-0.1-1.5,1-1.8,2.2c0,0.1-0.2,0.7,0.1,0.8c0.8,0.3,2.2,0.2,3.1-0.2c0.4-0.2,0.7-0.6,0.8-0.9c0.1-0.4,0.1-0.7,0-1
				C48.3,19.7,47.4,19.4,46.4,19.3L46.4,19.3C46.4,19.3,46.4,19.3,46.4,19.3z"/>
			<path class="st2" d="M40.8,68.3c-0.6-0.1-1.2-0.5-1.7-1.3c-1-1.8-0.3-3.5,0.7-4.6c0.6-0.6,1.4-1.2,2.1-0.9l0,0
				c1.2,0.5,1.4,1.6,1.6,2.5c0.1,0.4,0.2,0.8,0.3,1.1c0.4,1-0.5,2.4-1.6,2.9C41.7,68.3,41.3,68.4,40.8,68.3z M41.5,62.5
				c-0.2,0-0.8,0.3-1.3,1c-0.4,0.6-0.9,1.7-0.2,3c0.4,0.8,1,1,1.7,0.7c0.8-0.4,1.3-1.3,1.1-1.6c-0.2-0.5-0.3-0.9-0.4-1.4
				C42.3,63.3,42.2,62.8,41.5,62.5z"/>
			<path class="st2" d="M4.1,36.1c-0.6-0.1-1.2-0.5-1.7-1.3c-1-1.8-0.3-3.5,0.7-4.6c0.6-0.6,1.4-1.2,2.1-0.9l0,0
				c1.2,0.5,1.4,1.6,1.6,2.5C6.9,32.3,7,32.7,7.1,33c0.4,1-0.5,2.4-1.6,2.9C5.1,36.1,4.6,36.2,4.1,36.1z M4.9,30.3
				c-0.2,0-0.8,0.3-1.3,1c-0.4,0.6-0.9,1.7-0.2,3c0.4,0.8,1,1,1.7,0.7c0.8-0.4,1.3-1.3,1.1-1.6C6,33,5.9,32.5,5.8,32.1
				C5.7,31.1,5.5,30.6,4.9,30.3z"/>
		</g>
		<rect x="101.8" y="26.6" transform="matrix(0.7615 -0.6482 0.6482 0.7615 8.1661 76.4094)" class="st2" width="12.3" height="1"/>
		
			<rect x="102.6" y="35.9" transform="matrix(0.9712 -0.2382 0.2382 0.9712 -5.5583 26.8199)" class="st2" width="11.2" height="1"/>
		<rect x="98.5" y="44.2" transform="matrix(0.1684 -0.9857 0.9857 0.1684 35.0398 137.5271)" class="st2" width="1" height="7.7"/>
		
			<rect x="11.1" y="20.9" transform="matrix(0.2894 -0.9572 0.9572 0.2894 -16.8751 29.7184)" class="st2" width="1" height="10.6"/>
		<rect x="0" y="36.4" transform="matrix(0.9877 -0.1563 0.1563 0.9877 -5.6872 1.4305)" class="st2" width="12.5" height="1"/>
		<rect x="8.2" y="47.2" transform="matrix(0.7597 -0.6503 0.6503 0.7597 -28.3044 18.7319)" class="st2" width="6" height="1"/>
	</g>
</g>
</svg>
