<?xml version="1.0" encoding="utf-8"?>
<!-- Generator: Adobe Illustrator 24.0.3, SVG Export Plug-In . SVG Version: 6.00 Build 0)  -->
<svg version="1.1" id="Layer_1" xmlns="http://www.w3.org/2000/svg" xmlns:xlink="http://www.w3.org/1999/xlink" x="0px" y="0px"
	 viewBox="0 0 244 91.2" style="enable-background:new 0 0 244 91.2;" xml:space="preserve">
<style type="text/css">
	.st0{fill:#E5A34C;}
	.st1{enable-background:new    ;}
	.st2{fill:#F2EDEB;}
</style>
<g id="przej_do_sklepu_button" transform="translate(-215 -2755.92)">
	<path id="Path_668" class="st0" d="M228,2764.9c10.9-11.9,215.3-12,224.9,0s7.6,61.4-4.5,72.3c-12.1,11-197.7,14-220.5,3.3
		C205.2,2829.8,217.1,2776.8,228,2764.9z"/>
	<g class="st1">
		<path class="st2" d="M278.5,2787.1v5.5h-2.1v-16h4.5c0.7,0,1.3,0.1,1.9,0.4c0.6,0.3,1.2,0.6,1.7,1.1c0.5,0.5,0.9,1.1,1.1,1.7
			c0.3,0.6,0.4,1.3,0.4,2s-0.1,1.4-0.4,2c-0.3,0.6-0.6,1.2-1.1,1.7c-0.5,0.5-1,0.9-1.7,1.1c-0.6,0.3-1.3,0.4-1.9,0.4H278.5z
			 M278.5,2778.9v6.1h2.4c0.8,0,1.5-0.3,2.1-0.9c0.6-0.6,0.9-1.3,0.9-2.2c0-0.8-0.3-1.5-0.9-2.1s-1.3-0.9-2.1-0.9H278.5z"/>
		<path class="st2" d="M297.7,2792.6h-2.8l-4.6-5.4v5.4h-2.1v-15.9h4.1c0.7,0,1.4,0.1,2,0.4c0.6,0.3,1.2,0.6,1.6,1.1
			c0.5,0.5,0.8,1.1,1.1,1.7c0.3,0.6,0.4,1.3,0.4,2c0,0.7-0.1,1.3-0.3,1.9c-0.2,0.6-0.5,1.1-1,1.6s-0.9,0.8-1.5,1.1
			c-0.6,0.3-1.1,0.5-1.8,0.5L297.7,2792.6z M290.3,2778.9v6.1h2c0.4,0,0.8-0.1,1.2-0.2c0.4-0.2,0.7-0.4,1-0.6c0.3-0.3,0.5-0.6,0.6-1
			c0.2-0.4,0.2-0.8,0.2-1.2c0-0.8-0.3-1.5-0.9-2.2c-0.3-0.3-0.6-0.5-1-0.6c-0.4-0.2-0.8-0.2-1.2-0.2H290.3z"/>
		<path class="st2" d="M298.9,2790.8l8.1-11.9h-8.1v-2.2h10.8v1.9l-8.1,11.8h8.1v2.2h-10.8V2790.8z"/>
		<path class="st2" d="M311.9,2792.6v-16h8.7v2.2H314v4.8h4.5v2H314v4.8h6.6v2.2H311.9z"/>
		<path class="st2" d="M322.8,2790.5c0.7,0,1.3-0.2,1.7-0.7c0.5-0.4,0.7-1,0.7-1.7v-11.4h2v11.4c0,0.6-0.1,1.2-0.3,1.8
			c-0.2,0.5-0.5,1-0.9,1.4c-0.4,0.4-0.9,0.7-1.4,1c-0.5,0.2-1.1,0.3-1.8,0.3V2790.5z"/>
		<path class="st2" d="M329.6,2792.6v-16h4.1c1.1,0,2.1,0.2,3,0.6s1.8,1,2.5,1.7c0.7,0.8,1.3,1.6,1.7,2.6c0.4,1,0.6,2,0.6,3.1
			c0,1.1-0.2,2.1-0.6,3.1c-0.4,1-1,1.8-1.7,2.6c-0.7,0.8-1.6,1.3-2.5,1.7c-1,0.4-2,0.6-3,0.6H329.6z M331.8,2778.8v11.7h2
			c0.8,0,1.5-0.2,2.2-0.5c0.7-0.3,1.3-0.7,1.9-1.2c0.5-0.5,0.9-1.2,1.2-1.9c0.3-0.7,0.4-1.5,0.4-2.2c0-0.8-0.1-1.5-0.4-2.2
			c-0.3-0.7-0.7-1.3-1.2-1.9c-0.5-0.5-1.1-0.9-1.9-1.2c-0.7-0.3-1.5-0.5-2.2-0.5H331.8z"/>
		<path class="st2" d="M343.6,2790.8l8.1-11.9h-8.1v-2.2h10.8v1.9l-8.1,11.8h8.1v2.2h-10.8V2790.8z M349.6,2775.5H348l0.9-3.3h1.9
			L349.6,2775.5z"/>
		<path class="st2" d="M367.4,2792.6v-16h4.1c1.1,0,2.1,0.2,3,0.6s1.8,1,2.5,1.7c0.7,0.8,1.3,1.6,1.7,2.6c0.4,1,0.6,2,0.6,3.1
			c0,1.1-0.2,2.1-0.6,3.1c-0.4,1-1,1.8-1.7,2.6c-0.7,0.8-1.6,1.3-2.5,1.7c-1,0.4-2,0.6-3,0.6H367.4z M369.5,2778.8v11.7h2
			c0.8,0,1.5-0.2,2.2-0.5c0.7-0.3,1.3-0.7,1.9-1.2c0.5-0.5,0.9-1.2,1.2-1.9s0.4-1.5,0.4-2.2c0-0.8-0.1-1.5-0.4-2.2
			c-0.3-0.7-0.7-1.3-1.2-1.9c-0.5-0.5-1.1-0.9-1.9-1.2c-0.7-0.3-1.5-0.5-2.2-0.5H369.5z"/>
		<path class="st2" d="M386.2,2792.2c-1-0.4-1.8-1-2.6-1.7c-0.7-0.7-1.3-1.6-1.7-2.6c-0.4-1-0.6-2-0.6-3.1s0.2-2.1,0.6-3.1
			c0.4-1,1-1.8,1.7-2.6c0.7-0.7,1.6-1.3,2.6-1.7c1-0.4,2-0.6,3.1-0.6c1.1,0,2.1,0.2,3.1,0.6c1,0.4,1.8,1,2.6,1.7
			c0.7,0.7,1.3,1.6,1.7,2.6c0.4,1,0.6,2,0.6,3.1s-0.2,2.1-0.6,3.1c-0.4,1-1,1.8-1.7,2.6c-0.7,0.7-1.6,1.3-2.6,1.7
			c-1,0.4-2,0.6-3.1,0.6C388.2,2792.8,387.2,2792.6,386.2,2792.2z M387.1,2779.3c-0.7,0.3-1.3,0.7-1.9,1.3c-0.5,0.5-1,1.2-1.3,1.9
			s-0.4,1.5-0.4,2.2c0,0.8,0.2,1.6,0.5,2.3c0.3,0.7,0.7,1.4,1.2,1.9c0.5,0.5,1.2,1,1.9,1.3c0.7,0.3,1.5,0.4,2.2,0.4
			c0.8,0,1.5-0.1,2.2-0.4c0.7-0.3,1.3-0.7,1.9-1.3c0.5-0.5,0.9-1.2,1.2-1.9c0.3-0.7,0.5-1.5,0.5-2.3c0-0.8-0.1-1.5-0.4-2.2
			s-0.7-1.3-1.3-1.9c-0.5-0.5-1.2-1-1.9-1.3s-1.5-0.4-2.2-0.4C388.5,2778.9,387.8,2779,387.1,2779.3z"/>
	</g>
	<g class="st1">
		<path class="st2" d="M310.6,2809.1c-0.3-0.4-0.6-0.7-1.1-0.9c-0.4-0.2-1-0.3-1.6-0.3c-1.1,0-1.8,0.2-2.3,0.7
			c-0.4,0.4-0.6,1-0.6,1.8c0,0.4,0.1,0.8,0.2,1.1s0.3,0.5,0.6,0.7c0.4,0.3,1,0.4,1.9,0.5c0.9,0.1,1.7,0.2,2.3,0.4
			c0.6,0.2,1.2,0.4,1.6,0.7c1.2,0.7,1.8,1.9,1.8,3.5c0,0.6-0.1,1.2-0.4,1.7c-0.2,0.5-0.6,1-1,1.5c-0.5,0.5-1.1,0.9-1.8,1.1
			c-0.7,0.2-1.4,0.4-2.2,0.4c-1.7,0-3-0.5-4.1-1.4c-0.9-0.9-1.4-2-1.6-3.5l0,0h2.1c0.1,0.8,0.4,1.5,0.9,1.9c0.6,0.6,1.5,0.9,2.5,0.9
			c1,0,1.8-0.2,2.4-0.7c0.6-0.5,0.9-1.1,0.9-1.8c0-0.3,0-0.6-0.1-0.9c-0.1-0.2-0.3-0.5-0.5-0.7c-0.5-0.4-1.6-0.7-3-0.8
			c-1.5-0.1-2.7-0.6-3.5-1.3c-0.8-0.8-1.2-1.8-1.2-3.2c0-1.4,0.4-2.5,1.3-3.3c0.9-0.9,2.1-1.3,3.7-1.3c1.7,0,3,0.5,3.9,1.5
			c0.8,0.9,1.3,2,1.5,3.5h-2.2C311.1,2810,310.9,2809.5,310.6,2809.1z"/>
		<path class="st2" d="M322.8,2821.6l-5.2-5.9v5.9h-2.1v-15.9h2.1v6.1l5.1-6.1h2.8l-6.7,8.1l6.9,7.8H322.8z"/>
		<path class="st2" d="M327.8,2821.6v-16h2.1v13.8h4.8v2.2H327.8z"/>
		<path class="st2" d="M336.8,2821.6v-16h8.7v2.2h-6.6v4.8h4.5v2h-4.5v4.8h6.6v2.2H336.8z"/>
		<path class="st2" d="M350.1,2816.1v5.5H348v-16h4.5c0.7,0,1.3,0.1,1.9,0.4s1.2,0.6,1.7,1.1c0.5,0.5,0.9,1.1,1.1,1.7
			c0.3,0.6,0.4,1.3,0.4,2c0,0.7-0.1,1.4-0.4,2c-0.3,0.6-0.6,1.2-1.1,1.7c-0.5,0.5-1,0.9-1.7,1.1c-0.6,0.3-1.3,0.4-1.9,0.4H350.1z
			 M350.1,2807.9v6.1h2.4c0.8,0,1.5-0.3,2.1-0.9c0.6-0.6,0.9-1.3,0.9-2.2c0-0.8-0.3-1.5-0.9-2.1s-1.3-0.9-2.1-0.9H350.1z"/>
		<path class="st2" d="M363.1,2821.4c-0.7-0.3-1.3-0.7-1.8-1.2c-0.5-0.5-0.9-1.1-1.2-1.8c-0.3-0.7-0.4-1.4-0.4-2.2v-10.4h2v10.4
			c0,0.5,0.1,0.9,0.3,1.4s0.4,0.8,0.8,1.2c0.3,0.3,0.7,0.6,1.1,0.8c0.4,0.2,0.9,0.3,1.4,0.3c0.5,0,0.9-0.1,1.4-0.3
			c0.4-0.2,0.8-0.4,1.2-0.8s0.6-0.7,0.8-1.2c0.2-0.4,0.3-0.9,0.3-1.4v-10.4h2v10.4c0,0.8-0.1,1.5-0.4,2.2s-0.7,1.3-1.2,1.8
			c-0.5,0.5-1.1,0.9-1.8,1.2c-0.7,0.3-1.4,0.4-2.1,0.4C364.5,2821.8,363.8,2821.7,363.1,2821.4z"/>
	</g>
</g>
</svg>
