<?xml version="1.0" encoding="utf-8"?>
<!-- Generator: Adobe Illustrator 24.0.3, SVG Export Plug-In . SVG Version: 6.00 Build 0)  -->
<svg version="1.1" id="Layer_1" xmlns="http://www.w3.org/2000/svg" xmlns:xlink="http://www.w3.org/1999/xlink" x="0px" y="0px"
	 viewBox="0 0 373.1 505.8" style="enable-background:new 0 0 373.1 505.8;" xml:space="preserve">
<style type="text/css">
	.st0{fill:#FFFFFF;}
	.st1{fill:#2E3C4B;}
	.st2{fill:#E9CCBD;}
	.st3{fill:#BA8356;}
	.st4{fill:#F2EDEA;}
	.st5{fill:#D9CEC4;}
	.st6{enable-background:new    ;}
</style>
<g id="Group_474" transform="matrix(0.998, 0.07, -0.07, 0.998, 33.711, 0)">
	
		<rect id="Rectangle_502" x="-71.5" y="71.5" transform="matrix(2.536685e-06 1 -1 2.536685e-06 411.7396 71.5224)" class="st0" width="483.3" height="340.2"/>
	
		<rect x="174.1" y="313.8" transform="matrix(6.996734e-02 -0.9975 0.9975 6.996734e-02 -247.2236 555.5152)" class="st1" width="0.5" height="193.1"/>
	<path id="Path_2845" class="st2" d="M222.7,324.9c14.6-8.4,26.7-20.5,35.1-35.1c17.2-30,17.2-66.9,0-96.9
		c-8.4-14.6-20.5-26.7-35.1-35.1c-30-17.2-66.9-17.2-96.9,0c-14.6,8.4-26.7,20.5-35.1,35.1c-17.2,30-17.2,66.9,0,96.9
		c8.4,14.6,20.5,26.7,35.1,35.1C155.9,342.2,192.8,342.2,222.7,324.9L222.7,324.9z"/>
	<g id="gdansk_nowy_kolor" transform="translate(157.595 165.935)">
		<path id="Path_2846" class="st3" d="M7.1,23.6c2-2.2,19.1-1.8,19.9,0c0.8,1.8,3.1,92.9,1.8,95.6s-23.4,2.1-24.3,0.5
			S5.6,25.2,7.1,23.6z"/>
		<path id="Path_2847" class="st3" d="M15.2,0c5.2,0,8.4,7.2,7.5,8.4S8.4,9.9,8.6,8.5C8.6,7.9,9.1,0,15.2,0z"/>
		<path id="Path_2848" class="st4" d="M29.5,136.2c-0.4-1.6,0.5-10.8-0.1-13s-24.7-0.8-25.7,1c-0.7,1.3-0.2,11,0,12.5
			c0.1,0.9-4.3,7.6-3.6,8.3s32.8,0.8,33.3-0.8S29.8,137.4,29.5,136.2z"/>
		<path id="Path_2849" class="st4" d="M18.2,10.4c0.2-0.8,3.5-0.4,3.9,0s1,6.8,0.6,7.2s-4.4,0.9-4.6,0.3C18,15.4,18,12.9,18.2,10.4z
			"/>
		<path id="Path_2850" class="st4" d="M11.7,18.2c-0.2,0.8-3.5,0.4-3.9,0c-0.4-0.4-1-6.8-0.6-7.2s4.4-0.9,4.6-0.3
			C11.9,13.2,11.9,15.7,11.7,18.2z"/>
		<path id="Path_2851" class="st0" d="M7.4,19c0.2-0.1,15.4-1.2,15.7-0.7s0.8,4.7,0.2,4.6c-0.7-0.1-14.7-0.4-15.9,0
			C6.7,23.1,7.4,19,7.4,19z"/>
		<path id="Path_2852" class="st5" d="M15.3,104.6c0.4-0.8,2.1-0.4,2.5-0.2s0.3,9.6,0.3,10s-2.1,0.4-2.6,0.2
			C15.1,114.3,15.3,104.6,15.3,104.6z"/>
		<path id="Path_2853" class="st5" d="M16.5,73.7c-0.7,0.4-1.9,0.4-2.1-0.1s-0.1-7.6,0.2-8.2c0.2-0.4,1.5-0.4,1.7,0
			C16.8,66.3,16.9,73.5,16.5,73.7z"/>
		<path id="Path_2854" class="st5" d="M17.2,50.3c-0.1,0.1-1,0.4-1.3,0.1c-0.2-0.4,0.1-6.4,0.1-6.6s0.9-0.4,1,0S17.5,50.2,17.2,50.3
			z"/>
		<path id="Path_2855" class="st1" d="M18.6,138.1c0,0-0.3-9-3.2-9s-2.2,9-2.2,9C13.6,138.5,18.1,138.6,18.6,138.1z"/>
		<path id="Path_2856" class="st1" d="M2.6,36.4C3,35.8,28.8,36.3,29.2,37s-1.2,2.5-1.8,2.9s-22.6,0-23-0.5S2,37.3,2.6,36.4z"/>
	</g>
	<g class="st6">
		<path class="st1" d="M145,52.9c-1,0.5-2.1,0.8-3.3,0.8c-0.7,0-1.4-0.1-2.1-0.3c-0.9-0.3-1.7-0.7-2.4-1.3c-0.7-0.6-1.3-1.3-1.7-2.1
			c-0.5-1-0.8-2-0.8-3.2c0-0.4,0-0.6,0-0.8c0.1-0.8,0.3-1.5,0.6-2.2c0.3-0.7,0.7-1.3,1.2-1.8c0.5-0.5,1.1-1,1.7-1.3
			c0.7-0.4,1.3-0.6,2.1-0.8c0.4-0.1,0.9-0.1,1.3-0.1c1.2,0,2.3,0.3,3.3,0.9c0.8,0.5,1.5,1.1,2.1,1.8l-1.4,1.2
			c-0.7-0.8-1.4-1.3-2.2-1.6c-0.6-0.2-1.3-0.4-1.9-0.4c-0.8,0-1.6,0.2-2.4,0.6c-0.9,0.5-1.6,1.2-2.1,2.3c-0.4,0.7-0.5,1.4-0.5,2.2
			c0,0.4,0.1,0.9,0.2,1.3c0.3,1.1,0.9,2,1.8,2.7c0.4,0.3,0.9,0.6,1.4,0.8c0.5,0.2,1.1,0.3,1.6,0.3c0.7,0,1.4-0.2,2.1-0.5
			c0.7-0.3,1.2-0.7,1.7-1.3l0-1.4l-1.9,0l0-1.9l3.8,0v4c-0.4,0.6-0.9,1.1-1.4,1.5C145.6,52.5,145.3,52.7,145,52.9z"/>
		<path class="st1" d="M149.5,53.6l0-14l3.6,0c0.9,0,1.8,0.2,2.7,0.5c0.8,0.4,1.6,0.9,2.2,1.5c0.6,0.7,1.1,1.4,1.5,2.3
			c0.4,0.8,0.5,1.7,0.5,2.7c0,1-0.2,1.9-0.5,2.7c-0.4,0.8-0.9,1.6-1.5,2.2c-0.6,0.7-1.4,1.2-2.2,1.5c-0.8,0.4-1.7,0.5-2.7,0.5
			L149.5,53.6z M151.4,41.5l0,10.2l1.7,0c0.7,0,1.3-0.1,1.9-0.4c0.6-0.3,1.2-0.6,1.6-1.1c0.5-0.5,0.8-1,1.1-1.6
			c0.3-0.6,0.4-1.3,0.4-2c0-0.7-0.1-1.3-0.4-2c-0.3-0.6-0.6-1.2-1.1-1.6c-0.5-0.5-1-0.8-1.6-1.1c-0.6-0.3-1.3-0.4-1.9-0.4
			L151.4,41.5z"/>
		<path class="st1" d="M171.5,53.6l-1.7-4.9l-4.4,0l-1.7,4.9l-2,0l4.9-13.9l2.1,0l4.9,13.9L171.5,53.6z M167.6,42.4l-1.6,4.6l3.2,0
			L167.6,42.4z"/>
		<path class="st1" d="M183.6,53.6l-6.3-10.2l0,10.2l-1.9,0l0-14l1.8,0l6.5,10.5l0-10.5l1.8,0v14L183.6,53.6z M181.1,38.6l-1.4,0
			l0.8-2.9l1.6,0L181.1,38.6z"/>
		<path class="st1" d="M194.7,42.6c-0.3-0.4-0.6-0.7-0.9-0.8c-0.4-0.2-0.8-0.3-1.4-0.3c-1,0-1.6,0.2-2,0.6c-0.4,0.4-0.5,0.9-0.5,1.6
			c0,0.4,0.1,0.7,0.2,1c0.1,0.2,0.3,0.4,0.5,0.6c0.3,0.2,0.9,0.4,1.7,0.5c0.8,0.1,1.4,0.2,2,0.3c0.5,0.1,1,0.3,1.4,0.6
			c1,0.6,1.5,1.7,1.5,3c0,0.5-0.1,1-0.3,1.5c-0.2,0.5-0.5,0.9-0.9,1.3c-0.4,0.4-1,0.8-1.6,1c-0.6,0.2-1.2,0.3-1.9,0.3
			c-1.5,0-2.7-0.4-3.5-1.3c-0.8-0.8-1.2-1.8-1.4-3l0,0l1.8,0c0.1,0.7,0.4,1.3,0.8,1.7c0.5,0.5,1.3,0.8,2.2,0.8
			c0.9,0,1.6-0.2,2.1-0.6c0.5-0.4,0.8-0.9,0.8-1.6c0-0.3,0-0.5-0.1-0.8c-0.1-0.2-0.2-0.4-0.4-0.6c-0.5-0.4-1.4-0.6-2.7-0.7
			c-1.3-0.1-2.3-0.5-3-1.2c-0.7-0.7-1-1.6-1-2.8c0-1.2,0.4-2.2,1.1-2.9c0.8-0.8,1.9-1.2,3.3-1.2c1.5,0,2.6,0.4,3.4,1.3
			c0.7,0.8,1.1,1.8,1.3,3l-1.9,0C195.1,43.4,194.9,42.9,194.7,42.6z"/>
		<path class="st1" d="M205.3,53.6l-4.5-5.1l0,5.1l-1.8,0l0-13.9l1.8,0l0,5.3l4.4-5.3l2.4,0l-5.9,7.1l6,6.9L205.3,53.6z"/>
	</g>
	<g class="st6">
		<path class="st1" d="M123.8,78.6l-6.3-10.2l0,10.2l-1.9,0l0-14l1.8,0l6.5,10.5l0-10.5l1.8,0l0,14L123.8,78.6z"/>
		<path class="st1" d="M132,78.2c-0.8-0.4-1.6-0.9-2.2-1.5c-0.6-0.6-1.1-1.4-1.5-2.3c-0.4-0.9-0.5-1.8-0.5-2.7c0-1,0.2-1.9,0.5-2.7
			c0.4-0.8,0.9-1.6,1.5-2.3c0.6-0.6,1.4-1.1,2.2-1.5c0.8-0.4,1.7-0.5,2.7-0.5c1,0,1.9,0.2,2.7,0.5c0.9,0.4,1.6,0.9,2.2,1.5
			c0.6,0.6,1.1,1.4,1.5,2.2c0.4,0.9,0.5,1.8,0.5,2.7c0,1-0.2,1.9-0.5,2.7c-0.4,0.9-0.9,1.6-1.5,2.3c-0.6,0.6-1.4,1.1-2.2,1.5
			c-0.9,0.4-1.8,0.5-2.7,0.5C133.7,78.7,132.8,78.5,132,78.2z M132.7,67c-0.6,0.3-1.2,0.6-1.6,1.1c-0.5,0.5-0.8,1-1.1,1.6
			c-0.3,0.6-0.4,1.3-0.4,2c0,0.7,0.1,1.4,0.4,2c0.3,0.6,0.6,1.2,1.1,1.6c0.5,0.5,1,0.8,1.6,1.1c0.6,0.3,1.3,0.4,2,0.4
			c0.7,0,1.3-0.1,2-0.4c0.6-0.3,1.2-0.6,1.6-1.1c0.5-0.5,0.8-1,1.1-1.6c0.3-0.6,0.4-1.3,0.4-2c0-0.7-0.1-1.3-0.4-2
			c-0.3-0.6-0.6-1.2-1.1-1.6c-0.5-0.5-1-0.8-1.6-1.1c-0.6-0.3-1.3-0.4-2-0.4C134,66.6,133.3,66.7,132.7,67z"/>
		<path class="st1" d="M155,78.6l-1.9,0l-2.2-5.9l-2.1,5.9l-1.9,0l-5.1-14l2,0l3.9,10.9l2-5.7l-1.9-5.2h2l1.8,5.1l2.1,5.8l3.8-10.9
			l2,0L155,78.6z"/>
		<path class="st1" d="M167.1,73.5l0,5.1l-1.9,0l0-5.1l-4.3-8.9l2.1,0l3.1,6.5l3.1-6.5l2.1,0L167.1,73.5z"/>
		<path class="st1" d="M184.5,73.7l0,4.9l-1.8,0l0-14l3.9,0c0.6,0,1.2,0.1,1.7,0.3c0.5,0.2,1,0.6,1.4,1c0.4,0.4,0.7,0.9,1,1.5
			c0.2,0.6,0.3,1.1,0.3,1.8s-0.1,1.2-0.3,1.8c-0.2,0.6-0.6,1-1,1.5c-0.4,0.4-0.9,0.7-1.4,1c-0.5,0.2-1.1,0.4-1.7,0.4L184.5,73.7z
			 M184.5,66.5l0,5.3l2.1,0c0.7,0,1.3-0.3,1.8-0.8c0.5-0.5,0.8-1.1,0.8-1.9c0-0.7-0.3-1.4-0.8-1.9c-0.5-0.5-1.1-0.8-1.8-0.8
			L184.5,66.5z"/>
		<path class="st1" d="M197,78.2c-0.8-0.4-1.6-0.9-2.2-1.5c-0.6-0.6-1.1-1.4-1.5-2.3c-0.4-0.9-0.5-1.8-0.5-2.7c0-1,0.2-1.9,0.5-2.7
			c0.4-0.8,0.9-1.6,1.5-2.3c0.6-0.6,1.4-1.1,2.2-1.5c0.8-0.4,1.7-0.5,2.7-0.5c1,0,1.9,0.2,2.7,0.5c0.9,0.4,1.6,0.9,2.2,1.5
			c0.6,0.6,1.1,1.4,1.5,2.2c0.4,0.9,0.5,1.8,0.5,2.7c0,1-0.2,1.9-0.5,2.7c-0.4,0.9-0.9,1.6-1.5,2.3c-0.6,0.6-1.4,1.1-2.2,1.5
			c-0.9,0.4-1.8,0.5-2.7,0.5C198.7,78.7,197.8,78.5,197,78.2z M197.7,67c-0.6,0.3-1.2,0.6-1.6,1.1c-0.5,0.5-0.8,1-1.1,1.6
			c-0.3,0.6-0.4,1.3-0.4,2c0,0.7,0.1,1.4,0.4,2c0.3,0.6,0.6,1.2,1.1,1.6c0.5,0.5,1,0.8,1.6,1.1c0.6,0.3,1.3,0.4,2,0.4
			c0.7,0,1.3-0.1,2-0.4c0.6-0.3,1.2-0.6,1.6-1.1c0.5-0.5,0.8-1,1.1-1.6c0.3-0.6,0.4-1.3,0.4-2c0-0.7-0.1-1.3-0.4-2
			c-0.3-0.6-0.6-1.2-1.1-1.6c-0.5-0.5-1-0.8-1.6-1.1c-0.6-0.3-1.3-0.4-2-0.4C199,66.6,198.3,66.7,197.7,67z"/>
		<path class="st1" d="M216.9,78.6l-2.5,0l-4-4.8l0,4.8l-1.8,0l0-13.9l3.6,0c0.6,0,1.2,0.1,1.7,0.3c0.5,0.2,1,0.6,1.4,1
			c0.4,0.4,0.7,0.9,0.9,1.5c0.2,0.6,0.3,1.1,0.3,1.8c0,0.6-0.1,1.1-0.3,1.7c-0.2,0.5-0.5,1-0.8,1.4c-0.4,0.4-0.8,0.7-1.3,1
			c-0.5,0.3-1,0.4-1.5,0.5L216.9,78.6z M210.4,66.5l0,5.3l1.7,0c0.4,0,0.7-0.1,1-0.2c0.3-0.1,0.6-0.3,0.8-0.6
			c0.2-0.3,0.4-0.5,0.6-0.9c0.1-0.3,0.2-0.7,0.2-1c0-0.7-0.3-1.3-0.8-1.9c-0.2-0.2-0.5-0.4-0.8-0.6c-0.3-0.1-0.7-0.2-1-0.2
			L210.4,66.5z"/>
		<path class="st1" d="M223.8,66.4l0,12.2l-1.8,0l0-12.2l-3.4,0l0-1.8l8.6,0l0,1.8L223.8,66.4z"/>
	</g>
	<g class="st6">
		<path class="st1" d="M156.9,435.9l0-10l2.6,0c0.7,0,1.3,0.1,1.9,0.4c0.6,0.3,1.1,0.6,1.6,1.1c0.5,0.5,0.8,1,1.1,1.6
			c0.3,0.6,0.4,1.2,0.4,1.9c0,0.7-0.1,1.3-0.4,1.9c-0.3,0.6-0.6,1.1-1.1,1.6c-0.5,0.5-1,0.8-1.6,1.1c-0.6,0.3-1.2,0.4-1.9,0.4
			L156.9,435.9z M158.2,427.3l0,7.3l1.2,0c0.5,0,0.9-0.1,1.4-0.3c0.4-0.2,0.8-0.4,1.2-0.8c0.3-0.3,0.6-0.7,0.8-1.2
			c0.2-0.4,0.3-0.9,0.3-1.4c0-0.5-0.1-1-0.3-1.4c-0.2-0.4-0.4-0.8-0.8-1.2c-0.3-0.3-0.7-0.6-1.2-0.8c-0.4-0.2-0.9-0.3-1.4-0.3
			L158.2,427.3z"/>
		<path class="st1" d="M172.6,435.9l-1.2-3.5l-3.1,0l-1.2,3.5l-1.4,0l3.5-10l1.5,0l3.5,10L172.6,435.9z M169.8,427.9l-1.1,3.3l2.3,0
			L169.8,427.9z"/>
		<path class="st1" d="M177.9,427.2l0,8.7l-1.3,0l0-8.7l-2.4,0l0-1.3l6.2,0l0,1.3L177.9,427.2z"/>
		<path class="st1" d="M187,435.9l-1.2-3.5l-3.1,0l-1.2,3.5l-1.4,0l3.5-10l1.5,0l3.5,10L187,435.9z M184.2,427.9l-1.1,3.3l2.3,0
			L184.2,427.9z"/>
	</g>
</g>
</svg>
