<svg xmlns="http://www.w3.org/2000/svg" width="146" height="44.482" viewBox="0 0 146 44.482">
  <g id="wyslij_button" data-name="wyslij button" transform="translate(-193.5 -3195)">
    <path id="Wyślij" d="M249.856,858.619c6.822-5.962,127.558-5.985,133.6,0s11.7,30.717,4.161,36.2-132.314,4.645-137.765,0S243.034,864.581,249.856,858.619Z" transform="translate(-51.74 2340.861)" fill="#e5a34c"/>
    <path id="Path_2864" data-name="Path 2864" d="M53.162,21H50.848L48.17,13.642,45.6,21h-2.34L36.99,3.684h2.522L44.4,17.23l2.5-7.1-2.34-6.448h2.522l2.288,6.344,2.626,7.2L56.724,3.684h2.522Zm14.976-6.37V21H65.824V14.682L60.546,3.71H63.12l3.848,8.008L70.816,3.71H73.39ZM84.83,9.04a4.008,4.008,0,0,0-.546-1.664,2.843,2.843,0,0,0-1.157-1.027,4.121,4.121,0,0,0-1.755-.325,3.288,3.288,0,0,0-2.47.754,2.64,2.64,0,0,0-.676,1.95,2.866,2.866,0,0,0,.208,1.183,1.785,1.785,0,0,0,.624.741,4.35,4.35,0,0,0,2.054.572,14.355,14.355,0,0,1,2.457.4,6.605,6.605,0,0,1,1.755.741,4.106,4.106,0,0,1,1.9,3.744,4.587,4.587,0,0,1-.39,1.872,5.06,5.06,0,0,1-3.055,2.782,7.167,7.167,0,0,1-2.353.39A6.107,6.107,0,0,1,77.03,19.6a6.171,6.171,0,0,1-1.69-3.744l.052-.026H77.68a3.4,3.4,0,0,0,.936,2.054,3.867,3.867,0,0,0,2.73.936,4.1,4.1,0,0,0,2.6-.754,2.366,2.366,0,0,0,.962-1.95,2.84,2.84,0,0,0-.143-.949,1.6,1.6,0,0,0-.533-.715,6.585,6.585,0,0,0-3.3-.858,5.968,5.968,0,0,1-3.744-1.43,4.531,4.531,0,0,1-1.274-3.432A4.887,4.887,0,0,1,77.29,5.114a6.3,6.3,0,0,1,8.268.182A6.516,6.516,0,0,1,87.17,9.04Zm-2.86-6.6H80.228l.962-3.588h2.028ZM89.562,21V3.71H91.8V18.66H97V21Zm9.776,0V3.71h2.184V21Zm4.524-2.34a2.578,2.578,0,0,0,1.885-.728,2.447,2.447,0,0,0,.741-1.82V3.71h2.132v12.4a5.1,5.1,0,0,1-.351,1.9,4.994,4.994,0,0,1-.975,1.56,4.615,4.615,0,0,1-1.534,1.053,4.787,4.787,0,0,1-1.9.377Z" transform="translate(193.5 3206)" fill="#f2edeb"/>
  </g>
</svg>
