<svg xmlns="http://www.w3.org/2000/svg" width="481.397" height="372.088" viewBox="0 0 481.397 372.088">
  <g id="Group_84" data-name="Group 84" transform="translate(0 61.522) rotate(-8)">
    <rect id="Rectangle_12" data-name="Rectangle 12" width="442.052" height="313.618" fill="#fcf7f6"/>
    <line id="Line_322" data-name="Line 322" x2="177.882" transform="translate(232.959 176.938)" fill="none" stroke="#212e3b" stroke-miterlimit="10" stroke-width="0.75"/>
    <line id="Line_323" data-name="Line 323" x2="177.882" transform="translate(232.959 206.794)" fill="none" stroke="#212e3b" stroke-miterlimit="10" stroke-width="0.75"/>
    <line id="Line_324" data-name="Line 324" x2="177.882" transform="translate(231.378 236.65)" fill="none" stroke="#212e3b" stroke-miterlimit="10" stroke-width="0.75"/>
    <line id="Line_325" data-name="Line 325" x2="95.485" transform="translate(314.02 266.506)" fill="none" stroke="#212e3b" stroke-miterlimit="10" stroke-width="0.75"/>
    <line id="Line_326" data-name="Line 326" x2="6.338" transform="translate(257.834 257.701)" fill="none" stroke="#212e3b" stroke-miterlimit="10" stroke-width="0.75"/>
    <path id="Path_619" data-name="Path 619" d="M.325.9c.585-1.756,9.8-.5,10.638,0s3.176,17.88,1.5,19.05-9.859,1.171-11.2,0S-.289,2.743.325.9Z" transform="translate(281.565 246.637)" fill="none" stroke="#212e3b" stroke-miterlimit="10" stroke-width="0.75"/>
    <path id="Path_620" data-name="Path 620" d="M3.657,3.1C7.12-2.264,56.268.515,61.047,2.67S65,78.552,62.286,82.876c-5.748,9.145-49.029,6.767-56.676,1.735S-1.034,10.365,3.657,3.1Z" transform="translate(346.8 19.028)" fill="none" stroke="#212e3b" stroke-miterlimit="10" stroke-width="0.75"/>
    <path id="Path_621" data-name="Path 621" d="M.3,1.6C.944.118,10.346-.544,11.151.528s1.608,17.949,1,18.784S2.1,20.983,1.3,19.312-.508,3.437.3,1.6Z" transform="translate(297.981 246.915)" fill="none" stroke="#212e3b" stroke-miterlimit="10" stroke-width="0.75"/>
    <path id="Path_622" data-name="Path 622" d="M.986,1.116c1.137-1.72,8.021-1.238,9.024,0s1,17.782,0,18.451S.819,20.9.318,19.568-.183,2.885.986,1.116Z" transform="translate(266.633 246.883)" fill="none" stroke="#212e3b" stroke-miterlimit="10" stroke-width="0.75"/>
    <path id="Path_623" data-name="Path 623" d="M11.8,1.01C11.8-.373,2.774-.115,1.771.482S-.9,16.787.6,18.291s9.693,1.671,10.529,1S11.8,2.445,11.8,1.01Z" transform="translate(243.686 247.22)" fill="none" stroke="#212e3b" stroke-miterlimit="10" stroke-width="0.75"/>
    <path id="Path_624" data-name="Path 624" d="M.877.832C1.67-.576,8.23.068,9.065.832s.836,16.138,0,17.308-7.019,1.5-8.188.668S-.292,2.908.877.832Z" transform="translate(231.378 247.417)" fill="none" stroke="#212e3b" stroke-miterlimit="10" stroke-width="0.75"/>
    <g id="Group_83" data-name="Group 83" transform="translate(244.207 51.931)">
      <g id="Group_81" data-name="Group 81" transform="translate(0 0)">
        <path id="Path_625" data-name="Path 625" d="M4.225.418A3.15,3.15,0,0,1,5.35,1.543a2.946,2.946,0,0,1,.418,1.529A2.946,2.946,0,0,1,5.35,4.6,3.1,3.1,0,0,1,4.225,5.717a3.021,3.021,0,0,1-1.544.411H.995V9.59H0V0H2.682A2.976,2.976,0,0,1,4.225.418Zm-.5,4.462a2.07,2.07,0,0,0,.765-.764,2.039,2.039,0,0,0,.281-1.045,2,2,0,0,0-.281-1.038,2.093,2.093,0,0,0-.765-.758A2.039,2.039,0,0,0,2.682.995H.995V5.162H2.682A2.038,2.038,0,0,0,3.727,4.881Z" transform="translate(0 0.022)" fill="#212e3b"/>
        <path id="Path_626" data-name="Path 626" d="M2.409,6.129l3.1,3.447H4.182l-3.1-3.447H1V9.576H0V0H2.452A2.98,2.98,0,0,1,3.988.411,3.059,3.059,0,0,1,5.1,1.529,3.019,3.019,0,0,1,5.51,3.073,2.975,2.975,0,0,1,5.1,4.608a3.071,3.071,0,0,1-1.11,1.111,2.98,2.98,0,0,1-1.536.411ZM1,.981V5.148H2.452A2,2,0,0,0,3.49,4.867a2.1,2.1,0,0,0,.758-.757,2,2,0,0,0,.281-1.038,2.045,2.045,0,0,0-.281-1.046,2.1,2.1,0,0,0-.758-.764A2,2,0,0,0,2.452.981Z" transform="translate(10.062 0.036)" fill="#212e3b"/>
        <path id="Path_627" data-name="Path 627" d="M2.394,8.97A4.893,4.893,0,0,1,.649,7.225,4.641,4.641,0,0,1,0,4.816,4.674,4.674,0,0,1,.649,2.4,4.85,4.85,0,0,1,2.4.649,4.645,4.645,0,0,1,4.8,0,4.686,4.686,0,0,1,7.21.649,4.823,4.823,0,0,1,8.97,2.408a4.7,4.7,0,0,1,.649,2.409,4.66,4.66,0,0,1-.649,2.4A4.867,4.867,0,0,1,7.218,8.97,4.684,4.684,0,0,1,4.8,9.619,4.643,4.643,0,0,1,2.394,8.97ZM6.72,8.126A3.79,3.79,0,0,0,8.111,6.734a3.742,3.742,0,0,0,.512-1.918A3.742,3.742,0,0,0,8.111,2.9,3.789,3.789,0,0,0,6.72,1.507,3.749,3.749,0,0,0,4.8.995a3.748,3.748,0,0,0-1.918.512A3.793,3.793,0,0,0,1.492,2.9,3.752,3.752,0,0,0,.981,4.816a3.752,3.752,0,0,0,.511,1.918A3.793,3.793,0,0,0,2.884,8.126,3.748,3.748,0,0,0,4.8,8.638,3.749,3.749,0,0,0,6.72,8.126Z" transform="translate(19.256 0.065)" fill="#ad6e42"/>
        <path id="Path_628" data-name="Path 628" d="M1.167,8.119A1.591,1.591,0,0,0,1.658,6.95V0h.98V6.95a2.582,2.582,0,0,1-.353,1.328,2.631,2.631,0,0,1-.959.959A2.591,2.591,0,0,1,0,9.59V8.609A1.593,1.593,0,0,0,1.167,8.119Z" transform="translate(32.977 0.022)" fill="#212e3b"/>
        <path id="Path_629" data-name="Path 629" d="M.923,5.625V9.576H0V0H.923V4.1L4.427,0h1.3L1.571,4.86l4.24,4.716H4.485Z" transform="translate(50.342 0.015)" fill="#212e3b"/>
        <path id="Path_630" data-name="Path 630" d="M5.912.966H3.447V9.591H2.466V.966H0V0H5.912Z" transform="translate(60.224 0)" fill="#212e3b"/>
      </g>
      <g id="Group_82" data-name="Group 82" transform="translate(11.443 13.652)">
        <path id="Path_631" data-name="Path 631" d="M4.125,8.61v.981H0V0H1V8.61Z" fill="#212e3b"/>
        <path id="Path_632" data-name="Path 632" d="M5.668,6.042H2.293L1.053,9.575H0L3.36,0H4.6l3.36,9.575H6.908Zm-.317-.923L3.98,1.2,2.61,5.119Z" transform="translate(8.643 0.029)" fill="#212e3b"/>
        <path id="Path_633" data-name="Path 633" d="M5.912.966H3.447V9.591H2.466V.966H0V0H5.912Z" transform="translate(19.058 0)" fill="#212e3b"/>
        <path id="Path_634" data-name="Path 634" d="M2.408,6.129l3.1,3.447H4.182l-3.1-3.447H.995V9.576H0V0H2.451A2.977,2.977,0,0,1,3.987.411,3.062,3.062,0,0,1,5.1,1.529a3.015,3.015,0,0,1,.411,1.543A2.978,2.978,0,0,1,5.1,4.608,3.074,3.074,0,0,1,3.987,5.718a2.977,2.977,0,0,1-1.536.411ZM.995.981V5.148H2.451A2.005,2.005,0,0,0,3.49,4.867a2.117,2.117,0,0,0,.757-.757,2.009,2.009,0,0,0,.281-1.039,2.043,2.043,0,0,0-.281-1.045,2.089,2.089,0,0,0-.757-.764A2.006,2.006,0,0,0,2.451.981Z" transform="translate(38.874 0.015)" fill="#212e3b"/>
        <path id="Path_635" data-name="Path 635" d="M6.994,0V9.591H5.826L.995,1.846V9.591H0V0H1.038L6.013,7.961V0Z" transform="translate(48.565 0)" fill="#212e3b"/>
        <path id="Path_636" data-name="Path 636" d="M5.668,6.043H2.293L1.053,9.576H0L3.36,0H4.6l3.36,9.576H6.908ZM5.351,5.12,3.981,1.2,2.611,5.12Z" transform="translate(59.211 0.015)" fill="#212e3b"/>
      </g>
      <path id="Path_637" data-name="Path 637" d="M0,0H5.25V.981H0ZM0,8.61H5.25v.981H0ZM0,5.264v-.93l.981.007L5.25,4.334v.923L.981,5.264Z" transform="translate(40.741 0.368)" fill="#9f311b"/>
      <path id="Path_638" data-name="Path 638" d="M0,0H5.25V.981H0ZM0,8.61H5.25v.981H0ZM0,5.264v-.93l.981.007L5.25,4.334v.923L.981,5.264Z" transform="translate(40.741 13.652)" fill="#9f311b"/>
    </g>
    <path id="Path_2862" data-name="Path 2862" d="M-61.912,0h-1.157l-1.339-3.679L-65.7,0h-1.17L-70-8.658h1.261l2.444,6.773,1.248-3.549-1.17-3.224h1.261l1.144,3.172,1.313,3.6,2.366-6.773h1.261Zm12.038,0h-1.157L-52.37-3.679-53.657,0h-1.17L-57.96-8.658H-56.7l2.444,6.773,1.248-3.549-1.17-3.224h1.261l1.144,3.172,1.313,3.6,2.366-6.773h1.261Zm12.038,0h-1.157l-1.339-3.679L-41.619,0h-1.17l-3.133-8.658h1.261l2.444,6.773,1.248-3.549-1.17-3.224h1.261l1.144,3.172,1.313,3.6,2.366-6.773h1.261Zm2.9,0a.555.555,0,0,1-.41-.163.555.555,0,0,1-.163-.41.561.561,0,0,1,.163-.4.544.544,0,0,1,.41-.169.55.55,0,0,1,.4.169.55.55,0,0,1,.169.4.544.544,0,0,1-.169.41A.561.561,0,0,1-34.937,0Zm3.016-3V0h-1.144V-8.645h2.431a2.676,2.676,0,0,1,1.053.215,2.8,2.8,0,0,1,.9.6,2.933,2.933,0,0,1,.6.917,2.788,2.788,0,0,1,.215,1.085,2.788,2.788,0,0,1-.215,1.086,2.781,2.781,0,0,1-.6.9,2.891,2.891,0,0,1-.9.611A2.609,2.609,0,0,1-30.635-3Zm0-4.459v3.3h1.287a1.516,1.516,0,0,0,1.144-.494,1.593,1.593,0,0,0,.481-1.17,1.577,1.577,0,0,0-.481-1.157,1.562,1.562,0,0,0-1.144-.481ZM-21.534,0h-1.534l-2.483-2.951V0H-26.7V-8.632h2.223a2.694,2.694,0,0,1,1.073.215,2.672,2.672,0,0,1,.878.6,2.953,2.953,0,0,1,.585.917,2.864,2.864,0,0,1,.208,1.086,2.878,2.878,0,0,1-.182,1.027,2.71,2.71,0,0,1-.52.858,2.835,2.835,0,0,1-.793.617,2.6,2.6,0,0,1-.949.293Zm-4.017-7.462v3.3h1.079a1.549,1.549,0,0,0,.624-.13,1.668,1.668,0,0,0,.52-.351,1.733,1.733,0,0,0,.344-.533,1.652,1.652,0,0,0,.124-.637,1.674,1.674,0,0,0-.468-1.17,1.668,1.668,0,0,0-.52-.351,1.549,1.549,0,0,0-.624-.13ZM-16.425.065A4.257,4.257,0,0,1-18.1-.266a4.2,4.2,0,0,1-1.384-.942,4.351,4.351,0,0,1-.936-1.4,4.279,4.279,0,0,1-.338-1.684,4.257,4.257,0,0,1,.331-1.67,4.348,4.348,0,0,1,.943-1.4A4.391,4.391,0,0,1-18.1-8.294a4.186,4.186,0,0,1,1.67-.338,4.232,4.232,0,0,1,1.677.338,4.371,4.371,0,0,1,1.391.936,4.371,4.371,0,0,1,.936,1.391,4.232,4.232,0,0,1,.338,1.677,4.279,4.279,0,0,1-.338,1.684,4.351,4.351,0,0,1-.936,1.4,4.371,4.371,0,0,1-1.391.936A4.232,4.232,0,0,1-16.425.065Zm0-7.514a3.135,3.135,0,0,0-1.215.241,3.127,3.127,0,0,0-1.02.683,3.127,3.127,0,0,0-.683,1.02,3.135,3.135,0,0,0-.24,1.215,3.19,3.19,0,0,0,.247,1.241,3.132,3.132,0,0,0,.676,1.02,3.127,3.127,0,0,0,1.02.683,3.135,3.135,0,0,0,1.215.24,3.135,3.135,0,0,0,1.216-.24,3.127,3.127,0,0,0,1.02-.683,3.132,3.132,0,0,0,.676-1.02,3.19,3.19,0,0,0,.247-1.241,3.135,3.135,0,0,0-.241-1.215,3.127,3.127,0,0,0-.682-1.02,3.127,3.127,0,0,0-1.02-.683A3.135,3.135,0,0,0-16.425-7.449Zm4.862,6.279a1.289,1.289,0,0,0,.942-.364,1.223,1.223,0,0,0,.371-.91v-6.2h1.066v6.2A2.548,2.548,0,0,1-9.36-1.5a2.5,2.5,0,0,1-.488.78,2.308,2.308,0,0,1-.767.526A2.394,2.394,0,0,1-11.563,0ZM-7.885,0V-8.645h4.732v1.17h-3.6v2.626h2.418v1.066H-6.753V-1.17h3.6V0ZM2.086,0-.709-3.185V0H-1.853V-8.632H-.709v3.289L2.034-8.632H3.542L-.111-4.251,3.633,0ZM7.521-7.54V0H6.377V-7.54H4.284V-8.645h5.33V-7.54ZM10.783,0V-8.645H11.9V-1.17h2.6V0ZM21.612,0,20.546-3.042h-2.7L16.777,0H15.542l3-8.632h1.3l3,8.632ZM19.194-6.955l-.988,2.821h1.963Zm7.02-.585V0H25.071V-7.54H22.978V-8.645h5.33V-7.54ZM29.477,0V-8.645h4.732v1.17h-3.6v2.626h2.418v1.066H30.608V-1.17h3.6V0ZM40.671,0H39.137L36.654-2.951V0H35.51V-8.632h2.223a2.694,2.694,0,0,1,1.072.215,2.672,2.672,0,0,1,.877.6,2.953,2.953,0,0,1,.585.917,2.864,2.864,0,0,1,.208,1.086,2.878,2.878,0,0,1-.182,1.027,2.71,2.71,0,0,1-.52.858,2.835,2.835,0,0,1-.793.617,2.6,2.6,0,0,1-.949.293ZM36.654-7.462v3.3h1.079a1.549,1.549,0,0,0,.624-.13,1.668,1.668,0,0,0,.52-.351,1.733,1.733,0,0,0,.345-.533,1.652,1.652,0,0,0,.124-.637,1.674,1.674,0,0,0-.468-1.17,1.668,1.668,0,0,0-.52-.351,1.549,1.549,0,0,0-.624-.13ZM46.9,0,43-6.344V0H41.84V-8.645h1.131L47-2.119V-8.645h1.144V0Zm8.489,0L54.321-3.042h-2.7L50.551,0H49.316l3-8.632h1.3l3,8.632ZM52.969-6.955l-.988,2.821h1.963ZM57.974,0a.555.555,0,0,1-.41-.163.555.555,0,0,1-.163-.41.561.561,0,0,1,.163-.4.544.544,0,0,1,.41-.169.55.55,0,0,1,.4.169.55.55,0,0,1,.169.4.544.544,0,0,1-.169.41A.561.561,0,0,1,57.974,0ZM60.99-3V0H59.846V-8.645h2.431a2.676,2.676,0,0,1,1.053.215,2.8,2.8,0,0,1,.9.6,2.933,2.933,0,0,1,.6.917,2.788,2.788,0,0,1,.215,1.085,2.788,2.788,0,0,1-.215,1.086,2.781,2.781,0,0,1-.6.9,2.891,2.891,0,0,1-.9.611A2.609,2.609,0,0,1,62.277-3Zm0-4.459v3.3h1.287a1.516,1.516,0,0,0,1.144-.494,1.593,1.593,0,0,0,.481-1.17,1.577,1.577,0,0,0-.481-1.157,1.562,1.562,0,0,0-1.144-.481ZM66.215,0V-8.645h1.118V-1.17h2.6V0Z" transform="translate(118.285 288.997)" fill="#212e3b"/>
  </g>
</svg>
