<svg xmlns="http://www.w3.org/2000/svg" width="481.397" height="372.088" viewBox="0 0 481.397 372.088">
  <g id="Group_84" data-name="Group 84" transform="translate(0 61.522) rotate(-8)">
    <rect id="Rectangle_12" data-name="Rectangle 12" width="442.052" height="313.618" fill="#fcf7f6"/>
    <line id="Line_322" data-name="Line 322" x2="177.882" transform="translate(232.959 176.938)" fill="none" stroke="#212e3b" stroke-miterlimit="10" stroke-width="0.75"/>
    <line id="Line_323" data-name="Line 323" x2="177.882" transform="translate(232.959 206.794)" fill="none" stroke="#212e3b" stroke-miterlimit="10" stroke-width="0.75"/>
    <line id="Line_324" data-name="Line 324" x2="177.882" transform="translate(231.378 236.65)" fill="none" stroke="#212e3b" stroke-miterlimit="10" stroke-width="0.75"/>
    <line id="Line_325" data-name="Line 325" x2="95.485" transform="translate(314.02 266.506)" fill="none" stroke="#212e3b" stroke-miterlimit="10" stroke-width="0.75"/>
    <line id="Line_326" data-name="Line 326" x2="6.338" transform="translate(257.834 257.701)" fill="none" stroke="#212e3b" stroke-miterlimit="10" stroke-width="0.75"/>
    <path id="Path_619" data-name="Path 619" d="M.325.9c.585-1.756,9.8-.5,10.638,0s3.176,17.88,1.5,19.05-9.859,1.171-11.2,0S-.289,2.743.325.9Z" transform="translate(281.565 246.637)" fill="none" stroke="#212e3b" stroke-miterlimit="10" stroke-width="0.75"/>
    <path id="Path_620" data-name="Path 620" d="M3.657,3.1C7.12-2.264,56.268.515,61.047,2.67S65,78.552,62.286,82.876c-5.748,9.145-49.029,6.767-56.676,1.735S-1.034,10.365,3.657,3.1Z" transform="translate(346.8 19.028)" fill="none" stroke="#212e3b" stroke-miterlimit="10" stroke-width="0.75"/>
    <path id="Path_621" data-name="Path 621" d="M.3,1.6C.944.118,10.346-.544,11.151.528s1.608,17.949,1,18.784S2.1,20.983,1.3,19.312-.508,3.437.3,1.6Z" transform="translate(297.981 246.915)" fill="none" stroke="#212e3b" stroke-miterlimit="10" stroke-width="0.75"/>
    <path id="Path_622" data-name="Path 622" d="M.986,1.116c1.137-1.72,8.021-1.238,9.024,0s1,17.782,0,18.451S.819,20.9.318,19.568-.183,2.885.986,1.116Z" transform="translate(266.633 246.883)" fill="none" stroke="#212e3b" stroke-miterlimit="10" stroke-width="0.75"/>
    <path id="Path_623" data-name="Path 623" d="M11.8,1.01C11.8-.373,2.774-.115,1.771.482S-.9,16.787.6,18.291s9.693,1.671,10.529,1S11.8,2.445,11.8,1.01Z" transform="translate(243.686 247.22)" fill="none" stroke="#212e3b" stroke-miterlimit="10" stroke-width="0.75"/>
    <path id="Path_624" data-name="Path 624" d="M.877.832C1.67-.576,8.23.068,9.065.832s.836,16.138,0,17.308-7.019,1.5-8.188.668S-.292,2.908.877.832Z" transform="translate(231.378 247.417)" fill="none" stroke="#212e3b" stroke-miterlimit="10" stroke-width="0.75"/>
    <g id="Group_83" data-name="Group 83" transform="translate(244.207 51.931)">
      <g id="Group_81" data-name="Group 81" transform="translate(0 0)">
        <path id="Path_625" data-name="Path 625" d="M4.225.418A3.15,3.15,0,0,1,5.35,1.543a2.946,2.946,0,0,1,.418,1.529A2.946,2.946,0,0,1,5.35,4.6,3.1,3.1,0,0,1,4.225,5.717a3.021,3.021,0,0,1-1.544.411H.995V9.59H0V0H2.682A2.976,2.976,0,0,1,4.225.418Zm-.5,4.462a2.07,2.07,0,0,0,.765-.764,2.039,2.039,0,0,0,.281-1.045,2,2,0,0,0-.281-1.038,2.093,2.093,0,0,0-.765-.758A2.039,2.039,0,0,0,2.682.995H.995V5.162H2.682A2.038,2.038,0,0,0,3.727,4.881Z" transform="translate(0 0.022)" fill="#212e3b"/>
        <path id="Path_626" data-name="Path 626" d="M2.409,6.129l3.1,3.447H4.182l-3.1-3.447H1V9.576H0V0H2.452A2.98,2.98,0,0,1,3.988.411,3.059,3.059,0,0,1,5.1,1.529,3.019,3.019,0,0,1,5.51,3.073,2.975,2.975,0,0,1,5.1,4.608a3.071,3.071,0,0,1-1.11,1.111,2.98,2.98,0,0,1-1.536.411ZM1,.981V5.148H2.452A2,2,0,0,0,3.49,4.867a2.1,2.1,0,0,0,.758-.757,2,2,0,0,0,.281-1.038,2.045,2.045,0,0,0-.281-1.046,2.1,2.1,0,0,0-.758-.764A2,2,0,0,0,2.452.981Z" transform="translate(10.062 0.036)" fill="#212e3b"/>
        <path id="Path_627" data-name="Path 627" d="M2.394,8.97A4.893,4.893,0,0,1,.649,7.225,4.641,4.641,0,0,1,0,4.816,4.674,4.674,0,0,1,.649,2.4,4.85,4.85,0,0,1,2.4.649,4.645,4.645,0,0,1,4.8,0,4.686,4.686,0,0,1,7.21.649,4.823,4.823,0,0,1,8.97,2.408a4.7,4.7,0,0,1,.649,2.409,4.66,4.66,0,0,1-.649,2.4A4.867,4.867,0,0,1,7.218,8.97,4.684,4.684,0,0,1,4.8,9.619,4.643,4.643,0,0,1,2.394,8.97ZM6.72,8.126A3.79,3.79,0,0,0,8.111,6.734a3.742,3.742,0,0,0,.512-1.918A3.742,3.742,0,0,0,8.111,2.9,3.789,3.789,0,0,0,6.72,1.507,3.749,3.749,0,0,0,4.8.995a3.748,3.748,0,0,0-1.918.512A3.793,3.793,0,0,0,1.492,2.9,3.752,3.752,0,0,0,.981,4.816a3.752,3.752,0,0,0,.511,1.918A3.793,3.793,0,0,0,2.884,8.126,3.748,3.748,0,0,0,4.8,8.638,3.749,3.749,0,0,0,6.72,8.126Z" transform="translate(19.256 0.065)" fill="#ad6e42"/>
        <path id="Path_628" data-name="Path 628" d="M1.167,8.119A1.591,1.591,0,0,0,1.658,6.95V0h.98V6.95a2.582,2.582,0,0,1-.353,1.328,2.631,2.631,0,0,1-.959.959A2.591,2.591,0,0,1,0,9.59V8.609A1.593,1.593,0,0,0,1.167,8.119Z" transform="translate(32.977 0.022)" fill="#212e3b"/>
        <path id="Path_629" data-name="Path 629" d="M.923,5.625V9.576H0V0H.923V4.1L4.427,0h1.3L1.571,4.86l4.24,4.716H4.485Z" transform="translate(50.342 0.015)" fill="#212e3b"/>
        <path id="Path_630" data-name="Path 630" d="M5.912.966H3.447V9.591H2.466V.966H0V0H5.912Z" transform="translate(60.224 0)" fill="#212e3b"/>
      </g>
      <g id="Group_82" data-name="Group 82" transform="translate(11.443 13.652)">
        <path id="Path_631" data-name="Path 631" d="M4.125,8.61v.981H0V0H1V8.61Z" fill="#212e3b"/>
        <path id="Path_632" data-name="Path 632" d="M5.668,6.042H2.293L1.053,9.575H0L3.36,0H4.6l3.36,9.575H6.908Zm-.317-.923L3.98,1.2,2.61,5.119Z" transform="translate(8.643 0.029)" fill="#212e3b"/>
        <path id="Path_633" data-name="Path 633" d="M5.912.966H3.447V9.591H2.466V.966H0V0H5.912Z" transform="translate(19.058 0)" fill="#212e3b"/>
        <path id="Path_634" data-name="Path 634" d="M2.408,6.129l3.1,3.447H4.182l-3.1-3.447H.995V9.576H0V0H2.451A2.977,2.977,0,0,1,3.987.411,3.062,3.062,0,0,1,5.1,1.529a3.015,3.015,0,0,1,.411,1.543A2.978,2.978,0,0,1,5.1,4.608,3.074,3.074,0,0,1,3.987,5.718a2.977,2.977,0,0,1-1.536.411ZM.995.981V5.148H2.451A2.005,2.005,0,0,0,3.49,4.867a2.117,2.117,0,0,0,.757-.757,2.009,2.009,0,0,0,.281-1.039,2.043,2.043,0,0,0-.281-1.045,2.089,2.089,0,0,0-.757-.764A2.006,2.006,0,0,0,2.451.981Z" transform="translate(38.874 0.015)" fill="#212e3b"/>
        <path id="Path_635" data-name="Path 635" d="M6.994,0V9.591H5.826L.995,1.846V9.591H0V0H1.038L6.013,7.961V0Z" transform="translate(48.565 0)" fill="#212e3b"/>
        <path id="Path_636" data-name="Path 636" d="M5.668,6.043H2.293L1.053,9.576H0L3.36,0H4.6l3.36,9.576H6.908ZM5.351,5.12,3.981,1.2,2.611,5.12Z" transform="translate(59.211 0.015)" fill="#212e3b"/>
      </g>
      <path id="Path_637" data-name="Path 637" d="M0,0H5.25V.981H0ZM0,8.61H5.25v.981H0ZM0,5.264v-.93l.981.007L5.25,4.334v.923L.981,5.264Z" transform="translate(40.741 0.368)" fill="#9f311b"/>
      <path id="Path_638" data-name="Path 638" d="M0,0H5.25V.981H0ZM0,8.61H5.25v.981H0ZM0,5.264v-.93l.981.007L5.25,4.334v.923L.981,5.264Z" transform="translate(40.741 13.652)" fill="#9f311b"/>
    </g>
    <text id="WWW.PROJEKTLATERNA.PL" transform="translate(118.285 288.997)" fill="#212e3b" font-size="13" font-family="SulphurPoint-Bold, Sulphur Point" font-weight="700"><tspan x="-70.453" y="0">WWW.PROJEKTLATERNA.PL</tspan></text>
  </g>
</svg>
