<?xml version="1.0" encoding="utf-8"?>
<!-- Generator: Adobe Illustrator 24.0.3, SVG Export Plug-In . SVG Version: 6.00 Build 0)  -->
<svg version="1.1" id="Layer_1" xmlns="http://www.w3.org/2000/svg" xmlns:xlink="http://www.w3.org/1999/xlink" x="0px" y="0px"
	 viewBox="0 0 481.4 372.1" style="enable-background:new 0 0 481.4 372.1;" xml:space="preserve">
<style type="text/css">
	.st0{fill:#FCF7F6;}
	.st1{fill:#212E3B;}
	.st2{fill:#AD6E42;}
	.st3{fill:#9F311B;}
	.st4{enable-background:new    ;}
</style>
<g id="Group_84" transform="translate(0 61.522) rotate(-8)">
	
		<rect id="Rectangle_12" x="0" y="0" transform="matrix(-1 2.632331e-06 -2.632331e-06 -1 442.0525 313.6174)" class="st0" width="442.1" height="313.6"/>
	<polygon class="st1" points="233,177.3 233,176.6 410.8,176.6 410.8,177.3 	"/>
	<polygon class="st1" points="233,207.2 233,206.4 410.8,206.4 410.8,207.2 	"/>
	<polygon class="st1" points="231.4,237 231.4,236.3 409.3,236.3 409.3,237 	"/>
	<polygon class="st1" points="314,266.9 314,266.1 409.5,266.1 409.5,266.9 	"/>
	<polygon class="st1" points="257.8,258.1 257.8,257.3 264.2,257.3 264.2,258.1 	"/>
	<path class="st1" d="M285,267.6c-1.1-0.2-2-0.4-2.4-0.8c-1.7-1.4-1.6-17.9-1-19.4l0,0c0.1-0.3,0.4-0.6,0.9-0.8
		c2.4-0.9,9.5,0.1,10.3,0.6c0.9,0.6,2.1,10.2,2.2,14.6c0.1,4-0.3,4.8-0.7,5.1C292.9,267.8,288.1,268.1,285,267.6z M282.2,247.7
		c-1,2.9,0,18,0.8,18.6c1.2,1.1,9.2,1,10.7,0c0,0,0.2-0.1,0.3-0.9c0.6-4.1-1.2-16.7-1.8-17.5c-0.6-0.3-7.4-1.3-9.6-0.5
		C282.5,247.4,282.3,247.5,282.2,247.7L282.2,247.7z"/>
	<path class="st1" d="M364.7,107.3c-5.8-0.8-10.4-2-12.5-3.4c-5.1-3.4-5.7-31.6-5.8-40.2c-0.1-17.3,1.2-37.8,3.7-41.8l0,0
		c3.6-5.6,53.2-2.7,57.9-0.6c0.5,0.2,0.9,0.9,1.3,2.1c3.6,11.8,2.8,74.4,0.1,78.6c-1.3,2.1-4.6,3.7-9.6,4.8
		C390,109.1,375.4,108.8,364.7,107.3z M403.7,21.2c-12.8-1.8-50.1-3.4-53,1.1l0,0c-2.1,3.3-3.7,21.5-3.6,41.4
		c0.1,22,2.3,37.5,5.4,39.6c5.8,3.8,32.5,6,47,2.9c4.8-1,7.9-2.6,9.1-4.5c2.5-4,3.2-66.8-0.2-78c-0.4-1.3-0.7-1.6-0.9-1.6
		C407.1,21.8,405.7,21.5,403.7,21.2z"/>
	<path class="st1" d="M301.2,267.4c-1.3-0.2-2-0.5-2.3-1c-0.8-1.7-1.9-16.1-1-18c0.4-0.9,2.8-1.4,4.7-1.6c0.1,0,5.9-0.7,6.8,0.5
		c0.9,1.1,1.7,18.2,1,19.2c-0.6,0.9-5.9,1.3-8.6,1C301.6,267.5,301.4,267.4,301.2,267.4z M308,247.4c-1.2-0.2-3.5-0.2-5.9,0.2
		c-2.5,0.4-3.3,0.9-3.4,1.1l0,0c-0.8,1.8,0.2,15.8,1,17.4c0,0.1,0.2,0.4,1.3,0.6c2.9,0.5,8.4-0.1,8.9-0.6c0.5-1.2-0.3-17.3-1-18.3
		C308.7,247.6,308.4,247.5,308,247.4z"/>
	<path class="st1" d="M268.4,267.5c-0.4,0-0.7-0.1-0.9-0.2c-0.5-0.2-0.8-0.4-0.9-0.7c-0.6-1.6-0.5-16.9,0.7-18.8l0,0
		c0.6-0.9,2.3-1.2,3.7-1.3c2.3-0.1,5.2,0.3,5.9,1.2c1,1.2,1,13.7,0.5,17.5c-0.2,1-0.3,1.3-0.5,1.5
		C276,267.3,271.1,267.8,268.4,267.5z M267.9,248.2c-1.1,1.7-1.1,16.9-0.6,18.1c0,0,0.1,0.1,0.4,0.2c2,0.7,8,0,8.7-0.4
		c0.8-1.1,0.8-16.8-0.1-17.9c-0.4-0.5-2.9-1.1-5.3-1C269.4,247.4,268.3,247.7,267.9,248.2L267.9,248.2z"/>
	<path class="st1" d="M247.8,267c-1.7-0.2-3.2-0.6-3.8-1.2c-1.5-1.5-0.1-12.7-0.1-12.8c0.7-5.2,1.2-5.5,1.4-5.6
		c1-0.6,8.4-0.8,10.1,0.1c0.4,0.2,0.5,0.5,0.5,0.7l0,0.7c0.1,17.1-0.5,17.6-0.8,17.9C254.4,267.3,250.8,267.4,247.8,267z
		 M253.6,247.8c-2.6-0.4-7.3-0.1-7.9,0.2c-0.3,0.4-1,4-1.4,8.5c-0.4,5.4-0.2,8.3,0.3,8.7c1.4,1.4,9.3,1.5,10,1
		c0.2-0.3,0.6-2.6,0.5-17.3l0-0.7c0,0-0.1-0.2-0.6-0.3C254.2,247.9,253.9,247.8,253.6,247.8z"/>
	<path class="st1" d="M233.4,267c-0.6-0.1-1.1-0.2-1.4-0.4c-1.5-1.1-1.2-16.5-0.1-18.5l0,0c0.3-0.4,0.9-0.7,1.8-0.9
		c2.2-0.4,6.2,0.1,6.9,0.8c0.9,0.9,1,16.5,0.1,17.8C240,266.9,235.8,267.3,233.4,267z M232.6,248.4c-1.2,2.2-1,16.6-0.1,17.5
		c1.1,0.8,7,0.3,7.7-0.6c0.7-1.1,0.8-15.7,0-16.8c-0.4-0.4-4-1-6.3-0.6C232.9,248.1,232.6,248.4,232.6,248.4L232.6,248.4z"/>
	<g id="Group_83" transform="translate(244.207 51.931)">
		<g id="Group_81" transform="translate(0 0)">
			<path id="Path_625" class="st1" d="M4.2,0.4c0.5,0.3,0.9,0.7,1.1,1.1c0.3,0.5,0.4,1,0.4,1.5c0,0.5-0.1,1.1-0.4,1.5
				C5.1,5.1,4.7,5.5,4.2,5.7C3.8,6,3.2,6.2,2.7,6.1L1,6.1l0,3.5H0L0,0l2.7,0C3.2,0,3.8,0.2,4.2,0.4z M3.7,4.9C4,4.7,4.3,4.5,4.5,4.1
				c0.2-0.3,0.3-0.7,0.3-1c0-0.4-0.1-0.7-0.3-1C4.3,1.7,4,1.5,3.7,1.3C3.4,1.1,3,1,2.7,1L1,1l0,4.2l1.7,0C3,5.2,3.4,5.1,3.7,4.9
				L3.7,4.9z"/>
			<path id="Path_626" class="st1" d="M12.5,6.2l3.1,3.4h-1.3l-3.1-3.4h-0.1l0,3.4h-1V0l2.5,0c0.5,0,1.1,0.1,1.5,0.4
				c0.5,0.3,0.8,0.7,1.1,1.1c0.3,0.5,0.4,1,0.4,1.5c0,0.5-0.1,1.1-0.4,1.5c-0.3,0.5-0.6,0.8-1.1,1.1C13.6,6,13.1,6.2,12.5,6.2
				L12.5,6.2z M11.1,1v4.2l1.5,0c0.4,0,0.7-0.1,1-0.3c0.3-0.2,0.6-0.4,0.8-0.8c0.2-0.3,0.3-0.7,0.3-1c0-0.4-0.1-0.7-0.3-1
				c-0.2-0.3-0.4-0.6-0.8-0.8c-0.3-0.2-0.7-0.3-1-0.3L11.1,1z"/>
			<path id="Path_627" class="st2" d="M21.7,9c-0.7-0.4-1.3-1-1.7-1.7c-0.4-0.7-0.7-1.6-0.6-2.4c0-0.8,0.2-1.7,0.6-2.4
				c0.4-0.7,1-1.3,1.8-1.8c0.7-0.4,1.6-0.7,2.4-0.6c0.8,0,1.7,0.2,2.4,0.6c0.7,0.4,1.3,1,1.8,1.8c0.4,0.7,0.7,1.6,0.6,2.4
				c0,0.8-0.2,1.7-0.6,2.4c-0.4,0.7-1,1.3-1.8,1.8c-0.7,0.4-1.6,0.7-2.4,0.6C23.2,9.7,22.4,9.5,21.7,9z M26,8.2
				c0.6-0.3,1.1-0.8,1.4-1.4c0.3-0.6,0.5-1.2,0.5-1.9c0-0.7-0.2-1.3-0.5-1.9C27,2.4,26.6,1.9,26,1.6c-0.6-0.3-1.2-0.5-1.9-0.5
				c-0.7,0-1.3,0.2-1.9,0.5c-0.6,0.3-1.1,0.8-1.4,1.4c-0.3,0.6-0.5,1.2-0.5,1.9c0,0.7,0.2,1.3,0.5,1.9c0.3,0.6,0.8,1.1,1.4,1.4
				c0.6,0.3,1.2,0.5,1.9,0.5C24.7,8.7,25.4,8.5,26,8.2z"/>
			<path id="Path_628" class="st1" d="M34.1,8.1c0.3-0.3,0.5-0.7,0.5-1.2V0l1,0v7c0,0.5-0.1,0.9-0.4,1.3c-0.2,0.4-0.6,0.7-1,1
				c-0.4,0.2-0.9,0.4-1.3,0.4v-1C33.4,8.6,33.8,8.5,34.1,8.1z"/>
			<path id="Path_629" class="st1" d="M51.3,5.6v4h-0.9l0-9.6l0.9,0v4.1L54.8,0l1.3,0l-4.2,4.9l4.2,4.7l-1.3,0L51.3,5.6z"/>
			<path id="Path_630" class="st1" d="M66.1,1l-2.5,0v8.6h-1V1l-2.5,0l0-1l5.9,0V1z"/>
		</g>
		<g id="Group_82" transform="translate(11.443 13.652)">
			<path id="Path_631" class="st1" d="M4.1,8.6v1L0,9.6L0,0l1,0l0,8.6L4.1,8.6z"/>
			<path id="Path_632" class="st1" d="M14.3,6.1l-3.4,0L9.7,9.6l-1.1,0L12,0l1.2,0l3.4,9.6h-1.1L14.3,6.1z M14,5.1l-1.4-3.9
				l-1.4,3.9L14,5.1z"/>
			<path id="Path_633" class="st1" d="M25,1l-2.5,0l0,8.6l-1,0V1l-2.5,0V0L25,0V1z"/>
			<path id="Path_634" class="st1" d="M41.3,6.1l3.1,3.4h-1.3L40,6.1h-0.1v3.4h-1V0l2.5,0c0.5,0,1.1,0.1,1.5,0.4
				c0.5,0.3,0.8,0.7,1.1,1.1c0.3,0.5,0.4,1,0.4,1.5c0,0.5-0.1,1.1-0.4,1.5c-0.3,0.5-0.7,0.8-1.1,1.1C42.4,6,41.9,6.1,41.3,6.1
				L41.3,6.1z M39.9,1v4.2h1.5c0.4,0,0.7-0.1,1-0.3c0.3-0.2,0.6-0.4,0.8-0.8c0.2-0.3,0.3-0.7,0.3-1c0-0.4-0.1-0.7-0.3-1
				c-0.2-0.3-0.4-0.6-0.8-0.8C42,1.1,41.7,1,41.3,1L39.9,1z"/>
			<path id="Path_635" class="st1" d="M55.6,0v9.6h-1.2l-4.8-7.7v7.7h-1V0l1,0l5,8V0L55.6,0z"/>
			<path id="Path_636" class="st1" d="M64.9,6.1l-3.4,0l-1.2,3.5h-1.1L62.6,0l1.2,0l3.4,9.6h-1.1L64.9,6.1z M64.6,5.1l-1.4-3.9
				l-1.4,3.9H64.6z"/>
		</g>
		<path id="Path_637" class="st3" d="M40.7,0.4l5.2,0v1l-5.2,0V0.4z M40.7,9H46v1h-5.2V9z M40.7,5.6V4.7l1,0l4.3,0v0.9l-4.3,0H40.7z
			"/>
		<path id="Path_638" class="st3" d="M40.7,13.7l5.2,0v1l-5.2,0V13.7z M40.7,22.3l5.2,0v1h-5.2V22.3z M40.7,18.9V18l1,0l4.3,0v0.9
			l-4.3,0H40.7z"/>
	</g>
	<g class="st4">
		<path class="st1" d="M56.4,289l-1.2,0l-1.3-3.7l-1.3,3.7l-1.2,0l-3.1-8.7l1.3,0l2.4,6.8l1.2-3.5l-1.2-3.2l1.3,0l1.1,3.2l1.3,3.6
			l2.4-6.8l1.3,0L56.4,289z"/>
		<path class="st1" d="M68.4,289l-1.2,0l-1.3-3.7l-1.3,3.7l-1.2,0l-3.1-8.7l1.3,0l2.4,6.8l1.2-3.5l-1.2-3.2l1.3,0l1.1,3.2l1.3,3.6
			l2.4-6.8l1.3,0L68.4,289z"/>
		<path class="st1" d="M80.4,289l-1.2,0l-1.3-3.7l-1.3,3.7l-1.2,0l-3.1-8.7l1.3,0l2.4,6.8l1.2-3.6l-1.2-3.2l1.3,0l1.1,3.2l1.3,3.6
			l2.4-6.8l1.3,0L80.4,289z"/>
		<path class="st1" d="M82.9,288.8c-0.1-0.1-0.2-0.2-0.2-0.4c0-0.2,0.1-0.3,0.2-0.4c0.1-0.1,0.2-0.2,0.4-0.2c0.2,0,0.3,0.1,0.4,0.2
			c0.1,0.1,0.2,0.2,0.2,0.4c0,0.2-0.1,0.3-0.2,0.4c-0.1,0.1-0.2,0.2-0.4,0.2C83.2,289,83,288.9,82.9,288.8z"/>
		<path class="st1" d="M86.4,286l0,3l-1.1,0l0-8.6l2.4,0c0.4,0,0.7,0.1,1.1,0.2c0.3,0.1,0.6,0.3,0.9,0.6c0.3,0.3,0.5,0.6,0.6,0.9
			c0.1,0.3,0.2,0.7,0.2,1.1c0,0.4-0.1,0.7-0.2,1.1c-0.1,0.3-0.3,0.6-0.6,0.9c-0.3,0.3-0.6,0.5-0.9,0.6c-0.3,0.1-0.7,0.2-1.1,0.2
			L86.4,286z M86.4,281.5l0,3.3l1.3,0c0.5,0,0.8-0.2,1.1-0.5c0.3-0.3,0.5-0.7,0.5-1.2c0-0.4-0.2-0.8-0.5-1.2
			c-0.3-0.3-0.7-0.5-1.1-0.5L86.4,281.5z"/>
		<path class="st1" d="M96.8,289l-1.5,0l-2.5-3l0,3l-1.1,0l0-8.6l2.2,0c0.4,0,0.7,0.1,1.1,0.2c0.3,0.1,0.6,0.3,0.9,0.6
			c0.3,0.3,0.4,0.6,0.6,0.9c0.1,0.3,0.2,0.7,0.2,1.1c0,0.4-0.1,0.7-0.2,1c-0.1,0.3-0.3,0.6-0.5,0.9c-0.2,0.3-0.5,0.5-0.8,0.6
			c-0.3,0.2-0.6,0.3-0.9,0.3L96.8,289z M92.7,281.5l0,3.3l1.1,0c0.2,0,0.4,0,0.6-0.1c0.2-0.1,0.4-0.2,0.5-0.4
			c0.1-0.2,0.3-0.3,0.3-0.5c0.1-0.2,0.1-0.4,0.1-0.6c0-0.4-0.2-0.8-0.5-1.2c-0.1-0.1-0.3-0.3-0.5-0.4c-0.2-0.1-0.4-0.1-0.6-0.1
			L92.7,281.5z"/>
		<path class="st1" d="M100.2,288.7c-0.5-0.2-1-0.5-1.4-0.9c-0.4-0.4-0.7-0.9-0.9-1.4c-0.2-0.5-0.3-1.1-0.3-1.7
			c0-0.6,0.1-1.1,0.3-1.7c0.2-0.5,0.5-1,0.9-1.4c0.4-0.4,0.9-0.7,1.4-0.9c0.5-0.2,1.1-0.3,1.7-0.3c0.6,0,1.1,0.1,1.7,0.3
			c0.5,0.2,1,0.5,1.4,0.9c0.4,0.4,0.7,0.9,0.9,1.4s0.3,1.1,0.3,1.7c0,0.6-0.1,1.1-0.3,1.7c-0.2,0.5-0.5,1-0.9,1.4
			c-0.4,0.4-0.9,0.7-1.4,0.9c-0.5,0.2-1.1,0.3-1.7,0.3C101.3,289.1,100.7,289,100.2,288.7z M100.6,281.8c-0.4,0.2-0.7,0.4-1,0.7
			s-0.5,0.6-0.7,1c-0.2,0.4-0.2,0.8-0.2,1.2c0,0.4,0.1,0.8,0.2,1.2c0.2,0.4,0.4,0.7,0.7,1c0.3,0.3,0.6,0.5,1,0.7
			c0.4,0.2,0.8,0.2,1.2,0.2c0.4,0,0.8-0.1,1.2-0.2s0.7-0.4,1-0.7c0.3-0.3,0.5-0.6,0.7-1c0.2-0.4,0.2-0.8,0.2-1.2
			c0-0.4-0.1-0.8-0.2-1.2c-0.2-0.4-0.4-0.7-0.7-1c-0.3-0.3-0.6-0.5-1-0.7c-0.4-0.2-0.8-0.2-1.2-0.2
			C101.4,281.5,101,281.6,100.6,281.8z"/>
		<path class="st1" d="M106.7,287.8c0.4,0,0.7-0.1,0.9-0.4c0.2-0.2,0.4-0.5,0.4-0.9l0-6.2l1.1,0l0,6.2c0,0.3-0.1,0.7-0.2,0.9
			c-0.1,0.3-0.3,0.6-0.5,0.8c-0.2,0.2-0.5,0.4-0.8,0.5c-0.3,0.1-0.6,0.2-0.9,0.2L106.7,287.8z"/>
		<path class="st1" d="M110.4,289l0-8.6l4.7,0l0,1.2l-3.6,0l0,2.6l2.4,0l0,1.1l-2.4,0l0,2.6l3.6,0l0,1.2L110.4,289z"/>
		<path class="st1" d="M120.4,289l-2.8-3.2l0,3.2h-1.1l0-8.6h1.1l0,3.3l2.7-3.3l1.5,0l-3.7,4.4l3.7,4.3L120.4,289z"/>
		<path class="st1" d="M125.8,281.5l0,7.5l-1.1,0l0-7.5l-2.1,0l0-1.1l5.3,0l0,1.1L125.8,281.5z"/>
		<path class="st1" d="M129.1,289l0-8.6l1.1,0l0,7.5l2.6,0l0,1.2L129.1,289z"/>
		<path class="st1" d="M139.9,289l-1.1-3l-2.7,0l-1.1,3l-1.2,0l3-8.6l1.3,0l3,8.6L139.9,289z M137.5,282l-1,2.8l2,0L137.5,282z"/>
		<path class="st1" d="M144.5,281.5l0,7.5l-1.1,0l0-7.5l-2.1,0l0-1.1l5.3,0l0,1.1L144.5,281.5z"/>
		<path class="st1" d="M147.8,289l0-8.6l4.7,0l0,1.2l-3.6,0l0,2.6l2.4,0l0,1.1l-2.4,0l0,2.6l3.6,0l0,1.2L147.8,289z"/>
		<path class="st1" d="M159,289l-1.5,0l-2.5-3l0,3l-1.1,0l0-8.6l2.2,0c0.4,0,0.7,0.1,1.1,0.2c0.3,0.1,0.6,0.3,0.9,0.6
			c0.3,0.3,0.4,0.6,0.6,0.9c0.1,0.3,0.2,0.7,0.2,1.1c0,0.4-0.1,0.7-0.2,1c-0.1,0.3-0.3,0.6-0.5,0.9c-0.2,0.3-0.5,0.5-0.8,0.6
			c-0.3,0.2-0.6,0.3-0.9,0.3L159,289z M154.9,281.5l0,3.3l1.1,0c0.2,0,0.4,0,0.6-0.1s0.4-0.2,0.5-0.4c0.1-0.2,0.3-0.3,0.3-0.5
			c0.1-0.2,0.1-0.4,0.1-0.6c0-0.4-0.2-0.8-0.5-1.2c-0.1-0.1-0.3-0.3-0.5-0.4c-0.2-0.1-0.4-0.1-0.6-0.1L154.9,281.5z"/>
		<path class="st1" d="M165.2,289l-3.9-6.3l0,6.3l-1.2,0l0-8.6l1.1,0l4,6.5l0-6.5h1.1l0,8.6L165.2,289z"/>
		<path class="st1" d="M173.7,289l-1.1-3l-2.7,0l-1.1,3l-1.2,0l3-8.6l1.3,0l3,8.6L173.7,289z M171.3,282l-1,2.8l2,0L171.3,282z"/>
		<path class="st1" d="M175.8,288.8c-0.1-0.1-0.2-0.2-0.2-0.4c0-0.2,0.1-0.3,0.2-0.4c0.1-0.1,0.2-0.2,0.4-0.2c0.2,0,0.3,0.1,0.4,0.2
			c0.1,0.1,0.2,0.2,0.2,0.4c0,0.2-0.1,0.3-0.2,0.4c-0.1,0.1-0.2,0.2-0.4,0.2C176.1,289,176,288.9,175.8,288.8z"/>
		<path class="st1" d="M179.3,286l0,3l-1.1,0l0-8.6l2.4,0c0.4,0,0.7,0.1,1.1,0.2c0.3,0.1,0.6,0.3,0.9,0.6c0.3,0.3,0.5,0.6,0.6,0.9
			c0.1,0.3,0.2,0.7,0.2,1.1c0,0.4-0.1,0.7-0.2,1.1c-0.1,0.3-0.3,0.6-0.6,0.9c-0.3,0.3-0.6,0.5-0.9,0.6c-0.3,0.1-0.7,0.2-1.1,0.2
			L179.3,286z M179.3,281.5l0,3.3l1.3,0c0.5,0,0.8-0.2,1.1-0.5c0.3-0.3,0.5-0.7,0.5-1.2c0-0.4-0.2-0.8-0.5-1.2
			c-0.3-0.3-0.7-0.5-1.1-0.5L179.3,281.5z"/>
		<path class="st1" d="M184.5,289l0-8.6l1.1,0l0,7.5l2.6,0l0,1.2L184.5,289z"/>
	</g>
</g>
</svg>
