<svg xmlns="http://www.w3.org/2000/svg" width="385.73" height="506.87" viewBox="0 0 385.73 506.87">
  <g id="paszport_okładka" data-name="paszport okładka" transform="translate(0 40.328) rotate(-7)">
    <rect id="Rectangle_79" data-name="Rectangle 79" width="330.912" height="470.046" fill="#2e3c4b"/>
    <g id="Group_250" data-name="Group 250" transform="translate(23.974 184.061)">
      <path id="Path_2858" data-name="Path 2858" d="M6.348-10.626V0H2.3V-30.59h8.6a9.47,9.47,0,0,1,3.726.759A9.908,9.908,0,0,1,17.8-27.692a10.377,10.377,0,0,1,2.139,3.243,9.865,9.865,0,0,1,.759,3.841,9.865,9.865,0,0,1-.759,3.841,9.84,9.84,0,0,1-2.139,3.2,10.23,10.23,0,0,1-3.174,2.162,9.23,9.23,0,0,1-3.726.782Zm0-15.778V-14.72H10.9a5.363,5.363,0,0,0,4.048-1.748,5.635,5.635,0,0,0,1.7-4.14,5.582,5.582,0,0,0-1.7-4.094A5.529,5.529,0,0,0,10.9-26.4ZM42.872,0,39.1-10.764H29.532L25.76,0H21.39L32.016-30.544h4.6L47.242,0ZM34.316-24.61l-3.5,9.982h6.946Zm32.246,3.45A7.091,7.091,0,0,0,65.6-24.1a5.03,5.03,0,0,0-2.047-1.817,7.291,7.291,0,0,0-3.1-.575q-3.128,0-4.37,1.334a4.671,4.671,0,0,0-1.2,3.45,5.071,5.071,0,0,0,.368,2.093,3.157,3.157,0,0,0,1.1,1.311A7.7,7.7,0,0,0,59.984-17.3a25.4,25.4,0,0,1,4.347.713,11.686,11.686,0,0,1,3.1,1.311,7.264,7.264,0,0,1,3.358,6.624,8.115,8.115,0,0,1-.69,3.312A9.186,9.186,0,0,1,68.172-2.53,9.262,9.262,0,0,1,64.7-.414a12.68,12.68,0,0,1-4.163.69,10.805,10.805,0,0,1-7.774-2.76,10.918,10.918,0,0,1-2.99-6.624l.092-.046h4.048A6.017,6.017,0,0,0,55.568-5.52,6.842,6.842,0,0,0,60.4-3.864,7.263,7.263,0,0,0,65-5.2a4.186,4.186,0,0,0,1.7-3.45,5.024,5.024,0,0,0-.253-1.679,2.838,2.838,0,0,0-.943-1.265q-1.564-1.2-5.842-1.518a10.559,10.559,0,0,1-6.624-2.53,8.017,8.017,0,0,1-2.254-6.072,8.646,8.646,0,0,1,2.438-6.394A9.7,9.7,0,0,1,60.4-30.682a9.623,9.623,0,0,1,7.452,2.9A11.528,11.528,0,0,1,70.7-21.16ZM75.624-3.634,91.172-26.45H75.624v-4.14H96.416v3.726L80.914-4.186h15.5V0H75.624Zm30.13-6.992V0h-4.048V-30.59h8.6a9.47,9.47,0,0,1,3.726.759,9.908,9.908,0,0,1,3.174,2.139,10.377,10.377,0,0,1,2.139,3.243,9.865,9.865,0,0,1,.759,3.841,9.865,9.865,0,0,1-.759,3.841,9.84,9.84,0,0,1-2.139,3.2,10.23,10.23,0,0,1-3.174,2.162,9.23,9.23,0,0,1-3.726.782Zm0-15.778V-14.72h4.554a5.363,5.363,0,0,0,4.048-1.748,5.635,5.635,0,0,0,1.7-4.14,5.582,5.582,0,0,0-1.7-4.094,5.529,5.529,0,0,0-4.048-1.7ZM140.254.23a15.062,15.062,0,0,1-5.911-1.173,14.871,14.871,0,0,1-4.9-3.335,15.4,15.4,0,0,1-3.312-4.945,15.142,15.142,0,0,1-1.2-5.957,15.062,15.062,0,0,1,1.173-5.911,15.386,15.386,0,0,1,3.335-4.945,15.537,15.537,0,0,1,4.9-3.312,14.812,14.812,0,0,1,5.911-1.2,14.976,14.976,0,0,1,5.934,1.2,15.466,15.466,0,0,1,4.922,3.312,15.466,15.466,0,0,1,3.312,4.922,14.976,14.976,0,0,1,1.2,5.934,15.142,15.142,0,0,1-1.2,5.957,15.4,15.4,0,0,1-3.312,4.945,15.466,15.466,0,0,1-4.922,3.312A14.976,14.976,0,0,1,140.254.23Zm0-26.588a11.094,11.094,0,0,0-4.3.851,11.065,11.065,0,0,0-3.611,2.415,11.065,11.065,0,0,0-2.415,3.611,11.094,11.094,0,0,0-.851,4.3,11.288,11.288,0,0,0,.874,4.393,11.083,11.083,0,0,0,2.392,3.611,11.065,11.065,0,0,0,3.611,2.415,11.094,11.094,0,0,0,4.3.851,11.094,11.094,0,0,0,4.3-.851,11.064,11.064,0,0,0,3.611-2.415,11.083,11.083,0,0,0,2.392-3.611,11.288,11.288,0,0,0,.874-4.393,11.094,11.094,0,0,0-.851-4.3,11.065,11.065,0,0,0-2.415-3.611,11.064,11.064,0,0,0-3.611-2.415A11.094,11.094,0,0,0,140.254-26.358ZM179.17,0h-5.428l-8.786-10.442V0h-4.048V-30.544h7.866a9.531,9.531,0,0,1,3.795.759,9.456,9.456,0,0,1,3.1,2.139,10.449,10.449,0,0,1,2.07,3.243,10.133,10.133,0,0,1,.736,3.841,10.182,10.182,0,0,1-.644,3.634A9.59,9.59,0,0,1,176-13.892a10.031,10.031,0,0,1-2.806,2.185,9.189,9.189,0,0,1-3.358,1.035ZM164.956-26.4V-14.72h3.818a5.481,5.481,0,0,0,2.208-.46,5.9,5.9,0,0,0,1.84-1.242,6.134,6.134,0,0,0,1.219-1.886,5.845,5.845,0,0,0,.437-2.254,5.922,5.922,0,0,0-1.656-4.14,5.9,5.9,0,0,0-1.84-1.242,5.481,5.481,0,0,0-2.208-.46Zm30.5-.276V0h-4.048V-26.68H184v-3.91h18.86v3.91Z" transform="translate(36.133 36.282)" fill="#fcf8f7"/>
      <path id="Path_2857" data-name="Path 2857" d="M-83.475,0V-7.294l-2.772,4H-87.2l-2.758-4V0h-1.26V-9.31h1.386l3.108,4.494,3.108-4.494h1.4V0Zm2.66,0V-9.31h1.176V0ZM-72.5-1.26V0h-4V-2.38l-.728,1.358h-1.148L-76.5-4.508v-4.8h1.2v2.562l1.106-2.058h1.148L-75.3-4.62v3.36ZM-66.717.07a4.584,4.584,0,0,1-1.8-.357A4.526,4.526,0,0,1-70.007-1.3a4.686,4.686,0,0,1-1.008-1.5,4.609,4.609,0,0,1-.364-1.813,4.584,4.584,0,0,1,.357-1.8,4.683,4.683,0,0,1,1.015-1.5,4.729,4.729,0,0,1,1.491-1.008,4.508,4.508,0,0,1,1.8-.364,4.558,4.558,0,0,1,1.806.364,4.707,4.707,0,0,1,1.5,1.008,4.707,4.707,0,0,1,1.008,1.5,4.558,4.558,0,0,1,.364,1.806A4.609,4.609,0,0,1-62.4-2.807a4.686,4.686,0,0,1-1.008,1.5,4.707,4.707,0,0,1-1.5,1.008A4.558,4.558,0,0,1-66.717.07Zm0-8.092a3.376,3.376,0,0,0-1.309.259,3.367,3.367,0,0,0-1.1.735,3.367,3.367,0,0,0-.735,1.1,3.376,3.376,0,0,0-.259,1.309,3.435,3.435,0,0,0,.266,1.337,3.373,3.373,0,0,0,.728,1.1,3.367,3.367,0,0,0,1.1.735,3.376,3.376,0,0,0,1.309.259,3.376,3.376,0,0,0,1.309-.259,3.367,3.367,0,0,0,1.1-.735,3.373,3.373,0,0,0,.728-1.1,3.435,3.435,0,0,0,.266-1.337,3.376,3.376,0,0,0-.259-1.309,3.367,3.367,0,0,0-.735-1.1,3.367,3.367,0,0,0-1.1-.735A3.376,3.376,0,0,0-66.717-8.022ZM-55.811-6.44a2.158,2.158,0,0,0-.294-.9,1.531,1.531,0,0,0-.623-.553,2.219,2.219,0,0,0-.945-.175A1.77,1.77,0,0,0-59-7.658a1.421,1.421,0,0,0-.364,1.05,1.543,1.543,0,0,0,.112.637.961.961,0,0,0,.336.4,2.342,2.342,0,0,0,1.106.308,7.729,7.729,0,0,1,1.323.217,3.557,3.557,0,0,1,.945.4,2.211,2.211,0,0,1,1.022,2.016,2.47,2.47,0,0,1-.21,1.008,2.8,2.8,0,0,1-.588.854,2.819,2.819,0,0,1-1.057.644,3.859,3.859,0,0,1-1.267.21,3.289,3.289,0,0,1-2.366-.84,3.323,3.323,0,0,1-.91-2.016l.028-.014h1.232a1.831,1.831,0,0,0,.5,1.106,2.082,2.082,0,0,0,1.47.5,2.21,2.21,0,0,0,1.4-.406,1.274,1.274,0,0,0,.518-1.05,1.529,1.529,0,0,0-.077-.511.864.864,0,0,0-.287-.385,3.546,3.546,0,0,0-1.778-.462,3.214,3.214,0,0,1-2.016-.77,2.44,2.44,0,0,1-.686-1.848,2.631,2.631,0,0,1,.742-1.946,2.952,2.952,0,0,1,2.184-.784,2.929,2.929,0,0,1,2.268.882,3.508,3.508,0,0,1,.868,2.016ZM-57.351-10h-.938l.518-1.932h1.092Zm9.534,10-4.2-6.832V0h-1.246V-9.31h1.218l4.34,7.028V-9.31h1.232V0Zm2.744,0V-9.31H-43.9V0Zm6.818,0-3.01-3.43V0H-42.5V-9.3h1.232v3.542L-38.311-9.3h1.624l-3.934,4.718L-36.589,0Zm8.624,0-1.148-3.276h-2.912L-34.839,0h-1.33l3.234-9.3h1.4L-28.3,0Zm-2.6-7.49L-33.3-4.452h2.114ZM-20.741,0V-9.31h1.2v8.05h2.8V0ZM-9.079,0l-1.148-3.276h-2.912L-14.287,0h-1.33l3.234-9.3h1.4L-7.749,0Zm-2.6-7.49-1.064,3.038h2.114Zm7.56-.63V0H-5.355V-8.12H-7.609V-9.31h5.74v1.19ZM4.389,0,3.241-3.276H.329L-.819,0h-1.33L1.085-9.3h1.4L5.719,0Zm-2.6-7.49L.721-4.452H2.835ZM12.257,0H10.605L7.931-3.178V0H6.7V-9.3H9.093a2.9,2.9,0,0,1,1.155.231,2.878,2.878,0,0,1,.945.651,3.18,3.18,0,0,1,.63.987,3.084,3.084,0,0,1,.224,1.169,3.1,3.1,0,0,1-.2,1.106,2.919,2.919,0,0,1-.56.924,3.053,3.053,0,0,1-.854.665,2.8,2.8,0,0,1-1.022.315ZM7.931-8.036V-4.48H9.093a1.668,1.668,0,0,0,.672-.14A1.8,1.8,0,0,0,10.325-5a1.867,1.867,0,0,0,.371-.574,1.779,1.779,0,0,0,.133-.686,1.8,1.8,0,0,0-.5-1.26,1.8,1.8,0,0,0-.56-.378,1.668,1.668,0,0,0-.672-.14ZM18.963,0l-4.2-6.832V0H13.517V-9.31h1.218l4.34,7.028V-9.31h1.232V0Zm2.744,0V-9.31h1.176V0ZM38.325,0V-7.294l-2.772,4H34.6l-2.758-4V0h-1.26V-9.31h1.386l3.108,4.494L38.185-9.31h1.4V0Zm7.182.07a4.584,4.584,0,0,1-1.8-.357A4.526,4.526,0,0,1,42.217-1.3a4.686,4.686,0,0,1-1.008-1.5,4.609,4.609,0,0,1-.364-1.813,4.584,4.584,0,0,1,.357-1.8,4.683,4.683,0,0,1,1.015-1.5,4.729,4.729,0,0,1,1.491-1.008,4.508,4.508,0,0,1,1.8-.364,4.558,4.558,0,0,1,1.806.364,4.707,4.707,0,0,1,1.5,1.008,4.707,4.707,0,0,1,1.008,1.5,4.558,4.558,0,0,1,.364,1.806,4.609,4.609,0,0,1-.364,1.813,4.686,4.686,0,0,1-1.008,1.5,4.707,4.707,0,0,1-1.5,1.008A4.558,4.558,0,0,1,45.507.07Zm0-8.092a3.376,3.376,0,0,0-1.309.259,3.367,3.367,0,0,0-1.1.735,3.367,3.367,0,0,0-.735,1.1A3.376,3.376,0,0,0,42.1-4.62a3.435,3.435,0,0,0,.266,1.337,3.373,3.373,0,0,0,.728,1.1,3.367,3.367,0,0,0,1.1.735,3.376,3.376,0,0,0,1.309.259,3.376,3.376,0,0,0,1.309-.259,3.367,3.367,0,0,0,1.1-.735,3.373,3.373,0,0,0,.728-1.1,3.435,3.435,0,0,0,.266-1.337,3.376,3.376,0,0,0-.259-1.309,3.367,3.367,0,0,0-.735-1.1,3.367,3.367,0,0,0-1.1-.735A3.376,3.376,0,0,0,45.507-8.022ZM57,0H55.349L52.675-3.178V0H51.443V-9.3h2.394a2.9,2.9,0,0,1,1.155.231,2.878,2.878,0,0,1,.945.651,3.18,3.18,0,0,1,.63.987,3.084,3.084,0,0,1,.224,1.169,3.1,3.1,0,0,1-.2,1.106,2.919,2.919,0,0,1-.56.924,3.053,3.053,0,0,1-.854.665,2.8,2.8,0,0,1-1.022.315ZM52.675-8.036V-4.48h1.162a1.668,1.668,0,0,0,.672-.14A1.8,1.8,0,0,0,55.069-5a1.867,1.867,0,0,0,.371-.574,1.779,1.779,0,0,0,.133-.686,1.8,1.8,0,0,0-.5-1.26,1.8,1.8,0,0,0-.56-.378,1.668,1.668,0,0,0-.672-.14Zm10.556,1.6a2.158,2.158,0,0,0-.294-.9,1.531,1.531,0,0,0-.623-.553,2.219,2.219,0,0,0-.945-.175,1.77,1.77,0,0,0-1.33.406,1.421,1.421,0,0,0-.364,1.05,1.543,1.543,0,0,0,.112.637.961.961,0,0,0,.336.4,2.342,2.342,0,0,0,1.106.308,7.729,7.729,0,0,1,1.323.217,3.557,3.557,0,0,1,.945.4,2.211,2.211,0,0,1,1.022,2.016,2.47,2.47,0,0,1-.21,1.008,2.8,2.8,0,0,1-.588.854,2.819,2.819,0,0,1-1.057.644A3.859,3.859,0,0,1,61.4.084a3.289,3.289,0,0,1-2.366-.84,3.323,3.323,0,0,1-.91-2.016l.028-.014h1.232a1.831,1.831,0,0,0,.5,1.106,2.082,2.082,0,0,0,1.47.5,2.21,2.21,0,0,0,1.4-.406,1.274,1.274,0,0,0,.518-1.05,1.529,1.529,0,0,0-.077-.511.864.864,0,0,0-.287-.385,3.546,3.546,0,0,0-1.778-.462,3.214,3.214,0,0,1-2.016-.77,2.44,2.44,0,0,1-.686-1.848,2.631,2.631,0,0,1,.742-1.946,2.952,2.952,0,0,1,2.184-.784,2.929,2.929,0,0,1,2.268.882,3.508,3.508,0,0,1,.868,2.016ZM70.021,0l-3.01-3.43V0H65.779V-9.3h1.232v3.542L69.965-9.3h1.624L67.655-4.578,71.687,0Zm2.926,0V-9.31h1.176V0Zm7.112.056a4.558,4.558,0,0,1-1.806-.364,4.6,4.6,0,0,1-1.5-1.022,4.707,4.707,0,0,1-1.008-1.5,4.593,4.593,0,0,1-.364-1.82,4.671,4.671,0,0,1,.357-1.82A4.662,4.662,0,0,1,76.755-7.98a4.707,4.707,0,0,1,1.5-1.008,4.558,4.558,0,0,1,1.806-.364,4.555,4.555,0,0,1,1.988.448,5.024,5.024,0,0,1,1.68,1.33l-.952.812a3.5,3.5,0,0,0-2.716-1.316,3.3,3.3,0,0,0-1.309.266,3.462,3.462,0,0,0-1.1.742,3.462,3.462,0,0,0-.742,1.1,3.334,3.334,0,0,0-.266,1.323,3.334,3.334,0,0,0,.266,1.323,3.462,3.462,0,0,0,.742,1.1,3.462,3.462,0,0,0,1.1.742,3.3,3.3,0,0,0,1.309.266,3.5,3.5,0,0,0,2.716-1.316l.952.812A5.189,5.189,0,0,1,82.04-.392,4.51,4.51,0,0,1,80.059.056ZM90,0V-4.018h-3.78V0H84.987V-9.31h1.232v4.032H90V-9.31h1.218V0ZM-66.241,14.766V18h-1.232V8.69h2.618a2.882,2.882,0,0,1,1.134.231,3.015,3.015,0,0,1,.966.651,3.158,3.158,0,0,1,.651.987,3,3,0,0,1,.231,1.169A3,3,0,0,1-62.1,12.9a3,3,0,0,1-.651.973,3.113,3.113,0,0,1-.966.658,2.809,2.809,0,0,1-1.134.238Zm0-4.8V13.52h1.386a1.632,1.632,0,0,0,1.232-.532,1.715,1.715,0,0,0,.518-1.26,1.7,1.7,0,0,0-.518-1.246,1.683,1.683,0,0,0-1.232-.518Zm10.15,8.106a4.584,4.584,0,0,1-1.8-.357A4.526,4.526,0,0,1-59.381,16.7a4.686,4.686,0,0,1-1.008-1.505,4.609,4.609,0,0,1-.364-1.813,4.584,4.584,0,0,1,.357-1.8,4.683,4.683,0,0,1,1.015-1.5A4.729,4.729,0,0,1-57.89,9.068a4.508,4.508,0,0,1,1.8-.364,4.558,4.558,0,0,1,1.806.364,4.707,4.707,0,0,1,1.5,1.008,4.707,4.707,0,0,1,1.008,1.5,4.558,4.558,0,0,1,.364,1.806,4.609,4.609,0,0,1-.364,1.813A4.686,4.686,0,0,1-52.787,16.7a4.707,4.707,0,0,1-1.5,1.008A4.558,4.558,0,0,1-56.091,18.07Zm0-8.092a3.376,3.376,0,0,0-1.309.259,3.367,3.367,0,0,0-1.1.735,3.367,3.367,0,0,0-.735,1.1,3.376,3.376,0,0,0-.259,1.309,3.435,3.435,0,0,0,.266,1.337,3.373,3.373,0,0,0,.728,1.1,3.367,3.367,0,0,0,1.1.735,3.376,3.376,0,0,0,1.309.259,3.376,3.376,0,0,0,1.309-.259,3.367,3.367,0,0,0,1.1-.735,3.373,3.373,0,0,0,.728-1.1,3.435,3.435,0,0,0,.266-1.337,3.376,3.376,0,0,0-.259-1.309,3.367,3.367,0,0,0-.735-1.1,3.367,3.367,0,0,0-1.1-.735A3.376,3.376,0,0,0-56.091,9.978ZM-50.155,18V8.69h1.2v8.05h2.8V18Zm9.954-6.44a2.158,2.158,0,0,0-.294-.9,1.531,1.531,0,0,0-.623-.553,2.219,2.219,0,0,0-.945-.175,1.77,1.77,0,0,0-1.33.406,1.421,1.421,0,0,0-.364,1.05,1.543,1.543,0,0,0,.112.637.961.961,0,0,0,.336.4,2.342,2.342,0,0,0,1.106.308,7.729,7.729,0,0,1,1.323.217,3.557,3.557,0,0,1,.945.4,2.211,2.211,0,0,1,1.022,2.016,2.47,2.47,0,0,1-.21,1.008,2.8,2.8,0,0,1-.588.854,2.819,2.819,0,0,1-1.057.644,3.859,3.859,0,0,1-1.267.21,3.289,3.289,0,0,1-2.366-.84,3.323,3.323,0,0,1-.91-2.016l.028-.014h1.232a1.831,1.831,0,0,0,.5,1.106,2.082,2.082,0,0,0,1.47.5,2.21,2.21,0,0,0,1.4-.406,1.274,1.274,0,0,0,.518-1.05,1.529,1.529,0,0,0-.077-.511.864.864,0,0,0-.287-.385A3.546,3.546,0,0,0-42.3,14.01a3.214,3.214,0,0,1-2.016-.77A2.44,2.44,0,0,1-45,11.392a2.631,2.631,0,0,1,.742-1.946,2.952,2.952,0,0,1,2.184-.784,2.929,2.929,0,0,1,2.268.882,3.508,3.508,0,0,1,.868,2.016Zm6.79,6.44-3.01-3.43V18h-1.232V8.7h1.232v3.542L-33.467,8.7h1.624l-3.934,4.718L-31.745,18Zm2.926,0V8.69h1.176V18Zm2.576,0V8.69h5.1V9.95h-3.878v2.828h2.6v1.148h-2.6V16.74h3.878V18Zm13.4-.9a4.9,4.9,0,0,1-.644.406,4.539,4.539,0,0,1-2.17.546,4.485,4.485,0,0,1-1.372-.21,4.394,4.394,0,0,1-1.582-.84,4.684,4.684,0,0,1-1.162-1.428,4.366,4.366,0,0,1-.532-2.142,4.233,4.233,0,0,1,.028-.56,4.76,4.76,0,0,1,.4-1.463,4.433,4.433,0,0,1,.819-1.225,4.822,4.822,0,0,1,1.155-.9,4.572,4.572,0,0,1,1.393-.5,4.416,4.416,0,0,1,.868-.084,4.461,4.461,0,0,1,2.212.588,5.679,5.679,0,0,1,1.414,1.19l-.966.812a4.2,4.2,0,0,0-1.442-1.078,3.58,3.58,0,0,0-1.274-.238,3.31,3.31,0,0,0-1.568.392,3.307,3.307,0,0,0-1.428,1.512,3.2,3.2,0,0,0-.364,1.5,3.3,3.3,0,0,0,.126.9,3.16,3.16,0,0,0,1.2,1.806,3.323,3.323,0,0,0,.966.518,3.351,3.351,0,0,0,1.092.182,3.279,3.279,0,0,0,1.393-.3,3.641,3.641,0,0,0,1.155-.847V14.7h-1.288v-1.26h2.534V16.1A4.341,4.341,0,0,1-14.511,17.1Zm6.888.966a4.584,4.584,0,0,1-1.8-.357A4.526,4.526,0,0,1-10.913,16.7a4.686,4.686,0,0,1-1.008-1.505,4.609,4.609,0,0,1-.364-1.813,4.584,4.584,0,0,1,.357-1.8,4.683,4.683,0,0,1,1.015-1.5A4.729,4.729,0,0,1-9.422,9.068a4.508,4.508,0,0,1,1.8-.364,4.558,4.558,0,0,1,1.806.364,4.707,4.707,0,0,1,1.5,1.008,4.707,4.707,0,0,1,1.008,1.5,4.558,4.558,0,0,1,.364,1.806,4.609,4.609,0,0,1-.364,1.813A4.686,4.686,0,0,1-4.319,16.7a4.707,4.707,0,0,1-1.5,1.008A4.558,4.558,0,0,1-7.623,18.07Zm0-8.092a3.376,3.376,0,0,0-1.309.259,3.367,3.367,0,0,0-1.1.735,3.367,3.367,0,0,0-.735,1.1,3.376,3.376,0,0,0-.259,1.309,3.435,3.435,0,0,0,.266,1.337,3.373,3.373,0,0,0,.728,1.1,3.367,3.367,0,0,0,1.1.735,3.376,3.376,0,0,0,1.309.259,3.376,3.376,0,0,0,1.309-.259,3.367,3.367,0,0,0,1.1-.735,3.373,3.373,0,0,0,.728-1.1,3.435,3.435,0,0,0,.266-1.337,3.376,3.376,0,0,0-.259-1.309,3.367,3.367,0,0,0-.735-1.1,3.367,3.367,0,0,0-1.1-.735A3.376,3.376,0,0,0-7.623,9.978ZM13.111,18H11.865l-1.442-3.962L9.037,18H7.777L4.4,8.676H5.761L8.393,15.97l1.344-3.822L8.477,8.676H9.835l1.232,3.416,1.414,3.878,2.548-7.294h1.358Zm8.064-3.43V18H19.929V14.6L17.087,8.69h1.386L20.545,13,22.617,8.69H24Zm6.748-5.894a2.73,2.73,0,0,1,1.372.364,2.388,2.388,0,0,1,.9.938,2.772,2.772,0,0,1,.315,1.33,2.628,2.628,0,0,1-.2,1.029,2.924,2.924,0,0,1-.553.861,2.693,2.693,0,0,1,.791.938,2.661,2.661,0,0,1,.287,1.232,2.572,2.572,0,0,1-.35,1.316,2.678,2.678,0,0,1-.938.959,2.46,2.46,0,0,1-1.3.357H25.193V8.676Zm-1.5,1.26v2.772h1.5a1.29,1.29,0,0,0,.966-.406,1.377,1.377,0,0,0,.392-.994,1.342,1.342,0,0,0-.385-.98,1.306,1.306,0,0,0-.973-.392Zm0,4.032V16.74h1.82a1.3,1.3,0,0,0,.966-.4,1.336,1.336,0,0,0,.392-.973,1.377,1.377,0,0,0-.392-.994,1.29,1.29,0,0,0-.966-.406ZM37.653,18H36l-2.674-3.178V18H32.095V8.7h2.394a2.885,2.885,0,0,1,2.1.882,3.18,3.18,0,0,1,.63.987,3.189,3.189,0,0,1,.028,2.275,2.919,2.919,0,0,1-.56.924,3.053,3.053,0,0,1-.854.665,2.8,2.8,0,0,1-1.022.315ZM33.327,9.964V13.52h1.162a1.668,1.668,0,0,0,.672-.14,1.8,1.8,0,0,0,.56-.378,1.867,1.867,0,0,0,.371-.574,1.779,1.779,0,0,0,.133-.686A1.738,1.738,0,0,0,35.161,10.1a1.668,1.668,0,0,0-.672-.14Zm5.026,6.93L43.085,9.95H38.353V8.69h6.328V9.824l-4.718,6.9h4.718V18H38.353ZM45.941,18V8.69h5.1V9.95H47.159v2.828h2.6v1.148h-2.6V16.74h3.878V18ZM52.3,16.894,57.029,9.95H52.3V8.69h6.328V9.824l-4.718,6.9h4.718V18H52.3Zm3.164-9.128a.6.6,0,0,1-.616-.616.6.6,0,0,1,.175-.434.586.586,0,0,1,.441-.182.621.621,0,0,1,.616.616.586.586,0,0,1-.182.441A.6.6,0,0,1,55.461,7.766ZM66.283,18l-1.148-3.276H62.223L61.075,18h-1.33l3.234-9.3h1.4L67.613,18Zm-2.6-7.49-1.064,3.038h2.114Z" transform="translate(134.369 89.777)" fill="#fcf8f7"/>
      <g id="Group_249" data-name="Group 249">
        <line id="Line_944" data-name="Line 944" y1="4.692" x2="16.162" transform="translate(260.592 3.344)" fill="none" stroke="#e5a34c" stroke-miterlimit="10" stroke-width="0.948"/>
        <line id="Line_945" data-name="Line 945" y1="0.521" x2="14.077" transform="translate(265.247 20.735)" fill="none" stroke="#e5a34c" stroke-miterlimit="10" stroke-width="0.948"/>
        <line id="Line_946" data-name="Line 946" x2="12.252" y2="7.299" transform="translate(260.64 33.777)" fill="none" stroke="#e5a34c" stroke-miterlimit="10" stroke-width="0.948"/>
        <line id="Line_947" data-name="Line 947" x1="13.556" y1="7.56" transform="translate(4.692)" fill="none" stroke="#e5a34c" stroke-miterlimit="10" stroke-width="0.948"/>
        <line id="Line_948" data-name="Line 948" x1="15.641" transform="translate(0 21.637)" fill="none" stroke="#e5a34c" stroke-miterlimit="10" stroke-width="0.948"/>
        <line id="Line_949" data-name="Line 949" x1="13.947" y2="6.778" transform="translate(2.868 33.107)" fill="none" stroke="#e5a34c" stroke-miterlimit="10" stroke-width="0.948"/>
      </g>
      <path id="Path_1842" data-name="Path 1842" d="M253.259,183.271H47.015v-4.218H253.259Z" transform="translate(-8.62 -125.587)" fill="#af4427"/>
    </g>
    <g id="Group_253" data-name="Group 253" transform="translate(116.415 414.24)">
      <g id="Group_251" data-name="Group 251">
        <path id="Path_1843" data-name="Path 1843" d="M93.107,312.813a4.006,4.006,0,0,1,1.425,1.425,3.806,3.806,0,0,1,0,3.872,3.908,3.908,0,0,1-1.425,1.415,3.817,3.817,0,0,1-1.955.521H89.015v4.383H87.756V312.284h3.4A3.772,3.772,0,0,1,93.107,312.813Zm-.63,5.654a2.639,2.639,0,0,0,.968-.968,2.583,2.583,0,0,0,.356-1.324,2.541,2.541,0,0,0-.356-1.316,2.661,2.661,0,0,0-.968-.958,2.577,2.577,0,0,0-1.325-.357H89.015v5.278h2.137A2.588,2.588,0,0,0,92.477,318.467Z" transform="translate(-87.756 -312.256)" fill="#fcf8f7"/>
        <path id="Path_1844" data-name="Path 1844" d="M100.414,320.061l3.927,4.364H102.66l-3.927-4.364h-.11v4.364h-1.26V312.3h3.106a3.763,3.763,0,0,1,1.945.52,3.878,3.878,0,0,1,1.406,1.415,3.815,3.815,0,0,1,.521,1.954,3.766,3.766,0,0,1-.521,1.946,3.883,3.883,0,0,1-1.406,1.406,3.764,3.764,0,0,1-1.945.521Zm-1.791-6.521v5.278h1.845a2.536,2.536,0,0,0,1.315-.356,2.68,2.68,0,0,0,.959-.959,2.539,2.539,0,0,0,.357-1.316,2.588,2.588,0,0,0-.357-1.324,2.651,2.651,0,0,0-.959-.967,2.525,2.525,0,0,0-1.315-.357Z" transform="translate(-84.619 -312.252)" fill="#fcf8f7"/>
        <path id="Path_1845" data-name="Path 1845" d="M109.174,323.687a6.2,6.2,0,0,1-2.21-2.21,6.085,6.085,0,0,1,0-6.11,6.157,6.157,0,0,1,2.219-2.219,6.051,6.051,0,0,1,6.092,0,6.107,6.107,0,0,1,2.229,2.229,6.059,6.059,0,0,1,0,6.092,6.159,6.159,0,0,1-2.219,2.219,6.094,6.094,0,0,1-6.11,0Zm5.48-1.069a4.789,4.789,0,0,0,1.762-1.763,4.872,4.872,0,0,0,0-4.858,4.84,4.84,0,0,0-9.031,2.429,4.738,4.738,0,0,0,.649,2.429,4.856,4.856,0,0,0,6.621,1.763Z" transform="translate(-81.752 -312.243)" fill="#e5a34c"/>
        <path id="Path_1846" data-name="Path 1846" d="M120.721,322.568a2.022,2.022,0,0,0,.622-1.479v-8.8h1.242v8.8a3.269,3.269,0,0,1-.448,1.679,3.322,3.322,0,0,1-1.214,1.215,3.276,3.276,0,0,1-1.681.447v-1.242A2.018,2.018,0,0,0,120.721,322.568Z" transform="translate(-77.474 -312.256)" fill="#fcf8f7"/>
        <path id="Path_1847" data-name="Path 1847" d="M136.991,319.4v5.005h-1.169V312.277h1.169v5.188l4.439-5.188h1.644l-5.261,6.155,5.37,5.974H141.5Z" transform="translate(-72.059 -312.258)" fill="#fcf8f7"/>
        <path id="Path_1848" data-name="Path 1848" d="M152.746,313.487h-3.124V324.41H148.38V313.487h-3.124v-1.224h7.49Z" transform="translate(-68.978 -312.263)" fill="#fcf8f7"/>
      </g>
      <g id="Group_252" data-name="Group 252" transform="translate(14.494 17.292)">
        <path id="Path_1849" data-name="Path 1849" d="M103.906,336.2v1.242H98.682V325.3h1.26v10.9Z" transform="translate(-98.682 -325.298)" fill="#fcf8f7"/>
        <path id="Path_1850" data-name="Path 1850" d="M114.113,332.979h-4.274l-1.572,4.474h-1.333l4.257-12.129h1.571l4.256,12.129h-1.333Zm-.4-1.17-1.735-4.968-1.736,4.968Z" transform="translate(-95.987 -325.289)" fill="#fcf8f7"/>
        <path id="Path_1851" data-name="Path 1851" d="M124.367,326.521h-3.123v10.923H120V326.521h-3.123V325.3h7.489Z" transform="translate(-92.74 -325.298)" fill="#fcf8f7"/>
        <path id="Path_1852" data-name="Path 1852" d="M138.848,333.074l3.927,4.366H141.1l-3.928-4.366h-.109v4.366H135.8V325.312h3.1a3.768,3.768,0,0,1,1.946.52,3.878,3.878,0,0,1,1.406,1.415,3.814,3.814,0,0,1,.52,1.954,3.765,3.765,0,0,1-.52,1.946,3.9,3.9,0,0,1-1.406,1.406,3.768,3.768,0,0,1-1.946.52Zm-1.79-6.52v5.278H138.9a2.541,2.541,0,0,0,1.316-.355,2.68,2.68,0,0,0,.959-.959,2.554,2.554,0,0,0,.356-1.316,2.6,2.6,0,0,0-.356-1.324,2.664,2.664,0,0,0-.959-.968,2.541,2.541,0,0,0-1.316-.355Z" transform="translate(-86.561 -325.293)" fill="#fcf8f7"/>
        <path id="Path_1853" data-name="Path 1853" d="M153.909,325.3v12.146H152.43l-6.119-9.809v9.809h-1.26V325.3h1.316l6.3,10.082V325.3Z" transform="translate(-83.539 -325.298)" fill="#fcf8f7"/>
        <path id="Path_1854" data-name="Path 1854" d="M162.394,332.965H158.12l-1.571,4.475h-1.333l4.256-12.128h1.571L165.3,337.44h-1.333Zm-.4-1.169-1.735-4.969-1.735,4.969Z" transform="translate(-80.22 -325.293)" fill="#fcf8f7"/>
      </g>
      <path id="Path_1855" data-name="Path 1855" d="M126.655,312.614H133.3v1.243h-6.649Zm0,10.906H133.3v1.242h-6.649Zm0-4.238V318.1l1.242.009,5.407-.009v1.169l-5.407.009Z" transform="translate(-75.053 -312.148)" fill="#ae4426"/>
      <path id="Path_1856" data-name="Path 1856" d="M126.655,325.3H133.3v1.242h-6.649Zm0,10.9H133.3v1.242h-6.649Zm0-4.238v-1.178l1.242.009,5.407-.009v1.17l-5.407.008Z" transform="translate(-75.053 -308.006)" fill="#ae4426"/>
    </g>
    <g id="Group_255" data-name="Group 255" transform="translate(62.628 32.9)">
      <path id="Path_1857" data-name="Path 1857" d="M131.77,84.4c8.576-.677,30.252,1.807,38.72,3.335,5.022.906,10,2.2,15.1,2.416,4.7.2,33.858-1.153,38.558-1.312" transform="translate(-19.595 -5.376)" fill="none" stroke="#fcf8f7" stroke-miterlimit="10" stroke-width="0.464"/>
      <path id="Path_1858" data-name="Path 1858" d="M140.939,84.575c-9.65.23-25.96,6.1-35.6,6.632-4.843.268-9.672-.561-14.517-.8-10.15-.507-33.663-.046-43.615,2.011" transform="translate(-47.21 -5.28)" fill="none" stroke="#fcf8f7" stroke-miterlimit="10" stroke-width="0.464"/>
      <g id="Group_254" data-name="Group 254" transform="translate(83.215)">
        <path id="Path_1859" data-name="Path 1859" d="M120.667,44.437c.4-.7,11.675-.8,13.115,0s3.039,66.853,2.239,67.812-16.473,2.08-17.592.96S119.289,46.862,120.667,44.437Z" transform="translate(-107.274 -18.573)" fill="none" stroke="#fcf8f7" stroke-miterlimit="10" stroke-width="0.464"/>
        <path id="Path_1860" data-name="Path 1860" d="M127.742,97.8s.235-5.852-.244-6.092-3.2-.442-3.639,0c-.24.24,0,6.345,0,6.345" transform="translate(-105.428 -3.035)" fill="none" stroke="#fcf8f7" stroke-miterlimit="10" stroke-width="0.464"/>
        <path id="Path_1861" data-name="Path 1861" d="M120.26,91.882a1.166,1.166,0,0,1,1-.161c.28.121.08,3.039,0,3.279s-.675.456-.84.159A16.409,16.409,0,0,1,120.26,91.882Z" transform="translate(-106.587 -2.963)" fill="none" stroke="#fcf8f7" stroke-miterlimit="10" stroke-width="0.464"/>
        <path id="Path_1862" data-name="Path 1862" d="M127.45,74.685c.119-.28.88-.32,1.079-.2a12.081,12.081,0,0,1,0,3.8c-.2.2-.6.04-.8,0A22.124,22.124,0,0,1,127.45,74.685Z" transform="translate(-104.22 -8.596)" fill="none" stroke="#fcf8f7" stroke-miterlimit="10" stroke-width="0.464"/>
        <path id="Path_1863" data-name="Path 1863" d="M123.855,47.134c.119-.24,1.04-.08,1.279,0s-.119,3.6-.2,3.838-.88.361-1.08.24A27.7,27.7,0,0,1,123.855,47.134Z" transform="translate(-105.424 -17.549)" fill="none" stroke="#fcf8f7" stroke-miterlimit="10" stroke-width="0.464"/>
        <path id="Path_1864" data-name="Path 1864" d="M126.184,33.209c.561,0,6.557,5.8,6.317,6.4-.034.088-.326.163-.8.229-2.777.383-11.805.391-12.113.05C119.227,39.485,125.3,33.209,126.184,33.209Z" transform="translate(-106.793 -22.055)" fill="none" stroke="#fcf8f7" stroke-miterlimit="10" stroke-width="0.464"/>
        <line id="Line_950" data-name="Line 950" y1="7.743" transform="translate(25.145 17.743)" fill="none" stroke="#fcf8f7" stroke-miterlimit="10" stroke-width="0.464"/>
        <path id="Path_1865" data-name="Path 1865" d="M120.819,32.879c.161-.08,10.276-3.438,10.276-3.438" transform="translate(-106.386 -23.286)" fill="none" stroke="#fcf8f7" stroke-miterlimit="10" stroke-width="0.464"/>
        <line id="Line_951" data-name="Line 951" x1="0.18" y2="3.279" transform="translate(19.391 7.875)" fill="none" stroke="#fcf8f7" stroke-miterlimit="10" stroke-width="0.464"/>
        <line id="Line_952" data-name="Line 952" x1="0.335" y2="23.868" transform="translate(10.515)" fill="none" stroke="#fcf8f7" stroke-miterlimit="10" stroke-width="0.464"/>
        <line id="Line_953" data-name="Line 953" x2="3.2" y2="3.271" transform="translate(10.682 12.955)" fill="none" stroke="#fcf8f7" stroke-miterlimit="10" stroke-width="0.464"/>
        <line id="Line_954" data-name="Line 954" y1="7.436" x2="0.169" transform="translate(14.264 18.19)" fill="none" stroke="#fcf8f7" stroke-miterlimit="10" stroke-width="0.464"/>
        <path id="Path_1866" data-name="Path 1866" d="M132.372,30.034V55.622" transform="translate(-102.613 -23.092)" fill="none" stroke="#fcf8f7" stroke-miterlimit="10" stroke-width="0.464"/>
        <line id="Line_955" data-name="Line 955" y1="1.915" x2="4.615" transform="translate(25.145 14.676)" fill="none" stroke="#fcf8f7" stroke-miterlimit="10" stroke-width="0.464"/>
        <line id="Line_956" data-name="Line 956" y1="1.79" x2="2.613" transform="translate(27.146 28.266)" fill="none" stroke="#fcf8f7" stroke-miterlimit="10" stroke-width="0.464"/>
        <line id="Line_957" data-name="Line 957" x1="0.142" y2="4.56" transform="translate(16.989 18.19)" fill="none" stroke="#fcf8f7" stroke-miterlimit="10" stroke-width="0.464"/>
        <line id="Line_958" data-name="Line 958" y2="7.296" transform="translate(21.31 18.077)" fill="none" stroke="#fcf8f7" stroke-miterlimit="10" stroke-width="0.464"/>
        <path id="Path_1867" data-name="Path 1867" d="M122.232,41.934a1.322,1.322,0,0,1,1.719,1.319c0,.923.086,1.171-.974,1.271s-1.466-.292-1.466-1.2S121.552,42.134,122.232,41.934Z" transform="translate(-106.16 -19.226)" fill="none" stroke="#fcf8f7" stroke-miterlimit="10" stroke-width="0.464"/>
        <line id="Line_959" data-name="Line 959" x2="3.741" y2="2.758" transform="translate(10.538 22.188)" fill="none" stroke="#fcf8f7" stroke-miterlimit="10" stroke-width="0.464"/>
        <path id="Path_1868" data-name="Path 1868" d="M127.678,42.223a.993.993,0,0,1,1.173,1.029c.027.474-.184.983-1.012,1.166s-1.173-.73-1.2-1.1S126.344,42.454,127.678,42.223Z" transform="translate(-104.498 -19.118)" fill="none" stroke="#fcf8f7" stroke-miterlimit="10" stroke-width="0.464"/>
        <path id="Path_1869" data-name="Path 1869" d="M134.382,38.55c.24-.353,4-1.518,4-1.518" transform="translate(-101.957 -20.807)" fill="none" stroke="#fcf8f7" stroke-miterlimit="10" stroke-width="0.464"/>
        <line id="Line_960" data-name="Line 960" x2="4.478" transform="translate(34.424 20.571)" fill="none" stroke="#fcf8f7" stroke-miterlimit="10" stroke-width="0.464"/>
        <line id="Line_961" data-name="Line 961" x2="3.598" y2="1.281" transform="translate(32.425 24.205)" fill="none" stroke="#fcf8f7" stroke-miterlimit="10" stroke-width="0.464"/>
        <line id="Line_962" data-name="Line 962" x1="3.279" y1="1.351" transform="translate(4.358 15.633)" fill="none" stroke="#fcf8f7" stroke-miterlimit="10" stroke-width="0.464"/>
        <path id="Path_1870" data-name="Path 1870" d="M114.976,40.308h-5.037" transform="translate(-109.939 -19.737)" fill="none" stroke="#fcf8f7" stroke-miterlimit="10" stroke-width="0.464"/>
        <line id="Line_963" data-name="Line 963" x1="3.279" y2="2.059" transform="translate(3.398 23.567)" fill="none" stroke="#fcf8f7" stroke-miterlimit="10" stroke-width="0.464"/>
      </g>
    </g>
  </g>
</svg>
