<svg xmlns="http://www.w3.org/2000/svg" width="149.552" height="190.971" viewBox="0 0 149.552 190.971">
  <g id="paszport_glowna" data-name="paszport glowna" transform="matrix(0.985, -0.174, 0.174, 0.985, 0, 21.088)">
    <rect id="Rectangle_79" data-name="Rectangle 79" width="121.442" height="172.503" fill="#2e3c4b"/>
    <g id="Group_250" data-name="Group 250" transform="translate(8.798 67.549)">
      <path id="Path_2201" data-name="Path 2201" d="M2.208-3.7V0H.8V-10.64H3.792a3.294,3.294,0,0,1,1.3.264,3.446,3.446,0,0,1,1.1.744A3.609,3.609,0,0,1,6.936-8.5,3.431,3.431,0,0,1,7.2-7.168a3.431,3.431,0,0,1-.264,1.336A3.423,3.423,0,0,1,6.192-4.72a3.558,3.558,0,0,1-1.1.752,3.211,3.211,0,0,1-1.3.272Zm0-5.488V-5.12H3.792A1.865,1.865,0,0,0,5.2-5.728a1.96,1.96,0,0,0,.592-1.44A1.941,1.941,0,0,0,5.2-8.592a1.923,1.923,0,0,0-1.408-.592ZM14.912,0,13.6-3.744H10.272L8.96,0H7.44l3.7-10.624h1.6L16.432,0ZM11.936-8.56,10.72-5.088h2.416Zm11.216,1.2a2.467,2.467,0,0,0-.336-1.024,1.75,1.75,0,0,0-.712-.632,2.536,2.536,0,0,0-1.08-.2,2.023,2.023,0,0,0-1.52.464,1.625,1.625,0,0,0-.416,1.2,1.764,1.764,0,0,0,.128.728,1.1,1.1,0,0,0,.384.456,2.677,2.677,0,0,0,1.264.352,8.834,8.834,0,0,1,1.512.248,4.065,4.065,0,0,1,1.08.456,2.527,2.527,0,0,1,1.168,2.3,2.823,2.823,0,0,1-.24,1.152,3.2,3.2,0,0,1-.672.976A3.222,3.222,0,0,1,22.5-.144,4.411,4.411,0,0,1,21.056.1a3.758,3.758,0,0,1-2.7-.96,3.8,3.8,0,0,1-1.04-2.3l.032-.016h1.408a2.093,2.093,0,0,0,.576,1.264,2.38,2.38,0,0,0,1.68.576,2.526,2.526,0,0,0,1.6-.464,1.456,1.456,0,0,0,.592-1.2,1.748,1.748,0,0,0-.088-.584.987.987,0,0,0-.328-.44,4.053,4.053,0,0,0-2.032-.528,3.673,3.673,0,0,1-2.3-.88,2.788,2.788,0,0,1-.784-2.112,3.007,3.007,0,0,1,.848-2.224,3.374,3.374,0,0,1,2.5-.9A3.347,3.347,0,0,1,23.6-9.664a4.01,4.01,0,0,1,.992,2.3Zm3.152,6.1L31.712-9.2H26.3v-1.44h7.232v1.3L28.144-1.456h5.392V0H26.3ZM36.784-3.7V0H35.376V-10.64h2.992a3.294,3.294,0,0,1,1.3.264,3.446,3.446,0,0,1,1.1.744A3.609,3.609,0,0,1,41.512-8.5a3.431,3.431,0,0,1,.264,1.336,3.431,3.431,0,0,1-.264,1.336,3.423,3.423,0,0,1-.744,1.112,3.558,3.558,0,0,1-1.1.752,3.211,3.211,0,0,1-1.3.272Zm0-5.488V-5.12h1.584a1.865,1.865,0,0,0,1.408-.608,1.96,1.96,0,0,0,.592-1.44,1.941,1.941,0,0,0-.592-1.424,1.923,1.923,0,0,0-1.408-.592Zm12,9.264a5.239,5.239,0,0,1-2.056-.408,5.172,5.172,0,0,1-1.7-1.16,5.356,5.356,0,0,1-1.152-1.72,5.267,5.267,0,0,1-.416-2.072,5.239,5.239,0,0,1,.408-2.056,5.352,5.352,0,0,1,1.16-1.72,5.4,5.4,0,0,1,1.7-1.152,5.152,5.152,0,0,1,2.056-.416,5.209,5.209,0,0,1,2.064.416A5.379,5.379,0,0,1,52.56-9.056a5.379,5.379,0,0,1,1.152,1.712,5.209,5.209,0,0,1,.416,2.064,5.267,5.267,0,0,1-.416,2.072,5.356,5.356,0,0,1-1.152,1.72A5.379,5.379,0,0,1,50.848-.336,5.209,5.209,0,0,1,48.784.08Zm0-9.248a3.859,3.859,0,0,0-1.5.3,3.848,3.848,0,0,0-1.256.84,3.849,3.849,0,0,0-.84,1.256,3.859,3.859,0,0,0-.3,1.5,3.926,3.926,0,0,0,.3,1.528A3.855,3.855,0,0,0,46.032-2.5a3.849,3.849,0,0,0,1.256.84,3.859,3.859,0,0,0,1.5.3,3.859,3.859,0,0,0,1.5-.3,3.849,3.849,0,0,0,1.256-.84,3.855,3.855,0,0,0,.832-1.256,3.926,3.926,0,0,0,.3-1.528,3.859,3.859,0,0,0-.3-1.5,3.849,3.849,0,0,0-.84-1.256,3.848,3.848,0,0,0-1.256-.84A3.859,3.859,0,0,0,48.784-9.168ZM62.32,0H60.432L57.376-3.632V0H55.968V-10.624H58.7a3.315,3.315,0,0,1,1.32.264,3.289,3.289,0,0,1,1.08.744,3.634,3.634,0,0,1,.72,1.128,3.525,3.525,0,0,1,.256,1.336,3.542,3.542,0,0,1-.224,1.264,3.336,3.336,0,0,1-.64,1.056,3.489,3.489,0,0,1-.976.76,3.2,3.2,0,0,1-1.168.36ZM57.376-9.184V-5.12H58.7a1.906,1.906,0,0,0,.768-.16,2.052,2.052,0,0,0,.64-.432,2.133,2.133,0,0,0,.424-.656,2.033,2.033,0,0,0,.152-.784,2.06,2.06,0,0,0-.576-1.44,2.052,2.052,0,0,0-.64-.432,1.906,1.906,0,0,0-.768-.16Zm10.608-.1V0H66.576V-9.28H64v-1.36h6.56v1.36Z" transform="translate(13.26 13.104)" fill="#fcf8f7"/>
      <path id="Path_2200" data-name="Path 2200" d="M-29.812,0V-2.605l-.99,1.43h-.34l-.985-1.43V0h-.45V-3.325h.495l1.11,1.605,1.11-1.605h.5V0Zm.95,0V-3.325h.42V0Zm2.97-.45V0h-1.43V-.85l-.26.485h-.41l.67-1.245V-3.325h.43v.915l.4-.735h.41l-.805,1.495v1.2Zm2.065.475A1.637,1.637,0,0,1-24.47-.1,1.616,1.616,0,0,1-25-.465,1.674,1.674,0,0,1-25.362-1a1.646,1.646,0,0,1-.13-.648,1.637,1.637,0,0,1,.127-.642A1.672,1.672,0,0,1-25-2.83a1.689,1.689,0,0,1,.532-.36,1.61,1.61,0,0,1,.642-.13,1.628,1.628,0,0,1,.645.13,1.681,1.681,0,0,1,.535.36,1.681,1.681,0,0,1,.36.535,1.628,1.628,0,0,1,.13.645,1.646,1.646,0,0,1-.13.648,1.674,1.674,0,0,1-.36.537,1.681,1.681,0,0,1-.535.36A1.628,1.628,0,0,1-23.827.025Zm0-2.89a1.206,1.206,0,0,0-.467.092,1.2,1.2,0,0,0-.393.263,1.2,1.2,0,0,0-.262.392,1.206,1.206,0,0,0-.093.467,1.227,1.227,0,0,0,.1.478,1.2,1.2,0,0,0,.26.392,1.2,1.2,0,0,0,.393.263,1.206,1.206,0,0,0,.467.092,1.206,1.206,0,0,0,.468-.092,1.2,1.2,0,0,0,.392-.263,1.2,1.2,0,0,0,.26-.392,1.227,1.227,0,0,0,.095-.478,1.206,1.206,0,0,0-.092-.467,1.2,1.2,0,0,0-.263-.392,1.2,1.2,0,0,0-.392-.263A1.206,1.206,0,0,0-23.827-2.865Zm3.895.565a.771.771,0,0,0-.1-.32.547.547,0,0,0-.222-.2A.792.792,0,0,0-20.6-2.88a.632.632,0,0,0-.475.145.508.508,0,0,0-.13.375.551.551,0,0,0,.04.228.343.343,0,0,0,.12.142.837.837,0,0,0,.395.11,2.76,2.76,0,0,1,.472.077,1.27,1.27,0,0,1,.337.143.79.79,0,0,1,.365.72.882.882,0,0,1-.075.36,1,1,0,0,1-.21.3,1.007,1.007,0,0,1-.378.23,1.378,1.378,0,0,1-.453.075,1.174,1.174,0,0,1-.845-.3,1.187,1.187,0,0,1-.325-.72l.01,0h.44a.654.654,0,0,0,.18.4.744.744,0,0,0,.525.18.789.789,0,0,0,.5-.145.455.455,0,0,0,.185-.375.546.546,0,0,0-.028-.183.309.309,0,0,0-.1-.138,1.266,1.266,0,0,0-.635-.165A1.148,1.148,0,0,1-21.4-1.7a.871.871,0,0,1-.245-.66.94.94,0,0,1,.265-.695,1.054,1.054,0,0,1,.78-.28,1.046,1.046,0,0,1,.81.315,1.253,1.253,0,0,1,.31.72Zm-.55-1.27h-.335l.185-.69h.39ZM-17.077,0l-1.5-2.44V0h-.445V-3.325h.435l1.55,2.51v-2.51h.44V0Zm.98,0V-3.325h.42V0Zm2.435,0-1.075-1.225V0h-.44V-3.32h.44v1.265l1.055-1.265h.58l-1.4,1.685L-13.067,0Zm3.08,0-.41-1.17h-1.04L-12.443,0h-.475l1.155-3.32h.5L-10.108,0Zm-.93-2.675-.38,1.085h.755ZM-7.407,0V-3.325h.43V-.45h1V0Zm4.165,0-.41-1.17h-1.04L-5.1,0h-.475l1.155-3.32h.5L-2.768,0Zm-.93-2.675-.38,1.085H-3.8Zm2.7-.225V0h-.44V-2.9h-.8v-.425h2.05V-2.9ZM1.568,0l-.41-1.17H.118L-.292,0H-.767L.388-3.32h.5L2.043,0ZM.638-2.675.258-1.59h.755ZM4.378,0h-.59L2.833-1.135V0h-.44V-3.32h.855a1.036,1.036,0,0,1,.412.082A1.028,1.028,0,0,1,4-3.005a1.136,1.136,0,0,1,.225.353,1.1,1.1,0,0,1,.08.418,1.107,1.107,0,0,1-.07.395,1.042,1.042,0,0,1-.2.33,1.09,1.09,0,0,1-.3.237,1,1,0,0,1-.365.113ZM2.833-2.87V-1.6h.415a.6.6,0,0,0,.24-.05.641.641,0,0,0,.2-.135A.667.667,0,0,0,3.82-1.99a.635.635,0,0,0,.047-.245.644.644,0,0,0-.18-.45.641.641,0,0,0-.2-.135.6.6,0,0,0-.24-.05ZM6.772,0l-1.5-2.44V0H4.827V-3.325h.435l1.55,2.51v-2.51h.44V0Zm.98,0V-3.325h.42V0Zm5.935,0V-2.605l-.99,1.43h-.34l-.985-1.43V0h-.45V-3.325h.495l1.11,1.605,1.11-1.605h.5V0Zm2.565.025A1.637,1.637,0,0,1,15.61-.1a1.616,1.616,0,0,1-.533-.362A1.674,1.674,0,0,1,14.718-1a1.646,1.646,0,0,1-.13-.648,1.637,1.637,0,0,1,.128-.642,1.672,1.672,0,0,1,.362-.537,1.689,1.689,0,0,1,.533-.36,1.61,1.61,0,0,1,.642-.13,1.628,1.628,0,0,1,.645.13,1.681,1.681,0,0,1,.535.36,1.681,1.681,0,0,1,.36.535,1.628,1.628,0,0,1,.13.645,1.646,1.646,0,0,1-.13.648,1.674,1.674,0,0,1-.36.537A1.681,1.681,0,0,1,16.9-.1,1.628,1.628,0,0,1,16.253.025Zm0-2.89a1.206,1.206,0,0,0-.467.092,1.2,1.2,0,0,0-.392.263,1.2,1.2,0,0,0-.262.392,1.206,1.206,0,0,0-.093.467,1.227,1.227,0,0,0,.1.478,1.2,1.2,0,0,0,.26.392,1.2,1.2,0,0,0,.392.263,1.206,1.206,0,0,0,.467.092,1.206,1.206,0,0,0,.468-.092,1.2,1.2,0,0,0,.392-.263,1.2,1.2,0,0,0,.26-.392,1.227,1.227,0,0,0,.095-.478,1.206,1.206,0,0,0-.093-.467,1.2,1.2,0,0,0-.262-.392,1.2,1.2,0,0,0-.392-.263A1.206,1.206,0,0,0,16.253-2.865ZM20.358,0h-.59l-.955-1.135V0h-.44V-3.32h.855a1.036,1.036,0,0,1,.413.082,1.028,1.028,0,0,1,.337.232,1.136,1.136,0,0,1,.225.353,1.1,1.1,0,0,1,.08.418,1.107,1.107,0,0,1-.07.395,1.042,1.042,0,0,1-.2.33,1.09,1.09,0,0,1-.305.237,1,1,0,0,1-.365.113ZM18.813-2.87V-1.6h.415a.6.6,0,0,0,.24-.05.641.641,0,0,0,.2-.135A.667.667,0,0,0,19.8-1.99a.635.635,0,0,0,.048-.245.644.644,0,0,0-.18-.45.641.641,0,0,0-.2-.135.6.6,0,0,0-.24-.05Zm3.77.57a.771.771,0,0,0-.1-.32.547.547,0,0,0-.222-.2.792.792,0,0,0-.337-.062.632.632,0,0,0-.475.145.508.508,0,0,0-.13.375.551.551,0,0,0,.04.228.343.343,0,0,0,.12.142.837.837,0,0,0,.395.11,2.76,2.76,0,0,1,.472.077,1.27,1.27,0,0,1,.337.143.79.79,0,0,1,.365.72.882.882,0,0,1-.075.36,1,1,0,0,1-.21.3,1.007,1.007,0,0,1-.378.23,1.378,1.378,0,0,1-.453.075,1.174,1.174,0,0,1-.845-.3,1.187,1.187,0,0,1-.325-.72l.01,0h.44a.654.654,0,0,0,.18.4.744.744,0,0,0,.525.18.789.789,0,0,0,.5-.145A.455.455,0,0,0,22.6-.94a.546.546,0,0,0-.028-.183.309.309,0,0,0-.1-.138,1.266,1.266,0,0,0-.635-.165,1.148,1.148,0,0,1-.72-.275.871.871,0,0,1-.245-.66.94.94,0,0,1,.265-.695,1.054,1.054,0,0,1,.78-.28,1.046,1.046,0,0,1,.81.315,1.253,1.253,0,0,1,.31.72ZM25.007,0,23.933-1.225V0h-.44V-3.32h.44v1.265L24.988-3.32h.58L24.163-1.635,25.6,0Zm1.045,0V-3.325h.42V0Zm2.54.02a1.628,1.628,0,0,1-.645-.13,1.642,1.642,0,0,1-.535-.365,1.681,1.681,0,0,1-.36-.535,1.64,1.64,0,0,1-.13-.65,1.668,1.668,0,0,1,.127-.65,1.665,1.665,0,0,1,.363-.54,1.681,1.681,0,0,1,.535-.36,1.628,1.628,0,0,1,.645-.13,1.627,1.627,0,0,1,.71.16,1.794,1.794,0,0,1,.6.475l-.34.29a1.249,1.249,0,0,0-.97-.47,1.178,1.178,0,0,0-.468.1,1.237,1.237,0,0,0-.392.265,1.237,1.237,0,0,0-.265.393,1.191,1.191,0,0,0-.1.472,1.191,1.191,0,0,0,.1.472,1.237,1.237,0,0,0,.265.393,1.237,1.237,0,0,0,.392.265,1.178,1.178,0,0,0,.468.095,1.249,1.249,0,0,0,.97-.47l.34.29a1.853,1.853,0,0,1-.6.475A1.611,1.611,0,0,1,28.593.02ZM32.143,0V-1.435h-1.35V0h-.44V-3.325h.44v1.44h1.35v-1.44h.435V0Zm-55.8,4.845V6h-.44V2.675h.935a1.029,1.029,0,0,1,.405.082,1.077,1.077,0,0,1,.345.233,1.128,1.128,0,0,1,.233.353,1.072,1.072,0,0,1,.083.417,1.072,1.072,0,0,1-.083.417,1.07,1.07,0,0,1-.233.348,1.112,1.112,0,0,1-.345.235,1,1,0,0,1-.405.085Zm0-1.715V4.4h.495a.583.583,0,0,0,.44-.19.613.613,0,0,0,.185-.45.607.607,0,0,0-.185-.445.6.6,0,0,0-.44-.185Zm3.625,2.895a1.637,1.637,0,0,1-.642-.128,1.616,1.616,0,0,1-.532-.363A1.674,1.674,0,0,1-21.567,5a1.646,1.646,0,0,1-.13-.648,1.637,1.637,0,0,1,.127-.642,1.672,1.672,0,0,1,.363-.537,1.689,1.689,0,0,1,.532-.36,1.61,1.61,0,0,1,.642-.13,1.628,1.628,0,0,1,.645.13,1.681,1.681,0,0,1,.535.36,1.681,1.681,0,0,1,.36.535,1.628,1.628,0,0,1,.13.645,1.646,1.646,0,0,1-.13.648,1.674,1.674,0,0,1-.36.537,1.681,1.681,0,0,1-.535.36A1.628,1.628,0,0,1-20.032,6.025Zm0-2.89a1.206,1.206,0,0,0-.468.092,1.2,1.2,0,0,0-.392.263,1.2,1.2,0,0,0-.262.392,1.206,1.206,0,0,0-.093.467,1.227,1.227,0,0,0,.1.477,1.2,1.2,0,0,0,.26.392,1.2,1.2,0,0,0,.392.263,1.206,1.206,0,0,0,.468.092,1.206,1.206,0,0,0,.468-.092,1.2,1.2,0,0,0,.392-.263,1.2,1.2,0,0,0,.26-.392,1.227,1.227,0,0,0,.095-.477,1.206,1.206,0,0,0-.093-.467,1.2,1.2,0,0,0-.262-.392,1.2,1.2,0,0,0-.392-.263A1.206,1.206,0,0,0-20.032,3.135ZM-17.913,6V2.675h.43V5.55h1V6Zm3.555-2.3a.771.771,0,0,0-.1-.32.547.547,0,0,0-.222-.2.792.792,0,0,0-.337-.062.632.632,0,0,0-.475.145.508.508,0,0,0-.13.375.551.551,0,0,0,.04.228.343.343,0,0,0,.12.143.837.837,0,0,0,.395.11A2.76,2.76,0,0,1-14.6,4.2a1.27,1.27,0,0,1,.337.142.79.79,0,0,1,.365.72.882.882,0,0,1-.075.36,1,1,0,0,1-.21.3,1.007,1.007,0,0,1-.377.23,1.378,1.378,0,0,1-.453.075,1.174,1.174,0,0,1-.845-.3,1.187,1.187,0,0,1-.325-.72l.01-.005h.44a.654.654,0,0,0,.18.395.744.744,0,0,0,.525.18.789.789,0,0,0,.5-.145.455.455,0,0,0,.185-.375.546.546,0,0,0-.028-.182.309.309,0,0,0-.1-.138,1.266,1.266,0,0,0-.635-.165,1.148,1.148,0,0,1-.72-.275.871.871,0,0,1-.245-.66.94.94,0,0,1,.265-.695,1.054,1.054,0,0,1,.78-.28,1.046,1.046,0,0,1,.81.315,1.253,1.253,0,0,1,.31.72ZM-11.933,6l-1.075-1.225V6h-.44V2.68h.44V3.945l1.055-1.265h.58l-1.4,1.685L-11.337,6Zm1.045,0V2.675h.42V6Zm.92,0V2.675h1.82v.45H-9.532v1.01h.93v.41h-.93V5.55h1.385V6Zm4.785-.32a1.749,1.749,0,0,1-.23.145,1.621,1.621,0,0,1-.775.2,1.6,1.6,0,0,1-.49-.075,1.569,1.569,0,0,1-.565-.3,1.673,1.673,0,0,1-.415-.51,1.559,1.559,0,0,1-.19-.765,1.512,1.512,0,0,1,.01-.2A1.7,1.7,0,0,1-7.7,3.648,1.583,1.583,0,0,1-7.4,3.21a1.722,1.722,0,0,1,.412-.32,1.633,1.633,0,0,1,.5-.18,1.577,1.577,0,0,1,.31-.03,1.593,1.593,0,0,1,.79.21,2.028,2.028,0,0,1,.5.425l-.345.29a1.5,1.5,0,0,0-.515-.385A1.279,1.279,0,0,0-6.2,3.135a1.182,1.182,0,0,0-.56.14,1.181,1.181,0,0,0-.51.54,1.143,1.143,0,0,0-.13.535,1.177,1.177,0,0,0,.045.32,1.128,1.128,0,0,0,.43.645,1.187,1.187,0,0,0,.345.185,1.2,1.2,0,0,0,.39.065,1.171,1.171,0,0,0,.5-.108,1.3,1.3,0,0,0,.412-.3V4.82h-.46V4.37h.9v.95A1.55,1.55,0,0,1-5.183,5.68Zm2.46.345A1.637,1.637,0,0,1-3.365,5.9,1.616,1.616,0,0,1-3.9,5.535,1.674,1.674,0,0,1-4.257,5a1.646,1.646,0,0,1-.13-.648,1.637,1.637,0,0,1,.128-.642A1.672,1.672,0,0,1-3.9,3.17a1.689,1.689,0,0,1,.532-.36,1.61,1.61,0,0,1,.643-.13,1.628,1.628,0,0,1,.645.13,1.681,1.681,0,0,1,.535.36,1.681,1.681,0,0,1,.36.535,1.628,1.628,0,0,1,.13.645A1.646,1.646,0,0,1-1.182,5a1.674,1.674,0,0,1-.36.537,1.681,1.681,0,0,1-.535.36A1.628,1.628,0,0,1-2.722,6.025Zm0-2.89a1.206,1.206,0,0,0-.467.092,1.2,1.2,0,0,0-.392.263,1.2,1.2,0,0,0-.263.392,1.206,1.206,0,0,0-.092.467,1.227,1.227,0,0,0,.095.477,1.2,1.2,0,0,0,.26.392,1.2,1.2,0,0,0,.392.263,1.206,1.206,0,0,0,.467.092,1.206,1.206,0,0,0,.467-.092,1.2,1.2,0,0,0,.393-.263,1.2,1.2,0,0,0,.26-.392,1.227,1.227,0,0,0,.095-.477A1.206,1.206,0,0,0-1.6,3.882a1.2,1.2,0,0,0-.263-.392,1.2,1.2,0,0,0-.393-.263A1.206,1.206,0,0,0-2.722,3.135ZM4.683,6H4.238L3.723,4.585,3.228,6h-.45L1.573,2.67h.485L3,5.275l.48-1.365-.45-1.24h.485l.44,1.22.505,1.385.91-2.605h.485Zm2.88-1.225V6H7.117V4.785L6.1,2.675H6.6l.74,1.54.74-1.54h.5ZM9.973,2.67a.975.975,0,0,1,.49.13.853.853,0,0,1,.323.335.99.99,0,0,1,.112.475.939.939,0,0,1-.073.367,1.044,1.044,0,0,1-.2.307.962.962,0,0,1,.283.335.95.95,0,0,1,.1.44.919.919,0,0,1-.125.47.956.956,0,0,1-.335.342A.879.879,0,0,1,10.088,6H9V2.67Zm-.535.45v.99h.535a.461.461,0,0,0,.345-.145.492.492,0,0,0,.14-.355.479.479,0,0,0-.137-.35.467.467,0,0,0-.347-.14Zm0,1.44v.99h.65a.465.465,0,0,0,.345-.143.477.477,0,0,0,.14-.347.492.492,0,0,0-.14-.355.461.461,0,0,0-.345-.145ZM13.448,6h-.59L11.9,4.865V6h-.44V2.68h.855a1.03,1.03,0,0,1,.75.315,1.136,1.136,0,0,1,.225.353,1.139,1.139,0,0,1,.01.812,1.042,1.042,0,0,1-.2.33,1.09,1.09,0,0,1-.305.238,1,1,0,0,1-.365.113ZM11.9,3.13V4.4h.415a.6.6,0,0,0,.24-.05.641.641,0,0,0,.2-.135.667.667,0,0,0,.132-.2.635.635,0,0,0,.048-.245.621.621,0,0,0-.38-.585.6.6,0,0,0-.24-.05Zm1.8,2.475,1.69-2.48H13.7v-.45h2.26v.4L14.273,5.545h1.685V6H13.7ZM16.408,6V2.675h1.82v.45H16.843v1.01h.93v.41h-.93V5.55h1.385V6Zm2.27-.395,1.69-2.48h-1.69v-.45h2.26v.4L19.253,5.545h1.685V6h-2.26Zm1.13-3.26a.214.214,0,0,1-.22-.22.216.216,0,0,1,.063-.155.209.209,0,0,1,.157-.065.222.222,0,0,1,.22.22.209.209,0,0,1-.065.158A.216.216,0,0,1,19.808,2.345ZM23.673,6l-.41-1.17h-1.04L21.813,6h-.475l1.155-3.32h.5L24.148,6Zm-.93-2.675-.38,1.085h.755Z" transform="translate(48.549 32.544)" fill="#fcf8f7"/>
      <g id="Group_249" data-name="Group 249">
        <line id="Line_944" data-name="Line 944" y1="1.722" x2="5.931" transform="translate(95.635 1.227)" fill="none" stroke="#e5a34c" stroke-miterlimit="10" stroke-width="0.948"/>
        <line id="Line_945" data-name="Line 945" y1="0.191" x2="5.166" transform="translate(97.344 7.61)" fill="none" stroke="#e5a34c" stroke-miterlimit="10" stroke-width="0.948"/>
        <line id="Line_946" data-name="Line 946" x2="4.496" y2="2.679" transform="translate(95.653 12.396)" fill="none" stroke="#e5a34c" stroke-miterlimit="10" stroke-width="0.948"/>
        <line id="Line_947" data-name="Line 947" x1="4.975" y1="2.774" transform="translate(1.722)" fill="none" stroke="#e5a34c" stroke-miterlimit="10" stroke-width="0.948"/>
        <line id="Line_948" data-name="Line 948" x1="5.74" transform="translate(0 7.941)" fill="none" stroke="#e5a34c" stroke-miterlimit="10" stroke-width="0.948"/>
        <line id="Line_949" data-name="Line 949" x1="5.118" y2="2.487" transform="translate(1.052 12.15)" fill="none" stroke="#e5a34c" stroke-miterlimit="10" stroke-width="0.948"/>
      </g>
      <path id="Path_1842" data-name="Path 1842" d="M122.7,180.6H47.015v-1.548H122.7Z" transform="translate(-32.924 -159.431)" fill="#af4427"/>
    </g>
    <g id="Group_253" data-name="Group 253" transform="translate(42.723 152.023)">
      <g id="Group_251" data-name="Group 251">
        <path id="Path_1843" data-name="Path 1843" d="M89.72,312.478a1.47,1.47,0,0,1,.523.523,1.4,1.4,0,0,1,0,1.421,1.434,1.434,0,0,1-.523.519,1.4,1.4,0,0,1-.718.191h-.784v1.609h-.462v-4.458H89A1.384,1.384,0,0,1,89.72,312.478Zm-.231,2.075a.968.968,0,0,0,.355-.355.948.948,0,0,0,.13-.486.932.932,0,0,0-.13-.483.977.977,0,0,0-.355-.352.946.946,0,0,0-.486-.131h-.784v1.937H89A.95.95,0,0,0,89.489,314.553Z" transform="translate(-87.756 -312.274)" fill="#fcf8f7"/>
        <path id="Path_1844" data-name="Path 1844" d="M98.483,315.147l1.441,1.6h-.617l-1.441-1.6h-.04v1.6h-.463V312.3H98.5a1.381,1.381,0,0,1,.714.191,1.423,1.423,0,0,1,.516.519,1.4,1.4,0,0,1,.191.717,1.382,1.382,0,0,1-.191.714,1.425,1.425,0,0,1-.516.516,1.381,1.381,0,0,1-.714.191Zm-.657-2.393v1.937H98.5a.931.931,0,0,0,.482-.13.984.984,0,0,0,.352-.352.932.932,0,0,0,.131-.483.95.95,0,0,0-.131-.486.973.973,0,0,0-.352-.355.927.927,0,0,0-.482-.131Z" transform="translate(-92.686 -312.281)" fill="#fcf8f7"/>
        <path id="Path_1845" data-name="Path 1845" d="M107.254,316.495a2.276,2.276,0,0,1-.811-.811,2.233,2.233,0,0,1,0-2.242,2.259,2.259,0,0,1,.814-.814,2.22,2.22,0,0,1,2.236,0,2.241,2.241,0,0,1,.818.818,2.224,2.224,0,0,1,0,2.236,2.26,2.26,0,0,1-.814.815,2.236,2.236,0,0,1-2.242,0Zm2.011-.392a1.758,1.758,0,0,0,.647-.647,1.788,1.788,0,0,0,0-1.783,1.777,1.777,0,0,0-3.076,0,1.779,1.779,0,0,0,2.43,2.43Z" transform="translate(-97.19 -312.295)" fill="#e5a34c"/>
        <path id="Path_1846" data-name="Path 1846" d="M119.785,316.058a.742.742,0,0,0,.228-.543v-3.231h.456v3.231a1.2,1.2,0,0,1-.165.616,1.219,1.219,0,0,1-.445.446,1.2,1.2,0,0,1-.617.164v-.456A.741.741,0,0,0,119.785,316.058Z" transform="translate(-103.913 -312.274)" fill="#fcf8f7"/>
        <path id="Path_1847" data-name="Path 1847" d="M136.251,314.891v1.837h-.429v-4.451h.429v1.9l1.629-1.9h.6l-1.931,2.259,1.971,2.192h-.616Z" transform="translate(-112.421 -312.27)" fill="#fcf8f7"/>
        <path id="Path_1848" data-name="Path 1848" d="M148,312.712h-1.147v4.009H146.4v-4.009h-1.147v-.449H148Z" transform="translate(-117.263 -312.263)" fill="#fcf8f7"/>
      </g>
      <g id="Group_252" data-name="Group 252" transform="translate(5.319 6.346)">
        <path id="Path_1849" data-name="Path 1849" d="M100.6,329.3v.456H98.682V325.3h.462v4Z" transform="translate(-98.682 -325.298)" fill="#fcf8f7"/>
        <path id="Path_1850" data-name="Path 1850" d="M109.569,328.134H108l-.577,1.642h-.489l1.562-4.451h.576l1.562,4.451h-.489Zm-.148-.429-.637-1.823-.637,1.823Z" transform="translate(-102.917 -325.312)" fill="#fcf8f7"/>
        <path id="Path_1851" data-name="Path 1851" d="M119.626,325.747H118.48v4.009h-.456v-4.009h-1.146V325.3h2.748Z" transform="translate(-108.019 -325.298)" fill="#fcf8f7"/>
        <path id="Path_1852" data-name="Path 1852" d="M136.917,328.161l1.441,1.6h-.616l-1.442-1.6h-.04v1.6H135.8v-4.451h1.139a1.383,1.383,0,0,1,.714.191,1.423,1.423,0,0,1,.516.519,1.4,1.4,0,0,1,.191.717,1.382,1.382,0,0,1-.191.714,1.432,1.432,0,0,1-.516.516,1.383,1.383,0,0,1-.714.191Zm-.657-2.393V327.7h.677a.933.933,0,0,0,.483-.13.983.983,0,0,0,.352-.352.937.937,0,0,0,.13-.483.954.954,0,0,0-.13-.486.978.978,0,0,0-.352-.355.933.933,0,0,0-.483-.13Z" transform="translate(-117.728 -325.305)" fill="#fcf8f7"/>
        <path id="Path_1853" data-name="Path 1853" d="M148.3,325.3v4.458h-.543l-2.246-3.6v3.6h-.463V325.3h.483l2.313,3.7v-3.7Z" transform="translate(-122.476 -325.298)" fill="#fcf8f7"/>
        <path id="Path_1854" data-name="Path 1854" d="M157.85,328.121h-1.569l-.576,1.642h-.489l1.562-4.451h.576l1.562,4.451h-.489Zm-.148-.429-.637-1.824-.637,1.824Z" transform="translate(-127.693 -325.305)" fill="#fcf8f7"/>
      </g>
      <path id="Path_1855" data-name="Path 1855" d="M126.655,312.614h2.44v.456h-2.44Zm0,4h2.44v.456h-2.44Zm0-1.555v-.432l.456,0,1.984,0v.429l-1.984,0Z" transform="translate(-107.717 -312.443)" fill="#ae4426"/>
      <path id="Path_1856" data-name="Path 1856" d="M126.655,325.3h2.44v.456h-2.44Zm0,4h2.44v.456h-2.44Zm0-1.555v-.432l.456,0,1.984,0v.429l-1.984,0Z" transform="translate(-107.717 -318.952)" fill="#ae4426"/>
    </g>
    <g id="Group_255" data-name="Group 255" transform="translate(22.984 12.074)">
      <path id="Path_1857" data-name="Path 1857" d="M131.77,84.326c3.147-.248,11.1.663,14.21,1.224a41.327,41.327,0,0,0,5.543.887c1.724.074,12.426-.423,14.151-.481" transform="translate(-90.603 -55.325)" fill="none" stroke="#fcf8f7" stroke-miterlimit="10" stroke-width="0.464"/>
      <path id="Path_1858" data-name="Path 1858" d="M81.608,84.575c-3.541.084-9.527,2.239-13.064,2.434a50.88,50.88,0,0,1-5.328-.295c-3.725-.186-12.354-.017-16.006.738" transform="translate(-47.21 -55.474)" fill="none" stroke="#fcf8f7" stroke-miterlimit="10" stroke-width="0.464"/>
      <g id="Group_254" data-name="Group 254" transform="translate(30.539)">
        <path id="Path_1859" data-name="Path 1859" d="M119.042,44.079a14.017,14.017,0,0,1,4.813,0c.528.295,1.115,24.534.822,24.886s-6.046.763-6.456.352S118.536,44.969,119.042,44.079Z" transform="translate(-114.127 -34.587)" fill="none" stroke="#fcf8f7" stroke-miterlimit="10" stroke-width="0.464"/>
        <path id="Path_1860" data-name="Path 1860" d="M125.217,93.784a9.719,9.719,0,0,0-.09-2.236,2.422,2.422,0,0,0-1.335,0,20.511,20.511,0,0,0,0,2.329" transform="translate(-117.028 -59.004)" fill="none" stroke="#fcf8f7" stroke-miterlimit="10" stroke-width="0.464"/>
        <path id="Path_1861" data-name="Path 1861" d="M120.224,91.748a.428.428,0,0,1,.367-.059,3.681,3.681,0,0,1,0,1.2c-.029.088-.248.167-.308.058A6.022,6.022,0,0,1,120.224,91.748Z" transform="translate(-115.207 -59.116)" fill="none" stroke="#fcf8f7" stroke-miterlimit="10" stroke-width="0.464"/>
        <path id="Path_1862" data-name="Path 1862" d="M127.45,74.518c.044-.1.323-.117.4-.074a4.433,4.433,0,0,1,0,1.394c-.073.073-.22.015-.293,0A8.119,8.119,0,0,1,127.45,74.518Z" transform="translate(-118.925 -50.264)" fill="none" stroke="#fcf8f7" stroke-miterlimit="10" stroke-width="0.464"/>
        <path id="Path_1863" data-name="Path 1863" d="M123.8,47.054c.044-.088.382-.029.469,0a5.824,5.824,0,0,1-.073,1.408c-.03.088-.323.132-.4.088A10.164,10.164,0,0,1,123.8,47.054Z" transform="translate(-117.034 -36.196)" fill="none" stroke="#fcf8f7" stroke-miterlimit="10" stroke-width="0.464"/>
        <path id="Path_1864" data-name="Path 1864" d="M122,33.209a10.04,10.04,0,0,1,2.318,2.348c-.013.032-.12.06-.294.084a24.6,24.6,0,0,1-4.445.019A9.327,9.327,0,0,1,122,33.209Z" transform="translate(-114.882 -29.116)" fill="none" stroke="#fcf8f7" stroke-miterlimit="10" stroke-width="0.464"/>
        <line id="Line_950" data-name="Line 950" y1="2.842" transform="translate(9.228 6.511)" fill="none" stroke="#fcf8f7" stroke-miterlimit="10" stroke-width="0.464"/>
        <path id="Path_1865" data-name="Path 1865" d="M120.819,30.7c.059-.029,3.771-1.262,3.771-1.262" transform="translate(-115.522 -27.182)" fill="none" stroke="#fcf8f7" stroke-miterlimit="10" stroke-width="0.464"/>
        <line id="Line_951" data-name="Line 951" x1="0.066" y2="1.203" transform="translate(7.116 2.89)" fill="none" stroke="#fcf8f7" stroke-miterlimit="10" stroke-width="0.464"/>
        <line id="Line_952" data-name="Line 952" x1="0.123" y2="8.759" transform="translate(3.859)" fill="none" stroke="#fcf8f7" stroke-miterlimit="10" stroke-width="0.464"/>
        <line id="Line_953" data-name="Line 953" x2="1.174" y2="1.2" transform="translate(3.92 4.754)" fill="none" stroke="#fcf8f7" stroke-miterlimit="10" stroke-width="0.464"/>
        <line id="Line_954" data-name="Line 954" y1="2.729" x2="0.062" transform="translate(5.235 6.676)" fill="none" stroke="#fcf8f7" stroke-miterlimit="10" stroke-width="0.464"/>
        <path id="Path_1866" data-name="Path 1866" d="M132.372,30.034v9.391" transform="translate(-121.451 -27.486)" fill="none" stroke="#fcf8f7" stroke-miterlimit="10" stroke-width="0.464"/>
        <line id="Line_955" data-name="Line 955" y1="0.703" x2="1.694" transform="translate(9.228 5.386)" fill="none" stroke="#fcf8f7" stroke-miterlimit="10" stroke-width="0.464"/>
        <line id="Line_956" data-name="Line 956" y1="0.657" x2="0.959" transform="translate(9.963 10.373)" fill="none" stroke="#fcf8f7" stroke-miterlimit="10" stroke-width="0.464"/>
        <line id="Line_957" data-name="Line 957" x1="0.052" y2="1.674" transform="translate(6.235 6.676)" fill="none" stroke="#fcf8f7" stroke-miterlimit="10" stroke-width="0.464"/>
        <line id="Line_958" data-name="Line 958" y2="2.678" transform="translate(7.821 6.634)" fill="none" stroke="#fcf8f7" stroke-miterlimit="10" stroke-width="0.464"/>
        <path id="Path_1867" data-name="Path 1867" d="M121.776,41.9a.485.485,0,0,1,.631.484c0,.339.032.43-.357.466s-.538-.107-.538-.441S121.527,41.969,121.776,41.9Z" transform="translate(-115.878 -33.562)" fill="none" stroke="#fcf8f7" stroke-miterlimit="10" stroke-width="0.464"/>
        <line id="Line_959" data-name="Line 959" x2="1.373" y2="1.012" transform="translate(3.868 8.143)" fill="none" stroke="#fcf8f7" stroke-miterlimit="10" stroke-width="0.464"/>
        <path id="Path_1868" data-name="Path 1868" d="M126.995,42.211a.364.364,0,0,1,.43.378c.01.174-.068.361-.371.428s-.43-.268-.441-.4S126.505,42.3,126.995,42.211Z" transform="translate(-118.488 -33.731)" fill="none" stroke="#fcf8f7" stroke-miterlimit="10" stroke-width="0.464"/>
        <path id="Path_1869" data-name="Path 1869" d="M134.382,37.589a9.127,9.127,0,0,1,1.467-.557" transform="translate(-122.482 -31.077)" fill="none" stroke="#fcf8f7" stroke-miterlimit="10" stroke-width="0.464"/>
        <line id="Line_960" data-name="Line 960" x2="1.643" transform="translate(12.633 7.549)" fill="none" stroke="#fcf8f7" stroke-miterlimit="10" stroke-width="0.464"/>
        <line id="Line_961" data-name="Line 961" x2="1.321" y2="0.47" transform="translate(11.9 8.883)" fill="none" stroke="#fcf8f7" stroke-miterlimit="10" stroke-width="0.464"/>
        <line id="Line_962" data-name="Line 962" x1="1.203" y1="0.496" transform="translate(1.599 5.737)" fill="none" stroke="#fcf8f7" stroke-miterlimit="10" stroke-width="0.464"/>
        <path id="Path_1870" data-name="Path 1870" d="M111.788,40.308h-1.849" transform="translate(-109.939 -32.759)" fill="none" stroke="#fcf8f7" stroke-miterlimit="10" stroke-width="0.464"/>
        <line id="Line_963" data-name="Line 963" x1="1.203" y2="0.756" transform="translate(1.247 8.649)" fill="none" stroke="#fcf8f7" stroke-miterlimit="10" stroke-width="0.464"/>
      </g>
    </g>
  </g>
</svg>
