<?xml version="1.0" encoding="utf-8"?>
<!-- Generator: Adobe Illustrator 24.0.3, SVG Export Plug-In . SVG Version: 6.00 Build 0)  -->
<svg version="1.1" id="Layer_1" xmlns="http://www.w3.org/2000/svg" xmlns:xlink="http://www.w3.org/1999/xlink" x="0px" y="0px"
	 viewBox="0 0 302.2 344.1" style="enable-background:new 0 0 302.2 344.1;" xml:space="preserve">
<style type="text/css">
	.st0{fill:#FCF7F6;}
	.st1{fill:#212E3B;}
	.st2{fill:#AD6E42;}
	.st3{fill:#9F311B;}
	.st4{enable-background:new    ;}
	.st5{fill:#E6C2B0;}
	.st6{fill:#EFE8E5;}
	.st7{fill:#D2C3B8;}
	.st8{fill:none;}
</style>
<g id="Group_421" transform="translate(-35.782 -1280.002)">
	<g id="Group_84" transform="matrix(0.978, 0.208, -0.208, 0.978, 76.7, 1383.207)">
		
			<rect id="Rectangle_12" x="38.8" y="-38.8" transform="matrix(2.527908e-06 1 -1 2.527908e-06 228.3302 -38.8077)" class="st0" width="189.5" height="267.1"/>
		
			<rect x="194.2" y="53.2" transform="matrix(0.208 -0.9781 0.9781 0.208 49.4749 274.955)" class="st1" width="0.8" height="107.5"/>
		
			<rect x="194.2" y="71.2" transform="matrix(0.208 -0.9781 0.9781 0.208 31.8271 289.244)" class="st1" width="0.8" height="107.5"/>
		
			<rect x="193.2" y="89.3" transform="matrix(0.208 -0.9781 0.9781 0.208 13.4229 302.5997)" class="st1" width="0.8" height="107.5"/>
		
			<rect x="218.2" y="132.2" transform="matrix(0.208 -0.9781 0.9781 0.208 15.6101 341.3855)" class="st1" width="0.8" height="57.7"/>
		
			<rect x="157.4" y="153.8" transform="matrix(0.2081 -0.9781 0.9781 0.2081 -27.421 277.5949)" class="st1" width="0.8" height="3.8"/>
		<path class="st1" d="M176.9,161.8c-1.9,0.4-5.5,0.3-6.2-0.4c-1-0.9-1-11-0.7-11.9c0.1-0.3,0.3-0.4,0.6-0.6c1.5-0.5,5.8,0,6.3,0.4
			c0.7,0.4,1.4,6.9,1.4,8.9c0.1,2.5-0.2,3.1-0.5,3.3C177.7,161.6,177.3,161.7,176.9,161.8z M170.7,149.7c-0.4,1.1-0.1,10.4,0.5,11.1
			c0.7,0.6,5.4,0.6,6.3,0c0.6-0.8-0.3-9.7-0.9-10.9C175.6,149.5,171.1,149.1,170.7,149.7z"/>
		<path class="st1" d="M241.5,64.8c-9.1,1.9-25.1,0.5-28.8-1.8c-3.2-2.1-3.5-19.2-3.6-24.4c-0.1-10.5,0.7-22.9,2.3-25.3l0,0
			c2.3-3.6,32.2-1.7,35.2-0.4c0.3,0.2,0.6,0.6,0.8,1.4c2.2,7.2,1.7,45,0.1,47.6c-0.8,1.3-2.8,2.3-5.9,3
			C241.6,64.8,241.6,64.8,241.5,64.8z M214.3,12.6c-1.2,0.3-2,0.6-2.2,1l0,0c-2.9,4.4-3.1,46,1.1,48.7c3.5,2.3,19.4,3.6,28.2,1.7
			c0,0,0.1,0,0.1,0c2.8-0.6,4.7-1.5,5.4-2.6c1.2-2,2.1-39.4-0.1-47c-0.2-0.8-0.4-0.9-0.4-0.9C243.3,12.1,221.5,11.1,214.3,12.6z"/>
		<path class="st1" d="M186.6,161.6c-1.2,0.3-3.2,0.3-4.3,0.2c-1.1-0.1-1.7-0.3-1.9-0.8c-0.5-1.1-1.1-9.8-0.6-11l0,0l0,0
			c0,0,0,0,0,0c0.2-0.5,1.2-0.9,3-1.1c0.4,0,3.6-0.4,4.2,0.4c0.6,0.8,1.1,11.1,0.6,11.8C187.6,161.3,187.2,161.4,186.6,161.6z
			 M180.6,150.3c-0.4,1,0.2,9.5,0.6,10.4c0,0,0.1,0.1,0.6,0.2c1.6,0.3,4.8,0,5.3-0.3c0.3-1.2-0.2-10.2-0.6-10.9
			c-0.3-0.2-2.3-0.3-4.2,0.1C181.1,150,180.7,150.3,180.6,150.3z"/>
		<path class="st1" d="M166.6,161.6c-1.4,0.3-4,0.4-5,0.1c-0.3-0.1-0.6-0.3-0.6-0.5c-0.4-1-0.3-10.3,0.4-11.5
			c0.4-0.6,1.5-0.8,2.3-0.8c1.2-0.1,3.2,0.1,3.7,0.8c0.7,0.8,0.6,8.5,0.3,10.7c-0.1,0.6-0.2,0.9-0.4,1
			C167.3,161.4,167,161.5,166.6,161.6z M162.9,149.7c-0.5,0.1-0.8,0.3-0.8,0.4l0,0c-0.6,1-0.6,10.1-0.4,10.8
			c0.4,0.4,4.7,0.2,5.3-0.2c0.4-0.7,0.4-9.8-0.1-10.6c-0.2-0.3-1.6-0.6-3.1-0.5C163.4,149.6,163.1,149.6,162.9,149.7z"/>
		<path class="st1" d="M153.8,161.5c-1.5,0.3-5.5,0.1-6.4-0.8c-1-1-0.2-7.6-0.1-7.8c0.4-3.2,0.7-3.4,0.9-3.5
			c0.7-0.4,5.2-0.5,6.2,0.1c0.3,0.2,0.4,0.4,0.4,0.6l0,0.4c0.1,10.4-0.3,10.7-0.5,10.9C154.1,161.4,154,161.5,153.8,161.5z
			 M148.8,149.9c-0.1,0-0.2,0.1-0.3,0.1c-0.5,0.8-1.3,9.4-0.6,10.2c0.7,0.7,5.1,0.9,5.8,0.6c0.1-0.4,0.3-2.1,0.3-10.3l0-0.4
			C153.5,149.7,149.9,149.7,148.8,149.9z M154,150C154,150,154,150,154,150L154,150z"/>
		<path class="st1" d="M144.3,161.3c-0.1,0-0.2,0-0.3,0.1c-1.1,0.2-3.2,0.3-3.8-0.2c-1.1-0.8-0.7-10.3-0.1-11.3l0,0
			c0.2-0.3,0.6-0.5,1.2-0.6c1.3-0.2,3.8,0,4.3,0.5c0.8,0.7,0.5,10.3,0.1,11C145.5,160.8,145.3,161.1,144.3,161.3z M140.7,150.2
			c-0.7,1.2-0.5,9.7-0.1,10.4c0.3,0.2,1.9,0.3,3.2,0c0.8-0.1,1.1-0.3,1.2-0.4c0.4-0.8,0.4-9.2,0-10c-0.3-0.2-2.5-0.5-3.8-0.3
			C140.8,150.1,140.7,150.2,140.7,150.2L140.7,150.2z"/>
		<g id="Group_83" transform="translate(147.578 31.383)">
			<g id="Group_81" transform="translate(0 0)">
				<path id="Path_625" class="st1" d="M2.6,0.3c0.3,0.2,0.5,0.4,0.7,0.7c0.2,0.3,0.3,0.6,0.3,0.9c0,0.3-0.1,0.6-0.3,0.9
					C3.1,3.1,2.8,3.3,2.6,3.5C2.3,3.6,1.9,3.7,1.6,3.7h-1v2.1H0L0,0l1.6,0C1.9,0,2.3,0.1,2.6,0.3z M2.3,3c0.2-0.1,0.4-0.3,0.5-0.5
					c0.1-0.2,0.2-0.4,0.2-0.6c0-0.2-0.1-0.4-0.2-0.6C2.6,1.1,2.4,0.9,2.3,0.8C2.1,0.7,1.8,0.6,1.6,0.6h-1l0,2.5h1
					C1.8,3.1,2.1,3.1,2.3,3L2.3,3z"/>
				<path id="Path_626" class="st1" d="M7.5,3.7l1.9,2.1H8.6L6.7,3.7H6.7v2.1H6.1V0l1.5,0c0.3,0,0.6,0.1,0.9,0.2
					C8.8,0.4,9,0.7,9.2,0.9c0.2,0.3,0.3,0.6,0.2,0.9c0,0.3-0.1,0.6-0.2,0.9C9,3.1,8.8,3.3,8.5,3.5C8.2,3.6,7.9,3.7,7.5,3.7L7.5,3.7z
					 M6.7,0.6v2.5h0.9C7.8,3.1,8,3.1,8.2,3c0.2-0.1,0.3-0.3,0.5-0.5c0.1-0.2,0.2-0.4,0.2-0.6c0-0.2-0.1-0.4-0.2-0.6
					C8.5,1.1,8.4,0.9,8.2,0.8C8,0.7,7.8,0.6,7.6,0.6H6.7z"/>
				<path id="Path_627" class="st2" d="M13.1,5.5c-0.4-0.3-0.8-0.6-1.1-1.1C11.8,4,11.6,3.5,11.6,3c0-0.5,0.1-1,0.4-1.5
					c0.3-0.4,0.6-0.8,1.1-1.1C13.5,0.2,14,0,14.5,0c0.5,0,1,0.1,1.5,0.4c0.4,0.3,0.8,0.6,1.1,1.1c0.3,0.4,0.4,0.9,0.4,1.5
					c0,0.5-0.1,1-0.4,1.5c-0.3,0.4-0.6,0.8-1.1,1.1c-0.4,0.3-0.9,0.4-1.5,0.4C14,5.9,13.5,5.7,13.1,5.5z M15.7,5
					c0.3-0.2,0.6-0.5,0.8-0.8c0.2-0.4,0.3-0.8,0.3-1.2c0-0.4-0.1-0.8-0.3-1.2C16.3,1.4,16,1.2,15.7,1c-0.4-0.2-0.8-0.3-1.2-0.3
					c-0.4,0-0.8,0.1-1.2,0.3c-0.4,0.2-0.6,0.5-0.8,0.8c-0.2,0.4-0.3,0.8-0.3,1.2c0,0.4,0.1,0.8,0.3,1.2C12.7,4.5,13,4.7,13.4,5
					c0.4,0.2,0.8,0.3,1.2,0.3C14.9,5.3,15.3,5.2,15.7,5z"/>
				<path id="Path_628" class="st1" d="M20.6,4.9c0.2-0.2,0.3-0.4,0.3-0.7V0l0.6,0v4.2c0,0.3-0.1,0.6-0.2,0.8
					c-0.1,0.2-0.3,0.4-0.6,0.6c-0.2,0.1-0.5,0.2-0.8,0.2V5.2C20.2,5.2,20.4,5.1,20.6,4.9z"/>
				<path id="Path_629" class="st1" d="M31,3.4v2.4h-0.6V0L31,0v2.5L33.1,0l0.8,0l-2.5,2.9l2.6,2.8h-0.8L31,3.4z"/>
				<path id="Path_630" class="st1" d="M40,0.6l-1.5,0v5.2h-0.6V0.6h-1.5V0L40,0V0.6z"/>
			</g>
			<g id="Group_82" transform="translate(6.915 8.25)">
				<path id="Path_631" class="st1" d="M2.5,5.2v0.6H0L0,0l0.6,0v5.2H2.5z"/>
				<path id="Path_632" class="st1" d="M8.6,3.7h-2L5.9,5.8H5.2l2-5.8L8,0l2,5.8H9.4L8.6,3.7z M8.5,3.1L7.6,0.7L6.8,3.1H8.5z"/>
				<path id="Path_633" class="st1" d="M15.1,0.6l-1.5,0v5.2H13V0.6h-1.5V0l3.6,0V0.6z"/>
				<path id="Path_634" class="st1" d="M24.9,3.7l1.9,2.1H26l-1.9-2.1h-0.1v2.1h-0.6V0L25,0c0.3,0,0.6,0.1,0.9,0.2
					c0.3,0.2,0.5,0.4,0.7,0.7c0.2,0.3,0.3,0.6,0.2,0.9c0,0.3-0.1,0.6-0.2,0.9c-0.2,0.3-0.4,0.5-0.7,0.7C25.6,3.6,25.3,3.7,24.9,3.7
					L24.9,3.7z M24.1,0.6v2.5H25c0.2,0,0.4-0.1,0.6-0.2c0.2-0.1,0.3-0.3,0.5-0.5c0.1-0.2,0.2-0.4,0.2-0.6c0-0.2-0.1-0.4-0.2-0.6
					c-0.1-0.2-0.3-0.3-0.5-0.5c-0.2-0.1-0.4-0.2-0.6-0.2H24.1z"/>
				<path id="Path_635" class="st1" d="M33.6,0v5.8h-0.7l-2.9-4.7v4.7h-0.6V0L30,0l3,4.8V0L33.6,0z"/>
				<path id="Path_636" class="st1" d="M39.2,3.7h-2l-0.8,2.1h-0.6l2-5.8l0.7,0l2,5.8H40L39.2,3.7z M39,3.1l-0.8-2.4l-0.8,2.4
					L39,3.1z"/>
			</g>
			<path id="Path_637" class="st3" d="M24.6,0.2l3.2,0v0.6h-3.2V0.2z M24.6,5.4h3.2V6h-3.2V5.4z M24.6,3.4V2.8h0.6h2.6v0.6h-2.6
				L24.6,3.4z"/>
			<path id="Path_638" class="st3" d="M24.6,8.3h3.2v0.6h-3.2V8.3z M24.6,13.5h3.2v0.6h-3.2V13.5z M24.6,11.4v-0.6h0.6h2.6v0.6h-2.6
				L24.6,11.4z"/>
		</g>
		<g class="st4">
			<path class="st1" d="M34.1,174.6l-0.7,0l-0.8-2.3l-0.8,2.3l-0.7,0l-1.9-5.3l0.8,0l1.5,4.2l0.8-2.2l-0.7-2l0.8,0l0.7,2l0.8,2.2
				l1.5-4.2l0.8,0L34.1,174.6z"/>
			<path class="st1" d="M41.5,174.6l-0.7,0l-0.8-2.3l-0.8,2.3l-0.7,0l-1.9-5.3l0.8,0l1.5,4.2l0.8-2.2l-0.7-2l0.8,0l0.7,2l0.8,2.2
				l1.5-4.2l0.8,0L41.5,174.6z"/>
			<path class="st1" d="M48.9,174.6l-0.7,0l-0.8-2.3l-0.8,2.3l-0.7,0l-1.9-5.3l0.8,0l1.5,4.2l0.8-2.2l-0.7-2l0.8,0l0.7,2l0.8,2.2
				l1.5-4.2l0.8,0L48.9,174.6z"/>
			<path class="st1" d="M50.4,174.5c-0.1-0.1-0.1-0.2-0.1-0.3c0-0.1,0-0.2,0.1-0.2c0.1-0.1,0.2-0.1,0.3-0.1c0.1,0,0.2,0,0.2,0.1
				c0.1,0.1,0.1,0.2,0.1,0.2c0,0.1,0,0.2-0.1,0.3c-0.1,0.1-0.2,0.1-0.2,0.1C50.6,174.6,50.5,174.6,50.4,174.5z"/>
			<path class="st1" d="M52.5,172.8l0,1.8l-0.7,0l0-5.3l1.5,0c0.2,0,0.4,0,0.6,0.1c0.2,0.1,0.4,0.2,0.6,0.4c0.2,0.2,0.3,0.4,0.4,0.6
				c0.1,0.2,0.1,0.4,0.1,0.7c0,0.2,0,0.5-0.1,0.7c-0.1,0.2-0.2,0.4-0.4,0.6c-0.2,0.2-0.3,0.3-0.6,0.4c-0.2,0.1-0.4,0.1-0.6,0.1
				L52.5,172.8z M52.5,170l0,2l0.8,0c0.3,0,0.5-0.1,0.7-0.3c0.2-0.2,0.3-0.4,0.3-0.7c0-0.3-0.1-0.5-0.3-0.7
				c-0.2-0.2-0.4-0.3-0.7-0.3L52.5,170z"/>
			<path class="st1" d="M58.9,174.6l-0.9,0l-1.5-1.8l0,1.8l-0.7,0l0-5.3l1.4,0c0.2,0,0.5,0,0.7,0.1c0.2,0.1,0.4,0.2,0.5,0.4
				c0.2,0.2,0.3,0.4,0.4,0.6c0.1,0.2,0.1,0.4,0.1,0.7c0,0.2,0,0.4-0.1,0.6c-0.1,0.2-0.2,0.4-0.3,0.5c-0.1,0.2-0.3,0.3-0.5,0.4
				c-0.2,0.1-0.4,0.2-0.6,0.2L58.9,174.6z M56.5,170l0,2l0.7,0c0.1,0,0.3,0,0.4-0.1c0.1-0.1,0.2-0.1,0.3-0.2
				c0.1-0.1,0.2-0.2,0.2-0.3c0.1-0.1,0.1-0.3,0.1-0.4c0-0.3-0.1-0.5-0.3-0.7c-0.1-0.1-0.2-0.2-0.3-0.2c-0.1-0.1-0.2-0.1-0.4-0.1
				L56.5,170z"/>
			<path class="st1" d="M61,174.4c-0.3-0.1-0.6-0.3-0.9-0.6c-0.2-0.2-0.4-0.5-0.6-0.9s-0.2-0.7-0.2-1c0-0.4,0.1-0.7,0.2-1
				c0.1-0.3,0.3-0.6,0.6-0.9c0.2-0.2,0.5-0.4,0.9-0.6c0.3-0.1,0.7-0.2,1-0.2c0.4,0,0.7,0.1,1,0.2c0.3,0.1,0.6,0.3,0.9,0.6
				c0.2,0.2,0.4,0.5,0.6,0.9c0.1,0.3,0.2,0.7,0.2,1c0,0.4-0.1,0.7-0.2,1c-0.1,0.3-0.3,0.6-0.6,0.9c-0.2,0.2-0.5,0.4-0.9,0.6
				c-0.3,0.1-0.7,0.2-1,0.2C61.7,174.6,61.4,174.6,61,174.4z M61.3,170.2c-0.2,0.1-0.4,0.2-0.6,0.4c-0.2,0.2-0.3,0.4-0.4,0.6
				c-0.1,0.2-0.1,0.5-0.1,0.7c0,0.3,0,0.5,0.2,0.8c0.1,0.2,0.2,0.5,0.4,0.6c0.2,0.2,0.4,0.3,0.6,0.4c0.2,0.1,0.5,0.1,0.7,0.1
				c0.3,0,0.5,0,0.7-0.1c0.2-0.1,0.4-0.2,0.6-0.4c0.2-0.2,0.3-0.4,0.4-0.6c0.1-0.2,0.2-0.5,0.2-0.8c0-0.3-0.1-0.5-0.1-0.7
				c-0.1-0.2-0.2-0.4-0.4-0.6c-0.2-0.2-0.4-0.3-0.6-0.4c-0.2-0.1-0.5-0.1-0.7-0.1C61.8,170,61.6,170.1,61.3,170.2z"/>
			<path class="st1" d="M65.1,173.9c0.2,0,0.4-0.1,0.6-0.2c0.2-0.2,0.2-0.3,0.2-0.6l0-3.8l0.7,0l0,3.8c0,0.2,0,0.4-0.1,0.6
				c-0.1,0.2-0.2,0.3-0.3,0.5c-0.1,0.1-0.3,0.2-0.5,0.3c-0.2,0.1-0.4,0.1-0.6,0.1L65.1,173.9z"/>
			<path class="st1" d="M67.3,174.6l0-5.3l2.9,0l0,0.7l-2.2,0l0,1.6l1.5,0l0,0.7l-1.5,0l0,1.6l2.2,0l0,0.7L67.3,174.6z"/>
			<path class="st1" d="M73.5,174.6l-1.7-2l0,2l-0.7,0l0-5.3l0.7,0l0,2l1.7-2l0.9,0l-2.2,2.7l2.3,2.6L73.5,174.6z"/>
			<path class="st1" d="M76.8,170l0,4.6l-0.7,0l0-4.6l-1.3,0l0-0.7l3.3,0l0,0.7L76.8,170z"/>
			<path class="st1" d="M78.8,174.6l0-5.3l0.7,0l0,4.6l1.6,0l0,0.7L78.8,174.6z"/>
			<path class="st1" d="M85.5,174.6l-0.7-1.9l-1.7,0l-0.7,1.9l-0.8,0l1.8-5.3l0.8,0l1.8,5.3L85.5,174.6z M84,170.3l-0.6,1.7l1.2,0
				L84,170.3z"/>
			<path class="st1" d="M88.3,170l0,4.6l-0.7,0l0-4.6l-1.3,0l0-0.7l3.3,0l0,0.7L88.3,170z"/>
			<path class="st1" d="M90.3,174.6l0-5.3l2.9,0l0,0.7l-2.2,0l0,1.6l1.5,0l0,0.7l-1.5,0l0,1.6l2.2,0l0,0.7L90.3,174.6z"/>
			<path class="st1" d="M97.2,174.6l-0.9,0l-1.5-1.8l0,1.8l-0.7,0l0-5.3l1.4,0c0.2,0,0.5,0,0.7,0.1c0.2,0.1,0.4,0.2,0.5,0.4
				c0.2,0.2,0.3,0.4,0.4,0.6c0.1,0.2,0.1,0.4,0.1,0.7c0,0.2,0,0.4-0.1,0.6c-0.1,0.2-0.2,0.4-0.3,0.5c-0.1,0.2-0.3,0.3-0.5,0.4
				c-0.2,0.1-0.4,0.2-0.6,0.2L97.2,174.6z M94.7,170l0,2l0.7,0c0.1,0,0.3,0,0.4-0.1c0.1-0.1,0.2-0.1,0.3-0.2
				c0.1-0.1,0.2-0.2,0.2-0.3c0.1-0.1,0.1-0.3,0.1-0.4c0-0.3-0.1-0.5-0.3-0.7c-0.1-0.1-0.2-0.2-0.3-0.2c-0.1-0.1-0.2-0.1-0.4-0.1
				L94.7,170z"/>
			<path class="st1" d="M101,174.6l-2.4-3.9l0,3.9l-0.7,0l0-5.3l0.7,0l2.5,4l0-4l0.7,0l0,5.3L101,174.6z"/>
			<path class="st1" d="M106.3,174.6l-0.7-1.9l-1.7,0l-0.7,1.9l-0.8,0l1.8-5.3l0.8,0l1.8,5.3L106.3,174.6z M104.8,170.3l-0.6,1.7
				l1.2,0L104.8,170.3z"/>
			<path class="st1" d="M107.6,174.5c-0.1-0.1-0.1-0.2-0.1-0.3c0-0.1,0-0.2,0.1-0.2c0.1-0.1,0.2-0.1,0.3-0.1c0.1,0,0.2,0,0.2,0.1
				c0.1,0.1,0.1,0.2,0.1,0.2c0,0.1,0,0.2-0.1,0.3c-0.1,0.1-0.2,0.1-0.2,0.1C107.8,174.6,107.7,174.6,107.6,174.5z"/>
			<path class="st1" d="M109.7,172.8l0,1.8l-0.7,0l0-5.3l1.5,0c0.2,0,0.4,0,0.6,0.1c0.2,0.1,0.4,0.2,0.6,0.4
				c0.2,0.2,0.3,0.4,0.4,0.6c0.1,0.2,0.1,0.4,0.1,0.7c0,0.2,0,0.5-0.1,0.7c-0.1,0.2-0.2,0.4-0.4,0.6c-0.2,0.2-0.3,0.3-0.6,0.4
				c-0.2,0.1-0.4,0.1-0.6,0.1L109.7,172.8z M109.7,170l0,2l0.8,0c0.3,0,0.5-0.1,0.7-0.3c0.2-0.2,0.3-0.4,0.3-0.7
				c0-0.3-0.1-0.5-0.3-0.7c-0.2-0.2-0.4-0.3-0.7-0.3L109.7,170z"/>
			<path class="st1" d="M112.9,174.6l0-5.3l0.7,0l0,4.6l1.6,0l0,0.7L112.9,174.6z"/>
		</g>
	</g>
	<g id="Group_89" transform="matrix(0.995, 0.105, -0.105, 0.995, 63.663, 1280.002)">
		<g id="Group_85">
			
				<rect id="Rectangle_13" x="-38.7" y="38.7" transform="matrix(2.538940e-06 1 -1 2.538940e-06 227.9818 38.7477)" class="st0" width="266.7" height="189.2"/>
		</g>
		<path id="Path_639" class="st5" d="M180.5,173.5c-3.5-1.3-7.9-3.1-8.1-3.6c-0.3-0.7,12.8-1.3,12.7-3.7c-0.1-2.4-14.1-5.6-14.1-6.3
			s10.5-1.4,10.4-3.4s-11.5-5.6-11.5-6.3c0-0.7,9.5-2.5,9.4-4.2s-10.4-3.4-10.5-3.4s6.8-0.5,6.9-1.7c0.1-1.2-9.6-12.5-10.7-12.5
			s-6.6,10-7.1,12s4.7,1.3,4.8,2.3c0.1,1-10.5,1.7-10.4,3.5c0,1.9,8.3,3.5,8.5,4.8s-12,2.5-12.4,4.6s11.1,3.5,11,4.5
			c-0.1,1-15.7,2.9-15.4,4.7c0.3,1.8,13.4,3.6,13.5,4.9c0,0.6-3.5,1.5-7.5,2.4c-13.2-4.4-23.2-6.7-29.5-7.5
			c-7.6-0.9-31.4-1.1-43.2,0.3c-5.2,0.6-18.4,1.4-29,5.7c-2.8,0.2-5.3,0.5-5.3-0.3c0-1.2,14.4-5.1,14.4-8c0-2.2-17.6-3.9-17.6-7.2
			c0-1.3,15.3-3,15-6.6s-14.1-6.2-15-7.6s9.7-5,9.8-7.9c0.1-1.3-13.6-5.7-13.9-7s9.2-0.6,8.9-2.7c-0.3-2.1-10.1-17.2-11.8-17.1
			c-1.6,0.1-13.6,12.5-13.8,14.9c-0.2,2,8.4,3.1,8.3,5c-0.1,2.6-13,4-13.1,7.7c0,1.6,9.7,4.3,9.7,7.2s-13.4,4.7-13.8,7.5
			s12.8,5.7,13.1,7.9s-16.9,2-17.8,3.9s12.9,6.7,12.6,8.4c-0.2,1-6.4,2.9-11.1,4.1c-3.4-0.5-6.9-3.9-6.9-3.9l0,98.3h189.2v-92.9
			C189.2,173.9,186.2,174.5,180.5,173.5z"/>
		<g class="st4">
			<path class="st1" d="M90.6,228.2l-0.2-0.2l0,0.2l-0.1,0l0-0.7l0.1,0l0,0.3l0.2-0.3l0.1,0l-0.3,0.3l0.3,0.3L90.6,228.2z"/>
			<path class="st1" d="M90.9,228.2l0-0.7l0.1,0L90.9,228.2L90.9,228.2z"/>
			<path class="st1" d="M91.4,228.2l-0.2-0.2l0,0.2l-0.1,0l0-0.7l0.1,0l0,0.3l0.2-0.3l0.1,0l-0.3,0.3l0.3,0.3L91.4,228.2z"/>
			<path class="st1" d="M91.8,228.2C91.7,228.2,91.7,228.2,91.8,228.2c-0.1-0.1-0.1-0.1-0.1-0.1c0,0,0-0.1,0-0.1l0-0.4l0.1,0l0,0.4
				c0,0,0,0,0,0.1c0,0,0,0,0,0C91.8,228.1,91.8,228.1,91.8,228.2C91.8,228.1,91.8,228.2,91.8,228.2c0.1-0.1,0.1-0.1,0.1-0.1
				c0,0,0,0,0,0c0,0,0,0,0,0c0,0,0,0,0-0.1l0-0.4l0.1,0l0,0.4c0,0,0,0.1,0,0.1c0,0,0,0.1,0,0.1c0,0,0,0-0.1,0.1
				C91.9,228.2,91.9,228.2,91.8,228.2C91.8,228.2,91.8,228.2,91.8,228.2z"/>
			<path class="st1" d="M92.5,227.7l0,0.6l-0.1,0L92.5,227.7l-0.2,0l0-0.1l0.4,0l0,0.1L92.5,227.7z"/>
		</g>
		<g id="kikut_kolor" transform="translate(77.027 50.655)">
			<path id="Path_640" class="st6" d="M2.3,43.9c2.5-2.9,36.4-1.5,38-0.3s4.3,94.9,3.2,97.6s-37.9,3.4-41.1-2.1
				C-0.9,133.7-0.7,47.5,2.3,43.9z"/>
			<path id="Path_641" class="st2" d="M5,20.7c1.6-1.7,31.4-2,32.3,0s0.5,19-0.4,21.3C36.1,44.4,3.3,44,2.8,41.5S3.2,22.7,5,20.7z"
				/>
			<g id="Group_86" transform="translate(16.814 25.472)">
				<path id="Path_642" class="st7" d="M0,7.9c0,0,0.4-8.1,2.4-7.9s2.2,7.2,1.8,7.9S0.4,8.7,0,7.9z"/>
				<line id="Line_327" class="st8" x1="0.4" y1="4.2" x2="4.4" y2="4.5"/>
				<line id="Line_328" class="st8" x1="2.4" y1="0" x2="2.2" y2="8.4"/>
			</g>
			<path id="Path_643" class="st1" d="M14.8,132.6c0.9-1.8,8.5-1.4,9.1-0.6c0.6,0.8,0,9.9,0,10.6c0,0.7-7.1,0.7-7.6,0
				C15.8,141.8,14.2,133.8,14.8,132.6z"/>
			<path id="Path_644" class="st6" d="M18.5,0c1.6,0.3,13.6,4.7,13.1,5.4C31.1,6.2,6.2,7.7,5,7.1S17.9-0.1,18.5,0z"/>
		</g>
		<g id="kikut-2" transform="translate(64.451 39.318)">
			<path class="st1" d="M52.7,153.8c-8.9,0.9-39.9,2-43-0.4c-1.6-1.3-0.9-21.2,0.5-53.6l0.2-5.5c0.1-2.8,0.2-5.6,0.3-8.4
				c1.1-26.4,2.1-51.4,3.7-53.2l0,0c0.1-0.1,0.4-0.4,3.6-0.6c7.9-0.5,28.1,0,29.1,0.9c0.9,0.8,4.8,56.7,4.8,57.3
				c1.9,27.5,3.8,58.3,3.3,62.6c0,0.4-0.1,0.5-0.2,0.6C54.8,153.5,54,153.7,52.7,153.8z M14.8,33c-1.5,1.7-2.5,27.8-3.6,53
				c-0.1,2.8-0.2,5.6-0.3,8.4l-0.2,5.5c-1.1,26.8-2.2,52-0.6,53.2c1.4,1.1,10,1.6,23.1,1.3c10.7-0.2,20.8-0.9,21.7-1.3
				c0.6-1.3-0.6-24.8-3-60c-2.2-32-4.4-58.9-4.9-59.8c-0.4-0.3-6.7-0.8-16.1-0.9C20.3,32.2,15.2,32.6,14.8,33L14.8,33z"/>
			<path class="st1" d="M38,154.5l-0.4,0c0-0.1,0.3-7.4-1.1-9.1c-1-1.2-4.7-1.6-6.9-1c-0.8,0.2-1.3,0.5-1.3,0.9
				c-0.3,1.7,0,9.3,0,9.4l-0.4,0c0-0.3-0.3-7.7,0-9.5c0.1-0.5,0.6-1,1.6-1.2c2.3-0.6,6.2-0.2,7.3,1.1C38.2,146.9,38,154.2,38,154.5z
				"/>
			
				<rect x="12.1" y="24.9" transform="matrix(0.1048 -0.9945 0.9945 0.1048 -7.8916 41.4602)" class="st1" width="14" height="0.4"/>
			
				<rect x="35.8" y="25.1" transform="matrix(0.1048 -0.9945 0.9945 0.1048 13.3117 65.4123)" class="st1" width="14.5" height="0.4"/>
			<path class="st1" d="M44.9,18.1c-2.7,0.3-11.5,0.4-13.4,0.4c-4.2,0-14,0-14.7-0.5c-0.1-0.1-0.2-0.2-0.1-0.4
				c0.3-1.3,12.3-6.2,14-6.5l0,0c0,0,0,0,0,0c1.3-0.1,14.5,5.6,15,6.5c0.1,0.1,0,0.2,0,0.3C45.7,18,45.4,18.1,44.9,18.1z M17.1,17.7
				c0.6,0.2,5.1,0.4,14.2,0.4c6.6,0,12.6-0.2,13.9-0.4c-1.7-1.2-13.4-6.2-14.4-6.1c0,0,0,0,0,0l0,0C28.7,11.9,17.6,16.7,17.1,17.7z"
				/>
			<path class="st1" d="M47.3,33.1l-0.4-0.1c0.5-3.8,0.9-7.9,0.7-8.5c-1.6-0.4-12.4-0.9-16.4-0.9c-7,0.1-14.6,0.5-15.6,0.9
				c-0.2,0.8,0,5.2,0.2,8l-0.4,0c0-0.8-0.4-7.5-0.1-8.3l0-0.1l0.1,0c1.1-0.6,15.7-0.9,15.9-0.9c4-0.1,15.3,0.5,16.6,0.9l0.1,0l0,0.1
				C48.3,24.9,47.4,31.8,47.3,33.1z"/>
			<path class="st1" d="M47.6,28.8c-0.1,0-13.6-0.7-16.4-0.7c-2.8,0-15.7,1-15.8,1l0-0.4c0.1,0,13.1-1,15.9-1
				c2.8,0,16.3,0.7,16.4,0.7L47.6,28.8z"/>
			<path class="st1" d="M25.1,32.1l-0.4,0c0.1-0.6,0.2-8.4,0.2-8.4l0.4,0C25.3,24,25.2,31.5,25.1,32.1z"/>
			
				<rect x="31.1" y="27.7" transform="matrix(4.877991e-03 -1 1 4.877991e-03 7.4692 63.2288)" class="st1" width="8.8" height="0.4"/>
			
				<rect x="15.8" y="8.4" transform="matrix(0.1318 -0.9913 0.9913 0.1318 10.6408 29.4227)" class="st1" width="12.7" height="0.4"/>
			<path class="st1" d="M25,13.5l-0.4,0C23.7,0.1,23.8,0,23.9-0.1l0.3,0.2L24,0l0.2,0.1C24.1,0.5,24.7,8.4,25,13.5z"/>
			<polygon class="st1" points="38.9,32.3 38.5,32.3 38.5,12.8 39.2,3.7 39.6,3.8 38.9,12.9 			"/>
			<g id="Group_87" transform="translate(28.639 36.809)">
				<path class="st1" d="M2.8,8.6c-0.4,0-0.7,0-1,0C1.1,8.6,0.1,8.5-0.2,8l0,0l0-0.1c0-0.3,0.3-6.5,1.9-7.8c0.2-0.2,0.5-0.3,0.7-0.3
					c0.5,0,0.9,0.4,1.2,1.1c1,1.9,1.1,6.4,0.7,7.1C4.1,8.3,3.4,8.5,2.8,8.6z M0.2,7.8C0.4,8,0.9,8.2,1.8,8.2C2.9,8.3,3.9,8,4,7.8
					C4.3,7.3,4.2,3,3.3,1.1C3,0.5,2.7,0.2,2.4,0.2c-0.2,0-0.3,0-0.4,0.2C0.6,1.5,0.2,7.2,0.2,7.8z"/>
				<rect x="2.2" y="2.4" transform="matrix(0.1703 -0.9854 0.9854 0.1703 -2.312 5.948)" class="st1" width="0.4" height="4"/>
				<polygon class="st1" points="2.4,8.4 2,8.4 2.2,0 2.6,0 				"/>
			</g>
			<g id="Group_88" transform="translate(16.772 61.652)">
				<path class="st1" d="M2.5,5.6c-0.4,0-0.8,0-1.2-0.1C0.8,5.4,0.7,4.9,0.8,4.4C1,3.7,1.7,2.7,2.3,2.8c1.2,0,2,0.3,2.4,0.9
					c0.2,0.2,0.2,0.5,0.1,0.8l0,0.1C4.1,5.1,3.3,5.5,2.5,5.6z M2.3,3.2c-0.3,0-0.9,0.7-1.1,1.3c-0.1,0.3,0,0.6,0.2,0.7
					c1.1,0.3,2.3-0.1,3-0.9c0-0.1,0-0.3-0.1-0.4C4.1,3.4,3.3,3.2,2.3,3.2L2.3,3.2C2.3,3.2,2.3,3.2,2.3,3.2z"/>
				<path class="st1" d="M24.6,27.6c-0.4,0-0.8,0-1.2-0.1c-0.4-0.2-0.6-0.6-0.4-1.1c0.2-0.8,0.9-1.7,1.5-1.7c1.2,0,2,0.3,2.4,0.9
					c0.2,0.2,0.2,0.5,0.1,0.8l0,0.1C26.3,27.1,25.5,27.5,24.6,27.6z M24.4,25.1c-0.3,0-0.9,0.7-1.1,1.3c-0.1,0.3,0,0.6,0.2,0.7
					c1.1,0.3,2.3-0.1,3-0.9c0-0.1,0-0.3-0.1-0.4C26.2,25.4,25.5,25.2,24.4,25.1L24.4,25.1C24.4,25.1,24.4,25.1,24.4,25.1z"/>
				<path class="st1" d="M1.5,42.6c-0.1,0-0.3,0-0.4,0c-0.4,0-0.7-0.2-0.9-0.6c-0.3-0.6-0.2-1.6,0.3-2.2l0,0
					c0.2-0.3,0.6-0.4,1.1-0.2c0.6,0.2,1.4,1,1.4,1.5C2.9,41.9,2.3,42.5,1.5,42.6z M1.1,39.8c-0.1,0-0.2,0.1-0.3,0.1l0,0
					c-0.4,0.6-0.5,1.3-0.3,1.8c0.1,0.2,0.3,0.4,0.6,0.4c0.7,0.1,1.4-0.4,1.5-1.1c0-0.3-0.6-0.9-1.2-1.1C1.3,39.9,1.2,39.8,1.1,39.8z
					"/>
				<path class="st1" d="M10.9,27.8c-0.5,0.1-1.1,0-1.5,0c-0.7-0.1-1.2-0.4-1.2-0.7c-0.1-0.7,0.7-1.7,1.3-2.2c0.3-0.2,0.7-0.4,1-0.3
					c0.5,0.2,1.6,1,1.9,1.8c0.1,0.3,0.1,0.6,0,0.8C12.3,27.5,11.7,27.8,10.9,27.8z M10.3,24.9c-0.1,0-0.3,0.1-0.5,0.3
					c-0.7,0.5-1.2,1.4-1.2,1.8c0,0.1,0.3,0.3,0.9,0.4c1.1,0.2,2.5-0.1,2.6-0.4c0.1-0.1,0-0.3,0-0.5C11.8,25.8,10.8,25.1,10.3,24.9
					L10.3,24.9C10.4,24.9,10.4,24.9,10.3,24.9z"/>
				<path class="st1" d="M20.5,3.1c-0.5,0.1-1.1,0-1.5,0c-0.7-0.1-1.2-0.4-1.2-0.7c-0.1-0.7,0.7-1.7,1.3-2.2c0.3-0.2,0.7-0.4,1-0.3
					l0,0c0.5,0.2,1.6,1,1.9,1.8c0.1,0.3,0.1,0.6,0,0.8C21.9,2.8,21.2,3,20.5,3.1z M19.9,0.2c-0.1,0-0.3,0.1-0.5,0.3
					c-0.7,0.5-1.2,1.4-1.2,1.8c0,0.1,0.3,0.3,0.9,0.4c1.1,0.2,2.5-0.1,2.6-0.4c0.1-0.1,0-0.3,0-0.5C21.4,1.1,20.3,0.3,19.9,0.2
					L19.9,0.2C19.9,0.2,19.9,0.2,19.9,0.2z"/>
				<path class="st1" d="M16.7,56.7c-0.6,0.1-1.3-0.1-1.9-0.6c-0.7-0.6-0.7-1.7-0.1-2.3c0.2-0.2,0.4-0.3,0.6-0.4l0.1,0l0.1,0
					c0.9,0.2,2,1.2,2.4,1.9c0.2,0.3,0.2,0.6,0.1,0.8c-0.1,0.3-0.4,0.5-0.9,0.6C16.9,56.6,16.8,56.7,16.7,56.7z M15.4,53.7
					c-0.2,0.1-0.3,0.2-0.4,0.3c-0.5,0.5-0.4,1.3,0.1,1.8c0.6,0.4,1.3,0.6,1.9,0.4c0.3-0.1,0.5-0.2,0.6-0.4c0-0.1,0-0.2-0.1-0.4
					C17.1,54.8,16.1,53.9,15.4,53.7z"/>
				<path class="st1" d="M28.8,52c-0.6,0.1-1.3-0.1-1.9-0.6c-0.3-0.3-0.5-0.7-0.6-1.1c0-0.4,0.1-0.9,0.4-1.2
					c0.2-0.2,0.4-0.3,0.6-0.4l0.1,0l0.1,0c0.9,0.2,2,1.2,2.4,1.9c0.2,0.3,0.2,0.6,0.1,0.8c-0.1,0.3-0.4,0.5-0.9,0.6
					C29,52,28.9,52,28.8,52z M27.5,49.1c-0.2,0.1-0.3,0.2-0.4,0.3c-0.2,0.2-0.3,0.6-0.3,0.9c0,0.3,0.2,0.6,0.4,0.9
					c0.6,0.4,1.3,0.6,1.9,0.4c0.3-0.1,0.5-0.2,0.6-0.4c0-0.1,0-0.2-0.1-0.4C29.2,50.1,28.3,49.3,27.5,49.1z"/>
				<path class="st1" d="M11.7,46.5c-0.6,0.1-1.3-0.1-1.9-0.6c-0.3-0.3-0.5-0.7-0.6-1.1c0-0.4,0.1-0.9,0.4-1.2
					c0.2-0.2,0.4-0.3,0.6-0.4l0.1,0l0.1,0c0.9,0.2,2,1.2,2.4,1.9c0.2,0.3,0.2,0.6,0.1,0.8c-0.1,0.3-0.4,0.5-0.9,0.6
					C11.9,46.5,11.8,46.5,11.7,46.5z M10.4,43.6c-0.2,0.1-0.3,0.2-0.4,0.3c-0.2,0.2-0.3,0.6-0.3,0.9c0,0.3,0.2,0.6,0.4,0.9
					c0.6,0.4,1.2,0.6,1.9,0.4c0.3-0.1,0.5-0.2,0.6-0.4c0-0.1,0-0.2-0.1-0.4C12.1,44.7,11.2,43.8,10.4,43.6z"/>
				<path class="st1" d="M29.8,74.1c-0.1,0-0.3,0-0.4,0c-1-0.2-2.7-1.5-3.2-2.3c-0.4-0.7,0-1.6,0.5-2.1c0.4-0.4,0.8-0.5,1.1-0.3l0,0
					c1.2,0.7,2.5,3,2.6,4.1c0,0.3-0.1,0.5-0.2,0.6C30,74,29.9,74.1,29.8,74.1z M27.4,69.6c-0.1,0-0.3,0.1-0.5,0.3
					c-0.4,0.4-0.7,1.2-0.4,1.7c0.4,0.8,2,1.9,2.9,2.1c0.2,0,0.4,0,0.4,0c0,0,0.1-0.1,0.1-0.3c0-1-1.3-3.1-2.4-3.7l0,0
					C27.5,69.6,27.5,69.6,27.4,69.6z"/>
				<path class="st1" d="M5.4,69.6c-0.1,0-0.2,0-0.3,0c-0.8,0-1.5-0.9-1.7-1.8c-0.2-0.9,0.2-1.6,0.9-1.8l0,0
					c0.3-0.1,0.7-0.1,1.1,0.2c0.6,0.3,1.2,1,1.4,1.6c0.1,0.5,0,1-0.3,1.3C6.4,69.3,6,69.5,5.4,69.6z M4.6,66.3c0,0-0.1,0-0.1,0l0,0
					c-0.7,0.3-0.6,1.1-0.6,1.4c0.1,0.7,0.6,1.5,1.3,1.5c0.5,0,0.9-0.2,1.1-0.4c0.2-0.3,0.3-0.6,0.2-1c-0.1-0.4-0.6-1-1.2-1.3
					C5.1,66.4,4.8,66.3,4.6,66.3z"/>
				<path class="st1" d="M1.8,83.6c-0.1,0-0.2,0-0.3,0c-0.8,0-1.5-0.9-1.7-1.8C-0.3,81,0,80.3,0.7,80l0,0C1,79.9,1.4,80,1.8,80.2
					c0.6,0.3,1.2,1,1.4,1.6c0.1,0.5,0,1-0.3,1.3C2.7,83.3,2.4,83.6,1.8,83.6z M0.8,80.4c-0.7,0.3-0.6,1.1-0.6,1.4
					c0.1,0.7,0.6,1.5,1.3,1.5c0.5,0,0.9-0.2,1.1-0.4c0.2-0.3,0.3-0.6,0.2-1c-0.1-0.4-0.6-1-1.2-1.3C1.4,80.4,1.1,80.3,0.8,80.4
					L0.8,80.4z"/>
				<path class="st1" d="M28.1,14c-0.5,0-0.9,0-1.3-0.1c-0.4-0.1-0.5-0.5-0.4-1.1c0.2-0.8,0.9-1.8,1.7-1.7c0.8,0.1,1.4,0.3,1.6,0.7
					c0.2,0.3,0.2,0.6,0.1,1c-0.1,0.4-0.4,0.7-0.7,0.9C28.8,13.9,28.5,14,28.1,14z M28,11.5c-0.4,0-0.9,0.7-1.1,1.4
					c0,0.2-0.1,0.5,0.1,0.6c0.5,0.2,1.4,0.2,1.9-0.2c0.3-0.2,0.5-0.4,0.5-0.6c0.1-0.3,0.1-0.5,0-0.7C29.3,11.8,28.8,11.7,28,11.5
					L28,11.5C28,11.5,28,11.5,28,11.5z"/>
				<path class="st1" d="M25,41.2c-0.5,0.1-0.9-0.2-1.2-0.8c-0.5-1-0.1-2,0.4-2.6c0.3-0.3,0.8-0.7,1.1-0.5l0,0
					c0.7,0.3,0.8,0.9,0.9,1.4c0,0.2,0.1,0.5,0.2,0.7c0.2,0.5-0.3,1.3-0.9,1.6C25.3,41.1,25.1,41.2,25,41.2z M25.1,37.7
					c-0.1,0-0.4,0.1-0.6,0.4c-0.5,0.5-0.8,1.3-0.4,2.2c0.4,0.7,0.8,0.6,1.2,0.4c0.5-0.3,0.9-0.8,0.7-1.1c-0.1-0.3-0.2-0.5-0.2-0.8
					C25.7,38.3,25.6,37.9,25.1,37.7L25.1,37.7C25.1,37.7,25.1,37.7,25.1,37.7z"/>
				<path class="st1" d="M2.8,21.8c-0.5,0.1-0.9-0.2-1.2-0.8C1,20,1.4,19,2,18.4c0.3-0.3,0.8-0.7,1.1-0.5l0,0
					c0.7,0.3,0.8,0.9,0.9,1.4c0,0.2,0.1,0.5,0.2,0.7c0.2,0.5-0.3,1.3-0.9,1.6C3.1,21.7,3,21.7,2.8,21.8z M2.9,18.2
					c-0.1,0-0.4,0.1-0.6,0.4c-0.5,0.5-0.8,1.3-0.4,2.2c0.4,0.7,0.8,0.6,1.2,0.4C3.6,21,4,20.4,3.8,20.2c-0.1-0.3-0.2-0.5-0.2-0.8
					C3.5,18.8,3.4,18.4,2.9,18.2C3,18.2,2.9,18.2,2.9,18.2z"/>
			</g>
			<rect x="61.5" y="16.2" transform="matrix(0.904 -0.4276 0.4276 0.904 -0.7438 29.4523)" class="st1" width="7.4" height="0.4"/>
			
				<rect x="65.2" y="18.6" transform="matrix(2.201408e-02 -0.9998 0.9998 2.201408e-02 41.9529 86.8968)" class="st1" width="0.4" height="6.7"/>
			
				<rect x="59.6" y="26.7" transform="matrix(0.4181 -0.9084 0.9084 0.4181 8.4735 71.2386)" class="st1" width="0.4" height="4.6"/>
			
				<rect x="6.8" y="12.6" transform="matrix(0.5277 -0.8494 0.8494 0.5277 -10.1572 13.4281)" class="st1" width="0.4" height="6.4"/>
			
				<rect x="3.6" y="18.5" transform="matrix(0.1049 -0.9945 0.9945 0.1049 -18.7794 23.7036)" class="st1" width="0.4" height="7.6"/>
			<rect x="5" y="28.6" transform="matrix(0.9021 -0.4315 0.4315 0.9021 -11.7669 5.7383)" class="st1" width="3.6" height="0.4"/>
		</g>
	</g>
</g>
</svg>
