<svg xmlns="http://www.w3.org/2000/svg" width="302.218" height="344.127" viewBox="0 0 302.218 344.127">
  <g id="sklep_glowna" data-name="sklep glowna" transform="translate(-35.782 -1280.002)">
    <g id="Group_84" data-name="Group 84" transform="matrix(0.978, 0.208, -0.208, 0.978, 76.7, 1383.207)">
      <rect id="Rectangle_12" data-name="Rectangle 12" width="267.138" height="189.523" fill="#fcf7f6"/>
      <line id="Line_322" data-name="Line 322" x2="107.497" transform="translate(140.78 106.926)" fill="none" stroke="#212e3b" stroke-miterlimit="10" stroke-width="0.75"/>
      <line id="Line_323" data-name="Line 323" x2="107.497" transform="translate(140.78 124.968)" fill="none" stroke="#212e3b" stroke-miterlimit="10" stroke-width="0.75"/>
      <line id="Line_324" data-name="Line 324" x2="107.497" transform="translate(139.825 143.011)" fill="none" stroke="#212e3b" stroke-miterlimit="10" stroke-width="0.75"/>
      <line id="Line_325" data-name="Line 325" x2="57.703" transform="translate(189.766 161.053)" fill="none" stroke="#212e3b" stroke-miterlimit="10" stroke-width="0.75"/>
      <line id="Line_326" data-name="Line 326" x2="3.83" transform="translate(155.812 155.732)" fill="none" stroke="#212e3b" stroke-miterlimit="10" stroke-width="0.75"/>
      <path id="Path_619" data-name="Path 619" d="M.2.547c.353-1.061,5.924-.3,6.429,0s1.919,10.805.909,11.512-5.958.707-6.766,0S-.174,1.658.2.547Z" transform="translate(170.153 149.046)" fill="none" stroke="#212e3b" stroke-miterlimit="10" stroke-width="0.75"/>
      <path id="Path_620" data-name="Path 620" d="M2.21,1.873C4.3-1.368,34,.311,36.892,1.614s2.392,45.856.749,48.469C34.167,55.61,8.011,54.172,3.39,51.132S-.625,6.264,2.21,1.873Z" transform="translate(209.575 11.499)" fill="none" stroke="#212e3b" stroke-miterlimit="10" stroke-width="0.75"/>
      <path id="Path_621" data-name="Path 621" d="M.179.967c.392-.9,6.073-1.3,6.56-.648s.972,10.847.607,11.352-6.073,1.01-6.559,0S-.307,2.077.179.967Z" transform="translate(180.074 149.214)" fill="none" stroke="#212e3b" stroke-miterlimit="10" stroke-width="0.75"/>
      <path id="Path_622" data-name="Path 622" d="M.6.675c.687-1.039,4.847-.748,5.453,0s.606,10.746,0,11.15-5.554.807-5.857,0S-.111,1.744.6.675Z" transform="translate(161.13 149.195)" fill="none" stroke="#212e3b" stroke-miterlimit="10" stroke-width="0.75"/>
      <path id="Path_623" data-name="Path 623" d="M7.129.61c0-.835-5.453-.68-6.059-.319S-.545,10.144.363,11.053s5.858,1.01,6.363.606S7.129,1.478,7.129.61Z" transform="translate(147.262 149.398)" fill="none" stroke="#212e3b" stroke-miterlimit="10" stroke-width="0.75"/>
      <path id="Path_624" data-name="Path 624" d="M.53.5C1.009-.348,4.973.041,5.478.5s.5,9.753,0,10.459-4.241.909-4.948.4S-.177,1.758.53.5Z" transform="translate(139.825 149.517)" fill="none" stroke="#212e3b" stroke-miterlimit="10" stroke-width="0.75"/>
      <g id="Group_83" data-name="Group 83" transform="translate(147.578 31.383)">
        <g id="Group_81" data-name="Group 81" transform="translate(0 0)">
          <path id="Path_625" data-name="Path 625" d="M2.553.253a1.9,1.9,0,0,1,.679.679,1.78,1.78,0,0,1,.253.924,1.78,1.78,0,0,1-.253.924,1.872,1.872,0,0,1-.679.675,1.826,1.826,0,0,1-.933.248H.6V5.8H0V0H1.621A1.8,1.8,0,0,1,2.553.253Zm-.3,2.7a1.251,1.251,0,0,0,.462-.462,1.232,1.232,0,0,0,.17-.632,1.21,1.21,0,0,0-.17-.627A1.265,1.265,0,0,0,2.252.771,1.232,1.232,0,0,0,1.621.6H.6V3.119H1.621A1.232,1.232,0,0,0,2.252,2.949Z" transform="translate(0 0.013)" fill="#212e3b"/>
          <path id="Path_626" data-name="Path 626" d="M1.456,3.7,3.33,5.787h-.8L.654,3.7H.6V5.787H0V0H1.482A1.8,1.8,0,0,1,2.41.248a1.849,1.849,0,0,1,.67.676,1.824,1.824,0,0,1,.249.933,1.8,1.8,0,0,1-.249.928,1.856,1.856,0,0,1-.67.671,1.8,1.8,0,0,1-.928.248ZM.6.593V3.111h.88a1.21,1.21,0,0,0,.627-.17,1.27,1.27,0,0,0,.458-.457,1.209,1.209,0,0,0,.17-.627,1.236,1.236,0,0,0-.17-.632A1.268,1.268,0,0,0,2.109.763a1.21,1.21,0,0,0-.627-.17Z" transform="translate(6.08 0.022)" fill="#212e3b"/>
          <path id="Path_627" data-name="Path 627" d="M1.447,5.421A2.957,2.957,0,0,1,.392,4.366,2.8,2.8,0,0,1,0,2.911,2.824,2.824,0,0,1,.392,1.451,2.931,2.931,0,0,1,1.451.392,2.807,2.807,0,0,1,2.9,0,2.832,2.832,0,0,1,4.357.392,2.915,2.915,0,0,1,5.421,1.455a2.84,2.84,0,0,1,.392,1.456,2.816,2.816,0,0,1-.392,1.451A2.941,2.941,0,0,1,4.362,5.421a2.831,2.831,0,0,1-1.46.392A2.806,2.806,0,0,1,1.447,5.421Zm2.614-.51A2.29,2.29,0,0,0,4.9,4.07a2.262,2.262,0,0,0,.31-1.159A2.262,2.262,0,0,0,4.9,1.752a2.29,2.29,0,0,0-.84-.841A2.266,2.266,0,0,0,2.9.6,2.265,2.265,0,0,0,1.743.911,2.292,2.292,0,0,0,.9,1.752,2.267,2.267,0,0,0,.593,2.911,2.267,2.267,0,0,0,.9,4.07a2.292,2.292,0,0,0,.841.841A2.265,2.265,0,0,0,2.9,5.22,2.266,2.266,0,0,0,4.061,4.911Z" transform="translate(11.637 0.039)" fill="#ad6e42"/>
          <path id="Path_628" data-name="Path 628" d="M.705,4.906A.962.962,0,0,0,1,4.2V0h.592V4.2a1.56,1.56,0,0,1-.213.8A1.59,1.59,0,0,1,.8,5.582,1.566,1.566,0,0,1,0,5.8V5.2A.963.963,0,0,0,.705,4.906Z" transform="translate(19.929 0.013)" fill="#212e3b"/>
          <path id="Path_629" data-name="Path 629" d="M.558,3.4V5.787H0V0H.558V2.475L2.675,0H3.46L.949,2.937l2.562,2.85h-.8Z" transform="translate(30.422 0.009)" fill="#212e3b"/>
          <path id="Path_630" data-name="Path 630" d="M3.573.584H2.083V5.8H1.49V.584H0V0H3.573Z" transform="translate(36.394 0)" fill="#212e3b"/>
        </g>
        <g id="Group_82" data-name="Group 82" transform="translate(6.915 8.25)">
          <path id="Path_631" data-name="Path 631" d="M2.493,5.2V5.8H0V0H.6V5.2Z" fill="#212e3b"/>
          <path id="Path_632" data-name="Path 632" d="M3.425,3.651H1.386L.636,5.786H0L2.031,0H2.78L4.811,5.786H4.175Zm-.192-.558L2.405.723l-.828,2.37Z" transform="translate(5.223 0.018)" fill="#212e3b"/>
          <path id="Path_633" data-name="Path 633" d="M3.573.584H2.083V5.8H1.49V.584H0V0H3.573Z" transform="translate(11.517 0)" fill="#212e3b"/>
          <path id="Path_634" data-name="Path 634" d="M1.455,3.7,3.329,5.787h-.8L.653,3.7H.6V5.787H0V0H1.481a1.8,1.8,0,0,1,.928.248,1.85,1.85,0,0,1,.671.676,1.822,1.822,0,0,1,.248.932,1.8,1.8,0,0,1-.248.928,1.858,1.858,0,0,1-.671.671,1.8,1.8,0,0,1-.928.248ZM.6.593V3.111h.88a1.212,1.212,0,0,0,.628-.17,1.279,1.279,0,0,0,.457-.457,1.214,1.214,0,0,0,.17-.628,1.234,1.234,0,0,0-.17-.632A1.262,1.262,0,0,0,2.109.763a1.212,1.212,0,0,0-.628-.17Z" transform="translate(23.492 0.009)" fill="#212e3b"/>
          <path id="Path_635" data-name="Path 635" d="M4.227,0V5.8H3.521L.6,1.116V5.8H0V0H.627L3.634,4.811V0Z" transform="translate(29.348 0)" fill="#212e3b"/>
          <path id="Path_636" data-name="Path 636" d="M3.425,3.652H1.386L.636,5.787H0L2.031,0H2.78L4.811,5.787H4.175Zm-.192-.558L2.406.723,1.578,3.094Z" transform="translate(35.782 0.009)" fill="#212e3b"/>
        </g>
        <path id="Path_637" data-name="Path 637" d="M0,0H3.172V.593H0ZM0,5.2H3.172V5.8H0ZM0,3.181V2.619l.593,0,2.58,0v.558l-2.58,0Z" transform="translate(24.62 0.222)" fill="#9f311b"/>
        <path id="Path_638" data-name="Path 638" d="M0,0H3.172V.593H0ZM0,5.2H3.172V5.8H0ZM0,3.181V2.619l.593,0,2.58,0v.558l-2.58,0Z" transform="translate(24.62 8.25)" fill="#9f311b"/>
      </g>
      <path id="Path_2204" data-name="Path 2204" d="M-38.1,0h-.712l-.824-2.264L-40.428,0h-.72l-1.928-5.328h.776l1.5,4.168.768-2.184-.72-1.984h.776l.7,1.952.808,2.216L-37-5.328h.776Zm7.408,0H-31.4l-.824-2.264L-33.02,0h-.72l-1.928-5.328h.776l1.5,4.168.768-2.184-.72-1.984h.776l.7,1.952.808,2.216L-29.6-5.328h.776Zm7.408,0H-24l-.824-2.264L-25.612,0h-.72L-28.26-5.328h.776l1.5,4.168.768-2.184-.72-1.984h.776l.7,1.952.808,2.216,1.456-4.168h.776ZM-21.5,0a.342.342,0,0,1-.252-.1.342.342,0,0,1-.1-.252.345.345,0,0,1,.1-.248A.335.335,0,0,1-21.5-.7a.339.339,0,0,1,.248.1.339.339,0,0,1,.1.248.335.335,0,0,1-.1.252A.345.345,0,0,1-21.5,0Zm1.856-1.848V0h-.7V-5.32h1.5a1.647,1.647,0,0,1,.648.132,1.723,1.723,0,0,1,.552.372,1.8,1.8,0,0,1,.372.564,1.716,1.716,0,0,1,.132.668,1.716,1.716,0,0,1-.132.668,1.711,1.711,0,0,1-.372.556,1.779,1.779,0,0,1-.552.376,1.605,1.605,0,0,1-.648.136Zm0-2.744V-2.56h.792a.933.933,0,0,0,.7-.3.98.98,0,0,0,.3-.72.971.971,0,0,0-.3-.712.962.962,0,0,0-.7-.3ZM-13.252,0H-14.2l-1.528-1.816V0h-.7V-5.312h1.368a1.658,1.658,0,0,1,.66.132,1.645,1.645,0,0,1,.54.372,1.817,1.817,0,0,1,.36.564,1.762,1.762,0,0,1,.128.668,1.771,1.771,0,0,1-.112.632,1.668,1.668,0,0,1-.32.528,1.745,1.745,0,0,1-.488.38,1.6,1.6,0,0,1-.584.18Zm-2.472-4.592V-2.56h.664a.953.953,0,0,0,.384-.08,1.026,1.026,0,0,0,.32-.216,1.067,1.067,0,0,0,.212-.328,1.017,1.017,0,0,0,.076-.392,1.03,1.03,0,0,0-.288-.72,1.026,1.026,0,0,0-.32-.216.953.953,0,0,0-.384-.08ZM-10.108.04a2.62,2.62,0,0,1-1.028-.2,2.586,2.586,0,0,1-.852-.58,2.678,2.678,0,0,1-.576-.86,2.633,2.633,0,0,1-.208-1.036,2.62,2.62,0,0,1,.2-1.028,2.676,2.676,0,0,1,.58-.86,2.7,2.7,0,0,1,.852-.576,2.576,2.576,0,0,1,1.028-.208A2.6,2.6,0,0,1-9.076-5.1a2.69,2.69,0,0,1,.856.576,2.69,2.69,0,0,1,.576.856A2.6,2.6,0,0,1-7.436-2.64,2.633,2.633,0,0,1-7.644-1.6a2.678,2.678,0,0,1-.576.86,2.69,2.69,0,0,1-.856.576A2.6,2.6,0,0,1-10.108.04Zm0-4.624a1.929,1.929,0,0,0-.748.148,1.924,1.924,0,0,0-.628.42,1.924,1.924,0,0,0-.42.628,1.929,1.929,0,0,0-.148.748,1.963,1.963,0,0,0,.152.764,1.928,1.928,0,0,0,.416.628,1.924,1.924,0,0,0,.628.42,1.929,1.929,0,0,0,.748.148A1.929,1.929,0,0,0-9.36-.828a1.924,1.924,0,0,0,.628-.42,1.928,1.928,0,0,0,.416-.628,1.963,1.963,0,0,0,.152-.764,1.929,1.929,0,0,0-.148-.748,1.924,1.924,0,0,0-.42-.628,1.924,1.924,0,0,0-.628-.42A1.929,1.929,0,0,0-10.108-4.584ZM-7.116-.72a.793.793,0,0,0,.58-.224.753.753,0,0,0,.228-.56V-5.32h.656V-1.5A1.568,1.568,0,0,1-5.76-.92a1.537,1.537,0,0,1-.3.48,1.42,1.42,0,0,1-.472.324A1.473,1.473,0,0,1-7.116,0ZM-4.852,0V-5.32H-1.94v.72H-4.156v1.616h1.488v.656H-4.156V-.72H-1.94V0ZM1.284,0-.436-1.96V0h-.7V-5.312h.7v2.024L1.252-5.312H2.18l-2.248,2.7L2.236,0ZM4.628-4.64V0h-.7V-4.64H2.636v-.68h3.28v.68ZM6.636,0V-5.32h.688v4.6h1.6V0ZM13.3,0l-.656-1.872H10.98L10.324,0h-.76l1.848-5.312h.8L14.06,0ZM11.812-4.28,11.2-2.544h1.208Zm4.32-.36V0h-.7V-4.64H14.14v-.68h3.28v.68ZM18.14,0V-5.32h2.912v.72H18.836v1.616h1.488v.656H18.836V-.72h2.216V0Zm6.888,0h-.944L22.556-1.816V0h-.7V-5.312H23.22a1.658,1.658,0,0,1,.66.132,1.645,1.645,0,0,1,.54.372,1.817,1.817,0,0,1,.36.564,1.762,1.762,0,0,1,.128.668,1.771,1.771,0,0,1-.112.632,1.668,1.668,0,0,1-.32.528,1.745,1.745,0,0,1-.488.38,1.6,1.6,0,0,1-.584.18ZM22.556-4.592V-2.56h.664a.953.953,0,0,0,.384-.08,1.026,1.026,0,0,0,.32-.216,1.067,1.067,0,0,0,.212-.328,1.017,1.017,0,0,0,.076-.392,1.03,1.03,0,0,0-.288-.72,1.026,1.026,0,0,0-.32-.216.953.953,0,0,0-.384-.08ZM28.86,0l-2.4-3.9V0h-.712V-5.32h.7L28.924-1.3V-5.32h.7V0Zm5.224,0-.656-1.872H31.764L31.108,0h-.76L32.2-5.312H33L34.844,0ZM32.6-4.28l-.608,1.736H33.2ZM35.676,0a.342.342,0,0,1-.252-.1.342.342,0,0,1-.1-.252.345.345,0,0,1,.1-.248.335.335,0,0,1,.252-.1.339.339,0,0,1,.248.1.339.339,0,0,1,.1.248.335.335,0,0,1-.1.252A.345.345,0,0,1,35.676,0Zm1.856-1.848V0h-.7V-5.32h1.5a1.647,1.647,0,0,1,.648.132,1.723,1.723,0,0,1,.552.372,1.8,1.8,0,0,1,.372.564,1.716,1.716,0,0,1,.132.668,1.716,1.716,0,0,1-.132.668,1.711,1.711,0,0,1-.372.556,1.779,1.779,0,0,1-.552.376,1.605,1.605,0,0,1-.648.136Zm0-2.744V-2.56h.792a.933.933,0,0,0,.7-.3.98.98,0,0,0,.3-.72.971.971,0,0,0-.3-.712.962.962,0,0,0-.7-.3ZM40.748,0V-5.32h.688v4.6h1.6V0Z" transform="translate(72.179 174.602)" fill="#212e3b"/>
    </g>
    <g id="Group_89" data-name="Group 89" transform="matrix(0.995, 0.105, -0.105, 0.995, 63.663, 1280.002)">
      <g id="Group_85" data-name="Group 85">
        <rect id="Rectangle_13" data-name="Rectangle 13" width="189.234" height="266.73" fill="#fcf7f6"/>
      </g>
      <path id="Path_639" data-name="Path 639" d="M180.494,67.605c-3.511-1.32-7.948-3.148-8.144-3.606-.307-.717,12.787-1.283,12.7-3.717s-14.132-5.6-14.132-6.266,10.483-1.376,10.446-3.432-11.47-5.632-11.47-6.35,9.459-2.45,9.422-4.2-10.445-3.379-10.548-3.441,6.758-.51,6.875-1.667-9.626-12.466-10.651-12.538-6.619,10.014-7.066,11.952,4.7,1.291,4.8,2.253-10.459,1.656-10.445,3.543,8.3,3.482,8.5,4.814-12,2.46-12.391,4.58,11.06,3.51,10.958,4.484-15.683,2.874-15.361,4.658S157.4,62.259,157.5,63.582c.045.589-3.53,1.509-7.507,2.448-13.155-4.4-23.241-6.741-29.464-7.518-7.606-.95-31.4-1.085-43.24.317-5.233.619-18.445,1.433-28.958,5.717-2.813.244-5.273.493-5.273-.29,0-1.229,14.4-5.051,14.4-8.047,0-2.227-17.552-3.9-17.628-7.238-.029-1.27,15.324-2.989,15.017-6.587S40.718,36.225,39.8,34.756s9.664-4.988,9.831-7.92c.077-1.349-13.6-5.742-13.9-7.005s9.217-.586,8.909-2.715S34.574-.053,32.884,0c-1.64.051-13.562,12.545-13.825,14.858-.23,2.027,8.352,3.052,8.3,4.973-.077,2.584-12.975,3.981-13.057,7.68-.036,1.633,9.678,4.32,9.678,7.245s-13.437,4.71-13.825,7.475S22.937,47.883,23.244,50.1s-16.9,2.025-17.819,3.921,12.9,6.706,12.6,8.359c-.191,1.032-6.429,2.867-11.093,4.1C3.487,66,0,62.61,0,62.61v98.266H189.235V68.021S186.223,68.609,180.494,67.605Z" transform="translate(0 105.855)" fill="#e6c2b0"/>
      <text id="KIKUT" transform="translate(90.293 228.232)" fill="#212e3b" font-size="1" font-family="SulphurPoint-Bold, Sulphur Point" font-weight="700" letter-spacing="0.025em"><tspan x="0" y="0">KIKUT</tspan></text>
      <g id="kikut_kolor" data-name="kikut kolor" transform="translate(77.027 50.655)">
        <path id="Path_640" data-name="Path 640" d="M2.336,1.713c2.458-2.921,36.4-1.474,37.978-.289s4.342,94.857,3.157,97.6-37.9,3.421-41.135-2.082S-.656,5.27,2.336,1.713Z" transform="translate(0 42.216)" fill="#efe8e5"/>
        <path id="Path_641" data-name="Path 641" d="M2.4,1.4C4.044-.348,33.788-.579,34.689,1.4s.5,18.987-.36,21.337S.7,24.686.151,22.117.575,3.339,2.4,1.4Z" transform="translate(2.635 19.349)" fill="#ad6e42"/>
        <g id="Group_86" data-name="Group 86" transform="translate(16.814 25.472)">
          <path id="Path_642" data-name="Path 642" d="M0,7.878S.409-.194,2.376,0,4.608,7.189,4.188,7.878.409,8.666,0,7.878Z" transform="translate(0 0)" fill="#d2c3b8"/>
          <line id="Line_327" data-name="Line 327" x2="3.966" y2="0.262" transform="translate(0.392 4.216)" fill="#d2c3b8"/>
          <line id="Line_328" data-name="Line 328" x1="0.197" y2="8.429" transform="translate(2.179 0.003)" fill="#d2c3b8"/>
        </g>
        <path id="Path_643" data-name="Path 643" d="M.131,1.307c.88-1.832,8.5-1.432,9.088-.642s-.008,9.913,0,10.569-7.112.692-7.606,0S-.461,2.541.131,1.307Z" transform="translate(14.675 131.265)" fill="#212e3b"/>
        <path id="Path_644" data-name="Path 644" d="M13.552,0c1.589.277,13.593,4.69,13.093,5.439S1.322,7.718.077,7.13,12.99-.1,13.552,0Z" transform="translate(4.913 0)" fill="#efe8e5"/>
      </g>
      <g id="kikut-2" data-name="kikut" transform="translate(64.451 39.318)">
        <path id="Path_645" data-name="Path 645" d="M5.59.745C6.7-.545,36.96.039,38.015,1S47.5,120.261,45.921,121.15s-41.64,2.667-45.067,0c-1.747-1.36-.471-29.027.77-58.874C2.818,33.59,3.911,2.695,5.59.745Z" transform="translate(9.045 32.094)" fill="none" stroke="#212e3b" stroke-miterlimit="10" stroke-width="0.4"/>
        <path id="Path_646" data-name="Path 646" d="M.132,10.744s-.3-7.632,0-9.41,7.112-1.778,8.594,0,1.186,9.211,1.186,9.211" transform="translate(27.843 143.909)" fill="none" stroke="#212e3b" stroke-miterlimit="10" stroke-width="0.4"/>
        <line id="Line_329" data-name="Line 329" y1="13.961" transform="translate(19.084 18.133)" fill="none" stroke="#212e3b" stroke-miterlimit="10" stroke-width="0.4"/>
        <line id="Line_330" data-name="Line 330" y2="14.466" transform="translate(42.99 18.079)" fill="none" stroke="#212e3b" stroke-miterlimit="10" stroke-width="0.4"/>
        <path id="Path_647" data-name="Path 647" d="M13.884,0C15.046-.177,29.1,5.995,28.7,6.456s-27.659.768-28.647,0S11.908.311,13.884,0Z" transform="translate(16.857 11.393)" fill="none" stroke="#212e3b" stroke-miterlimit="10" stroke-width="0.4"/>
        <path id="Path_648" data-name="Path 648" d="M.233,9.11S-.2,1.694.116.919C.945.459,10.612.118,15.9.008c4.006-.083,15.213.474,16.515.9.43.659-.666,8.743-.666,8.743" transform="translate(15.311 23.436)" fill="none" stroke="#212e3b" stroke-miterlimit="10" stroke-width="0.4"/>
        <path id="Path_649" data-name="Path 649" d="M0,.964S13.02,0,15.842,0,32.224.725,32.224.725" transform="translate(15.37 27.856)" fill="none" stroke="#212e3b" stroke-miterlimit="10" stroke-width="0.4"/>
        <path id="Path_650" data-name="Path 650" d="M.184,0S.065,7.834,0,8.463" transform="translate(24.945 23.637)" fill="none" stroke="#212e3b" stroke-miterlimit="10" stroke-width="0.4"/>
        <line id="Line_331" data-name="Line 331" x2="0.881" y2="8.735" transform="translate(35.063 23.494)" fill="none" stroke="#212e3b" stroke-miterlimit="10" stroke-width="0.4"/>
        <line id="Line_332" data-name="Line 332" x1="0.352" y2="12.663" transform="translate(21.942 2.305)" fill="none" stroke="#212e3b" stroke-miterlimit="10" stroke-width="0.4"/>
        <path id="Path_651" data-name="Path 651" d="M.013,0C-.119.2.806,13.545.806,13.545" transform="translate(24.011 0)" fill="none" stroke="#212e3b" stroke-miterlimit="10" stroke-width="0.4"/>
        <path id="Path_652" data-name="Path 652" d="M.727,0,0,9.086V28.57" transform="translate(38.709 3.754)" fill="none" stroke="#212e3b" stroke-miterlimit="10" stroke-width="0.4"/>
        <g id="Group_87" data-name="Group 87" transform="translate(28.639 36.809)">
          <path id="Path_653" data-name="Path 653" d="M0,7.878S.41-.194,2.376,0,4.608,7.189,4.188,7.878.41,8.666,0,7.878Z" transform="translate(0 0)" fill="none" stroke="#212e3b" stroke-miterlimit="10" stroke-width="0.4"/>
          <line id="Line_333" data-name="Line 333" x2="3.966" y2="0.262" transform="translate(0.393 4.216)" fill="none" stroke="#212e3b" stroke-miterlimit="10" stroke-width="0.4"/>
          <line id="Line_334" data-name="Line 334" x1="0.197" y2="8.429" transform="translate(2.179 0.003)" fill="none" stroke="#212e3b" stroke-miterlimit="10" stroke-width="0.4"/>
        </g>
        <g id="Group_88" data-name="Group 88" transform="translate(16.772 61.652)">
          <path id="Path_654" data-name="Path 654" d="M1.349,0c1.76.043,2.534.741,2.285,1.389a3.381,3.381,0,0,1-3.3,1.018C-.595,1.944.643-.017,1.349,0Z" transform="translate(0.959 2.958)" fill="none" stroke="#212e3b" stroke-miterlimit="10" stroke-width="0.4"/>
          <path id="Path_655" data-name="Path 655" d="M1.349,0c1.76.043,2.534.741,2.285,1.389a3.381,3.381,0,0,1-3.3,1.018C-.595,1.944.643-.017,1.349,0Z" transform="translate(23.11 24.925)" fill="none" stroke="#212e3b" stroke-miterlimit="10" stroke-width="0.4"/>
          <path id="Path_656" data-name="Path 656" d="M.451.221c.589-.737,2.129.556,2.129,1.2A1.5,1.5,0,0,1,.913,2.72C-.105,2.72-.29,1.146.451.221Z" transform="translate(0.219 39.641)" fill="none" stroke="#212e3b" stroke-miterlimit="10" stroke-width="0.4"/>
          <path id="Path_657" data-name="Path 657" d="M2.046.019C2.575.212,4.268,1.5,3.9,2.333S.091,3.166,0,2.333,1.452-.2,2.046.019Z" transform="translate(8.431 24.716)" fill="none" stroke="#212e3b" stroke-miterlimit="10" stroke-width="0.4"/>
          <path id="Path_658" data-name="Path 658" d="M2.046.019C2.574.213,4.267,1.5,3.9,2.333S.09,3.166,0,2.333,1.452-.2,2.046.019Z" transform="translate(17.985 0)" fill="none" stroke="#212e3b" stroke-miterlimit="10" stroke-width="0.4"/>
          <path id="Path_659" data-name="Path 659" d="M.94,0C2.123.227,3.53,1.855,3.253,2.411s-1.624.833-2.755,0A1.442,1.442,0,0,1,.94,0Z" transform="translate(14.395 53.54)" fill="none" stroke="#212e3b" stroke-miterlimit="10" stroke-width="0.4"/>
          <path id="Path_660" data-name="Path 660" d="M.94,0C2.123.227,3.53,1.855,3.253,2.411s-1.624.833-2.755,0A1.442,1.442,0,0,1,.94,0Z" transform="translate(26.539 48.881)" fill="none" stroke="#212e3b" stroke-miterlimit="10" stroke-width="0.4"/>
          <path id="Path_661" data-name="Path 661" d="M.94,0C2.123.227,3.53,1.855,3.253,2.41S1.629,3.244.5,2.41A1.441,1.441,0,0,1,.94,0Z" transform="translate(9.427 43.421)" fill="none" stroke="#212e3b" stroke-miterlimit="10" stroke-width="0.4"/>
          <path id="Path_662" data-name="Path 662" d="M1.438.054C2.782.829,4.447,3.942,3.775,4.4S.7,3.2.141,2.229.8-.312,1.438.054Z" transform="translate(26.218 69.413)" fill="none" stroke="#212e3b" stroke-miterlimit="10" stroke-width="0.4"/>
          <path id="Path_663" data-name="Path 663" d="M.758.047c.793-.291,2.03.846,2.215,1.587S2.788,3.3,1.492,3.3-.717.589.758.047Z" transform="translate(3.661 66.113)" fill="none" stroke="#212e3b" stroke-miterlimit="10" stroke-width="0.4"/>
          <path id="Path_664" data-name="Path 664" d="M.758.047c.793-.291,2.031.846,2.216,1.587S2.788,3.3,1.492,3.3-.717.59.758.047Z" transform="translate(0 80.163)" fill="none" stroke="#212e3b" stroke-miterlimit="10" stroke-width="0.4"/>
          <path id="Path_665" data-name="Path 665" d="M1.476.008c1.1.2,1.851.463,1.574,1.481S1.15,2.692.3,2.414.633-.149,1.476.008Z" transform="translate(26.629 11.337)" fill="none" stroke="#212e3b" stroke-miterlimit="10" stroke-width="0.4"/>
          <path id="Path_666" data-name="Path 666" d="M1.526.022c.846.375.645,1.3.97,2.036s-1.421,2.4-2.26.83S1.024-.2,1.526.022Z" transform="translate(23.681 37.46)" fill="none" stroke="#212e3b" stroke-miterlimit="10" stroke-width="0.4"/>
          <path id="Path_667" data-name="Path 667" d="M1.526.022c.846.375.645,1.3.97,2.036s-1.421,2.4-2.26.829S1.024-.2,1.526.022Z" transform="translate(1.53 18.015)" fill="none" stroke="#212e3b" stroke-miterlimit="10" stroke-width="0.4"/>
        </g>
        <line id="Line_335" data-name="Line 335" y1="3.868" x2="6.343" transform="translate(62.034 14.448)" fill="none" stroke="#212e3b" stroke-miterlimit="10" stroke-width="0.4"/>
        <line id="Line_336" data-name="Line 336" y1="0.56" x2="6.716" transform="translate(62.034 21.725)" fill="none" stroke="#212e3b" stroke-miterlimit="10" stroke-width="0.4"/>
        <line id="Line_337" data-name="Line 337" x2="4.384" y2="1.483" transform="translate(57.649 28.264)" fill="none" stroke="#212e3b" stroke-miterlimit="10" stroke-width="0.4"/>
        <line id="Line_338" data-name="Line 338" x1="5.784" y1="2.799" transform="translate(4.104 14.448)" fill="none" stroke="#212e3b" stroke-miterlimit="10" stroke-width="0.4"/>
        <line id="Line_339" data-name="Line 339" x1="7.556" transform="translate(0 22.284)" fill="none" stroke="#212e3b" stroke-miterlimit="10" stroke-width="0.4"/>
        <line id="Line_340" data-name="Line 340" x1="3.078" y2="1.891" transform="translate(5.224 27.856)" fill="none" stroke="#212e3b" stroke-miterlimit="10" stroke-width="0.4"/>
      </g>
    </g>
  </g>
</svg>
