<?xml version="1.0" encoding="utf-8"?>
<!-- Generator: Adobe Illustrator 24.0.3, SVG Export Plug-In . SVG Version: 6.00 Build 0)  -->
<svg version="1.1" id="Layer_1" xmlns="http://www.w3.org/2000/svg" xmlns:xlink="http://www.w3.org/1999/xlink" x="0px" y="0px"
	 viewBox="0 0 123 43.9" style="enable-background:new 0 0 123 43.9;" xml:space="preserve">
<style type="text/css">
	.st0{fill:#E5A34C;}
	.st1{enable-background:new    ;}
	.st2{fill:#F2EDEB;}
</style>
<g id="Group_424" transform="translate(-215.64 -1333.762)">
	<path id="Path_668" class="st0" d="M222.2,1338.1c5.5-5.7,107.9-5.8,112.8,0s3.8,29.5-2.2,34.8s-99.1,6.7-110.5,1.6
		C210.7,1369.3,216.7,1343.8,222.2,1338.1z"/>
	<g class="st1">
		<path class="st2" d="M242.9,1349.1v3.2h-1.2v-9.3h2.6c0.4,0,0.8,0.1,1.1,0.2c0.4,0.2,0.7,0.4,1,0.7c0.3,0.3,0.5,0.6,0.7,1
			c0.2,0.4,0.2,0.8,0.2,1.2c0,0.4-0.1,0.8-0.2,1.2c-0.2,0.4-0.4,0.7-0.7,1c-0.3,0.3-0.6,0.5-1,0.7c-0.4,0.2-0.7,0.2-1.1,0.2H242.9z
			 M242.9,1344.3v3.6h1.4c0.5,0,0.9-0.2,1.2-0.5c0.3-0.3,0.5-0.8,0.5-1.3c0-0.5-0.2-0.9-0.5-1.2c-0.3-0.3-0.8-0.5-1.2-0.5H242.9z"/>
		<path class="st2" d="M254,1352.4h-1.7l-2.7-3.2v3.2h-1.2v-9.3h2.4c0.4,0,0.8,0.1,1.2,0.2c0.4,0.2,0.7,0.4,0.9,0.7
			c0.3,0.3,0.5,0.6,0.6,1c0.1,0.4,0.2,0.8,0.2,1.2c0,0.4-0.1,0.8-0.2,1.1c-0.1,0.3-0.3,0.7-0.6,0.9c-0.2,0.3-0.5,0.5-0.9,0.7
			c-0.3,0.2-0.7,0.3-1,0.3L254,1352.4z M249.7,1344.3v3.6h1.2c0.2,0,0.5,0,0.7-0.1c0.2-0.1,0.4-0.2,0.6-0.4c0.2-0.2,0.3-0.4,0.4-0.6
			c0.1-0.2,0.1-0.4,0.1-0.7c0-0.5-0.2-0.9-0.5-1.3c-0.2-0.2-0.3-0.3-0.6-0.4c-0.2-0.1-0.4-0.1-0.7-0.1H249.7z"/>
		<path class="st2" d="M254.7,1351.3l4.7-6.9h-4.7v-1.3h6.3v1.1l-4.7,6.9h4.7v1.3h-6.3V1351.3z"/>
		<path class="st2" d="M262.3,1352.4v-9.3h5.1v1.3h-3.9v2.8h2.6v1.1h-2.6v2.8h3.9v1.3H262.3z"/>
		<path class="st2" d="M268.7,1351.1c0.4,0,0.7-0.1,1-0.4c0.3-0.3,0.4-0.6,0.4-1v-6.7h1.1v6.7c0,0.4-0.1,0.7-0.2,1
			c-0.1,0.3-0.3,0.6-0.5,0.8c-0.2,0.2-0.5,0.4-0.8,0.6c-0.3,0.1-0.7,0.2-1,0.2V1351.1z"/>
		<path class="st2" d="M272.7,1352.4v-9.3h2.4c0.6,0,1.2,0.1,1.8,0.4c0.6,0.2,1.1,0.6,1.5,1c0.4,0.4,0.7,0.9,1,1.5s0.4,1.2,0.4,1.8
			s-0.1,1.2-0.4,1.8c-0.2,0.6-0.6,1.1-1,1.5c-0.4,0.4-0.9,0.8-1.5,1c-0.6,0.2-1.2,0.4-1.8,0.4H272.7z M273.9,1344.3v6.8h1.1
			c0.4,0,0.9-0.1,1.3-0.3c0.4-0.2,0.8-0.4,1.1-0.7c0.3-0.3,0.5-0.7,0.7-1.1c0.2-0.4,0.3-0.9,0.3-1.3s-0.1-0.9-0.3-1.3
			s-0.4-0.8-0.7-1.1c-0.3-0.3-0.7-0.5-1.1-0.7c-0.4-0.2-0.8-0.3-1.3-0.3H273.9z"/>
		<path class="st2" d="M280.8,1351.3l4.7-6.9h-4.7v-1.3h6.3v1.1l-4.7,6.9h4.7v1.3h-6.3V1351.3z M284.3,1342.4h-0.9l0.5-1.9h1.1
			L284.3,1342.4z"/>
		<path class="st2" d="M294.7,1352.4v-9.3h2.4c0.6,0,1.2,0.1,1.8,0.4c0.6,0.2,1.1,0.6,1.5,1c0.4,0.4,0.7,0.9,1,1.5s0.4,1.2,0.4,1.8
			s-0.1,1.2-0.4,1.8c-0.2,0.6-0.6,1.1-1,1.5c-0.4,0.4-0.9,0.8-1.5,1c-0.6,0.2-1.2,0.4-1.8,0.4H294.7z M295.9,1344.3v6.8h1.1
			c0.4,0,0.9-0.1,1.3-0.3c0.4-0.2,0.8-0.4,1.1-0.7c0.3-0.3,0.5-0.7,0.7-1.1c0.2-0.4,0.3-0.9,0.3-1.3s-0.1-0.9-0.3-1.3
			c-0.2-0.4-0.4-0.8-0.7-1.1c-0.3-0.3-0.7-0.5-1.1-0.7s-0.8-0.3-1.3-0.3H295.9z"/>
		<path class="st2" d="M305.7,1352.1c-0.6-0.2-1.1-0.6-1.5-1c-0.4-0.4-0.8-0.9-1-1.5c-0.2-0.6-0.4-1.2-0.4-1.8s0.1-1.2,0.4-1.8
			s0.6-1.1,1-1.5c0.4-0.4,0.9-0.8,1.5-1c0.6-0.2,1.2-0.4,1.8-0.4s1.2,0.1,1.8,0.4c0.6,0.2,1.1,0.6,1.5,1c0.4,0.4,0.8,0.9,1,1.5
			c0.2,0.6,0.4,1.2,0.4,1.8s-0.1,1.2-0.4,1.8c-0.2,0.6-0.6,1.1-1,1.5c-0.4,0.4-0.9,0.8-1.5,1c-0.6,0.2-1.2,0.4-1.8,0.4
			S306.2,1352.3,305.7,1352.1z M306.2,1344.6c-0.4,0.2-0.8,0.4-1.1,0.7c-0.3,0.3-0.6,0.7-0.7,1.1c-0.2,0.4-0.3,0.9-0.3,1.3
			c0,0.5,0.1,0.9,0.3,1.3s0.4,0.8,0.7,1.1c0.3,0.3,0.7,0.6,1.1,0.7c0.4,0.2,0.9,0.3,1.3,0.3s0.9-0.1,1.3-0.3
			c0.4-0.2,0.8-0.4,1.1-0.7c0.3-0.3,0.6-0.7,0.7-1.1c0.2-0.4,0.3-0.9,0.3-1.3c0-0.5-0.1-0.9-0.3-1.3s-0.4-0.8-0.7-1.1
			c-0.3-0.3-0.7-0.6-1.1-0.7c-0.4-0.2-0.9-0.3-1.3-0.3S306.6,1344.4,306.2,1344.6z"/>
	</g>
	<g class="st1">
		<path class="st2" d="M261.6,1362c-0.2-0.3-0.4-0.4-0.6-0.6c-0.2-0.1-0.6-0.2-0.9-0.2c-0.6,0-1.1,0.1-1.3,0.4
			c-0.2,0.2-0.4,0.6-0.4,1.1c0,0.3,0,0.5,0.1,0.6c0.1,0.2,0.2,0.3,0.3,0.4c0.2,0.2,0.6,0.3,1.1,0.3c0.5,0,1,0.1,1.3,0.2
			c0.4,0.1,0.7,0.2,0.9,0.4c0.7,0.4,1,1.1,1,2c0,0.4-0.1,0.7-0.2,1c-0.1,0.3-0.3,0.6-0.6,0.9c-0.3,0.3-0.7,0.5-1.1,0.6
			c-0.4,0.1-0.8,0.2-1.3,0.2c-1,0-1.8-0.3-2.4-0.8c-0.5-0.5-0.8-1.2-0.9-2l0,0h1.2c0.1,0.5,0.2,0.9,0.5,1.1c0.4,0.3,0.9,0.5,1.5,0.5
			c0.6,0,1.1-0.1,1.4-0.4c0.3-0.3,0.5-0.6,0.5-1c0-0.2,0-0.4-0.1-0.5s-0.1-0.3-0.3-0.4c-0.3-0.2-0.9-0.4-1.8-0.5
			c-0.9-0.1-1.6-0.3-2-0.8c-0.5-0.4-0.7-1.1-0.7-1.8c0-0.8,0.2-1.5,0.7-1.9c0.5-0.5,1.3-0.8,2.2-0.8c1,0,1.7,0.3,2.3,0.9
			c0.5,0.5,0.8,1.2,0.9,2h-1.3C261.8,1362.6,261.7,1362.3,261.6,1362z"/>
		<path class="st2" d="M268.7,1369.4l-3-3.4v3.4h-1.2v-9.3h1.2v3.5l3-3.5h1.6l-3.9,4.7l4,4.6H268.7z"/>
		<path class="st2" d="M271.6,1369.4v-9.3h1.2v8h2.8v1.3H271.6z"/>
		<path class="st2" d="M276.9,1369.4v-9.3h5.1v1.3h-3.9v2.8h2.6v1.1h-2.6v2.8h3.9v1.3H276.9z"/>
		<path class="st2" d="M284.6,1366.1v3.2h-1.2v-9.3h2.6c0.4,0,0.8,0.1,1.1,0.2c0.4,0.2,0.7,0.4,1,0.7c0.3,0.3,0.5,0.6,0.7,1
			c0.2,0.4,0.2,0.8,0.2,1.2s-0.1,0.8-0.2,1.2c-0.2,0.4-0.4,0.7-0.7,1c-0.3,0.3-0.6,0.5-1,0.7c-0.4,0.2-0.7,0.2-1.1,0.2H284.6z
			 M284.6,1361.3v3.6h1.4c0.5,0,0.9-0.2,1.2-0.5c0.3-0.3,0.5-0.8,0.5-1.3c0-0.5-0.2-0.9-0.5-1.2c-0.3-0.3-0.8-0.5-1.2-0.5H284.6z"/>
		<path class="st2" d="M292.2,1369.2c-0.4-0.2-0.7-0.4-1-0.7c-0.3-0.3-0.5-0.7-0.7-1.1c-0.2-0.4-0.3-0.8-0.3-1.3v-6.1h1.2v6.1
			c0,0.3,0.1,0.5,0.2,0.8s0.3,0.5,0.4,0.7c0.2,0.2,0.4,0.3,0.7,0.5s0.5,0.2,0.8,0.2s0.5-0.1,0.8-0.2s0.5-0.3,0.7-0.5
			c0.2-0.2,0.3-0.4,0.4-0.7s0.2-0.5,0.2-0.8v-6.1h1.2v6.1c0,0.4-0.1,0.9-0.3,1.3c-0.2,0.4-0.4,0.8-0.7,1.1c-0.3,0.3-0.6,0.5-1,0.7
			c-0.4,0.2-0.8,0.3-1.3,0.3S292.6,1369.4,292.2,1369.2z"/>
	</g>
</g>
</svg>
