<svg xmlns="http://www.w3.org/2000/svg" width="373.099" height="505.818" viewBox="0 0 373.099 505.818">
  <g id="paszport_gdańsk" data-name="paszport gdańsk" transform="matrix(0.998, 0.07, -0.07, 0.998, 33.711, 0)">
    <rect id="Rectangle_502" data-name="Rectangle 502" width="340.217" height="483.263" fill="#fff"/>
    <line id="Line_1033" data-name="Line 1033" x2="192.986" transform="translate(77.817 410.343)" fill="none" stroke="#2e3c4b" stroke-miterlimit="10" stroke-width="0.5"/>
    <path id="Path_2845" data-name="Path 2845" d="M201.977,286.27a95.681,95.681,0,0,0,35.136-35.136,97.17,97.17,0,0,0,0-96.857,95.742,95.742,0,0,0-35.136-35.136,97.172,97.172,0,0,0-96.858,0,95.677,95.677,0,0,0-35.135,35.136,97.17,97.17,0,0,0,0,96.857,95.616,95.616,0,0,0,35.135,35.136,97.172,97.172,0,0,0,96.858,0Z" transform="translate(20.761 38.648)" fill="#e9ccbd"/>
    <g id="gdansk_nowy_kolor" data-name="gdansk nowy kolor" transform="translate(157.595 165.935)">
      <path id="Path_2846" data-name="Path 2846" d="M121.521,139.341c1.959-2.177,19.107-1.811,19.926.037s3.116,92.894,1.783,95.565-23.358,2.114-24.277.472S120.043,140.983,121.521,139.341Z" transform="translate(-114.396 -115.776)" fill="#ba8356"/>
      <path id="Path_2847" data-name="Path 2847" d="M128.492,121.664c5.161,0,8.359,7.23,7.473,8.373s-14.306,1.534-14.141.154C121.894,129.613,122.365,121.665,128.492,121.664Z" transform="translate(-113.267 -121.664)" fill="#ba8356"/>
      <path id="Path_2848" data-name="Path 2848" d="M145.075,225.3c-.372-1.649.483-10.8-.138-13.028s-24.73-.848-25.728.974c-.689,1.26-.241,10.964,0,12.5.138.877-4.276,7.591-3.587,8.286s32.834.772,33.317-.848S145.352,226.521,145.075,225.3Z" transform="translate(-115.549 -89.112)" fill="#f2edea"/>
      <path id="Path_2849" data-name="Path 2849" d="M128.9,129.413c.17-.754,3.543-.442,3.938,0s.967,6.828.636,7.238-4.422.938-4.573.275A47.737,47.737,0,0,1,128.9,129.413Z" transform="translate(-110.745 -119.01)" fill="#f2edea"/>
      <path id="Path_2850" data-name="Path 2850" d="M125.388,137.113c-.17.754-3.543.442-3.937,0s-.967-6.828-.636-7.238,4.422-.94,4.573-.277A47.587,47.587,0,0,1,125.388,137.113Z" transform="translate(-113.669 -118.891)" fill="#f2edea"/>
      <path id="Path_2851" data-name="Path 2851" d="M121.03,135.846c.232-.119,15.357-1.177,15.743-.708s.791,4.735.179,4.615c-.682-.135-14.726-.383-15.922-.049C120.324,139.9,121.03,135.846,121.03,135.846Z" transform="translate(-113.669 -116.805)" fill="#fff"/>
      <path id="Path_2852" data-name="Path 2852" d="M126.821,198.516c.4-.8,2.145-.415,2.542-.237s.261,9.551.261,9.994-2.13.443-2.606.176S126.821,198.516,126.821,198.516Z" transform="translate(-111.478 -93.877)" fill="#d9cec4"/>
      <path id="Path_2853" data-name="Path 2853" d="M128.238,178c-.664.355-1.9.356-2.122-.089s-.142-7.606.215-8.189c.225-.368,1.5-.445,1.727,0C128.514,170.6,128.65,177.784,128.238,178Z" transform="translate(-111.749 -104.287)" fill="#d9cec4"/>
      <path id="Path_2854" data-name="Path 2854" d="M128.561,160.377c-.123.075-1.047.445-1.294.089s.109-6.425.109-6.6.856-.443,1.046,0S128.82,160.22,128.561,160.377Z" transform="translate(-111.318 -110.036)" fill="#d9cec4"/>
      <path id="Path_2855" data-name="Path 2855" d="M130.676,225.316s-.316-8.983-3.176-8.983-2.2,8.983-2.2,8.983C125.617,225.736,130.078,225.86,130.676,225.316Z" transform="translate(-112.027 -87.216)" fill="#2e3c4b"/>
      <path id="Path_2856" data-name="Path 2856" d="M117.478,148.445c.436-.623,26.211-.116,26.591.58s-1.207,2.507-1.794,2.893-22.574,0-23-.462S116.894,149.281,117.478,148.445Z" transform="translate(-114.887 -112.022)" fill="#2e3c4b"/>
    </g>
    <path id="Path_2860" data-name="Path 2860" d="M-25.336-1.344a7.348,7.348,0,0,1-.966.609,6.808,6.808,0,0,1-3.255.819,6.728,6.728,0,0,1-2.058-.315,6.59,6.59,0,0,1-2.373-1.26,7.026,7.026,0,0,1-1.743-2.142,6.549,6.549,0,0,1-.8-3.213,6.35,6.35,0,0,1,.042-.84,7.139,7.139,0,0,1,.6-2.194,6.649,6.649,0,0,1,1.229-1.838,7.233,7.233,0,0,1,1.733-1.344,6.858,6.858,0,0,1,2.089-.756,6.624,6.624,0,0,1,1.3-.126,6.692,6.692,0,0,1,3.318.882A8.518,8.518,0,0,1-24.1-11.277l-1.449,1.218a6.3,6.3,0,0,0-2.163-1.617,5.37,5.37,0,0,0-1.911-.357,4.965,4.965,0,0,0-2.352.588,4.96,4.96,0,0,0-2.142,2.268A4.8,4.8,0,0,0-34.66-6.93a4.944,4.944,0,0,0,.189,1.344,4.739,4.739,0,0,0,1.806,2.709,4.984,4.984,0,0,0,1.449.777,5.027,5.027,0,0,0,1.638.273,4.918,4.918,0,0,0,2.09-.451,5.461,5.461,0,0,0,1.732-1.271V-4.956h-1.932v-1.89h3.8v3.99A6.511,6.511,0,0,1-25.336-1.344ZM-21.788,0V-13.986h3.612a6.748,6.748,0,0,1,2.667.535,6.98,6.98,0,0,1,2.226,1.5A7.381,7.381,0,0,1-11.8-9.691a6.876,6.876,0,0,1,.536,2.7,6.876,6.876,0,0,1-.536,2.7,7.123,7.123,0,0,1-1.48,2.237A6.819,6.819,0,0,1-15.508-.535,6.748,6.748,0,0,1-18.175,0Zm1.89-12.1V-1.89h1.722a4.9,4.9,0,0,0,1.942-.4,5.119,5.119,0,0,0,1.627-1.092A5.222,5.222,0,0,0-13.524-5.03a5.065,5.065,0,0,0,.389-1.964,5.065,5.065,0,0,0-.389-1.964A5.222,5.222,0,0,0-14.606-10.6,5.119,5.119,0,0,0-16.233-11.7a4.9,4.9,0,0,0-1.942-.4ZM.221,0-1.5-4.914H-5.869L-7.591,0H-9.586l4.851-13.944h2.1L2.216,0ZM-3.685-11.235l-1.6,4.557H-2.11ZM12.274,0l-6.3-10.248V0H4.106V-13.965H5.932l6.51,10.542V-13.965h1.848V0ZM9.755-14.994H8.347l.777-2.9h1.638ZM23.846-9.66A3.237,3.237,0,0,0,23.4-11a2.3,2.3,0,0,0-.934-.83,3.328,3.328,0,0,0-1.418-.262,2.656,2.656,0,0,0-2,.609,2.132,2.132,0,0,0-.546,1.575,2.315,2.315,0,0,0,.168.955,1.441,1.441,0,0,0,.5.6,3.514,3.514,0,0,0,1.659.462,11.594,11.594,0,0,1,1.985.325,5.335,5.335,0,0,1,1.417.6,3.316,3.316,0,0,1,1.533,3.024,3.7,3.7,0,0,1-.315,1.512,4.193,4.193,0,0,1-.882,1.281,4.228,4.228,0,0,1-1.586.966,5.789,5.789,0,0,1-1.9.315,4.933,4.933,0,0,1-3.549-1.26,4.985,4.985,0,0,1-1.365-3.024l.042-.021H18.07a2.747,2.747,0,0,0,.756,1.659,3.123,3.123,0,0,0,2.2.756,3.316,3.316,0,0,0,2.1-.609,1.911,1.911,0,0,0,.777-1.575,2.294,2.294,0,0,0-.116-.766,1.3,1.3,0,0,0-.431-.578A5.319,5.319,0,0,0,20.7-5.985,4.82,4.82,0,0,1,17.671-7.14a3.66,3.66,0,0,1-1.029-2.772,3.947,3.947,0,0,1,1.113-2.919,4.428,4.428,0,0,1,3.276-1.176,4.393,4.393,0,0,1,3.4,1.323,5.263,5.263,0,0,1,1.3,3.024ZM34.03,0,29.516-5.145V0H27.667V-13.944h1.848v5.313l4.431-5.313h2.436l-5.9,7.077L36.529,0ZM-47.544,25l-6.3-10.248V25h-1.869V11.035h1.827l6.51,10.542V11.035h1.848V25Zm10.9.1a6.876,6.876,0,0,1-2.7-.535,6.789,6.789,0,0,1-2.236-1.522,7.029,7.029,0,0,1-1.512-2.257,6.913,6.913,0,0,1-.546-2.72,6.876,6.876,0,0,1,.535-2.7,7.024,7.024,0,0,1,1.522-2.257A7.093,7.093,0,0,1-39.344,11.6a6.762,6.762,0,0,1,2.7-.546,6.837,6.837,0,0,1,2.709.546,7.06,7.06,0,0,1,2.247,1.512,7.06,7.06,0,0,1,1.512,2.247,6.837,6.837,0,0,1,.546,2.709,6.913,6.913,0,0,1-.546,2.72,7.029,7.029,0,0,1-1.512,2.257,7.06,7.06,0,0,1-2.247,1.512A6.837,6.837,0,0,1-36.645,25.1Zm0-12.138a5.065,5.065,0,0,0-1.964.389,5.051,5.051,0,0,0-1.648,1.1,5.051,5.051,0,0,0-1.1,1.648,5.065,5.065,0,0,0-.389,1.964,5.153,5.153,0,0,0,.4,2.006,5.06,5.06,0,0,0,1.092,1.648,5.051,5.051,0,0,0,1.648,1.1,5.065,5.065,0,0,0,1.964.389,5.065,5.065,0,0,0,1.964-.389,5.051,5.051,0,0,0,1.648-1.1,5.06,5.06,0,0,0,1.092-1.648,5.153,5.153,0,0,0,.4-2.006,5.065,5.065,0,0,0-.389-1.964,5.051,5.051,0,0,0-1.1-1.648,5.051,5.051,0,0,0-1.648-1.1A5.065,5.065,0,0,0-36.645,12.967ZM-16.254,25h-1.869l-2.163-5.943L-22.365,25h-1.89l-5.061-13.986h2.037l3.948,10.941,2.016-5.733-1.89-5.208h2.037l1.848,5.124,2.121,5.817,3.822-10.941h2.037Zm12.1-5.145V25H-6.027V19.9l-4.263-8.862h2.079L-5.1,17.5-2,11.035H.084Zm17.325.294V25H11.319V11.035h3.927a4.323,4.323,0,0,1,1.7.346,4.523,4.523,0,0,1,1.449.977,4.737,4.737,0,0,1,.977,1.481,4.551,4.551,0,0,1-.977,4.967,4.67,4.67,0,0,1-1.449.987,4.214,4.214,0,0,1-1.7.357Zm0-7.2V18.28h2.079a2.448,2.448,0,0,0,1.848-.8,2.662,2.662,0,0,0,0-3.759,2.524,2.524,0,0,0-1.848-.777ZM28.392,25.1a6.876,6.876,0,0,1-2.7-.535,6.789,6.789,0,0,1-2.236-1.522,7.029,7.029,0,0,1-1.512-2.257,7.056,7.056,0,0,1-.01-5.418,7.123,7.123,0,0,1,3.759-3.77,6.762,6.762,0,0,1,2.7-.546A6.837,6.837,0,0,1,31.1,11.6a7.057,7.057,0,0,1,3.759,3.759,6.837,6.837,0,0,1,.546,2.709,6.913,6.913,0,0,1-.546,2.72A7.029,7.029,0,0,1,31.1,24.559,6.837,6.837,0,0,1,28.392,25.1Zm0-12.138a5.09,5.09,0,0,0-5.1,5.1,5.153,5.153,0,0,0,.4,2.006,5.085,5.085,0,0,0,9.408,0,5.153,5.153,0,0,0,.4-2.006,5.09,5.09,0,0,0-5.1-5.1ZM45.633,25H43.155l-4.011-4.767V25H37.3V11.056h3.591a4.327,4.327,0,0,1,3.15,1.323,4.77,4.77,0,0,1,.945,1.481,4.784,4.784,0,0,1,.042,3.412,4.378,4.378,0,0,1-.84,1.386,4.58,4.58,0,0,1-1.281,1,4.2,4.2,0,0,1-1.533.472ZM39.144,12.946V18.28h1.743a2.5,2.5,0,0,0,1.008-.21,2.694,2.694,0,0,0,.84-.567,2.8,2.8,0,0,0,.557-.861,2.669,2.669,0,0,0,.2-1.029,2.608,2.608,0,0,0-1.6-2.457,2.5,2.5,0,0,0-1.008-.21Zm13.4-.126V25H50.694V12.82H47.313V11.035h8.61V12.82Z" transform="translate(171.298 53.596)" fill="#2e3c4b"/>
    <path id="Path_2859" data-name="Path 2859" d="M-15.712,0V-9.99h2.58a4.82,4.82,0,0,1,1.905.382,4.986,4.986,0,0,1,1.59,1.073A5.272,5.272,0,0,1-8.58-6.922,4.912,4.912,0,0,1-8.2-4.995,4.912,4.912,0,0,1-8.58-3.068a5.088,5.088,0,0,1-1.057,1.6,4.87,4.87,0,0,1-1.59,1.087A4.82,4.82,0,0,1-13.132,0Zm1.35-8.64v7.29h1.23a3.5,3.5,0,0,0,1.388-.285,3.656,3.656,0,0,0,1.162-.78A3.73,3.73,0,0,0-9.81-3.592a3.618,3.618,0,0,0,.278-1.4A3.618,3.618,0,0,0-9.81-6.4a3.73,3.73,0,0,0-.773-1.177,3.656,3.656,0,0,0-1.162-.78,3.5,3.5,0,0,0-1.388-.285ZM.008,0l-1.23-3.51h-3.12L-5.572,0H-7l3.465-9.96h1.5L1.432,0Zm-2.79-8.025L-3.922-4.77h2.265Zm8.1-.675V0H4V-8.7H1.582V-9.975h6.15V-8.7ZM14.438,0l-1.23-3.51h-3.12L8.858,0H7.433L10.9-9.96h1.5L15.863,0Zm-2.79-8.025L10.508-4.77h2.265Z" transform="translate(172.579 435.94)" fill="#2e3c4b"/>
  </g>
</svg>
