<svg xmlns="http://www.w3.org/2000/svg" width="164.128" height="220.139" viewBox="0 0 164.128 220.139">
  <g id="paszport_okładka" data-name="paszport okładka" transform="matrix(0.996, 0.087, -0.087, 0.996, 18.142, 0)">
    <rect id="Rectangle_79" data-name="Rectangle 79" width="146.544" height="208.159" fill="#2e3c4b"/>
    <g id="Group_250" data-name="Group 250" transform="translate(10.617 81.511)">
      <path id="Path_2858" data-name="Path 2858" d="M1.793,8.882v4.706H0V.041H3.809a4.194,4.194,0,0,1,1.65.336,4.388,4.388,0,0,1,1.406.947A4.6,4.6,0,0,1,7.812,2.76a4.472,4.472,0,0,1,0,3.4,4.358,4.358,0,0,1-.947,1.416,4.53,4.53,0,0,1-1.406.957,4.088,4.088,0,0,1-1.65.346Zm0-6.987V7.069H3.809A2.375,2.375,0,0,0,5.6,6.295a2.5,2.5,0,0,0,.754-1.833A2.472,2.472,0,0,0,5.6,2.648a2.448,2.448,0,0,0-1.793-.754ZM17.967,13.587,16.3,8.821H12.06l-1.67,4.767H8.454L13.16.061H15.2L19.9,13.587Zm-3.789-10.9L12.63,7.109h3.076Zm14.28,1.528a3.14,3.14,0,0,0-.428-1.3,2.228,2.228,0,0,0-.907-.8,3.229,3.229,0,0,0-1.375-.255,2.576,2.576,0,0,0-1.935.591,2.068,2.068,0,0,0-.53,1.528,2.246,2.246,0,0,0,.163.927,1.4,1.4,0,0,0,.489.581,3.409,3.409,0,0,0,1.609.448,11.247,11.247,0,0,1,1.925.316,5.175,5.175,0,0,1,1.375.581,3.217,3.217,0,0,1,1.487,2.933,3.594,3.594,0,0,1-.306,1.467,3.964,3.964,0,0,1-2.394,2.18,5.615,5.615,0,0,1-1.844.306,4.785,4.785,0,0,1-3.443-1.222,4.835,4.835,0,0,1-1.324-2.933l.041-.02h1.793a2.665,2.665,0,0,0,.733,1.609,3.03,3.03,0,0,0,2.139.733,3.216,3.216,0,0,0,2.037-.591,1.854,1.854,0,0,0,.754-1.528,2.225,2.225,0,0,0-.112-.744,1.257,1.257,0,0,0-.418-.56A5.16,5.16,0,0,0,25.4,7.782a4.676,4.676,0,0,1-2.933-1.12,3.55,3.55,0,0,1-1-2.689,3.829,3.829,0,0,1,1.08-2.832A4.3,4.3,0,0,1,25.729,0a4.262,4.262,0,0,1,3.3,1.283,5.105,5.105,0,0,1,1.263,2.933Zm4.013,7.761,6.885-10.1H32.471V.041h9.208v1.65L34.814,11.734h6.865v1.854H32.471Zm13.343-3.1v4.706H44.022V.041h3.809a4.194,4.194,0,0,1,1.65.336,4.387,4.387,0,0,1,1.406.947,4.6,4.6,0,0,1,.947,1.436,4.472,4.472,0,0,1,0,3.4,4.358,4.358,0,0,1-.947,1.416,4.53,4.53,0,0,1-1.406.957,4.088,4.088,0,0,1-1.65.346Zm0-6.987V7.069h2.017a2.375,2.375,0,0,0,1.793-.774,2.5,2.5,0,0,0,.754-1.833,2.472,2.472,0,0,0-.754-1.813,2.448,2.448,0,0,0-1.793-.754ZM61.093,13.689a6.67,6.67,0,0,1-2.618-.519,6.585,6.585,0,0,1-2.17-1.477A6.819,6.819,0,0,1,54.839,9.5a6.845,6.845,0,0,1-.01-5.256A6.91,6.91,0,0,1,58.475.591a6.559,6.559,0,0,1,2.618-.53,6.632,6.632,0,0,1,2.628.53,6.845,6.845,0,0,1,3.646,3.646,6.632,6.632,0,0,1,.53,2.628,6.706,6.706,0,0,1-.53,2.638,6.819,6.819,0,0,1-3.646,3.657A6.632,6.632,0,0,1,61.093,13.689Zm0-11.774a4.937,4.937,0,0,0-4.95,4.95A5,5,0,0,0,56.53,8.81a4.932,4.932,0,0,0,9.126,0,5,5,0,0,0,.387-1.945,4.937,4.937,0,0,0-4.95-4.95ZM78.327,13.587h-2.4L72.032,8.963v4.624H70.239V.061h3.483a4.2,4.2,0,0,1,3.056,1.283A4.627,4.627,0,0,1,77.7,2.781a4.487,4.487,0,0,1,.326,1.7,4.509,4.509,0,0,1-.285,1.609,4.247,4.247,0,0,1-.815,1.344,4.442,4.442,0,0,1-1.243.968,4.069,4.069,0,0,1-1.487.458ZM72.032,1.895V7.069h1.691a2.427,2.427,0,0,0,.978-.2,2.613,2.613,0,0,0,.815-.55,2.716,2.716,0,0,0,.54-.835,2.589,2.589,0,0,0,.194-1A2.529,2.529,0,0,0,74.7,2.1a2.427,2.427,0,0,0-.978-.2Zm13.506-.122V13.587H83.745V1.772h-3.28V.041h8.352V1.772Z" transform="translate(17.02 2.48)" fill="#fcf8f7"/>
      <path id="Path_2857" data-name="Path 2857" d="M3.429,5.282V2.052L2.2,3.825H1.779L.558,2.052v3.23H0V1.159H.614L1.99,3.15l1.376-1.99h.62V5.282Zm1.178,0V1.159h.521V5.282Zm3.683-.558v.558H6.516V4.228l-.322.6H5.685l.831-1.544V1.159h.533V2.294l.49-.911h.508l-1,1.854V4.724Zm2.561.589a2.03,2.03,0,0,1-.8-.158,2,2,0,0,1-.66-.449,2.075,2.075,0,0,1-.446-.666,2.083,2.083,0,0,1,0-1.6,2.1,2.1,0,0,1,1.11-1.113,2,2,0,0,1,.8-.161,2.019,2.019,0,0,1,.8.161,2.083,2.083,0,0,1,1.11,1.11,2.019,2.019,0,0,1,.161.8,2.041,2.041,0,0,1-.161.8,2.075,2.075,0,0,1-1.11,1.113A2.019,2.019,0,0,1,10.85,5.313Zm0-3.584A1.5,1.5,0,0,0,9.343,3.236a1.521,1.521,0,0,0,.118.592,1.5,1.5,0,0,0,2.778,0,1.521,1.521,0,0,0,.118-.592A1.5,1.5,0,0,0,10.85,1.73Zm4.83.7a.956.956,0,0,0-.13-.4.678.678,0,0,0-.276-.245.983.983,0,0,0-.418-.077.784.784,0,0,0-.589.18.629.629,0,0,0-.161.465.684.684,0,0,0,.05.282.426.426,0,0,0,.149.177,1.037,1.037,0,0,0,.49.136,3.423,3.423,0,0,1,.586.1,1.575,1.575,0,0,1,.418.177.979.979,0,0,1,.453.893,1.094,1.094,0,0,1-.093.446,1.207,1.207,0,0,1-.728.663,1.709,1.709,0,0,1-.561.093,1.456,1.456,0,0,1-1.048-.372,1.472,1.472,0,0,1-.4-.893l.012-.006h.546a.811.811,0,0,0,.223.49.922.922,0,0,0,.651.223.979.979,0,0,0,.62-.18.564.564,0,0,0,.229-.465.677.677,0,0,0-.034-.226.383.383,0,0,0-.127-.17,1.57,1.57,0,0,0-.787-.2,1.423,1.423,0,0,1-.893-.341,1.081,1.081,0,0,1-.3-.818,1.165,1.165,0,0,1,.329-.862,1.307,1.307,0,0,1,.967-.347,1.3,1.3,0,0,1,1,.391,1.554,1.554,0,0,1,.384.893ZM15,.856h-.415L14.811,0H15.3ZM19.22,5.282,17.36,2.257V5.282h-.552V1.159h.539l1.922,3.112V1.159h.546V5.282Zm1.215,0V1.159h.521V5.282Zm3.019,0L22.121,3.763V5.282h-.546V1.166h.546V2.734l1.308-1.569h.719L22.406,3.255l1.786,2.027Zm3.819,0-.508-1.451h-1.29l-.508,1.451h-.589L25.81,1.166h.62l1.432,4.117ZM26.12,1.965l-.471,1.345h.936Zm5.09,3.317V1.159h.533V4.724h1.24v.558Zm5.164,0-.508-1.451h-1.29l-.508,1.451h-.589l1.432-4.117h.62l1.432,4.117ZM35.221,1.965,34.75,3.311h.936Zm3.348-.279v3.6h-.546v-3.6h-1V1.159h2.542v.527Zm3.77,3.6-.508-1.451h-1.29l-.508,1.451h-.589l1.432-4.117h.62l1.432,4.117ZM41.186,1.965l-.471,1.345h.936Zm4.638,3.317h-.732L43.907,3.875V5.282h-.546V1.166h1.06a1.277,1.277,0,0,1,.93.391,1.408,1.408,0,0,1,.279.437A1.412,1.412,0,0,1,45.643,3a1.293,1.293,0,0,1-.248.409,1.352,1.352,0,0,1-.378.294,1.239,1.239,0,0,1-.453.139ZM43.907,1.724V3.3h.515a.739.739,0,0,0,.3-.062.8.8,0,0,0,.248-.167.827.827,0,0,0,.164-.254.788.788,0,0,0,.059-.3.77.77,0,0,0-.471-.725.739.739,0,0,0-.3-.062Zm4.885,3.559-1.86-3.026V5.282h-.552V1.159h.539l1.922,3.112V1.159h.546V5.282Zm1.215,0V1.159h.521V5.282Zm7.359,0V2.052L56.14,3.825h-.422L54.5,2.052v3.23h-.558V1.159h.614l1.376,1.99,1.376-1.99h.62V5.282Zm3.181.031a2.03,2.03,0,0,1-.8-.158,2,2,0,0,1-.66-.449,2.075,2.075,0,0,1-.446-.666,2.083,2.083,0,0,1,0-1.6,2.1,2.1,0,0,1,1.11-1.113,2,2,0,0,1,.8-.161,2.019,2.019,0,0,1,.8.161,2.083,2.083,0,0,1,1.11,1.11,2.018,2.018,0,0,1,.161.8,2.041,2.041,0,0,1-.161.8,2.075,2.075,0,0,1-1.11,1.113A2.019,2.019,0,0,1,60.548,5.313Zm0-3.584a1.5,1.5,0,0,0-1.507,1.507,1.521,1.521,0,0,0,.118.592,1.5,1.5,0,0,0,2.778,0,1.521,1.521,0,0,0,.118-.592A1.5,1.5,0,0,0,60.548,1.73Zm5.09,3.553h-.732L63.722,3.875V5.282h-.546V1.166h1.06a1.277,1.277,0,0,1,.93.391,1.408,1.408,0,0,1,.279.437A1.412,1.412,0,0,1,65.458,3a1.292,1.292,0,0,1-.248.409,1.352,1.352,0,0,1-.378.294,1.238,1.238,0,0,1-.453.139ZM63.722,1.724V3.3h.515a.739.739,0,0,0,.3-.062.8.8,0,0,0,.248-.167.827.827,0,0,0,.164-.254.788.788,0,0,0,.059-.3.77.77,0,0,0-.471-.725.739.739,0,0,0-.3-.062ZM68.4,2.43a.956.956,0,0,0-.13-.4.678.678,0,0,0-.276-.245.983.983,0,0,0-.418-.077.784.784,0,0,0-.589.18.629.629,0,0,0-.161.465.684.684,0,0,0,.05.282.426.426,0,0,0,.149.177,1.037,1.037,0,0,0,.49.136,3.423,3.423,0,0,1,.586.1,1.575,1.575,0,0,1,.418.177.979.979,0,0,1,.453.893,1.094,1.094,0,0,1-.093.446,1.207,1.207,0,0,1-.728.663,1.709,1.709,0,0,1-.561.093,1.456,1.456,0,0,1-1.048-.372,1.472,1.472,0,0,1-.4-.893l.012-.006h.546a.811.811,0,0,0,.223.49.922.922,0,0,0,.651.223.979.979,0,0,0,.62-.18.564.564,0,0,0,.229-.465.677.677,0,0,0-.034-.226.383.383,0,0,0-.127-.17,1.57,1.57,0,0,0-.787-.2,1.423,1.423,0,0,1-.893-.341,1.081,1.081,0,0,1-.3-.818,1.165,1.165,0,0,1,.329-.862,1.5,1.5,0,0,1,1.972.043,1.554,1.554,0,0,1,.384.893ZM71.4,5.282,70.071,3.763V5.282h-.546V1.166h.546V2.734l1.308-1.569H72.1L70.356,3.255l1.786,2.027Zm1.3,0V1.159h.521V5.282Zm3.15.025a2.038,2.038,0,0,1-1.463-.614,2.084,2.084,0,0,1-.446-.663,2.034,2.034,0,0,1-.161-.806A2.077,2.077,0,0,1,75.049,1.3a2.058,2.058,0,0,1,1.68.037,2.225,2.225,0,0,1,.744.589l-.422.36a1.549,1.549,0,0,0-1.2-.583,1.461,1.461,0,0,0-.58.118,1.542,1.542,0,0,0-.815.815,1.516,1.516,0,0,0,0,1.172,1.542,1.542,0,0,0,.815.815,1.461,1.461,0,0,0,.58.118,1.549,1.549,0,0,0,1.2-.583l.422.36a2.3,2.3,0,0,1-.747.589A2,2,0,0,1,75.849,5.307Zm4.4-.025V3.5H78.577V5.282h-.546V1.159h.546V2.945h1.674V1.159h.539V5.282ZM11.061,11.821v1.432h-.546V9.131h1.159a1.276,1.276,0,0,1,.5.1,1.335,1.335,0,0,1,.428.288,1.4,1.4,0,0,1,.288.437,1.344,1.344,0,0,1-.288,1.466,1.379,1.379,0,0,1-.428.291,1.244,1.244,0,0,1-.5.105Zm0-2.127V11.27h.614a.723.723,0,0,0,.546-.236.786.786,0,0,0,0-1.11.745.745,0,0,0-.546-.229Zm4.495,3.59a2.03,2.03,0,0,1-.8-.158,2,2,0,0,1-.66-.449,2.075,2.075,0,0,1-.446-.666,2.083,2.083,0,0,1,0-1.6A2.1,2.1,0,0,1,14.759,9.3a2,2,0,0,1,.8-.161,2.019,2.019,0,0,1,.8.161,2.083,2.083,0,0,1,1.11,1.11,2.019,2.019,0,0,1,.161.8,2.041,2.041,0,0,1-.161.8,2.075,2.075,0,0,1-1.11,1.113A2.018,2.018,0,0,1,15.555,13.285Zm0-3.584a1.5,1.5,0,0,0-1.507,1.507,1.521,1.521,0,0,0,.118.592,1.5,1.5,0,0,0,2.778,0,1.521,1.521,0,0,0,.118-.592A1.5,1.5,0,0,0,15.555,9.7Zm2.629,3.553V9.131h.533V12.7h1.24v.558ZM22.592,10.4a.956.956,0,0,0-.13-.4.678.678,0,0,0-.276-.245.983.983,0,0,0-.418-.077.784.784,0,0,0-.589.18.63.63,0,0,0-.161.465.683.683,0,0,0,.05.282.426.426,0,0,0,.149.177,1.037,1.037,0,0,0,.49.136,3.423,3.423,0,0,1,.586.1,1.575,1.575,0,0,1,.418.177.979.979,0,0,1,.453.893,1.094,1.094,0,0,1-.093.446,1.207,1.207,0,0,1-.728.663,1.709,1.709,0,0,1-.561.093,1.456,1.456,0,0,1-1.048-.372,1.472,1.472,0,0,1-.4-.893l.012-.006h.546a.811.811,0,0,0,.223.49.922.922,0,0,0,.651.223.979.979,0,0,0,.62-.18.564.564,0,0,0,.229-.465.677.677,0,0,0-.034-.226.383.383,0,0,0-.127-.17,1.57,1.57,0,0,0-.787-.2,1.423,1.423,0,0,1-.893-.341,1.081,1.081,0,0,1-.3-.818,1.165,1.165,0,0,1,.329-.862,1.5,1.5,0,0,1,1.972.043,1.554,1.554,0,0,1,.384.893ZM25.6,13.254l-1.333-1.519v1.519h-.546V9.137h.546v1.569l1.308-1.569h.719l-1.742,2.089,1.786,2.027Zm1.3,0V9.131h.521v4.123Zm1.141,0V9.131h2.257v.558H28.575v1.252h1.153v.508H28.575V12.7h1.717v.558Zm5.933-.4a2.17,2.17,0,0,1-.285.18,2.01,2.01,0,0,1-.961.242,1.986,1.986,0,0,1-.608-.093,1.946,1.946,0,0,1-.7-.372,2.074,2.074,0,0,1-.515-.632,1.933,1.933,0,0,1-.236-.949,1.875,1.875,0,0,1,.012-.248,2.108,2.108,0,0,1,.177-.648,1.963,1.963,0,0,1,.363-.542,2.135,2.135,0,0,1,.511-.4,2.025,2.025,0,0,1,.617-.223,1.956,1.956,0,0,1,.384-.037,1.976,1.976,0,0,1,.98.26,2.515,2.515,0,0,1,.626.527l-.428.36a1.858,1.858,0,0,0-.639-.477A1.585,1.585,0,0,0,32.7,9.7a1.459,1.459,0,0,0-1.327.843,1.417,1.417,0,0,0-.161.663,1.46,1.46,0,0,0,.056.4,1.4,1.4,0,0,0,.533.8,1.5,1.5,0,0,0,.911.31,1.452,1.452,0,0,0,.617-.133,1.612,1.612,0,0,0,.511-.375V11.79h-.57v-.558H34.4V12.41A1.922,1.922,0,0,1,33.969,12.857Zm3.05.428a2.03,2.03,0,0,1-.8-.158,2,2,0,0,1-.66-.449,2.075,2.075,0,0,1-.446-.666,2.083,2.083,0,0,1,0-1.6A2.1,2.1,0,0,1,36.223,9.3a2,2,0,0,1,.8-.161,2.019,2.019,0,0,1,.8.161,2.083,2.083,0,0,1,1.11,1.11,2.019,2.019,0,0,1,.161.8,2.041,2.041,0,0,1-.161.8,2.075,2.075,0,0,1-1.11,1.113A2.019,2.019,0,0,1,37.019,13.285Zm0-3.584a1.5,1.5,0,0,0-1.507,1.507,1.521,1.521,0,0,0,.118.592,1.5,1.5,0,0,0,2.778,0,1.521,1.521,0,0,0,.118-.592A1.5,1.5,0,0,0,37.019,9.7ZM46.2,13.254H45.65L45.011,11.5,44.4,13.254h-.558L42.345,9.124h.6l1.166,3.23.6-1.693-.558-1.538h.6l.546,1.513.626,1.717,1.128-3.23h.6Zm3.571-1.519v1.519h-.552V11.747L47.962,9.131h.614l.918,1.91.918-1.91h.614Zm2.988-2.61a1.209,1.209,0,0,1,.608.161,1.058,1.058,0,0,1,.4.415,1.227,1.227,0,0,1,.139.589,1.164,1.164,0,0,1-.09.456,1.3,1.3,0,0,1-.245.381,1.193,1.193,0,0,1,.35.415,1.179,1.179,0,0,1,.127.546,1.139,1.139,0,0,1-.155.583,1.186,1.186,0,0,1-.415.425,1.09,1.09,0,0,1-.577.158H51.552V9.124Zm-.663.558V10.91h.663a.571.571,0,0,0,.428-.18.61.61,0,0,0,.174-.44.594.594,0,0,0-.17-.434.579.579,0,0,0-.431-.174Zm0,1.786V12.7H52.9a.576.576,0,0,0,.428-.177.592.592,0,0,0,.174-.431.61.61,0,0,0-.174-.44.571.571,0,0,0-.428-.18Zm4.972,1.786h-.732l-1.184-1.407v1.407h-.546V9.137h1.06a1.277,1.277,0,0,1,.93.391,1.408,1.408,0,0,1,.279.437,1.412,1.412,0,0,1,.012,1.007,1.293,1.293,0,0,1-.248.409,1.352,1.352,0,0,1-.378.294,1.238,1.238,0,0,1-.453.139ZM55.154,9.695V11.27h.515a.739.739,0,0,0,.3-.062.8.8,0,0,0,.248-.167.827.827,0,0,0,.164-.254.788.788,0,0,0,.059-.3.77.77,0,0,0-.471-.725.739.739,0,0,0-.3-.062Zm2.226,3.069,2.1-3.075h-2.1V9.131h2.8v.5l-2.089,3.057h2.089v.564h-2.8Zm3.36.49V9.131H63v.558H61.28v1.252h1.153v.508H61.28V12.7H63v.558Zm2.815-.49,2.1-3.075h-2.1V9.131h2.8v.5l-2.089,3.057h2.089v.564h-2.8Zm1.4-4.042a.265.265,0,0,1-.273-.273.268.268,0,0,1,.077-.192.259.259,0,0,1,.2-.081.275.275,0,0,1,.273.273.259.259,0,0,1-.081.2A.268.268,0,0,1,64.956,8.721Zm4.793,4.532L69.24,11.8h-1.29l-.508,1.451h-.589l1.432-4.117h.62l1.432,4.117ZM68.6,9.937l-.471,1.345h.936Z" transform="translate(19.11 34.475)" fill="#fcf8f7"/>
      <g id="Group_249" data-name="Group 249" transform="translate(0 0)">
        <line id="Line_944" data-name="Line 944" y1="2.078" x2="7.158" transform="translate(115.403 1.481)" fill="none" stroke="#e5a34c" stroke-miterlimit="10" stroke-width="0.948"/>
        <line id="Line_945" data-name="Line 945" y1="0.231" x2="6.234" transform="translate(117.464 9.183)" fill="none" stroke="#e5a34c" stroke-miterlimit="10" stroke-width="0.948"/>
        <line id="Line_946" data-name="Line 946" x2="5.426" y2="3.232" transform="translate(115.424 14.958)" fill="none" stroke="#e5a34c" stroke-miterlimit="10" stroke-width="0.948"/>
        <line id="Line_947" data-name="Line 947" x1="6.003" y1="3.348" transform="translate(2.078 0)" fill="none" stroke="#e5a34c" stroke-miterlimit="10" stroke-width="0.948"/>
        <line id="Line_948" data-name="Line 948" x1="6.927" transform="translate(0 9.582)" fill="none" stroke="#e5a34c" stroke-miterlimit="10" stroke-width="0.948"/>
        <line id="Line_949" data-name="Line 949" x1="6.176" y2="3.002" transform="translate(1.27 14.661)" fill="none" stroke="#e5a34c" stroke-miterlimit="10" stroke-width="0.948"/>
      </g>
      <path id="Path_1842" data-name="Path 1842" d="M91.335,1.868H0V0H91.335Z" transform="translate(17.003 23.677)" fill="#af4427"/>
    </g>
    <g id="Group_253" data-name="Group 253" transform="translate(51.554 183.445)">
      <g id="Group_251" data-name="Group 251" transform="translate(0 0)">
        <path id="Path_1843" data-name="Path 1843" d="M2.37.234A1.774,1.774,0,0,1,3,.865,1.685,1.685,0,0,1,3,2.58a1.731,1.731,0,0,1-.631.627,1.69,1.69,0,0,1-.866.231H.558V5.379H0V0H1.5A1.67,1.67,0,0,1,2.37.234Zm-.279,2.5a1.168,1.168,0,0,0,.429-.429,1.144,1.144,0,0,0,.157-.586A1.125,1.125,0,0,0,2.52,1.14,1.178,1.178,0,0,0,2.091.716,1.141,1.141,0,0,0,1.5.558H.558V2.9H1.5A1.146,1.146,0,0,0,2.091,2.738Z" transform="translate(0 0.012)" fill="#fcf8f7"/>
        <path id="Path_1844" data-name="Path 1844" d="M1.351,3.438,3.09,5.371H2.346L.607,3.438H.558V5.371H0V0H1.375a1.667,1.667,0,0,1,.861.23,1.717,1.717,0,0,1,.623.627,1.69,1.69,0,0,1,.231.865,1.668,1.668,0,0,1-.231.862,1.72,1.72,0,0,1-.623.623,1.667,1.667,0,0,1-.861.231ZM.558.55V2.887h.817a1.123,1.123,0,0,0,.582-.157,1.187,1.187,0,0,0,.425-.425,1.124,1.124,0,0,0,.158-.583,1.146,1.146,0,0,0-.158-.586A1.174,1.174,0,0,0,1.957.708,1.118,1.118,0,0,0,1.375.55Z" transform="translate(5.644 0.021)" fill="#fcf8f7"/>
        <path id="Path_1845" data-name="Path 1845" d="M1.343,5.032a2.747,2.747,0,0,1-.979-.979A2.606,2.606,0,0,1,0,2.7,2.624,2.624,0,0,1,.364,1.347,2.727,2.727,0,0,1,1.347.364,2.609,2.609,0,0,1,2.694,0,2.631,2.631,0,0,1,4.045.364a2.7,2.7,0,0,1,.987.987A2.63,2.63,0,0,1,5.4,2.7a2.612,2.612,0,0,1-.364,1.347,2.728,2.728,0,0,1-.983.983A2.624,2.624,0,0,1,2.694,5.4,2.6,2.6,0,0,1,1.343,5.032ZM3.77,4.558a2.121,2.121,0,0,0,.78-.781A2.1,2.1,0,0,0,4.837,2.7,2.14,2.14,0,0,0,3.77.845,2.1,2.1,0,0,0,2.694.558,2.137,2.137,0,0,0,.838,1.626,2.1,2.1,0,0,0,.55,2.7,2.1,2.1,0,0,0,.838,3.777,2.137,2.137,0,0,0,2.694,4.845,2.1,2.1,0,0,0,3.77,4.558Z" transform="translate(10.801 0.036)" fill="#e5a34c"/>
        <path id="Path_1846" data-name="Path 1846" d="M.655,4.554A.9.9,0,0,0,.931,3.9V0h.55V3.9a1.448,1.448,0,0,1-.2.744,1.472,1.472,0,0,1-.538.538,1.451,1.451,0,0,1-.744.2v-.55A.894.894,0,0,0,.655,4.554Z" transform="translate(18.497 0.012)" fill="#fcf8f7"/>
        <path id="Path_1847" data-name="Path 1847" d="M.518,3.155V5.371H0V0H.518V2.3L2.483,0h.728L.881,2.726,3.259,5.371H2.516Z" transform="translate(28.237 0.008)" fill="#fcf8f7"/>
        <path id="Path_1848" data-name="Path 1848" d="M3.317.542H1.933V5.379h-.55V.542H0V0H3.317Z" transform="translate(33.78 0)" fill="#fcf8f7"/>
      </g>
      <g id="Group_252" data-name="Group 252" transform="translate(6.419 7.658)">
        <path id="Path_1849" data-name="Path 1849" d="M2.313,4.829v.55H0V0H.558V4.829Z" transform="translate(0 0)" fill="#fcf8f7"/>
        <path id="Path_1850" data-name="Path 1850" d="M3.179,3.39H1.287L.59,5.371H0L1.885,0h.7L4.465,5.371h-.59ZM3,2.872,2.233.671l-.769,2.2Z" transform="translate(4.848 0.016)" fill="#fcf8f7"/>
        <path id="Path_1851" data-name="Path 1851" d="M3.316.542H1.933V5.379h-.55V.542H0V0H3.316Z" transform="translate(10.69 0)" fill="#fcf8f7"/>
        <path id="Path_1852" data-name="Path 1852" d="M1.351,3.437,3.09,5.371H2.346L.606,3.437H.558V5.371H0V0H1.375a1.668,1.668,0,0,1,.862.23,1.718,1.718,0,0,1,.623.627,1.689,1.689,0,0,1,.23.865,1.667,1.667,0,0,1-.23.862,1.728,1.728,0,0,1-.623.623,1.669,1.669,0,0,1-.862.23ZM.558.55V2.887h.817a1.125,1.125,0,0,0,.583-.157,1.187,1.187,0,0,0,.425-.425,1.131,1.131,0,0,0,.157-.583,1.151,1.151,0,0,0-.157-.586A1.18,1.18,0,0,0,1.957.707,1.125,1.125,0,0,0,1.375.55Z" transform="translate(21.805 0.008)" fill="#fcf8f7"/>
        <path id="Path_1853" data-name="Path 1853" d="M3.923,0V5.379H3.268L.558,1.035V5.379H0V0H.583l2.79,4.465V0Z" transform="translate(27.24 0)" fill="#fcf8f7"/>
        <path id="Path_1854" data-name="Path 1854" d="M3.179,3.389H1.286L.59,5.371H0L1.885,0h.7L4.465,5.371h-.59ZM3,2.872,2.232.671l-.768,2.2Z" transform="translate(33.212 0.008)" fill="#fcf8f7"/>
      </g>
      <path id="Path_1855" data-name="Path 1855" d="M0,0H2.944V.55H0ZM0,4.83H2.944v.55H0ZM0,2.953V2.431l.55,0,2.395,0v.518l-2.395,0Z" transform="translate(22.852 0.206)" fill="#ae4426"/>
      <path id="Path_1856" data-name="Path 1856" d="M0,0H2.944V.55H0ZM0,4.829H2.944v.55H0ZM0,2.952V2.43l.55,0,2.395,0v.518l-2.395,0Z" transform="translate(22.852 7.658)" fill="#ae4426"/>
    </g>
    <g id="Group_255" data-name="Group 255" transform="translate(27.734 14.57)">
      <path id="Path_1857" data-name="Path 1857" d="M0,.051c3.8-.3,13.4.8,17.147,1.477A49.866,49.866,0,0,0,23.835,2.6c2.081.089,14.994-.511,17.075-.581" transform="translate(49.676 34.944)" fill="none" stroke="#fcf8f7" stroke-miterlimit="10" stroke-width="0.464"/>
      <path id="Path_1858" data-name="Path 1858" d="M41.508,0c-4.273.1-11.5,2.7-15.764,2.937a61.4,61.4,0,0,1-6.429-.355C14.82,2.357,4.407,2.561,0,3.472" transform="translate(0 35.115)" fill="none" stroke="#fcf8f7" stroke-miterlimit="10" stroke-width="0.464"/>
      <g id="Group_254" data-name="Group 254" transform="translate(36.851 0)">
        <path id="Path_1859" data-name="Path 1859" d="M1.137.251c.177-.312,5.17-.355,5.808,0s1.346,29.606.992,30.03-7.3.921-7.79.425S.527,1.324,1.137.251Z" transform="translate(4.794 11.203)" fill="none" stroke="#fcf8f7" stroke-miterlimit="10" stroke-width="0.464"/>
        <path id="Path_1860" data-name="Path 1860" d="M1.767,2.813a11.728,11.728,0,0,0-.108-2.7,2.923,2.923,0,0,0-1.611,0,24.752,24.752,0,0,0,0,2.81" transform="translate(8.115 39.156)" fill="none" stroke="#fcf8f7" stroke-miterlimit="10" stroke-width="0.464"/>
        <path id="Path_1861" data-name="Path 1861" d="M.025.093A.516.516,0,0,1,.468.022a4.442,4.442,0,0,1,0,1.452c-.035.106-.3.2-.372.07A7.267,7.267,0,0,1,.025.093Z" transform="translate(6.03 39.284)" fill="none" stroke="#fcf8f7" stroke-miterlimit="10" stroke-width="0.464"/>
        <path id="Path_1862" data-name="Path 1862" d="M0,.117C.053-.007.389-.025.478.028a5.35,5.35,0,0,1,0,1.683c-.088.088-.266.018-.354,0A9.8,9.8,0,0,1,0,.117Z" transform="translate(10.287 29.15)" fill="none" stroke="#fcf8f7" stroke-miterlimit="10" stroke-width="0.464"/>
        <path id="Path_1863" data-name="Path 1863" d="M.039.056C.092-.05.5.021.606.056a7.028,7.028,0,0,1-.088,1.7c-.036.106-.389.16-.478.106A12.265,12.265,0,0,1,.039.056Z" transform="translate(8.123 13.046)" fill="none" stroke="#fcf8f7" stroke-miterlimit="10" stroke-width="0.464"/>
        <path id="Path_1864" data-name="Path 1864" d="M2.928,0c.249,0,2.9,2.567,2.8,2.833-.015.039-.145.072-.355.1a29.685,29.685,0,0,1-5.364.022A11.255,11.255,0,0,1,2.928,0Z" transform="translate(5.659 4.939)" fill="none" stroke="#fcf8f7" stroke-miterlimit="10" stroke-width="0.464"/>
        <line id="Line_950" data-name="Line 950" y1="3.429" transform="translate(11.135 7.857)" fill="none" stroke="#fcf8f7" stroke-miterlimit="10" stroke-width="0.464"/>
        <path id="Path_1865" data-name="Path 1865" d="M0,1.523C.071,1.487,4.551,0,4.551,0" transform="translate(6.392 2.726)" fill="none" stroke="#fcf8f7" stroke-miterlimit="10" stroke-width="0.464"/>
        <line id="Line_951" data-name="Line 951" x1="0.08" y2="1.452" transform="translate(8.587 3.487)" fill="none" stroke="#fcf8f7" stroke-miterlimit="10" stroke-width="0.464"/>
        <line id="Line_952" data-name="Line 952" x1="0.148" y2="10.57" transform="translate(4.656 0)" fill="none" stroke="#fcf8f7" stroke-miterlimit="10" stroke-width="0.464"/>
        <line id="Line_953" data-name="Line 953" x2="1.417" y2="1.448" transform="translate(4.731 5.737)" fill="none" stroke="#fcf8f7" stroke-miterlimit="10" stroke-width="0.464"/>
        <line id="Line_954" data-name="Line 954" y1="3.293" x2="0.075" transform="translate(6.317 8.055)" fill="none" stroke="#fcf8f7" stroke-miterlimit="10" stroke-width="0.464"/>
        <path id="Path_1866" data-name="Path 1866" d="M0,0V11.332" transform="translate(13.179 3.074)" fill="none" stroke="#fcf8f7" stroke-miterlimit="10" stroke-width="0.464"/>
        <line id="Line_955" data-name="Line 955" y1="0.848" x2="2.044" transform="translate(11.135 6.499)" fill="none" stroke="#fcf8f7" stroke-miterlimit="10" stroke-width="0.464"/>
        <line id="Line_956" data-name="Line 956" y1="0.793" x2="1.157" transform="translate(12.022 12.517)" fill="none" stroke="#fcf8f7" stroke-miterlimit="10" stroke-width="0.464"/>
        <line id="Line_957" data-name="Line 957" x1="0.063" y2="2.019" transform="translate(7.524 8.055)" fill="none" stroke="#fcf8f7" stroke-miterlimit="10" stroke-width="0.464"/>
        <line id="Line_958" data-name="Line 958" y2="3.231" transform="translate(9.437 8.006)" fill="none" stroke="#fcf8f7" stroke-miterlimit="10" stroke-width="0.464"/>
        <path id="Path_1867" data-name="Path 1867" d="M.319.027A.585.585,0,0,1,1.08.611c0,.409.038.519-.431.563S0,1.044,0,.642.018.116.319.027Z" transform="translate(6.799 10.029)" fill="none" stroke="#fcf8f7" stroke-miterlimit="10" stroke-width="0.464"/>
        <line id="Line_959" data-name="Line 959" x2="1.657" y2="1.221" transform="translate(4.667 9.826)" fill="none" stroke="#fcf8f7" stroke-miterlimit="10" stroke-width="0.464"/>
        <path id="Path_1868" data-name="Path 1868" d="M.478.009A.44.44,0,0,1,1,.464C1.009.674.916.9.549.981S.03.658.017.495-.113.111.478.009Z" transform="translate(9.787 10.223)" fill="none" stroke="#fcf8f7" stroke-miterlimit="10" stroke-width="0.464"/>
        <path id="Path_1869" data-name="Path 1869" d="M0,.672A11.013,11.013,0,0,1,1.771,0" transform="translate(14.36 7.185)" fill="none" stroke="#fcf8f7" stroke-miterlimit="10" stroke-width="0.464"/>
        <line id="Line_960" data-name="Line 960" x2="1.983" transform="translate(15.245 9.11)" fill="none" stroke="#fcf8f7" stroke-miterlimit="10" stroke-width="0.464"/>
        <line id="Line_961" data-name="Line 961" x2="1.594" y2="0.567" transform="translate(14.359 10.719)" fill="none" stroke="#fcf8f7" stroke-miterlimit="10" stroke-width="0.464"/>
        <line id="Line_962" data-name="Line 962" x1="1.452" y1="0.598" transform="translate(1.93 6.923)" fill="none" stroke="#fcf8f7" stroke-miterlimit="10" stroke-width="0.464"/>
        <path id="Path_1870" data-name="Path 1870" d="M2.231,0H0" transform="translate(0 9.11)" fill="none" stroke="#fcf8f7" stroke-miterlimit="10" stroke-width="0.464"/>
        <line id="Line_963" data-name="Line 963" x1="1.452" y2="0.912" transform="translate(1.505 10.437)" fill="none" stroke="#fcf8f7" stroke-miterlimit="10" stroke-width="0.464"/>
      </g>
    </g>
  </g>
</svg>
