<svg xmlns="http://www.w3.org/2000/svg" width="363.24" height="414.581" viewBox="0 0 363.24 414.581">
  <g id="CIEKAWOSTKA_czolpino" data-name="CIEKAWOSTKA czolpino" transform="translate(-1072.137 -81.504)">
    <path id="Path_1283" data-name="Path 1283" d="M1086.912,100.863c22.327-29.628,315.372-21.694,332,0s24.081,345.53,5.87,372.2-320.994,30.545-337.875,9.678S1064.585,130.491,1086.912,100.863Z" fill="#e5a34c"/>
    <g id="CIEKAWOSTKA-2" style="isolation: isolate">
      <path id="Path_2871" data-name="Path 2871" d="M8.228.088A7.163,7.163,0,0,1,5.39-.484,7.224,7.224,0,0,1,3.036-2.09,7.4,7.4,0,0,1,1.452-4.444,7.217,7.217,0,0,1,.88-7.3a7.34,7.34,0,0,1,.561-2.86,7.326,7.326,0,0,1,1.6-2.376A7.4,7.4,0,0,1,5.39-14.124,7.163,7.163,0,0,1,8.228-14.7a7.158,7.158,0,0,1,3.124.7,7.9,7.9,0,0,1,2.64,2.09l-1.5,1.276a5.5,5.5,0,0,0-4.268-2.068,5.185,5.185,0,0,0-2.057.418A5.441,5.441,0,0,0,4.444-11.11,5.441,5.441,0,0,0,3.278-9.383,5.239,5.239,0,0,0,2.86-7.3a5.239,5.239,0,0,0,.418,2.079A5.441,5.441,0,0,0,4.444-3.5,5.441,5.441,0,0,0,6.171-2.332a5.185,5.185,0,0,0,2.057.418A5.5,5.5,0,0,0,12.5-3.982l1.5,1.276a8.154,8.154,0,0,1-2.651,2.09A7.088,7.088,0,0,1,8.228.088ZM16.522,0V-14.63H18.37V0Zm4.6,0V-14.63h8.008v1.98H23.034v4.444h4.092v1.8H23.034V-1.98h6.094V0ZM38.544,0l-4.73-5.39V0H31.878V-14.608h1.936v5.566l4.642-5.566h2.552L34.826-7.194,41.162,0Zm14.1,0-1.8-5.148H46.266L44.462,0h-2.09l5.082-14.608h2.2L54.736,0ZM48.554-11.77,46.882-7H50.2ZM67.76,0H65.8L63.536-6.226,61.358,0h-1.98l-5.3-14.652H56.21L60.346-3.19,62.458-9.2l-1.98-5.456h2.134l1.936,5.368L66.77-3.19l4-11.462h2.134ZM81.334.11a7.2,7.2,0,0,1-2.827-.561,7.112,7.112,0,0,1-2.343-1.595A7.364,7.364,0,0,1,74.58-4.411a7.242,7.242,0,0,1-.572-2.849,7.2,7.2,0,0,1,.561-2.827,7.358,7.358,0,0,1,1.6-2.365,7.431,7.431,0,0,1,2.343-1.584,7.084,7.084,0,0,1,2.827-.572,7.163,7.163,0,0,1,2.838.572,7.4,7.4,0,0,1,2.354,1.584A7.4,7.4,0,0,1,88.11-10.1a7.163,7.163,0,0,1,.572,2.838,7.242,7.242,0,0,1-.572,2.849,7.364,7.364,0,0,1-1.584,2.365A7.4,7.4,0,0,1,84.172-.462,7.163,7.163,0,0,1,81.334.11Zm0-12.716a5.306,5.306,0,0,0-2.057.407,5.292,5.292,0,0,0-1.727,1.155,5.292,5.292,0,0,0-1.155,1.727,5.306,5.306,0,0,0-.407,2.057,5.4,5.4,0,0,0,.418,2.1A5.3,5.3,0,0,0,77.55-3.432a5.292,5.292,0,0,0,1.727,1.155,5.306,5.306,0,0,0,2.057.407,5.306,5.306,0,0,0,2.057-.407,5.292,5.292,0,0,0,1.727-1.155,5.3,5.3,0,0,0,1.144-1.727,5.4,5.4,0,0,0,.418-2.1,5.306,5.306,0,0,0-.407-2.057,5.292,5.292,0,0,0-1.155-1.727A5.292,5.292,0,0,0,83.391-12.2,5.306,5.306,0,0,0,81.334-12.606ZM98.582-10.12a3.391,3.391,0,0,0-.462-1.408,2.406,2.406,0,0,0-.979-.869,3.487,3.487,0,0,0-1.485-.275,2.782,2.782,0,0,0-2.09.638,2.234,2.234,0,0,0-.572,1.65,2.425,2.425,0,0,0,.176,1,1.51,1.51,0,0,0,.528.627,3.681,3.681,0,0,0,1.738.484,12.146,12.146,0,0,1,2.079.341A5.589,5.589,0,0,1,99-7.3a3.474,3.474,0,0,1,1.606,3.168,3.881,3.881,0,0,1-.33,1.584,4.393,4.393,0,0,1-.924,1.342A4.43,4.43,0,0,1,97.691-.2,6.065,6.065,0,0,1,95.7.132a5.168,5.168,0,0,1-3.718-1.32,5.222,5.222,0,0,1-1.43-3.168l.044-.022h1.936a2.878,2.878,0,0,0,.792,1.738,3.272,3.272,0,0,0,2.31.792,3.473,3.473,0,0,0,2.2-.638,2,2,0,0,0,.814-1.65,2.4,2.4,0,0,0-.121-.8,1.357,1.357,0,0,0-.451-.605,5.572,5.572,0,0,0-2.794-.726,5.05,5.05,0,0,1-3.168-1.21,3.834,3.834,0,0,1-1.078-2.9A4.135,4.135,0,0,1,92.2-13.442a4.639,4.639,0,0,1,3.432-1.232A4.6,4.6,0,0,1,99.2-13.288a5.513,5.513,0,0,1,1.364,3.168Zm8.712-2.64V0h-1.936V-12.76h-3.542v-1.87h9.02v1.87ZM120.032,0,115.3-5.39V0h-1.936V-14.608H115.3v5.566l4.642-5.566H122.5l-6.182,7.414L122.65,0Zm14.1,0-1.8-5.148h-4.576L125.95,0h-2.09l5.082-14.608h2.2L136.224,0Zm-4.092-11.77L128.37-7h3.322Z" transform="translate(1187.869 125.441)" fill="#2e3c4b"/>
    </g>
    <rect id="Rectangle_45" data-name="Rectangle 45" width="12.483" height="2.497" transform="translate(1249.555 133.407)" fill="#ae4426"/>
    <g id="Group_181" data-name="Group 181">
      <path id="Path_1327" data-name="Path 1327" d="M1178.5,201.752c5.516-15.086,18.484-46.185,43.66-46.742s94.315-3,111.88,18.051,20.67,37.466,18.08,70.665-11.5,52.475-22,70.137-55.2,31.273-95.374,29.708-69.436-25.383-68.657-57.982,14.83-36.955,12.407-51.118S1172.985,216.838,1178.5,201.752Z" fill="#f2edeb"/>
    </g>
    <path id="Path_2870" data-name="Path 2870" d="M-129.352-.653V-13.061h-.735V0h6.265V-.653Zm15.48-8.225-.122,2.2a3.982,3.982,0,0,0-3.714-2.449,4.336,4.336,0,0,0-4.245,4.653A4.322,4.322,0,0,0-117.689.163a3.954,3.954,0,0,0,3.694-2.449L-113.872,0h.592V-8.878Zm-3.694,8.429a3.757,3.757,0,0,1-3.653-4.02,3.772,3.772,0,0,1,3.633-4.041,3.767,3.767,0,0,1,3.673,4.041A3.757,3.757,0,0,1-117.566-.449Zm11.5-8.429h-2.306v-2.653h-.714v2.653h-1.286v.592h1.286V0h.714V-8.286h2.306Zm9.929,0-.122,2.2a3.982,3.982,0,0,0-3.714-2.449,4.336,4.336,0,0,0-4.245,4.653A4.322,4.322,0,0,0-99.954.163,3.954,3.954,0,0,0-96.26-2.286L-96.138,0h.592V-8.878ZM-99.832-.449a3.757,3.757,0,0,1-3.653-4.02A3.772,3.772,0,0,1-99.852-8.51a3.767,3.767,0,0,1,3.673,4.041A3.757,3.757,0,0,1-99.832-.449Zm10.908-8.673a2.706,2.706,0,0,0-2.51,2.02l-.1-1.776h-.612V0h.714V-5.592c.041-1.735.98-2.837,2.347-2.837a2.971,2.971,0,0,1,.633.082l.143-.714A2.576,2.576,0,0,0-88.923-9.122Zm6.663,0a3.234,3.234,0,0,0-3.1,2.184l-.061-1.939h-.633V0h.714V-5.449c.184-1.939,1.367-3.061,2.959-3.061,1.612,0,2.776,1.041,2.776,3.388V0h.694V-5.245C-78.913-8.306-80.709-9.122-82.26-9.122Zm7.3-2.041a.645.645,0,0,0,.653-.653.645.645,0,0,0-.653-.653.645.645,0,0,0-.653.653A.645.645,0,0,0-74.964-11.163ZM-75.332,0h.714V-8.878h-.714Zm12.01-8.878-.122,2.2a3.982,3.982,0,0,0-3.714-2.449A4.336,4.336,0,0,0-71.4-4.469,4.322,4.322,0,0,0-67.138.163a3.954,3.954,0,0,0,3.694-2.449L-63.321,0h.592V-8.878ZM-67.015-.449a3.757,3.757,0,0,1-3.653-4.02A3.772,3.772,0,0,1-67.036-8.51a3.767,3.767,0,0,1,3.673,4.041A3.757,3.757,0,0,1-67.015-.449ZM-47.1.224A6.939,6.939,0,0,0-43.321-.837l-.408-.571A5.917,5.917,0,0,1-47.1-.449a5.875,5.875,0,0,1-5.857-6.1A5.869,5.869,0,0,1-47.1-12.633a5.771,5.771,0,0,1,3.367.98l.408-.592A6.928,6.928,0,0,0-47.1-13.286,6.554,6.554,0,0,0-53.73-6.551,6.576,6.576,0,0,0-47.1.224Zm7.255-.857,5.878-7.694v-.551h-6.51v.612h5.653L-40.781-.551V0h7.1V-.633Zm13.194.8a4.541,4.541,0,0,0,4.633-4.633,4.558,4.558,0,0,0-4.633-4.653,4.558,4.558,0,0,0-4.633,4.653A4.541,4.541,0,0,0-26.648.163Zm0-.612a3.871,3.871,0,0,1-3.878-4.02,3.871,3.871,0,0,1,3.878-4.02,3.871,3.871,0,0,1,3.878,4.02A3.871,3.871,0,0,1-26.648-.449Zm9.622-8.122-1.286,1v-6.306h-.714V-7.02l-1.245.959v.633l1.245-.959V0h.714V-6.939l1.286-1Zm6.622-.551a4,4,0,0,0-3.735,2.49L-14.2-8.878h-.633l.02,13.163h.694V-2.286A3.954,3.954,0,0,0-10.423.163,4.307,4.307,0,0,0-6.179-4.469C-6.179-7.225-8.036-9.122-10.4-9.122Zm-.143,8.673A3.757,3.757,0,0,1-14.2-4.469,3.767,3.767,0,0,1-10.525-8.51,3.772,3.772,0,0,1-6.893-4.469,3.757,3.757,0,0,1-10.546-.449Zm7.908-10.714a.645.645,0,0,0,.653-.653.645.645,0,0,0-.653-.653.645.645,0,0,0-.653.653A.645.645,0,0,0-2.638-11.163ZM-3.005,0h.714V-8.878h-.714ZM5.209-9.122a3.234,3.234,0,0,0-3.1,2.184L2.046-8.878H1.413V0h.714V-5.449C2.311-7.388,3.495-8.51,5.087-8.51c1.612,0,2.776,1.041,2.776,3.388V0h.694V-5.245C8.556-8.306,6.76-9.122,5.209-9.122ZM16.036.163a4.541,4.541,0,0,0,4.633-4.633,4.558,4.558,0,0,0-4.633-4.653A4.558,4.558,0,0,0,11.4-4.469,4.541,4.541,0,0,0,16.036.163Zm0-.612a3.871,3.871,0,0,1-3.878-4.02,3.871,3.871,0,0,1,3.878-4.02,3.871,3.871,0,0,1,3.878,4.02A3.871,3.871,0,0,1,16.036-.449ZM33.811-9.122a4,4,0,0,0-3.735,2.49l-.061-2.245h-.633L29.4,4.286H30.1V-2.286A3.954,3.954,0,0,0,33.791.163a4.307,4.307,0,0,0,4.245-4.633C38.036-7.225,36.179-9.122,33.811-9.122ZM33.668-.449a3.757,3.757,0,0,1-3.653-4.02A3.767,3.767,0,0,1,33.689-8.51a3.772,3.772,0,0,1,3.633,4.041A3.757,3.757,0,0,1,33.668-.449ZM45.107.163A4.541,4.541,0,0,0,49.74-4.469a4.558,4.558,0,0,0-4.633-4.653,4.558,4.558,0,0,0-4.633,4.653A4.541,4.541,0,0,0,45.107.163Zm0-.612a3.871,3.871,0,0,1-3.878-4.02,3.871,3.871,0,0,1,3.878-4.02,3.871,3.871,0,0,1,3.878,4.02A3.871,3.871,0,0,1,45.107-.449Zm8.684-10.714a.645.645,0,0,0,.653-.653.645.645,0,0,0-.653-.653.645.645,0,0,0-.653.653A.645.645,0,0,0,53.791-11.163Zm.367,12.735V-8.878h-.714V1.551c0,1.531-.653,2.265-2.306,2.1v.592C52.709,4.449,54.158,3.939,54.158,1.571Zm11.3-10.449-.122,2.2a3.982,3.982,0,0,0-3.714-2.449,4.336,4.336,0,0,0-4.245,4.653A4.322,4.322,0,0,0,61.638.163a3.954,3.954,0,0,0,3.694-2.449L65.454,0h.592V-8.878ZM61.76-.449a3.757,3.757,0,0,1-3.653-4.02A3.772,3.772,0,0,1,61.74-8.51a3.767,3.767,0,0,1,3.673,4.041A3.757,3.757,0,0,1,61.76-.449ZM80.709-8.878,77.77-.959l-2.49-7.918h-.592L72.179-.918,69.26-8.878h-.755L71.913,0h.571l2.49-8.041L77.485,0h.571l3.388-8.878Zm3.827-2.286a.645.645,0,0,0,.653-.653.645.645,0,0,0-.653-.653.645.645,0,0,0-.653.653A.645.645,0,0,0,84.536-11.163ZM84.168,0h.714V-8.878h-.714Zm6.5-8.571-1.286,1v-6.306h-.714V-7.02l-1.245.959v.633l1.245-.959V0h.714V-6.939l1.286-1Zm9.786-.306-.122,2.2a3.982,3.982,0,0,0-3.714-2.449,4.336,4.336,0,0,0-4.245,4.653A4.322,4.322,0,0,0,96.638.163a3.954,3.954,0,0,0,3.694-2.449L100.454,0h.592V-8.878ZM96.76-.449a3.757,3.757,0,0,1-3.653-4.02A3.772,3.772,0,0,1,96.74-8.51a3.767,3.767,0,0,1,3.673,4.041A3.757,3.757,0,0,1,96.76-.449Zm12.8-.816a3.642,3.642,0,0,0,3.02,1.429c1.8,0,3.082-.939,3.082-2.51,0-3.367-4.939-1.694-4.959-4.388-.02-1.082.8-1.755,2.061-1.755a2.9,2.9,0,0,1,2.184.837l.449-.469a3.7,3.7,0,0,0-2.633-1c-1.673,0-2.816.959-2.8,2.429.041,3.286,4.959,1.612,4.959,4.388,0,1.143-.9,1.857-2.347,1.857a2.907,2.907,0,0,1-2.469-1.265Zm9.643-9.9a.645.645,0,0,0,.653-.653.645.645,0,0,0-.653-.653.645.645,0,0,0-.653.653A.645.645,0,0,0,119.2-11.163ZM118.832,0h.714V-8.878h-.714Zm12.337-4.633V-5a4.025,4.025,0,0,0-4.082-4.122,4.338,4.338,0,0,0-4.327,4.531A4.453,4.453,0,0,0,127.291.163h.327c-1.122.755-1.469,1.673-1.143,2.347a1.509,1.509,0,0,0,2.163.388l-.143-.429c-1.633.776-2.367-1-.367-2.224l.327-.2a4.465,4.465,0,0,0,2.306-1.327l-.531-.429a3.752,3.752,0,0,1-2.939,1.265c-2.388,0-3.776-1.816-3.776-4.122v-.061ZM127.087-8.49a3.336,3.336,0,0,1,3.388,3.306h-6.918A3.544,3.544,0,0,1,127.087-8.49ZM-85.245,15.122l-2.939,7.918-2.49-7.918h-.592l-2.51,7.959-2.918-7.959h-.755L-94.041,24h.571l2.49-8.041L-88.469,24h.571l3.388-8.878Zm16,8.878-5.367-4.878,4.8-4h-.959l-4.735,3.939V10.122h-.714V24h.714V19.2l5.265,4.8Zm6.316.163A4.541,4.541,0,0,0-58.3,19.531a4.558,4.558,0,0,0-4.633-4.653,4.558,4.558,0,0,0-4.633,4.653A4.541,4.541,0,0,0-62.929,24.163Zm0-.612a3.871,3.871,0,0,1-3.878-4.02,3.871,3.871,0,0,1,3.878-4.02,3.871,3.871,0,0,1,3.878,4.02A3.871,3.871,0,0,1-62.929,23.551Zm16.888-8.673A2.9,2.9,0,0,0-49,17.224a2.951,2.951,0,0,0-2.918-2.347,2.86,2.86,0,0,0-2.755,2.143l-.082-1.9h-.633V24h.714V18.653c.163-1.918,1.184-3.163,2.612-3.163,1.592,0,2.531,1.286,2.531,3.122V24h.714V18.816c.143-2.143,1.122-3.327,2.633-3.327,1.755,0,2.551,1.286,2.551,3.245V24h.694V18.735C-42.939,15.714-44.571,14.878-46.041,14.878Zm14.337,4.49V19a4.025,4.025,0,0,0-4.082-4.122,4.338,4.338,0,0,0-4.327,4.531,4.453,4.453,0,0,0,4.531,4.755,4.677,4.677,0,0,0,3.469-1.449l-.531-.429a3.752,3.752,0,0,1-2.939,1.265c-2.388,0-3.776-1.816-3.776-4.122v-.061Zm-4.082-3.857A3.336,3.336,0,0,1-32.4,18.816h-6.918A3.544,3.544,0,0,1-35.786,15.51Zm14.459-5.388v7.163a3.97,3.97,0,0,0-3.694-2.408,4.336,4.336,0,0,0-4.245,4.653A4.322,4.322,0,0,0-25,24.163a3.954,3.954,0,0,0,3.694-2.449L-21.2,24h.592V10.122Zm-3.551,13.429a3.757,3.757,0,0,1-3.653-4.02A3.772,3.772,0,0,1-24.9,15.49a3.767,3.767,0,0,1,3.673,4.041A3.757,3.757,0,0,1-24.878,23.551ZM-16.6,12.837a.645.645,0,0,0,.653-.653.645.645,0,0,0-.653-.653.645.645,0,0,0-.653.653A.645.645,0,0,0-16.6,12.837ZM-16.969,24h.714V15.122h-.714Zm5.031-11.163a.645.645,0,0,0,.653-.653.645.645,0,0,0-.653-.653.645.645,0,0,0-.653.653A.645.645,0,0,0-11.939,12.837ZM-12.306,24h.714V15.122h-.714Zm11.347-.653L6.9,11.49v-.551H-1.571v.653H5.959L-1.878,23.449V24H7.245v-.653Zm18.071-8.225-.122,2.2a3.982,3.982,0,0,0-3.714-2.449,4.336,4.336,0,0,0-4.245,4.653A4.322,4.322,0,0,0,13.3,24.163a3.954,3.954,0,0,0,3.694-2.449L17.112,24H17.7V15.122Zm-3.694,8.429a3.757,3.757,0,0,1-3.653-4.02A3.772,3.772,0,0,1,13.4,15.49a3.767,3.767,0,0,1,3.673,4.041A3.757,3.757,0,0,1,13.418,23.551ZM28.082,24l-5.367-4.878,4.8-4h-.959l-4.735,3.939V10.122H21.1V24h.714V19.2L27.082,24Zm6.316.163a4.643,4.643,0,1,0-4.633-4.633A4.541,4.541,0,0,0,34.4,24.163Zm0-.612a3.871,3.871,0,0,1-3.878-4.02,3.88,3.88,0,1,1,7.755,0A3.871,3.871,0,0,1,34.4,23.551Zm11.541.612a4.564,4.564,0,0,0,2.857-.98l-.449-.51a3.517,3.517,0,0,1-2.408.878,3.722,3.722,0,0,1-3.755-4.041,3.716,3.716,0,0,1,3.755-4.02,3.517,3.517,0,0,1,2.408.878l.449-.51a4.564,4.564,0,0,0-2.857-.98,4.411,4.411,0,0,0-4.49,4.633A4.405,4.405,0,0,0,45.939,24.163ZM55.3,14.878a3.17,3.17,0,0,0-3.082,2.184V10.122H51.5V24h.714V18.9c.061-2.143,1.306-3.408,2.98-3.408,1.612,0,2.755,1.041,2.755,3.388V24h.714V18.755C58.663,15.694,56.847,14.878,55.3,14.878Zm14.276.245-.122,2.2a3.982,3.982,0,0,0-3.714-2.449,4.336,4.336,0,0,0-4.245,4.653,4.322,4.322,0,0,0,4.265,4.633,3.954,3.954,0,0,0,3.694-2.449L69.571,24h.592V15.122Zm-3.694,8.429a3.757,3.757,0,0,1-3.653-4.02,3.672,3.672,0,1,1,7.306,0A3.757,3.757,0,0,1,65.878,23.551Zm11.48-8.673a3.234,3.234,0,0,0-3.1,2.184l-.061-1.939h-.633V24h.714V18.551c.184-1.939,1.367-3.061,2.959-3.061,1.612,0,2.776,1.041,2.776,3.388V24H80.7V18.755C80.7,15.694,78.908,14.878,77.357,14.878Zm7.3-2.041A.653.653,0,1,0,84,12.184.645.645,0,0,0,84.653,12.837ZM84.286,24H85V15.122h-.714Zm4.684,2.265a2.579,2.579,0,0,0,1.612-2.184c.082-.714-.245-1.306-.816-1.306a.638.638,0,0,0-.694.673.661.661,0,0,0,.959.551,2.206,2.206,0,0,1-1.224,1.878ZM-90.214,39.122l-2.939,7.918-2.49-7.918h-.592l-2.51,7.959-2.918-7.959h-.755L-99.01,48h.571l2.49-8.041L-93.439,48h.571l3.388-8.878Zm16,8.878-5.367-4.878,4.8-4h-.959l-4.735,3.939V34.122h-.714V48h.714V43.2l5.265,4.8Zm5.99-8.878h-2.306V36.469h-.714v2.653h-1.286v.592h1.286V48h.714V39.714h2.306Zm6.541-2.306,2.061-2.143-.714-.143-2.633,2.939h.286C-62.418,37.469-62.214,37.388-61.684,36.816Zm-.061,11.347a4.541,4.541,0,0,0,4.633-4.633,4.558,4.558,0,0,0-4.633-4.653,4.558,4.558,0,0,0-4.633,4.653A4.541,4.541,0,0,0-61.745,48.163Zm0-.612a3.871,3.871,0,0,1-3.878-4.02,3.871,3.871,0,0,1,3.878-4.02,3.871,3.871,0,0,1,3.878,4.02A3.871,3.871,0,0,1-61.745,47.551Zm10.765-8.673a2.706,2.706,0,0,0-2.51,2.02l-.1-1.776H-54.2V48h.714V42.408c.041-1.735.98-2.837,2.347-2.837a2.971,2.971,0,0,1,.633.082l.143-.714A2.576,2.576,0,0,0-50.98,38.878Zm10.378,4.49V43a4.025,4.025,0,0,0-4.082-4.122,4.338,4.338,0,0,0-4.327,4.531,4.453,4.453,0,0,0,4.531,4.755,4.677,4.677,0,0,0,3.469-1.449l-.531-.429a3.752,3.752,0,0,1-2.939,1.265c-2.388,0-3.776-1.816-3.776-4.122v-.061Zm-4.082-3.857A3.336,3.336,0,0,1-41.3,42.816h-6.918A3.544,3.544,0,0,1-44.684,39.51Zm8.153-2.673a.645.645,0,0,0,.653-.653.645.645,0,0,0-.653-.653.645.645,0,0,0-.653.653A.645.645,0,0,0-36.531,36.837Zm.367,12.735V39.122h-.714V49.551c0,1.531-.653,2.265-2.306,2.1v.592C-37.612,52.449-36.163,51.939-36.163,49.571Zm15.939-1.347a6.939,6.939,0,0,0,3.776-1.061l-.408-.571a5.917,5.917,0,0,1-3.367.959,5.875,5.875,0,0,1-5.857-6.1,5.869,5.869,0,0,1,5.857-6.082,5.771,5.771,0,0,1,3.367.98l.408-.592a6.928,6.928,0,0,0-3.776-1.041,6.554,6.554,0,0,0-6.633,6.735A6.576,6.576,0,0,0-20.224,48.224Zm14.276-4.857V43a4.025,4.025,0,0,0-4.082-4.122,4.338,4.338,0,0,0-4.327,4.531,4.453,4.453,0,0,0,4.531,4.755,4.677,4.677,0,0,0,3.469-1.449l-.531-.429a3.752,3.752,0,0,1-2.939,1.265c-2.388,0-3.776-1.816-3.776-4.122v-.061Zm-4.082-3.857a3.336,3.336,0,0,1,3.388,3.306h-6.918A3.544,3.544,0,0,1-10.031,39.51Zm7.5,7.857,5.878-7.694v-.551h-6.51v.612H2.49l-5.959,7.714V48h7.1v-.633Zm16.643-8.245-.122,2.2a3.982,3.982,0,0,0-3.714-2.449,4.336,4.336,0,0,0-4.245,4.653A4.322,4.322,0,0,0,10.3,48.163a3.954,3.954,0,0,0,3.694-2.449L14.112,48H14.7V39.122Zm-3.694,8.429a3.757,3.757,0,0,1-3.653-4.02A3.772,3.772,0,0,1,10.4,39.49a3.767,3.767,0,0,1,3.673,4.041A3.757,3.757,0,0,1,10.418,47.551Zm10.908-8.673a2.706,2.706,0,0,0-2.51,2.02l-.1-1.776H18.1V48h.714V42.408c.041-1.735.98-2.837,2.347-2.837a2.971,2.971,0,0,1,.633.082l.143-.714A2.576,2.576,0,0,0,21.327,38.878Zm9.765.245L27.663,46.98l-3.347-7.857h-.776l3.776,8.653-1.98,4.51h.755l5.755-13.163Zm12.673-4.184H40.622V48h.735V42.082h2.408c1.939,0,3.98-1.122,3.98-3.571S45.7,34.939,43.765,34.939ZM43.5,41.469H41.357V35.551H43.5c2.041,0,3.469,1.041,3.469,2.959S45.541,41.469,43.5,41.469Zm14.378-2.347-.122,2.2a3.982,3.982,0,0,0-3.714-2.449A4.336,4.336,0,0,0,49.8,43.531a4.322,4.322,0,0,0,4.265,4.633,3.954,3.954,0,0,0,3.694-2.449L57.878,48h.592V39.122Zm-3.694,8.429a3.757,3.757,0,0,1-3.653-4.02,3.672,3.672,0,1,1,7.306,0A3.757,3.757,0,0,1,54.184,47.551Zm8.173-.184,5.878-7.694v-.551h-6.51v.612h5.653l-5.959,7.714V48h7.1v-.633Zm12.561.878c1.612,0,3.551-.837,3.551-3.837V39.122h-.694v5.286c0,1.98-1.02,3.224-2.857,3.224-1.857,0-2.878-1.245-2.878-3.224V39.122h-.714v5.286C71.327,47.408,73.265,48.245,74.918,48.245Zm10.112-9.367a2.706,2.706,0,0,0-2.51,2.02l-.1-1.776h-.612V48h.714V42.408c.041-1.735.98-2.837,2.347-2.837a2.971,2.971,0,0,1,.633.082l.143-.714A2.576,2.576,0,0,0,85.031,38.878Zm10.051.245-.122,2.2a3.982,3.982,0,0,0-3.714-2.449A4.336,4.336,0,0,0,87,43.531a4.322,4.322,0,0,0,4.265,4.633,3.954,3.954,0,0,0,3.694-2.449L95.082,48h.592V39.122Zm-3.694,8.429a3.757,3.757,0,0,1-3.653-4.02,3.672,3.672,0,1,1,7.306,0A3.757,3.757,0,0,1,91.388,47.551ZM-53.01,62.633l-.286,1.2a3.881,3.881,0,0,0-3.143-1.429c-2.429,0-4.347,1.8-4.347,4.857s1.918,4.857,4.347,4.857a3.934,3.934,0,0,0,3-1.245c-.02,2.184-.592,3.408-2.51,3.408a3.876,3.876,0,0,1-1.571-.327l-.51,1.98a7.251,7.251,0,0,0,2.224.347c3.122,0,4.8-1.735,4.8-5.245V62.633Zm-2.8,7.469a2.574,2.574,0,0,1-2.51-2.837,2.592,2.592,0,0,1,2.51-2.857,2.617,2.617,0,0,1,2.592,2.857A2.6,2.6,0,0,1-55.806,70.1Zm12.643-7.714a3.116,3.116,0,0,0-2.49,1.551l-.286-1.306h-2.122V72h2.429V67.367c0-1.653.837-2.653,2.265-2.653a2.821,2.821,0,0,1,.878.143l.367-2.327A3.548,3.548,0,0,0-43.163,62.388Zm9.786.245-.306,1.2a3.836,3.836,0,0,0-3.143-1.449c-2.429,0-4.347,1.837-4.347,4.918s1.918,4.9,4.347,4.9A3.854,3.854,0,0,0-33.7,70.8L-33.4,72h2V62.633Zm-2.816,7.531a2.581,2.581,0,0,1-2.51-2.857,2.6,2.6,0,0,1,2.51-2.878A2.624,2.624,0,0,1-33.6,67.306,2.606,2.606,0,0,1-36.194,70.163ZM-22.929,72H-20.5V58.122h-2.429Zm12.765-9.367-.306,1.2a3.836,3.836,0,0,0-3.143-1.449c-2.429,0-4.347,1.837-4.347,4.918s1.918,4.9,4.347,4.9A3.854,3.854,0,0,0-10.49,70.8l.306,1.2h2V62.633Zm-2.816,7.531a2.581,2.581,0,0,1-2.51-2.857,2.6,2.6,0,0,1,2.51-2.878,2.624,2.624,0,0,1,2.592,2.878A2.606,2.606,0,0,1-12.98,70.163ZM.439,62.633H-1.867V59.939H-4.276v2.694H-5.7V64.51h1.429V72h2.408V64.51H.439Zm9.276,0-.306,1.2a3.836,3.836,0,0,0-3.143-1.449c-2.429,0-4.347,1.837-4.347,4.918s1.918,4.9,4.347,4.9A3.854,3.854,0,0,0,9.388,70.8L9.694,72h2V62.633ZM6.9,70.163a2.893,2.893,0,0,1,0-5.735,2.882,2.882,0,0,1,0,5.735Zm12.663-7.776a3.116,3.116,0,0,0-2.49,1.551l-.286-1.306H14.663V72h2.429V67.367c0-1.653.837-2.653,2.265-2.653a2.821,2.821,0,0,1,.878.143l.367-2.327A3.548,3.548,0,0,0,19.561,62.388Zm8.112,0A3.437,3.437,0,0,0,24.8,63.735l-.306-1.1H22.367V72H24.8V66.531a2.014,2.014,0,0,1,2.061-2.082c1.286,0,1.857.9,1.857,2.347V72h2.408V66.163C31.122,63.306,29.265,62.388,27.673,62.388Zm7.745-1.306a1.408,1.408,0,1,0-1.429-1.408A1.433,1.433,0,0,0,35.418,61.082ZM34.235,72h2.429V62.633H34.235Zm15.051,0-4.8-5.1,4.224-4.265H45.633L42.347,66.1v-7.98H39.918V72h2.429V67.735L46.163,72Zm9.01-9.367-.306,1.2a3.836,3.836,0,0,0-3.143-1.449c-2.429,0-4.347,1.837-4.347,4.918s1.918,4.9,4.347,4.9A3.854,3.854,0,0,0,57.969,70.8l.306,1.2h2V62.633ZM55.48,70.163a2.893,2.893,0,0,1,0-5.735,2.882,2.882,0,0,1,0,5.735Z" transform="translate(1255.847 387.609)" fill="#2e3c4b"/>
    <g id="czołpino">
      <path id="Path_1977" data-name="Path 1977" d="M1244.151,323.828c-8.564,0-25.962-1.6-28.312-3.658a.785.785,0,0,1-.3-.531h0c-.071-1.193,1.7-30.882,3.263-57.076,1.2-20.1,2.333-39.089,2.3-39.64a16.052,16.052,0,0,0-2.335-2.04c-.16-.125-.3-.233-.4-.318-.266-.213-.446-.877-.532-1.972-.129-1.625-.024-4.188.508-4.773.816-.9,20.388-.394,26.455-.069,3.694.2,9.719.055,15.033-.071,8.051-.189,10.109-.19,10.346.165.366.549-.066,2.671-.828,5.687l-.037.146a3.184,3.184,0,0,1-1.38,1.722,5.107,5.107,0,0,0-1.469,1.542c.545,4.739,10.832,94.668,8.671,97.528-1.7,2.251-12.64,2.65-21.429,2.97-2.567.094-4.992.182-6.758.308C1246.183,323.8,1245.238,323.828,1244.151,323.828ZM1226.9,213.739c-4.457,0-7.89.108-8.263.374-.339.376-.537,2.583-.389,4.447.091,1.159.278,1.6.374,1.675s.243.191.4.315c1.527,1.195,2.375,1.913,2.486,2.288.061.206-.461,9.137-2.287,39.75-1.563,26.182-3.333,55.858-3.264,57.026a.4.4,0,0,0,.161.238c2.378,2.086,23.594,3.989,30.789,3.474,1.774-.126,4.2-.215,6.772-.308,8.242-.3,19.528-.713,21.107-2.8,1.719-2.275-5.741-71-8.76-97.292l-.008-.067.032-.058a5.417,5.417,0,0,1,1.613-1.732,2.825,2.825,0,0,0,1.229-1.491l.037-.147c.811-3.214,1.109-5.013.886-5.348-.4-.2-5.274-.088-9.984.023-5.323.126-11.356.269-15.066.07C1239.98,213.917,1232.6,213.739,1226.9,213.739Z" fill="#2e3c4b"/>
      <path id="Path_1978" data-name="Path 1978" d="M1244.611,186.766c-3.884,0-15.041-.342-15.639-1.6h0a.566.566,0,0,1,.107-.519c1.3-1.965,13.109-9.688,16.1-9.688h.072c2.807.127,13.835,7.285,14.936,9.695a.657.657,0,0,1-.012.715c-.944,1.194-6.57,1.331-13.274,1.379-.616,0-1.2.008-1.753.014C1244.991,186.765,1244.81,186.766,1244.611,186.766ZM1229.365,185c.527.747,9.556,1.4,15.78,1.339.549-.007,1.138-.011,1.755-.015,4.8-.034,12.05-.086,12.946-1.218.034-.043.018-.147-.042-.277-1.035-2.265-11.928-9.329-14.57-9.448-1.219-.061-4.66,1.609-8.971,4.343C1231.879,182.507,1229.465,184.556,1229.365,185Z" fill="#2e3c4b"/>
      <rect id="Rectangle_178" data-name="Rectangle 178" width="0.423" height="18.078" transform="translate(1229.215 185.293) rotate(-0.656)" fill="#2e3c4b"/>
      <rect id="Rectangle_179" data-name="Rectangle 179" width="0.423" height="17.938" transform="matrix(1, -0.012, 0.012, 1, 1259.8, 185.241)" fill="#2e3c4b"/>
      <path id="Path_1979" data-name="Path 1979" d="M1270.2,214l-.416-.077c.364-1.98.486-3.827.267-4.035-.525-.182-8.95-.087-15.1-.017-4.166.047-7.764.088-9.106.055-.7-.018-2.143-.069-4.025-.136-6.619-.234-22.028-.78-23.166-.378a20.2,20.2,0,0,0,.046,4.531l-.42.037c-.062-.691-.345-4.168.026-4.818.233-.409,3.936-.488,23.53.206,1.879.066,3.324.117,4.02.135,1.334.032,4.929-.008,9.09-.055,10.545-.119,15.006-.133,15.342.09C1270.876,209.932,1270.422,212.79,1270.2,214Z" fill="#2e3c4b"/>
      <path id="Path_1980" data-name="Path 1980" d="M1228.95,224.635h-2.963l0-.214c0-.035.031-3.466-1.095-4.607a1.051,1.051,0,0,0-.772-.343c-1.944,0-2.6,3.431-2.608,3.466l-.416-.077c.028-.156.728-3.811,3.024-3.811a1.469,1.469,0,0,1,1.073.468c1.088,1.1,1.205,3.893,1.217,4.7h2.343c.092-.974.614-5.11,2.916-5.43a1.522,1.522,0,0,1,1.258.376c1.2,1.047,1.369,3.943,1.392,4.776l2.3-.113c-.1-.771-.325-3.216.518-4.2a1.2,1.2,0,0,1,.944-.437c1.891,0,2.616,3.441,2.763,4.267l1.651.09c.032-.779.225-3.362,1.375-4.388a1.636,1.636,0,0,1,1.3-.425c1.206.126,1.212,3.406,1.182,4.471l2.914.291c.074-.969.5-4.68,2.666-4.808a1.543,1.543,0,0,1,1.182.44c1.157,1.078,1.351,3.863,1.383,4.657h1.446c.087-1.035.52-4.986,2.058-5.1,1.522-.118,2.358,3.9,2.54,4.9l2.4.028c.053-1.666.279-5.027,1.209-5.027h0c1.691.013,2.232,3.855,2.287,4.293l-.419.053c-.139-1.088-.747-3.914-1.871-3.923h0c-.313,0-.718,2.061-.792,4.824l-.005.208-3.165-.037-.03-.174c-.313-1.861-1.141-4.8-2.123-4.72s-1.554,3.044-1.682,4.9l-.014.2h-2.253l0-.208c0-.035-.059-3.448-1.255-4.562a1.13,1.13,0,0,0-.868-.327c-2.064.122-2.28,4.582-2.282,4.627l-.01.223-3.751-.374.009-.2c.07-1.715-.131-4.163-.8-4.232a1.222,1.222,0,0,0-.978.319c-1.193,1.065-1.239,4.265-1.239,4.3l0,.221-2.429-.131-.026-.17c-.17-1.135-.928-4.079-2.373-4.079a.777.777,0,0,0-.622.29c-.861,1-.4,4.063-.391,4.094l.036.232-3.206.156v-.222c0-.036-.015-3.6-1.251-4.678a1.109,1.109,0,0,0-.922-.276c-2.217.308-2.565,5.187-2.568,5.237l-.013.2Z" fill="#2e3c4b"/>
      <path id="Path_1981" data-name="Path 1981" d="M1240.454,323.528c-.028-.338-.662-8.3,2.153-11.172a3.278,3.278,0,0,1,2.65-1.011c2.4.153,4.1,2.287,4.923,6.17a27.8,27.8,0,0,1,.526,5.786l-.423-.014c0-.112.291-11.18-5.054-11.52a2.87,2.87,0,0,0-2.32.885c-2.681,2.736-2.04,10.76-2.034,10.84Z" fill="#2e3c4b"/>
      <path id="Path_1982" data-name="Path 1982" d="M1231.486,293.2h-4.455l-.018-.191c-.015-.151-.347-3.717.924-5.24a1.816,1.816,0,0,1,1.281-.683,1.525,1.525,0,0,1,1.256.461c1.353,1.354,1.042,5.292,1.028,5.459Zm-4.067-.423h3.674c.045-.8.14-3.873-.918-4.932a1.112,1.112,0,0,0-.923-.338,1.4,1.4,0,0,0-.991.533C1227.259,289.241,1227.369,292.023,1227.419,292.777Z" fill="#2e3c4b"/>
      <path id="Path_1983" data-name="Path 1983" d="M1265.327,300.571h-4.66l-.008-.2c-.028-.7-.206-6.889,2.211-7.031a1.282,1.282,0,0,1,.991.384c1.484,1.409,1.469,6.427,1.468,6.64Zm-4.252-.422h3.83c-.014-.968-.142-4.989-1.335-6.12a.883.883,0,0,0-.675-.269C1261.256,293.856,1261.025,298.223,1261.075,300.149Z" fill="#2e3c4b"/>
      <path id="Path_1984" data-name="Path 1984" d="M1232.042,247.228h-5.223l.005-.216c.006-.24.155-5.883,1.656-7.259a1.1,1.1,0,0,1,.848-.324c2.225.142,2.659,6.816,2.7,7.576Zm-4.788-.423h4.34c-.142-2.1-.779-6.857-2.294-6.954a.717.717,0,0,0-.535.214C1227.55,241.179,1227.3,245.752,1227.254,246.8Z" fill="#2e3c4b"/>
      <path id="Path_1985" data-name="Path 1985" d="M1262.24,253.785h-4.363l-.021-.187c-.026-.225-.611-5.515.894-6.935a1.3,1.3,0,0,1,1.177-.344c2.841.49,2.351,6.995,2.329,7.272Zm-3.983-.422h3.589c.059-1.076.226-6.245-1.991-6.628a.89.89,0,0,0-.815.236C1257.834,248.109,1258.167,252.41,1258.257,253.363Z" fill="#2e3c4b"/>
      <rect id="Rectangle_180" data-name="Rectangle 180" width="0.422" height="16.965" transform="translate(1232.293 186.028) rotate(-2.556)" fill="#2e3c4b"/>
      <rect id="Rectangle_181" data-name="Rectangle 181" width="16.624" height="0.423" transform="translate(1237.068 203.307) rotate(-88.552)" fill="#2e3c4b"/>
      <rect id="Rectangle_182" data-name="Rectangle 182" width="0.423" height="16.693" transform="translate(1242.33 186.563) rotate(-1.838)" fill="#2e3c4b"/>
      <rect id="Rectangle_183" data-name="Rectangle 183" width="0.423" height="16.411" transform="translate(1248.488 186.556)" fill="#2e3c4b"/>
      <rect id="Rectangle_184" data-name="Rectangle 184" width="0.423" height="16.475" transform="translate(1251.986 186.368) rotate(-1.244)" fill="#2e3c4b"/>
      <rect id="Rectangle_185" data-name="Rectangle 185" width="0.423" height="16.589" transform="translate(1254.993 186.311) rotate(-4.442)" fill="#2e3c4b"/>
      <path id="Path_1986" data-name="Path 1986" d="M1244.713,175.441a1,1,0,0,1-.619-.172c-.362-.267-.438-.79-.533-1.623a1.64,1.64,0,0,1,1.569-1.784l.029,0,.028.005c.957.15,1.947.3,1.947,1.55,0,1.12-.571,1.727-1.852,1.965A3.153,3.153,0,0,1,1244.713,175.441Zm.44-3.155c-.193.03-1.294.247-1.173,1.312.08.7.149,1.172.365,1.331.146.108.411.118.86.035,1.084-.2,1.506-.637,1.506-1.55C1246.711,172.658,1246.34,172.474,1245.153,172.286Z" fill="#2e3c4b"/>
      <path id="Path_1987" data-name="Path 1987" d="M1270.115,186.222l-.114-.407,9.924-2.77.114.407Z" fill="#2e3c4b"/>
      <rect id="Rectangle_186" data-name="Rectangle 186" width="5.834" height="0.423" transform="translate(1274.148 193.029)" fill="#2e3c4b"/>
      <rect id="Rectangle_187" data-name="Rectangle 187" width="0.423" height="6.325" transform="translate(1271.34 199.129) rotate(-62.876)" fill="#2e3c4b"/>
      <path id="Path_1988" data-name="Path 1988" d="M1219.428,186.459c-.907-.741-7.068-3.593-7.13-3.621l.177-.384a80.519,80.519,0,0,1,7.221,3.677Z" fill="#2e3c4b"/>
      <path id="Path_1989" data-name="Path 1989" d="M1211.122,192.983l-.018-.423,7.749-.335.018.423Z" fill="#2e3c4b"/>
      <rect id="Rectangle_188" data-name="Rectangle 188" width="6.708" height="0.423" transform="matrix(0.904, -0.427, 0.427, 0.904, 1209.817, 203.052)" fill="#2e3c4b"/>
      <path id="Path_1990" data-name="Path 1990" d="M1261,214.075H1261a.211.211,0,0,1-.207-.216c.093-3.814.1-9.713-.243-10.331-.49-.629-8.911-.6-15.556-.151a83.829,83.829,0,0,1-8.6-.083c-2.959-.127-6.314-.271-6.579.18-.674,1.149-.208,7.631.028,10.031a.212.212,0,0,1-.189.231.21.21,0,0,1-.232-.19c-.035-.358-.853-8.784.028-10.286.377-.641,2.647-.574,6.962-.388a83.51,83.51,0,0,0,8.55.083c.152-.01,15.222-.939,15.954.366.515.918.321,9.565.3,10.548A.211.211,0,0,1,1261,214.075Z"/>
    </g>
    <g id="Group_290" data-name="Group 290">
      <g id="Group_276" data-name="Group 276">
        <path id="Path_1991" data-name="Path 1991" d="M1275.02,242.129c-2.054.589-9.559,34.044-10.115,34.89s44.483,17.62,46.809,16.74,14.167-38.678,13.322-40.4S1277.233,241.495,1275.02,242.129Z" fill="#f2edeb"/>
        <path id="Path_1992" data-name="Path 1992" d="M1311.484,293.985c-2.764,0-18.668-5.7-23.665-7.52-10.7-3.892-22.414-8.458-23.052-9.255a.246.246,0,0,1-.029-.3c.159-.274,1.012-3.7,2-7.669,3.519-14.154,6.8-26.892,8.23-27.3l.055.192-.055-.192c1.19-.333,13.788,2.124,25.618,4.732,5.626,1.24,24.029,5.383,24.631,6.6.723,1.469-6.322,24.459-10.448,34.925-1.918,4.865-2.621,5.61-2.983,5.747A.9.9,0,0,1,1311.484,293.985Zm-46.355-16.977c.922.76,11.183,4.845,22.817,9.077,13.261,4.824,22.783,7.837,23.7,7.487.2-.077.877-.769,2.751-5.52,4.55-11.544,11.023-33.46,10.46-34.6-.459-.7-10.529-3.345-24.482-6.419-13.228-2.914-24.33-4.991-25.3-4.71h0c-1.33.381-5.8,18.369-7.951,27.014C1265.974,273.967,1265.361,276.413,1265.129,277.008Zm-.056.12Zm0,0Z" fill="#2e3c4b"/>
      </g>
      <path id="Path_1993" data-name="Path 1993" d="M1325.629,253.692a1.588,1.588,0,0,1-.679-.148c-.9-.419-10.681-7.7-20.393-15.29-8.721-6.812-19.142-15.226-19.262-16.63h0c-.079-.918,4.088-4.142,5.856-4.744.537-.184.9-.145,1.066.115.232.323,4.474,3.684,9.386,7.576,19.6,15.531,29.451,23.613,28.9,24.684C1329.845,250.522,1327.553,253.692,1325.629,253.692Zm-39.936-32.1c.082.954,7.226,7.067,19.11,16.349,9.435,7.371,19.444,14.835,20.317,15.243,1.525.716,4.086-2.3,5.025-4.11-.028-1.4-18.739-16.222-28.791-24.188-6.25-4.953-9.265-7.348-9.473-7.673-.032-.047-.19-.091-.585.042C1289.405,217.885,1285.652,221.038,1285.693,221.59Z" fill="#2e3c4b"/>
      <g id="Group_277" data-name="Group 277">
        <line id="Line_1005" data-name="Line 1005" y1="2.391" x2="10.104" transform="translate(1288.241 222.244)" fill="#f2edeb"/>
        <rect id="Rectangle_189" data-name="Rectangle 189" width="10.384" height="0.4" transform="translate(1288.194 224.435) rotate(-13.257)" fill="#2e3c4b"/>
      </g>
      <g id="Group_278" data-name="Group 278">
        <line id="Line_1006" data-name="Line 1006" y1="1.919" x2="11.129" transform="translate(1293.293 227.061)" fill="#f2edeb"/>
        <rect id="Rectangle_190" data-name="Rectangle 190" width="11.293" height="0.4" transform="translate(1293.26 228.788) rotate(-9.83)" fill="#2e3c4b"/>
      </g>
      <g id="Group_279" data-name="Group 279">
        <line id="Line_1007" data-name="Line 1007" y1="3.324" x2="9.477" transform="translate(1301.03 231.904)" fill="#f2edeb"/>
        <rect id="Rectangle_191" data-name="Rectangle 191" width="10.044" height="0.401" transform="translate(1300.964 235.041) rotate(-19.363)" fill="#2e3c4b"/>
      </g>
      <g id="Group_280" data-name="Group 280">
        <line id="Line_1008" data-name="Line 1008" y1="3.071" x2="9.632" transform="translate(1306.932 236.779)" fill="#f2edeb"/>
        <rect id="Rectangle_192" data-name="Rectangle 192" width="10.11" height="0.4" transform="translate(1306.87 239.656) rotate(-17.638)" fill="#2e3c4b"/>
      </g>
      <g id="Group_281" data-name="Group 281">
        <line id="Line_1009" data-name="Line 1009" y1="3.823" x2="8.269" transform="translate(1313.752 241.264)" fill="#f2edeb"/>
        <rect id="Rectangle_193" data-name="Rectangle 193" width="9.111" height="0.4" transform="translate(1313.668 244.906) rotate(-24.814)" fill="#2e3c4b"/>
      </g>
      <g id="Group_282" data-name="Group 282">
        <line id="Line_1010" data-name="Line 1010" y1="3.936" x2="7.365" transform="translate(1319.862 245.745)" fill="#f2edeb"/>
        <path id="Path_1994" data-name="Path 1994" d="M1319.957,249.858l-.189-.353,7.365-3.937.189.353Z" fill="#2e3c4b"/>
      </g>
      <g id="Group_283" data-name="Group 283">
        <line id="Line_1011" data-name="Line 1011" y1="6.088" x2="8.978" transform="translate(1274.594 243.328)" fill="#f2edeb"/>
        <path id="Path_1995" data-name="Path 1995" d="M1274.707,249.583l-.227-.335,8.979-6.088.227.335Z" fill="#2e3c4b"/>
      </g>
      <g id="Group_284" data-name="Group 284">
        <line id="Line_1012" data-name="Line 1012" y1="6.135" x2="9.363" transform="translate(1282.441 245.077)" fill="#f2edeb"/>
        <path id="Path_1996" data-name="Path 1996" d="M1282.553,251.381l-.223-.339,9.363-6.135.223.339Z" fill="#2e3c4b"/>
      </g>
      <g id="Group_285" data-name="Group 285">
        <line id="Line_1013" data-name="Line 1013" y1="6.507" x2="7.411" transform="translate(1291.467 246.565)" fill="#f2edeb"/>
        <rect id="Rectangle_194" data-name="Rectangle 194" width="9.863" height="0.406" transform="translate(1291.334 252.92) rotate(-41.29)" fill="#2e3c4b"/>
      </g>
      <g id="Group_286" data-name="Group 286">
        <line id="Line_1014" data-name="Line 1014" y1="6.347" x2="7.963" transform="translate(1298.71 248.407)" fill="#f2edeb"/>
        <rect id="Rectangle_195" data-name="Rectangle 195" width="10.183" height="0.404" transform="translate(1298.582 254.594) rotate(-38.53)" fill="#2e3c4b"/>
      </g>
      <g id="Group_287" data-name="Group 287">
        <line id="Line_1015" data-name="Line 1015" y1="6.91" x2="6.233" transform="translate(1307.225 249.908)" fill="#f2edeb"/>
        <rect id="Rectangle_196" data-name="Rectangle 196" width="9.306" height="0.405" transform="matrix(0.67, -0.742, 0.742, 0.67, 1307.074, 256.681)" fill="#2e3c4b"/>
      </g>
      <g id="Group_288" data-name="Group 288">
        <line id="Line_1016" data-name="Line 1016" y1="6.758" x2="6.181" transform="translate(1313.519 251.565)" fill="#f2edeb"/>
        <rect id="Rectangle_197" data-name="Rectangle 197" width="9.158" height="0.405" transform="translate(1313.369 258.186) rotate(-47.54)" fill="#2e3c4b"/>
      </g>
      <g id="Group_289" data-name="Group 289">
        <line id="Line_1017" data-name="Line 1017" x2="51.251" y2="11.728" transform="translate(1272.293 248.889)" fill="#f2edeb"/>
        <path id="Path_1997" data-name="Path 1997" d="M1323.5,260.815l-51.252-11.728.09-.395,51.252,11.728Z" fill="#2e3c4b"/>
      </g>
      <path id="Path_1998" data-name="Path 1998" d="M1308.7,267.835l-27.595-7.024.1-.388,27.595,7.024Z" fill="#2e3c4b"/>
      <path id="Path_1999" data-name="Path 1999" d="M1304.892,277.265l-25.864-7.454.111-.385L1305,276.88Z" fill="#2e3c4b"/>
      <rect id="Rectangle_198" data-name="Rectangle 198" width="0.4" height="26.232" transform="translate(1279.014 273.533) rotate(-69.657)" fill="#2e3c4b"/>
    </g>
  </g>
</svg>
