<svg xmlns="http://www.w3.org/2000/svg" width="382.077" height="365.358" viewBox="0 0 382.077 365.358">
  <g id="CIEKAWOSTKA" transform="translate(-36.5 -1552.42)">
    <path id="Path_1283" data-name="Path 1283" d="M797.647-7442.122c22.986-26.11,324.68-19.118,341.8,0s24.791,304.5,6.043,328-330.468,26.918-347.847,8.529S774.661-7416.012,797.647-7442.122Z" transform="translate(-737.824 9011.604)" fill="#e5a34c"/>
    <text id="CIEKAWOSTKA-2" data-name="CIEKAWOSTKA" transform="translate(36.5 1579.358)" fill="#2e3c4b" font-size="22" font-family="SulphurPoint-Bold, Sulphur Point" font-weight="700" letter-spacing="0.025em"><tspan x="119.942" y="17">CIEKAWOSTKA</tspan></text>
    <rect id="Rectangle_45" data-name="Rectangle 45" width="12.483" height="2.497" transform="translate(218.128 1604.324)" fill="#ae4426"/>
    <text id="Latarnia_w_Świnoujściu_jest_najwyższą_ze_wszystkich_latarni_na_polskim_wybrzeżu" data-name="Latarnia w Świnoujściu jest najwyższą ze wszystkich latarni na polskim wybrzeżu" transform="translate(76.58 1825.288)" fill="#2e3c4b" font-size="20" font-family="ClarikaProGeo-Th, Clarika Pro Geometric" letter-spacing="0.025em"><tspan x="38.179" y="20">Latarnia w Świnoujściu jest </tspan><tspan x="13.802" y="38" font-family="ClarikaProGeo-Dm, Clarika Pro Geometric">najwyższą</tspan><tspan y="38" xml:space="preserve"> ze wszystkich latarni </tspan><tspan x="64.863" y="56">na polskim wybrzeżu</tspan></text>
    <g id="Group_181" data-name="Group 181" transform="translate(134.652 1625.551)">
      <path id="Path_1327" data-name="Path 1327" d="M888.029-7349.674c5.516-15.086,18.484-46.185,43.66-46.742s94.315-3,111.88,18.051,20.67,37.466,18.08,70.665-11.5,52.475-22,70.137-55.2,31.273-95.374,29.708-69.436-25.383-68.657-57.982,14.83-36.955,12.407-51.118S882.513-7334.588,888.029-7349.674Z" transform="translate(-875.607 7396.792)" fill="#f2edeb"/>
      <g id="swinoujscie" transform="translate(31.313 14.3)">
        <path id="Path_1284" data-name="Path 1284" d="M82.438,145.651c.263-.475.014-15.091.014-15.684a10.3,10.3,0,0,1,1.057-2.359c.131-.355.716-4.457.388-4.7a11.484,11.484,0,0,0-3.547-.592c-2.5,0-19.312.178-19.312.178a3.558,3.558,0,0,0-2.124.474c-.475.277.322,4.981.533,5.3a20.04,20.04,0,0,1,1.2,2.174c.394.83-.471,13.967-.4,15.926,0,0,.785,10.6.689,14.375v20.985" transform="translate(-34.355 -30.25)" fill="none" stroke="#2e3c4b" stroke-miterlimit="10" stroke-width="0.7"/>
        <path id="Path_1285" data-name="Path 1285" d="M62.147,127.7c1.02-13.239,2.785-64.682,2.33-65.3a6.511,6.511,0,0,1-1.4-2.292c-.263-1-.482-4.585,0-5.019,1.019-.915,16.291-.5,16.652.142.53.947-.153,3.4-.229,4.6a12.367,12.367,0,0,1-1.2,2.564c-.169.457,1.07,51.1,1.787,65.122" transform="translate(-34.095 -35.46)" fill="none" stroke="#2e3c4b" stroke-miterlimit="10" stroke-width="0.7"/>
        <path id="Path_1286" data-name="Path 1286" d="M67.3,54.994s-.788-5.184,0-5.659,8.408-.474,9.065,0,.657,5.931.657,5.931" transform="translate(-33.726 -35.889)" fill="none" stroke="#2e3c4b" stroke-miterlimit="10" stroke-width="0.7"/>
        <path id="Path_1287" data-name="Path 1287" d="M64.994,122.482s.2,4.423.985,5.965c.424.828.246,5.671.258,10.222,0,1.13-6.089,6.571-6.089,6.571" transform="translate(-34.249 -30.238)" fill="none" stroke="#2e3c4b" stroke-miterlimit="10" stroke-width="0.7"/>
        <path id="Path_1288" data-name="Path 1288" d="M75.266,122.482a41.577,41.577,0,0,1-.723,5.846A53.96,53.96,0,0,0,73.5,138.712c0,1.825,7.811,6.927,7.811,6.927" transform="translate(-33.223 -30.238)" fill="none" stroke="#2e3c4b" stroke-miterlimit="10" stroke-width="0.7"/>
        <path id="Path_1289" data-name="Path 1289" d="M68.234,101.236s0-3.641.92-3.717,1.27,3.717,1.27,3.717Z" transform="translate(-33.627 -32.157)" fill="none" stroke="#2e3c4b" stroke-miterlimit="10" stroke-width="0.7"/>
        <path id="Path_1290" data-name="Path 1290" d="M69.012,136.017s-.152-2.515.768-2.592.811,2.592.811,2.592Z" transform="translate(-33.568 -29.397)" fill="none" stroke="#2e3c4b" stroke-miterlimit="10" stroke-width="0.7"/>
        <path id="Path_1291" data-name="Path 1291" d="M70.048,154.578s-.191-4.936.961-5.087,1.015,5.087,1.015,5.087Z" transform="translate(-33.488 -28.162)" fill="none" stroke="#2e3c4b" stroke-miterlimit="10" stroke-width="0.7"/>
        <path id="Path_1292" data-name="Path 1292" d="M73.493,77.631s-.723-4.861.559-4.624,1.359,4.624,1.359,4.624Z" transform="translate(-33.238 -34.043)" fill="none" stroke="#2e3c4b" stroke-miterlimit="10" stroke-width="0.7"/>
        <path id="Path_1293" data-name="Path 1293" d="M65.614,61.858s-2.115-3.912-.765-4.071,2.292,4.071,2.292,4.071Z" transform="translate(-33.922 -35.212)" fill="none" stroke="#2e3c4b" stroke-miterlimit="10" stroke-width="0.7"/>
        <path id="Path_1294" data-name="Path 1294" d="M68.319,62.041s-.626-3.916.235-4.074c.967-.179,1.55,3.636,1.381,4.123Z" transform="translate(-33.637 -35.199)" fill="none" stroke="#2e3c4b" stroke-miterlimit="10" stroke-width="0.7"/>
        <path id="Path_1295" data-name="Path 1295" d="M71.4,61.933s.548-3.912,1.551-3.834,0,3.834,0,3.834Z" transform="translate(-33.383 -35.188)" fill="none" stroke="#2e3c4b" stroke-miterlimit="10" stroke-width="0.7"/>
        <path id="Path_1296" data-name="Path 1296" d="M74.469,61.827s1.191-3.714,2.156-3.636-.411,3.636-.411,3.636Z" transform="translate(-33.148 -35.181)" fill="none" stroke="#2e3c4b" stroke-miterlimit="10" stroke-width="0.7"/>
        <path id="Path_1297" data-name="Path 1297" d="M62.267,129.395s-1.341-4.036-.192-4.115,2.086,4.115,2.086,4.115Z" transform="translate(-34.136 -30.023)" fill="none" stroke="#2e3c4b" stroke-miterlimit="10" stroke-width="0.7"/>
        <path id="Path_1298" data-name="Path 1298" d="M67.707,129.2s-.926-4.146.279-3.913c1.628.313,2.117,4.018,1.743,3.916Z" transform="translate(-33.694 -30.023)" fill="none" stroke="#2e3c4b" stroke-miterlimit="10" stroke-width="0.7"/>
        <path id="Path_1299" data-name="Path 1299" d="M70.918,129.286s-.416-3.913,1.22-3.913c.921,0,.92,3.913.92,3.913Z" transform="translate(-33.424 -30.016)" fill="none" stroke="#2e3c4b" stroke-miterlimit="10" stroke-width="0.7"/>
        <path id="Path_1300" data-name="Path 1300" d="M76.95,129.2s.753-4.039,1.76-3.921.262,3.921.262,3.921Z" transform="translate(-32.957 -30.023)" fill="none" stroke="#2e3c4b" stroke-miterlimit="10" stroke-width="0.7"/>
        <path id="Path_1301" data-name="Path 1301" d="M63.064,55.286s-.93-2.041-.733-2.812,17.954-.118,18.535,0-1.15,2.954-1.15,2.954" transform="translate(-34.083 -35.649)" fill="none" stroke="#2e3c4b" stroke-miterlimit="10" stroke-width="0.7"/>
        <path id="Path_1302" data-name="Path 1302" d="M67.119,50.059l-.174-7.409h9.722L76.01,49.7" transform="translate(-33.726 -36.376)" fill="none" stroke="#2e3c4b" stroke-miterlimit="10" stroke-width="0.7"/>
        <path id="Path_1303" data-name="Path 1303" d="M76.848,42.921c.481-.237-4.563-4.436-5.958-4.514s-4.9,4.36-4.6,4.439l.963.13" transform="translate(-33.778 -36.702)" fill="none" stroke="#2e3c4b" stroke-miterlimit="10" stroke-width="0.7"/>
        <path id="Path_1304" data-name="Path 1304" d="M70.557,36.829c.47.073,1.046.277,1.046.752s-.429.786-1.046.948-.969.04-.969-.632A1.015,1.015,0,0,1,70.557,36.829Z" transform="translate(-33.523 -36.824)" fill="none" stroke="#2e3c4b" stroke-miterlimit="10" stroke-width="0.7"/>
        <path id="Path_1305" data-name="Path 1305" d="M37.893,157.429s-.486,18.468,1.252,20.25,67.25,2.275,68.119,1.236.761-21.212.761-21.212" transform="translate(-35.965 -27.551)" fill="none" stroke="#2e3c4b" stroke-miterlimit="10" stroke-width="0.7"/>
        <path id="Path_1306" data-name="Path 1306" d="M59.724,144" transform="translate(-34.281 -28.584)" fill="none" stroke="#2e3c4b" stroke-miterlimit="10" stroke-width="0.7"/>
        <path id="Path_1307" data-name="Path 1307" d="M80.748,143.985l.628,16.2-.628,20.17" transform="translate(-32.665 -28.585)" fill="none" stroke="#2e3c4b" stroke-miterlimit="10" stroke-width="0.7"/>
        <path id="Path_1308" data-name="Path 1308" d="M41.895,160.932c.537-.125,3.564-.3,3.825,0s.608,4.977,0,5.422-3.042,1.032-3.3.4S41.2,161.093,41.895,160.932Z" transform="translate(-35.671 -27.294)" fill="none" stroke="#2e3c4b" stroke-miterlimit="10" stroke-width="0.7"/>
        <path id="Path_1309" data-name="Path 1309" d="M50.518,160.794c.208-.6,3.563-.387,3.738,0s.521,5.8,0,5.992-3.129.478-3.39,0A27.637,27.637,0,0,1,50.518,160.794Z" transform="translate(-34.993 -27.321)" fill="none" stroke="#2e3c4b" stroke-miterlimit="10" stroke-width="0.7"/>
        <path id="Path_1310" data-name="Path 1310" d="M42.216,168.455c.356-.082,3.892-.446,3.815,0s.424,4.976,0,5.348-3.034,0-3.294,0S41.565,168.6,42.216,168.455Z" transform="translate(-35.645 -26.72)" fill="none" stroke="#2e3c4b" stroke-miterlimit="10" stroke-width="0.7"/>
        <path id="Path_1311" data-name="Path 1311" d="M50.767,168.247a8.462,8.462,0,0,1,3.042,0c.521.143.608,5.524.348,5.73a5.842,5.842,0,0,1-2.782,0C50.94,173.738,50.332,168.772,50.767,168.247Z" transform="translate(-34.982 -26.73)" fill="none" stroke="#2e3c4b" stroke-miterlimit="10" stroke-width="0.7"/>
        <line id="Line_645" data-name="Line 645" x2="4.247" transform="translate(6.131 136.411)" fill="none" stroke="#2e3c4b" stroke-miterlimit="10" stroke-width="0.7"/>
        <line id="Line_646" data-name="Line 646" x2="0.27" y2="5.983" transform="translate(8.181 133.481)" fill="none" stroke="#2e3c4b" stroke-miterlimit="10" stroke-width="0.7"/>
        <line id="Line_647" data-name="Line 647" y2="5.7" transform="translate(8.45 141.547)" fill="none" stroke="#2e3c4b" stroke-miterlimit="10" stroke-width="0.7"/>
        <line id="Line_648" data-name="Line 648" x2="4.045" y2="0.175" transform="translate(6.341 144.223)" fill="none" stroke="#2e3c4b" stroke-miterlimit="10" stroke-width="0.7"/>
        <line id="Line_649" data-name="Line 649" x2="4.069" y2="0.235" transform="translate(15.468 136.237)" fill="none" stroke="#2e3c4b" stroke-miterlimit="10" stroke-width="0.7"/>
        <line id="Line_650" data-name="Line 650" x2="0.239" y2="6.613" transform="translate(17.264 133.099)" fill="none" stroke="#2e3c4b" stroke-miterlimit="10" stroke-width="0.7"/>
        <line id="Line_651" data-name="Line 651" x2="0.264" y2="5.86" transform="translate(17.477 141.387)" fill="none" stroke="#2e3c4b" stroke-miterlimit="10" stroke-width="0.7"/>
        <line id="Line_652" data-name="Line 652" x2="3.569" y2="0.406" transform="translate(15.735 144.223)" fill="none" stroke="#2e3c4b" stroke-miterlimit="10" stroke-width="0.7"/>
        <path id="Path_1312" data-name="Path 1312" d="M100.242,174.332c-.537.125-3.563.3-3.824,0s-.608-4.976,0-5.422,3.042-1.032,3.3-.4S100.938,174.17,100.242,174.332Z" transform="translate(-31.486 -26.721)" fill="none" stroke="#2e3c4b" stroke-miterlimit="10" stroke-width="0.7"/>
        <path id="Path_1313" data-name="Path 1313" d="M91.594,174.5c-.208.6-3.563.388-3.737,0s-.522-5.8,0-5.991,3.128-.479,3.389,0A27.555,27.555,0,0,1,91.594,174.5Z" transform="translate(-32.139 -26.72)" fill="none" stroke="#2e3c4b" stroke-miterlimit="10" stroke-width="0.7"/>
        <path id="Path_1314" data-name="Path 1314" d="M99.907,166.772c-.356.081-3.892.445-3.814,0s-.425-4.977,0-5.349,3.033,0,3.293,0S100.558,166.623,99.907,166.772Z" transform="translate(-31.498 -27.257)" fill="none" stroke="#2e3c4b" stroke-miterlimit="10" stroke-width="0.7"/>
        <path id="Path_1315" data-name="Path 1315" d="M91.318,167a8.51,8.51,0,0,1-3.042,0c-.521-.143-.608-5.526-.348-5.731a5.856,5.856,0,0,1,2.782,0C91.145,161.509,91.753,166.476,91.318,167Z" transform="translate(-32.124 -27.269)" fill="none" stroke="#2e3c4b" stroke-miterlimit="10" stroke-width="0.7"/>
        <line id="Line_653" data-name="Line 653" x1="4.247" transform="translate(64.602 144.837)" fill="none" stroke="#2e3c4b" stroke-miterlimit="10" stroke-width="0.7"/>
        <line id="Line_654" data-name="Line 654" x1="0.27" y1="5.983" transform="translate(66.53 141.785)" fill="none" stroke="#2e3c4b" stroke-miterlimit="10" stroke-width="0.7"/>
        <line id="Line_655" data-name="Line 655" y1="5.7" transform="translate(66.53 134.001)" fill="none" stroke="#2e3c4b" stroke-miterlimit="10" stroke-width="0.7"/>
        <line id="Line_656" data-name="Line 656" x1="4.045" y1="0.175" transform="translate(64.593 136.851)" fill="none" stroke="#2e3c4b" stroke-miterlimit="10" stroke-width="0.7"/>
        <line id="Line_657" data-name="Line 657" x1="4.069" y1="0.235" transform="translate(55.442 144.776)" fill="none" stroke="#2e3c4b" stroke-miterlimit="10" stroke-width="0.7"/>
        <line id="Line_658" data-name="Line 658" x1="0.239" y1="6.613" transform="translate(57.477 141.536)" fill="none" stroke="#2e3c4b" stroke-miterlimit="10" stroke-width="0.7"/>
        <line id="Line_659" data-name="Line 659" x1="0.264" y1="5.86" transform="translate(57.239 134.001)" fill="none" stroke="#2e3c4b" stroke-miterlimit="10" stroke-width="0.7"/>
        <line id="Line_660" data-name="Line 660" x1="3.569" y1="0.406" transform="translate(55.676 136.62)" fill="none" stroke="#2e3c4b" stroke-miterlimit="10" stroke-width="0.7"/>
        <line id="Line_661" data-name="Line 661" x2="0.321" y2="6.817" transform="translate(36.578 6.308)" fill="none" stroke="#2e3c4b" stroke-miterlimit="10" stroke-width="0.7"/>
        <line id="Line_662" data-name="Line 662" x1="0.405" y2="6.872" transform="translate(40.626 6.321)" fill="none" stroke="#2e3c4b" stroke-miterlimit="10" stroke-width="0.7"/>
        <line id="Line_663" data-name="Line 663" y1="1.643" x2="4.099" transform="translate(49.004 3.989)" fill="none" stroke="#2e3c4b" stroke-miterlimit="10" stroke-width="0.7"/>
        <line id="Line_664" data-name="Line 664" y1="0.329" x2="4.82" transform="translate(50.265 9.325)" fill="none" stroke="#2e3c4b" stroke-miterlimit="10" stroke-width="0.7"/>
        <line id="Line_665" data-name="Line 665" x2="2.995" y2="1.505" transform="translate(49.68 13.091)" fill="none" stroke="#2e3c4b" stroke-miterlimit="10" stroke-width="0.7"/>
        <line id="Line_666" data-name="Line 666" x1="2.844" y1="1.335" transform="translate(23.735 4.026)" fill="none" stroke="#2e3c4b" stroke-miterlimit="10" stroke-width="0.7"/>
        <line id="Line_667" data-name="Line 667" x1="4.665" y2="0.18" transform="translate(20.492 9.145)" fill="none" stroke="#2e3c4b" stroke-miterlimit="10" stroke-width="0.7"/>
        <line id="Line_668" data-name="Line 668" x1="2.883" y2="1.383" transform="translate(21.437 13.843)" fill="none" stroke="#2e3c4b" stroke-miterlimit="10" stroke-width="0.7"/>
        <path id="Path_1316" data-name="Path 1316" d="M62.677,158.491c-2.16.573-24.886.94-26.537-.466-.361-.307,1.7-12.17,2.237-12.89s21.636-1.152,23.621-1.52" transform="translate(-36.098 -28.613)" fill="none" stroke="#2e3c4b" stroke-miterlimit="10" stroke-width="0.7"/>
        <path id="Path_1317" data-name="Path 1317" d="M80.748,143.987c1.18-.243,21.525.994,22.9,1.354.963.252,3.015,12.166,2.523,13.124s-22.905.744-24.8.293" transform="translate(-32.665 -28.587)" fill="none" stroke="#2e3c4b" stroke-miterlimit="10" stroke-width="0.7"/>
        <path id="Path_1318" data-name="Path 1318" d="M69.517,171.761c-.068-.473-.079-5.129,1.357-5.43s1.2,5.547,1.2,5.547Z" transform="translate(-33.53 -26.867)" fill="none" stroke="#2e3c4b" stroke-miterlimit="10" stroke-width="0.7"/>
      </g>
      <line id="Line_669" data-name="Line 669" y1="0.735" x2="1.567" transform="translate(116.342 14.689)" fill="none" stroke="#2e3c4b" stroke-miterlimit="10" stroke-width="0.7"/>
      <path id="Path_1319" data-name="Path 1319" d="M117.393,187.033l1.281,1.248s-3.643-66.942-3.643-81.289,1.594-69.807,1.594-69.807l2.049,1.511" transform="translate(1.284 -22.496)" fill="none" stroke="#2e3c4b" stroke-miterlimit="10" stroke-width="0.7"/>
      <line id="Line_670" data-name="Line 670" x1="1.509" y2="1.433" transform="translate(119.958 164.352)" fill="none" stroke="#2e3c4b" stroke-miterlimit="10" stroke-width="0.7"/>
      <path id="Path_1320" data-name="Path 1320" d="M128.015,96.7a5.359,5.359,0,0,0-6.575.065,7.475,7.475,0,0,0-2.617,6.326,12.644,12.644,0,0,0,2.566,6.544,5.936,5.936,0,0,0,2.354,2.136,2.522,2.522,0,0,0,2.941-.569,2.929,2.929,0,0,0,.388-2.308,5.071,5.071,0,0,0-2.844-3.764,3.848,3.848,0,0,0-4.448,1.036" transform="translate(5.667 -17.901)" fill="none" stroke="#2e3c4b" stroke-miterlimit="10" stroke-width="0.7"/>
      <path id="Path_1321" data-name="Path 1321" d="M121.5,95.655l7.311.661a.606.606,0,0,1,.361.111.574.574,0,0,1,.143.379,7.779,7.779,0,0,1-.86,3.741c-1.674,3.866-3.949,7.51-4.966,11.6" transform="translate(15.43 -17.698)" fill="none" stroke="#2e3c4b" stroke-miterlimit="10" stroke-width="0.7"/>
      <path id="Path_1322" data-name="Path 1322" d="M122.031,97.581a27.252,27.252,0,0,0,4.471-.106" transform="translate(17.347 -11.102)" fill="none" stroke="#2e3c4b" stroke-miterlimit="10" stroke-width="0.7"/>
      <path id="Path_1323" data-name="Path 1323" d="M124.326,99.278a24.462,24.462,0,0,1-1.151,3.251" transform="translate(21.493 -4.566)" fill="none" stroke="#2e3c4b" stroke-miterlimit="10" stroke-width="0.7"/>
      <path id="Path_1324" data-name="Path 1324" d="M124.648,95.57l10.362.291A7.427,7.427,0,0,1,134,99.653a56.72,56.72,0,0,0-4.411,14.516" transform="translate(26.831 -18.007)" fill="none" stroke="#2e3c4b" stroke-miterlimit="10" stroke-width="0.7"/>
      <path id="Path_1325" data-name="Path 1325" d="M125.527,97.371a38.778,38.778,0,0,0,5.285-.106" transform="translate(30.017 -11.861)" fill="none" stroke="#2e3c4b" stroke-miterlimit="10" stroke-width="0.7"/>
      <path id="Path_1326" data-name="Path 1326" d="M127.27,98.134c.3,2.585,1.059,7.653,1.461,7.663.356.023.032-2.613.365-3.871a5.324,5.324,0,0,1,2.113-3.168c1.757,1.041,2.206,3.339,2.478,5.36a6.015,6.015,0,0,1,.324-3.306A3.827,3.827,0,0,1,136.4,98.6a2.168,2.168,0,0,1,1.327.009,2.33,2.33,0,0,1,1.184,1.212c.781,1.619.425,3.542.851,5.286" transform="translate(36.333 -8.713)" fill="none" stroke="#2e3c4b" stroke-miterlimit="10" stroke-width="0.7"/>
    </g>
  </g>
</svg>
