<svg xmlns="http://www.w3.org/2000/svg" width="347" height="372.276" viewBox="0 0 347 372.276">
  <g id="CIEKAWOSTKA_port_pn" data-name="CIEKAWOSTKA port pn" transform="translate(-598 -80.724)">
    <path id="Path_1283" data-name="Path 1283" d="M612.114,98.108c21.329-26.6,301.272-19.48,317.158,0s23,310.271,5.608,334.216-306.643,27.428-322.769,8.69S590.786,124.713,612.114,98.108Z" fill="#e5a34c"/>
    <g id="CIEKAWOSTKA-2" style="isolation: isolate">
      <path id="Path_2876" data-name="Path 2876" d="M8.228.088A7.163,7.163,0,0,1,5.39-.484,7.224,7.224,0,0,1,3.036-2.09,7.4,7.4,0,0,1,1.452-4.444,7.217,7.217,0,0,1,.88-7.3a7.34,7.34,0,0,1,.561-2.86,7.326,7.326,0,0,1,1.6-2.376A7.4,7.4,0,0,1,5.39-14.124,7.163,7.163,0,0,1,8.228-14.7a7.158,7.158,0,0,1,3.124.7,7.9,7.9,0,0,1,2.64,2.09l-1.5,1.276a5.5,5.5,0,0,0-4.268-2.068,5.185,5.185,0,0,0-2.057.418A5.441,5.441,0,0,0,4.444-11.11,5.441,5.441,0,0,0,3.278-9.383,5.239,5.239,0,0,0,2.86-7.3a5.239,5.239,0,0,0,.418,2.079A5.441,5.441,0,0,0,4.444-3.5,5.441,5.441,0,0,0,6.171-2.332a5.185,5.185,0,0,0,2.057.418A5.5,5.5,0,0,0,12.5-3.982l1.5,1.276a8.154,8.154,0,0,1-2.651,2.09A7.088,7.088,0,0,1,8.228.088ZM16.522,0V-14.63H18.37V0Zm4.6,0V-14.63h8.008v1.98H23.034v4.444h4.092v1.8H23.034V-1.98h6.094V0ZM38.544,0l-4.73-5.39V0H31.878V-14.608h1.936v5.566l4.642-5.566h2.552L34.826-7.194,41.162,0Zm14.1,0-1.8-5.148H46.266L44.462,0h-2.09l5.082-14.608h2.2L54.736,0ZM48.554-11.77,46.882-7H50.2ZM67.76,0H65.8L63.536-6.226,61.358,0h-1.98l-5.3-14.652H56.21L60.346-3.19,62.458-9.2l-1.98-5.456h2.134l1.936,5.368L66.77-3.19l4-11.462h2.134ZM81.334.11a7.2,7.2,0,0,1-2.827-.561,7.112,7.112,0,0,1-2.343-1.595A7.364,7.364,0,0,1,74.58-4.411a7.242,7.242,0,0,1-.572-2.849,7.2,7.2,0,0,1,.561-2.827,7.358,7.358,0,0,1,1.6-2.365,7.431,7.431,0,0,1,2.343-1.584,7.084,7.084,0,0,1,2.827-.572,7.163,7.163,0,0,1,2.838.572,7.4,7.4,0,0,1,2.354,1.584A7.4,7.4,0,0,1,88.11-10.1a7.163,7.163,0,0,1,.572,2.838,7.242,7.242,0,0,1-.572,2.849,7.364,7.364,0,0,1-1.584,2.365A7.4,7.4,0,0,1,84.172-.462,7.163,7.163,0,0,1,81.334.11Zm0-12.716a5.306,5.306,0,0,0-2.057.407,5.292,5.292,0,0,0-1.727,1.155,5.292,5.292,0,0,0-1.155,1.727,5.306,5.306,0,0,0-.407,2.057,5.4,5.4,0,0,0,.418,2.1A5.3,5.3,0,0,0,77.55-3.432a5.292,5.292,0,0,0,1.727,1.155,5.306,5.306,0,0,0,2.057.407,5.306,5.306,0,0,0,2.057-.407,5.292,5.292,0,0,0,1.727-1.155,5.3,5.3,0,0,0,1.144-1.727,5.4,5.4,0,0,0,.418-2.1,5.306,5.306,0,0,0-.407-2.057,5.292,5.292,0,0,0-1.155-1.727A5.292,5.292,0,0,0,83.391-12.2,5.306,5.306,0,0,0,81.334-12.606ZM98.582-10.12a3.391,3.391,0,0,0-.462-1.408,2.406,2.406,0,0,0-.979-.869,3.487,3.487,0,0,0-1.485-.275,2.782,2.782,0,0,0-2.09.638,2.234,2.234,0,0,0-.572,1.65,2.425,2.425,0,0,0,.176,1,1.51,1.51,0,0,0,.528.627,3.681,3.681,0,0,0,1.738.484,12.146,12.146,0,0,1,2.079.341A5.589,5.589,0,0,1,99-7.3a3.474,3.474,0,0,1,1.606,3.168,3.881,3.881,0,0,1-.33,1.584,4.393,4.393,0,0,1-.924,1.342A4.43,4.43,0,0,1,97.691-.2,6.065,6.065,0,0,1,95.7.132a5.168,5.168,0,0,1-3.718-1.32,5.222,5.222,0,0,1-1.43-3.168l.044-.022h1.936a2.878,2.878,0,0,0,.792,1.738,3.272,3.272,0,0,0,2.31.792,3.473,3.473,0,0,0,2.2-.638,2,2,0,0,0,.814-1.65,2.4,2.4,0,0,0-.121-.8,1.357,1.357,0,0,0-.451-.605,5.572,5.572,0,0,0-2.794-.726,5.05,5.05,0,0,1-3.168-1.21,3.834,3.834,0,0,1-1.078-2.9A4.135,4.135,0,0,1,92.2-13.442a4.639,4.639,0,0,1,3.432-1.232A4.6,4.6,0,0,1,99.2-13.288a5.513,5.513,0,0,1,1.364,3.168Zm8.712-2.64V0h-1.936V-12.76h-3.542v-1.87h9.02v1.87ZM120.032,0,115.3-5.39V0h-1.936V-14.608H115.3v5.566l4.642-5.566H122.5l-6.182,7.414L122.65,0Zm14.1,0-1.8-5.148h-4.576L125.95,0h-2.09l5.082-14.608h2.2L136.224,0Zm-4.092-11.77L128.37-7h3.322Z" transform="translate(697.492 124.662)" fill="#2e3c4b"/>
    </g>
    <rect id="Rectangle_45" data-name="Rectangle 45" width="12.483" height="2.497" transform="translate(759.178 132.628)" fill="#ae4426"/>
    <g id="Group_181" data-name="Group 181">
      <path id="Path_1327" data-name="Path 1327" d="M688.124,200.973c5.516-15.086,18.484-46.185,43.66-46.742s94.315-3,111.88,18.05,20.67,37.466,18.08,70.666-11.5,52.475-22,70.137-55.2,31.273-95.374,29.708-69.436-25.383-68.657-57.982,14.83-36.955,12.407-51.118S682.608,216.059,688.124,200.973Z" fill="#f2edeb"/>
    </g>
    <g id="gdansk_port" data-name="gdansk port">
      <path id="Path_1944" data-name="Path 1944" d="M761.361,321c-10.934,0-23.022-.105-23.669-.428-1.186-.593-1.179-11.194-.857-15.511.275-3.7.687-3.838.885-3.9.992-.324,16.612-.645,30.705-.806,6.885-.079,29.4-.3,29.983.192.669.557,1.062,8.845,1.1,9.788.1,2.132.359,9.142-.309,9.81-.642.643-21.637.8-30.634.842C766.33,320.995,763.876,321,761.361,321Zm-23.507-19.453c-.629.459-1.01,8.213-.69,14.091.231,4.26.692,4.556.712,4.567.689.276,14.088.438,30.5.37,17.578-.074,29.858-.372,30.559-.741.73-.782.028-18.005-.8-18.98C796.694,300.3,739.881,300.928,737.854,301.547Z" fill="#2e3c4b"/>
      <path id="Path_1945" data-name="Path 1945" d="M745.465,313.353c-.744,0-1.747-.048-2.984-.115a19.73,19.73,0,0,0-2.818-.057.24.24,0,0,1-.244,0c-.327-.186-.493-2.469-.493-6.786l.018-.084c.437-.983,7.224-.934,7.919-.625.2.087.437.352.568,1.636.171,1.7.063,5.421-.532,5.846A3.16,3.16,0,0,1,745.465,313.353Zm-5.251-.618c.478,0,1.208.035,2.289.093a19.337,19.337,0,0,0,4.157.005c.294-.257.591-3.339.354-5.537-.119-1.113-.316-1.234-.319-1.235-.786-.35-6.873-.167-7.358.392a45.506,45.506,0,0,0,.288,6.317A3.5,3.5,0,0,1,740.214,312.735Z" fill="#2e3c4b"/>
      <path id="Path_1946" data-name="Path 1946" d="M754.753,313.181c-2.394,0-5.5-.235-5.537-.254-.452-.2-.13-6.7-.114-6.759.038-.142.184-.2.318-.238a30.853,30.853,0,0,1,4.482-.524c2.421-.154,3.785-.114,4.05.118.67.585-.264,6.962-.48,7.322C757.32,313.1,756.159,313.181,754.753,313.181Zm-5.294-.614c.941.159,7.186.344,7.692.032.213-.413.915-6.281.527-6.77-.494-.309-7.313.115-8.188.506C749.411,307.042,749.351,311.825,749.459,312.567Z" fill="#2e3c4b"/>
      <path id="Path_1947" data-name="Path 1947" d="M765.252,313.4c-2.511,0-4.457-.071-4.569-.26-.178-.3-.626-5.163-.81-7.238l-.016-.176.172-.042c.192-.047,5.538-.065,9.049-.053,8.945.028,9.011.161,9.09.33h0a28.733,28.733,0,0,1,.009,6.584c-.059.176-.226.335-1.675.49C774.822,313.213,769.3,313.4,765.252,313.4Zm-4.228-.525c1.364.257,15.813.124,16.773-.494a32.615,32.615,0,0,0,.02-6.169c-1.293-.2-15.554-.223-17.516-.138C760.52,308.527,760.884,312.251,761.024,312.874Zm16.791-.507Z" fill="#2e3c4b"/>
      <path id="Path_1948" data-name="Path 1948" d="M784.331,313.618a11.781,11.781,0,0,1-3.158-.25c-.54-.35-1.773-6.24-1.535-7.329.061-.279.2-.357.313-.372l.03.2-.03-.2c.081-.012,8.19-.916,8.649.12.328.742.674,6.819-.06,7.407C788.175,313.487,786.165,313.618,784.331,313.618Zm-4.276-7.551c-.211.532.722,6.279,1.357,6.967.52.261,6.358.252,6.871-.16.459-.4.3-6.11-.06-6.921C787.836,305.45,781.837,305.817,780.055,306.067Z" fill="#2e3c4b"/>
      <path id="Path_1949" data-name="Path 1949" d="M792.058,313.364c-.129,0-.236,0-.317,0-.888-.024-1.005-.108-1.072-.222-.245-.413-.528-6.258-.122-7.218a.382.382,0,0,1,.25-.251h0c.051-.012,5.443-.936,6.611.042s.411,6.411.04,6.968S793.4,313.364,792.058,313.364Zm-1.043-.472c.712.207,5.686-.049,6.1-.448.352-.53.947-5.652.033-6.416-.89-.744-5.515-.117-6.213.033C790.587,306.63,790.829,312.13,791.015,312.892Zm-.045-.016" fill="#2e3c4b"/>
      <path id="Path_1950" data-name="Path 1950" d="M774.909,300.445c-.531-26.144-1.638-75.761-2.058-77.7-.912-.551-13.467-1.019-15.768-.6l1.116,78.3-.411.006-1.121-78.63.156-.041c1.327-.348,15.7-.146,16.368.724.535.7,1.867,65.048,2.128,77.94Z" fill="#2e3c4b"/>
      <path id="Path_1951" data-name="Path 1951" d="M773.037,222.827l-.018-.411c2.861-.127,4.178-.415,4.546-.99.662-1.038,4.846-29.963,4.6-31.725-.986-.6-15.443-3.042-16.244-3.042-1.245,0-15.578.824-16.5,1.488-.437,2.072,3.5,31.7,4.35,32.686.815.659,1.044.788,3.381.884l-.017.411c-2.358-.1-2.711-.238-3.63-.983-.941-.763-5.037-31.117-4.472-33.142.29-1.043,16.722-1.755,16.886-1.755.145,0,16.072,2.427,16.6,3.225.454.688-3.893,31.058-4.6,32.174C777.45,222.369,776.129,222.689,773.037,222.827ZM749.4,188.161Z" fill="#2e3c4b"/>
      <path id="Path_1952" data-name="Path 1952" d="M785.858,189.791c-.5,0-1.09-.024-1.259-.032l.017-.411a17.239,17.239,0,0,0,1.783.015,3.648,3.648,0,0,0-.062-2.3c-.771-.487-18.148-2.715-20.442-2.969-1.488-.157-20.881,1.51-21.573,1.706a2.228,2.228,0,0,0,.01.571,4.25,4.25,0,0,0,.555,1.71,22.46,22.46,0,0,0,4.311-.226l.063.407c-.452.069-4.121.46-4.593.167a4.243,4.243,0,0,1-.763-2.523c.022-.262.114-.427.274-.491.492-.2,20.095-1.918,21.762-1.73.2.022,20.17,2.465,20.712,3.115a3.892,3.892,0,0,1,.169,2.6c-.044.141-.115.309-.272.353A3.786,3.786,0,0,1,785.858,189.791Z" fill="#2e3c4b"/>
      <path id="Path_1953" data-name="Path 1953" d="M775.082,184.888l-.411-.026c.3-4.643.62-12.22.231-12.785-.89-.54-18.452-.861-19.68-.352-.2.744.193,8.195.493,12.795l-.411.026c-.134-2.069-.788-12.425-.429-13.055.071-.124.234-.185.647-.24,2.431-.326,18.949-.185,19.676.542C775.824,172.419,775.267,181.975,775.082,184.888Z" fill="#2e3c4b"/>
      <path id="Path_1954" data-name="Path 1954" d="M775.468,172.233l-.4-.089a21.414,21.414,0,0,0,.458-2.575c-1.573-.28-19.347-.877-20.727-.691a14.257,14.257,0,0,0,.376,2.846l-.4.082c-.394-1.932-.479-3.025-.255-3.25.071-.07.258-.256,10.241.062,4.585.146,10.2.383,10.939.569a.272.272,0,0,1,.218.172A13.675,13.675,0,0,1,775.468,172.233Z" fill="#2e3c4b"/>
      <rect id="Rectangle_149" data-name="Rectangle 149" width="0.411" height="2.649" transform="translate(756.087 168.664) rotate(-6.352)" fill="#2e3c4b"/>
      <rect id="Rectangle_150" data-name="Rectangle 150" width="0.411" height="2.609" transform="translate(758.368 168.666)" fill="#2e3c4b"/>
      <rect id="Rectangle_151" data-name="Rectangle 151" width="2.505" height="0.412" transform="matrix(0.17, -0.985, 0.985, 0.17, 763.552, 171.239)" fill="#2e3c4b"/>
      <rect id="Rectangle_152" data-name="Rectangle 152" width="2.468" height="0.411" transform="translate(765.624 171.312) rotate(-85.826)" fill="#2e3c4b"/>
      <rect id="Rectangle_153" data-name="Rectangle 153" width="0.411" height="2.449" transform="translate(767.397 168.922)" fill="#2e3c4b"/>
      <rect id="Rectangle_154" data-name="Rectangle 154" width="2.354" height="0.411" transform="matrix(0.085, -0.996, 0.996, 0.085, 771.111, 171.415)" fill="#2e3c4b"/>
      <rect id="Rectangle_155" data-name="Rectangle 155" width="2.471" height="0.411" transform="matrix(0.082, -0.997, 0.997, 0.082, 773.221, 171.647)" fill="#2e3c4b"/>
      <path id="Path_1955" data-name="Path 1955" d="M764.356,165.192h-6.217l-.029-.17c-.084-.482-.247-1.637.057-1.94.256-.257,6.077.172,6.116.195.1.055.35.2.1,1.743Zm-5.869-.41H764a4.369,4.369,0,0,0,.053-1.142c-.66-.09-4.984-.262-5.62-.226A4.323,4.323,0,0,0,758.487,164.782Z" fill="#2e3c4b"/>
      <rect id="Rectangle_156" data-name="Rectangle 156" width="0.411" height="1.742" transform="translate(760.323 163.245)" fill="#2e3c4b"/>
      <rect id="Rectangle_157" data-name="Rectangle 157" width="0.411" height="1.685" transform="translate(761.659 163.301)" fill="#2e3c4b"/>
      <path id="Path_1956" data-name="Path 1956" d="M784.461,197.328l-2.759-1.041c-.658-.032-10.97-.536-15.441-.787-4.583-.255-16.257.778-16.375.788l-2.72.9-.128-.391,2.766-.913c.164-.02,11.871-1.055,16.48-.8s15.363.782,15.471.788l.062.013,2.789,1.052Z" fill="#2e3c4b"/>
      <path id="Path_1957" data-name="Path 1957" d="M748.515,204.713l-.085-.4,2.349-.5c.146-.014,12.114-.976,15.229-.976,3.2,0,14.62.554,14.735.559l2.366.224-.038.409-2.357-.223c-.1-.005-11.521-.558-14.706-.558-3.1,0-15.05.961-15.17.971Z" fill="#2e3c4b"/>
      <rect id="Rectangle_158" data-name="Rectangle 158" width="0.411" height="7.876" transform="translate(755.304 195.638)" fill="#2e3c4b"/>
      <rect id="Rectangle_159" data-name="Rectangle 159" width="0.411" height="7.9" transform="translate(760.323 195.295)" fill="#2e3c4b"/>
      <rect id="Rectangle_160" data-name="Rectangle 160" width="0.411" height="7.812" transform="translate(769.843 195.408) rotate(-3.327)" fill="#2e3c4b"/>
      <path id="Path_1958" data-name="Path 1958" d="M775.473,203.205l-.411-.021c.09-1.721.392-7.357.47-7.608l.392.123-.2-.061.2.052C775.869,195.961,775.623,200.333,775.473,203.205Z" fill="#2e3c4b"/>
      <path id="Path_1959" data-name="Path 1959" d="M781.369,211.9l-1.822-.465c-.619.008-11.225.158-13.639.05-2.463-.113-13.982,0-14.1,0l-1.853.157-.034-.409,1.868-.159c.131,0,11.663-.113,14.138,0s13.529-.05,13.64-.051h.028l1.875.479Z" fill="#2e3c4b"/>
      <path id="Path_1960" data-name="Path 1960" d="M780.327,217.107h-1.546c-.128-.008-11.366-.814-12.852-.731-1.508.078-12.889,0-13.373,0l-1.487.357-.094-.4,1.535-.363c.1,0,5.283.03,9.207.03,2.006,0,3.684-.009,4.19-.035,1.515-.081,12.425.7,12.889.732h1.531Z" fill="#2e3c4b"/>
      <path id="Path_1961" data-name="Path 1961" d="M781.117,213.213l-1.8-.285h-.006c-.289,0-11.456-.085-13.475-.025-2.045.062-13.7,0-13.822,0l-1.724.239-.056-.407,1.754-.241c.066,0,5.255.025,9.317.025,2.058,0,3.833-.006,4.519-.027,2.047-.06,13.411.027,13.527.028l1.831.287Z" fill="#2e3c4b"/>
      <rect id="Rectangle_161" data-name="Rectangle 161" width="0.411" height="4.893" transform="matrix(0.999, -0.053, 0.053, 0.999, 755.565, 211.29)" fill="#2e3c4b"/>
      <rect id="Rectangle_162" data-name="Rectangle 162" width="0.41" height="4.897" transform="matrix(0.998, -0.067, 0.067, 0.998, 760.324, 211.293)" fill="#2e3c4b"/>
      <path id="Path_1962" data-name="Path 1962" d="M765.982,221.727l-.411-.01.141-5.552v-4.881l.09-8.242.513-15.7.411.013-.513,15.7-.09,8.235v4.884Z" fill="#2e3c4b"/>
      <rect id="Rectangle_163" data-name="Rectangle 163" width="0.411" height="5.022" transform="translate(770.07 211.324)" fill="#2e3c4b"/>
      <rect id="Rectangle_164" data-name="Rectangle 164" width="5.328" height="0.411" transform="translate(774.673 216.623) rotate(-85.826)" fill="#2e3c4b"/>
      <path id="Path_1963" data-name="Path 1963" d="M761.2,184.1l-.872-12.81V164.78h1.73l.342,3.95v2.544h-.411v-2.527l-.308-3.557h-.943v6.085l.871,12.8Z" fill="#2e3c4b"/>
      <path id="Path_1964" data-name="Path 1964" d="M769.116,184.218l-.411-.015.482-12.778.167-2.44.41.028-.167,2.433Z" fill="#2e3c4b"/>
      <path id="Path_1965" data-name="Path 1965" d="M775.11,179.292c-1.043-.252-13.51-.49-19.957-.58l.007-.411c.762.01,18.7.266,20.047.592Z" fill="#2e3c4b"/>
      <path id="Path_1966" data-name="Path 1966" d="M775.111,173.725c-.654-.156-14.759-.378-20.139-.451l.005-.411c.792.011,19.4.263,20.229.462Z" fill="#2e3c4b"/>
      <rect id="Rectangle_165" data-name="Rectangle 165" width="7.758" height="0.411" transform="translate(739.316 307.113)" fill="#2e3c4b"/>
      <rect id="Rectangle_166" data-name="Rectangle 166" width="8.747" height="0.411" transform="matrix(1, -0.019, 0.019, 1, 749.242, 306.983)" fill="#2e3c4b"/>
      <rect id="Rectangle_167" data-name="Rectangle 167" width="0.411" height="17.925" transform="translate(760.186 307.313) rotate(-89.324)" fill="#2e3c4b"/>
      <rect id="Rectangle_168" data-name="Rectangle 168" width="8.818" height="0.411" transform="translate(779.798 307.111) rotate(-2.128)" fill="#2e3c4b"/>
      <rect id="Rectangle_169" data-name="Rectangle 169" width="7.185" height="0.411" transform="translate(790.549 306.781)" fill="#2e3c4b"/>
      <rect id="Rectangle_170" data-name="Rectangle 170" width="0.411" height="7.375" transform="matrix(1, -0.003, 0.003, 1, 742.989, 305.697)" fill="#2e3c4b"/>
      <rect id="Rectangle_171" data-name="Rectangle 171" width="7.331" height="0.411" transform="translate(753.389 312.962) rotate(-89.823)" fill="#2e3c4b"/>
      <rect id="Rectangle_172" data-name="Rectangle 172" width="0.411" height="7.257" transform="translate(768.946 305.846) rotate(-4.024)" fill="#2e3c4b"/>
      <rect id="Rectangle_173" data-name="Rectangle 173" width="0.411" height="7.211" transform="matrix(0.999, -0.054, 0.054, 0.999, 773.564, 305.882)" fill="#2e3c4b"/>
      <rect id="Rectangle_174" data-name="Rectangle 174" width="0.412" height="7.236" transform="matrix(0.995, -0.099, 0.099, 0.995, 764.11, 305.891)" fill="#2e3c4b"/>
      <rect id="Rectangle_175" data-name="Rectangle 175" width="0.412" height="7.764" transform="translate(784.006 305.7) rotate(-5.673)" fill="#2e3c4b"/>
      <rect id="Rectangle_176" data-name="Rectangle 176" width="0.411" height="7.61" transform="matrix(0.999, -0.044, 0.044, 0.999, 793.983, 305.478)" fill="#2e3c4b"/>
      <path id="Path_1967" data-name="Path 1967" d="M754.4,221.743a9.591,9.591,0,0,1-2.411-.966c-.843-.791-5.748-27.134-6.723-32.407l.4-.075c2.312,12.506,5.979,31.4,6.606,32.189a9.325,9.325,0,0,0,2.236.864Z" fill="#2e3c4b"/>
      <path id="Path_1968" data-name="Path 1968" d="M776.513,222.441l-.052-.407a8.292,8.292,0,0,0,2.613-.647c.358-.671,4.011-18.751,6.374-30.733l.4.08c-1.808,9.17-6.06,30.543-6.5,30.952A8.229,8.229,0,0,1,776.513,222.441Z" fill="#2e3c4b"/>
      <path id="Path_1969" data-name="Path 1969" d="M791.61,196.456l-.1-.4,10.276-2.466.1.4Z" fill="#2e3c4b"/>
      <path id="Path_1970" data-name="Path 1970" d="M801.828,201.393c-3.82-.191-8.094-.272-8.492-.047l-.275-.3c.43-.429,6.29-.185,8.788-.06Z" fill="#2e3c4b"/>
      <rect id="Rectangle_177" data-name="Rectangle 177" width="0.411" height="4.232" transform="translate(793.107 207.122) rotate(-60.947)" fill="#2e3c4b"/>
      <path id="Path_1971" data-name="Path 1971" d="M740.183,196.461a37,37,0,0,1-6.63-1.24l.108-.4a37.5,37.5,0,0,0,6.522,1.226Z" fill="#2e3c4b"/>
      <path id="Path_1972" data-name="Path 1972" d="M731.152,201.393l-.023-.41c.3-.017,7.449-.408,9.1.006l-.1.4C738.536,200.989,731.225,201.389,731.152,201.393Z" fill="#2e3c4b"/>
      <path id="Path_1973" data-name="Path 1973" d="M733.668,208.783l-.122-.392,6.576-2.055.122.392Z" fill="#2e3c4b"/>
    </g>
    <path id="Path_2875" data-name="Path 2875" d="M-90.148-.653V-13.061h-.735V0h6.265V-.653Zm15.48-8.225-.122,2.2a3.982,3.982,0,0,0-3.714-2.449A4.336,4.336,0,0,0-82.75-4.469,4.322,4.322,0,0,0-78.485.163a3.954,3.954,0,0,0,3.694-2.449L-74.668,0h.592V-8.878ZM-78.362-.449a3.757,3.757,0,0,1-3.653-4.02A3.772,3.772,0,0,1-78.383-8.51a3.767,3.767,0,0,1,3.673,4.041A3.757,3.757,0,0,1-78.362-.449Zm11.5-8.429h-2.306v-2.653h-.714v2.653h-1.286v.592h1.286V0h.714V-8.286h2.306Zm9.929,0-.122,2.2A3.982,3.982,0,0,0-60.77-9.122a4.336,4.336,0,0,0-4.245,4.653A4.322,4.322,0,0,0-60.75.163a3.954,3.954,0,0,0,3.694-2.449L-56.934,0h.592V-8.878ZM-60.628-.449a3.757,3.757,0,0,1-3.653-4.02A3.772,3.772,0,0,1-60.648-8.51a3.767,3.767,0,0,1,3.673,4.041A3.757,3.757,0,0,1-60.628-.449Zm10.908-8.673A2.706,2.706,0,0,0-52.23-7.1l-.1-1.776h-.612V0h.714V-5.592c.041-1.735.98-2.837,2.347-2.837a2.971,2.971,0,0,1,.633.082l.143-.714A2.576,2.576,0,0,0-49.719-9.122Zm6.663,0a3.234,3.234,0,0,0-3.1,2.184l-.061-1.939h-.633V0h.714V-5.449c.184-1.939,1.367-3.061,2.959-3.061,1.612,0,2.776,1.041,2.776,3.388V0h.694V-5.245C-39.709-8.306-41.505-9.122-43.056-9.122Zm7.3-2.041a.645.645,0,0,0,.653-.653.645.645,0,0,0-.653-.653.645.645,0,0,0-.653.653A.645.645,0,0,0-35.76-11.163ZM-36.128,0h.714V-8.878h-.714Zm12.01-8.878-.122,2.2a3.982,3.982,0,0,0-3.714-2.449A4.336,4.336,0,0,0-32.2-4.469,4.322,4.322,0,0,0-27.934.163,3.954,3.954,0,0,0-24.24-2.286L-24.117,0h.592V-8.878ZM-27.811-.449a3.757,3.757,0,0,1-3.653-4.02A3.772,3.772,0,0,1-27.832-8.51a3.767,3.767,0,0,1,3.673,4.041A3.757,3.757,0,0,1-27.811-.449ZM-3.056-8.878-5.995-.959l-2.49-7.918h-.592l-2.51,7.959-2.918-7.959h-.755L-11.852,0h.571l2.49-8.041L-6.281,0h.571l3.388-8.878Zm16.612,0-.1,2.245a4,4,0,0,0-3.735-2.49A4.336,4.336,0,0,0,5.474-4.469,4.322,4.322,0,0,0,9.74.163a3.954,3.954,0,0,0,3.694-2.449V-.429c0,2.653-.959,4.1-3.449,4.1a4.055,4.055,0,0,1-1.347-.2l-.163.612a5.909,5.909,0,0,0,1.531.2c2.857,0,4.122-1.571,4.122-4.816V-8.878ZM9.862-.449a3.757,3.757,0,0,1-3.653-4.02A3.772,3.772,0,0,1,9.842-8.51a3.767,3.767,0,0,1,3.673,4.041A3.757,3.757,0,0,1,9.862-.449ZM24.995-13.878v7.163A3.97,3.97,0,0,0,21.3-9.122a4.336,4.336,0,0,0-4.245,4.653A4.322,4.322,0,0,0,21.321.163a3.954,3.954,0,0,0,3.694-2.449L25.117,0h.592V-13.878ZM21.444-.449a3.757,3.757,0,0,1-3.653-4.02A3.772,3.772,0,0,1,21.423-8.51,3.767,3.767,0,0,1,25.1-4.469,3.757,3.757,0,0,1,21.444-.449ZM36.7-8.878l-.122,2.2a3.982,3.982,0,0,0-3.714-2.449,4.336,4.336,0,0,0-4.245,4.653A4.322,4.322,0,0,0,32.883.163a3.954,3.954,0,0,0,3.694-2.449L36.7,0h.592V-8.878ZM33.005-.449a3.757,3.757,0,0,1-3.653-4.02A3.772,3.772,0,0,1,32.985-8.51a3.767,3.767,0,0,1,3.673,4.041A3.757,3.757,0,0,1,33.005-.449ZM44.362-11.184l2.061-2.143-.714-.143-2.633,2.939h.286C43.628-10.531,43.832-10.612,44.362-11.184Zm.122,2.061a3.234,3.234,0,0,0-3.1,2.184l-.061-1.939h-.633V0H41.4V-5.449c.184-1.939,1.367-3.061,2.959-3.061,1.612,0,2.776,1.041,2.776,3.388V0h.694V-5.245C47.832-8.306,46.036-9.122,44.485-9.122Zm5.99,7.857A3.642,3.642,0,0,0,53.495.163c1.8,0,3.082-.939,3.082-2.51,0-3.367-4.939-1.694-4.959-4.388-.02-1.082.8-1.755,2.061-1.755a2.9,2.9,0,0,1,2.184.837l.449-.469a3.7,3.7,0,0,0-2.633-1c-1.673,0-2.816.959-2.8,2.429.041,3.286,4.959,1.612,4.959,4.388,0,1.143-.9,1.857-2.347,1.857a2.907,2.907,0,0,1-2.469-1.265ZM66.485,0,61.117-4.878l4.8-4h-.959L60.219-4.939v-8.939h-.714V0h.714V-4.8L65.485,0ZM69.27-11.163a.645.645,0,0,0,.653-.653.645.645,0,0,0-.653-.653.645.645,0,0,0-.653.653A.645.645,0,0,0,69.27-11.163ZM68.9,0h.714V-8.878H68.9ZM82.668-9.122a2.9,2.9,0,0,0-2.959,2.347,2.951,2.951,0,0,0-2.918-2.347A2.86,2.86,0,0,0,74.036-6.98l-.082-1.9h-.633V0h.714V-5.347C74.2-7.265,75.219-8.51,76.648-8.51c1.592,0,2.531,1.286,2.531,3.122V0h.714V-5.184c.143-2.143,1.122-3.327,2.633-3.327,1.755,0,2.551,1.286,2.551,3.245V0h.694V-5.265C85.77-8.286,84.138-9.122,82.668-9.122ZM-70.709,10.939h-3.143V24h.735V18.082h2.408c1.939,0,3.98-1.122,3.98-3.571S-68.77,10.939-70.709,10.939Zm-.265,6.531h-2.143V11.551h2.143c2.041,0,3.469,1.041,3.469,2.959S-68.934,17.469-70.974,17.469Zm10.929,6.694a4.541,4.541,0,0,0,4.633-4.633,4.558,4.558,0,0,0-4.633-4.653,4.558,4.558,0,0,0-4.633,4.653A4.541,4.541,0,0,0-60.046,24.163Zm0-.612a3.871,3.871,0,0,1-3.878-4.02,3.871,3.871,0,0,1,3.878-4.02,3.871,3.871,0,0,1,3.878,4.02A3.871,3.871,0,0,1-60.046,23.551Zm10.765-8.673a2.706,2.706,0,0,0-2.51,2.02l-.1-1.776h-.612V24h.714V18.408c.041-1.735.98-2.837,2.347-2.837a2.971,2.971,0,0,1,.633.082l.143-.714A2.576,2.576,0,0,0-49.281,14.878Zm6.459,9.286a4.564,4.564,0,0,0,2.857-.98l-.449-.51a3.517,3.517,0,0,1-2.408.878,3.722,3.722,0,0,1-3.755-4.041,3.716,3.716,0,0,1,3.755-4.02,3.517,3.517,0,0,1,2.408.878l.449-.51a4.564,4.564,0,0,0-2.857-.98,4.411,4.411,0,0,0-4.49,4.633A4.405,4.405,0,0,0-42.821,24.163Zm6.173-11.327a.645.645,0,0,0,.653-.653.645.645,0,0,0-.653-.653.645.645,0,0,0-.653.653A.645.645,0,0,0-36.648,12.837ZM-37.015,24h.714V15.122h-.714Zm12.337-4.633V19a4.025,4.025,0,0,0-4.082-4.122,4.338,4.338,0,0,0-4.327,4.531,4.453,4.453,0,0,0,4.531,4.755,4.677,4.677,0,0,0,3.469-1.449l-.531-.429a3.752,3.752,0,0,1-2.939,1.265c-2.388,0-3.776-1.816-3.776-4.122v-.061ZM-28.76,15.51a3.336,3.336,0,0,1,3.388,3.306h-6.918A3.544,3.544,0,0,1-28.76,15.51Zm16.571-4.571h-3.143V24h.735V18.082h2.408c1.939,0,3.98-1.122,3.98-3.571S-10.25,10.939-12.189,10.939Zm-.265,6.531H-14.6V11.551h2.143c2.041,0,3.469,1.041,3.469,2.959S-10.413,17.469-12.454,17.469Zm10.99-4.653L.6,10.673l-.714-.143L-2.75,13.469h.286C-2.2,13.469-1.995,13.388-1.464,12.816Zm-.061,11.347a4.541,4.541,0,0,0,4.633-4.633,4.558,4.558,0,0,0-4.633-4.653,4.558,4.558,0,0,0-4.633,4.653A4.541,4.541,0,0,0-1.525,24.163Zm0-.612A3.871,3.871,0,0,1-5.4,19.531a3.871,3.871,0,0,1,3.878-4.02,3.871,3.871,0,0,1,3.878,4.02A3.871,3.871,0,0,1-1.525,23.551ZM8.1,15.429l-1.286,1V10.122H6.1V16.98l-1.245.959v.633L6.1,17.612V24h.714V17.061l1.286-1Zm5.99-.551a3.234,3.234,0,0,0-3.1,2.184l-.061-1.939h-.633V24h.714V18.551c.184-1.939,1.367-3.061,2.959-3.061,1.612,0,2.776,1.041,2.776,3.388V24h.694V18.755C17.434,15.694,15.638,14.878,14.087,14.878Zm10.827,9.286a4.643,4.643,0,1,0-4.633-4.633A4.541,4.541,0,0,0,24.913,24.163Zm0-.612a3.871,3.871,0,0,1-3.878-4.02,3.88,3.88,0,1,1,7.755,0A3.871,3.871,0,0,1,24.913,23.551Zm11.541.612a4.564,4.564,0,0,0,2.857-.98l-.449-.51a3.517,3.517,0,0,1-2.408.878A3.722,3.722,0,0,1,32.7,19.51a3.716,3.716,0,0,1,3.755-4.02,3.517,3.517,0,0,1,2.408.878l.449-.51a4.564,4.564,0,0,0-2.857-.98,4.411,4.411,0,0,0-4.49,4.633A4.405,4.405,0,0,0,36.454,24.163Zm9.357-9.286a3.234,3.234,0,0,0-3.1,2.184l-.061-1.939h-.633V24h.714V18.551c.184-1.939,1.367-3.061,2.959-3.061,1.612,0,2.776,1.041,2.776,3.388V24h.694V18.755C49.158,15.694,47.362,14.878,45.811,14.878Zm13.173.245L55.556,22.98l-3.347-7.857h-.776l3.776,8.653-1.98,4.51h.755L59.74,15.122Zm12.459-.245a2.9,2.9,0,0,0-2.959,2.347,2.951,2.951,0,0,0-2.918-2.347,2.86,2.86,0,0,0-2.755,2.143l-.082-1.9H62.1V24h.714V18.653c.163-1.918,1.184-3.163,2.612-3.163,1.592,0,2.531,1.286,2.531,3.122V24h.714V18.816c.143-2.143,1.122-3.327,2.633-3.327,1.755,0,2.551,1.286,2.551,3.245V24h.694V18.735C74.546,15.714,72.913,14.878,71.444,14.878ZM-118.531,36.837a.645.645,0,0,0,.653-.653.645.645,0,0,0-.653-.653.645.645,0,0,0-.653.653A.645.645,0,0,0-118.531,36.837Zm.367,12.735V39.122h-.714V49.551c0,1.531-.653,2.265-2.306,2.1v.592C-119.612,52.449-118.163,51.939-118.163,49.571Zm11.3-10.449-.122,2.2a3.982,3.982,0,0,0-3.714-2.449,4.336,4.336,0,0,0-4.245,4.653,4.322,4.322,0,0,0,4.265,4.633,3.954,3.954,0,0,0,3.694-2.449l.122,2.286h.592V39.122Zm-3.694,8.429a3.757,3.757,0,0,1-3.653-4.02,3.772,3.772,0,0,1,3.633-4.041,3.767,3.767,0,0,1,3.673,4.041A3.757,3.757,0,0,1-110.561,47.551ZM-95.9,48l-5.367-4.878,4.8-4h-.959l-4.735,3.939V34.122h-.714V48h.714V43.2L-96.9,48Zm6.316.163a4.541,4.541,0,0,0,4.633-4.633,4.558,4.558,0,0,0-4.633-4.653,4.558,4.558,0,0,0-4.633,4.653A4.541,4.541,0,0,0-89.582,48.163Zm0-.612a3.871,3.871,0,0,1-3.878-4.02,3.871,3.871,0,0,1,3.878-4.02,3.871,3.871,0,0,1,3.878,4.02A3.871,3.871,0,0,1-89.582,47.551Zm14.49-10.714a.645.645,0,0,0,.653-.653.645.645,0,0,0-.653-.653.645.645,0,0,0-.653.653A.645.645,0,0,0-75.092,36.837Zm.367,12.735V39.122h-.714V49.551c0,1.531-.653,2.265-2.306,2.1v.592C-76.173,52.449-74.724,51.939-74.724,49.571Zm11.622-6.2V43a4.025,4.025,0,0,0-4.082-4.122,4.338,4.338,0,0,0-4.327,4.531,4.453,4.453,0,0,0,4.531,4.755,4.677,4.677,0,0,0,3.469-1.449l-.531-.429a3.752,3.752,0,0,1-2.939,1.265c-2.388,0-3.776-1.816-3.776-4.122v-.061Zm-4.082-3.857A3.336,3.336,0,0,1-63.8,42.816h-6.918A3.544,3.544,0,0,1-67.184,39.51Zm14.459-5.388v7.163a3.97,3.97,0,0,0-3.694-2.408,4.336,4.336,0,0,0-4.245,4.653A4.322,4.322,0,0,0-56.4,48.163,3.954,3.954,0,0,0-52.7,45.714L-52.6,48h.592V34.122Zm-3.551,13.429a3.757,3.757,0,0,1-3.653-4.02A3.772,3.772,0,0,1-56.3,39.49a3.767,3.767,0,0,1,3.673,4.041A3.757,3.757,0,0,1-56.275,47.551Zm14.153-8.429-3.429,7.857L-48.9,39.122h-.776l3.776,8.653-1.98,4.51h.755l5.755-13.163Zm6.908-.245a3.234,3.234,0,0,0-3.1,2.184l-.061-1.939h-.633V48h.714V42.551c.184-1.939,1.367-3.061,2.959-3.061,1.612,0,2.776,1.041,2.776,3.388V48h.694V42.755C-31.867,39.694-33.663,38.878-35.214,38.878Zm14.276.245-.122,2.2a3.982,3.982,0,0,0-3.714-2.449,4.336,4.336,0,0,0-4.245,4.653,4.322,4.322,0,0,0,4.265,4.633,3.954,3.954,0,0,0,3.694-2.449L-20.939,48h.592V39.122Zm-3.694,8.429a3.757,3.757,0,0,1-3.653-4.02,3.772,3.772,0,0,1,3.633-4.041,3.767,3.767,0,0,1,3.673,4.041A3.757,3.757,0,0,1-24.633,47.551Zm17.918-8.673a4,4,0,0,0-3.735,2.49l-.061-2.245h-.633l.02,13.163h.694V45.714a3.954,3.954,0,0,0,3.694,2.449A4.307,4.307,0,0,0-2.49,43.531C-2.49,40.775-4.347,38.878-6.714,38.878Zm-.143,8.673a3.757,3.757,0,0,1-3.653-4.02A3.767,3.767,0,0,1-6.837,39.49,3.772,3.772,0,0,1-3.2,43.531,3.757,3.757,0,0,1-6.857,47.551Zm11.439.612a4.643,4.643,0,0,0,0-9.286,4.643,4.643,0,0,0,0,9.286Zm0-.612a4.023,4.023,0,1,1,3.878-4.02A3.871,3.871,0,0,1,4.582,47.551Zm6.847-.816a3.642,3.642,0,0,0,3.02,1.429c1.8,0,3.082-.939,3.082-2.51,0-3.367-4.939-1.694-4.959-4.388-.02-1.082.8-1.755,2.061-1.755a2.9,2.9,0,0,1,2.184.837l.449-.469a3.7,3.7,0,0,0-2.633-1c-1.673,0-2.816.959-2.8,2.429.041,3.286,4.959,1.612,4.959,4.388,0,1.143-.9,1.857-2.347,1.857a2.907,2.907,0,0,1-2.469-1.265Zm9.643-9.9a.653.653,0,1,0-.653-.653A.645.645,0,0,0,21.071,36.837ZM20.7,48h.714V39.122H20.7Zm12.01-8.878-.122,2.2a3.982,3.982,0,0,0-3.714-2.449,4.336,4.336,0,0,0-4.245,4.653A4.322,4.322,0,0,0,28.9,48.163a3.954,3.954,0,0,0,3.694-2.449L32.714,48h.592V39.122ZM29.02,47.551a3.757,3.757,0,0,1-3.653-4.02,3.672,3.672,0,1,1,7.306,0A3.757,3.757,0,0,1,29.02,47.551ZM44.153,34.122v7.163a3.97,3.97,0,0,0-3.694-2.408,4.336,4.336,0,0,0-4.245,4.653,4.322,4.322,0,0,0,4.265,4.633,3.954,3.954,0,0,0,3.694-2.449l.1,2.286h.592V34.122ZM40.6,47.551a3.757,3.757,0,0,1-3.653-4.02,3.672,3.672,0,1,1,7.306,0A3.757,3.757,0,0,1,40.6,47.551Zm15.255-8.429-.122,2.2a3.982,3.982,0,0,0-3.714-2.449,4.336,4.336,0,0,0-4.245,4.653,4.322,4.322,0,0,0,4.265,4.633,3.954,3.954,0,0,0,3.694-2.449L55.857,48h.592V39.122Zm-3.694,8.429a3.757,3.757,0,0,1-3.653-4.02,3.672,3.672,0,1,1,7.306,0A3.757,3.757,0,0,1,52.163,47.551Zm24.694-8.918-2,6.265-1.9-6.265H70.98l-1.9,6.286-2-6.286H64.49L68,48h2.02l1.959-6.551L73.918,48h2.02l3.51-9.367Zm6.031-1.551a1.408,1.408,0,1,0-1.429-1.408A1.433,1.433,0,0,0,82.888,37.082ZM81.7,48h2.429V38.633H81.7Zm10.99-9.612a3.437,3.437,0,0,0-2.878,1.347l-.306-1.1H87.388V48h2.429V42.531a2.014,2.014,0,0,1,2.061-2.082c1.286,0,1.857.9,1.857,2.347V48h2.408V42.163C96.143,39.306,94.286,38.388,92.694,38.388Zm13.133-4.265v5.49a3.933,3.933,0,0,0-2.959-1.224c-2.429,0-4.347,1.837-4.347,4.918s1.918,4.9,4.347,4.9a3.961,3.961,0,0,0,3.122-1.388L106.255,48h1.98V34.122ZM103.5,46.163a2.581,2.581,0,0,1-2.51-2.857,2.57,2.57,0,1,1,5.1,0A2.606,2.606,0,0,1,103.5,46.163Zm16.888-2.918a4.554,4.554,0,0,0-4.735-4.857,4.932,4.932,0,0,0-.265,9.857c-1.02.755-1.469,1.714-1.041,2.694.49,1.122,2.184,1.388,3.51.612l-.429-1.1c-2.02.816-2.449-1.1-.265-2.224l.184-.1a4.827,4.827,0,0,0,2.449-1.306l-1.633-1.327a2.907,2.907,0,0,1-2.265.939,2.565,2.565,0,0,1-2.653-2.51h7.143Zm-4.735-3.02A2.253,2.253,0,0,1,118,42.367h-4.694A2.376,2.376,0,0,1,115.653,40.224Z" transform="translate(765.158 370.554)" fill="#2e3c4b"/>
    <path id="Path_1974" data-name="Path 1974" d="M765.028,267.642a3.283,3.283,0,0,1-2.17-.5c-1.141-1.142-2-14.282-1-15.284.765-.764,6.158-1.124,7.284,0,.983.985,1.976,13.207,1.22,15.033-.106.255-.256.309-.362.309-.238,0-.753.065-1.35.139A31.191,31.191,0,0,1,765.028,267.642Zm.8-16.089c-1.632,0-3.349.25-3.687.589-.834.833.045,13.762,1,14.716.68.683,3.789.293,5.458.084.606-.075,1.09-.136,1.361-.142a5.419,5.419,0,0,0,.249-2.217c.069-4.388-.739-11.83-1.352-12.441A5.3,5.3,0,0,0,765.829,251.553Z" fill="#2e3c4b"/>
    <path id="Path_1975" data-name="Path 1975" d="M765.8,255.009l-.979-21.547-1.679,1.68-.291-.274,2.158-2.421.124.139.047-.047,0,.1L767,234.675l-.3.267-1.49-1.667.987,21.716Z" fill="#2e3c4b"/>
    <path id="Path_1976" data-name="Path 1976" d="M765.918,287.257l-.125-.139-.047.047,0-.1-1.816-2.032.3-.267,1.49,1.666-.987-21.715.4-.019.979,21.547,1.679-1.68.291.274Z" fill="#2e3c4b"/>
  </g>
</svg>
