<?xml version="1.0" encoding="utf-8"?>
<!-- Generator: Adobe Illustrator 24.0.3, SVG Export Plug-In . SVG Version: 6.00 Build 0)  -->
<svg version="1.1" id="Layer_1" xmlns="http://www.w3.org/2000/svg" xmlns:xlink="http://www.w3.org/1999/xlink" x="0px" y="0px"
	 viewBox="0 0 306.1 292.7" style="enable-background:new 0 0 306.1 292.7;" xml:space="preserve">
<style type="text/css">
	.st0{fill:#E5A34C;}
	.st1{enable-background:new    ;}
	.st2{fill:#2E3C4B;}
	.st3{fill:#AE4426;}
	.st4{fill:#F2EDEB;}
	.st5{fill:none;stroke:#2E3C4B;stroke-width:0.7;stroke-miterlimit:10;}
</style>
<g id="CIEKAWOSTKA" transform="translate(-36.5 -1552.42)">
	<path id="Path_1283" class="st0" d="M55.2,1566.1c18.4-20.9,260.1-15.3,273.8,0s19.9,243.9,4.8,262.8s-264.7,21.6-278.7,6.8
		S36.8,1587,55.2,1566.1z"/>
	<g class="st1">
		<path class="st2" d="M135.8,1587.6c-0.7-0.3-1.4-0.7-1.9-1.3c-0.6-0.6-1-1.2-1.3-1.9c-0.3-0.7-0.5-1.5-0.5-2.3
			c0-0.8,0.2-1.6,0.5-2.3c0.3-0.7,0.7-1.4,1.3-1.9c0.6-0.6,1.2-1,1.9-1.3c0.7-0.3,1.5-0.5,2.3-0.5c0.9,0,1.8,0.2,2.6,0.6
			c0.8,0.4,1.5,1,2.2,1.7l-1.2,1c-1-1.1-2.1-1.7-3.5-1.7c-0.6,0-1.1,0.1-1.7,0.3c-0.5,0.2-1,0.5-1.4,1c-0.4,0.4-0.7,0.9-1,1.4
			c-0.2,0.5-0.3,1.1-0.3,1.7c0,0.6,0.1,1.2,0.3,1.7c0.2,0.5,0.5,1,1,1.4c0.4,0.4,0.9,0.7,1.4,1c0.5,0.2,1.1,0.3,1.7,0.3
			c1.3,0,2.5-0.6,3.5-1.7l1.2,1c-0.6,0.8-1.4,1.3-2.2,1.7c-0.8,0.4-1.6,0.6-2.5,0.6C137.3,1588.1,136.6,1587.9,135.8,1587.6z"/>
		<path class="st2" d="M144.9,1588v-12h1.5v12H144.9z"/>
		<path class="st2" d="M148.7,1588v-12h6.6v1.6h-5v3.6h3.3v1.5h-3.3v3.6h5v1.6H148.7z"/>
		<path class="st2" d="M162.9,1588l-3.9-4.4v4.4h-1.6v-12h1.6v4.6l3.8-4.6h2.1l-5.1,6.1l5.2,5.9H162.9z"/>
		<path class="st2" d="M174.5,1588l-1.5-4.2h-3.7l-1.5,4.2h-1.7l4.2-12h1.8l4.2,12H174.5z M171.1,1578.4l-1.4,3.9h2.7L171.1,1578.4z
			"/>
		<path class="st2" d="M186.9,1588h-1.6l-1.9-5.1l-1.8,5.1H180l-4.3-12h1.7l3.4,9.4l1.7-4.9l-1.6-4.5h1.7l1.6,4.4l1.8,5l3.3-9.4h1.7
			L186.9,1588z"/>
		<path class="st2" d="M195.6,1587.6c-0.7-0.3-1.4-0.7-1.9-1.3c-0.6-0.6-1-1.2-1.3-1.9c-0.3-0.7-0.5-1.5-0.5-2.3
			c0-0.8,0.2-1.6,0.5-2.3c0.3-0.7,0.7-1.4,1.3-1.9c0.6-0.6,1.2-1,1.9-1.3c0.7-0.3,1.5-0.5,2.3-0.5c0.8,0,1.6,0.2,2.3,0.5
			c0.7,0.3,1.4,0.7,1.9,1.3c0.6,0.6,1,1.2,1.3,1.9c0.3,0.7,0.5,1.5,0.5,2.3c0,0.8-0.2,1.6-0.5,2.3c-0.3,0.7-0.7,1.4-1.3,1.9
			c-0.6,0.6-1.2,1-1.9,1.3c-0.7,0.3-1.5,0.5-2.3,0.5C197.1,1588.1,196.4,1587.9,195.6,1587.6z M196.3,1578c-0.5,0.2-1,0.5-1.4,0.9
			c-0.4,0.4-0.7,0.9-0.9,1.4c-0.2,0.5-0.3,1.1-0.3,1.7c0,0.6,0.1,1.2,0.3,1.7s0.5,1,0.9,1.4c0.4,0.4,0.9,0.7,1.4,0.9
			c0.5,0.2,1.1,0.3,1.7,0.3s1.1-0.1,1.7-0.3c0.5-0.2,1-0.5,1.4-0.9c0.4-0.4,0.7-0.9,0.9-1.4c0.2-0.5,0.3-1.1,0.3-1.7
			c0-0.6-0.1-1.1-0.3-1.7c-0.2-0.5-0.5-1-0.9-1.4c-0.4-0.4-0.9-0.7-1.4-0.9c-0.5-0.2-1.1-0.3-1.7-0.3S196.8,1577.8,196.3,1578z"/>
		<path class="st2" d="M211.7,1578.6c-0.2-0.3-0.5-0.6-0.8-0.7c-0.3-0.2-0.7-0.2-1.2-0.2c-0.8,0-1.4,0.2-1.7,0.5
			c-0.3,0.3-0.5,0.8-0.5,1.3c0,0.3,0,0.6,0.1,0.8c0.1,0.2,0.2,0.4,0.4,0.5c0.3,0.2,0.8,0.3,1.4,0.4c0.7,0.1,1.2,0.2,1.7,0.3
			s0.9,0.3,1.2,0.5c0.9,0.6,1.3,1.4,1.3,2.6c0,0.5-0.1,0.9-0.3,1.3s-0.4,0.8-0.8,1.1c-0.4,0.4-0.8,0.6-1.4,0.8
			c-0.5,0.2-1.1,0.3-1.6,0.3c-1.3,0-2.3-0.4-3-1.1c-0.6-0.6-1-1.5-1.2-2.6l0,0h1.6c0.1,0.6,0.3,1.1,0.6,1.4c0.5,0.4,1.1,0.6,1.9,0.6
			c0.8,0,1.4-0.2,1.8-0.5c0.4-0.3,0.7-0.8,0.7-1.3c0-0.3,0-0.5-0.1-0.7c-0.1-0.2-0.2-0.4-0.4-0.5c-0.4-0.3-1.2-0.5-2.3-0.6
			c-1.1-0.1-2-0.4-2.6-1c-0.6-0.6-0.9-1.4-0.9-2.4c0-1,0.3-1.9,1-2.5c0.7-0.7,1.6-1,2.8-1c1.2,0,2.2,0.4,2.9,1.1
			c0.6,0.7,1,1.5,1.1,2.6h-1.6C212,1579.3,211.9,1578.9,211.7,1578.6z"/>
		<path class="st2" d="M219.2,1577.6v10.4h-1.6v-10.4h-2.9v-1.5h7.4v1.5H219.2z"/>
		<path class="st2" d="M229.6,1588l-3.9-4.4v4.4h-1.6v-12h1.6v4.6l3.8-4.6h2.1l-5.1,6.1l5.2,5.9H229.6z"/>
		<path class="st2" d="M241.2,1588l-1.5-4.2h-3.7l-1.5,4.2h-1.7l4.2-12h1.8l4.2,12H241.2z M237.8,1578.4l-1.4,3.9h2.7L237.8,1578.4z
			"/>
	</g>
	<rect id="Rectangle_45" x="182" y="1594" class="st3" width="10" height="2"/>
	<g class="st1">
		<path class="st2" d="M89.5,1780.4v0.6h-5.6v-11.8h0.7v11.2H89.5z"/>
		<path class="st2" d="M99,1773v8h-0.5l-0.1-2.1c-0.6,1.3-1.8,2.2-3.3,2.2c-2.1,0-3.8-1.7-3.8-4.2s1.7-4.2,3.8-4.2
			c1.5,0,2.8,0.9,3.3,2.2l0.1-2H99z M98.4,1777c0-2.1-1.4-3.6-3.3-3.6c-1.9,0-3.3,1.6-3.3,3.6s1.4,3.6,3.3,3.6S98.4,1779,98.4,1777z
			"/>
		<path class="st2" d="M105.5,1773.5h-2.1v7.5h-0.6v-7.5h-1.2v-0.5h1.2v-2.4h0.6v2.4h2.1V1773.5z"/>
		<path class="st2" d="M114.9,1773v8h-0.5l-0.1-2.1c-0.6,1.3-1.8,2.2-3.3,2.2c-2.1,0-3.8-1.7-3.8-4.2s1.7-4.2,3.8-4.2
			c1.5,0,2.8,0.9,3.3,2.2l0.1-2H114.9z M114.4,1777c0-2.1-1.4-3.6-3.3-3.6c-1.9,0-3.3,1.6-3.3,3.6s1.4,3.6,3.3,3.6
			C113,1780.6,114.4,1779,114.4,1777z"/>
		<path class="st2" d="M121.4,1772.8l-0.1,0.6c-0.2,0-0.3-0.1-0.6-0.1c-1.2,0-2.1,1-2.1,2.6v5H118v-8h0.6l0.1,1.6
			c0.3-1,1.1-1.8,2.3-1.8C121.1,1772.8,121.3,1772.8,121.4,1772.8z"/>
		<path class="st2" d="M129.9,1776.3v4.7h-0.6v-4.6c0-2.1-1-3-2.5-3c-1.4,0-2.5,1-2.7,2.8v4.9h-0.6v-8h0.6l0.1,1.7
			c0.4-1.2,1.4-2,2.8-2C128.3,1772.8,129.9,1773.5,129.9,1776.3z"/>
		<path class="st2" d="M132.9,1770.4c0-0.3,0.3-0.6,0.6-0.6c0.3,0,0.6,0.3,0.6,0.6c0,0.3-0.3,0.6-0.6,0.6
			C133.1,1771,132.9,1770.7,132.9,1770.4z M133.1,1773h0.6v8h-0.6V1773z"/>
		<path class="st2" d="M144.5,1773v8h-0.5l-0.1-2.1c-0.6,1.3-1.8,2.2-3.3,2.2c-2.1,0-3.8-1.7-3.8-4.2s1.7-4.2,3.8-4.2
			c1.5,0,2.8,0.9,3.3,2.2l0.1-2H144.5z M143.9,1777c0-2.1-1.4-3.6-3.3-3.6c-1.9,0-3.3,1.6-3.3,3.6s1.4,3.6,3.3,3.6
			C142.5,1780.6,143.9,1779,143.9,1777z"/>
		<path class="st2" d="M163.6,1773l-3,8H160l-2.3-7.2l-2.2,7.2H155l-3.1-8h0.7l2.6,7.2l2.3-7.2h0.5l2.2,7.1l2.6-7.1H163.6z"/>
		<path class="st2" d="M170.6,1779.6l0.5-0.5c0.6,0.9,1.6,1.5,3.1,1.5c1.6,0,2.8-0.9,2.8-2.3c0-1.5-1.1-2.2-2.6-3
			c-1.5-0.7-3.2-1.5-3.2-3.4c0-1.9,1.5-2.8,3.1-2.8c1.5,0,2.5,0.6,3.1,1.2l-0.5,0.4c-0.6-0.6-1.4-1.1-2.6-1.1
			c-1.3,0-2.4,0.9-2.4,2.3c0,1.5,1.4,2.2,2.9,2.9c1.6,0.8,2.9,1.7,2.9,3.5c0,1.9-1.6,2.9-3.4,2.9
			C172.4,1781.1,171.2,1780.4,170.6,1779.6z M173.5,1768.3h-0.3l2.4-2.6l0.6,0.1l-1.9,1.9C173.9,1768.3,173.8,1768.3,173.5,1768.3z"
			/>
		<path class="st2" d="M191.6,1773l-3,8H188l-2.3-7.2l-2.2,7.2H183l-3.1-8h0.7l2.6,7.2l2.3-7.2h0.5l2.2,7.1l2.6-7.1H191.6z"/>
		<path class="st2" d="M193.8,1770.4c0-0.3,0.3-0.6,0.6-0.6c0.3,0,0.6,0.3,0.6,0.6c0,0.3-0.3,0.6-0.6,0.6
			C194,1771,193.8,1770.7,193.8,1770.4z M194,1773h0.6v8H194V1773z"/>
		<path class="st2" d="M204.4,1776.3v4.7h-0.6v-4.6c0-2.1-1-3-2.5-3c-1.4,0-2.5,1-2.7,2.8v4.9H198v-8h0.6l0.1,1.7
			c0.4-1.2,1.4-2,2.8-2C202.8,1772.8,204.4,1773.5,204.4,1776.3z"/>
		<path class="st2" d="M207,1777c0-2.3,1.8-4.2,4.2-4.2c2.4,0,4.2,1.9,4.2,4.2s-1.8,4.2-4.2,4.2C208.8,1781.1,207,1779.3,207,1777z
			 M214.7,1777c0-2-1.5-3.6-3.5-3.6c-2,0-3.5,1.6-3.5,3.6s1.5,3.6,3.5,3.6C213.2,1780.6,214.7,1779,214.7,1777z"/>
		<path class="st2" d="M217.9,1777.8v-4.8h0.6v4.8c0,1.8,0.9,2.9,2.6,2.9c1.7,0,2.6-1.1,2.6-2.9v-4.8h0.6v4.8c0,2.7-1.7,3.5-3.2,3.5
			C219.6,1781.2,217.9,1780.5,217.9,1777.8z"/>
		<path class="st2" d="M226,1784.8v-0.5c1.5,0.1,2.1-0.5,2.1-1.9v-9.4h0.6v9.4C228.7,1784.5,227.4,1785,226,1784.8z M227.8,1770.4
			c0-0.3,0.3-0.6,0.6-0.6s0.6,0.3,0.6,0.6c0,0.3-0.3,0.6-0.6,0.6S227.8,1770.7,227.8,1770.4z"/>
		<path class="st2" d="M231.9,1779.5c0.4,0.6,1.2,1.1,2.2,1.1c1.3,0,2.1-0.6,2.1-1.7c0-2.5-4.4-1-4.5-3.9c0-1.3,1-2.2,2.5-2.2
			c1.1,0,1.9,0.4,2.4,0.9l-0.4,0.4c-0.4-0.4-1.1-0.8-2-0.8c-1.1,0-1.9,0.6-1.9,1.6c0,2.4,4.5,0.9,4.5,4c0,1.4-1.2,2.3-2.8,2.3
			c-1.3,0-2.3-0.6-2.7-1.3L231.9,1779.5z M233.5,1771.5h-0.3l2.4-2.6l0.6,0.1l-1.9,1.9C233.9,1771.4,233.8,1771.5,233.5,1771.5z"/>
		<path class="st2" d="M239.1,1777c0-2.3,1.6-4.2,4-4.2c1,0,1.9,0.3,2.6,0.9l-0.4,0.5c-0.5-0.5-1.3-0.8-2.2-0.8
			c-2.1,0-3.4,1.6-3.4,3.6c0,2.1,1.3,3.6,3.4,3.6c0.9,0,1.6-0.3,2.2-0.8l0.4,0.5c-0.7,0.6-1.6,0.9-2.6,0.9
			C240.7,1781.1,239.1,1779.3,239.1,1777z"/>
		<path class="st2" d="M248.1,1770.4c0-0.3,0.3-0.6,0.6-0.6c0.3,0,0.6,0.3,0.6,0.6c0,0.3-0.3,0.6-0.6,0.6
			C248.3,1771,248.1,1770.7,248.1,1770.4z M248.3,1773h0.6v8h-0.6V1773z"/>
		<path class="st2" d="M252.2,1777.8v-4.8h0.6v4.8c0,1.8,0.9,2.9,2.6,2.9c1.7,0,2.6-1.1,2.6-2.9v-4.8h0.6v4.8c0,2.7-1.7,3.5-3.2,3.5
			C254,1781.2,252.2,1780.5,252.2,1777.8z"/>
		<path class="st2" d="M265.5,1784.8v-0.5c1.5,0.1,2.1-0.5,2.1-1.9v-9.4h0.6v9.4C268.3,1784.5,267,1785,265.5,1784.8z M267.3,1770.4
			c0-0.3,0.3-0.6,0.6-0.6s0.6,0.3,0.6,0.6c0,0.3-0.3,0.6-0.6,0.6S267.3,1770.7,267.3,1770.4z"/>
		<path class="st2" d="M271.8,1776.8L271.8,1776.8c0,2.1,1.2,3.8,3.4,3.8c1.2,0,2.1-0.5,2.6-1.1l0.5,0.4c-0.7,0.8-1.8,1.3-3.1,1.3
			c-2.5,0-4.1-1.9-4.1-4.3c0-2.2,1.6-4.1,3.9-4.1c2.2,0,3.7,1.7,3.7,3.7v0.3H271.8z M271.9,1776.3h6.2c-0.1-1.7-1.3-3-3-3
			S272.1,1774.6,271.9,1776.3z"/>
		<path class="st2" d="M281.2,1779.5c0.4,0.6,1.2,1.1,2.2,1.1c1.3,0,2.1-0.6,2.1-1.7c0-2.5-4.4-1-4.5-3.9c0-1.3,1-2.2,2.5-2.2
			c1.1,0,1.9,0.4,2.4,0.9l-0.4,0.4c-0.4-0.4-1.1-0.8-2-0.8c-1.1,0-1.9,0.6-1.9,1.6c0,2.4,4.5,0.9,4.5,4c0,1.4-1.2,2.3-2.8,2.3
			c-1.3,0-2.3-0.6-2.7-1.3L281.2,1779.5z"/>
		<path class="st2" d="M292.3,1773.5h-2.1v7.5h-0.6v-7.5h-1.2v-0.5h1.2v-2.4h0.6v2.4h2.1V1773.5z"/>
	</g>
	<g class="st1">
		<path class="st2" d="M96.3,1793.7v5.3h-2.2v-4.7c0-1.3-0.5-2.1-1.7-2.1c-0.8,0-1.7,0.5-1.9,1.9v4.9h-2.2v-8.4h1.9l0.3,1
			c0.6-0.7,1.4-1.2,2.6-1.2C94.6,1790.3,96.3,1791.2,96.3,1793.7z"/>
		<path class="st2" d="M107.3,1790.6v8.4h-1.8l-0.3-1.1c-0.6,0.8-1.6,1.3-2.8,1.3c-2.2,0-3.9-1.6-3.9-4.4s1.7-4.4,3.9-4.4
			c1.3,0,2.2,0.5,2.8,1.3l0.3-1.1H107.3z M105.3,1794.8c0-1.5-0.9-2.6-2.3-2.6c-1.3,0-2.3,1.1-2.3,2.6s0.9,2.6,2.3,2.6
			C104.3,1797.3,105.3,1796.3,105.3,1794.8z"/>
		<path class="st2" d="M108.6,1802.8v-1.7c1.5,0.2,2.1-0.4,2.1-1.8v-8.8h2.2v8.9C112.8,1802.6,110.7,1803.2,108.6,1802.8z
			 M110.4,1787.9c0-0.7,0.6-1.3,1.3-1.3c0.7,0,1.3,0.6,1.3,1.3s-0.6,1.3-1.3,1.3C111,1789.2,110.4,1788.6,110.4,1787.9z"/>
		<path class="st2" d="M128.4,1790.6l-3.2,8.4h-1.8l-1.7-5.9l-1.8,5.9h-1.8l-3.2-8.4h2.3l1.8,5.7l1.7-5.7h1.8l1.7,5.6l1.8-5.6H128.4
			z"/>
		<path class="st2" d="M138.9,1790.6l-5.3,12.3h-2.2l1.8-4.1l-3.5-8.2h2.3l2.3,5.7l2.3-5.7H138.9z"/>
		<path class="st2" d="M147.6,1797.2v1.8h-7.5v-1.5l4.4-5.1h-4.1v-1.8h6.9v1.5l-4.4,5.1H147.6z M142.7,1787.9c0-0.7,0.6-1.2,1.2-1.2
			c0.7,0,1.2,0.5,1.2,1.2c0,0.6-0.6,1.2-1.2,1.2C143.2,1789,142.7,1788.5,142.7,1787.9z"/>
		<path class="st2" d="M150.4,1796.5c0.7,0.8,1.4,1.1,2.1,1.1c0.9,0,1.4-0.4,1.4-0.9c0-1.6-4.1-0.5-4.1-3.6c0-1.6,1.2-2.7,3.3-2.7
			c1.3,0,2.5,0.5,3,1.1l-1.1,1.4c-0.5-0.4-1.2-0.7-1.8-0.7c-0.8,0-1.2,0.4-1.2,0.9c0,1.7,4.2,0.6,4.2,3.7c0,1.5-1.2,2.6-3.4,2.6
			c-1.7,0-3-0.6-3.7-1.4L150.4,1796.5z"/>
		<path class="st2" d="M165.6,1797.2v1.8h-7.5v-1.5l4.4-5.1h-4.1v-1.8h6.9v1.5l-4.4,5.1H165.6z"/>
		<path class="st2" d="M175.6,1801.2l0.4,1c-1.2,0.7-2.7,0.5-3.2-0.6s0.2-2,1.4-2.7l-0.3-1c-0.6,0.8-1.6,1.3-2.8,1.3
			c-2.2,0-3.9-1.6-3.9-4.4s1.7-4.4,3.9-4.4c1.3,0,2.2,0.5,2.8,1.3l0.3-1.1h1.8v8.4h-0.3l-0.4,0.2
			C173.4,1800.2,173.8,1801.9,175.6,1801.2z M174.1,1794.8c0-1.5-0.9-2.6-2.3-2.6c-1.3,0-2.3,1.1-2.3,2.6s0.9,2.6,2.3,2.6
			C173.2,1797.3,174.1,1796.3,174.1,1794.8z"/>
	</g>
	<g class="st1">
		<path class="st2" d="M190.2,1798.4v0.6h-6.4v-0.5l5.4-6.9h-5.1v-0.6h5.9v0.5l-5.3,6.9H190.2z"/>
		<path class="st2" d="M193,1794.8L193,1794.8c0,2.1,1.2,3.8,3.4,3.8c1.2,0,2.1-0.5,2.6-1.1l0.5,0.4c-0.7,0.8-1.8,1.3-3.1,1.3
			c-2.5,0-4.1-1.9-4.1-4.3c0-2.2,1.6-4.1,3.9-4.1c2.2,0,3.7,1.7,3.7,3.7v0.3H193z M193.1,1794.3h6.2c-0.1-1.7-1.3-3-3-3
			S193.3,1792.6,193.1,1794.3z"/>
		<path class="st2" d="M218.6,1791l-3,8H215l-2.3-7.2l-2.2,7.2H210l-3.1-8h0.7l2.6,7.2l2.3-7.2h0.5l2.2,7.1l2.6-7.1H218.6z"/>
		<path class="st2" d="M220.7,1797.5c0.4,0.6,1.2,1.1,2.2,1.1c1.3,0,2.1-0.6,2.1-1.7c0-2.5-4.4-1-4.5-3.9c0-1.3,1-2.2,2.5-2.2
			c1.1,0,1.9,0.4,2.4,0.9l-0.4,0.4c-0.4-0.4-1.1-0.8-2-0.8c-1.1,0-1.9,0.6-1.9,1.6c0,2.4,4.5,0.9,4.5,4c0,1.4-1.2,2.3-2.8,2.3
			c-1.3,0-2.3-0.6-2.7-1.3L220.7,1797.5z"/>
		<path class="st2" d="M234.3,1798.4v0.6h-6.4v-0.5l5.4-6.9h-5.1v-0.6h5.9v0.5l-5.3,6.9H234.3z"/>
		<path class="st2" d="M243.4,1791l-5.2,11.8h-0.7l1.8-4.1l-3.4-7.8h0.7l3,7.1l3.1-7.1H243.4z"/>
		<path class="st2" d="M245.4,1797.5c0.4,0.6,1.2,1.1,2.2,1.1c1.3,0,2.1-0.6,2.1-1.7c0-2.5-4.4-1-4.5-3.9c0-1.3,1-2.2,2.5-2.2
			c1.1,0,1.9,0.4,2.4,0.9l-0.4,0.4c-0.4-0.4-1.1-0.8-2-0.8c-1.1,0-1.9,0.6-1.9,1.6c0,2.4,4.5,0.9,4.5,4c0,1.4-1.2,2.3-2.8,2.3
			c-1.3,0-2.3-0.6-2.7-1.3L245.4,1797.5z"/>
		<path class="st2" d="M256.5,1791.5h-2.1v7.5h-0.6v-7.5h-1.2v-0.5h1.2v-2.4h0.6v2.4h2.1V1791.5z"/>
		<path class="st2" d="M264.3,1799l-4.7-4.3v4.3h-0.6v-12.5h0.6v8l4.3-3.5h0.9l-4.3,3.6l4.8,4.4H264.3z"/>
		<path class="st2" d="M267.1,1788.4c0-0.3,0.3-0.6,0.6-0.6c0.3,0,0.6,0.3,0.6,0.6c0,0.3-0.3,0.6-0.6,0.6
			C267.4,1789,267.1,1788.7,267.1,1788.4z M267.4,1791h0.6v8h-0.6V1791z"/>
		<path class="st2" d="M270.9,1795c0-2.3,1.6-4.2,4-4.2c1,0,1.9,0.3,2.6,0.9l-0.4,0.5c-0.5-0.5-1.3-0.8-2.2-0.8
			c-2.1,0-3.4,1.6-3.4,3.6c0,2.1,1.3,3.6,3.4,3.6c0.9,0,1.6-0.3,2.2-0.8l0.4,0.5c-0.7,0.6-1.6,0.9-2.6,0.9
			C272.5,1799.1,270.9,1797.3,270.9,1795z"/>
		<path class="st2" d="M286.4,1794.3v4.7h-0.6v-4.6c0-2.1-1-3-2.5-3c-1.5,0-2.6,1.1-2.7,3.1v4.6H280v-12.5h0.6v6.2
			c0.4-1.2,1.4-2,2.8-2C284.8,1790.8,286.4,1791.5,286.4,1794.3z"/>
	</g>
	<g class="st1">
		<path class="st2" d="M80.1,1804.5h0.6v12.5h-0.6V1804.5z"/>
		<path class="st2" d="M91.2,1809v8h-0.5l-0.1-2.1c-0.6,1.3-1.8,2.2-3.3,2.2c-2.1,0-3.8-1.7-3.8-4.2s1.7-4.2,3.8-4.2
			c1.5,0,2.8,0.9,3.3,2.2l0.1-2H91.2z M90.7,1813c0-2.1-1.4-3.6-3.3-3.6c-1.9,0-3.3,1.6-3.3,3.6s1.4,3.6,3.3,3.6
			S90.7,1815,90.7,1813z"/>
		<path class="st2" d="M97.7,1809.5h-2.1v7.5H95v-7.5h-1.2v-0.5H95v-2.4h0.6v2.4h2.1V1809.5z"/>
		<path class="st2" d="M107.2,1809v8h-0.5l-0.1-2.1c-0.6,1.3-1.8,2.2-3.3,2.2c-2.1,0-3.8-1.7-3.8-4.2s1.7-4.2,3.8-4.2
			c1.5,0,2.8,0.9,3.3,2.2l0.1-2H107.2z M106.6,1813c0-2.1-1.4-3.6-3.3-3.6c-1.9,0-3.3,1.6-3.3,3.6s1.4,3.6,3.3,3.6
			C105.2,1816.6,106.6,1815,106.6,1813z"/>
		<path class="st2" d="M113.7,1808.8l-0.1,0.6c-0.2,0-0.3-0.1-0.6-0.1c-1.2,0-2.1,1-2.1,2.6v5h-0.6v-8h0.6l0.1,1.6
			c0.3-1,1.1-1.8,2.3-1.8C113.4,1808.8,113.5,1808.8,113.7,1808.8z"/>
		<path class="st2" d="M122.2,1812.3v4.7h-0.6v-4.6c0-2.1-1-3-2.5-3c-1.4,0-2.5,1-2.7,2.8v4.9h-0.6v-8h0.6l0.1,1.7
			c0.4-1.2,1.4-2,2.8-2C120.6,1808.8,122.2,1809.5,122.2,1812.3z"/>
		<path class="st2" d="M125.1,1806.4c0-0.3,0.3-0.6,0.6-0.6c0.3,0,0.6,0.3,0.6,0.6c0,0.3-0.3,0.6-0.6,0.6
			C125.4,1807,125.1,1806.7,125.1,1806.4z M125.4,1809h0.6v8h-0.6V1809z"/>
		<path class="st2" d="M141,1812.3v4.7h-0.6v-4.6c0-2.1-1-3-2.5-3c-1.4,0-2.5,1-2.7,2.8v4.9h-0.6v-8h0.6l0.1,1.7
			c0.4-1.2,1.4-2,2.8-2C139.4,1808.8,141,1809.5,141,1812.3z"/>
		<path class="st2" d="M151.4,1809v8h-0.5l-0.1-2.1c-0.6,1.3-1.8,2.2-3.3,2.2c-2.1,0-3.8-1.7-3.8-4.2s1.7-4.2,3.8-4.2
			c1.5,0,2.8,0.9,3.3,2.2l0.1-2H151.4z M150.8,1813c0-2.1-1.4-3.6-3.3-3.6c-1.9,0-3.3,1.6-3.3,3.6s1.4,3.6,3.3,3.6
			C149.4,1816.6,150.8,1815,150.8,1813z"/>
		<path class="st2" d="M167.5,1813c0,2.5-1.7,4.2-3.8,4.2c-1.5,0-2.7-0.9-3.3-2.2v5.9h-0.6l0-11.8h0.6l0.1,2
			c0.6-1.3,1.8-2.2,3.4-2.2C165.8,1808.8,167.5,1810.5,167.5,1813z M166.8,1813c0-2.1-1.4-3.6-3.3-3.6c-1.9,0-3.3,1.6-3.3,3.6
			c0,2.1,1.4,3.6,3.3,3.6C165.4,1816.6,166.8,1815,166.8,1813z"/>
		<path class="st2" d="M169.7,1813c0-2.3,1.8-4.2,4.2-4.2c2.4,0,4.2,1.9,4.2,4.2s-1.8,4.2-4.2,4.2
			C171.4,1817.1,169.7,1815.3,169.7,1813z M177.3,1813c0-2-1.5-3.6-3.5-3.6c-2,0-3.5,1.6-3.5,3.6s1.5,3.6,3.5,3.6
			C175.8,1816.6,177.3,1815,177.3,1813z"/>
		<path class="st2" d="M180.7,1804.5h0.6v12.5h-0.6V1804.5z"/>
		<path class="st2" d="M184.3,1815.5c0.4,0.6,1.2,1.1,2.2,1.1c1.3,0,2.1-0.6,2.1-1.7c0-2.5-4.4-1-4.5-3.9c0-1.3,1-2.2,2.5-2.2
			c1.1,0,1.9,0.4,2.4,0.9l-0.4,0.4c-0.4-0.4-1.1-0.8-2-0.8c-1.1,0-1.9,0.6-1.9,1.6c0,2.4,4.5,0.9,4.5,4c0,1.4-1.2,2.3-2.8,2.3
			c-1.3,0-2.3-0.6-2.7-1.3L184.3,1815.5z"/>
		<path class="st2" d="M197.3,1817l-4.7-4.3v4.3H192v-12.5h0.6v8l4.3-3.5h0.9l-4.3,3.6l4.8,4.4H197.3z"/>
		<path class="st2" d="M200.2,1806.4c0-0.3,0.3-0.6,0.6-0.6c0.3,0,0.6,0.3,0.6,0.6c0,0.3-0.3,0.6-0.6,0.6
			C200.4,1807,200.2,1806.7,200.2,1806.4z M200.4,1809h0.6v8h-0.6V1809z"/>
		<path class="st2" d="M215.6,1812.3v4.7H215v-4.7c0-1.8-0.7-2.9-2.3-2.9c-1.4,0-2.2,1.1-2.4,3v4.7h-0.6v-4.8c0-1.7-0.8-2.8-2.3-2.8
			c-1.3,0-2.2,1.1-2.4,2.8v4.8h-0.6v-8h0.6l0.1,1.7c0.4-1.3,1.4-1.9,2.5-1.9c0.9,0,2.2,0.5,2.6,2.1c0.4-1.4,1.3-2.1,2.7-2.1
			C214.1,1808.8,215.6,1809.5,215.6,1812.3z"/>
		<path class="st2" d="M234.6,1809l-3,8H231l-2.3-7.2l-2.2,7.2H226l-3.1-8h0.7l2.6,7.2l2.3-7.2h0.5l2.2,7.1l2.6-7.1H234.6z"/>
		<path class="st2" d="M243.7,1809l-5.2,11.8h-0.7l1.8-4.1l-3.4-7.8h0.7l3,7.1l3.1-7.1H243.7z"/>
		<path class="st2" d="M253.6,1813c0,2.5-1.7,4.2-3.8,4.2c-1.6,0-2.8-0.9-3.3-2.2l-0.1,2.1h-0.5v-12.5h0.6v6.4
			c0.6-1.3,1.8-2.2,3.3-2.2C252,1808.8,253.6,1810.5,253.6,1813z M253,1813c0-2.1-1.4-3.6-3.3-3.6s-3.3,1.6-3.3,3.6
			c0,2.1,1.4,3.6,3.3,3.6C251.6,1816.6,253,1815,253,1813z"/>
		<path class="st2" d="M259.7,1808.8l-0.1,0.6c-0.2,0-0.3-0.1-0.6-0.1c-1.2,0-2.1,1-2.1,2.6v5h-0.6v-8h0.6l0.1,1.6
			c0.3-1,1.1-1.8,2.3-1.8C259.4,1808.8,259.5,1808.8,259.7,1808.8z"/>
		<path class="st2" d="M267.7,1816.4v0.6h-6.4v-0.5l5.4-6.9h-5.1v-0.6h5.9v0.5l-5.3,6.9H267.7z"/>
		<path class="st2" d="M270.6,1812.8L270.6,1812.8c0,2.1,1.2,3.8,3.4,3.8c1.2,0,2.1-0.5,2.6-1.1l0.5,0.4c-0.7,0.8-1.8,1.3-3.1,1.3
			c-2.5,0-4.1-1.9-4.1-4.3c0-2.2,1.6-4.1,3.9-4.1c2.2,0,3.7,1.7,3.7,3.7v0.3H270.6z M270.6,1812.3h6.2c-0.1-1.7-1.3-3-3-3
			S270.8,1810.6,270.6,1812.3z"/>
		<path class="st2" d="M286.1,1816.4v0.6h-6.4v-0.5l5.4-6.9H280v-0.6h5.9v0.5l-5.3,6.9H286.1z M282.3,1806.5c0-0.3,0.3-0.6,0.6-0.6
			c0.3,0,0.6,0.3,0.6,0.6c0,0.3-0.3,0.6-0.6,0.6C282.6,1807.1,282.3,1806.8,282.3,1806.5z"/>
		<path class="st2" d="M288.6,1813.8v-4.8h0.6v4.8c0,1.8,0.9,2.9,2.6,2.9c1.7,0,2.6-1.1,2.6-2.9v-4.8h0.6v4.8c0,2.7-1.7,3.5-3.2,3.5
			C290.3,1817.2,288.6,1816.5,288.6,1813.8z"/>
	</g>
	<g id="Group_181" transform="translate(118.879 1587.869)">
		<path id="Path_1327" class="st4" d="M13.2,60.9c4-11.1,13.6-33.9,32-34.3s69.1-2.2,82,13.2s15.2,27.5,13.3,51.8
			s-8.4,38.5-16.1,51.4S83.9,166,54.5,164.9S3.6,146.2,4.2,122.3S15,95.3,13.3,84.9S9.2,71.9,13.2,60.9z"/>
		<g id="swinoujscie" transform="translate(27.098 36.824)">
			<path class="st2" d="M19.8,111.1h-0.7V95.7c0.1-2.7-0.5-10.4-0.5-10.5c0-0.6,0.1-2.3,0.1-4.2c0.1-2.7,0.3-6.9,0.2-7.3
				c-0.2-0.5-0.5-1-0.9-1.5c-0.2-0.3-0.7-3.3-0.5-4c0-0.1,0.1-0.3,0.2-0.4c0.5-0.3,1.1-0.4,1.8-0.4c0.1,0,12.3-0.1,14.1-0.1
				c0.9,0,1.8,0.2,2.7,0.5l0.1,0c0.5,0.4-0.1,3.8-0.2,3.9c-0.3,0.6-0.6,1.1-0.8,1.7c0,0.1,0,0.4,0,0.8c0.1,10.5,0,10.7-0.1,10.9
				l-0.6-0.3l0.3,0.2l-0.3-0.1c0.1-0.3,0.1-2.3,0-10.6c0-0.5,0-0.7,0-0.8l0-0.1c0.2-0.6,0.5-1.2,0.8-1.8c0.1-0.2,0.3-2.4,0.3-3
				c-0.8-0.2-1.5-0.4-2.3-0.4c-1.8,0-14,0.1-14.2,0.1c-0.5,0-0.9,0-1.3,0.3c-0.1,0.5,0.3,3.1,0.4,3.5c0.3,0.5,0.6,1,0.9,1.6
				c0.2,0.4,0.1,2.6-0.1,7.6c-0.1,1.9-0.2,3.6-0.1,4.2c0,0.3,0.6,7.8,0.5,10.6V111.1z M18.2,68.3C18.2,68.3,18.2,68.3,18.2,68.3
				C18.2,68.3,18.2,68.3,18.2,68.3z"/>
			<path class="st2" d="M20.9,67.7l-0.7-0.1c0.7-9.7,2-45.6,1.7-47.7c-0.4-0.5-0.8-1.1-1-1.7c-0.2-0.6-0.5-3.5,0.1-4.1
				c0.9-0.8,10.3-0.4,12-0.1c0.5,0.1,0.7,0.2,0.8,0.3c0.3,0.6,0.2,1.7,0,2.6c-0.1,0.4-0.1,0.7-0.1,0.9l0,0.1
				c-0.2,0.7-0.5,1.3-0.9,1.9c-0.1,1.9,0.8,37.8,1.3,47.6l-0.7,0c-0.5-8.9-1.5-47.3-1.3-47.9c0.4-0.6,0.6-1.2,0.9-1.8
				c0-0.3,0.1-0.6,0.1-1c0.1-0.7,0.3-1.7,0.1-2.1c-1.1-0.4-10.8-0.6-11.7-0.1c-0.2,0.3-0.1,2.6,0.1,3.3c0.2,0.6,0.5,1.1,0.9,1.5
				C23.1,20.3,21.4,61.4,20.9,67.7z"/>
			<path class="st2" d="M31.4,14.2c0-1.7-0.1-3.8-0.4-4.1c-0.5-0.2-5.7-0.2-6.2,0c-0.2,0.2-0.1,2,0.2,3.8l-0.7,0.1
				c-0.3-1.8-0.5-4.1,0.2-4.5c0.7-0.4,6.4-0.4,7,0c0.5,0.4,0.6,2.7,0.6,4.6H31.4z"/>
			<path class="st2" d="M19.2,84.6l-0.5-0.5c2-1.8,4.3-4.1,4.3-4.6c0-0.8,0-1.7,0-2.5c0-2.1,0-4.5-0.2-4.9c-0.5-1.5-0.7-3-0.8-4.5
				l0.7,0c0,1.5,0.3,2.9,0.7,4.3c0.2,0.5,0.2,2.2,0.2,5.1c0,0.8,0,1.6,0,2.5C23.8,80.4,20.6,83.3,19.2,84.6z"/>
			<path class="st2" d="M35.1,84.9c-1.4-0.9-5.9-4-5.9-5.4c0-2.6,0.3-5.2,0.8-7.7c0.3-1.4,0.5-2.8,0.5-4.2l0.7,0
				c-0.1,1.4-0.3,2.9-0.5,4.3c-0.5,2.5-0.8,5-0.8,7.5c0,0.7,2.9,3,5.6,4.8L35.1,84.9z"/>
			<path class="st2" d="M27.4,51H25v-0.4c0-1.4,0.2-3,1-3.1c0.8-0.1,1.2,1.6,1.3,3L27.4,51z M25.7,50.3h0.9c-0.1-0.9-0.3-1.8-0.5-2
				C25.9,48.5,25.8,49.4,25.7,50.3z"/>
			<path class="st2" d="M27.5,78.5h-1.8l0-0.3c0-0.5-0.1-2.2,0.9-2.3c0.2,0,0.4,0,0.5,0.2c0.5,0.5,0.5,1.7,0.5,2.1L27.5,78.5z
				 M26.3,77.8h0.5c0-0.6-0.1-1.1-0.2-1.2C26.4,76.7,26.3,77.2,26.3,77.8z"/>
			<path class="st2" d="M28.6,93h-2.1l0-0.3c-0.1-1.5,0-4,1-4.1c0.2,0,0.4,0,0.5,0.2c0.7,0.6,0.7,3.2,0.6,3.9L28.6,93z M27.1,92.3
				h0.8c0-1.5-0.2-2.9-0.4-3C27.3,89.4,27.1,90.8,27.1,92.3z"/>
			<path class="st2" d="M31.3,32.3h-2.1l0-0.3c-0.1-0.7-0.4-3,0.2-3.6c0.2-0.2,0.4-0.2,0.6-0.2c1.1,0.2,1.3,2.9,1.3,3.7L31.3,32.3z
				 M29.8,31.6h0.7c-0.1-1.4-0.4-2.6-0.7-2.7C29.7,29.1,29.7,30.3,29.8,31.6z"/>
			<path class="st2" d="M24.8,19.9H23l-0.1-0.2c-0.3-0.5-1.2-2.4-0.8-3.1c0.1-0.2,0.3-0.3,0.5-0.4c1.2-0.1,1.9,2.5,2.1,3.3
				L24.8,19.9z M23.4,19.2h0.5c-0.3-1.3-0.9-2.3-1.2-2.3c0,0,0,0,0,0C22.6,17.1,22.9,18.2,23.4,19.2z"/>
			<path class="st2" d="M26.9,20.1L25.1,20l0-0.3c-0.3-2.1-0.2-3.3,0.5-3.4c0.1,0,0.4,0,0.7,0.3c0.6,0.7,0.9,2.8,0.7,3.2L26.9,20.1z
				 M25.7,19.3l0.6,0c0-0.6-0.3-1.9-0.6-2.3C25.6,17.4,25.6,18.4,25.7,19.3z"/>
			<path class="st2" d="M29.3,20h-1.8l0.1-0.4c0.2-1.2,0.6-3.2,1.5-3.1c0.2,0,0.3,0.1,0.5,0.3c0.4,0.6,0,2.4-0.1,3L29.3,20z
				 M28.3,19.3h0.5c0.2-0.9,0.3-1.8,0.2-2.1C28.7,17.4,28.5,18.3,28.3,19.3z"/>
			<path class="st2" d="M31.8,19.9h-2l0.1-0.5c0.4-1.1,1.1-3,1.9-2.9c0.2,0,0.3,0.1,0.4,0.3c0.4,0.6-0.2,2.2-0.4,2.9L31.8,19.9z
				 M30.8,19.2h0.5c0.3-0.8,0.5-1.6,0.4-1.9C31.5,17.5,31.1,18.3,30.8,19.2z"/>
			<path class="st2" d="M22.4,73.2h-2.1L20.3,73c-0.2-0.6-0.8-2.5-0.3-3.2c0.1-0.2,0.3-0.3,0.5-0.3c1-0.1,1.7,2.3,1.9,3.3L22.4,73.2
				z M20.9,72.5h0.7c-0.3-1.3-0.8-2.3-1.1-2.3C20.4,70.4,20.6,71.4,20.9,72.5z"/>
			<path class="st2" d="M26.6,73.1l-0.2,0l-1.7,0l-0.1-0.3c-0.2-0.8-0.5-2.6,0-3.1c0.2-0.2,0.4-0.2,0.6-0.2c0.6,0.1,1.1,0.7,1.4,1.7
				c0,0.1,0.4,1.4,0.1,1.8L26.6,73.1z M25.2,72.4l0.9,0c0-0.4-0.2-1.2-0.5-1.7c-0.2-0.3-0.4-0.4-0.6-0.5C25,70.3,25,71.3,25.2,72.4z
				"/>
			<path class="st2" d="M29.4,73.1h-2.2l0-0.3c0-0.2-0.2-2.1,0.5-2.9c0.2-0.2,0.5-0.3,0.8-0.3c0.6,0,0.8,0.9,0.9,1.7
				c0.1,0.7,0.1,1.4,0.1,1.5V73.1z M27.8,72.4h0.9c0-1.1-0.2-2-0.4-2.2c0,0-0.1,0-0.2,0.1C27.8,70.7,27.8,71.7,27.8,72.4z"/>
			<path class="st2" d="M34,73.1h-2.2l0.1-0.4c0.2-1.2,0.8-3.3,1.7-3.2c0.2,0,0.3,0.1,0.4,0.3c0.5,0.6,0.2,2.5,0,3L34,73.1z
				 M32.7,72.4h0.8c0.2-1,0.2-2,0-2.2C33.3,70.3,32.9,71.3,32.7,72.4z"/>
			<path class="st2" d="M33.8,14.7l-0.6-0.4c0.4-0.6,0.7-1.3,0.8-1.7c-1.8-0.2-11.4-0.4-12.9-0.1c0.1,0.6,0.2,1.2,0.5,1.7l-0.6,0.3
				c-0.3-0.7-0.5-1.4-0.6-2.2l0-0.1l0-0.1c0.1-0.4,0.2-0.6,7-0.5c3,0.1,6.7,0.2,7,0.3c0.1,0,0.3,0.1,0.3,0.3
				C34.7,12.4,34.9,12.8,33.8,14.7z"/>
			<polygon class="st2" points="24.1,10 24,4.2 31.9,4.2 31.3,9.8 30.7,9.7 31.1,5 24.7,5 24.8,10 			"/>
			<path class="st2" d="M24.5,4.9l-1.1-0.1l0-0.4c0.1-0.5,2.5-3.5,3.7-3.5c0,0,0,0,0,0c1,0.1,4.6,2.8,4.7,3.5L32,4.7l-0.3,0.2
				l-0.3-0.6c-0.2,0.1-0.2,0.3-0.2,0.4c-0.2-0.5-3.3-3-4.1-3c-0.5-0.1-2.2,1.8-2.8,2.6l0.2,0L24.5,4.9z"/>
			<path class="st2" d="M26.8,1.6c-0.2,0-0.3,0-0.5-0.1c-0.2-0.1-0.3-0.4-0.3-0.7c0-0.6,0.4-1.1,1-1.1l0,0l0,0
				c1,0.2,1.1,0.7,1.1,0.9c0,0.3-0.1,0.8-1,1C27.1,1.6,27,1.6,26.8,1.6z M27.1,0.4c-0.2,0-0.4,0.2-0.3,0.4c0,0.1,0,0.2,0,0.2
				c0,0,0.1,0,0.2,0c0.2,0,0.5-0.2,0.5-0.4C27.6,0.5,27.4,0.4,27.1,0.4z"/>
			<path class="st2" d="M38.1,111.7c-14.3,0-35-0.4-36-1.4C0.8,109,1,97.5,1.1,95.2l0.7,0c-0.1,5.2,0,13.7,0.8,14.6
				c1.4,0.9,46.5,1.7,49.4,0.9c0.4-1,0.5-9.8,0.5-15.3l0.7,0c0,4.5,0,15-0.6,15.8c-0.1,0.2-0.2,0.3-3.1,0.4
				C47.1,111.7,43,111.7,38.1,111.7z"/>
			<path id="Path_1306" class="st5" d="M18.7,84.6"/>
			<polygon class="st2" points="35.6,111.3 34.9,111.3 35.4,96.5 34.9,84.6 35.6,84.6 36.1,96.5 			"/>
			<path class="st2" d="M5.5,102.8c-0.2,0-0.3,0-0.4,0c-0.3-0.1-0.4-0.2-0.5-0.4c-0.2-0.4-0.9-3.7-0.5-4.5c0.1-0.2,0.3-0.3,0.3-0.3
				l0,0c1-0.2,1.9-0.2,2.9,0l0.1,0l0.1,0.1c0.3,0.3,0.4,2.7,0.3,3.6c-0.1,0.5-0.2,0.8-0.3,0.9C7.2,102.5,6.2,102.8,5.5,102.8z
				 M4.7,98.3c-0.1,0.6,0.3,3.3,0.5,3.8c0.2,0.1,1.5-0.2,1.9-0.4c0.2-0.3,0.1-2.7-0.1-3.4C6.3,98.2,5.5,98.2,4.7,98.3z"/>
			<path class="st2" d="M12.5,102.8c-0.5,0-1-0.1-1.2-0.4l0-0.1c-0.2-1.5-0.3-3-0.3-4.5l0-0.1c0.1-0.3,0.5-0.5,1.2-0.5
				c0,0,1.9-0.1,2.2,0.5c0.2,0.4,0.4,3.9,0.1,4.6c-0.1,0.1-0.2,0.2-0.3,0.3C14.2,102.6,13.3,102.8,12.5,102.8z M12,102.1
				c0.3,0.1,1.5,0,1.9-0.1c0.2-0.6,0-3.3-0.1-3.9c-0.4-0.1-1.7-0.2-2.1-0.1C11.7,99.4,11.7,100.7,12,102.1z"/>
			<path class="st2" d="M6.9,108.3c-0.4,0-0.8,0-1.4-0.1c-0.1,0-0.2,0-0.3,0c-0.2,0-0.6,0-0.8-2.7c-0.1-1.3,0-1.9,0.4-2l0,0
				c0.1,0,2.6-0.4,3.1,0l0.1,0.1l0,0.2c0,0.1,0,0.6,0,1c0.1,2.3,0.1,2.9-0.2,3.2C7.7,108.2,7.4,108.3,6.9,108.3z M5.4,107.5
				c0,0,0.1,0,0.1,0c1.2,0.1,1.6,0.1,1.8,0.1c0.1-0.4,0-1.9,0-2.6c0-0.4,0-0.7,0-0.9c-0.5-0.1-1.8,0.1-2.2,0.1
				C4.9,104.8,5.2,106.9,5.4,107.5z"/>
			<path class="st2" d="M13,108.4c-0.4,0-0.7,0-1.1-0.1l-0.1,0c-0.2-0.1-0.3-0.3-0.5-1.1c0,0-0.6-3.1-0.1-3.6l0.1-0.1l0.1,0
				c0.8-0.1,1.6-0.1,2.4,0c0.3,0.1,0.4,0.4,0.5,0.7c0.1,0.5,0.4,3.8-0.1,4.1l-0.1,0.1C13.8,108.4,13.4,108.4,13,108.4z M12.2,107.6
				c0.5,0.1,1,0.1,1.5,0c0.1-0.7,0-3-0.2-3.6c-0.6-0.1-1.2-0.1-1.8,0C11.7,104.7,12,107.1,12.2,107.6z"/>
			<rect x="4.5" y="99.7" class="st2" width="3.1" height="0.7"/>
			
				<rect x="5.7" y="97.9" transform="matrix(0.999 -4.503440e-02 4.503440e-02 0.999 -4.4996 0.376)" class="st2" width="0.7" height="4.4"/>
			<rect x="5.8" y="103.8" class="st2" width="0.7" height="4.2"/>
			
				<rect x="5.8" y="104.3" transform="matrix(4.309460e-02 -0.9991 0.9991 4.309460e-02 -99.8319 107.3647)" class="st2" width="0.7" height="3"/>
			
				<rect x="12.5" y="98.5" transform="matrix(5.752449e-02 -0.9983 0.9983 5.752449e-02 -87.7075 107.0259)" class="st2" width="0.7" height="3"/>
			
				<rect x="12.4" y="97.6" transform="matrix(0.9993 -3.612947e-02 3.612947e-02 0.9993 -3.6047 0.5257)" class="st2" width="0.7" height="4.9"/>
			
				<rect x="12.6" y="103.7" transform="matrix(0.999 -4.507802e-02 4.507802e-02 0.999 -4.7563 0.6895)" class="st2" width="0.7" height="4.3"/>
			
				<rect x="12.5" y="104.6" transform="matrix(0.1128 -0.9936 0.9936 0.1128 -93.8113 106.7038)" class="st2" width="0.7" height="2.6"/>
			<path class="st2" d="M49,108.7c-0.5,0-1,0-1.5-0.1l-0.1,0l-0.1-0.1c-0.3-0.3-0.4-2.7-0.3-3.6c0.1-0.5,0.2-0.8,0.4-0.9
				c0.4-0.3,1.8-0.7,2.5-0.5c0.3,0.1,0.4,0.2,0.5,0.4c0.2,0.4,0.9,3.7,0.5,4.5c-0.1,0.2-0.3,0.3-0.3,0.3l0,0
				C50,108.6,49.5,108.7,49,108.7z M47.9,107.9c0.8,0.1,1.6,0.1,2.4,0c0.1-0.6-0.3-3.3-0.5-3.8c-0.2-0.1-1.5,0.2-1.9,0.4
				C47.6,104.8,47.7,107.2,47.9,107.9z"/>
			<path class="st2" d="M42.4,109c-0.6,0-1.7-0.1-1.9-0.5c-0.2-0.4-0.4-3.9-0.1-4.6c0.1-0.1,0.2-0.2,0.3-0.3
				c0.1-0.1,2.5-0.5,2.9,0.2l0,0.1c0.2,1.5,0.3,3,0.3,4.5l0,0.1c-0.1,0.3-0.5,0.5-1.2,0.5C42.7,109,42.6,109,42.4,109z M41.2,108.1
				c0.4,0.1,1.7,0.2,2.1,0.1c0.1-1.4,0-2.7-0.2-4.1c-0.2-0.1-1.5,0-1.9,0.1C40.9,104.8,41,107.5,41.2,108.1z M41.1,108.1L41.1,108.1
				z"/>
			<path class="st2" d="M48.2,102.8c-0.5,0-0.9,0-1.1-0.2l-0.1-0.1l0-0.2c0-0.1,0-0.6,0-1c-0.1-2.3-0.1-2.9,0.2-3.2
				c0.3-0.2,0.9-0.3,2.4-0.1c0.1,0,0.2,0,0.3,0c0.2,0,0.5,0,0.8,2.6c0.2,1.4,0.1,1.9-0.4,2l0,0c0,0,0,0,0,0c0,0,0,0,0,0
				C50.2,102.6,49.1,102.8,48.2,102.8z M50.1,101.9l0.1,0.3L50.1,101.9C50.1,101.9,50.1,101.9,50.1,101.9L50.1,101.9z M47.7,102.1
				c0.5,0.1,1.8-0.1,2.2-0.1c0.1-0.5-0.2-2.7-0.4-3.3c0,0-0.1,0-0.1,0c-1.2-0.1-1.6-0.1-1.8-0.1c-0.1,0.4,0,1.9,0,2.6
				C47.7,101.6,47.7,101.9,47.7,102.1z"/>
			<path class="st2" d="M42.3,102.9c-0.4,0-0.8,0-1.2-0.1c-0.3-0.1-0.4-0.4-0.5-0.7c-0.1-0.5-0.4-3.8,0.1-4.1l0.1-0.1
				c0.7-0.2,1.5-0.2,2.2,0l0.1,0c0.1,0.1,0.3,0.2,0.5,1.1c0,0,0.5,3,0.1,3.6l-0.1,0.1l-0.1,0C43.1,102.9,42.7,102.9,42.3,102.9z
				 M41.4,102.1c0.6,0.1,1.2,0.1,1.8,0c0.1-0.7-0.2-3-0.4-3.6c-0.5-0.1-1-0.1-1.5,0C41.1,99.2,41.2,101.6,41.4,102.1z"/>
			<rect x="47.4" y="105.8" class="st2" width="3.1" height="0.7"/>
			
				<rect x="48.5" y="103.9" transform="matrix(0.999 -4.513535e-02 4.513535e-02 0.999 -4.7409 2.3141)" class="st2" width="0.7" height="4.4"/>
			<rect x="48.4" y="98.2" class="st2" width="0.7" height="4.2"/>
			<polygon class="st2" points="50.3,100.8 47.3,100.7 47.4,100 50.3,100.1 			"/>
			
				<rect x="41.8" y="104.7" transform="matrix(5.752449e-02 -0.9983 0.9983 5.752449e-02 -66.3357 142.1842)" class="st2" width="0.7" height="3"/>
			
				<rect x="41.9" y="103.8" transform="matrix(0.9994 -3.603621e-02 3.603621e-02 0.9994 -3.7992 1.5906)" class="st2" width="0.7" height="4.9"/>
			
				<rect x="41.7" y="98.2" transform="matrix(0.999 -4.507802e-02 4.507802e-02 0.999 -4.4826 1.9981)" class="st2" width="0.7" height="4.3"/>
			
				<rect x="41.8" y="99" transform="matrix(0.1131 -0.9936 0.9936 0.1131 -62.3049 130.8184)" class="st2" width="0.7" height="2.6"/>
			
				<rect x="26.6" y="4.6" transform="matrix(0.9989 -4.693922e-02 4.693922e-02 0.9989 -0.3047 1.2721)" class="st2" width="0.7" height="5"/>
			
				<rect x="27.4" y="6.8" transform="matrix(5.855856e-02 -0.9983 0.9983 5.855856e-02 21.0393 36.6153)" class="st2" width="5" height="0.7"/>
			<rect x="35.8" y="3.2" transform="matrix(0.928 -0.3726 0.3726 0.928 1.3812 14.1999)" class="st2" width="3.2" height="0.7"/>
			
				<rect x="36.8" y="6.6" transform="matrix(0.9977 -6.837110e-02 6.837110e-02 0.9977 -0.3854 2.6566)" class="st2" width="3.5" height="0.7"/>
			<rect x="37.2" y="8.9" transform="matrix(0.4488 -0.8936 0.8936 0.4488 11.6118 39.123)" class="st2" width="0.7" height="2.5"/>
			<rect x="18.1" y="2.3" transform="matrix(0.425 -0.9052 0.9052 0.425 7.4891 18.6734)" class="st2" width="0.7" height="2.3"/>
			
				<rect x="15" y="6.4" transform="matrix(0.9992 -3.907628e-02 3.907628e-02 0.9992 -0.2518 0.659)" class="st2" width="3.4" height="0.7"/>
			
				<rect x="15.6" y="10.3" transform="matrix(0.9016 -0.4326 0.4326 0.9016 -2.9591 8.3058)" class="st2" width="2.3" height="0.7"/>
			<path class="st2" d="M9.9,95.9c-4.7,0-9.4-0.2-10.1-0.8c-0.2-0.1-0.4-0.3,0.5-4.9c0.2-1.4,0.8-4.6,1.1-5
				c0.3-0.4,1.8-0.5,11.2-0.9c3-0.1,5.8-0.2,6.3-0.3l0.1,0.7c-0.6,0.1-3.2,0.2-6.4,0.4c-4,0.2-9.9,0.4-10.7,0.7
				c-0.4,0.9-1.6,7.9-1.6,9c1.6,0.7,17.1,0.7,19,0.2l0.2,0.7C18.8,95.8,14.4,95.9,9.9,95.9z"/>
			<path class="st2" d="M46.5,96c-5.1,0-10.8-0.3-10.9-0.3l0.2-0.7c1.4,0.3,16.3,0.4,17.8-0.1c0.2-1.1-1.1-8.3-1.7-9.1
				c-1.4-0.3-15.8-1.1-16.6-1l-0.1-0.7c0.9-0.2,15.8,0.7,16.9,1c0.2,0.1,0.4,0.3,0.5,0.6c0.7,1.6,2,8.8,1.6,9.6
				C53.9,95.9,50.4,96,46.5,96z"/>
			<path class="st2" d="M28.6,106.7l-2.5-0.1l0-0.3c0,0-0.2-4.1,1.3-4.4c0.2,0,0.4,0,0.6,0.2c0.8,0.7,0.7,3.4,0.7,4.3L28.6,106.7z
				 M26.7,105.9l1.2,0.1c0-1.7-0.2-3.2-0.5-3.4C26.9,102.7,26.7,105,26.7,105.9z"/>
		</g>
		<rect x="89.4" y="37" transform="matrix(0.9056 -0.4242 0.4242 0.9056 -7.3564 41.7101)" class="st2" width="1.3" height="0.7"/>
		<path class="st2" d="M92.5,148.8l-1.6-1.5l0.5-0.5l0.3,0.3c-0.4-6.7-2.6-49.1-2.6-58.7c0-10.4,1.2-50.8,1.2-51.2l0-0.7l2,1.5
			l-0.4,0.6l-1-0.7c-0.2,5.3-1.2,40.8-1.2,50.5c0,10.4,2.6,59.1,2.7,59.6L92.5,148.8z"/>
		<rect x="91.9" y="147" transform="matrix(0.725 -0.6887 0.6887 0.725 -76.016 104.3283)" class="st2" width="1.5" height="0.7"/>
		<path class="st2" d="M99.8,95.7c-0.3,0-0.6-0.1-0.9-0.2c-0.8-0.4-1.4-1-1.9-1.7c-1.1-1.4-1.8-3.1-1.9-5c-0.2-1.9,0.6-3.7,2-4.9
			c1.5-1.2,3.7-1.2,5.3-0.1l-0.4,0.6c-1.3-1-3.1-1-4.4,0c-1.3,1.1-1.9,2.7-1.8,4.3c0.1,0.6,0.2,1.2,0.4,1.8c0.9-0.8,2.2-1.1,3.4-0.6
			c1.2,0.6,2.1,1.7,2.3,3c0.2,0.6,0,1.4-0.3,1.9C101,95.4,100.4,95.7,99.8,95.7z M96.4,91.3c0.3,0.8,0.7,1.5,1.2,2.1
			c0.4,0.6,1,1.1,1.6,1.5c0.6,0.3,1.3,0.1,1.7-0.3c0.2-0.4,0.3-0.9,0.2-1.4c-0.2-1.1-0.9-2.1-1.9-2.5C98.2,90.2,97.1,90.4,96.4,91.3
			L96.4,91.3z"/>
		<path class="st2" d="M106.3,95.7l-0.7-0.2c0.5-2.1,1.5-4,2.4-5.8c0.4-0.9,0.9-1.8,1.3-2.7c0.4-0.8,0.6-1.7,0.6-2.6l-5.4-0.5
			l0.1-0.7l5.4,0.5c0.1,0,0.3,0,0.4,0.1c0.2,0.2,0.3,0.4,0.3,0.6c0,1-0.2,2-0.7,2.9c-0.4,0.9-0.8,1.8-1.3,2.7
			C107.7,91.8,106.8,93.7,106.3,95.7z"/>
		<path class="st2" d="M107.5,90.1c-0.4,0-0.8,0-1.2,0l0-0.7c1.1,0.1,2.2,0,3.2-0.1l0.1,0.7C108.9,90.1,108.2,90.1,107.5,90.1z"/>
		<path class="st2" d="M110.5,98.3l-0.6-0.3c0.3-0.8,0.6-1.5,0.8-2.3l0.7,0.2C111.2,96.7,110.9,97.5,110.5,98.3z"/>
		<path class="st2" d="M119.2,96.9l-0.7-0.1c0.6-3.7,1.7-7.3,3.3-10.7c0.4-0.7,0.7-1.5,0.7-2.3l-7.3-0.2l0-0.7l7.9,0.2l0,0.3
			c0,1-0.3,2.1-0.8,3C120.8,89.7,119.8,93.3,119.2,96.9z"/>
		<path class="st2" d="M119.5,89.4c-0.5,0-0.9,0-1.4,0l0-0.7c1.3,0.1,2.6,0,3.8-0.1l0.1,0.7C121.2,89.4,120.4,89.4,119.5,89.4z"/>
		<path class="st2" d="M125.1,97.9c-0.2,0-0.7,0-1.4-5.9l0.7-0.1c0.1,1.2,0.3,2.6,0.5,3.7c0-0.3,0.1-0.7,0.1-0.9
			c0.2-1,0.8-1.9,1.7-2.5l0.2-0.1l0.2,0.1c0.7,0.4,1.2,1.1,1.5,1.9c0-0.1,0.1-0.1,0.1-0.2c0.4-0.9,1.1-1.5,2-1.8
			c0.4-0.1,0.8-0.1,1.2,0c0.5,0.2,0.9,0.6,1.1,1.1c0.4,0.8,0.4,1.6,0.5,2.4c0,0.5,0.1,1.1,0.2,1.5l-0.7,0.2
			c-0.1-0.5-0.2-1.1-0.2-1.7c0-0.8-0.1-1.5-0.4-2.1c-0.1-0.3-0.4-0.6-0.7-0.7c-0.2-0.1-0.5-0.1-0.7,0c-0.7,0.2-1.3,0.7-1.5,1.4
			c-0.2,0.6-0.3,1.3-0.3,1.9c0,0.1,0,0.2,0,0.4l-0.7,0.1c0-0.1,0-0.3-0.1-0.4c-0.2-1.2-0.5-2.5-1.4-3.2c-0.6,0.5-1,1.2-1.2,2
			c-0.1,0.4-0.1,1.1-0.1,1.7c0,0.9,0,1.2-0.2,1.3l-0.1,0.1L125.1,97.9z"/>
	</g>
</g>
</svg>
