<svg xmlns="http://www.w3.org/2000/svg" width="347" height="372.276" viewBox="0 0 347 372.276">
  <g id="Group_355" data-name="Group 355" transform="translate(-1070.847 -555.866)">
    <g id="CIEKAWOSTKA">
      <path id="Path_1283" data-name="Path 1283" d="M1084.961,573.25c21.329-26.6,301.273-19.481,317.158,0s23,310.27,5.608,334.215-306.643,27.428-322.769,8.691S1063.633,599.854,1084.961,573.25Z" fill="#e5a34c"/>
      <g id="CIEKAWOSTKA-2" style="isolation: isolate">
        <text id="CIEKAWOSTKA-2-2" data-name="CIEKAWOSTKA" transform="translate(1170.339 599.803)" fill="#2e3c4b" font-size="22" font-family="SulphurPoint-Bold, Sulphur Point" font-weight="700" letter-spacing="0.025em" style="isolation: isolate"><tspan x="0" y="0">CIEKAWOSTKA</tspan></text>
      </g>
      <rect id="Rectangle_45" data-name="Rectangle 45" width="12.483" height="2.497" transform="translate(1232.025 607.769)" fill="#ae4426"/>
      <g id="Group_181" data-name="Group 181">
        <path id="Path_1327" data-name="Path 1327" d="M1160.971,676.114c5.516-15.086,18.484-46.185,43.66-46.742s94.315-3,111.88,18.051,20.67,37.466,18.08,70.665-11.5,52.475-22,70.137-55.2,31.273-95.374,29.708-69.436-25.383-68.657-57.982,14.83-36.955,12.407-51.118S1155.455,691.2,1160.971,676.114Z" fill="#f2edeb"/>
      </g>
      <text id="Latarnia_w_Jarosławcu_jest_również_radiolatarnią_emituje_fale_radiowe" data-name="Latarnia w Jarosławcu
jest również radiolatarnią,
emituje fale radiowe" transform="translate(1238.005 845.695)" fill="#2e3c4b" font-size="20" font-family="ClarikaProGeo-Th, Clarika Pro Geometric" letter-spacing="0.025em" style="isolation: isolate"><tspan x="-96.245" y="0">Latarnia w Jarosławcu</tspan><tspan x="-113.112" y="24">jest również radiolatarnią,</tspan><tspan x="-94.74" y="48">emituje </tspan><tspan y="48" font-family="ClarikaProGeo-Dm, Clarika Pro Geometric">fale radiowe</tspan></text>
    </g>
    <g id="jarosławiec">
      <path id="Path_2155" data-name="Path 2155" d="M1235.519,800.295c-3.245,0-5.857-.329-6.428-1.47h0c-.595-1.191-1.276-8.691-1.979-16.936-.093-1.09-.178-2.081-.252-2.909-.909-10.257-.9-16.123.041-17.433s5.733-1.279,9.57-1.246c1.45.013,2.7.025,3.456-.043,2.415-.22,12.042-.416,13.374.649,1.41,1.128,1.481,12.489,1.481,14.755,0,.784.061,2.48.136,4.626.306,8.7.546,17.3-.165,18.548-.8,1.4-5.09,1.345-9.411,1.168-.7-.028-1.3-.053-1.7-.053-.425,0-1.188.048-2.154.108C1239.467,800.186,1237.388,800.295,1235.519,800.295Zm-6.033-1.667c.843,1.686,8.36,1.216,11.973.991.973-.061,1.742-.109,2.181-.109.41,0,1.009.024,1.719.053,2.893.117,8.278.338,9.011-.946.708-1.238.317-12.346.106-18.313-.075-2.151-.135-3.85-.135-4.642,0-5.369-.35-13.638-1.316-14.41-1.088-.87-9.927-.839-13.058-.555-.774.071-2.037.06-3.5.046-3.342-.032-8.394-.077-9.207,1.061-.491.688-1.14,3.829.04,17.137.073.829.158,1.82.251,2.911.5,5.82,1.328,15.562,1.935,16.776Z" fill="#2e3c4b"/>
      <path id="Path_2156" data-name="Path 2156" d="M1227.76,761.162c-.221-.825-.689-8.2-.919-15.634-.209-6.7-.284-14.98.541-16.355.939-1.565,14.059-2.079,20.1-1.668,3.954.268,4.188.814,4.276,1.019.858,2,1.7,30.935.939,32.25l-.382-.221c.674-1.193-.2-30.071-.962-31.855-.022-.051-.319-.51-3.9-.753-7.985-.54-19.083.436-19.7,1.455-.591.987-.766,6.86-.478,16.115.226,7.275.694,14.746.905,15.533Z" fill="#2e3c4b"/>
      <path id="Path_2157" data-name="Path 2157" d="M1228.351,728.863c-.475-.942.117-10.766.31-13.754.392-6.067,1-13.146,1.4-14.355a.766.766,0,0,1,.485-.42c2.68-1.109,17.762-.169,18.683.292,1.173.587,1.679,27.281,1.657,27.538l-.439-.036c.044-1.458-.619-26.1-1.448-27.131-.831-.407-15.776-1.289-18.282-.256-.21.087-.237.152-.238.152-.819,2.459-2.327,26.6-1.734,27.771Z" fill="#2e3c4b"/>
      <path id="Path_2158" data-name="Path 2158" d="M1248.769,700.849l-.438-.05c.2-1.753-.428-20.746-2.229-21.872-2.18-1.362-12.624-1.9-13.2-1.046-.961,1.442-1.979,20.927-1.684,22.5l-.433.081c-.316-1.672.709-21.259,1.751-22.822.865-1.3,11.872-.285,13.8.917C1248.475,679.89,1248.957,699.214,1248.769,700.849Z" fill="#2e3c4b"/>
      <path id="Path_2159" data-name="Path 2159" d="M1246.7,679.219l-.353-.265a44.087,44.087,0,0,1,3.191-3.924c.241-.171.125-1.818-.049-2.315-1.315-.251-18.646-.23-19.561.032A4.234,4.234,0,0,0,1230,674.1a4.956,4.956,0,0,1,.065.589,23.782,23.782,0,0,0,2.677,3.278l-.327.3c-1.042-1.144-2.791-3.129-2.791-3.576a4.841,4.841,0,0,0-.061-.527c-.129-.908-.194-1.568.159-1.8.484-.322,18.735-.378,19.927-.061a.3.3,0,0,1,.206.146c.192.383.513,2.579-.078,2.956A45.747,45.747,0,0,0,1246.7,679.219Z" fill="#2e3c4b"/>
      <path id="Path_2160" data-name="Path 2160" d="M1246.019,675.007l-.428-.108c.207-.821.574-9.619-.332-10.385-1.06-.9-10.526-.323-11.042.279-.286.558-.247,9.12-.148,9.895l-.439.056c-.01-.082-.232-9.46.214-10.187.1-.165.371-.359,1.606-.557,2.739-.437,9.139-.631,10.094.177C1246.769,665.214,1246.128,674.577,1246.019,675.007Z" fill="#2e3c4b"/>
      <path id="Path_2161" data-name="Path 2161" d="M1232.792,665.041a1.048,1.048,0,0,1-.817-.236.33.33,0,0,1-.009-.332c.348-.8,6.179-7.523,7.113-7.627h.023c1.038,0,8.6,6.692,8.93,7.255l.073.125-.073.169c-.076.1-.253.346-3.41-.1l.062-.438a23.575,23.575,0,0,0,2.805.258c-1.152-1.266-7.625-6.743-8.377-6.831-.637.174-6.156,6.175-6.71,7.286a4.978,4.978,0,0,0,1.587-.116l.087.433A7.059,7.059,0,0,1,1232.792,665.041Z" fill="#2e3c4b"/>
      <path id="Path_2162" data-name="Path 2162" d="M1238.872,657.354a.877.877,0,0,1-.371-.089,2.182,2.182,0,0,1-1.088-1.438,1.553,1.553,0,0,1,.44-1.3.9.9,0,0,1,.833-.214h0a1.742,1.742,0,0,1,1.53,1.479,1.05,1.05,0,0,1-.707,1.291c-.093.051-.19.1-.286.165A.638.638,0,0,1,1238.872,657.354Zm-.411-2.624a.449.449,0,0,0-.312.128,1.121,1.121,0,0,0-.3.911,1.756,1.756,0,0,0,.836,1.1.306.306,0,0,0,.3.017c.106-.069.213-.127.316-.183.39-.211.586-.317.484-.815-.136-.668-.439-.955-1.2-1.138h0A.528.528,0,0,0,1238.461,654.73Z" fill="#2e3c4b"/>
      <path id="Path_2163" data-name="Path 2163" d="M1249.57,675.42c-1.123-.462-14.616-.521-19.729-.508v-.441c.749,0,18.463-.049,19.9.541Z" fill="#2e3c4b"/>
      <path id="Path_2164" data-name="Path 2164" d="M1231.006,674.911c-.227,0-.331,0-.473-2.437l.441-.026a16.666,16.666,0,0,0,.21,2.125l-.178.072Z" fill="#2e3c4b"/>
      <path id="Path_2165" data-name="Path 2165" d="M1231.927,674.729a17.8,17.8,0,0,1,0-2.279l.441.022a16.839,16.839,0,0,0,0,2.179Z" fill="#2e3c4b"/>
      <rect id="Rectangle_243" data-name="Rectangle 243" width="0.441" height="2.238" transform="translate(1234.589 672.461)" fill="#2e3c4b"/>
      <rect id="Rectangle_244" data-name="Rectangle 244" width="2.258" height="0.441" transform="matrix(0.108, -0.994, 0.994, 0.108, 1235.757, 674.682)" fill="#2e3c4b"/>
      <rect id="Rectangle_245" data-name="Rectangle 245" width="0.441" height="2.64" transform="translate(1238.605 672.313)" fill="#2e3c4b"/>
      <rect id="Rectangle_246" data-name="Rectangle 246" width="0.441" height="2.378" transform="translate(1239.81 672.313)" fill="#2e3c4b"/>
      <rect id="Rectangle_247" data-name="Rectangle 247" width="0.441" height="2.482" transform="translate(1242.686 672.316)" fill="#2e3c4b"/>
      <rect id="Rectangle_248" data-name="Rectangle 248" width="0.441" height="2.628" transform="translate(1244.098 672.325)" fill="#2e3c4b"/>
      <rect id="Rectangle_249" data-name="Rectangle 249" width="0.441" height="2.492" transform="translate(1246.98 672.461)" fill="#2e3c4b"/>
      <rect id="Rectangle_250" data-name="Rectangle 250" width="0.441" height="2.755" transform="translate(1248.33 672.461)" fill="#2e3c4b"/>
      <path id="Path_2166" data-name="Path 2166" d="M1237.483,674.748l-.437-.065.357-2.4-.359-8.195.441-.019.357,8.236Z" fill="#2e3c4b"/>
      <rect id="Rectangle_251" data-name="Rectangle 251" width="0.441" height="10.877" transform="translate(1241.337 664.076)" fill="#2e3c4b"/>
      <path id="Path_2167" data-name="Path 2167" d="M1220.218,800.434a6.848,6.848,0,0,1-1.452-.122,1.087,1.087,0,0,1-.8-.484c-.644-1.31-2.08-30.9-1.537-31.656s9.455-1.433,10-1.261a.254.254,0,0,1,.2.243l-.441,0,.221,0-.112.177c-.592-.194-8.773.607-9.5,1.094-.378,1.645,1.043,30.152,1.562,31.207.023.045.116.16.5.249,2.326.536,9.725-.892,10.287-1.33l.271.349C1228.819,799.371,1223.333,800.434,1220.218,800.434Z" fill="#2e3c4b"/>
      <path id="Path_2168" data-name="Path 2168" d="M1215.313,768.594c-.946,0-2.009-.135-2.185-.721-.157-.524,1.122-4.2,2.223-7.184a72.4,72.4,0,0,1,2.81-6.927c.514-.6,7.173-.88,9.2-.952l.015.441c-4.069.144-8.507.484-8.887.8-.432.525-5.1,12.769-4.939,13.7.115.378,1.663.478,3.035.329l.048.439A13.014,13.014,0,0,1,1215.313,768.594Z" fill="#2e3c4b"/>
      <path id="Path_2169" data-name="Path 2169" d="M1220.223,783.906a1.118,1.118,0,0,1-.445-.06l-.1-.055-.013-.116c-.908-8.15-.751-8.386-.7-8.463.069-.1.228-.339,4.838-.507l.21-.008.018.208c.068.731.655,7.158.572,7.74-.031.22-.261.36-.432.446A12.656,12.656,0,0,1,1220.223,783.906Zm-.138-.432c.724.069,3.849-.523,4.084-.913.05-.371-.3-4.557-.561-7.407a36.649,36.649,0,0,0-4.261.327C1219.319,776.205,1219.769,780.625,1220.085,783.474Z" fill="#2e3c4b"/>
      <path id="Path_2170" data-name="Path 2170" d="M1218.929,775.372c-.015-.087-.354-2.138.486-3.216a1.646,1.646,0,0,1,1.22-.641c2.234-.176,3.338,3.2,3.384,3.344l-.421.133c-.011-.032-1.029-3.186-2.929-3.036a1.2,1.2,0,0,0-.906.471c-.72.924-.4,2.851-.4,2.87Z" fill="#2e3c4b"/>
      <rect id="Rectangle_252" data-name="Rectangle 252" width="0.441" height="8.552" transform="translate(1221.22 774.944) rotate(-4.836)" fill="#2e3c4b"/>
      <rect id="Rectangle_253" data-name="Rectangle 253" width="4.748" height="0.441" transform="matrix(0.999, -0.048, 0.048, 0.999, 1219.415, 779.089)" fill="#2e3c4b"/>
      <path id="Path_2171" data-name="Path 2171" d="M1241.714,791.927a5.438,5.438,0,0,1-1.9-.221h0c-.375-.277-.088-3.084.367-4.461.328-1,.768-1.5,1.306-1.5a1.074,1.074,0,0,1,.9.6c.877,1.4,1,4.963.846,5.278a.467.467,0,0,1-.334.214A5.919,5.919,0,0,1,1241.714,791.927Zm-1.6-.564a9.12,9.12,0,0,0,2.724.036c.059-.46-.069-3.846-.913-4.94-.3-.393-.634-.365-.943.092C1240.182,787.735,1240.008,790.855,1240.114,791.363Z" fill="#2e3c4b"/>
      <path id="Path_2172" data-name="Path 2172" d="M1241.959,777.1c-.937,0-2.054-.106-2.07-.111h0c-.134-.037-.414-.114-.044-2.419.237-1.481.8-3.948,1.872-3.948h.035c.349.017.644.278.876.775a13.254,13.254,0,0,1,.58,5.512C1243.1,777.057,1242.566,777.1,1241.959,777.1Zm.869-.407Zm-2.719-.112a17.4,17.4,0,0,0,2.733.034c.073-.66-.022-4.277-.779-5.317a.476.476,0,0,0-.334-.234c-.116-.008-.268.089-.415.283C1240.448,772.494,1240.043,775.932,1240.109,776.582Z" fill="#2e3c4b"/>
      <path id="Path_2173" data-name="Path 2173" d="M1239.477,744.43a11.105,11.105,0,0,1-1.772-.119c-.357-.188-.43-3.286-.108-4.606.234-.956.656-1.44,1.256-1.44.517,0,.941.365,1.261,1.084.647,1.451.806,4.63.55,4.914A2.409,2.409,0,0,1,1239.477,744.43Zm.825-.407Zm-2.329-.1a13.825,13.825,0,0,0,2.342.026c.069-.579-.01-3.734-.861-4.878-.351-.471-.8-.5-1.112-.053C1237.6,740.108,1237.842,743.308,1237.973,743.926Z" fill="#2e3c4b"/>
      <path id="Path_2174" data-name="Path 2174" d="M1238.63,718.236a6.488,6.488,0,0,1-1.606-.15h0c-.371-.22.022-3.081.22-3.989.317-1.456.744-2.192,1.3-2.251.225-.023.53.054.808.544a12.079,12.079,0,0,1,.67,5.588C1239.881,718.172,1239.267,718.236,1238.63,718.236Zm-1.315-.517a8.732,8.732,0,0,0,2.35-.013c.1-.54-.048-4.317-.8-5.26-.139-.175-.236-.165-.27-.161-.139.014-.267.165-.349.289C1237.5,713.69,1237.242,717.069,1237.315,717.719Z" fill="#2e3c4b"/>
      <path id="Path_2175" data-name="Path 2175" d="M1239.145,695.457a3.751,3.751,0,0,1-.569-.037c-.35-.055-.562-.167-.648-.342a6.555,6.555,0,0,1,.7-3.656.873.873,0,0,1,.782-.484c.317.021.563.254.731.692a6.941,6.941,0,0,1,.076,3.618h0A1.929,1.929,0,0,1,1239.145,695.457Zm.224-4.079c-.1,0-.215.076-.327.227a6.562,6.562,0,0,0-.717,3.282,2.846,2.846,0,0,0,1.561.053,7.056,7.056,0,0,0-.26-3.369c-.114-.184-.211-.19-.243-.192Z" fill="#2e3c4b"/>
      <path id="Path_2176" data-name="Path 2176" d="M1239.57,687.835c-.46,0-1.544-.029-1.682-.293a8.01,8.01,0,0,1,.564-4.08,1.058,1.058,0,0,1,.955-.569,1.019,1.019,0,0,1,.817.491c.747,1.127.336,3.9.239,4.157h0c-.084.224-.394.272-.687.291C1239.772,687.833,1239.694,687.835,1239.57,687.835Zm-1.286-.547a5.3,5.3,0,0,0,1.777.059c.112-.441.373-2.866-.212-3.728a.565.565,0,0,0-.462-.285.554.554,0,0,0-.463.229C1238.238,684.37,1238.24,686.76,1238.284,687.288Zm-.074-.024" fill="#2e3c4b"/>
      <rect id="Rectangle_254" data-name="Rectangle 254" width="3.927" height="0.442" transform="matrix(0.927, -0.375, 0.375, 0.927, 1254.692, 663.05)" fill="#2e3c4b"/>
      <rect id="Rectangle_255" data-name="Rectangle 255" width="4.971" height="0.442" transform="translate(1256.594 667.093)" fill="#2e3c4b"/>
      <rect id="Rectangle_256" data-name="Rectangle 256" width="0.441" height="2.909" transform="matrix(0.539, -0.843, 0.843, 0.539, 1255.846, 672.12)" fill="#2e3c4b"/>
      <rect id="Rectangle_257" data-name="Rectangle 257" width="0.442" height="3.775" transform="translate(1223.735 661.142) rotate(-65.324)" fill="#2e3c4b"/>
      <rect id="Rectangle_258" data-name="Rectangle 258" width="4.026" height="0.442" transform="translate(1221.517 665.973)" fill="#2e3c4b"/>
      <rect id="Rectangle_259" data-name="Rectangle 259" width="2.614" height="0.441" transform="translate(1222.49 671.726) rotate(-20.317)" fill="#2e3c4b"/>
      <path id="Path_2177" data-name="Path 2177" d="M1245.575,683.016l-.189-.937c-.226-1.123-.628-2.178-.842-2.213-.35.109-.93,1.035-1.229,1.658l-.364.758-.055-.839c0-.018-.13-1.8-1.177-1.814h-.013a.7.7,0,0,0-.555.222,1.849,1.849,0,0,0-.266,1.224l-.435.074c-.1-.466-.537-1.8-1.158-1.841h-.028c-.608,0-1.132,1.168-1.269,1.584l-.3.9-.132-.938c0-.017-.252-1.659-1.155-1.538-.831.1-1.518,1.384-1.713,1.87l-.485,1.211.06-1.3c.025-.556-.076-1.722-.552-1.778-.437-.059-1.028,1.3-1.285,2.228l-.425-.118c.123-.445.786-2.667,1.761-2.548.6.071.827.78.905,1.384a2.633,2.633,0,0,1,1.68-1.384c.843-.1,1.277.652,1.481,1.246.282-.567.8-1.284,1.479-1.255.583.034.982.62,1.231,1.179a1.383,1.383,0,0,1,.274-.488,1.166,1.166,0,0,1,.9-.37c.945.009,1.34.908,1.5,1.562.3-.512.752-1.171,1.19-1.306a.454.454,0,0,1,.369.05,3.306,3.306,0,0,1,.838,1.684c.295-.892.732-1.826,1.263-1.692l-.1.429h0c-.217.022-.68,1.059-.971,2.176Z" fill="#2e3c4b"/>
    </g>
    <g id="Group_354" data-name="Group 354">
      <path id="Path_2178" data-name="Path 2178" d="M1267.466,676.389l-.295-.27c1.811-1.985,2.619-4.9,2.542-9.171-.028-1.524-.235-3.666-1.7-4.663l.224-.33c1.621,1.1,1.849,3.372,1.879,4.985C1270.192,671.32,1269.351,674.322,1267.466,676.389Z" fill="#2e3c4b"/>
      <path id="Path_2179" data-name="Path 2179" d="M1288.181,691.816l-.25-.312c6.034-4.8,7.731-17.537,7.876-22.038.315-9.823-1.555-17.01-5.717-21.968l.306-.258c4.229,5.038,6.129,12.312,5.811,22.239C1296.061,674.031,1294.333,686.919,1288.181,691.816Z" fill="#2e3c4b"/>
      <path id="Path_2180" data-name="Path 2180" d="M1277.313,684.387l-.345-.2c.132-.227.36-.551.65-.962,1.589-2.252,5.311-7.526,5.666-14.8a18.927,18.927,0,0,0-4.594-13.542l.284-.283a19.354,19.354,0,0,1,4.711,13.844c-.363,7.388-4.131,12.728-5.74,15.009C1277.661,683.857,1277.437,684.175,1277.313,684.387Z" fill="#2e3c4b"/>
      <path id="Path_2181" data-name="Path 2181" d="M1212.2,678.377c-1.622-1.1-1.848-3.373-1.878-4.985-.08-4.38.761-7.382,2.647-9.449l.295.27c-1.812,1.986-2.619,4.9-2.541,9.171.027,1.524.233,3.666,1.7,4.663Z" fill="#2e3c4b"/>
      <path id="Path_2182" data-name="Path 2182" d="M1190.037,693.092c-4.229-5.038-6.13-12.313-5.811-22.24.146-4.552,1.874-17.439,8.026-22.336l.25.312c-6.034,4.8-7.731,17.536-7.876,22.037-.315,9.823,1.555,17.01,5.718,21.969Z" fill="#2e3c4b"/>
      <path id="Path_2183" data-name="Path 2183" d="M1201.459,685.73a19.345,19.345,0,0,1-4.71-13.844c.362-7.39,4.132-12.731,5.741-15.011.283-.4.507-.719.63-.93l.346.2c-.132.227-.361.55-.65.959-1.588,2.252-5.311,7.527-5.667,14.8a18.929,18.929,0,0,0,4.593,13.542Z" fill="#2e3c4b"/>
    </g>
  </g>
</svg>
