<svg xmlns="http://www.w3.org/2000/svg" width="347" height="372.275" viewBox="0 0 347 372.275">
  <g id="Group_353" data-name="Group 353" transform="translate(-577.475 -524.898)">
    <g id="CIEKAWOSTKA">
      <path id="Path_1283" data-name="Path 1283" d="M591.589,542.282c21.329-26.6,301.272-19.481,317.158,0s23,310.27,5.608,334.215-306.643,27.428-322.769,8.69S570.261,568.886,591.589,542.282Z" fill="#e5a34c"/>
      <g id="CIEKAWOSTKA-2" style="isolation: isolate">
        <text id="CIEKAWOSTKA-2-2" data-name="CIEKAWOSTKA" transform="translate(676.967 568.835)" fill="#2e3c4b" font-size="22" font-family="SulphurPoint-Bold, Sulphur Point" font-weight="700" letter-spacing="0.025em" style="isolation: isolate"><tspan x="0" y="0">CIEKAWOSTKA</tspan></text>
      </g>
      <rect id="Rectangle_45" data-name="Rectangle 45" width="12.483" height="2.497" transform="translate(738.653 576.801)" fill="#ae4426"/>
      <g id="Group_181" data-name="Group 181">
        <path id="Path_1327" data-name="Path 1327" d="M667.6,645.146c5.516-15.086,18.484-46.185,43.66-46.742s94.315-3,111.88,18.051,20.67,37.465,18.08,70.665-11.5,52.475-22,70.137-55.2,31.273-95.374,29.708-69.436-25.383-68.657-57.982,14.83-36.955,12.407-51.118S662.083,660.232,667.6,645.146Z" fill="#f2edeb"/>
      </g>
      <text id="Przy_latarni_w_Niechorzu_można_odwiedzić_Park_Miniatur_Latarni_Morskich" data-name="Przy latarni w Niechorzu
można odwiedzić 
Park Miniatur Latarni Morskich" transform="translate(744.633 814.727)" fill="#2e3c4b" font-size="20" font-family="ClarikaProGeo-Th, Clarika Pro Geometric" letter-spacing="0.025em" style="isolation: isolate"><tspan x="-105.199" y="0">Przy latarni w Niechorzu</tspan><tspan x="-79.362" y="24">można odwiedzić </tspan><tspan font-family="ClarikaProGeo-Dm, Clarika Pro Geometric"><tspan x="-146.189" y="48">Park Miniatur</tspan><tspan y="48" font-family="ClarikaProGeo-Md, Clarika Pro Geometric" font-weight="500"> </tspan><tspan y="48">Latarni Morskich</tspan></tspan></text>
    </g>
    <g id="Group_298" data-name="Group 298">
      <g id="niechorze">
        <rect id="Rectangle_211" data-name="Rectangle 211" width="3.128" height="0.319" transform="translate(755.691 662.864) rotate(-32.646)" fill="#2e3c4b"/>
        <rect id="Rectangle_212" data-name="Rectangle 212" width="1.688" height="0.319" transform="translate(757.87 666.484)" fill="#2e3c4b"/>
        <rect id="Rectangle_213" data-name="Rectangle 213" width="0.319" height="2.528" transform="translate(756.267 669.771) rotate(-71.434)" fill="#2e3c4b"/>
        <rect id="Rectangle_214" data-name="Rectangle 214" width="0.319" height="2.042" transform="matrix(0.413, -0.911, 0.911, 0.413, 735.526, 662.3)" fill="#2e3c4b"/>
        <rect id="Rectangle_215" data-name="Rectangle 215" width="2.685" height="0.319" transform="translate(733.836 666.214)" fill="#2e3c4b"/>
        <rect id="Rectangle_216" data-name="Rectangle 216" width="1.801" height="0.319" transform="translate(733.801 670.27) rotate(-12.971)" fill="#2e3c4b"/>
        <path id="Path_2050" data-name="Path 2050" d="M745.948,731.545h-.233c-.068,0-6.864-.091-7.208-.857-.672-1.5-.216-46.981.023-49.671.015-.178.063-.72,5.082-.874.092,0,9.221-.232,9.386.864.2,1.335.627,23.479.627,25.688,0,.448.015,1.469.037,2.851.231,15.053.105,21.062-.45,21.433C752.512,731.445,748.9,731.545,745.948,731.545Zm-7.1-50.491c-.37,4.233-.62,48.231-.049,49.5.294.4,5.063.668,6.917.668h.237c5.695,0,6.85-.358,7.082-.513.623-.7.394-15.566.308-21.162-.021-1.384-.036-2.407-.036-2.856,0-2.937-.438-24.408-.624-25.64-.175-.3-2.883-.624-6.956-.624h-.084C741.63,680.436,739.045,680.751,738.847,681.054Z" fill="#2e3c4b"/>
        <path id="Path_2051" data-name="Path 2051" d="M749.143,736.114c-4.588,0-10.707-.285-11.948-.71-.21-.072-.32-.153-.356-.262-.3-.889,1.471-4.218,1.673-4.6l.281.152c-.739,1.375-1.842,3.771-1.651,4.342.23.247,3.216.582,8.46.709,4.9.118,8.264-.025,8.565-.226.507-.337-.39-2.9-1.189-4.611l.29-.135c.34.73,1.993,4.4,1.076,5.012A21.662,21.662,0,0,1,749.143,736.114Z" fill="#2e3c4b"/>
        <path id="Path_2052" data-name="Path 2052" d="M726.082,747.339c-5.545,0-11.085-.069-11.5-.209h0a.3.3,0,0,1-.2-.255c-.133-.994,3.652-6.036,4.4-6.539.968-.646,17.518-1.4,18.254-1.151.781.261,1.285,4.182,1.212,6.074-.044,1.162-.259,1.775-.658,1.875C737.046,747.271,731.561,747.339,726.082,747.339Zm-11.385-.507c1.057.27,21.729.265,22.82-.008.175-.044.375-.481.418-1.577.094-2.466-.588-5.623-.995-5.759-1.016-.339-17.311.671-17.975,1.114C717.836,741.354,714.583,746.324,714.7,746.832Z" fill="#2e3c4b"/>
        <path id="Path_2053" data-name="Path 2053" d="M758.445,747.745c-2.555,0-4.222-.1-4.568-.355-.822-.616-1.082-3.423-1.142-4.268-.083-1.158-.118-3.222.275-3.615h0c.618-.617,17.393-.636,18.316-.02.627.418,4.4,7.264,4.063,7.849a.19.19,0,0,1-.26.069c-.263-.084-3.245.01-6.4.11C764.671,747.643,761.084,747.745,758.445,747.745Zm-5.213-8.009a8.3,8.3,0,0,0-.179,3.363c.15,2.1.548,3.685,1.015,4.035.67.5,9.082.237,14.649.062,3.922-.124,5.771-.173,6.36-.116-.283-1.065-3.208-6.847-3.928-7.327C770.392,739.248,754.022,739.234,753.232,739.736Z" fill="#2e3c4b"/>
        <path id="Path_2054" data-name="Path 2054" d="M728.017,766.465a98.178,98.178,0,0,1-10.89-.654c-.861-.287-1.4-13.2-1.594-18.739l.319-.011c.238,6.847.828,17.912,1.4,18.459.8.262,11.217.831,12.341.55a134.144,134.144,0,0,1,15.066,0c1.641.273,14.846-.263,16.359-.565a50.683,50.683,0,0,1,5.43-.057c3.021.041,7.159.1,7.51-.185.277-.284.219-3.561.181-5.73a34.6,34.6,0,0,1,.057-4.375c.274-1.373-.56-7.527-.568-7.589l.316-.044c.035.256.85,6.27.564,7.7a35.382,35.382,0,0,0-.05,4.307c.061,3.477.073,5.614-.276,5.964-.324.324-2.548.346-7.738.276a53.515,53.515,0,0,0-5.363.051c-1.523.3-14.82.842-16.474.567a133.294,133.294,0,0,0-14.936,0A9.536,9.536,0,0,1,728.017,766.465Z" fill="#2e3c4b"/>
        <path id="Path_2055" data-name="Path 2055" d="M737.963,752.929c-.014-.335-.293-8.245,3.37-12.06a6.3,6.3,0,0,1,4.715-1.975c7.991,0,8.084,12.487,8.084,12.613h-.319c0-.123-.092-12.294-7.765-12.294a5.988,5.988,0,0,0-4.484,1.877c-3.569,3.716-3.285,11.745-3.282,11.826Z" fill="#2e3c4b"/>
        <path id="Path_2056" data-name="Path 2056" d="M752.962,681.134l-.244-.206a8.054,8.054,0,0,0,1.456-2.213c.061-.721.206-2.407-.062-2.675-.358-.358-4.863-.551-8.921-.551-.1,0-.3,0-.556-.009-5.832-.118-6.839.261-6.918.5a10.235,10.235,0,0,0-.01,2.848,11.318,11.318,0,0,0,1.115,2.119l-.267.175A11.319,11.319,0,0,1,737.4,678.9a10.33,10.33,0,0,1,.018-3.026c.2-.607,2.295-.815,7.228-.716.254.005.445.009.549.009,1.42,0,8.533.031,9.146.645.313.312.294,1.31.155,2.928A8.365,8.365,0,0,1,752.962,681.134Z" fill="#2e3c4b"/>
        <rect id="Rectangle_217" data-name="Rectangle 217" width="0.319" height="30.502" transform="translate(737.963 735.44)" fill="#2e3c4b"/>
        <path id="Path_2057" data-name="Path 2057" d="M754.264,766.1c-.019-.376-.451-9.226-.451-10.349v-8.428c-1.395-1.607-1.144-11.061-1.132-11.467l.318.009c-.1,3.43.006,10.2,1.086,11.282l.047.047v8.557c0,1.115.446,10.242.45,10.334Z" fill="#2e3c4b"/>
        <path id="Path_2058" data-name="Path 2058" d="M745.322,657.837c-.011-.128-.283-3.124-.283-3.411h.319c0,.218.185,2.307.282,3.382Z" fill="#2e3c4b"/>
        <path id="Path_2059" data-name="Path 2059" d="M743.422,671.8l-.225-.226a74.309,74.309,0,0,0-.074-7.675l.319-.013C743.559,666.721,743.712,671.515,743.422,671.8Z" fill="#2e3c4b"/>
        <path id="Path_2060" data-name="Path 2060" d="M747.35,671.8c-.289-.289-.154-5.164-.047-8.044l.319.012a71.428,71.428,0,0,0-.031,7.827Z" fill="#2e3c4b"/>
        <path id="Path_2061" data-name="Path 2061" d="M745.906,750.5a2.2,2.2,0,0,1-.7-.163,1.381,1.381,0,0,0-.293-.087.233.233,0,0,1-.2-.13c-.3-.479-.817-4.017-.511-4.63h0c.194-.386,1.327-.573,1.737-.476.238.056.264.2.264.264s.034.354.074.7c.208,1.795.411,3.747.192,4.186A.585.585,0,0,1,745.906,750.5Zm-.929-.565a1.852,1.852,0,0,1,.34.1c.413.149.741.242.87-.017a19.149,19.149,0,0,0-.223-4.006c-.043-.369-.067-.581-.074-.684a2.148,2.148,0,0,0-.916.074c-.334.088-.461.189-.482.23A12.9,12.9,0,0,0,744.977,749.937Z" fill="#2e3c4b"/>
        <path id="Path_2062" data-name="Path 2062" d="M746.9,761.856c-2.14,0-2.14-.277-2.14-.442,0-.051-.01-.238-.023-.51-.168-3.465-.112-4.238.043-4.4l.047-.05.092-.012c.063,0,.2-.02.347-.041.656-.1,1.219-.157,1.464.088.348.348.559,4.744.362,5.222A.207.207,0,0,1,746.9,761.856Zm-1.822-.483a5.188,5.188,0,0,0,1.736.164,19.708,19.708,0,0,0-.316-4.829c-.145-.145-.848-.041-1.186.008-.122.018-.226.034-.307.041a27.656,27.656,0,0,0,.051,4.131C745.063,761.119,745.072,761.291,745.074,761.373Z" fill="#2e3c4b"/>
        <path id="Path_2063" data-name="Path 2063" d="M722.043,755.531a2.416,2.416,0,0,1-1.3-.231c-.3-.3-.125-3.194.468-4.626.281-.68.638-1.025,1.06-1.025a1.293,1.293,0,0,1,1.088.728,8.613,8.613,0,0,1,.753,4.6c-.115.23-.45.387-1.023.48A6.9,6.9,0,0,1,722.043,755.531Zm-1.067-.452a5,5,0,0,0,2.194.038c.531-.1.638-.244.658-.285a8.675,8.675,0,0,0-.784-4.356.953.953,0,0,0-.772-.507c-.207,0-.4.157-.588.467A9.669,9.669,0,0,0,720.976,755.079Z" fill="#2e3c4b"/>
        <path id="Path_2064" data-name="Path 2064" d="M730.333,755.8a3.255,3.255,0,0,1-.752-.071.564.564,0,0,1-.429-.3c-.164-.426-.373-4.028.5-5.3a.96.96,0,0,1,.8-.481h0c.471,0,.89.487,1.244,1.447.509,1.381.938,4.176.674,4.4A5.823,5.823,0,0,1,730.333,755.8Zm.114-5.833a.651.651,0,0,0-.536.341c-.8,1.169-.612,4.614-.461,5.005.008.019.047.053.134.083a6.506,6.506,0,0,0,2.548-.137c.068-.522-.355-3.854-1.2-4.969a.659.659,0,0,0-.483-.323Z" fill="#2e3c4b"/>
        <path id="Path_2065" data-name="Path 2065" d="M722.32,763.234a2.873,2.873,0,0,1-1.44-.218,7.871,7.871,0,0,1,.233-4.373,1.453,1.453,0,0,1,1.275-1.056h0a1.233,1.233,0,0,1,1.066.739,8.967,8.967,0,0,1,.8,4.572c-.058.1-.2.215-.851.286C723.165,763.21,722.748,763.234,722.32,763.234Zm.076-5.328a1.01,1.01,0,0,0-.857.6,7.866,7.866,0,0,0-.414,4.311,7.135,7.135,0,0,0,2.862-.086,9.179,9.179,0,0,0-.9-4.38.86.86,0,0,0-.678-.442Z" fill="#2e3c4b"/>
        <path id="Path_2066" data-name="Path 2066" d="M731.072,763.042a3.9,3.9,0,0,1-.859-.074c-.205-.052-.325-.135-.366-.253-.111-.313-.326-3.563.5-4.706a.9.9,0,0,1,.743-.423h.014c.389.006.748.464,1.1,1.4.441,1.178.946,3.543.665,3.8A4.449,4.449,0,0,1,731.072,763.042Zm.014-5.136a.591.591,0,0,0-.484.289c-.729,1.014-.551,4.137-.454,4.413a5.43,5.43,0,0,0,2.482-.054,11.2,11.2,0,0,0-1.172-4.36c-.132-.184-.26-.287-.363-.288Zm1.538,4.674Z" fill="#2e3c4b"/>
        <path id="Path_2067" data-name="Path 2067" d="M760.077,755.564a2.42,2.42,0,0,1-1.3-.23h0c-.3-.3-.125-3.194.468-4.626.282-.68.639-1.025,1.06-1.025a1.291,1.291,0,0,1,1.088.728,8.614,8.614,0,0,1,.754,4.6c-.115.23-.45.387-1.023.48A6.908,6.908,0,0,1,760.077,755.564Zm-1.067-.451a4.981,4.981,0,0,0,2.2.037c.53-.1.637-.244.657-.284a8.68,8.68,0,0,0-.784-4.357.954.954,0,0,0-.772-.507c-.207,0-.405.157-.587.467A9.677,9.677,0,0,0,759.01,755.113Z" fill="#2e3c4b"/>
        <path id="Path_2068" data-name="Path 2068" d="M768.37,755.834a3.269,3.269,0,0,1-.754-.069.559.559,0,0,1-.429-.3c-.165-.425-.373-4.027.495-5.3a.959.959,0,0,1,.8-.481h0c.472,0,.891.488,1.246,1.451.508,1.38.935,4.173.672,4.4A5.614,5.614,0,0,1,768.37,755.834Zm.111-5.832a.657.657,0,0,0-.536.341c-.8,1.17-.612,4.615-.46,5.006.007.019.046.052.133.083a6.507,6.507,0,0,0,2.548-.137c.068-.521-.354-3.853-1.2-4.969a.658.658,0,0,0-.483-.324Z" fill="#2e3c4b"/>
        <path id="Path_2069" data-name="Path 2069" d="M760.354,763.267a2.862,2.862,0,0,1-1.44-.218,7.87,7.87,0,0,1,.234-4.372,1.454,1.454,0,0,1,1.274-1.057h0a1.232,1.232,0,0,1,1.066.74,8.965,8.965,0,0,1,.8,4.571c-.058.1-.2.216-.851.287C761.2,763.244,760.782,763.267,760.354,763.267Zm.09-5.327h-.014a1.01,1.01,0,0,0-.857.6,7.863,7.863,0,0,0-.414,4.31,7.135,7.135,0,0,0,2.862-.085,9.185,9.185,0,0,0-.9-4.381A.861.861,0,0,0,760.444,757.94Z" fill="#2e3c4b"/>
        <path id="Path_2070" data-name="Path 2070" d="M769.107,763.076a3.842,3.842,0,0,1-.86-.075c-.205-.052-.324-.135-.366-.253-.11-.312-.326-3.562.5-4.7a.919.919,0,0,1,.757-.423c.389.006.749.463,1.1,1.4.442,1.178.947,3.543.666,3.8A4.452,4.452,0,0,1,769.107,763.076Zm.014-5.136a.587.587,0,0,0-.484.289c-.73,1.014-.552,4.137-.455,4.413a5.445,5.445,0,0,0,2.482-.054,11.167,11.167,0,0,0-1.172-4.36c-.132-.184-.26-.287-.363-.288Zm1.538,4.673Z" fill="#2e3c4b"/>
        <path id="Path_2071" data-name="Path 2071" d="M740.546,664.049h-.319a9.782,9.782,0,0,1,.612-3.171,4.489,4.489,0,0,1,4.359-3.215c4.887,0,6.09,6.012,6.1,6.073l-.314.06c-.011-.058-1.165-5.814-5.787-5.814a4.142,4.142,0,0,0-4.058,3A9.632,9.632,0,0,0,740.546,664.049Z" fill="#2e3c4b"/>
        <path id="Path_2072" data-name="Path 2072" d="M751.688,675.585l-.018-3.839.012-.019a64.336,64.336,0,0,0-.653-7.837c-.732-.192-9.964.044-10.512.532a66.643,66.643,0,0,0,.144,7.8l-.115,3.077-.319-.012.115-3.062c-.067-1.217-.386-7.391-.1-7.965.061-.124.234-.222.9-.331,2.185-.354,9.762-.625,10.109-.277a47.68,47.68,0,0,1,.733,8.141h0l.018,3.789Z" fill="#2e3c4b"/>
        <path id="Path_2073" data-name="Path 2073" d="M751.81,671.953c-2.49-.314-11.431-.1-11.521-.1l-.008-.319c.369-.008,9.056-.211,11.569.1Z" fill="#2e3c4b"/>
        <path id="Path_2074" data-name="Path 2074" d="M754.364,676.005l-.278-.157c.379-.667.767-1.68.51-1.846-.6-.263-15.6-.417-16.9-.177a16.075,16.075,0,0,0,.029,2.092l-.319.019a10.807,10.807,0,0,1,.017-2.309l.032-.064.1-.033c.491-.134,5.468-.145,8.7-.12,3.032.024,8.17.1,8.519.324C755.386,674.133,754.539,675.7,754.364,676.005Z" fill="#2e3c4b"/>
        <path id="Path_2075" data-name="Path 2075" d="M746.322,708.525H744.7l-.006-.153c-.013-.3-.106-3,.52-3.514a.427.427,0,0,1,.38-.091c.941.224.778,3.047.735,3.611Zm-1.311-.319h1.014c.079-1.279-.021-3.014-.5-3.128a.109.109,0,0,0-.1.026C745.059,705.4,744.979,707.1,745.011,708.206Z" fill="#2e3c4b"/>
      </g>
      <path id="Path_2076" data-name="Path 2076" d="M740.9,728.5l-.764-46.131.289,0,.764,46.131Z" fill="#2e3c4b"/>
      <rect id="Rectangle_218" data-name="Rectangle 218" width="0.289" height="46.131" transform="translate(742.979 682.362)" fill="#2e3c4b"/>
      <rect id="Rectangle_219" data-name="Rectangle 219" width="0.289" height="46.131" transform="translate(747.477 682.362)" fill="#2e3c4b"/>
      <rect id="Rectangle_220" data-name="Rectangle 220" width="0.289" height="45.557" transform="translate(750.425 682.362)" fill="#2e3c4b"/>
    </g>
    <g id="rozewie">
      <g id="Group_305" data-name="Group 305">
        <g id="Group_299" data-name="Group 299">
          <circle id="Ellipse_72" data-name="Ellipse 72" cx="0.57" cy="0.57" r="0.57" transform="translate(789.699 640.011)" fill="#2e3c4b"/>
          <path id="Path_2077" data-name="Path 2077" d="M790.269,641.249a.669.669,0,1,1,.669-.669A.67.67,0,0,1,790.269,641.249Zm0-1.139a.47.47,0,1,0,.469.47A.47.47,0,0,0,790.269,640.11Z" fill="#2e3c4b"/>
        </g>
        <g id="Group_300" data-name="Group 300">
          <circle id="Ellipse_73" data-name="Ellipse 73" cx="0.57" cy="0.57" r="0.57" transform="translate(789.952 646.593)" fill="#2e3c4b"/>
          <path id="Path_2078" data-name="Path 2078" d="M790.521,647.832a.669.669,0,1,1,.67-.669A.67.67,0,0,1,790.521,647.832Zm0-1.139a.47.47,0,1,0,.47.47A.471.471,0,0,0,790.521,646.693Z" fill="#2e3c4b"/>
        </g>
        <g id="Group_301" data-name="Group 301">
          <circle id="Ellipse_74" data-name="Ellipse 74" cx="0.57" cy="0.57" r="0.57" transform="translate(789.699 654.189)" fill="#2e3c4b"/>
          <path id="Path_2079" data-name="Path 2079" d="M790.269,655.428a.669.669,0,1,1,.669-.669A.67.67,0,0,1,790.269,655.428Zm0-1.14a.47.47,0,1,0,.469.471A.47.47,0,0,0,790.269,654.288Z" fill="#2e3c4b"/>
        </g>
        <g id="Group_302" data-name="Group 302">
          <circle id="Ellipse_75" data-name="Ellipse 75" cx="0.57" cy="0.57" r="0.57" transform="translate(793.496 668.367)" fill="#2e3c4b"/>
          <path id="Path_2080" data-name="Path 2080" d="M794.066,669.6a.668.668,0,1,1,.67-.668A.67.67,0,0,1,794.066,669.6Zm0-1.138a.47.47,0,1,0,.47.47A.47.47,0,0,0,794.066,668.467Z" fill="#2e3c4b"/>
        </g>
        <g id="Group_303" data-name="Group 303">
          <circle id="Ellipse_76" data-name="Ellipse 76" cx="0.57" cy="0.57" r="0.57" transform="translate(786.914 671.911)" fill="#2e3c4b"/>
          <path id="Path_2081" data-name="Path 2081" d="M787.483,673.15a.669.669,0,1,1,.67-.669A.67.67,0,0,1,787.483,673.15Zm0-1.139a.47.47,0,1,0,.47.47A.47.47,0,0,0,787.483,672.011Z" fill="#2e3c4b"/>
        </g>
        <g id="Group_304" data-name="Group 304">
          <circle id="Ellipse_77" data-name="Ellipse 77" cx="0.57" cy="0.57" r="0.57" transform="translate(787.42 665.329)" fill="#2e3c4b"/>
          <path id="Path_2082" data-name="Path 2082" d="M787.99,666.567a.669.669,0,1,1,.67-.669A.67.67,0,0,1,787.99,666.567Zm0-1.138a.469.469,0,1,0,.469.469A.47.47,0,0,0,787.99,665.429Z" fill="#2e3c4b"/>
        </g>
      </g>
      <g id="rozewie-2" data-name="rozewie">
        <g id="Group_306" data-name="Group 306">
          <path id="Path_2083" data-name="Path 2083" d="M783.256,676.779c-.321-.642.737-7.1.748-7.167.05-.3.121-.777.206-1.345.481-3.234.947-6.171,1.348-6.572.19-.19.984-.172,2.627-.092.568.028,1.1.055,1.514.055,4.274,0,5,.139,5.153.29a51.373,51.373,0,0,1,1.543,6.539c.245,1.158.438,2.073.515,2.381a44.917,44.917,0,0,1,.867,5.887l-.253,0a44.633,44.633,0,0,0-.859-5.822c-.078-.312-.272-1.229-.518-2.39-.487-2.3-1.3-6.156-1.481-6.419-.128-.09-1.1-.209-4.967-.209-.416,0-.956-.027-1.526-.055a10.362,10.362,0,0,0-2.437.019c-.374.374-.983,4.464-1.276,6.429-.085.571-.156,1.046-.206,1.349-.362,2.168-.98,6.6-.771,7.012Z" fill="#2e3c4b"/>
          <path id="Path_2084" data-name="Path 2084" d="M783.211,676.912l-.044-.089c-.346-.69.728-7.162.738-7.227.049-.294.117-.75.2-1.3l.007-.047c.6-4,.992-6.242,1.376-6.628.209-.208.826-.212,2.7-.12l.047,0c.549.026,1.067.052,1.463.052,4.526,0,5.062.158,5.224.32s.513,1.592,1.569,6.589l.028.13c.231,1.091.414,1.952.488,2.247a45.17,45.17,0,0,1,.869,5.912l0,.1-.452-.006v-.1a44.389,44.389,0,0,0-.856-5.8c-.081-.324-.294-1.33-.519-2.394-.416-1.966-1.265-5.978-1.455-6.367a26.2,26.2,0,0,0-4.9-.182c-.391,0-.891-.024-1.42-.049l-.112-.006a12.956,12.956,0,0,0-2.37,0c-.342.343-.993,4.718-1.238,6.364-.085.573-.156,1.047-.207,1.352-.434,2.6-.954,6.6-.78,6.95l.045.09Zm14.413-.26h.052a46.677,46.677,0,0,0-.863-5.76c-.074-.3-.257-1.163-.489-2.254l-.027-.131a64.413,64.413,0,0,0-1.516-6.489c-.177-.178-1.793-.262-5.082-.262-.4,0-.921-.025-1.472-.051l-.047,0a7.184,7.184,0,0,0-2.552.063c-.411.412-.957,4.085-1.319,6.515l-.007.047c-.082.548-.151,1.006-.2,1.3-.218,1.3-.955,6.12-.787,7.008l.049-.025a51.03,51.03,0,0,1,.79-6.975c.051-.3.121-.778.206-1.348.471-3.161.954-6.135,1.3-6.484a7.339,7.339,0,0,1,2.512-.048l.112.005c.526.025,1.023.05,1.41.05a24.645,24.645,0,0,1,5.025.225l.026.026c.174.259.8,3.193,1.491,6.437.229,1.081.441,2.085.521,2.405A46.963,46.963,0,0,1,797.624,676.652Z" fill="#2e3c4b"/>
        </g>
        <g id="Group_307" data-name="Group 307">
          <path id="Path_2085" data-name="Path 2085" d="M794.852,662.127l-.179-.179c.128-.285.216-4.526.216-11.051,0-1.836-.26-13.345-.493-13.869-.079-.158-.785-.321-3.7-.2-.23.01-.4.017-.49.017-.151,0-.531-.047-1.059-.112-.956-.117-3.2-.392-3.409-.178-.181.441.255,8.806.544,12.559.094,1.229.118,3.193.143,5.272.035,2.919.083,6.915.412,7.179l-.138.212c-.4-.256-.469-2.559-.527-7.388-.025-2.075-.049-4.035-.143-5.255-.08-1.04-.831-12.4-.47-12.759.255-.253,1.419-.163,3.619.107.479.059.893.11,1.028.11.084,0,.254-.008.479-.017,2.28-.095,3.733-.072,3.939.34.283.566.519,13.021.519,13.981C795.142,661.837,794.931,662.047,794.852,662.127Z" fill="#2e3c4b"/>
          <path id="Path_2086" data-name="Path 2086" d="M794.852,662.269l-.3-.3.029-.064c.1-.234.207-3.779.207-11.01,0-2.2-.273-13.352-.485-13.828-.03-.044-.359-.277-3.605-.14-.232.009-.407.016-.494.016-.154,0-.527-.045-1.043-.108l-.028,0a13.407,13.407,0,0,0-3.311-.217c-.143.625.25,8.5.557,12.49.094,1.224.118,3.173.143,5.237v.043c.031,2.555.082,6.835.375,7.1l.063.057-.042.075-.193.3-.083-.054c-.42-.269-.507-2.012-.573-7.47v-.042c-.025-2.056-.049-4-.141-5.207-.01-.123-.872-12.406-.442-12.836.262-.262,1.092-.243,3.7.077.465.057.889.109,1.016.109.065,0,.18-.005.333-.011l.142-.005c2.81-.119,3.826-.018,4.032.394.306.612.53,13.467.53,14.026,0,10.981-.208,11.189-.319,11.3Zm-.068-.351.035.034c.109-.51.223-2.978.223-11.055,0-1.34-.249-13.416-.509-13.936-.218-.436-2.578-.338-3.845-.285l-.143.006c-.155.006-.274.01-.34.01-.14,0-.53-.046-1.024-.107-1.739-.215-3.306-.385-3.552-.137-.281.467.323,10.393.5,12.679.093,1.216.117,3.161.143,5.22v.043c.048,3.982.1,6.7.413,7.226l.031-.048c-.262-.494-.339-2.864-.391-7.179v-.043c-.025-2.06-.049-4.006-.142-5.223-.254-3.3-.739-12.11-.536-12.6l.022-.033c.178-.181,1.123-.14,3.483.149l.036.005c.509.062.877.107,1.019.107.086,0,.257-.007.485-.017,3.592-.15,3.734.133,3.795.254.25.562.5,12.194.5,13.914C794.989,655.808,794.935,661.161,794.784,661.918Z" fill="#2e3c4b"/>
        </g>
        <g id="Group_308" data-name="Group 308">
          <path id="Path_2087" data-name="Path 2087" d="M794.969,630.587a8.616,8.616,0,0,1-1.249-.162,7.839,7.839,0,0,0-1.708-.18c-.6.06-1.731.087-2.643.109-.649.015-1.209.028-1.412.049-.3.031-1.022.019-1.657.008-.407-.007-.792-.014-.888,0-.021,0-1.908.006-1.953-.437-.036-.352,4.439-4.493,5.9-5.612.761-.585.937-.592,1.042-.552.826.313,5,5.927,5.055,6.47a.245.245,0,0,1-.075.207A.594.594,0,0,1,794.969,630.587Zm-2.763-.6a10.274,10.274,0,0,1,1.557.193,4.067,4.067,0,0,0,1.44.121c-.072-.493-4.144-5.938-4.888-6.251a17.355,17.355,0,0,0-3.453,2.8,41.541,41.541,0,0,0-3.137,3.108,5.78,5.78,0,0,0,1.661.2c.107-.01.419-.006.919,0,.6.01,1.339.022,1.626-.007.213-.022.778-.035,1.432-.051.908-.021,2.038-.048,2.623-.107A2.2,2.2,0,0,1,792.206,629.983Z" fill="#2e3c4b"/>
          <path id="Path_2088" data-name="Path 2088" d="M794.969,630.688a8.7,8.7,0,0,1-1.265-.164,7.7,7.7,0,0,0-1.682-.179c-.594.06-1.723.087-2.629.108l-.108,0c-.6.015-1.127.027-1.318.048-.314.03-1.065.018-1.668.008h-.038c-.369-.006-.751-.011-.839,0-.022,0-2.005.034-2.063-.528-.047-.454,4.677-4.735,5.934-5.7.8-.618.992-.623,1.139-.567.853.324,5.055,5.924,5.118,6.555a.343.343,0,0,1-.106.289A.675.675,0,0,1,794.969,630.688Zm-2.766-.551a10.332,10.332,0,0,1,1.535.19c.888.152,1.422.218,1.57.082a.142.142,0,0,0,.043-.122c-.05-.505-4.226-6.1-4.991-6.388-.041-.015-.163-.062-.945.539-1.514,1.162-5.766,5.126-5.857,5.534.025.239,1.294.348,1.849.336.093-.011.447,0,.857,0h.038c.6.008,1.343.023,1.645-.008.2-.021.724-.033,1.334-.048l.085,0c.925-.023,2.05-.049,2.636-.108Q792.1,630.137,792.2,630.137Zm2.792.3a8.861,8.861,0,0,1-1.249-.164l-.026,0a7.628,7.628,0,0,0-1.724-.177c-.584.059-1.706.086-2.609.107l-.1,0c-.612.015-1.141.027-1.342.049-.3.03-1.072.018-1.638.006-.486-.007-.807-.013-.907,0a5.7,5.7,0,0,1-1.726-.216l-.085-.057.058-.084a41.155,41.155,0,0,1,3.151-3.123,18.653,18.653,0,0,1,3.515-2.829l.023,0,.022.01c.774.325,4.872,5.81,4.948,6.329l.007.049-.034.035A.381.381,0,0,1,794.995,630.438Zm-2.788-.555a10.233,10.233,0,0,1,1.546.189l.027.005a8.487,8.487,0,0,0,1.3.159c-.346-.8-4.036-5.7-4.778-6.087a20.068,20.068,0,0,0-3.371,2.773c-1.418,1.307-2.684,2.566-3.043,2.989a6.644,6.644,0,0,0,1.489.145c.112-.012.418-.007.929,0,.562.008,1.33.024,1.615-.006.209-.022.742-.034,1.358-.049l.082,0c.921-.022,2.04-.049,2.616-.107C792.048,629.887,792.125,629.883,792.207,629.883Z" fill="#2e3c4b"/>
        </g>
        <g id="Group_309" data-name="Group 309">
          <path id="Path_2089" data-name="Path 2089" d="M788.559,636.48l-.252-.028c0-.023.253-2.283.253-3.277v-3.038h.253v3.038C788.813,634.183,788.569,636.387,788.559,636.48Z" fill="#2e3c4b"/>
          <path id="Path_2090" data-name="Path 2090" d="M788.647,636.59l-.45-.049.011-.1c.026-.237.251-2.32.251-3.266v-3.138h.454v3.138c0,.984-.229,3.08-.255,3.315Zm-.23-.227.053.006c.052-.484.242-2.3.242-3.194v-2.939h-.052v2.939C788.66,634.052,788.469,635.881,788.417,636.363Z" fill="#2e3c4b"/>
        </g>
        <g id="Group_310" data-name="Group 310">
          <path id="Path_2091" data-name="Path 2091" d="M791.092,636.855c-.011-.139-.254-3.434-.254-4.44a7.461,7.461,0,0,1,.161-1.463,3.918,3.918,0,0,0,.092-.689h.253a4.113,4.113,0,0,1-.1.736,7.241,7.241,0,0,0-.157,1.416c0,1,.251,4.387.253,4.421Z" fill="#2e3c4b"/>
          <path id="Path_2092" data-name="Path 2092" d="M791,636.963l-.008-.1.1-.008h-.1c-.043-.575-.254-3.492-.254-4.441a7.571,7.571,0,0,1,.163-1.481,3.979,3.979,0,0,0,.09-.671v-.1h.453v.1a4.175,4.175,0,0,1-.1.755,7.176,7.176,0,0,0-.155,1.4c0,.973.243,4.273.253,4.412l.007.1Zm.188-6.6a5,5,0,0,1-.091.609,7.373,7.373,0,0,0-.159,1.444c0,.9.2,3.705.246,4.333l.053,0c-.042-.581-.246-3.431-.246-4.329a7.3,7.3,0,0,1,.159-1.434,5.111,5.111,0,0,0,.091-.619Z" fill="#2e3c4b"/>
        </g>
        <g id="Group_311" data-name="Group 311">
          <path id="Path_2093" data-name="Path 2093" d="M793.623,636.719h-.253c0-.255.486-6.091.507-6.34l.252.021C793.954,632.5,793.623,636.523,793.623,636.719Z" fill="#2e3c4b"/>
          <path id="Path_2094" data-name="Path 2094" d="M793.723,636.818h-.453v-.1c0-.208.31-3.972.494-6.2l.021-.252.452.039-.008.1c-.244,2.925-.506,6.147-.506,6.311Zm-.248-.2h.053c.047-.755.418-5.229.493-6.128l-.053,0-.005.052C793.68,633.957,793.506,636.125,793.475,636.619Z" fill="#2e3c4b"/>
        </g>
        <g id="Group_312" data-name="Group 312">
          <rect id="Rectangle_221" data-name="Rectangle 221" width="0.253" height="6.076" transform="translate(786.028 630.39)" fill="#2e3c4b"/>
          <path id="Path_2095" data-name="Path 2095" d="M786.381,636.565h-.453V630.29h.453Zm-.253-.2h.053v-5.877h-.053Z" fill="#2e3c4b"/>
        </g>
        <g id="Group_313" data-name="Group 313">
          <path id="Path_2096" data-name="Path 2096" d="M790.6,686.478a2.352,2.352,0,0,1-1.133-.2.3.3,0,0,1-.154-.275c.006-.147-.043-.767-.1-1.484a20.224,20.224,0,0,1-.129-4.664h0c.129-.232.447-.38.946-.439a3.613,3.613,0,0,1,2.051.282,21.3,21.3,0,0,1,.407,6.155c-.047.225-.113.346-.216.392A5.287,5.287,0,0,1,790.6,686.478Zm-1.294-6.5a26.765,26.765,0,0,0,.16,4.521c.062.785.107,1.352.1,1.515,0,.016.013.035.043.055a4.908,4.908,0,0,0,2.561-.055c.359-.308-.019-5.73-.28-6.151a3.81,3.81,0,0,0-1.829-.2c-.4.047-.67.157-.755.31Z" fill="#2e3c4b"/>
          <path id="Path_2097" data-name="Path 2097" d="M790.6,686.578a2.492,2.492,0,0,1-1.19-.213.415.415,0,0,1-.2-.361c.007-.143-.044-.789-.1-1.474-.22-2.8-.3-4.308-.13-4.694v0l.013-.023a1.273,1.273,0,0,1,1.023-.49,3.6,3.6,0,0,1,2.136.315c.342.373.668,5.1.431,6.242-.054.26-.138.4-.273.463A5.373,5.373,0,0,1,790.6,686.578Zm-1.422-6.682-.006.012a23.645,23.645,0,0,0,.141,4.607c.059.75.106,1.342.1,1.5a.214.214,0,0,0,.11.187,2.259,2.259,0,0,0,1.077.18,5.3,5.3,0,0,0,1.632-.221c.069-.031.121-.137.159-.322a22.456,22.456,0,0,0-.382-6.066,3.635,3.635,0,0,0-1.966-.25A1.14,1.14,0,0,0,789.176,679.9Zm1.428,6.423a2.319,2.319,0,0,1-1.053-.164.167.167,0,0,1-.088-.139c.007-.159-.039-.753-.1-1.505a20.821,20.821,0,0,1-.148-4.578h0c.129-.232.523-.324.83-.361a3.7,3.7,0,0,1,1.914.226c.194.309.739,5.9.272,6.3l-.024.014A5.117,5.117,0,0,1,790.6,686.319Zm-.94-.331a4.882,4.882,0,0,0,2.445-.053,21.9,21.9,0,0,0-.306-6.016,4.395,4.395,0,0,0-1.732-.148c-.359.042-.613.14-.679.259h0a29.528,29.528,0,0,0,.172,4.465C789.622,685.237,789.665,685.786,789.664,685.988Z" fill="#2e3c4b"/>
        </g>
        <g id="Group_314" data-name="Group 314">
          <path id="Path_2098" data-name="Path 2098" d="M791.2,695.5a2.782,2.782,0,0,1-1.2-.229c-.338-.188-.508-1.912-.591-3.325a14.607,14.607,0,0,1,.067-3.456h0c.19-.341,1.75-.118,2.663.046l.1.017.008.1c.086.983.5,5.914.218,6.418-.2.356-.818.422-1.169.431Zm-1.507-6.883c-.308.588.063,6.155.43,6.434a2.67,2.67,0,0,0,1.16.194c.491-.011.856-.126.953-.3a39.866,39.866,0,0,0-.239-6.177A6.744,6.744,0,0,0,789.689,688.619Z" fill="#2e3c4b"/>
          <path id="Path_2099" data-name="Path 2099" d="M791.2,695.6a2.877,2.877,0,0,1-1.251-.241c-.113-.063-.457-.255-.642-3.407a15.562,15.562,0,0,1,.079-3.511c.063-.113.255-.456,2.768,0l.171.031.015.173c.121,1.388.492,5.959.205,6.475-.21.378-.8.472-1.254.483Zm-1.023-7.189c-.384,0-.575.054-.616.128a14.325,14.325,0,0,0-.055,3.4c.166,2.824.456,3.2.54,3.245a2.748,2.748,0,0,0,1.154.215h.089c.56-.014.955-.153,1.081-.38a34.765,34.765,0,0,0-.229-6.361l0-.02-.019,0A11.769,11.769,0,0,0,790.173,688.413Zm1.027,6.935a2.631,2.631,0,0,1-1.13-.208c-.4-.3-.8-5.944-.469-6.567l.023-.03c.274-.236,2.364.125,2.386.129l.076.014.006.076c.005.057.491,5.759.227,6.233-.115.209-.5.34-1.038.352Zm-1.433-6.659c-.252.644.093,5.984.413,6.285a2.585,2.585,0,0,0,1.024.173h.073c.51-.011.8-.133.868-.25a39.977,39.977,0,0,0-.246-6.041A7.868,7.868,0,0,0,789.767,688.689Z" fill="#2e3c4b"/>
        </g>
        <g id="Group_315" data-name="Group 315">
          <path id="Path_2100" data-name="Path 2100" d="M790.883,704.009a.749.749,0,0,1-.534-.128c-.2-.221-.6-6.176-.225-6.524h0a2.441,2.441,0,0,1,2.182-.183c.591.328.981,5.94.833,6.462-.038.134-.128.142-.162.142a4.408,4.408,0,0,0-.547.069A12.042,12.042,0,0,1,790.883,704.009Zm-.579-6.473a30.346,30.346,0,0,0,.238,6.182,6.518,6.518,0,0,0,1.851-.121c.249-.037.412-.06.512-.069a19.546,19.546,0,0,0-.151-3.084,9.379,9.379,0,0,0-.573-3.05A2.259,2.259,0,0,0,790.3,697.536Z" fill="#2e3c4b"/>
          <path id="Path_2101" data-name="Path 2101" d="M790.883,704.108a.8.8,0,0,1-.608-.16,20.589,20.589,0,0,1-.357-3.276c-.071-1.423-.106-3.165.139-3.389a2.529,2.529,0,0,1,2.3-.2c.7.389.98,6.228.881,6.577a.264.264,0,0,1-.255.215,3.541,3.541,0,0,0-.36.042l-.176.025A11.633,11.633,0,0,1,790.883,704.108Zm.548-7.009a2.048,2.048,0,0,0-1.24.332,10.82,10.82,0,0,0-.075,3.191,20.8,20.8,0,0,0,.312,3.2c.035.036.147.089.455.089a11.748,11.748,0,0,0,1.532-.161l.175-.026a1.57,1.57,0,0,1,.4-.042c.005,0,.033,0,.053-.072a19.647,19.647,0,0,0-.143-3.265c-.215-2.131-.481-2.992-.643-3.081A1.785,1.785,0,0,0,791.431,697.1Zm-.6,6.763c-.213,0-.311-.027-.358-.069l-.021-.024a28.382,28.382,0,0,1-.242-6.276l.025-.032a2.316,2.316,0,0,1,1.992-.153,9.387,9.387,0,0,1,.623,3.127,19.4,19.4,0,0,1,.151,3.111l-.014.075-.076.007c-.1.009-.26.032-.507.067A12.331,12.331,0,0,1,790.834,703.862Zm-.216-.215a6.269,6.269,0,0,0,1.76-.149c.2-.028.336-.049.438-.06a22.668,22.668,0,0,0-.162-2.984,9.92,9.92,0,0,0-.535-2.981,2.231,2.231,0,0,0-1.732.124A33.194,33.194,0,0,0,790.618,703.647Z" fill="#2e3c4b"/>
        </g>
        <g id="Group_316" data-name="Group 316">
          <path id="Path_2102" data-name="Path 2102" d="M794.914,662.151l-.113-.227a7,7,0,0,0,1.352-2.881c-.705-.344-10.459-.54-11.39-.232a7.587,7.587,0,0,0,.738,2.246,2.706,2.706,0,0,1,.273.727h-.253a4.461,4.461,0,0,0-.252-.625,7.312,7.312,0,0,1-.76-2.414c0-.151,0-.338,4.179-.338,1.77,0,3.663.044,5.064.118,2.656.14,2.656.317,2.656.473C796.408,659.546,795.481,661.867,794.914,662.151Z" fill="#2e3c4b"/>
          <path id="Path_2103" data-name="Path 2103" d="M794.869,662.284l-.2-.4.089-.045a7.267,7.267,0,0,0,1.287-2.726,72.6,72.6,0,0,0-11.174-.221,8.123,8.123,0,0,0,.72,2.125,2.61,2.61,0,0,1,.286.772v.1l-.448,0-.005-.095a5.919,5.919,0,0,0-.238-.577,7.37,7.37,0,0,1-.775-2.468c0-.254,0-.437,4.278-.437,1.777,0,3.672.044,5.07.118,2.751.144,2.751.333,2.751.572,0,.575-.942,2.937-1.55,3.241Zm.06-.328.024.049A7.12,7.12,0,0,0,796.308,659c0-.1-.266-.252-2.561-.373-1.4-.073-3.286-.118-5.06-.118-3.24,0-4.006.12-4.079.221a7.213,7.213,0,0,0,.753,2.39c.125.282.2.459.237.566h.056c-.038-.122-.127-.322-.245-.586a7.716,7.716,0,0,1-.746-2.284l0-.075.072-.023c.976-.326,10.727-.124,11.465.236l.061.03-.006.069A7.7,7.7,0,0,1,794.929,661.956Z" fill="#2e3c4b"/>
        </g>
        <g id="Group_317" data-name="Group 317">
          <path id="Path_2104" data-name="Path 2104" d="M787.918,661.825c-.3-.428-.07-2.821-.022-3.3l.252.025a10.912,10.912,0,0,0-.022,3.127Z" fill="#2e3c4b"/>
          <path id="Path_2105" data-name="Path 2105" d="M787.893,661.963l-.058-.082c-.31-.449-.107-2.687-.038-3.361l.01-.1.45.045-.009.1a11.153,11.153,0,0,0-.04,3.06l.057.082Zm.093-3.324a11.253,11.253,0,0,0-.029,3.037l.044-.03a13.5,13.5,0,0,1,.038-3Z" fill="#2e3c4b"/>
        </g>
        <g id="Group_318" data-name="Group 318">
          <path id="Path_2106" data-name="Path 2106" d="M793.008,661.812l-.246-.056c.081-.363.13-2.212.144-3.139l.253,0C793.157,658.732,793.116,661.333,793.008,661.812Z" fill="#2e3c4b"/>
          <path id="Path_2107" data-name="Path 2107" d="M793.084,661.932l-.442-.1.022-.1c.074-.332.126-2.047.142-3.12l0-.1.453.006,0,.1c-.011.653-.054,2.771-.153,3.211Zm-.208-.251.052.01c.065-.459.109-1.788.13-2.971H793C792.99,659.606,792.947,661.172,792.876,661.681Z" fill="#2e3c4b"/>
        </g>
        <g id="Group_319" data-name="Group 319">
          <path id="Path_2108" data-name="Path 2108" d="M789.952,661.911l-.121-.056a11.124,11.124,0,0,1,.1-3.25l.252.028a15.01,15.01,0,0,0-.159,3.061.09.09,0,0,0-.074-.036Z" fill="#2e3c4b"/>
          <path id="Path_2109" data-name="Path 2109" d="M790.052,662.068l-.3-.147c-.066-.073-.266-.3.078-3.328l.011-.1.451.053-.012.1a15.9,15.9,0,0,0-.17,3l-.062.034Zm-.031-3.352a16.091,16.091,0,0,0-.169,2.849v-.007h.046a21.388,21.388,0,0,1,.177-2.836Z" fill="#2e3c4b"/>
        </g>
        <g id="Group_320" data-name="Group 320">
          <path id="Path_2110" data-name="Path 2110" d="M794.509,636.851l-.253-.005a2.628,2.628,0,0,1,.356-.776c.316-.587.844-1.57.751-1.862-.008-.026-.018-.031-.024-.034-.433-.206-9.72-.463-10.449-.072a11.93,11.93,0,0,0,.748,2.188l-.233.1a11.513,11.513,0,0,1-.77-2.328.188.188,0,0,1,.1-.162c.752-.465,10.249-.184,10.715.048a.3.3,0,0,1,.152.184c.116.365-.279,1.148-.769,2.059A5.143,5.143,0,0,0,794.509,636.851Z" fill="#2e3c4b"/>
          <path id="Path_2111" data-name="Path 2111" d="M794.507,636.95l-.351-.007v-.1a2.46,2.46,0,0,1,.368-.823,5.859,5.859,0,0,0,.748-1.767c-.633-.183-9.239-.42-10.274-.091a13.16,13.16,0,0,0,.731,2.085l.04.091-.417.18-.04-.092a10.768,10.768,0,0,1-.777-2.368.29.29,0,0,1,.149-.247c.487-.3,4.024-.273,5.519-.252a41.778,41.778,0,0,1,5.294.295.406.406,0,0,1,.2.244c.127.4-.259,1.172-.777,2.135-.127.239-.3.567-.316.63l-.016.081Zm-.126-.2h.056c.045-.107.142-.292.3-.587.472-.877.877-1.673.773-2a.2.2,0,0,0-.1-.125c-.427-.213-9.931-.477-10.617-.052a.094.094,0,0,0-.054.077,9.691,9.691,0,0,0,.723,2.2l.049-.022a11.269,11.269,0,0,1-.717-2.127l-.005-.065.057-.03c.775-.413,10.1-.141,10.54.07a.141.141,0,0,1,.076.1c.1.3-.3,1.088-.755,1.932C794.539,636.418,794.428,636.627,794.381,636.748Z" fill="#2e3c4b"/>
        </g>
        <g id="Group_321" data-name="Group 321">
          <path id="Path_2112" data-name="Path 2112" d="M796.184,706.2c-6.877,0-16.169-.381-16.92-1.057-.685-.616-.495-9.127-.32-14.145.222-6.365.657-13.519.973-13.976h0c.045-.065.141-.119.462-.176,2.763-.491,18.874-.538,19.841.144.761.538,2.233,11.983,2.52,14.272.637,5.072,1.6,13.814,1.18,14.411-.071.1-.269.219-1.192.323C801.493,706.134,799.047,706.2,796.184,706.2Zm-16.063-29.027c-.225.429-.666,6.41-.925,13.869-.28,8.07-.187,13.531.237,13.913.815.733,15.867,1.242,21.982.891,2.021-.116,2.27-.287,2.3-.321.261-.421-.278-6.686-1.229-14.26-1.118-8.9-2.059-13.81-2.412-14.068C799.212,676.589,781.019,676.57,780.121,677.173Z" fill="#2e3c4b"/>
          <path id="Path_2113" data-name="Path 2113" d="M796.184,706.3c-6.365,0-16.166-.344-16.987-1.083-.679-.611-.567-8.071-.353-14.223.192-5.508.626-13.5.991-14.029.071-.1.214-.162.526-.218a102.012,102.012,0,0,1,10.612-.369c2.014.006,8.638.06,9.3.53.777.549,2.158,11.115,2.562,14.341.177,1.4,1.7,13.716,1.163,14.481-.1.145-.356.263-1.263.365C801.558,706.228,799.229,706.3,796.184,706.3Zm-5.621-29.73a94.393,94.393,0,0,0-10.167.374c-.236.041-.362.084-.4.134-.269.389-.707,6.765-.956,13.924-.3,8.509-.191,13.636.287,14.066.675.609,9.424,1.033,16.853,1.033,3.038,0,5.358-.074,6.533-.205.675-.076,1.042-.167,1.122-.281.351-.5-.375-7.783-1.2-14.341-.853-6.8-1.951-13.829-2.479-14.2C799.669,676.724,795.18,676.57,790.563,676.57Zm5.685,29.487c-6.862,0-16.184-.4-16.882-1.028-.679-.612-.379-10.863-.27-13.991.24-6.918.678-13.419.937-13.912l.033-.036c.96-.646,19.15-.62,20.065.025.448.327,1.433,6.008,2.453,14.137.825,6.565,1.531,13.817,1.215,14.326a6.782,6.782,0,0,1-2.378.368C800.107,706.021,798.286,706.057,796.248,706.057ZM780.2,677.243a131.875,131.875,0,0,0-.9,13.8c-.316,9.095-.115,13.547.2,13.835.725.652,15.467,1.235,21.909.866a6.415,6.415,0,0,0,2.235-.292c.2-.334-.213-5.861-1.258-14.178-1.229-9.788-2.107-13.781-2.372-14C799.208,676.709,781.308,676.684,780.2,677.243Z" fill="#2e3c4b"/>
        </g>
        <g id="Group_322" data-name="Group 322">
          <rect id="Rectangle_222" data-name="Rectangle 222" width="1.75" height="0.253" transform="translate(797.808 629.82) rotate(-18.46)" fill="#2e3c4b"/>
          <path id="Path_2114" data-name="Path 2114" d="M797.825,630.188l-.143-.431,1.85-.617.143.43Zm.11-.3.017.05,1.47-.491-.017-.049Z" fill="#2e3c4b"/>
        </g>
        <g id="Group_323" data-name="Group 323">
          <rect id="Rectangle_223" data-name="Rectangle 223" width="2.73" height="0.253" transform="translate(798.277 632.245)" fill="#2e3c4b"/>
          <path id="Path_2115" data-name="Path 2115" d="M801.107,632.6h-2.93v-.453h2.93Zm-2.73-.2h2.53v-.054h-2.53Z" fill="#2e3c4b"/>
        </g>
        <g id="Group_324" data-name="Group 324">
          <rect id="Rectangle_224" data-name="Rectangle 224" width="0.253" height="1.346" transform="translate(797.417 635.098) rotate(-63.534)" fill="#2e3c4b"/>
          <path id="Path_2116" data-name="Path 2116" d="M798.667,635.831l-1.384-.688.2-.406,1.384.689Zm-1.116-.778,1.026.51.023-.047-1.025-.511Z" fill="#2e3c4b"/>
        </g>
        <g id="Group_325" data-name="Group 325">
          <path id="Path_2117" data-name="Path 2117" d="M780.538,630.534a10.729,10.729,0,0,1-1.59-.693l.115-.226a10.625,10.625,0,0,0,1.515.669Z" fill="#2e3c4b"/>
          <path id="Path_2118" data-name="Path 2118" d="M780.621,630.648l-.1-.015a10.345,10.345,0,0,1-1.62-.7l-.089-.045.207-.405.088.046a10.33,10.33,0,0,0,1.485.659l.1.014Zm-1.538-.851a11.938,11.938,0,0,0,1.373.614l.008-.053a12.662,12.662,0,0,1-1.357-.609Z" fill="#2e3c4b"/>
        </g>
        <g id="Group_326" data-name="Group 326">
          <rect id="Rectangle_225" data-name="Rectangle 225" width="1.945" height="0.253" transform="translate(778.256 631.998)" fill="#2e3c4b"/>
          <path id="Path_2119" data-name="Path 2119" d="M780.3,632.351h-2.145V631.9H780.3Zm-1.945-.2H780.1V632.1h-1.745Z" fill="#2e3c4b"/>
        </g>
        <g id="Group_327" data-name="Group 327">
          <path id="Path_2120" data-name="Path 2120" d="M779.047,635.135l-.082-.239,1.552-.535.082.239Z" fill="#2e3c4b"/>
          <path id="Path_2121" data-name="Path 2121" d="M778.984,635.263l-.147-.428,1.742-.6.147.43Zm.107-.3.017.051,1.364-.471-.017-.051Z" fill="#2e3c4b"/>
        </g>
      </g>
    </g>
    <g id="czołpino">
      <g id="Group_328" data-name="Group 328">
        <path id="Path_2122" data-name="Path 2122" d="M703.163,700.235c-4.04,0-12.249-.753-13.358-1.725a.371.371,0,0,1-.144-.251h0c-.033-.563.8-14.571,1.54-26.93.566-9.484,1.1-18.443,1.084-18.7a7.611,7.611,0,0,0-1.1-.962c-.076-.059-.141-.111-.191-.151-.126-.1-.21-.413-.251-.93a4.685,4.685,0,0,1,.239-2.252c.386-.424,9.62-.186,12.483-.032,1.743.093,4.585.026,7.093-.034,3.8-.089,4.769-.09,4.881.078.173.259-.031,1.26-.391,2.683l-.017.069a1.512,1.512,0,0,1-.651.813,2.4,2.4,0,0,0-.693.727c.257,2.236,5.11,44.667,4.091,46.016-.8,1.062-5.964,1.25-10.111,1.4-1.211.045-2.355.086-3.188.146C704.122,700.223,703.676,700.235,703.163,700.235Zm-8.14-51.942a20.755,20.755,0,0,0-3.9.176,4.839,4.839,0,0,0-.184,2.1c.043.547.131.754.176.791l.189.148c.721.564,1.121.9,1.174,1.08.028.1-.218,4.311-1.08,18.755-.737,12.353-1.572,26.355-1.539,26.906a.189.189,0,0,0,.076.113c1.121.984,11.132,1.882,14.527,1.639.836-.06,1.982-.1,3.2-.146,3.888-.142,9.213-.336,9.959-1.322.81-1.074-2.709-33.5-4.134-45.905l0-.031.015-.028a2.566,2.566,0,0,1,.762-.817,1.33,1.33,0,0,0,.579-.7l.018-.069a7.015,7.015,0,0,0,.418-2.524,46.383,46.383,0,0,0-4.711.012c-2.511.059-5.358.126-7.108.033C701.2,648.377,697.714,648.293,695.023,648.293Z" fill="#2e3c4b"/>
        <path id="Path_2123" data-name="Path 2123" d="M703.163,700.335c-3.913,0-12.271-.739-13.424-1.75a.462.462,0,0,1-.177-.32c-.034-.566.8-14.494,1.53-26.781l.014-.249c.531-8.883,1.079-18.066,1.08-18.586a7.4,7.4,0,0,0-1.048-.894l-.063-.05-.145-.113c-.095-.076-.229-.264-.288-1a4.761,4.761,0,0,1,.265-2.327c.464-.509,10.794-.159,12.562-.065,1.726.093,4.545.026,7.032-.032h.053c4.225-.1,4.83-.086,4.967.121.172.258.073.981-.376,2.764l-.019.068a1.59,1.59,0,0,1-.686.867,2.382,2.382,0,0,0-.651.67c.258,2.25,5.118,44.664,4.067,46.056-.831,1.1-5.8,1.28-10.187,1.44-1.149.042-2.339.085-3.184.146C704.138,700.323,703.693,700.335,703.163,700.335Zm-13.218-1.844c.976.667,5.643,1.266,9.672,1.518C695.616,699.752,690.911,699.144,689.945,698.491Zm.015-.251a.29.29,0,0,0,.042.044c.477.418,2.913.9,6.356,1.256a57.085,57.085,0,0,0,8.1.359c.853-.06,2.045-.1,3.2-.145,3.657-.135,9.167-.336,9.883-1.284.7-.929-2.175-28.606-4.153-45.832l-.008-.063.03-.054a2.643,2.643,0,0,1,.788-.849,1.243,1.243,0,0,0,.544-.651l.017-.068a8.1,8.1,0,0,0,.443-2.419c-.344-.07-2.71-.014-4.624.03-2.524.06-5.371.129-7.127.034-2.25-.12-5.715-.205-8.425-.205-3.33,0-3.782.122-3.841.159a5.351,5.351,0,0,0-.141,2.008,1.651,1.651,0,0,0,.143.723l.164.129.02.016c.871.681,1.153.945,1.208,1.13.03.1-.072,1.962-1.076,18.789-.7,11.731-1.571,26.33-1.54,26.893Zm27.738.35h0l-.019.024.019-.024Zm-3.972-44.723c.65,5.742,3.324,29.645,3.964,39.97C717.145,684.982,715.1,665.852,713.726,653.867ZM692.381,652.6c.009.184-.126,2.6-.34,6.268.262-4.463.353-6.143.34-6.267Zm22.494-1.365a1.129,1.129,0,0,1-.252.339A1.108,1.108,0,0,0,714.875,651.236Zm.5-2.211a18.627,18.627,0,0,1-.392,1.852A18.272,18.272,0,0,0,715.374,649.025Zm-8.572-.587-.8.006Zm-15.729-.051-.019.012h0Z" fill="#2e3c4b"/>
      </g>
      <g id="Group_329" data-name="Group 329">
        <path id="Path_2124" data-name="Path 2124" d="M703.38,635.566c-1.833,0-7.1-.161-7.379-.755h0a.266.266,0,0,1,.051-.244c.615-.927,6.185-4.572,7.6-4.572h.034c1.324.06,6.528,3.437,7.047,4.574a.31.31,0,0,1-.005.338c-.446.563-3.1.628-6.264.65l-.827.007Zm-7.193-.832c.248.352,4.508.661,7.445.632l.828-.007c2.264-.016,5.686-.041,6.108-.575.016-.02.009-.069-.019-.131-.489-1.068-5.629-4.4-6.875-4.458-.575-.028-2.2.76-4.233,2.05A13.209,13.209,0,0,0,696.187,634.734Z" fill="#2e3c4b"/>
        <path id="Path_2125" data-name="Path 2125" d="M703.38,635.666c-.071,0-7.093-.021-7.469-.812a.34.34,0,0,1,.057-.342c.644-.97,6.255-4.616,7.681-4.616h.038c1.341.06,6.608,3.481,7.134,4.632a.4.4,0,0,1-.018.441c-.473.6-3.038.666-6.341.689l-.827.007Zm5.353-.34c-1.142.1-2.669.121-4.273.132l-.827.007h0l.827-.007C705.825,635.449,707.474,635.438,708.733,635.326Zm-10.392-.081c.973.093,2.146.159,3.284.193C700.528,635.4,699.337,635.339,698.341,635.245Zm-2.03-.536a33.775,33.775,0,0,0,7.32.557l.828-.007c2.083-.015,5.553-.039,6.016-.519a.312.312,0,0,0-.017-.045c-.482-1.054-5.558-4.343-6.789-4.4h-.027a13.04,13.04,0,0,0-4.147,2.033A16.5,16.5,0,0,0,696.311,634.709Zm7.487-4.6c1.411.234,6.162,3.324,6.807,4.437C709.951,633.4,705.245,630.337,703.8,630.108Zm-4.069,1.837c-.528.327-1.048.667-1.523.995.365-.252.763-.514,1.182-.78Zm3.92-1.85h.029l-.029-.1Z" fill="#2e3c4b"/>
      </g>
      <g id="Group_330" data-name="Group 330">
        <rect id="Rectangle_226" data-name="Rectangle 226" width="0.2" height="8.53" transform="translate(696.116 634.871) rotate(-0.656)" fill="#2e3c4b"/>
        <path id="Path_2126" data-name="Path 2126" d="M696.115,643.5v-.1l-.1-8.629.4,0v.1l.1,8.628Z" fill="#2e3c4b"/>
      </g>
      <g id="Group_331" data-name="Group 331">
        <rect id="Rectangle_227" data-name="Rectangle 227" width="0.2" height="8.463" transform="matrix(1, -0.012, 0.012, 1, 710.547, 634.847)" fill="#2e3c4b"/>
        <path id="Path_2127" data-name="Path 2127" d="M710.551,643.41v-.1l-.1-8.562.4,0v.1l.1,8.563Z" fill="#2e3c4b"/>
      </g>
      <g id="Group_332" data-name="Group 332">
        <path id="Path_2128" data-name="Path 2128" d="M715.453,648.416l-.2-.036a4.966,4.966,0,0,0,.126-1.9c-.248-.086-4.223-.041-7.125-.008-1.965.023-3.663.042-4.3.026-.328-.008-1.011-.032-1.9-.064-3.123-.11-10.393-.368-10.93-.178a9.5,9.5,0,0,0,.021,2.137l-.2.018a8.437,8.437,0,0,1,.013-2.273c.109-.193,1.857-.231,11.1.1.887.031,1.569.055,1.9.064.63.015,2.326,0,4.289-.026a69.147,69.147,0,0,1,7.239.042C715.772,646.5,715.558,647.845,715.453,648.416Z" fill="#2e3c4b"/>
        <path id="Path_2129" data-name="Path 2129" d="M715.533,648.532l-.392-.072.018-.1a6.551,6.551,0,0,0,.157-1.8c-.465-.07-4.371-.026-6.982,0h-.107c-1.952.023-3.637.041-4.268.026-.3-.007-.888-.028-1.658-.055l-.241-.009c-2.773-.1-10.034-.355-10.848-.2a10.95,10.95,0,0,0,.042,2.047l.009.1-.4.036-.009-.1a7.662,7.662,0,0,1,.026-2.332c.126-.218.706-.324,11.192.047.886.032,1.568.056,1.9.064.607.011,2.159,0,4.286-.026,5.762-.066,7.125-.054,7.295.06.241.159.241.9,0,2.206Zm-.16-.232h0a8.912,8.912,0,0,0,.159-1.393A11.385,11.385,0,0,1,715.373,648.3Zm-24.324-2.108h0a7.038,7.038,0,0,0-.01,1.993,8.59,8.59,0,0,1,0-1.971Zm9.919.1c.366.013.733.025,1.1.039l.242.008.118.005-.359-.014Z" fill="#2e3c4b"/>
      </g>
      <g id="Group_333" data-name="Group 333">
        <path id="Path_2130" data-name="Path 2130" d="M695.991,653.434h-1.4v-.1c0-.016.014-1.636-.517-2.174a.492.492,0,0,0-.364-.162c-.917,0-1.228,1.619-1.231,1.636l-.2-.037c.013-.073.344-1.8,1.427-1.8a.691.691,0,0,1,.506.221,3.884,3.884,0,0,1,.574,2.215H695.9c.043-.46.289-2.411,1.376-2.562a.716.716,0,0,1,.593.178,3.7,3.7,0,0,1,.657,2.253l1.086-.053a3.174,3.174,0,0,1,.245-1.982.564.564,0,0,1,.445-.207c.892,0,1.234,1.624,1.3,2.014l.779.042a3.412,3.412,0,0,1,.648-2.07.777.777,0,0,1,.615-.2c.569.06.572,1.607.558,2.11l1.375.137c.035-.457.234-2.208,1.258-2.268a.724.724,0,0,1,.557.207,3.78,3.78,0,0,1,.653,2.2h.682c.041-.488.246-2.352.971-2.4s1.113,1.838,1.2,2.31l1.131.013c.025-.786.131-2.371.571-2.371h0c.8.006,1.053,1.818,1.079,2.025l-.2.025c-.065-.513-.352-1.847-.883-1.851h0a4.639,4.639,0,0,0-.373,2.276l0,.1-1.494-.017-.014-.082c-.147-.878-.538-2.263-1-2.227s-.733,1.436-.794,2.312l-.006.093h-1.063l0-.1c0-.016-.028-1.627-.592-2.152a.53.53,0,0,0-.41-.154c-.973.057-1.075,2.162-1.076,2.183l-.005.1-1.77-.176,0-.094c.033-.81-.061-1.964-.376-2a.577.577,0,0,0-.461.15c-.563.5-.585,2.013-.585,2.028v.1l-1.146-.062-.012-.08c-.081-.535-.438-1.924-1.12-1.924a.367.367,0,0,0-.294.136c-.405.474-.186,1.917-.184,1.932l.017.109-1.512.074v-.105c0-.017-.008-1.7-.591-2.207a.523.523,0,0,0-.435-.13c-1.046.145-1.21,2.447-1.211,2.471l-.007.093Z" fill="#2e3c4b"/>
        <path id="Path_2131" data-name="Path 2131" d="M696.178,653.533h-1.686l0-.2a3.831,3.831,0,0,0-.488-2.1.4.4,0,0,0-.293-.132c-.823,0-1.13,1.538-1.132,1.553l-.019.1-.392-.072.017-.1c.014-.077.348-1.881,1.526-1.881a.787.787,0,0,1,.578.251,3.779,3.779,0,0,1,.6,2.186h.918c.072-.668.367-2.411,1.452-2.561a.8.8,0,0,1,.673.2,3.525,3.525,0,0,1,.688,2.224l.877-.043a3.019,3.019,0,0,1,.28-1.953.672.672,0,0,1,.522-.24c.909,0,1.279,1.454,1.387,2.017l.6.033a3.338,3.338,0,0,1,.677-2.04.894.894,0,0,1,.691-.225c.594.062.666,1.313.65,2.119l1.182.117c.059-.629.312-2.2,1.343-2.258a.8.8,0,0,1,.631.234,3.685,3.685,0,0,1,.68,2.171h.5c.072-.774.311-2.352,1.055-2.4l.039,0c.719,0,1.1,1.551,1.25,2.314l.951.01c.059-1.574.283-2.37.668-2.37.866.006,1.134,1.76,1.179,2.112l.013.1-.4.051-.013-.1c-.092-.715-.386-1.717-.76-1.762a6.57,6.57,0,0,0-.3,2.177l-.006.2-1.675-.021-.028-.164c-.175-1.039-.56-2.143-.885-2.143h-.01c-.33.023-.629,1.166-.7,2.219l-.014.185h-1.254l0-.2c0-.018-.03-1.586-.56-2.08a.462.462,0,0,0-.336-.128c-.858.05-.978,2-.982,2.086l-.009.213-1.969-.2.007-.187c.042-1.028-.122-1.876-.286-1.894a.487.487,0,0,0-.385.126c-.525.469-.551,1.939-.551,1.953l0,.209-1.332-.071-.024-.161c-.107-.711-.479-1.84-1.021-1.84a.27.27,0,0,0-.218.1c-.313.366-.219,1.486-.161,1.85l.035.22-1.729.085v-.211c0-.459-.1-1.735-.557-2.132a.43.43,0,0,0-.355-.106c-.953.133-1.125,2.356-1.126,2.378Zm-.188-.2h0l0-.035Zm-1.3,0h0l0-.1v-.007C694.694,653.287,694.694,653.324,694.694,653.334Zm3.733-.16v.033l.141-.007-.141.007Zm1.29-.08.008.05S699.721,653.123,699.717,653.094Zm9.105.035h0v-.017Zm-.871,0h0l0-.058Zm1.28-1.934a6.028,6.028,0,0,0-.4,1.843l0,.023A6.834,6.834,0,0,1,709.231,651.2Zm2.9,1.854h0v0Zm-1.311-.015h0l-.005-.032Zm-3.366-1.989a4.272,4.272,0,0,1,.5,1.977A4.214,4.214,0,0,0,707.45,651.045Zm-4.971,1.976h0v0Zm3.181-.02h.012l0-.038,0,.038Zm6.608-1.563a10.732,10.732,0,0,0-.137,1.513v.021A13.276,13.276,0,0,1,712.268,651.438ZM701.52,652.97h0v0Zm4.3-.932a5.685,5.685,0,0,0-.135.844A5.787,5.787,0,0,1,705.816,652.038Zm-5.24-1.012c.575.286.843,1.418.92,1.81C701.426,652.47,701.162,651.313,700.576,651.026Zm3.444.37a7.054,7.054,0,0,1,.086,1.282A6.351,6.351,0,0,0,704.02,651.4Zm9.159-.227a4.931,4.931,0,0,1,.39,1.347h0A4.6,4.6,0,0,0,713.179,651.169Zm-10.511.54a4.51,4.51,0,0,0-.11.49A4.51,4.51,0,0,1,702.668,651.709Zm-2.535-.72a.457.457,0,0,0-.134.076A.482.482,0,0,1,700.133,650.989Zm12.468-.312a.4.4,0,0,1,.11.015.617.617,0,0,0-.118-.015Z" fill="#2e3c4b"/>
      </g>
      <g id="Group_334" data-name="Group 334">
        <path id="Path_2132" data-name="Path 2132" d="M701.419,700.094c-.013-.159-.313-3.916,1.015-5.271a1.546,1.546,0,0,1,1.251-.477c1.132.072,1.935,1.079,2.323,2.911a13.171,13.171,0,0,1,.248,2.73l-.2-.007c0-.053.138-5.275-2.384-5.435a1.352,1.352,0,0,0-1.095.418c-1.265,1.29-.963,5.076-.959,5.114Z" fill="#2e3c4b"/>
        <path id="Path_2133" data-name="Path 2133" d="M701.328,700.2l-.009-.1c-.013-.162-.311-3.966,1.044-5.349a1.629,1.629,0,0,1,1.328-.507c1.182.075,2.017,1.109,2.414,2.99a13.04,13.04,0,0,1,.251,2.747l0,.1-.1,0-.3-.009,0-.1c0-.052.116-5.18-2.29-5.333a1.258,1.258,0,0,0-1.018.388c-1.226,1.251-.934,5-.931,5.035l.009.1Zm.94-5.014c-.9,1.336-.8,4.048-.76,4.74C701.469,699.243,701.376,696.517,702.268,695.188Z" fill="#2e3c4b"/>
      </g>
      <g id="Group_335" data-name="Group 335">
        <path id="Path_2134" data-name="Path 2134" d="M697.187,685.784h-2.1l-.009-.09a4.215,4.215,0,0,1,.436-2.472.855.855,0,0,1,.6-.322.718.718,0,0,1,.593.217c.639.639.492,2.5.485,2.576Zm-1.919-.2H697c.021-.379.066-1.828-.433-2.327a.524.524,0,0,0-.436-.16.658.658,0,0,0-.467.252A3.855,3.855,0,0,0,695.268,685.585Z" fill="#2e3c4b"/>
        <path id="Path_2135" data-name="Path 2135" d="M697.28,685.884h-2.285l-.018-.18a4.221,4.221,0,0,1,.459-2.547.952.952,0,0,1,.673-.357.831.831,0,0,1,.672.247c.678.678.52,2.574.513,2.654Zm-1.919-2.191a5.08,5.08,0,0,0-.192,1.9h0A5.1,5.1,0,0,1,695.361,683.693Zm0,1.792h1.544a3.43,3.43,0,0,0-.409-2.157.429.429,0,0,0-.356-.13.551.551,0,0,0-.4.216A3.643,3.643,0,0,0,695.363,685.485Zm1.535-1.87a4.734,4.734,0,0,1,.216,1.57A4.688,4.688,0,0,0,696.9,683.615Zm-.536-.595a.66.66,0,0,1,.1.039A.54.54,0,0,0,696.362,683.02Z" fill="#2e3c4b"/>
      </g>
      <g id="Group_336" data-name="Group 336">
        <path id="Path_2136" data-name="Path 2136" d="M713.155,689.262h-2.2l0-.1c-.013-.333-.1-3.251,1.043-3.318a.607.607,0,0,1,.468.182c.7.664.693,3.032.692,3.132Zm-2.007-.2h1.807c-.006-.456-.067-2.354-.63-2.888a.418.418,0,0,0-.318-.127C711.233,686.094,711.125,688.155,711.148,689.063Z" fill="#2e3c4b"/>
        <path id="Path_2137" data-name="Path 2137" d="M713.254,689.362h-2.4l-.007-.191c-.023-.559-.076-3.351,1.137-3.421a.732.732,0,0,1,.543.209c.739.7.724,3.1.723,3.205Zm-1.544-3.3c-.56.409-.686,1.9-.664,2.922C711.04,688.481,711.057,686.538,711.71,686.057Zm-.464,2.907h1.607a4.9,4.9,0,0,0-.6-2.716.337.337,0,0,0-.244-.1C711.415,686.184,711.229,687.815,711.246,688.964Zm1.64-1.693a10.453,10.453,0,0,1,.166,1.653A10.364,10.364,0,0,0,712.886,687.271Z" fill="#2e3c4b"/>
      </g>
      <g id="Group_337" data-name="Group 337">
        <path id="Path_2138" data-name="Path 2138" d="M697.45,664.094h-2.465l0-.1c0-.113.073-2.776.781-3.425a.52.52,0,0,1,.4-.153c1.05.067,1.255,3.216,1.275,3.575Zm-2.259-.2h2.047c-.067-.991-.367-3.235-1.082-3.281a.34.34,0,0,0-.252.1C695.33,661.239,695.211,663.4,695.191,663.894Z" fill="#2e3c4b"/>
        <path id="Path_2139" data-name="Path 2139" d="M697.555,664.193h-2.672l.005-.2c0-.115.07-2.814.814-3.5a.64.64,0,0,1,.473-.179c1.112.071,1.335,3.069,1.368,3.668Zm-2.26-.4h1.836c-.113-1.49-.488-3.05-.981-3.082a.253.253,0,0,0-.179.075C695.56,661.165,695.354,662.568,695.295,663.795Zm1.351-2.927a8.051,8.051,0,0,1,.685,2.925A7.406,7.406,0,0,0,696.646,660.868Zm-.547-.353a.391.391,0,0,0-.192.07A.4.4,0,0,1,696.1,660.515Z" fill="#2e3c4b"/>
      </g>
      <g id="Group_338" data-name="Group 338">
        <path id="Path_2140" data-name="Path 2140" d="M711.7,667.188h-2.059l-.01-.089c-.012-.106-.288-2.6.422-3.272a.615.615,0,0,1,.556-.162c1.34.231,1.109,3.3,1.1,3.431Zm-1.879-.2h1.693c.028-.507.106-2.946-.939-3.127a.421.421,0,0,0-.385.111C709.619,664.509,709.776,666.539,709.819,666.988Z" fill="#2e3c4b"/>
        <path id="Path_2141" data-name="Path 2141" d="M711.79,667.287h-2.239l-.021-.176c-.031-.27-.282-2.664.452-3.356a.713.713,0,0,1,.642-.189c1.4.242,1.208,3.2,1.181,3.538Zm-.181-1.41a9.831,9.831,0,0,1,0,1.117l0,.044A8.473,8.473,0,0,0,711.609,665.877Zm-1.944.066a10.8,10.8,0,0,0,.058,1.094l0-.039C709.7,666.784,709.667,666.388,709.665,665.943Zm.245.946h1.507c.059-1.294-.132-2.8-.861-2.929a.317.317,0,0,0-.3.085C709.849,664.431,709.814,665.8,709.91,666.889Zm.566-3.136a.482.482,0,0,0-.29.093A.5.5,0,0,1,710.476,663.753Z" fill="#2e3c4b"/>
      </g>
      <g id="Group_339" data-name="Group 339">
        <rect id="Rectangle_228" data-name="Rectangle 228" width="0.199" height="8.004" transform="translate(697.568 635.218) rotate(-2.556)" fill="#2e3c4b"/>
        <path id="Path_2142" data-name="Path 2142" d="M697.83,643.319l0-.1-.361-8.1.4-.018,0,.1.361,8.1Z" fill="#2e3c4b"/>
      </g>
      <g id="Group_340" data-name="Group 340">
        <rect id="Rectangle_229" data-name="Rectangle 229" width="7.844" height="0.2" transform="translate(699.821 643.371) rotate(-88.552)" fill="#2e3c4b"/>
        <rect id="Rectangle_230" data-name="Rectangle 230" width="8.043" height="0.4" transform="matrix(0.024, -1, 1, 0.024, 699.722, 643.469)" fill="#2e3c4b"/>
      </g>
      <g id="Group_341" data-name="Group 341">
        <rect id="Rectangle_231" data-name="Rectangle 231" width="0.2" height="7.876" transform="translate(702.304 635.471) rotate(-1.838)" fill="#2e3c4b"/>
        <path id="Path_2143" data-name="Path 2143" d="M702.46,643.446l0-.1-.256-7.972.4-.014,0,.1.255,7.972Z" fill="#2e3c4b"/>
      </g>
      <g id="Group_342" data-name="Group 342">
        <rect id="Rectangle_232" data-name="Rectangle 232" width="0.2" height="7.743" transform="translate(705.21 635.467)" fill="#2e3c4b"/>
        <rect id="Rectangle_233" data-name="Rectangle 233" width="0.4" height="7.942" transform="translate(705.109 635.367)" fill="#2e3c4b"/>
      </g>
      <g id="Group_343" data-name="Group 343">
        <rect id="Rectangle_234" data-name="Rectangle 234" width="0.2" height="7.773" transform="translate(706.86 635.378) rotate(-1.244)" fill="#2e3c4b"/>
        <path id="Path_2144" data-name="Path 2144" d="M706.931,643.251l0-.1-.171-7.871.4-.008,0,.1.171,7.871Z" fill="#2e3c4b"/>
      </g>
      <g id="Group_344" data-name="Group 344">
        <rect id="Rectangle_235" data-name="Rectangle 235" width="0.2" height="7.827" transform="translate(708.279 635.352) rotate(-4.442)" fill="#2e3c4b"/>
        <rect id="Rectangle_236" data-name="Rectangle 236" width="0.399" height="8.027" transform="translate(708.171 635.26) rotate(-4.445)" fill="#2e3c4b"/>
      </g>
      <g id="Group_345" data-name="Group 345">
        <path id="Path_2145" data-name="Path 2145" d="M703.428,630.223a.476.476,0,0,1-.292-.081c-.17-.126-.207-.373-.252-.766a.775.775,0,0,1,.741-.842h.014l.013,0c.452.071.918.144.918.731,0,.529-.269.815-.873.928A1.515,1.515,0,0,1,703.428,630.223Zm.208-1.489c-.091.014-.611.117-.554.619.038.331.071.553.173.629.068.05.194.055.4.016.512-.1.711-.3.711-.732C704.371,628.91,704.2,628.823,703.636,628.734Z" fill="#2e3c4b"/>
        <path id="Path_2146" data-name="Path 2146" d="M703.428,630.322a.566.566,0,0,1-.351-.1c-.2-.151-.244-.415-.292-.834a.87.87,0,0,1,.828-.953h.04c.461.071,1.017.158,1.017.832,0,.578-.3.9-.955,1.025A1.539,1.539,0,0,1,703.428,630.322Zm.208-1.486c-.112.019-.5.115-.454.506.024.213.057.5.132.559.029.022.109.038.328,0,.464-.086.629-.252.629-.632C704.271,629.005,704.2,628.926,703.636,628.836Zm-.593.934a.889.889,0,0,0,.045.145A.889.889,0,0,1,703.043,629.77Z" fill="#2e3c4b"/>
      </g>
      <g id="Group_346" data-name="Group 346">
        <path id="Path_2147" data-name="Path 2147" d="M715.414,635.31l-.054-.192,4.683-1.307.054.192Z" fill="#2e3c4b"/>
        <path id="Path_2148" data-name="Path 2148" d="M715.344,635.433l-.108-.384.1-.027,4.779-1.334.107.385-.1.027Z" fill="#2e3c4b"/>
      </g>
      <g id="Group_347" data-name="Group 347">
        <rect id="Rectangle_237" data-name="Rectangle 237" width="2.753" height="0.199" transform="translate(717.316 638.522)" fill="#2e3c4b"/>
        <rect id="Rectangle_238" data-name="Rectangle 238" width="2.953" height="0.398" transform="translate(717.216 638.422)" fill="#2e3c4b"/>
      </g>
      <g id="Group_348" data-name="Group 348">
        <rect id="Rectangle_239" data-name="Rectangle 239" width="0.199" height="2.984" transform="translate(715.991 641.399) rotate(-62.876)" fill="#2e3c4b"/>
        <rect id="Rectangle_240" data-name="Rectangle 240" width="0.399" height="3.184" transform="translate(715.857 641.443) rotate(-62.873)" fill="#2e3c4b"/>
      </g>
      <g id="Group_349" data-name="Group 349">
        <path id="Path_2149" data-name="Path 2149" d="M691.5,635.421c-.428-.349-3.335-1.7-3.364-1.708l.084-.181a37.849,37.849,0,0,1,3.406,1.735Z" fill="#2e3c4b"/>
        <path id="Path_2150" data-name="Path 2150" d="M691.512,635.562l-.077-.064a35.032,35.032,0,0,0-3.337-1.691l-.09-.042.035-.094.126-.274.131.062a33.583,33.583,0,0,1,3.387,1.73l.079.064Z" fill="#2e3c4b"/>
      </g>
      <g id="Group_350" data-name="Group 350">
        <path id="Path_2151" data-name="Path 2151" d="M687.579,638.5l-.008-.2,3.656-.158.008.2Z" fill="#2e3c4b"/>
        <path id="Path_2152" data-name="Path 2152" d="M687.483,638.6l-.016-.4.1,0,3.756-.163.018.4-.1,0Zm.192-.208,3.456-.15Z" fill="#2e3c4b"/>
      </g>
      <g id="Group_351" data-name="Group 351">
        <rect id="Rectangle_241" data-name="Rectangle 241" width="3.165" height="0.2" transform="matrix(0.904, -0.427, 0.427, 0.904, 686.963, 643.25)" fill="#2e3c4b"/>
        <rect id="Rectangle_242" data-name="Rectangle 242" width="3.365" height="0.399" transform="matrix(0.904, -0.428, 0.428, 0.904, 686.83, 643.204)" fill="#2e3c4b"/>
      </g>
      <g id="Group_352" data-name="Group 352">
        <path id="Path_2153" data-name="Path 2153" d="M711.114,648.452h0a.1.1,0,0,1-.1-.1,31.026,31.026,0,0,0-.114-4.874c-.231-.3-4.205-.282-7.34-.071a39.443,39.443,0,0,1-4.056-.039c-1.4-.06-2.979-.128-3.1.085-.319.542-.1,3.6.013,4.732a.1.1,0,0,1-.09.109.1.1,0,0,1-.109-.089c-.016-.169-.4-4.145.013-4.853.178-.3,1.249-.271,3.285-.184a39.334,39.334,0,0,0,4.034.04c.072-.005,7.182-.444,7.528.172a32.478,32.478,0,0,1,.14,4.977A.1.1,0,0,1,711.114,648.452Z"/>
        <path id="Path_2154" data-name="Path 2154" d="M711.114,648.551h0a.2.2,0,0,1-.142-.062.2.2,0,0,1-.056-.141,31.073,31.073,0,0,0-.1-4.824c-.221-.2-3.684-.26-7.246-.021a38.53,38.53,0,0,1-4.067-.039,12.85,12.85,0,0,0-3.017.04c-.266.456-.124,3.106.03,4.669a.193.193,0,0,1-.045.146.2.2,0,0,1-.352-.107c-.042-.427-.4-4.191.026-4.914.208-.352,1.185-.326,3.376-.233a38.8,38.8,0,0,0,4.023.039c2.193-.13,7.289-.368,7.621.225a28.958,28.958,0,0,1,.153,5.027A.2.2,0,0,1,711.114,648.551Zm0-.2h0v0ZM696.14,645.4c.02.944.1,2.008.168,2.735C696.281,647.844,696.167,646.566,696.14,645.4Zm14.989-.3c.024,1.112,0,2.456-.009,3.009C711.142,647.055,711.148,645.961,711.129,645.093Zm-.148-1.674a3.335,3.335,0,0,1,.123.932,3.3,3.3,0,0,0-.118-.924Zm-13.216-.213c.3.005.643.015,1.04.029C698.432,643.222,698.08,643.21,697.765,643.206Z" fill="#2e3c4b"/>
      </g>
    </g>
  </g>
</svg>
