<svg xmlns="http://www.w3.org/2000/svg" width="347" height="372.275" viewBox="0 0 347 372.275">
  <g id="CIEKAWOSTKA_jastarnia" data-name="CIEKAWOSTKA jastarnia" transform="translate(-638.21 -538.593)">
    <g id="Group_296" data-name="Group 296">
      <g id="CIEKAWOSTKA">
        <path id="Path_1283" data-name="Path 1283" d="M652.324,555.977c21.329-26.6,301.272-19.481,317.158,0s23,310.27,5.607,334.215-306.642,27.428-322.768,8.69S630.995,582.581,652.324,555.977Z" fill="#e5a34c"/>
        <g id="CIEKAWOSTKA-2" style="isolation: isolate">
          <path id="Path_2874" data-name="Path 2874" d="M8.228.088A7.163,7.163,0,0,1,5.39-.484,7.224,7.224,0,0,1,3.036-2.09,7.4,7.4,0,0,1,1.452-4.444,7.217,7.217,0,0,1,.88-7.3a7.34,7.34,0,0,1,.561-2.86,7.326,7.326,0,0,1,1.6-2.376A7.4,7.4,0,0,1,5.39-14.124,7.163,7.163,0,0,1,8.228-14.7a7.158,7.158,0,0,1,3.124.7,7.9,7.9,0,0,1,2.64,2.09l-1.5,1.276a5.5,5.5,0,0,0-4.268-2.068,5.185,5.185,0,0,0-2.057.418A5.441,5.441,0,0,0,4.444-11.11,5.441,5.441,0,0,0,3.278-9.383,5.239,5.239,0,0,0,2.86-7.3a5.239,5.239,0,0,0,.418,2.079A5.441,5.441,0,0,0,4.444-3.5,5.441,5.441,0,0,0,6.171-2.332a5.185,5.185,0,0,0,2.057.418A5.5,5.5,0,0,0,12.5-3.982l1.5,1.276a8.154,8.154,0,0,1-2.651,2.09A7.088,7.088,0,0,1,8.228.088ZM16.522,0V-14.63H18.37V0Zm4.6,0V-14.63h8.008v1.98H23.034v4.444h4.092v1.8H23.034V-1.98h6.094V0ZM38.544,0l-4.73-5.39V0H31.878V-14.608h1.936v5.566l4.642-5.566h2.552L34.826-7.194,41.162,0Zm14.1,0-1.8-5.148H46.266L44.462,0h-2.09l5.082-14.608h2.2L54.736,0ZM48.554-11.77,46.882-7H50.2ZM67.76,0H65.8L63.536-6.226,61.358,0h-1.98l-5.3-14.652H56.21L60.346-3.19,62.458-9.2l-1.98-5.456h2.134l1.936,5.368L66.77-3.19l4-11.462h2.134ZM81.334.11a7.2,7.2,0,0,1-2.827-.561,7.112,7.112,0,0,1-2.343-1.595A7.364,7.364,0,0,1,74.58-4.411a7.242,7.242,0,0,1-.572-2.849,7.2,7.2,0,0,1,.561-2.827,7.358,7.358,0,0,1,1.6-2.365,7.431,7.431,0,0,1,2.343-1.584,7.084,7.084,0,0,1,2.827-.572,7.163,7.163,0,0,1,2.838.572,7.4,7.4,0,0,1,2.354,1.584A7.4,7.4,0,0,1,88.11-10.1a7.163,7.163,0,0,1,.572,2.838,7.242,7.242,0,0,1-.572,2.849,7.364,7.364,0,0,1-1.584,2.365A7.4,7.4,0,0,1,84.172-.462,7.163,7.163,0,0,1,81.334.11Zm0-12.716a5.306,5.306,0,0,0-2.057.407,5.292,5.292,0,0,0-1.727,1.155,5.292,5.292,0,0,0-1.155,1.727,5.306,5.306,0,0,0-.407,2.057,5.4,5.4,0,0,0,.418,2.1A5.3,5.3,0,0,0,77.55-3.432a5.292,5.292,0,0,0,1.727,1.155,5.306,5.306,0,0,0,2.057.407,5.306,5.306,0,0,0,2.057-.407,5.292,5.292,0,0,0,1.727-1.155,5.3,5.3,0,0,0,1.144-1.727,5.4,5.4,0,0,0,.418-2.1,5.306,5.306,0,0,0-.407-2.057,5.292,5.292,0,0,0-1.155-1.727A5.292,5.292,0,0,0,83.391-12.2,5.306,5.306,0,0,0,81.334-12.606ZM98.582-10.12a3.391,3.391,0,0,0-.462-1.408,2.406,2.406,0,0,0-.979-.869,3.487,3.487,0,0,0-1.485-.275,2.782,2.782,0,0,0-2.09.638,2.234,2.234,0,0,0-.572,1.65,2.425,2.425,0,0,0,.176,1,1.51,1.51,0,0,0,.528.627,3.681,3.681,0,0,0,1.738.484,12.146,12.146,0,0,1,2.079.341A5.589,5.589,0,0,1,99-7.3a3.474,3.474,0,0,1,1.606,3.168,3.881,3.881,0,0,1-.33,1.584,4.393,4.393,0,0,1-.924,1.342A4.43,4.43,0,0,1,97.691-.2,6.065,6.065,0,0,1,95.7.132a5.168,5.168,0,0,1-3.718-1.32,5.222,5.222,0,0,1-1.43-3.168l.044-.022h1.936a2.878,2.878,0,0,0,.792,1.738,3.272,3.272,0,0,0,2.31.792,3.473,3.473,0,0,0,2.2-.638,2,2,0,0,0,.814-1.65,2.4,2.4,0,0,0-.121-.8,1.357,1.357,0,0,0-.451-.605,5.572,5.572,0,0,0-2.794-.726,5.05,5.05,0,0,1-3.168-1.21,3.834,3.834,0,0,1-1.078-2.9A4.135,4.135,0,0,1,92.2-13.442a4.639,4.639,0,0,1,3.432-1.232A4.6,4.6,0,0,1,99.2-13.288a5.513,5.513,0,0,1,1.364,3.168Zm8.712-2.64V0h-1.936V-12.76h-3.542v-1.87h9.02v1.87ZM120.032,0,115.3-5.39V0h-1.936V-14.608H115.3v5.566l4.642-5.566H122.5l-6.182,7.414L122.65,0Zm14.1,0-1.8-5.148h-4.576L125.95,0h-2.09l5.082-14.608h2.2L136.224,0Zm-4.092-11.77L128.37-7h3.322Z" transform="translate(737.702 582.53)" fill="#2e3c4b"/>
        </g>
        <rect id="Rectangle_45" data-name="Rectangle 45" width="12.483" height="2.497" transform="translate(799.388 590.496)" fill="#ae4426"/>
        <g id="Group_181" data-name="Group 181">
          <path id="Path_1327" data-name="Path 1327" d="M728.334,658.841c5.516-15.086,18.484-46.185,43.66-46.742s94.315-3,111.88,18.051,20.67,37.465,18.08,70.665-11.5,52.475-22,70.137-55.2,31.273-95.374,29.708-69.436-25.383-68.657-57.982,14.83-36.955,12.407-51.118S722.818,673.927,728.334,658.841Z" fill="#f2edeb"/>
        </g>
        <path id="Path_2873" data-name="Path 2873" d="M-79.2-.653V-13.061h-.735V0h6.265V-.653Zm15.48-8.225-.122,2.2a3.982,3.982,0,0,0-3.714-2.449,4.336,4.336,0,0,0-4.245,4.653A4.322,4.322,0,0,0-67.541.163a3.954,3.954,0,0,0,3.694-2.449L-63.724,0h.592V-8.878ZM-67.418-.449a3.757,3.757,0,0,1-3.653-4.02A3.772,3.772,0,0,1-67.439-8.51a3.767,3.767,0,0,1,3.673,4.041A3.757,3.757,0,0,1-67.418-.449Zm11.5-8.429h-2.306v-2.653h-.714v2.653h-1.286v.592h1.286V0h.714V-8.286h2.306Zm9.929,0-.122,2.2a3.982,3.982,0,0,0-3.714-2.449,4.336,4.336,0,0,0-4.245,4.653A4.322,4.322,0,0,0-49.806.163a3.954,3.954,0,0,0,3.694-2.449L-45.99,0h.592V-8.878ZM-49.684-.449a3.757,3.757,0,0,1-3.653-4.02A3.772,3.772,0,0,1-49.7-8.51a3.767,3.767,0,0,1,3.673,4.041A3.757,3.757,0,0,1-49.684-.449Zm10.908-8.673a2.706,2.706,0,0,0-2.51,2.02l-.1-1.776H-42V0h.714V-5.592c.041-1.735.98-2.837,2.347-2.837a2.971,2.971,0,0,1,.633.082l.143-.714A2.576,2.576,0,0,0-38.776-9.122Zm6.663,0a3.234,3.234,0,0,0-3.1,2.184l-.061-1.939h-.633V0h.714V-5.449c.184-1.939,1.367-3.061,2.959-3.061,1.612,0,2.776,1.041,2.776,3.388V0h.694V-5.245C-28.765-8.306-30.561-9.122-32.112-9.122Zm7.3-2.041a.645.645,0,0,0,.653-.653.645.645,0,0,0-.653-.653.645.645,0,0,0-.653.653A.645.645,0,0,0-24.816-11.163ZM-25.184,0h.714V-8.878h-.714Zm12.01-8.878-.122,2.2A3.982,3.982,0,0,0-17.01-9.122a4.336,4.336,0,0,0-4.245,4.653A4.322,4.322,0,0,0-16.99.163,3.954,3.954,0,0,0-13.3-2.286L-13.173,0h.592V-8.878ZM-16.867-.449a3.757,3.757,0,0,1-3.653-4.02A3.772,3.772,0,0,1-16.888-8.51a3.767,3.767,0,0,1,3.673,4.041A3.757,3.757,0,0,1-16.867-.449ZM7.888-8.878,4.949-.959,2.459-8.878H1.867L-.643-.918-3.561-8.878h-.755L-.908,0h.571l2.49-8.041L4.663,0h.571L8.622-8.878ZM18.745.163C20.439.163,21.6-.918,21.6-3.184v-9.878h-.735v10c0,1.612-.8,2.571-2.143,2.571a2.282,2.282,0,0,1-1.98-1L16.3-.939A3.039,3.039,0,0,0,18.745.163ZM32.653-8.878l-.122,2.2a3.982,3.982,0,0,0-3.714-2.449,4.336,4.336,0,0,0-4.245,4.653A4.322,4.322,0,0,0,28.837.163a3.954,3.954,0,0,0,3.694-2.449L32.653,0h.592V-8.878ZM28.959-.449a3.757,3.757,0,0,1-3.653-4.02A3.772,3.772,0,0,1,28.939-8.51a3.767,3.767,0,0,1,3.673,4.041A3.757,3.757,0,0,1,28.959-.449Zm6.99-.816A3.642,3.642,0,0,0,38.969.163c1.8,0,3.082-.939,3.082-2.51,0-3.367-4.939-1.694-4.959-4.388-.02-1.082.8-1.755,2.061-1.755a2.9,2.9,0,0,1,2.184.837l.449-.469a3.7,3.7,0,0,0-2.633-1c-1.673,0-2.816.959-2.8,2.429.041,3.286,4.959,1.612,4.959,4.388,0,1.143-.9,1.857-2.347,1.857A2.907,2.907,0,0,1,36.5-1.714ZM48.8-8.878H46.49v-2.653h-.714v2.653H44.49v.592h1.286V0h.714V-8.286H48.8Zm9.929,0-.122,2.2a3.982,3.982,0,0,0-3.714-2.449,4.336,4.336,0,0,0-4.245,4.653A4.322,4.322,0,0,0,54.908.163,3.954,3.954,0,0,0,58.6-2.286L58.725,0h.592V-8.878ZM55.031-.449a3.757,3.757,0,0,1-3.653-4.02A3.772,3.772,0,0,1,55.01-8.51a3.767,3.767,0,0,1,3.673,4.041A3.757,3.757,0,0,1,55.031-.449ZM65.939-9.122a2.706,2.706,0,0,0-2.51,2.02l-.1-1.776h-.612V0h.714V-5.592c.041-1.735.98-2.837,2.347-2.837a2.971,2.971,0,0,1,.633.082l.143-.714A2.576,2.576,0,0,0,65.939-9.122Zm6.663,0a3.234,3.234,0,0,0-3.1,2.184l-.061-1.939h-.633V0h.714V-5.449C69.7-7.388,70.888-8.51,72.48-8.51c1.612,0,2.776,1.041,2.776,3.388V0h.694V-5.245C75.949-8.306,74.153-9.122,72.6-9.122Zm7.3-2.041a.645.645,0,0,0,.653-.653.645.645,0,0,0-.653-.653.645.645,0,0,0-.653.653A.645.645,0,0,0,79.9-11.163ZM79.531,0h.714V-8.878h-.714ZM-121.883,12.837a.645.645,0,0,0,.653-.653.645.645,0,0,0-.653-.653.645.645,0,0,0-.653.653A.645.645,0,0,0-121.883,12.837Zm.367,12.735V15.122h-.714V25.551c0,1.531-.653,2.265-2.306,2.1v.592C-122.964,28.449-121.515,27.939-121.515,25.571Zm11.622-6.2V19a4.025,4.025,0,0,0-4.082-4.122,4.338,4.338,0,0,0-4.327,4.531,4.453,4.453,0,0,0,4.531,4.755,4.677,4.677,0,0,0,3.469-1.449l-.531-.429a3.752,3.752,0,0,1-2.939,1.265c-2.388,0-3.776-1.816-3.776-4.122v-.061Zm-4.082-3.857a3.336,3.336,0,0,1,3.388,3.306h-6.918A3.544,3.544,0,0,1-113.974,15.51Zm6.316,7.225a3.642,3.642,0,0,0,3.02,1.429c1.8,0,3.082-.939,3.082-2.51,0-3.367-4.939-1.694-4.959-4.388-.02-1.082.8-1.755,2.061-1.755a2.9,2.9,0,0,1,2.184.837l.449-.469a3.7,3.7,0,0,0-2.633-1c-1.673,0-2.816.959-2.8,2.429.041,3.286,4.959,1.612,4.959,4.388,0,1.143-.9,1.857-2.347,1.857a2.907,2.907,0,0,1-2.469-1.265Zm12.847-7.612h-2.306V12.469h-.714v2.653h-1.286v.592h1.286V24h.714V15.714h2.306Zm13.633-.735a3.437,3.437,0,0,0-2.878,1.347l-.306-1.1h-2.122V24h2.429V18.531a2.014,2.014,0,0,1,2.061-2.082c1.286,0,1.857.9,1.857,2.347V24h2.408V18.163C-77.73,15.306-79.587,14.388-81.179,14.388Zm13.622.245-.306,1.2a3.836,3.836,0,0,0-3.143-1.449c-2.429,0-4.347,1.837-4.347,4.918s1.918,4.9,4.347,4.9A3.854,3.854,0,0,0-67.883,22.8l.306,1.2h2V14.633Zm-2.816,7.531a2.581,2.581,0,0,1-2.51-2.857,2.6,2.6,0,0,1,2.51-2.878,2.624,2.624,0,0,1,2.592,2.878A2.606,2.606,0,0,1-70.372,22.163Zm9.745-9.082a1.433,1.433,0,0,0,1.449-1.408,1.433,1.433,0,0,0-1.449-1.408,1.429,1.429,0,0,0-1.429,1.408A1.429,1.429,0,0,0-60.628,13.082Zm1.2,11.449v-9.9h-2.408v9.776c0,1.51-.633,2.224-2.286,1.959v1.857C-61.709,28.673-59.423,27.98-59.423,24.531Zm8.582-10.143a3.437,3.437,0,0,0-2.878,1.347l-.306-1.1h-2.122V24h2.429V18.531a2.014,2.014,0,0,1,2.061-2.082c1.286,0,1.857.9,1.857,2.347V24h2.408V18.163C-47.393,15.306-49.25,14.388-50.842,14.388Zm7.745-1.306a1.433,1.433,0,0,0,1.449-1.408A1.433,1.433,0,0,0-43.1,10.265a1.429,1.429,0,0,0-1.429,1.408A1.429,1.429,0,0,0-43.1,13.082ZM-44.281,24h2.429V14.633h-2.429Zm9.4-11.061a1.338,1.338,0,0,0,1.347-1.306,1.341,1.341,0,0,0-1.347-1.327,1.341,1.341,0,0,0-1.347,1.327A1.338,1.338,0,0,0-34.883,12.939Zm-1.041,9.041,4.857-5.653V14.633H-38.74v2.041h4.531l-4.837,5.673V24h8.327V21.98Zm6.908.776a5.286,5.286,0,0,0,4.082,1.531c2.388,0,3.776-1.2,3.776-2.9,0-3.408-4.653-2.184-4.653-4.061,0-.633.469-1.041,1.388-1.041a2.969,2.969,0,0,1,1.959.8l1.224-1.51a5.056,5.056,0,0,0-3.367-1.184c-2.347,0-3.714,1.224-3.714,3,0,3.49,4.571,2.265,4.571,4.02,0,.612-.531,1.02-1.551,1.02a2.951,2.951,0,0,1-2.388-1.2Zm13.031-.776,4.857-5.653V14.633H-18.8v2.041h4.531l-4.837,5.673V24h8.327V21.98Zm14.908-7.347-.306,1.2a3.836,3.836,0,0,0-3.143-1.449c-2.429,0-4.347,1.837-4.347,4.918s1.918,4.9,4.347,4.9A3.854,3.854,0,0,0-1.4,22.8L-1.1,24h2V14.633Zm-2.816,7.531A2.581,2.581,0,0,1-6.4,19.306a2.6,2.6,0,0,1,2.51-2.878A2.624,2.624,0,0,1-1.3,19.306,2.606,2.606,0,0,1-3.893,22.163Zm13.9,1.2,5.878-7.694v-.551H9.372v.612h5.653L9.066,23.449V24h7.1v-.633Zm16.969-4V19a4.025,4.025,0,0,0-4.082-4.122,4.338,4.338,0,0,0-4.327,4.531A4.453,4.453,0,0,0,23.1,24.163a4.677,4.677,0,0,0,3.469-1.449l-.531-.429A3.752,3.752,0,0,1,23.1,23.551c-2.388,0-3.776-1.816-3.776-4.122v-.061ZM22.893,15.51a3.336,3.336,0,0,1,3.388,3.306H19.362A3.544,3.544,0,0,1,22.893,15.51Zm24.082-.388-2.939,7.918-2.49-7.918h-.592l-2.51,7.959-2.918-7.959H34.77L38.179,24h.571l2.49-8.041L43.75,24h.571l3.388-8.878Zm2.52,7.612a3.642,3.642,0,0,0,3.02,1.429c1.8,0,3.082-.939,3.082-2.51,0-3.367-4.939-1.694-4.959-4.388-.02-1.082.8-1.755,2.061-1.755a2.9,2.9,0,0,1,2.184.837l.449-.469a3.7,3.7,0,0,0-2.633-1c-1.673,0-2.816.959-2.8,2.429.041,3.286,4.959,1.612,4.959,4.388,0,1.143-.9,1.857-2.347,1.857a2.907,2.907,0,0,1-2.469-1.265Zm9.52.633,5.878-7.694v-.551h-6.51v.612h5.653l-5.959,7.714V24h7.1v-.633Zm15.541-8.245L71.128,22.98l-3.347-7.857h-.776l3.776,8.653-1.98,4.51h.755l5.755-13.163Zm2.418,7.612a3.642,3.642,0,0,0,3.02,1.429c1.8,0,3.082-.939,3.082-2.51,0-3.367-4.939-1.694-4.959-4.388-.02-1.082.8-1.755,2.061-1.755a2.9,2.9,0,0,1,2.184.837l.449-.469a3.7,3.7,0,0,0-2.633-1c-1.673,0-2.816.959-2.8,2.429.041,3.286,4.959,1.612,4.959,4.388,0,1.143-.9,1.857-2.347,1.857a2.907,2.907,0,0,1-2.469-1.265Zm12.847-7.612H87.515V12.469H86.8v2.653H85.515v.592H86.8V24h.714V15.714h2.306ZM99.546,24l-5.367-4.878,4.8-4h-.959l-4.735,3.939V10.122h-.714V24h.714V19.2L98.546,24Zm2.786-11.163a.653.653,0,1,0-.653-.653A.645.645,0,0,0,102.332,12.837ZM101.964,24h.714V15.122h-.714Zm8.418.163a4.564,4.564,0,0,0,2.857-.98l-.449-.51a3.517,3.517,0,0,1-2.408.878,3.722,3.722,0,0,1-3.755-4.041,3.716,3.716,0,0,1,3.755-4.02,3.517,3.517,0,0,1,2.408.878l.449-.51a4.564,4.564,0,0,0-2.857-.98,4.411,4.411,0,0,0-4.49,4.633A4.405,4.405,0,0,0,110.383,24.163Zm9.357-9.286a3.17,3.17,0,0,0-3.082,2.184V10.122h-.714V24h.714V18.9c.061-2.143,1.306-3.408,2.98-3.408,1.612,0,2.755,1.041,2.755,3.388V24h.714V18.755C123.107,15.694,121.291,14.878,119.74,14.878ZM-119.337,48h.714V34.122h-.714Zm11.786-8.878-.122,2.2a3.982,3.982,0,0,0-3.714-2.449,4.336,4.336,0,0,0-4.245,4.653,4.322,4.322,0,0,0,4.265,4.633,3.954,3.954,0,0,0,3.694-2.449l.122,2.286h.592V39.122Zm-3.694,8.429a3.757,3.757,0,0,1-3.653-4.02,3.772,3.772,0,0,1,3.633-4.041,3.767,3.767,0,0,1,3.673,4.041A3.757,3.757,0,0,1-111.245,47.551Zm11.5-8.429h-2.306V36.469h-.714v2.653h-1.286v.592h1.286V48h.714V39.714h2.306Zm9.929,0-.122,2.2a3.982,3.982,0,0,0-3.714-2.449A4.336,4.336,0,0,0-97.9,43.531a4.322,4.322,0,0,0,4.265,4.633,3.954,3.954,0,0,0,3.694-2.449L-89.816,48h.592V39.122Zm-3.694,8.429a3.757,3.757,0,0,1-3.653-4.02,3.772,3.772,0,0,1,3.633-4.041,3.767,3.767,0,0,1,3.673,4.041A3.757,3.757,0,0,1-93.51,47.551ZM-82.6,38.878a2.706,2.706,0,0,0-2.51,2.02l-.1-1.776h-.612V48h.714V42.408c.041-1.735.98-2.837,2.347-2.837a2.971,2.971,0,0,1,.633.082l.143-.714A2.576,2.576,0,0,0-82.6,38.878Zm6.663,0a3.234,3.234,0,0,0-3.1,2.184l-.061-1.939h-.633V48h.714V42.551c.184-1.939,1.367-3.061,2.959-3.061,1.612,0,2.776,1.041,2.776,3.388V48h.694V42.755C-72.592,39.694-74.388,38.878-75.939,38.878Zm7.3-2.041a.645.645,0,0,0,.653-.653.645.645,0,0,0-.653-.653.645.645,0,0,0-.653.653A.645.645,0,0,0-68.643,36.837ZM-69.01,48h.714V39.122h-.714Zm14.02-9.122a3.234,3.234,0,0,0-3.1,2.184l-.061-1.939h-.633V48h.714V42.551c.184-1.939,1.367-3.061,2.959-3.061,1.612,0,2.776,1.041,2.776,3.388V48h.694V42.755C-51.643,39.694-53.439,38.878-54.99,38.878Zm14.276.245-.122,2.2a3.982,3.982,0,0,0-3.714-2.449A4.336,4.336,0,0,0-48.8,43.531a4.322,4.322,0,0,0,4.265,4.633,3.954,3.954,0,0,0,3.694-2.449L-40.714,48h.592V39.122Zm-3.694,8.429a3.757,3.757,0,0,1-3.653-4.02,3.772,3.772,0,0,1,3.633-4.041,3.767,3.767,0,0,1,3.673,4.041A3.757,3.757,0,0,1-44.408,47.551Zm17.918-8.673a4,4,0,0,0-3.735,2.49l-.061-2.245h-.633l.02,13.163h.694V45.714a3.954,3.954,0,0,0,3.694,2.449,4.307,4.307,0,0,0,4.245-4.633C-22.265,40.775-24.122,38.878-26.49,38.878Zm-.143,8.673a3.757,3.757,0,0,1-3.653-4.02,3.767,3.767,0,0,1,3.673-4.041,3.772,3.772,0,0,1,3.633,4.041A3.757,3.757,0,0,1-26.633,47.551Zm11.439.612a4.541,4.541,0,0,0,4.633-4.633,4.558,4.558,0,0,0-4.633-4.653,4.558,4.558,0,0,0-4.633,4.653A4.541,4.541,0,0,0-15.194,48.163Zm0-.612a3.871,3.871,0,0,1-3.878-4.02,3.871,3.871,0,0,1,3.878-4.02,3.871,3.871,0,0,1,3.878,4.02A3.871,3.871,0,0,1-15.194,47.551ZM-7.571,48h.714V34.122h-.714Zm3.5-1.265a3.642,3.642,0,0,0,3.02,1.429c1.8,0,3.082-.939,3.082-2.51,0-3.367-4.939-1.694-4.959-4.388-.02-1.082.8-1.755,2.061-1.755a2.9,2.9,0,0,1,2.184.837l.449-.469a3.7,3.7,0,0,0-2.633-1c-1.673,0-2.816.959-2.8,2.429.041,3.286,4.959,1.612,4.959,4.388,0,1.143-.9,1.857-2.347,1.857A2.907,2.907,0,0,1-3.52,46.286ZM11.939,48,6.571,43.122l4.8-4h-.959L5.673,43.061V34.122H4.959V48h.714V43.2L10.939,48Zm2.786-11.163a.653.653,0,1,0-.653-.653A.645.645,0,0,0,14.724,36.837ZM14.357,48h.714V39.122h-.714Zm13.765-9.122a2.9,2.9,0,0,0-2.959,2.347,2.951,2.951,0,0,0-2.918-2.347A2.86,2.86,0,0,0,19.49,41.02l-.082-1.9h-.633V48h.714V42.653c.163-1.918,1.184-3.163,2.612-3.163,1.592,0,2.531,1.286,2.531,3.122V48h.714V42.816c.143-2.143,1.122-3.327,2.633-3.327,1.755,0,2.551,1.286,2.551,3.245V48h.694V42.735C31.225,39.714,29.592,38.878,28.122,38.878Zm23.49.245-2.939,7.918-2.49-7.918h-.592l-2.51,7.959-2.918-7.959h-.755L42.816,48h.571l2.49-8.041L48.388,48h.571l3.388-8.878Zm10.112,0L58.3,46.98l-3.347-7.857h-.776l3.776,8.653-1.98,4.51h.755L62.48,39.122Zm7.541-.245a4,4,0,0,0-3.714,2.408V34.122h-.714V48h.592l.1-2.286a3.962,3.962,0,0,0,3.714,2.449,4.307,4.307,0,0,0,4.245-4.633C73.49,40.775,71.633,38.878,69.265,38.878ZM69.1,47.551a3.754,3.754,0,0,1-3.633-4.02,3.662,3.662,0,1,1,7.286,0A3.745,3.745,0,0,1,69.1,47.551Zm10.52-8.673a2.706,2.706,0,0,0-2.51,2.02l-.1-1.776H76.4V48h.714V42.408c.041-1.735.98-2.837,2.347-2.837a2.971,2.971,0,0,1,.633.082l.143-.714A2.576,2.576,0,0,0,79.622,38.878Zm3.357,8.49,5.878-7.694v-.551h-6.51v.612H88l-5.959,7.714V48h7.1v-.633Zm16.969-4V43a4.025,4.025,0,0,0-4.082-4.122,4.338,4.338,0,0,0-4.327,4.531,4.453,4.453,0,0,0,4.531,4.755,4.677,4.677,0,0,0,3.469-1.449l-.531-.429a3.752,3.752,0,0,1-2.939,1.265c-2.388,0-3.776-1.816-3.776-4.122v-.061ZM95.867,39.51a3.336,3.336,0,0,1,3.388,3.306H92.337A3.544,3.544,0,0,1,95.867,39.51ZM106,36.98a.653.653,0,1,0-.673-.653A.658.658,0,0,0,106,36.98Zm-2.633,10.388,5.878-7.694v-.551h-6.51v.612h5.653l-5.959,7.714V48h7.1v-.633Zm12.561.878c1.612,0,3.551-.837,3.551-3.837V39.122h-.694v5.286c0,1.98-1.02,3.224-2.857,3.224-1.857,0-2.878-1.245-2.878-3.224V39.122h-.714v5.286C112.337,47.408,114.276,48.245,115.929,48.245Z" transform="translate(805.368 828.422)" fill="#2e3c4b"/>
      </g>
      <g id="jastarnia">
        <path id="Path_2024" data-name="Path 2024" d="M804.505,769.277c-4.039,0-8.892-.152-10.078-.843-.477-.279-.709-3.124-.691-8.456a64.857,64.857,0,0,1,.416-8.8l.381.141c-.458,1.231-.626,16.052.108,16.772,2.43,1.416,22.483.58,23.785.185.346-1.077.534-15.157.214-16.764l.4-.079c.193.969.294,16.527-.319,17.141-.357.357-7.707.624-11.378.681C806.5,769.268,805.527,769.277,804.505,769.277Z" fill="#2e3c4b"/>
        <path id="Path_2025" data-name="Path 2025" d="M812.555,749.059l-.406-.005c0-.334.407-33.505-.007-48.834s-.424-37.717-.424-37.941h.406c0,.224.009,22.6.424,37.93S812.559,748.725,812.555,749.059Z" fill="#2e3c4b"/>
        <path id="Path_2026" data-name="Path 2026" d="M799.563,749.368l-.406-.015c0-.118.4-12.015-.01-27.755-.4-15.047-1.042-57.306-.608-59.475l.4.08c-.407,2.036.172,42.484.617,59.385C799.967,737.341,799.567,749.249,799.563,749.368Z" fill="#2e3c4b"/>
        <path id="Path_2027" data-name="Path 2027" d="M798.537,662.2c-.11-.637-.146-2.882-.183-5.258-.031-1.909-.062-3.883-.134-5.139a65.9,65.9,0,0,1,.074-7.632l.385.126a69.465,69.465,0,0,0-.054,7.483c.072,1.264.1,3.243.134,5.156.038,2.36.074,4.589.178,5.2Z" fill="#2e3c4b"/>
        <path id="Path_2028" data-name="Path 2028" d="M812.121,662.177l-.4-.028c.483-6.927,1.147-17.444,1-18.027L813.1,644C813.33,644.707,812.245,660.391,812.121,662.177Z" fill="#2e3c4b"/>
        <path id="Path_2029" data-name="Path 2029" d="M812.135,664.665l-.148-.378c1.42-.557,3.75-1.646,3.957-2.2a53.055,53.055,0,0,0,1-8.927c-1.512-.19-21.2-.013-22.308.207-.336.694.173,7.758.346,8.431a21.91,21.91,0,0,0,3.74,1.982l-.168.37c-1.75-.8-3.859-1.837-3.965-2.251-.02-.078-.916-8.437-.175-8.881.68-.408,22.6-.28,22.735-.226.772.3-.8,9.352-.828,9.437C815.994,663.113,812.777,664.413,812.135,664.665Z" fill="#2e3c4b"/>
        <path id="Path_2030" data-name="Path 2030" d="M804.832,657.963c-3.1,0-10.023-.757-10.334-.791l.044-.4c.081.009,8.067.884,10.794.781.081-.007,8.936-.678,11.575-.782l.016.4c-2.632.1-11.479.775-11.568.782Q805.119,657.963,804.832,657.963Z" fill="#2e3c4b"/>
        <path id="Path_2031" data-name="Path 2031" d="M804.362,662.586a42.839,42.839,0,0,1-5.663-.224c-2.519-.493-4.187-.839-4.187-.839l.082-.4s1.668.346,4.182.838c1.231.241,5.9.281,13.141.112,2.43-.057,4.209-.116,4.21-.116l.013.406s-1.781.059-4.214.116S806.741,662.586,804.362,662.586Z" fill="#2e3c4b"/>
        <path id="Path_2032" data-name="Path 2032" d="M802.4,644.5c-2.371,0-5.089-.1-5.7-.465-.111-.066-.227-.214-.144-.536.436-1.684,7.009-9.028,8.944-9.087h0c.125.008.345-.008,4.478,4.308,1.958,2.046,4.218,4.485,4.55,5.005a.287.287,0,0,1,.048.286c-.1.2-.326.26-5.091.325-1.487.02-2.891.039-3.6.085C805.289,644.463,803.916,644.5,802.4,644.5Zm3.069-9.679c-1.336.125-5.465,4.338-7.5,7.076-1.109,1.495-1.043,1.808-1.039,1.821.751.432,6.724.44,8.921.3.722-.046,2.131-.065,3.624-.086,1.676-.023,3.9-.053,4.6-.136C813.059,642.449,806.193,635.277,805.472,634.824Z" fill="#2e3c4b"/>
        <path id="Path_2033" data-name="Path 2033" d="M806.186,716.878a2.794,2.794,0,0,1-2.409-1.327c-.34-1.083,1.658-1.872,1.887-1.959l.072-.013a1.114,1.114,0,0,1,.851.431,3.066,3.066,0,0,1,.553,2.247.784.784,0,0,1-.818.616C806.278,716.876,806.232,716.878,806.186,716.878Zm-.415-2.892c-.515.2-1.794.848-1.607,1.444a2.469,2.469,0,0,0,2.129,1.038c.27-.019.42-.112.446-.275a2.658,2.658,0,0,0-.461-1.92A.728.728,0,0,0,805.771,713.986Z" fill="#2e3c4b"/>
        <path id="Path_2034" data-name="Path 2034" d="M802.48,769.062l-.406-.011c.01-.367.24-9.018.476-9.928.073-.283.407-.483,1.052-.633,1.494-.345,5.11-.362,5.588.2s.874,8.021.985,10.3l-.4.02c-.178-3.644-.578-9.6-.891-10.055-.3-.314-3.657-.456-5.292-.036-.6.153-.643.306-.644.313C802.763,759.917,802.561,765.962,802.48,769.062Z" fill="#2e3c4b"/>
        <path id="Path_2035" data-name="Path 2035" d="M800.924,772c-5.233,0-7.967-.139-8.146-.416-.446-.687,1.1-2.815,1.59-3.451l.323.246c-.888,1.162-1.713,2.592-1.588,2.953,1.357.486,26.411.178,27.481-.345a.122.122,0,0,0,.074-.109c.022-.465-1.274-1.617-2.2-2.286l.237-.329c.4.291,2.41,1.783,2.369,2.634a.526.526,0,0,1-.277.442c-.757.441-13.619.612-14.166.619Q803.4,772,800.924,772Z" fill="#2e3c4b"/>
        <path id="Path_2036" data-name="Path 2036" d="M800.887,653.083c-.118-.645.653-7.834.741-8.652l.4.044c-.344,3.187-.828,8.091-.746,8.535Z" fill="#2e3c4b"/>
        <path id="Path_2037" data-name="Path 2037" d="M806.085,652.959l-.4-.1c.114-.472.049-5.424-.023-8.637l.406-.009C806.091,645.041,806.248,652.282,806.085,652.959Z" fill="#2e3c4b"/>
        <path id="Path_2038" data-name="Path 2038" d="M810.264,652.962l-.392-.1c.1-.417-.442-5.5-.812-8.6l.4-.048C809.624,645.564,810.421,652.359,810.264,652.962Z" fill="#2e3c4b"/>
        <path id="Path_2039" data-name="Path 2039" d="M811.313,751.935c-8.1,0-18.621-.243-19.19-.6a1.132,1.132,0,0,1-.542-.718,1.4,1.4,0,0,1,.185-.965c.332-.561,3.069-.6,9.061-.486,1.318.026,2.456.048,3.109.033s2.066-.076,3.841-.153c7.677-.334,11.653-.462,12.072-.232a2.873,2.873,0,0,1,1.09,1.931.971.971,0,0,1-.283.884C820.4,751.842,816.314,751.935,811.313,751.935Zm-19.2-2.071a1.01,1.01,0,0,0-.133.667.748.748,0,0,0,.36.46c1.018.484,27.007.773,28.083.309a.648.648,0,0,0,.114-.518,2.481,2.481,0,0,0-.881-1.614c-.525-.211-7.9.11-11.859.282-1.777.078-3.18.139-3.85.154s-1.8-.008-3.126-.033c-2.9-.056-8.294-.163-8.706.289l0,.006Z" fill="#2e3c4b"/>
        <rect id="Rectangle_204" data-name="Rectangle 204" width="4.175" height="0.406" transform="translate(819.602 642.734) rotate(-24.584)" fill="#2e3c4b"/>
        <path id="Path_2040" data-name="Path 2040" d="M820.92,646.789l-.021-.405,4.955-.257.021.405Z" fill="#2e3c4b"/>
        <rect id="Rectangle_205" data-name="Rectangle 205" width="0.406" height="3.338" transform="translate(820.305 649.858) rotate(-63.68)" fill="#2e3c4b"/>
        <rect id="Rectangle_206" data-name="Rectangle 206" width="0.406" height="4.338" transform="translate(786.538 641.049) rotate(-69.144)" fill="#2e3c4b"/>
        <rect id="Rectangle_207" data-name="Rectangle 207" width="0.406" height="4.32" transform="matrix(0.06, -0.998, 0.998, 0.06, 784.86, 646.275)" fill="#2e3c4b"/>
        <rect id="Rectangle_208" data-name="Rectangle 208" width="3.686" height="0.406" transform="translate(785.753 652.065) rotate(-24.764)" fill="#2e3c4b"/>
      </g>
      <path id="Path_2041" data-name="Path 2041" d="M807.674,706.507c-3.885,0-8.383-.053-8.451-.054l.005-.4c.1,0,10.224.124,13.19,0l.016.4C811.436,706.493,809.633,706.507,807.674,706.507Z" fill="#2e3c4b"/>
      <path id="Path_2042" data-name="Path 2042" d="M808.6,729.259c-3.75,0-8.6-.088-8.909-.094l.007-.4c.114,0,11.4.207,13.01,0l.051.4C812.2,729.234,810.549,729.259,808.6,729.259Z" fill="#2e3c4b"/>
      <path id="Path_2043" data-name="Path 2043" d="M807.888,683.585c-3.834,0-8.694-.088-9-.094l.007-.4c.114,0,11.408.209,13.311,0l.043.4C811.589,683.562,809.877,683.585,807.888,683.585Z" fill="#2e3c4b"/>
      <path id="Path_2044" data-name="Path 2044" d="M843.334,772h-.4V636.638l-2.827,2.962-.293-.271,3.323-3.709.1.119.094-.1v.206l3.162,3.63-.3.264-2.86-3.284Z" fill="#2e3c4b"/>
      <path id="Path_2045" data-name="Path 2045" d="M843.132,772.77l-2.629-4.534.346-.2,2.326,4.011,3.011-4.03.32.24Z" fill="#2e3c4b"/>
      <g id="Group_295" data-name="Group 295">
        <path id="Path_2046" data-name="Path 2046" d="M851.255,703.033l-.11-9.891a49.6,49.6,0,0,0-.23-5.057,2.085,2.085,0,0,0-.236-.857l-2.113,5.015-.368-.156,2.327-5.523.2.143a1.778,1.778,0,0,1,.584,1.333,49.628,49.628,0,0,1,.233,5.1l.11,9.892Z" fill="#2e3c4b"/>
        <path id="Path_2047" data-name="Path 2047" d="M857.925,703.963a39.822,39.822,0,0,1,1.175-10.052c.083-.334.17-.668.258-1a16,16,0,0,0,.766-5.075.524.524,0,0,0-.088-.322.491.491,0,0,0-.314-.074l-5.806-.212.014-.4,5.807.212a.822.822,0,0,1,.58.191.847.847,0,0,1,.206.58,16.318,16.318,0,0,1-.778,5.2c-.087.333-.174.665-.257,1a39.5,39.5,0,0,0-1.163,9.952Z" fill="#2e3c4b"/>
        <path id="Path_2048" data-name="Path 2048" d="M856.015,695.857l-.02-.4a52.339,52.339,0,0,0,5.234-.514l.058.4C859.549,695.6,857.775,695.773,856.015,695.857Z" fill="#2e3c4b"/>
        <path id="Path_2049" data-name="Path 2049" d="M866.41,703.514l-1.12-6.968.4-.063.848,5.273a16.237,16.237,0,0,1,1.8-4.423.647.647,0,0,1,.313-.33c.281-.109.569.091.735.508a24.381,24.381,0,0,1,1.193,3.966,13.025,13.025,0,0,0,.974-2.94l.024-.117a3.129,3.129,0,0,1,.449-1.264.722.722,0,0,1,.423-.313c.282-.061.551.1.805.472A9.692,9.692,0,0,1,874.892,702l-.4.031a9.305,9.305,0,0,0-1.57-4.492c-.149-.218-.29-.33-.39-.306a.361.361,0,0,0-.184.158,2.865,2.865,0,0,0-.381,1.107l-.024.119a13.5,13.5,0,0,1-1.27,3.568l-.269.511-.1-.568a24.065,24.065,0,0,0-1.287-4.469c-.079-.2-.181-.295-.218-.283s-.082.1-.105.146c-.9,1.684-2.015,3.783-1.884,5.948Z" fill="#2e3c4b"/>
      </g>
    </g>
  </g>
</svg>
