<?xml version="1.0" encoding="utf-8"?>
<!-- Generator: Adobe Illustrator 24.0.3, SVG Export Plug-In . SVG Version: 6.00 Build 0)  -->
<svg version="1.1" id="Layer_1" xmlns="http://www.w3.org/2000/svg" xmlns:xlink="http://www.w3.org/1999/xlink" x="0px" y="0px"
	 viewBox="0 0 300.1 321.9" style="enable-background:new 0 0 300.1 321.9;" xml:space="preserve">
<style type="text/css">
	.st0{fill:#E5A34C;}
	.st1{enable-background:new    ;}
	.st2{fill:#2E3C4B;}
	.st3{fill:#AE4426;}
	.st4{fill:#F2EDEB;}
</style>
<g id="Group_388" transform="translate(-577.475 -524.898)">
	<g id="CIEKAWOSTKA" transform="translate(577.475 524.898)">
		<path id="Path_1283" class="st0" d="M12.2,15C30.6-8,272.7-1.8,286.5,15s19.9,268.3,4.8,289s-265.2,23.7-279.1,7.5
			S-6.2,38,12.2,15z"/>
		<g id="CIEKAWOSTKA-2" transform="translate(86.033 23.293)">
			<g class="st1">
				<path class="st2" d="M4.7,14.6c-0.8-0.3-1.5-0.8-2-1.4c-0.6-0.6-1-1.3-1.4-2c-0.3-0.8-0.5-1.6-0.5-2.5S0.9,7,1.2,6.2
					C1.6,5.4,2,4.8,2.6,4.2c0.6-0.6,1.3-1,2-1.4c0.8-0.3,1.6-0.5,2.5-0.5c1,0,1.8,0.2,2.7,0.6c0.8,0.4,1.6,1,2.3,1.8l-1.3,1.1
					C9.8,4.6,8.5,4,7.1,4C6.5,4,5.9,4.2,5.3,4.4C4.8,4.6,4.3,5,3.8,5.4s-0.8,0.9-1,1.5C2.6,7.5,2.5,8.1,2.5,8.7
					c0,0.6,0.1,1.2,0.4,1.8c0.2,0.6,0.6,1.1,1,1.5c0.4,0.4,0.9,0.8,1.5,1c0.6,0.2,1.2,0.4,1.8,0.4c1.4,0,2.6-0.6,3.7-1.8l1.3,1.1
					c-0.7,0.8-1.4,1.4-2.3,1.8s-1.7,0.6-2.7,0.6C6.2,15.1,5.4,14.9,4.7,14.6z"/>
				<path class="st2" d="M14.3,15V2.4h1.6V15H14.3z"/>
				<path class="st2" d="M18.2,15V2.4h6.9v1.7h-5.3v3.8h3.5v1.6h-3.5v3.8h5.3V15H18.2z"/>
				<path class="st2" d="M33.3,15l-4.1-4.7V15h-1.7V2.4h1.7v4.8l4-4.8h2.2l-5.3,6.4l5.5,6.2H33.3z"/>
				<path class="st2" d="M45.5,15l-1.6-4.4h-4L38.4,15h-1.8L41,2.4h1.9L47.3,15H45.5z M41.9,4.8L40.5,9h2.9L41.9,4.8z"/>
				<path class="st2" d="M58.5,15h-1.7l-2-5.4L53,15h-1.7L46.7,2.3h1.8l3.6,9.9l1.8-5.2l-1.7-4.7h1.8L55.7,7l1.9,5.3l3.5-9.9H63
					L58.5,15z"/>
				<path class="st2" d="M67.8,14.6c-0.8-0.3-1.4-0.8-2-1.4c-0.6-0.6-1-1.3-1.4-2c-0.3-0.8-0.5-1.6-0.5-2.5s0.2-1.7,0.5-2.4
					c0.3-0.8,0.8-1.4,1.4-2c0.6-0.6,1.3-1,2-1.4c0.8-0.3,1.6-0.5,2.4-0.5s1.7,0.2,2.5,0.5c0.8,0.3,1.5,0.8,2,1.4
					c0.6,0.6,1,1.3,1.4,2c0.3,0.8,0.5,1.6,0.5,2.5s-0.2,1.7-0.5,2.5c-0.3,0.8-0.8,1.5-1.4,2c-0.6,0.6-1.3,1-2,1.4
					c-0.8,0.3-1.6,0.5-2.5,0.5S68.6,14.9,67.8,14.6z M68.5,4.5c-0.6,0.2-1.1,0.6-1.5,1S66.2,6.4,66,7c-0.2,0.6-0.4,1.2-0.4,1.8
					c0,0.6,0.1,1.2,0.4,1.8s0.6,1.1,1,1.5c0.4,0.4,0.9,0.8,1.5,1s1.2,0.4,1.8,0.4c0.6,0,1.2-0.1,1.8-0.4s1.1-0.6,1.5-1
					c0.4-0.4,0.7-0.9,1-1.5c0.2-0.6,0.4-1.2,0.4-1.8c0-0.6-0.1-1.2-0.4-1.8c-0.2-0.6-0.6-1.1-1-1.5s-0.9-0.8-1.5-1s-1.2-0.4-1.8-0.4
					C69.6,4.1,69,4.2,68.5,4.5z"/>
				<path class="st2" d="M84.7,5c-0.2-0.3-0.5-0.6-0.8-0.8c-0.3-0.2-0.8-0.2-1.3-0.2c-0.9,0-1.5,0.2-1.8,0.6
					c-0.3,0.3-0.5,0.8-0.5,1.4c0,0.4,0.1,0.6,0.2,0.9c0.1,0.2,0.3,0.4,0.5,0.5c0.3,0.2,0.8,0.4,1.5,0.4c0.7,0.1,1.3,0.2,1.8,0.3
					s0.9,0.3,1.3,0.5c0.9,0.6,1.4,1.5,1.4,2.7c0,0.5-0.1,0.9-0.3,1.4s-0.5,0.8-0.8,1.2c-0.4,0.4-0.9,0.7-1.4,0.9
					c-0.6,0.2-1.1,0.3-1.7,0.3c-1.3,0-2.4-0.4-3.2-1.1c-0.7-0.7-1.1-1.6-1.2-2.7l0,0h1.7c0.1,0.7,0.3,1.2,0.7,1.5
					c0.5,0.5,1.2,0.7,2,0.7c0.8,0,1.4-0.2,1.9-0.6c0.5-0.4,0.7-0.8,0.7-1.4c0-0.3,0-0.5-0.1-0.7s-0.2-0.4-0.4-0.5
					c-0.4-0.3-1.2-0.5-2.4-0.6c-1.2-0.1-2.1-0.4-2.7-1c-0.6-0.6-0.9-1.4-0.9-2.5c0-1.1,0.3-2,1-2.6c0.7-0.7,1.7-1.1,3-1.1
					c1.3,0,2.3,0.4,3.1,1.2c0.6,0.7,1,1.6,1.2,2.7h-1.7C85.1,5.8,84.9,5.4,84.7,5z"/>
				<path class="st2" d="M92.7,4v11H91V4h-3.1V2.4h7.8V4H92.7z"/>
				<path class="st2" d="M103.7,15l-4.1-4.7V15h-1.7V2.4h1.7v4.8l4-4.8h2.2l-5.3,6.4l5.5,6.2H103.7z"/>
				<path class="st2" d="M115.8,15l-1.6-4.4h-4l-1.6,4.4H107l4.4-12.6h1.9l4.4,12.6H115.8z M112.3,4.8L110.9,9h2.9L112.3,4.8z"/>
			</g>
		</g>
		<rect id="Rectangle_45" x="139.4" y="44.9" class="st3" width="10.8" height="2.2"/>
		<g id="Group_181" transform="translate(67.187 63.238)">
			<path id="Path_1327" class="st4" d="M10.7,40.7c4.8-13,16-39.9,37.8-40.4s81.6-2.6,96.7,15.6s17.9,32.4,15.6,61.1
				s-9.9,45.4-19,60.6s-47.7,27-82.5,25.7s-60-21.9-59.4-50.1s12.8-32,10.7-44.2S6,53.8,10.7,40.7z"/>
		</g>
		<g class="st1">
			<path class="st2" d="M60.7,242.3c0,2.1-1.7,3-3.4,3h-2v5h-0.6v-11.1h2.7C58.9,239.2,60.7,240.2,60.7,242.3z M60,242.3
				c0-1.6-1.2-2.5-2.9-2.5h-1.8v5h1.8C58.8,244.8,60,243.9,60,242.3z"/>
			<path class="st2" d="M66.5,242.6l-0.1,0.6c-0.2,0-0.3-0.1-0.5-0.1c-1.2,0-2,0.9-2,2.4v4.8h-0.6v-7.5h0.5l0.1,1.5
				c0.3-0.9,1-1.7,2.1-1.7C66.2,242.6,66.3,242.6,66.5,242.6z"/>
			<path class="st2" d="M74,249.8v0.5h-6v-0.5l5.1-6.6h-4.8v-0.5h5.5v0.5l-5,6.5H74z"/>
			<path class="st2" d="M82.6,242.8L77.7,254h-0.6l1.7-3.8l-3.2-7.4h0.7l2.8,6.7l2.9-6.7H82.6z"/>
			<path class="st2" d="M89.6,238.5h0.6v11.8h-0.6V238.5z"/>
			<path class="st2" d="M100.2,242.8v7.5h-0.5l-0.1-1.9c-0.6,1.2-1.7,2.1-3.1,2.1c-2,0-3.6-1.6-3.6-3.9c0-2.3,1.6-4,3.6-4
				c1.5,0,2.6,0.8,3.2,2.1l0.1-1.9H100.2z M99.6,246.5c0-2-1.3-3.4-3.1-3.4c-1.8,0-3.1,1.5-3.1,3.4c0,1.9,1.3,3.4,3.1,3.4
				S99.6,248.5,99.6,246.5z"/>
			<path class="st2" d="M106.3,243.3h-2v7h-0.6v-7h-1.1v-0.5h1.1v-2.3h0.6v2.3h2V243.3z"/>
			<path class="st2" d="M115.2,242.8v7.5h-0.5l-0.1-1.9c-0.6,1.2-1.7,2.1-3.1,2.1c-2,0-3.6-1.6-3.6-3.9c0-2.3,1.6-4,3.6-4
				c1.5,0,2.6,0.8,3.2,2.1l0.1-1.9H115.2z M114.7,246.5c0-2-1.3-3.4-3.1-3.4c-1.8,0-3.1,1.5-3.1,3.4c0,1.9,1.3,3.4,3.1,3.4
				S114.7,248.5,114.7,246.5z"/>
			<path class="st2" d="M121.4,242.6l-0.1,0.6c-0.2,0-0.3-0.1-0.5-0.1c-1.2,0-2,0.9-2,2.4v4.8h-0.6v-7.5h0.5l0.1,1.5
				c0.3-0.9,1-1.7,2.1-1.7C121.1,242.6,121.2,242.6,121.4,242.6z"/>
			<path class="st2" d="M129.4,245.9v4.5h-0.6V246c0-2-1-2.9-2.4-2.9c-1.4,0-2.4,1-2.5,2.6v4.6h-0.6v-7.5h0.5l0.1,1.6
				c0.4-1.1,1.4-1.9,2.6-1.9C127.8,242.6,129.4,243.3,129.4,245.9z"/>
			<path class="st2" d="M132.2,240.3c0-0.3,0.2-0.6,0.6-0.6c0.3,0,0.6,0.2,0.6,0.6c0,0.3-0.2,0.6-0.6,0.6
				C132.4,240.8,132.2,240.6,132.2,240.3z M132.4,242.8h0.6v7.5h-0.6V242.8z"/>
			<path class="st2" d="M151.3,242.8l-2.9,7.5h-0.5l-2.1-6.8l-2.1,6.8h-0.5l-2.9-7.5h0.6l2.5,6.8l2.1-6.8h0.5l2.1,6.7l2.5-6.7H151.3
				z"/>
			<path class="st2" d="M167.8,239.2v11.1h-0.6l-7.7-10.1v10.1h-0.6v-11.1h0.6l7.8,10.1v-10.1H167.8z"/>
			<path class="st2" d="M171.1,240.3c0-0.3,0.2-0.6,0.6-0.6s0.6,0.2,0.6,0.6c0,0.3-0.2,0.6-0.6,0.6S171.1,240.6,171.1,240.3z
				 M171.3,242.8h0.6v7.5h-0.6V242.8z"/>
			<path class="st2" d="M175.3,246.4L175.3,246.4c0,2,1.2,3.6,3.2,3.6c1.1,0,2-0.5,2.5-1.1l0.5,0.4c-0.6,0.7-1.7,1.2-2.9,1.2
				c-2.4,0-3.9-1.8-3.9-4c0-2.1,1.5-3.9,3.7-3.9c2.1,0,3.5,1.6,3.5,3.5v0.3H175.3z M175.3,245.9h5.9c-0.1-1.6-1.2-2.8-2.9-2.8
				S175.5,244.3,175.3,245.9z"/>
			<path class="st2" d="M183.9,246.5c0-2.2,1.5-3.9,3.8-3.9c0.9,0,1.8,0.3,2.4,0.8l-0.4,0.4c-0.5-0.5-1.2-0.7-2-0.7
				c-2,0-3.2,1.5-3.2,3.4c0,1.9,1.2,3.4,3.2,3.4c0.8,0,1.5-0.3,2-0.7l0.4,0.4c-0.7,0.5-1.5,0.8-2.4,0.8
				C185.4,250.5,183.9,248.7,183.9,246.5z"/>
			<path class="st2" d="M198.5,245.9v4.5h-0.6V246c0-2-1-2.9-2.3-2.9c-1.4,0-2.5,1.1-2.5,2.9v4.3h-0.6v-11.8h0.6v5.9
				c0.4-1.1,1.3-1.9,2.6-1.9C197,242.6,198.5,243.3,198.5,245.9z"/>
			<path class="st2" d="M200.9,246.5c0-2.2,1.7-4,3.9-4c2.3,0,3.9,1.8,3.9,4c0,2.2-1.7,3.9-3.9,3.9
				C202.6,250.5,200.9,248.7,200.9,246.5z M208.1,246.5c0-1.9-1.4-3.4-3.3-3.4c-1.9,0-3.3,1.5-3.3,3.4c0,1.9,1.4,3.4,3.3,3.4
				C206.7,249.9,208.1,248.4,208.1,246.5z"/>
			<path class="st2" d="M214.5,242.6l-0.1,0.6c-0.2,0-0.3-0.1-0.5-0.1c-1.2,0-2,0.9-2,2.4v4.8h-0.6v-7.5h0.5l0.1,1.5
				c0.3-0.9,1-1.7,2.1-1.7C214.2,242.6,214.3,242.6,214.5,242.6z"/>
			<path class="st2" d="M222.1,249.8v0.5h-6v-0.5l5.1-6.6h-4.8v-0.5h5.5v0.5l-5,6.5H222.1z"/>
			<path class="st2" d="M224.5,247.3v-4.5h0.6v4.5c0,1.7,0.9,2.7,2.4,2.7c1.6,0,2.4-1.1,2.4-2.7v-4.5h0.6v4.5c0,2.6-1.6,3.3-3,3.3
				C226.1,250.5,224.5,249.8,224.5,247.3z"/>
		</g>
		<g class="st1">
			<path class="st2" d="M86.7,265.9v4.5h-0.6v-4.5c0-1.7-0.7-2.8-2.2-2.8c-1.3,0-2.1,1-2.2,2.8v4.4H81v-4.6c0-1.6-0.8-2.7-2.2-2.7
				c-1.2,0-2.1,1.1-2.2,2.7v4.5h-0.6v-7.5h0.5l0.1,1.6c0.4-1.2,1.3-1.8,2.3-1.8c0.9,0,2.1,0.5,2.5,2c0.4-1.3,1.2-2,2.5-2
				C85.3,262.6,86.7,263.3,86.7,265.9z"/>
			<path class="st2" d="M89.1,266.5c0-2.2,1.7-4,3.9-4c2.3,0,3.9,1.8,3.9,4c0,2.2-1.7,3.9-3.9,3.9C90.7,270.5,89.1,268.7,89.1,266.5
				z M96.3,266.5c0-1.9-1.4-3.4-3.3-3.4c-1.9,0-3.3,1.5-3.3,3.4c0,1.9,1.4,3.4,3.3,3.4C94.9,269.9,96.3,268.4,96.3,266.5z"/>
			<path class="st2" d="M105.1,269.8v0.5h-6v-0.5l5.1-6.6h-4.8v-0.5h5.5v0.5l-5,6.5H105.1z M101.5,260.4c0-0.3,0.3-0.6,0.6-0.6
				c0.3,0,0.6,0.2,0.6,0.6s-0.3,0.6-0.6,0.6C101.7,261,101.5,260.7,101.5,260.4z"/>
			<path class="st2" d="M113.6,265.9v4.5H113V266c0-2-1-2.9-2.4-2.9c-1.4,0-2.4,1-2.5,2.6v4.6h-0.6v-7.5h0.5l0.1,1.6
				c0.4-1.1,1.4-1.9,2.6-1.9C112.1,262.6,113.6,263.3,113.6,265.9z"/>
			<path class="st2" d="M123.4,262.8v7.5h-0.5l-0.1-1.9c-0.6,1.2-1.7,2.1-3.1,2.1c-2,0-3.6-1.6-3.6-3.9c0-2.3,1.6-4,3.6-4
				c1.5,0,2.6,0.8,3.2,2.1l0.1-1.9H123.4z M122.8,266.5c0-2-1.3-3.4-3.1-3.4c-1.8,0-3.1,1.5-3.1,3.4c0,1.9,1.3,3.4,3.1,3.4
				S122.8,268.5,122.8,266.5z"/>
			<path class="st2" d="M130.8,266.5c0-2.2,1.7-4,3.9-4c2.3,0,3.9,1.8,3.9,4c0,2.2-1.7,3.9-3.9,3.9
				C132.4,270.5,130.8,268.7,130.8,266.5z M138,266.5c0-1.9-1.4-3.4-3.3-3.4c-1.9,0-3.3,1.5-3.3,3.4c0,1.9,1.4,3.4,3.3,3.4
				C136.6,269.9,138,268.4,138,266.5z"/>
			<path class="st2" d="M148.1,258.5v11.8h-0.5l-0.1-1.9c-0.6,1.2-1.7,2.1-3.1,2.1c-2,0-3.6-1.6-3.6-3.9c0-2.3,1.6-4,3.6-4
				c1.5,0,2.6,0.8,3.1,2v-6.1H148.1z M147.5,266.5c0-2-1.3-3.4-3.1-3.4c-1.8,0-3.1,1.5-3.1,3.4c0,1.9,1.3,3.4,3.1,3.4
				S147.5,268.5,147.5,266.5z"/>
			<path class="st2" d="M161.2,262.8l-2.9,7.5h-0.5l-2.1-6.8l-2.1,6.8h-0.5l-2.9-7.5h0.6l2.5,6.8l2.1-6.8h0.5l2.1,6.7l2.5-6.7H161.2
				z"/>
			<path class="st2" d="M163.2,260.3c0-0.3,0.2-0.6,0.6-0.6s0.6,0.2,0.6,0.6c0,0.3-0.2,0.6-0.6,0.6S163.2,260.6,163.2,260.3z
				 M163.5,262.8h0.6v7.5h-0.6V262.8z"/>
			<path class="st2" d="M167.5,266.4L167.5,266.4c0,2,1.2,3.6,3.2,3.6c1.1,0,2-0.5,2.5-1.1l0.5,0.4c-0.6,0.7-1.7,1.2-2.9,1.2
				c-2.4,0-3.9-1.8-3.9-4c0-2.1,1.5-3.9,3.7-3.9c2.1,0,3.5,1.6,3.5,3.5v0.3H167.5z M167.5,265.9h5.9c-0.1-1.6-1.2-2.8-2.9-2.8
				C168.8,263.1,167.7,264.3,167.5,265.9z"/>
			<path class="st2" d="M183.4,258.5v11.8h-0.5l-0.1-1.9c-0.6,1.2-1.7,2.1-3.1,2.1c-2,0-3.6-1.6-3.6-3.9c0-2.3,1.6-4,3.6-4
				c1.5,0,2.6,0.8,3.1,2v-6.1H183.4z M182.9,266.5c0-2-1.3-3.4-3.1-3.4c-1.8,0-3.1,1.5-3.1,3.4c0,1.9,1.3,3.4,3.1,3.4
				S182.9,268.5,182.9,266.5z"/>
			<path class="st2" d="M191.9,269.8v0.5h-6v-0.5l5.1-6.6h-4.8v-0.5h5.5v0.5l-5,6.5H191.9z"/>
			<path class="st2" d="M194.3,260.3c0-0.3,0.2-0.6,0.6-0.6s0.6,0.2,0.6,0.6c0,0.3-0.2,0.6-0.6,0.6S194.3,260.6,194.3,260.3z
				 M194.6,262.8h0.6v7.5h-0.6V262.8z"/>
			<path class="st2" d="M197.9,266.5c0-2.2,1.5-3.9,3.8-3.9c0.9,0,1.8,0.3,2.4,0.8l-0.4,0.4c-0.5-0.5-1.2-0.7-2-0.7
				c-2,0-3.2,1.5-3.2,3.4c0,1.9,1.2,3.4,3.2,3.4c0.8,0,1.5-0.3,2-0.7l0.4,0.4c-0.7,0.5-1.5,0.8-2.4,0.8
				C199.4,270.5,197.9,268.7,197.9,266.5z M200.7,261.4h-0.2l2.2-2.5l0.6,0.1l-1.8,1.8C201.1,261.3,200.9,261.4,200.7,261.4z"/>
		</g>
		<g class="st1">
			<path class="st2" d="M27.3,282.7c0,2.1-1.8,3.5-3.7,3.5h-2v4.2h-2.2v-11.1h4.1C25.5,279.2,27.3,280.5,27.3,282.7z M25.1,282.7
				c0-1.2-0.8-1.8-2.2-1.8h-1.2v3.6h1.2C24.3,284.5,25.1,283.8,25.1,282.7z"/>
			<path class="st2" d="M37,282.4v8h-1.7l-0.3-1c-0.6,0.7-1.5,1.2-2.7,1.2c-2.1,0-3.7-1.5-3.7-4.2s1.6-4.2,3.7-4.2
				c1.2,0,2.1,0.5,2.7,1.2l0.3-1H37z M35.1,286.3c0-1.4-0.9-2.4-2.2-2.4c-1.3,0-2.1,1-2.1,2.4s0.9,2.4,2.1,2.4
				C34.2,288.8,35.1,287.8,35.1,286.3z"/>
			<path class="st2" d="M44.6,282.3l-0.3,2c-0.2-0.1-0.5-0.1-0.7-0.1c-1.2,0-1.9,0.8-1.9,2.3v3.9h-2.1v-8h1.8l0.2,1.1
				c0.5-0.7,1.2-1.3,2.1-1.3C44.1,282.2,44.3,282.2,44.6,282.3z"/>
			<path class="st2" d="M51.4,290.3l-3.2-3.6v3.6h-2.1v-11.8h2.1v6.8l2.8-2.9h2.6l-3.6,3.6l4.1,4.3H51.4z"/>
			<path class="st2" d="M72.1,279.2v11.1H70v-7.6l-3.7,4.9l-3.7-4.9v7.6h-2.1v-11.1h2l3.9,5.5l3.9-5.5H72.1z"/>
			<path class="st2" d="M74.9,279.8c0-0.7,0.6-1.2,1.2-1.2c0.7,0,1.2,0.5,1.2,1.2c0,0.7-0.6,1.2-1.2,1.2
				C75.5,281,74.9,280.5,74.9,279.8z M75.1,282.4h2.1v8h-2.1V282.4z"/>
			<path class="st2" d="M87.4,285.4v5h-2v-4.4c0-1.2-0.5-2-1.6-2c-0.8,0-1.6,0.5-1.8,1.8v4.6h-2.1v-8h1.8l0.3,0.9
				c0.5-0.7,1.3-1.1,2.4-1.1C85.8,282.2,87.4,282.9,87.4,285.4z"/>
			<path class="st2" d="M89.8,279.8c0-0.7,0.6-1.2,1.2-1.2c0.7,0,1.2,0.5,1.2,1.2c0,0.7-0.6,1.2-1.2,1.2
				C90.4,281,89.8,280.5,89.8,279.8z M90,282.4h2.1v8H90V282.4z"/>
			<path class="st2" d="M102.8,282.4v8H101l-0.3-1c-0.6,0.7-1.5,1.2-2.7,1.2c-2.1,0-3.7-1.5-3.7-4.2s1.6-4.2,3.7-4.2
				c1.2,0,2.1,0.5,2.7,1.2l0.3-1H102.8z M100.9,286.3c0-1.4-0.9-2.4-2.2-2.4c-1.3,0-2.1,1-2.1,2.4s0.9,2.4,2.1,2.4
				C100,288.8,100.9,287.8,100.9,286.3z"/>
			<path class="st2" d="M110.1,284h-2v6.4h-2V284h-1.2v-1.6h1.2v-2.3h2v2.3h2V284z"/>
			<path class="st2" d="M112,286.8v-4.4h2v4.5c0,1.2,0.6,2,1.6,2c1.1,0,1.7-0.8,1.7-2v-4.5h2.1v4.4c0,3-1.9,3.7-3.7,3.7
				S112,289.8,112,286.8z"/>
			<path class="st2" d="M126.9,282.3l-0.3,2c-0.2-0.1-0.5-0.1-0.7-0.1c-1.2,0-1.9,0.8-1.9,2.3v3.9h-2.1v-8h1.8l0.2,1.1
				c0.5-0.7,1.2-1.3,2.1-1.3C126.4,282.2,126.6,282.2,126.9,282.3z"/>
		</g>
		<g class="st1">
			<path class="st2" d="M140.2,288.5v1.9h-6.7v-11.1h2.2v9.2H140.2z"/>
			<path class="st2" d="M149.9,282.4v8h-1.7l-0.3-1c-0.6,0.7-1.5,1.2-2.7,1.2c-2.1,0-3.7-1.5-3.7-4.2s1.6-4.2,3.7-4.2
				c1.2,0,2.1,0.5,2.7,1.2l0.3-1H149.9z M148,286.3c0-1.4-0.9-2.4-2.2-2.4c-1.3,0-2.1,1-2.1,2.4s0.9,2.4,2.1,2.4
				C147.1,288.8,148,287.8,148,286.3z"/>
			<path class="st2" d="M157.2,284h-2v6.4h-2V284H152v-1.6h1.2v-2.3h2v2.3h2V284z"/>
			<path class="st2" d="M166.8,282.4v8h-1.7l-0.3-1c-0.6,0.7-1.5,1.2-2.7,1.2c-2.1,0-3.7-1.5-3.7-4.2s1.6-4.2,3.7-4.2
				c1.2,0,2.1,0.5,2.7,1.2l0.3-1H166.8z M164.9,286.3c0-1.4-0.9-2.4-2.2-2.4c-1.3,0-2.1,1-2.1,2.4s0.9,2.4,2.1,2.4
				C164,288.8,164.9,287.8,164.9,286.3z"/>
			<path class="st2" d="M174.3,282.3l-0.3,2c-0.2-0.1-0.5-0.1-0.7-0.1c-1.2,0-1.9,0.8-1.9,2.3v3.9h-2.1v-8h1.8l0.2,1.1
				c0.5-0.7,1.2-1.3,2.1-1.3C173.8,282.2,174.1,282.2,174.3,282.3z"/>
			<path class="st2" d="M183.3,285.4v5h-2v-4.4c0-1.2-0.5-2-1.6-2c-0.8,0-1.6,0.5-1.8,1.8v4.6h-2.1v-8h1.8l0.3,0.9
				c0.5-0.7,1.3-1.1,2.4-1.1C181.7,282.2,183.3,282.9,183.3,285.4z"/>
			<path class="st2" d="M185.7,279.8c0-0.7,0.6-1.2,1.2-1.2c0.7,0,1.2,0.5,1.2,1.2c0,0.7-0.6,1.2-1.2,1.2
				C186.3,281,185.7,280.5,185.7,279.8z M185.9,282.4h2.1v8h-2.1V282.4z"/>
			<path class="st2" d="M207.4,279.2v11.1h-2.1v-7.6l-3.7,4.9l-3.7-4.9v7.6h-2.1v-11.1h2l3.9,5.5l3.9-5.5H207.4z"/>
			<path class="st2" d="M209.6,286.4c0-2.4,1.8-4.2,4.3-4.2c2.6,0,4.3,1.8,4.3,4.2c0,2.4-1.8,4.2-4.3,4.2
				C211.4,290.6,209.6,288.7,209.6,286.4z M216.2,286.4c0-1.4-0.9-2.5-2.2-2.5c-1.3,0-2.2,1-2.2,2.5c0,1.4,0.9,2.4,2.2,2.4
				C215.3,288.8,216.2,287.8,216.2,286.4z"/>
			<path class="st2" d="M225.5,282.3l-0.3,2c-0.2-0.1-0.5-0.1-0.7-0.1c-1.2,0-1.9,0.8-1.9,2.3v3.9h-2.1v-8h1.8l0.2,1.1
				c0.5-0.7,1.2-1.3,2.1-1.3C224.9,282.2,225.2,282.2,225.5,282.3z"/>
			<path class="st2" d="M227.5,288c0.6,0.8,1.3,1,2,1c0.9,0,1.3-0.3,1.3-0.9c0-1.5-3.9-0.5-3.9-3.4c0-1.5,1.2-2.6,3.2-2.6
				c1.2,0,2.3,0.5,2.9,1l-1,1.3c-0.4-0.4-1.1-0.7-1.7-0.7c-0.8,0-1.2,0.3-1.2,0.9c0,1.6,4,0.6,4,3.5c0,1.4-1.2,2.5-3.2,2.5
				c-1.6,0-2.8-0.5-3.5-1.3L227.5,288z"/>
			<path class="st2" d="M240.5,290.3l-3.2-3.6v3.6h-2.1v-11.8h2.1v6.8l2.8-2.9h2.6l-3.6,3.6l4.1,4.3H240.5z"/>
			<path class="st2" d="M244.6,279.8c0-0.7,0.6-1.2,1.2-1.2c0.7,0,1.2,0.5,1.2,1.2c0,0.7-0.6,1.2-1.2,1.2
				C245.1,281,244.6,280.5,244.6,279.8z M244.8,282.4h2.1v8h-2.1V282.4z"/>
			<path class="st2" d="M249.2,286.4c0-2.4,1.8-4.2,4.2-4.2c1.2,0,2,0.3,2.8,0.9l-1.2,1.5c-0.4-0.4-1-0.6-1.6-0.6
				c-1.4,0-2.2,1-2.2,2.4c0,1.4,0.8,2.4,2.2,2.4c0.6,0,1.2-0.2,1.6-0.6l1.1,1.5c-0.8,0.6-1.6,0.9-2.8,0.9
				C251,290.6,249.2,288.7,249.2,286.4z"/>
			<path class="st2" d="M265.6,285.4v5h-2.1v-4.4c0-1.2-0.5-2-1.6-2c-0.8,0-1.6,0.5-1.8,1.8v4.6h-2.1v-11.8h2.1v4.8
				c0.5-0.7,1.4-1.1,2.4-1.1C264,282.2,265.6,282.9,265.6,285.4z"/>
		</g>
	</g>
	<g id="Group_298" transform="translate(695.859 636.904)">
		<g id="niechorze">
			
				<rect id="Rectangle_211" x="35.6" y="6.5" transform="matrix(0.842 -0.5394 0.5394 0.842 2.2302 20.9812)" class="st2" width="2.7" height="0.3"/>
			<rect id="Rectangle_212" x="37.6" y="10.4" class="st2" width="1.5" height="0.3"/>
			
				<rect id="Rectangle_213" x="37.2" y="12.4" transform="matrix(0.3184 -0.948 0.948 0.3184 12.6409 44.553)" class="st2" width="0.3" height="2.2"/>
			
				<rect id="Rectangle_214" x="19" y="6.2" transform="matrix(0.4129 -0.9108 0.9108 0.4129 4.8223 21.5769)" class="st2" width="0.3" height="1.8"/>
			<rect id="Rectangle_215" x="16.8" y="10.2" class="st2" width="2.3" height="0.3"/>
			
				<rect id="Rectangle_216" x="16.8" y="13.5" transform="matrix(0.9745 -0.2245 0.2245 0.9745 -2.6176 4.2956)" class="st2" width="1.6" height="0.3"/>
			<path id="Path_2050" class="st2" d="M27.3,66.7h-0.2c-0.1,0-5.9-0.1-6.2-0.7c-0.6-1.3-0.2-40.6,0-43c0-0.2,0.1-0.6,4.4-0.8
				c0.1,0,8-0.2,8.1,0.7c0.2,1.2,0.5,20.3,0.5,22.2c0,0.4,0,1.3,0,2.5c0.2,13,0.1,18.2-0.4,18.5C33,66.6,29.9,66.7,27.3,66.7z
				 M21.2,23c-0.3,3.7-0.5,41.7,0,42.8c0.3,0.3,4.4,0.6,6,0.6h0.2c4.9,0,5.9-0.3,6.1-0.4c0.5-0.6,0.3-13.5,0.3-18.3
				c0-1.2,0-2.1,0-2.5c0-2.5-0.4-21.1-0.5-22.2c-0.2-0.3-2.5-0.5-6-0.5H27C23.6,22.5,21.3,22.8,21.2,23L21.2,23z"/>
			<path id="Path_2051" class="st2" d="M30.1,70.6c-4,0-9.3-0.2-10.3-0.6c-0.2-0.1-0.3-0.1-0.3-0.2c-0.3-0.8,1.3-3.6,1.4-4l0.2,0.1
				c-0.6,1.2-1.6,3.3-1.4,3.8c0.2,0.2,2.8,0.5,7.3,0.6c4.2,0.1,7.1,0,7.4-0.2c0.4-0.3-0.3-2.5-1-4l0.3-0.1c0.3,0.6,1.7,3.8,0.9,4.3
				C33.1,70.6,31.6,70.7,30.1,70.6z"/>
			<path id="Path_2052" class="st2" d="M10.1,80.3c-4.8,0-9.6-0.1-9.9-0.2l0,0C0.1,80.1,0,80,0,79.9c-0.1-0.9,3.2-5.2,3.8-5.7
				c0.8-0.6,15.1-1.2,15.8-1c0.7,0.2,1.1,3.6,1,5.3c0,1-0.2,1.5-0.6,1.6C19.6,80.3,14.9,80.3,10.1,80.3z M0.3,79.9
				c0.9,0.2,18.8,0.2,19.7,0c0.2,0,0.3-0.4,0.4-1.4c0.1-2.1-0.5-4.9-0.9-5c-0.9-0.3-15,0.6-15.5,1C3,75.2,0.2,79.5,0.3,79.9
				L0.3,79.9z"/>
			<path id="Path_2053" class="st2" d="M38.1,80.7c-2.2,0-3.7-0.1-4-0.3c-0.7-0.5-0.9-3-1-3.7c-0.1-1-0.1-2.8,0.2-3.1l0,0
				c0.5-0.5,15-0.5,15.8,0c0.5,0.4,3.8,6.3,3.5,6.8c0,0.1-0.1,0.1-0.2,0.1c0,0,0,0,0,0c-0.2-0.1-2.8,0-5.5,0.1
				C43.5,80.6,40.4,80.7,38.1,80.7z M33.6,73.8c-0.2,0.9-0.3,1.9-0.2,2.9c0.1,1.8,0.5,3.2,0.9,3.5c0.6,0.4,7.9,0.2,12.7,0.1
				c3.4-0.1,5-0.2,5.5-0.1c-0.2-0.9-2.8-5.9-3.4-6.3C48.4,73.3,34.3,73.3,33.6,73.8L33.6,73.8z"/>
			<path id="Path_2054" class="st2" d="M11.8,96.9c-3.1,0-6.3-0.2-9.4-0.6C1.6,96.1,1.2,84.9,1,80.1l0.3,0C1.5,86,2,95.6,2.5,96.1
				c3.5,0.4,7.1,0.6,10.7,0.5c4.3-0.2,8.7-0.2,13,0c4.7,0.1,9.4-0.1,14.1-0.5c1.6-0.1,3.1-0.1,4.7,0c2.6,0,6.2,0.1,6.5-0.2
				c0.2-0.2,0.2-3.1,0.2-5c-0.1-1.3,0-2.5,0-3.8c0.2-1.2-0.5-6.5-0.5-6.6l0.3,0c0,0.2,0.7,5.4,0.5,6.7c-0.1,1.2-0.1,2.5,0,3.7
				c0.1,3,0.1,4.9-0.2,5.2c-0.3,0.3-2.2,0.3-6.7,0.2c-1.5-0.1-3.1,0-4.6,0c-4.7,0.4-9.5,0.6-14.2,0.5c-4.3-0.2-8.6-0.2-12.9,0
				C12.8,96.9,12.3,96.9,11.8,96.9z"/>
			<path id="Path_2055" class="st2" d="M20.4,85.2c0-0.3-0.3-7.1,2.9-10.4c1.1-1.1,2.5-1.7,4.1-1.7c6.9,0,7,10.8,7,10.9h-0.3
				c0-0.1-0.1-10.6-6.7-10.6c-1.5,0-2.9,0.6-3.9,1.6c-3.1,3.2-2.8,10.2-2.8,10.2L20.4,85.2z"/>
			<path id="Path_2056" class="st2" d="M33.4,23.1l-0.2-0.2c0.5-0.6,0.9-1.2,1.3-1.9c0.1-0.8,0.1-1.6-0.1-2.3
				c-0.3-0.3-4.2-0.5-7.7-0.5c-0.1,0-0.3,0-0.5,0c-5-0.1-5.9,0.2-6,0.4c-0.1,0.8-0.1,1.6,0,2.5c0.3,0.6,0.6,1.3,1,1.8l-0.2,0.2
				c-0.4-0.6-0.7-1.2-1-1.9c-0.1-0.9-0.1-1.8,0-2.6c0.2-0.5,2-0.7,6.2-0.6c0.2,0,0.4,0,0.5,0c1.2,0,7.4,0,7.9,0.6
				c0.3,0.3,0.3,1.1,0.1,2.5C34.4,21.8,33.9,22.5,33.4,23.1z"/>
			<rect id="Rectangle_217" x="20.4" y="70.1" class="st2" width="0.3" height="26.4"/>
			<path id="Path_2057" class="st2" d="M34.5,96.6c0-0.3-0.4-8-0.4-8.9v-7.3c-1.2-1.4-1-9.6-1-9.9l0.3,0c-0.1,3,0,8.8,0.9,9.8l0,0
				v7.4c0,1,0.4,8.9,0.4,8.9L34.5,96.6z"/>
			<path id="Path_2058" class="st2" d="M26.8,2.9c0-0.1-0.2-2.7-0.2-3h0.3c0,0.2,0.2,2,0.2,2.9L26.8,2.9z"/>
			<path id="Path_2059" class="st2" d="M25.1,15l-0.2-0.2c0.1-2.2,0.1-4.4-0.1-6.6l0.3,0C25.2,10.6,25.4,14.8,25.1,15z"/>
			<path id="Path_2060" class="st2" d="M28.5,15c-0.2-0.2-0.1-4.5,0-7l0.3,0c-0.1,2.3-0.1,4.5,0,6.8L28.5,15z"/>
			<path id="Path_2061" class="st2" d="M27.3,83.1c-0.2,0-0.4-0.1-0.6-0.1c-0.1,0-0.2-0.1-0.3-0.1c-0.1,0-0.1,0-0.2-0.1
				c-0.4-1.3-0.6-2.7-0.4-4l0,0c0.2-0.3,1.1-0.5,1.5-0.4c0.2,0,0.2,0.2,0.2,0.2s0,0.3,0.1,0.6c0.2,1.2,0.3,2.4,0.2,3.6
				C27.7,83,27.5,83.1,27.3,83.1z M26.5,82.6c0.1,0,0.2,0,0.3,0.1c0.4,0.1,0.6,0.2,0.8,0c0.1-1.2,0-2.3-0.2-3.5
				c0-0.3-0.1-0.5-0.1-0.6c-0.3,0-0.5,0-0.8,0.1c-0.3,0.1-0.4,0.2-0.4,0.2C26,80.1,26.1,81.4,26.5,82.6L26.5,82.6z"/>
			<path id="Path_2062" class="st2" d="M28.1,92.9c-1.9,0-1.9-0.2-1.9-0.4c0,0,0-0.2,0-0.4c-0.1-3-0.1-3.7,0-3.8l0,0l0.1,0
				c0.1,0,0.2,0,0.3,0c0.6-0.1,1.1-0.1,1.3,0.1c0.3,1.5,0.4,3,0.3,4.5C28.3,92.8,28.2,92.9,28.1,92.9z M26.5,92.5
				c0.5,0.1,1,0.2,1.5,0.1c0.1-1.4,0-2.8-0.3-4.2c-0.1-0.1-0.7,0-1,0c-0.1,0-0.2,0-0.3,0c-0.1,1.2-0.1,2.4,0,3.6
				C26.5,92.3,26.5,92.4,26.5,92.5L26.5,92.5z"/>
			<path id="Path_2063" class="st2" d="M6.6,87.4c-0.4,0-0.8,0-1.1-0.2c-0.3-0.3-0.1-2.8,0.4-4c0.2-0.6,0.6-0.9,0.9-0.9
				c0.4,0,0.8,0.3,0.9,0.6c0.6,1.2,0.8,2.6,0.7,4c-0.1,0.2-0.4,0.3-0.9,0.4C7.2,87.4,6.9,87.4,6.6,87.4z M5.7,87
				c0.6,0.2,1.3,0.2,1.9,0c0.5-0.1,0.6-0.2,0.6-0.2c0.1-1.3-0.1-2.6-0.7-3.8c-0.1-0.3-0.4-0.4-0.7-0.4c-0.2,0-0.3,0.1-0.5,0.4
				C5.8,84.3,5.6,85.7,5.7,87L5.7,87z"/>
			<path id="Path_2064" class="st2" d="M13.8,87.7c-0.2,0-0.4,0-0.7-0.1c-0.2,0-0.3-0.1-0.4-0.3c-0.1-0.4-0.3-3.5,0.4-4.6
				c0.1-0.2,0.4-0.4,0.7-0.4l0,0c0.4,0,0.8,0.4,1.1,1.3c0.4,1.2,0.8,3.6,0.6,3.8C15,87.6,14.4,87.7,13.8,87.7z M13.9,82.6
				c-0.2,0-0.4,0.1-0.5,0.3c-0.7,1-0.5,4-0.4,4.3c0,0,0,0,0.1,0.1c0.7,0.1,1.5,0.1,2.2-0.1c0-1.5-0.4-3-1-4.3
				C14.2,82.7,14.1,82.6,13.9,82.6L13.9,82.6z"/>
			<path id="Path_2065" class="st2" d="M6.9,94.1c-0.4,0-0.9,0-1.2-0.2c-0.3-1.3-0.2-2.6,0.2-3.8c0.1-0.5,0.6-0.9,1.1-0.9l0,0
				c0.4,0,0.8,0.3,0.9,0.6c0.6,1.2,0.8,2.6,0.7,4c0,0.1-0.2,0.2-0.7,0.2C7.6,94.1,7.2,94.1,6.9,94.1z M6.9,89.5
				c-0.3,0-0.6,0.2-0.7,0.5c-0.5,1.2-0.6,2.5-0.4,3.7c0.8,0.1,1.7,0.1,2.5-0.1c0.1-1.3-0.2-2.6-0.8-3.8C7.4,89.6,7.2,89.5,6.9,89.5
				L6.9,89.5z"/>
			<path id="Path_2066" class="st2" d="M14.4,93.9c-0.2,0-0.5,0-0.7-0.1c-0.2,0-0.3-0.1-0.3-0.2c-0.1-0.3-0.3-3.1,0.4-4.1
				c0.1-0.2,0.4-0.4,0.6-0.4h0c0.3,0,0.6,0.4,1,1.2c0.4,1,0.8,3.1,0.6,3.3C15.5,93.9,15,94,14.4,93.9z M14.4,89.5
				c-0.2,0-0.3,0.1-0.4,0.2c-0.6,0.9-0.5,3.6-0.4,3.8c0.7,0.2,1.4,0.1,2.1,0c-0.1-1.3-0.4-2.6-1-3.8C14.7,89.6,14.5,89.5,14.4,89.5
				L14.4,89.5z"/>
			<path id="Path_2067" class="st2" d="M39.5,87.5c-0.4,0-0.8,0-1.1-0.2l0,0c-0.3-0.3-0.1-2.8,0.4-4c0.2-0.6,0.6-0.9,0.9-0.9
				c0.4,0,0.8,0.3,0.9,0.6c0.6,1.2,0.8,2.6,0.7,4c-0.1,0.2-0.4,0.3-0.9,0.4C40.1,87.4,39.8,87.5,39.5,87.5z M38.6,87.1
				c0.6,0.2,1.3,0.2,1.9,0c0.5-0.1,0.6-0.2,0.6-0.2c0.1-1.3-0.1-2.6-0.7-3.8c-0.1-0.3-0.4-0.4-0.7-0.4c-0.2,0-0.3,0.1-0.5,0.4
				C38.7,84.3,38.5,85.7,38.6,87.1L38.6,87.1z"/>
			<path id="Path_2068" class="st2" d="M46.7,87.7c-0.2,0-0.4,0-0.7-0.1c-0.2,0-0.3-0.1-0.4-0.3c-0.1-0.4-0.3-3.5,0.4-4.6
				c0.1-0.2,0.4-0.4,0.7-0.4l0,0c0.4,0,0.8,0.4,1.1,1.3c0.4,1.2,0.8,3.6,0.6,3.8C47.9,87.6,47.3,87.7,46.7,87.7z M46.8,82.6
				c-0.2,0-0.4,0.1-0.5,0.3c-0.7,1-0.5,4-0.4,4.3c0,0,0,0,0.1,0.1c0.7,0.1,1.5,0.1,2.2-0.1c0-1.5-0.4-3-1-4.3
				C47.1,82.8,47,82.7,46.8,82.6L46.8,82.6z"/>
			<path id="Path_2069" class="st2" d="M39.8,94.1c-0.4,0-0.9,0-1.2-0.2c-0.3-1.3-0.2-2.6,0.2-3.8c0.1-0.5,0.6-0.9,1.1-0.9l0,0
				c0.4,0,0.8,0.3,0.9,0.6c0.6,1.2,0.8,2.6,0.7,4c0,0.1-0.2,0.2-0.7,0.2C40.5,94.1,40.1,94.1,39.8,94.1z M39.8,89.5L39.8,89.5
				c-0.3,0-0.6,0.2-0.8,0.5c-0.5,1.2-0.6,2.5-0.4,3.7c0.8,0.1,1.7,0.1,2.5-0.1c0.1-1.3-0.2-2.6-0.8-3.8
				C40.3,89.7,40.1,89.5,39.8,89.5L39.8,89.5z"/>
			<path id="Path_2070" class="st2" d="M47.3,94c-0.2,0-0.5,0-0.7-0.1c-0.2,0-0.3-0.1-0.3-0.2c-0.1-0.3-0.3-3.1,0.4-4.1
				c0.1-0.2,0.4-0.4,0.7-0.4c0.3,0,0.6,0.4,1,1.2c0.4,1,0.8,3.1,0.6,3.3C48.4,93.9,47.9,94,47.3,94z M47.3,89.5
				c-0.2,0-0.3,0.1-0.4,0.2c-0.6,0.9-0.5,3.6-0.4,3.8c0.7,0.1,1.4,0.1,2.1,0c-0.1-1.3-0.4-2.6-1-3.8C47.5,89.6,47.4,89.5,47.3,89.5
				L47.3,89.5z"/>
			<path id="Path_2071" class="st2" d="M22.6,8.3h-0.3c0-0.9,0.2-1.9,0.5-2.7c0.5-1.7,2-2.8,3.8-2.8c4.2,0,5.3,5.2,5.3,5.3l-0.3,0.1
				c0,0-1-5-5-5c-1.6,0-3.1,1-3.5,2.6C22.8,6.5,22.7,7.4,22.6,8.3z"/>
			<path id="Path_2072" class="st2" d="M32.3,18.3l0-3.3l0,0c0-2.3-0.2-4.5-0.6-6.8c-0.6-0.2-8.6,0-9.1,0.5c-0.1,2.2,0,4.5,0.1,6.7
				l-0.1,2.7l-0.3,0l0.1-2.6c-0.1-1.1-0.3-6.4-0.1-6.9c0.1-0.1,0.2-0.2,0.8-0.3C25,7.9,31.6,7.7,31.9,8c0.4,2.3,0.6,4.7,0.6,7l0,0
				l0,3.3L32.3,18.3z"/>
			<path id="Path_2073" class="st2" d="M32.4,15.2c-2.2-0.3-9.9-0.1-10-0.1l0-0.3c0.3,0,7.8-0.2,10,0.1L32.4,15.2z"/>
			<path id="Path_2074" class="st2" d="M34.6,18.7l-0.2-0.1c0.3-0.6,0.7-1.5,0.4-1.6c-0.5-0.2-13.5-0.4-14.6-0.2c0,0.6,0,1.2,0,1.8
				l-0.3,0c-0.1-0.7-0.1-1.3,0-2l0-0.1l0.1,0c0.4-0.1,4.7-0.1,7.5-0.1c2.5,0,4.9,0,7.4,0.3C35.5,17,34.7,18.4,34.6,18.7z"/>
			<path id="Path_2075" class="st2" d="M27.6,46.8h-1.4l0-0.1c0-0.3-0.1-2.6,0.5-3c0.1-0.1,0.2-0.1,0.3-0.1c0.8,0.2,0.7,2.6,0.6,3.1
				L27.6,46.8z M26.5,46.5h0.9c0.1-1.1,0-2.6-0.4-2.7c0,0-0.1,0-0.1,0C26.5,44.1,26.5,45.5,26.5,46.5L26.5,46.5z"/>
		</g>
		<path id="Path_2076" class="st2" d="M22.9,64l-0.7-39.9h0.2L23.2,64H22.9z"/>
		<rect id="Rectangle_218" x="24.7" y="24.2" class="st2" width="0.2" height="39.9"/>
		<rect id="Rectangle_219" x="28.6" y="24.2" class="st2" width="0.2" height="39.9"/>
		<rect id="Rectangle_220" x="31.2" y="24.2" class="st2" width="0.2" height="39.4"/>
	</g>
	<g id="rozewie" transform="translate(751.009 610.326)">
		<g id="Group_305" transform="translate(7.486 14.027)">
			<g id="Group_299" transform="translate(2.409)">
				<circle id="Ellipse_72" class="st2" cx="0.6" cy="0.6" r="0.5"/>
				<path id="Path_2077" class="st2" d="M0.6,1.2C0.3,1.2,0,0.9,0,0.6C0,0.3,0.3,0,0.6,0c0.3,0,0.6,0.3,0.6,0.6c0,0,0,0,0,0
					C1.2,0.9,0.9,1.2,0.6,1.2z M0.6,0.2c-0.2,0-0.4,0.2-0.4,0.4S0.4,1,0.6,1S1,0.8,1,0.6C1,0.4,0.8,0.2,0.6,0.2z"/>
			</g>
			<g id="Group_300" transform="translate(2.628 5.692)">
				<circle id="Ellipse_73" class="st2" cx="0.6" cy="0.6" r="0.5"/>
				<path id="Path_2078" class="st2" d="M0.6,1.2C0.3,1.2,0,0.9,0,0.6S0.3,0,0.6,0c0.3,0,0.6,0.3,0.6,0.6C1.2,0.9,0.9,1.2,0.6,1.2z
					 M0.6,0.2c-0.2,0-0.4,0.2-0.4,0.4S0.4,1,0.6,1S1,0.8,1,0.6C1,0.4,0.8,0.2,0.6,0.2z"/>
			</g>
			<g id="Group_301" transform="translate(2.409 12.26)">
				<circle id="Ellipse_74" class="st2" cx="0.6" cy="0.6" r="0.5"/>
				<path id="Path_2079" class="st2" d="M0.6,1.2C0.3,1.2,0,0.9,0,0.6C0,0.3,0.3,0,0.6,0c0.3,0,0.6,0.3,0.6,0.6c0,0,0,0,0,0
					C1.2,0.9,0.9,1.2,0.6,1.2z M0.6,0.2c-0.2,0-0.4,0.2-0.4,0.4S0.4,1,0.6,1C0.8,1,1,0.8,1,0.6c0,0,0,0,0,0C1,0.4,0.8,0.2,0.6,0.2z"
					/>
			</g>
			<g id="Group_302" transform="translate(5.692 24.521)">
				<circle id="Ellipse_75" class="st2" cx="0.6" cy="0.6" r="0.5"/>
				<path id="Path_2080" class="st2" d="M0.6,1.2C0.3,1.2,0,0.9,0,0.6S0.3,0,0.6,0c0.3,0,0.6,0.3,0.6,0.6C1.2,0.9,0.9,1.2,0.6,1.2z
					 M0.6,0.2c-0.2,0-0.4,0.2-0.4,0.4S0.4,1,0.6,1S1,0.8,1,0.6S0.8,0.2,0.6,0.2L0.6,0.2z"/>
			</g>
			<g id="Group_303" transform="translate(0 27.586)">
				<circle id="Ellipse_76" class="st2" cx="0.6" cy="0.6" r="0.5"/>
				<path id="Path_2081" class="st2" d="M0.6,1.2C0.3,1.2,0,0.9,0,0.6S0.3,0,0.6,0c0.3,0,0.6,0.3,0.6,0.6C1.2,0.9,0.9,1.2,0.6,1.2z
					 M0.6,0.2c-0.2,0-0.4,0.2-0.4,0.4S0.4,1,0.6,1S1,0.8,1,0.6S0.8,0.2,0.6,0.2L0.6,0.2z"/>
			</g>
			<g id="Group_304" transform="translate(0.438 21.893)">
				<circle id="Ellipse_77" class="st2" cx="0.6" cy="0.6" r="0.5"/>
				<path id="Path_2082" class="st2" d="M0.6,1.2C0.3,1.2,0,0.9,0,0.6S0.3,0,0.6,0c0.3,0,0.6,0.3,0.6,0.6C1.2,0.9,0.9,1.2,0.6,1.2z
					 M0.6,0.2c-0.2,0-0.4,0.2-0.4,0.4S0.4,1,0.6,1S1,0.8,1,0.6C1,0.4,0.8,0.2,0.6,0.2C0.6,0.2,0.6,0.2,0.6,0.2L0.6,0.2z"/>
			</g>
		</g>
		<g id="rozewie-2" transform="translate(0 0)">
			<g id="Group_306" transform="translate(4.274 32.649)">
				<path id="Path_2083" class="st2" d="M0.1,13.3c-0.3-0.6,0.6-6.1,0.6-6.2c0-0.3,0.1-0.7,0.2-1.2c0.4-2.8,0.8-5.3,1.2-5.7
					C2.3,0,3,0.1,4.4,0.1c0.5,0,1,0,1.3,0c3.7,0,4.3,0.1,4.5,0.3c0.6,1.9,1,3.7,1.3,5.7c0.2,1,0.4,1.8,0.4,2.1
					c0.4,1.7,0.6,3.4,0.8,5.1h-0.2c-0.1-1.7-0.4-3.4-0.7-5c-0.1-0.3-0.2-1.1-0.4-2.1c-0.4-2-1.1-5.3-1.3-5.6C9.9,0.5,9,0.4,5.7,0.4
					c-0.4,0-0.8,0-1.3,0C3.7,0.3,3,0.3,2.3,0.4C2,0.7,1.4,4.2,1.2,5.9C1.1,6.4,1,6.8,1,7.1C0.7,9,0.2,12.8,0.3,13.2L0.1,13.3z"/>
				<path id="Path_2084" class="st2" d="M0.1,13.4L0.1,13.4C-0.2,12.7,0.7,7.1,0.7,7c0-0.3,0.1-0.6,0.2-1.1l0,0
					c0.5-3.5,0.9-5.4,1.2-5.7C2.3,0,2.8,0,4.4,0.1h0c0.5,0,0.9,0,1.3,0c3.9,0,4.4,0.1,4.5,0.3s0.4,1.4,1.4,5.7l0,0.1
					C11.8,7.1,12,7.9,12,8.1c0.4,1.7,0.6,3.4,0.8,5.1v0.1l-0.4,0v-0.1c-0.1-1.7-0.4-3.4-0.7-5c-0.1-0.3-0.3-1.2-0.4-2.1
					C10.8,4.5,10.1,1,9.9,0.6C8.5,0.5,7.1,0.4,5.7,0.5c-0.3,0-0.8,0-1.2,0l-0.1,0c-0.7-0.1-1.4-0.1-2,0C2,0.7,1.5,4.5,1.3,5.9
					C1.2,6.4,1.1,6.8,1.1,7.1c-0.4,2-0.6,4-0.7,6l0,0.1L0.1,13.4z M12.6,13.1L12.6,13.1c-0.1-1.7-0.3-3.3-0.7-5
					c-0.1-0.3-0.2-1-0.4-1.9l0-0.1c-0.3-1.9-0.8-3.8-1.3-5.6C10,0.3,8.6,0.3,5.7,0.3c-0.3,0-0.8,0-1.3,0h0C3.7,0.1,2.9,0.1,2.2,0.3
					C1.8,0.6,1.4,3.8,1.1,5.9l0,0C1,6.4,0.9,6.8,0.9,7.1c-0.4,2-0.6,4-0.7,6.1l0,0c0.1-2,0.3-4,0.7-6C1,6.8,1,6.4,1.1,5.9
					c0.4-2.7,0.8-5.3,1.1-5.6c0.7-0.1,1.5-0.2,2.2,0h0.1c0.5,0,0.9,0,1.2,0c1.5-0.1,2.9,0,4.3,0.2l0,0c0.2,0.2,0.7,2.8,1.3,5.6
					c0.2,0.9,0.4,1.8,0.5,2.1C12.2,9.8,12.4,11.5,12.6,13.1L12.6,13.1z"/>
			</g>
			<g id="Group_307" transform="translate(6.235 10.754)">
				<path id="Path_2085" class="st2" d="M8.2,22.5L8,22.3c0.1-0.2,0.2-3.9,0.2-9.6c0-1.6-0.2-11.5-0.4-12C7.7,0.6,7.1,0.5,4.6,0.6
					c-0.2,0-0.3,0-0.4,0c-0.1,0-0.5,0-0.9-0.1c-1-0.2-2-0.2-2.9-0.2C0.2,0.8,0.5,8,0.8,11.2c0.1,1.1,0.1,2.8,0.1,4.6
					c0,2.5,0.1,6,0.4,6.2l-0.1,0.2C0.8,22,0.7,20,0.7,15.8c0-1.8,0-3.5-0.1-4.5c-0.1-0.9-0.7-10.7-0.4-11C0.4,0,1.4,0.1,3.3,0.3
					c0.4,0.1,0.8,0.1,0.9,0.1c0.1,0,0.2,0,0.4,0c2-0.1,3.2-0.1,3.4,0.3c0.2,0.5,0.4,11.3,0.4,12.1C8.5,22.2,8.3,22.4,8.2,22.5z"/>
				<path id="Path_2086" class="st2" d="M8.2,22.6l-0.3-0.3l0-0.1c0.1-0.2,0.2-3.3,0.2-9.5c0-1.9-0.2-11.5-0.4-12
					c0,0-0.3-0.2-3.1-0.1c-0.2,0-0.4,0-0.4,0c-0.1,0-0.5,0-0.9-0.1h0C2.3,0.4,1.4,0.4,0.4,0.4C0.3,1,0.6,7.8,0.9,11.2
					C1,12.3,1,14,1,15.8v0c0,2.2,0.1,5.9,0.3,6.1l0.1,0l0,0.1l-0.2,0.3l-0.1,0c-0.4-0.2-0.4-1.7-0.5-6.5v0c0-1.8,0-3.5-0.1-4.5
					c0-0.1-0.8-10.7-0.4-11.1C0.3-0.1,1,0,3.3,0.2c0.4,0,0.8,0.1,0.9,0.1c0.1,0,0.2,0,0.3,0h0.1c2.4-0.1,3.3,0,3.5,0.3
					c0.3,0.5,0.5,11.6,0.5,12.1C8.5,22.3,8.4,22.5,8.2,22.6L8.2,22.6z M8.1,22.3L8.1,22.3c0.1-0.4,0.2-2.5,0.2-9.5
					c0-1.2-0.2-11.6-0.4-12.1C7.7,0.3,5.7,0.4,4.6,0.5l-0.1,0c-0.1,0-0.2,0-0.3,0c-0.1,0-0.5,0-0.9-0.1C1.8,0.2,0.4,0.1,0.2,0.3
					c-0.2,0.4,0.3,9,0.4,11c0.1,1.1,0.1,2.7,0.1,4.5v0c0,3.4,0.1,5.8,0.4,6.2l0,0c-0.2-0.4-0.3-2.5-0.3-6.2v0c0-1.8,0-3.5-0.1-4.5
					C0.5,8.4,0.1,0.8,0.2,0.3l0,0c0.2-0.2,1-0.1,3,0.1h0c0.4,0.1,0.8,0.1,0.9,0.1c0.1,0,0.2,0,0.4,0c3.1-0.1,3.2,0.1,3.3,0.2
					c0.2,0.5,0.4,10.5,0.4,12C8.3,17,8.3,21.6,8.1,22.3L8.1,22.3z"/>
			</g>
			<g id="Group_308" transform="translate(4.499)">
				<path id="Path_2087" class="st2" d="M10,6C9.7,5.9,9.3,5.9,9,5.8C8.5,5.7,8,5.7,7.5,5.7C7,5.7,6,5.7,5.2,5.8c-0.6,0-1,0-1.2,0
					c-0.3,0-0.9,0-1.4,0c-0.4,0-0.7,0-0.8,0c0,0-1.7,0-1.7-0.4c0-0.3,3.8-3.9,5.1-4.9C5.8,0.1,6,0.1,6.1,0.1
					c0.7,0.3,4.3,5.1,4.4,5.6c0,0.1,0,0.1-0.1,0.2C10.3,5.9,10.2,6,10,6z M7.7,5.4c0.5,0,0.9,0.1,1.3,0.2c0.4,0.1,0.8,0.1,1.2,0.1
					C10.2,5.3,6.7,0.6,6,0.3C4.9,1,3.9,1.8,3,2.7c-1,0.8-1.9,1.7-2.7,2.7c0.5,0.1,1,0.2,1.4,0.2c0.1,0,0.4,0,0.8,0
					c0.5,0,1.2,0,1.4,0c0.2,0,0.7,0,1.2,0c0.8,0,1.8,0,2.3-0.1C7.5,5.4,7.6,5.4,7.7,5.4L7.7,5.4z"/>
				<path id="Path_2088" class="st2" d="M10,6.1C9.7,6,9.3,6,8.9,5.9C8.5,5.8,8,5.8,7.5,5.8C7,5.8,6,5.8,5.2,5.8H5.1
					c-0.5,0-1,0-1.1,0c-0.3,0-0.9,0-1.4,0h0c-0.3,0-0.6,0-0.7,0c0,0-1.7,0-1.8-0.5C0,5,4,1.3,5.1,0.5C5.8,0,6,0,6.1,0
					c0.7,0.3,4.4,5.1,4.4,5.7c0,0.1,0,0.2-0.1,0.2C10.3,6,10.2,6.1,10,6.1z M7.6,5.6c0.4,0,0.9,0.1,1.3,0.2c0.8,0.1,1.2,0.2,1.4,0.1
					c0,0,0-0.1,0-0.1c0-0.4-3.7-5.3-4.3-5.5c0,0-0.1-0.1-0.8,0.5C3.4,2.1,1.7,3.7,0.2,5.4c0,0.2,1.1,0.3,1.6,0.3c0.1,0,0.4,0,0.7,0
					h0c0.5,0,1.2,0,1.4,0c0.2,0,0.6,0,1.2,0h0.1c0.8,0,1.8,0,2.3-0.1C7.5,5.6,7.6,5.6,7.6,5.6L7.6,5.6z M10.1,5.8
					C9.7,5.8,9.3,5.8,9,5.7h0C8.5,5.6,8,5.5,7.5,5.5C7,5.6,6,5.6,5.2,5.6H5.1c-0.5,0-1,0-1.2,0c-0.3,0-0.9,0-1.4,0
					c-0.4,0-0.7,0-0.8,0c-0.5,0-1,0-1.5-0.2l-0.1,0l0-0.1C1.1,4.4,2,3.5,3,2.7c0.9-0.9,1.9-1.8,3-2.4h0l0,0c0.7,0.3,4.2,5,4.3,5.5
					l0,0l0,0C10.2,5.8,10.1,5.8,10.1,5.8L10.1,5.8z M7.7,5.4c0.4,0,0.9,0.1,1.3,0.2h0c0.4,0.1,0.7,0.1,1.1,0.1C9,3.8,7.6,2,6,0.4
					C4.9,1.1,4,1.9,3.1,2.8C1.9,3.9,0.8,5,0.5,5.4c0.4,0.1,0.9,0.1,1.3,0.1c0.1,0,0.4,0,0.8,0c0.5,0,1.2,0,1.4,0c0.2,0,0.6,0,1.2,0
					h0.1c0.8,0,1.8,0,2.3-0.1C7.5,5.4,7.6,5.4,7.7,5.4L7.7,5.4z"/>
			</g>
			<g id="Group_309" transform="translate(8.683 5.489)">
				<path id="Path_2089" class="st2" d="M0.3,5.6l-0.2,0c0,0,0.2-2,0.2-2.8V0.1h0.2v2.6C0.5,3.6,0.3,5.5,0.3,5.6z"/>
				<path id="Path_2090" class="st2" d="M0.4,5.7L0,5.6l0-0.1c0-0.2,0.2-2,0.2-2.8V0h0.4v2.7C0.6,3.6,0.4,5.4,0.4,5.7L0.4,5.7z
					 M0.2,5.5L0.2,5.5c0.1-0.4,0.3-2,0.3-2.8V0.2h0v2.5C0.4,3.5,0.2,5.1,0.2,5.5L0.2,5.5z"/>
			</g>
			<g id="Group_310" transform="translate(10.88 5.598)">
				<path id="Path_2091" class="st2" d="M0.3,5.8c0-0.1-0.2-3-0.2-3.8c0-0.4,0.1-0.8,0.1-1.3c0-0.2,0.1-0.4,0.1-0.6h0.2
					c0,0.2,0,0.4-0.1,0.6C0.4,1.1,0.3,1.5,0.3,1.9c0,0.9,0.2,3.8,0.2,3.8L0.3,5.8z"/>
				<path id="Path_2092" class="st2" d="M0.2,5.9L0.2,5.9L0.2,5.9L0.2,5.9C0.2,5.3,0,2.8,0,1.9c0-0.4,0.1-0.9,0.1-1.3
					c0-0.2,0.1-0.4,0.1-0.6V0h0.4v0.1c0,0.2,0,0.4-0.1,0.7C0.4,1.1,0.4,1.5,0.4,1.9c0,0.8,0.2,3.7,0.2,3.8l0,0.1L0.2,5.9z M0.4,0.2
					c0,0.2,0,0.4-0.1,0.5C0.2,1.1,0.2,1.5,0.2,1.9c0,0.8,0.2,3.2,0.2,3.7h0c0-0.5-0.2-3-0.2-3.7c0-0.4,0.1-0.8,0.1-1.2
					C0.4,0.5,0.4,0.4,0.4,0.2L0.4,0.2z"/>
			</g>
			<g id="Group_311" transform="translate(13.069 5.691)">
				<path id="Path_2093" class="st2" d="M0.3,5.6H0.1c0-0.2,0.4-5.3,0.4-5.5l0.2,0C0.6,1.9,0.3,5.4,0.3,5.6z"/>
				<path id="Path_2094" class="st2" d="M0.4,5.7H0V5.6c0-0.2,0.3-3.4,0.4-5.4l0-0.2l0.4,0l0,0.1C0.6,2.6,0.4,5.4,0.4,5.7L0.4,5.7z
					 M0.2,5.5L0.2,5.5C0.3,4.8,0.6,1,0.7,0.2h0v0C0.4,3.2,0.2,5.1,0.2,5.5L0.2,5.5z"/>
			</g>
			<g id="Group_312" transform="translate(6.721 5.707)">
				<rect id="Rectangle_221" x="0.1" y="0.1" class="st2" width="0.2" height="5.3"/>
				<path id="Path_2095" class="st2" d="M0.4,5.4H0V0h0.4V5.4z M0.2,5.3L0.2,5.3l0-5.1h0L0.2,5.3z"/>
			</g>
			<g id="Group_313" transform="translate(9.282 48.081)">
				<path id="Path_2096" class="st2" d="M1.5,6.2c-0.3,0-0.7,0-1-0.2C0.4,6,0.4,5.9,0.4,5.8c0-0.1,0-0.7-0.1-1.3
					C0.1,3.2,0,1.8,0.2,0.5l0,0C0.3,0.3,0.6,0.2,1,0.1c0.6-0.1,1.2,0,1.8,0.2c0.4,1.7,0.5,3.5,0.4,5.3C3.1,5.9,3,6,2.9,6
					C2.5,6.2,2,6.2,1.5,6.2z M0.4,0.6c-0.1,1.3,0,2.6,0.1,3.9c0.1,0.7,0.1,1.2,0.1,1.3c0,0,0,0,0,0C1.3,6,2.1,6,2.8,5.8
					c0.3-0.3,0-5-0.2-5.3C2.1,0.3,1.5,0.3,1,0.3C0.7,0.4,0.4,0.5,0.4,0.6L0.4,0.6z"/>
				<path id="Path_2097" class="st2" d="M1.5,6.3c-0.4,0-0.7,0-1-0.2C0.3,6,0.3,5.9,0.3,5.8c0-0.1,0-0.7-0.1-1.3
					C0,3.2,0,1.8,0.1,0.5l0,0l0,0C0.3,0.2,0.6,0,1,0c0.6-0.1,1.3,0,1.8,0.3c0.4,1.8,0.5,3.6,0.4,5.4C3.1,5.9,3.1,6,3,6.1
					C2.5,6.2,2,6.3,1.5,6.3z M0.2,0.5L0.2,0.5c-0.1,1.3-0.1,2.7,0.1,4c0.1,0.6,0.1,1.2,0.1,1.3c0,0.1,0,0.1,0.1,0.2
					c0.3,0.1,0.6,0.2,0.9,0.2c0.5,0,1-0.1,1.4-0.2C3,5.9,3,5.8,3,5.7c0.1-1.8,0-3.5-0.3-5.2C2.2,0.2,1.6,0.1,1,0.2
					C0.7,0.2,0.4,0.3,0.2,0.5L0.2,0.5z M1.5,6.1c-0.3,0-0.6,0-0.9-0.1c0,0-0.1-0.1-0.1-0.1c0-0.1,0-0.7-0.1-1.3
					c-0.2-1.3-0.2-2.6-0.1-4l0,0C0.4,0.4,0.7,0.3,1,0.2c0.6-0.1,1.1,0,1.7,0.2c0.2,0.3,0.6,5.1,0.2,5.4l0,0C2.4,6,2,6.1,1.5,6.1z
					 M0.7,5.8c0.7,0.2,1.4,0.1,2.1,0C2.9,4,2.8,2.3,2.5,0.5C2,0.4,1.5,0.4,1,0.4c-0.3,0-0.5,0.1-0.6,0.2l0,0c0,1.3,0,2.6,0.1,3.9
					C0.6,5.1,0.7,5.6,0.7,5.8z"/>
			</g>
			<g id="Group_314" transform="translate(9.585 55.794)">
				<path id="Path_2098" class="st2" d="M1.7,6.3c-0.4,0-0.7-0.1-1-0.2C0.4,5.9,0.2,4.5,0.1,3.2c-0.1-1-0.1-2,0.1-3l0,0
					c0.2-0.3,1.5-0.1,2.3,0l0.1,0l0,0.1C2.7,1.2,3,5.5,2.8,5.9C2.6,6.2,2.1,6.3,1.7,6.3L1.7,6.3z M0.4,0.4C0.1,0.9,0.4,5.7,0.8,5.9
					c0.3,0.1,0.7,0.2,1,0.2c0.4,0,0.7-0.1,0.8-0.3c0.1-1.8,0-3.6-0.2-5.3C1.7,0.3,1.1,0.3,0.4,0.4L0.4,0.4z"/>
				<path id="Path_2099" class="st2" d="M1.7,6.4c-0.4,0-0.7-0.1-1.1-0.2C0.5,6.1,0.2,6,0.1,3.2c-0.1-1-0.1-2,0.1-3
					c0.1-0.1,0.2-0.4,2.4,0l0.1,0l0,0.2C2.8,1.6,3.1,5.5,2.9,6C2.7,6.3,2.2,6.4,1.7,6.4L1.7,6.4z M0.8,0.2c-0.3,0-0.5,0-0.5,0.1
					c-0.1,1-0.1,2,0,2.9C0.4,5.7,0.6,6,0.7,6c0.3,0.1,0.7,0.2,1,0.2h0.1c0.5,0,0.8-0.1,0.9-0.3c0.1-1.8,0-3.7-0.2-5.5v0h0
					C1.9,0.3,1.4,0.2,0.8,0.2L0.8,0.2z M1.7,6.2c-0.3,0-0.7,0-1-0.2C0.4,5.7,0,0.9,0.3,0.3l0,0c0.2-0.2,2,0.1,2.1,0.1l0.1,0l0,0.1
					c0,0,0.4,5,0.2,5.4C2.6,6,2.2,6.2,1.7,6.2L1.7,6.2z M0.5,0.4c-0.1,1.8,0,3.6,0.4,5.4C1.1,6,1.4,6,1.7,6h0.1
					c0.4,0,0.7-0.1,0.8-0.2c0.1-1.7,0-3.5-0.2-5.2C1.7,0.4,1.1,0.4,0.5,0.4L0.5,0.4z"/>
			</g>
			<g id="Group_315" transform="translate(10.126 63.305)">
				<path id="Path_2100" class="st2" d="M0.9,6.1c-0.2,0-0.3,0-0.5-0.1C0.2,5.8-0.1,0.7,0.2,0.4l0,0C0.8,0,1.5,0,2.1,0.2
					C2.6,0.5,3,5.4,2.8,5.8c0,0.1-0.1,0.1-0.1,0.1C2.5,6,2.4,6,2.2,6C1.8,6.1,1.3,6.1,0.9,6.1z M0.4,0.5c-0.1,1.8,0,3.6,0.2,5.3
					c0.5,0,1.1,0,1.6-0.1c0.2,0,0.4-0.1,0.4-0.1c0-0.9,0-1.8-0.1-2.7c0-0.9-0.2-1.8-0.5-2.6C1.5,0.2,0.9,0.3,0.4,0.5L0.4,0.5z"/>
				<path id="Path_2101" class="st2" d="M0.9,6.2c-0.2,0-0.4,0-0.5-0.1C0.2,5.2,0.1,4.2,0,3.3c-0.1-1-0.1-2,0.1-2.9
					c0.6-0.4,1.3-0.4,2-0.2C2.8,0.5,3,5.5,2.9,5.8C2.9,6,2.8,6,2.7,6c-0.1,0-0.2,0-0.3,0l-0.2,0C1.8,6.2,1.3,6.2,0.9,6.2z M1.4,0.2
					C1,0.2,0.6,0.3,0.3,0.5C0.1,1.4,0.1,2.3,0.2,3.2c0,0.9,0.1,1.9,0.3,2.8c0,0,0.1,0.1,0.4,0.1C1.3,6,1.8,6,2.2,5.9l0.2,0
					c0.1,0,0.2,0,0.3,0c0,0,0,0,0-0.1c0-0.9,0-1.9-0.1-2.8C2.4,1.1,2.2,0.4,2.1,0.3C1.8,0.2,1.6,0.2,1.4,0.2z M0.8,6
					C0.7,6,0.6,6,0.5,6l0,0C0.2,4.1,0.2,2.3,0.3,0.5l0,0C0.8,0.2,1.5,0.1,2,0.4c0.3,0.9,0.5,1.8,0.5,2.7c0.1,0.9,0.2,1.8,0.1,2.7
					l0,0.1l-0.1,0c-0.1,0-0.2,0-0.4,0.1C1.7,6,1.3,6,0.8,6L0.8,6z M0.6,5.8c0.5,0,1,0,1.5-0.1c0.2,0,0.3,0,0.4-0.1
					c0-0.9,0-1.7-0.1-2.6c0-0.9-0.2-1.7-0.5-2.6c-0.5-0.2-1-0.1-1.5,0.1C0.4,2.4,0.4,4.1,0.6,5.8L0.6,5.8z"/>
			</g>
			<g id="Group_316" transform="translate(5.407 29.936)">
				<path id="Path_2102" class="st2" d="M9.1,3.3L9,3.1c0.6-0.7,1-1.6,1.2-2.5C6.9,0.3,3.6,0.2,0.3,0.4c0.1,0.7,0.3,1.3,0.6,1.9
					C1,2.6,1.1,2.8,1.2,3H1C0.9,2.8,0.8,2.6,0.7,2.5C0.4,1.8,0.2,1.1,0.1,0.4c0-0.1,0-0.3,3.6-0.3c1.5,0,3.2,0,4.4,0.1
					c2.3,0.1,2.3,0.3,2.3,0.4C10.2,1.6,9.8,2.5,9.1,3.3z"/>
				<path id="Path_2103" class="st2" d="M9,3.4L8.9,3.1l0.1,0c0.5-0.7,0.9-1.5,1.1-2.4C6.8,0.4,3.6,0.3,0.4,0.5
					C0.5,1.1,0.7,1.8,1,2.3C1.1,2.5,1.2,2.8,1.3,3v0.1H0.9V3C0.8,2.8,0.8,2.7,0.7,2.5C0.3,1.8,0.1,1.1,0,0.4C0,0.2,0,0,3.7,0
					c1.5,0,3.2,0,4.4,0.1c2.4,0.1,2.4,0.3,2.4,0.5C10.3,1.6,9.8,2.6,9,3.4L9,3.4z M9.1,3.2L9.1,3.2c0.6-0.7,1-1.6,1.2-2.6
					c0-0.1-0.2-0.2-2.2-0.3C6.9,0.2,5.2,0.2,3.7,0.2c-2.8,0-3.5,0.1-3.5,0.2c0.1,0.7,0.3,1.4,0.7,2.1C0.9,2.7,1,2.8,1,2.9h0
					C1,2.8,1,2.6,0.9,2.4c-0.3-0.6-0.5-1.3-0.6-2V0.4l0.1,0c3.3-0.2,6.6-0.2,9.9,0.2l0.1,0l0,0.1C10,1.5,9.6,2.4,9.1,3.2L9.1,3.2z"
					/>
			</g>
			<g id="Group_317" transform="translate(8.225 30.032)">
				<path id="Path_2104" class="st2" d="M0.2,2.9C0.1,2,0.1,1,0.2,0.1l0.2,0C0.3,1,0.3,1.9,0.4,2.8L0.2,2.9z"/>
				<path id="Path_2105" class="st2" d="M0.2,3.1L0.2,3.1C0,2,0,1.1,0.1,0.1l0-0.1l0.4,0l0,0.1C0.4,1,0.4,1.9,0.5,2.8l0,0.1L0.2,3.1
					z M0.3,0.2c-0.1,0.9-0.1,1.8,0,2.6l0,0C0.2,1.9,0.2,1.1,0.3,0.2L0.3,0.2z"/>
			</g>
			<g id="Group_318" transform="translate(12.526 30.115)">
				<path id="Path_2106" class="st2" d="M0.3,2.8l-0.2,0c0.1-0.3,0.1-1.9,0.1-2.7h0.2C0.4,0.2,0.4,2.4,0.3,2.8z"/>
				<path id="Path_2107" class="st2" d="M0.4,3L0,2.9l0-0.1C0.1,2.5,0.1,1,0.1,0.1V0l0.4,0v0.1C0.5,0.7,0.5,2.5,0.4,3L0.4,3z
					 M0.2,2.7L0.2,2.7c0.1-0.4,0.1-1.5,0.2-2.6h0C0.3,0.9,0.3,2.3,0.2,2.7z"/>
			</g>
			<g id="Group_319" transform="translate(9.929 30.095)">
				<path id="Path_2108" class="st2" d="M0.3,3L0.3,3C0.1,2,0.1,1,0.3,0.1l0.2,0C0.3,1,0.3,1.9,0.3,2.8c0,0,0,0-0.1,0L0.3,3z"/>
				<path id="Path_2109" class="st2" d="M0.4,3.1L0.1,3C0,2.9-0.1,2.7,0.2,0.1l0-0.1l0.4,0l0,0.1C0.4,1,0.4,1.9,0.4,2.7l-0.1,0
					L0.4,3.1z M0.3,0.2C0.2,1,0.2,1.8,0.2,2.7v0h0C0.2,1.8,0.3,1,0.3,0.2L0.3,0.2z"/>
			</g>
			<g id="Group_320" transform="translate(5.516 8.527)">
				<path id="Path_2110" class="st2" d="M8.6,2.9H8.4c0.1-0.2,0.2-0.5,0.3-0.7C9,1.7,9.4,0.8,9.4,0.6c0,0,0,0,0,0
					C9,0.4,0.9,0.1,0.3,0.5C0.5,1.1,0.7,1.8,1,2.4L0.8,2.5c-0.3-0.6-0.5-1.3-0.7-2c0-0.1,0-0.1,0.1-0.1c0.7-0.4,8.9-0.2,9.3,0
					c0.1,0,0.1,0.1,0.1,0.2c0.1,0.3-0.2,1-0.7,1.8C8.8,2.5,8.7,2.7,8.6,2.9z"/>
				<path id="Path_2111" class="st2" d="M8.6,2.9l-0.3,0V2.9c0.1-0.3,0.2-0.5,0.3-0.7c0.3-0.5,0.5-1,0.6-1.5c-3-0.2-5.9-0.3-8.9-0.1
					C0.6,1.1,0.8,1.7,1,2.3l0,0.1L0.7,2.6l0-0.1C0.4,1.8,0.1,1.1,0,0.4c0-0.1,0.1-0.2,0.1-0.2C0.6,0,3.6,0,4.9,0
					C6.4,0,8,0.1,9.5,0.3c0.1,0,0.1,0.1,0.2,0.2c0.1,0.3-0.2,1-0.7,1.8C8.9,2.5,8.7,2.8,8.6,2.9L8.6,2.9L8.6,2.9z M8.5,2.8L8.5,2.8
					c0.1-0.1,0.2-0.3,0.3-0.5c0.4-0.8,0.8-1.4,0.7-1.7c0,0,0-0.1-0.1-0.1C9,0.2,0.8,0,0.2,0.4c0,0,0,0,0,0.1
					c0.1,0.7,0.3,1.3,0.6,1.9l0,0C0.6,1.7,0.4,1.1,0.2,0.5V0.4l0,0C0.9,0,9,0.3,9.4,0.5c0,0,0.1,0,0.1,0.1c0.1,0.3-0.3,0.9-0.7,1.7
					C8.7,2.5,8.6,2.7,8.5,2.8z"/>
			</g>
			<g id="Group_321" transform="translate(0.453 45.561)">
				<path id="Path_2112" class="st2" d="M15.1,25.8c-5.9,0-14-0.3-14.6-0.9c-0.6-0.5-0.4-7.9-0.3-12.2C0.4,7.1,0.8,1,1.1,0.6l0,0
					c0-0.1,0.1-0.1,0.4-0.2C3.9,0,17.8-0.1,18.6,0.5c0.7,0.5,1.9,10.4,2.2,12.3c0.6,4.4,1.4,11.9,1,12.5c-0.1,0.1-0.2,0.2-1,0.3
					C19.7,25.7,17.6,25.8,15.1,25.8z M1.2,0.7c-0.5,4-0.8,8-0.8,12c-0.2,7-0.2,11.7,0.2,12c0.7,0.6,13.7,1.1,19,0.8
					c1.7-0.1,2-0.2,2-0.3c0.2-0.4-0.2-5.8-1.1-12.3c-1-7.7-1.8-11.9-2.1-12.2C17.8,0.2,2,0.2,1.2,0.7L1.2,0.7z"/>
				<path id="Path_2113" class="st2" d="M15.1,25.9c-5.5,0-14-0.3-14.7-0.9c-0.6-0.5-0.5-7-0.3-12.3C0.3,7.9,0.7,1,1,0.5
					c0.1-0.1,0.2-0.1,0.5-0.2C4.5,0.1,7.6-0.1,10.6,0c1.7,0,7.5,0.1,8,0.5c0.7,0.5,1.9,9.6,2.2,12.4c0.2,1.2,1.5,11.9,1,12.5
					c-0.1,0.1-0.3,0.2-1.1,0.3C19.8,25.8,17.8,25.9,15.1,25.9z M10.3,0.2C7.3,0.1,4.4,0.2,1.5,0.5c-0.2,0-0.3,0.1-0.3,0.1
					c-0.2,0.3-0.6,5.8-0.8,12C0.1,20,0.1,24.4,0.6,24.8c0.6,0.5,8.1,0.9,14.6,0.9c2.6,0,4.6-0.1,5.6-0.2c0.6-0.1,0.9-0.1,1-0.2
					c0.3-0.4-0.3-6.7-1-12.4C20,7,19,0.9,18.6,0.6C18.2,0.3,14.3,0.2,10.3,0.2L10.3,0.2z M15.2,25.7c-5.9,0-14-0.3-14.6-0.9
					C0,24.2,0.3,15.4,0.4,12.7c0.2-6,0.6-11.6,0.8-12l0,0c0.8-0.6,16.6-0.5,17.4,0c0.4,0.3,1.2,5.2,2.1,12.2
					c0.7,5.7,1.3,11.9,1.1,12.4c-0.7,0.2-1.4,0.3-2.1,0.3C18.5,25.6,17,25.7,15.2,25.7L15.2,25.7z M1.3,0.7c-0.5,4-0.7,7.9-0.8,11.9
					c-0.3,7.9-0.1,11.7,0.2,12c0.6,0.6,13.4,1.1,18.9,0.7c0.7,0,1.3-0.1,1.9-0.3c0.2-0.3-0.2-5.1-1.1-12.3C19.4,4.4,18.7,1,18.4,0.8
					C17.8,0.3,2.3,0.3,1.3,0.7L1.3,0.7z"/>
			</g>
			<g id="Group_322" transform="translate(16.885 4.713)">
				
					<rect id="Rectangle_222" x="0.1" y="0.3" transform="matrix(0.9485 -0.3166 0.3166 0.9485 -9.890977e-02 0.296)" class="st2" width="1.5" height="0.2"/>
				<path id="Path_2114" class="st2" d="M0.1,0.9L0,0.5L1.6,0l0.1,0.4L0.1,0.9z M0.2,0.6L0.2,0.6l1.3-0.4l0,0L0.2,0.6z"/>
			</g>
			<g id="Group_323" transform="translate(17.313 7.312)">
				<rect id="Rectangle_223" x="0.1" y="0.1" class="st2" width="2.4" height="0.2"/>
				<path id="Path_2115" class="st2" d="M2.5,0.4H0V0h2.5V0.4z M0.2,0.2h2.2v0L0.2,0.2L0.2,0.2z"/>
			</g>
			<g id="Group_324" transform="translate(16.54 9.553)">
				
					<rect id="Rectangle_224" x="0.6" y="-0.1" transform="matrix(0.4457 -0.8952 0.8952 0.4457 -4.358016e-02 0.8763)" class="st2" width="0.2" height="1.2"/>
				<path id="Path_2116" class="st2" d="M1.2,0.9L0,0.4L0.2,0l1.2,0.6L1.2,0.9z M0.2,0.3l0.9,0.4l0,0L0.2,0.3L0.2,0.3z"/>
			</g>
			<g id="Group_325" transform="translate(0.568 5.007)">
				<path id="Path_2117" class="st2" d="M1.5,0.9C1,0.7,0.6,0.5,0.1,0.3l0.1-0.2c0.4,0.2,0.9,0.4,1.3,0.6L1.5,0.9z"/>
				<path id="Path_2118" class="st2" d="M1.6,1L1.6,1C1,0.8,0.5,0.6,0.1,0.4L0,0.4L0.2,0l0.1,0c0.4,0.2,0.8,0.4,1.3,0.6l0.1,0L1.6,1
					z M0.2,0.3C0.6,0.5,1,0.7,1.4,0.8l0,0C1,0.6,0.6,0.4,0.2,0.3L0.2,0.3z"/>
			</g>
			<g id="Group_326" transform="translate(0 7.098)">
				<rect id="Rectangle_225" x="0.1" y="0.1" class="st2" width="1.7" height="0.2"/>
				<path id="Path_2119" class="st2" d="M1.9,0.4H0V0h1.9V0.4z M0.2,0.2h1.5v0L0.2,0.2L0.2,0.2z"/>
			</g>
			<g id="Group_327" transform="translate(0.589 9.117)">
				<path id="Path_2120" class="st2" d="M0.2,0.8L0.1,0.6l1.3-0.5l0.1,0.2L0.2,0.8z"/>
				<path id="Path_2121" class="st2" d="M0.1,0.9L0,0.5L1.5,0l0.1,0.4L0.1,0.9z M0.2,0.6L0.2,0.6l1.2-0.4l0,0L0.2,0.6z"/>
			</g>
		</g>
	</g>
	<g id="czołpino" transform="translate(672.037 614.428)">
		<g id="Group_328" transform="translate(2.361 16.914)">
			<path id="Path_2122" class="st2" d="M11.8,45.2c-3.5,0-10.6-0.7-11.6-1.5c-0.1-0.1-0.1-0.1-0.1-0.2l0,0c0-0.5,0.7-12.6,1.3-23.3
				C1.9,12,2.4,4.2,2.4,4c-0.3-0.3-0.6-0.6-1-0.8L1.2,3C1.1,3,1.1,2.7,1,2.2C0.9,1.6,1,0.9,1.2,0.3c0.3-0.4,8.3-0.2,10.8,0
				c1.5,0.1,4,0,6.1,0c3.3-0.1,4.1-0.1,4.2,0.1c0.1,0.8-0.1,1.6-0.3,2.3l0,0.1c-0.1,0.3-0.3,0.5-0.6,0.7C21.2,3.6,21,3.8,20.9,4
				c0.2,1.9,4.4,38.6,3.5,39.8c-0.7,0.9-5.2,1.1-8.7,1.2c-1,0-2,0.1-2.8,0.1C12.6,45.2,12.2,45.2,11.8,45.2z M4.7,0.3
				c-1.1-0.1-2.3,0-3.4,0.2C1.2,1,1.1,1.6,1.2,2.2c0,0.5,0.1,0.7,0.2,0.7L1.5,3c0.6,0.5,1,0.8,1,0.9c0,0.1-0.2,3.7-0.9,16.2
				C1,30.9,0.2,43,0.3,43.5c0,0,0,0.1,0.1,0.1c1,0.9,9.6,1.6,12.6,1.4c0.7-0.1,1.7-0.1,2.8-0.1c3.4-0.1,8-0.3,8.6-1.1
				c0.7-0.9-2.3-29-3.6-39.7v0l0,0c0.2-0.3,0.4-0.5,0.7-0.7c0.2-0.1,0.4-0.4,0.5-0.6l0-0.1c0.3-0.7,0.4-1.4,0.4-2.2
				c-1.4-0.1-2.7-0.1-4.1,0c-2.2,0.1-4.6,0.1-6.1,0C10.1,0.3,7.1,0.3,4.7,0.3z"/>
			<path id="Path_2123" class="st2" d="M11.8,45.3c-3.4,0-10.6-0.6-11.6-1.5C0.1,43.7,0,43.6,0,43.5C0,43,0.7,30.9,1.3,20.3l0-0.2
				C1.8,12.4,2.3,4.5,2.3,4C2,3.7,1.7,3.5,1.4,3.3l-0.1,0L1.2,3.1C1.1,3,1,2.9,0.9,2.2c-0.1-0.7,0-1.4,0.2-2
				C1.6-0.2,10.5,0.1,12,0.2c1.5,0.1,3.9,0,6.1,0h0c3.7-0.1,4.2-0.1,4.3,0.1c0.1,0.2,0.1,0.8-0.3,2.4l0,0.1C22,3,21.8,3.3,21.5,3.4
				C21.3,3.6,21.1,3.8,21,4c0.2,1.9,4.4,38.6,3.5,39.8c-0.7,1-5,1.1-8.8,1.2c-1,0-2,0.1-2.8,0.1C12.6,45.2,12.2,45.3,11.8,45.3z
				 M0.3,43.7c0.8,0.6,4.9,1.1,8.4,1.3C5.2,44.8,1.2,44.2,0.3,43.7L0.3,43.7z M0.3,43.4C0.4,43.5,0.4,43.5,0.3,43.4
				c0.4,0.4,2.6,0.8,5.5,1.1c2.3,0.3,4.7,0.4,7,0.3c0.7-0.1,1.8-0.1,2.8-0.1c3.2-0.1,7.9-0.3,8.5-1.1c0.6-0.8-1.9-24.7-3.6-39.6
				l0-0.1l0,0c0.2-0.3,0.4-0.5,0.7-0.7c0.2-0.1,0.4-0.3,0.5-0.6l0-0.1c0.2-0.7,0.4-1.4,0.4-2.1c-0.3-0.1-2.3,0-4,0
				c-2.2,0.1-4.6,0.1-6.2,0c-1.9-0.1-4.9-0.2-7.3-0.2c-1.1-0.1-2.2,0-3.3,0.1C1.3,1,1.2,1.6,1.3,2.2c0,0.2,0,0.4,0.1,0.6L1.5,3l0,0
				c0.8,0.6,1,0.8,1,1c0,0.1-0.1,1.7-0.9,16.2C1.1,30.3,0.3,43,0.3,43.4L0.3,43.4z M24.3,43.7L24.3,43.7L24.3,43.7L24.3,43.7z
				 M20.9,5.1c0.6,5,2.9,25.6,3.4,34.6C23.9,32,22.1,15.4,20.9,5.1L20.9,5.1z M2.4,4c0,0.2-0.1,2.2-0.3,5.4C2.4,5.5,2.5,4.1,2.4,4
				L2.4,4z M21.9,2.8c-0.1,0.1-0.1,0.2-0.2,0.3C21.8,3,21.8,2.9,21.9,2.8L21.9,2.8z M22.3,0.9C22.2,1.4,22.1,2,22,2.5
				C22.1,2,22.2,1.4,22.3,0.9L22.3,0.9z M14.9,0.4l-0.7,0L14.9,0.4z M1.3,0.3L1.3,0.3L1.3,0.3L1.3,0.3z"/>
		</g>
		<g id="Group_329" transform="translate(7.831 1.264)">
			<path id="Path_2124" class="st2" d="M6.5,4.9c-1.6,0-6.1-0.1-6.4-0.7l0,0c0-0.1,0-0.2,0-0.2c0.5-0.8,5.3-4,6.6-4h0
				c1.1,0.1,5.6,3,6.1,4c0.1,0.1,0.1,0.2,0,0.3c-0.4,0.5-2.7,0.5-5.4,0.6l-0.7,0L6.5,4.9z M0.3,4.2c0.2,0.3,3.9,0.6,6.4,0.5l0.7,0
				c2,0,4.9,0,5.3-0.5c0,0,0-0.1,0-0.1c-0.4-0.9-4.9-3.8-5.9-3.9C5.4,0.6,4.2,1.2,3.1,2C2,2.6,1.1,3.3,0.3,4.2L0.3,4.2z"/>
			<path id="Path_2125" class="st2" d="M6.5,5C6.4,5,0.3,5,0,4.3c0-0.1,0-0.2,0-0.3c0.6-0.8,5.4-4,6.6-4h0c1.2,0.1,5.7,3,6.2,4
				c0.1,0.1,0.1,0.3,0,0.4C12.5,4.9,10.3,5,7.4,5L6.7,5L6.5,5z M11.1,4.7c-1,0.1-2.3,0.1-3.7,0.1l-0.7,0l0,0l0.7,0
				C8.6,4.8,10,4.8,11.1,4.7L11.1,4.7z M2.1,4.6C3,4.7,4,4.8,5,4.8C4,4.8,3,4.7,2.1,4.6L2.1,4.6z M0.4,4.2c2.1,0.4,4.2,0.6,6.3,0.5
				l0.7,0c1.8,0,4.8,0,5.2-0.4c0,0,0,0,0,0c-0.4-0.9-4.8-3.8-5.9-3.8h0c-1.3,0.4-2.5,1-3.6,1.8C2.1,2.7,1.2,3.4,0.4,4.2L0.4,4.2z
				 M6.8,0.2c1.2,0.2,5.3,2.9,5.9,3.8C12.2,3,8.1,0.4,6.8,0.2L6.8,0.2z M3.3,1.8C2.9,2.1,2.4,2.3,2,2.6C2.3,2.4,2.7,2.2,3,2L3.3,1.8
				z M6.7,0.2L6.7,0.2L6.7,0.2L6.7,0.2z"/>
		</g>
		<g id="Group_330" transform="translate(7.942 5.478)">
			
				<rect id="Rectangle_226" x="0.1" y="0.1" transform="matrix(0.9999 -1.144911e-02 1.144911e-02 0.9999 -4.321504e-02 2.717270e-03)" class="st2" width="0.2" height="7.4"/>
			<path id="Path_2126" class="st2" d="M0.1,7.6L0.1,7.6L0,0h0.3v0.1l0.1,7.5L0.1,7.6z"/>
		</g>
		<g id="Group_331" transform="translate(20.421 5.457)">
			
				<rect id="Rectangle_227" x="0.1" y="0.1" transform="matrix(0.9999 -1.199914e-02 1.199914e-02 0.9999 -4.495064e-02 2.878571e-03)" class="st2" width="0.2" height="7.3"/>
			<path id="Path_2127" class="st2" d="M0.1,7.5L0.1,7.5L0,0h0.3v0.1l0.1,7.4H0.1z"/>
		</g>
		<g id="Group_332" transform="translate(3.415 15.091)">
			<path id="Path_2128" class="st2" d="M21.3,2.2l-0.2,0c0.1-0.5,0.2-1.1,0.1-1.6c-0.2-0.1-3.7,0-6.2,0c-1.7,0-3.2,0-3.7,0
				c-0.3,0-0.9,0-1.6-0.1c-2.7-0.1-9-0.3-9.5-0.2c-0.1,0.6-0.1,1.2,0,1.8l-0.2,0c-0.1-0.7-0.1-1.3,0-2C0.3,0,1.8,0,9.8,0.3
				c0.8,0,1.4,0,1.6,0.1c0.5,0,2,0,3.7,0c2.1-0.1,4.2-0.1,6.3,0C21.6,0.5,21.4,1.7,21.3,2.2z"/>
			<path id="Path_2129" class="st2" d="M21.4,2.3l-0.3-0.1l0-0.1c0.1-0.5,0.2-1,0.1-1.6c-0.4-0.1-3.8,0-6,0h-0.1c-1.7,0-3.1,0-3.7,0
				c-0.3,0-0.8,0-1.4,0l-0.2,0C7.4,0.5,1.1,0.2,0.4,0.4c0,0.6,0,1.2,0,1.8l0,0.1l-0.3,0l0-0.1C0,1.5,0,0.8,0.1,0.2
				c0.1-0.2,0.6-0.3,9.7,0c0.8,0,1.4,0,1.6,0.1c0.5,0,1.9,0,3.7,0c5-0.1,6.2,0,6.3,0.1C21.6,0.4,21.6,1.1,21.4,2.3L21.4,2.3z
				 M21.3,2.1L21.3,2.1c0.1-0.4,0.1-0.8,0.1-1.2C21.4,1.3,21.3,1.7,21.3,2.1L21.3,2.1z M0.2,0.3L0.2,0.3C0.1,0.8,0.1,1.4,0.2,2
				C0.2,1.4,0.2,0.9,0.2,0.3L0.2,0.3z M8.8,0.4l0.9,0l0.2,0h0.1l-0.3,0L8.8,0.4z"/>
		</g>
		<g id="Group_333" transform="translate(4.617 19.061)">
			<path id="Path_2130" class="st2" d="M3.3,2.6H2.1V2.5c0,0,0-1.4-0.4-1.9C1.6,0.5,1.5,0.5,1.3,0.4c-0.8,0-1.1,1.4-1.1,1.4l-0.2,0
				c0-0.1,0.3-1.6,1.2-1.6c0.2,0,0.3,0.1,0.4,0.2C2.1,1,2.3,1.7,2.3,2.4h1c0-0.4,0.2-2.1,1.2-2.2c0.2,0,0.4,0,0.5,0.2
				c0.4,0.6,0.6,1.3,0.6,1.9l0.9,0C6.3,1.6,6.4,1,6.6,0.5C6.7,0.4,6.9,0.3,7,0.3c0.8,0,1.1,1.4,1.1,1.7l0.7,0c0-0.6,0.2-1.3,0.6-1.8
				c0.1-0.1,0.3-0.2,0.5-0.2c0.5,0.1,0.5,1.4,0.5,1.8l1.2,0.1c0-0.4,0.2-1.9,1.1-2c0.2,0,0.4,0.1,0.5,0.2c0.4,0.6,0.6,1.2,0.6,1.9
				h0.6c0-0.4,0.2-2,0.8-2.1s1,1.6,1,2l1,0c0-0.7,0.1-2,0.5-2l0,0c0.7,0,0.9,1.6,0.9,1.8l-0.2,0c-0.1-0.4-0.3-1.6-0.8-1.6l0,0
				c-0.3,0.6-0.4,1.3-0.3,2v0.1l-1.3,0l0-0.1c-0.1-0.8-0.5-2-0.9-1.9s-0.6,1.2-0.7,2l0,0.1h-0.9V2.3c0,0,0-1.4-0.5-1.9
				c-0.1-0.1-0.2-0.1-0.4-0.1c-0.8,0-0.9,1.9-0.9,1.9v0.1l-1.5-0.2V2c0-0.7-0.1-1.7-0.3-1.7c-0.1,0-0.3,0-0.4,0.1C9,0.9,9,2.2,9,2.2
				v0.1L8,2.2l0-0.1C7.9,1.7,7.6,0.5,7,0.5c-0.1,0-0.2,0-0.3,0.1C6.4,1,6.6,2.3,6.6,2.3l0,0.1L5.3,2.5V2.4c0,0,0-1.5-0.5-1.9
				C4.7,0.4,4.6,0.3,4.4,0.3C3.5,0.5,3.4,2.5,3.3,2.6L3.3,2.6L3.3,2.6z"/>
			<path id="Path_2131" class="st2" d="M3.5,2.6H2V2.5c0-0.6-0.1-1.3-0.4-1.8C1.5,0.6,1.4,0.5,1.3,0.5c-0.7,0-1,1.3-1,1.3l0,0.1
				L0,1.9l0-0.1c0-0.1,0.3-1.6,1.3-1.6c0.2,0,0.4,0.1,0.5,0.2C2.2,1,2.4,1.6,2.4,2.3h0.8c0.1-0.6,0.3-2.1,1.3-2.2
				c0.2,0,0.4,0,0.6,0.2c0.4,0.6,0.6,1.2,0.6,1.9l0.8,0C6.2,1.6,6.3,1,6.6,0.5C6.7,0.3,6.9,0.2,7,0.2c0.8,0,1.1,1.3,1.2,1.7l0.5,0
				c0-0.6,0.2-1.3,0.6-1.8C9.5,0.1,9.7,0,9.9,0.1c0.5,0.1,0.6,1.1,0.6,1.8l1,0.1c0.1-0.5,0.3-1.9,1.2-2c0.2,0,0.4,0.1,0.5,0.2
				c0.4,0.5,0.6,1.2,0.6,1.9h0.4c0.1-0.7,0.3-2,0.9-2.1h0c0.6,0,1,1.3,1.1,2l0.8,0c0.1-1.4,0.2-2,0.6-2c0.7,0,1,1.5,1,1.8l0,0.1
				l-0.3,0l0-0.1c-0.1-0.6-0.3-1.5-0.7-1.5c-0.2,0.6-0.3,1.2-0.3,1.9l0,0.2l-1.4,0l0-0.1c-0.2-0.9-0.5-1.9-0.8-1.9h0
				c-0.3,0-0.5,1-0.6,1.9l0,0.2h-1.1V2.3c0,0,0-1.4-0.5-1.8c-0.1-0.1-0.2-0.1-0.3-0.1c-0.7,0-0.8,1.7-0.8,1.8l0,0.2l-1.7-0.2l0-0.2
				c0-0.9-0.1-1.6-0.2-1.6c-0.1,0-0.2,0-0.3,0.1C9.1,0.9,9.1,2.2,9.1,2.2v0.2l-1.2,0l0-0.1C7.8,1.6,7.5,0.6,7,0.6
				c-0.1,0-0.1,0-0.2,0.1C6.6,1,6.6,2,6.7,2.3l0,0.2L5.2,2.5V2.4c0-0.4-0.1-1.5-0.5-1.8C4.7,0.4,4.5,0.4,4.4,0.4c-0.8,0.1-1,2-1,2.1
				L3.5,2.6z M3.3,2.5L3.3,2.5L3.3,2.5L3.3,2.5z M2.2,2.5L2.2,2.5L2.2,2.5L2.2,2.5C2.2,2.4,2.2,2.5,2.2,2.5L2.2,2.5z M5.4,2.3
				L5.4,2.3l0.1,0L5.4,2.3L5.4,2.3z M6.5,2.3L6.5,2.3C6.5,2.3,6.5,2.3,6.5,2.3L6.5,2.3z M14.4,2.3L14.4,2.3L14.4,2.3L14.4,2.3z
				 M13.6,2.3L13.6,2.3L13.6,2.3L13.6,2.3z M14.8,0.6c-0.2,0.5-0.3,1-0.3,1.6v0C14.4,1.7,14.6,1.1,14.8,0.6L14.8,0.6z M17.3,2.2
				L17.3,2.2L17.3,2.2z M16.1,2.2L16.1,2.2L16.1,2.2L16.1,2.2z M13.2,0.5c0.3,0.5,0.4,1.1,0.4,1.7C13.6,1.6,13.5,1,13.2,0.5
				L13.2,0.5z M8.9,2.2L8.9,2.2L8.9,2.2z M11.7,2.2L11.7,2.2L11.7,2.2L11.7,2.2L11.7,2.2z M17.4,0.8c-0.1,0.4-0.1,0.9-0.1,1.3v0
				C17.3,1.7,17.3,1.3,17.4,0.8L17.4,0.8z M8.1,2.2L8.1,2.2L8.1,2.2z M11.8,1.3c-0.1,0.2-0.1,0.5-0.1,0.7
				C11.7,1.8,11.7,1.6,11.8,1.3L11.8,1.3z M7.3,0.5C7.8,0.7,8,1.7,8.1,2C8,1.7,7.8,0.7,7.3,0.5L7.3,0.5z M10.2,0.8
				c0.1,0.4,0.1,0.7,0.1,1.1C10.3,1.5,10.3,1.2,10.2,0.8L10.2,0.8z M18.2,0.6c0.2,0.4,0.3,0.8,0.3,1.2l0,0C18.4,1.4,18.3,1,18.2,0.6
				L18.2,0.6z M9.1,1.1C9,1.2,9,1.3,9,1.5C9,1.3,9,1.2,9.1,1.1L9.1,1.1z M6.9,0.4c0,0-0.1,0-0.1,0.1C6.8,0.5,6.8,0.5,6.9,0.4
				L6.9,0.4z M17.7,0.2C17.7,0.2,17.7,0.2,17.7,0.2C17.7,0.2,17.7,0.2,17.7,0.2z"/>
		</g>
		<g id="Group_334" transform="translate(12.497 56.905)">
			<path id="Path_2132" class="st2" d="M0.1,5.1c0-0.1-0.3-3.4,0.9-4.6c0.3-0.3,0.7-0.4,1.1-0.4c1,0.1,1.7,0.9,2,2.5
				C4.2,3.4,4.3,4.2,4.3,5L4.1,5c0,0,0.1-4.6-2.1-4.7c-0.4,0-0.7,0.1-0.9,0.4C0,1.7,0.3,5,0.3,5L0.1,5.1z"/>
			<path id="Path_2133" class="st2" d="M0,5.2L0,5.2c0-0.2-0.3-3.5,0.9-4.7C1.2,0.1,1.7,0,2.1,0c1,0.1,1.7,1,2.1,2.6
				C4.3,3.4,4.4,4.2,4.4,5v0.1H4.3L4,5V5c0,0,0.1-4.5-2-4.6c-0.3,0-0.7,0.1-0.9,0.3C0.1,1.8,0.4,5,0.4,5l0,0.1L0,5.2z M0.9,0.8
				C0.1,2,0.2,4.3,0.2,4.9C0.2,4.3,0.1,2,0.9,0.8L0.9,0.8z"/>
		</g>
		<g id="Group_335" transform="translate(7.023 47.01)">
			<path id="Path_2134" class="st2" d="M1.9,2.6H0.1l0-0.1C0,1.8,0.1,1,0.5,0.4C0.6,0.2,0.8,0.1,1,0.1c0.2,0,0.4,0,0.5,0.2
				C2.1,0.8,1.9,2.4,1.9,2.6L1.9,2.6z M0.3,2.4h1.5c0-0.3,0.1-1.6-0.4-2C1.3,0.3,1.2,0.2,1,0.3c-0.2,0-0.3,0.1-0.4,0.2
				C0.3,1.1,0.2,1.7,0.3,2.4L0.3,2.4z"/>
			<path id="Path_2135" class="st2" d="M2,2.7H0l0-0.2c-0.1-0.8,0-1.5,0.4-2.2C0.6,0.1,0.8,0,1,0c0.2,0,0.4,0.1,0.6,0.2
				C2.2,0.8,2,2.4,2,2.5L2,2.7z M0.4,0.8C0.2,1.3,0.1,1.9,0.2,2.4l0,0C0.1,1.9,0.2,1.3,0.4,0.8L0.4,0.8z M0.4,2.3h1.3
				c0.1-0.6,0-1.3-0.4-1.9C1.3,0.4,1.1,0.3,1,0.3c-0.1,0-0.3,0.1-0.3,0.2C0.4,1.1,0.3,1.7,0.4,2.3L0.4,2.3z M1.7,0.7
				c0.1,0.4,0.2,0.9,0.2,1.4C1.9,1.6,1.8,1.1,1.7,0.7L1.7,0.7z M1.2,0.2C1.2,0.2,1.3,0.2,1.2,0.2C1.3,0.2,1.2,0.2,1.2,0.2L1.2,0.2z"
				/>
		</g>
		<g id="Group_336" transform="translate(20.765 49.562)">
			<path id="Path_2136" class="st2" d="M2,3H0.1V3C0.1,2.7,0,0.1,1,0.1c0.1,0,0.3,0,0.4,0.2C2,0.8,2,2.9,2,3L2,3z M0.3,2.9h1.6
				c0-0.4-0.1-2-0.5-2.5C1.2,0.3,1.1,0.3,1,0.3C0.3,0.3,0.2,2.1,0.3,2.9L0.3,2.9z"/>
			<path id="Path_2137" class="st2" d="M2.1,3.1H0L0,3c0-0.5-0.1-2.9,1-3c0.2,0,0.3,0.1,0.5,0.2C2.1,0.8,2.1,2.9,2.1,3V3.1z
				 M0.7,0.3C0.3,0.6,0.2,1.9,0.2,2.8C0.2,2.4,0.2,0.7,0.7,0.3L0.7,0.3z M0.3,2.8h1.4C1.8,2,1.6,1.1,1.2,0.4C1.2,0.4,1.1,0.3,1,0.3
				C0.5,0.4,0.3,1.8,0.3,2.8L0.3,2.8z M1.8,1.3c0.1,0.5,0.1,0.9,0.1,1.4C1.9,2.3,1.9,1.8,1.8,1.3L1.8,1.3z"/>
		</g>
		<g id="Group_337" transform="translate(6.963 27.567)">
			<path id="Path_2138" class="st2" d="M2.2,3.3H0.1V3.2c0-0.1,0.1-2.4,0.7-3C0.9,0.1,1,0.1,1.1,0.1C2,0.1,2.2,2.9,2.2,3.3L2.2,3.3z
				 M0.3,3.1H2C2,2.2,1.7,0.3,1.1,0.3c-0.1,0-0.2,0-0.2,0.1C0.4,0.8,0.3,2.7,0.3,3.1L0.3,3.1z"/>
			<path id="Path_2139" class="st2" d="M2.3,3.4H0V3.2c0-0.1,0.1-2.4,0.7-3C0.8,0.1,1,0,1.1,0c1,0.1,1.2,2.7,1.2,3.2L2.3,3.4z
				 M0.4,3h1.6C1.8,1.7,1.5,0.4,1.1,0.3C1,0.3,1,0.4,0.9,0.4C0.5,1.2,0.3,2.1,0.4,3L0.4,3z M1.5,0.5C1.9,1.3,2.1,2.1,2.1,3
				C2.1,2.1,1.9,1.3,1.5,0.5z M1.1,0.2c-0.1,0-0.1,0-0.2,0.1C0.9,0.2,1,0.2,1.1,0.2L1.1,0.2z"/>
		</g>
		<g id="Group_338" transform="translate(19.572 30.369)">
			<path id="Path_2140" class="st2" d="M1.9,3.1H0.2l0-0.1c0-0.1-0.2-2.2,0.4-2.8C0.6,0.1,0.8,0.1,1,0.1C2.1,0.3,1.9,3,1.9,3.1
				L1.9,3.1z M0.3,3h1.5c0-0.4,0.1-2.5-0.8-2.7c-0.1,0-0.2,0-0.3,0.1C0.1,0.8,0.3,2.6,0.3,3L0.3,3z"/>
			<path id="Path_2141" class="st2" d="M2,3.2H0.1l0-0.2c0-0.2-0.2-2.3,0.4-2.9C0.6,0,0.8,0,1,0c1.2,0.2,1,2.8,1,3.1L2,3.2z M1.9,2
				c0,0.3,0,0.6,0,1v0C1.9,2.7,1.9,2.3,1.9,2z M0.2,2.1c0,0.3,0,0.6,0,0.9v0C0.2,2.8,0.2,2.4,0.2,2.1L0.2,2.1z M0.4,2.9h1.3
				c0.1-1.1-0.1-2.4-0.7-2.5c-0.1,0-0.2,0-0.3,0.1C0.3,0.8,0.3,1.9,0.4,2.9L0.4,2.9z M0.9,0.2c-0.1,0-0.2,0-0.3,0.1
				C0.7,0.2,0.8,0.2,0.9,0.2L0.9,0.2z"/>
		</g>
		<g id="Group_339" transform="translate(9.195 5.768)">
			
				<rect id="Rectangle_228" x="0.2" y="0.1" transform="matrix(0.999 -4.459582e-02 4.459582e-02 0.999 -0.1581 1.826183e-02)" class="st2" width="0.2" height="6.9"/>
			<path id="Path_2142" class="st2" d="M0.3,7.1L0.3,7.1L0,0l0.3,0v0.1l0.3,7L0.3,7.1z"/>
		</g>
		<g id="Group_340" transform="translate(11.148 6.048)">
			
				<rect id="Rectangle_229" x="-3.1" y="3.4" transform="matrix(2.526964e-02 -0.9997 0.9997 2.526964e-02 -3.228 3.6509)" class="st2" width="6.8" height="0.2"/>
			
				<rect id="Rectangle_230" x="-3.2" y="3.3" transform="matrix(2.399309e-02 -0.9997 0.9997 2.399309e-02 -3.2283 3.6526)" class="st2" width="7" height="0.3"/>
		</g>
		<g id="Group_341" transform="translate(13.291 5.989)">
			
				<rect id="Rectangle_231" x="0.2" y="0.1" transform="matrix(0.9995 -3.207365e-02 3.207365e-02 0.9995 -0.112 1.092948e-02)" class="st2" width="0.2" height="6.8"/>
			<path id="Path_2143" class="st2" d="M0.2,7L0.2,7L0,0l0.3,0v0.1L0.6,7L0.2,7z"/>
		</g>
		<g id="Group_342" transform="translate(15.806 5.995)">
			<rect id="Rectangle_232" x="0.1" y="0.1" class="st2" width="0.2" height="6.7"/>
			<rect id="Rectangle_233" x="0" y="0" class="st2" width="0.3" height="6.9"/>
		</g>
		<g id="Group_343" transform="translate(17.232 5.913)">
			
				<rect id="Rectangle_234" x="0.2" y="0.1" transform="matrix(0.9998 -2.171019e-02 2.171019e-02 0.9998 -7.484898e-02 6.185378e-03)" class="st2" width="0.2" height="6.7"/>
			<path id="Path_2144" class="st2" d="M0.2,6.9L0.2,6.9L0,0l0.3,0v0.1l0.1,6.8L0.2,6.9z"/>
		</g>
		<g id="Group_344" transform="translate(18.454 5.875)">
			
				<rect id="Rectangle_235" x="0.4" y="0.1" transform="matrix(0.997 -7.744988e-02 7.744988e-02 0.997 -0.2677 4.461354e-02)" class="st2" width="0.2" height="6.8"/>
			
				<rect id="Rectangle_236" x="0.3" y="0" transform="matrix(0.997 -7.750209e-02 7.750209e-02 0.997 -0.2679 4.462302e-02)" class="st2" width="0.3" height="6.9"/>
		</g>
		<g id="Group_345" transform="translate(13.791)">
			<path id="Path_2145" class="st2" d="M0.6,1.5c-0.1,0-0.2,0-0.3-0.1C0.2,1.4,0.1,1.2,0.1,0.8c0-0.4,0.2-0.7,0.6-0.7c0,0,0,0,0,0h0
				h0c0.4,0.1,0.8,0.1,0.8,0.6c0,0.5-0.2,0.7-0.8,0.8C0.7,1.5,0.6,1.5,0.6,1.5z M0.7,0.3c-0.1,0-0.5,0.1-0.5,0.5
				c0,0.3,0.1,0.5,0.2,0.5c0.1,0,0.2,0,0.3,0c0.4-0.1,0.6-0.3,0.6-0.6C1.4,0.4,1.2,0.3,0.7,0.3L0.7,0.3z"/>
			<path id="Path_2146" class="st2" d="M0.6,1.6c-0.1,0-0.2,0-0.3-0.1C0.1,1.4,0.1,1.2,0,0.8C0,0.4,0.3,0,0.7,0c0,0,0,0,0,0h0
				c0.4,0.1,0.9,0.1,0.9,0.7c0,0.5-0.3,0.8-0.8,0.9C0.7,1.6,0.6,1.6,0.6,1.6z M0.7,0.3c-0.1,0-0.4,0.1-0.4,0.4c0,0.2,0,0.4,0.1,0.5
				c0,0,0.1,0,0.3,0c0.4-0.1,0.5-0.2,0.5-0.5C1.3,0.5,1.2,0.4,0.7,0.3L0.7,0.3z M0.2,1.2c0,0,0,0.1,0,0.1C0.3,1.2,0.2,1.2,0.2,1.2
				L0.2,1.2z"/>
		</g>
		<g id="Group_346" transform="translate(24.563 4.543)">
			<path id="Path_2147" class="st2" d="M0.2,1.4l0-0.2l4-1.1l0,0.2L0.2,1.4z"/>
			<path id="Path_2148" class="st2" d="M0.1,1.5L0,1.2l0.1,0L4.2,0l0.1,0.3l-0.1,0L0.1,1.5z"/>
		</g>
		<g id="Group_347" transform="translate(26.276 8.637)">
			<rect id="Rectangle_237" x="0.1" y="0.1" class="st2" width="2.4" height="0.2"/>
			<rect id="Rectangle_238" x="0" y="0" class="st2" width="2.6" height="0.3"/>
		</g>
		<g id="Group_348" transform="translate(25.1 10.941)">
			
				<rect id="Rectangle_239" x="1.2" y="-0.5" transform="matrix(0.4559 -0.89 0.89 0.4559 1.403392e-02 1.5861)" class="st2" width="0.2" height="2.6"/>
			
				<rect id="Rectangle_240" x="1.1" y="-0.6" transform="matrix(0.456 -0.89 0.89 0.456 1.413275e-02 1.5858)" class="st2" width="0.3" height="2.8"/>
		</g>
		<g id="Group_349" transform="translate(1.018 4.292)">
			<path id="Path_2149" class="st2" d="M3,1.8C2.6,1.5,0.1,0.3,0.1,0.3l0.1-0.2c1,0.5,2,1,2.9,1.5L3,1.8z"/>
			<path id="Path_2150" class="st2" d="M3,1.9L3,1.9c-1-0.6-2-1.1-3-1.5L0,0.3l0-0.1L0.1,0l0.1,0.1c1,0.4,2,0.9,2.9,1.5l0.1,0.1
				L3,1.9z"/>
		</g>
		<g id="Group_350" transform="translate(0.551 8.304)">
			<path id="Path_2151" class="st2" d="M0.1,0.4l0-0.2l3.2-0.1l0,0.2L0.1,0.4z"/>
			<path id="Path_2152" class="st2" d="M0,0.5l0-0.3h0.1L3.3,0l0,0.3H3.3L0,0.5z M0.2,0.3l3-0.1L0.2,0.3z"/>
		</g>
		<g id="Group_351" transform="translate(0 11.528)">
			
				<rect id="Rectangle_241" x="0" y="0.7" transform="matrix(0.9042 -0.4271 0.4271 0.9042 -0.1992 0.6678)" class="st2" width="2.7" height="0.2"/>
			
				<rect id="Rectangle_242" x="-0.1" y="0.6" transform="matrix(0.9038 -0.4279 0.4279 0.9038 -0.199 0.6692)" class="st2" width="2.9" height="0.3"/>
		</g>
		<g id="Group_352" transform="translate(7.873 12.548)">
			<path id="Path_2153" d="M13.1,4.8L13.1,4.8C13.1,4.8,13,4.7,13.1,4.8L13.1,4.8c0-1.5,0-2.9-0.2-4.3c-0.2-0.3-3.6-0.2-6.3-0.1
				c-1.2,0-2.3,0-3.5,0C2.2,0.2,1.3,0.3,0.4,0.4c-0.3,0.5-0.1,3.1,0,4.1c0,0,0,0.1-0.1,0.1c0,0,0,0,0,0c0,0-0.1,0-0.1-0.1
				c0,0,0,0,0,0c0-0.1-0.3-3.6,0-4.2c0.2-0.3,1.1-0.2,2.8-0.2c1.2,0.1,2.3,0.1,3.5,0c0.1,0,6.2-0.4,6.5,0.1
				C13.2,1.8,13.3,3.2,13.1,4.8C13.2,4.7,13.2,4.8,13.1,4.8C13.1,4.8,13.1,4.8,13.1,4.8z"/>
			<path id="Path_2154" class="st2" d="M13.1,4.8L13.1,4.8c0,0-0.1,0-0.1-0.1c0,0,0-0.1,0-0.1c0.1-1.4,0-2.8-0.1-4.2
				c-2.1-0.2-4.2-0.2-6.3,0c-1.2,0.1-2.3,0-3.5,0c-0.9-0.1-1.7-0.1-2.6,0c-0.2,1.3-0.2,2.7,0,4c0,0,0,0.1,0,0.1
				c-0.1,0.1-0.2,0.1-0.2,0c0,0-0.1-0.1-0.1-0.1c0-0.4-0.3-3.6,0-4.2C0.4,0,1.2,0,3.1,0.1c1.2,0.1,2.3,0.1,3.5,0
				c1.9-0.1,6.3-0.3,6.6,0.2c0.2,1.4,0.2,2.9,0.1,4.3C13.3,4.8,13.2,4.9,13.1,4.8z M13.1,4.7L13.1,4.7L13.1,4.7z M0.2,2.1
				c0,0.8,0.1,1.7,0.1,2.4C0.3,4.2,0.2,3.1,0.2,2.1L0.2,2.1z M13.1,1.9c0,1,0,2.1,0,2.6C13.2,3.6,13.2,2.6,13.1,1.9L13.1,1.9z
				 M13,0.4c0.1,0.3,0.1,0.5,0.1,0.8C13.1,0.9,13.1,0.7,13,0.4L13,0.4z M1.6,0.2c0.3,0,0.6,0,0.9,0C2.2,0.2,1.9,0.2,1.6,0.2z"/>
		</g>
	</g>
</g>
</svg>
