<?xml version="1.0" encoding="utf-8"?>
<!-- Generator: Adobe Illustrator 24.0.3, SVG Export Plug-In . SVG Version: 6.00 Build 0)  -->
<svg version="1.1" id="Layer_1" xmlns="http://www.w3.org/2000/svg" xmlns:xlink="http://www.w3.org/1999/xlink" x="0px" y="0px"
	 viewBox="0 0 303.3 325.4" style="enable-background:new 0 0 303.3 325.4;" xml:space="preserve">
<style type="text/css">
	.st0{fill:#E5A34C;}
	.st1{enable-background:new    ;}
	.st2{fill:#2E3C4B;}
	.st3{fill:#AE4426;}
	.st4{fill:#F2EDEB;}
</style>
<g id="Group_389" transform="translate(-1070.847 -555.866)">
	<g id="CIEKAWOSTKA" transform="translate(1070.847 555.866)">
		<path id="Path_1283" class="st0" d="M12.3,15.2c18.6-23.3,263.3-17,277.2,0s20.1,271.2,4.9,292.1s-268,24-282.1,7.6
			S-6.3,38.4,12.3,15.2z"/>
		<g id="CIEKAWOSTKA-2" transform="translate(86.956 23.543)">
			<g class="st1">
				<path class="st2" d="M4.7,14.6c-0.8-0.3-1.5-0.8-2-1.4c-0.6-0.6-1-1.3-1.4-2c-0.3-0.8-0.5-1.6-0.5-2.5S0.9,7,1.2,6.2
					C1.6,5.4,2,4.8,2.6,4.2c0.6-0.6,1.3-1,2-1.4c0.8-0.3,1.6-0.5,2.5-0.5c1,0,1.8,0.2,2.7,0.6c0.8,0.4,1.6,1,2.3,1.8l-1.3,1.1
					C9.8,4.6,8.5,4,7.1,4C6.5,4,5.9,4.2,5.3,4.4C4.8,4.6,4.3,5,3.8,5.4s-0.8,0.9-1,1.5C2.6,7.5,2.5,8.1,2.5,8.7
					c0,0.6,0.1,1.2,0.4,1.8c0.2,0.6,0.6,1.1,1,1.5c0.4,0.4,0.9,0.8,1.5,1c0.6,0.2,1.2,0.4,1.8,0.4c1.4,0,2.6-0.6,3.7-1.8l1.3,1.1
					c-0.7,0.8-1.4,1.4-2.3,1.8s-1.7,0.6-2.7,0.6C6.2,15.1,5.4,14.9,4.7,14.6z"/>
				<path class="st2" d="M14.3,15V2.4h1.6V15H14.3z"/>
				<path class="st2" d="M18.2,15V2.4h6.9v1.7h-5.3v3.8h3.5v1.6h-3.5v3.8h5.3V15H18.2z"/>
				<path class="st2" d="M33.3,15l-4.1-4.7V15h-1.7V2.4h1.7v4.8l4-4.8h2.2l-5.3,6.4l5.5,6.2H33.3z"/>
				<path class="st2" d="M45.5,15l-1.6-4.4h-4L38.4,15h-1.8L41,2.4h1.9L47.3,15H45.5z M41.9,4.8L40.5,9h2.9L41.9,4.8z"/>
				<path class="st2" d="M58.5,15h-1.7l-2-5.4L53,15h-1.7L46.7,2.3h1.8l3.6,9.9l1.8-5.2l-1.7-4.7h1.8L55.7,7l1.9,5.3l3.5-9.9H63
					L58.5,15z"/>
				<path class="st2" d="M67.8,14.6c-0.8-0.3-1.4-0.8-2-1.4c-0.6-0.6-1-1.3-1.4-2c-0.3-0.8-0.5-1.6-0.5-2.5s0.2-1.7,0.5-2.4
					c0.3-0.8,0.8-1.4,1.4-2c0.6-0.6,1.3-1,2-1.4c0.8-0.3,1.6-0.5,2.4-0.5s1.7,0.2,2.5,0.5c0.8,0.3,1.5,0.8,2,1.4
					c0.6,0.6,1,1.3,1.4,2c0.3,0.8,0.5,1.6,0.5,2.5s-0.2,1.7-0.5,2.5c-0.3,0.8-0.8,1.5-1.4,2c-0.6,0.6-1.3,1-2,1.4
					c-0.8,0.3-1.6,0.5-2.5,0.5S68.6,14.9,67.8,14.6z M68.5,4.5c-0.6,0.2-1.1,0.6-1.5,1S66.2,6.4,66,7c-0.2,0.6-0.4,1.2-0.4,1.8
					c0,0.6,0.1,1.2,0.4,1.8c0.2,0.6,0.6,1.1,1,1.5c0.4,0.4,0.9,0.8,1.5,1s1.2,0.4,1.8,0.4c0.6,0,1.2-0.1,1.8-0.4s1.1-0.6,1.5-1
					c0.4-0.4,0.7-0.9,1-1.5c0.2-0.6,0.4-1.2,0.4-1.8c0-0.6-0.1-1.2-0.4-1.8c-0.2-0.6-0.6-1.1-1-1.5s-0.9-0.8-1.5-1s-1.2-0.4-1.8-0.4
					C69.6,4.1,69,4.2,68.5,4.5z"/>
				<path class="st2" d="M84.7,5c-0.2-0.3-0.5-0.6-0.8-0.8c-0.3-0.2-0.8-0.2-1.3-0.2c-0.9,0-1.5,0.2-1.8,0.6
					c-0.3,0.3-0.5,0.8-0.5,1.4c0,0.4,0.1,0.6,0.2,0.9c0.1,0.2,0.3,0.4,0.5,0.5c0.3,0.2,0.8,0.4,1.5,0.4c0.7,0.1,1.3,0.2,1.8,0.3
					s0.9,0.3,1.3,0.5c0.9,0.6,1.4,1.5,1.4,2.7c0,0.5-0.1,0.9-0.3,1.4s-0.5,0.8-0.8,1.2c-0.4,0.4-0.9,0.7-1.4,0.9
					c-0.6,0.2-1.1,0.3-1.7,0.3c-1.3,0-2.4-0.4-3.2-1.1c-0.7-0.7-1.1-1.6-1.2-2.7l0,0h1.7c0.1,0.7,0.3,1.2,0.7,1.5
					c0.5,0.5,1.2,0.7,2,0.7c0.8,0,1.4-0.2,1.9-0.6c0.5-0.4,0.7-0.8,0.7-1.4c0-0.3,0-0.5-0.1-0.7s-0.2-0.4-0.4-0.5
					c-0.4-0.3-1.2-0.5-2.4-0.6c-1.2-0.1-2.1-0.4-2.7-1c-0.6-0.6-0.9-1.4-0.9-2.5c0-1.1,0.3-2,1-2.6c0.7-0.7,1.7-1.1,3-1.1
					c1.3,0,2.3,0.4,3.1,1.2c0.6,0.7,1,1.6,1.2,2.7h-1.7C85.1,5.8,84.9,5.4,84.7,5z"/>
				<path class="st2" d="M92.7,4v11H91V4h-3.1V2.4h7.8V4H92.7z"/>
				<path class="st2" d="M103.7,15l-4.1-4.7V15h-1.7V2.4h1.7v4.8l4-4.8h2.2l-5.3,6.4l5.5,6.2H103.7z"/>
				<path class="st2" d="M115.8,15l-1.6-4.4h-4l-1.6,4.4H107l4.4-12.6h1.9l4.4,12.6H115.8z M112.3,4.8L110.9,9h2.9L112.3,4.8z"/>
			</g>
		</g>
		<rect id="Rectangle_45" x="140.9" y="45.4" class="st3" width="10.9" height="2.2"/>
		<g id="Group_181" transform="translate(67.908 63.916)">
			<path id="Path_1327" class="st4" d="M10.9,41.2C15.7,28,27,0.8,49,0.3s82.4-2.6,97.8,15.8s18.1,32.7,15.8,61.8
				s-10.1,45.9-19.2,61.3s-48.2,27.3-83.4,26s-60.7-22.2-60-50.7s13-32.3,10.8-44.7S6,54.4,10.9,41.2z"/>
		</g>
		<g class="st1">
			<path class="st2" d="M68.6,252.3v0.6h-5.3v-11.1h0.6v10.5H68.6z"/>
			<path class="st2" d="M77.6,245.3v7.5h-0.5l-0.1-1.9c-0.6,1.2-1.7,2.1-3.1,2.1c-2,0-3.6-1.6-3.6-3.9c0-2.3,1.6-4,3.6-4
				c1.5,0,2.6,0.8,3.2,2.1l0.1-1.9H77.6z M77,249c0-2-1.3-3.4-3.1-3.4c-1.8,0-3.1,1.5-3.1,3.4c0,1.9,1.3,3.4,3.1,3.4S77,251,77,249z
				"/>
			<path class="st2" d="M83.7,245.8h-2v7h-0.6v-7H80v-0.5h1.1V243h0.6v2.3h2V245.8z"/>
			<path class="st2" d="M92.6,245.3v7.5h-0.5l-0.1-1.9c-0.6,1.2-1.7,2.1-3.1,2.1c-2,0-3.6-1.6-3.6-3.9c0-2.3,1.6-4,3.6-4
				c1.5,0,2.6,0.8,3.2,2.1l0.1-1.9H92.6z M92.1,249c0-2-1.3-3.4-3.1-3.4c-1.8,0-3.1,1.5-3.1,3.4c0,1.9,1.3,3.4,3.1,3.4
				S92.1,251,92.1,249z"/>
			<path class="st2" d="M98.8,245.1l-0.1,0.6c-0.2,0-0.3-0.1-0.5-0.1c-1.2,0-2,0.9-2,2.4v4.8h-0.6v-7.5H96l0.1,1.5
				c0.3-0.9,1-1.7,2.1-1.7C98.5,245.1,98.6,245.1,98.8,245.1z"/>
			<path class="st2" d="M106.8,248.4v4.5h-0.6v-4.4c0-2-1-2.9-2.4-2.9c-1.4,0-2.4,1-2.5,2.6v4.6h-0.6v-7.5h0.5l0.1,1.6
				c0.4-1.1,1.4-1.9,2.6-1.9C105.2,245.1,106.8,245.8,106.8,248.4z"/>
			<path class="st2" d="M109.6,242.8c0-0.3,0.2-0.6,0.6-0.6c0.3,0,0.6,0.2,0.6,0.6c0,0.3-0.2,0.6-0.6,0.6
				C109.8,243.3,109.6,243.1,109.6,242.8z M109.8,245.3h0.6v7.5h-0.6V245.3z"/>
			<path class="st2" d="M120.5,245.3v7.5H120l-0.1-1.9c-0.6,1.2-1.7,2.1-3.1,2.1c-2,0-3.6-1.6-3.6-3.9c0-2.3,1.6-4,3.6-4
				c1.5,0,2.6,0.8,3.2,2.1l0.1-1.9H120.5z M120,249c0-2-1.3-3.4-3.1-3.4c-1.8,0-3.1,1.5-3.1,3.4c0,1.9,1.3,3.4,3.1,3.4
				S120,251,120,249z"/>
			<path class="st2" d="M138.6,245.3l-2.9,7.5h-0.5l-2.1-6.8l-2.1,6.8h-0.5l-2.9-7.5h0.6l2.5,6.8l2.1-6.8h0.5l2.1,6.7l2.5-6.7H138.6
				z"/>
			<path class="st2" d="M145.1,252l0.4-0.5c0.5,0.6,0.9,0.9,1.7,0.9c1.1,0,1.8-0.8,1.8-2.2v-8.5h0.6v8.4c0,1.9-1,2.8-2.4,2.8
				C146.2,253,145.6,252.6,145.1,252z"/>
			<path class="st2" d="M159.5,245.3v7.5H159l-0.1-1.9c-0.6,1.2-1.7,2.1-3.1,2.1c-2,0-3.6-1.6-3.6-3.9c0-2.3,1.6-4,3.6-4
				c1.5,0,2.6,0.8,3.2,2.1l0.1-1.9H159.5z M158.9,249c0-2-1.3-3.4-3.1-3.4c-1.8,0-3.1,1.5-3.1,3.4c0,1.9,1.3,3.4,3.1,3.4
				S158.9,251,158.9,249z"/>
			<path class="st2" d="M165.6,245.1l-0.1,0.6c-0.2,0-0.3-0.1-0.5-0.1c-1.2,0-2,0.9-2,2.4v4.8h-0.6v-7.5h0.5l0.1,1.5
				c0.3-0.9,1-1.7,2.1-1.7C165.3,245.1,165.5,245.1,165.6,245.1z"/>
			<path class="st2" d="M166.8,249c0-2.2,1.7-4,3.9-4c2.3,0,3.9,1.8,3.9,4c0,2.2-1.7,3.9-3.9,3.9C168.5,253,166.8,251.2,166.8,249z
				 M174,249c0-1.9-1.4-3.4-3.3-3.4c-1.9,0-3.3,1.5-3.3,3.4c0,1.9,1.4,3.4,3.3,3.4C172.6,252.4,174,250.9,174,249z"/>
			<path class="st2" d="M177,251.4c0.4,0.6,1.1,1.1,2.1,1.1c1.2,0,2-0.6,2-1.6c0-2.4-4.2-0.9-4.2-3.7c0-1.2,1-2.1,2.4-2.1
				c1.1,0,1.8,0.4,2.2,0.8l-0.4,0.4c-0.4-0.4-1-0.7-1.9-0.7c-1.1,0-1.8,0.6-1.8,1.5c0,2.3,4.2,0.9,4.2,3.7c0,1.3-1.1,2.1-2.6,2.1
				c-1.2,0-2.2-0.6-2.6-1.2L177,251.4z"/>
			<path class="st2" d="M186,246.1l-1.1,0.9v5.9h-0.6v-5.4l-1.1,0.8v-0.5l1.1-0.8V241h0.6v5.4l1.1-0.9V246.1z"/>
			<path class="st2" d="M194.8,245.3v7.5h-0.5l-0.1-1.9c-0.6,1.2-1.7,2.1-3.1,2.1c-2,0-3.6-1.6-3.6-3.9c0-2.3,1.6-4,3.6-4
				c1.5,0,2.6,0.8,3.2,2.1l0.1-1.9H194.8z M194.3,249c0-2-1.3-3.4-3.1-3.4c-1.8,0-3.1,1.5-3.1,3.4c0,1.9,1.3,3.4,3.1,3.4
				S194.3,251,194.3,249z"/>
			<path class="st2" d="M207.9,245.3l-2.9,7.5h-0.5l-2.1-6.8l-2.1,6.8h-0.5l-2.9-7.5h0.6l2.5,6.8l2.1-6.8h0.5l2.1,6.7l2.5-6.7H207.9
				z"/>
			<path class="st2" d="M209.4,249c0-2.2,1.5-3.9,3.8-3.9c0.9,0,1.8,0.3,2.4,0.8l-0.4,0.4c-0.5-0.5-1.2-0.7-2-0.7
				c-2,0-3.2,1.5-3.2,3.4c0,1.9,1.2,3.4,3.2,3.4c0.8,0,1.5-0.3,2-0.7l0.4,0.4c-0.7,0.5-1.5,0.8-2.4,0.8
				C210.9,253,209.4,251.2,209.4,249z"/>
			<path class="st2" d="M217.9,249.8v-4.5h0.6v4.5c0,1.7,0.9,2.7,2.4,2.7c1.6,0,2.4-1.1,2.4-2.7v-4.5h0.6v4.5c0,2.6-1.6,3.3-3,3.3
				C219.5,253,217.9,252.3,217.9,249.8z"/>
		</g>
		<g class="st1">
			<path class="st2" d="M47.1,276.4v-0.5c1.4,0.1,2-0.5,2-1.8v-8.9h0.6v8.9C49.7,276.2,48.5,276.6,47.1,276.4z M48.8,262.8
				c0-0.3,0.2-0.6,0.6-0.6c0.3,0,0.6,0.2,0.6,0.6c0,0.3-0.2,0.6-0.6,0.6C49.1,263.3,48.8,263.1,48.8,262.8z"/>
			<path class="st2" d="M53.1,268.9L53.1,268.9c0,2,1.2,3.6,3.2,3.6c1.1,0,2-0.5,2.5-1.1l0.5,0.4c-0.6,0.7-1.7,1.2-2.9,1.2
				c-2.4,0-3.9-1.8-3.9-4c0-2.1,1.5-3.9,3.7-3.9c2.1,0,3.5,1.6,3.5,3.5v0.3H53.1z M53.1,268.4H59c-0.1-1.6-1.2-2.8-2.9-2.8
				S53.3,266.8,53.1,268.4z"/>
			<path class="st2" d="M62,271.4c0.4,0.6,1.1,1.1,2.1,1.1c1.2,0,2-0.6,2-1.6c0-2.4-4.2-0.9-4.2-3.7c0-1.2,1-2.1,2.4-2.1
				c1.1,0,1.8,0.4,2.2,0.8l-0.4,0.4c-0.4-0.4-1-0.7-1.9-0.7c-1.1,0-1.8,0.6-1.8,1.5c0,2.3,4.2,0.9,4.2,3.7c0,1.3-1.1,2.1-2.6,2.1
				c-1.2,0-2.2-0.6-2.6-1.2L62,271.4z"/>
			<path class="st2" d="M72.4,265.8h-2v7h-0.6v-7h-1.1v-0.5h1.1V263h0.6v2.3h2V265.8z"/>
			<path class="st2" d="M82.9,265.1l-0.1,0.6c-0.2,0-0.3-0.1-0.5-0.1c-1.2,0-2,0.9-2,2.4v4.8h-0.6v-7.5h0.5l0.1,1.5
				c0.3-0.9,1-1.7,2.1-1.7C82.6,265.1,82.8,265.1,82.9,265.1z"/>
			<path class="st2" d="M84.1,269c0-2.2,1.7-4,3.9-4c2.3,0,3.9,1.8,3.9,4c0,2.2-1.7,3.9-3.9,3.9C85.8,273,84.1,271.2,84.1,269z
				 M91.3,269c0-1.9-1.4-3.4-3.3-3.4c-1.9,0-3.3,1.5-3.3,3.4c0,1.9,1.4,3.4,3.3,3.4C89.9,272.4,91.3,270.9,91.3,269z M87.2,263.9H87
				l2.2-2.5l0.6,0.1l-1.8,1.8C87.6,263.8,87.5,263.9,87.2,263.9z"/>
			<path class="st2" d="M104.5,265.3l-2.9,7.5h-0.5L99,266l-2.1,6.8h-0.5l-2.9-7.5h0.6l2.5,6.8l2.1-6.8h0.5l2.1,6.7l2.5-6.7H104.5z"
				/>
			<path class="st2" d="M112.6,268.4v4.5H112v-4.4c0-2-1-2.9-2.4-2.9c-1.4,0-2.4,1-2.5,2.6v4.6h-0.6v-7.5h0.5l0.1,1.6
				c0.4-1.1,1.4-1.9,2.6-1.9C111.1,265.1,112.6,265.8,112.6,268.4z"/>
			<path class="st2" d="M115.4,262.8c0-0.3,0.2-0.6,0.6-0.6c0.3,0,0.6,0.2,0.6,0.6c0,0.3-0.2,0.6-0.6,0.6
				C115.7,263.3,115.4,263.1,115.4,262.8z M115.7,265.3h0.6v7.5h-0.6V265.3z"/>
			<path class="st2" d="M119.7,268.9L119.7,268.9c0,2,1.2,3.6,3.2,3.6c1.1,0,2-0.5,2.5-1.1l0.5,0.4c-0.6,0.7-1.7,1.2-2.9,1.2
				c-2.4,0-3.9-1.8-3.9-4c0-2.1,1.5-3.9,3.7-3.9c2.1,0,3.5,1.6,3.5,3.5v0.3H119.7z M119.7,268.4h5.9c-0.1-1.6-1.2-2.8-2.9-2.8
				S119.9,266.8,119.7,268.4z"/>
			<path class="st2" d="M134.3,272.3v0.5h-6v-0.5l5.1-6.6h-4.8v-0.5h5.5v0.5l-5,6.5H134.3z M130.7,262.9c0-0.3,0.3-0.6,0.6-0.6
				c0.3,0,0.6,0.2,0.6,0.6s-0.3,0.6-0.6,0.6C131,263.5,130.7,263.2,130.7,262.9z"/>
			<path class="st2" d="M145,265.1l-0.1,0.6c-0.2,0-0.3-0.1-0.5-0.1c-1.2,0-2,0.9-2,2.4v4.8h-0.6v-7.5h0.5l0.1,1.5
				c0.3-0.9,1-1.7,2.1-1.7C144.7,265.1,144.8,265.1,145,265.1z"/>
			<path class="st2" d="M153.5,265.3v7.5H153l-0.1-1.9c-0.6,1.2-1.7,2.1-3.1,2.1c-2,0-3.6-1.6-3.6-3.9c0-2.3,1.6-4,3.6-4
				c1.5,0,2.6,0.8,3.2,2.1l0.1-1.9H153.5z M153,269c0-2-1.3-3.4-3.1-3.4c-1.8,0-3.1,1.5-3.1,3.4c0,1.9,1.3,3.4,3.1,3.4
				S153,271,153,269z"/>
			<path class="st2" d="M163.3,261v11.8h-0.5l-0.1-1.9c-0.6,1.2-1.7,2.1-3.1,2.1c-2,0-3.6-1.6-3.6-3.9c0-2.3,1.6-4,3.6-4
				c1.5,0,2.6,0.8,3.1,2V261H163.3z M162.8,269c0-2-1.3-3.4-3.1-3.4c-1.8,0-3.1,1.5-3.1,3.4c0,1.9,1.3,3.4,3.1,3.4
				S162.8,271,162.8,269z"/>
			<path class="st2" d="M166.2,262.8c0-0.3,0.2-0.6,0.6-0.6s0.6,0.2,0.6,0.6c0,0.3-0.2,0.6-0.6,0.6S166.2,263.1,166.2,262.8z
				 M166.4,265.3h0.6v7.5h-0.6V265.3z"/>
			<path class="st2" d="M169.8,269c0-2.2,1.7-4,3.9-4c2.3,0,3.9,1.8,3.9,4c0,2.2-1.7,3.9-3.9,3.9C171.4,273,169.8,271.2,169.8,269z
				 M177,269c0-1.9-1.4-3.4-3.3-3.4c-1.9,0-3.3,1.5-3.3,3.4c0,1.9,1.4,3.4,3.3,3.4C175.6,272.4,177,270.9,177,269z"/>
			<path class="st2" d="M180.2,261h0.6v11.8h-0.6V261z"/>
			<path class="st2" d="M190.7,265.3v7.5h-0.5l-0.1-1.9c-0.6,1.2-1.7,2.1-3.1,2.1c-2,0-3.6-1.6-3.6-3.9c0-2.3,1.6-4,3.6-4
				c1.5,0,2.6,0.8,3.2,2.1l0.1-1.9H190.7z M190.2,269c0-2-1.3-3.4-3.1-3.4c-1.8,0-3.1,1.5-3.1,3.4c0,1.9,1.3,3.4,3.1,3.4
				S190.2,271,190.2,269z"/>
			<path class="st2" d="M196.8,265.8h-2v7h-0.6v-7h-1.1v-0.5h1.1V263h0.6v2.3h2V265.8z"/>
			<path class="st2" d="M205.8,265.3v7.5h-0.5l-0.1-1.9c-0.6,1.2-1.7,2.1-3.1,2.1c-2,0-3.6-1.6-3.6-3.9c0-2.3,1.6-4,3.6-4
				c1.5,0,2.6,0.8,3.2,2.1l0.1-1.9H205.8z M205.2,269c0-2-1.3-3.4-3.1-3.4c-1.8,0-3.1,1.5-3.1,3.4c0,1.9,1.3,3.4,3.1,3.4
				S205.2,271,205.2,269z"/>
			<path class="st2" d="M211.9,265.1l-0.1,0.6c-0.2,0-0.3-0.1-0.5-0.1c-1.2,0-2,0.9-2,2.4v4.8h-0.6v-7.5h0.5l0.1,1.5
				c0.3-0.9,1-1.7,2.1-1.7C211.6,265.1,211.8,265.1,211.9,265.1z"/>
			<path class="st2" d="M219.9,268.4v4.5h-0.6v-4.4c0-2-1-2.9-2.4-2.9c-1.4,0-2.4,1-2.5,2.6v4.6h-0.6v-7.5h0.5l0.1,1.6
				c0.4-1.1,1.4-1.9,2.6-1.9C218.4,265.1,219.9,265.8,219.9,268.4z"/>
			<path class="st2" d="M222.7,262.8c0-0.3,0.2-0.6,0.6-0.6s0.6,0.2,0.6,0.6c0,0.3-0.2,0.6-0.6,0.6S222.7,263.1,222.7,262.8z
				 M222.9,265.3h0.6v7.5h-0.6V265.3z"/>
			<path class="st2" d="M233.8,275.3c-0.7,0.4-1.5,0.3-1.8-0.3c-0.3-0.6,0.1-1.5,1.2-2.2l-0.1-1.9c-0.6,1.2-1.7,2.1-3.1,2.1
				c-2,0-3.6-1.6-3.6-3.9c0-2.3,1.6-4,3.6-4c1.5,0,2.6,0.8,3.2,2.1l0.1-1.9h0.5v7.5h0l-0.3,0.2c-1.7,1-1.1,2.6,0.3,1.9L233.8,275.3z
				 M233.1,269c0-2-1.3-3.4-3.1-3.4c-1.8,0-3.1,1.5-3.1,3.4c0,1.9,1.3,3.4,3.1,3.4S233.1,271,233.1,269z"/>
			<path class="st2" d="M236.6,274.4c0.8-0.4,1.1-1.2,1-1.6c-0.4,0.2-0.8-0.1-0.8-0.5c0-0.3,0.2-0.6,0.6-0.6c0.5,0,0.8,0.5,0.7,1.1
				c-0.1,0.6-0.4,1.5-1.4,1.9L236.6,274.4z"/>
		</g>
		<g class="st1">
			<path class="st2" d="M64.3,288.9L64.3,288.9c0,2,1.2,3.6,3.2,3.6c1.1,0,2-0.5,2.5-1.1l0.5,0.4c-0.6,0.7-1.7,1.2-2.9,1.2
				c-2.4,0-3.9-1.8-3.9-4c0-2.1,1.5-3.9,3.7-3.9c2.1,0,3.5,1.6,3.5,3.5v0.3H64.3z M64.3,288.4h5.9c-0.1-1.6-1.2-2.8-2.9-2.8
				S64.5,286.8,64.3,288.4z"/>
			<path class="st2" d="M83.8,288.4v4.5h-0.6v-4.5c0-1.7-0.7-2.8-2.2-2.8c-1.3,0-2.1,1-2.2,2.8v4.4h-0.6v-4.6c0-1.6-0.8-2.7-2.2-2.7
				c-1.2,0-2.1,1.1-2.2,2.7v4.5h-0.6v-7.5h0.5l0.1,1.6c0.4-1.2,1.3-1.8,2.3-1.8c0.9,0,2.1,0.5,2.5,2c0.4-1.3,1.2-2,2.5-2
				C82.5,285.1,83.8,285.8,83.8,288.4z"/>
			<path class="st2" d="M86.6,282.8c0-0.3,0.2-0.6,0.6-0.6c0.3,0,0.6,0.2,0.6,0.6c0,0.3-0.2,0.6-0.6,0.6
				C86.9,283.3,86.6,283.1,86.6,282.8z M86.9,285.3h0.6v7.5h-0.6V285.3z"/>
			<path class="st2" d="M93.9,285.8h-2v7h-0.6v-7h-1.1v-0.5h1.1V283h0.6v2.3h2V285.8z"/>
			<path class="st2" d="M96.1,289.8v-4.5h0.6v4.5c0,1.7,0.9,2.7,2.4,2.7c1.6,0,2.4-1.1,2.4-2.7v-4.5h0.6v4.5c0,2.6-1.6,3.3-3,3.3
				C97.8,293,96.1,292.3,96.1,289.8z"/>
			<path class="st2" d="M103.8,296.4v-0.5c1.4,0.1,2-0.5,2-1.8v-8.9h0.6v8.9C106.3,296.2,105.1,296.6,103.8,296.4z M105.5,282.8
				c0-0.3,0.2-0.6,0.6-0.6c0.3,0,0.6,0.2,0.6,0.6c0,0.3-0.2,0.6-0.6,0.6C105.7,283.3,105.5,283.1,105.5,282.8z"/>
			<path class="st2" d="M109.7,288.9L109.7,288.9c0,2,1.2,3.6,3.2,3.6c1.1,0,2-0.5,2.5-1.1l0.5,0.4c-0.6,0.7-1.7,1.2-2.9,1.2
				c-2.4,0-3.9-1.8-3.9-4c0-2.1,1.5-3.9,3.7-3.9c2.1,0,3.5,1.6,3.5,3.5v0.3H109.7z M109.7,288.4h5.9c-0.1-1.6-1.2-2.8-2.9-2.8
				S109.9,286.8,109.7,288.4z"/>
		</g>
		<g class="st1">
			<path class="st2" d="M126.3,283.7v1.2h2v1.6h-2v6.4h-2v-6.4H123v-1.6h1.2v-1.1c0-2.1,1.3-3.1,2.7-3.1c0.7,0,1.3,0.2,2,0.6
				l-0.6,1.5c-0.5-0.2-0.8-0.3-1-0.3C126.6,282.5,126.3,282.9,126.3,283.7z"/>
			<path class="st2" d="M138,284.9v8h-1.7l-0.3-1c-0.6,0.7-1.5,1.2-2.7,1.2c-2.1,0-3.7-1.5-3.7-4.2s1.6-4.2,3.7-4.2
				c1.2,0,2.1,0.5,2.7,1.2l0.3-1H138z M136.1,288.8c0-1.4-0.9-2.4-2.2-2.4c-1.3,0-2.1,1-2.1,2.4s0.9,2.4,2.1,2.4
				C135.2,291.3,136.1,290.3,136.1,288.8z"/>
			<path class="st2" d="M140.6,281h2.1v11.8h-2.1V281z"/>
			<path class="st2" d="M153,289.4h-6.1c0.2,1.3,0.9,2.1,2.3,2.1c0.8,0,1.4-0.3,1.9-0.8l1.4,1.1c-0.8,0.8-1.9,1.2-3.3,1.2
				c-2.7,0-4.4-1.8-4.4-4.2c0-2.4,1.8-4.2,4.2-4.2c2.4,0,4,1.6,4,4.1V289.4z M147,288h4c-0.2-1.1-0.9-1.8-2-1.8
				C147.9,286.2,147.2,286.9,147,288z"/>
			<path class="st2" d="M164.8,284.8l-0.3,2c-0.2-0.1-0.5-0.1-0.7-0.1c-1.2,0-1.9,0.8-1.9,2.3v3.9h-2.1v-8h1.8l0.2,1.1
				c0.5-0.7,1.2-1.3,2.1-1.3C164.3,284.7,164.5,284.7,164.8,284.8z"/>
			<path class="st2" d="M173.9,284.9v8h-1.7l-0.3-1c-0.6,0.7-1.5,1.2-2.7,1.2c-2.1,0-3.7-1.5-3.7-4.2s1.6-4.2,3.7-4.2
				c1.2,0,2.1,0.5,2.7,1.2l0.3-1H173.9z M172,288.8c0-1.4-0.9-2.4-2.2-2.4c-1.3,0-2.1,1-2.1,2.4s0.9,2.4,2.1,2.4
				C171.1,291.3,172,290.3,172,288.8z"/>
			<path class="st2" d="M184.2,281v11.8h-1.7l-0.2-1c-0.6,0.7-1.5,1.2-2.7,1.2c-2.1,0-3.7-1.5-3.7-4.2s1.6-4.2,3.7-4.2
				c1.1,0,1.9,0.4,2.5,1V281H184.2z M182.4,288.8c0-1.4-0.9-2.4-2.2-2.4c-1.3,0-2.1,1-2.1,2.4s0.9,2.4,2.1,2.4
				C181.5,291.3,182.4,290.3,182.4,288.8z"/>
			<path class="st2" d="M186.8,282.4c0-0.7,0.6-1.2,1.2-1.2c0.7,0,1.2,0.5,1.2,1.2c0,0.7-0.6,1.2-1.2,1.2
				C187.3,283.5,186.8,283,186.8,282.4z M187,284.9h2.1v8H187V284.9z"/>
			<path class="st2" d="M191.4,288.9c0-2.4,1.8-4.2,4.3-4.2c2.6,0,4.3,1.8,4.3,4.2c0,2.4-1.8,4.2-4.3,4.2
				C193.2,293.1,191.4,291.3,191.4,288.9z M197.9,288.9c0-1.4-0.9-2.5-2.2-2.5c-1.3,0-2.2,1-2.2,2.5c0,1.4,0.9,2.4,2.2,2.4
				C197,291.3,197.9,290.3,197.9,288.9z"/>
			<path class="st2" d="M213.9,284.9l-3,8h-1.7l-1.6-5.6l-1.7,5.6h-1.7l-3-8h2.2l1.7,5.3l1.6-5.3h1.7l1.6,5.3l1.7-5.3H213.9z"/>
			<path class="st2" d="M223.2,289.4h-6.1c0.2,1.3,0.9,2.1,2.3,2.1c0.8,0,1.4-0.3,1.9-0.8l1.4,1.1c-0.8,0.8-1.9,1.2-3.3,1.2
				c-2.7,0-4.4-1.8-4.4-4.2c0-2.4,1.8-4.2,4.2-4.2c2.4,0,4,1.6,4,4.1V289.4z M217.2,288h4c-0.2-1.1-0.8-1.8-2-1.8
				C218.1,286.2,217.4,286.9,217.2,288z"/>
		</g>
	</g>
	<g id="jarosławiec" transform="translate(1195.189 641.888)">
		<path id="Path_2155" class="st2" d="M19.6,127.6c-2.8,0-5.1-0.3-5.6-1.3l0,0c-0.5-1-1.1-7.6-1.7-14.8c-0.1-1-0.2-1.8-0.2-2.5
			c-0.8-9-0.8-14.1,0-15.2s5-1.1,8.4-1.1c1.3,0,2.4,0,3,0c2.1-0.2,10.5-0.4,11.7,0.6c1.2,1,1.3,10.9,1.3,12.9c0,0.7,0.1,2.2,0.1,4
			c0.3,7.6,0.5,15.1-0.1,16.2c-0.7,1.2-4.4,1.2-8.2,1c-0.6,0-1.1,0-1.5,0c-0.4,0-1,0-1.9,0.1C23,127.5,21.2,127.6,19.6,127.6z
			 M14.3,126.2c0.7,1.5,7.3,1.1,10.5,0.9c0.8-0.1,1.5-0.1,1.9-0.1c0.4,0,0.9,0,1.5,0c2.5,0.1,7.2,0.3,7.9-0.8
			c0.6-1.1,0.3-10.8,0.1-16c-0.1-1.9-0.1-3.4-0.1-4.1c0-4.7-0.3-11.9-1.2-12.6c-1-0.8-8.7-0.7-11.4-0.5c-0.7,0.1-1.8,0.1-3.1,0
			c-2.9,0-7.3-0.1-8,0.9c-0.4,0.6-1,3.3,0,15c0.1,0.7,0.1,1.6,0.2,2.5C13,116.6,13.8,125.1,14.3,126.2L14.3,126.2z"/>
		<path id="Path_2156" class="st2" d="M12.8,93.4c-0.2-0.7-0.6-7.2-0.8-13.7c-0.2-5.9-0.2-13.1,0.5-14.3c0.8-1.4,12.3-1.8,17.6-1.5
			c3.5,0.2,3.7,0.7,3.7,0.9c0.8,1.7,1.5,27,0.8,28.2l-0.3-0.2c0.6-1-0.2-26.3-0.8-27.8c0,0-0.3-0.4-3.4-0.7
			c-7-0.5-16.7,0.4-17.2,1.3c-0.5,0.9-0.7,6-0.4,14.1c0.2,6.4,0.6,12.9,0.8,13.6L12.8,93.4z"/>
		<path id="Path_2157" class="st2" d="M13.3,65.2c-0.4-0.8,0.1-9.4,0.3-12c0.3-5.3,0.9-11.5,1.2-12.5c0.1-0.2,0.2-0.3,0.4-0.4
			c2.3-1,15.5-0.1,16.3,0.3c1,0.5,1.5,23.8,1.4,24.1l-0.4,0c0-1.3-0.5-22.8-1.3-23.7c-0.7-0.4-13.8-1.1-16-0.2
			c-0.2,0.1-0.2,0.1-0.2,0.1c-0.7,2.1-2,23.2-1.5,24.3L13.3,65.2z"/>
		<path id="Path_2158" class="st2" d="M31.2,40.7l-0.4,0c0.2-1.5-0.4-18.1-1.9-19.1c-1.9-1.2-11-1.7-11.5-0.9
			c-0.8,1.3-1.7,18.3-1.5,19.7l-0.4,0.1c-0.3-1.5,0.6-18.6,1.5-19.9c0.8-1.1,10.4-0.2,12.1,0.8C30.9,22.4,31.3,39.3,31.2,40.7z"/>
		<path id="Path_2159" class="st2" d="M29.4,21.8L29,21.6c0.9-1.2,1.8-2.3,2.8-3.4c0.2-0.1,0.1-1.6,0-2c-1.1-0.2-16.3-0.2-17.1,0
			c0,0.4,0,0.8,0.1,1.2c0,0.2,0,0.3,0.1,0.5c0.7,1,1.5,2,2.3,2.9L16.9,21c-0.9-1-2.4-2.7-2.4-3.1c0-0.2,0-0.3-0.1-0.5
			c-0.1-0.8-0.2-1.4,0.1-1.6c0.4-0.3,16.4-0.3,17.4-0.1c0.1,0,0.1,0.1,0.2,0.1c0.2,0.3,0.4,2.3-0.1,2.6
			C31.1,19.5,30.2,20.6,29.4,21.8z"/>
		<path id="Path_2160" class="st2" d="M28.8,18.1L28.4,18c0.2-0.7,0.5-8.4-0.3-9.1c-0.9-0.8-9.2-0.3-9.7,0.2
			c-0.2,2.9-0.3,5.8-0.1,8.6l-0.4,0c0-0.1-0.2-8.3,0.2-8.9c0.1-0.1,0.3-0.3,1.4-0.5c2.4-0.4,8-0.6,8.8,0.2
			C29.4,9.5,28.9,17.7,28.8,18.1z"/>
		<path id="Path_2161" class="st2" d="M17.2,9.4c-0.3,0-0.5,0-0.7-0.2c-0.1-0.1-0.1-0.2,0-0.3c0.3-0.7,5.4-6.6,6.2-6.7h0
			c0.9,0,7.5,5.8,7.8,6.3l0.1,0.1l-0.1,0.1c-0.1,0.1-0.2,0.3-3-0.1l0.1-0.4c0.8,0.1,1.6,0.2,2.5,0.2c-1-1.1-6.7-5.9-7.3-6
			C22.2,2.8,17.3,8,16.9,9c0.5,0,0.9,0,1.4-0.1l0.1,0.4C17.9,9.3,17.6,9.4,17.2,9.4z"/>
		<path id="Path_2162" class="st2" d="M22.5,2.7c-0.1,0-0.2,0-0.3-0.1c-0.5-0.3-0.8-0.7-1-1.3c-0.1-0.4,0.1-0.8,0.4-1.1
			C21.8,0,22.1,0,22.3,0l0,0c0.7,0.1,1.2,0.6,1.3,1.3c0.1,0.5-0.1,1-0.6,1.1c-0.1,0-0.2,0.1-0.2,0.1C22.7,2.6,22.6,2.7,22.5,2.7z
			 M22.2,0.4c-0.1,0-0.2,0-0.3,0.1c-0.2,0.2-0.3,0.5-0.3,0.8c0.1,0.4,0.4,0.8,0.7,1c0.1,0,0.2,0.1,0.3,0c0.1-0.1,0.2-0.1,0.3-0.2
			c0.3-0.2,0.5-0.3,0.4-0.7c-0.1-0.6-0.4-0.8-1-1l0,0C22.2,0.4,22.2,0.4,22.2,0.4L22.2,0.4z"/>
		<path id="Path_2163" class="st2" d="M31.9,18.5c-1-0.4-12.8-0.5-17.2-0.4v-0.4c0.7,0,16.1,0,17.4,0.5L31.9,18.5z"/>
		<path id="Path_2164" class="st2" d="M15.6,18c-0.2,0-0.3,0-0.4-2.1l0.4,0c0,0.6,0.1,1.2,0.2,1.9l-0.2,0.1V18z"/>
		<path id="Path_2165" class="st2" d="M16.4,17.9c0-0.7,0-1.3,0-2l0.4,0c0,0.6,0,1.3,0,1.9L16.4,17.9z"/>
		<rect id="Rectangle_243" x="18.8" y="15.9" class="st2" width="0.4" height="2"/>
		
			<rect id="Rectangle_244" x="19.1" y="16.7" transform="matrix(0.108 -0.9941 0.9941 0.108 1.1522 35.0116)" class="st2" width="2" height="0.4"/>
		<rect id="Rectangle_245" x="22.3" y="15.8" class="st2" width="0.4" height="2.3"/>
		<rect id="Rectangle_246" x="23.3" y="15.8" class="st2" width="0.4" height="2.1"/>
		<rect id="Rectangle_247" x="25.8" y="15.8" class="st2" width="0.4" height="2.2"/>
		<rect id="Rectangle_248" x="27.1" y="15.8" class="st2" width="0.4" height="2.3"/>
		<rect id="Rectangle_249" x="29.6" y="15.9" class="st2" width="0.4" height="2.2"/>
		<rect id="Rectangle_250" x="30.8" y="15.9" class="st2" width="0.4" height="2.4"/>
		<path id="Path_2166" class="st2" d="M21.3,17.9l-0.4-0.1l0.3-2.1l-0.3-7.2l0.4,0l0.3,7.2L21.3,17.9z"/>
		<rect id="Rectangle_251" x="24.7" y="8.6" class="st2" width="0.4" height="9.5"/>
		<path id="Path_2167" class="st2" d="M6.2,127.7c-0.4,0-0.9,0-1.3-0.1c-0.3,0-0.5-0.2-0.7-0.4c-0.6-1.1-1.8-27-1.3-27.7
			s8.3-1.3,8.7-1.1c0.1,0,0.2,0.1,0.2,0.2h-0.4h0.2l-0.1,0.2c-0.5-0.2-7.7,0.5-8.3,1c-0.3,1.4,0.9,26.4,1.4,27.3
			c0,0,0.1,0.1,0.4,0.2c2,0.5,8.5-0.8,9-1.2l0.2,0.3C13.7,126.8,8.9,127.7,6.2,127.7z"/>
		<path id="Path_2168" class="st2" d="M1.9,99.9c-0.8,0-1.8-0.1-1.9-0.6C-0.1,98.8,1,95.6,2,93c0.7-2.1,1.5-4.1,2.5-6.1
			c0.4-0.5,6.3-0.8,8-0.8l0,0.4c-3.6,0.1-7.4,0.4-7.8,0.7c-0.4,0.5-4.5,11.2-4.3,12c0.1,0.3,1.5,0.4,2.7,0.3l0,0.4
			C2.7,99.9,2.3,99.9,1.9,99.9z"/>
		<path id="Path_2169" class="st2" d="M6.2,113.3c-0.1,0-0.3,0-0.4-0.1l-0.1,0l0-0.1c-0.8-7.1-0.7-7.3-0.6-7.4
			c0.1-0.1,0.2-0.3,4.2-0.4l0.2,0l0,0.2c0.1,0.6,0.6,6.3,0.5,6.8c0,0.2-0.2,0.3-0.4,0.4C8.6,113,7.4,113.2,6.2,113.3z M6.1,112.9
			c0.6,0.1,3.4-0.5,3.6-0.8c0-0.3-0.3-4-0.5-6.5c-1.2,0-2.5,0.1-3.7,0.3C5.4,106.6,5.8,110.4,6.1,112.9z"/>
		<path id="Path_2170" class="st2" d="M5.1,105.8c-0.2-1,0-2,0.4-2.8c0.3-0.3,0.6-0.5,1.1-0.6c2-0.2,2.9,2.8,3,2.9l-0.4,0.1
			c0,0-0.9-2.8-2.6-2.7c-0.3,0-0.6,0.2-0.8,0.4c-0.4,0.8-0.5,1.7-0.3,2.5L5.1,105.8z"/>
		
			<rect id="Rectangle_252" x="7.4" y="105.4" transform="matrix(0.9964 -8.430394e-02 8.430394e-02 0.9964 -9.1757 1.0286)" class="st2" width="0.4" height="7.5"/>
		
			<rect id="Rectangle_253" x="5.5" y="109" transform="matrix(0.9988 -4.799268e-02 4.799268e-02 0.9988 -5.2306 0.49)" class="st2" width="4.2" height="0.4"/>
		<path id="Path_2171" class="st2" d="M25,120.3c-0.6,0-1.1,0-1.7-0.2l0,0c-0.3-0.2-0.1-2.7,0.3-3.9c0.3-0.9,0.7-1.3,1.1-1.3
			c0.3,0,0.6,0.2,0.8,0.5c0.6,1.5,0.9,3,0.7,4.6c-0.1,0.1-0.2,0.2-0.3,0.2C25.7,120.3,25.3,120.3,25,120.3z M23.6,119.8
			c0.8,0.1,1.6,0.1,2.4,0c0.1-0.4-0.1-3.4-0.8-4.3c-0.3-0.3-0.6-0.3-0.8,0.1C23.8,116.9,23.5,118.4,23.6,119.8L23.6,119.8z"/>
		<path id="Path_2172" class="st2" d="M25.2,107.3c-0.8,0-1.8-0.1-1.8-0.1l0,0c-0.1,0-0.4-0.1,0-2.1c0.2-1.3,0.7-3.5,1.6-3.5h0
			c0.3,0,0.6,0.2,0.8,0.7c0.5,1.6,0.7,3.2,0.5,4.8C26.2,107.3,25.7,107.3,25.2,107.3z M23.6,106.9c0.8,0.1,1.6,0.1,2.4,0
			c0.1-0.6,0-3.7-0.7-4.6c-0.1-0.1-0.2-0.2-0.3-0.2c-0.1,0-0.2,0.1-0.4,0.2C23.9,103.3,23.5,106.3,23.6,106.9L23.6,106.9z"/>
		<path id="Path_2173" class="st2" d="M23,78.8c-0.5,0-1,0-1.5-0.1c-0.3-0.2-0.4-2.9-0.1-4c0.2-0.8,0.6-1.3,1.1-1.3
			c0.5,0,0.8,0.3,1.1,0.9c0.5,1.4,0.7,2.8,0.5,4.3C23.7,78.8,23.4,78.8,23,78.8z M21.7,78.3c0.7,0.1,1.4,0.1,2,0
			c0.1-0.5,0-3.3-0.8-4.3c-0.3-0.4-0.7-0.4-1,0C21.4,75,21.6,77.8,21.7,78.3L21.7,78.3z"/>
		<path id="Path_2174" class="st2" d="M22.3,55.9c-0.5,0-0.9,0-1.4-0.1l0,0c-0.3-0.2,0-2.7,0.2-3.5c0.3-1.3,0.7-1.9,1.1-2
			c0.2,0,0.5,0,0.7,0.5c0.6,1.6,0.8,3.2,0.6,4.9C23.4,55.8,22.9,55.9,22.3,55.9z M21.2,55.4c0.7,0.1,1.4,0.1,2.1,0
			c0.1-0.5,0-3.8-0.7-4.6c-0.1-0.2-0.2-0.1-0.2-0.1c-0.1,0-0.2,0.1-0.3,0.3C21.3,51.9,21.1,54.9,21.2,55.4L21.2,55.4z"/>
		<path id="Path_2175" class="st2" d="M22.8,36c-0.2,0-0.3,0-0.5,0c-0.3,0-0.5-0.1-0.6-0.3c-0.1-1.1,0.1-2.2,0.6-3.2
			c0.1-0.3,0.4-0.4,0.7-0.4c0.3,0,0.5,0.2,0.6,0.6c0.3,1,0.3,2.1,0.1,3.2l0,0C23.4,35.9,23.1,36,22.8,36z M23,32.4
			c-0.1,0-0.2,0.1-0.3,0.2c-0.5,0.9-0.7,1.9-0.6,2.9c0.4,0.1,0.9,0.2,1.4,0c0.2-1,0.1-2-0.2-2.9C23.1,32.4,23,32.4,23,32.4L23,32.4z
			"/>
		<path id="Path_2176" class="st2" d="M23.1,29.3c-0.4,0-1.3,0-1.5-0.3c-0.1-1.2,0-2.4,0.5-3.6c0.2-0.3,0.5-0.5,0.8-0.5
			c0.3,0,0.6,0.2,0.7,0.4c0.7,1,0.3,3.4,0.2,3.6l0,0c-0.1,0.2-0.3,0.2-0.6,0.3C23.3,29.3,23.2,29.3,23.1,29.3z M22,28.8
			c0.5,0.1,1,0.1,1.6,0.1c0.1-0.4,0.3-2.5-0.2-3.3c-0.1-0.1-0.2-0.2-0.4-0.2c-0.2,0-0.3,0.1-0.4,0.2C22,26.3,22,28.4,22,28.8
			L22,28.8z"/>
		
			<rect id="Rectangle_254" x="36.3" y="7" transform="matrix(0.927 -0.375 0.375 0.927 7.605425e-02 14.7756)" class="st2" width="3.4" height="0.4"/>
		<rect id="Rectangle_255" x="38" y="11.2" class="st2" width="4.3" height="0.4"/>
		
			<rect id="Rectangle_256" x="38.3" y="14.8" transform="matrix(0.5387 -0.8425 0.8425 0.5387 4.2004 39.886)" class="st2" width="0.4" height="2.5"/>
		
			<rect id="Rectangle_257" x="10.7" y="4.9" transform="matrix(0.4175 -0.9087 0.9087 0.4175 0.4176 13.6584)" class="st2" width="0.4" height="3.3"/>
		<rect id="Rectangle_258" x="7.3" y="10.2" class="st2" width="3.5" height="0.4"/>
		
			<rect id="Rectangle_259" x="8.2" y="14.8" transform="matrix(0.9378 -0.3472 0.3472 0.9378 -4.636 4.1751)" class="st2" width="2.3" height="0.4"/>
		<path id="Path_2177" class="st2" d="M28.4,25.1l-0.2-0.8c-0.2-1-0.5-1.9-0.7-1.9c-0.3,0.1-0.8,0.9-1.1,1.4l-0.3,0.7l0-0.7
			c0,0-0.1-1.6-1-1.6h0c-0.2,0-0.4,0.1-0.5,0.2c-0.2,0.3-0.3,0.7-0.2,1.1l-0.4,0.1c-0.1-0.4-0.5-1.6-1-1.6h0c-0.5,0-1,1-1.1,1.4
			L21.5,24l-0.1-0.8c0,0-0.2-1.5-1-1.3c-0.7,0.1-1.3,1.2-1.5,1.6l-0.4,1.1l0.1-1.1c0-0.5-0.1-1.5-0.5-1.6c-0.4-0.1-0.9,1.1-1.1,1.9
			l-0.4-0.1c0.1-0.4,0.7-2.3,1.5-2.2c0.5,0.1,0.7,0.7,0.8,1.2c0.3-0.6,0.8-1,1.5-1.2c0.7-0.1,1.1,0.6,1.3,1.1
			c0.2-0.5,0.7-1.1,1.3-1.1c0.5,0,0.9,0.5,1.1,1c0.1-0.2,0.1-0.3,0.2-0.4c0.2-0.2,0.5-0.3,0.8-0.3c0.8,0,1.2,0.8,1.3,1.4
			c0.3-0.4,0.7-1,1-1.1c0.1,0,0.2,0,0.3,0c0.4,0.4,0.6,0.9,0.7,1.5c0.3-0.8,0.6-1.6,1.1-1.5l-0.1,0.4l0,0c-0.2,0-0.6,0.9-0.8,1.9
			L28.4,25.1z"/>
	</g>
	<g id="Group_354" transform="translate(1169.911 635.727)">
		<path id="Path_2178" class="st2" d="M72.8,25.5l-0.3-0.2c1.6-1.7,2.3-4.3,2.2-8c0-1.3-0.2-3.2-1.5-4.1l0.2-0.3
			c1.4,1,1.6,2.9,1.6,4.4C75.2,21,74.4,23.7,72.8,25.5z"/>
		<path id="Path_2179" class="st2" d="M90.9,39l-0.2-0.3c5.3-4.2,6.8-15.3,6.9-19.3c0.3-8.6-1.4-14.9-5-19.2L92.8,0
			c3.7,4.4,5.4,10.8,5.1,19.4C97.8,23.4,96.3,34.7,90.9,39z"/>
		<path id="Path_2180" class="st2" d="M81.4,32.5l-0.3-0.2c0.1-0.2,0.3-0.5,0.6-0.8c2.9-3.7,4.6-8.2,5-12.9c0.3-4.3-1.2-8.6-4-11.8
			l0.2-0.2c2.9,3.3,4.4,7.7,4.1,12.1c-0.4,4.8-2.1,9.3-5,13.1C81.7,32,81.5,32.3,81.4,32.5z"/>
		<path id="Path_2181" class="st2" d="M24.5,27.2c-1.4-1-1.6-2.9-1.6-4.4c-0.1-3.8,0.7-6.5,2.3-8.3l0.3,0.2c-1.6,1.7-2.3,4.3-2.2,8
			c0,1.3,0.2,3.2,1.5,4.1L24.5,27.2z"/>
		<path id="Path_2182" class="st2" d="M5.1,40.1C1.4,35.7-0.3,29.3,0,20.6c0.1-4,1.6-15.2,7-19.5l0.2,0.3C2,5.6,0.5,16.7,0.4,20.6
			c-0.3,8.6,1.4,14.9,5,19.2L5.1,40.1z"/>
		<path id="Path_2183" class="st2" d="M15.1,33.6c-2.9-3.3-4.4-7.7-4.1-12.1c0.4-4.8,2.1-9.3,5-13.1c0.2-0.3,0.4-0.6,0.6-0.8
			l0.3,0.2c-0.1,0.2-0.3,0.5-0.6,0.8c-2.9,3.7-4.6,8.2-5,12.9c-0.3,4.3,1.2,8.6,4,11.8L15.1,33.6z"/>
	</g>
</g>
</svg>
