<?xml version="1.0" encoding="UTF-8"?>
<svg xmlns="http://www.w3.org/2000/svg" xmlns:xlink="http://www.w3.org/1999/xlink" version="1.2" >
<font id="Clarika Pro Geometric Bold Italic">
<font-face  font-family="Clarika Pro Geometric" units-per-em="980" ascent="970" descent="-250" font-style="italic" font-weight="700" font-stretch="normal" slope="-11" cap-height="640" x-height="461" underline-position="-75" underline-thickness="50" />
<missing-glyph  horiz-adv-x="638" d="M639 640 L157 640 L33 0 L515 0 L639 640 Z M534 588 L345 364 L243 588 L534 588 Z M199 564 L310 322 L106 80 L199 564 Z M474 82 L365 322 L567 562 L474 82 Z M329 280 L433 52 L137 52 L329 280 Z " />
<glyph glyph-name="NULL" horiz-adv-x="596" d="" />
<glyph glyph-name="CR" unicode="&#xd;" horiz-adv-x="596" d="" />
<glyph glyph-name="space" unicode="&#x20;" horiz-adv-x="239" d="" />
<glyph glyph-name="exclam" unicode="&#x21;" horiz-adv-x="240" d="M274 640 L123 640 L59 189 L165 189 L274 640 Z M73 -10 C114 -10 155 22 162 62 C170 103 143 135 102 135 C60 135 20 103 12 62 C5 22 32 -10 73 -10 L73 -10 Z " />
<glyph glyph-name="quotedbl" unicode="&#x22;" horiz-adv-x="379" d="M103 376 L152 372 C185 482 224 536 233 582 C241 626 217 657 179 657 C145 657 112 629 104 590 C95 540 113 486 103 376 L103 376 Z M283 376 L332 372 C365 482 404 536 413 582 C421 626 397 657 359 657 C326 657 292 629 284 590 C275 540 293 486 283 376 L283 376 Z " />
<glyph glyph-name="numbersign" unicode="&#x23;" horiz-adv-x="565" d="M578 378 L595 461 L499 461 L583 643 L492 643 L408 461 L316 461 L400 643 L309 643 L225 461 L113 461 L96 378 L186 378 L134 265 L22 265 L6 181 L95 181 L11 0 L102 0 L186 181 L278 181 L194 0 L286 0 L370 181 L488 181 L504 265 L408 265 L461 378 L578 378 Z M317 265 L225 265 L277 378 L369 378 L317 265 Z " />
<glyph glyph-name="dollar" unicode="&#x24;" horiz-adv-x="550" d="M359 370 C286 400 249 424 257 466 C265 511 314 543 365 543 C407 543 440 527 474 490 L569 578 C529 618 476 650 397 656 L414 740 L336 740 L318 652 C223 632 134 563 115 468 C93 356 177 308 268 276 C325 253 363 232 354 180 C343 128 285 100 237 100 C188 100 143 117 108 173 L7 85 C52 29 113 -2 190 -11 L173 -99 L251 -99 L268 -13 C366 -5 475 50 499 178 C519 281 457 334 359 370 L359 370 Z " />
<glyph glyph-name="percent" unicode="&#x25;" horiz-adv-x="851" d="M236 354 C327 354 402 422 418 504 C434 589 387 661 289 661 C198 661 124 593 107 511 C91 425 140 354 236 354 L236 354 Z M193 0 L282 0 L691 640 L602 640 L193 0 Z M246 437 C209 437 191 467 198 504 C206 544 238 577 279 577 C318 577 334 548 327 511 C319 470 288 437 246 437 L246 437 Z M598 -12 C689 -12 764 56 780 138 C796 223 749 295 651 295 C560 295 486 227 469 145 C453 60 502 -12 598 -12 L598 -12 Z M608 72 C571 72 553 101 561 138 C568 179 600 212 641 212 C680 212 696 182 689 145 C681 105 650 72 608 72 L608 72 Z " />
<glyph glyph-name="ampersand" unicode="&#x26;" horiz-adv-x="647" d="M612 282 L515 331 C493 298 469 265 444 234 L329 385 C305 419 278 453 287 489 C295 525 323 552 360 554 C388 554 410 539 422 505 L523 559 C499 621 447 658 373 657 C264 657 190 596 168 511 C154 452 168 410 190 374 C89 323 36 248 22 174 C3 76 69 -14 211 -14 C293 -14 359 15 419 63 L481 -21 L580 55 L508 150 C542 190 576 234 612 282 L612 282 Z M255 100 C192 90 144 120 153 172 C160 218 199 264 250 293 L357 147 C325 122 291 105 255 100 L255 100 Z " />
<glyph glyph-name="quotesingle" unicode="&#x27;" horiz-adv-x="200" d="M103 376 L152 372 C185 482 224 536 233 582 C241 626 217 657 179 657 C145 657 112 629 104 590 C95 540 113 486 103 376 L103 376 Z " />
<glyph glyph-name="parenleft" unicode="&#x28;" horiz-adv-x="358" d="M199 -183 L279 -104 C222 -45 161 104 198 295 C235 486 355 637 436 698 L382 783 C276 711 121 531 77 303 C32 66 119 -114 199 -183 L199 -183 Z " />
<glyph glyph-name="parenright" unicode="&#x29;" horiz-adv-x="363" d="M-4 -183 C104 -114 264 66 314 303 C363 531 280 711 204 783 L115 698 C171 637 231 486 191 295 C150 104 29 -45 -52 -104 L-4 -183 Z " />
<glyph glyph-name="asterisk" unicode="&#x2a;" horiz-adv-x="415" d="M439 534 L427 625 L322 590 L344 690 L247 690 L231 591 L141 626 L93 534 L186 505 L103 419 L170 362 L248 451 L291 362 L380 419 L331 504 L439 534 Z " />
<glyph glyph-name="plus" unicode="&#x2b;" horiz-adv-x="531" d="M496 305 L330 305 L362 471 L261 471 L229 305 L63 305 L43 203 L209 203 L177 37 L278 37 L310 203 L476 203 L496 305 Z " />
<glyph glyph-name="comma" unicode="&#x2c;" horiz-adv-x="240" d="M-13 -149 C79 -119 143 -47 162 23 C178 78 159 126 106 131 C61 135 21 106 9 63 C-4 17 28 -15 69 -9 C58 -44 24 -75 -24 -95 L-13 -149 Z " />
<glyph glyph-name="hyphen" unicode="&#x2d;" horiz-adv-x="357" d="M43 203 L303 203 L323 305 L63 305 L43 203 Z " />
<glyph glyph-name="period" unicode="&#x2e;" horiz-adv-x="240" d="M73 -10 C114 -10 155 22 162 62 C170 103 143 135 102 135 C60 135 20 103 12 62 C5 22 32 -10 73 -10 L73 -10 Z " />
<glyph glyph-name="slash" unicode="&#x2f;" horiz-adv-x="530" d="M-43 -120 L78 -120 L595 697 L474 697 L-43 -120 Z " />
<glyph glyph-name="zero" unicode="0" horiz-adv-x="534" d="M225 -14 C380 -14 483 113 522 316 C562 525 505 657 344 657 C189 657 86 531 46 327 C6 119 65 -14 225 -14 L225 -14 Z M236 95 C157 95 151 190 175 316 C200 448 249 548 333 548 C412 548 418 454 394 327 C368 196 320 95 236 95 L236 95 Z " />
<glyph glyph-name="one" unicode="1" horiz-adv-x="534" d="M382 640 L124 500 L160 404 L335 497 L240 0 L369 0 L492 640 L382 640 Z " />
<glyph glyph-name="two" unicode="2" horiz-adv-x="534" d="M532 458 C554 574 476 656 339 657 C219 658 141 586 100 533 L187 467 C216 503 261 548 323 548 C378 548 408 510 398 461 C389 411 352 375 308 338 L12 88 L-4 0 L452 0 L474 109 L208 109 L392 261 C467 323 516 377 532 458 L532 458 Z " />
<glyph glyph-name="three" unicode="3" horiz-adv-x="534" d="M549 640 L140 640 L119 531 L373 531 L170 356 L194 292 C241 297 277 301 317 286 C352 270 365 237 357 198 C345 142 289 97 214 97 C141 96 106 129 75 168 L-7 69 C45 19 109 -14 215 -13 C361 -10 464 65 487 182 C513 310 425 375 326 376 L534 556 L549 640 Z " />
<glyph glyph-name="four" unicode="4" horiz-adv-x="534" d="M516 231 L447 231 L477 386 L357 386 L327 231 L152 231 L458 640 L324 640 L22 231 L3 126 L306 126 L282 0 L403 0 L427 126 L496 126 L516 231 Z " />
<glyph glyph-name="five" unicode="5" horiz-adv-x="534" d="M512 531 L533 640 L197 640 L81 313 L171 267 C187 282 220 301 265 301 C326 301 359 265 348 206 C338 151 285 94 204 95 C143 95 101 127 68 165 L-11 66 C41 19 110 -14 205 -14 C369 -14 465 88 486 196 C509 316 441 399 318 400 C285 400 256 394 233 385 L286 531 L512 531 Z " />
<glyph glyph-name="six" unicode="6" horiz-adv-x="534" d="M229 -14 C363 -14 476 78 499 198 C524 328 450 410 348 413 C304 415 271 408 245 390 L472 640 L329 642 C109 387 47 318 26 209 C3 89 71 -14 229 -14 L229 -14 Z M236 89 C176 89 137 135 150 197 C162 264 226 315 289 315 C350 315 387 270 375 207 C362 141 301 89 236 89 L236 89 Z " />
<glyph glyph-name="seven" unicode="7" horiz-adv-x="534" d="M120 640 L99 531 L415 531 L56 0 L199 0 L561 554 L577 640 L120 640 Z " />
<glyph glyph-name="eight" unicode="8" horiz-adv-x="534" d="M529 481 C548 577 484 657 344 657 C209 657 120 583 102 491 C88 418 123 369 166 348 C96 327 36 269 20 188 C1 91 47 -14 224 -14 C396 -14 477 85 495 178 C511 260 472 323 412 346 C463 364 516 410 529 481 L529 481 Z M217 469 C227 521 279 557 334 557 C385 557 419 527 410 479 C400 428 348 390 292 390 C242 390 207 422 217 469 L217 469 Z M373 193 C361 132 300 86 234 86 C173 86 133 126 144 182 C156 245 218 289 283 289 C343 289 384 251 373 193 L373 193 Z " />
<glyph glyph-name="nine" unicode="9" horiz-adv-x="534" d="M340 654 C206 654 93 562 69 442 C44 312 119 230 221 227 C264 225 298 232 324 250 L97 0 L240 -2 C459 253 522 322 543 431 C565 551 498 654 340 654 L340 654 Z M333 551 C393 551 431 505 419 443 C407 376 343 325 280 325 C219 325 181 370 194 433 C206 499 268 551 333 551 L333 551 Z " />
<glyph glyph-name="colon" unicode="&#x3a;" horiz-adv-x="240" d="M136 328 C177 328 217 360 225 400 C233 441 205 473 164 473 C123 473 83 441 75 400 C67 360 95 328 136 328 L136 328 Z M73 -10 C114 -10 155 22 162 62 C170 103 143 135 102 135 C60 135 20 103 12 62 C5 22 32 -10 73 -10 L73 -10 Z " />
<glyph glyph-name="semicolon" unicode="&#x3b;" horiz-adv-x="255" d="M149 328 C190 328 230 361 238 401 C246 441 218 474 177 474 C136 474 96 441 88 401 C80 361 108 328 149 328 L149 328 Z M-5 -146 C86 -115 151 -43 170 26 C185 81 167 129 113 134 C68 138 29 109 17 66 C4 20 35 -11 77 -6 C65 -40 31 -71 -16 -92 L-5 -146 Z " />
<glyph glyph-name="less" unicode="&#x3c;" horiz-adv-x="537" d="M541 503 L70 337 L49 237 L456 71 L480 187 L181 287 L517 387 L541 503 Z " />
<glyph glyph-name="equal" unicode="&#x3d;" horiz-adv-x="531" d="M61 293 L494 293 L513 391 L80 391 L61 293 Z M28 121 L461 121 L480 220 L47 220 L28 121 Z " />
<glyph glyph-name="greater" unicode="&#x3e;" horiz-adv-x="538" d="M102 503 L81 387 L378 287 L40 187 L19 71 L490 237 L509 337 L102 503 Z " />
<glyph glyph-name="question" unicode="&#x3f;" horiz-adv-x="502" d="M174 191 L302 191 L321 281 C401 297 500 352 520 466 C541 582 461 657 329 657 C237 657 155 611 104 557 L180 483 C201 509 246 548 306 548 C363 548 393 508 385 458 C372 383 299 347 203 351 L174 191 Z M199 -10 C240 -10 280 22 288 62 C295 103 268 135 227 135 C186 135 145 103 138 62 C130 22 157 -10 199 -10 L199 -10 Z " />
<glyph glyph-name="at" unicode="&#x40;" horiz-adv-x="767" d="M480 636 C278 636 100 481 55 288 C12 99 112 -31 307 -31 C379 -31 442 -15 502 16 L476 78 C430 55 381 40 313 40 C172 40 100 137 131 276 C166 430 308 565 472 565 C631 565 700 480 663 319 C640 220 579 176 546 176 C517 176 511 194 533 246 L624 461 L546 461 L514 409 C499 445 467 471 411 471 C310 471 220 382 195 277 C173 174 215 108 299 108 C350 108 396 130 432 163 C446 133 478 105 525 105 C628 105 711 190 741 317 C784 507 680 636 480 636 L480 636 Z M301 279 C314 336 363 389 420 389 C470 389 490 349 471 293 C453 236 402 192 349 192 C307 192 289 224 301 279 L301 279 Z " />
<glyph glyph-name="A" unicode="A" horiz-adv-x="677" d="M470 0 L617 0 L487 640 L346 640 L-30 0 L120 0 L195 138 L448 138 L470 0 Z M252 242 L391 497 L431 242 L252 242 Z " />
<glyph glyph-name="B" unicode="B" horiz-adv-x="598" d="M550 480 C569 578 501 640 375 640 L157 640 L34 0 L276 0 C418 0 519 68 540 178 C558 271 514 331 422 350 C495 371 538 416 550 480 L550 480 Z M419 474 C409 421 364 389 303 389 L247 389 L276 543 L341 543 C402 543 428 521 419 474 L419 474 Z M402 200 C390 136 336 97 261 97 L192 97 L229 292 L300 292 C375 292 413 260 402 200 L402 200 Z " />
<glyph glyph-name="C" unicode="C" horiz-adv-x="627" d="M342 -14 C420 -14 494 7 558 48 L503 158 C463 128 414 108 361 108 C238 108 181 207 204 318 C225 433 323 534 450 534 C499 534 541 518 569 488 L661 593 C612 633 547 657 465 657 C260 657 97 510 62 325 C26 137 134 -14 342 -14 L342 -14 Z " />
<glyph glyph-name="D" unicode="D" horiz-adv-x="684" d="M373 640 L157 640 L34 0 L253 0 C471 0 623 136 658 317 C693 501 590 640 373 640 L373 640 Z M517 324 C492 192 394 114 257 114 L194 114 L273 526 L339 526 C476 526 542 452 517 324 L517 324 Z " />
<glyph glyph-name="E" unicode="E" horiz-adv-x="539" d="M548 527 L570 640 L157 640 L33 0 L446 0 L468 113 L193 113 L223 269 L454 269 L474 372 L243 372 L273 527 L548 527 Z " />
<glyph glyph-name="F" unicode="F" horiz-adv-x="520" d="M548 527 L570 640 L157 640 L33 0 L171 0 L222 261 L452 261 L473 366 L242 366 L273 527 L548 527 Z " />
<glyph glyph-name="G" unicode="G" horiz-adv-x="739" d="M431 361 L412 259 L566 259 C534 164 454 108 357 108 C235 108 180 205 202 319 C226 441 325 534 450 534 C512 534 554 512 575 492 L666 593 C642 616 575 657 470 657 C259 657 97 510 62 327 C25 137 134 -14 343 -14 C542 -14 682 127 715 300 L727 361 L431 361 Z " />
<glyph glyph-name="H" unicode="H" horiz-adv-x="693" d="M555 640 L506 383 L246 383 L295 640 L157 640 L34 0 L172 0 L224 272 L484 272 L432 0 L570 0 L693 640 L555 640 Z " />
<glyph glyph-name="I" unicode="I" horiz-adv-x="313" d="M305 640 L167 640 L42 0 L180 0 L305 640 Z " />
<glyph glyph-name="J" unicode="J" horiz-adv-x="478" d="M161 -14 C277 -14 382 52 414 219 L495 640 L357 640 L276 220 C263 147 220 108 163 108 C128 108 103 121 81 152 L-3 45 C34 13 81 -14 161 -14 L161 -14 Z " />
<glyph glyph-name="K" unicode="K" horiz-adv-x="672" d="M696 640 L515 640 L247 388 L295 640 L157 640 L34 0 L172 0 L227 288 L415 0 L594 0 L354 339 L696 640 Z " />
<glyph glyph-name="L" unicode="L" horiz-adv-x="511" d="M194 117 L295 640 L157 640 L34 0 L433 0 L455 117 L194 117 Z " />
<glyph glyph-name="M" unicode="M" horiz-adv-x="839" d="M715 640 L715 639 L714 640 L439 334 L282 638 L282 640 L157 640 L34 0 L168 0 L250 424 L405 150 L665 423 L583 0 L717 0 L840 640 L715 640 Z " />
<glyph glyph-name="N" unicode="N" horiz-adv-x="720" d="M588 640 L506 214 L284 640 L157 640 L34 0 L167 0 L249 425 L470 0 L597 0 L720 640 L588 640 Z " />
<glyph glyph-name="O" unicode="O" horiz-adv-x="782" d="M349 -14 C556 -14 721 133 756 317 C792 505 680 657 469 657 C261 657 97 510 62 327 C26 138 137 -14 349 -14 L349 -14 Z M363 108 C239 108 182 206 204 317 C225 433 326 534 455 534 C580 534 637 438 615 327 C593 211 492 108 363 108 L363 108 Z " />
<glyph glyph-name="P" unicode="P" horiz-adv-x="579" d="M405 640 L157 640 L34 0 L172 0 L217 235 L332 235 C449 235 564 311 587 432 C611 558 523 640 405 640 L405 640 Z M447 442 C435 378 383 338 305 338 L237 338 L275 537 L348 537 C425 537 459 503 447 442 L447 442 Z " />
<glyph glyph-name="Q" unicode="Q" horiz-adv-x="781" d="M756 317 C792 505 680 657 469 657 C261 657 97 510 62 327 C26 139 135 -12 345 -14 L647 -140 L721 -19 L537 30 C651 87 733 194 756 317 L756 317 Z M615 327 C593 211 492 108 363 108 C239 108 182 206 204 317 C225 433 326 534 455 534 C580 534 637 438 615 327 L615 327 Z " />
<glyph glyph-name="R" unicode="R" horiz-adv-x="610" d="M577 440 C601 573 499 640 386 640 L157 640 L34 0 L172 0 L221 253 L257 253 L380 0 L546 0 L399 268 C486 292 559 347 577 440 L577 440 Z M435 449 C424 390 375 355 301 355 L240 355 L275 536 L336 536 C415 536 445 503 435 449 L435 449 Z " />
<glyph glyph-name="S" unicode="S" horiz-adv-x="552" d="M234 -14 C338 -14 465 39 491 178 C511 281 449 334 351 370 C278 400 241 424 249 466 C257 511 306 543 357 543 C399 543 432 527 466 490 L561 578 C517 622 457 657 364 657 C250 657 129 581 107 468 C86 356 169 308 260 276 C317 253 355 232 346 180 C335 128 277 100 229 100 C180 100 135 117 100 173 L-1 85 C54 17 131 -14 234 -14 L234 -14 Z " />
<glyph glyph-name="T" unicode="T" horiz-adv-x="561" d="M599 640 L121 640 L99 525 L270 525 L169 0 L307 0 L408 525 L577 525 L599 640 Z " />
<glyph glyph-name="U" unicode="U" horiz-adv-x="650" d="M281 -14 C434 -14 556 64 592 248 L667 640 L529 640 L456 262 C436 154 373 108 299 108 C227 108 185 150 206 259 L279 640 L141 640 L67 252 C32 68 126 -14 281 -14 L281 -14 Z " />
<glyph glyph-name="V" unicode="V" horiz-adv-x="656" d="M569 640 L317 172 L245 640 L95 640 L225 0 L344 0 L721 640 L569 640 Z " />
<glyph glyph-name="W" unicode="W" horiz-adv-x="971" d="M877 640 L659 189 L621 640 L508 640 L295 189 L252 640 L107 640 L193 0 L316 0 L524 425 L568 0 L691 0 L1024 640 L877 640 Z " />
<glyph glyph-name="X" unicode="X" horiz-adv-x="690" d="M720 640 L557 640 L382 428 L290 640 L128 640 L277 328 L-12 0 L160 0 L344 226 L442 0 L612 0 L449 327 L720 640 Z " />
<glyph glyph-name="Y" unicode="Y" horiz-adv-x="625" d="M690 640 L532 640 L348 418 L251 640 L95 640 L255 294 L200 0 L338 0 L392 289 L690 640 Z " />
<glyph glyph-name="Z" unicode="Z" horiz-adv-x="579" d="M593 640 L146 640 L123 522 L396 522 L24 102 L5 0 L485 0 L507 118 L202 118 L575 542 L593 640 Z " />
<glyph glyph-name="bracketleft" unicode="&#x5b;" horiz-adv-x="335" d="M400 771 L183 771 L-1 -176 L217 -176 L231 -100 L130 -100 L285 695 L386 695 L400 771 Z " />
<glyph glyph-name="backslash" unicode="&#x5c;" horiz-adv-x="530" d="M437 -120 L237 697 L116 697 L316 -120 L437 -120 Z " />
<glyph glyph-name="bracketright" unicode="&#x5d;" horiz-adv-x="334" d="M144 771 L129 695 L230 695 L76 -100 L-25 -100 L-41 -176 L177 -176 L362 771 L144 771 Z " />
<glyph glyph-name="asciicircum" unicode="&#x5e;" horiz-adv-x="528" d="M504 326 L399 643 L288 643 L62 326 L184 326 L328 546 L388 326 L504 326 Z " />
<glyph glyph-name="underscore" unicode="&#x5f;" horiz-adv-x="494" d="M-68 -120 L426 -120 L437 -61 L-57 -61 L-68 -120 Z " />
<glyph glyph-name="grave" unicode="&#x60;" horiz-adv-x="315" d="M188 559 C227 510 252 510 288 510 L334 510 L229 672 L117 655 L188 559 Z " />
<glyph glyph-name="a" unicode="a" horiz-adv-x="570" d="M451 461 L430 416 C404 451 362 473 301 473 C180 473 66 381 33 227 C1 77 75 -10 193 -10 C259 -10 314 15 357 53 L361 0 L467 0 L558 461 L451 461 Z M166 235 C183 311 240 364 308 364 C380 364 419 307 402 227 C386 151 327 99 259 99 C188 99 150 155 166 235 L166 235 Z " />
<glyph glyph-name="b" unicode="b" horiz-adv-x="575" d="M372 473 C312 473 263 452 223 419 L274 680 L145 680 L13 0 L119 0 L144 57 C172 17 217 -10 285 -10 C403 -10 512 77 541 227 C571 381 493 473 372 473 L372 473 Z M410 235 C395 155 334 99 263 99 C195 99 157 151 172 227 C187 307 249 364 322 364 C389 364 425 311 410 235 L410 235 Z " />
<glyph glyph-name="c" unicode="c" horiz-adv-x="460" d="M237 -14 C304 -14 358 3 409 36 L354 134 C327 111 291 97 257 97 C184 97 149 150 164 226 C180 306 238 362 315 362 C346 362 375 351 393 328 L482 421 C442 453 395 473 324 473 C183 473 60 371 33 233 C7 91 92 -14 237 -14 L237 -14 Z " />
<glyph glyph-name="d" unicode="d" horiz-adv-x="578" d="M479 680 L426 420 C399 452 358 473 299 473 C178 473 64 381 32 227 C2 77 77 -10 195 -10 C263 -10 319 17 362 57 L365 0 L471 0 L608 680 L479 680 Z M260 99 C189 99 150 155 166 235 C182 311 239 364 306 364 C378 364 418 307 402 227 C387 151 329 99 260 99 L260 99 Z " />
<glyph glyph-name="e" unicode="e" horiz-adv-x="530" d="M328 473 C184 473 61 374 34 237 C6 94 92 -14 256 -14 C336 -14 401 9 454 54 L375 130 C345 99 306 80 256 80 C187 80 156 127 162 198 L270 198 C430 198 509 250 512 332 C516 417 432 473 328 473 L328 473 Z M394 328 C392 289 332 273 267 273 L180 273 C208 339 260 378 319 378 C362 378 395 358 394 328 L394 328 Z " />
<glyph glyph-name="f" unicode="f" horiz-adv-x="387" d="M362 591 C374 591 391 589 417 574 L471 666 C432 690 399 700 353 700 C267 700 182 640 158 513 L148 461 L78 461 L59 363 L129 363 L19 -210 L143 -210 L257 363 L373 363 L391 461 L277 461 L289 521 C297 562 321 591 362 591 L362 591 Z " />
<glyph glyph-name="g" unicode="g" horiz-adv-x="568" d="M447 461 L429 420 C403 452 362 473 302 473 C181 473 66 383 33 230 C2 82 76 -4 194 -4 C253 -4 303 16 344 48 C322 -48 284 -104 193 -104 C170 -104 142 -99 121 -89 L77 -192 C109 -203 149 -210 188 -210 C341 -210 441 -127 475 48 L554 461 L447 461 Z M167 238 C183 313 241 366 308 366 C380 366 420 310 402 230 C387 155 328 103 260 103 C189 103 150 159 167 238 L167 238 Z " />
<glyph glyph-name="h" unicode="h" horiz-adv-x="551" d="M371 473 C311 473 261 449 222 411 L274 680 L145 680 L13 0 L142 0 L193 261 C214 336 267 364 311 364 C370 364 387 324 373 255 L324 0 L453 0 L509 287 C536 427 452 473 371 473 L371 473 Z " />
<glyph glyph-name="i" unicode="i" horiz-adv-x="274" d="M196 531 C237 531 277 564 285 604 C293 644 266 677 225 677 C183 677 143 644 135 604 C128 564 155 531 196 531 L196 531 Z M28 0 L156 0 L246 461 L118 461 L28 0 Z " />
<glyph glyph-name="j" unicode="j" horiz-adv-x="301" d="M220 531 C261 531 301 564 309 604 C317 644 290 677 249 677 C207 677 167 644 159 604 C152 564 179 531 220 531 L220 531 Z M178 -24 L271 461 L142 461 L50 -13 C36 -87 -6 -123 -83 -110 L-98 -207 C26 -232 145 -195 178 -24 L178 -24 Z " />
<glyph glyph-name="k" unicode="k" horiz-adv-x="528" d="M549 461 L384 461 L199 293 L274 680 L145 680 L14 0 L143 0 L183 207 L322 0 L486 0 L304 251 L549 461 Z " />
<glyph glyph-name="l" unicode="l" horiz-adv-x="253" d="M17 0 L146 0 L278 680 L149 680 L17 0 Z " />
<glyph glyph-name="m" unicode="m" horiz-adv-x="812" d="M634 473 C557 473 510 443 473 407 C454 451 413 473 357 473 C308 473 256 450 220 402 L217 461 L103 461 L15 0 L144 0 L191 246 C207 323 246 364 301 364 C351 364 362 322 350 259 L300 0 L429 0 L475 242 L475 239 C490 317 528 364 585 364 C635 364 647 322 635 259 L585 0 L714 0 L765 270 C791 406 740 473 634 473 L634 473 Z " />
<glyph glyph-name="n" unicode="n" horiz-adv-x="552" d="M372 473 C311 473 260 449 221 410 L216 461 L103 461 L14 0 L143 0 L192 257 C213 335 266 364 312 364 C370 364 387 324 374 255 L325 0 L454 0 L510 287 C537 427 452 473 372 473 L372 473 Z " />
<glyph glyph-name="o" unicode="o" horiz-adv-x="574" d="M243 -14 C391 -14 514 88 540 226 C567 368 482 473 330 473 C182 473 60 371 33 233 C6 91 91 -14 243 -14 L243 -14 Z M257 95 C188 95 150 150 165 226 C180 306 244 364 316 364 C384 364 423 309 408 233 C393 153 329 95 257 95 L257 95 Z " />
<glyph glyph-name="p" unicode="p" horiz-adv-x="576" d="M373 473 C309 473 257 449 216 412 L217 461 L103 461 L-28 -210 L101 -210 L152 48 C180 13 223 -10 286 -10 C404 -10 513 77 542 227 C571 381 494 473 373 473 L373 473 Z M411 235 C396 155 335 99 264 99 C195 99 158 151 173 227 C188 307 250 364 322 364 C390 364 426 311 411 235 L411 235 Z " />
<glyph glyph-name="q" unicode="q" horiz-adv-x="576" d="M449 461 L430 412 C404 449 361 473 297 473 C176 473 63 381 32 227 C3 77 78 -10 197 -10 C260 -10 312 13 353 48 L303 -210 L432 -210 L562 461 L449 461 Z M166 235 C181 311 238 364 305 364 C377 364 418 307 401 227 C387 151 329 99 260 99 C190 99 150 155 166 235 L166 235 Z " />
<glyph glyph-name="r" unicode="r" horiz-adv-x="362" d="M349 473 C297 473 251 439 219 401 L216 461 L103 461 L14 0 L144 0 L190 245 L186 217 C201 297 254 349 325 349 C338 349 353 347 364 343 L403 466 C389 470 373 473 349 473 L349 473 Z " />
<glyph glyph-name="s" unicode="s" horiz-adv-x="452" d="M-10 60 C23 18 89 -14 187 -14 C305 -14 382 43 398 125 C430 293 195 238 211 320 C217 352 245 373 289 374 C317 374 354 360 375 336 L450 414 C423 444 364 473 287 473 C171 473 95 414 78 328 C45 156 275 213 259 135 C254 104 223 82 174 82 C137 82 99 95 71 139 L-10 60 Z " />
<glyph glyph-name="t" unicode="t" horiz-adv-x="372" d="M392 461 L278 461 L304 594 L175 594 L149 461 L78 461 L59 363 L130 363 L60 0 L189 0 L259 363 L373 363 L392 461 Z " />
<glyph glyph-name="u" unicode="u" horiz-adv-x="546" d="M230 -12 C337 -12 455 32 488 207 L537 461 L408 461 L359 206 C347 140 307 97 244 97 C185 97 165 137 177 203 L227 461 L98 461 L50 210 C16 35 118 -12 230 -12 L230 -12 Z " />
<glyph glyph-name="v" unicode="v" horiz-adv-x="518" d="M420 461 L244 152 L186 461 L50 461 L161 0 L268 0 L559 461 L420 461 Z " />
<glyph glyph-name="w" unicode="w" horiz-adv-x="766" d="M661 461 L511 164 L479 461 L375 461 L230 166 L194 461 L56 461 L139 0 L248 0 L399 311 L431 0 L539 0 L801 461 L661 461 Z " />
<glyph glyph-name="x" unicode="x" horiz-adv-x="523" d="M540 461 L394 461 L278 323 L214 461 L75 461 L191 243 L-36 0 L112 0 L250 157 L326 0 L469 0 L337 238 L540 461 Z " />
<glyph glyph-name="y" unicode="y" horiz-adv-x="525" d="M425 461 L246 162 L184 461 L50 461 L156 17 L11 -210 L145 -210 L565 461 L425 461 Z " />
<glyph glyph-name="z" unicode="z" horiz-adv-x="480" d="M477 461 L95 461 L74 354 L287 354 L7 88 L-10 0 L404 0 L425 107 L180 107 L459 372 L477 461 Z " />
<glyph glyph-name="braceleft" unicode="&#x7b;" horiz-adv-x="374" d="M373 771 C301 771 233 704 219 630 L178 418 C167 362 118 339 84 336 L76 297 L69 259 C102 256 141 232 130 176 L89 -36 C75 -109 118 -176 190 -176 L282 -176 L296 -100 L256 -100 C223 -100 196 -86 206 -38 L249 184 C262 253 215 289 176 297 C219 305 279 341 292 410 L335 632 C345 680 377 695 411 695 L451 695 L465 771 L373 771 Z " />
<glyph glyph-name="bar" unicode="&#x7c;" horiz-adv-x="289" d="M181 710 L11 -160 L124 -160 L294 710 L181 710 Z " />
<glyph glyph-name="braceright" unicode="&#x7d;" horiz-adv-x="373" d="M269 418 L310 630 C325 704 283 771 211 771 L118 771 L103 695 L144 695 C177 695 203 680 194 632 L151 410 C138 341 184 305 223 297 C182 289 121 253 107 184 L64 -38 C55 -86 23 -100 -10 -100 L-51 -100 L-66 -176 L26 -176 C98 -176 167 -109 181 -36 L222 176 C233 232 282 256 316 259 L323 297 L330 336 C298 339 258 362 269 418 L269 418 Z " />
<glyph glyph-name="asciitilde" unicode="&#x7e;" horiz-adv-x="538" d="M341 216 C418 216 468 271 502 309 L444 356 C421 330 401 301 357 301 C302 301 293 361 217 361 C145 361 93 308 58 274 L112 221 C133 244 157 275 202 275 C261 275 268 216 341 216 L341 216 Z " />
<glyph glyph-name="uni00A0" unicode="&#xa0;" horiz-adv-x="239" d="" />
<glyph glyph-name="exclamdown" unicode="&#xa1;" horiz-adv-x="267" d="M194 473 C153 473 113 440 105 400 C97 360 124 327 165 327 C207 327 247 360 255 400 C263 440 235 473 194 473 L194 473 Z M-7 -177 L144 -177 L208 274 L102 274 L-7 -177 Z " />
<glyph glyph-name="cent" unicode="&#xa2;" horiz-adv-x="470" d="M352 224 C332 207 307 194 280 189 L333 450 C357 446 378 436 391 418 L480 511 C447 538 409 556 356 561 L372 640 L293 640 L277 559 C155 540 55 446 32 323 C9 200 69 105 180 82 L163 0 L242 0 L258 77 C315 80 363 97 408 126 L352 224 Z M163 316 C174 373 207 418 252 439 L203 199 C167 218 152 261 163 316 L163 316 Z " />
<glyph glyph-name="sterling" unicode="&#xa3;" horiz-adv-x="555" d="M421 657 C294 657 181 581 149 414 L134 337 L47 337 L32 258 L119 258 L88 100 L-2 81 L-18 0 L456 0 L477 109 L220 109 L249 258 L436 258 L451 337 L264 337 L277 405 C294 495 348 541 417 541 C453 541 482 528 503 500 L588 588 C544 633 495 657 421 657 L421 657 Z " />
<glyph glyph-name="currency" unicode="&#xa4;" horiz-adv-x="550" d="M483 429 L565 497 L513 561 L430 491 C403 510 367 520 326 520 C288 520 253 511 221 495 L166 563 L90 500 L143 434 C119 405 102 369 95 330 C87 290 91 254 104 223 L22 154 L73 91 L155 160 C183 141 218 130 260 130 C297 130 333 139 365 154 L420 88 L496 153 L443 216 C468 245 485 281 493 320 C501 361 497 398 483 429 L483 429 Z M199 320 C211 380 261 425 318 425 C369 425 399 387 388 330 C377 270 326 225 270 225 C218 225 188 264 199 320 L199 320 Z " />
<glyph glyph-name="yen" unicode="&#xa5;" horiz-adv-x="635" d="M688 640 L545 640 L349 400 L248 640 L106 640 L243 339 L129 339 L117 271 L257 271 L246 213 L105 213 L92 145 L233 145 L205 0 L343 0 L371 145 L511 145 L524 213 L384 213 L395 271 L535 271 L548 339 L436 339 L688 640 Z " />
<glyph glyph-name="brokenbar" unicode="&#xa6;" horiz-adv-x="269" d="M154 625 L99 340 L212 340 L267 625 L154 625 Z M73 210 L18 -75 L131 -75 L186 210 L73 210 Z " />
<glyph glyph-name="section" unicode="&#xa7;" horiz-adv-x="506" d="M346 402 C269 444 245 468 252 499 C259 536 299 561 347 557 C383 553 411 532 423 516 L504 594 C476 622 410 660 330 657 C205 652 145 572 132 503 C124 461 137 428 160 402 C99 373 69 326 60 276 C44 186 115 131 188 95 C252 62 273 39 263 4 C255 -32 211 -58 153 -54 C104 -49 68 -20 56 3 L-33 -77 C-6 -114 66 -163 166 -161 C270 -158 365 -112 389 -14 C400 35 392 72 367 102 C411 128 443 166 456 215 C474 296 436 358 346 402 L346 402 Z M171 280 C176 309 204 332 242 341 C327 293 357 268 345 226 C339 198 316 175 281 163 C190 213 162 244 171 280 L171 280 Z " />
<glyph glyph-name="dieresis" unicode="&#xa8;" horiz-adv-x="400" d="M170 642 C138 642 109 617 104 587 C97 552 119 523 155 523 C186 523 217 548 223 578 C230 613 205 642 170 642 L170 642 Z M379 642 C348 642 319 617 313 587 C307 552 329 523 365 523 C396 523 427 548 433 578 C439 613 415 642 379 642 L379 642 Z " />
<glyph glyph-name="copyright" unicode="&#xa9;" horiz-adv-x="759" d="M332 -12 C524 -12 697 136 733 319 C769 508 655 659 462 659 C268 659 97 508 60 319 C24 136 138 -12 332 -12 L332 -12 Z M344 50 C183 50 98 172 127 319 C156 471 289 596 450 596 C610 596 695 471 666 319 C637 172 502 50 344 50 L344 50 Z M364 128 C410 128 451 141 487 163 L456 231 C437 218 409 208 379 208 C314 208 285 261 296 321 C308 381 358 434 423 434 C453 434 477 425 491 412 L549 479 C521 501 485 514 439 514 C321 514 227 428 206 322 C186 214 246 128 364 128 L364 128 Z " />
<glyph glyph-name="ordfeminine" unicode="&#xaa;" horiz-adv-x="423" d="M388 649 L366 607 C348 636 318 655 274 655 C185 655 103 592 83 487 C62 377 121 311 214 311 C256 311 291 327 319 353 L324 316 L406 316 L470 649 L388 649 Z M244 397 C200 397 177 432 186 479 C196 531 235 568 283 568 C331 568 355 534 346 487 C335 435 295 397 244 397 L244 397 Z M39 184 L381 184 L396 262 L54 262 L39 184 Z " />
<glyph glyph-name="guillemotleft" unicode="&#xab;" horiz-adv-x="521" d="M338 420 L217 420 L35 242 L142 64 L263 64 L154 241 L338 420 Z M524 420 L403 420 L222 242 L329 64 L450 64 L341 242 L524 420 Z " />
<glyph glyph-name="logicalnot" unicode="&#xac;" horiz-adv-x="490" d="M59 286 L355 286 L331 164 L428 164 L471 383 L78 383 L59 286 Z " />
<glyph glyph-name="uni00AD" unicode="&#xad;" horiz-adv-x="357" d="M43 203 L303 203 L323 305 L63 305 L43 203 Z " />
<glyph glyph-name="registered" unicode="&#xae;" horiz-adv-x="500" d="M329 657 C204 657 99 562 76 446 C53 325 125 228 253 228 C379 228 483 322 506 438 C529 559 458 657 329 657 L329 657 Z M465 446 C447 349 362 269 255 269 C151 269 100 346 117 438 C136 535 221 615 328 615 C432 615 483 538 465 446 L465 446 Z M326 553 L283 554 L226 554 L183 331 L240 331 L256 412 L260 412 L304 331 L376 331 L324 415 C356 421 385 441 392 479 C401 525 366 553 326 553 L326 553 Z M330 483 C326 465 313 456 294 456 L264 456 L273 503 L306 503 C325 503 333 497 330 483 L330 483 Z " />
<glyph glyph-name="macron" unicode="&#xaf;" horiz-adv-x="378" d="M120 670 L429 670 L441 729 L132 729 L120 670 Z " />
<glyph glyph-name="degree" unicode="&#xb0;" horiz-adv-x="377" d="M269 659 C186 659 105 592 89 511 C73 426 130 357 216 357 C300 357 380 423 396 504 C412 589 355 659 269 659 L269 659 Z M225 432 C185 432 160 465 168 504 C176 547 217 582 260 582 C300 582 326 550 318 511 C310 468 268 432 225 432 L225 432 Z " />
<glyph glyph-name="plusminus" unicode="&#xb1;" horiz-adv-x="531" d="M348 395 L380 561 L279 561 L247 395 L81 395 L61 293 L227 293 L195 128 L296 128 L328 293 L494 293 L514 395 L348 395 Z M4 -1 L437 -1 L456 97 L23 97 L4 -1 Z " />
<glyph glyph-name="uni00B2" unicode="&#xb2;" horiz-adv-x="386" d="M416 625 C431 702 376 750 295 750 C216 750 157 704 121 667 L181 604 C206 629 236 659 271 659 C301 659 310 641 305 619 C300 591 274 570 246 549 L80 418 L70 360 L374 360 L389 437 L237 437 L323 502 C383 545 408 581 416 625 L416 625 Z " />
<glyph glyph-name="uni00B3" unicode="&#xb3;" horiz-adv-x="386" d="M426 740 L151 740 L136 661 L276 661 L164 570 L182 517 C211 527 241 530 261 523 C281 513 285 499 279 480 C273 452 244 432 203 432 C164 431 139 450 118 473 L62 403 C100 370 143 350 212 351 C308 353 375 397 389 467 C405 543 348 582 285 583 L417 692 L426 740 Z " />
<glyph glyph-name="acute" unicode="&#xb4;" horiz-adv-x="311" d="M253 559 L359 655 L253 672 L88 510 L135 510 C171 510 195 510 253 559 L253 559 Z " />
<glyph glyph-name="uni00B5" unicode="&#xb5;" horiz-adv-x="557" d="M413 461 L365 213 C342 128 290 97 245 97 C186 97 170 137 184 206 L233 461 L103 461 L47 174 L44 156 L-22 -190 L83 -190 L131 0 C149 -8 169 -12 189 -12 C245 -12 294 10 336 49 L340 0 L454 0 L543 461 L413 461 Z " />
<glyph glyph-name="paragraph" unicode="&#xb6;" horiz-adv-x="505" d="M506 640 L275 640 C179 640 96 563 76 460 C56 355 112 276 208 276 L212 276 L130 -150 L201 -150 L340 573 L422 573 L283 -150 L354 -150 L506 640 Z " />
<glyph glyph-name="periodcentered" unicode="&#xb7;" horiz-adv-x="266" d="M128 203 C169 203 209 236 217 276 C224 316 197 349 156 349 C115 349 75 316 67 276 C59 236 86 203 128 203 L128 203 Z " />
<glyph glyph-name="cedilla" unicode="&#xb8;" horiz-adv-x="331" d="M178 -39 C156 -36 137 -40 129 -44 L188 4 L193 15 L140 22 L41 -65 L65 -92 C104 -75 145 -84 134 -112 C127 -128 111 -144 76 -144 C48 -144 21 -134 11 -126 L-35 -177 C-21 -187 19 -201 73 -199 C137 -197 198 -165 218 -114 C236 -67 207 -44 178 -39 L178 -39 Z " />
<glyph glyph-name="uni00B9" unicode="&#xb9;" horiz-adv-x="297" d="M224 740 L223 739 L223 740 L84 665 L107 589 L191 633 L139 360 L239 360 L313 740 L224 740 Z " />
<glyph glyph-name="ordmasculine" unicode="&#xba;" horiz-adv-x="431" d="M234 310 C340 310 428 384 446 480 C465 578 403 655 294 655 C189 655 101 581 83 487 C64 387 125 310 234 310 L234 310 Z M245 399 C200 399 179 434 188 480 C197 529 236 567 284 567 C329 567 350 533 341 487 C332 437 293 399 245 399 L245 399 Z M31 184 L383 184 L398 262 L46 262 L31 184 Z " />
<glyph glyph-name="guillemotright" unicode="&#xbb;" horiz-adv-x="518" d="M191 420 L70 420 L181 242 L1 64 L122 64 L300 242 L191 420 Z M377 420 L256 420 L367 242 L187 64 L308 64 L487 242 L377 420 Z " />
<glyph glyph-name="questiondown" unicode="&#xbf;" horiz-adv-x="443" d="M281 474 C240 474 200 441 192 401 C184 361 212 328 253 328 C294 328 334 361 342 401 C350 441 323 474 281 474 L281 474 Z M306 273 L178 273 L159 183 C79 167 -20 112 -40 -3 C-61 -118 19 -193 151 -193 C243 -193 325 -148 376 -93 L300 -19 C279 -45 234 -84 174 -84 C116 -84 86 -45 95 6 C108 81 181 117 277 113 L306 273 Z " />
<glyph glyph-name="Agrave" unicode="&#xc0;" horiz-adv-x="677" d="M498 690 L545 690 L439 852 L327 835 L398 739 C437 690 462 690 498 690 L498 690 Z M470 0 L617 0 L487 640 L346 640 L-30 0 L120 0 L195 138 L448 138 L470 0 Z M252 242 L391 497 L431 242 L252 242 Z " />
<glyph glyph-name="Aacute" unicode="&#xc1;" horiz-adv-x="677" d="M501 739 L607 835 L502 852 L337 690 L383 690 C419 690 444 690 501 739 L501 739 Z M470 0 L617 0 L487 640 L346 640 L-30 0 L120 0 L195 138 L448 138 L470 0 Z M252 242 L391 497 L431 242 L252 242 Z " />
<glyph glyph-name="Acircumflex" unicode="&#xc2;" horiz-adv-x="677" d="M397 720 L440 755 L469 719 C488 697 495 691 522 691 L590 691 L502 810 L399 810 L264 691 L332 691 C360 691 370 698 397 720 L397 720 Z M470 0 L617 0 L487 640 L346 640 L-30 0 L120 0 L195 138 L448 138 L470 0 Z M252 242 L391 497 L431 242 L252 242 Z " />
<glyph glyph-name="Atilde" unicode="&#xc3;" horiz-adv-x="677" d="M382 737 C426 737 440 692 496 692 C555 692 585 734 605 763 L554 799 C540 779 529 757 496 757 C454 757 438 803 380 803 C325 803 293 763 271 737 L321 696 C333 713 347 737 382 737 L382 737 Z M470 0 L617 0 L487 640 L346 640 L-30 0 L120 0 L195 138 L448 138 L470 0 Z M252 242 L391 497 L431 242 L252 242 Z " />
<glyph glyph-name="Adieresis" unicode="&#xc4;" horiz-adv-x="677" d="M328 703 C359 703 391 728 397 758 C403 793 378 822 343 822 C311 822 282 797 277 767 C270 732 292 703 328 703 L328 703 Z M538 703 C569 703 600 728 606 758 C612 793 588 822 553 822 C521 822 492 797 487 767 C480 732 502 703 538 703 L538 703 Z M470 0 L617 0 L487 640 L346 640 L-30 0 L120 0 L195 138 L448 138 L470 0 Z M252 242 L391 497 L431 242 L252 242 Z " />
<glyph glyph-name="Aring" unicode="&#xc5;" horiz-adv-x="677" d="M430 681 C489 681 542 726 553 779 C564 837 525 887 461 887 C402 887 350 841 339 788 C328 730 366 681 430 681 L430 681 Z M393 779 C399 810 426 835 459 835 C489 835 503 814 498 788 C492 757 465 732 431 732 C402 732 388 753 393 779 L393 779 Z M470 0 L617 0 L487 640 L346 640 L-30 0 L120 0 L195 138 L448 138 L470 0 Z M252 242 L391 497 L431 242 L252 242 Z " />
<glyph glyph-name="AE" unicode="&#xc6;" horiz-adv-x="828" d="M837 530 L859 643 L348 643 L-30 0 L117 0 L190 138 L403 138 L411 0 L735 0 L757 113 L529 113 L516 268 L737 268 L757 373 L507 373 L494 530 L837 530 Z M244 242 L381 502 L396 242 L244 242 Z " />
<glyph glyph-name="Ccedilla" unicode="&#xc7;" horiz-adv-x="627" d="M465 657 C260 657 97 510 62 325 C29 155 115 15 286 -10 L219 -69 L243 -96 C283 -79 323 -88 312 -116 C306 -132 289 -148 254 -148 C226 -148 199 -138 189 -130 L143 -181 C157 -191 197 -205 251 -203 C315 -201 376 -169 396 -118 C414 -71 385 -48 356 -43 C334 -40 315 -44 307 -48 L349 -14 C424 -13 496 8 558 48 L503 158 C463 128 414 108 361 108 C238 108 181 207 204 318 C225 433 323 534 450 534 C499 534 541 518 569 488 L661 593 C612 633 547 657 465 657 L465 657 Z " />
<glyph glyph-name="Egrave" unicode="&#xc8;" horiz-adv-x="539" d="M445 690 L492 690 L386 852 L274 835 L345 739 C384 690 409 690 445 690 L445 690 Z M548 527 L570 640 L157 640 L33 0 L446 0 L468 113 L193 113 L223 269 L454 269 L474 372 L243 372 L273 527 L548 527 Z " />
<glyph glyph-name="Eacute" unicode="&#xc9;" horiz-adv-x="539" d="M448 739 L554 835 L449 852 L284 690 L330 690 C366 690 391 690 448 739 L448 739 Z M548 527 L570 640 L157 640 L33 0 L446 0 L468 113 L193 113 L223 269 L454 269 L474 372 L243 372 L273 527 L548 527 Z " />
<glyph glyph-name="Ecircumflex" unicode="&#xca;" horiz-adv-x="539" d="M344 720 L387 755 L416 719 C435 697 442 691 469 691 L537 691 L449 810 L346 810 L211 691 L279 691 C307 691 317 698 344 720 L344 720 Z M548 527 L570 640 L157 640 L33 0 L446 0 L468 113 L193 113 L223 269 L454 269 L474 372 L243 372 L273 527 L548 527 Z " />
<glyph glyph-name="Edieresis" unicode="&#xcb;" horiz-adv-x="539" d="M275 703 C306 703 338 728 344 758 C350 793 325 822 290 822 C258 822 229 797 224 767 C217 732 239 703 275 703 L275 703 Z M485 703 C516 703 547 728 553 758 C559 793 535 822 500 822 C468 822 439 797 434 767 C427 732 449 703 485 703 L485 703 Z M548 527 L570 640 L157 640 L33 0 L446 0 L468 113 L193 113 L223 269 L454 269 L474 372 L243 372 L273 527 L548 527 Z " />
<glyph glyph-name="Igrave" unicode="&#xcc;" horiz-adv-x="313" d="M215 739 C254 690 279 690 315 690 L362 690 L256 852 L144 835 L215 739 Z M305 640 L167 640 L42 0 L180 0 L305 640 Z " />
<glyph glyph-name="Iacute" unicode="&#xcd;" horiz-adv-x="313" d="M319 739 L425 835 L320 852 L155 690 L201 690 C237 690 262 690 319 739 L319 739 Z M305 640 L167 640 L42 0 L180 0 L305 640 Z " />
<glyph glyph-name="Icircumflex" unicode="&#xce;" horiz-adv-x="313" d="M320 810 L217 810 L82 691 L150 691 C178 691 188 698 215 720 L258 755 L287 719 C306 697 313 691 340 691 L408 691 L320 810 Z M305 640 L167 640 L42 0 L180 0 L305 640 Z " />
<glyph glyph-name="Idieresis" unicode="&#xcf;" horiz-adv-x="313" d="M161 822 C129 822 100 797 95 767 C88 732 110 703 146 703 C177 703 209 728 215 758 C221 793 196 822 161 822 L161 822 Z M371 822 C339 822 310 797 305 767 C298 732 320 703 356 703 C387 703 418 728 424 758 C430 793 406 822 371 822 L371 822 Z M305 640 L167 640 L42 0 L180 0 L305 640 Z " />
<glyph glyph-name="Eth" unicode="&#xd0;" horiz-adv-x="684" d="M373 640 L157 640 L102 352 L49 352 L37 292 L90 292 L34 0 L253 0 C471 0 623 136 658 317 C693 501 590 640 373 640 L373 640 Z M517 324 C492 192 394 114 257 114 L194 114 L228 292 L346 292 L358 352 L240 352 L273 526 L339 526 C476 526 542 452 517 324 L517 324 Z " />
<glyph glyph-name="Ntilde" unicode="&#xd1;" horiz-adv-x="720" d="M403 737 C447 737 461 692 517 692 C576 692 606 734 626 763 L575 799 C561 779 550 757 517 757 C475 757 459 803 401 803 C346 803 314 763 292 737 L342 696 C354 713 368 737 403 737 L403 737 Z M588 640 L506 214 L284 640 L157 640 L34 0 L167 0 L249 425 L470 0 L597 0 L720 640 L588 640 Z " />
<glyph glyph-name="Ograve" unicode="&#xd2;" horiz-adv-x="782" d="M456 739 C495 690 520 690 556 690 L603 690 L497 852 L385 835 L456 739 Z M349 -14 C556 -14 721 133 756 317 C792 505 680 657 469 657 C261 657 97 510 62 327 C26 138 137 -14 349 -14 L349 -14 Z M363 108 C239 108 182 206 204 317 C225 433 326 534 455 534 C580 534 637 438 615 327 C593 211 492 108 363 108 L363 108 Z " />
<glyph glyph-name="Oacute" unicode="&#xd3;" horiz-adv-x="782" d="M560 739 L666 835 L561 852 L396 690 L442 690 C478 690 503 690 560 739 L560 739 Z M349 -14 C556 -14 721 133 756 317 C792 505 680 657 469 657 C261 657 97 510 62 327 C26 138 137 -14 349 -14 L349 -14 Z M363 108 C239 108 182 206 204 317 C225 433 326 534 455 534 C580 534 637 438 615 327 C593 211 492 108 363 108 L363 108 Z " />
<glyph glyph-name="Ocircumflex" unicode="&#xd4;" horiz-adv-x="782" d="M560 810 L457 810 L322 691 L390 691 C418 691 428 698 455 720 L498 755 L527 719 C546 697 553 691 580 691 L648 691 L560 810 Z M349 -14 C556 -14 721 133 756 317 C792 505 680 657 469 657 C261 657 97 510 62 327 C26 138 137 -14 349 -14 L349 -14 Z M363 108 C239 108 182 206 204 317 C225 433 326 534 455 534 C580 534 637 438 615 327 C593 211 492 108 363 108 L363 108 Z " />
<glyph glyph-name="Otilde" unicode="&#xd5;" horiz-adv-x="782" d="M555 692 C614 692 644 734 664 763 L613 799 C599 779 588 757 555 757 C513 757 497 803 439 803 C384 803 352 763 330 737 L380 696 C392 713 406 737 441 737 C485 737 499 692 555 692 L555 692 Z M349 -14 C556 -14 721 133 756 317 C792 505 680 657 469 657 C261 657 97 510 62 327 C26 138 137 -14 349 -14 L349 -14 Z M363 108 C239 108 182 206 204 317 C225 433 326 534 455 534 C580 534 637 438 615 327 C593 211 492 108 363 108 L363 108 Z " />
<glyph glyph-name="Odieresis" unicode="&#xd6;" horiz-adv-x="782" d="M402 822 C370 822 341 797 336 767 C329 732 351 703 387 703 C418 703 450 728 456 758 C462 793 437 822 402 822 L402 822 Z M612 822 C580 822 551 797 546 767 C539 732 561 703 597 703 C628 703 659 728 665 758 C671 793 647 822 612 822 L612 822 Z M349 -14 C556 -14 721 133 756 317 C792 505 680 657 469 657 C261 657 97 510 62 327 C26 138 137 -14 349 -14 L349 -14 Z M363 108 C239 108 182 206 204 317 C225 433 326 534 455 534 C580 534 637 438 615 327 C593 211 492 108 363 108 L363 108 Z " />
<glyph glyph-name="multiply" unicode="&#xd7;" horiz-adv-x="476" d="M454 372 L396 443 L257 326 L162 444 L77 372 L171 255 L30 137 L88 65 L229 183 L323 66 L409 137 L314 255 L454 372 Z " />
<glyph glyph-name="Oslash" unicode="&#xd8;" horiz-adv-x="782" d="M805 640 L764 683 L667 595 C618 634 551 657 469 657 C261 657 97 510 62 327 C44 234 62 149 111 88 L19 4 L59 -40 L153 46 C202 8 268 -14 349 -14 C556 -14 721 133 756 317 C774 408 756 491 709 553 L805 640 Z M204 317 C225 433 326 534 455 534 C500 534 537 521 563 500 L219 186 C200 223 194 269 204 317 L204 317 Z M615 327 C593 211 492 108 363 108 C319 108 284 120 257 141 L601 454 C619 419 624 374 615 327 L615 327 Z " />
<glyph glyph-name="Ugrave" unicode="&#xd9;" horiz-adv-x="650" d="M384 739 C423 690 448 690 484 690 L531 690 L425 852 L313 835 L384 739 Z M281 -14 C434 -14 556 64 592 248 L667 640 L529 640 L456 262 C436 154 373 108 299 108 C227 108 185 150 206 259 L279 640 L141 640 L67 252 C32 68 126 -14 281 -14 L281 -14 Z " />
<glyph glyph-name="Uacute" unicode="&#xda;" horiz-adv-x="650" d="M488 739 L594 835 L489 852 L324 690 L370 690 C406 690 431 690 488 739 L488 739 Z M281 -14 C434 -14 556 64 592 248 L667 640 L529 640 L456 262 C436 154 373 108 299 108 C227 108 185 150 206 259 L279 640 L141 640 L67 252 C32 68 126 -14 281 -14 L281 -14 Z " />
<glyph glyph-name="Ucircumflex" unicode="&#xdb;" horiz-adv-x="650" d="M488 810 L385 810 L250 691 L318 691 C346 691 356 698 383 720 L426 755 L455 719 C474 697 481 691 508 691 L576 691 L488 810 Z M281 -14 C434 -14 556 64 592 248 L667 640 L529 640 L456 262 C436 154 373 108 299 108 C227 108 185 150 206 259 L279 640 L141 640 L67 252 C32 68 126 -14 281 -14 L281 -14 Z " />
<glyph glyph-name="Udieresis" unicode="&#xdc;" horiz-adv-x="650" d="M330 822 C298 822 269 797 264 767 C257 732 279 703 315 703 C346 703 378 728 384 758 C390 793 365 822 330 822 L330 822 Z M540 822 C508 822 479 797 474 767 C467 732 489 703 525 703 C556 703 587 728 593 758 C599 793 575 822 540 822 L540 822 Z M281 -14 C434 -14 556 64 592 248 L667 640 L529 640 L456 262 C436 154 373 108 299 108 C227 108 185 150 206 259 L279 640 L141 640 L67 252 C32 68 126 -14 281 -14 L281 -14 Z " />
<glyph glyph-name="Yacute" unicode="&#xdd;" horiz-adv-x="625" d="M476 739 L582 835 L477 852 L312 690 L358 690 C394 690 419 690 476 739 L476 739 Z M690 640 L532 640 L348 418 L251 640 L95 640 L255 294 L200 0 L338 0 L392 289 L690 640 Z " />
<glyph glyph-name="Thorn" unicode="&#xde;" horiz-adv-x="574" d="M385 535 L272 535 L292 640 L157 640 L33 0 L169 0 L194 130 L311 131 C422 131 536 208 560 329 C584 455 496 534 385 535 L385 535 Z M421 336 C409 272 359 233 288 234 L214 234 L252 431 L330 432 C401 432 433 398 421 336 L421 336 Z " />
<glyph glyph-name="germandbls" unicode="&#xdf;" horiz-adv-x="598" d="M213 -5 C380 -31 515 46 543 192 C563 291 510 350 438 367 C481 385 538 423 554 508 C573 605 505 682 389 682 C278 682 151 633 114 446 L27 0 L156 0 L242 442 C257 516 297 565 360 565 C399 565 430 538 422 493 C411 438 359 409 317 409 L305 409 L285 307 L302 307 C368 307 426 269 412 198 C398 130 337 80 233 99 L213 -5 Z " />
<glyph glyph-name="agrave" unicode="&#xe0;" horiz-adv-x="570" d="M410 536 L457 536 L351 698 L239 681 L310 585 C349 536 374 536 410 536 L410 536 Z M451 461 L430 416 C404 451 362 473 301 473 C180 473 66 381 33 227 C1 77 75 -10 193 -10 C259 -10 314 15 357 53 L361 0 L467 0 L558 461 L451 461 Z M166 235 C183 311 240 364 308 364 C380 364 419 307 402 227 C386 151 327 99 259 99 C188 99 150 155 166 235 L166 235 Z " />
<glyph glyph-name="aacute" unicode="&#xe1;" horiz-adv-x="570" d="M413 584 L519 680 L414 697 L249 535 L295 535 C331 535 356 535 413 584 L413 584 Z M451 461 L430 416 C404 451 362 473 301 473 C180 473 66 381 33 227 C1 77 75 -10 193 -10 C259 -10 314 15 357 53 L361 0 L467 0 L558 461 L451 461 Z M166 235 C183 311 240 364 308 364 C380 364 419 307 402 227 C386 151 327 99 259 99 C188 99 150 155 166 235 L166 235 Z " />
<glyph glyph-name="acircumflex" unicode="&#xe2;" horiz-adv-x="570" d="M309 565 L352 600 L381 564 C400 542 407 536 434 536 L502 536 L414 655 L311 655 L176 536 L244 536 C272 536 282 543 309 565 L309 565 Z M451 461 L430 416 C404 451 362 473 301 473 C180 473 66 381 33 227 C1 77 75 -10 193 -10 C259 -10 314 15 357 53 L361 0 L467 0 L558 461 L451 461 Z M166 235 C183 311 240 364 308 364 C380 364 419 307 402 227 C386 151 327 99 259 99 C188 99 150 155 166 235 L166 235 Z " />
<glyph glyph-name="atilde" unicode="&#xe3;" horiz-adv-x="570" d="M294 582 C338 582 352 537 408 537 C467 537 497 579 517 608 L466 644 C452 624 441 602 408 602 C366 602 350 648 292 648 C237 648 205 608 183 582 L233 541 C245 558 259 582 294 582 L294 582 Z M451 461 L430 416 C404 451 362 473 301 473 C180 473 66 381 33 227 C1 77 75 -10 193 -10 C259 -10 314 15 357 53 L361 0 L467 0 L558 461 L451 461 Z M166 235 C183 311 240 364 308 364 C380 364 419 307 402 227 C386 151 327 99 259 99 C188 99 150 155 166 235 L166 235 Z " />
<glyph glyph-name="adieresis" unicode="&#xe4;" horiz-adv-x="570" d="M241 549 C272 549 304 574 310 604 C316 639 291 668 256 668 C224 668 195 643 190 613 C183 578 205 549 241 549 L241 549 Z M451 549 C482 549 513 574 519 604 C525 639 501 668 466 668 C434 668 405 643 400 613 C393 578 415 549 451 549 L451 549 Z M451 461 L430 416 C404 451 362 473 301 473 C180 473 66 381 33 227 C1 77 75 -10 193 -10 C259 -10 314 15 357 53 L361 0 L467 0 L558 461 L451 461 Z M166 235 C183 311 240 364 308 364 C380 364 419 307 402 227 C386 151 327 99 259 99 C188 99 150 155 166 235 L166 235 Z " />
<glyph glyph-name="aring" unicode="&#xe5;" horiz-adv-x="570" d="M342 527 C401 527 454 572 465 625 C476 683 437 733 373 733 C314 733 262 687 251 634 C240 576 278 527 342 527 L342 527 Z M305 625 C311 656 338 681 371 681 C401 681 415 660 410 634 C404 603 377 578 343 578 C314 578 300 599 305 625 L305 625 Z M451 461 L430 416 C404 451 362 473 301 473 C180 473 66 381 33 227 C1 77 75 -10 193 -10 C259 -10 314 15 357 53 L361 0 L467 0 L558 461 L451 461 Z M166 235 C183 311 240 364 308 364 C380 364 419 307 402 227 C386 151 327 99 259 99 C188 99 150 155 166 235 L166 235 Z " />
<glyph glyph-name="ae" unicode="&#xe6;" horiz-adv-x="923" d="M721 473 C658 473 599 454 550 421 L558 461 L451 461 L430 416 C404 451 362 473 301 473 C180 473 66 381 33 227 C1 77 75 -10 193 -10 C259 -10 314 15 357 53 L361 0 L467 0 L476 47 C515 9 574 -14 649 -14 C729 -14 795 9 847 54 L768 130 C738 99 699 80 649 80 C580 80 549 127 555 198 L663 198 C823 198 902 250 906 332 C909 417 826 473 721 473 L721 473 Z M660 273 L574 273 C601 339 653 378 712 378 C755 378 788 358 788 328 C785 289 725 273 660 273 L660 273 Z M166 235 C183 311 240 364 308 364 C380 364 419 307 402 227 C386 151 327 99 259 99 C188 99 150 155 166 235 L166 235 Z " />
<glyph glyph-name="ccedilla" unicode="&#xe7;" horiz-adv-x="460" d="M409 36 L354 134 C327 111 291 97 257 97 C184 97 149 150 164 226 C180 306 238 362 315 362 C346 362 375 351 393 328 L482 421 C442 453 395 473 324 473 C183 473 60 371 33 233 C10 108 73 12 186 -9 L122 -66 L146 -93 C186 -76 226 -85 215 -113 C209 -129 192 -145 157 -145 C129 -145 102 -135 92 -127 L46 -178 C60 -188 100 -202 154 -200 C218 -198 279 -166 299 -115 C317 -68 288 -45 259 -40 C237 -37 218 -41 210 -45 L248 -14 C310 -12 361 5 409 36 L409 36 Z " />
<glyph glyph-name="egrave" unicode="&#xe8;" horiz-adv-x="530" d="M421 536 L468 536 L362 698 L250 681 L321 585 C360 536 385 536 421 536 L421 536 Z M328 473 C184 473 61 374 34 237 C6 94 92 -14 256 -14 C336 -14 401 9 454 54 L375 130 C345 99 306 80 256 80 C187 80 156 127 162 198 L270 198 C430 198 509 250 512 332 C516 417 432 473 328 473 L328 473 Z M394 328 C392 289 332 273 267 273 L180 273 C208 339 260 378 319 378 C362 378 395 358 394 328 L394 328 Z " />
<glyph glyph-name="eacute" unicode="&#xe9;" horiz-adv-x="530" d="M425 584 L531 680 L426 697 L261 535 L307 535 C343 535 368 535 425 584 L425 584 Z M328 473 C184 473 61 374 34 237 C6 94 92 -14 256 -14 C336 -14 401 9 454 54 L375 130 C345 99 306 80 256 80 C187 80 156 127 162 198 L270 198 C430 198 509 250 512 332 C516 417 432 473 328 473 L328 473 Z M394 328 C392 289 332 273 267 273 L180 273 C208 339 260 378 319 378 C362 378 395 358 394 328 L394 328 Z " />
<glyph glyph-name="ecircumflex" unicode="&#xea;" horiz-adv-x="530" d="M320 565 L363 600 L392 564 C411 542 418 536 445 536 L513 536 L425 655 L322 655 L187 536 L255 536 C283 536 293 543 320 565 L320 565 Z M328 473 C184 473 61 374 34 237 C6 94 92 -14 256 -14 C336 -14 401 9 454 54 L375 130 C345 99 306 80 256 80 C187 80 156 127 162 198 L270 198 C430 198 509 250 512 332 C516 417 432 473 328 473 L328 473 Z M394 328 C392 289 332 273 267 273 L180 273 C208 339 260 378 319 378 C362 378 395 358 394 328 L394 328 Z " />
<glyph glyph-name="edieresis" unicode="&#xeb;" horiz-adv-x="530" d="M252 549 C283 549 315 574 321 604 C327 639 302 668 267 668 C235 668 206 643 201 613 C194 578 216 549 252 549 L252 549 Z M477 668 C445 668 416 643 411 613 C404 578 426 549 462 549 C493 549 524 574 530 604 C536 639 512 668 477 668 L477 668 Z M328 473 C184 473 61 374 34 237 C6 94 92 -14 256 -14 C336 -14 401 9 454 54 L375 130 C345 99 306 80 256 80 C187 80 156 127 162 198 L270 198 C430 198 509 250 512 332 C516 417 432 473 328 473 L328 473 Z M394 328 C392 289 332 273 267 273 L180 273 C208 339 260 378 319 378 C362 378 395 358 394 328 L394 328 Z " />
<glyph glyph-name="igrave" unicode="&#xec;" horiz-adv-x="274" d="M167 590 C206 541 231 541 267 541 L314 541 L208 703 L96 686 L167 590 Z M28 0 L156 0 L246 461 L118 461 L28 0 Z " />
<glyph glyph-name="iacute" unicode="&#xed;" horiz-adv-x="274" d="M271 590 L377 686 L272 703 L107 541 L153 541 C189 541 214 541 271 590 L271 590 Z M28 0 L156 0 L246 461 L118 461 L28 0 Z " />
<glyph glyph-name="icircumflex" unicode="&#xee;" horiz-adv-x="274" d="M271 661 L168 661 L33 542 L101 542 C129 542 139 549 166 571 L209 606 L238 570 C257 548 264 542 291 542 L359 542 L271 661 Z M28 0 L156 0 L246 461 L118 461 L28 0 Z " />
<glyph glyph-name="idieresis" unicode="&#xef;" horiz-adv-x="274" d="M113 673 C81 673 52 648 47 618 C40 583 62 554 98 554 C129 554 161 579 167 609 C173 644 148 673 113 673 L113 673 Z M323 673 C291 673 262 648 257 618 C250 583 272 554 308 554 C339 554 370 579 376 609 C382 644 358 673 323 673 L323 673 Z M28 0 L156 0 L246 461 L118 461 L28 0 Z " />
<glyph glyph-name="eth" unicode="&#xf0;" horiz-adv-x="558" d="M408 578 L520 625 L466 678 L363 636 C347 656 329 677 310 699 L190 640 L239 585 L131 541 L178 482 L287 528 C313 496 331 471 342 452 C318 457 303 457 286 456 C156 452 56 349 32 227 C6 89 89 -12 236 -12 C377 -12 496 86 523 220 C546 339 513 438 408 578 L408 578 Z M395 227 C381 151 322 97 250 97 C181 97 146 148 160 220 C174 295 232 350 305 350 C374 350 409 298 395 227 L395 227 Z " />
<glyph glyph-name="ntilde" unicode="&#xf1;" horiz-adv-x="552" d="M291 582 C335 582 349 537 405 537 C464 537 494 579 514 608 L463 644 C449 624 438 602 405 602 C363 602 347 648 289 648 C234 648 202 608 180 582 L230 541 C242 558 256 582 291 582 L291 582 Z M372 473 C311 473 260 449 221 410 L216 461 L103 461 L14 0 L143 0 L192 257 C213 335 266 364 312 364 C370 364 387 324 374 255 L325 0 L454 0 L510 287 C537 427 452 473 372 473 L372 473 Z " />
<glyph glyph-name="ograve" unicode="&#xf2;" horiz-adv-x="574" d="M317 585 C356 536 381 536 417 536 L464 536 L358 698 L246 681 L317 585 Z M243 -14 C391 -14 514 88 540 226 C567 368 482 473 330 473 C182 473 60 371 33 233 C6 91 91 -14 243 -14 L243 -14 Z M257 95 C188 95 150 150 165 226 C180 306 244 364 316 364 C384 364 423 309 408 233 C393 153 329 95 257 95 L257 95 Z " />
<glyph glyph-name="oacute" unicode="&#xf3;" horiz-adv-x="574" d="M421 584 L527 680 L422 697 L257 535 L303 535 C339 535 364 535 421 584 L421 584 Z M243 -14 C391 -14 514 88 540 226 C567 368 482 473 330 473 C182 473 60 371 33 233 C6 91 91 -14 243 -14 L243 -14 Z M257 95 C188 95 150 150 165 226 C180 306 244 364 316 364 C384 364 423 309 408 233 C393 153 329 95 257 95 L257 95 Z " />
<glyph glyph-name="ocircumflex" unicode="&#xf4;" horiz-adv-x="574" d="M421 655 L318 655 L183 536 L251 536 C279 536 289 543 316 565 L359 600 L388 564 C407 542 414 536 441 536 L509 536 L421 655 Z M243 -14 C391 -14 514 88 540 226 C567 368 482 473 330 473 C182 473 60 371 33 233 C6 91 91 -14 243 -14 L243 -14 Z M257 95 C188 95 150 150 165 226 C180 306 244 364 316 364 C384 364 423 309 408 233 C393 153 329 95 257 95 L257 95 Z " />
<glyph glyph-name="otilde" unicode="&#xf5;" horiz-adv-x="574" d="M415 537 C474 537 504 579 524 608 L473 644 C459 624 448 602 415 602 C373 602 357 648 299 648 C244 648 212 608 190 582 L240 541 C252 558 266 582 301 582 C345 582 359 537 415 537 L415 537 Z M243 -14 C391 -14 514 88 540 226 C567 368 482 473 330 473 C182 473 60 371 33 233 C6 91 91 -14 243 -14 L243 -14 Z M257 95 C188 95 150 150 165 226 C180 306 244 364 316 364 C384 364 423 309 408 233 C393 153 329 95 257 95 L257 95 Z " />
<glyph glyph-name="odieresis" unicode="&#xf6;" horiz-adv-x="574" d="M263 668 C231 668 202 643 197 613 C190 578 212 549 248 549 C279 549 311 574 317 604 C323 639 298 668 263 668 L263 668 Z M473 668 C441 668 412 643 407 613 C400 578 422 549 458 549 C489 549 520 574 526 604 C532 639 508 668 473 668 L473 668 Z M243 -14 C391 -14 514 88 540 226 C567 368 482 473 330 473 C182 473 60 371 33 233 C6 91 91 -14 243 -14 L243 -14 Z M257 95 C188 95 150 150 165 226 C180 306 244 364 316 364 C384 364 423 309 408 233 C393 153 329 95 257 95 L257 95 Z " />
<glyph glyph-name="divide" unicode="&#xf7;" horiz-adv-x="531" d="M294 360 C330 360 366 389 373 424 C380 460 356 489 319 489 C282 489 247 460 240 424 C233 389 257 360 294 360 L294 360 Z M43 203 L476 203 L496 305 L63 305 L43 203 Z M228 19 C264 19 300 48 307 84 C314 119 289 148 253 148 C216 148 181 119 174 84 C167 48 191 19 228 19 L228 19 Z " />
<glyph glyph-name="oslash" unicode="&#xf8;" horiz-adv-x="575" d="M573 455 L537 494 L471 434 C435 459 388 473 331 473 C182 473 61 371 33 233 C20 166 33 107 66 63 L2 5 L38 -34 L104 26 C140 1 187 -14 244 -14 C394 -14 515 88 542 226 C555 294 543 353 509 397 L573 455 Z M151 226 C169 316 238 380 320 380 C348 380 371 372 389 359 L155 145 C147 167 145 195 151 226 L151 226 Z M423 233 C406 143 338 79 255 79 C227 79 203 87 186 101 L420 315 C428 292 429 264 423 233 L423 233 Z " />
<glyph glyph-name="ugrave" unicode="&#xf9;" horiz-adv-x="546" d="M303 585 C342 536 367 536 403 536 L450 536 L344 698 L232 681 L303 585 Z M230 -12 C337 -12 455 32 488 207 L537 461 L408 461 L359 206 C347 140 307 97 244 97 C185 97 165 137 177 203 L227 461 L98 461 L50 210 C16 35 118 -12 230 -12 L230 -12 Z " />
<glyph glyph-name="uacute" unicode="&#xfa;" horiz-adv-x="546" d="M407 584 L513 680 L408 697 L243 535 L289 535 C325 535 350 535 407 584 L407 584 Z M230 -12 C337 -12 455 32 488 207 L537 461 L408 461 L359 206 C347 140 307 97 244 97 C185 97 165 137 177 203 L227 461 L98 461 L50 210 C16 35 118 -12 230 -12 L230 -12 Z " />
<glyph glyph-name="ucircumflex" unicode="&#xfb;" horiz-adv-x="546" d="M407 655 L304 655 L169 536 L237 536 C265 536 275 543 302 565 L345 600 L374 564 C393 542 400 536 427 536 L495 536 L407 655 Z M230 -12 C337 -12 455 32 488 207 L537 461 L408 461 L359 206 C347 140 307 97 244 97 C185 97 165 137 177 203 L227 461 L98 461 L50 210 C16 35 118 -12 230 -12 L230 -12 Z " />
<glyph glyph-name="udieresis" unicode="&#xfc;" horiz-adv-x="546" d="M249 668 C217 668 188 643 183 613 C176 578 198 549 234 549 C265 549 297 574 303 604 C309 639 284 668 249 668 L249 668 Z M459 668 C427 668 398 643 393 613 C386 578 408 549 444 549 C475 549 506 574 512 604 C518 639 494 668 459 668 L459 668 Z M230 -12 C337 -12 455 32 488 207 L537 461 L408 461 L359 206 C347 140 307 97 244 97 C185 97 165 137 177 203 L227 461 L98 461 L50 210 C16 35 118 -12 230 -12 L230 -12 Z " />
<glyph glyph-name="yacute" unicode="&#xfd;" horiz-adv-x="525" d="M394 584 L500 680 L395 697 L230 535 L276 535 C312 535 337 535 394 584 L394 584 Z M425 461 L246 162 L184 461 L50 461 L156 17 L11 -210 L145 -210 L565 461 L425 461 Z " />
<glyph glyph-name="thorn" unicode="&#xfe;" horiz-adv-x="576" d="M373 473 C313 473 263 452 224 419 L275 680 L146 680 L-24 -190 L105 -190 L152 48 C180 13 223 -10 286 -10 C404 -10 513 77 542 227 C571 381 494 473 373 473 L373 473 Z M411 235 C396 155 335 99 264 99 C195 99 158 151 173 227 C188 307 250 364 322 364 C390 364 426 311 411 235 L411 235 Z " />
<glyph glyph-name="ydieresis" unicode="&#xff;" horiz-adv-x="525" d="M222 549 C253 549 285 574 291 604 C297 639 272 668 237 668 C205 668 176 643 171 613 C164 578 186 549 222 549 L222 549 Z M432 549 C463 549 494 574 500 604 C506 639 482 668 447 668 C415 668 386 643 381 613 C374 578 396 549 432 549 L432 549 Z M425 461 L246 162 L184 461 L50 461 L156 17 L11 -210 L145 -210 L565 461 L425 461 Z " />
<glyph glyph-name="Amacron" unicode="&#x100;" horiz-adv-x="677" d="M597 786 L294 786 L282 721 L584 721 L597 786 Z M470 0 L617 0 L487 640 L346 640 L-30 0 L120 0 L195 138 L448 138 L470 0 Z M252 242 L391 497 L431 242 L252 242 Z " />
<glyph glyph-name="amacron" unicode="&#x101;" horiz-adv-x="570" d="M509 631 L206 631 L194 566 L496 566 L509 631 Z M451 461 L430 416 C404 451 362 473 301 473 C180 473 66 381 33 227 C1 77 75 -10 193 -10 C259 -10 314 15 357 53 L361 0 L467 0 L558 461 L451 461 Z M166 235 C183 311 240 364 308 364 C380 364 419 307 402 227 C386 151 327 99 259 99 C188 99 150 155 166 235 L166 235 Z " />
<glyph glyph-name="Abreve" unicode="&#x102;" horiz-adv-x="677" d="M433 690 C530 690 590 734 607 809 L538 809 C528 782 494 753 436 753 C383 753 364 776 366 809 L298 809 C286 740 332 690 433 690 L433 690 Z M470 0 L617 0 L487 640 L346 640 L-30 0 L120 0 L195 138 L448 138 L470 0 Z M252 242 L391 497 L431 242 L252 242 Z " />
<glyph glyph-name="abreve" unicode="&#x103;" horiz-adv-x="570" d="M345 536 C442 536 502 580 519 655 L450 655 C440 628 406 599 348 599 C295 599 276 622 278 655 L210 655 C198 586 244 536 345 536 L345 536 Z M451 461 L430 416 C404 451 362 473 301 473 C180 473 66 381 33 227 C1 77 75 -10 193 -10 C259 -10 314 15 357 53 L361 0 L467 0 L558 461 L451 461 Z M166 235 C183 311 240 364 308 364 C380 364 419 307 402 227 C386 151 327 99 259 99 C188 99 150 155 166 235 L166 235 Z " />
<glyph glyph-name="Aogonek" unicode="&#x104;" horiz-adv-x="677" d="M487 640 L346 640 L-30 0 L120 0 L195 138 L448 138 L470 0 L471 0 C399 -40 360 -92 372 -145 C385 -201 468 -215 543 -176 L532 -119 C425 -160 423 -66 543 -10 L564 0 L617 0 L487 640 Z M252 242 L391 497 L431 242 L252 242 Z " />
<glyph glyph-name="aogonek" unicode="&#x105;" horiz-adv-x="570" d="M451 461 L430 416 C404 451 362 473 301 473 C180 473 66 381 33 227 C1 77 75 -10 193 -10 C259 -10 314 15 357 53 L361 1 C288 -39 248 -91 260 -145 C273 -201 356 -215 431 -176 L420 -119 C313 -160 311 -66 431 -10 L452 0 L467 0 L558 461 L451 461 Z M166 235 C183 311 240 364 308 364 C380 364 419 307 402 227 C386 151 327 99 259 99 C188 99 150 155 166 235 L166 235 Z " />
<glyph glyph-name="Cacute" unicode="&#x106;" horiz-adv-x="627" d="M538 739 L644 835 L539 852 L374 690 L420 690 C456 690 481 690 538 739 L538 739 Z M342 -14 C420 -14 494 7 558 48 L503 158 C463 128 414 108 361 108 C238 108 181 207 204 318 C225 433 323 534 450 534 C499 534 541 518 569 488 L661 593 C612 633 547 657 465 657 C260 657 97 510 62 325 C26 137 134 -14 342 -14 L342 -14 Z " />
<glyph glyph-name="cacute" unicode="&#x107;" horiz-adv-x="460" d="M408 584 L514 680 L409 697 L244 535 L290 535 C326 535 351 535 408 584 L408 584 Z M237 -14 C304 -14 358 3 409 36 L354 134 C327 111 291 97 257 97 C184 97 149 150 164 226 C180 306 238 362 315 362 C346 362 375 351 393 328 L482 421 C442 453 395 473 324 473 C183 473 60 371 33 233 C7 91 92 -14 237 -14 L237 -14 Z " />
<glyph glyph-name="Ccircumflex" unicode="&#x108;" horiz-adv-x="627" d="M433 720 L476 755 L505 719 C524 697 531 691 558 691 L626 691 L538 810 L435 810 L300 691 L368 691 C396 691 406 698 433 720 L433 720 Z M465 657 C260 657 97 510 62 325 C26 137 134 -14 342 -14 C420 -14 494 7 558 48 L503 158 C463 128 414 108 361 108 C238 108 181 207 204 318 C225 433 323 534 450 534 C499 534 541 518 569 488 L661 593 C612 633 547 657 465 657 L465 657 Z " />
<glyph glyph-name="ccircumflex" unicode="&#x109;" horiz-adv-x="460" d="M409 655 L306 655 L171 536 L239 536 C267 536 277 543 304 565 L347 600 L376 564 C395 542 402 536 429 536 L497 536 L409 655 Z M237 -14 C304 -14 358 3 409 36 L354 134 C327 111 291 97 257 97 C184 97 149 150 164 226 C180 306 238 362 315 362 C346 362 375 351 393 328 L482 421 C442 453 395 473 324 473 C183 473 60 371 33 233 C7 91 92 -14 237 -14 L237 -14 Z " />
<glyph glyph-name="Cdotaccent" unicode="&#x10a;" horiz-adv-x="627" d="M465 696 C503 696 539 726 546 762 C554 799 529 829 491 829 C453 829 417 799 410 762 C403 726 428 696 465 696 L465 696 Z M342 -14 C420 -14 494 7 558 48 L503 158 C463 128 414 108 361 108 C238 108 181 207 204 318 C225 433 323 534 450 534 C499 534 541 518 569 488 L661 593 C612 633 547 657 465 657 C260 657 97 510 62 325 C26 137 134 -14 342 -14 L342 -14 Z " />
<glyph glyph-name="cdotaccent" unicode="&#x10b;" horiz-adv-x="460" d="M336 542 C374 542 410 572 417 608 C425 645 400 675 362 675 C324 675 288 645 281 608 C274 572 299 542 336 542 L336 542 Z M237 -14 C304 -14 358 3 409 36 L354 134 C327 111 291 97 257 97 C184 97 149 150 164 226 C180 306 238 362 315 362 C346 362 375 351 393 328 L482 421 C442 453 395 473 324 473 C183 473 60 371 33 233 C7 91 92 -14 237 -14 L237 -14 Z " />
<glyph glyph-name="Ccaron" unicode="&#x10c;" horiz-adv-x="627" d="M515 696 L650 815 L582 815 C554 815 545 808 517 786 L475 751 L445 787 C426 809 419 815 392 815 L324 815 L412 696 L515 696 Z M465 657 C260 657 97 510 62 325 C26 137 134 -14 342 -14 C420 -14 494 7 558 48 L503 158 C463 128 414 108 361 108 C238 108 181 207 204 318 C225 433 323 534 450 534 C499 534 541 518 569 488 L661 593 C612 633 547 657 465 657 L465 657 Z " />
<glyph glyph-name="ccaron" unicode="&#x10d;" horiz-adv-x="460" d="M283 541 L386 541 L521 660 L453 660 C425 660 416 653 388 631 L345 596 L316 632 C297 654 290 660 263 660 L195 660 L283 541 Z M237 -14 C304 -14 358 3 409 36 L354 134 C327 111 291 97 257 97 C184 97 149 150 164 226 C180 306 238 362 315 362 C346 362 375 351 393 328 L482 421 C442 453 395 473 324 473 C183 473 60 371 33 233 C7 91 92 -14 237 -14 L237 -14 Z " />
<glyph glyph-name="Dcaron" unicode="&#x10e;" horiz-adv-x="684" d="M453 696 L588 815 L520 815 C492 815 483 808 455 786 L413 751 L383 787 C364 809 357 815 330 815 L262 815 L350 696 L453 696 Z M373 640 L157 640 L34 0 L253 0 C471 0 623 136 658 317 C693 501 590 640 373 640 L373 640 Z M517 324 C492 192 394 114 257 114 L194 114 L273 526 L339 526 C476 526 542 452 517 324 L517 324 Z " />
<glyph glyph-name="dcaron" unicode="&#x10f;" horiz-adv-x="642" d="M771 712 C742 714 716 696 708 668 C700 638 720 618 747 621 C740 599 718 579 687 565 L694 530 C754 550 795 597 808 642 C818 678 806 709 771 712 L771 712 Z M426 420 C399 452 358 473 299 473 C178 473 64 381 32 227 C2 77 77 -10 195 -10 C263 -10 319 17 362 57 L365 0 L471 0 L608 680 L479 680 L426 420 Z M260 99 C189 99 150 155 166 235 C182 311 239 364 306 364 C378 364 418 307 402 227 C387 151 329 99 260 99 L260 99 Z " />
<glyph glyph-name="Dcroat" unicode="&#x110;" horiz-adv-x="684" d="M373 640 L157 640 L102 352 L49 352 L37 292 L90 292 L34 0 L253 0 C471 0 623 136 658 317 C693 501 590 640 373 640 L373 640 Z M517 324 C492 192 394 114 257 114 L194 114 L228 292 L346 292 L358 352 L240 352 L273 526 L339 526 C476 526 542 452 517 324 L517 324 Z " />
<glyph glyph-name="dcroat" unicode="&#x111;" horiz-adv-x="573" d="M649 585 L589 585 L608 680 L479 680 L460 585 L340 585 L328 526 L448 526 L426 420 C399 452 358 473 299 473 C178 473 64 381 32 227 C2 77 77 -10 195 -10 C263 -10 319 17 362 57 L365 0 L471 0 L577 526 L637 526 L649 585 Z M260 99 C189 99 150 155 166 235 C182 311 239 364 306 364 C378 364 418 307 402 227 C387 151 329 99 260 99 L260 99 Z " />
<glyph glyph-name="Emacron" unicode="&#x112;" horiz-adv-x="539" d="M544 786 L241 786 L229 721 L531 721 L544 786 Z M548 527 L570 640 L157 640 L33 0 L446 0 L468 113 L193 113 L223 269 L454 269 L474 372 L243 372 L273 527 L548 527 Z " />
<glyph glyph-name="emacron" unicode="&#x113;" horiz-adv-x="530" d="M521 631 L218 631 L206 566 L508 566 L521 631 Z M328 473 C184 473 61 374 34 237 C6 94 92 -14 256 -14 C336 -14 401 9 454 54 L375 130 C345 99 306 80 256 80 C187 80 156 127 162 198 L270 198 C430 198 509 250 512 332 C516 417 432 473 328 473 L328 473 Z M394 328 C392 289 332 273 267 273 L180 273 C208 339 260 378 319 378 C362 378 395 358 394 328 L394 328 Z " />
<glyph glyph-name="Ebreve" unicode="&#x114;" horiz-adv-x="539" d="M379 690 C476 690 536 734 553 809 L484 809 C474 782 440 753 382 753 C329 753 310 776 312 809 L244 809 C232 740 278 690 379 690 L379 690 Z M548 527 L570 640 L157 640 L33 0 L446 0 L468 113 L193 113 L223 269 L454 269 L474 372 L243 372 L273 527 L548 527 Z " />
<glyph glyph-name="ebreve" unicode="&#x115;" horiz-adv-x="530" d="M356 536 C453 536 513 580 530 655 L461 655 C451 628 417 599 359 599 C306 599 287 622 289 655 L221 655 C209 586 255 536 356 536 L356 536 Z M328 473 C184 473 61 374 34 237 C6 94 92 -14 256 -14 C336 -14 401 9 454 54 L375 130 C345 99 306 80 256 80 C187 80 156 127 162 198 L270 198 C430 198 509 250 512 332 C516 417 432 473 328 473 L328 473 Z M394 328 C392 289 332 273 267 273 L180 273 C208 339 260 378 319 378 C362 378 395 358 394 328 L394 328 Z " />
<glyph glyph-name="Edotaccent" unicode="&#x116;" horiz-adv-x="539" d="M376 696 C414 696 450 726 457 762 C465 799 440 829 402 829 C364 829 328 799 321 762 C314 726 339 696 376 696 L376 696 Z M548 527 L570 640 L157 640 L33 0 L446 0 L468 113 L193 113 L223 269 L454 269 L474 372 L243 372 L273 527 L548 527 Z " />
<glyph glyph-name="edotaccent" unicode="&#x117;" horiz-adv-x="530" d="M353 542 C391 542 427 572 434 608 C442 645 417 675 379 675 C341 675 305 645 298 608 C291 572 316 542 353 542 L353 542 Z M328 473 C184 473 61 374 34 237 C6 94 92 -14 256 -14 C336 -14 401 9 454 54 L375 130 C345 99 306 80 256 80 C187 80 156 127 162 198 L270 198 C430 198 509 250 512 332 C516 417 432 473 328 473 L328 473 Z M394 328 C392 289 332 273 267 273 L180 273 C208 339 260 378 319 378 C362 378 395 358 394 328 L394 328 Z " />
<glyph glyph-name="Eogonek" unicode="&#x118;" horiz-adv-x="539" d="M548 527 L570 640 L157 640 L33 0 L348 0 C276 -40 237 -92 249 -145 C262 -201 345 -215 420 -176 L409 -119 C302 -160 300 -66 420 -10 L441 0 L446 0 L468 113 L193 113 L223 269 L454 269 L474 372 L243 372 L273 527 L548 527 Z " />
<glyph glyph-name="eogonek" unicode="&#x119;" horiz-adv-x="530" d="M328 473 C184 473 61 374 34 237 C8 105 80 2 221 -12 C163 -50 132 -97 143 -145 C156 -201 239 -215 314 -176 L303 -119 C196 -160 194 -66 314 -10 L315 -9 C369 -1 415 21 454 54 L375 130 C345 99 306 80 256 80 C187 80 156 127 162 198 L270 198 C430 198 509 250 512 332 C516 417 432 473 328 473 L328 473 Z M394 328 C392 289 332 273 267 273 L180 273 C208 339 260 378 319 378 C362 378 395 358 394 328 L394 328 Z " />
<glyph glyph-name="Ecaron" unicode="&#x11a;" horiz-adv-x="539" d="M426 696 L561 815 L493 815 C465 815 456 808 428 786 L386 751 L356 787 C337 809 330 815 303 815 L235 815 L323 696 L426 696 Z M548 527 L570 640 L157 640 L33 0 L446 0 L468 113 L193 113 L223 269 L454 269 L474 372 L243 372 L273 527 L548 527 Z " />
<glyph glyph-name="ecaron" unicode="&#x11b;" horiz-adv-x="530" d="M402 541 L537 660 L469 660 C441 660 432 653 404 631 L361 596 L332 632 C313 654 306 660 279 660 L211 660 L299 541 L402 541 Z M328 473 C184 473 61 374 34 237 C6 94 92 -14 256 -14 C336 -14 401 9 454 54 L375 130 C345 99 306 80 256 80 C187 80 156 127 162 198 L270 198 C430 198 509 250 512 332 C516 417 432 473 328 473 L328 473 Z M394 328 C392 289 332 273 267 273 L180 273 C208 339 260 378 319 378 C362 378 395 358 394 328 L394 328 Z " />
<glyph glyph-name="Gcircumflex" unicode="&#x11c;" horiz-adv-x="739" d="M435 720 L478 755 L507 719 C526 697 533 691 560 691 L628 691 L540 810 L437 810 L302 691 L370 691 C398 691 408 698 435 720 L435 720 Z M431 361 L412 259 L566 259 C534 164 454 108 357 108 C235 108 180 205 202 319 C226 441 325 534 450 534 C512 534 554 512 575 492 L666 593 C642 616 575 657 470 657 C259 657 97 510 62 327 C25 137 134 -14 343 -14 C542 -14 682 127 715 300 L727 361 L431 361 Z " />
<glyph glyph-name="gcircumflex" unicode="&#x11d;" horiz-adv-x="568" d="M308 565 L351 600 L380 564 C399 542 406 536 433 536 L501 536 L413 655 L310 655 L175 536 L243 536 C271 536 281 543 308 565 L308 565 Z M447 461 L429 420 C403 452 362 473 302 473 C181 473 66 383 33 230 C2 82 76 -4 194 -4 C253 -4 303 16 344 48 C322 -48 284 -104 193 -104 C170 -104 142 -99 121 -89 L77 -192 C109 -203 149 -210 188 -210 C341 -210 441 -127 475 48 L554 461 L447 461 Z M167 238 C183 313 241 366 308 366 C380 366 420 310 402 230 C387 155 328 103 260 103 C189 103 150 159 167 238 L167 238 Z " />
<glyph glyph-name="Gbreve" unicode="&#x11e;" horiz-adv-x="739" d="M471 690 C568 690 628 734 645 809 L576 809 C566 782 532 753 474 753 C421 753 402 776 404 809 L336 809 C324 740 370 690 471 690 L471 690 Z M431 361 L412 259 L566 259 C534 164 454 108 357 108 C235 108 180 205 202 319 C226 441 325 534 450 534 C512 534 554 512 575 492 L666 593 C642 616 575 657 470 657 C259 657 97 510 62 327 C25 137 134 -14 343 -14 C542 -14 682 127 715 300 L727 361 L431 361 Z " />
<glyph glyph-name="gbreve" unicode="&#x11f;" horiz-adv-x="568" d="M344 536 C441 536 501 580 518 655 L449 655 C439 628 405 599 347 599 C294 599 275 622 277 655 L209 655 C197 586 243 536 344 536 L344 536 Z M447 461 L429 420 C403 452 362 473 302 473 C181 473 66 383 33 230 C2 82 76 -4 194 -4 C253 -4 303 16 344 48 C322 -48 284 -104 193 -104 C170 -104 142 -99 121 -89 L77 -192 C109 -203 149 -210 188 -210 C341 -210 441 -127 475 48 L554 461 L447 461 Z M167 238 C183 313 241 366 308 366 C380 366 420 310 402 230 C387 155 328 103 260 103 C189 103 150 159 167 238 L167 238 Z " />
<glyph glyph-name="Gdotaccent" unicode="&#x120;" horiz-adv-x="739" d="M467 696 C505 696 541 726 548 762 C556 799 531 829 493 829 C455 829 419 799 412 762 C405 726 430 696 467 696 L467 696 Z M431 361 L412 259 L566 259 C534 164 454 108 357 108 C235 108 180 205 202 319 C226 441 325 534 450 534 C512 534 554 512 575 492 L666 593 C642 616 575 657 470 657 C259 657 97 510 62 327 C25 137 134 -14 343 -14 C542 -14 682 127 715 300 L727 361 L431 361 Z " />
<glyph glyph-name="gdotaccent" unicode="&#x121;" horiz-adv-x="568" d="M340 542 C378 542 414 572 421 608 C429 645 404 675 366 675 C328 675 292 645 285 608 C278 572 303 542 340 542 L340 542 Z M447 461 L429 420 C403 452 362 473 302 473 C181 473 66 383 33 230 C2 82 76 -4 194 -4 C253 -4 303 16 344 48 C322 -48 284 -104 193 -104 C170 -104 142 -99 121 -89 L77 -192 C109 -203 149 -210 188 -210 C341 -210 441 -127 475 48 L554 461 L447 461 Z M167 238 C183 313 241 366 308 366 C380 366 420 310 402 230 C387 155 328 103 260 103 C189 103 150 159 167 238 L167 238 Z " />
<glyph glyph-name="uni0122" unicode="&#x122;" horiz-adv-x="739" d="M431 361 L412 259 L566 259 C534 164 454 108 357 108 C235 108 180 205 202 319 C226 441 325 534 450 534 C512 534 554 512 575 492 L666 593 C642 616 575 657 470 657 C259 657 97 510 62 327 C25 137 134 -14 343 -14 C542 -14 682 127 715 300 L727 361 L431 361 Z M323 -43 C293 -40 268 -59 260 -87 C252 -117 272 -137 299 -134 C292 -156 270 -176 239 -189 L246 -224 C305 -205 347 -158 359 -113 C370 -77 357 -46 323 -43 L323 -43 Z " />
<glyph glyph-name="uni0123" unicode="&#x123;" horiz-adv-x="568" d="M347 539 C381 536 412 558 421 591 C431 626 407 650 375 646 C384 673 410 696 446 712 L438 753 C367 730 318 675 303 621 C291 579 306 542 347 539 L347 539 Z M447 461 L429 420 C403 452 362 473 302 473 C181 473 66 383 33 230 C2 82 76 -4 194 -4 C253 -4 303 16 344 48 C322 -48 284 -104 193 -104 C170 -104 142 -99 121 -89 L77 -192 C109 -203 149 -210 188 -210 C341 -210 441 -127 475 48 L554 461 L447 461 Z M167 238 C183 313 241 366 308 366 C380 366 420 310 402 230 C387 155 328 103 260 103 C189 103 150 159 167 238 L167 238 Z " />
<glyph glyph-name="Hcircumflex" unicode="&#x124;" horiz-adv-x="693" d="M405 720 L448 755 L477 719 C496 697 503 691 530 691 L598 691 L510 810 L407 810 L272 691 L340 691 C368 691 378 698 405 720 L405 720 Z M555 640 L506 383 L246 383 L295 640 L157 640 L34 0 L172 0 L224 272 L484 272 L432 0 L570 0 L693 640 L555 640 Z " />
<glyph glyph-name="hcircumflex" unicode="&#x125;" horiz-adv-x="548" d="M188 740 L231 775 L260 739 C279 717 286 711 313 711 L381 711 L293 830 L190 830 L55 711 L123 711 C151 711 161 718 188 740 L188 740 Z M371 473 C311 473 261 449 222 411 L274 680 L145 680 L13 0 L142 0 L193 261 C214 336 267 364 311 364 C370 364 387 324 373 255 L324 0 L453 0 L509 287 C536 427 452 473 371 473 L371 473 Z " />
<glyph glyph-name="Hbar" unicode="&#x126;" horiz-adv-x="693" d="M555 640 L535 534 L275 534 L295 640 L157 640 L34 0 L172 0 L224 272 L484 272 L432 0 L570 0 L693 640 L555 640 Z M246 383 L261 463 L521 463 L506 383 L246 383 Z " />
<glyph glyph-name="hbar" unicode="&#x127;" horiz-adv-x="551" d="M371 473 C311 473 261 449 222 411 L244 525 L359 525 L371 585 L256 585 L274 680 L145 680 L127 585 L62 585 L50 525 L115 525 L13 0 L142 0 L193 261 C214 336 267 364 311 364 C370 364 387 324 373 255 L324 0 L453 0 L509 287 C536 427 452 473 371 473 L371 473 Z " />
<glyph glyph-name="Itilde" unicode="&#x128;" horiz-adv-x="313" d="M314 692 C373 692 403 734 423 763 L372 799 C358 779 347 757 314 757 C272 757 256 803 198 803 C143 803 111 763 89 737 L139 696 C151 713 165 737 200 737 C244 737 258 692 314 692 L314 692 Z M305 640 L167 640 L42 0 L180 0 L305 640 Z " />
<glyph glyph-name="itilde" unicode="&#x129;" horiz-adv-x="274" d="M266 543 C325 543 355 585 375 614 L324 650 C310 630 299 608 266 608 C224 608 208 654 150 654 C95 654 63 614 41 588 L91 547 C103 564 117 588 152 588 C196 588 210 543 266 543 L266 543 Z M28 0 L156 0 L246 461 L118 461 L28 0 Z " />
<glyph glyph-name="Imacron" unicode="&#x12a;" horiz-adv-x="313" d="M100 721 L402 721 L415 786 L112 786 L100 721 Z M305 640 L167 640 L42 0 L180 0 L305 640 Z " />
<glyph glyph-name="imacron" unicode="&#x12b;" horiz-adv-x="274" d="M52 572 L354 572 L367 637 L64 637 L52 572 Z M28 0 L156 0 L246 461 L118 461 L28 0 Z " />
<glyph glyph-name="Ibreve" unicode="&#x12c;" horiz-adv-x="313" d="M250 690 C347 690 407 734 424 809 L355 809 C345 782 311 753 253 753 C200 753 181 776 183 809 L115 809 C103 740 149 690 250 690 L250 690 Z M305 640 L167 640 L42 0 L180 0 L305 640 Z " />
<glyph glyph-name="ibreve" unicode="&#x12d;" horiz-adv-x="274" d="M202 541 C299 541 359 585 376 660 L307 660 C297 633 263 604 205 604 C152 604 133 627 135 660 L67 660 C55 591 101 541 202 541 L202 541 Z M28 0 L156 0 L246 461 L118 461 L28 0 Z " />
<glyph glyph-name="Iogonek" unicode="&#x12e;" horiz-adv-x="313" d="M305 640 L167 640 L42 0 L90 0 C18 -40 -21 -92 -9 -145 C4 -201 87 -215 162 -176 L151 -119 C44 -160 42 -66 162 -10 L183 0 L180 1 L305 640 Z " />
<glyph glyph-name="iogonek" unicode="&#x12f;" horiz-adv-x="274" d="M225 680 C187 680 151 650 144 613 C137 577 162 547 199 547 C237 547 273 577 280 613 C288 650 263 680 225 680 L225 680 Z M28 0 L56 0 C-16 -40 -55 -92 -43 -145 C-30 -201 53 -215 128 -176 L117 -119 C10 -160 8 -66 128 -10 L149 0 L156 0 L246 461 L118 461 L28 0 Z " />
<glyph glyph-name="Idotaccent" unicode="&#x130;" horiz-adv-x="313" d="M247 696 C285 696 321 726 328 762 C336 799 311 829 273 829 C235 829 199 799 192 762 C185 726 210 696 247 696 L247 696 Z M305 640 L167 640 L42 0 L180 0 L305 640 Z " />
<glyph glyph-name="dotlessi" unicode="&#x131;" horiz-adv-x="274" d="M28 0 L156 0 L246 461 L118 461 L28 0 Z " />
<glyph glyph-name="ij" unicode="&#x133;" horiz-adv-x="575" d="M196 531 C237 531 277 564 285 604 C293 644 266 677 225 677 C183 677 143 644 135 604 C128 564 155 531 196 531 L196 531 Z M494 532 C535 532 575 564 583 604 C591 645 563 677 523 677 C481 677 441 645 433 604 C425 564 453 532 494 532 L494 532 Z M28 0 L156 0 L246 461 L118 461 L28 0 Z M452 -24 L545 461 L416 461 L324 -13 C310 -87 268 -123 191 -110 L176 -207 C300 -232 419 -195 452 -24 L452 -24 Z " />
<glyph glyph-name="Jcircumflex" unicode="&#x134;" horiz-adv-x="478" d="M507 800 L404 800 L269 681 L337 681 C365 681 375 688 402 710 L445 745 L474 709 C493 687 500 681 527 681 L595 681 L507 800 Z M161 -14 C277 -14 382 52 414 219 L495 640 L357 640 L276 220 C263 147 220 108 163 108 C128 108 103 121 81 152 L-3 45 C34 13 81 -14 161 -14 L161 -14 Z " />
<glyph glyph-name="jcircumflex" unicode="&#x135;" horiz-adv-x="301" d="M295 651 L192 651 L57 532 L125 532 C153 532 163 539 190 561 L233 596 L262 560 C281 538 288 532 315 532 L383 532 L295 651 Z M178 -24 L271 461 L142 461 L50 -13 C36 -87 -6 -123 -83 -110 L-98 -207 C26 -232 145 -195 178 -24 L178 -24 Z " />
<glyph glyph-name="uni0136" unicode="&#x136;" horiz-adv-x="672" d="M696 640 L515 640 L247 388 L295 640 L157 640 L34 0 L172 0 L227 288 L415 0 L594 0 L354 339 L696 640 Z M283 -43 C253 -40 228 -59 220 -87 C212 -117 232 -137 259 -134 C252 -156 230 -176 199 -189 L206 -224 C265 -205 307 -158 319 -113 C330 -77 317 -46 283 -43 L283 -43 Z " />
<glyph glyph-name="uni0137" unicode="&#x137;" horiz-adv-x="528" d="M549 461 L384 461 L199 293 L274 680 L145 680 L14 0 L143 0 L183 207 L322 0 L486 0 L304 251 L549 461 Z M222 -43 C192 -40 167 -59 159 -87 C151 -117 171 -137 198 -134 C191 -156 169 -176 138 -189 L145 -224 C204 -205 246 -158 258 -113 C269 -77 256 -46 222 -43 L222 -43 Z " />
<glyph glyph-name="kgreenlandic" unicode="&#x138;" horiz-adv-x="535" d="M542 461 L380 461 L204 310 L233 461 L103 461 L14 0 L144 0 L180 188 L317 0 L482 0 L289 251 L542 461 Z " />
<glyph glyph-name="Lacute" unicode="&#x139;" horiz-adv-x="511" d="M315 739 L421 835 L316 852 L151 690 L197 690 C233 690 258 690 315 739 L315 739 Z M194 117 L295 640 L157 640 L34 0 L433 0 L455 117 L194 117 Z " />
<glyph glyph-name="lacute" unicode="&#x13a;" horiz-adv-x="253" d="M298 780 L404 876 L298 893 L133 731 L180 731 C216 731 240 731 298 780 L298 780 Z M17 0 L146 0 L278 680 L149 680 L17 0 Z " />
<glyph glyph-name="uni013B" unicode="&#x13b;" horiz-adv-x="511" d="M194 117 L295 640 L157 640 L34 0 L433 0 L455 117 L194 117 Z M212 -43 C182 -40 157 -59 149 -87 C141 -117 161 -137 188 -134 C181 -156 159 -176 128 -189 L135 -224 C194 -205 236 -158 248 -113 C259 -77 246 -46 212 -43 L212 -43 Z " />
<glyph glyph-name="uni013C" unicode="&#x13c;" horiz-adv-x="253" d="M17 0 L146 0 L278 680 L149 680 L17 0 Z M-5 -224 C54 -205 96 -158 108 -113 C119 -77 106 -46 72 -43 C42 -40 17 -59 9 -87 C1 -117 21 -137 48 -134 C41 -156 19 -176 -12 -189 L-5 -224 Z " />
<glyph glyph-name="Lcaron" unicode="&#x13d;" horiz-adv-x="497" d="M457 668 C427 671 402 652 394 624 C386 594 406 574 433 577 C426 555 404 535 373 522 L380 486 C439 506 481 553 493 598 C503 634 491 665 457 668 L457 668 Z M295 640 L157 640 L34 0 L433 0 L455 117 L194 117 L295 640 Z " />
<glyph glyph-name="lcaron" unicode="&#x13e;" horiz-adv-x="253" d="M329 537 C388 557 430 604 442 649 C452 685 440 716 406 719 C376 721 351 703 343 675 C335 645 355 625 382 628 C375 606 353 586 322 572 L329 537 Z M17 0 L146 0 L278 680 L149 680 L17 0 Z " />
<glyph glyph-name="Ldot" unicode="&#x13f;" horiz-adv-x="482" d="M295 640 L157 640 L34 0 L433 0 L455 117 L194 117 L295 640 Z M433 447 C395 447 358 417 351 380 C344 344 369 314 407 314 C444 314 481 344 488 380 C495 417 470 447 433 447 L433 447 Z " />
<glyph glyph-name="ldot" unicode="&#x140;" horiz-adv-x="448" d="M13 0 L142 0 L274 680 L145 680 L13 0 Z M359 284 C396 284 433 314 440 350 C447 387 422 417 385 417 C347 417 310 387 303 350 C296 314 321 284 359 284 L359 284 Z " />
<glyph glyph-name="Lslash" unicode="&#x141;" horiz-adv-x="511" d="M194 117 L234 324 L311 375 L330 473 L253 421 L295 640 L157 640 L94 315 L25 268 L5 170 L76 217 L34 0 L433 0 L455 117 L194 117 Z " />
<glyph glyph-name="lslash" unicode="&#x142;" horiz-adv-x="253" d="M310 487 L230 433 L278 680 L149 680 L82 334 L5 282 L-15 184 L63 236 L17 0 L146 0 L211 335 L291 389 L310 487 Z " />
<glyph glyph-name="Nacute" unicode="&#x143;" horiz-adv-x="720" d="M523 739 L629 835 L524 852 L359 690 L405 690 C441 690 466 690 523 739 L523 739 Z M588 640 L506 214 L284 640 L157 640 L34 0 L167 0 L249 425 L470 0 L597 0 L720 640 L588 640 Z " />
<glyph glyph-name="nacute" unicode="&#x144;" horiz-adv-x="552" d="M410 584 L516 680 L411 697 L246 535 L292 535 C328 535 353 535 410 584 L410 584 Z M372 473 C311 473 260 449 221 410 L216 461 L103 461 L14 0 L143 0 L192 257 C213 335 266 364 312 364 C370 364 387 324 374 255 L325 0 L454 0 L510 287 C537 427 452 473 372 473 L372 473 Z " />
<glyph glyph-name="uni0145" unicode="&#x145;" horiz-adv-x="720" d="M588 640 L506 214 L284 640 L157 640 L34 0 L167 0 L249 425 L470 0 L597 0 L720 640 L588 640 Z M307 -43 C277 -40 252 -59 244 -87 C236 -117 256 -137 283 -134 C276 -156 254 -176 223 -189 L230 -224 C289 -205 331 -158 343 -113 C354 -77 341 -46 307 -43 L307 -43 Z " />
<glyph glyph-name="uni0146" unicode="&#x146;" horiz-adv-x="552" d="M372 473 C311 473 260 449 221 410 L216 461 L103 461 L14 0 L143 0 L192 257 C213 335 266 364 312 364 C370 364 387 324 374 255 L325 0 L454 0 L510 287 C537 427 452 473 372 473 L372 473 Z M222 -43 C192 -40 167 -59 159 -87 C151 -117 171 -137 198 -134 C191 -156 169 -176 138 -189 L145 -224 C204 -205 246 -158 258 -113 C269 -77 256 -46 222 -43 L222 -43 Z " />
<glyph glyph-name="Ncaron" unicode="&#x147;" horiz-adv-x="720" d="M500 696 L635 815 L567 815 C539 815 530 808 502 786 L459 751 L430 787 C411 809 404 815 377 815 L309 815 L397 696 L500 696 Z M588 640 L506 214 L284 640 L157 640 L34 0 L167 0 L249 425 L470 0 L597 0 L720 640 L588 640 Z " />
<glyph glyph-name="ncaron" unicode="&#x148;" horiz-adv-x="552" d="M388 541 L523 660 L455 660 C427 660 418 653 390 631 L347 596 L318 632 C299 654 292 660 265 660 L197 660 L285 541 L388 541 Z M372 473 C311 473 260 449 221 410 L216 461 L103 461 L14 0 L143 0 L192 257 C213 335 266 364 312 364 C370 364 387 324 374 255 L325 0 L454 0 L510 287 C537 427 452 473 372 473 L372 473 Z " />
<glyph glyph-name="napostrophe" unicode="&#x149;" horiz-adv-x="713" d="M264 550 C279 605 261 653 207 658 C162 661 122 633 110 590 C97 544 129 512 170 518 C159 483 125 452 77 432 L88 378 C180 408 244 480 264 550 L264 550 Z M533 473 C472 473 421 449 382 410 L377 461 L264 461 L175 0 L304 0 L353 257 C374 335 427 364 473 364 C531 364 548 324 534 255 L486 0 L615 0 L670 287 C697 427 613 473 533 473 L533 473 Z " />
<glyph glyph-name="Eng" unicode="&#x14a;" horiz-adv-x="720" d="M588 640 L506 214 L284 640 L157 640 L34 0 L167 0 L249 425 L331 267 L468 0 L463 -26 C450 -92 389 -98 347 -84 L311 -198 C413 -226 559 -198 593 -22 L597 0 L720 640 L588 640 Z " />
<glyph glyph-name="eng" unicode="&#x14b;" horiz-adv-x="552" d="M372 473 C311 473 260 449 221 410 L216 461 L103 461 L14 0 L143 0 L192 257 C213 335 266 364 312 364 C370 364 387 324 374 255 L325 0 L320 -25 C309 -75 282 -96 245 -91 L229 -198 C334 -215 424 -164 448 -32 L454 0 L510 287 C537 427 452 473 372 473 L372 473 Z " />
<glyph glyph-name="Omacron" unicode="&#x14c;" horiz-adv-x="782" d="M341 721 L643 721 L656 786 L353 786 L341 721 Z M349 -14 C556 -14 721 133 756 317 C792 505 680 657 469 657 C261 657 97 510 62 327 C26 138 137 -14 349 -14 L349 -14 Z M363 108 C239 108 182 206 204 317 C225 433 326 534 455 534 C580 534 637 438 615 327 C593 211 492 108 363 108 L363 108 Z " />
<glyph glyph-name="omacron" unicode="&#x14d;" horiz-adv-x="574" d="M202 566 L504 566 L517 631 L214 631 L202 566 Z M243 -14 C391 -14 514 88 540 226 C567 368 482 473 330 473 C182 473 60 371 33 233 C6 91 91 -14 243 -14 L243 -14 Z M257 95 C188 95 150 150 165 226 C180 306 244 364 316 364 C384 364 423 309 408 233 C393 153 329 95 257 95 L257 95 Z " />
<glyph glyph-name="Obreve" unicode="&#x14e;" horiz-adv-x="782" d="M491 690 C588 690 648 734 665 809 L596 809 C586 782 552 753 494 753 C441 753 422 776 424 809 L356 809 C344 740 390 690 491 690 L491 690 Z M349 -14 C556 -14 721 133 756 317 C792 505 680 657 469 657 C261 657 97 510 62 327 C26 138 137 -14 349 -14 L349 -14 Z M363 108 C239 108 182 206 204 317 C225 433 326 534 455 534 C580 534 637 438 615 327 C593 211 492 108 363 108 L363 108 Z " />
<glyph glyph-name="obreve" unicode="&#x14f;" horiz-adv-x="574" d="M352 536 C449 536 509 580 526 655 L457 655 C447 628 413 599 355 599 C302 599 283 622 285 655 L217 655 C205 586 251 536 352 536 L352 536 Z M243 -14 C391 -14 514 88 540 226 C567 368 482 473 330 473 C182 473 60 371 33 233 C6 91 91 -14 243 -14 L243 -14 Z M257 95 C188 95 150 150 165 226 C180 306 244 364 316 364 C384 364 423 309 408 233 C393 153 329 95 257 95 L257 95 Z " />
<glyph glyph-name="Ohungarumlaut" unicode="&#x150;" horiz-adv-x="782" d="M490 739 L596 835 L491 852 L326 690 L373 690 C408 690 433 690 490 739 L490 739 Z M662 739 L768 835 L663 852 L498 690 L544 690 C580 690 605 690 662 739 L662 739 Z M349 -14 C556 -14 721 133 756 317 C792 505 680 657 469 657 C261 657 97 510 62 327 C26 138 137 -14 349 -14 L349 -14 Z M363 108 C239 108 182 206 204 317 C225 433 326 534 455 534 C580 534 637 438 615 327 C593 211 492 108 363 108 L363 108 Z " />
<glyph glyph-name="ohungarumlaut" unicode="&#x151;" horiz-adv-x="574" d="M350 584 L456 680 L351 697 L186 535 L233 535 C268 535 293 535 350 584 L350 584 Z M522 584 L628 680 L523 697 L358 535 L404 535 C440 535 465 535 522 584 L522 584 Z M243 -14 C391 -14 514 88 540 226 C567 368 482 473 330 473 C182 473 60 371 33 233 C6 91 91 -14 243 -14 L243 -14 Z M257 95 C188 95 150 150 165 226 C180 306 244 364 316 364 C384 364 423 309 408 233 C393 153 329 95 257 95 L257 95 Z " />
<glyph glyph-name="OE" unicode="&#x152;" horiz-adv-x="1063" d="M1072 527 L1094 640 L682 640 L672 591 C623 632 554 657 469 657 C261 657 97 510 62 327 C26 138 137 -14 349 -14 C430 -14 504 8 567 47 L558 0 L970 0 L992 113 L718 113 L748 269 L978 269 L998 372 L768 372 L798 527 L1072 527 Z M363 108 C239 108 182 206 204 317 C225 433 326 534 455 534 C580 534 637 438 615 327 C593 211 492 108 363 108 L363 108 Z " />
<glyph glyph-name="oe" unicode="&#x153;" horiz-adv-x="907" d="M705 473 C629 473 559 445 505 399 C469 445 408 473 330 473 C182 473 60 371 33 233 C6 91 91 -14 243 -14 C321 -14 393 15 446 62 C485 15 548 -14 633 -14 C713 -14 779 9 832 54 L753 130 C722 99 683 80 634 80 C564 80 533 127 539 198 L647 198 C808 198 886 250 890 332 C893 417 810 473 705 473 L705 473 Z M772 328 C769 289 709 273 644 273 L558 273 C585 339 638 378 697 378 C740 378 773 358 772 328 L772 328 Z M257 95 C188 95 150 150 165 226 C180 306 244 364 316 364 C384 364 423 309 408 233 C393 153 329 95 257 95 L257 95 Z " />
<glyph glyph-name="Racute" unicode="&#x154;" horiz-adv-x="610" d="M456 739 L562 835 L457 852 L292 690 L338 690 C374 690 399 690 456 739 L456 739 Z M577 440 C601 573 499 640 386 640 L157 640 L34 0 L172 0 L221 253 L257 253 L380 0 L546 0 L399 268 C486 292 559 347 577 440 L577 440 Z M435 449 C424 390 375 355 301 355 L240 355 L275 536 L336 536 C415 536 445 503 435 449 L435 449 Z " />
<glyph glyph-name="racute" unicode="&#x155;" horiz-adv-x="362" d="M338 584 L444 680 L339 697 L174 535 L220 535 C256 535 281 535 338 584 L338 584 Z M219 401 L216 461 L103 461 L14 0 L144 0 L190 245 L186 217 C201 297 254 349 325 349 C338 349 353 347 364 343 L403 466 C389 470 373 473 349 473 C297 473 251 439 219 401 L219 401 Z " />
<glyph glyph-name="uni0156" unicode="&#x156;" horiz-adv-x="610" d="M577 440 C601 573 499 640 386 640 L157 640 L34 0 L172 0 L221 253 L257 253 L380 0 L546 0 L399 268 C486 292 559 347 577 440 L577 440 Z M435 449 C424 390 375 355 301 355 L240 355 L275 536 L336 536 C415 536 445 503 435 449 L435 449 Z M247 -43 C217 -40 192 -59 184 -87 C176 -117 196 -137 223 -134 C216 -156 194 -176 163 -189 L170 -224 C229 -205 271 -158 283 -113 C294 -77 281 -46 247 -43 L247 -43 Z " />
<glyph glyph-name="uni0157" unicode="&#x157;" horiz-adv-x="362" d="M349 473 C297 473 251 439 219 401 L216 461 L103 461 L14 0 L144 0 L190 245 L186 217 C201 297 254 349 325 349 C338 349 353 347 364 343 L403 466 C389 470 373 473 349 473 L349 473 Z M70 -43 C40 -40 15 -59 7 -87 C-1 -117 19 -137 46 -134 C39 -156 17 -176 -14 -189 L-7 -224 C52 -205 94 -158 106 -113 C117 -77 104 -46 70 -43 L70 -43 Z " />
<glyph glyph-name="Rcaron" unicode="&#x158;" horiz-adv-x="610" d="M433 696 L568 815 L500 815 C472 815 463 808 435 786 L392 751 L363 787 C344 809 337 815 310 815 L242 815 L330 696 L433 696 Z M577 440 C601 573 499 640 386 640 L157 640 L34 0 L172 0 L221 253 L257 253 L380 0 L546 0 L399 268 C486 292 559 347 577 440 L577 440 Z M435 449 C424 390 375 355 301 355 L240 355 L275 536 L336 536 C415 536 445 503 435 449 L435 449 Z " />
<glyph glyph-name="rcaron" unicode="&#x159;" horiz-adv-x="362" d="M316 541 L451 660 L383 660 C355 660 346 653 318 631 L275 596 L246 632 C227 654 220 660 193 660 L125 660 L213 541 L316 541 Z M219 401 L216 461 L103 461 L14 0 L144 0 L190 245 L186 217 C201 297 254 349 325 349 C338 349 353 347 364 343 L403 466 C389 470 373 473 349 473 C297 473 251 439 219 401 L219 401 Z " />
<glyph glyph-name="Sacute" unicode="&#x15a;" horiz-adv-x="552" d="M446 739 L552 835 L447 852 L282 690 L328 690 C364 690 389 690 446 739 L446 739 Z M234 -14 C338 -14 465 39 491 178 C511 281 449 334 351 370 C278 400 241 424 249 466 C257 511 306 543 357 543 C399 543 432 527 466 490 L561 578 C517 622 457 657 364 657 C250 657 129 581 107 468 C86 356 169 308 260 276 C317 253 355 232 346 180 C335 128 277 100 229 100 C180 100 135 117 100 173 L-1 85 C54 17 131 -14 234 -14 L234 -14 Z " />
<glyph glyph-name="sacute" unicode="&#x15b;" horiz-adv-x="452" d="M372 584 L478 680 L373 697 L208 535 L254 535 C290 535 315 535 372 584 L372 584 Z M-10 60 C23 18 89 -14 187 -14 C305 -14 382 43 398 125 C430 293 195 238 211 320 C217 352 245 373 289 374 C317 374 354 360 375 336 L450 414 C423 444 364 473 287 473 C171 473 95 414 78 328 C45 156 275 213 259 135 C254 104 223 82 174 82 C137 82 99 95 71 139 L-10 60 Z " />
<glyph glyph-name="Scircumflex" unicode="&#x15c;" horiz-adv-x="552" d="M447 810 L344 810 L209 691 L277 691 C305 691 315 698 342 720 L385 755 L414 719 C433 697 440 691 467 691 L535 691 L447 810 Z M234 -14 C338 -14 465 39 491 178 C511 281 449 334 351 370 C278 400 241 424 249 466 C257 511 306 543 357 543 C399 543 432 527 466 490 L561 578 C517 622 457 657 364 657 C250 657 129 581 107 468 C86 356 169 308 260 276 C317 253 355 232 346 180 C335 128 277 100 229 100 C180 100 135 117 100 173 L-1 85 C54 17 131 -14 234 -14 L234 -14 Z " />
<glyph glyph-name="scircumflex" unicode="&#x15d;" horiz-adv-x="452" d="M372 655 L269 655 L134 536 L202 536 C230 536 240 543 267 565 L310 600 L339 564 C358 542 365 536 392 536 L460 536 L372 655 Z M-10 60 C23 18 89 -14 187 -14 C305 -14 382 43 398 125 C430 293 195 238 211 320 C217 352 245 373 289 374 C317 374 354 360 375 336 L450 414 C423 444 364 473 287 473 C171 473 95 414 78 328 C45 156 275 213 259 135 C254 104 223 82 174 82 C137 82 99 95 71 139 L-10 60 Z " />
<glyph glyph-name="Scedilla" unicode="&#x15e;" horiz-adv-x="552" d="M351 370 C278 400 241 424 249 466 C257 511 306 543 357 543 C399 543 432 527 466 490 L561 578 C517 622 457 657 364 657 C250 657 129 581 107 468 C86 356 169 308 260 276 C317 253 355 232 346 180 C335 128 277 100 229 100 C180 100 135 117 100 173 L-1 85 C46 27 109 -4 191 -12 L131 -65 L155 -92 C195 -75 235 -84 224 -112 C218 -128 201 -144 166 -144 C138 -144 111 -134 101 -126 L55 -177 C69 -187 109 -201 163 -199 C227 -197 288 -165 308 -114 C326 -67 297 -44 268 -39 C246 -36 227 -40 219 -44 L257 -13 C356 -6 467 49 491 178 C511 281 449 334 351 370 L351 370 Z " />
<glyph glyph-name="scedilla" unicode="&#x15f;" horiz-adv-x="452" d="M211 320 C217 352 245 373 289 374 C317 374 354 360 375 336 L450 414 C423 444 364 473 287 473 C171 473 95 414 78 328 C45 156 275 213 259 135 C254 104 223 82 174 82 C137 82 99 95 71 139 L-10 60 C18 25 69 -4 144 -12 L83 -65 L107 -92 C147 -75 187 -84 176 -112 C170 -128 153 -144 118 -144 C90 -144 63 -134 53 -126 L7 -177 C21 -187 61 -201 115 -199 C179 -197 240 -165 260 -114 C278 -67 249 -44 220 -39 C198 -36 179 -40 171 -44 L209 -13 C314 -7 383 48 398 125 C430 293 195 238 211 320 L211 320 Z " />
<glyph glyph-name="Scaron" unicode="&#x160;" horiz-adv-x="552" d="M321 696 L424 696 L559 815 L491 815 C463 815 454 808 426 786 L383 751 L354 787 C335 809 328 815 301 815 L233 815 L321 696 Z M234 -14 C338 -14 465 39 491 178 C511 281 449 334 351 370 C278 400 241 424 249 466 C257 511 306 543 357 543 C399 543 432 527 466 490 L561 578 C517 622 457 657 364 657 C250 657 129 581 107 468 C86 356 169 308 260 276 C317 253 355 232 346 180 C335 128 277 100 229 100 C180 100 135 117 100 173 L-1 85 C54 17 131 -14 234 -14 L234 -14 Z " />
<glyph glyph-name="scaron" unicode="&#x161;" horiz-adv-x="452" d="M246 541 L349 541 L484 660 L416 660 C388 660 379 653 351 631 L308 596 L279 632 C260 654 253 660 226 660 L158 660 L246 541 Z M-10 60 C23 18 89 -14 187 -14 C305 -14 382 43 398 125 C430 293 195 238 211 320 C217 352 245 373 289 374 C317 374 354 360 375 336 L450 414 C423 444 364 473 287 473 C171 473 95 414 78 328 C45 156 275 213 259 135 C254 104 223 82 174 82 C137 82 99 95 71 139 L-10 60 Z " />
<glyph glyph-name="uni0162" unicode="&#x162;" horiz-adv-x="561" d="M307 0 L408 525 L577 525 L599 640 L121 640 L99 525 L270 525 L169 0 L204 0 L130 -65 L154 -92 C194 -75 234 -84 223 -112 C217 -128 200 -144 165 -144 C137 -144 110 -134 100 -126 L54 -177 C68 -187 108 -201 162 -199 C226 -197 287 -165 307 -114 C325 -67 296 -44 267 -39 C245 -36 226 -40 218 -44 L272 0 L307 0 Z " />
<glyph glyph-name="uni0163" unicode="&#x163;" horiz-adv-x="372" d="M189 0 L259 363 L373 363 L392 461 L278 461 L304 594 L175 594 L149 461 L78 461 L59 363 L130 363 L60 0 L91 0 L17 -65 L41 -92 C81 -75 121 -84 110 -112 C104 -128 87 -144 52 -144 C24 -144 -3 -134 -13 -126 L-59 -177 C-45 -187 -5 -201 49 -199 C113 -197 174 -165 194 -114 C212 -67 183 -44 154 -39 C132 -36 113 -40 105 -44 L159 0 L189 0 Z " />
<glyph glyph-name="Tcaron" unicode="&#x164;" horiz-adv-x="561" d="M422 696 L557 815 L489 815 C461 815 452 808 424 786 L381 751 L352 787 C333 809 326 815 299 815 L231 815 L319 696 L422 696 Z M599 640 L121 640 L99 525 L270 525 L169 0 L307 0 L408 525 L577 525 L599 640 Z " />
<glyph glyph-name="tcaron" unicode="&#x165;" horiz-adv-x="372" d="M475 717 C445 719 420 701 412 673 C404 643 424 623 451 626 C444 604 422 584 391 570 L398 535 C457 555 499 602 511 647 C521 683 509 714 475 717 L475 717 Z M304 594 L175 594 L149 461 L78 461 L59 363 L130 363 L60 0 L189 0 L259 363 L373 363 L392 461 L278 461 L304 594 Z " />
<glyph glyph-name="Tbar" unicode="&#x166;" horiz-adv-x="561" d="M577 525 L599 640 L121 640 L99 525 L270 525 L237 352 L152 352 L140 292 L225 292 L169 0 L307 0 L363 292 L449 292 L461 352 L375 352 L408 525 L577 525 Z " />
<glyph glyph-name="tbar" unicode="&#x167;" horiz-adv-x="372" d="M373 363 L392 461 L278 461 L304 594 L175 594 L149 461 L78 461 L59 363 L130 363 L118 300 L77 300 L67 240 L106 240 L60 0 L189 0 L235 240 L318 240 L328 300 L247 300 L259 363 L373 363 Z " />
<glyph glyph-name="Utilde" unicode="&#x168;" horiz-adv-x="650" d="M483 692 C542 692 572 734 592 763 L541 799 C527 779 516 757 483 757 C441 757 425 803 367 803 C312 803 280 763 258 737 L308 696 C320 713 334 737 369 737 C413 737 427 692 483 692 L483 692 Z M281 -14 C434 -14 556 64 592 248 L667 640 L529 640 L456 262 C436 154 373 108 299 108 C227 108 185 150 206 259 L279 640 L141 640 L67 252 C32 68 126 -14 281 -14 L281 -14 Z " />
<glyph glyph-name="utilde" unicode="&#x169;" horiz-adv-x="546" d="M402 537 C461 537 491 579 511 608 L460 644 C446 624 435 602 402 602 C360 602 344 648 286 648 C231 648 199 608 177 582 L227 541 C239 558 253 582 288 582 C332 582 346 537 402 537 L402 537 Z M230 -12 C337 -12 455 32 488 207 L537 461 L408 461 L359 206 C347 140 307 97 244 97 C185 97 165 137 177 203 L227 461 L98 461 L50 210 C16 35 118 -12 230 -12 L230 -12 Z " />
<glyph glyph-name="Umacron" unicode="&#x16a;" horiz-adv-x="650" d="M269 721 L571 721 L584 786 L281 786 L269 721 Z M281 -14 C434 -14 556 64 592 248 L667 640 L529 640 L456 262 C436 154 373 108 299 108 C227 108 185 150 206 259 L279 640 L141 640 L67 252 C32 68 126 -14 281 -14 L281 -14 Z " />
<glyph glyph-name="umacron" unicode="&#x16b;" horiz-adv-x="546" d="M188 566 L490 566 L503 631 L200 631 L188 566 Z M230 -12 C337 -12 455 32 488 207 L537 461 L408 461 L359 206 C347 140 307 97 244 97 C185 97 165 137 177 203 L227 461 L98 461 L50 210 C16 35 118 -12 230 -12 L230 -12 Z " />
<glyph glyph-name="Ubreve" unicode="&#x16c;" horiz-adv-x="650" d="M419 690 C516 690 576 734 593 809 L524 809 C514 782 480 753 422 753 C369 753 350 776 352 809 L284 809 C272 740 318 690 419 690 L419 690 Z M281 -14 C434 -14 556 64 592 248 L667 640 L529 640 L456 262 C436 154 373 108 299 108 C227 108 185 150 206 259 L279 640 L141 640 L67 252 C32 68 126 -14 281 -14 L281 -14 Z " />
<glyph glyph-name="ubreve" unicode="&#x16d;" horiz-adv-x="546" d="M338 536 C435 536 495 580 512 655 L443 655 C433 628 399 599 341 599 C288 599 269 622 271 655 L203 655 C191 586 237 536 338 536 L338 536 Z M230 -12 C337 -12 455 32 488 207 L537 461 L408 461 L359 206 C347 140 307 97 244 97 C185 97 165 137 177 203 L227 461 L98 461 L50 210 C16 35 118 -12 230 -12 L230 -12 Z " />
<glyph glyph-name="Uring" unicode="&#x16e;" horiz-adv-x="650" d="M448 887 C389 887 337 841 326 788 C315 730 353 681 417 681 C476 681 529 726 540 779 C551 837 512 887 448 887 L448 887 Z M418 732 C389 732 375 753 380 779 C386 810 413 835 446 835 C476 835 490 814 485 788 C479 757 452 732 418 732 L418 732 Z M281 -14 C434 -14 556 64 592 248 L667 640 L529 640 L456 262 C436 154 373 108 299 108 C227 108 185 150 206 259 L279 640 L141 640 L67 252 C32 68 126 -14 281 -14 L281 -14 Z " />
<glyph glyph-name="uring" unicode="&#x16f;" horiz-adv-x="546" d="M367 733 C308 733 256 687 245 634 C234 576 272 527 336 527 C395 527 448 572 459 625 C470 683 431 733 367 733 L367 733 Z M337 578 C308 578 294 599 299 625 C305 656 332 681 365 681 C395 681 409 660 404 634 C398 603 371 578 337 578 L337 578 Z M230 -12 C337 -12 455 32 488 207 L537 461 L408 461 L359 206 C347 140 307 97 244 97 C185 97 165 137 177 203 L227 461 L98 461 L50 210 C16 35 118 -12 230 -12 L230 -12 Z " />
<glyph glyph-name="Uhungarumlaut" unicode="&#x170;" horiz-adv-x="650" d="M418 739 L524 835 L419 852 L254 690 L301 690 C336 690 361 690 418 739 L418 739 Z M590 739 L696 835 L591 852 L426 690 L472 690 C508 690 533 690 590 739 L590 739 Z M281 -14 C434 -14 556 64 592 248 L667 640 L529 640 L456 262 C436 154 373 108 299 108 C227 108 185 150 206 259 L279 640 L141 640 L67 252 C32 68 126 -14 281 -14 L281 -14 Z " />
<glyph glyph-name="uhungarumlaut" unicode="&#x171;" horiz-adv-x="546" d="M337 584 L443 680 L338 697 L173 535 L220 535 C255 535 280 535 337 584 L337 584 Z M509 584 L615 680 L510 697 L345 535 L391 535 C427 535 452 535 509 584 L509 584 Z M230 -12 C337 -12 455 32 488 207 L537 461 L408 461 L359 206 C347 140 307 97 244 97 C185 97 165 137 177 203 L227 461 L98 461 L50 210 C16 35 118 -12 230 -12 L230 -12 Z " />
<glyph glyph-name="Uogonek" unicode="&#x172;" horiz-adv-x="650" d="M529 640 L456 262 C436 154 373 108 299 108 C227 108 185 150 206 259 L279 640 L141 640 L67 252 C34 76 118 -6 260 -13 C203 -51 173 -98 184 -145 C197 -201 280 -215 355 -176 L344 -119 C237 -160 235 -66 355 -10 L365 -5 C478 20 563 99 592 248 L667 640 L529 640 Z " />
<glyph glyph-name="uogonek" unicode="&#x173;" horiz-adv-x="546" d="M408 461 L359 206 C347 140 307 97 244 97 C185 97 165 137 177 203 L227 461 L98 461 L50 210 C18 47 104 -5 207 -11 C147 -49 116 -97 127 -145 C140 -201 223 -215 298 -176 L287 -119 C180 -160 178 -66 298 -10 L318 0 C395 22 464 80 488 207 L537 461 L408 461 Z " />
<glyph glyph-name="Wcircumflex" unicode="&#x174;" horiz-adv-x="971" d="M544 720 L587 755 L616 719 C635 697 642 691 669 691 L737 691 L649 810 L546 810 L411 691 L479 691 C507 691 517 698 544 720 L544 720 Z M877 640 L659 189 L621 640 L508 640 L295 189 L252 640 L107 640 L193 0 L316 0 L524 425 L568 0 L691 0 L1024 640 L877 640 Z " />
<glyph glyph-name="wcircumflex" unicode="&#x175;" horiz-adv-x="766" d="M413 565 L456 600 L485 564 C504 542 511 536 538 536 L606 536 L518 655 L415 655 L280 536 L348 536 C376 536 386 543 413 565 L413 565 Z M661 461 L511 164 L479 461 L375 461 L230 166 L194 461 L56 461 L139 0 L248 0 L399 311 L431 0 L539 0 L801 461 L661 461 Z " />
<glyph glyph-name="Ycircumflex" unicode="&#x176;" horiz-adv-x="625" d="M371 720 L414 755 L443 719 C462 697 469 691 496 691 L564 691 L476 810 L373 810 L238 691 L306 691 C334 691 344 698 371 720 L371 720 Z M690 640 L532 640 L348 418 L251 640 L95 640 L255 294 L200 0 L338 0 L392 289 L690 640 Z " />
<glyph glyph-name="ycircumflex" unicode="&#x177;" horiz-adv-x="525" d="M290 565 L333 600 L362 564 C381 542 388 536 415 536 L483 536 L395 655 L292 655 L157 536 L225 536 C253 536 263 543 290 565 L290 565 Z M425 461 L246 162 L184 461 L50 461 L156 17 L11 -210 L145 -210 L565 461 L425 461 Z " />
<glyph glyph-name="Ydieresis" unicode="&#x178;" horiz-adv-x="625" d="M303 703 C334 703 366 728 372 758 C378 793 353 822 318 822 C286 822 257 797 252 767 C245 732 267 703 303 703 L303 703 Z M513 703 C544 703 575 728 581 758 C587 793 563 822 528 822 C496 822 467 797 462 767 C455 732 477 703 513 703 L513 703 Z M690 640 L532 640 L348 418 L251 640 L95 640 L255 294 L200 0 L338 0 L392 289 L690 640 Z " />
<glyph glyph-name="Zacute" unicode="&#x179;" horiz-adv-x="579" d="M450 739 L556 835 L451 852 L286 690 L332 690 C368 690 393 690 450 739 L450 739 Z M593 640 L146 640 L123 522 L396 522 L24 102 L5 0 L485 0 L507 118 L202 118 L575 542 L593 640 Z " />
<glyph glyph-name="zacute" unicode="&#x17a;" horiz-adv-x="480" d="M375 584 L481 680 L376 697 L211 535 L257 535 C293 535 318 535 375 584 L375 584 Z M74 354 L287 354 L7 88 L-10 0 L404 0 L425 107 L180 107 L459 372 L477 461 L95 461 L74 354 Z " />
<glyph glyph-name="Zdotaccent" unicode="&#x17b;" horiz-adv-x="579" d="M377 696 C415 696 451 726 458 762 C466 799 441 829 403 829 C365 829 329 799 322 762 C315 726 340 696 377 696 L377 696 Z M593 640 L146 640 L123 522 L396 522 L24 102 L5 0 L485 0 L507 118 L202 118 L575 542 L593 640 Z " />
<glyph glyph-name="zdotaccent" unicode="&#x17c;" horiz-adv-x="480" d="M303 542 C341 542 377 572 384 608 C392 645 367 675 329 675 C291 675 255 645 248 608 C241 572 266 542 303 542 L303 542 Z M477 461 L95 461 L74 354 L287 354 L7 88 L-10 0 L404 0 L425 107 L180 107 L459 372 L477 461 Z " />
<glyph glyph-name="Zcaron" unicode="&#x17d;" horiz-adv-x="579" d="M427 696 L562 815 L494 815 C466 815 457 808 429 786 L386 751 L357 787 C338 809 331 815 304 815 L236 815 L324 696 L427 696 Z M593 640 L146 640 L123 522 L396 522 L24 102 L5 0 L485 0 L507 118 L202 118 L575 542 L593 640 Z " />
<glyph glyph-name="zcaron" unicode="&#x17e;" horiz-adv-x="480" d="M353 541 L488 660 L420 660 C392 660 383 653 355 631 L312 596 L283 632 C264 654 257 660 230 660 L162 660 L250 541 L353 541 Z M74 354 L287 354 L7 88 L-10 0 L404 0 L425 107 L180 107 L459 372 L477 461 L95 461 L74 354 Z " />
<glyph glyph-name="uni0189" unicode="&#x189;" horiz-adv-x="684" d="M373 640 L157 640 L102 352 L49 352 L37 292 L90 292 L34 0 L253 0 C471 0 623 136 658 317 C693 501 590 640 373 640 L373 640 Z M517 324 C492 192 394 114 257 114 L194 114 L228 292 L346 292 L358 352 L240 352 L273 526 L339 526 C476 526 542 452 517 324 L517 324 Z " />
<glyph glyph-name="uni018F" unicode="&#x18f;" horiz-adv-x="725" d="M427 655 C322 655 225 617 155 548 L243 467 C291 512 345 535 410 535 C515 535 571 463 570 368 L70 368 L60 314 C23 121 124 -12 312 -12 C501 -12 664 135 699 318 C734 504 628 655 427 655 L427 655 Z M327 101 C228 101 177 168 188 273 L551 273 C514 173 428 101 327 101 L327 101 Z " />
<glyph glyph-name="florin" unicode="&#x192;" horiz-adv-x="510" d="M488 658 C397 658 327 596 285 491 L242 384 L141 384 L126 306 L211 306 L111 58 C87 -3 65 -39 25 -39 C12 -39 -3 -38 -17 -21 L-89 -108 C-54 -140 -17 -150 22 -150 C110 -150 176 -88 220 22 L333 306 L454 306 L469 384 L365 384 L391 450 C414 507 437 548 483 548 C499 548 519 544 538 525 L611 612 C571 646 531 658 488 658 L488 658 Z " />
<glyph glyph-name="uni0197" unicode="&#x197;" horiz-adv-x="313" d="M345 405 L259 405 L305 640 L167 640 L121 405 L36 405 L24 345 L109 345 L42 0 L180 0 L247 345 L333 345 L345 405 Z " />
<glyph glyph-name="uni019D" unicode="&#x19d;" horiz-adv-x="720" d="M588 640 L506 214 L284 640 L157 640 L34 0 L30 -21 C17 -87 -47 -99 -86 -86 L-116 -197 C-15 -225 131 -204 162 -28 L169 10 L249 425 L470 0 L597 0 L720 640 L588 640 Z " />
<glyph glyph-name="uni01C3" unicode="&#x1c3;" horiz-adv-x="240" d="M275 640 L124 640 L59 189 L166 189 L275 640 Z M73 -10 C114 -10 155 22 162 62 C170 103 143 135 102 135 C60 135 20 103 12 62 C5 22 32 -10 73 -10 L73 -10 Z " />
<glyph glyph-name="uni01CD" unicode="&#x1cd;" horiz-adv-x="677" d="M479 696 L614 815 L546 815 C518 815 509 808 481 786 L439 751 L409 787 C390 809 383 815 356 815 L288 815 L376 696 L479 696 Z M470 0 L617 0 L487 640 L346 640 L-30 0 L120 0 L195 138 L448 138 L470 0 Z M252 242 L391 497 L431 242 L252 242 Z " />
<glyph glyph-name="uni01CE" unicode="&#x1ce;" horiz-adv-x="570" d="M391 541 L526 660 L458 660 C430 660 421 653 393 631 L350 596 L321 632 C302 654 295 660 268 660 L200 660 L288 541 L391 541 Z M451 461 L430 416 C404 451 362 473 301 473 C180 473 66 381 33 227 C1 77 75 -10 193 -10 C259 -10 314 15 357 53 L361 0 L467 0 L558 461 L451 461 Z M166 235 C183 311 240 364 308 364 C380 364 419 307 402 227 C386 151 327 99 259 99 C188 99 150 155 166 235 L166 235 Z " />
<glyph glyph-name="uni01CF" unicode="&#x1cf;" horiz-adv-x="313" d="M194 696 L297 696 L432 815 L364 815 C336 815 327 808 299 786 L256 751 L227 787 C208 809 201 815 174 815 L106 815 L194 696 Z M305 640 L167 640 L42 0 L180 0 L305 640 Z " />
<glyph glyph-name="uni01D0" unicode="&#x1d0;" horiz-adv-x="274" d="M145 547 L248 547 L383 666 L315 666 C287 666 278 659 250 637 L207 602 L178 638 C159 660 152 666 125 666 L57 666 L145 547 Z M28 0 L156 0 L246 461 L118 461 L28 0 Z " />
<glyph glyph-name="uni01D1" unicode="&#x1d1;" horiz-adv-x="782" d="M434 696 L537 696 L672 815 L604 815 C576 815 567 808 539 786 L496 751 L467 787 C448 809 441 815 414 815 L346 815 L434 696 Z M349 -14 C556 -14 721 133 756 317 C792 505 680 657 469 657 C261 657 97 510 62 327 C26 138 137 -14 349 -14 L349 -14 Z M363 108 C239 108 182 206 204 317 C225 433 326 534 455 534 C580 534 637 438 615 327 C593 211 492 108 363 108 L363 108 Z " />
<glyph glyph-name="uni01D2" unicode="&#x1d2;" horiz-adv-x="574" d="M295 541 L398 541 L533 660 L465 660 C437 660 428 653 400 631 L357 596 L328 632 C309 654 302 660 275 660 L207 660 L295 541 Z M243 -14 C391 -14 514 88 540 226 C567 368 482 473 330 473 C182 473 60 371 33 233 C6 91 91 -14 243 -14 L243 -14 Z M257 95 C188 95 150 150 165 226 C180 306 244 364 316 364 C384 364 423 309 408 233 C393 153 329 95 257 95 L257 95 Z " />
<glyph glyph-name="uni01D3" unicode="&#x1d3;" horiz-adv-x="650" d="M362 696 L465 696 L600 815 L532 815 C504 815 495 808 467 786 L424 751 L395 787 C376 809 369 815 342 815 L274 815 L362 696 Z M281 -14 C434 -14 556 64 592 248 L667 640 L529 640 L456 262 C436 154 373 108 299 108 C227 108 185 150 206 259 L279 640 L141 640 L67 252 C32 68 126 -14 281 -14 L281 -14 Z " />
<glyph glyph-name="uni01D4" unicode="&#x1d4;" horiz-adv-x="546" d="M281 541 L384 541 L519 660 L451 660 C423 660 414 653 386 631 L343 596 L314 632 C295 654 288 660 261 660 L193 660 L281 541 Z M230 -12 C337 -12 455 32 488 207 L537 461 L408 461 L359 206 C347 140 307 97 244 97 C185 97 165 137 177 203 L227 461 L98 461 L50 210 C16 35 118 -12 230 -12 L230 -12 Z " />
<glyph glyph-name="uni01D5" unicode="&#x1d5;" horiz-adv-x="650" d="M296 849 L598 849 L611 914 L308 914 L296 849 Z M328 812 C297 812 268 787 262 757 C256 722 278 693 314 693 C345 693 376 718 382 748 C388 783 364 812 328 812 L328 812 Z M538 812 C507 812 478 787 472 757 C466 722 488 693 524 693 C555 693 585 718 591 748 C598 783 574 812 538 812 L538 812 Z M281 -14 C434 -14 556 64 592 248 L667 640 L529 640 L456 262 C436 154 373 108 299 108 C227 108 185 150 206 259 L279 640 L141 640 L67 252 C32 68 126 -14 281 -14 L281 -14 Z " />
<glyph glyph-name="uni01D6" unicode="&#x1d6;" horiz-adv-x="546" d="M216 719 L518 719 L531 784 L228 784 L216 719 Z M249 668 C217 668 188 643 183 613 C176 578 198 549 234 549 C265 549 297 574 303 604 C309 639 284 668 249 668 L249 668 Z M459 668 C427 668 398 643 393 613 C386 578 408 549 444 549 C475 549 506 574 512 604 C518 639 494 668 459 668 L459 668 Z M230 -12 C337 -12 455 32 488 207 L537 461 L408 461 L359 206 C347 140 307 97 244 97 C185 97 165 137 177 203 L227 461 L98 461 L50 210 C16 35 118 -12 230 -12 L230 -12 Z " />
<glyph glyph-name="uni01D7" unicode="&#x1d7;" horiz-adv-x="650" d="M389 818 L432 818 C462 818 481 821 503 838 L604 921 L510 939 L389 818 Z M328 812 C297 812 268 787 262 757 C256 722 278 693 314 693 C345 693 376 718 382 748 C388 783 364 812 328 812 L328 812 Z M538 812 C507 812 478 787 472 757 C466 722 488 693 524 693 C555 693 585 718 591 748 C598 783 574 812 538 812 L538 812 Z M281 -14 C434 -14 556 64 592 248 L667 640 L529 640 L456 262 C436 154 373 108 299 108 C227 108 185 150 206 259 L279 640 L141 640 L67 252 C32 68 126 -14 281 -14 L281 -14 Z " />
<glyph glyph-name="uni01D8" unicode="&#x1d8;" horiz-adv-x="546" d="M309 688 L352 688 C382 688 401 691 423 708 L524 791 L430 809 L309 688 Z M249 668 C217 668 188 643 183 613 C176 578 198 549 234 549 C265 549 297 574 303 604 C309 639 284 668 249 668 L249 668 Z M459 668 C427 668 398 643 393 613 C386 578 408 549 444 549 C475 549 506 574 512 604 C518 639 494 668 459 668 L459 668 Z M230 -12 C337 -12 455 32 488 207 L537 461 L408 461 L359 206 C347 140 307 97 244 97 C185 97 165 137 177 203 L227 461 L98 461 L50 210 C16 35 118 -12 230 -12 L230 -12 Z " />
<glyph glyph-name="uni01D9" unicode="&#x1d9;" horiz-adv-x="650" d="M390 824 L493 824 L628 943 L560 943 C532 943 523 936 495 914 L452 879 L423 915 C404 937 397 943 370 943 L302 943 L390 824 Z M328 812 C297 812 268 787 262 757 C256 722 278 693 314 693 C345 693 376 718 382 748 C388 783 364 812 328 812 L328 812 Z M538 812 C507 812 478 787 472 757 C466 722 488 693 524 693 C555 693 585 718 591 748 C598 783 574 812 538 812 L538 812 Z M281 -14 C434 -14 556 64 592 248 L667 640 L529 640 L456 262 C436 154 373 108 299 108 C227 108 185 150 206 259 L279 640 L141 640 L67 252 C32 68 126 -14 281 -14 L281 -14 Z " />
<glyph glyph-name="uni01DA" unicode="&#x1da;" horiz-adv-x="546" d="M310 694 L413 694 L548 813 L480 813 C452 813 443 806 415 784 L372 749 L343 785 C324 807 317 813 290 813 L222 813 L310 694 Z M249 668 C217 668 188 643 183 613 C176 578 198 549 234 549 C265 549 297 574 303 604 C309 639 284 668 249 668 L249 668 Z M459 668 C427 668 398 643 393 613 C386 578 408 549 444 549 C475 549 506 574 512 604 C518 639 494 668 459 668 L459 668 Z M230 -12 C337 -12 455 32 488 207 L537 461 L408 461 L359 206 C347 140 307 97 244 97 C185 97 165 137 177 203 L227 461 L98 461 L50 210 C16 35 118 -12 230 -12 L230 -12 Z " />
<glyph glyph-name="uni01DB" unicode="&#x1db;" horiz-adv-x="650" d="M495 818 L422 939 L321 921 L390 838 C404 821 422 818 453 818 L495 818 Z M328 812 C297 812 268 787 262 757 C256 722 278 693 314 693 C345 693 376 718 382 748 C388 783 364 812 328 812 L328 812 Z M538 812 C507 812 478 787 472 757 C466 722 488 693 524 693 C555 693 585 718 591 748 C598 783 574 812 538 812 L538 812 Z M281 -14 C434 -14 556 64 592 248 L667 640 L529 640 L456 262 C436 154 373 108 299 108 C227 108 185 150 206 259 L279 640 L141 640 L67 252 C32 68 126 -14 281 -14 L281 -14 Z " />
<glyph glyph-name="uni01DC" unicode="&#x1dc;" horiz-adv-x="546" d="M415 688 L342 809 L241 791 L310 708 C324 691 342 688 373 688 L415 688 Z M249 668 C217 668 188 643 183 613 C176 578 198 549 234 549 C265 549 297 574 303 604 C309 639 284 668 249 668 L249 668 Z M459 668 C427 668 398 643 393 613 C386 578 408 549 444 549 C475 549 506 574 512 604 C518 639 494 668 459 668 L459 668 Z M230 -12 C337 -12 455 32 488 207 L537 461 L408 461 L359 206 C347 140 307 97 244 97 C185 97 165 137 177 203 L227 461 L98 461 L50 210 C16 35 118 -12 230 -12 L230 -12 Z " />
<glyph glyph-name="uni01DD" unicode="&#x1dd;" horiz-adv-x="530" d="M274 475 C194 475 129 452 76 407 L155 331 C185 362 224 381 274 381 C343 381 374 334 368 263 L260 263 C100 263 21 211 18 129 C14 44 98 -12 202 -12 C346 -12 469 87 496 224 C524 367 438 475 274 475 L274 475 Z M211 83 C168 83 135 103 136 133 C138 172 198 188 263 188 L350 188 C322 122 270 83 211 83 L211 83 Z " />
<glyph glyph-name="uni01DE" unicode="&#x1de;" horiz-adv-x="677" d="M625 914 L322 914 L310 849 L612 849 L625 914 Z M328 693 C359 693 390 718 396 748 C402 783 378 812 342 812 C311 812 282 787 276 757 C270 722 292 693 328 693 L328 693 Z M486 757 C480 722 502 693 538 693 C569 693 599 718 605 748 C612 783 588 812 552 812 C521 812 492 787 486 757 L486 757 Z M346 640 L-30 0 L120 0 L195 138 L448 138 L470 0 L617 0 L487 640 L346 640 Z M252 242 L391 497 L431 242 L252 242 Z " />
<glyph glyph-name="uni01DF" unicode="&#x1df;" horiz-adv-x="570" d="M538 784 L235 784 L223 719 L525 719 L538 784 Z M241 549 C272 549 304 574 310 604 C316 639 291 668 256 668 C224 668 195 643 190 613 C183 578 205 549 241 549 L241 549 Z M400 613 C393 578 415 549 451 549 C482 549 513 574 519 604 C525 639 501 668 466 668 C434 668 405 643 400 613 L400 613 Z M451 461 L430 416 C404 451 362 473 301 473 C180 473 66 381 33 227 C1 77 75 -10 193 -10 C259 -10 314 15 357 53 L361 0 L467 0 L558 461 L451 461 Z M166 235 C183 311 240 364 308 364 C380 364 419 307 402 227 C386 151 327 99 259 99 C188 99 150 155 166 235 L166 235 Z " />
<glyph glyph-name="Gcaron" unicode="&#x1e6;" horiz-adv-x="739" d="M517 696 L652 815 L584 815 C556 815 547 808 519 786 L476 751 L447 787 C428 809 421 815 394 815 L326 815 L414 696 L517 696 Z M431 361 L412 259 L566 259 C534 164 454 108 357 108 C235 108 180 205 202 319 C226 441 325 534 450 534 C512 534 554 512 575 492 L666 593 C642 616 575 657 470 657 C259 657 97 510 62 327 C25 137 134 -14 343 -14 C542 -14 682 127 715 300 L727 361 L431 361 Z " />
<glyph glyph-name="gcaron" unicode="&#x1e7;" horiz-adv-x="568" d="M390 541 L525 660 L457 660 C429 660 420 653 392 631 L349 596 L320 632 C301 654 294 660 267 660 L199 660 L287 541 L390 541 Z M447 461 L429 420 C403 452 362 473 302 473 C181 473 66 383 33 230 C2 82 76 -4 194 -4 C253 -4 303 16 344 48 C322 -48 284 -104 193 -104 C170 -104 142 -99 121 -89 L77 -192 C109 -203 149 -210 188 -210 C341 -210 441 -127 475 48 L554 461 L447 461 Z M167 238 C183 313 241 366 308 366 C380 366 420 310 402 230 C387 155 328 103 260 103 C189 103 150 159 167 238 L167 238 Z " />
<glyph glyph-name="uni01EA" unicode="&#x1ea;" horiz-adv-x="782" d="M469 657 C261 657 97 510 62 327 C28 148 125 3 315 -13 C257 -50 226 -97 237 -145 C250 -201 333 -215 408 -176 L397 -119 C290 -160 288 -66 408 -10 C587 15 724 151 756 317 C792 505 680 657 469 657 L469 657 Z M615 327 C593 211 492 108 363 108 C239 108 182 206 204 317 C225 433 326 534 455 534 C580 534 637 438 615 327 L615 327 Z " />
<glyph glyph-name="uni01EB" unicode="&#x1eb;" horiz-adv-x="574" d="M330 473 C182 473 60 371 33 233 C8 101 80 1 212 -13 C159 -49 132 -94 142 -140 C155 -196 238 -210 313 -171 L302 -114 C196 -154 193 -63 308 -7 C426 18 518 109 540 226 C567 368 482 473 330 473 L330 473 Z M408 233 C393 153 329 95 257 95 C188 95 150 150 165 226 C180 306 244 364 316 364 C384 364 423 309 408 233 L408 233 Z " />
<glyph glyph-name="Aringacute" unicode="&#x1fa;" horiz-adv-x="677" d="M533 832 L634 915 L540 933 L419 812 L462 812 C492 812 511 815 533 832 L533 832 Z M430 573 C489 573 542 618 553 671 C564 729 525 779 461 779 C402 779 350 733 339 680 C328 622 366 573 430 573 L430 573 Z M393 671 C399 702 426 727 459 727 C489 727 503 706 498 680 C492 649 465 624 431 624 C402 624 388 645 393 671 L393 671 Z M346 540 L-30 0 L120 0 L195 116 L448 117 L470 0 L617 0 L487 540 L346 540 Z M252 204 L391 419 L431 204 L252 204 Z " />
<glyph glyph-name="aringacute" unicode="&#x1fb;" horiz-adv-x="570" d="M445 785 L546 868 L452 886 L331 765 L374 765 C404 765 423 768 445 785 L445 785 Z M342 527 C401 527 454 572 465 625 C476 683 437 733 373 733 C314 733 262 687 251 634 C240 576 278 527 342 527 L342 527 Z M305 625 C311 656 338 681 371 681 C401 681 415 660 410 634 C404 603 377 578 343 578 C314 578 300 599 305 625 L305 625 Z M451 461 L430 416 C404 451 362 473 301 473 C180 473 66 381 33 227 C1 77 75 -10 193 -10 C259 -10 314 15 357 53 L361 0 L467 0 L558 461 L451 461 Z M166 235 C183 311 240 364 308 364 C380 364 419 307 402 227 C386 151 327 99 259 99 C188 99 150 155 166 235 L166 235 Z " />
<glyph glyph-name="AEacute" unicode="&#x1fc;" horiz-adv-x="828" d="M617 729 L723 825 L618 842 L453 680 L499 680 C535 680 560 680 617 729 L617 729 Z M837 530 L859 643 L348 643 L-30 0 L117 0 L190 138 L403 138 L411 0 L735 0 L757 113 L529 113 L516 268 L737 268 L757 373 L507 373 L494 530 L837 530 Z M244 242 L381 502 L396 242 L244 242 Z " />
<glyph glyph-name="aeacute" unicode="&#x1fd;" horiz-adv-x="923" d="M588 580 L694 676 L589 693 L424 531 L470 531 C506 531 531 531 588 580 L588 580 Z M721 473 C658 473 599 454 550 421 L558 461 L451 461 L430 416 C404 451 362 473 301 473 C180 473 66 381 33 227 C1 77 75 -10 193 -10 C259 -10 314 15 357 53 L361 0 L467 0 L476 47 C515 9 574 -14 649 -14 C729 -14 795 9 847 54 L768 130 C738 99 699 80 649 80 C580 80 549 127 555 198 L663 198 C823 198 902 250 906 332 C909 417 826 473 721 473 L721 473 Z M660 273 L574 273 C601 339 653 378 712 378 C755 378 788 358 788 328 C785 289 725 273 660 273 L660 273 Z M166 235 C183 311 240 364 308 364 C380 364 419 307 402 227 C386 151 327 99 259 99 C188 99 150 155 166 235 L166 235 Z " />
<glyph glyph-name="Oslashacute" unicode="&#x1fe;" horiz-adv-x="782" d="M555 739 L661 835 L556 852 L391 690 L437 690 C473 690 498 690 555 739 L555 739 Z M805 640 L764 683 L667 595 C618 634 551 657 469 657 C261 657 97 510 62 327 C44 234 62 149 111 88 L19 4 L59 -40 L153 46 C202 8 268 -14 349 -14 C556 -14 721 133 756 317 C774 408 756 491 709 553 L805 640 Z M204 317 C225 433 326 534 455 534 C500 534 537 521 563 500 L219 186 C200 223 194 269 204 317 L204 317 Z M615 327 C593 211 492 108 363 108 C319 108 284 120 257 141 L601 454 C619 419 624 374 615 327 L615 327 Z " />
<glyph glyph-name="oslashacute" unicode="&#x1ff;" horiz-adv-x="575" d="M422 590 L528 686 L423 703 L258 541 L304 541 C340 541 365 541 422 590 L422 590 Z M573 455 L537 494 L471 434 C435 459 388 473 331 473 C182 473 61 371 33 233 C20 166 33 107 66 63 L2 5 L38 -34 L104 26 C140 1 187 -14 244 -14 C394 -14 515 88 542 226 C555 294 543 353 509 397 L573 455 Z M151 226 C169 316 238 380 320 380 C348 380 371 372 389 359 L155 145 C147 167 145 195 151 226 L151 226 Z M423 233 C406 143 338 79 255 79 C227 79 203 87 186 101 L420 315 C428 292 429 264 423 233 L423 233 Z " />
<glyph glyph-name="uni0218" unicode="&#x218;" horiz-adv-x="552" d="M234 -14 C338 -14 465 39 491 178 C511 281 449 334 351 370 C278 400 241 424 249 466 C257 511 306 543 357 543 C399 543 432 527 466 490 L561 578 C517 622 457 657 364 657 C250 657 129 581 107 468 C86 356 169 308 260 276 C317 253 355 232 346 180 C335 128 277 100 229 100 C180 100 135 117 100 173 L-1 85 C54 17 131 -14 234 -14 L234 -14 Z M152 -224 C211 -205 253 -158 265 -113 C276 -77 263 -46 229 -43 C199 -40 174 -59 166 -87 C158 -117 178 -137 205 -134 C198 -156 176 -176 145 -189 L152 -224 Z " />
<glyph glyph-name="uni0219" unicode="&#x219;" horiz-adv-x="452" d="M-10 60 C23 18 89 -14 187 -14 C305 -14 382 43 398 125 C430 293 195 238 211 320 C217 352 245 373 289 374 C317 374 354 360 375 336 L450 414 C423 444 364 473 287 473 C171 473 95 414 78 328 C45 156 275 213 259 135 C254 104 223 82 174 82 C137 82 99 95 71 139 L-10 60 Z M104 -224 C163 -205 205 -158 217 -113 C228 -77 215 -46 181 -43 C151 -40 126 -59 118 -87 C110 -117 130 -137 157 -134 C150 -156 128 -176 97 -189 L104 -224 Z " />
<glyph glyph-name="uni021A" unicode="&#x21a;" horiz-adv-x="561" d="M599 640 L121 640 L99 525 L270 525 L169 0 L307 0 L408 525 L577 525 L599 640 Z M228 -43 C198 -40 173 -59 165 -87 C157 -117 177 -137 204 -134 C197 -156 175 -176 144 -189 L151 -224 C210 -205 252 -158 264 -113 C275 -77 262 -46 228 -43 L228 -43 Z " />
<glyph glyph-name="uni021B" unicode="&#x21b;" horiz-adv-x="372" d="M392 461 L278 461 L304 594 L175 594 L149 461 L78 461 L59 363 L130 363 L60 0 L189 0 L259 363 L373 363 L392 461 Z M115 -43 C85 -40 60 -59 52 -87 C44 -117 64 -137 91 -134 C84 -156 62 -176 31 -189 L38 -224 C97 -205 139 -158 151 -113 C162 -77 149 -46 115 -43 L115 -43 Z " />
<glyph glyph-name="uni0228" unicode="&#x228;" horiz-adv-x="539" d="M548 527 L570 640 L157 640 L33 0 L207 0 L133 -65 L157 -92 C197 -75 237 -84 226 -112 C220 -128 203 -144 168 -144 C140 -144 113 -134 103 -126 L57 -177 C71 -187 111 -201 165 -199 C229 -197 290 -165 310 -114 C328 -67 299 -44 270 -39 C248 -36 229 -40 221 -44 L275 0 L446 0 L468 113 L193 113 L223 269 L454 269 L474 372 L243 372 L273 527 L548 527 Z " />
<glyph glyph-name="uni0229" unicode="&#x229;" horiz-adv-x="530" d="M328 473 C184 473 61 374 34 237 C10 114 70 17 192 -8 L122 -69 L146 -96 C186 -79 226 -88 215 -116 C209 -132 192 -148 157 -148 C129 -148 102 -138 92 -130 L46 -181 C60 -191 100 -205 154 -203 C218 -201 279 -169 299 -118 C317 -71 288 -48 259 -43 C237 -40 218 -44 210 -48 L252 -14 L256 -14 C336 -14 401 9 454 54 L375 130 C345 99 306 80 256 80 C187 80 156 127 162 198 L270 198 C430 198 509 250 512 332 C516 417 432 473 328 473 L328 473 Z M394 328 C392 289 332 273 267 273 L180 273 C208 339 260 378 319 378 C362 378 395 358 394 328 L394 328 Z " />
<glyph glyph-name="uni022A" unicode="&#x22a;" horiz-adv-x="782" d="M368 849 L670 849 L683 914 L380 914 L368 849 Z M400 812 C369 812 340 787 334 757 C328 722 350 693 386 693 C417 693 448 718 454 748 C460 783 436 812 400 812 L400 812 Z M610 812 C579 812 550 787 544 757 C538 722 560 693 596 693 C627 693 657 718 663 748 C670 783 646 812 610 812 L610 812 Z M349 -14 C556 -14 721 133 756 317 C792 505 680 657 469 657 C261 657 97 510 62 327 C26 138 137 -14 349 -14 L349 -14 Z M363 108 C239 108 182 206 204 317 C225 433 326 534 455 534 C580 534 637 438 615 327 C593 211 492 108 363 108 L363 108 Z " />
<glyph glyph-name="uni022B" unicode="&#x22b;" horiz-adv-x="574" d="M230 719 L532 719 L545 784 L242 784 L230 719 Z M263 668 C231 668 202 643 197 613 C190 578 212 549 248 549 C279 549 311 574 317 604 C323 639 298 668 263 668 L263 668 Z M473 668 C441 668 412 643 407 613 C400 578 422 549 458 549 C489 549 520 574 526 604 C532 639 508 668 473 668 L473 668 Z M243 -14 C391 -14 514 88 540 226 C567 368 482 473 330 473 C182 473 60 371 33 233 C6 91 91 -14 243 -14 L243 -14 Z M257 95 C188 95 150 150 165 226 C180 306 244 364 316 364 C384 364 423 309 408 233 C393 153 329 95 257 95 L257 95 Z " />
<glyph glyph-name="uni0232" unicode="&#x232;" horiz-adv-x="625" d="M572 786 L269 786 L257 721 L559 721 L572 786 Z M690 640 L532 640 L348 418 L251 640 L95 640 L255 294 L200 0 L338 0 L392 289 L690 640 Z " />
<glyph glyph-name="uni0233" unicode="&#x233;" horiz-adv-x="525" d="M490 631 L187 631 L175 566 L477 566 L490 631 Z M425 461 L246 162 L184 461 L50 461 L156 17 L11 -210 L145 -210 L565 461 L425 461 Z " />
<glyph glyph-name="uni0237" unicode="&#x237;" horiz-adv-x="301" d="M178 -24 L271 461 L142 461 L50 -13 C36 -87 -6 -123 -83 -110 L-98 -207 C26 -232 145 -195 178 -24 L178 -24 Z " />
<glyph glyph-name="uni0243" unicode="&#x243;" horiz-adv-x="598" d="M550 480 C569 578 501 640 375 640 L157 640 L77 226 L22 226 L10 166 L66 166 L34 0 L276 0 C418 0 519 68 540 178 C558 271 514 331 422 350 C495 371 538 416 550 480 L550 480 Z M419 474 C409 421 364 389 303 389 L247 389 L276 543 L341 543 C402 543 428 521 419 474 L419 474 Z M402 200 C390 136 336 97 261 97 L192 97 L205 166 L319 166 L331 226 L216 226 L229 292 L300 292 C375 292 413 260 402 200 L402 200 Z " />
<glyph glyph-name="uni0244" unicode="&#x244;" horiz-adv-x="650" d="M529 640 L509 534 L259 534 L279 640 L141 640 L67 252 C32 68 126 -14 281 -14 C434 -14 556 64 592 248 L667 640 L529 640 Z M299 108 C227 108 185 150 206 259 L245 463 L495 463 L456 262 C436 154 373 108 299 108 L299 108 Z " />
<glyph glyph-name="uni0245" unicode="&#x245;" horiz-adv-x="656" d="M597 0 L478 640 L359 640 L-30 0 L121 0 L382 468 L445 0 L597 0 Z " />
<glyph glyph-name="uni024C" unicode="&#x24c;" horiz-adv-x="610" d="M577 440 C601 573 499 640 386 640 L157 640 L99 339 L34 339 L22 262 L84 262 L34 0 L172 0 L221 253 L257 253 L380 0 L546 0 L399 268 C486 292 559 347 577 440 L577 440 Z M435 449 C424 390 375 355 301 355 L240 355 L275 536 L336 536 C415 536 445 503 435 449 L435 449 Z " />
<glyph glyph-name="uni0250" unicode="&#x250;" horiz-adv-x="573" d="M370 473 C309 473 258 451 218 416 L215 461 L109 461 L13 0 L120 0 L145 54 C172 15 217 -10 283 -10 C401 -10 510 77 540 227 C569 381 491 473 370 473 L370 473 Z M409 235 C393 155 332 99 261 99 C193 99 155 151 170 227 C185 307 247 364 320 364 C387 364 423 311 409 235 L409 235 Z " />
<glyph glyph-name="uni0251" unicode="&#x251;" horiz-adv-x="538" d="M419 461 L395 410 C372 448 333 473 275 473 C165 473 62 381 33 227 C4 77 71 -10 177 -10 C236 -10 286 15 324 53 L328 0 L435 0 L525 461 L419 461 Z M236 99 C173 99 138 155 153 235 C168 311 219 364 280 364 C345 364 381 307 365 227 C351 151 298 99 236 99 L236 99 Z " />
<glyph glyph-name="uni0252" unicode="&#x252;" horiz-adv-x="541" d="M364 473 C306 473 257 448 218 410 L215 461 L109 461 L13 0 L120 0 L145 53 C168 15 207 -10 266 -10 C373 -10 475 77 507 227 C540 381 473 473 364 473 L364 473 Z M390 235 C373 155 315 99 251 99 C190 99 158 151 175 227 C191 307 250 364 315 364 C376 364 406 311 390 235 L390 235 Z " />
<glyph glyph-name="uni0258" unicode="&#x258;" horiz-adv-x="530" d="M300 473 C196 473 90 417 59 332 C29 250 87 198 248 198 L355 198 C333 127 283 80 213 80 C163 80 132 99 114 130 L5 54 C39 9 96 -14 176 -14 C340 -14 469 94 499 237 C527 374 445 473 300 473 L300 473 Z M175 328 C186 358 228 378 271 378 C330 378 367 339 367 273 L280 273 C216 273 162 289 175 328 L175 328 Z " />
<glyph glyph-name="uni0259" unicode="&#x259;" horiz-adv-x="530" d="M274 475 C194 475 129 452 76 407 L155 331 C185 362 224 381 274 381 C343 381 374 334 368 263 L260 263 C100 263 21 211 18 129 C14 44 98 -12 202 -12 C346 -12 469 87 496 224 C524 367 438 475 274 475 L274 475 Z M211 83 C168 83 135 103 136 133 C138 172 198 188 263 188 L350 188 C322 122 270 83 211 83 L211 83 Z " />
<glyph glyph-name="uni0265" unicode="&#x265;" horiz-adv-x="551" d="M410 461 L363 219 C346 130 289 97 240 97 C182 97 165 137 178 206 L227 461 L98 461 L42 174 C15 34 99 -12 180 -12 C241 -12 292 12 330 51 L278 -219 L406 -219 L538 461 L410 461 Z " />
<glyph glyph-name="uni0268" unicode="&#x268;" horiz-adv-x="274" d="M199 547 C237 547 273 577 280 613 C288 650 263 680 225 680 C187 680 151 650 144 613 C137 577 162 547 199 547 L199 547 Z M317 357 L226 357 L246 461 L118 461 L98 357 L8 357 L-4 297 L86 297 L28 0 L156 0 L214 297 L305 297 L317 357 Z " />
<glyph glyph-name="uni026F" unicode="&#x26f;" horiz-adv-x="812" d="M668 461 L621 215 C605 138 566 97 511 97 C461 97 450 139 462 202 L512 461 L383 461 L337 219 L337 222 C322 144 284 97 227 97 C177 97 165 139 177 202 L227 461 L98 461 L47 191 C21 55 72 -12 178 -12 C255 -12 302 18 339 54 C358 10 399 -12 455 -12 C504 -12 556 11 592 59 L595 0 L709 0 L797 461 L668 461 Z " />
<glyph glyph-name="uni0272" unicode="&#x272;" horiz-adv-x="552" d="M372 473 C311 473 260 449 221 410 L216 461 L103 461 L14 0 L9 -25 C-2 -75 -29 -96 -66 -91 L-82 -198 C23 -215 113 -164 137 -32 L143 0 L192 257 C213 335 266 364 312 364 C370 364 387 324 374 255 L325 0 L454 0 L510 287 C537 427 452 473 372 473 L372 473 Z " />
<glyph glyph-name="uni0275" unicode="&#x275;" horiz-adv-x="575" d="M331 473 C182 473 61 371 33 233 C6 91 91 -14 244 -14 C394 -14 515 88 542 226 C570 368 485 473 331 473 L331 473 Z M320 380 C389 380 429 334 427 265 L163 265 C190 334 250 380 320 380 L320 380 Z M255 79 C187 79 146 125 147 194 L412 194 C385 125 325 79 255 79 L255 79 Z " />
<glyph glyph-name="uni0279" unicode="&#x279;" horiz-adv-x="362" d="M218 461 L172 216 L176 244 C161 164 108 112 37 112 C24 112 9 114 -2 118 L-41 -5 C-27 -9 -11 -12 13 -12 C65 -12 111 22 143 60 L146 0 L259 0 L348 461 L218 461 Z " />
<glyph glyph-name="uni0289" unicode="&#x289;" horiz-adv-x="546" d="M408 461 L383 330 L202 330 L227 461 L98 461 L50 210 C16 35 118 -12 230 -12 C337 -12 455 32 488 207 L537 461 L408 461 Z M244 97 C185 97 165 137 177 203 L188 259 L369 259 L359 206 C347 140 307 97 244 97 L244 97 Z " />
<glyph glyph-name="uni028C" unicode="&#x28c;" horiz-adv-x="518" d="M468 0 L357 461 L251 461 L-40 0 L96 0 L274 310 L330 0 L468 0 Z " />
<glyph glyph-name="uni028D" unicode="&#x28d;" horiz-adv-x="766" d="M711 0 L636 461 L527 461 L370 150 L344 461 L235 461 L-34 0 L104 0 L259 295 L285 0 L389 0 L541 297 L571 0 L711 0 Z " />
<glyph glyph-name="uni028E" unicode="&#x28e;" horiz-adv-x="533" d="M518 671 L384 671 L-36 0 L104 0 L283 299 L345 0 L479 0 L373 444 L518 671 Z " />
<glyph glyph-name="circumflex" unicode="&#x2c6;" horiz-adv-x="395" d="M328 637 L225 637 L90 518 L158 518 C186 518 195 525 223 547 L265 582 L295 546 C314 524 321 518 348 518 L416 518 L328 637 Z " />
<glyph glyph-name="caron" unicode="&#x2c7;" horiz-adv-x="395" d="M203 522 L306 522 L441 641 L373 641 C345 641 335 634 308 612 L265 577 L236 613 C217 635 210 641 183 641 L115 641 L203 522 Z " />
<glyph glyph-name="uni02C9" unicode="&#x2c9;" horiz-adv-x="355" d="M62 548 L417 548 L430 615 L75 615 L62 548 Z " />
<glyph glyph-name="breve" unicode="&#x2d8;" horiz-adv-x="378" d="M247 511 C344 511 404 555 421 630 L352 630 C342 603 308 574 250 574 C197 574 178 597 180 630 L112 630 C100 561 146 511 247 511 L247 511 Z " />
<glyph glyph-name="dotaccent" unicode="&#x2d9;" horiz-adv-x="203" d="M160 528 C198 528 234 558 241 594 C249 631 224 661 186 661 C148 661 112 631 105 594 C97 558 122 528 160 528 L160 528 Z " />
<glyph glyph-name="ring" unicode="&#x2da;" horiz-adv-x="285" d="M229 701 C170 701 118 655 107 602 C96 544 134 495 198 495 C257 495 310 540 321 593 C332 651 293 701 229 701 L229 701 Z M199 546 C170 546 156 567 161 593 C167 624 194 649 227 649 C257 649 271 628 266 602 C260 571 233 546 199 546 L199 546 Z " />
<glyph glyph-name="ogonek" unicode="&#x2db;" horiz-adv-x="274" d="M150 -176 L139 -119 C32 -160 30 -66 150 -10 L171 0 L112 17 C19 -24 -35 -84 -21 -145 C-8 -201 74 -215 150 -176 L150 -176 Z " />
<glyph glyph-name="tilde" unicode="&#x2dc;" horiz-adv-x="398" d="M332 558 C391 558 421 600 441 629 L390 665 C376 646 365 623 331 623 C290 623 274 669 216 669 C161 669 129 629 107 603 L157 562 C169 580 183 603 217 603 C262 603 276 558 332 558 L332 558 Z " />
<glyph glyph-name="hungarumlaut" unicode="&#x2dd;" horiz-adv-x="482" d="M253 559 L359 655 L253 672 L88 510 L135 510 C171 510 195 510 253 559 L253 559 Z M424 559 L530 655 L425 672 L260 510 L306 510 C342 510 367 510 424 559 L424 559 Z " />
<glyph glyph-name="gravecomb" unicode="&#x300;" d="M-128 559 C-89 510 -64 510 -28 510 L19 510 L-87 672 L-199 655 L-128 559 Z " />
<glyph glyph-name="acutecomb" unicode="&#x301;" d="M-96 559 L10 655 L-95 672 L-260 510 L-214 510 C-178 510 -153 510 -96 559 L-96 559 Z " />
<glyph glyph-name="uni0302" unicode="&#x302;" d="M-106 637 L-209 637 L-344 518 L-276 518 C-248 518 -238 525 -211 547 L-168 582 L-139 546 C-120 524 -113 518 -86 518 L-18 518 L-106 637 Z " />
<glyph glyph-name="tildecomb" unicode="&#x303;" d="M-115 527 C-56 527 -26 569 -6 598 L-57 634 C-71 614 -82 592 -115 592 C-157 592 -173 638 -231 638 C-286 638 -318 598 -340 572 L-290 531 C-278 548 -264 572 -229 572 C-185 572 -171 527 -115 527 L-115 527 Z " />
<glyph glyph-name="uni0304" unicode="&#x304;" d="M-320 527 L-18 527 L-5 592 L-308 592 L-320 527 Z " />
<glyph glyph-name="uni0306" unicode="&#x306;" d="M-174 511 C-77 511 -17 555 0 630 L-69 630 C-79 603 -113 574 -171 574 C-224 574 -243 597 -241 630 L-309 630 C-321 561 -275 511 -174 511 L-174 511 Z " />
<glyph glyph-name="uni0307" unicode="&#x307;" d="M-86 528 C-48 528 -12 558 -5 594 C3 631 -22 661 -60 661 C-98 661 -134 631 -141 594 C-148 558 -123 528 -86 528 L-86 528 Z " />
<glyph glyph-name="uni0308" unicode="&#x308;" d="M-265 642 C-297 642 -326 617 -331 587 C-338 552 -316 523 -280 523 C-249 523 -217 548 -211 578 C-205 613 -230 642 -265 642 L-265 642 Z M-55 642 C-87 642 -116 617 -121 587 C-128 552 -106 523 -70 523 C-39 523 -8 548 -2 578 C4 613 -20 642 -55 642 L-55 642 Z " />
<glyph glyph-name="uni030A" unicode="&#x30a;" d="M-10 701 C-69 701 -121 655 -132 602 C-143 544 -105 495 -41 495 C18 495 71 540 82 593 C93 651 54 701 -10 701 L-10 701 Z M-40 546 C-69 546 -83 567 -78 593 C-72 624 -45 649 -12 649 C18 649 32 628 27 602 C21 571 -6 546 -40 546 L-40 546 Z " />
<glyph glyph-name="uni030B" unicode="&#x30b;" d="M-349 559 L-243 655 L-348 672 L-513 510 L-466 510 C-431 510 -406 510 -349 559 L-349 559 Z M-177 559 L-71 655 L-176 672 L-341 510 L-295 510 C-259 510 -234 510 -177 559 L-177 559 Z " />
<glyph glyph-name="uni030C" unicode="&#x30c;" d="M-236 522 L-133 522 L2 641 L-66 641 C-94 641 -103 634 -131 612 L-174 577 L-203 613 C-222 635 -229 641 -256 641 L-324 641 L-236 522 Z " />
<glyph glyph-name="uni0312" unicode="&#x312;" d="M-19 683 C-90 660 -139 605 -154 551 C-166 509 -151 472 -110 469 C-76 466 -45 488 -36 521 C-26 556 -50 580 -82 576 C-73 603 -47 626 -11 642 L-19 683 Z " />
<glyph glyph-name="dotbelowcomb" unicode="&#x323;" d="M-222 -190 C-185 -190 -148 -160 -141 -123 C-134 -86 -159 -57 -196 -57 C-234 -57 -271 -86 -278 -123 C-285 -160 -260 -190 -222 -190 L-222 -190 Z " />
<glyph glyph-name="uni0326" unicode="&#x326;" d="M-225 -224 C-166 -205 -124 -158 -112 -113 C-101 -77 -114 -46 -148 -43 C-178 -40 -203 -59 -211 -87 C-219 -117 -199 -137 -172 -134 C-179 -156 -201 -176 -232 -189 L-225 -224 Z " />
<glyph glyph-name="uni0327" unicode="&#x327;" d="M-186 -39 C-208 -36 -227 -40 -235 -44 L-176 4 L-171 15 L-224 22 L-323 -65 L-299 -92 C-259 -75 -219 -84 -230 -112 C-236 -128 -253 -144 -288 -144 C-316 -144 -343 -134 -353 -126 L-399 -177 C-385 -187 -345 -201 -291 -199 C-227 -197 -166 -165 -146 -114 C-128 -67 -157 -44 -186 -39 L-186 -39 Z " />
<glyph glyph-name="uni0328" unicode="&#x328;" d="M-157 -176 L-168 -119 C-275 -160 -277 -66 -157 -10 L-136 0 L-195 17 C-288 -24 -342 -84 -328 -145 C-315 -201 -232 -215 -157 -176 L-157 -176 Z " />
<glyph glyph-name="uni0331" unicode="&#x331;" d="M-404 -140 L-102 -140 L-90 -75 L-392 -75 L-404 -140 Z " />
<glyph glyph-name="uni0335" unicode="&#x335;" d="M-380 264 L-71 264 L-59 324 L-368 324 L-380 264 Z " />
<glyph glyph-name="uni0336" unicode="&#x336;" d="M-533 258 L-98 258 L-83 329 L-519 329 L-533 258 Z " />
<glyph glyph-name="uni0337" unicode="&#x337;" d="M-330 297 L-350 199 L-44 404 L-25 502 L-330 297 Z " />
<glyph glyph-name="uni0338" unicode="&#x338;" d="M73 686 L-672 7 L-632 -37 L114 643 L73 686 Z " />
<glyph glyph-name="uni0394" unicode="&#x394;" horiz-adv-x="640" d="M466 640 L331 640 L-14 83 L-29 0 L580 0 L596 83 L466 640 Z M375 515 L460 98 L132 98 L375 515 Z " />
<glyph glyph-name="uni03A9" unicode="&#x3a9;" horiz-adv-x="817" d="M765 365 C796 529 689 660 489 660 C292 660 137 532 105 373 C83 255 138 154 248 113 L245 97 L66 101 L46 0 L320 0 L338 95 L338 95 L339 95 L345 130 L351 164 L350 164 L353 183 C260 196 221 274 238 358 C257 461 351 551 474 551 C594 551 651 464 631 365 C614 277 541 196 443 183 L435 136 L428 95 L427 95 L409 0 L683 0 L702 101 L521 97 L524 112 C651 151 742 250 765 365 L765 365 Z " />
<glyph glyph-name="uni03BC" unicode="&#x3bc;" horiz-adv-x="557" d="M413 461 L365 213 C342 128 290 97 245 97 C186 97 170 137 184 206 L233 461 L103 461 L47 174 L44 156 L-22 -190 L83 -190 L131 0 C149 -8 169 -12 189 -12 C245 -12 294 10 336 49 L340 0 L454 0 L543 461 L413 461 Z " />
<glyph glyph-name="pi" unicode="&#x3c0;" horiz-adv-x="687" d="M551 363 L644 363 L663 461 L103 461 L84 363 L156 363 L86 0 L216 0 L285 363 L421 363 L380 150 C355 20 432 -10 501 -10 C536 -10 573 -3 590 2 L593 108 C590 106 575 99 549 99 C523 99 504 115 513 165 L551 363 Z " />
<glyph glyph-name="uni0400" unicode="&#x400;" horiz-adv-x="539" d="M445 690 L492 690 L386 852 L274 835 L345 739 C384 690 409 690 445 690 L445 690 Z M548 527 L570 640 L157 640 L33 0 L446 0 L468 113 L193 113 L223 269 L454 269 L474 372 L243 372 L273 527 L548 527 Z " />
<glyph glyph-name="uni0401" unicode="&#x401;" horiz-adv-x="539" d="M275 703 C306 703 338 728 344 758 C350 793 325 822 290 822 C258 822 229 797 224 767 C217 732 239 703 275 703 L275 703 Z M485 703 C516 703 547 728 553 758 C559 793 535 822 500 822 C468 822 439 797 434 767 C427 732 449 703 485 703 L485 703 Z M548 527 L570 640 L157 640 L33 0 L446 0 L468 113 L193 113 L223 269 L454 269 L474 372 L243 372 L273 527 L548 527 Z " />
<glyph glyph-name="uni0402" unicode="&#x402;" horiz-adv-x="728" d="M501 411 C450 411 405 399 363 380 L395 542 L549 542 L569 640 L121 640 L101 542 L257 542 L151 0 L289 0 L344 282 C373 296 405 303 446 303 C515 303 549 261 535 188 C520 109 450 68 370 82 L348 -31 C497 -50 644 20 677 192 C704 328 627 411 501 411 L501 411 Z " />
<glyph glyph-name="uni0403" unicode="&#x403;" horiz-adv-x="517" d="M439 739 L545 835 L440 852 L275 690 L321 690 C357 690 382 690 439 739 L439 739 Z M556 640 L157 640 L32 0 L170 0 L272 523 L533 523 L556 640 Z " />
<glyph glyph-name="uni0404" unicode="&#x404;" horiz-adv-x="628" d="M460 657 C258 657 98 513 63 331 C26 141 136 -14 347 -14 C422 -14 495 5 559 45 L500 161 C461 129 408 105 352 105 C245 105 194 179 196 271 L432 271 L451 370 L219 370 C258 464 345 537 453 537 C500 537 543 522 572 490 L659 591 C609 631 544 657 460 657 L460 657 Z " />
<glyph glyph-name="uni0405" unicode="&#x405;" horiz-adv-x="552" d="M234 -14 C338 -14 465 39 491 178 C511 281 449 334 351 370 C278 400 241 424 249 466 C257 511 306 543 357 543 C399 543 432 527 466 490 L561 578 C517 622 457 657 364 657 C250 657 129 581 107 468 C86 356 169 308 260 276 C317 253 355 232 346 180 C335 128 277 100 229 100 C180 100 135 117 100 173 L-1 85 C54 17 131 -14 234 -14 L234 -14 Z " />
<glyph glyph-name="uni0406" unicode="&#x406;" horiz-adv-x="313" d="M305 640 L167 640 L42 0 L180 0 L305 640 Z " />
<glyph glyph-name="uni0407" unicode="&#x407;" horiz-adv-x="313" d="M161 822 C129 822 100 797 95 767 C88 732 110 703 146 703 C177 703 209 728 215 758 C221 793 196 822 161 822 L161 822 Z M371 822 C339 822 310 797 305 767 C298 732 320 703 356 703 C387 703 418 728 424 758 C430 793 406 822 371 822 L371 822 Z M305 640 L167 640 L42 0 L180 0 L305 640 Z " />
<glyph glyph-name="uni0408" unicode="&#x408;" horiz-adv-x="478" d="M161 -14 C277 -14 382 52 414 219 L495 640 L357 640 L276 220 C263 147 220 108 163 108 C128 108 103 121 81 152 L-3 45 C34 13 81 -14 161 -14 L161 -14 Z " />
<glyph glyph-name="uni0409" unicode="&#x409;" horiz-adv-x="1007" d="M773 405 L654 405 L700 640 L255 640 L200 358 C173 223 132 110 46 110 C40 110 31 109 22 112 L9 1 C23 -3 40 -4 61 -4 C193 -4 285 98 334 351 L369 526 L540 526 L437 0 L703 0 C819 1 929 74 952 192 C977 321 889 405 773 405 L773 405 Z M815 212 C801 145 748 102 672 103 L595 104 L634 301 L719 302 C795 303 825 271 815 212 L815 212 Z " />
<glyph glyph-name="uni040A" unicode="&#x40a;" horiz-adv-x="996" d="M760 394 L641 394 L689 640 L551 640 L503 394 L247 394 L295 640 L157 640 L32 0 L170 0 L227 290 L483 291 L426 0 L692 0 C808 1 918 72 940 187 C965 312 876 394 760 394 L760 394 Z M802 207 C789 143 736 102 661 103 L584 104 L621 291 L706 291 C781 291 812 262 802 207 L802 207 Z " />
<glyph glyph-name="uni040B" unicode="&#x40b;" horiz-adv-x="729" d="M511 411 C460 411 408 398 364 378 L396 542 L550 542 L569 640 L121 640 L102 542 L258 542 L152 0 L290 0 L343 271 C377 291 416 303 460 303 C531 303 555 267 540 191 L503 0 L641 0 L682 210 C712 365 606 411 511 411 L511 411 Z " />
<glyph glyph-name="uni040C" unicode="&#x40c;" horiz-adv-x="672" d="M499 739 L605 835 L500 852 L335 690 L381 690 C417 690 442 690 499 739 L499 739 Z M696 640 L515 640 L247 388 L295 640 L157 640 L34 0 L172 0 L227 288 L415 0 L594 0 L354 339 L696 640 Z " />
<glyph glyph-name="uni040D" unicode="&#x40d;" horiz-adv-x="729" d="M530 690 L577 690 L471 852 L359 835 L430 739 C469 690 494 690 530 690 L530 690 Z M604 640 L211 214 L301 640 L168 640 L32 0 L160 0 L553 425 L463 0 L595 0 L731 640 L604 640 Z " />
<glyph glyph-name="uni040E" unicode="&#x40e;" horiz-adv-x="623" d="M404 690 C501 690 561 734 578 809 L509 809 C499 782 465 753 407 753 C354 753 335 776 337 809 L269 809 C257 740 303 690 404 690 L404 690 Z M529 640 L333 370 L248 640 L95 640 L233 231 L65 0 L224 0 L688 640 L529 640 Z " />
<glyph glyph-name="uni040F" unicode="&#x40f;" horiz-adv-x="685" d="M552 640 L449 114 L192 114 L295 640 L157 640 L32 0 L235 0 L212 -120 L337 -120 L360 0 L563 0 L688 640 L552 640 Z " />
<glyph glyph-name="uni0410" unicode="&#x410;" horiz-adv-x="677" d="M470 0 L617 0 L487 640 L346 640 L-30 0 L120 0 L195 138 L448 138 L470 0 Z M252 242 L391 497 L431 242 L252 242 Z " />
<glyph glyph-name="uni0411" unicode="&#x411;" horiz-adv-x="610" d="M373 387 L246 387 L273 528 L550 528 L571 640 L157 640 L34 0 L303 0 C420 1 532 73 555 188 C578 308 489 387 373 387 L373 387 Z M413 199 C402 136 349 97 274 98 L191 99 L227 288 L316 289 C391 290 424 257 413 199 L413 199 Z " />
<glyph glyph-name="uni0412" unicode="&#x412;" horiz-adv-x="598" d="M550 480 C569 578 501 640 375 640 L157 640 L34 0 L276 0 C418 0 519 68 540 178 C558 271 514 331 422 350 C495 371 538 416 550 480 L550 480 Z M419 474 C409 421 364 389 303 389 L247 389 L276 543 L341 543 C402 543 428 521 419 474 L419 474 Z M402 200 C390 136 336 97 261 97 L192 97 L229 292 L300 292 C375 292 413 260 402 200 L402 200 Z " />
<glyph glyph-name="uni0413" unicode="&#x413;" horiz-adv-x="517" d="M556 640 L157 640 L32 0 L170 0 L272 523 L533 523 L556 640 Z " />
<glyph glyph-name="uni0414" unicode="&#x414;" horiz-adv-x="727" d="M692 640 L261 640 L239 526 L228 466 C207 358 176 204 60 115 L60 114 L23 114 L1 0 L-22 -120 L89 -120 L124 0 L521 0 L510 -120 L621 -120 L666 114 L591 114 L692 640 Z M210 114 C279 193 332 300 355 422 L375 526 L534 526 L455 114 L210 114 Z " />
<glyph glyph-name="uni0415" unicode="&#x415;" horiz-adv-x="539" d="M548 527 L570 640 L157 640 L33 0 L446 0 L468 113 L193 113 L223 269 L454 269 L474 372 L243 372 L273 527 L548 527 Z " />
<glyph glyph-name="uni0416" unicode="&#x416;" horiz-adv-x="1049" d="M1076 640 L893 640 L626 389 L675 640 L537 640 L488 388 L316 640 L139 640 L362 339 L-12 0 L172 0 L468 288 L412 0 L550 0 L606 288 L794 0 L971 0 L732 339 L1076 640 Z " />
<glyph glyph-name="uni0417" unicode="&#x417;" horiz-adv-x="554" d="M524 472 C542 573 475 655 342 657 C263 658 197 641 127 599 L178 500 C223 530 267 552 327 552 C383 552 409 523 403 486 C397 446 369 415 326 402 C294 392 257 384 205 384 L194 292 C247 292 283 293 325 279 C364 267 375 235 367 198 C355 143 294 99 214 99 C144 98 103 130 71 168 L-8 71 C45 21 114 -14 223 -13 C369 -10 473 61 496 173 C513 254 476 310 421 340 C472 366 513 409 524 472 L524 472 Z " />
<glyph glyph-name="uni0418" unicode="&#x418;" horiz-adv-x="729" d="M604 640 L211 214 L301 640 L168 640 L32 0 L160 0 L553 425 L463 0 L595 0 L731 640 L604 640 Z " />
<glyph glyph-name="uni0419" unicode="&#x419;" horiz-adv-x="729" d="M465 690 C562 690 622 734 639 809 L570 809 C560 782 526 753 468 753 C415 753 396 776 398 809 L330 809 C318 740 364 690 465 690 L465 690 Z M604 640 L211 214 L301 640 L168 640 L32 0 L160 0 L553 425 L463 0 L595 0 L731 640 L604 640 Z " />
<glyph glyph-name="uni041A" unicode="&#x41a;" horiz-adv-x="672" d="M696 640 L515 640 L247 388 L295 640 L157 640 L34 0 L172 0 L227 288 L415 0 L594 0 L354 339 L696 640 Z " />
<glyph glyph-name="uni041B" unicode="&#x41b;" horiz-adv-x="695" d="M698 640 L255 640 L197 345 C173 223 132 110 46 110 C40 110 31 109 22 112 L9 1 C23 -3 40 -4 61 -4 C193 -4 285 98 332 337 L369 526 L540 526 L437 0 L573 0 L676 526 L698 640 Z " />
<glyph glyph-name="uni041C" unicode="&#x41c;" horiz-adv-x="839" d="M715 640 L715 639 L714 640 L439 334 L282 638 L282 640 L157 640 L34 0 L168 0 L250 424 L405 150 L665 423 L583 0 L717 0 L840 640 L715 640 Z " />
<glyph glyph-name="uni041D" unicode="&#x41d;" horiz-adv-x="693" d="M555 640 L506 383 L246 383 L295 640 L157 640 L34 0 L172 0 L224 272 L484 272 L432 0 L570 0 L693 640 L555 640 Z " />
<glyph glyph-name="uni041E" unicode="&#x41e;" horiz-adv-x="782" d="M349 -14 C556 -14 721 133 756 317 C792 505 680 657 469 657 C261 657 97 510 62 327 C26 138 137 -14 349 -14 L349 -14 Z M363 108 C239 108 182 206 204 317 C225 433 326 534 455 534 C580 534 637 438 615 327 C593 211 492 108 363 108 L363 108 Z " />
<glyph glyph-name="uni041F" unicode="&#x41f;" horiz-adv-x="686" d="M689 640 L157 640 L32 0 L170 0 L272 524 L528 524 L426 0 L564 0 L689 640 Z " />
<glyph glyph-name="uni0420" unicode="&#x420;" horiz-adv-x="579" d="M405 640 L157 640 L34 0 L172 0 L217 235 L332 235 C449 235 564 311 587 432 C611 558 523 640 405 640 L405 640 Z M447 442 C435 378 383 338 305 338 L237 338 L275 537 L348 537 C425 537 459 503 447 442 L447 442 Z " />
<glyph glyph-name="uni0421" unicode="&#x421;" horiz-adv-x="627" d="M342 -14 C420 -14 494 7 558 48 L503 158 C463 128 414 108 361 108 C238 108 181 207 204 318 C225 433 323 534 450 534 C499 534 541 518 569 488 L661 593 C612 633 547 657 465 657 C260 657 97 510 62 325 C26 137 134 -14 342 -14 L342 -14 Z " />
<glyph glyph-name="uni0422" unicode="&#x422;" horiz-adv-x="561" d="M599 640 L121 640 L99 525 L270 525 L169 0 L307 0 L408 525 L577 525 L599 640 Z " />
<glyph glyph-name="uni0423" unicode="&#x423;" horiz-adv-x="623" d="M529 640 L333 370 L248 640 L95 640 L233 231 L65 0 L224 0 L688 640 L529 640 Z " />
<glyph glyph-name="uni0424" unicode="&#x424;" horiz-adv-x="803" d="M541 591 L558 680 L420 680 L404 593 C217 577 83 488 53 332 C21 173 119 74 298 52 L280 -40 L418 -40 L435 51 C621 66 756 157 786 312 C816 471 719 569 541 591 L541 591 Z M653 332 C634 236 560 183 452 168 L514 478 C617 467 670 424 653 332 L653 332 Z M185 312 C203 408 278 460 386 475 L325 165 C221 176 168 220 185 312 L185 312 Z " />
<glyph glyph-name="uni0425" unicode="&#x425;" horiz-adv-x="690" d="M720 640 L557 640 L382 428 L290 640 L128 640 L277 328 L-12 0 L160 0 L344 226 L442 0 L612 0 L449 327 L720 640 Z " />
<glyph glyph-name="uni0426" unicode="&#x426;" horiz-adv-x="720" d="M688 640 L552 640 L449 114 L192 114 L295 640 L157 640 L32 0 L515 0 L504 -120 L615 -120 L660 114 L585 114 L688 640 Z " />
<glyph glyph-name="uni0427" unicode="&#x427;" horiz-adv-x="610" d="M474 640 L421 369 C387 349 347 337 304 337 C233 337 209 373 224 449 L261 640 L123 640 L82 430 C52 275 158 229 253 229 C304 229 356 242 400 262 L349 0 L487 0 L612 640 L474 640 Z " />
<glyph glyph-name="uni0428" unicode="&#x428;" horiz-adv-x="930" d="M796 640 L693 114 L512 114 L615 640 L477 640 L374 114 L192 114 L295 640 L157 640 L32 0 L807 0 L932 640 L796 640 Z " />
<glyph glyph-name="uni0429" unicode="&#x429;" horiz-adv-x="965" d="M932 640 L796 640 L693 114 L512 114 L615 640 L477 640 L374 114 L192 114 L295 640 L157 640 L32 0 L760 0 L749 -120 L859 -120 L904 114 L829 114 L932 640 Z " />
<glyph glyph-name="uni042A" unicode="&#x42a;" horiz-adv-x="668" d="M432 394 L313 394 L340 530 L361 640 L87 640 L66 530 L202 530 L98 0 L364 0 C480 1 590 72 613 187 C637 312 548 394 432 394 L432 394 Z M475 207 C462 143 409 103 333 103 L256 104 L293 290 L378 291 C454 291 485 262 475 207 L475 207 Z " />
<glyph glyph-name="uni042B" unicode="&#x42b;" horiz-adv-x="842" d="M366 394 L247 394 L295 640 L157 640 L32 0 L298 0 C414 1 524 72 547 187 C571 312 482 394 366 394 L366 394 Z M706 640 L582 0 L720 0 L844 640 L706 640 Z M409 207 C396 143 343 103 268 103 L190 104 L227 290 L312 291 C388 291 419 262 409 207 L409 207 Z " />
<glyph glyph-name="uni042C" unicode="&#x42c;" horiz-adv-x="602" d="M366 394 L247 394 L295 640 L157 640 L32 0 L298 0 C414 1 524 72 547 187 C571 312 482 394 366 394 L366 394 Z M409 207 C396 143 343 103 268 103 L190 104 L227 290 L312 291 C388 291 419 262 409 207 L409 207 Z " />
<glyph glyph-name="uni042D" unicode="&#x42d;" horiz-adv-x="633" d="M343 657 C259 657 184 631 118 591 L164 490 C206 522 255 537 302 537 C410 537 467 464 469 370 L236 370 L216 271 L451 271 C417 179 335 105 229 105 C173 105 129 129 103 161 L-3 45 C45 5 110 -14 185 -14 C396 -14 569 141 609 331 C647 513 545 657 343 657 L343 657 Z " />
<glyph glyph-name="uni042E" unicode="&#x42e;" horiz-adv-x="987" d="M695 657 C520 657 382 541 330 383 L245 383 L295 640 L157 640 L32 0 L170 0 L223 272 L310 272 C301 108 401 -14 582 -14 C773 -14 924 129 959 312 C998 506 896 657 695 657 L695 657 Z M821 332 C798 212 706 108 588 108 C478 108 433 201 455 312 C478 432 569 534 689 534 C798 534 843 443 821 332 L821 332 Z " />
<glyph glyph-name="uni042F" unicode="&#x42f;" horiz-adv-x="619" d="M621 640 L393 640 C280 640 150 573 121 440 C101 347 152 292 230 268 L-26 0 L140 0 L365 253 L401 253 L348 0 L486 0 L621 640 Z M362 355 C289 355 254 390 267 449 C278 503 322 536 400 536 L461 536 L423 355 L362 355 Z " />
<glyph glyph-name="uni0430" unicode="&#x430;" horiz-adv-x="570" d="M451 461 L430 416 C404 451 362 473 301 473 C180 473 66 381 33 227 C1 77 75 -10 193 -10 C259 -10 314 15 357 53 L361 0 L467 0 L558 461 L451 461 Z M166 235 C183 311 240 364 308 364 C380 364 419 307 402 227 C386 151 327 99 259 99 C188 99 150 155 166 235 L166 235 Z " />
<glyph glyph-name="uni0431" unicode="&#x431;" horiz-adv-x="581" d="M261 -14 C412 -14 510 87 532 202 C553 307 503 418 353 418 C283 418 229 387 186 333 C208 434 282 513 361 534 C422 551 504 556 570 607 L519 693 C467 660 410 655 337 637 C224 612 98 517 61 324 C44 231 54 164 76 110 C102 36 162 -14 261 -14 L261 -14 Z M259 86 C197 86 166 133 178 196 C191 266 256 321 322 321 C381 321 416 276 404 215 C390 143 330 86 259 86 L259 86 Z " />
<glyph glyph-name="uni0432" unicode="&#x432;" horiz-adv-x="538" d="M370 254 C420 268 456 302 465 350 C479 419 426 461 327 461 L103 461 L13 0 L258 0 C369 0 451 52 466 133 C479 198 442 243 370 254 L370 254 Z M344 334 C338 301 308 283 269 283 L188 283 L207 383 L291 383 C325 383 351 369 344 334 L344 334 Z M341 142 C332 97 293 78 248 78 L148 78 L173 208 L271 208 C321 208 349 184 341 142 L341 142 Z " />
<glyph glyph-name="uni0433" unicode="&#x433;" horiz-adv-x="411" d="M452 461 L103 461 L13 0 L141 0 L210 352 L430 352 L452 461 Z " />
<glyph glyph-name="uni0434" unicode="&#x434;" horiz-adv-x="554" d="M522 461 L162 461 L140 349 C128 283 105 174 29 107 L-11 107 L-32 0 L-54 -115 L56 -115 L91 0 L370 0 L360 -115 L469 -115 L512 107 L453 107 L522 461 Z M254 314 L262 354 L380 354 L332 107 L154 107 C204 162 238 233 254 314 L254 314 Z " />
<glyph glyph-name="uni0435" unicode="&#x435;" horiz-adv-x="530" d="M328 473 C184 473 61 374 34 237 C6 94 92 -14 256 -14 C336 -14 401 9 454 54 L375 130 C345 99 306 80 256 80 C187 80 156 127 162 198 L270 198 C430 198 509 250 512 332 C516 417 432 473 328 473 L328 473 Z M394 328 C392 289 332 273 267 273 L180 273 C208 339 260 378 319 378 C362 378 395 358 394 328 L394 328 Z " />
<glyph glyph-name="uni0436" unicode="&#x436;" horiz-adv-x="835" d="M844 461 L680 461 L494 293 L527 461 L398 461 L365 293 L245 461 L81 461 L244 251 L-36 0 L129 0 L348 207 L308 0 L437 0 L477 207 L616 0 L781 0 L599 251 L844 461 Z " />
<glyph glyph-name="uni0437" unicode="&#x437;" horiz-adv-x="455" d="M423 345 C436 416 379 476 260 477 C189 477 138 465 86 437 L119 347 C154 366 186 380 243 380 C290 380 309 359 306 338 C302 314 285 300 256 291 C230 282 202 280 164 280 L150 209 C189 209 222 211 252 200 C275 191 286 173 281 145 C275 115 236 87 176 87 C108 87 78 106 56 126 L-13 47 C27 11 81 -14 175 -13 C302 -11 385 43 401 123 C413 183 380 224 334 246 C378 265 414 297 423 345 L423 345 Z " />
<glyph glyph-name="uni0438" unicode="&#x438;" horiz-adv-x="558" d="M425 461 L175 184 L229 461 L103 461 L13 0 L134 0 L383 278 L330 0 L455 0 L546 461 L425 461 Z " />
<glyph glyph-name="uni0439" unicode="&#x439;" horiz-adv-x="558" d="M340 541 C437 541 497 585 514 660 L445 660 C435 633 401 604 343 604 C290 604 271 627 273 660 L205 660 C193 591 239 541 340 541 L340 541 Z M425 461 L175 184 L229 461 L103 461 L13 0 L134 0 L383 278 L330 0 L455 0 L546 461 L425 461 Z " />
<glyph glyph-name="uni043A" unicode="&#x43a;" horiz-adv-x="507" d="M531 461 L379 461 L197 289 L231 461 L103 461 L13 0 L141 0 L180 198 L309 0 L453 0 L282 244 L531 461 Z " />
<glyph glyph-name="uni043B" unicode="&#x43b;" horiz-adv-x="553" d="M540 461 L158 461 L137 353 L123 277 C104 180 73 105 10 105 C7 105 1 105 -6 106 L-17 0 C-7 -3 15 -4 31 -4 C137 -4 211 68 246 250 L266 353 L390 354 L321 -1 L450 -1 L540 461 Z " />
<glyph glyph-name="uni043C" unicode="&#x43c;" horiz-adv-x="655" d="M519 461 L518 458 L516 461 L329 249 L224 456 L225 461 L103 461 L13 0 L140 0 L194 278 L301 83 L478 275 L425 0 L552 0 L642 461 L519 461 Z " />
<glyph glyph-name="uni043D" unicode="&#x43d;" horiz-adv-x="543" d="M401 461 L367 286 L198 286 L232 461 L103 461 L13 0 L142 0 L178 185 L347 185 L311 0 L439 0 L530 461 L401 461 Z " />
<glyph glyph-name="uni043E" unicode="&#x43e;" horiz-adv-x="574" d="M243 -14 C391 -14 514 88 540 226 C567 368 482 473 330 473 C182 473 60 371 33 233 C6 91 91 -14 243 -14 L243 -14 Z M257 95 C188 95 150 150 165 226 C180 306 244 364 316 364 C384 364 423 309 408 233 C393 153 329 95 257 95 L257 95 Z " />
<glyph glyph-name="uni043F" unicode="&#x43f;" horiz-adv-x="555" d="M543 461 L103 461 L83 363 L84 363 L13 0 L142 0 L213 363 L395 363 L323 0 L452 0 L543 461 Z " />
<glyph glyph-name="uni0440" unicode="&#x440;" horiz-adv-x="576" d="M373 473 C309 473 257 449 216 412 L217 461 L103 461 L-28 -210 L101 -210 L152 48 C180 13 223 -10 286 -10 C404 -10 513 77 542 227 C571 381 494 473 373 473 L373 473 Z M411 235 C396 155 335 99 264 99 C195 99 158 151 173 227 C188 307 250 364 322 364 C390 364 426 311 411 235 L411 235 Z " />
<glyph glyph-name="uni0441" unicode="&#x441;" horiz-adv-x="460" d="M237 -14 C304 -14 358 3 409 36 L354 134 C327 111 291 97 257 97 C184 97 149 150 164 226 C180 306 238 362 315 362 C346 362 375 351 393 328 L482 421 C442 453 395 473 324 473 C183 473 60 371 33 233 C7 91 92 -14 237 -14 L237 -14 Z " />
<glyph glyph-name="uni0442" unicode="&#x442;" horiz-adv-x="451" d="M476 461 L65 461 L44 358 L189 358 L119 0 L248 0 L318 358 L455 358 L476 461 Z " />
<glyph glyph-name="uni0443" unicode="&#x443;" horiz-adv-x="525" d="M425 461 L246 162 L184 461 L50 461 L156 17 L11 -210 L145 -210 L565 461 L425 461 Z " />
<glyph glyph-name="uni0444" unicode="&#x444;" horiz-adv-x="680" d="M451 467 L491 680 L364 680 L324 470 C173 453 59 368 34 239 C8 107 87 14 229 -9 L191 -210 L318 -210 L356 -11 C506 6 620 90 645 220 C671 352 592 445 451 467 L451 467 Z M521 239 C506 162 448 112 367 95 L421 366 C497 355 535 312 521 239 L521 239 Z M158 220 C173 297 231 347 313 363 L259 92 C183 104 144 147 158 220 L158 220 Z " />
<glyph glyph-name="uni0445" unicode="&#x445;" horiz-adv-x="523" d="M540 461 L394 461 L278 323 L214 461 L75 461 L191 243 L-36 0 L112 0 L250 157 L326 0 L469 0 L337 238 L540 461 Z " />
<glyph glyph-name="uni0446" unicode="&#x446;" horiz-adv-x="563" d="M531 461 L402 461 L333 107 L163 107 L232 461 L103 461 L13 0 L380 0 L370 -115 L478 -115 L521 107 L462 107 L531 461 Z " />
<glyph glyph-name="uni0447" unicode="&#x447;" horiz-adv-x="519" d="M377 461 L340 272 C312 252 281 245 243 245 C195 245 180 271 189 321 L217 461 L88 461 L58 307 C31 170 123 135 204 135 C246 135 286 149 320 167 L287 0 L415 0 L506 461 L377 461 Z " />
<glyph glyph-name="uni0448" unicode="&#x448;" horiz-adv-x="751" d="M738 461 L609 461 L540 107 L416 107 L485 461 L356 461 L287 107 L163 107 L232 461 L103 461 L13 0 L648 0 L669 107 L738 461 Z " />
<glyph glyph-name="uni0449" unicode="&#x449;" horiz-adv-x="770" d="M738 461 L609 461 L540 107 L416 107 L485 461 L356 461 L287 107 L163 107 L232 461 L103 461 L13 0 L587 0 L577 -115 L685 -115 L729 107 L669 107 L738 461 Z " />
<glyph glyph-name="uni044A" unicode="&#x44a;" horiz-adv-x="562" d="M382 302 L272 302 L303 461 L66 461 L46 363 L156 363 L85 0 L333 0 C426 1 514 54 531 141 C550 238 476 302 382 302 L382 302 Z M407 160 C398 115 358 86 302 87 L229 87 L254 214 L336 215 C392 215 414 196 407 160 L407 160 Z " />
<glyph glyph-name="uni044B" unicode="&#x44b;" horiz-adv-x="752" d="M310 302 L199 302 L230 461 L103 461 L13 0 L260 0 C354 1 442 54 459 141 C478 238 404 302 310 302 L310 302 Z M610 461 L520 0 L649 0 L739 461 L610 461 Z M335 160 C326 115 286 86 230 87 L157 87 L182 214 L264 215 C320 215 342 196 335 160 L335 160 Z " />
<glyph glyph-name="uni044C" unicode="&#x44c;" horiz-adv-x="490" d="M310 302 L199 302 L230 461 L103 461 L13 0 L260 0 C354 1 442 54 459 141 C478 238 404 302 310 302 L310 302 Z M335 160 C326 115 286 86 230 87 L157 87 L182 214 L264 215 C320 215 342 196 335 160 L335 160 Z " />
<glyph glyph-name="uni044D" unicode="&#x44d;" horiz-adv-x="462" d="M237 473 C164 473 108 451 54 419 L103 346 C134 369 167 378 197 378 C266 378 306 335 310 270 L142 270 L126 189 L298 189 C274 123 223 80 157 80 C118 80 87 96 67 119 L-26 34 C13 1 60 -14 125 -14 C272 -14 403 95 431 239 C457 374 376 473 237 473 L237 473 Z " />
<glyph glyph-name="uni044E" unicode="&#x44e;" horiz-adv-x="772" d="M534 472 C408 472 303 393 265 279 L196 279 L231 460 L103 460 L13 -1 L142 -1 L177 180 L249 180 C251 65 330 -15 456 -15 C596 -15 711 84 737 219 C765 363 682 472 534 472 L534 472 Z M608 239 C592 156 529 94 460 94 C400 94 369 146 383 219 C399 302 462 363 530 363 C591 363 622 312 608 239 L608 239 Z " />
<glyph glyph-name="uni044F" unicode="&#x44f;" horiz-adv-x="536" d="M523 461 L283 461 C194 461 97 416 78 323 C64 250 101 205 159 183 L-18 0 L126 0 L279 167 L338 167 L305 0 L433 0 L523 461 Z M263 253 C216 253 195 272 202 307 C209 343 240 367 291 367 L377 367 L354 253 L263 253 Z " />
<glyph glyph-name="uni0450" unicode="&#x450;" horiz-adv-x="530" d="M421 536 L468 536 L362 698 L250 681 L321 585 C360 536 385 536 421 536 L421 536 Z M328 473 C184 473 61 374 34 237 C6 94 92 -14 256 -14 C336 -14 401 9 454 54 L375 130 C345 99 306 80 256 80 C187 80 156 127 162 198 L270 198 C430 198 509 250 512 332 C516 417 432 473 328 473 L328 473 Z M394 328 C392 289 332 273 267 273 L180 273 C208 339 260 378 319 378 C362 378 395 358 394 328 L394 328 Z " />
<glyph glyph-name="uni0451" unicode="&#x451;" horiz-adv-x="530" d="M252 549 C283 549 315 574 321 604 C327 639 302 668 267 668 C235 668 206 643 201 613 C194 578 216 549 252 549 L252 549 Z M477 668 C445 668 416 643 411 613 C404 578 426 549 462 549 C493 549 524 574 530 604 C536 639 512 668 477 668 L477 668 Z M328 473 C184 473 61 374 34 237 C6 94 92 -14 256 -14 C336 -14 401 9 454 54 L375 130 C345 99 306 80 256 80 C187 80 156 127 162 198 L270 198 C430 198 509 250 512 332 C516 417 432 473 328 473 L328 473 Z M394 328 C392 289 332 273 267 273 L180 273 C208 339 260 378 319 378 C362 378 395 358 394 328 L394 328 Z " />
<glyph glyph-name="uni0452" unicode="&#x452;" horiz-adv-x="592" d="M387 312 C325 312 274 290 235 249 L260 374 L462 374 L479 461 L276 461 L319 680 L190 680 L147 461 L78 461 L61 374 L131 374 L58 0 L187 0 L208 106 L207 96 C223 183 288 215 340 215 C394 215 423 178 412 121 C401 63 348 31 307 31 C289 31 280 32 268 36 L251 -59 C269 -65 287 -70 323 -70 C411 -70 514 -7 538 115 C564 257 478 312 387 312 L387 312 Z " />
<glyph glyph-name="uni0453" unicode="&#x453;" horiz-adv-x="411" d="M376 590 L482 686 L377 703 L212 541 L258 541 C294 541 319 541 376 590 L376 590 Z M452 461 L103 461 L13 0 L141 0 L210 352 L430 352 L452 461 Z " />
<glyph glyph-name="uni0454" unicode="&#x454;" horiz-adv-x="462" d="M247 80 C181 80 146 123 148 189 L320 189 L335 270 L168 270 C197 335 254 378 322 378 C352 378 382 369 404 346 L481 419 C440 451 392 473 319 473 C180 473 61 374 34 239 C6 95 94 -14 242 -14 C306 -14 359 1 411 34 L352 119 C322 96 285 80 247 80 L247 80 Z " />
<glyph glyph-name="uni0455" unicode="&#x455;" horiz-adv-x="452" d="M-10 60 C23 18 89 -14 187 -14 C305 -14 382 43 398 125 C430 293 195 238 211 320 C217 352 245 373 289 374 C317 374 354 360 375 336 L450 414 C423 444 364 473 287 473 C171 473 95 414 78 328 C45 156 275 213 259 135 C254 104 223 82 174 82 C137 82 99 95 71 139 L-10 60 Z " />
<glyph glyph-name="uni0456" unicode="&#x456;" horiz-adv-x="274" d="M196 531 C237 531 277 564 285 604 C293 644 266 677 225 677 C183 677 143 644 135 604 C128 564 155 531 196 531 L196 531 Z M28 0 L156 0 L246 461 L118 461 L28 0 Z " />
<glyph glyph-name="uni0457" unicode="&#x457;" horiz-adv-x="274" d="M113 673 C81 673 52 648 47 618 C40 583 62 554 98 554 C129 554 161 579 167 609 C173 644 148 673 113 673 L113 673 Z M323 673 C291 673 262 648 257 618 C250 583 272 554 308 554 C339 554 370 579 376 609 C382 644 358 673 323 673 L323 673 Z M28 0 L156 0 L246 461 L118 461 L28 0 Z " />
<glyph glyph-name="uni0458" unicode="&#x458;" horiz-adv-x="301" d="M220 531 C261 531 301 564 309 604 C317 644 290 677 249 677 C207 677 167 644 159 604 C152 564 179 531 220 531 L220 531 Z M178 -24 L271 461 L142 461 L50 -13 C36 -87 -6 -123 -83 -110 L-98 -207 C26 -232 145 -195 178 -24 L178 -24 Z " />
<glyph glyph-name="uni0459" unicode="&#x459;" horiz-adv-x="799" d="M619 302 L508 302 L539 461 L158 461 L137 353 L123 277 C104 180 73 105 10 105 C7 105 1 105 -6 106 L-17 0 C-7 -3 15 -4 31 -4 C137 -4 211 68 246 250 L266 353 L391 354 L322 0 L569 0 C663 1 751 54 768 141 C787 238 713 302 619 302 L619 302 Z M644 160 C635 115 595 86 539 87 L466 87 L491 214 L573 215 C629 215 651 196 644 160 L644 160 Z " />
<glyph glyph-name="uni045A" unicode="&#x45a;" horiz-adv-x="787" d="M608 302 L488 302 L519 461 L390 461 L359 302 L201 302 L232 461 L103 461 L13 0 L142 0 L184 214 L342 215 L300 0 L558 0 C652 1 740 54 757 141 C776 238 702 302 608 302 L608 302 Z M633 160 C624 115 583 86 528 87 L446 87 L471 215 L562 215 C617 215 639 196 633 160 L633 160 Z " />
<glyph glyph-name="uni045B" unicode="&#x45b;" horiz-adv-x="595" d="M379 312 C322 312 274 290 236 254 L260 374 L462 374 L479 461 L276 461 L319 680 L190 680 L147 461 L78 461 L61 374 L131 374 L58 0 L187 0 L205 95 L205 88 C220 167 279 203 330 203 C385 203 400 167 387 98 L368 0 L497 0 L521 123 C548 263 462 312 379 312 L379 312 Z " />
<glyph glyph-name="uni045C" unicode="&#x45c;" horiz-adv-x="507" d="M401 590 L507 686 L402 703 L237 541 L283 541 C319 541 344 541 401 590 L401 590 Z M531 461 L379 461 L197 289 L231 461 L103 461 L13 0 L141 0 L180 198 L309 0 L453 0 L282 244 L531 461 Z " />
<glyph glyph-name="uni045D" unicode="&#x45d;" horiz-adv-x="558" d="M405 541 L452 541 L346 703 L234 686 L305 590 C344 541 369 541 405 541 L405 541 Z M425 461 L175 184 L229 461 L103 461 L13 0 L134 0 L383 278 L330 0 L455 0 L546 461 L425 461 Z " />
<glyph glyph-name="uni045E" unicode="&#x45e;" horiz-adv-x="525" d="M326 536 C423 536 483 580 500 655 L431 655 C421 628 387 599 329 599 C276 599 257 622 259 655 L191 655 C179 586 225 536 326 536 L326 536 Z M425 461 L246 162 L184 461 L50 461 L156 17 L11 -210 L145 -210 L565 461 L425 461 Z " />
<glyph glyph-name="uni045F" unicode="&#x45f;" horiz-adv-x="544" d="M531 461 L402 461 L333 106 L311 106 L311 107 L187 107 L187 106 L163 106 L232 461 L103 461 L13 0 L166 0 L143 -116 L268 -116 L290 0 L441 0 L462 106 L531 461 Z " />
<glyph glyph-name="uni0462" unicode="&#x462;" horiz-adv-x="650" d="M414 394 L295 394 L309 466 L497 466 L514 556 L327 556 L343 640 L205 640 L189 556 L104 556 L87 466 L171 466 L80 0 L346 0 C462 1 572 72 595 187 C619 312 530 394 414 394 L414 394 Z M457 207 C444 143 391 103 316 103 L238 104 L275 290 L360 291 C436 291 467 262 457 207 L457 207 Z " />
<glyph glyph-name="uni0463" unicode="&#x463;" horiz-adv-x="575" d="M358 302 L245 302 L259 374 L462 374 L479 461 L275 461 L318 680 L190 680 L147 461 L78 461 L61 374 L131 374 L58 0 L303 0 C397 1 488 57 506 148 C524 242 452 302 358 302 L358 302 Z M379 153 C371 111 335 86 279 87 L203 87 L228 214 L306 215 C362 215 386 192 379 153 L379 153 Z " />
<glyph glyph-name="uni0472" unicode="&#x472;" horiz-adv-x="782" d="M469 657 C261 657 97 510 62 327 C26 138 137 -14 349 -14 C556 -14 721 133 756 317 C792 505 680 657 469 657 L469 657 Z M455 534 C565 534 623 459 619 365 L218 365 C254 460 344 534 455 534 L455 534 Z M363 108 C253 108 196 185 200 279 L601 279 C564 184 474 108 363 108 L363 108 Z " />
<glyph glyph-name="uni0473" unicode="&#x473;" horiz-adv-x="575" d="M331 473 C182 473 61 371 33 233 C6 91 91 -14 244 -14 C394 -14 515 88 542 226 C570 368 485 473 331 473 L331 473 Z M320 380 C389 380 429 334 427 265 L163 265 C190 334 250 380 320 380 L320 380 Z M255 79 C187 79 146 125 147 194 L412 194 C385 125 325 79 255 79 L255 79 Z " />
<glyph glyph-name="uni0474" unicode="&#x474;" horiz-adv-x="717" d="M699 647 C661 647 590 638 536 544 L324 168 L243 640 L95 640 L233 0 L352 0 L633 480 C647 506 680 528 706 528 C717 528 727 527 738 523 L790 631 C762 640 735 647 699 647 L699 647 Z " />
<glyph glyph-name="uni0475" unicode="&#x475;" horiz-adv-x="554" d="M523 470 C481 470 426 459 378 378 L241 150 L184 461 L50 461 L160 0 L267 0 L465 318 C478 343 504 363 528 363 C537 363 547 361 556 358 L604 455 C578 464 557 470 523 470 L523 470 Z " />
<glyph glyph-name="uni0490" unicode="&#x490;" horiz-adv-x="517" d="M579 759 L473 759 L440 640 L157 640 L32 0 L170 0 L272 523 L533 523 L556 640 L579 759 Z " />
<glyph glyph-name="uni0491" unicode="&#x491;" horiz-adv-x="411" d="M476 588 L370 588 L334 461 L103 461 L13 0 L141 0 L210 352 L430 352 L452 461 L451 461 L476 588 Z " />
<glyph glyph-name="uni04BB" unicode="&#x4bb;" horiz-adv-x="551" d="M371 473 C311 473 261 449 222 411 L274 680 L145 680 L13 0 L142 0 L193 261 C214 336 267 364 311 364 C370 364 387 324 373 255 L324 0 L453 0 L509 287 C536 427 452 473 371 473 L371 473 Z " />
<glyph glyph-name="uni04C0" unicode="&#x4c0;" horiz-adv-x="313" d="M305 640 L167 640 L42 0 L180 0 L305 640 Z " />
<glyph glyph-name="uni04D8" unicode="&#x4d8;" horiz-adv-x="725" d="M427 655 C322 655 225 617 155 548 L243 467 C291 512 345 535 410 535 C515 535 571 463 570 368 L70 368 L60 314 C23 121 124 -12 312 -12 C501 -12 664 135 699 318 C734 504 628 655 427 655 L427 655 Z M327 101 C228 101 177 168 188 273 L551 273 C514 173 428 101 327 101 L327 101 Z " />
<glyph glyph-name="uni04D9" unicode="&#x4d9;" horiz-adv-x="530" d="M274 475 C194 475 129 452 76 407 L155 331 C185 362 224 381 274 381 C343 381 374 334 368 263 L260 263 C100 263 21 211 18 129 C14 44 98 -12 202 -12 C346 -12 469 87 496 224 C524 367 438 475 274 475 L274 475 Z M211 83 C168 83 135 103 136 133 C138 172 198 188 263 188 L350 188 C322 122 270 83 211 83 L211 83 Z " />
<glyph glyph-name="uni04E2" unicode="&#x4e2;" horiz-adv-x="729" d="M629 786 L326 786 L314 721 L616 721 L629 786 Z M604 640 L211 214 L301 640 L168 640 L32 0 L160 0 L553 425 L463 0 L595 0 L731 640 L604 640 Z " />
<glyph glyph-name="uni04E3" unicode="&#x4e3;" horiz-adv-x="558" d="M505 637 L202 637 L190 572 L492 572 L505 637 Z M425 461 L175 184 L229 461 L103 461 L13 0 L134 0 L383 278 L330 0 L455 0 L546 461 L425 461 Z " />
<glyph glyph-name="uni04E8" unicode="&#x4e8;" horiz-adv-x="782" d="M469 657 C261 657 97 510 62 327 C26 138 137 -14 349 -14 C556 -14 721 133 756 317 C792 505 680 657 469 657 L469 657 Z M455 534 C565 534 623 459 619 365 L218 365 C254 460 344 534 455 534 L455 534 Z M363 108 C253 108 196 185 200 279 L601 279 C564 184 474 108 363 108 L363 108 Z " />
<glyph glyph-name="uni04E9" unicode="&#x4e9;" horiz-adv-x="575" d="M331 473 C182 473 61 371 33 233 C6 91 91 -14 244 -14 C394 -14 515 88 542 226 C570 368 485 473 331 473 L331 473 Z M320 380 C389 380 429 334 427 265 L163 265 C190 334 250 380 320 380 L320 380 Z M255 79 C187 79 146 125 147 194 L412 194 C385 125 325 79 255 79 L255 79 Z " />
<glyph glyph-name="uni04EE" unicode="&#x4ee;" horiz-adv-x="623" d="M569 786 L266 786 L254 721 L556 721 L569 786 Z M529 640 L333 370 L248 640 L95 640 L233 231 L65 0 L224 0 L688 640 L529 640 Z " />
<glyph glyph-name="uni04EF" unicode="&#x4ef;" horiz-adv-x="525" d="M490 631 L187 631 L175 566 L477 566 L490 631 Z M425 461 L246 162 L184 461 L50 461 L156 17 L11 -210 L145 -210 L565 461 L425 461 Z " />
<glyph glyph-name="uni0E3F" unicode="&#xe3f;" horiz-adv-x="560" d="M512 480 C528 567 480 626 386 638 L406 745 L328 745 L308 640 L145 640 L22 0 L185 0 L166 -99 L244 -99 L263 0 C390 5 479 72 499 178 C517 271 475 331 389 350 C458 371 499 416 512 480 L512 480 Z M390 474 C379 421 336 389 278 389 L224 389 L253 543 L316 543 C374 543 399 521 390 474 L390 474 Z M371 200 C359 136 307 97 235 97 L169 97 L206 292 L275 292 C347 292 383 260 371 200 L371 200 Z " />
<glyph glyph-name="uni1E02" unicode="&#x1e02;" horiz-adv-x="598" d="M369 696 C407 696 443 726 450 762 C458 799 433 829 395 829 C357 829 321 799 314 762 C307 726 332 696 369 696 L369 696 Z M550 480 C569 578 501 640 375 640 L157 640 L34 0 L276 0 C418 0 519 68 540 178 C558 271 514 331 422 350 C495 371 538 416 550 480 L550 480 Z M419 474 C409 421 364 389 303 389 L247 389 L276 543 L341 543 C402 543 428 521 419 474 L419 474 Z M402 200 C390 136 336 97 261 97 L192 97 L229 292 L300 292 C375 292 413 260 402 200 L402 200 Z " />
<glyph glyph-name="uni1E03" unicode="&#x1e03;" horiz-adv-x="575" d="M372 473 C312 473 263 452 223 419 L274 680 L145 680 L13 0 L119 0 L144 57 C172 17 217 -10 285 -10 C403 -10 512 77 541 227 C571 381 493 473 372 473 L372 473 Z M403 542 C441 542 477 572 484 608 C492 645 467 675 429 675 C391 675 355 645 348 608 C341 572 366 542 403 542 L403 542 Z M410 235 C395 155 334 99 263 99 C195 99 157 151 172 227 C187 307 249 364 322 364 C389 364 425 311 410 235 L410 235 Z " />
<glyph glyph-name="uni1E04" unicode="&#x1e04;" horiz-adv-x="598" d="M550 480 C569 578 501 640 375 640 L157 640 L34 0 L276 0 C418 0 519 68 540 178 C558 271 514 331 422 350 C495 371 538 416 550 480 L550 480 Z M419 474 C409 421 364 389 303 389 L247 389 L276 543 L341 543 C402 543 428 521 419 474 L419 474 Z M402 200 C390 136 336 97 261 97 L192 97 L229 292 L300 292 C375 292 413 260 402 200 L402 200 Z M248 -57 C210 -57 173 -86 166 -123 C159 -160 184 -190 222 -190 C259 -190 296 -160 303 -123 C310 -86 285 -57 248 -57 L248 -57 Z " />
<glyph glyph-name="uni1E05" unicode="&#x1e05;" horiz-adv-x="575" d="M372 473 C312 473 263 452 223 419 L274 680 L145 680 L13 0 L119 0 L144 57 C172 17 217 -10 285 -10 C403 -10 512 77 541 227 C571 381 493 473 372 473 L372 473 Z M410 235 C395 155 334 99 263 99 C195 99 157 151 172 227 C187 307 249 364 322 364 C389 364 425 311 410 235 L410 235 Z M251 -57 C213 -57 176 -86 169 -123 C162 -160 187 -190 225 -190 C262 -190 299 -160 306 -123 C313 -86 288 -57 251 -57 L251 -57 Z " />
<glyph glyph-name="uni1E0A" unicode="&#x1e0a;" horiz-adv-x="684" d="M403 696 C441 696 477 726 484 762 C492 799 467 829 429 829 C391 829 355 799 348 762 C341 726 366 696 403 696 L403 696 Z M373 640 L157 640 L34 0 L253 0 C471 0 623 136 658 317 C693 501 590 640 373 640 L373 640 Z M517 324 C492 192 394 114 257 114 L194 114 L273 526 L339 526 C476 526 542 452 517 324 L517 324 Z " />
<glyph glyph-name="uni1E0B" unicode="&#x1e0b;" horiz-adv-x="578" d="M479 680 L426 420 C399 452 358 473 299 473 C178 473 64 381 32 227 C2 77 77 -10 195 -10 C263 -10 319 17 362 57 L365 0 L471 0 L608 680 L479 680 Z M295 542 C333 542 369 572 376 608 C384 645 359 675 321 675 C283 675 247 645 240 608 C233 572 258 542 295 542 L295 542 Z M260 99 C189 99 150 155 166 235 C182 311 239 364 306 364 C378 364 418 307 402 227 C387 151 329 99 260 99 L260 99 Z " />
<glyph glyph-name="uni1E0C" unicode="&#x1e0c;" horiz-adv-x="684" d="M373 640 L157 640 L34 0 L253 0 C471 0 623 136 658 317 C693 501 590 640 373 640 L373 640 Z M517 324 C492 192 394 114 257 114 L194 114 L273 526 L339 526 C476 526 542 452 517 324 L517 324 Z M257 -57 C219 -57 182 -86 175 -123 C168 -160 193 -190 231 -190 C268 -190 305 -160 312 -123 C319 -86 294 -57 257 -57 L257 -57 Z " />
<glyph glyph-name="uni1E0D" unicode="&#x1e0d;" horiz-adv-x="573" d="M479 680 L426 420 C399 452 358 473 299 473 C178 473 64 381 32 227 C2 77 77 -10 195 -10 C263 -10 319 17 362 57 L365 0 L471 0 L608 680 L479 680 Z M260 99 C189 99 150 155 166 235 C182 311 239 364 306 364 C378 364 418 307 402 227 C387 151 329 99 260 99 L260 99 Z M217 -57 C179 -57 143 -86 136 -123 C128 -160 153 -190 191 -190 C229 -190 265 -160 272 -123 C279 -86 254 -57 217 -57 L217 -57 Z " />
<glyph glyph-name="uni1E0E" unicode="&#x1e0e;" horiz-adv-x="684" d="M373 640 L157 640 L34 0 L253 0 C471 0 623 136 658 317 C693 501 590 640 373 640 L373 640 Z M517 324 C492 192 394 114 257 114 L194 114 L273 526 L339 526 C476 526 542 452 517 324 L517 324 Z M91 -140 L393 -140 L405 -75 L103 -75 L91 -140 Z " />
<glyph glyph-name="uni1E0F" unicode="&#x1e0f;" horiz-adv-x="573" d="M479 680 L426 420 C399 452 358 473 299 473 C178 473 64 381 32 227 C2 77 77 -10 195 -10 C263 -10 319 17 362 57 L365 0 L471 0 L608 680 L479 680 Z M260 99 C189 99 150 155 166 235 C182 311 239 364 306 364 C378 364 418 307 402 227 C387 151 329 99 260 99 L260 99 Z M51 -140 L353 -140 L365 -75 L63 -75 L51 -140 Z " />
<glyph glyph-name="uni1E12" unicode="&#x1e12;" horiz-adv-x="684" d="M373 640 L157 640 L34 0 L253 0 C471 0 623 136 658 317 C693 501 590 640 373 640 L373 640 Z M517 324 C492 192 394 114 257 114 L194 114 L273 526 L339 526 C476 526 542 452 517 324 L517 324 Z M210 -49 L75 -169 L143 -169 C171 -169 180 -161 208 -140 L251 -104 L280 -140 C299 -162 306 -169 333 -169 L401 -169 L313 -49 L210 -49 Z " />
<glyph glyph-name="uni1E13" unicode="&#x1e13;" horiz-adv-x="578" d="M479 680 L426 420 C399 452 358 473 299 473 C178 473 64 381 32 227 C2 77 77 -10 195 -10 C263 -10 319 17 362 57 L365 0 L471 0 L608 680 L479 680 Z M260 99 C189 99 150 155 166 235 C182 311 239 364 306 364 C378 364 418 307 402 227 C387 151 329 99 260 99 L260 99 Z M176 -49 L41 -169 L109 -169 C137 -169 146 -161 174 -140 L217 -104 L246 -140 C265 -162 272 -169 299 -169 L367 -169 L279 -49 L176 -49 Z " />
<glyph glyph-name="uni1E1E" unicode="&#x1e1e;" horiz-adv-x="520" d="M373 696 C411 696 447 726 454 762 C462 799 437 829 399 829 C361 829 325 799 318 762 C311 726 336 696 373 696 L373 696 Z M548 527 L570 640 L157 640 L33 0 L171 0 L222 261 L452 261 L473 366 L242 366 L273 527 L548 527 Z " />
<glyph glyph-name="uni1E1F" unicode="&#x1e1f;" horiz-adv-x="387" d="M333 741 C371 741 407 771 414 807 C422 844 397 874 359 874 C321 874 285 844 278 807 C271 771 296 741 333 741 L333 741 Z M362 591 C374 591 391 589 417 574 L471 666 C432 690 399 700 353 700 C267 700 182 640 158 513 L148 461 L78 461 L59 363 L129 363 L19 -210 L143 -210 L257 363 L373 363 L391 461 L277 461 L289 521 C297 562 321 591 362 591 L362 591 Z " />
<glyph glyph-name="uni1E24" unicode="&#x1e24;" horiz-adv-x="693" d="M555 640 L506 383 L246 383 L295 640 L157 640 L34 0 L172 0 L224 272 L484 272 L432 0 L570 0 L693 640 L555 640 Z M291 -57 C253 -57 216 -86 209 -123 C202 -160 227 -190 265 -190 C302 -190 339 -160 346 -123 C353 -86 328 -57 291 -57 L291 -57 Z " />
<glyph glyph-name="uni1E25" unicode="&#x1e25;" horiz-adv-x="551" d="M371 473 C311 473 261 449 222 411 L274 680 L145 680 L13 0 L142 0 L193 261 C214 336 267 364 311 364 C370 364 387 324 373 255 L324 0 L453 0 L509 287 C536 427 452 473 371 473 L371 473 Z M231 -57 C193 -57 156 -86 149 -123 C142 -160 167 -190 205 -190 C242 -190 279 -160 286 -123 C293 -86 268 -57 231 -57 L231 -57 Z " />
<glyph glyph-name="uni1E2E" unicode="&#x1e2e;" horiz-adv-x="313" d="M220 818 L263 818 C293 818 312 821 334 838 L435 921 L341 939 L220 818 Z M160 812 C129 812 100 787 94 757 C88 722 110 693 146 693 C177 693 208 718 214 748 C220 783 196 812 160 812 L160 812 Z M370 812 C339 812 310 787 304 757 C298 722 320 693 356 693 C387 693 417 718 423 748 C430 783 406 812 370 812 L370 812 Z M305 640 L167 640 L42 0 L180 0 L305 640 Z " />
<glyph glyph-name="uni1E2F" unicode="&#x1e2f;" horiz-adv-x="274" d="M299 743 L405 839 L300 856 L135 694 L181 694 C217 694 242 694 299 743 L299 743 Z M113 673 C81 673 52 648 47 618 C40 583 62 554 98 554 C129 554 161 579 167 609 C173 644 148 673 113 673 L113 673 Z M323 673 C291 673 262 648 257 618 C250 583 272 554 308 554 C339 554 370 579 376 609 C382 644 358 673 323 673 L323 673 Z M28 0 L156 0 L246 461 L118 461 L28 0 Z " />
<glyph glyph-name="uni1E36" unicode="&#x1e36;" horiz-adv-x="511" d="M194 117 L295 640 L157 640 L34 0 L433 0 L455 117 L194 117 Z M210 -57 C172 -57 135 -86 128 -123 C121 -160 146 -190 184 -190 C221 -190 258 -160 265 -123 C272 -86 247 -57 210 -57 L210 -57 Z " />
<glyph glyph-name="uni1E37" unicode="&#x1e37;" horiz-adv-x="253" d="M17 0 L146 0 L278 680 L149 680 L17 0 Z M44 -190 C81 -190 118 -160 125 -123 C132 -86 107 -57 70 -57 C32 -57 -5 -86 -12 -123 C-19 -160 6 -190 44 -190 L44 -190 Z " />
<glyph glyph-name="uni1E3C" unicode="&#x1e3c;" horiz-adv-x="511" d="M194 117 L295 640 L157 640 L34 0 L433 0 L455 117 L194 117 Z M163 -49 L28 -169 L96 -169 C124 -169 133 -161 161 -140 L204 -104 L233 -140 C252 -162 259 -169 286 -169 L354 -169 L266 -49 L163 -49 Z " />
<glyph glyph-name="uni1E3D" unicode="&#x1e3d;" horiz-adv-x="253" d="M17 0 L146 0 L278 680 L149 680 L17 0 Z M126 -49 L23 -49 L-112 -169 L-44 -169 C-16 -169 -7 -161 21 -140 L64 -104 L93 -140 C112 -162 119 -169 146 -169 L214 -169 L126 -49 Z " />
<glyph glyph-name="uni1E3E" unicode="&#x1e3e;" horiz-adv-x="839" d="M581 739 L687 835 L582 852 L417 690 L463 690 C499 690 524 690 581 739 L581 739 Z M715 640 L715 639 L714 640 L439 334 L282 638 L282 640 L157 640 L34 0 L168 0 L250 424 L405 150 L665 423 L583 0 L717 0 L840 640 L715 640 Z " />
<glyph glyph-name="uni1E3F" unicode="&#x1e3f;" horiz-adv-x="812" d="M562 584 L668 680 L563 697 L398 535 L444 535 C480 535 505 535 562 584 L562 584 Z M634 473 C557 473 510 443 473 407 C454 451 413 473 357 473 C308 473 256 450 220 402 L217 461 L103 461 L15 0 L144 0 L191 246 C207 323 246 364 301 364 C351 364 362 322 350 259 L300 0 L429 0 L475 242 L475 239 C490 317 528 364 585 364 C635 364 647 322 635 259 L585 0 L714 0 L765 270 C791 406 740 473 634 473 L634 473 Z " />
<glyph glyph-name="uni1E44" unicode="&#x1e44;" horiz-adv-x="720" d="M450 696 C488 696 524 726 531 762 C539 799 514 829 476 829 C438 829 402 799 395 762 C388 726 413 696 450 696 L450 696 Z M588 640 L506 214 L284 640 L157 640 L34 0 L167 0 L249 425 L470 0 L597 0 L720 640 L588 640 Z " />
<glyph glyph-name="uni1E45" unicode="&#x1e45;" horiz-adv-x="552" d="M338 542 C376 542 412 572 419 608 C427 645 402 675 364 675 C326 675 290 645 283 608 C276 572 301 542 338 542 L338 542 Z M372 473 C311 473 260 449 221 410 L216 461 L103 461 L14 0 L143 0 L192 257 C213 335 266 364 312 364 C370 364 387 324 374 255 L325 0 L454 0 L510 287 C537 427 452 473 372 473 L372 473 Z " />
<glyph glyph-name="uni1E46" unicode="&#x1e46;" horiz-adv-x="720" d="M588 640 L506 214 L284 640 L157 640 L34 0 L167 0 L249 425 L470 0 L597 0 L720 640 L588 640 Z M305 -57 C267 -57 230 -86 223 -123 C216 -160 241 -190 279 -190 C316 -190 353 -160 360 -123 C367 -86 342 -57 305 -57 L305 -57 Z " />
<glyph glyph-name="uni1E47" unicode="&#x1e47;" horiz-adv-x="552" d="M372 473 C311 473 260 449 221 410 L216 461 L103 461 L14 0 L143 0 L192 257 C213 335 266 364 312 364 C370 364 387 324 374 255 L325 0 L454 0 L510 287 C537 427 452 473 372 473 L372 473 Z M220 -57 C182 -57 145 -86 138 -123 C131 -160 156 -190 194 -190 C231 -190 268 -160 275 -123 C282 -86 257 -57 220 -57 L220 -57 Z " />
<glyph glyph-name="uni1E4A" unicode="&#x1e4a;" horiz-adv-x="720" d="M588 640 L506 214 L284 640 L157 640 L34 0 L167 0 L249 425 L470 0 L597 0 L720 640 L588 640 Z M258 -49 L123 -169 L191 -169 C219 -169 228 -161 256 -140 L299 -104 L328 -140 C347 -162 354 -169 381 -169 L449 -169 L361 -49 L258 -49 Z " />
<glyph glyph-name="uni1E4B" unicode="&#x1e4b;" horiz-adv-x="552" d="M372 473 C311 473 260 449 221 410 L216 461 L103 461 L14 0 L143 0 L192 257 C213 335 266 364 312 364 C370 364 387 324 374 255 L325 0 L454 0 L510 287 C537 427 452 473 372 473 L372 473 Z M173 -49 L38 -169 L106 -169 C134 -169 143 -161 171 -140 L214 -104 L243 -140 C262 -162 269 -169 296 -169 L364 -169 L276 -49 L173 -49 Z " />
<glyph glyph-name="uni1E4C" unicode="&#x1e4c;" horiz-adv-x="782" d="M457 823 L500 823 C530 823 549 826 571 843 L672 926 L578 944 L457 823 Z M555 692 C614 692 644 734 664 763 L613 799 C599 779 588 757 555 757 C513 757 497 803 439 803 C384 803 352 763 330 737 L380 696 C392 713 406 737 441 737 C485 737 499 692 555 692 L555 692 Z M349 -14 C556 -14 721 133 756 317 C792 505 680 657 469 657 C261 657 97 510 62 327 C26 138 137 -14 349 -14 L349 -14 Z M363 108 C239 108 182 206 204 317 C225 433 326 534 455 534 C580 534 637 438 615 327 C593 211 492 108 363 108 L363 108 Z " />
<glyph glyph-name="uni1E4D" unicode="&#x1e4d;" horiz-adv-x="574" d="M318 668 L361 668 C391 668 410 671 432 688 L533 771 L439 789 L318 668 Z M415 537 C474 537 504 579 524 608 L473 644 C459 624 448 602 415 602 C373 602 357 648 299 648 C244 648 212 608 190 582 L240 541 C252 558 266 582 301 582 C345 582 359 537 415 537 L415 537 Z M243 -14 C391 -14 514 88 540 226 C567 368 482 473 330 473 C182 473 60 371 33 233 C6 91 91 -14 243 -14 L243 -14 Z M257 95 C188 95 150 150 165 226 C180 306 244 364 316 364 C384 364 423 309 408 233 C393 153 329 95 257 95 L257 95 Z " />
<glyph glyph-name="uni1E50" unicode="&#x1e50;" horiz-adv-x="782" d="M560 801 L487 922 L386 904 L455 821 C469 804 487 801 518 801 L560 801 Z M334 693 L636 693 L648 758 L346 758 L334 693 Z M349 -14 C556 -14 721 133 756 317 C792 505 680 657 469 657 C261 657 97 510 62 327 C26 138 137 -14 349 -14 L349 -14 Z M363 108 C239 108 182 206 204 317 C225 433 326 534 455 534 C580 534 637 438 615 327 C593 211 492 108 363 108 L363 108 Z " />
<glyph glyph-name="uni1E51" unicode="&#x1e51;" horiz-adv-x="574" d="M421 647 L348 768 L247 749 L316 667 C330 650 348 647 379 647 L421 647 Z M195 538 L497 538 L509 603 L207 603 L195 538 Z M243 -14 C391 -14 514 88 540 226 C567 368 482 473 330 473 C182 473 60 371 33 233 C6 91 91 -14 243 -14 L243 -14 Z M257 95 C188 95 150 150 165 226 C180 306 244 364 316 364 C384 364 423 309 408 233 C393 153 329 95 257 95 L257 95 Z " />
<glyph glyph-name="uni1E52" unicode="&#x1e52;" horiz-adv-x="782" d="M454 801 L497 801 C527 801 546 804 568 821 L669 904 L575 922 L454 801 Z M334 693 L636 693 L648 758 L346 758 L334 693 Z M349 -14 C556 -14 721 133 756 317 C792 505 680 657 469 657 C261 657 97 510 62 327 C26 138 137 -14 349 -14 L349 -14 Z M363 108 C239 108 182 206 204 317 C225 433 326 534 455 534 C580 534 637 438 615 327 C593 211 492 108 363 108 L363 108 Z " />
<glyph glyph-name="uni1E53" unicode="&#x1e53;" horiz-adv-x="574" d="M315 647 L358 647 C388 647 407 650 429 667 L530 749 L436 768 L315 647 Z M195 538 L497 538 L509 603 L207 603 L195 538 Z M243 -14 C391 -14 514 88 540 226 C567 368 482 473 330 473 C182 473 60 371 33 233 C6 91 91 -14 243 -14 L243 -14 Z M257 95 C188 95 150 150 165 226 C180 306 244 364 316 364 C384 364 423 309 408 233 C393 153 329 95 257 95 L257 95 Z " />
<glyph glyph-name="uni1E56" unicode="&#x1e56;" horiz-adv-x="579" d="M382 696 C420 696 456 726 463 762 C471 799 446 829 408 829 C370 829 334 799 327 762 C320 726 345 696 382 696 L382 696 Z M405 640 L157 640 L34 0 L172 0 L217 235 L332 235 C449 235 564 311 587 432 C611 558 523 640 405 640 L405 640 Z M447 442 C435 378 383 338 305 338 L237 338 L275 537 L348 537 C425 537 459 503 447 442 L447 442 Z " />
<glyph glyph-name="uni1E57" unicode="&#x1e57;" horiz-adv-x="576" d="M355 542 C393 542 429 572 436 608 C444 645 419 675 381 675 C343 675 307 645 300 608 C293 572 318 542 355 542 L355 542 Z M373 473 C309 473 257 449 216 412 L217 461 L103 461 L-28 -210 L101 -210 L152 48 C180 13 223 -10 286 -10 C404 -10 513 77 542 227 C571 381 494 473 373 473 L373 473 Z M411 235 C396 155 335 99 264 99 C195 99 158 151 173 227 C188 307 250 364 322 364 C390 364 426 311 411 235 L411 235 Z " />
<glyph glyph-name="uni1E60" unicode="&#x1e60;" horiz-adv-x="552" d="M374 696 C412 696 448 726 455 762 C463 799 438 829 400 829 C362 829 326 799 319 762 C312 726 337 696 374 696 L374 696 Z M234 -14 C338 -14 465 39 491 178 C511 281 449 334 351 370 C278 400 241 424 249 466 C257 511 306 543 357 543 C399 543 432 527 466 490 L561 578 C517 622 457 657 364 657 C250 657 129 581 107 468 C86 356 169 308 260 276 C317 253 355 232 346 180 C335 128 277 100 229 100 C180 100 135 117 100 173 L-1 85 C54 17 131 -14 234 -14 L234 -14 Z " />
<glyph glyph-name="uni1E61" unicode="&#x1e61;" horiz-adv-x="452" d="M300 542 C338 542 374 572 381 608 C389 645 364 675 326 675 C288 675 252 645 245 608 C238 572 263 542 300 542 L300 542 Z M-10 60 C23 18 89 -14 187 -14 C305 -14 382 43 398 125 C430 293 195 238 211 320 C217 352 245 373 289 374 C317 374 354 360 375 336 L450 414 C423 444 364 473 287 473 C171 473 95 414 78 328 C45 156 275 213 259 135 C254 104 223 82 174 82 C137 82 99 95 71 139 L-10 60 Z " />
<glyph glyph-name="uni1E62" unicode="&#x1e62;" horiz-adv-x="552" d="M234 -14 C338 -14 465 39 491 178 C511 281 449 334 351 370 C278 400 241 424 249 466 C257 511 306 543 357 543 C399 543 432 527 466 490 L561 578 C517 622 457 657 364 657 C250 657 129 581 107 468 C86 356 169 308 260 276 C317 253 355 232 346 180 C335 128 277 100 229 100 C180 100 135 117 100 173 L-1 85 C54 17 131 -14 234 -14 L234 -14 Z M201 -190 C238 -190 275 -160 282 -123 C289 -86 264 -57 227 -57 C189 -57 152 -86 145 -123 C138 -160 163 -190 201 -190 L201 -190 Z " />
<glyph glyph-name="uni1E63" unicode="&#x1e63;" horiz-adv-x="452" d="M-10 60 C23 18 89 -14 187 -14 C305 -14 382 43 398 125 C430 293 195 238 211 320 C217 352 245 373 289 374 C317 374 354 360 375 336 L450 414 C423 444 364 473 287 473 C171 473 95 414 78 328 C45 156 275 213 259 135 C254 104 223 82 174 82 C137 82 99 95 71 139 L-10 60 Z M153 -190 C190 -190 227 -160 234 -123 C241 -86 216 -57 179 -57 C141 -57 104 -86 97 -123 C90 -160 115 -190 153 -190 L153 -190 Z " />
<glyph glyph-name="uni1E6A" unicode="&#x1e6a;" horiz-adv-x="561" d="M372 696 C410 696 446 726 453 762 C461 799 436 829 398 829 C360 829 324 799 317 762 C310 726 335 696 372 696 L372 696 Z M599 640 L121 640 L99 525 L270 525 L169 0 L307 0 L408 525 L577 525 L599 640 Z " />
<glyph glyph-name="uni1E6B" unicode="&#x1e6b;" horiz-adv-x="372" d="M252 659 C290 659 326 689 333 725 C341 762 316 792 278 792 C240 792 204 762 197 725 C190 689 215 659 252 659 L252 659 Z M392 461 L278 461 L304 594 L175 594 L149 461 L78 461 L59 363 L130 363 L60 0 L189 0 L259 363 L373 363 L392 461 Z " />
<glyph glyph-name="uni1E6C" unicode="&#x1e6c;" horiz-adv-x="561" d="M599 640 L121 640 L99 525 L270 525 L169 0 L307 0 L408 525 L577 525 L599 640 Z M226 -57 C188 -57 151 -86 144 -123 C137 -160 162 -190 200 -190 C237 -190 274 -160 281 -123 C288 -86 263 -57 226 -57 L226 -57 Z " />
<glyph glyph-name="uni1E6D" unicode="&#x1e6d;" horiz-adv-x="372" d="M392 461 L278 461 L304 594 L175 594 L149 461 L78 461 L59 363 L130 363 L60 0 L189 0 L259 363 L373 363 L392 461 Z M113 -57 C75 -57 38 -86 31 -123 C24 -160 49 -190 87 -190 C124 -190 161 -160 168 -123 C175 -86 150 -57 113 -57 L113 -57 Z " />
<glyph glyph-name="uni1E6E" unicode="&#x1e6e;" horiz-adv-x="561" d="M599 640 L121 640 L99 525 L270 525 L169 0 L307 0 L408 525 L577 525 L599 640 Z M60 -140 L362 -140 L374 -75 L72 -75 L60 -140 Z " />
<glyph glyph-name="uni1E6F" unicode="&#x1e6f;" horiz-adv-x="372" d="M392 461 L278 461 L304 594 L175 594 L149 461 L78 461 L59 363 L130 363 L60 0 L189 0 L259 363 L373 363 L392 461 Z M-14 -140 L221 -140 L230 -75 L-4 -75 L-14 -140 Z " />
<glyph glyph-name="uni1E70" unicode="&#x1e70;" horiz-adv-x="561" d="M599 640 L121 640 L99 525 L270 525 L169 0 L307 0 L408 525 L577 525 L599 640 Z M180 -49 L45 -169 L113 -169 C141 -169 150 -161 178 -140 L221 -104 L250 -140 C269 -162 276 -169 303 -169 L371 -169 L283 -49 L180 -49 Z " />
<glyph glyph-name="uni1E71" unicode="&#x1e71;" horiz-adv-x="372" d="M392 461 L278 461 L304 594 L175 594 L149 461 L78 461 L59 363 L130 363 L60 0 L189 0 L259 363 L373 363 L392 461 Z M66 -49 L-69 -169 L-1 -169 C27 -169 36 -161 64 -140 L107 -104 L136 -140 C155 -162 162 -169 189 -169 L257 -169 L169 -49 L66 -49 Z " />
<glyph glyph-name="Wgrave" unicode="&#x1e80;" horiz-adv-x="971" d="M645 690 L692 690 L586 852 L474 835 L545 739 C584 690 609 690 645 690 L645 690 Z M877 640 L659 189 L621 640 L508 640 L295 189 L252 640 L107 640 L193 0 L316 0 L524 425 L568 0 L691 0 L1024 640 L877 640 Z " />
<glyph glyph-name="wgrave" unicode="&#x1e81;" horiz-adv-x="766" d="M514 536 L561 536 L455 698 L343 681 L414 585 C453 536 478 536 514 536 L514 536 Z M661 461 L511 164 L479 461 L375 461 L230 166 L194 461 L56 461 L139 0 L248 0 L399 311 L431 0 L539 0 L801 461 L661 461 Z " />
<glyph glyph-name="Wacute" unicode="&#x1e82;" horiz-adv-x="971" d="M649 739 L755 835 L650 852 L485 690 L531 690 C567 690 592 690 649 739 L649 739 Z M877 640 L659 189 L621 640 L508 640 L295 189 L252 640 L107 640 L193 0 L316 0 L524 425 L568 0 L691 0 L1024 640 L877 640 Z " />
<glyph glyph-name="wacute" unicode="&#x1e83;" horiz-adv-x="766" d="M517 584 L623 680 L518 697 L353 535 L399 535 C435 535 460 535 517 584 L517 584 Z M661 461 L511 164 L479 461 L375 461 L230 166 L194 461 L56 461 L139 0 L248 0 L399 311 L431 0 L539 0 L801 461 L661 461 Z " />
<glyph glyph-name="Wdieresis" unicode="&#x1e84;" horiz-adv-x="971" d="M476 703 C507 703 539 728 545 758 C551 793 526 822 491 822 C459 822 430 797 425 767 C418 732 440 703 476 703 L476 703 Z M686 703 C717 703 748 728 754 758 C760 793 736 822 701 822 C669 822 640 797 635 767 C628 732 650 703 686 703 L686 703 Z M877 640 L659 189 L621 640 L508 640 L295 189 L252 640 L107 640 L193 0 L316 0 L524 425 L568 0 L691 0 L1024 640 L877 640 Z " />
<glyph glyph-name="wdieresis" unicode="&#x1e85;" horiz-adv-x="766" d="M345 549 C376 549 408 574 414 604 C420 639 395 668 360 668 C328 668 299 643 294 613 C287 578 309 549 345 549 L345 549 Z M555 549 C586 549 617 574 623 604 C629 639 605 668 570 668 C538 668 509 643 504 613 C497 578 519 549 555 549 L555 549 Z M661 461 L511 164 L479 461 L375 461 L230 166 L194 461 L56 461 L139 0 L248 0 L399 311 L431 0 L539 0 L801 461 L661 461 Z " />
<glyph glyph-name="uni1E92" unicode="&#x1e92;" horiz-adv-x="579" d="M593 640 L146 640 L123 522 L396 522 L24 102 L5 0 L485 0 L507 118 L202 118 L575 542 L593 640 Z M232 -57 C194 -57 157 -86 150 -123 C143 -160 168 -190 206 -190 C243 -190 280 -160 287 -123 C294 -86 269 -57 232 -57 L232 -57 Z " />
<glyph glyph-name="uni1E93" unicode="&#x1e93;" horiz-adv-x="480" d="M477 461 L95 461 L74 354 L287 354 L7 88 L-10 0 L404 0 L425 107 L180 107 L459 372 L477 461 Z M186 -57 C148 -57 111 -86 104 -123 C97 -160 122 -190 160 -190 C197 -190 234 -160 241 -123 C248 -86 223 -57 186 -57 L186 -57 Z " />
<glyph glyph-name="uni1E9E" unicode="&#x1e9e;" horiz-adv-x="654" d="M239 -4 C423 -32 572 49 603 207 C629 340 526 381 458 392 L620 547 L638 640 L417 640 C278 640 140 575 102 380 L28 0 L166 0 L239 376 C255 462 303 523 384 523 L470 523 L321 381 L306 304 L341 304 C419 304 473 271 460 206 C446 134 368 93 261 110 L239 -4 Z " />
<glyph glyph-name="uni1EA0" unicode="&#x1ea0;" horiz-adv-x="677" d="M617 0 L487 640 L346 640 L-30 0 L120 0 L195 138 L448 138 L470 0 L617 0 Z M252 242 L391 497 L431 242 L252 242 Z M283 -57 C245 -57 208 -86 201 -123 C194 -160 219 -190 257 -190 C294 -190 331 -160 338 -123 C345 -86 320 -57 283 -57 L283 -57 Z " />
<glyph glyph-name="uni1EA1" unicode="&#x1ea1;" horiz-adv-x="570" d="M451 461 L430 416 C404 451 362 473 301 473 C180 473 66 381 33 227 C1 77 75 -10 193 -10 C259 -10 314 15 357 53 L361 0 L467 0 L558 461 L451 461 Z M166 235 C183 311 240 364 308 364 C380 364 419 307 402 227 C386 151 327 99 259 99 C188 99 150 155 166 235 L166 235 Z M227 -57 C189 -57 152 -86 145 -123 C138 -160 163 -190 201 -190 C238 -190 275 -160 282 -123 C289 -86 264 -57 227 -57 L227 -57 Z " />
<glyph glyph-name="uni1EA4" unicode="&#x1ea4;" horiz-adv-x="677" d="M685 874 L564 753 L607 753 C637 753 656 756 678 773 L779 856 L685 874 Z M397 720 L440 755 L469 719 C488 697 495 691 522 691 L590 691 L502 810 L399 810 L264 691 L332 691 C360 691 370 698 397 720 L397 720 Z M346 640 L-30 0 L120 0 L195 138 L448 138 L470 0 L617 0 L487 640 L346 640 Z M252 242 L391 497 L431 242 L252 242 Z " />
<glyph glyph-name="uni1EA5" unicode="&#x1ea5;" horiz-adv-x="570" d="M589 719 L468 598 L510 598 C540 598 560 601 581 618 L682 700 L589 719 Z M309 565 L352 600 L381 564 C400 542 407 536 434 536 L502 536 L414 655 L311 655 L176 536 L244 536 C272 536 282 543 309 565 L309 565 Z M430 416 C404 451 362 473 301 473 C180 473 66 381 33 227 C1 77 75 -10 193 -10 C259 -10 314 15 357 53 L361 0 L467 0 L558 461 L451 461 L430 416 Z M166 235 C183 311 240 364 308 364 C380 364 419 307 402 227 C386 151 327 99 259 99 C188 99 150 155 166 235 L166 235 Z " />
<glyph glyph-name="uni1EA6" unicode="&#x1ea6;" horiz-adv-x="677" d="M263 753 L305 753 L232 874 L131 856 L200 773 C214 756 232 753 263 753 L263 753 Z M332 691 C360 691 370 698 397 720 L440 755 L469 719 C488 697 495 691 522 691 L590 691 L502 810 L399 810 L264 691 L332 691 Z M470 0 L617 0 L487 640 L346 640 L-30 0 L120 0 L195 138 L448 138 L470 0 Z M252 242 L391 497 L431 242 L252 242 Z " />
<glyph glyph-name="uni1EA7" unicode="&#x1ea7;" horiz-adv-x="570" d="M169 598 L211 598 L138 719 L37 700 L106 618 C120 601 139 598 169 598 L169 598 Z M244 536 C272 536 282 543 309 565 L352 600 L381 564 C400 542 407 536 434 536 L502 536 L414 655 L311 655 L176 536 L244 536 Z M451 461 L430 416 C404 451 362 473 301 473 C180 473 66 381 33 227 C1 77 75 -10 193 -10 C259 -10 314 15 357 53 L361 0 L467 0 L558 461 L451 461 Z M166 235 C183 311 240 364 308 364 C380 364 419 307 402 227 C386 151 327 99 259 99 C188 99 150 155 166 235 L166 235 Z " />
<glyph glyph-name="uni1EAA" unicode="&#x1eaa;" horiz-adv-x="677" d="M410 868 C454 868 469 822 525 822 C583 822 614 864 633 894 L582 929 C569 910 557 888 524 888 C482 888 466 933 408 933 C353 933 322 893 299 867 L349 827 C361 844 375 868 410 868 L410 868 Z M397 720 L440 755 L469 719 C488 697 495 691 522 691 L590 691 L502 810 L399 810 L264 691 L332 691 C360 691 370 698 397 720 L397 720 Z M346 640 L-30 0 L120 0 L195 138 L448 138 L470 0 L617 0 L487 640 L346 640 Z M252 242 L391 497 L431 242 L252 242 Z " />
<glyph glyph-name="uni1EAB" unicode="&#x1eab;" horiz-adv-x="570" d="M322 713 C366 713 381 667 437 667 C495 667 526 709 545 739 L494 774 C481 755 469 733 436 733 C394 733 378 778 320 778 C265 778 234 738 211 712 L261 672 C273 689 287 713 322 713 L322 713 Z M309 565 L352 600 L381 564 C400 542 407 536 434 536 L502 536 L414 655 L311 655 L176 536 L244 536 C272 536 282 543 309 565 L309 565 Z M451 461 L430 416 C404 451 362 473 301 473 C180 473 66 381 33 227 C1 77 75 -10 193 -10 C259 -10 314 15 357 53 L361 0 L467 0 L558 461 L451 461 Z M166 235 C183 311 240 364 308 364 C380 364 419 307 402 227 C386 151 327 99 259 99 C188 99 150 155 166 235 L166 235 Z " />
<glyph glyph-name="uni1EAC" unicode="&#x1eac;" horiz-adv-x="677" d="M397 720 L440 755 L469 719 C488 697 495 691 522 691 L590 691 L502 810 L399 810 L264 691 L332 691 C360 691 370 698 397 720 L397 720 Z M617 0 L487 640 L346 640 L-30 0 L120 0 L195 138 L448 138 L470 0 L617 0 Z M252 242 L391 497 L431 242 L252 242 Z M283 -57 C245 -57 208 -86 201 -123 C194 -160 219 -190 257 -190 C294 -190 331 -160 338 -123 C345 -86 320 -57 283 -57 L283 -57 Z " />
<glyph glyph-name="uni1EAD" unicode="&#x1ead;" horiz-adv-x="570" d="M309 565 L352 600 L381 564 C400 542 407 536 434 536 L502 536 L414 655 L311 655 L176 536 L244 536 C272 536 282 543 309 565 L309 565 Z M451 461 L430 416 C404 451 362 473 301 473 C180 473 66 381 33 227 C1 77 75 -10 193 -10 C259 -10 314 15 357 53 L361 0 L467 0 L558 461 L451 461 Z M166 235 C183 311 240 364 308 364 C380 364 419 307 402 227 C386 151 327 99 259 99 C188 99 150 155 166 235 L166 235 Z M227 -57 C189 -57 152 -86 145 -123 C138 -160 163 -190 201 -190 C238 -190 275 -160 282 -123 C289 -86 264 -57 227 -57 L227 -57 Z " />
<glyph glyph-name="uni1EAE" unicode="&#x1eae;" horiz-adv-x="677" d="M514 833 L615 916 L521 934 L400 813 L443 813 C473 813 492 816 514 833 L514 833 Z M433 690 C530 690 590 734 607 809 L538 809 C528 782 494 753 436 753 C383 753 364 776 366 809 L298 809 C286 740 332 690 433 690 L433 690 Z M470 0 L617 0 L487 640 L346 640 L-30 0 L120 0 L195 138 L448 138 L470 0 Z M252 242 L391 497 L431 242 L252 242 Z " />
<glyph glyph-name="uni1EAF" unicode="&#x1eaf;" horiz-adv-x="570" d="M426 679 L527 762 L434 780 L313 659 L355 659 C385 659 405 662 426 679 L426 679 Z M345 536 C442 536 502 580 519 655 L450 655 C440 628 406 599 348 599 C295 599 276 622 278 655 L210 655 C198 586 244 536 345 536 L345 536 Z M451 461 L430 416 C404 451 362 473 301 473 C180 473 66 381 33 227 C1 77 75 -10 193 -10 C259 -10 314 15 357 53 L361 0 L467 0 L558 461 L451 461 Z M166 235 C183 311 240 364 308 364 C380 364 419 307 402 227 C386 151 327 99 259 99 C188 99 150 155 166 235 L166 235 Z " />
<glyph glyph-name="uni1EB0" unicode="&#x1eb0;" horiz-adv-x="677" d="M464 813 L506 813 L433 934 L332 916 L401 833 C415 816 433 813 464 813 L464 813 Z M433 690 C530 690 590 734 607 809 L538 809 C528 782 494 753 436 753 C383 753 364 776 366 809 L298 809 C286 740 332 690 433 690 L433 690 Z M470 0 L617 0 L487 640 L346 640 L-30 0 L120 0 L195 138 L448 138 L470 0 Z M252 242 L391 497 L431 242 L252 242 Z " />
<glyph glyph-name="uni1EB1" unicode="&#x1eb1;" horiz-adv-x="570" d="M376 659 L418 659 L345 780 L245 762 L313 679 C328 662 346 659 376 659 L376 659 Z M345 536 C442 536 502 580 519 655 L450 655 C440 628 406 599 348 599 C295 599 276 622 278 655 L210 655 C198 586 244 536 345 536 L345 536 Z M451 461 L430 416 C404 451 362 473 301 473 C180 473 66 381 33 227 C1 77 75 -10 193 -10 C259 -10 314 15 357 53 L361 0 L467 0 L558 461 L451 461 Z M166 235 C183 311 240 364 308 364 C380 364 419 307 402 227 C386 151 327 99 259 99 C188 99 150 155 166 235 L166 235 Z " />
<glyph glyph-name="uni1EB4" unicode="&#x1eb4;" horiz-adv-x="677" d="M412 867 C456 867 470 821 527 821 C585 821 615 863 635 893 L584 928 C570 909 559 887 526 887 C484 887 468 933 410 933 C355 933 324 892 301 866 L351 826 C363 843 377 867 412 867 L412 867 Z M433 690 C530 690 590 734 607 809 L538 809 C528 782 494 753 436 753 C383 753 364 776 366 809 L298 809 C286 740 332 690 433 690 L433 690 Z M346 640 L-30 0 L120 0 L195 138 L448 138 L470 0 L617 0 L487 640 L346 640 Z M252 242 L391 497 L431 242 L252 242 Z " />
<glyph glyph-name="uni1EB5" unicode="&#x1eb5;" horiz-adv-x="570" d="M324 713 C368 713 382 667 439 667 C497 667 527 709 547 739 L496 774 C482 755 471 733 438 733 C396 733 380 779 322 779 C267 779 236 738 213 712 L263 672 C275 689 289 713 324 713 L324 713 Z M345 536 C442 536 502 580 519 655 L450 655 C440 628 406 599 348 599 C295 599 276 622 278 655 L210 655 C198 586 244 536 345 536 L345 536 Z M451 461 L430 416 C404 451 362 473 301 473 C180 473 66 381 33 227 C1 77 75 -10 193 -10 C259 -10 314 15 357 53 L361 0 L467 0 L558 461 L451 461 Z M166 235 C183 311 240 364 308 364 C380 364 419 307 402 227 C386 151 327 99 259 99 C188 99 150 155 166 235 L166 235 Z " />
<glyph glyph-name="uni1EB6" unicode="&#x1eb6;" horiz-adv-x="677" d="M433 690 C530 690 590 734 607 809 L538 809 C528 782 494 753 436 753 C383 753 364 776 366 809 L298 809 C286 740 332 690 433 690 L433 690 Z M617 0 L487 640 L346 640 L-30 0 L120 0 L195 138 L448 138 L470 0 L617 0 Z M252 242 L391 497 L431 242 L252 242 Z M283 -57 C245 -57 208 -86 201 -123 C194 -160 219 -190 257 -190 C294 -190 331 -160 338 -123 C345 -86 320 -57 283 -57 L283 -57 Z " />
<glyph glyph-name="uni1EB7" unicode="&#x1eb7;" horiz-adv-x="570" d="M345 536 C442 536 502 580 519 655 L450 655 C440 628 406 599 348 599 C295 599 276 622 278 655 L210 655 C198 586 244 536 345 536 L345 536 Z M451 461 L430 416 C404 451 362 473 301 473 C180 473 66 381 33 227 C1 77 75 -10 193 -10 C259 -10 314 15 357 53 L361 0 L467 0 L558 461 L451 461 Z M166 235 C183 311 240 364 308 364 C380 364 419 307 402 227 C386 151 327 99 259 99 C188 99 150 155 166 235 L166 235 Z M227 -57 C189 -57 152 -86 145 -123 C138 -160 163 -190 201 -190 C238 -190 275 -160 282 -123 C289 -86 264 -57 227 -57 L227 -57 Z " />
<glyph glyph-name="uni1EB8" unicode="&#x1eb8;" horiz-adv-x="539" d="M548 527 L570 640 L157 640 L33 0 L446 0 L468 113 L193 113 L223 269 L454 269 L474 372 L243 372 L273 527 L548 527 Z M230 -57 C192 -57 155 -86 148 -123 C141 -160 166 -190 204 -190 C241 -190 278 -160 285 -123 C292 -86 267 -57 230 -57 L230 -57 Z " />
<glyph glyph-name="uni1EB9" unicode="&#x1eb9;" horiz-adv-x="530" d="M328 473 C184 473 61 374 34 237 C6 94 92 -14 256 -14 C336 -14 401 9 454 54 L375 130 C345 99 306 80 256 80 C187 80 156 127 162 198 L270 198 C430 198 509 250 512 332 C516 417 432 473 328 473 L328 473 Z M394 328 C392 289 332 273 267 273 L180 273 C208 339 260 378 319 378 C362 378 395 358 394 328 L394 328 Z M219 -61 C181 -61 144 -90 137 -127 C130 -164 155 -194 193 -194 C230 -194 267 -164 274 -127 C281 -90 256 -61 219 -61 L219 -61 Z " />
<glyph glyph-name="uni1EBC" unicode="&#x1ebc;" horiz-adv-x="539" d="M329 737 C373 737 387 692 443 692 C502 692 532 734 552 763 L501 799 C487 779 476 757 443 757 C401 757 385 803 327 803 C272 803 240 763 218 737 L268 696 C280 713 294 737 329 737 L329 737 Z M548 527 L570 640 L157 640 L33 0 L446 0 L468 113 L193 113 L223 269 L454 269 L474 372 L243 372 L273 527 L548 527 Z " />
</font>
</svg>
